<?xml version="1.0" encoding="UTF-8"?>
<svg xmlns="http://www.w3.org/2000/svg" id="-svg" class="Diagram"  baseProfile="full" prefix="schema:http://schema.org/" preserveAspectRatio="xMidYMid"  version="1.1"><defs><g id="icon-defs"><symbol id="Brace" class=" Icon Brace" x="0" y="0" overflow="visible" preserveAspectRatio="none" viewBox="0 0 100 100"><desc>Brace</desc><path d="m1.5 49.5c0-16.17 8.17-24.25 24.5-24.25s24.5-8.08 24.5-24.25c0 16.17 8.17 24.25 24.5 24.25s24.5 8.08 24.5 24.25" vector-effect="non-scaling-stroke"/></symbol></g><g id="marker-defs"><marker id="markerstartarrow000" markerHeight="12" markerWidth="12" orient="auto" preserveAspectRatio="none" refY="6" viewBox="0 0 12 12"><g id="g-markerstartarrow000" transform="rotate(180 6 6)"><g transform="rotate(180 6 6)"><rect y="5.4" width="2" height="1.2" style="stroke:#fff"/><polygon points="12 11 0 6 12 1" stroke-width="0"/></g></g></marker><marker id="mea" markerHeight="12" markerWidth="12" orient="auto" preserveAspectRatio="none" refX="12" refY="6" viewBox="0 0 12 12"><g id="g-mea" transform=""><g transform="rotate(180 6 6)"><rect y="5.4" width="2" height="1.2" style="stroke:#fff"/><polygon points="12 11 0 6 12 1" stroke-width="0"/></g></g></marker><marker id="mea0f0" markerHeight="12" markerWidth="12" orient="auto" preserveAspectRatio="none" refX="12" refY="6" viewBox="0 0 12 12"><g id="g-mea0f0" transform=""><g transform="rotate(180 6 6)"><rect y="5.4" width="2" height="1.2" style="stroke:#fff"/><polygon points="12 11 0 6 12 1" fill="#0f0" stroke-width="0"/></g></g></marker><marker id="meaf00" markerHeight="12" markerWidth="12" orient="auto" preserveAspectRatio="none" refX="12" refY="6" viewBox="0 0 12 12"><g id="g-meaf00" transform=""><g transform="rotate(180 6 6)"><rect y="5.4" width="2" height="1.2" style="stroke:#fff"/><polygon points="12 11 0 6 12 1" fill="#f00" stroke-width="0"/></g></g></marker></g></defs><g id="viewport-20220102135514836" class="svg-pan-zoom_viewport" transform="matrix(0.68 0 0 0.68 180.45 0)" style="transform:matrix(0.68, 0, 0, 0.68, 180.45, 0)"><style>svg.Diagram {font-family: 'Liberation Sans', Arial, sans-serif; }.Diagram path {fill: transparent;stroke: #000;marker-end: url(#mea);}.Diagram symbol path {fill: inherit;stroke: inherit;stroke-width: inherit;marker-end: inherit;}.Diagram rect {fill: #fff;stroke: #000;}.Diagram text {dominant-baseline: central;overflow: hidden;text-anchor: middle;fill: #000;font-size: 10px;}</style><style type="text/css">.Viewport .textContent {
  pointer-events: none;
  stroke-width: 0px;
}

					.Viewport.Icon {
  fill: white;
}

/* Hide the InfoBox */
.Viewport.textContent {
  font-size: 0;
}

.textContent {
  stroke: none;
}

.DataNode {
  stroke-miterlimit: 1;
  pointer-events: auto;
}

.DataNode:hover {
  cursor: pointer;
}

/* TODO should this apply to things other than DataNodes? */
.DataNode.textContent {
  pointer-events: none;
}

.DataNode.Highlighted {
  opacity: 0.6;
  stroke-width: 0px;
}

marker {
  /* this is what should work per the spec
  stroke-dasharray: none; */
  /* but I need to add this to make it work in Safari */
  stroke-dasharray: 9999999999999999999999999;
}

.Citation.Icon {
  fill: none;
  stroke-width: 0px;
}

.Citation.textContent {
  text-align: center;
  vertical-align: top;
  font-size: 7px;
  fill: #999;
  fill-opacity: 1;
  stroke: none;
}</style><g id="WP100" class="Pathway http___identifiers_org_pw_PW_0000134 Viewport"  name="Name: Glutathione metabolism Last Modified: 10/16/2013 Organism: Homo sapiens" ><g class="Pathway http___identifiers_org_pw_PW_0000134 Viewport"><rect   width="1225" height="976.67" style="stroke:none"/><g id="a159c" class="Edge"  ><path    d="m172 104h-88v393h278"/><g id="ba3c9" class="AB" transform="translate(248.21 497)"  ><g class="AB"/></g></g><g id="a4163" class="Edge"  ><path    d="m445.5 634v-20h250.5v-423"/></g><g id="aa67c" class="Edge"  ><path    d="m798 181.67-42-0.67" marker-start="url(#markerstartarrow000)" stroke-dasharray="5,3"/></g><g id="af9a0" class="Edge"  ><path    d="m416 634v-127"/><g id="b4ea5" class="AB" transform="translate(416,559)"  ><g class="AB"/></g></g><g id="b05e5" class="Edge"  ><path    d="m213.33 54.17-1.33 39.83" marker-start="url(#markerstartarrow000)" stroke-dasharray="5,3"/></g><g id="b5dfd" class="Edge"  ><path    d="m357 644-166-254"/><g id="d6e92" class="AB" transform="translate(268.68 508.86)"  ><g class="AB"/></g></g><g id="b73ff" class="Edge"  ><path    d="m769 644 155 0.5"/><g id="e1241" class="AB" transform="translate(831,644.2)"  ><g class="AB"/></g></g><g id="a2b0f" class="Edge"  ><path    d="m835.67 654.33-4.67-10.13"/></g><g id="ba0d1" class="Edge"  ><path    d="m416 487 107-176"/><g id="ad84b" class="AB" transform="translate(458.33 417.38)"  ><g class="AB"/></g></g><g id="a6184" class="Edge"  ><path    d="m458.33 417.38 73.67 36.62"/></g><g id="c0ae8" class="Edge"  ><path    d="m481.92 242.5 41.08 48.5" stroke-dasharray="5,3"/></g><g id="c59b5" class="Edge"  ><path    d="m637 644h-162" style="stroke:#0f0;marker-end:url(#mea0f0)"/><g id="c624f" class="AB" transform="translate(572.2,644)"  ><g class="AB"/></g></g><g id="b5e6d" class="Edge"  ><path    d="m570.67 634-238.47 10"/></g><g id="b876c" class="Edge"  ><path    d="m332.2 644 239.8-180" style="marker-end:none"/></g><g id="c674f" class="Edge"  ><path    d="m120 641 237 3" style="stroke:#0f0;marker-end:url(#mea0f0)"/><g id="cbfcf" class="AB" transform="translate(179.03 641.75)"  ><g class="AB"/></g></g><g id="bb624" class="Edge"  ><path    d="m182.67 631.33-3.64 10.41"/></g><g id="d494f" class="Edge"  ><path    d="m736 191v443"/><g id="cc0f4" class="AB" transform="translate(736 377)"  ><g class="AB"/></g><g id="f0f52" class="AB" transform="translate(736,330)"  ><g class="AB"/></g></g><g id="a11c1" class="Edge"  ><path    d="m736 330-153-29" style="marker-end:none"/></g><g id="da665" class="Edge"  ><path    d="m622.17 545.83-30.17-81.83" stroke-dasharray="5,3"/></g><g id="da83c" class="Edge"  ><path    d="m633 901-132.17 35.67" style="marker-end:none"/></g><g id="dbac2" class="Edge"  ><path    d="m503 301-43 0.08" marker-start="url(#markerstartarrow000)" stroke-dasharray="5,3"/></g><g id="def87" class="Edge"  ><path    d="m416 654v132h120" style="stroke:#f00;marker-end:url(#meaf00)"/><g id="b6aa6" class="AB" transform="translate(449.62 786)"  ><g class="AB"/></g><g id="f1fea" class="AB" transform="translate(485.07 786)"  ><g class="AB"/></g></g><g id="bfbdc" class="Edge"  ><path    d="m436.33 750.5 13.29 35.5" style="marker-end:none"/></g><g id="e2584" class="Edge"  ><path    d="m349 144 327 37"/><g id="dea92" class="AB" transform="translate(479.8 158.8)"  ><g class="AB"/></g></g><g id="e9e63" class="Edge"  ><path    d="m191 370 21-256"/><g id="a79e4" class="AB" transform="translate(204.81 201.59)"  ><g class="AB"/></g></g><g id="ba67d" class="Edge"  ><path    d="m204.81 201.59h104.19v-47.59"/></g><g id="ea330" class="Edge"  ><path    d="m616 786h106"/><g id="da2f7" class="AB" transform="translate(699,786)"  ><g class="AB"/></g><g id="f659a" class="AB" transform="translate(658.4,786)"  ><g class="AB"/></g></g><g id="eebef" class="Edge"  ><path    d="m416 654v282.67h29.83" style="stroke:#f00;marker-end:url(#meaf00)"/></g><g id="f04da" class="Edge"  ><path    d="m998 821 74 56"/><g id="ff2be" class="AB" transform="translate(1020.5 838.02)"  ><g class="AB"/></g><g id="df47c" class="AB" transform="translate(1046.3 857.56)"  ><g class="AB"/></g></g><g id="d8159" class="Edge"  ><path    d="m1015 802 5.50 36.02"/></g><g id="b79b9" class="Edge"  ><path    d="m1045.3 866.33 0.97-8.78"/></g><g id="f11ea" class="Edge"  ><path    d="m227.67 201.33-22.85 0.26"/></g><g id="f5753" class="Edge"  ><path    d="m670 634v-559h-127v216"/><g id="ac88c" class="AB" transform="translate(613.15 75)"  ><g class="AB"/></g></g><g id="b8d58" class="Edge"  ><path    d="m598.67 63.33 14.48 11.67"/></g><g id="f6fa9" class="Edge"  ><path    d="m475 169.67 4.8-10.87"/></g><g id="f7431" class="Edge"  ><path    d="m670 634v-559h-341v59"/><g id="e1568" class="AB" transform="translate(596.93 75)"  ><g class="AB"/></g></g><g id="ed0e8" class="Edge"  ><path    d="m598.67 63.33-1.73 11.67"/></g><g id="f840c" class="Edge"  ><path    d="m815 786 103 35"/><g id="c8453" class="AB" transform="translate(890.44 811.64)"  ><g class="AB"/></g><g id="e297a" class="AB" transform="translate(856.2,800)"  ><g class="AB"/></g></g><g id="eb0e5" class="Edge"  ><path    d="m890.44 811.64 25.56-30.64"/></g><g id="d3fae" class="Edge"  ><path    d="m850.67 809.33 184.03-9.33"/></g><g id="f9474" class="Edge"  ><path    d="m699 786 41-49"/></g><g id="fb137" class="Edge"  ><path    d="m416 654v237h164" style="stroke:#f00;marker-end:url(#meaf00)"/></g><g id="fbd2d" class="Edge"  ><path    d="m483.5 412-25.17 5.38"/></g><g id="bd52b" class="Edge"  ><path    d="m449.67 764.67 35.40 21.33"/></g><g id="cc87b" class="Edge"  ><path    d="m658 813.33 0.4-27.33"/></g><g id="da0a2" class="Edge"  ><path    d="m456 565-40-6"/></g><g id="a6afb" class="Edge"  ><path    d="m299 865.33h87.5v-211.33" style="stroke:#0f0;marker-end:url(#mea0f0)"/></g><g id="a6f10" class="Edge"  ><path    d="m54.33 865.33h-21.33v-214.33" style="stroke:#f00;marker-end:url(#meaf00)"/></g><g id="a3f94" class="Edge"  ><path    d="m269.33 532.67-0.65-23.80"/></g><g id="d90dc" class="Edge"  ><path    d="m269.33 532.67-21.12-35.67"/></g><g id="baad1" class="Edge"  ><path    d="m141.17 723.33h-3.33c-3.33 0-10 0-13.33-8.67-3.33-8.67-3.33-26 4.97-34.67 8.31-8.67 24.92-8.67 33.22-12 8.31-3.33 8.31-10 8.31-13.33v-3.33"/><g id="f9f30" class="AB" transform="translate(123.92 690.3)"  ><g class="AB"/></g></g><g id="e7cec" class="Edge"  ><path    d="m212.17 723.33h3.33c3.33 0 10 0 13.33-8.67 3.33-8.67 3.33-26-2.97-34.67-6.31-8.67-18.92-8.67-25.22-12-6.31-3.33-6.31-10-6.31-13.33v-3.33"/><g id="a404d" class="AB" transform="translate(230.65 693.92)"  ><g class="AB"/></g></g><g id="bf441" class="Edge"  ><path    d="m769.33 381.33-33.33-4.33"/></g><g id="b53d1" class="Edge"  ><path    d="m219 692 12.78 0.61" style="marker-end:none"/></g><g id="fdc35" class="Edge"  ><path    d="m140 688-17.47 0.99" style="marker-end:none"/></g><g id="e5598" class="GroupNone" transform="translate(7.67 806.33)"  ><g class="GroupNone"><rect   width="341.33" height="118" fill-opacity=".1" stroke-dasharray="5,3" style="fill:#b4b464;stroke:grey"/><g id="b05" class="" transform="translate(9 54.67) rotate(-90 50 4.33)"  ><g class=""><use class=" Node Icon" width="100" height="8.67" fill="#000" stroke="#000" href="#Brace"/></g></g><g id="e66" class="" transform="translate(225.67 54.67) rotate(90 53.33 4.33)"  ><g class=""><use class=" Node Icon" width="106.67" height="8.67" fill="#000" stroke="#000" href="#Brace"/></g></g><g id="a57" class="GeneProduct" transform="translate(139,89)"  name="1.8.4.4" ><rect   width="60" height="20"/><text   transform="translate(30,10)"    >1.8.4.4</text></g><g id="aa1" class="GeneProduct" transform="translate(139,69)"  name="1.8.4.1" ><rect   width="60" height="20"/><text   transform="translate(30,10)"    >1.8.4.1</text></g><g id="ac2" class="GeneProduct " transform="translate(205.67 29)"  name="GPX1" ><rect   width="60" height="20"/><text   transform="translate(30,10)"    >GPX1</text></g><g id="b85" class="GeneProduct " transform="translate(205.67 9)"  name="GPX2" ><rect   width="60" height="20"/><text   transform="translate(30,10)"    >GPX2</text></g><g id="c73" class="GeneProduct" transform="translate(139,9)"  name="1.8.4.3" ><rect   width="60" height="20"/><text   transform="translate(30,10)"    >1.8.4.3</text></g><g id="c92" class="GeneProduct" transform="translate(75.67 49)"  name="1.8.4.7" ><rect   width="60" height="20"/><text   transform="translate(30,10)"    >1.8.4.7</text></g><g id="cd4" class="GeneProduct" transform="translate(139,29)"  name="1.8.5.1" ><rect   width="60" height="20"/><text   transform="translate(30,10)"    >1.8.5.1</text></g><g id="d14" class="GeneProduct" transform="translate(75.67 29)"  name="1.8.4.2" ><rect   width="60" height="20"/><text   transform="translate(30,10)"    >1.8.4.2</text></g><g id="d1b" class="GeneProduct " transform="translate(205.67 69)"  name="GPX3" ><rect   width="60" height="20"/><text   transform="translate(30,10)"    >GPX3</text></g><g id="d89" class="GeneProduct" transform="translate(75.67 9)"  name="1.5.4.1" ><rect   width="60" height="20"/><text   transform="translate(30,10)"    >1.5.4.1</text></g><g id="e07" class="GeneProduct" transform="translate(75.67 69)"  name="1.11.1.12" ><rect   width="60" height="20"/><text   transform="translate(30,10)"    >1.11.1.12</text></g><g id="eca" class="GeneProduct" transform="translate(75.67 89)"  name="1.8.3.3" ><rect   width="60" height="20"/><text   transform="translate(30,10)"    >1.8.3.3</text></g><g id="f5d" class="GeneProduct " transform="translate(205.67 49)"  name="GPX4" ><rect   width="60" height="20"/><text   transform="translate(30,10)"    >GPX4</text></g><g id="fb3" class="GeneProduct" transform="translate(139,49)"  name="2.8.1.3" ><rect   width="60" height="20"/><text   transform="translate(30,10)"    >2.8.1.3</text></g></g></g><g id="a0e" class="Label" transform="translate(582.33 545.83)"  name="Cyanoamino acid metabolism" ><g class="Label"/><text   transform="translate(39.83 12.08)"    font-weight="bold"  style="fill:#00f;font-size:9px"><tspan   x="0" y="-4.95">Cyanoamino</tspan><tspan   x="0" y="4.95">acid metabolism</tspan></text></g><g id="aad" class="Label" transform="translate(144.17 39.17)"  name="Amino acid metabolism" ><g class="Label"/><text   transform="translate(69.17 7.5)"    font-weight="bold"  style="fill:#00f;font-size:9px">Amino acid metabolism</text></g><g id="ac9" class="Label" transform="translate(425.67 735.5)"  name="RX" ><g class="Label"/><text   transform="translate(10.67 7.5)"    font-weight="bold"  style="font-size:9px">RX</text></g><g id="adf" class="Label" transform="translate(339.17 287.17)"  name="Taurine and hypotaurine metabolism" ><g class="Label"/><text   transform="translate(60.42 13.92)"    font-weight="bold"  style="fill:#00f;font-size:9px"><tspan   x="0" y="-4.95">Taurine and hypotaurine</tspan><tspan   x="0" y="4.95">metabolism</tspan></text></g><g id="b8a" class="Label" transform="translate(798 174.17)"  name="Glutamate metabolism" ><g class="Label"/><text   transform="translate(63,7.5)"    font-weight="bold"  style="fill:#00f;font-size:9px">Glutamate metabolism</text></g><g id="d65" class="Label" transform="translate(382.67 668.33)"  name="Glutathione utilization" ><g class="Label"/><text   transform="translate(39.67 16.33)"    font-weight="bold"  style="fill:#f00"><tspan   x="0" y="-5.5">Glutathione</tspan><tspan   x="0" y="5.5">utilization</tspan></text></g><g id="d75" class="Label" transform="translate(450.33 545.33)"  name="g-Glutamyl Cycle" ><g class="Label"/><text   transform="translate(39.67 15.33)"    font-weight="bold"  style="fill:#00f;font-size:11px"><tspan   x="0" y="-6.05">g-Glutamyl</tspan><tspan   x="0" y="6.05">Cycle</tspan></text></g><g id="dbe" class="Label" transform="translate(16.83 918.67)"  name="Glutathione utilization" ><g class="Label"/><text   transform="translate(73.17 8)"    font-weight="bold"  style="fill:#f00">Glutathione utilization</text></g><g id="ddd" class="Label" transform="translate(424.83 227.5)"  name="Cysteine metabolism" ><g class="Label"/><text   transform="translate(57.08 7.5)"    font-weight="bold"  style="fill:#00f;font-size:9px">Cysteine metabolism</text></g><g id="e44" class="Label" transform="translate(110.33 608.67)"  name="glutathione recycling" ><g class="Label"/><text   transform="translate(69.67 8)"    font-weight="bold"  style="fill:#008000">glutathione recycling</text></g><g id="a03" class="GeneProduct" transform="translate(1017.8 846.33)"  name="2.3.1.80" ><rect   width="55" height="20"/><text   transform="translate(27.5,10)"    >2.3.1.80</text></g><g id="a0316" class="Metabolite KEGG_Compound_C00669" transform="translate(637,634)"  name="g-L-Glutamyl-L-cysteine" ><rect   width="132" height="20" style="stroke:#00f"/><text   transform="translate(66,10)"     style="fill:#00f">g-L-Glutamyl-L-cysteine</text></g><g id="a50e6" class="Metabolite KEGG_Compound_C00097" transform="translate(503,291)"  name="L-Cysteine" ><rect   width="80" height="20" style="stroke:#00f"/><text   transform="translate(40,10)"     style="fill:#00f">L-Cysteine</text></g><g id="af2" class="GeneProduct " transform="translate(159.33 631.33)"  name="GSR" ><rect   width="46.67" height="20"/><text   transform="translate(23.33 10)"    >GSR</text></g><g id="af3b1" class="Metabolite KEGG_Compound_C01419" transform="translate(362,487)"  name="Cysteinyl-glycine" ><rect   width="108" height="20" style="stroke:#00f"/><text   transform="translate(54,10)"     style="fill:#00f">Cysteinyl-glycine</text></g><g id="b16" class="GeneProduct " transform="translate(428.5,402)"  name="ANPEP" ><rect   width="55" height="20"/><text   transform="translate(27.5,10)"    >ANPEP</text></g><g id="b31" class="GeneProduct" transform="translate(575.33 63.33)"  name="2.3.2.4" ><rect   width="46.67" height="20"/><text   transform="translate(23.33 10)"    >2.3.2.4</text></g><g id="b3d" class="GeneProduct" transform="translate(808.17 634.33)"  name="1.8.1.13" ><rect   width="55" height="20"/><text   transform="translate(27.5,10)"    >1.8.1.13</text></g><g id="b69a1" class="Metabolite " transform="translate(876,761)"  name="Glycine" ><rect   width="80" height="20" style="stroke:#00f"/><text   transform="translate(40,10)"     style="fill:#00f">Glycine</text></g><g id="b8ac0" class="Metabolite KEGG_Compound_C01879" transform="translate(269,134)"  name="5-Oxoproline" ><rect   width="80" height="20" style="stroke:#00f"/><text   transform="translate(40,10)"     style="fill:#00f">5-Oxoproline</text></g><g id="b8fc9" class="Metabolite " transform="translate(532,444)"  name="Glycine" ><rect   width="80" height="20" style="stroke:#00f"/><text   transform="translate(40,10)"     style="fill:#00f">Glycine</text></g><g id="ba1" class="GeneProduct " transform="translate(547.33 634)"  name="GSS" ><rect   width="46.67" height="20"/><text   transform="translate(23.33 10)"    >GSS</text></g><g id="bb8fb" class="Metabolite KEGG_Compound_C00025" transform="translate(700,717)"  name="L-Glutamate" ><rect   width="80" height="20" style="stroke:#00f"/><text   transform="translate(40,10)"     style="fill:#00f">L-Glutamate</text></g><g id="bc94d" class="Metabolite " transform="translate(60,678)"  name="NADPH" ><rect   width="80" height="20" style="stroke:#00f"/><text   transform="translate(40,10)"     style="fill:#00f">NADPH</text></g><g id="bd4e0" class="Metabolite KEGG_Compound_C00025" transform="translate(676,171)"  name="L-Glutamate" ><rect   width="80" height="20" style="stroke:#00f"/><text   transform="translate(40,10)"     style="fill:#00f">L-Glutamate</text></g><g id="c0dd2" class="Metabolite KEGG_Compound_C03740" transform="translate(111,370)"  name="(5-L-Glutamyl)-L-amino acid" ><rect   width="160" height="20" style="stroke:#00f"/><text   transform="translate(80,10)"     style="fill:#00f">(5-L-Glutamyl)-L-amino acid</text></g><g id="d5223" class="Metabolite " transform="translate(1072,867)"  name="R-S-Mercapturonate" ><rect   width="123" height="20" style="stroke:#00f"/><text   transform="translate(61.5,10)"     style="fill:#00f">R-S-Mercapturonate</text></g><g id="d5f53" class="Metabolite KEGG_Compound_C00151" transform="translate(172,94)"  name="L-Amino acid" ><rect   width="80" height="20" style="stroke:#00f"/><text   transform="translate(40,10)"     style="fill:#00f">L-Amino acid</text></g><g id="d6534" class="Metabolite KEGG_Compound_C03646" transform="translate(924,633)"  name="Bis-g-glutamylcystine" ><rect   width="127" height="23" style="stroke:#00f"/><text   transform="translate(63.5,11.5)"     style="fill:#00f">Bis-g-glutamylcystine</text></g><g id="dca0d" class="Metabolite KEGG_Compound_C05726" transform="translate(918,811)"  name="R-S-Alanine" ><rect   width="80" height="20" style="stroke:#00f"/><text   transform="translate(40,10)"     style="fill:#00f">R-S-Alanine</text></g><g id="de8" class="GeneProduct" transform="translate(453.33 882.67)"  name="6.3.1.8" ><rect   width="46.67" height="20"/><text   transform="translate(23.33 10)"    >6.3.1.8</text></g><g id="e319c" class="Metabolite" transform="translate(580,881)"  name="Glutamylcysteinyl-glycylspermidine" ><rect   width="212" height="20" style="stroke:#00f"/><text   transform="translate(106,10)"     style="fill:#00f">Glutamylcysteinyl-glycylspermidine</text></g><g id="e3c6d" class="Metabolite " transform="translate(219,682)"  name="NADP+" ><rect   width="80" height="20" style="stroke:#00f"/><text   transform="translate(40,10)"     style="fill:#00f">NADP+</text></g><g id="e3f7e" class="Metabolite KEGG_Compound_C00051" transform="translate(357,634)"  name="Glutathione (reduced)" ><rect   width="118" height="20" style="stroke:#00f"/><text   transform="translate(59,10)"     style="fill:#00f">Glutathione (reduced)</text></g><g id="e5c" class="GeneProduct " transform="translate(823.17 789.33)"  name="ANPEP" ><rect   width="55" height="20"/><text   transform="translate(27.5,10)"    >ANPEP</text></g><g id="e6f61" class="Metabolite KEGG_Compound_C05729" transform="translate(722,776)"  name="R-S-Alanylglycine" ><rect   width="93" height="20" style="stroke:#00f"/><text   transform="translate(46.5,10)"     style="fill:#00f">R-S-Alanylglycine</text></g><g id="ea0e0" class="Metabolite " transform="translate(975,782)"  name="Acetyl-CoA" ><rect   width="80" height="20" style="stroke:#00f"/><text   transform="translate(40,10)"     style="fill:#00f">Acetyl-CoA</text></g><g id="ec0" class="GeneProduct " transform="translate(448.33 149.67)"  name="OPLAH" ><rect   width="53.33" height="20"/><text   transform="translate(26.67 10)"    >OPLAH</text></g><g id="ee42a" class="Metabolite KEGG_Compound_C02320" transform="translate(536,776)"  name="R-S-Glutathione" ><rect   width="80" height="20" style="stroke:#00f"/><text   transform="translate(40,10)"     style="fill:#00f">R-S-Glutathione</text></g><g id="ef1" class="GeneProduct" transform="translate(181 191.33)"  name="2.3.2.4" ><rect   width="46.67" height="20"/><text   transform="translate(23.33 10)"    >2.3.2.4</text></g><g id="fcb83" class="Metabolite KEGG_Compound_C00127" transform="translate(4,631)"  name="Oxidized glutathione" ><rect   width="116" height="20" style="stroke:#00f"/><text   transform="translate(58,10)"     style="fill:#00f">Oxidized glutathione</text></g><g id="fe1" class="GeneProduct" transform="translate(445.83 926.67)"  name="3.5.1.78" ><rect   width="55" height="20"/><text   transform="translate(27.5,10)"    >3.5.1.78</text></g><g id="bc4ac" class="GroupNone" transform="translate(448.67 695.67)"  ><g class="GroupNone"><rect   width="71.33" height="138" fill-opacity=".1" stroke-dasharray="5,3" style="fill:#b4b464;stroke:grey"/><g id="b5c" class="GeneProduct " transform="translate(9,29)"  name="GSTA1" ><rect   width="53.33" height="20"/><text   transform="translate(26.67 10)"    >GSTA1</text></g><g id="b6c" class="GeneProduct " transform="translate(9,109)"  name="GSTM2" ><rect   width="53.33" height="20"/><text   transform="translate(26.67 10)"    >GSTM2</text></g><g id="bb7" class="GeneProduct " transform="translate(9,9)"  name="GSTA5" ><rect   width="53.33" height="20"/><text   transform="translate(26.67 10)"    >GSTA5</text></g><g id="de1" class="GeneProduct " transform="translate(9,49)"  name="GSTT2" ><rect   width="53.33" height="20"/><text   transform="translate(26.67 10)"    >GSTT2</text></g><g id="f4a" class="GeneProduct " transform="translate(9,69)"  name="GSTT1" ><rect   width="53.33" height="20"/><text   transform="translate(26.67 10)"    >GSTT1</text></g><g id="fe8" class="GeneProduct " transform="translate(9,89)"  name="GSTM1" ><rect   width="53.33" height="20"/><text   transform="translate(26.67 10)"    >GSTM1</text></g></g></g><g id="cebfe" class="GroupNone" transform="translate(619 756.33)"  ><g class="GroupNone"><rect   width="78" height="58" fill-opacity=".1" stroke-dasharray="5,3" style="fill:#b4b464;stroke:grey"/><g id="c9b" class="GeneProduct " transform="translate(14,9)"  name="GGT1" ><rect   width="50" height="20"/><text   transform="translate(25,10)"    >GGT1</text></g><g id="f40" class="GeneProduct " transform="translate(9,29)"  name="GGTLA1" ><rect   width="60" height="20"/><text   transform="translate(30,10)"    >GGTLA1</text></g></g></g><g id="d989e" class="GroupNone" transform="translate(379,526)"  ><g class="GroupNone"><rect   width="78" height="78" fill-opacity=".1" stroke-dasharray="5,3" style="fill:#b4b464;stroke:grey"/><g id="a4b" class="GeneProduct " transform="translate(9,49)"  name="GGTLA1" ><rect   width="60" height="20"/><text   transform="translate(30,10)"    >GGTLA1</text></g><g id="a6d" class="GeneProduct " transform="translate(11.5,29)"  name="GGT1" ><rect   width="55" height="20"/><text   transform="translate(27.5,10)"    >GGT1</text></g><g id="b2f" class="GeneProduct" transform="translate(11.5,9)"  name="3.4.11.4" ><rect   width="55" height="20"/><text   transform="translate(27.5,10)"    >3.4.11.4</text></g></g></g><g id="e6d5a" class="GroupNone" transform="translate(211.33 475.67)"  ><g class="GroupNone"><rect   width="78" height="58" fill-opacity=".1" stroke-dasharray="5,3" style="fill:#b4b464;stroke:grey"/><g id="a71" class="GeneProduct " transform="translate(9,9)"  name="GGTLA1" ><rect   width="60" height="20"/><text   transform="translate(30,10)"    >GGTLA1</text></g><g id="d17" class="GeneProduct " transform="translate(14 29)"  name="GGT1" ><rect   width="50" height="20"/><text   transform="translate(25,10)"    >GGT1</text></g></g></g><g id="ef08a" class="GroupNone" transform="translate(140.17 684.33)"  ><g class="GroupNone"><rect   width="73" height="78" fill-opacity=".1" stroke-dasharray="5,3" style="fill:#b4b464;stroke:grey"/><g id="c78" class="GeneProduct " transform="translate(9,9)"  name="IDH1" ><rect   width="55" height="20"/><text   transform="translate(27.5,10)"    >IDH1</text></g><g id="df5" class="GeneProduct" transform="translate(9,29)"  name="1.1.1.43" ><rect   width="55" height="20"/><text   transform="translate(27.5,10)"    >1.1.1.43</text></g><g id="fbb" class="GeneProduct " transform="translate(9,49)"  name="G6PD" ><rect   width="55" height="20"/><text   transform="translate(27.5,10)"    >G6PD</text></g></g></g><g id="f2593" class="GroupNone" transform="translate(702.33 352.33)"  ><g class="GroupNone"><rect   width="68" height="58" fill-opacity=".1" stroke-dasharray="5,3" style="fill:#b4b464;stroke:grey"/><g id="bae" class="GeneProduct " transform="translate(9,9)"  name="GCLC" ><rect   width="50" height="20"/><text   transform="translate(25,10)"    >GCLC</text></g><g id="cf9" class="GeneProduct " transform="translate(10.67 29)"  name="GCLM" ><rect   width="46.67" height="20"/><text   transform="translate(23.33 10)"    >GCLM</text></g></g></g></g></g></g></svg>