<?xml version="1.0" encoding="UTF-8"?>
<!--
  WikiPathways page: https://www.wikipathways.org/index.php/Pathway:WP1398
  URL for this compressed file: https://github.com/eweitz/cachome/tree/main/data/WP1398.svg
  Source code for compression: https://github.com/eweitz/cachome/tree/main/src/wikipathways.py
-->
<svg id="wp1398-svg" class="Diagram" width="800" height="600" color="black" baseProfile="full" prefix="schema:http://schema.org/" preserveAspectRatio="xMidYMid" version="1.1" viewBox="0 0 282 590" vocab="http://vocabularies.wikipathways.org/wp#" xmlns="http://www.w3.org/2000/svg" xmlns:xlink="http://www.w3.org/1999/xlink"><style>svg {font-family: 'Liberation Sans', Arial, sans-serif; }</style><defs><g id="jic-defs"><symbol id="none" preserveAspectRatio="none" viewBox="0 0 100 100"/></g></defs><g id="WP1398" class="Viewport" color="black"  name="Name: GPCRs, orphan Organism: Mus musculus"><rect id="WP1398-icon" class="Icon" width="282" height="590" fill="#fff" stroke="#000" stroke-width="0"/><g id="ef005" class="Label" transform="translate(27,49)" color="#000"  name="Orphan GPCRs - No GO Annotation"><use id="ef005-icon" class="Icon" width="223" height="20" fill="transparent"  stroke="#000" stroke-width="0" xlink:href="#none"/><text id="ef005-text" class="Text" transform="translate(111.5,13)" fill="#000"  font-size="10px" stroke="white" stroke-width="0" text-anchor="middle"><tspan x="0" y="0">Orphan GPCRs - No GO Annotation</tspan></text></g><a  id="a0fed" class="GeneProduct P594_ENSMUSG00000000194 " transform="translate(70,80)"   name="Gpr107"  ><rect id="a0fed-icon" class="Icon" transform="matrix(.98361 0 0 .95238 .4918 .47619)" width="60" height="20" fill="#fff" stroke="#000"/><text id="a0fed-text" class="Text" transform="translate(30,13)" fill="#000"  font-size="10px" stroke="white" stroke-width="0" text-anchor="middle"><tspan x="0" y="0">Gpr107</tspan></text></a><a  id="a4bfa" class="GeneProduct P594_ENSMUSG00000005823 " transform="translate(70,100)"   name="Gpr108"  ><rect id="a4bfa-icon" class="Icon" transform="matrix(.98361 0 0 .95238 .4918 .47619)" width="60" height="20" fill="#fff" stroke="#000"/><text id="a4bfa-text" class="Text" transform="translate(30,13)" fill="#000"  font-size="10px" stroke="white" stroke-width="0" text-anchor="middle"><tspan x="0" y="0">Gpr108</tspan></text></a><a  id="cd82e" class="GeneProduct P594_ENSMUSG00000057899 " transform="translate(70,120)"   name="Gpr111"  ><rect id="cd82e-icon" class="Icon" transform="matrix(.98361 0 0 .95238 .4918 .47619)" width="60" height="20" fill="#fff" stroke="#000"/><text id="cd82e-text" class="Text" transform="translate(30,13)" fill="#000"  font-size="10px" stroke="white" stroke-width="0" text-anchor="middle"><tspan x="0" y="0">Gpr111</tspan></text></a><a  id="ecd41" class="GeneProduct P594_ENSMUSG00000053852 " transform="translate(70,140)"   name="Gpr112"  ><rect id="ecd41-icon" class="Icon" transform="matrix(.98361 0 0 .95238 .4918 .47619)" width="60" height="20" fill="#fff" stroke="#000"/><text id="ecd41-text" class="Text" transform="translate(30,13)" fill="#000"  font-size="10px" stroke="white" stroke-width="0" text-anchor="middle"><tspan x="0" y="0">Gpr112</tspan></text></a><a  id="ac55b" class="GeneProduct P594_ENSMUSG00000053852 " transform="translate(70,160)"   name="Gpr112"  ><rect id="ac55b-icon" class="Icon" transform="matrix(.98361 0 0 .95238 .4918 .47619)" width="60" height="20" fill="#fff" stroke="#000"/><text id="ac55b-text" class="Text" transform="translate(30,13)" fill="#000"  font-size="10px" stroke="white" stroke-width="0" text-anchor="middle"><tspan x="0" y="0">Gpr112</tspan></text></a><a  id="dd82a" class="GeneProduct P594_ENSMUSG00000056492 " transform="translate(70,180)"   name="Gpr116"  ><rect id="dd82a-icon" class="Icon" transform="matrix(.98361 0 0 .95238 .4918 .47619)" width="60" height="20" fill="#fff" stroke="#000"/><text id="dd82a-text" class="Text" transform="translate(30,13)" fill="#000"  font-size="10px" stroke="white" stroke-width="0" text-anchor="middle"><tspan x="0" y="0">Gpr116</tspan></text></a><a  id="aa28f" class="GeneProduct P594_ENSMUSG00000024958 " transform="translate(70,200)"   name="Gpr137"  ><rect id="aa28f-icon" class="Icon" transform="matrix(.98361 0 0 .95238 .4918 .47619)" width="60" height="20" fill="#fff" stroke="#000"/><text id="aa28f-text" class="Text" transform="translate(30,13)" fill="#000"  font-size="10px" stroke="white" stroke-width="0" text-anchor="middle"><tspan x="0" y="0">Gpr137</tspan></text></a><a  id="c82fd" class="GeneProduct P594_ENSMUSG00000021306 " transform="translate(70,220)"   name="Gpr137b"  ><rect id="c82fd-icon" class="Icon" transform="matrix(.98361 0 0 .95238 .4918 .47619)" width="60" height="20" fill="#fff" stroke="#000"/><text id="c82fd-text" class="Text" transform="translate(30,13)" fill="#000"  font-size="10px" stroke="white" stroke-width="0" text-anchor="middle"><tspan x="0" y="0">Gpr137b</tspan></text></a><g id="c084c" class="GeneProduct" transform="translate(70,240)" color="#000"  name="Gpr137b"><rect id="c084c-icon" class="Icon" transform="matrix(.98361 0 0 .95238 .4918 .47619)" width="60" height="20" fill="#fff" stroke="#000"/><text id="c084c-text" class="Text" transform="translate(30,13)" fill="#000"  font-size="10px" stroke="white" stroke-width="0" text-anchor="middle"><tspan x="0" y="0">Gpr137b</tspan></text></g><a  id="bc313" class="GeneProduct P594_ENSMUSG00000049092 " transform="translate(70,260)"   name="Gpr137c"  ><rect id="bc313-icon" class="Icon" transform="matrix(.98361 0 0 .95238 .4918 .47619)" width="60" height="20" fill="#fff" stroke="#000"/><text id="bc313-text" class="Text" transform="translate(30,13)" fill="#000"  font-size="10px" stroke="white" stroke-width="0" text-anchor="middle"><tspan x="0" y="0">Gpr137c</tspan></text></a><a  id="bfd3f" class="GeneProduct P594_ENSMUSG00000041762 " transform="translate(70,280)"   name="Gpr155"  ><rect id="bfd3f-icon" class="Icon" transform="matrix(.98361 0 0 .95238 .4918 .47619)" width="60" height="20" fill="#fff" stroke="#000"/><text id="bfd3f-text" class="Text" transform="translate(30,13)" fill="#000"  font-size="10px" stroke="white" stroke-width="0" text-anchor="middle"><tspan x="0" y="0">Gpr155</tspan></text></a><a  id="c40c0" class="GeneProduct P594_ENSMUSG00000040836 " transform="translate(70,300)"   name="Gpr161"  ><rect id="c40c0-icon" class="Icon" transform="matrix(.98361 0 0 .95238 .4918 .47619)" width="60" height="20" fill="#fff" stroke="#000"/><text id="c40c0-text" class="Text" transform="translate(30,13)" fill="#000"  font-size="10px" stroke="white" stroke-width="0" text-anchor="middle"><tspan x="0" y="0">Gpr161</tspan></text></a><a  id="b5afc" class="GeneProduct P594_ENSMUSG00000031210 " transform="translate(70,320)"   name="Gpr165"  ><rect id="b5afc-icon" class="Icon" transform="matrix(.98361 0 0 .95238 .4918 .47619)" width="60" height="20" fill="#fff" stroke="#000"/><text id="b5afc-text" class="Text" transform="translate(30,13)" fill="#000"  font-size="10px" stroke="white" stroke-width="0" text-anchor="middle"><tspan x="0" y="0">Gpr165</tspan></text></a><a  id="c2cad" class="GeneProduct P594_ENSMUSG00000022560 " transform="translate(70,340)"   name="Gpr172b"  ><rect id="c2cad-icon" class="Icon" transform="matrix(.98361 0 0 .95238 .4918 .47619)" width="60" height="20" fill="#fff" stroke="#000"/><text id="c2cad-text" class="Text" transform="translate(30,13)" fill="#000"  font-size="10px" stroke="white" stroke-width="0" text-anchor="middle"><tspan x="0" y="0">Gpr172b</tspan></text></a><a  id="f7b9d" class="GeneProduct P594_ENSMUSG00000002871 " transform="translate(70,360)"   name="Gpr175"  ><rect id="f7b9d-icon" class="Icon" transform="matrix(.98361 0 0 .95238 .4918 .47619)" width="60" height="20" fill="#fff" stroke="#000"/><text id="f7b9d-text" class="Text" transform="translate(30,13)" fill="#000"  font-size="10px" stroke="white" stroke-width="0" text-anchor="middle"><tspan x="0" y="0">Gpr175</tspan></text></a><a  id="b745c" class="GeneProduct P594_ENSMUSG00000028173 " transform="translate(70,380)"   name="Gpr177"  ><rect id="b745c-icon" class="Icon" transform="matrix(.98361 0 0 .95238 .4918 .47619)" width="60" height="20" fill="#fff" stroke="#000"/><text id="b745c-text" class="Text" transform="translate(30,13)" fill="#000"  font-size="10px" stroke="white" stroke-width="0" text-anchor="middle"><tspan x="0" y="0">Gpr177</tspan></text></a><a  id="f6f7f" class="GeneProduct P594_ENSMUSG00000070337 " transform="translate(70,400)"   name="Gpr179"  ><rect id="f6f7f-icon" class="Icon" transform="matrix(.98361 0 0 .95238 .4918 .47619)" width="60" height="20" fill="#fff" stroke="#000"/><text id="f6f7f-text" class="Text" transform="translate(30,13)" fill="#000"  font-size="10px" stroke="white" stroke-width="0" text-anchor="middle"><tspan x="0" y="0">Gpr179</tspan></text></a><a  id="bf638" class="GeneProduct P594_ENSMUSG00000022131 " transform="translate(70,420)"   name="Gpr180"  ><rect id="bf638-icon" class="Icon" transform="matrix(.98361 0 0 .95238 .4918 .47619)" width="60" height="20" fill="#fff" stroke="#000"/><text id="bf638-text" class="Text" transform="translate(30,13)" fill="#000"  font-size="10px" stroke="white" stroke-width="0" text-anchor="middle"><tspan x="0" y="0">Gpr180</tspan></text></a><a  id="ff3e1" class="GeneProduct P594_ENSMUSG00000071311 " transform="translate(70,440)"   name="Gpr31c"  ><rect id="ff3e1-icon" class="Icon" transform="matrix(.98361 0 0 .95238 .4918 .47619)" width="60" height="20" fill="#fff" stroke="#000"/><text id="ff3e1-text" class="Text" transform="translate(30,13)" fill="#000"  font-size="10px" stroke="white" stroke-width="0" text-anchor="middle"><tspan x="0" y="0">Gpr31c</tspan></text></a><a  id="dda66" class="GeneProduct P594_ENSMUSG00000071311 " transform="translate(70,460)"   name="Gpr31c"  ><rect id="dda66-icon" class="Icon" transform="matrix(.98361 0 0 .95238 .4918 .47619)" width="60" height="20" fill="#fff" stroke="#000"/><text id="dda66-text" class="Text" transform="translate(30,13)" fill="#000"  font-size="10px" stroke="white" stroke-width="0" text-anchor="middle"><tspan x="0" y="0">Gpr31c</tspan></text></a><a  id="b1856" class="GeneProduct P594_ENSMUSG00000044317 " transform="translate(70,480)"   name="Gpr4"  ><rect id="b1856-icon" class="Icon" transform="matrix(.98361 0 0 .95238 .4918 .47619)" width="60" height="20" fill="#fff" stroke="#000"/><text id="b1856-text" class="Text" transform="translate(30,13)" fill="#000"  font-size="10px" stroke="white" stroke-width="0" text-anchor="middle"><tspan x="0" y="0">Gpr4</tspan></text></a><a  id="a8295" class="GeneProduct P594_ENSMUSG00000028096 " transform="translate(70,500)"   name="Gpr89"  ><rect id="a8295-icon" class="Icon" transform="matrix(.98361 0 0 .95238 .4918 .47619)" width="60" height="20" fill="#fff" stroke="#000"/><text id="a8295-text" class="Text" transform="translate(30,13)" fill="#000"  font-size="10px" stroke="white" stroke-width="0" text-anchor="middle"><tspan x="0" y="0">Gpr89</tspan></text></a><a  id="ed8cb" class="GeneProduct P594_ENSMUSG00000074164 " transform="translate(70,520)"   name="Gprc2a-rs5"  ><rect id="ed8cb-icon" class="Icon" transform="matrix(.98361 0 0 .95238 .4918 .47619)" width="60" height="20" fill="#fff" stroke="#000"/><text id="ed8cb-text" class="Text" transform="translate(30,13)" fill="#000"  font-size="10px" stroke="white" stroke-width="0" text-anchor="middle"><tspan x="0" y="0">Gprc2a-rs5</tspan></text></a><a  id="d51b4" class="GeneProduct P594_ENSMUSG00000074164 " transform="translate(70,540)"   name="Gprc2a-rs5"  ><rect id="d51b4-icon" class="Icon" transform="matrix(.98361 0 0 .95238 .4918 .47619)" width="60" height="20" fill="#fff" stroke="#000"/><text id="d51b4-text" class="Text" transform="translate(30,13)" fill="#000"  font-size="10px" stroke="white" stroke-width="0" text-anchor="middle"><tspan x="0" y="0">Gprc2a-rs5</tspan></text></a><text id="WP1398-text" class="Text" transform="translate(5,27)" dominant-baseline="central" fill="black"  font-size="12px" font-weight="bold" overflow="visible" stroke="white" stroke-width="0"><tspan x="0" y="-9">Name: GPCRs, orphan</tspan> <tspan x="0" y="9">Organism: Mus musculus</tspan></text></g></svg>
