<?xml version="1.0" encoding="UTF-8"?>
<svg xmlns="http://www.w3.org/2000/svg" id="-svg" class="Diagram"  baseProfile="full" prefix="schema:http://schema.org/" preserveAspectRatio="xMidYMid"  version="1.1"><defs><g id="icon-defs"/><g id="marker-defs"><marker id="markerstartarrow000" markerHeight="12" markerWidth="12" orient="auto" preserveAspectRatio="none" refY="6" viewBox="0 0 12 12"><g id="g-markerstartarrow000" transform="rotate(180 6 6)"><g transform="rotate(180 6 6)"><rect y="5.4" width="2" height="1.2" style="stroke:#fff"/><polygon points="12 11 0 6 12 1" stroke-width="0"/></g></g></marker><marker id="memcatalysis000" markerHeight="12" markerWidth="12" orient="auto" preserveAspectRatio="none" refX="12" refY="6" viewBox="0 0 12 12"><g id="g-memcatalysis000" transform=""><g transform="rotate(180 6 6)"><circle cx="6" cy="6" r="5.3px" fill="#fff" stroke="#000"/></g></g></marker><marker id="mea" markerHeight="12" markerWidth="12" orient="auto" preserveAspectRatio="none" refX="12" refY="6" viewBox="0 0 12 12"><g id="g-mea" transform=""><g transform="rotate(180 6 6)"><rect y="5.4" width="2" height="1.2" style="stroke:#fff"/><polygon points="12 11 0 6 12 1" stroke-width="0"/></g></g></marker></g></defs><g id="viewport-20220102135611468" class="svg-pan-zoom_viewport" transform="matrix(1.50 0 0 1.50 88.15 9.30e-6)" style="transform:matrix(1.50, 0, 0, 1.50, 88.15, 9.30e-06)"><style>svg.Diagram {font-family: 'Liberation Sans', Arial, sans-serif; }.Diagram path {fill: transparent;stroke: #000;marker-end: url(#mea);}.Diagram symbol path {fill: inherit;stroke: inherit;stroke-width: inherit;marker-end: inherit;}.Diagram rect {fill: #fff;stroke: #000;}.Diagram text {dominant-baseline: central;overflow: hidden;text-anchor: middle;fill: #000;font-size: 10px;}</style><style type="text/css">.Viewport .textContent {
  pointer-events: none;
  stroke-width: 0px;
}

					.Viewport.Icon {
  fill: white;
}

/* Hide the InfoBox */
.Viewport.textContent {
  font-size: 0;
}

.textContent {
  stroke: none;
}

.DataNode {
  stroke-miterlimit: 1;
  pointer-events: auto;
}

.DataNode:hover {
  cursor: pointer;
}

/* TODO should this apply to things other than DataNodes? */
.DataNode.textContent {
  pointer-events: none;
}

.DataNode.Highlighted {
  opacity: 0.6;
  stroke-width: 0px;
}

marker {
  /* this is what should work per the spec
  stroke-dasharray: none; */
  /* but I need to add this to make it work in Safari */
  stroke-dasharray: 9999999999999999999999999;
}

.Citation.Icon {
  fill: none;
  stroke-width: 0px;
}

.Citation.textContent {
  text-align: center;
  vertical-align: top;
  font-size: 7px;
  fill: #999;
  fill-opacity: 1;
  stroke: none;
}</style><g id="WP1495" class="Pathway http___identifiers_org_pw_PW_0000440 Viewport"  name="Name: Glycine metabolism License: CC BY 2.0 Organism: Homo sapiens" ><g class="Pathway http___identifiers_org_pw_PW_0000440 Viewport"><rect   width="684" height="447" style="stroke:none"/><g id="id23f9ba93" class="Edge"  ><path    d="m409 314 3.33-6e-14c3.33 6e-14 10 6e-14 13.33-10.67 3.33-10.67 3.33-32-1.83-42.67-5.17-10.67-15.5-10.67-20.67-10.67l-5.17 3e-14"/></g><g id="id3642edbf" class="Edge"  ><path    d="M368,203L492,87"/></g><g id="id4a9f9c7b" class="Edge"  ><path    d="m368 203 56-138"/></g><g id="id565c2b9b" class="Edge"  ><path    d="m348 223 0.5 114"/><g id="d7d2e" class="AB" transform="translate(348.28 287.31)"  ><g class="AB"/></g></g><g id="b7d9c" class="Edge"  ><path    d="m337 313 11.28-25.69" style="marker-end:url(#memcatalysis000)"/></g><g id="id4351aa05" class="Edge"  ><path    d="m348.28 287.31h-0.05c-0.05 0-0.14 0-0.19 4.45-0.05 4.45-0.05 13.35 2.95 17.79 3 4.45 9 4.45 12 4.45l3 6e-14"/></g><g id="id5c62036" class="Edge"  ><path    d="m388 203 133-75"/></g><g id="id68fdd821" class="Edge"  ><path    d="M348,203L246,83"/></g><g id="id77142bed" class="Edge"  ><path    d="m328 213-205-35" marker-start="url(#markerstartarrow000)"/><g id="bc2fc" class="AB" transform="translate(224.45 195.32)"  ><g class="AB"/></g><g id="a3285" class="AB" transform="translate(246,199)"  ><g class="AB"/></g></g><g id="fd4f5" class="Edge"  ><path    d="m183 243 41.45-47.68" style="marker-end:url(#memcatalysis000)"/></g><g id="id85efbcf3" class="Edge"  ><path    d="m348 203-8-139"/></g><g id="id8d0c5f48" class="Edge"  ><path    d="m445 311-3.83-6e-14c-3.83 6e-14 -11.5 6e-14 -15.33-9.17-3.83-9.17-3.83-27.5-0.5-36.67 3.33-9.17 10-9.17 13.33-9.17l3.33 3e-14"/></g><g id="idc7b937b0" class="Edge"  ><path    d="m390 347 84-1"/><g id="a61d8" class="AB" transform="translate(430.99 346.51)"  ><g class="AB"/></g></g><g id="be36e" class="Edge"  ><path    d="m430.99 346.51v0.08c0 0.08 0 0.24 4.33 0.33 4.33 0.08 13.00 0.08 17.34 3.75 4.33 3.67 4.33 11 4.33 14.67l1e-13 3.67"/></g><g id="e7ec7" class="Edge"  ><path    d="m398 369-6e-14 -3.83c6e-14 -3.83 6e-14 -11.5 5.50-15.33 5.50-3.83 16.50-3.83 22.00-3.75 5.50 0.09 5.50 0.26 5.50 0.34v0.09"/></g><g id="idcd4b4dea" class="Edge"  ><path    d="m268.25 232-6e-14 -3.33c6e-14 -3.33 6e-14 -10-3.71-13.33-3.71-3.33-11.12-3.33-14.83-5.5-3.71-2.17-3.71-6.5-3.71-8.67v-2.17" style="marker-end:none"/></g><g id="idd3120515" class="Edge"  ><path    d="m408 213h86v123" marker-start="url(#markerstartarrow000)" style="marker-end:none"/><g id="fa648" class="AB" transform="translate(494 280.81)"  ><g class="AB"/></g></g><g id="d3439" class="Edge"  ><path    d="m527 314-5.67-6e-14c-5.67 6e-14 -17 6e-14 -22.67-5.53-5.67-5.53-5.67-16.60-5.5-22.13s0.5-5.53 0.67-5.53h0.17"/></g><g id="d4811" class="Edge"  ><path    d="m536 280-42 0.81" style="marker-end:url(#memcatalysis000)"/></g><g id="f9528" class="Edge"  ><path    d="m494 280.81h-0.17c-0.17 0-0.5 0-0.67-7.47-0.17-7.47-0.17-22.40 4.17-29.87 4.33-7.47 13-7.47 17.33-7.47l4.33 6e-14"/></g><g id="idd76463ad" class="Edge"  ><path    d="m365 250-2.83-3e-14c-2.83 3e-14 -8.5 3e-14 -11.33 6.22-2.83 6.22-2.83 18.66-2.79 24.87 0.05 6.22 0.14 6.22 0.19 6.22h0.05"/></g><g id="ide0d609cf" class="Edge"  ><path    d="m143 168 185 45" marker-start="url(#markerstartarrow000)"/><g id="d2ca1" class="AB" transform="translate(217,186)"  ><g class="AB"/></g></g><g id="idea68481b" class="Edge"  ><path    d="m103 158v-40"/></g><g id="idefdfe00e" class="Edge"  ><path    d="m494 356v41"/></g><g id="id1feb1840" class="Edge"  ><path    d="m217.5 162-0.5 24" style="marker-end:url(#memcatalysis000)"/></g><g id="a9c4a" class="Metabolite" transform="translate(63,158)"  name="Serine" ><rect   width="80" height="20" style="stroke:#00f"/><text   transform="translate(40,10)"     style="fill:#00f">Serine</text></g><g id="a6f6e" class="Label" transform="translate(358,369)"  name="H2O" ><g class="Label"/><text   transform="translate(40,10)"    >H2O</text></g><g id="ed114" class="Metabolite" transform="translate(63,98)"  name="Pyruvate" ><rect   width="80" height="20" style="stroke:#00f"/><text   transform="translate(40,10)"     style="fill:#00f">Pyruvate</text></g><g id="ac04a" class="Label" transform="translate(417,369)"  name="NH3" ><g class="Label"/><text   transform="translate(40,10)"    >NH3</text></g><g id="f87e9" class="Metabolite" transform="translate(527,304)"  name="Glutamate" ><rect   width="63" height="20"/><text   transform="translate(31.5,10)"    >Glutamate</text></g><g id="b4ef2" class="Label" transform="translate(59,80)"  name="Glucogenic AA" ><g class="Label"/><text   transform="translate(40,10)"    font-style="italic" >Glucogenic AA</text></g><g id="c102a" class="Label" transform="translate(442,246)"  name="H2O2" ><g class="Label"/><text   transform="translate(19.5,10)"    >H2O2</text></g><g id="d336d" class="Label" transform="translate(519,226)"  name="a-Ketoglutarate" ><g class="Label"/><text   transform="translate(40,10)"    >a-Ketoglutarate</text></g><g id="dd2ff" class="Label" transform="translate(445,301)"  name="O2" ><g class="Label"/><text   transform="translate(14.5,10)"    >O2</text></g><g id="e2325" class="Label" transform="translate(365,240)"  name="FAD" ><g class="Label"/><text   transform="translate(16.5,10)"    >FAD</text></g><g id="ed898" class="Label" transform="translate(384,329)"  name="Spontaneous" ><g class="Label"/><text   transform="translate(40,8.5)"    >Spontaneous</text></g><g id="f9235" class="Label" transform="translate(366,304)"  name="FADH2" ><g class="Label"/><text   transform="translate(21.5,10)"    >FADH2</text></g><g id="bdbdf" class="Metabolite" transform="translate(254,232)"  name="MTHF" ><rect   width="57" height="20" style="stroke:#00f"/><text   transform="translate(28.5,10)"     style="fill:#00f">MTHF</text></g><g id="c1617" class="Metabolite " transform="translate(492,77)"  name="Bile Salts" ><rect   width="80" height="20" style="stroke:#00f"/><text   transform="translate(40,10)"     style="fill:#00f">Bile Salts</text></g><g id="c7951" class="GeneProduct" transform="translate(249,303)"  name="Glycine Oxidase" ><rect   width="88" height="20" rx="15" ry="15"/><text   transform="translate(44,10)"    >Glycine Oxidase</text></g><g id="d5114" class="GeneProduct" transform="translate(536,270)"  name="Glycine Transaminase" ><rect   width="118" height="20" rx="15" ry="15"/><text   transform="translate(59,10)"    >Glycine Transaminase</text></g><g id="d775a" class="Metabolite " transform="translate(328,203)"  name="Glycine" ><rect   width="80" height="20" style="stroke:#00f"/><text   transform="translate(40,10)"     style="fill:#00f">Glycine</text></g><g id="e180b" class="GeneProduct " transform="translate(115,233)"  name="MTHFR" ><rect   width="68" height="20" rx="15" ry="15"/><text   transform="translate(34,10)"    >MTHFR</text></g><g id="e4528" class="Metabolite" transform="translate(521,118)"  name="Creatine" ><rect   width="80" height="20" style="stroke:#00f"/><text   transform="translate(40,10)"     style="fill:#00f">Creatine</text></g><g id="ebdd1" class="Metabolite " transform="translate(300,44)"  name="Heme" ><rect   width="80" height="20" style="stroke:#00f"/><text   transform="translate(40,10)"     style="fill:#00f">Heme</text></g><g id="eccb2" class="Metabolite " transform="translate(206,63)"  name="Purines" ><rect   width="80" height="20" style="stroke:#00f"/><text   transform="translate(40,10)"     style="fill:#00f">Purines</text></g><g id="f416f" class="Metabolite " transform="translate(307,337)"  name="a-Iminoacetate" ><rect   width="83" height="20" style="stroke:#00f"/><text   transform="translate(41.5,10)"     style="fill:#00f">a-Iminoacetate</text></g><g id="f4b93" class="Metabolite" transform="translate(474,336)"  name="Glyoxalate" ><rect   width="80" height="20" style="stroke:#00f"/><text   transform="translate(40,10)"     style="fill:#00f">Glyoxalate</text></g><g id="fa412" class="Metabolite" transform="translate(454,397)"  name="Oxalate" ><rect   width="80" height="20" style="stroke:#00f"/><text   transform="translate(40,10)"     style="fill:#00f">Oxalate</text></g><g id="fadfc" class="Metabolite" transform="translate(404,45)"  name="Glutathione" ><rect   width="80" height="20" style="stroke:#00f"/><text   transform="translate(40,10)"     style="fill:#00f">Glutathione</text></g><g id="a2fe0" class="GroupGroup" transform="translate(180.5,106)"  ><g class="GroupGroup"><g id="a5f21" class="GeneProduct " transform="translate(8,8)"  name="SHMT1" ><rect   width="58" height="20" rx="15" ry="15"/><text   transform="translate(29,10)"    >SHMT1</text></g><g id="a7c31" class="GeneProduct " transform="translate(8,28)"  name="SHMT2" ><rect   width="58" height="20" rx="15" ry="15"/><text   transform="translate(29,10)"    >SHMT2</text></g></g></g></g></g></g></svg>