<?xml version="1.0" encoding="UTF-8"?>
<!--
  WikiPathways page: https://www.wikipathways.org/index.php/Pathway:WP1602
  URL for this compressed file: https://github.com/eweitz/cachome/tree/main/data/WP1602.svg
  Source code for compression: https://github.com/eweitz/cachome/tree/main/src/wikipathways.py
-->
<svg id="wp1602-svg" class="Diagram" width="800" height="600" color="black" baseProfile="full" prefix="schema:http://schema.org/" preserveAspectRatio="xMidYMid" version="1.1" viewBox="0 0 914.45 869" vocab="http://vocabularies.wikipathways.org/wp#" xmlns="http://www.w3.org/2000/svg" xmlns:xlink="http://www.w3.org/1999/xlink"><style>svg {font-family: 'Liberation Sans', Arial, sans-serif; }</style><defs><g id="jit-defs"><filter id="kaaviodoublefalse3filter" x="-50%" y="-50%" width="200%" height="200%"><feComposite in="SourceGraphic" in2="SourceGraphic" result="doubleDark"/><feMorphology in="doubleDark" operator="dilate" radius="0.16666666666666666" result="in2Double"/><feMorphology in="SourceGraphic" operator="dilate" radius="3" result="inDouble"/><feComposite in="inDouble" in2="in2Double" operator="out" result="doubleResult"/></filter><filter id="kaavioblackto000000filter" x="0" y="0" width="914.45" height="869" filterUnits="userSpaceOnUse"><feColorMatrix in="SourceGraphic" values="-1   0   0 0 0                   0  -1   0 0 0                   0   0  -1 0 0                   0   0   0 1 0"/></filter></g><g id="jic-defs"><marker id="markerEndArrow" stroke-dasharray="99999" markerHeight="12" markerUnits="userSpaceOnUse" markerWidth="12" orient="auto" preserveAspectRatio="none" refX="12" refY="6" viewBox="0 0 12 12"><path transform="rotate(180 6 6)" d="M12 11L0 6l12-5z" fill="currentColor" stroke-width="0"/></marker><marker id="markerEndMimBinding" stroke-dasharray="99999" markerHeight="12" markerUnits="userSpaceOnUse" markerWidth="12" orient="auto" preserveAspectRatio="none" refX="12" refY="6" viewBox="0 0 12 12"><path transform="rotate(180 6 6)" d="M12 12L0 6l12-6-7 6z" fill="currentColor" stroke-width="0"/></marker><marker id="markerEndMimCatalysis" stroke-dasharray="99999" markerHeight="12" markerUnits="userSpaceOnUse" markerWidth="12" orient="auto" preserveAspectRatio="none" refX="12" refY="6" viewBox="0 0 12 12"><circle transform="rotate(180 6 6)" cx="6" cy="6" r="5.3" fill="none" stroke="#000"/></marker><marker id="markerEndTBar" stroke-dasharray="99999" markerHeight="20" markerUnits="userSpaceOnUse" markerWidth="10" orient="auto" preserveAspectRatio="none" refX="10" refY="10" viewBox="0 0 10 20"><path d="m3 0v20" fill="currentColor" stroke="currentColor"/></marker><symbol id="Ellipse" overflow="visible" preserveAspectRatio="none" viewBox="0 0 50 50"><ellipse cx="25" cy="25" rx="25" ry="25" stroke="currentColor" vector-effect="non-scaling-stroke"/></symbol><symbol id="Octagon" overflow="visible" preserveAspectRatio="none" viewBox="0 0 100 100"><path d="M0 25L25 0h50l25 25v50l-25 25H25L0 75z" stroke="currentColor" vector-effect="non-scaling-stroke"/></symbol><symbol id="none" preserveAspectRatio="none" viewBox="0 0 100 100"/></g></defs><g id="WP1602" class="Viewport" color="black"  name="Name: Nicotine effect on dopaminergic neurons License: CC BY 2.0 Organism: Homo sapiens"><rect id="WP1602-icon" class="Icon" width="914.45" height="869" fill="#fff" stroke="#000" stroke-width="0"/><g id="b6098" class="SingleFreeNode Shape" transform="translate(582.43 394.15)" color="#c0c0c0"  name="Synaptic vesicle"><g fill="transparent"  filter="url(#kaaviodoublefalse3filter)" stroke="#c0c0c0" stroke-width="3"><use id="b6098-icon" class="Icon" transform="matrix(.94091 0 0 .93761 5.6454 5.6257)" width="191.06884776978995" height="180.3500612580159"    xlink:href="#Ellipse"/></g><text id="b6098-text" class="Text" transform="translate(95.534 94.175)" fill="#c0c0c0"  font-size="12px" stroke="black" stroke-width="0" text-anchor="middle"><tspan x="0" y="0">Synaptic vesicle</tspan></text></g><g id="c12e6" class="SingleFreeNode Shape" transform="translate(164.25,181.5)" color="#c0c0c0" ><g fill="transparent"  filter="url(#kaaviodoublefalse3filter)" stroke="#c0c0c0" stroke-width="3"><rect id="c12e6-icon" class="Icon" transform="matrix(.98107 0 0 .98107 5.8864 5.8864)" width="621.75" height="621.75" rx="15" ry="15"   /></g></g><g id="a05ba" class="Inhibition" color="#000" ><g color="#000" fill="transparent"  filter="url(#kaavioblackto000000filter)" stroke="#000" stroke-dasharray="262.3676470588236, 7"><path id="a05ba" class="EdgeBody" d="m557 382h189.06v80.311"   marker-end="url(#markerEndTBar)" /></g></g><g id="a7150" class="DirectedInteraction" color="#000" ><g color="#000" fill="transparent"  filter="url(#kaavioblackto000000filter)" stroke="#000" stroke-dasharray="5.06, 3.04, 5.06, 3.04, 5.06, 3.04, 5.06, 3.04, 5.06, 3.04, 5.06, 3.04, 5.06, 3.04, 5.06, 3.04, 5.06, 3.04, 5.06, 3.04, 5.06, 3.04, 5.06, 3.04, 5.06, 3.04, 5.06, 3.04, 0, 5.8"><path id="a7150" class="EdgeBody" d="m274 393 96.723-64.429"   marker-end="url(#markerEndArrow)" /></g></g><g id="ab366" class="Interaction" color="#000" ><g color="#000" fill="transparent"  filter="url(#kaavioblackto000000filter)" stroke="#000" stroke-dasharray="109, 0"><path id="ab366" class="EdgeBody" d="m234 393h-109"   marker-end="url(#markerEndmim-translocation)" /></g><g id="c69ac" class="Burr Anchor" transform="translate(174.78 393)" ><use id="c69ac-icon" class="Icon" width="0" height="0" fill="#141414" stroke-width="0" xlink:href="#none"/></g></g><g id="b28a5" class="DirectedInteraction" color="#000" ><g color="#000" fill="transparent"  filter="url(#kaavioblackto000000filter)" stroke="#000" stroke-dasharray="452.85600684718344, 5.8"><path id="b28a5" class="EdgeBody" d="m457.18 313.79h310.13v148.53"   marker-end="url(#markerEndArrow)" /></g></g><g id="b3a7a" class="DirectedInteraction" color="#000" ><g color="#000" fill="transparent"  filter="url(#kaavioblackto000000filter)" stroke="#000" stroke-dasharray="44.2, 5.8"><path id="b3a7a" class="EdgeBody" d="m456.5 526v50"   marker-end="url(#markerEndArrow)" /></g><g id="e17d9" class="Burr Anchor" transform="translate(456.5 549.68)" ><use id="e17d9-icon" class="Icon" width="0" height="0" fill="#141414" stroke-width="0" xlink:href="#none"/></g></g><g id="c38c3" class="Interaction" color="#000" ><g color="#000" fill="transparent"  filter="url(#kaavioblackto000000filter)" stroke="#000" stroke-dasharray="18.507933578011208, 11"><path id="c38c3" class="EdgeBody" d="m486 549-29.5 0.68421"   marker-end="url(#markerEndMimCatalysis)" /></g></g><g id="cf542" class="Inhibition" color="#000" ><g color="#000" fill="transparent"  filter="url(#kaavioblackto000000filter)" stroke="#000" stroke-dasharray="88.5, 7"><path id="cf542" class="EdgeBody" d="m456.5 436v-54h41.5"   marker-end="url(#markerEndTBar)" /></g></g><g id="d487f" class="DirectedInteraction" color="#000" ><g color="#000" fill="transparent"  filter="url(#kaavioblackto000000filter)" stroke="#000" stroke-dasharray="83.54833518314709, 5.8"><path id="d487f" class="EdgeBody" d="m212.5 591 84.25-29.75"   marker-end="url(#markerEndArrow)" /></g><g id="a88d8" class="Burr Anchor" transform="translate(256.62 575.42)" ><use id="a88d8-icon" class="Icon" width="0" height="0" fill="#141414" stroke-width="0" xlink:href="#none"/></g></g><g id="dd37c" class="Inhibition" color="#000" ><g color="#000" fill="transparent"  filter="url(#kaavioblackto000000filter)" stroke="#000" stroke-dasharray="48.97478991596631, 7"><path id="dd37c" class="EdgeBody" d="m273 663.97-6e-14 -55.975"   marker-end="url(#markerEndTBar)" /></g></g><g id="dd887" class="DirectedInteraction" color="#000" ><g color="#000" fill="transparent"  filter="url(#kaavioblackto000000filter)" stroke="#000" stroke-dasharray="37.89699579564744, 5.8"><path id="dd887" class="EdgeBody" d="m647.97 725.21 0.83193-43.689"   marker-end="url(#markerEndArrow)" /></g><g id="fc4a8" class="Burr Anchor" transform="translate(648.38 703.59)" ><use id="fc4a8-icon" class="Icon" width="0" height="0" fill="#141414" stroke-width="0" xlink:href="#none"/></g></g><g id="b2a1a" class="Interaction" color="#000" ><g color="#000" fill="transparent"  filter="url(#kaavioblackto000000filter)" stroke="#000" stroke-dasharray="78.32396222387906, 11"><path id="b2a1a" class="EdgeBody" d="m737.71 703.87-89.324-0.2796"   marker-end="url(#markerEndMimCatalysis)" /></g></g><g id="e7238" class="Inhibition" color="#000" ><g color="#000" fill="transparent"  filter="url(#kaavioblackto000000filter)" stroke="#000" stroke-dasharray="125, 7"><path id="e7238" class="EdgeBody" d="m427 586h-42v-90"   marker-end="url(#markerEndTBar)" /></g></g><g id="e97e5" class="Interaction" color="#000" ><g color="#000" fill="transparent"  filter="url(#kaavioblackto000000filter)" stroke="#000" stroke-dasharray="92.32778166785472, 0"><path id="e97e5" class="EdgeBody" d="m648.51 605.18 0.096639-92.328"   marker-end="url(#markerEndmim-translocation)" /></g><g id="ecbe7" class="Burr Anchor" transform="translate(648.55 566)" ><use id="ecbe7-icon" class="Icon" width="0" height="0" fill="#141414" stroke-width="0" xlink:href="#none"/></g></g><g id="ebdb6" class="Interaction" color="#000" ><g color="#000" fill="transparent"  filter="url(#kaavioblackto000000filter)" stroke="#000" stroke-dasharray="2.164075348730451, 11"><path id="ebdb6" class="EdgeBody" d="m260.5 588-3.884-12.578"   marker-end="url(#markerEndMimCatalysis)" /></g></g><g id="f4a27" class="DirectedInteraction" color="#000" ><g color="#000" fill="transparent"  filter="url(#kaavioblackto000000filter)" stroke="#000" stroke-dasharray="44.2, 5.8"><path id="f4a27" class="EdgeBody" d="m456.5 506v-50"   marker-end="url(#markerEndArrow)" /></g><g id="e3042" class="Burr Anchor" transform="translate(456.5,486)" ><use id="e3042-icon" class="Icon" width="0" height="0" fill="#141414" stroke-width="0" xlink:href="#none"/></g></g><g id="ce593" class="Interaction" color="#000" ><g color="#000" fill="transparent"  filter="url(#kaavioblackto000000filter)" stroke="#000" stroke-dasharray="33.5, 11"><path id="ce593" class="EdgeBody" d="m412 486h44.5"   marker-end="url(#markerEndMimCatalysis)" /></g></g><g id="f8953" class="DirectedInteraction" color="#000" ><g color="#000" fill="transparent"  filter="url(#kaavioblackto000000filter)" stroke="#000" stroke-dasharray="5.24, 3.14, 5.24, 3.14, 5.24, 3.14, 5.24, 3.14, 5.24, 3.14, 5.24, 3.14, 5.24, 3.14, 5.24, 3.14, 5.24, 3.14, 5.24, 3.14, 5.24, 3.14, 5.24, 3.14, 5.24, 3.14, 5.24, 3.14, 5.24, 3.14, 5.24, 3.14, 5.24, 3.14, 0, 5.8"><path id="f8953" class="EdgeBody" d="m563.89 247-135.53 52"   marker-end="url(#markerEndArrow)" /></g></g><g id="fc3cf" class="DirectedInteraction" color="#000" ><g color="#000" fill="transparent"  filter="url(#kaavioblackto000000filter)" stroke="#000" stroke-dasharray="68.06780844860636, 5.8"><path id="fc3cf" class="EdgeBody" d="M323.375,551.25L358,486"   marker-end="url(#markerEndArrow)" /></g></g><g id="ff25b" class="DirectedInteraction" color="#000" ><g color="#000" fill="transparent"  filter="url(#kaavioblackto000000filter)" stroke="#000" stroke-dasharray="201.97426090036078, 5.8"><path id="ff25b" class="EdgeBody" d="m298.5 668.97 181 102.03"   marker-end="url(#markerEndArrow)" /></g></g><g id="idd046c59e" class="DirectedInteraction" color="#000" ><g color="#000" fill="transparent"  filter="url(#kaavioblackto000000filter)" stroke="#000" stroke-dasharray="5.63, 3.38, 5.63, 3.38, 5.63, 3.38, 5.63, 3.38, 5.63, 3.38, 5.63, 5.8"><path id="idd046c59e" class="EdgeBody" d="m346.5 248 24.223 51"   marker-end="url(#markerEndArrow)" /></g></g><g id="af45e" class="Interaction" color="#000" ><g color="#000" fill="transparent"  filter="url(#kaavioblackto000000filter)" stroke="#000" stroke-dasharray="38.03343556055834, 11"><path id="af45e" class="EdgeBody" d="m697.73 648.37-49.032 0.35326"   marker-end="url(#markerEndMimCatalysis)" /></g></g><g id="ab4d4" class="Interaction" color="#000" ><g color="#000" fill="transparent"  filter="url(#kaavioblackto000000filter)" stroke="#000" stroke-dasharray="235.89177978364225, 1"><path id="ab4d4" class="EdgeBody" d="m457.75 53-1e-13 5.3333c4e-14 5.3333 4e-14 16-29.792 21.333-29.792 5.3333-89.375 5.3333-119.17 16.833-29.792 11.5-29.792 34.5-29.792 46v11.5"   marker-end="url(#markerEndMimBinding)" /></g></g><g id="ce866" class="Interaction" color="#000" ><g color="#000" fill="transparent"  filter="url(#kaavioblackto000000filter)" stroke="#000" stroke-dasharray="44.163604438194746, 11"><path id="ce866" class="EdgeBody" d="m509.33 181 54.557-8.1596"   marker-end="url(#markerEndMimCatalysis)" /></g></g><g id="d8311" class="Interaction" color="#000" ><g color="#000" fill="transparent"  filter="url(#kaavioblackto000000filter)" stroke="#000" stroke-dasharray="79.00430158207469, 1"><path id="d8311" class="EdgeBody" d="m472.5 53 0.82962 80"   marker-end="url(#markerEndMimBinding)" /></g></g><g id="b2b58" class="Interaction" color="#000" ><g color="#000" fill="transparent"  filter="url(#kaavioblackto000000filter)" stroke="#000" stroke-dasharray="5.075614445770913, 11"><path id="b2b58" class="EdgeBody" d="m169 408 5.7815-15"   marker-end="url(#markerEndMimCatalysis)" /></g></g><g id="f93ee" class="DirectedInteraction" color="#000" ><g color="#000" fill="transparent"  filter="url(#kaavioblackto000000filter)" stroke="#000" stroke-dasharray="187.7, 5.8"><path id="f93ee" class="EdgeBody" d="m358 486h-171.5v-22"   marker-end="url(#markerEndArrow)" /></g></g><g id="d1534" class="DirectedInteraction" color="#000" ><g color="#000" fill="transparent"  filter="url(#kaavioblackto000000filter)" stroke="#000" stroke-dasharray="61.46812023536856, 5.8"><path id="d1534" class="EdgeBody" d="m501.75 696-6 67"   marker-end="url(#markerEndArrow)" /></g></g><g id="f315f" class="Interaction" color="#000" ><g color="#000" fill="transparent"  filter="url(#kaavioblackto000000filter)" stroke="#000" stroke-dasharray="209.8095053216234, 1"><path id="f315f" class="EdgeBody" d="m487.25 53-6e-14 5.1667c6e-14 5.1667 6e-14 15.5 26.347 20.667 26.347 5.1667 79.04 5.1667 105.39 15.241 26.347 10.074 26.347 30.222 26.347 40.295v10.074"   marker-end="url(#markerEndMimBinding)" /></g></g><g id="f4f62" class="Interaction" color="#000" ><g color="#000" fill="transparent"  filter="url(#kaavioblackto000000filter)" stroke="#000" stroke-dasharray="34.46881560731281, 11"><path id="f4f62" class="EdgeBody" d="m608.33 182.44-44.443-9.6028"   marker-end="url(#markerEndMimCatalysis)" /></g></g><g id="cbfc2" class="DirectedInteraction" color="#000" ><g color="#000" fill="transparent"  filter="url(#kaavioblackto000000filter)" stroke="#000" stroke-dasharray="66.0679344353238, 5.8"><path id="cbfc2" class="EdgeBody" d="m443.25 763 26-67"   marker-end="url(#markerEndArrow)" /></g></g><g id="d7d3e" class="Interaction" color="#000" ><g color="#000" fill="transparent"  filter="url(#kaavioblackto000000filter)" stroke="#000" stroke-dasharray="793.0966386554627, 1"><path id="d7d3e" class="EdgeBody" d="m850.45 512.86v348.14h-423.95v-22"   marker-end="url(#markerEndMimBinding)" /></g></g><g id="e91d5" class="DirectedInteraction" color="#000" ><g color="#000" fill="transparent"  filter="url(#kaavioblackto000000filter)" stroke="#000" stroke-dasharray="66.04705978674423, 5.8"><path id="e91d5" class="EdgeBody" d="m393 782-71-11"   marker-end="url(#markerEndArrow)" /></g></g><g id="f51b0" class="DirectedInteraction" color="#000" ><g color="#000" fill="transparent"  filter="url(#kaavioblackto000000filter)" stroke="#000" stroke-dasharray="147.31510679768334, 5.8"><path id="f51b0" class="EdgeBody" d="m426.5 763-128-84.025"   marker-end="url(#markerEndArrow)" /></g></g><g id="e5238" class="Label" transform="translate(341.9 299)" color="#000"  name="Depolarization"><use id="e5238-icon" class="Icon" width="115.27116402116394" height="29.57142857142844" fill="transparent"  stroke="#000" stroke-width="0" xlink:href="#none"/><text id="e5238-text" class="Text" transform="translate(57.636 18.6)" fill="#000"  font-size="12px" font-weight="bold" stroke="white" stroke-width="0" text-anchor="middle"><tspan x="0" y="0">Depolarization</tspan></text></g><g id="f1ca1" class="Label" transform="translate(625,763)" color="#000"  name="Dopaminergic neuron"><use id="f1ca1-icon" class="Icon" width="131" height="20" fill="transparent"  stroke="#000" stroke-width="0" xlink:href="#none"/><text id="f1ca1-text" class="Text" transform="translate(65.5,14)" fill="#000"  font-size="12px" stroke="white" stroke-width="0" text-anchor="middle"><tspan x="0" y="0">Dopaminergic neuron</tspan></text></g><a id="a539e" class="Metabolite ChEBI_CHEBI_29101  " transform="translate(325,228)" color="#00f"  name="Na+"  ><rect id="a539e-icon" class="Icon" transform="matrix(.97727 0 0 .95238 .48864 .47619)" width="43" height="20" fill="#fff" stroke="#00f"/><text id="a539e-text" class="Text" transform="translate(21.5,13)" fill="#00f"  font-size="10px" stroke="white" stroke-width="0" text-anchor="middle"><tspan x="0" y="0">Na+</tspan></text></a><a  id="a70e4" class="GeneProduct PRKACA " transform="translate(358,476)"   name="PRKACA"  ><rect id="a70e4-icon" class="Icon" transform="matrix(.98182 0 0 .95238 .49091 .47619)" width="54" height="20" fill="#fff" stroke="#000"/><text id="a70e4-text" class="Text" transform="translate(27,13)" fill="#000"  font-size="10px" stroke="white" stroke-width="0" text-anchor="middle"><tspan x="0" y="0">PRKACA</tspan></text></a><a id="a8665" class="Metabolite ChEBI_CHEBI_18243  " transform="translate(614.51 605.18)" color="#00f"  name="Dopamine"  ><rect id="a8665-icon" class="Icon" transform="matrix(.98551 0 0 .95238 .49275 .47619)" width="68" height="20" fill="#fff" stroke="#00f"/><text id="a8665-text" class="Text" transform="translate(34 13)" fill="#00f"  font-size="10px" stroke="white" stroke-width="0" text-anchor="middle"><tspan x="0" y="0">Dopamine</tspan></text></a><g id="ad212" class="GeneProduct" transform="translate(724.81 462.31)" color="#000"  name="SNARE Complex"><rect id="ad212-icon" class="Icon" transform="matrix(.98837 0 0 .95833 .49419 .47917)" width="85" height="23" fill="#fff" stroke="#000"/><text id="ad212-text" class="Text" transform="translate(42.5,14.5)" fill="#000"  font-size="10px" stroke="white" stroke-width="0" text-anchor="middle"><tspan x="0" y="0">SNARE Complex</tspan></text></g><a  id="aece2" class="GeneProduct CDK5 " transform="translate(486,539)"   name="CDK5"  ><rect id="aece2-icon" class="Icon" transform="matrix(.97674 0 0 .95238 .48837 .47619)" width="42" height="20" fill="#fff" stroke="#000"/><text id="aece2-text" class="Text" transform="translate(21,13)" fill="#000"  font-size="10px" stroke="white" stroke-width="0" text-anchor="middle"><tspan x="0" y="0">CDK5</tspan></text></a><a id="bc6f0" class="Metabolite ChEBI_CHEBI_17895  " transform="translate(618.47 725.21)" color="#00f"  name="Tyrosine"  ><rect id="bc6f0-icon" class="Icon" transform="matrix(.98333 0 0 .95238 .49167 .47619)" width="59" height="20" fill="#fff" stroke="#00f"/><text id="bc6f0-text" class="Text" transform="translate(29.5,13)" fill="#00f"  font-size="10px" stroke="white" stroke-width="0" text-anchor="middle"><tspan x="0" y="0">Tyrosine</tspan></text></a><a  id="bccc3" class="GeneProduct PPP1R1B " transform="translate(427,506)"   name="PPP1R1B"  ><rect id="bccc3-icon" class="Icon" transform="matrix(.98333 0 0 .95238 .49167 .47619)" width="59" height="20" fill="#fff" stroke="#000"/><text id="bccc3-text" class="Text" transform="translate(29.5,13)" fill="#000"  font-size="10px" stroke="white" stroke-width="0" text-anchor="middle"><tspan x="0" y="0">PPP1R1B</tspan></text></a><a id="c0992" class="Metabolite ChEBI_CHEBI_18243  " transform="translate(816.45 492.86)" color="#00f"  name="Dopamine"  ><rect id="c0992-icon" class="Icon" transform="matrix(.98551 0 0 .95238 .49275 .47619)" width="68" height="20" fill="#fff" stroke="#00f"/><text id="c0992-text" class="Text" transform="translate(34,13)" fill="#00f"  font-size="10px" stroke="white" stroke-width="0" text-anchor="middle"><tspan x="0" y="0">Dopamine</tspan></text></a><a  id="c26f8" class="GeneProduct ADCY2 " transform="translate(248,588)"   name="ADCY2"  ><rect id="c26f8-icon" class="Icon" transform="matrix(.98039 0 0 .95238 .4902 .47619)" width="50" height="20" fill="#fff" stroke="#000"/><text id="c26f8-text" class="Text" transform="translate(25,13)" fill="#000"  font-size="10px" stroke="white" stroke-width="0" text-anchor="middle"><tspan x="0" y="0">ADCY2</tspan></text></a><a id="c2e81" class="Metabolite ChEBI_CHEBI_15422  " transform="translate(190,591)" color="#00f"  name="ATP"  ><rect id="c2e81-icon" class="Icon" transform="matrix(.97826 0 0 .95238 .48913 .47619)" width="45" height="20" fill="#fff" stroke="#00f"/><text id="c2e81-text" class="Text" transform="translate(22.5,13)" fill="#00f"  font-size="10px" stroke="white" stroke-width="0" text-anchor="middle"><tspan x="0" y="0">ATP</tspan></text></a><a  id="c33b0" class="GeneProduct PPP1R1B " transform="translate(427,576)"   name="PPP1R1B"  ><rect id="c33b0-icon" class="Icon" transform="matrix(.98333 0 0 .95238 .49167 .47619)" width="59" height="20" fill="#fff" stroke="#000"/><g id="f10b6" class="Burr State" transform="translate(51.5,-5.5)" color="#000"  name="P"><use id="f10b6-icon" class="Icon" transform="matrix(.9375 0 0 .9375 .46875 .46875)" width="15" height="15" fill="#fff" stroke="#000" xlink:href="#Ellipse"/><text id="f10b6-text" class="Text" transform="translate(7.5,10.5)" fill="#000"  font-size="10px" stroke="white" stroke-width="0" text-anchor="middle"><tspan x="0" y="0">P</tspan></text></g><text id="c33b0-text" class="Text" transform="translate(29.5,13)" fill="#000"  font-size="10px" stroke="white" stroke-width="0" text-anchor="middle"><tspan x="0" y="0">PPP1R1B</tspan></text></a><a id="c3f13" class="Metabolite ChEBI_CHEBI_18243  " transform="translate(614.61 492.86)" color="#00f"  name="Dopamine"  ><rect id="c3f13-icon" class="Icon" transform="matrix(.98551 0 0 .95238 .49275 .47619)" width="68" height="20" fill="#fff" stroke="#00f"/><text id="c3f13-text" class="Text" transform="translate(34,13)" fill="#00f"  font-size="10px" stroke="white" stroke-width="0" text-anchor="middle"><tspan x="0" y="0">Dopamine</tspan></text></a><a id="c8535" class="Metabolite ChEBI_CHEBI_29108  " transform="translate(543.89 227)" color="#00f"  name="Ca++"  ><rect id="c8535-icon" class="Icon" transform="matrix(.97561 0 0 .95238 .4878 .47619)" width="40" height="20" fill="#fff" stroke="#00f"/><text id="c8535-text" class="Text" transform="translate(20,13)" fill="#00f"  font-size="10px" stroke="white" stroke-width="0" text-anchor="middle"><tspan x="0" y="0">Ca++</tspan></text></a><a  id="cd4f3" class="GeneProduct GNAI1 " transform="translate(247.5 663.97)"   name="GNAI1"  ><rect id="cd4f3-icon" class="Icon" transform="matrix(.98077 0 0 .95238 .49038 .47619)" width="51" height="20" fill="#fff" stroke="#000"/><text id="cd4f3-text" class="Text" transform="translate(25.5 13)" fill="#000"  font-size="10px" stroke="white" stroke-width="0" text-anchor="middle"><tspan x="0" y="0">GNAI1</tspan></text></a><a id="d2f42" class="Metabolite ChEBI_CHEBI_29103  " transform="translate(85,383)" color="#00f"  name="K+"  ><rect id="d2f42-icon" class="Icon" transform="matrix(.97561 0 0 .95238 .4878 .47619)" width="40" height="20" fill="#fff" stroke="#00f"/><text id="d2f42-text" class="Text" transform="translate(20,13)" fill="#00f"  font-size="10px" stroke="white" stroke-width="0" text-anchor="middle"><tspan x="0" y="0">K+</tspan></text></a><a id="d7a6f" class="Metabolite ChEBI_CHEBI_29103  " transform="translate(194,228)" color="#00f"  name="K+"  ><rect id="d7a6f-icon" class="Icon" transform="matrix(.97561 0 0 .95238 .4878 .47619)" width="40" height="20" fill="#fff" stroke="#00f"/><text id="d7a6f-text" class="Text" transform="translate(20,13)" fill="#00f"  font-size="10px" stroke="white" stroke-width="0" text-anchor="middle"><tspan x="0" y="0">K+</tspan></text></a><a id="d7b8f" class="Metabolite ChEBI_CHEBI_29103  " transform="translate(234,383)" color="#00f"  name="K+"  ><rect id="d7b8f-icon" class="Icon" transform="matrix(.97561 0 0 .95238 .4878 .47619)" width="40" height="20" fill="#fff" stroke="#00f"/><text id="d7b8f-text" class="Text" transform="translate(20,13)" fill="#00f"  font-size="10px" stroke="white" stroke-width="0" text-anchor="middle"><tspan x="0" y="0">K+</tspan></text></a><a id="db1e8" class="Metabolite ChEBI_CHEBI_15765  " transform="translate(619.3 661.52)" color="#00f"  name="DOPA"  ><rect id="db1e8-icon" class="Icon" transform="matrix(.98333 0 0 .95238 .49167 .47619)" width="59" height="20" fill="#fff" stroke="#00f"/><text id="db1e8-text" class="Text" transform="translate(29.5,13)" fill="#00f"  font-size="10px" stroke="white" stroke-width="0" text-anchor="middle"><tspan x="0" y="0">DOPA</tspan></text></a><a  id="e5410" class="GeneProduct PPP1R1B " transform="translate(427,436)"   name="PPP1R1B"  ><rect id="e5410-icon" class="Icon" transform="matrix(.98333 0 0 .95238 .49167 .47619)" width="59" height="20" fill="#fff" stroke="#000"/><g id="b33d0" class="Burr State" transform="translate(51.5,-4.5)" color="#000"  name="P"><use id="b33d0-icon" class="Icon" transform="matrix(.9375 0 0 .9375 .46875 .46875)" width="15" height="15" fill="#fff" stroke="#000" xlink:href="#Ellipse"/><text id="b33d0-text" class="Text" transform="translate(7.5,10.5)" fill="#000"  font-size="10px" stroke="white" stroke-width="0" text-anchor="middle"><tspan x="0" y="0">P</tspan></text></g><text id="e5410-text" class="Text" transform="translate(29.5,13)" fill="#000"  font-size="10px" stroke="white" stroke-width="0" text-anchor="middle"><tspan x="0" y="0">PPP1R1B</tspan></text></a><a id="e8b55" class="Metabolite ChEBI_CHEBI_17688  " transform="translate(443,33)" color="#00f"  name="Nicotine"  ><rect id="e8b55-icon" class="Icon" transform="matrix(.98333 0 0 .95238 .49167 .47619)" width="59" height="20" fill="#fff" stroke="#00f"/><text id="e8b55-text" class="Text" transform="translate(29.5,13)" fill="#00f"  font-size="10px" stroke="white" stroke-width="0" text-anchor="middle"><tspan x="0" y="0">Nicotine</tspan></text></a><a  id="ecf11" class="GeneProduct PPP1CA " transform="translate(498,372)"   name="PPP1CA"  ><rect id="ecf11-icon" class="Icon" transform="matrix(.98333 0 0 .95238 .49167 .47619)" width="59" height="20" fill="#fff" stroke="#000"/><text id="ecf11-text" class="Text" transform="translate(29.5,13)" fill="#000"  font-size="10px" stroke="white" stroke-width="0" text-anchor="middle"><tspan x="0" y="0">PPP1CA</tspan></text></a><a id="ee8f8" class="Metabolite ChEBI_CHEBI_29108  " transform="translate(543.89 117)" color="#00f"  name="Ca++"  ><rect id="ee8f8-icon" class="Icon" transform="matrix(.97561 0 0 .95238 .4878 .47619)" width="40" height="20" fill="#fff" stroke="#00f"/><text id="ee8f8-text" class="Text" transform="translate(20,13)" fill="#00f"  font-size="10px" stroke="white" stroke-width="0" text-anchor="middle"><tspan x="0" y="0">Ca++</tspan></text></a><a id="f45e7" class="Metabolite ChEBI_CHEBI_17489  " transform="translate(296.75,551.25)" color="#00f"  name="cAMP"  ><rect id="f45e7-icon" class="Icon" transform="matrix(.98157 0 0 .95238 .49078 .47619)" width="53.25" height="20" fill="#fff" stroke="#00f"/><text id="f45e7-text" class="Text" transform="translate(26.625,13)" fill="#00f"  font-size="10px" stroke="white" stroke-width="0" text-anchor="middle"><tspan x="0" y="0">cAMP</tspan></text></a><a id="faf77" class="Metabolite ChEBI_CHEBI_29101  " transform="translate(325,117)" color="#00f"  name="Na+"  ><rect id="faf77-icon" class="Icon" transform="matrix(.97727 0 0 .95238 .48864 .47619)" width="43" height="20" fill="#fff" stroke="#00f"/><text id="faf77-text" class="Text" transform="translate(21.5,13)" fill="#00f"  font-size="10px" stroke="white" stroke-width="0" text-anchor="middle"><tspan x="0" y="0">Na+</tspan></text></a><a id="fca90" class="Metabolite ChEBI_CHEBI_29103  " transform="translate(194,117)" color="#00f"  name="K+"  ><rect id="fca90-icon" class="Icon" transform="matrix(.97561 0 0 .95238 .4878 .47619)" width="40" height="20" fill="#fff" stroke="#00f"/><text id="fca90-text" class="Text" transform="translate(20,13)" fill="#00f"  font-size="10px" stroke="white" stroke-width="0" text-anchor="middle"><tspan x="0" y="0">K+</tspan></text></a><g id="a5a0c" class="GroupGroup" transform="translate(244,154)" color="grey" ><use id="a5a0c-icon" class="Icon" width="70" height="56" fill="transparent"  stroke="grey" stroke-dasharray="5,3" stroke-width="0" xlink:href="#none"/><a  id="a15bc" class="GeneProduct CHRNA4 " transform="translate(8,8)"   name="CHRNA4"  ><rect id="a15bc-icon" class="Icon" transform="matrix(.98182 0 0 .95238 .49091 .47619)" width="54" height="20" fill="#fff" stroke="#000"/><text id="a15bc-text" class="Text" transform="translate(27,13)" fill="#000"  font-size="10px" stroke="white" stroke-width="0" text-anchor="middle"><tspan x="0" y="0">CHRNA4</tspan></text></a><a  id="e22a2" class="GeneProduct CHRNB2 " transform="translate(8,28)"   name="CHRNB2"  ><rect id="e22a2-icon" class="Icon" transform="matrix(.98182 0 0 .95238 .49091 .47619)" width="54" height="20" fill="#fff" stroke="#000"/><text id="e22a2-text" class="Text" transform="translate(27,13)" fill="#000"  font-size="10px" stroke="white" stroke-width="0" text-anchor="middle"><tspan x="0" y="0">CHRNB2</tspan></text></a></g><g id="c5aec" class="GroupGroup" transform="translate(453,640)" color="grey" ><use id="c5aec-icon" class="Icon" width="65" height="56" fill="transparent"  stroke="grey" stroke-dasharray="5,3" stroke-width="0" xlink:href="#none"/><a  id="efd21" class="GeneProduct GNG2 " transform="translate(8,28)"   name="GNG2"  ><rect id="efd21-icon" class="Icon" transform="matrix(.98 0 0 .95238 .49 .47619)" width="49" height="20" fill="#fff" stroke="#000"/><text id="efd21-text" class="Text" transform="translate(24.5,13)" fill="#000"  font-size="10px" stroke="white" stroke-width="0" text-anchor="middle"><tspan x="0" y="0">GNG2</tspan></text></a><a  id="ffaa4" class="GeneProduct GNB1 " transform="translate(8,8)"   name="GNB1"  ><rect id="ffaa4-icon" class="Icon" transform="matrix(.98 0 0 .95238 .49 .47619)" width="49" height="20" fill="#fff" stroke="#000"/><text id="ffaa4-text" class="Text" transform="translate(24.5,13)" fill="#000"  font-size="10px" stroke="white" stroke-width="0" text-anchor="middle"><tspan x="0" y="0">GNB1</tspan></text></a></g><g id="c8e44" class="GroupGroup" transform="translate(437.33 133)" color="grey" ><use id="c8e44-icon" class="Icon" width="72" height="96" fill="transparent"  stroke="grey" stroke-dasharray="5,3" stroke-width="0" xlink:href="#none"/><a  id="b1a95" class="GeneProduct CHRNA4 " transform="translate(8,8)"   name="CHRNA4"  ><rect id="b1a95-icon" class="Icon" transform="matrix(.98246 0 0 .95238 .49123 .47619)" width="56" height="20" fill="#fff" stroke="#000"/><text id="b1a95-text" class="Text" transform="translate(28,13)" fill="#000"  font-size="10px" stroke="white" stroke-width="0" text-anchor="middle"><tspan x="0" y="0">CHRNA4</tspan></text></a><a  id="c7688" class="GeneProduct CHRNB2 " transform="translate(8,28)"   name="CHRNB2"  ><rect id="c7688-icon" class="Icon" transform="matrix(.98246 0 0 .95238 .49123 .47619)" width="56" height="20" fill="#fff" stroke="#000"/><text id="c7688-text" class="Text" transform="translate(28,13)" fill="#000"  font-size="10px" stroke="white" stroke-width="0" text-anchor="middle"><tspan x="0" y="0">CHRNB2</tspan></text></a><a  id="ea60c" class="GeneProduct CHRNA6 " transform="translate(8,48)"   name="CHRNA6"  ><rect id="ea60c-icon" class="Icon" transform="matrix(.98246 0 0 .95238 .49123 .47619)" width="56" height="20" fill="#fff" stroke="#000"/><text id="ea60c-text" class="Text" transform="translate(28,13)" fill="#000"  font-size="10px" stroke="white" stroke-width="0" text-anchor="middle"><tspan x="0" y="0">CHRNA6</tspan></text></a><a  id="f28d0" class="GeneProduct CHRNA3 " transform="translate(8,68)"   name="CHRNA3"  ><rect id="f28d0-icon" class="Icon" transform="matrix(.98246 0 0 .95238 .49123 .47619)" width="56" height="20" fill="#fff" stroke="#000"/><text id="f28d0-text" class="Text" transform="translate(28,13)" fill="#000"  font-size="10px" stroke="white" stroke-width="0" text-anchor="middle"><tspan x="0" y="0">CHRNA3</tspan></text></a></g><g id="d677d" class="GroupGroup" transform="translate(134,408)" color="grey" ><use id="d677d-icon" class="Icon" width="70" height="56" fill="transparent"  stroke="grey" stroke-dasharray="5,3" stroke-width="0" xlink:href="#none"/><a  id="e01eb" class="GeneProduct KCNK9 " transform="translate(8,28)"   name="KCNK9"  ><rect id="e01eb-icon" class="Icon" transform="matrix(.98182 0 0 .95238 .49091 .47619)" width="54" height="20" fill="#fff" stroke="#000"/><g id="e1526" class="Burr State" transform="translate(46.5,12.5)" color="#000"  name="P"><use id="e1526-icon" class="Icon" transform="matrix(.9375 0 0 .9375 .46875 .46875)" width="15" height="15" fill="#fff" stroke="#000" xlink:href="#Ellipse"/><text id="e1526-text" class="Text" transform="translate(7.5,10.5)" fill="#000"  font-size="10px" stroke="white" stroke-width="0" text-anchor="middle"><tspan x="0" y="0">P</tspan></text></g><text id="e01eb-text" class="Text" transform="translate(27,13)" fill="#000"  font-size="10px" stroke="white" stroke-width="0" text-anchor="middle"><tspan x="0" y="0">KCNK9</tspan></text></a><a  id="f0162" class="GeneProduct KCNK3 " transform="translate(8,8)"   name="KCNK3"  ><rect id="f0162-icon" class="Icon" transform="matrix(.98182 0 0 .95238 .49091 .47619)" width="54" height="20" fill="#fff" stroke="#000"/><text id="f0162-text" class="Text" transform="translate(27,13)" fill="#000"  font-size="10px" stroke="white" stroke-width="0" text-anchor="middle"><tspan x="0" y="0">KCNK3</tspan></text></a></g><g id="d840c" class="GroupComplex" transform="translate(681,544)" color="grey" ><use id="d840c-icon" class="Icon" transform="matrix(.98851 0 0 .99453 .49425 .49727)" width="86" height="181.86554621848757" fill="#b4b464" fill-opacity=".1" stroke="grey" xlink:href="#Octagon"/><a  id="a23a8" class="GeneProduct TH " transform="translate(17.706 149.87)"   name="TH"  ><rect id="a23a8-icon" class="Icon" transform="matrix(.975 0 0 .95238 .4875 .47619)" width="39" height="20" rx="15" ry="15" fill="#fff" stroke="#000"/><text id="a23a8-text" class="Text" transform="translate(19.5,13)" fill="#000"  font-size="10px" stroke="white" stroke-width="0" text-anchor="middle"><tspan x="0" y="0">TH</tspan></text></a><a  id="c39e4" class="GeneProduct DDC " transform="translate(16.731 94.37)"   name="DDC"  ><rect id="c39e4-icon" class="Icon" transform="matrix(.97872 0 0 .95238 .48936 .47619)" width="46" height="20" rx="15" ry="15" fill="#fff" stroke="#000"/><text id="c39e4-text" class="Text" transform="translate(23,13)" fill="#000"  font-size="10px" stroke="white" stroke-width="0" text-anchor="middle"><tspan x="0" y="0">DDC</tspan></text></a><a  id="e36f9" class="GeneProduct SLC18A2 " transform="translate(12,12)"   name="SLC18A2"  ><rect id="e36f9-icon" class="Icon" transform="matrix(.98413 0 0 .95238 .49206 .47619)" width="62" height="20" rx="15" ry="15" fill="#fff" stroke="#000"/><text id="e36f9-text" class="Text" transform="translate(31,13)" fill="#000"  font-size="10px" stroke="white" stroke-width="0" text-anchor="middle"><tspan x="0" y="0">SLC18A2</tspan></text></a></g><g id="deaa9" class="GroupGroup" transform="translate(447,763)" color="grey" ><use id="deaa9-icon" class="Icon" width="65" height="76" fill="transparent"  stroke="grey" stroke-dasharray="5,3" stroke-width="0" xlink:href="#none"/><a  id="a1943" class="GeneProduct GNAI1 " transform="translate(8,8)"   name="GNAI1"  ><rect id="a1943-icon" class="Icon" transform="matrix(.98 0 0 .95238 .49 .47619)" width="49" height="20" fill="#fff" stroke="#000"/><text id="a1943-text" class="Text" transform="translate(24.5,13)" fill="#000"  font-size="10px" stroke="white" stroke-width="0" text-anchor="middle"><tspan x="0" y="0">GNAI1</tspan></text></a><a  id="d2a7c" class="GeneProduct GNB1 " transform="translate(8,48)"   name="GNB1"  ><rect id="d2a7c-icon" class="Icon" transform="matrix(.98 0 0 .95238 .49 .47619)" width="49" height="20" fill="#fff" stroke="#000"/><text id="d2a7c-text" class="Text" transform="translate(24.5,13)" fill="#000"  font-size="10px" stroke="white" stroke-width="0" text-anchor="middle"><tspan x="0" y="0">GNB1</tspan></text></a><a  id="f5682" class="GeneProduct GNG2 " transform="translate(8,28)"   name="GNG2"  ><rect id="f5682-icon" class="Icon" transform="matrix(.98 0 0 .95238 .49 .47619)" width="49" height="20" fill="#fff" stroke="#000"/><text id="f5682-text" class="Text" transform="translate(24.5,13)" fill="#000"  font-size="10px" stroke="white" stroke-width="0" text-anchor="middle"><tspan x="0" y="0">GNG2</tspan></text></a></g><g id="ecc8b" class="GroupGroup" transform="translate(238,747)" color="grey" ><use id="ecc8b-icon" class="Icon" width="84" height="96" fill="transparent"  stroke="grey" stroke-dasharray="5,3" stroke-width="0" xlink:href="#none"/><a  id="a8a53" class="GeneProduct DRD2 " transform="translate(16.5,8)"   name="DRD2"  ><rect id="a8a53-icon" class="Icon" transform="matrix(.98077 0 0 .95238 .49038 .47619)" width="51" height="20" fill="#fff" stroke="#000"/><text id="a8a53-text" class="Text" transform="translate(25.5,13)" fill="#000"  font-size="10px" stroke="white" stroke-width="0" text-anchor="middle"><tspan x="0" y="0">DRD2</tspan></text></a><a  id="bb8ac" class="GeneProduct DRD4 " transform="translate(16.5,48)"   name="DRD4"  ><rect id="bb8ac-icon" class="Icon" transform="matrix(.98077 0 0 .95238 .49038 .47619)" width="51" height="20" fill="#fff" stroke="#000"/><text id="bb8ac-text" class="Text" transform="translate(25.5,13)" fill="#000"  font-size="10px" stroke="white" stroke-width="0" text-anchor="middle"><tspan x="0" y="0">DRD4</tspan></text></a><a  id="bff32" class="GeneProduct DRD3 " transform="translate(16.5,28)"   name="DRD3"  ><rect id="bff32-icon" class="Icon" transform="matrix(.98077 0 0 .95238 .49038 .47619)" width="51" height="20" fill="#fff" stroke="#000"/><text id="bff32-text" class="Text" transform="translate(25.5,13)" fill="#000"  font-size="10px" stroke="white" stroke-width="0" text-anchor="middle"><tspan x="0" y="0">DRD3</tspan></text></a><a id="c3a4d" class="Metabolite ChEBI_CHEBI_18243  " transform="translate(8,68)" color="#00f"  name="Dopamine"  ><rect id="c3a4d-icon" class="Icon" transform="matrix(.98551 0 0 .95238 .49275 .47619)" width="68" height="20" fill="#fff" stroke="#00f"/><text id="c3a4d-text" class="Text" transform="translate(34,13)" fill="#00f"  font-size="10px" stroke="white" stroke-width="0" text-anchor="middle"><tspan x="0" y="0">Dopamine</tspan></text></a></g><g id="f2f17" class="GroupGroup" transform="translate(608.33 144.44)" color="grey" ><use id="f2f17-icon" class="Icon" width="74" height="76" fill="transparent"  stroke="grey" stroke-dasharray="5,3" stroke-width="0" xlink:href="#none"/><a  id="bc68c" class="GeneProduct CHRNA4 " transform="translate(8,8)"   name="CHRNA4"  ><rect id="bc68c-icon" class="Icon" transform="matrix(.98305 0 0 .95238 .49153 .47619)" width="58" height="20" fill="#fff" stroke="#000"/><text id="bc68c-text" class="Text" transform="translate(29,13)" fill="#000"  font-size="10px" stroke="white" stroke-width="0" text-anchor="middle"><tspan x="0" y="0">CHRNA4</tspan></text></a><a  id="c3dd9" class="GeneProduct CHRNA5 " transform="translate(8,48)"   name="CHRNA5"  ><rect id="c3dd9-icon" class="Icon" transform="matrix(.98305 0 0 .95238 .49153 .47619)" width="58" height="20" fill="#fff" stroke="#000"/><text id="c3dd9-text" class="Text" transform="translate(29,13)" fill="#000"  font-size="10px" stroke="white" stroke-width="0" text-anchor="middle"><tspan x="0" y="0">CHRNA5</tspan></text></a><a  id="f7cb0" class="GeneProduct CHRNB2 " transform="translate(8,28)"   name="CHRNB2"  ><rect id="f7cb0-icon" class="Icon" transform="matrix(.98305 0 0 .95238 .49153 .47619)" width="58" height="20" fill="#fff" stroke="#000"/><text id="f7cb0-text" class="Text" transform="translate(29,13)" fill="#000"  font-size="10px" stroke="white" stroke-width="0" text-anchor="middle"><tspan x="0" y="0">CHRNB2</tspan></text></a></g><g id="fca4e" class="GroupGroup" transform="translate(393,763)" color="grey" ><use id="fca4e-icon" class="Icon" width="67" height="76" fill="transparent"  stroke="grey" stroke-dasharray="5,3" stroke-width="0" xlink:href="#none"/><a  id="c2b5c" class="GeneProduct DRD2 " transform="translate(8,8)"   name="DRD2"  ><rect id="c2b5c-icon" class="Icon" transform="matrix(.98077 0 0 .95238 .49038 .47619)" width="51" height="20" fill="#fff" stroke="#000"/><text id="c2b5c-text" class="Text" transform="translate(25.5,13)" fill="#000"  font-size="10px" stroke="white" stroke-width="0" text-anchor="middle"><tspan x="0" y="0">DRD2</tspan></text></a><a  id="ea3bf" class="GeneProduct DRD4 " transform="translate(8,48)"   name="DRD4"  ><rect id="ea3bf-icon" class="Icon" transform="matrix(.98077 0 0 .95238 .49038 .47619)" width="51" height="20" fill="#fff" stroke="#000"/><text id="ea3bf-text" class="Text" transform="translate(25.5,13)" fill="#000"  font-size="10px" stroke="white" stroke-width="0" text-anchor="middle"><tspan x="0" y="0">DRD4</tspan></text></a><a  id="fc5fe" class="GeneProduct DRD3 " transform="translate(8,28)"   name="DRD3"  ><rect id="fc5fe-icon" class="Icon" transform="matrix(.98077 0 0 .95238 .49038 .47619)" width="51" height="20" fill="#fff" stroke="#000"/><text id="fc5fe-text" class="Text" transform="translate(25.5,13)" fill="#000"  font-size="10px" stroke="white" stroke-width="0" text-anchor="middle"><tspan x="0" y="0">DRD3</tspan></text></a></g><g id="a4df6" class="Interaction" color="#000" ><g color="#000" fill="transparent"  filter="url(#kaavioblackto000000filter)" stroke="#000" stroke-dasharray="133.8487394957989, 0"><path id="a4df6" class="EdgeBody" d="m682.61 502.86 133.85 1.1e-13"   marker-end="url(#markerEndmim-translocation)" /></g><g id="f29b9" class="Burr Anchor" transform="translate(775.78 502.86)" ><use id="f29b9-icon" class="Icon" width="0" height="0" fill="#141414" stroke-width="0" xlink:href="#none"/></g></g><g id="bbb5f" class="Interaction" color="#000" ><g color="#000" fill="transparent"  filter="url(#kaavioblackto000000filter)" stroke="#000" stroke-dasharray="8.483610913404323, 11"><path id="bbb5f" class="EdgeBody" d="m767.31 485.31 8.47 17.546"   marker-end="url(#markerEndMimCatalysis)" /></g></g><g id="af59d" class="Interaction" color="#000" ><g color="#000" fill="transparent"  filter="url(#kaavioblackto000000filter)" stroke="#000" stroke-dasharray="33.45058388948577, 11"><path id="af59d" class="EdgeBody" d="m693 566-44.451 0.0016218"   marker-end="url(#markerEndMimCatalysis)" /></g></g><g id="fe57f" class="DirectedInteraction" color="#000" ><g color="#000" fill="transparent"  filter="url(#kaavioblackto000000filter)" stroke="#000" stroke-dasharray="30.5373247809145, 5.8"><path id="fe57f" class="EdgeBody" d="m648.8 661.52-0.29412-36.336"   marker-end="url(#markerEndArrow)" /></g><g id="cc619" class="Burr Anchor" transform="translate(648.7 648.72)" ><use id="cc619-icon" class="Icon" width="0" height="0" fill="#141414" stroke-width="0" xlink:href="#none"/></g></g><g id="a5650" class="Interaction" color="#000" ><g color="#000" fill="transparent"  filter="url(#kaavioblackto000000filter)" stroke="#000" stroke-dasharray="91, 0"><path id="a5650" class="EdgeBody" d="m346.5 228v-91"   marker-start="url(#markerStartmim-translocation)" /></g><g id="a6ead" class="Burr Anchor" transform="translate(346.5,173)" ><use id="a6ead-icon" class="Icon" width="0" height="0" fill="#141414" stroke-width="0" xlink:href="#none"/></g></g><g id="cbfeb" class="Interaction" color="#000" ><g color="#000" fill="transparent"  filter="url(#kaavioblackto000000filter)" stroke="#000" stroke-dasharray="91, 0"><path id="cbfeb" class="EdgeBody" d="m214 228v-91"   marker-end="url(#markerEndmim-translocation)" /></g><g id="d5fae" class="Burr Anchor" transform="translate(214,172)" ><use id="d5fae-icon" class="Icon" width="0" height="0" fill="#141414" stroke-width="0" xlink:href="#none"/></g></g><g id="b8d6c" class="Interaction" color="#000" ><g color="#000" fill="transparent"  filter="url(#kaavioblackto000000filter)" stroke="#000" stroke-dasharray="22.723137457834497, 11"><path id="b8d6c" class="EdgeBody" d="m314 182 32.5-9"   marker-end="url(#markerEndMimCatalysis)" /></g></g><g id="a10c5" class="Interaction" color="#000" ><g color="#000" fill="transparent"  filter="url(#kaavioblackto000000filter)" stroke="#000" stroke-dasharray="20.622776601683793, 11"><path id="a10c5" class="EdgeBody" d="m244 182-30-10"   marker-end="url(#markerEndMimCatalysis)" /></g></g><g id="fca2b" class="Interaction" color="#000" ><g color="#000" fill="transparent"  filter="url(#kaavioblackto000000filter)" stroke="#000" stroke-dasharray="90, 0"><path id="fca2b" class="EdgeBody" d="m563.89 137v90"   marker-end="url(#markerEndmim-translocation)" /></g><g id="b18e0" class="Burr Anchor" transform="translate(563.89 172.84)" ><use id="b18e0-icon" class="Icon" width="0" height="0" fill="#141414" stroke-width="0" xlink:href="#none"/></g></g><text id="WP1602-text" class="Text" transform="translate(5,36)" dominant-baseline="central" fill="black"  font-size="12px" font-weight="bold" overflow="visible" stroke="white" stroke-width="0"><tspan x="0" y="-18">Name: Nicotine effect on dopaminergic neurons</tspan> <tspan x="0" y="0">License: CC BY 2.0</tspan> <tspan x="0" y="18">Organism: Homo sapiens</tspan></text></g></svg>
