<?xml version="1.0" encoding="UTF-8"?>
<svg xmlns="http://www.w3.org/2000/svg" id="-svg" class="Diagram"  baseProfile="full" prefix="schema:http://schema.org/" preserveAspectRatio="xMidYMid"  version="1.1"><defs><g id="icon-defs"/><g id="marker-defs"><marker id="membinding000" markerHeight="12" markerWidth="12" orient="auto" preserveAspectRatio="none" refX="12" refY="6" viewBox="0 0 12 12"><g id="g-membinding000" transform=""><g transform="rotate(180 6 6)"><rect y="5.4" width="2" height="1.2" style="stroke:#fff"/><polygon points="12 12 0 6 12 0 5 6" stroke-width="0"/></g></g></marker></g></defs><g id="viewport-20220102135702628" class="svg-pan-zoom_viewport" transform="matrix(0.82 0 0 0.82 188.63 9.30e-6)" style="transform:matrix(0.82, 0, 0, 0.82, 188.63, 9.30e-06)"><style>svg.Diagram {font-family: 'Liberation Sans', Arial, sans-serif; }.Diagram path {fill: transparent;stroke: #000;marker-end: url(#mea);}.Diagram symbol path {fill: inherit;stroke: inherit;stroke-width: inherit;marker-end: inherit;}.Diagram rect {fill: #fff;stroke: #000;}.Diagram text {dominant-baseline: central;overflow: hidden;text-anchor: middle;fill: #000;font-size: 10px;}</style><style type="text/css">.Viewport .textContent {
  pointer-events: none;
  stroke-width: 0px;
}

					.Viewport.Icon {
  fill: white;
}

/* Hide the InfoBox */
.Viewport.textContent {
  font-size: 0;
}

.textContent {
  stroke: none;
}

.DataNode {
  stroke-miterlimit: 1;
  pointer-events: auto;
}

.DataNode:hover {
  cursor: pointer;
}

/* TODO should this apply to things other than DataNodes? */
.DataNode.textContent {
  pointer-events: none;
}

.DataNode.Highlighted {
  opacity: 0.6;
  stroke-width: 0px;
}

marker {
  /* this is what should work per the spec
  stroke-dasharray: none; */
  /* but I need to add this to make it work in Safari */
  stroke-dasharray: 9999999999999999999999999;
}

.Citation.Icon {
  fill: none;
  stroke-width: 0px;
}

.Citation.textContent {
  text-align: center;
  vertical-align: top;
  font-size: 7px;
  fill: #999;
  fill-opacity: 1;
  stroke: none;
}</style><g id="WP170" class="Pathway http___identifiers_org_pw_PW_0000716 Viewport"  name="Name: Nuclear receptors Organism: Homo sapiens" ><g class="Pathway http___identifiers_org_pw_PW_0000716 Viewport"><rect   width="1003.2" height="815.71" style="stroke:none"/><g id="pvjsgeneratedide8326" class="Edge"  ><path    d="m549.29 709.18-35.95 0.82" style="marker-end:url(#membinding000)"/></g><g id="pvjsgeneratedide8325" class="Edge"  ><path    d="m76.53 742.55 0.14-54.55" style="marker-end:url(#membinding000)"/></g><g id="pvjsgeneratedide8322" class="Edge"  ><path    d="m239.8 176.12 38.87 0.54" style="marker-end:url(#membinding000)"/></g><g id="pvjsgeneratedide8324" class="Edge"  ><path    d="m695.97 302.3-57.97 1.04" style="marker-end:url(#membinding000)"/></g><g id="pvjsgeneratedide8323" class="Edge"  ><path    d="m311.22 292.09 37.44 1.24" style="marker-end:url(#membinding000)"/></g><g id="a28" class="Label" transform="translate(14.17 97.17)"  name="Thyroid Receptor" ><g class="Label"/><text   transform="translate(69.17 9.5)"    font-weight="bold"  style="font-size:12px">Thyroid Receptor</text></g><g id="ec4" class="Label" transform="translate(474.33 91.17)"  name="Peroxisome Proliferator Activated Receptor" ><g class="Label"/><text   transform="translate(78.83 16.92)"    font-weight="bold"  style="font-size:12px"><tspan   x="0" y="-6.60">Peroxisome Proliferator</tspan><tspan   x="0" y="6.60">Activated Receptor</tspan></text></g><g id="bec" class="Label" transform="translate(60.83 240.5)"  name="Nuclear Receptor ROR" ><g class="Label"/><text   transform="translate(89.17 9.5)"    font-weight="bold"  style="font-size:12px">Nuclear Receptor ROR</text></g><g id="eca" class="Label" transform="translate(302.67 240.5)"  name="Oxysterols Receptor" ><g class="Label"/><text   transform="translate(80.67 9.5)"    font-weight="bold"  style="font-size:12px">Oxysterols Receptor</text></g><g id="a63" class="Label" transform="translate(516,240.5)"  name="Vitamin D3 Receptor" ><g class="Label"/><text   transform="translate(80.67 9.5)"    font-weight="bold"  style="font-size:12px">Vitamin D3 Receptor</text></g><g id="eab" class="Label" transform="translate(19.17 407.17)"  name="Hepatocyte Nuclear Factor" ><g class="Label"/><text   transform="translate(104.17 9.5)"    font-weight="bold"  style="font-size:12px">Hepatocyte Nuclear Factor</text></g><g id="c8f" class="Label" transform="translate(240.33 407.17)"  name="Retinoic Acid Receptor RXR" ><g class="Label"/><text   transform="translate(109.67 9.5)"    font-weight="bold"  style="font-size:12px">Retinoic Acid Receptor RXR</text></g><g id="a6f" class="Label" transform="translate(477 407.17)"  name="Orphan Nuclear Receptor" ><g class="Label"/><text   transform="translate(99.67 9.5)"    font-weight="bold"  style="font-size:12px">Orphan Nuclear Receptor</text></g><g id="d46" class="Label" transform="translate(39.67 480.5)"  name="Nuclear receptor TLX" ><g class="Label"/><text   transform="translate(83.67 9.5)"    font-weight="bold"  style="font-size:12px">Nuclear receptor TLX</text></g><g id="a05" class="Label" transform="translate(693.5 407.17)"  name="Coup Transcription Factor" ><g class="Label"/><text   transform="translate(103.17 9.5)"    font-weight="bold"  style="font-size:12px">Coup Transcription Factor</text></g><g id="e80" class="Label" transform="translate(5.33 606.17)"  name="Estrogen Receptor" ><g class="Label"/><text   transform="translate(74.67 9.5)"    font-weight="bold"  style="font-size:12px">Estrogen Receptor</text></g><g id="ab2" class="Label" transform="translate(165.33 606.17)"  name="Steroid Hormone Receptor" ><g class="Label"/><text   transform="translate(104.67 9.5)"    font-weight="bold"  style="font-size:12px">Steroid Hormone Receptor</text></g><g id="a89" class="Label" transform="translate(389.67 603.17)"  name="Glucocorticoid Receptor" ><g class="Label"/><text   transform="translate(95.67 9.5)"    font-weight="bold"  style="font-size:12px">Glucocorticoid Receptor</text></g><g id="a8a" class="Label" transform="translate(391.67 672.17)"  name="Progesterone Receptor" ><g class="Label"/><text   transform="translate(91.67 9.5)"    font-weight="bold"  style="font-size:12px">Progesterone Receptor</text></g><g id="fde" class="Label" transform="translate(405.67 735.5)"  name="Androgen Receptor" ><g class="Label"/><text   transform="translate(77.67 9.5)"    font-weight="bold"  style="font-size:12px">Androgen Receptor</text></g><g id="b1e" class="Label" transform="translate(809 557.17)"  name="NR5 SUPERFAMILY" ><rect   width="142.67" height="29.83"/><text   transform="translate(71.33 14.92)"    font-weight="bold"  style="font-size:12px">NR5 SUPERFAMILY</text></g><g id="d42" class="Label" transform="translate(786.83 597.17)"  name="Steroidogenic Receptor" ><g class="Label"/><text   transform="translate(93.17 9.5)"    font-weight="bold"  style="font-size:12px">Steroidogenic Receptor</text></g><g id="e07" class="Label" transform="translate(825.17 97.17)"  name="Orphan Receptor" ><g class="Label"/><text   transform="translate(68.17 9.5)"    font-weight="bold"  style="font-size:12px">Orphan Receptor</text></g><g id="a4d" class="Label" transform="translate(818.49 19.68)"  name="NR0 SUPERFAMILY" ><rect   width="140.33" height="25.5"/><text   transform="translate(70.17 12.75)"    font-weight="bold"  style="font-size:12px">NR0 SUPERFAMILY</text></g><g id="fd0" class="Label" transform="translate(323.88 19.96)"  name="NR1 SUPERFAMILY" ><rect   width="135.67" height="25.5"/><text   transform="translate(67.83 12.75)"    font-weight="bold"  style="font-size:12px">NR1 SUPERFAMILY</text></g><g id="cde" class="Label" transform="translate(381.33 367.17)"  name="NR2 SUPERFAMILY" ><rect   width="157.33" height="25.83"/><text   transform="translate(78.67 12.92)"    font-weight="bold"  style="font-size:12px">NR2 SUPERFAMILY</text></g><g id="f8d" class="Label" transform="translate(211.33 557.17)"  name="NR3 SUPERFAMILY" ><rect   width="142.67" height="27.83"/><text   transform="translate(71.33 13.92)"    font-weight="bold"  style="font-size:12px">NR3 SUPERFAMILY</text></g><g id="d37" class="Label" transform="translate(629.33 559.17)"  name="NR4 SUPERFAMILY" ><rect   width="139.67" height="26.83"/><text   transform="translate(69.83 13.42)"    font-weight="bold"  style="font-size:12px">NR4 SUPERFAMILY</text></g><g id="a62" class="Label" transform="translate(631.83 597.17)"  name="Orphan Receptor" ><g class="Label"/><text   transform="translate(68.17 9.5)"    font-weight="bold"  style="font-size:12px">Orphan Receptor</text></g><g id="fc2" class="Label" transform="translate(675,97)"  name="Orphan Nuclear Receptor" ><g class="Label"/><text   transform="translate(58 15.92)"    font-weight="bold"  style="font-size:12px"><tspan   x="0" y="-6.60">Orphan Nuclear</tspan><tspan   x="0" y="6.60">Receptor</tspan></text></g><g id="d53" class="Label" transform="translate(226.5 97.17)"  name="Retinoic Acid Receptor" ><g class="Label"/><text   transform="translate(90.17 9.5)"    font-weight="bold"  style="font-size:12px">Retinoic Acid Receptor</text></g><g id="c6d" class="GeneProduct " transform="translate(703.33 136.67)"  name="NR1D2" ><rect   width="60" height="20"/><text   transform="translate(30,10)"    >NR1D2</text></g><g id="d7f" class="GeneProduct " transform="translate(863.33 136.67)"  name="NR0B1" ><rect   width="60" height="20"/><text   transform="translate(30,10)"    >NR0B1</text></g><g id="f78" class="GeneProduct " transform="translate(93.33 440)"  name="HNF4A" ><rect   width="60" height="20"/><text   transform="translate(30,10)"    >HNF4A</text></g><g id="ac1" class="GeneProduct " transform="translate(546.67 440)"  name="NR2C2" ><rect   width="60" height="20"/><text   transform="translate(30,10)"    >NR2C2</text></g><g id="bde" class="GeneProduct " transform="translate(93.33 510)"  name="NR2E1" ><rect   width="60" height="20"/><text   transform="translate(30,10)"    >NR2E1</text></g><g id="a53" class="GeneProduct " transform="translate(453.33 630)"  name="NR3C1" ><rect   width="60" height="20"/><text   transform="translate(30,10)"    >NR3C1</text></g><g id="bc1" class="GeneProduct " transform="translate(453.33 700)"  name="PGR" ><rect   width="60" height="20"/><text   transform="translate(30,10)"    >PGR</text></g><g id="b83" class="GeneProduct " transform="translate(453.33 760)"  name="AR" ><rect   width="60" height="20"/><text   transform="translate(30,10)"    >AR</text></g><g id="b2dcf" class="Metabolite " transform="translate(189.59 160.92)"  name="retinoic acid" ><rect   width="50.20" height="30.41" style="stroke:#00f"/><text   transform="translate(25.10 15.20)"     style="fill:#00f"><tspan   x="0" y="-5.5">retinoic</tspan><tspan   x="0" y="5.5">acid</tspan></text></g><g id="bbc2c" class="Metabolite " transform="translate(250.82 282.09)"  name="Oxysterols" ><rect   width="60.41" height="20" style="stroke:#00f"/><text   transform="translate(30.20 10)"     style="fill:#00f">Oxysterols</text></g><g id="e8321" class="Metabolite " transform="translate(695.97 292.3)"  name="d3 vitamins" ><rect   width="65.51" height="20" style="stroke:#00f"/><text   transform="translate(32.76 10)"     style="fill:#00f">d3 vitamins</text></g><g id="b8ba2" class="Metabolite " transform="translate(36.53 742.55)"  name="estrogen" ><rect   width="80" height="20" style="stroke:#00f"/><text   transform="translate(40,10)"     style="fill:#00f">estrogen</text></g><g id="d7c69" class="Metabolite " transform="translate(549.29 699.18)"  name="progesterone" ><rect   width="80" height="20" style="stroke:#00f"/><text   transform="translate(40,10)"     style="fill:#00f">progesterone</text></g><g id="dcef5" class="GroupNone" transform="translate(37.67 631)"  ><g class="GroupNone"><rect   width="78" height="58" fill-opacity=".1" stroke-dasharray="5,3" style="fill:#b4b464;stroke:grey"/><g id="ed2" class="GeneProduct " transform="translate(9,9)"  name="ESR1" ><rect   width="60" height="20"/><text   transform="translate(30,10)"    >ESR1</text></g><g id="df6" class="GeneProduct " transform="translate(9,29)"  name="ESR2" ><rect   width="60" height="20"/><text   transform="translate(30,10)"    >ESR2</text></g></g></g><g id="fc4ef" class="GroupNone" transform="translate(231,631)"  ><g class="GroupNone"><rect   width="78" height="58" fill-opacity=".1" stroke-dasharray="5,3" style="fill:#b4b464;stroke:grey"/><g id="a34" class="GeneProduct " transform="translate(9,9)"  name="ESRRA" ><rect   width="60" height="20"/><text   transform="translate(30,10)"    >ESRRA</text></g><g id="fbe" class="GeneProduct " transform="translate(9,29)"  name="ESRRB" ><rect   width="60" height="20"/><text   transform="translate(30,10)"    >ESRRB</text></g></g></g><g id="dc68c" class="GroupNone" transform="translate(661 624.33)"  ><g class="GroupNone"><rect   width="78" height="58" fill-opacity=".1" stroke-dasharray="5,3" style="fill:#b4b464;stroke:grey"/><g id="d8d" class="GeneProduct " transform="translate(9,9)"  name="NR4A1" ><rect   width="60" height="20"/><text   transform="translate(30,10)"    >NR4A1</text></g><g id="b33" class="GeneProduct " transform="translate(9,29)"  name="NR4A2" ><rect   width="60" height="20"/><text   transform="translate(30,10)"    >NR4A2</text></g></g></g><g id="e16fd" class="GroupNone" transform="translate(841 624.33)"  ><g class="GroupNone"><rect   width="78" height="58" fill-opacity=".1" stroke-dasharray="5,3" style="fill:#b4b464;stroke:grey"/><g id="c43" class="GeneProduct " transform="translate(9,9)"  name="NR5A1" ><rect   width="60" height="20"/><text   transform="translate(30,10)"    >NR5A1</text></g><g id="abf" class="GeneProduct " transform="translate(9,29)"  name="NR5A2" ><rect   width="60" height="20"/><text   transform="translate(30,10)"    >NR5A2</text></g></g></g><g id="d8159" class="GroupNone" transform="translate(757.67 431)"  ><g class="GroupNone"><rect   width="78" height="78" fill-opacity=".1" stroke-dasharray="5,3" style="fill:#b4b464;stroke:grey"/><g id="d0c" class="GeneProduct " transform="translate(9,9)"  name="NR2F1" ><rect   width="60" height="20"/><text   transform="translate(30,10)"    >NR2F1</text></g><g id="be9" class="GeneProduct " transform="translate(9,29)"  name="NR2F2" ><rect   width="60" height="20"/><text   transform="translate(30,10)"    >NR2F2</text></g><g id="f18" class="GeneProduct " transform="translate(9,49)"  name="NR2F6" ><rect   width="60" height="20"/><text   transform="translate(30,10)"    >NR2F6</text></g></g></g><g id="a563d" class="GroupNone" transform="translate(311,431)"  ><g class="GroupNone"><rect   width="78" height="78" fill-opacity=".1" stroke-dasharray="5,3" style="fill:#b4b464;stroke:grey"/><g id="db6" class="GeneProduct " transform="translate(9,9)"  name="RXRA" ><rect   width="60" height="20"/><text   transform="translate(30,10)"    >RXRA</text></g><g id="a09" class="GeneProduct " transform="translate(9,29)"  name="RXRB" ><rect   width="60" height="20"/><text   transform="translate(30,10)"    >RXRB</text></g><g id="ca3" class="GeneProduct " transform="translate(9,49)"  name="RXRG" ><rect   width="60" height="20"/><text   transform="translate(30,10)"    >RXRG</text></g></g></g><g id="e37a4" class="GroupNone" transform="translate(111 264.33)"  ><g class="GroupNone"><rect   width="78" height="78" fill-opacity=".1" stroke-dasharray="5,3" style="fill:#b4b464;stroke:grey"/><g id="d7d" class="GeneProduct " transform="translate(9,9)"  name="ROR1" ><rect   width="60" height="20"/><text   transform="translate(30,10)"    >ROR1</text></g><g id="cd4" class="GeneProduct " transform="translate(9,29)"  name="RORA" ><rect   width="60" height="20"/><text   transform="translate(30,10)"    >RORA</text></g><g id="c98" class="GeneProduct " transform="translate(9,49)"  name="RORC" ><rect   width="60" height="20"/><text   transform="translate(30,10)"    >RORC</text></g></g></g><g id="db9ff" class="GroupNone" transform="translate(44.33 127.67)"  ><g class="GroupNone"><rect   width="78" height="78" fill-opacity=".1" stroke-dasharray="5,3" style="fill:#b4b464;stroke:grey"/><g id="c8b" class="GeneProduct " transform="translate(9,9)"  name="THRA" ><rect   width="60" height="20"/><text   transform="translate(30,10)"    >THRA</text></g><g id="db9" class="GeneProduct " transform="translate(9,29)"  name="THRB" ><rect   width="60" height="20"/><text   transform="translate(30,10)"    >THRB</text></g><g id="c5e" class="GeneProduct " transform="translate(9,49)"  name="THRB" ><rect   width="60" height="20"/><text   transform="translate(30,10)"    >THRB</text></g></g></g><g id="a9c4a" class="GroupNone" transform="translate(277.67 127.67)"  ><g class="GroupNone"><rect   width="78" height="98" fill-opacity=".1" stroke-dasharray="5,3" style="fill:#b4b464;stroke:grey"/><g id="ec8" class="GeneProduct " transform="translate(9,9)"  name="RARA" ><rect   width="60" height="20"/><text   transform="translate(30,10)"    >RARA</text></g><g id="a3b" class="GeneProduct " transform="translate(9,29)"  name="RARB" ><rect   width="60" height="20"/><text   transform="translate(30,10)"    >RARB</text></g><g id="e14" class="GeneProduct " transform="translate(9,49)"  name="RARG" ><rect   width="60" height="20"/><text   transform="translate(30,10)"    >RARG</text></g><g id="b12" class="GeneProduct " transform="translate(9,69)"  name="RARG" ><rect   width="60" height="20"/><text   transform="translate(30,10)"    >RARG</text></g></g></g><g id="cf6b4" class="GroupNone" transform="translate(514.33 127.67)"  ><g class="GroupNone"><rect   width="78" height="98" fill-opacity=".1" stroke-dasharray="5,3" style="fill:#b4b464;stroke:grey"/><g id="f19" class="GeneProduct " transform="translate(9,9)"  name="PPARA" ><rect   width="60" height="20"/><text   transform="translate(30,10)"    >PPARA</text></g><g id="cf2" class="GeneProduct " transform="translate(9,29)"  name="PPARD" ><rect   width="60" height="20"/><text   transform="translate(30,10)"    >PPARD</text></g><g id="fbc" class="GeneProduct " transform="translate(9,49)"  name="PPARG" ><rect   width="60" height="20"/><text   transform="translate(30,10)"    >PPARG</text></g><g id="d7c" class="GeneProduct " transform="translate(9,69)"  name="PPARG" ><rect   width="60" height="20"/><text   transform="translate(30,10)"    >PPARG</text></g></g></g><g id="c22e3" class="GroupNone" transform="translate(561 264.33)"  ><g class="GroupNone"><rect   width="78" height="78" fill-opacity=".1" stroke-dasharray="5,3" style="fill:#b4b464;stroke:grey"/><g id="c07" class="GeneProduct " transform="translate(9,9)"  name="VDR" ><rect   width="60" height="20"/><text   transform="translate(30,10)"    >VDR</text></g><g id="ee5" class="GeneProduct " transform="translate(9,29)"  name="NR1I2" ><rect   width="60" height="20"/><text   transform="translate(30,10)"    >NR1I2</text></g><g id="fcc" class="GeneProduct " transform="translate(9,49)"  name="NR1I3" ><rect   width="60" height="20"/><text   transform="translate(30,10)"    >NR1I3</text></g></g></g><g id="b7469" class="GroupNone" transform="translate(347.67 264.33)"  ><g class="GroupNone"><rect   width="78" height="58" fill-opacity=".1" stroke-dasharray="5,3" style="fill:#b4b464;stroke:grey"/><g id="e39" class="GeneProduct " transform="translate(9,9)"  name="NR1H2" ><rect   width="60" height="20"/><text   transform="translate(30,10)"    >NR1H2</text></g><g id="e7c" class="GeneProduct " transform="translate(9,29)"  name="NR1H3" ><rect   width="60" height="20"/><text   transform="translate(30,10)"    >NR1H3</text></g></g></g></g></g></g></svg>