<?xml version="1.0" encoding="UTF-8"?>
<svg xmlns="http://www.w3.org/2000/svg" id="-svg" class="Diagram"  baseProfile="full" prefix="schema:http://schema.org/" preserveAspectRatio="xMidYMid"  version="1.1"><defs><g id="icon-defs"><symbol id="HexagonPathVisio" class=" Icon HexagonPathVisio" x="0" y="8" overflow="visible" preserveAspectRatio="none" viewBox="0 8 100 86"><desc>HexagonPathVisio</desc><g transform="scale(1 0.85)"><path d="m1.42 51.00 21.07-42.14h56.19l21.07 42.14-21.07 42.15h-56.19l-21.07-42.15z" stroke="currentColor" vector-effect="non-scaling-stroke"/></g></symbol><symbol id="Octagon" class=" Icon Octagon" x="0" y="0" overflow="visible" preserveAspectRatio="none" viewBox="0 0 100 100"><desc>Octagon</desc><path d="m0 25 25-25h50l25 25v50l-25 25h-50l-25-25z" vector-effect="non-scaling-stroke"/></symbol></g><g id="marker-defs"><marker id="mea" markerHeight="12" markerWidth="12" orient="auto" preserveAspectRatio="none" refX="12" refY="6" viewBox="0 0 12 12"><g id="g-mea" transform=""><g transform="rotate(180 6 6)"><rect y="5.4" width="2" height="1.2" style="stroke:#fff"/><polygon points="12 11 0 6 12 1" stroke-width="0"/></g></g></marker></g></defs><g id="viewport-20220102135907525" class="svg-pan-zoom_viewport" transform="matrix(0.31 0 0 0.31 431.6 0)" style="transform:matrix(0.31, 0, 0, 0.31, 431.60, 0)"><style>svg.Diagram {font-family: 'Liberation Sans', Arial, sans-serif; }.Diagram path {fill: transparent;stroke: #000;marker-end: url(#mea);}.Diagram symbol path {fill: inherit;stroke: inherit;stroke-width: inherit;marker-end: inherit;}.Diagram rect {fill: #fff;stroke: #000;}.Diagram text {dominant-baseline: central;overflow: hidden;text-anchor: middle;fill: #000;font-size: 10px;}</style><style type="text/css">.Viewport .textContent {
  pointer-events: none;
  stroke-width: 0px;
}

					.Viewport.Icon {
  fill: white;
}

/* Hide the InfoBox */
.Viewport.textContent {
  font-size: 0;
}

.textContent {
  stroke: none;
}

.DataNode {
  stroke-miterlimit: 1;
  pointer-events: auto;
}

.DataNode:hover {
  cursor: pointer;
}

/* TODO should this apply to things other than DataNodes? */
.DataNode.textContent {
  pointer-events: none;
}

.DataNode.Highlighted {
  opacity: 0.6;
  stroke-width: 0px;
}

marker {
  /* this is what should work per the spec
  stroke-dasharray: none; */
  /* but I need to add this to make it work in Safari */
  stroke-dasharray: 9999999999999999999999999;
}

.Citation.Icon {
  fill: none;
  stroke-width: 0px;
}

.Citation.textContent {
  text-align: center;
  vertical-align: top;
  font-size: 7px;
  fill: #999;
  fill-opacity: 1;
  stroke: none;
}</style><g id="WP1842" class="Pathway http___identifiers_org_pw_PW_0000103 Viewport"  name="Name: Kinesins Organism: Homo sapiens" ><g class="Pathway http___identifiers_org_pw_PW_0000103 Viewport"><rect   width="1102" height="2189" style="stroke:none"/><g id="acfc9" class="Reactome_R-HSA-984689"  ><path    d="m614 162 94 1" style="marker-end:none"/><g id="e1846" class="AB" transform="translate(614,162)"  ><g class="AB"/></g><g id="ac6b7" class="AB" transform="translate(707.06,162.99)"  ><g class="AB"/></g></g><g id="b0ebb" class="Reactome_R-HSA-984689"  ><path    d="m610 162h4" style="marker-end:none"/></g><g id="b0f48" class="Reactome_R-HSA-984708"  ><path    d="m365 116h98" style="marker-end:none"/><g id="c0245" class="AB" transform="translate(365,116)"  ><g class="AB"/></g><g id="fb939" class="AB" transform="translate(462.02 116)"  ><g class="AB"/></g></g><g id="a56a1" class="Reactome_R-HSA-984708"  ><path    d="m332 149 33-33" style="marker-end:none"/></g><g id="b32da" class="Reactome_R-HSA-984609"  ><path    d="m877 325h-100" style="marker-end:none"/><g id="e76f8" class="AB" transform="translate(877,325)"  ><g class="AB"/></g><g id="a7c5b" class="AB" transform="translate(778,325)"  ><g class="AB"/></g></g><g id="a5aa8" class="Reactome_R-HSA-984609"  ><path    d="m880 325h-3" style="marker-end:none"/></g><g id="b385f" class="Reactome_R-HSA-990489"  ><path    d="m911 486h-56" style="marker-end:none"/><g id="b1876" class="AB" transform="translate(911,486)"  ><g class="AB"/></g><g id="abcf1" class="AB" transform="translate(855.56 486)"  ><g class="AB"/></g></g><g id="b7f0d" class="Reactome_R-HSA-984671"  ><path    d="m146 269h66" style="marker-end:none"/><g id="c3bde" class="AB" transform="translate(146,269)"  ><g class="AB"/></g><g id="a4ca6" class="AB" transform="translate(211.34,269)"  ><g class="AB"/></g></g><g id="bba8d" class="Reactome_R-HSA-984606"  ><path    d="m118 335h76" style="marker-end:none"/><g id="e08ce" class="AB" transform="translate(118,335)"  ><g class="AB"/></g><g id="f49d7" class="AB" transform="translate(193.24 335)"  ><g class="AB"/></g></g><g id="b3bb4" class="Reactome_R-HSA-984606"  ><path    d="m115 335h3" style="marker-end:none"/></g><g id="beeb2" class="Reactome_R-HSA-990489"  ><path    d="m855 486h-6"/></g><g id="bf923" class="Reactome_R-HSA-984775"  ><path    d="m882 376-86 1" style="marker-end:none"/><g id="bf36f" class="AB" transform="translate(882,376)"  ><g class="AB"/></g><g id="f19f3" class="AB" transform="translate(796.86 376.99)"  ><g class="AB"/></g></g><g id="ba983" class="Reactome_R-HSA-984775"  ><path    d="m796 377-4 1"/></g><g id="c40fa" class="Reactome_R-HSA-984708"  ><path    d="m328 111 37 5" style="marker-end:none"/></g><g id="c42c2" class="Reactome_R-HSA-983194"  ><path    d="m179 564 65-1" style="marker-end:none"/><g id="bb777" class="AB" transform="translate(179,564)"  ><g class="AB"/></g><g id="c58cb" class="AB" transform="translate(243.35,563.01)"  ><g class="AB"/></g></g><g id="afe67" class="Reactome_R-HSA-983194"  ><path    d="m157 610 22-46" style="marker-end:none"/></g><g id="c8234" class="Reactome_R-HSA-983266"  ><path    d="m415 564h118" style="marker-end:none"/><g id="fa75a" class="AB" transform="translate(415,564)"  ><g class="AB"/></g><g id="ffa6a" class="AB" transform="translate(531.82 564)"  ><g class="AB"/></g></g><g id="aa2e2" class="Reactome_R-HSA-983266"  ><path    d="m408 524 7 40" style="marker-end:none"/></g><g id="bff46" class="Reactome_R-HSA-983266"  ><path    d="m533 564 3 1"/></g><g id="c9ff2" class="Reactome_R-HSA-984689"  ><path    d="m708 163 3 1"/></g><g id="cc85a" class="Reactome_R-HSA-984671"  ><path    d="m212 269 6 1"/></g><g id="cde71" class="Reactome_R-HSA-984648"  ><path    d="m136 430 57-1" style="marker-end:none"/><g id="db089" class="AB" transform="translate(136,430)"  ><g class="AB"/></g><g id="c2895" class="AB" transform="translate(192.43,429.01)"  ><g class="AB"/></g></g><g id="cb331" class="Reactome_R-HSA-984648"  ><path    d="m120 466 16-36" style="marker-end:none"/></g><g id="b85e2" class="Reactome_R-HSA-984648"  ><path    d="m193 429 3 2"/></g><g id="cfaec" class="Reactome_R-HSA-984609"  ><path    d="m777 325-4 1"/></g><g id="d1f34" class="Reactome_R-HSA-984606"  ><path    d="m194 335 3 1"/></g><g id="d3d08" class="Reactome_R-HSA-984775"  ><path    d="m885 376h-3" style="marker-end:none"/></g><g id="d3fdd" class="Reactome_R-HSA-983194"  ><path    d="m244 563h3"/></g><g id="de752" class="Reactome_R-HSA-984648"  ><path    d="m113 393 23 37" style="marker-end:none"/></g><g id="e0f04" class="Reactome_R-HSA-984708"  ><path    d="m463 116h3"/></g><g id="e838a" class="Reactome_R-HSA-983266"  ><path    d="m402 621 13-57" style="marker-end:none"/></g><g id="e8955" class="Reactome_R-HSA-984821"  ><path    d="m904 435h-84" style="marker-end:none"/><g id="d5db9" class="AB" transform="translate(904,435)"  ><g class="AB"/></g><g id="d1c7e" class="AB" transform="translate(820.84,435)"  ><g class="AB"/></g></g><g id="ca038" class="Reactome_R-HSA-984821"  ><path    d="m907 435h-3" style="marker-end:none"/></g><g id="da035" class="Reactome_R-HSA-984821"  ><path    d="m820 435-3 1"/></g><g id="e9305" class="Reactome_R-HSA-984733"  ><path    d="m175 206h81" style="marker-end:none"/><g id="fe230" class="AB" transform="translate(175,206)"  ><g class="AB"/></g><g id="fe07a" class="AB" transform="translate(255.19,206)"  ><g class="AB"/></g></g><g id="cd8d5" class="Reactome_R-HSA-984733"  ><path    d="m168 207 7-1" style="marker-end:none"/></g><g id="c7b68" class="Reactome_R-HSA-984733"  ><path    d="m256 206 6 2"/></g><g id="ef6c3" class="Reactome_R-HSA-990489"  ><path    d="m917 487-6-1" style="marker-end:none"/></g><g id="f335e" class="Reactome_R-HSA-983194"  ><path    d="m143 528 36 36" style="marker-end:none"/></g><g id="f553f" class="Reactome_R-HSA-984708"  ><path    d="m351 49 14 67" style="marker-end:none"/></g><g id="f7464" class="Reactome_R-HSA-983259"  ><path    d="m540 611h77" style="marker-end:none"/><g id="c1023" class="AB" transform="translate(540,611)"  ><g class="AB"/></g><g id="a3f6f" class="AB" transform="translate(616.23 611)"  ><g class="AB"/></g></g><g id="e3d93" class="Reactome_R-HSA-983259"  ><path    d="m525 626 15-15" style="marker-end:none"/></g><g id="b0b09" class="Reactome_R-HSA-983259"  ><path    d="m617 611 18 17"/></g><g id="cb7a5" class="Reactome_R-HSA-983259"  ><path    d="m617 611-1-46"/></g><g id="f9da4" class="Reactome_R-HSA-983259"  ><path    d="m536 565 4 46" style="marker-end:none"/></g><g id="fa885" class="Reactome_R-HSA-990478"  ><path    d="m846 270h-78" style="marker-end:none"/><g id="c9d11" class="AB" transform="translate(846,270)"  ><g class="AB"/></g><g id="fd399" class="AB" transform="translate(768.78,270)"  ><g class="AB"/></g></g><g id="f75f9" class="Reactome_R-HSA-990478"  ><path    d="m849 270h-3" style="marker-end:none"/></g><g id="d6492" class="Reactome_R-HSA-990478"  ><path    d="m768 270-4 1"/></g><g id="fe5b7" class="Reactome_R-HSA-984671"  ><path    d="m139 271 7-2" style="marker-end:none"/></g><g id="b42e3" class="GroupGroup" transform="translate(8,1)"  ><g class="GroupGroup"><g id="bd444" class="" transform="translate(8,8)"  ><g class=""><rect   transform="matrix(1.00 0 0 1.00 1.50 1.49)" width="1056" height="712" rx="15" ry="15" stroke-width="3" style="fill:transparent;stroke:#c0c0c0"/></g></g><g id="ca04a" class="Label" transform="translate(41,675)"  name="cytosol" ><g class="Label"/><text   transform="translate(32,16.5)"    >cytosol</text></g></g></g><g id="a0f42" class="Complex Reactome_R-HSA-190599" transform="translate(326,610)"  name="Microtubule" ><g class="Complex Reactome_R-HSA-190599"><use class="Complex Reactome_R-HSA-190599 Node Icon" width="77" height="22" fill="#fff" stroke="#a52a2a" href="#HexagonPathVisio"/></g><g ><defs><clipPath ><rect x="-38.5" y="-11" width="77" height="22" style="stroke:none"/></clipPath></defs><text   transform="translate(38.5,11)"     style="fill:#a52a2a">Microtubule</text></g></g><g id="a5213" class="Protein" transform="translate(47,325)"  name="KIF11" ><rect   width="68" height="21"/><text   transform="translate(34,10.5)"    >KIF11</text></g><g id="a97fb" class="Protein" transform="translate(849,257)"  name="KIFC1" ><rect   width="55" height="26"/><text   transform="translate(27.5,13)"    >KIFC1</text></g><g id="aebc0" class="Protein" transform="translate(56,456)"  name="RACGAP1" ><rect   width="65" height="21"/><text   transform="translate(32.5,10.5)"    >RACGAP1</text></g><g id="af3b4" class="Complex Reactome_R-HSA-984773" transform="translate(711,154)"  name="CENP-E dimer" ><g class="Complex Reactome_R-HSA-984773"><use class="Complex Reactome_R-HSA-984773 Node Icon" width="91" height="21" fill="#fff" stroke="#a52a2a" href="#HexagonPathVisio"/></g><g ><defs><clipPath ><rect x="-45.5" y="-10.5" width="91" height="21" style="stroke:none"/></clipPath></defs><text   transform="translate(45.5,10.5)"     style="fill:#a52a2a">CENP-E dimer</text></g></g><g id="af6c7" class="Complex Reactome_R-HSA-984629" transform="translate(253,39)"  name="KIF3A partners" ><g class="Complex Reactome_R-HSA-984629"><rect   width="98" height="21" rx="15" ry="15" style="stroke:#a52a2a"/></g><g ><defs><clipPath ><rect x="-49" y="-10.5" width="98" height="21" style="stroke:none"/></clipPath></defs><text   transform="translate(49,10.5)"     style="fill:#a52a2a">KIF3A partners</text></g></g><g id="b8202" class="Complex Reactome_R-HSA-983227" transform="translate(247,553)"  name="Kinesin-1" ><g class="Complex Reactome_R-HSA-983227"><use class="Complex Reactome_R-HSA-983227 Node Icon" width="68" height="21" fill="#fff" stroke="#a52a2a" href="#HexagonPathVisio"/></g><g ><defs><clipPath ><rect x="-34" y="-10.5" width="68" height="21" style="stroke:none"/></clipPath></defs><text   transform="translate(34,10.5)"     style="fill:#a52a2a">Kinesin-1</text></g></g><g id="bc01b" class="Protein" transform="translate(880,315)"  name="KIF18A" ><rect   width="50" height="21"/><text   transform="translate(25,10.5)"    >KIF18A</text></g><g id="c0dc2" class="Complex Reactome_R-HSA-984739" transform="translate(98,190)"  name="Kinesin-3 monomers" ><g class="Complex Reactome_R-HSA-984739"><rect   width="71" height="35" rx="15" ry="15" style="stroke:#a52a2a"/></g><g ><defs><clipPath ><rect x="-35.5" y="-17.5" width="71" height="35" style="stroke:none"/></clipPath></defs><text   transform="translate(35.5,17.5)"     style="fill:#a52a2a">Kinesin-3 monomers</text></g></g><g id="c2723" class="Complex Reactome_R-HSA-984691" transform="translate(197,319)"  name="Kinesin-5 homotetramer" ><g class="Complex Reactome_R-HSA-984691"><use class="Complex Reactome_R-HSA-984691 Node Icon" width="95" height="35" fill="#fff" stroke="#a52a2a" href="#HexagonPathVisio"/></g><g ><defs><clipPath ><rect x="-47.5" y="-17.5" width="95" height="35" style="stroke:none"/></clipPath></defs><text   transform="translate(47.5,17.5)"     style="fill:#a52a2a"><tspan   x="0" y="-5.5">Kinesin-5</tspan><tspan   x="0" y="5.5">homotetramer</tspan></text></g></g><g id="c2b30" class="Complex Reactome_R-HSA-990510" transform="translate(917,470)"  name="Kinesin-13 monomers" ><g class="Complex Reactome_R-HSA-990510"><rect   width="79" height="35" rx="15" ry="15" style="stroke:#a52a2a"/></g><g ><defs><clipPath ><rect x="-39.5" y="-17.5" width="79" height="35" style="stroke:none"/></clipPath></defs><text   transform="translate(39.5,17.5)"     style="fill:#a52a2a">Kinesin-13 monomers</text></g></g><g id="cbf70" class="Complex Reactome_R-HSA-983211" transform="translate(47,593)"  name="Kinesin-1 heavy chain" ><g class="Complex Reactome_R-HSA-983211"><rect   width="110" height="35" rx="15" ry="15" style="stroke:#a52a2a"/></g><g ><defs><clipPath ><rect x="-55" y="-17.5" width="110" height="35" style="stroke:none"/></clipPath></defs><text   transform="translate(55,17.5)"     style="fill:#a52a2a"><tspan   x="0" y="-5.5">Kinesin-1 heavy</tspan><tspan   x="0" y="5.5">chain</tspan></text></g></g><g id="ccaf9" class="Protein" transform="translate(558,152)"  name="CENPE" ><rect   width="53" height="21"/><text   transform="translate(26.5,10.5)"    >CENPE</text></g><g id="cce96" class="Complex Reactome_R-HSA-984628" transform="translate(45,383)"  name="Kinesin-6" ><g class="Complex Reactome_R-HSA-984628"><rect   width="68" height="21" rx="15" ry="15" style="stroke:#a52a2a"/></g><g ><defs><clipPath ><rect x="-34" y="-10.5" width="68" height="21" style="stroke:none"/></clipPath></defs><text   transform="translate(34,10.5)"     style="fill:#a52a2a">Kinesin-6</text></g></g><g id="ce7e7" class="Complex Reactome_R-HSA-984619" transform="translate(466,106)"  name="Kinesin-2" ><g class="Complex Reactome_R-HSA-984619"><use class="Complex Reactome_R-HSA-984619 Node Icon" width="68" height="21" fill="#fff" stroke="#a52a2a" href="#HexagonPathVisio"/></g><g ><defs><clipPath ><rect x="-34" y="-10.5" width="68" height="21" style="stroke:none"/></clipPath></defs><text   transform="translate(34,10.5)"     style="fill:#a52a2a">Kinesin-2</text></g></g><g id="d0f7c" class="Complex Reactome_R-HSA-984725" transform="translate(37,254)"  name="Chromokinesin monomers" ><g class="Complex Reactome_R-HSA-984725"><rect   width="103" height="35" rx="15" ry="15" style="stroke:#a52a2a"/></g><g ><defs><clipPath ><rect x="-51.5" y="-17.5" width="103" height="35" style="stroke:none"/></clipPath></defs><text   transform="translate(51.5,17.5)"     style="fill:#a52a2a"><tspan   x="0" y="-5.5">Chromokinesin</tspan><tspan   x="0" y="5.5">monomers</tspan></text></g></g><g id="d1eea" class="Complex Reactome_R-HSA-984631" transform="translate(685,316)"  name="KIF18A dimer" ><g class="Complex Reactome_R-HSA-984631"><use class="Complex Reactome_R-HSA-984631 Node Icon" width="89" height="21" fill="#fff" stroke="#a52a2a" href="#HexagonPathVisio"/></g><g ><defs><clipPath ><rect x="-44.5" y="-10.5" width="89" height="21" style="stroke:none"/></clipPath></defs><text   transform="translate(44.5,10.5)"     style="fill:#a52a2a">KIF18A dimer</text></g></g><g id="d6178" class="Complex Reactome_R-HSA-984722" transform="translate(218,253)"  name="Chromokinesin dimers" ><g class="Complex Reactome_R-HSA-984722"><rect   width="103" height="35" rx="15" ry="15" style="stroke:#a52a2a"/></g><g ><defs><clipPath ><rect x="-51.5" y="-17.5" width="103" height="35" style="stroke:none"/></clipPath></defs><text   transform="translate(51.5,17.5)"     style="fill:#a52a2a">Chromokinesin dimers</text></g></g><g id="d932b" class="Complex Reactome_R-HSA-984608" transform="translate(262,198)"  name="Kinesin-3 dimers" ><g class="Complex Reactome_R-HSA-984608"><rect   width="113" height="21" rx="15" ry="15" style="stroke:#a52a2a"/></g><g ><defs><clipPath ><rect x="-56.5" y="-10.5" width="113" height="21" style="stroke:none"/></clipPath></defs><text   transform="translate(56.5,10.5)"     style="fill:#a52a2a">Kinesin-3 dimers</text></g></g><g id="dd7c7" class="Complex Reactome_R-HSA-984587" transform="translate(196,421)"  name="Centralspindlin" ><g class="Complex Reactome_R-HSA-984587"><use class="Complex Reactome_R-HSA-984587 Node Icon" width="100" height="21" fill="#fff" stroke="#a52a2a" href="#HexagonPathVisio"/></g><g ><defs><clipPath ><rect x="-50" y="-10.5" width="100" height="21" style="stroke:none"/></clipPath></defs><text   transform="translate(50,10.5)"     style="fill:#a52a2a">Centralspindlin</text></g></g><g id="e07cd" class="Complex Reactome_R-HSA-984823" transform="translate(737,426)"  name="KIF15 dimer" ><g class="Complex Reactome_R-HSA-984823"><use class="Complex Reactome_R-HSA-984823 Node Icon" width="80" height="21" fill="#fff" stroke="#a52a2a" href="#HexagonPathVisio"/></g><g ><defs><clipPath ><rect x="-40" y="-10.5" width="80" height="21" style="stroke:none"/></clipPath></defs><text   transform="translate(40,10.5)"     style="fill:#a52a2a">KIF15 dimer</text></g></g><g id="e0cc8" class="Complex Reactome_R-HSA-983226" transform="translate(41,511)"  name="KLC1,KLC2,KLC3,KLC4" ><g class="Complex Reactome_R-HSA-983226"><rect   width="103" height="35" rx="15" ry="15" style="stroke:#a52a2a"/></g><g ><defs><clipPath ><rect x="-51.5" y="-17.5" width="103" height="35" style="stroke:none"/></clipPath></defs><text   transform="translate(51.5,17.5)"     style="fill:#a52a2a">KLC1,KLC2,KLC3,KLC4</text></g></g><g id="e1ac8" class="Complex Reactome_R-HSA-1015869" transform="translate(690,261)"  name="Kinesin-14" ><g class="Complex Reactome_R-HSA-1015869"><use class="Complex Reactome_R-HSA-1015869 Node Icon" width="75" height="21" fill="#fff" stroke="#a52a2a" href="#HexagonPathVisio"/></g><g ><defs><clipPath ><rect x="-37.5" y="-10.5" width="75" height="21" style="stroke:none"/></clipPath></defs><text   transform="translate(37.5,10.5)"     style="fill:#a52a2a">Kinesin-14</text></g></g><g id="e20ad" class="Protein" transform="translate(885,364)"  name="KIF9" ><rect   width="46" height="24"/><text   transform="translate(23,12)"    >KIF9</text></g><g id="e3690" class="Protein" transform="translate(282,136)"  name="KIF3A" ><rect   width="51" height="27"/><text   transform="translate(25.5,13.5)"    >KIF3A</text></g><g id="e4460" class="Complex Reactome_R-HSA-8849364" transform="translate(379,502)"  name="Kinesins" ><g class="Complex Reactome_R-HSA-8849364"><rect   width="59" height="22" rx="15" ry="15" style="stroke:#a52a2a"/></g><g ><defs><clipPath ><rect x="-29.5" y="-11" width="59" height="22" style="stroke:none"/></clipPath></defs><text   transform="translate(29.5,11)"     style="fill:#a52a2a">Kinesins</text></g></g><g id="e8990" class="Complex Reactome_R-HSA-984777" transform="translate(720,368)"  name="KIF9 dimer" ><g class="Complex Reactome_R-HSA-984777"><use class="Complex Reactome_R-HSA-984777 Node Icon" width="73" height="21" fill="#fff" stroke="#a52a2a" href="#HexagonPathVisio"/></g><g ><defs><clipPath ><rect x="-36.5" y="-10.5" width="73" height="21" style="stroke:none"/></clipPath></defs><text   transform="translate(36.5,10.5)"     style="fill:#a52a2a">KIF9 dimer</text></g></g><g id="e8be2" class="Metabolite " transform="translate(615,628)"  name="ADP" ><rect   width="41" height="29" style="stroke:#00f"/><text   transform="translate(20.5,14.5)"     style="fill:#00f">ADP</text></g><g id="e9d2b" class="Protein" transform="translate(907,423)"  name="KIF15" ><rect   width="48" height="25"/><text   transform="translate(24,12.5)"    >KIF15</text></g><g id="f125e" class="Protein" transform="translate(274,98)"  name="KIFAP3" ><rect   width="54" height="26"/><text   transform="translate(27,13)"    >KIFAP3</text></g><g id="f7324" class="Complex Reactome_R-HSA-983245" transform="translate(536,548)"  name="Kinesins:microtubule" ><g class="Complex Reactome_R-HSA-983245"><use class="Complex Reactome_R-HSA-983245 Node Icon" width="80" height="35" fill="#fff" stroke="#a52a2a" href="#HexagonPathVisio"/></g><g ><defs><clipPath ><rect x="-40" y="-17.5" width="80" height="35" style="stroke:none"/></clipPath></defs><text   transform="translate(40,17.5)"     style="fill:#a52a2a">Kinesins:microtubule</text></g></g><g id="ffbbf" class="Complex Reactome_R-HSA-990485" transform="translate(729,476)"  name="Kinesin-13 dimers" ><g class="Complex Reactome_R-HSA-990485"><rect   width="120" height="21" rx="15" ry="15" style="stroke:#a52a2a"/></g><g ><defs><clipPath ><rect x="-60" y="-10.5" width="120" height="21" style="stroke:none"/></clipPath></defs><text   transform="translate(60,10.5)"     style="fill:#a52a2a">Kinesin-13 dimers</text></g></g><g id="ffe0f" class="Metabolite " transform="translate(506,626)"  name="ATP" ><rect   width="39" height="29" style="stroke:#00f"/><text   transform="translate(19.5,14.5)"     style="fill:#00f">ATP</text></g><g id="a1582" class="GroupNone" transform="translate(321,890)"  ><g class="GroupNone"><rect   width="118" height="78" fill-opacity=".1" stroke-dasharray="5,3" style="fill:#b4b464;stroke:grey"/><g id="a01d2" class="Protein" transform="translate(9,9)"  name="KIF2B" ><rect   width="100" height="20"/><text   transform="translate(50,10)"    >KIF2B</text></g><g id="dd93e" class="Protein" transform="translate(9,49)"  name="KIF2C" ><rect   width="100" height="20"/><text   transform="translate(50,10)"    >KIF2C</text></g><g id="ea412" class="Protein" transform="translate(9,29)"  name="KIF2A" ><rect   width="100" height="20"/><text   transform="translate(50,10)"    >KIF2A</text></g></g></g><g id="ae5a1" class="GroupComplex" transform="translate(38,927)"  ><g class="GroupComplex"><use class="Icon" width="124" height="144" fill="#b4b464" fill-opacity=".1" stroke="grey" href="#Octagon"/><g id="b7bc7" class="Protein" transform="translate(12,92)"  name="KLC3" ><rect   width="100" height="20"/><text   transform="translate(50,10)"    >KLC3</text></g><g id="c63d3" class="Protein" transform="translate(12,112)"  name="KLC4" ><rect   width="100" height="20"/><text   transform="translate(50,10)"    >KLC4</text></g><g id="d06a6" class="Protein" transform="translate(12,72)"  name="KLC2" ><rect   width="100" height="20"/><text   transform="translate(50,10)"    >KLC2</text></g><g id="d77d6" class="Protein" transform="translate(12,12)"  name="KIF5A" ><rect   width="100" height="20"/><text   transform="translate(50,10)"    >KIF5A</text></g><g id="de58d" class="Protein" transform="translate(12,32)"  name="KIF5B" ><rect   width="100" height="20"/><text   transform="translate(50,10)"    >KIF5B</text></g><g id="ebff1" class="Protein" transform="translate(12,52)"  name="KLC1" ><rect   width="100" height="20"/><text   transform="translate(50,10)"    >KLC1</text></g></g></g><g id="af420" class="GroupComplex" transform="translate(318,827)"  ><g class="GroupComplex"><use class="Icon" width="124" height="44" fill="#b4b464" fill-opacity=".1" stroke="grey" href="#Octagon"/><g id="fd973" class="Protein" transform="translate(12,12)"  name="KIF15" ><rect   width="100" height="20"/><text   transform="translate(50,10)"    >KIF15</text></g></g></g><g id="b0b9d" class="GroupComplex" transform="translate(178,1327)"  ><g class="GroupComplex"><use class="Icon" width="124" height="84" fill="#b4b464" fill-opacity=".1" stroke="grey" href="#Octagon"/><g id="a6137" class="Protein" transform="translate(12,52)"  name="RACGAP1" ><rect   width="100" height="20"/><text   transform="translate(50,10)"    >RACGAP1</text></g><g id="de38a" class="Protein" transform="translate(12,12)"  name="KIF23" ><rect   width="100" height="20"/><text   transform="translate(50,10)"    >KIF23</text></g><g id="e2a7d" class="Protein" transform="translate(12,32)"  name="KIF20A" ><rect   width="100" height="20"/><text   transform="translate(50,10)"    >KIF20A</text></g></g></g><g id="bb6bf" class="GroupComplex" transform="translate(318,767)"  ><g class="GroupComplex"><use class="Icon" width="124" height="44" fill="#b4b464" fill-opacity=".1" stroke="grey" href="#Octagon"/><g id="ab124" class="Protein" transform="translate(12,12)"  name="KIF9" ><rect   width="100" height="20"/><text   transform="translate(50,10)"    >KIF9</text></g></g></g><g id="bb95e" class="GroupNone" transform="translate(181,1010)"  ><g class="GroupNone"><rect   width="118" height="58" fill-opacity=".1" stroke-dasharray="5,3" style="fill:#b4b464;stroke:grey"/><g id="a8537" class="Protein" transform="translate(9,29)"  name="KIF22" ><rect   width="100" height="20"/><text   transform="translate(50,10)"    >KIF22</text></g><g id="eaa0f" class="Unknown Reactome_R-HSA-445000" transform="translate(9,9)"  name="KIF4" ><rect   width="100" height="20"/><text   transform="translate(50,10)"    >KIF4</text></g></g></g><g id="bbc56" class="GroupComplex" transform="translate(178,1187)"  ><g class="GroupComplex"><use class="Icon" width="124" height="44" fill="#b4b464" fill-opacity=".1" stroke="grey" href="#Octagon"/><g id="d784f" class="Protein" transform="translate(12,12)"  name="KIF11" ><rect   width="100" height="20"/><text   transform="translate(50,10)"    >KIF11</text></g></g></g><g id="cab60" class="GroupNone" transform="translate(321,1150)"  ><g class="GroupNone"><rect   width="118" height="838" fill-opacity=".1" stroke-dasharray="5,3" style="fill:#b4b464;stroke:grey"/><g id="a2019" class="Protein" transform="translate(9,609)"  name="KIF1B" ><rect   width="100" height="20"/><text   transform="translate(50,10)"    >KIF1B</text></g><g id="a2b4f" class="Protein" transform="translate(9,589)"  name="KIF19" ><rect   width="100" height="20"/><text   transform="translate(50,10)"    >KIF19</text></g><g id="a5b79" class="Protein" transform="translate(9,629)"  name="KIF20B" ><rect   width="100" height="20"/><text   transform="translate(50,10)"    >KIF20B</text></g><g id="b05be" class="Protein" transform="translate(9,409)"  name="KIF15" ><rect   width="100" height="20"/><text   transform="translate(50,10)"    >KIF15</text></g><g id="b08a0" class="Protein" transform="translate(9,449)"  name="KIF1C" ><rect   width="100" height="20"/><text   transform="translate(50,10)"    >KIF1C</text></g><g id="b0d36" class="Protein" transform="translate(9,769)"  name="KIFC2" ><rect   width="100" height="20"/><text   transform="translate(50,10)"    >KIFC2</text></g><g id="b34a5" class="Protein" transform="translate(9,29)"  name="KIF5B" ><rect   width="100" height="20"/><text   transform="translate(50,10)"    >KIF5B</text></g><g id="b5bf5" class="Protein" transform="translate(9,709)"  name="KIF27" ><rect   width="100" height="20"/><text   transform="translate(50,10)"    >KIF27</text></g><g id="b6246" class="Protein" transform="translate(9,289)"  name="KIF23" ><rect   width="100" height="20"/><text   transform="translate(50,10)"    >KIF23</text></g><g id="b9186" class="Protein" transform="translate(9,329)"  name="RACGAP1" ><rect   width="100" height="20"/><text   transform="translate(50,10)"    >RACGAP1</text></g><g id="bcbd8" class="Protein" transform="translate(9,69)"  name="KLC2" ><rect   width="100" height="20"/><text   transform="translate(50,10)"    >KLC2</text></g><g id="bf473" class="Protein" transform="translate(9,689)"  name="KIF25" ><rect   width="100" height="20"/><text   transform="translate(50,10)"    >KIF25</text></g><g id="c1ba9" class="Protein" transform="translate(9,369)"  name="CENPE" ><rect   width="100" height="20"/><text   transform="translate(50,10)"    >CENPE</text></g><g id="c83e4" class="Protein" transform="translate(9,789)"  name="KIF9" ><rect   width="100" height="20"/><text   transform="translate(50,10)"    >KIF9</text></g><g id="d0390" class="Protein" transform="translate(9,549)"  name="KIF16B" ><rect   width="100" height="20"/><text   transform="translate(50,10)"    >KIF16B</text></g><g id="d0ab8" class="Protein" transform="translate(9,189)"  name="KIFAP3" ><rect   width="100" height="20"/><text   transform="translate(50,10)"    >KIFAP3</text></g><g id="d2206" class="Protein" transform="translate(9,109)"  name="KLC4" ><rect   width="100" height="20"/><text   transform="translate(50,10)"    >KLC4</text></g><g id="d65ce" class="Protein" transform="translate(9,669)"  name="KIF21B" ><rect   width="100" height="20"/><text   transform="translate(50,10)"    >KIF21B</text></g><g id="d68ca" class="Protein" transform="translate(9,309)"  name="KIF20A" ><rect   width="100" height="20"/><text   transform="translate(50,10)"    >KIF20A</text></g><g id="d9501" class="Protein" transform="translate(9,569)"  name="KIF18B" ><rect   width="100" height="20"/><text   transform="translate(50,10)"    >KIF18B</text></g><g id="dc013" class="Protein" transform="translate(9,349)"  name="KIF18A" ><rect   width="100" height="20"/><text   transform="translate(50,10)"    >KIF18A</text></g><g id="dc9e0" class="Protein" transform="translate(9,129)"  name="KIF3A" ><rect   width="100" height="20"/><text   transform="translate(50,10)"    >KIF3A</text></g><g id="ddc64" class="Protein" transform="translate(9,49)"  name="KLC1" ><rect   width="100" height="20"/><text   transform="translate(50,10)"    >KLC1</text></g><g id="e05ce" class="Protein" transform="translate(9,169)"  name="KIF3C" ><rect   width="100" height="20"/><text   transform="translate(50,10)"    >KIF3C</text></g><g id="e14d2" class="Protein" transform="translate(9,509)"  name="KIF12" ><rect   width="100" height="20"/><text   transform="translate(50,10)"    >KIF12</text></g><g id="e68e3" class="Unknown Reactome_R-HSA-984608" transform="translate(9,209)"  name="Kinesin-3 dimers" ><rect   width="100" height="20"/><text   transform="translate(50,10)"    >Kinesin-3 dimers</text></g><g id="e6d0a" class="Unknown Reactome_R-HSA-984722" transform="translate(9,239)"  name="Chromokinesin dimers" ><rect   width="100" height="40"/><text   transform="translate(50,20)"    >Chromokinesin dimers</text></g><g id="e769c" class="Protein" transform="translate(9,149)"  name="KIF3B" ><rect   width="100" height="20"/><text   transform="translate(50,10)"    >KIF3B</text></g><g id="e8193" class="Protein" transform="translate(9,749)"  name="KIF6" ><rect   width="100" height="20"/><text   transform="translate(50,10)"    >KIF6</text></g><g id="e8a52" class="Protein" transform="translate(9,729)"  name="KIF28P" ><rect   width="100" height="20"/><text   transform="translate(50,10)"    >KIF28P</text></g><g id="ed70e" class="Protein" transform="translate(9,809)"  name="KIFC1" ><rect   width="100" height="20"/><text   transform="translate(50,10)"    >KIFC1</text></g><g id="edd71" class="Protein" transform="translate(9,469)"  name="KIF1A" ><rect   width="100" height="20"/><text   transform="translate(50,10)"    >KIF1A</text></g><g id="f1e18" class="Protein" transform="translate(9,489)"  name="KIF26B" ><rect   width="100" height="20"/><text   transform="translate(50,10)"    >KIF26B</text></g><g id="f690b" class="Protein" transform="translate(9,529)"  name="KIF13B" ><rect   width="100" height="20"/><text   transform="translate(50,10)"    >KIF13B</text></g><g id="f6a46" class="Protein" transform="translate(9,389)"  name="KIF26A" ><rect   width="100" height="20"/><text   transform="translate(50,10)"    >KIF26A</text></g><g id="f768d" class="Protein" transform="translate(9,269)"  name="KIF11" ><rect   width="100" height="20"/><text   transform="translate(50,10)"    >KIF11</text></g><g id="f8716" class="Protein" transform="translate(9,649)"  name="KIF21A" ><rect   width="100" height="20"/><text   transform="translate(50,10)"    >KIF21A</text></g><g id="fdbcb" class="Unknown Reactome_R-HSA-990485" transform="translate(9,429)"  name="Kinesin-13 dimers" ><rect   width="100" height="20"/><text   transform="translate(50,10)"    >Kinesin-13 dimers</text></g><g id="fe493" class="Protein" transform="translate(9,9)"  name="KIF5A" ><rect   width="100" height="20"/><text   transform="translate(50,10)"    >KIF5A</text></g><g id="fefeb" class="Protein" transform="translate(9,89)"  name="KLC3" ><rect   width="100" height="20"/><text   transform="translate(50,10)"    >KLC3</text></g></g></g><g id="ccd98" class="GroupComplex" transform="translate(178,1487)"  ><g class="GroupComplex"><use class="Icon" width="124" height="44" fill="#b4b464" fill-opacity=".1" stroke="grey" href="#Octagon"/><g id="d6956" class="Protein" transform="translate(12,12)"  name="KIF18A" ><rect   width="100" height="20"/><text   transform="translate(50,10)"    >KIF18A</text></g></g></g><g id="d0eb3" class="GroupNone" transform="translate(181,1090)"  ><g class="GroupNone"><rect   width="118" height="88" fill-opacity=".1" stroke-dasharray="5,3" style="fill:#b4b464;stroke:grey"/><g id="a5a25" class="Protein" transform="translate(9,9)"  name="KIF22" ><rect   width="100" height="20"/><text   transform="translate(50,10)"    >KIF22</text></g><g id="f14ee" class="Unknown Reactome_R-HSA-984704" transform="translate(9,39)"  name="Kinesin-4 homodimers" ><rect   width="100" height="40"/><text   transform="translate(50,20)"    >Kinesin-4 homodimers</text></g></g></g><g id="d3bcb" class="GroupNone" transform="translate(181,1250)"  ><g class="GroupNone"><rect   width="118" height="58" fill-opacity=".1" stroke-dasharray="5,3" style="fill:#b4b464;stroke:grey"/><g id="e5f1a" class="Protein" transform="translate(9,9)"  name="KIF23" ><rect   width="100" height="20"/><text   transform="translate(50,10)"    >KIF23</text></g><g id="eb1cc" class="Protein" transform="translate(9,29)"  name="KIF20A" ><rect   width="100" height="20"/><text   transform="translate(50,10)"    >KIF20A</text></g></g></g><g id="d59ed" class="GroupNone" transform="translate(41,810)"  ><g class="GroupNone"><rect   width="118" height="98" fill-opacity=".1" stroke-dasharray="5,3" style="fill:#b4b464;stroke:grey"/><g id="a136b" class="Protein" transform="translate(9,49)"  name="KLC3" ><rect   width="100" height="20"/><text   transform="translate(50,10)"    >KLC3</text></g><g id="a464f" class="Protein" transform="translate(9,9)"  name="KLC1" ><rect   width="100" height="20"/><text   transform="translate(50,10)"    >KLC1</text></g><g id="bed04" class="Protein" transform="translate(9,69)"  name="KLC4" ><rect   width="100" height="20"/><text   transform="translate(50,10)"    >KLC4</text></g><g id="c11fa" class="Protein" transform="translate(9,29)"  name="KLC2" ><rect   width="100" height="20"/><text   transform="translate(50,10)"    >KLC2</text></g></g></g><g id="d75ef" class="GroupComplex" transform="translate(38,1167)"  ><g class="GroupComplex"><use class="Icon" width="124" height="104" fill="#b4b464" fill-opacity=".1" stroke="grey" href="#Octagon"/><g id="df23d" class="Protein" transform="translate(12,52)"  name="KIF3C" ><rect   width="100" height="20"/><text   transform="translate(50,10)"    >KIF3C</text></g><g id="e47a5" class="Protein" transform="translate(12,32)"  name="KIF3B" ><rect   width="100" height="20"/><text   transform="translate(50,10)"    >KIF3B</text></g><g id="e6634" class="Protein" transform="translate(12,72)"  name="KIFAP3" ><rect   width="100" height="20"/><text   transform="translate(50,10)"    >KIFAP3</text></g><g id="f866a" class="Protein" transform="translate(12,12)"  name="KIF3A" ><rect   width="100" height="20"/><text   transform="translate(50,10)"    >KIF3A</text></g></g></g><g id="de797" class="GroupComplex" transform="translate(38,1297)"  ><g class="GroupComplex"><use class="Icon" width="124" height="874" fill="#b4b464" fill-opacity=".1" stroke="grey" href="#Octagon"/><g id="a0b24" class="Protein" transform="translate(12,562)"  name="KIF13B" ><rect   width="100" height="20"/><text   transform="translate(50,10)"    >KIF13B</text></g><g id="a1d11" class="Protein" transform="translate(12,482)"  name="KIF1C" ><rect   width="100" height="20"/><text   transform="translate(50,10)"    >KIF1C</text></g><g id="a38f9" class="Protein" transform="translate(12,622)"  name="KIF19" ><rect   width="100" height="20"/><text   transform="translate(50,10)"    >KIF19</text></g><g id="a7178" class="Protein" transform="translate(12,722)"  name="KIF25" ><rect   width="100" height="20"/><text   transform="translate(50,10)"    >KIF25</text></g><g id="a8314" class="Protein" transform="translate(12,662)"  name="KIF20B" ><rect   width="100" height="20"/><text   transform="translate(50,10)"    >KIF20B</text></g><g id="a9c13" class="Protein" transform="translate(12,762)"  name="KIF28P" ><rect   width="100" height="20"/><text   transform="translate(50,10)"    >KIF28P</text></g><g id="ac2e4" class="Unknown Reactome_R-HSA-990485" transform="translate(12,462)"  name="Kinesin-13 dimers" ><rect   width="100" height="20"/><text   transform="translate(50,10)"    >Kinesin-13 dimers</text></g><g id="ad999" class="Protein" transform="translate(12,822)"  name="KIF9" ><rect   width="100" height="20"/><text   transform="translate(50,10)"    >KIF9</text></g><g id="bc30a" class="Protein" transform="translate(12,742)"  name="KIF27" ><rect   width="100" height="20"/><text   transform="translate(50,10)"    >KIF27</text></g><g id="bc8f4" class="Protein" transform="translate(12,142)"  name="KLC4" ><rect   width="100" height="20"/><text   transform="translate(50,10)"    >KLC4</text></g><g id="bffa8" class="Protein" transform="translate(12,362)"  name="RACGAP1" ><rect   width="100" height="20"/><text   transform="translate(50,10)"    >RACGAP1</text></g><g id="c2e47" class="Protein" transform="translate(12,342)"  name="KIF20A" ><rect   width="100" height="20"/><text   transform="translate(50,10)"    >KIF20A</text></g><g id="c377c" class="Protein" transform="translate(12,442)"  name="KIF15" ><rect   width="100" height="20"/><text   transform="translate(50,10)"    >KIF15</text></g><g id="c60da" class="Protein" transform="translate(12,422)"  name="KIF26A" ><rect   width="100" height="20"/><text   transform="translate(50,10)"    >KIF26A</text></g><g id="cfd7b" class="Protein" transform="translate(12,642)"  name="KIF1B" ><rect   width="100" height="20"/><text   transform="translate(50,10)"    >KIF1B</text></g><g id="d12ee" class="Protein" transform="translate(12,522)"  name="KIF26B" ><rect   width="100" height="20"/><text   transform="translate(50,10)"    >KIF26B</text></g><g id="d15df" class="Protein" transform="translate(12,202)"  name="KIF3C" ><rect   width="100" height="20"/><text   transform="translate(50,10)"    >KIF3C</text></g><g id="d1e5e" class="Protein" transform="translate(12,802)"  name="KIFC2" ><rect   width="100" height="20"/><text   transform="translate(50,10)"    >KIFC2</text></g><g id="d204a" class="Unknown Reactome_R-HSA-8982424" transform="translate(12,12)"  name="Microtubule protofilament" ><rect   width="100" height="40"/><text   transform="translate(50,20)"    >Microtubule protofilament</text></g><g id="d52c0" class="Protein" transform="translate(12,62)"  name="KIF5B" ><rect   width="100" height="20"/><text   transform="translate(50,10)"    >KIF5B</text></g><g id="d5da9" class="Protein" transform="translate(12,402)"  name="CENPE" ><rect   width="100" height="20"/><text   transform="translate(50,10)"    >CENPE</text></g><g id="d854c" class="Unknown Reactome_R-HSA-984608" transform="translate(12,242)"  name="Kinesin-3 dimers" ><rect   width="100" height="20"/><text   transform="translate(50,10)"    >Kinesin-3 dimers</text></g><g id="da61f" class="Protein" transform="translate(12,162)"  name="KIF3A" ><rect   width="100" height="20"/><text   transform="translate(50,10)"    >KIF3A</text></g><g id="dbb6a" class="Protein" transform="translate(12,602)"  name="KIF18B" ><rect   width="100" height="20"/><text   transform="translate(50,10)"    >KIF18B</text></g><g id="dc0ba" class="Protein" transform="translate(12,42)"  name="KIF5A" ><rect   width="100" height="20"/><text   transform="translate(50,10)"    >KIF5A</text></g><g id="ddffe" class="Protein" transform="translate(12,82)"  name="KLC1" ><rect   width="100" height="20"/><text   transform="translate(50,10)"    >KLC1</text></g><g id="e0768" class="Protein" transform="translate(12,122)"  name="KLC3" ><rect   width="100" height="20"/><text   transform="translate(50,10)"    >KLC3</text></g><g id="e1954" class="Protein" transform="translate(12,682)"  name="KIF21A" ><rect   width="100" height="20"/><text   transform="translate(50,10)"    >KIF21A</text></g><g id="e1f04" class="Protein" transform="translate(12,842)"  name="KIFC1" ><rect   width="100" height="20"/><text   transform="translate(50,10)"    >KIFC1</text></g><g id="e43bf" class="Protein" transform="translate(12,302)"  name="KIF11" ><rect   width="100" height="20"/><text   transform="translate(50,10)"    >KIF11</text></g><g id="e45a3" class="Protein" transform="translate(12,382)"  name="KIF18A" ><rect   width="100" height="20"/><text   transform="translate(50,10)"    >KIF18A</text></g><g id="e5b8f" class="Protein" transform="translate(12,322)"  name="KIF23" ><rect   width="100" height="20"/><text   transform="translate(50,10)"    >KIF23</text></g><g id="e971d" class="Protein" transform="translate(12,542)"  name="KIF12" ><rect   width="100" height="20"/><text   transform="translate(50,10)"    >KIF12</text></g><g id="e9b0b" class="Protein" transform="translate(12,702)"  name="KIF21B" ><rect   width="100" height="20"/><text   transform="translate(50,10)"    >KIF21B</text></g><g id="ea56d" class="Protein" transform="translate(12,102)"  name="KLC2" ><rect   width="100" height="20"/><text   transform="translate(50,10)"    >KLC2</text></g><g id="f2d9d" class="Protein" transform="translate(12,782)"  name="KIF6" ><rect   width="100" height="20"/><text   transform="translate(50,10)"    >KIF6</text></g><g id="f76bd" class="Protein" transform="translate(12,582)"  name="KIF16B" ><rect   width="100" height="20"/><text   transform="translate(50,10)"    >KIF16B</text></g><g id="f8946" class="Unknown Reactome_R-HSA-984722" transform="translate(12,272)"  name="Chromokinesin dimers" ><rect   width="100" height="40"/><text   transform="translate(50,20)"    >Chromokinesin dimers</text></g><g id="f973a" class="Protein" transform="translate(12,222)"  name="KIFAP3" ><rect   width="100" height="20"/><text   transform="translate(50,10)"    >KIFAP3</text></g><g id="fe820" class="Protein" transform="translate(12,502)"  name="KIF1A" ><rect   width="100" height="20"/><text   transform="translate(50,10)"    >KIF1A</text></g><g id="ff194" class="Protein" transform="translate(12,182)"  name="KIF3B" ><rect   width="100" height="20"/><text   transform="translate(50,10)"    >KIF3B</text></g></g></g><g id="e127c" class="GroupNone" transform="translate(181,770)"  ><g class="GroupNone"><rect   width="118" height="98" fill-opacity=".1" stroke-dasharray="5,3" style="fill:#b4b464;stroke:grey"/><g id="c7601" class="Protein" transform="translate(9,29)"  name="KIF3B" ><rect   width="100" height="20"/><text   transform="translate(50,10)"    >KIF3B</text></g><g id="f1d19" class="Protein" transform="translate(9,49)"  name="KIF5B(1-?)" ><rect   width="100" height="20"/><text   transform="translate(50,10)"    >KIF5B(1-?)</text></g><g id="fc876" class="Protein" transform="translate(9,9)"  name="KIF3A" ><rect   width="100" height="20"/><text   transform="translate(50,10)"    >KIF3A</text></g><g id="fd072" class="Protein" transform="translate(9,69)"  name="KIF5C(?-?)" ><rect   width="100" height="20"/><text   transform="translate(50,10)"    >KIF5C(?-?)</text></g></g></g><g id="e2221" class="GroupNone" transform="translate(181,890)"  ><g class="GroupNone"><rect   width="118" height="98" fill-opacity=".1" stroke-dasharray="5,3" style="fill:#b4b464;stroke:grey"/><g id="a4278" class="Protein" transform="translate(9,69)"  name="KIF5C(?-?)" ><rect   width="100" height="20"/><text   transform="translate(50,10)"    >KIF5C(?-?)</text></g><g id="bffa2" class="Protein" transform="translate(9,49)"  name="KIF5B(1-?)" ><rect   width="100" height="20"/><text   transform="translate(50,10)"    >KIF5B(1-?)</text></g><g id="d36a1" class="Protein" transform="translate(9,9)"  name="KIF3A" ><rect   width="100" height="20"/><text   transform="translate(50,10)"    >KIF3A</text></g><g id="e42b9" class="Protein" transform="translate(9,29)"  name="KIF3B" ><rect   width="100" height="20"/><text   transform="translate(50,10)"    >KIF3B</text></g></g></g><g id="e5f0d" class="GroupNone" transform="translate(41,1090)"  ><g class="GroupNone"><rect   width="118" height="58" fill-opacity=".1" stroke-dasharray="5,3" style="fill:#b4b464;stroke:grey"/><g id="b200d" class="Protein" transform="translate(9,29)"  name="KIF3C" ><rect   width="100" height="20"/><text   transform="translate(50,10)"    >KIF3C</text></g><g id="d0cec" class="Protein" transform="translate(9,9)"  name="KIF3B" ><rect   width="100" height="20"/><text   transform="translate(50,10)"    >KIF3B</text></g></g></g><g id="e9781" class="GroupNone" transform="translate(41,730)"  ><g class="GroupNone"><rect   width="118" height="58" fill-opacity=".1" stroke-dasharray="5,3" style="fill:#b4b464;stroke:grey"/><g id="d2c5c" class="Protein" transform="translate(9,9)"  name="KIF5A" ><rect   width="100" height="20"/><text   transform="translate(50,10)"    >KIF5A</text></g><g id="ec786" class="Protein" transform="translate(9,29)"  name="KIF5B" ><rect   width="100" height="20"/><text   transform="translate(50,10)"    >KIF5B</text></g></g></g><g id="f1866" class="GroupComplex" transform="translate(458,777)"  ><g class="GroupComplex"><use class="Icon" width="124" height="64" fill="#b4b464" fill-opacity=".1" stroke="grey" href="#Octagon"/><g id="c60cd" class="Unknown Reactome_R-HSA-8982424" transform="translate(12,12)"  name="Microtubule protofilament" ><rect   width="100" height="40"/><text   transform="translate(50,20)"    >Microtubule protofilament</text></g></g></g><g id="f269e" class="GroupComplex" transform="translate(318,1087)"  ><g class="GroupComplex"><use class="Icon" width="124" height="44" fill="#b4b464" fill-opacity=".1" stroke="grey" href="#Octagon"/><g id="e3780" class="Protein" transform="translate(12,12)"  name="KIFC1" ><rect   width="100" height="20"/><text   transform="translate(50,10)"    >KIFC1</text></g></g></g><g id="f8033" class="GroupNone" transform="translate(321,990)"  ><g class="GroupNone"><rect   width="118" height="78" fill-opacity=".1" stroke-dasharray="5,3" style="fill:#b4b464;stroke:grey"/><g id="af180" class="Protein" transform="translate(9,9)"  name="KIF2A" ><rect   width="100" height="20"/><text   transform="translate(50,10)"    >KIF2A</text></g><g id="d11af" class="Protein" transform="translate(9,29)"  name="KIF2B" ><rect   width="100" height="20"/><text   transform="translate(50,10)"    >KIF2B</text></g><g id="e2847" class="Protein" transform="translate(9,49)"  name="KIF2C" ><rect   width="100" height="20"/><text   transform="translate(50,10)"    >KIF2C</text></g></g></g><g id="fd84e" class="GroupComplex" transform="translate(178,1427)"  ><g class="GroupComplex"><use class="Icon" width="124" height="44" fill="#b4b464" fill-opacity=".1" stroke="grey" href="#Octagon"/><g id="cb5ea" class="Protein" transform="translate(12,12)"  name="CENPE" ><rect   width="100" height="20"/><text   transform="translate(50,10)"    >CENPE</text></g></g></g></g></g></g></svg>