<?xml version="1.0" encoding="UTF-8"?>
<svg xmlns="http://www.w3.org/2000/svg" id="-svg" class="Diagram"  baseProfile="full" prefix="schema:http://schema.org/" preserveAspectRatio="xMidYMid"  version="1.1"><defs><g id="icon-defs"><symbol id="Brace" class=" Icon Brace" x="0" y="0" overflow="visible" preserveAspectRatio="none" viewBox="0 0 100 100"><desc>Brace</desc><path d="m1.5 49.5c0-16.17 8.17-24.25 24.5-24.25s24.5-8.08 24.5-24.25c0 16.17 8.17 24.25 24.5 24.25s24.5 8.08 24.5 24.25" vector-effect="non-scaling-stroke"/></symbol></g><g id="marker-defs"><marker id="mea" markerHeight="12" markerWidth="12" orient="auto" preserveAspectRatio="none" refX="12" refY="6" viewBox="0 0 12 12"><g id="g-mea" transform=""><g transform="rotate(180 6 6)"><rect y="5.4" width="2" height="1.2" style="stroke:#fff"/><polygon points="12 11 0 6 12 1" stroke-width="0"/></g></g></marker></g></defs><g id="viewport-20220102135936594" class="svg-pan-zoom_viewport" transform="matrix(0.75 0 0 0.75 219.21 9.30e-6)" style="transform:matrix(0.75, 0, 0, 0.75, 219.21, 9.30e-06)"><style>svg.Diagram {font-family: 'Liberation Sans', Arial, sans-serif; }.Diagram path {fill: transparent;stroke: #000;marker-end: url(#mea);}.Diagram symbol path {fill: inherit;stroke: inherit;stroke-width: inherit;marker-end: inherit;}.Diagram rect {fill: #fff;stroke: #000;}.Diagram text {dominant-baseline: central;overflow: hidden;text-anchor: middle;fill: #000;font-size: 10px;}</style><style type="text/css">.Viewport .textContent {
  pointer-events: none;
  stroke-width: 0px;
}

					.Viewport.Icon {
  fill: white;
}

/* Hide the InfoBox */
.Viewport.textContent {
  font-size: 0;
}

.textContent {
  stroke: none;
}

.DataNode {
  stroke-miterlimit: 1;
  pointer-events: auto;
}

.DataNode:hover {
  cursor: pointer;
}

/* TODO should this apply to things other than DataNodes? */
.DataNode.textContent {
  pointer-events: none;
}

.DataNode.Highlighted {
  opacity: 0.6;
  stroke-width: 0px;
}

marker {
  /* this is what should work per the spec
  stroke-dasharray: none; */
  /* but I need to add this to make it work in Safari */
  stroke-dasharray: 9999999999999999999999999;
}

.Citation.Icon {
  fill: none;
  stroke-width: 0px;
}

.Citation.textContent {
  text-align: center;
  vertical-align: top;
  font-size: 7px;
  fill: #999;
  fill-opacity: 1;
  stroke: none;
}</style><g id="WP186" class="Pathway http___identifiers_org_pw_PW_0000202 Viewport"  name="Name: Homologous recombination License: CC BY 2.0 Last Modified: 2/21/2013 Organism: Homo sapiens" ><g class="Pathway http___identifiers_org_pw_PW_0000202 Viewport"><rect   width="1020" height="896" style="stroke:none"/><g id="f22ea" class="Edge"  ><path    d="M270,577.98L395,559"/></g><g id="aa4b1" class="Edge"  ><path    d="m395 524v87" stroke-dasharray="5,3"/><g id="ace80" class="AB" transform="translate(395,559)"  ><g class="AB"/></g></g><g id="c8c61" class="Edge"  ><path    d="m799 414-62 40"/></g><g id="d88e1" class="Edge"  ><path    d="m395 146v87" stroke-dasharray="5,3"/></g><g id="aef5d" class="Edge"  ><path    d="m256.48 191.71 138.52 0.29"/></g><g id="ebad5" class="Edge"  ><path    d="m395 702v87" stroke-dasharray="5,3"/></g><g id="d0807" class="Edge"  ><path    d="m257.03 382.5 137.97-0.5"/></g><g id="f9a24" class="Edge"  ><path    d="m395 334v87" stroke-dasharray="5,3"/><g id="e90e5" class="AB" transform="translate(395,382)"  ><g class="AB"/></g></g><g id="c12b4" class="Edge"  ><path    d="m750 451-38 45" style="stroke:#900;marker-end:none"/></g><g id="a3685" class="Edge"  ><path    d="m383 496h52" style="stroke:#00c;marker-end:none"/></g><g id="c7093" class="Edge"  ><path    d="m474 452h246" style="stroke:#00c;marker-end:none"/></g><g id="c892b" class="Edge"  ><path    d="m382 128h604" style="stroke:#900;marker-end:none"/></g><g id="eb001" class="Edge"  ><path    d="m702 38-12 24" stroke-dasharray="5,3" style="marker-end:none"/></g><g id="f957e" class="Edge"  ><path    d="m716 260h268" style="stroke:#900;marker-end:none"/></g><g id="d7237" class="Edge"  ><path    d="m384 794h604" style="stroke:#00c;marker-end:none"/></g><g id="e106d" class="Edge"  ><path    d="m753 495h231" style="stroke:#00c;marker-end:none"/></g><g id="fcd98" class="Edge"  ><path    d="m387 622h603" style="stroke:#00c;marker-end:none"/></g><g id="a90ee" class="Edge"  ><path    d="m752 636h237" style="stroke:#900;marker-end:none"/></g><g id="b128d" class="Edge"  ><path    d="m478 680-42-44" style="stroke:#900;marker-end:none"/></g><g id="dbe39" class="Edge"  ><path    d="m434 679 43-44" style="stroke:#00c;marker-end:none"/></g><g id="fb6fe" class="Edge"  ><path    d="m699 40-16 5" stroke-dasharray="5,3" style="marker-end:none"/></g><g id="ee8a0" class="Edge"  ><path    d="m385 636h53" style="stroke:#900;marker-end:none"/></g><g id="b53cd" class="Edge"  ><path    d="m384 852h604" style="stroke:#00c;marker-end:none"/></g><g id="f7c8b" class="Edge"  ><path    d="m926 246h58" style="stroke:#00c;marker-end:none"/></g><g id="a6c1b" class="Edge"  ><path    d="m382 56h268" style="stroke:#00c;marker-end:none"/></g><g id="f7f63" class="Edge"  ><path    d="m382 114h604" style="stroke:#00c;marker-end:none"/></g><g id="b636c" class="Edge"  ><path    d="m476 636h246" style="stroke:#00c;marker-end:none"/></g><g id="a8e05" class="Edge"  ><path    d="m385 438h246" style="stroke:#00c;marker-end:none"/></g><g id="f8d9d" class="Edge"  ><path    d="m384 808h604" style="stroke:#900;marker-end:none"/></g><g id="cfe98" class="Edge"  ><path    d="m752 635-38 45" style="stroke:#900;marker-end:none"/></g><g id="b2aef" class="Edge"  ><path    d="m720 452 34 44" style="stroke:#00c;marker-end:none"/></g><g id="ad69f" class="Edge"  ><path    d="m718 56h268" style="stroke:#00c;marker-end:none"/></g><g id="c5723" class="Edge"  ><path    d="m718 70h268" style="stroke:#900;marker-end:none"/></g><g id="f02ca" class="Edge"  ><path    d="m380 260h53" style="stroke:#900;marker-end:none"/></g><g id="be593" class="Edge"  ><path    d="m432 495 43-44" style="stroke:#00c;marker-end:none"/></g><g id="ae185" class="Edge"  ><path    d="m385 694h604" style="stroke:#900;marker-end:none"/></g><g id="c8910" class="Edge"  ><path    d="m662 496h52" style="stroke:#900;marker-end:none"/></g><g id="a5fcb" class="Edge"  ><path    d="m383 510h604" style="stroke:#900;marker-end:none"/></g><g id="de29f" class="Edge"  ><path    d="m385 680h52" style="stroke:#00c;marker-end:none"/></g><g id="f6271" class="Edge"  ><path    d="m722 636 34 44" style="stroke:#00c;marker-end:none"/></g><g id="cf9e9" class="Edge"  ><path    d="m929 438h58" style="stroke:#00c;marker-end:none"/></g><g id="ba976" class="Edge"  ><path    d="m383 452h53" style="stroke:#900;marker-end:none"/></g><g id="ad89a" class="Edge"  ><path    d="m478 680h238" style="stroke:#900;marker-end:none"/></g><g id="f043d" class="Edge"  ><path    d="m750 452h237" style="stroke:#900;marker-end:none"/></g><g id="e1eb9" class="Edge"  ><path    d="m380 304h604" style="stroke:#00c;marker-end:none"/></g><g id="fb7e3" class="Edge"  ><path    d="m755 679h231" style="stroke:#00c;marker-end:none"/></g><g id="dc541" class="Edge"  ><path    d="m382 70h268" style="stroke:#900;marker-end:none"/></g><g id="bfb5d" class="Edge"  ><path    d="m382 246h268" style="stroke:#00c;marker-end:none"/></g><g id="b7c06" class="Edge"  ><path    d="m380 318h604" style="stroke:#900;marker-end:none"/></g><g id="ab320" class="Edge"  ><path    d="m695 19-12 24" stroke-dasharray="5,3" style="marker-end:none"/></g><g id="eb8db" class="Edge"  ><path    d="m384 866h604" style="stroke:#900;marker-end:none"/></g><g id="b7660" class="" transform="translate(610.97 673)"  ><g class=""><rect   width="96.03" height="24" style="fill:#6f6"/></g></g><g id="c9a3a" class="GroupGroup" transform="translate(29.41 115.72)"  ><g class="GroupGroup"><g id="d2b82" class="" transform="translate(136.03 68.97) rotate(90 76.02 7.02)"  ><g class=""><use class=" Node Icon" width="152.03" height="14.03" fill="transparent" stroke="#000" href="#Brace"/></g></g><g id="f416b" class="" transform="translate(8 40.97)"  ><g class=""><rect   width="105.03" height="91.03" style="fill:#f90"/></g></g><g id="fdad5" class="Label" transform="translate(8.03 41)"  name="MRN complex" ><g class="Label"/><text   transform="translate(50,10)"    >MRN complex</text></g><g id="aeab8" class="GeneProduct " transform="translate(122.03 56)"  name="RPA1 ?" ><rect   width="80" height="20"/><text   transform="translate(40,10)"    >RPA1 ?</text></g><g id="d2972" class="GeneProduct " transform="translate(19.03 88)"  name="NBN" ><rect   width="80" height="20"/><text   transform="translate(40,10)"    >NBN</text></g><g id="d603f" class="GeneProduct " transform="translate(122.03 83)"  name="RAD51" ><rect   width="80" height="20"/><text   transform="translate(40,10)"    >RAD51</text></g><g id="daa6e" class="GeneProduct " transform="translate(9.03 8)"  name="ATM" ><rect   width="80" height="20"/><text   transform="translate(40,10)"    >ATM</text></g><g id="f0e91" class="GeneProduct " transform="translate(19.03 108)"  name="MRE11A" ><rect   width="80" height="20"/><text   transform="translate(40,10)"    >MRE11A</text></g><g id="d3cd9" class="GeneProduct " transform="translate(19.03 68)"  name="RAD50" ><rect   width="80" height="20"/><text   transform="translate(40,10)"    >RAD50</text></g></g></g><g id="c2132" class="" transform="translate(805.97 250)"  ><g class=""><rect   width="30.03" height="20" style="fill:#f90"/></g></g><g id="b4e5e" class="" transform="translate(529.97 235)"  ><g class=""><rect   width="30.03" height="20" style="fill:#f90"/></g></g><g id="bb28c" class="GroupGroup" transform="translate(148.97 547.97)"  ><g class="GroupGroup"><g id="d6d27" class="" transform="translate(8,8)"  ><g class=""><rect   width="105.03" height="104.03" style="fill:#6f6"/></g></g><g id="fb8b0" class="GeneProduct " transform="translate(18.03 68.03)"  name="POLD3" ><rect   width="80" height="20"/><text   transform="translate(40,10)"    >POLD3</text></g><g id="e9eb3" class="GeneProduct " transform="translate(18.03 88.03)"  name="POLD4" ><rect   width="80" height="20"/><text   transform="translate(40,10)"    >POLD4</text></g><g id="cae80" class="GeneProduct " transform="translate(18.03 28.03)"  name="POLD1" ><rect   width="80" height="20"/><text   transform="translate(40,10)"    >POLD1</text></g><g id="a0cc1" class="GeneProduct " transform="translate(18.03 48.03)"  name="POLD2" ><rect   width="80" height="20"/><text   transform="translate(40,10)"    >POLD2</text></g></g></g><g id="fd010" class="GroupGroup" transform="translate(134,336)"  ><g class="GroupGroup"><g id="a6012" class="" transform="translate(79.52 40.48) rotate(90 29 6.52)"  ><g class=""><use class=" Node Icon" width="58" height="13.03" fill="transparent" stroke="#000" href="#Brace"/></g></g><g id="dff5e" class="GeneProduct " transform="translate(8,8)"  name="BRCA2" ><rect   width="80" height="20"/><text   transform="translate(40,10)"    >BRCA2</text></g><g id="fefd2" class="GeneProduct " transform="translate(8,37)"  name="RAD52" ><rect   width="80" height="20"/><text   transform="translate(40,10)"    >RAD52</text></g><g id="f7f70" class="GeneProduct " transform="translate(8,65)"  name="RAD54B" ><rect   width="80" height="20"/><text   transform="translate(40,10)"    >RAD54B</text></g></g></g><g id="fb583" class="" transform="translate(485.97 616)"  ><g class=""><rect   width="96.03" height="24" style="fill:#6f6"/></g></g><g id="fe7a9" class="Label" transform="translate(607,674)"  name="Pol-delta" ><g class="Label"/><text   transform="translate(50,10)"    >Pol-delta</text></g><g id="fb5f1" class="Label" transform="translate(482,617)"  name="Pol-delta" ><g class="Label"/><text   transform="translate(50,10)"    >Pol-delta</text></g><g id="e3e24" class="Label" transform="translate(253,46)"  name="Damaged chromatid" ><g class="Label"/><text   transform="translate(58.5,10)"     style="fill:#00c">Damaged chromatid</text></g><g id="fcd25" class="Label" transform="translate(253,60)"  name="Sister chromatid" ><g class="Label"/><text   transform="translate(58.5,10)"     style="fill:#c00">Sister chromatid</text></g><g id="a9c11" class="Label" transform="translate(750,394)"  name="Strand invasion" ><g class="Label"/><text   transform="translate(49,10)"    >Strand invasion</text></g><g id="d4473" class="Label" transform="translate(701,17)"  name="gamma radiation / genotoxic drugs" ><g class="Label"/><text   transform="translate(95.5,10)"    >gamma radiation / genotoxic drugs</text></g><g id="ec22f" class="Label" transform="translate(157,556)"  name="Pol-delta" ><g class="Label"/><text   transform="translate(50,10)"    >Pol-delta</text></g><g id="b334b" class="GeneProduct " transform="translate(831,459)"  name="RAD51" ><rect   width="80" height="20"/><text   transform="translate(40,10)"    >RAD51</text></g><g id="db2f7" class="GeneProduct " transform="translate(567,236)"  name="RAD51" ><rect   width="80" height="20"/><text   transform="translate(40,10)"    >RAD51</text></g><g id="c00a0" class="GeneProduct " transform="translate(636,440)"  name="BRCA2" ><rect   width="80" height="20"/><text   transform="translate(40,10)"    >BRCA2</text></g><g id="aad86" class="GeneProduct " transform="translate(471,476)"  name="BRCA2" ><rect   width="80" height="20"/><text   transform="translate(40,10)"    >BRCA2</text></g><g id="b6f0a" class="GeneProduct " transform="translate(439,250)"  name="RPA1 ?" ><rect   width="80" height="20"/><text   transform="translate(40,10)"    >RPA1 ?</text></g><g id="be0dc" class="GeneProduct " transform="translate(537,424)"  name="RPA1 ?" ><rect   width="80" height="20"/><text   transform="translate(40,10)"    >RPA1 ?</text></g><g id="f0a38" class="GeneProduct " transform="translate(770,484)"  name="RAD52" ><rect   width="80" height="20"/><text   transform="translate(40,10)"    >RAD52</text></g><g id="e4ce1" class="GeneProduct " transform="translate(745,459)"  name="RAD54B" ><rect   width="80" height="20"/><text   transform="translate(40,10)"    >RAD54B</text></g><g id="f3372" class="GeneProduct " transform="translate(720,251)"  name="RAD51" ><rect   width="80" height="20"/><text   transform="translate(40,10)"    >RAD51</text></g><g id="e02bf" class="GeneProduct " transform="translate(554,476)"  name="BRCA2" ><rect   width="80" height="20"/><text   transform="translate(40,10)"    >BRCA2</text></g><g id="d2b16" class="GeneProduct " transform="translate(841,236)"  name="RPA1 ?" ><rect   width="80" height="20"/><text   transform="translate(40,10)"    >RPA1 ?</text></g><g id="ffffb" class="GeneProduct " transform="translate(447,424)"  name="RAD52" ><rect   width="80" height="20"/><text   transform="translate(40,10)"    >RAD52</text></g><g id="f939e" class="GeneProduct " transform="translate(643,301)"  name="ATM" ><rect   width="80" height="20"/><text   transform="translate(40,10)"    >ATM</text></g></g></g></g></svg>