<?xml version="1.0" encoding="UTF-8"?>
<svg xmlns="http://www.w3.org/2000/svg" id="-svg" class="Diagram"  baseProfile="full" prefix="schema:http://schema.org/" preserveAspectRatio="xMidYMid"  version="1.1"><defs><g id="icon-defs"><symbol id="HexagonPathVisio" class=" Icon HexagonPathVisio" x="0" y="8" overflow="visible" preserveAspectRatio="none" viewBox="0 8 100 86"><desc>HexagonPathVisio</desc><g transform="scale(1 0.85)"><path d="m1.42 51.00 21.07-42.14h56.19l21.07 42.14-21.07 42.15h-56.19l-21.07-42.15z" stroke="currentColor" vector-effect="non-scaling-stroke"/></g></symbol><symbol id="Octagon" class=" Icon Octagon" x="0" y="0" overflow="visible" preserveAspectRatio="none" viewBox="0 0 100 100"><desc>Octagon</desc><path d="m0 25 25-25h50l25 25v50l-25 25h-50l-25-25z" vector-effect="non-scaling-stroke"/></symbol></g><g id="marker-defs"><marker id="mea" markerHeight="12" markerWidth="12" orient="auto" preserveAspectRatio="none" refX="12" refY="6" viewBox="0 0 12 12"><g id="g-mea" transform=""><g transform="rotate(180 6 6)"><rect y="5.4" width="2" height="1.2" style="stroke:#fff"/><polygon points="12 11 0 6 12 1" stroke-width="0"/></g></g></marker><marker id="memcatalysis000" markerHeight="12" markerWidth="12" orient="auto" preserveAspectRatio="none" refX="12" refY="6" viewBox="0 0 12 12"><g id="g-memcatalysis000" transform=""><g transform="rotate(180 6 6)"><circle cx="6" cy="6" r="5.3px" fill="#fff" stroke="#000"/></g></g></marker></g></defs><g id="viewport-20220102135806803" class="svg-pan-zoom_viewport" transform="matrix(0.39 0 0 0.39 366.98 9.30e-6)" style="transform:matrix(0.39, 0, 0, 0.39, 366.98, 9.30e-06)"><style>svg.Diagram {font-family: 'Liberation Sans', Arial, sans-serif; }.Diagram path {fill: transparent;stroke: #000;marker-end: url(#mea);}.Diagram symbol path {fill: inherit;stroke: inherit;stroke-width: inherit;marker-end: inherit;}.Diagram rect {fill: #fff;stroke: #000;}.Diagram text {dominant-baseline: central;overflow: hidden;text-anchor: middle;fill: #000;font-size: 10px;}</style><style type="text/css">.Viewport .textContent {
  pointer-events: none;
  stroke-width: 0px;
}

					.Viewport.Icon {
  fill: white;
}

/* Hide the InfoBox */
.Viewport.textContent {
  font-size: 0;
}

.textContent {
  stroke: none;
}

.DataNode {
  stroke-miterlimit: 1;
  pointer-events: auto;
}

.DataNode:hover {
  cursor: pointer;
}

/* TODO should this apply to things other than DataNodes? */
.DataNode.textContent {
  pointer-events: none;
}

.DataNode.Highlighted {
  opacity: 0.6;
  stroke-width: 0px;
}

marker {
  /* this is what should work per the spec
  stroke-dasharray: none; */
  /* but I need to add this to make it work in Safari */
  stroke-dasharray: 9999999999999999999999999;
}

.Citation.Icon {
  fill: none;
  stroke-width: 0px;
}

.Citation.textContent {
  text-align: center;
  vertical-align: top;
  font-size: 7px;
  fill: #999;
  fill-opacity: 1;
  stroke: none;
}</style><g id="WP1804" class="Pathway http___identifiers_org_pw_PW_0000099 Viewport"  name="Name: DNA Damage Reversal Organism: Homo sapiens" ><g class="Pathway http___identifiers_org_pw_PW_0000099 Viewport"><rect   width="1201" height="1724" style="stroke:none"/><g id="a0982" class="Reactome_R-HSA-5657649"  ><path    d="m297 590 147-4" style="marker-end:none"/><g id="e5b73" class="AB" transform="translate(297,590)"  ><g class="AB"/></g><g id="b882d" class="AB" transform="translate(442.53 586.04)"  ><g class="AB"/></g></g><g id="a15fc" class="Reactome_R-HSA-5657649"  ><path    d="m252 601 45-11" style="marker-end:none"/></g><g id="aaf77" class="Reactome_R-HSA-8857692"  ><path    d="m756 278h92" style="marker-end:none"/><g id="a22f9" class="AB" transform="translate(756,278)"  ><g class="AB"/></g><g id="bf0e6" class="AB" transform="translate(847.08,278)"  ><g class="AB"/></g><g id="db262" class="AB" transform="translate(802,278)"  ><g class="AB"/></g></g><g id="acdcd" class="Reactome_R-HSA-5657641"  ><path    d="m332 373 101 3" style="marker-end:none"/><g id="ff7c1" class="AB" transform="translate(332,373)"  ><g class="AB"/></g><g id="e91ec" class="AB" transform="translate(431.99,375.97)"  ><g class="AB"/></g></g><g id="a115f" class="Reactome_R-HSA-5657641"  ><path    d="m274 438 58-65" style="marker-end:none"/></g><g id="b206d" class="Reactome_R-HSA-112121"  ><path    d="m596 580 189-18" style="marker-end:none"/><g id="d2ec8" class="AB" transform="translate(596,580)"  ><g class="AB"/></g><g id="c9da6" class="AB" transform="translate(783.11 562.18)"  ><g class="AB"/></g><g id="cca6a" class="AB" transform="translate(690.5,571)"  ><g class="AB"/></g></g><g id="b0f33" class="Reactome_R-HSA-112121"  ><path    d="m785 562 189-25"/></g><g id="b350a" class="Reactome_R-HSA-8857692"  ><path    d="m848 278-12 166"/></g><g id="b72d4" class="Reactome_R-HSA-112121"  ><path    d="m539 587 57-7" style="marker-end:none"/></g><g id="ba535" class="Reactome_R-HSA-5657642"  ><path    d="m303 633 88 9" style="marker-end:none"/><g id="a948e" class="AB" transform="translate(303,633)"  ><g class="AB"/></g><g id="b2db0" class="AB" transform="translate(390.12,641.91)"  ><g class="AB"/></g></g><g id="bc160" class="Reactome_R-HSA-112120"  ><path    d="m558 493 123 5" style="marker-end:none"/><g id="a0253" class="AB" transform="translate(558,493)"  ><g class="AB"/></g><g id="f3003" class="AB" transform="translate(679.77,497.95)"  ><g class="AB"/></g><g id="cedf6" class="AB" transform="translate(619.5,495.5)"  ><g class="AB"/></g></g><g id="a06bf" class="Reactome_R-HSA-112120"  ><path    d="m596 443-38 50" style="marker-end:none"/></g><g id="ac9d8" class="Reactome_R-HSA-112120"  ><path    d="m681 498 35-42"/></g><g id="bc1f3" class="Reactome_R-HSA-112120"  ><path    d="m681 498 77-45"/></g><g id="bd5b1" class="Reactome_R-HSA-5657642"  ><path    d="m252 601 51 32" style="marker-end:none"/></g><g id="bddf6" class="Reactome_R-HSA-5657637"  ><path    d="m281 783 77 3" style="marker-end:none"/><g id="da003" class="AB" transform="translate(281,783)"  ><g class="AB"/></g><g id="e67a9" class="AB" transform="translate(357.23,785.97)"  ><g class="AB"/></g></g><g id="bd0a0" class="Reactome_R-HSA-5657637"  ><path    d="m303 712-22 71" style="marker-end:none"/></g><g id="b517b" class="Reactome_R-HSA-5657637"  ><path    d="m358 786 3 6"/></g><g id="be2c5" class="Reactome_R-HSA-5657641"  ><path    d="m341 441-9-68" style="marker-end:none"/></g><g id="beca7" class="Reactome_R-HSA-112120"  ><path    d="m681 498-291-45"/></g><g id="bf60e" class="Reactome_R-HSA-5657637"  ><path    d="m221 448 60 335" style="marker-end:none"/></g><g id="bf866" class="Reactome_R-HSA-112121"  ><path    d="m785 562-395-109"/></g><g id="c1997" class="Reactome_R-HSA-112120"  ><path    d="m681 498 127-41"/></g><g id="c2792" class="Reactome_R-HSA-112123"  ><path    d="m588 787 102 1" style="marker-end:none"/><g id="b71ea" class="AB" transform="translate(588,787)"  ><g class="AB"/></g><g id="dbad5" class="AB" transform="translate(688.98,787.99)"  ><g class="AB"/></g><g id="c6207" class="AB" transform="translate(639,787.5)"  ><g class="AB"/></g></g><g id="a84cf" class="Reactome_R-HSA-112123"  ><path    d="m690 788 148 32"/></g><g id="b29bc" class="Reactome_R-HSA-112123"  ><path    d="m690 788 69 42"/></g><g id="b8444" class="Reactome_R-HSA-112123"  ><path    d="m549 792 89-4" style="marker-end:url(#memcatalysis000)"/></g><g id="c8c82" class="Reactome_R-HSA-112121"  ><path    d="m785 562-28 43"/></g><g id="c8d68" class="Reactome_R-HSA-112124"  ><path    d="m590 870h116" style="marker-end:none"/><g id="b3521" class="AB" transform="translate(590,870)"  ><g class="AB"/></g><g id="c0695" class="AB" transform="translate(704.84 870)"  ><g class="AB"/></g><g id="ae4fe" class="AB" transform="translate(648,870)"  ><g class="AB"/></g></g><g id="a024f" class="Reactome_R-HSA-112124"  ><path    d="m580 844 10 26" style="marker-end:none"/></g><g id="b7647" class="Reactome_R-HSA-112124"  ><path    d="m537 872 53-2" style="marker-end:none"/></g><g id="bfcce" class="Reactome_R-HSA-112124"  ><path    d="m706 870 53-40"/></g><g id="c9698" class="Reactome_R-HSA-5657641"  ><path    d="m433 376 3 2"/></g><g id="ca44d" class="Reactome_R-HSA-5657617"  ><path    d="m226 876 128-3" style="marker-end:none"/><g id="aaf89" class="AB" transform="translate(226,876)"  ><g class="AB"/></g><g id="d4677" class="AB" transform="translate(352.72 873.03)"  ><g class="AB"/></g></g><g id="c0def" class="Reactome_R-HSA-5657617"  ><path    d="m303 712-77 164" style="marker-end:none"/></g><g id="c1730" class="Reactome_R-HSA-5657617"  ><path    d="m218 520 8 356" style="marker-end:none"/></g><g id="c0e1f" class="Reactome_R-HSA-5657617"  ><path    d="m354 873 3-1"/></g><g id="cacef" class="Reactome_R-HSA-112121"  ><path    d="m636 615-40-35" style="marker-end:none"/></g><g id="caf46" class="Reactome_R-HSA-112121"  ><path    d="m598 600-2-20" style="marker-end:none"/></g><g id="cc734" class="Reactome_R-HSA-112124"  ><path    d="m706 870 268-333"/></g><g id="cd654" class="Reactome_R-HSA-112124"  ><path    d="m618 831-28 39" style="marker-end:none"/></g><g id="d2b8d" class="Reactome_R-HSA-8857692"  ><path    d="m739 235 59 43" style="marker-end:url(#memcatalysis000)"/></g><g id="d3b36" class="Reactome_R-HSA-112123"  ><path    d="m690 788 284-251"/></g><g id="d5251" class="Reactome_R-HSA-112123"  ><path    d="m549 792 39-5" style="marker-end:none"/></g><g id="d87d3" class="Reactome_R-HSA-112123"  ><path    d="m690 788 26 33"/></g><g id="d8de9" class="Reactome_R-HSA-112120"  ><path    d="m681 498 293 39"/></g><g id="dd0db" class="Reactome_R-HSA-112121"  ><path    d="m539 587 104-6" style="marker-end:url(#memcatalysis000)"/></g><g id="df7ee" class="Reactome_R-HSA-5657642"  ><path    d="m391 642 3 10"/></g><g id="df946" class="Reactome_R-HSA-5657665"  ><path    d="m335 506 79-4" style="marker-end:none"/><g id="cbfb1" class="AB" transform="translate(335,506)"  ><g class="AB"/></g><g id="a1b2a" class="AB" transform="translate(413.21 502.04)"  ><g class="AB"/></g></g><g id="bbd3a" class="Reactome_R-HSA-5657665"  ><path    d="m341 465-6 41" style="marker-end:none"/></g><g id="c0070" class="Reactome_R-HSA-5657665"  ><path    d="m270 509 65-3" style="marker-end:none"/></g><g id="d255f" class="Reactome_R-HSA-5657665"  ><path    d="m414 502 3-1"/></g><g id="e0089" class="Reactome_R-HSA-8857692"  ><path    d="m848 278-109 166"/></g><g id="e07b9" class="Reactome_R-HSA-112124"  ><path    d="m706 870-348-185"/></g><g id="e56e4" class="Reactome_R-HSA-5657649"  ><path    d="m444 586 3 1"/></g><g id="e5f54" class="Reactome_R-HSA-112121"  ><path    d="m785 562 8 36"/></g><g id="e6d7d" class="Reactome_R-HSA-8857692"  ><path    d="m703 206 53 72" style="marker-end:none"/></g><g id="e6dfc" class="Reactome_R-HSA-8857692"  ><path    d="m848 278-71 162"/></g><g id="e9008" class="Reactome_R-HSA-73892"  ><path    d="m656 138 132 1" style="marker-end:none"/><g id="e650e" class="AB" transform="translate(656,138)"  ><g class="AB"/></g><g id="c0d17" class="AB" transform="translate(786.68,138.99)"  ><g class="AB"/></g><g id="ef4c2" class="AB" transform="translate(722,138.5)"  ><g class="AB"/></g></g><g id="c5f05" class="Reactome_R-HSA-73892"  ><path    d="m653 137 50 3" style="marker-end:url(#memcatalysis000)"/></g><g id="eb77b" class="Reactome_R-HSA-112123"  ><path    d="m618 831-30-44" style="marker-end:none"/></g><g id="ebcc5" class="Reactome_R-HSA-73892"  ><path    d="m788 139 186 398"/></g><g id="ee130" class="Reactome_R-HSA-8857692"  ><path    d="m632 443 124-165" style="marker-end:none"/></g><g id="ef466" class="Reactome_R-HSA-112124"  ><path    d="m706 870 10-23"/></g><g id="ef80b" class="Reactome_R-HSA-73892"  ><path    d="m653 137 3 1" style="marker-end:none"/></g><g id="f05d2" class="Reactome_R-HSA-112120"  ><path    d="m519 501 108-9" style="marker-end:url(#memcatalysis000)"/></g><g id="f0668" class="Reactome_R-HSA-5657649"  ><path    d="m341 465-44 125" style="marker-end:none"/></g><g id="f06c0" class="Reactome_R-HSA-112118"  ><path    d="m578 376 151 5" style="marker-end:none"/><g id="af4fb" class="AB" transform="translate(578,376)"  ><g class="AB"/></g><g id="e3147" class="AB" transform="translate(727.49 380.95)"  ><g class="AB"/></g><g id="db5e1" class="AB" transform="translate(653.5,378.5)"  ><g class="AB"/></g></g><g id="a5270" class="Reactome_R-HSA-112118"  ><path    d="m614 430-36-54" style="marker-end:none"/></g><g id="ce025" class="Reactome_R-HSA-112118"  ><path    d="m540 378 38-2" style="marker-end:none"/></g><g id="a3215" class="Reactome_R-HSA-112118"  ><path    d="m729 381 79 76"/></g><g id="b69c6" class="Reactome_R-HSA-112118"  ><path    d="m729 381-13 51"/></g><g id="c37ba" class="Reactome_R-HSA-112118"  ><path    d="m729 381-339 72"/></g><g id="e4a5a" class="Reactome_R-HSA-112118"  ><path    d="m729 381 48 59"/></g><g id="ec76f" class="Reactome_R-HSA-112118"  ><path    d="m729 381 245 156"/></g><g id="f1660" class="Reactome_R-HSA-112120"  ><path    d="m564 447-6 46" style="marker-end:none"/></g><g id="f17eb" class="Reactome_R-HSA-112123"  ><path    d="m690 788-332-103"/></g><g id="f2a46" class="Reactome_R-HSA-112124"  ><path    d="m537 872 134-3" style="marker-end:url(#memcatalysis000)"/></g><g id="f2d48" class="Reactome_R-HSA-112118"  ><path    d="m540 378 95 4" style="marker-end:url(#memcatalysis000)"/></g><g id="f6af2" class="Reactome_R-HSA-5657642"  ><path    d="m303 658v-25" style="marker-end:none"/></g><g id="f7053" class="Reactome_R-HSA-8857692"  ><path    d="m848 278 60 1"/></g><g id="f789b" class="Reactome_R-HSA-112123"  ><path    d="m580 818 8-31" style="marker-end:none"/></g><g id="fa9df" class="Reactome_R-HSA-112120"  ><path    d="m519 501 39-8" style="marker-end:none"/></g><g id="fbdbf" class="Reactome_R-HSA-8857692"  ><path    d="m682 278h74" style="marker-end:none"/></g><g id="fcab8" class="Reactome_R-HSA-112121"  ><path    d="m785 562 36 30"/></g><g id="fced3" class="Reactome_R-HSA-73892"  ><path    d="m788 139-8-52"/></g><g id="fe143" class="Reactome_R-HSA-112125"  ><path    d="m599 642 133 10" style="marker-end:none"/><g id="c6d5a" class="AB" transform="translate(599,642)"  ><g class="AB"/></g><g id="b6b84" class="AB" transform="translate(730.67,651.9)"  ><g class="AB"/></g><g id="c90b8" class="AB" transform="translate(665.5,647)"  ><g class="AB"/></g></g><g id="a056c" class="Reactome_R-HSA-112125"  ><path    d="m572 652 27-10" style="marker-end:none"/></g><g id="e9799" class="Reactome_R-HSA-112125"  ><path    d="m598 624 1 18" style="marker-end:none"/></g><g id="e9f3e" class="Reactome_R-HSA-112125"  ><path    d="m636 615-37 27" style="marker-end:none"/></g><g id="bb38b" class="Reactome_R-HSA-112125"  ><path    d="m732 652-6-33"/></g><g id="d7c6a" class="Reactome_R-HSA-112125"  ><path    d="m732 652 242-115"/></g><g id="e9cee" class="Reactome_R-HSA-112125"  ><path    d="m732 652-374 33"/></g><g id="edf5f" class="Reactome_R-HSA-112125"  ><path    d="m732 652 40-41"/></g><g id="f6e3f" class="Reactome_R-HSA-112125"  ><path    d="m732 652 89-60"/></g><g id="da563" class="Reactome_R-HSA-112125"  ><path    d="m572 652 92-10" style="marker-end:url(#memcatalysis000)"/></g><g id="fe4bb" class="Reactome_R-HSA-112124"  ><path    d="m706 870 132-50"/></g><g id="ff90e" class="Reactome_R-HSA-5657651"  ><path    d="m385 137h75" style="marker-end:none"/><g id="f7ea7" class="AB" transform="translate(385,137)"  ><g class="AB"/></g><g id="a72ba" class="AB" transform="translate(459.25,137)"  ><g class="AB"/></g></g><g id="ae57d" class="Reactome_R-HSA-5657651"  ><path    d="m380 85 5 52" style="marker-end:none"/></g><g id="cb30b" class="Reactome_R-HSA-5657651"  ><path    d="m352 137h33" style="marker-end:none"/></g><g id="bc0ad" class="Reactome_R-HSA-5657651"  ><path    d="m460 137h3"/></g><g id="ffe41" class="Reactome_R-HSA-112118"  ><path    d="m564 425 14-49" style="marker-end:none"/></g><g id="de856" class="GroupGroup" transform="translate(35,16)"  ><g class="GroupGroup"><g id="b03b4" class="" transform="translate(8,8)"  ><g class=""><rect   transform="matrix(1.00 0 0 1.00 1.50 1.50)" width="1128" height="1012" rx="15" ry="15" stroke-width="3" style="fill:transparent;stroke:#c0c0c0"/></g></g><g id="b24a6" class="Label" transform="translate(523,944)"  name="nucleoplasm" ><g class="Label"/><text   transform="translate(49.5,16.5)"    >nucleoplasm</text></g></g></g><g id="a0c81" class="Metabolite " transform="translate(544,425)"  name="O2" ><rect   width="40" height="22" style="stroke:#00f"/><text   transform="translate(20,11)"     style="fill:#00f">O2</text></g><g id="a4c17" class="Complex Reactome_R-HSA-8857697" transform="translate(739,224)"  name="RNA demethylases" ><g class="Complex Reactome_R-HSA-8857697"><rect   width="117" height="22" rx="15" ry="15" style="stroke:#a52a2a"/></g><g ><defs><clipPath ><rect x="-58.5" y="-11" width="117" height="22" style="stroke:none"/></clipPath></defs><text   transform="translate(58.5,11)"     style="fill:#a52a2a">RNA demethylases</text></g></g><g id="a610d" class="Complex Reactome_R-HSA-5656407" transform="translate(248,658)"  name="ALKBH3:Fe2+:ASCC1:ASCC2:ASCC3" ><g class="Complex Reactome_R-HSA-5656407"><use class="Complex Reactome_R-HSA-5656407 Node Icon" width="110" height="54" fill="#fff" stroke="#a52a2a" href="#HexagonPathVisio"/></g><g ><defs><clipPath ><rect x="-55" y="-27" width="110" height="54" style="stroke:none"/></clipPath></defs><text   transform="translate(55,27)"     style="fill:#a52a2a">ALKBH3:Fe2+:ASCC1:ASCC2:ASCC3</text></g></g><g id="a6da1" class="Metabolite " transform="translate(693,432)"  name="CH2O" ><rect   width="46" height="24" style="stroke:#00f"/><text   transform="translate(23,12)"     style="fill:#00f">CH2O</text></g><g id="a8a11" class="Complex Reactome_R-HSA-5657662" transform="translate(463,126)"  name="MGMT:Zn2+:6-OMeG-dsDNA" ><g class="Complex Reactome_R-HSA-5657662"><use class="Complex Reactome_R-HSA-5657662 Node Icon" width="190" height="23" fill="#fff" stroke="#a52a2a" href="#HexagonPathVisio"/></g><g ><defs><clipPath ><rect x="-95" y="-11.5" width="190" height="23" style="stroke:none"/></clipPath></defs><text   transform="translate(95,11.5)"     style="fill:#a52a2a">MGMT:Zn2+:6-OMeG-dsDNA</text></g></g><g id="b0920" class="Complex Reactome_R-HSA-5657618" transform="translate(357,853)"  name="ALKBH3:Fe2+:ASCC1:ASCC2:ASCC3:3-meC-dsDNA" ><g class="Complex Reactome_R-HSA-5657618"><use class="Complex Reactome_R-HSA-5657618 Node Icon" width="181" height="39" fill="#fff" stroke="#a52a2a" href="#HexagonPathVisio"/></g><g ><defs><clipPath ><rect x="-90.5" y="-19.5" width="181" height="39" style="stroke:none"/></clipPath></defs><text   transform="translate(90.5,19.5)"     style="fill:#a52a2a">ALKBH3:Fe2+:ASCC1:ASCC2:ASCC3:3-meC-dsDNA</text></g></g><g id="b0b8e" class="Complex Reactome_R-HSA-5657653" transform="translate(361,771)"  name="ALKBH3:Fe2+:ASCC1:ASCC2:ASCC3:1-meA-dsDNA" ><g class="Complex Reactome_R-HSA-5657653"><use class="Complex Reactome_R-HSA-5657653 Node Icon" width="189" height="43" fill="#fff" stroke="#a52a2a" href="#HexagonPathVisio"/></g><g ><defs><clipPath ><rect x="-94.5" y="-21.5" width="189" height="43" style="stroke:none"/></clipPath></defs><text   transform="translate(94.5,21.5)"     style="fill:#a52a2a">ALKBH3:Fe2+:ASCC1:ASCC2:ASCC3:1-meA-dsDNA</text></g></g><g id="b2cca" class="Complex Reactome_R-HSA-5657616" transform="translate(436,360)"  name="ALKBH2:Fe2+:1-meA-dsDNA" ><g class="Complex Reactome_R-HSA-5657616"><use class="Complex Reactome_R-HSA-5657616 Node Icon" width="104" height="36" fill="#fff" stroke="#a52a2a" href="#HexagonPathVisio"/></g><g ><defs><clipPath ><rect x="-52" y="-18" width="104" height="36" style="stroke:none"/></clipPath></defs><text   transform="translate(52,18)"     style="fill:#a52a2a">ALKBH2:Fe2+:1-meA-dsDNA</text></g></g><g id="b5b01" class="Complex Reactome_R-HSA-5657631" transform="translate(334,63)"  name="MGMT:Zn2+" ><g class="Complex Reactome_R-HSA-5657631"><use class="Complex Reactome_R-HSA-5657631 Node Icon" width="92" height="23" fill="#fff" stroke="#a52a2a" href="#HexagonPathVisio"/></g><g ><defs><clipPath ><rect x="-46" y="-11.5" width="92" height="23" style="stroke:none"/></clipPath></defs><text   transform="translate(46,11.5)"     style="fill:#a52a2a">MGMT:Zn2+</text></g></g><g id="b5e44" class="Unknown Reactome_R-HSA-5657602" transform="translate(168,428)"  name="1-meA-dsDNA" ><rect   width="107" height="21"/><text   transform="translate(53.5,10.5)"    >1-meA-dsDNA</text></g><g id="b77d0" class="Metabolite " transform="translate(821,578)"  name="SUCCA" ><rect   width="53" height="29" style="stroke:#00f"/><text   transform="translate(26.5,14.5)"     style="fill:#00f">SUCCA</text></g><g id="ba7dd" class="Metabolite " transform="translate(759,818)"  name="CO2" ><rect   width="38" height="25" style="stroke:#00f"/><text   transform="translate(19,12.5)"     style="fill:#00f">CO2</text></g><g id="bd3d0" class="Unknown Reactome_R-HSA-5657646" transform="translate(156,589)"  name="1-etA-dsDNA" ><rect   width="97" height="24"/><text   transform="translate(48.5,12)"    >1-etA-dsDNA</text></g><g id="bf0f7" class="Metabolite " transform="translate(657,191)"  name="Fe2+" ><rect   width="46" height="30" style="stroke:#00f"/><text   transform="translate(23,15)"     style="fill:#00f">Fe2+</text></g><g id="bf180" class="Complex Reactome_R-HSA-5657636" transform="translate(447,567)"  name="ALKBH2:Fe2+:1-etA-dsDNA" ><g class="Complex Reactome_R-HSA-5657636"><use class="Complex Reactome_R-HSA-5657636 Node Icon" width="93" height="41" fill="#fff" stroke="#a52a2a" href="#HexagonPathVisio"/></g><g ><defs><clipPath ><rect x="-46.5" y="-20.5" width="93" height="41" style="stroke:none"/></clipPath></defs><text   transform="translate(46.5,20.5)"     style="fill:#a52a2a">ALKBH2:Fe2+:1-etA-dsDNA</text></g></g><g id="bfaad" class="Metabolite " transform="translate(695,591)"  name="CH3CHO" ><rect   width="62" height="29" style="stroke:#00f"/><text   transform="translate(31,14.5)"     style="fill:#00f">CH3CHO</text></g><g id="c72dc" class="Metabolite " transform="translate(618,817)"  name="2OG" ><rect   width="38" height="29" style="stroke:#00f"/><text   transform="translate(19,14.5)"     style="fill:#00f">2OG</text></g><g id="d2cc7" class="Metabolite " transform="translate(758,440)"  name="CO2" ><rect   width="39" height="26" style="stroke:#00f"/><text   transform="translate(19.5,13)"     style="fill:#00f">CO2</text></g><g id="d936c" class="Metabolite " transform="translate(908,264)"  name="adenosine" ><rect   width="76" height="30" style="stroke:#00f"/><text   transform="translate(38,15)"     style="fill:#00f">adenosine</text></g><g id="d9e96" class="Metabolite " transform="translate(596,430)"  name="2OG" ><rect   width="36" height="26" style="stroke:#00f"/><text   transform="translate(18,13)"     style="fill:#00f">2OG</text></g><g id="dcb3c" class="Unknown Reactome_R-HSA-5649637" transform="translate(974,526)"  name="dsDNA" ><rect   width="49" height="22"/><text   transform="translate(24.5,11)"    >dsDNA</text></g><g id="dfb11" class="Metabolite " transform="translate(808,444)"  name="SUCCA" ><rect   width="56" height="26" style="stroke:#00f"/><text   transform="translate(28,13)"     style="fill:#00f">SUCCA</text></g><g id="dfe84" class="Unknown Reactome_R-HSA-5657603" transform="translate(166,498)"  name="3-meC-dsDNA" ><rect   width="105" height="22"/><text   transform="translate(52.5,11)"    >3-meC-dsDNA</text></g><g id="e150c" class="Complex Reactome_R-HSA-5656464" transform="translate(292,441)"  name="ALKBH2:Fe2+" ><g class="Complex Reactome_R-HSA-5656464"><use class="Complex Reactome_R-HSA-5656464 Node Icon" width="98" height="24" fill="#fff" stroke="#a52a2a" href="#HexagonPathVisio"/></g><g ><defs><clipPath ><rect x="-49" y="-12" width="98" height="24" style="stroke:none"/></clipPath></defs><text   transform="translate(49,12)"     style="fill:#a52a2a">ALKBH2:Fe2+</text></g></g><g id="e49e2" class="Metabolite " transform="translate(692,821)"  name="CH2O" ><rect   width="48" height="26" style="stroke:#00f"/><text   transform="translate(24,13)"     style="fill:#00f">CH2O</text></g><g id="e8871" class="Complex Reactome_R-HSA-5657639" transform="translate(780,76)"  name="MetC-MGMT:Zn2+" ><g class="Complex Reactome_R-HSA-5657639"><use class="Complex Reactome_R-HSA-5657639 Node Icon" width="118" height="22" fill="#fff" stroke="#a52a2a" href="#HexagonPathVisio"/></g><g ><defs><clipPath ><rect x="-59" y="-11" width="118" height="22" style="stroke:none"/></clipPath></defs><text   transform="translate(59,11)"     style="fill:#a52a2a">MetC-MGMT:Zn2+</text></g></g><g id="ead4e" class="Unknown Reactome_R-HSA-5657606" transform="translate(228,126)"  name="6-OMeG-dsDNA" ><rect   width="124" height="22"/><text   transform="translate(62,11)"    >6-OMeG-dsDNA</text></g><g id="edfc3" class="Metabolite " transform="translate(772,598)"  name="CO2" ><rect   width="42" height="26" style="stroke:#00f"/><text   transform="translate(21,13)"     style="fill:#00f">CO2</text></g><g id="ef2a3" class="Metabolite " transform="translate(636,604)"  name="2OG" ><rect   width="42" height="22" style="stroke:#00f"/><text   transform="translate(21,11)"     style="fill:#00f">2OG</text></g><g id="f02e5" class="Metabolite " transform="translate(561,818)"  name="O2" ><rect   width="38" height="26" style="stroke:#00f"/><text   transform="translate(19,13)"     style="fill:#00f">O2</text></g><g id="f20fb" class="Metabolite " transform="translate(578,600)"  name="O2" ><rect   width="40" height="24" style="stroke:#00f"/><text   transform="translate(20,12)"     style="fill:#00f">O2</text></g><g id="f4f27" class="Complex Reactome_R-HSA-5657647" transform="translate(394,630)"  name="ALKBH3:Fe2+:ASCC1:ASCC2:ASCC3:1-etA-dsDNA" ><g class="Complex Reactome_R-HSA-5657647"><use class="Complex Reactome_R-HSA-5657647 Node Icon" width="179" height="44" fill="#fff" stroke="#a52a2a" href="#HexagonPathVisio"/></g><g ><defs><clipPath ><rect x="-89.5" y="-22" width="179" height="44" style="stroke:none"/></clipPath></defs><text   transform="translate(89.5,22)"     style="fill:#a52a2a">ALKBH3:Fe2+:ASCC1:ASCC2:ASCC3:1-etA-dsDNA</text></g></g><g id="f770e" class="Metabolite " transform="translate(838,807)"  name="SUCCA" ><rect   width="50" height="26" style="stroke:#00f"/><text   transform="translate(25,13)"     style="fill:#00f">SUCCA</text></g><g id="f7786" class="Complex Reactome_R-HSA-5657613" transform="translate(417,480)"  name="ALKBH2:Fe2+:3-meC-dsDNA" ><g class="Complex Reactome_R-HSA-5657613"><use class="Complex Reactome_R-HSA-5657613 Node Icon" width="103" height="42" fill="#fff" stroke="#a52a2a" href="#HexagonPathVisio"/></g><g ><defs><clipPath ><rect x="-51.5" y="-21" width="103" height="42" style="stroke:none"/></clipPath></defs><text   transform="translate(51.5,21)"     style="fill:#a52a2a">ALKBH2:Fe2+:3-meC-dsDNA</text></g></g><g id="fff69" class="Metabolite " transform="translate(566,254)"  name="N6-methyladenosine" ><rect   width="116" height="48" style="stroke:#00f"/><text   transform="translate(58,24)"     style="fill:#00f">N6-methyladenosine</text></g><g id="b5e50" class="GroupComplex" transform="translate(178,1502)"  ><g class="GroupComplex"><use class="Icon" width="124" height="84" fill="#b4b464" fill-opacity=".1" stroke="grey" href="#Octagon"/><g id="b30b8" class="Metabolite " transform="translate(12,32)"  name="Fe2+" ><rect   width="100" height="20" style="stroke:#00f"/><text   transform="translate(50,10)"     style="fill:#00f">Fe2+</text></g><g id="e4d79" class="Protein" transform="translate(12,12)"  name="ALKBH2" ><rect   width="100" height="20"/><text   transform="translate(50,10)"    >ALKBH2</text></g><g id="ed7d0" class="Unknown Reactome_R-HSA-5657603" transform="translate(12,52)"  name="3-meC-dsDNA" ><rect   width="100" height="20"/><text   transform="translate(50,10)"    >3-meC-dsDNA</text></g></g></g><g id="b836d" class="GroupComplex" transform="translate(178,1242)"  ><g class="GroupComplex"><use class="Icon" width="124" height="144" fill="#b4b464" fill-opacity=".1" stroke="grey" href="#Octagon"/><g id="aaf94" class="Unknown Reactome_R-HSA-5657646" transform="translate(12,112)"  name="1-etA-dsDNA" ><rect   width="100" height="20"/><text   transform="translate(50,10)"    >1-etA-dsDNA</text></g><g id="bddf0" class="Protein" transform="translate(12,72)"  name="ALKBH3" ><rect   width="100" height="20"/><text   transform="translate(50,10)"    >ALKBH3</text></g><g id="c7cf6" class="Protein" transform="translate(12,52)"  name="ASCC3" ><rect   width="100" height="20"/><text   transform="translate(50,10)"    >ASCC3</text></g><g id="cb6db" class="Protein" transform="translate(12,12)"  name="ASCC1" ><rect   width="100" height="20"/><text   transform="translate(50,10)"    >ASCC1</text></g><g id="cc0dd" class="Protein" transform="translate(12,32)"  name="ASCC2" ><rect   width="100" height="20"/><text   transform="translate(50,10)"    >ASCC2</text></g><g id="f34bf" class="Metabolite " transform="translate(12,92)"  name="Fe2+" ><rect   width="100" height="20" style="stroke:#00f"/><text   transform="translate(50,10)"     style="fill:#00f">Fe2+</text></g></g></g><g id="b96d4" class="GroupComplex" transform="translate(178,1602)"  ><g class="GroupComplex"><use class="Icon" width="124" height="84" fill="#b4b464" fill-opacity=".1" stroke="grey" href="#Octagon"/><g id="cd717" class="Protein" transform="translate(12,32)"  name="ALKBH2" ><rect   width="100" height="20"/><text   transform="translate(50,10)"    >ALKBH2</text></g><g id="f8964" class="Unknown Reactome_R-HSA-5657646" transform="translate(12,12)"  name="1-etA-dsDNA" ><rect   width="100" height="20"/><text   transform="translate(50,10)"    >1-etA-dsDNA</text></g><g id="fe272" class="Metabolite " transform="translate(12,52)"  name="Fe2+" ><rect   width="100" height="20" style="stroke:#00f"/><text   transform="translate(50,10)"     style="fill:#00f">Fe2+</text></g></g></g><g id="bd5b3" class="GroupComplex" transform="translate(38,1302)"  ><g class="GroupComplex"><use class="Icon" width="124" height="84" fill="#b4b464" fill-opacity=".1" stroke="grey" href="#Octagon"/><g id="a169b" class="Metabolite " transform="translate(12,52)"  name="Zn2+" ><rect   width="100" height="20" style="stroke:#00f"/><text   transform="translate(50,10)"     style="fill:#00f">Zn2+</text></g><g id="a5c53" class="Unknown Reactome_R-HSA-5657606" transform="translate(12,12)"  name="6-OMeG-dsDNA" ><rect   width="100" height="20"/><text   transform="translate(50,10)"    >6-OMeG-dsDNA</text></g><g id="fe391" class="Protein" transform="translate(12,32)"  name="MGMT" ><rect   width="100" height="20"/><text   transform="translate(50,10)"    >MGMT</text></g></g></g><g id="cecdf" class="GroupComplex" transform="translate(38,1482)"  ><g class="GroupComplex"><use class="Icon" width="124" height="64" fill="#b4b464" fill-opacity=".1" stroke="grey" href="#Octagon"/><g id="d569a" class="Metabolite " transform="translate(12,32)"  name="Zn2+" ><rect   width="100" height="20" style="stroke:#00f"/><text   transform="translate(50,10)"     style="fill:#00f">Zn2+</text></g><g id="de24c" class="Protein" transform="translate(12,12)"  name="MGMT" ><rect   width="100" height="20"/><text   transform="translate(50,10)"    >MGMT</text></g></g></g><g id="d9831" class="GroupComplex" transform="translate(38,1562)"  ><g class="GroupComplex"><use class="Icon" width="124" height="144" fill="#b4b464" fill-opacity=".1" stroke="grey" href="#Octagon"/><g id="a72f3" class="Protein" transform="translate(12,72)"  name="ASCC3" ><rect   width="100" height="20"/><text   transform="translate(50,10)"    >ASCC3</text></g><g id="ad292" class="Metabolite " transform="translate(12,112)"  name="Fe2+" ><rect   width="100" height="20" style="stroke:#00f"/><text   transform="translate(50,10)"     style="fill:#00f">Fe2+</text></g><g id="c2b31" class="Unknown Reactome_R-HSA-5657602" transform="translate(12,12)"  name="1-meA-dsDNA" ><rect   width="100" height="20"/><text   transform="translate(50,10)"    >1-meA-dsDNA</text></g><g id="cf690" class="Protein" transform="translate(12,32)"  name="ASCC1" ><rect   width="100" height="20"/><text   transform="translate(50,10)"    >ASCC1</text></g><g id="d2a1c" class="Protein" transform="translate(12,92)"  name="ALKBH3" ><rect   width="100" height="20"/><text   transform="translate(50,10)"    >ALKBH3</text></g><g id="e5128" class="Protein" transform="translate(12,52)"  name="ASCC2" ><rect   width="100" height="20"/><text   transform="translate(50,10)"    >ASCC2</text></g></g></g><g id="db15a" class="GroupComplex" transform="translate(178,1402)"  ><g class="GroupComplex"><use class="Icon" width="124" height="84" fill="#b4b464" fill-opacity=".1" stroke="grey" href="#Octagon"/><g id="ba1d6" class="Metabolite " transform="translate(12,52)"  name="Fe2+" ><rect   width="100" height="20" style="stroke:#00f"/><text   transform="translate(50,10)"     style="fill:#00f">Fe2+</text></g><g id="ca6b0" class="Protein" transform="translate(12,32)"  name="ALKBH2" ><rect   width="100" height="20"/><text   transform="translate(50,10)"    >ALKBH2</text></g><g id="e3959" class="Unknown Reactome_R-HSA-5657602" transform="translate(12,12)"  name="1-meA-dsDNA" ><rect   width="100" height="20"/><text   transform="translate(50,10)"    >1-meA-dsDNA</text></g></g></g><g id="e5d5e" class="GroupNone" transform="translate(321,1085)"  ><g class="GroupNone"><rect   width="118" height="78" fill-opacity=".1" stroke-dasharray="5,3" style="fill:#b4b464;stroke:grey"/><g id="a7079" class="Protein" transform="translate(9,29)"  name="ALKBH5" ><rect   width="100" height="20"/><text   transform="translate(50,10)"    >ALKBH5</text></g><g id="b9865" class="Protein" transform="translate(9,49)"  name="FTO" ><rect   width="100" height="20"/><text   transform="translate(50,10)"    >FTO</text></g><g id="e7a32" class="Metabolite " transform="translate(9,9)"  name="Fe2+" ><rect   width="100" height="20" style="stroke:#00f"/><text   transform="translate(50,10)"     style="fill:#00f">Fe2+</text></g></g></g><g id="f4d97" class="GroupComplex" transform="translate(178,1082)"  ><g class="GroupComplex"><use class="Icon" width="124" height="144" fill="#b4b464" fill-opacity=".1" stroke="grey" href="#Octagon"/><g id="af754" class="Metabolite " transform="translate(12,92)"  name="Fe2+" ><rect   width="100" height="20" style="stroke:#00f"/><text   transform="translate(50,10)"     style="fill:#00f">Fe2+</text></g><g id="b8f08" class="Unknown Reactome_R-HSA-5657603" transform="translate(12,112)"  name="3-meC-dsDNA" ><rect   width="100" height="20"/><text   transform="translate(50,10)"    >3-meC-dsDNA</text></g><g id="d9832" class="Protein" transform="translate(12,12)"  name="ASCC1" ><rect   width="100" height="20"/><text   transform="translate(50,10)"    >ASCC1</text></g><g id="da90e" class="Protein" transform="translate(12,52)"  name="ASCC3" ><rect   width="100" height="20"/><text   transform="translate(50,10)"    >ASCC3</text></g><g id="edbbf" class="Protein" transform="translate(12,72)"  name="ALKBH3" ><rect   width="100" height="20"/><text   transform="translate(50,10)"    >ALKBH3</text></g><g id="edf39" class="Protein" transform="translate(12,32)"  name="ASCC2" ><rect   width="100" height="20"/><text   transform="translate(50,10)"    >ASCC2</text></g></g></g><g id="f52aa" class="GroupComplex" transform="translate(38,1402)"  ><g class="GroupComplex"><use class="Icon" width="124" height="64" fill="#b4b464" fill-opacity=".1" stroke="grey" href="#Octagon"/><g id="a82ba" class="Protein" transform="translate(12,12)"  name="MetC-MGMT" ><rect   width="100" height="20"/><text   transform="translate(50,10)"    >MetC-MGMT</text></g><g id="c6b4d" class="Metabolite " transform="translate(12,32)"  name="Zn2+" ><rect   width="100" height="20" style="stroke:#00f"/><text   transform="translate(50,10)"     style="fill:#00f">Zn2+</text></g></g></g><g id="f5d36" class="GroupComplex" transform="translate(38,1082)"  ><g class="GroupComplex"><use class="Icon" width="124" height="64" fill="#b4b464" fill-opacity=".1" stroke="grey" href="#Octagon"/><g id="acdd4" class="Protein" transform="translate(12,12)"  name="ALKBH2" ><rect   width="100" height="20"/><text   transform="translate(50,10)"    >ALKBH2</text></g><g id="b291b" class="Metabolite " transform="translate(12,32)"  name="Fe2+" ><rect   width="100" height="20" style="stroke:#00f"/><text   transform="translate(50,10)"     style="fill:#00f">Fe2+</text></g></g></g><g id="fbc86" class="GroupComplex" transform="translate(38,1162)"  ><g class="GroupComplex"><use class="Icon" width="124" height="124" fill="#b4b464" fill-opacity=".1" stroke="grey" href="#Octagon"/><g id="b3f74" class="Metabolite " transform="translate(12,92)"  name="Fe2+" ><rect   width="100" height="20" style="stroke:#00f"/><text   transform="translate(50,10)"     style="fill:#00f">Fe2+</text></g><g id="c8af0" class="Protein" transform="translate(12,52)"  name="ASCC3" ><rect   width="100" height="20"/><text   transform="translate(50,10)"    >ASCC3</text></g><g id="d8439" class="Protein" transform="translate(12,12)"  name="ASCC1" ><rect   width="100" height="20"/><text   transform="translate(50,10)"    >ASCC1</text></g><g id="f0cdf" class="Protein" transform="translate(12,32)"  name="ASCC2" ><rect   width="100" height="20"/><text   transform="translate(50,10)"    >ASCC2</text></g><g id="f1993" class="Protein" transform="translate(12,72)"  name="ALKBH3" ><rect   width="100" height="20"/><text   transform="translate(50,10)"    >ALKBH3</text></g></g></g></g></g></g></svg>