<?xml version="1.0" encoding="UTF-8"?>
<svg xmlns="http://www.w3.org/2000/svg" id="-svg" class="Diagram"  baseProfile="full" prefix="schema:http://schema.org/" preserveAspectRatio="xMidYMid"  version="1.1"><defs><g id="icon-defs"><symbol id="HexagonPathVisio" class=" Icon HexagonPathVisio" x="0" y="8" overflow="visible" preserveAspectRatio="none" viewBox="0 8 100 86"><desc>HexagonPathVisio</desc><g transform="scale(1 0.85)"><path d="m1.42 51.00 21.07-42.14h56.19l21.07 42.14-21.07 42.15h-56.19l-21.07-42.15z" stroke="currentColor" vector-effect="non-scaling-stroke"/></g></symbol><symbol id="Octagon" class=" Icon Octagon" x="0" y="0" overflow="visible" preserveAspectRatio="none" viewBox="0 0 100 100"><desc>Octagon</desc><path d="m0 25 25-25h50l25 25v50l-25 25h-50l-25-25z" vector-effect="non-scaling-stroke"/></symbol></g><g id="marker-defs"><marker id="mea" markerHeight="12" markerWidth="12" orient="auto" preserveAspectRatio="none" refX="12" refY="6" viewBox="0 0 12 12"><g id="g-mea" transform=""><g transform="rotate(180 6 6)"><rect y="5.4" width="2" height="1.2" style="stroke:#fff"/><polygon points="12 11 0 6 12 1" stroke-width="0"/></g></g></marker><marker id="memcatalysis000" markerHeight="12" markerWidth="12" orient="auto" preserveAspectRatio="none" refX="12" refY="6" viewBox="0 0 12 12"><g id="g-memcatalysis000" transform=""><g transform="rotate(180 6 6)"><circle cx="6" cy="6" r="5.3px" fill="#fff" stroke="#000"/></g></g></marker></g></defs><g id="viewport-20220102140101651" class="svg-pan-zoom_viewport" transform="matrix(0.50 0 0 0.50 274.03 9.30e-6)" style="transform:matrix(0.50, 0, 0, 0.50, 274.02, 9.30e-06)"><style>svg.Diagram {font-family: 'Liberation Sans', Arial, sans-serif; }.Diagram path {fill: transparent;stroke: #000;marker-end: url(#mea);}.Diagram symbol path {fill: inherit;stroke: inherit;stroke-width: inherit;marker-end: inherit;}.Diagram rect {fill: #fff;stroke: #000;}.Diagram text {dominant-baseline: central;overflow: hidden;text-anchor: middle;fill: #000;font-size: 10px;}</style><style type="text/css">.Viewport .textContent {
  pointer-events: none;
  stroke-width: 0px;
}

					.Viewport.Icon {
  fill: white;
}

/* Hide the InfoBox */
.Viewport.textContent {
  font-size: 0;
}

.textContent {
  stroke: none;
}

.DataNode {
  stroke-miterlimit: 1;
  pointer-events: auto;
}

.DataNode:hover {
  cursor: pointer;
}

/* TODO should this apply to things other than DataNodes? */
.DataNode.textContent {
  pointer-events: none;
}

.DataNode.Highlighted {
  opacity: 0.6;
  stroke-width: 0px;
}

marker {
  /* this is what should work per the spec
  stroke-dasharray: none; */
  /* but I need to add this to make it work in Safari */
  stroke-dasharray: 9999999999999999999999999;
}

.Citation.Icon {
  fill: none;
  stroke-width: 0px;
}

.Citation.textContent {
  text-align: center;
  vertical-align: top;
  font-size: 7px;
  fill: #999;
  fill-opacity: 1;
  stroke: none;
}</style><g id="WP1909" class="Pathway Viewport"  name="Name: Signal regulatory protein family interactions Organism: Homo sapiens" ><g class="Pathway Viewport"><rect   width="1300" height="1334" style="stroke:none"/><g id="a81ef" class="Reactome_R-HSA-391156"  ><path    d="m692 161h55" style="marker-end:none"/><g id="c5db0" class="AB" transform="translate(692,161)"  ><g class="AB"/></g><g id="fd1de" class="AB" transform="translate(746.45,161)"  ><g class="AB"/></g><g id="e2ddf" class="AB" transform="translate(719.5,161)"  ><g class="AB"/></g></g><g id="af25c" class="Reactome_R-HSA-391156"  ><path    d="m718 227 2-66" style="marker-end:url(#memcatalysis000)"/></g><g id="b2fd7" class="Reactome_R-HSA-391157"  ><path    d="m992 313 37 88" style="marker-end:none"/><g id="a5f89" class="AB" transform="translate(992,313)"  ><g class="AB"/></g><g id="b3fba" class="AB" transform="translate(1028.6 400.12)"  ><g class="AB"/></g></g><g id="b063c" class="Reactome_R-HSA-391157"  ><path    d="m966 303 26 10" style="marker-end:none"/></g><g id="ba7cc" class="Reactome_R-HSA-391156"  ><path    d="m747 161 64-25"/></g><g id="c023b" class="Reactome_R-HSA-391157"  ><path    d="m927 136 65 177" style="marker-end:none"/></g><g id="c6d1d" class="Reactome_R-HSA-391156"  ><path    d="m671 202 21-41" style="marker-end:none"/></g><g id="c999b" class="Reactome_R-HSA-391150"  ><path    d="m980 157 70-6" style="marker-end:none"/><g id="fcf9b" class="AB" transform="translate(980,157)"  ><g class="AB"/></g><g id="bf8e6" class="AB" transform="translate(1049.3,151.06)"  ><g class="AB"/></g></g><g id="b71b0" class="Reactome_R-HSA-391150"  ><path    d="m966 177 14-20" style="marker-end:none"/></g><g id="cb0bd" class="Reactome_R-HSA-391152"  ><path    d="m897 325 7 72" style="marker-end:none"/><g id="b9276" class="AB" transform="translate(897,325)"  ><g class="AB"/></g><g id="b5c8a" class="AB" transform="translate(903.93 396.28)"  ><g class="AB"/></g></g><g id="bc2bd" class="Reactome_R-HSA-391152"  ><path    d="m872 309 25 16" style="marker-end:none"/></g><g id="befcf" class="Reactome_R-HSA-391152"  ><path    d="m869 161 28 164" style="marker-end:none"/></g><g id="cd745" class="Reactome_R-HSA-391168"  ><path    d="m365 317-1 104" style="marker-end:none"/><g id="e8241" class="AB" transform="translate(365,317)"  ><g class="AB"/></g><g id="fea81" class="AB" transform="translate(364.01 419.96)"  ><g class="AB"/></g></g><g id="c8d7e" class="Reactome_R-HSA-391168"  ><path    d="m469 139-104 178" style="marker-end:none"/></g><g id="caa4a" class="Reactome_R-HSA-391168"  ><path    d="m190 139 175 178" style="marker-end:none"/></g><g id="d515b" class="Reactome_R-HSA-391158"  ><path    d="m506 91 106 33" style="marker-end:none"/><g id="c3487" class="AB" transform="translate(506,91)"  ><g class="AB"/></g><g id="bffc2" class="AB" transform="translate(610.94 123.67)"  ><g class="AB"/></g></g><g id="b4da5" class="Reactome_R-HSA-391158"  ><path    d="m445 137 61-46" style="marker-end:none"/></g><g id="bd1ae" class="Reactome_R-HSA-391158"  ><path    d="m612 124 21 3"/></g><g id="d75d9" class="Reactome_R-HSA-391150"  ><path    d="m927 136 53 21" style="marker-end:none"/></g><g id="d8236" class="Reactome_R-HSA-210274"  ><path    d="m140 388 57 35" style="marker-end:none"/><g id="e8780" class="AB" transform="translate(140,388)"  ><g class="AB"/></g><g id="a1f72" class="AB" transform="translate(196.43 422.65)"  ><g class="AB"/></g></g><g id="d0443" class="Reactome_R-HSA-210274"  ><path    d="m132 436 8-48" style="marker-end:none"/></g><g id="d1e6a" class="Reactome_R-HSA-210274"  ><path    d="m79 150 61 238" style="marker-end:none"/></g><g id="dbb90" class="Reactome_R-HSA-391153"  ><path    d="m773 339-21 58" style="marker-end:none"/><g id="f9975" class="AB" transform="translate(773,339)"  ><g class="AB"/></g><g id="a5856" class="AB" transform="translate(752.21,396.42)"  ><g class="AB"/></g></g><g id="c67a7" class="Reactome_R-HSA-391153"  ><path    d="m754 320 19 19" style="marker-end:none"/></g><g id="cd222" class="Reactome_R-HSA-391153"  ><path    d="m869 161-96 178" style="marker-end:none"/></g><g id="aa769" class="Reactome_R-HSA-391153"  ><path    d="m752 397-10 3"/></g><g id="dce8e" class="Reactome_R-HSA-391157"  ><path    d="m1029 401 10 3"/></g><g id="de716" class="Reactome_R-HSA-391155"  ><path    d="m350 65-45 39" style="marker-end:none"/><g id="a579e" class="AB" transform="translate(350,65)"  ><g class="AB"/></g><g id="b2184" class="AB" transform="translate(305.45,103.61)"  ><g class="AB"/></g></g><g id="aeecb" class="Reactome_R-HSA-391155"  ><path    d="m360 29-10 36" style="marker-end:none"/></g><g id="bf460" class="Reactome_R-HSA-391155"  ><path    d="m403 137-53-72" style="marker-end:none"/></g><g id="d4373" class="Reactome_R-HSA-391155"  ><path    d="m305 104-5 3"/></g><g id="e0105" class="Reactome_R-HSA-391158"  ><path    d="m489 128 17-37" style="marker-end:none"/></g><g id="e3fbe" class="Reactome_R-HSA-391152"  ><path    d="m904 397 7 3"/></g><g id="f38c5" class="Reactome_R-HSA-391151"  ><path    d="m1096 368 61 38" style="marker-end:none"/><g id="a6f3b" class="AB" transform="translate(1096,368)"  ><g class="AB"/></g><g id="bff14" class="AB" transform="translate(1156.4 405.62)"  ><g class="AB"/></g></g><g id="bcc43" class="Reactome_R-HSA-391151"  ><path    d="m1082 335 14 33" style="marker-end:none"/></g><g id="c3c07" class="Reactome_R-HSA-391151"  ><path    d="m1099 432-3-64" style="marker-end:none"/></g><g id="e494c" class="Reactome_R-HSA-391151"  ><path    d="m1157 406 18 3"/></g><g id="f511f" class="Reactome_R-HSA-391156"  ><path    d="m747 161 17 39"/></g><g id="f77a6" class="Reactome_R-HSA-391168"  ><path    d="m364 421 1 3"/></g><g id="fafe5" class="Reactome_R-HSA-210274"  ><path    d="m197 423 6 3"/></g><g id="fbca8" class="Reactome_R-HSA-391150"  ><path    d="m1050 151 3-14"/></g><g id="fc2d3" class="Reactome_R-HSA-391156"  ><path    d="m685 138 7 23" style="marker-end:none"/></g><g id="b380f" class="GroupGroup" transform="translate(2,127)"  ><g class="GroupGroup"><g id="d623b" class="" transform="translate(8,8)"  ><g class=""><rect   transform="matrix(1.00 0 0 0.99 1.50 1.49)" width="1260" height="306" rx="15" ry="15" stroke-width="3" style="fill:transparent;stroke:#c0c0c0"/></g></g><g id="ffc88" class="Label" transform="translate(403,129)"  name="cytosol" ><g class="Label"/><text   transform="translate(32,16.5)"    >cytosol</text></g></g></g><g id="a2c06" class="Complex Reactome_R-HSA-391110" transform="translate(1053,112)"  name="p-Y428,Y452,Y469,Y495-SIRPA:PTPN6,PTPN11" ><g class="Complex Reactome_R-HSA-391110"><use class="Complex Reactome_R-HSA-391110 Node Icon" width="157" height="51" fill="#fff" stroke="#a52a2a" href="#HexagonPathVisio"/></g><g ><defs><clipPath ><rect x="-78.5" y="-25.5" width="157" height="51" style="stroke:none"/></clipPath></defs><text   transform="translate(78.5,25.5)"     style="fill:#a52a2a">p-Y428,Y452,Y469,Y495-SIRPA:PTPN6,PTPN11</text></g></g><g id="aba15" class="Complex Reactome_R-HSA-548936" transform="translate(680,227)"  name="SRC-1, PTK2" ><g class="Complex Reactome_R-HSA-548936"><rect   width="76" height="36" rx="15" ry="15" style="stroke:#a52a2a"/></g><g ><defs><clipPath ><rect x="-38" y="-18" width="76" height="36" style="stroke:none"/></clipPath></defs><text   transform="translate(38,18)"     style="fill:#a52a2a">SRC-1, PTK2</text></g></g><g id="ae75f" class="Protein-1" transform="translate(690,309)"  name="GRB2-1" ><rect   width="64" height="23"/><text   transform="translate(32,11.5)"    >GRB2-1</text></g><g id="aee83" class="Complex Reactome_R-HSA-391118" transform="translate(979,404)"  name="p-Y428,Y452,Y469,Y495-SIRPA:CD47:SKAP2" ><g class="Complex Reactome_R-HSA-391118"><use class="Complex Reactome_R-HSA-391118 Node Icon" width="120" height="57" fill="#fff" stroke="#a52a2a" href="#HexagonPathVisio"/></g><g ><defs><clipPath ><rect x="-60" y="-28.5" width="120" height="57" style="stroke:none"/></clipPath></defs><text   transform="translate(60,28.5)"     style="fill:#a52a2a">p-Y428,Y452,Y469,Y495-SIRPA:CD47:SKAP2</text></g></g><g id="b0f87" class="Protein" transform="translate(128,128)"  name="SIRPG" ><rect   width="62" height="23"/><text   transform="translate(31,11.5)"    >SIRPG</text></g><g id="b7604" class="Complex Reactome_R-HSA-391113" transform="translate(862,400)"  name="p-Y428,Y452,Y469,Y495-SIRPA:CD47:PTK2B" ><g class="Complex Reactome_R-HSA-391113"><use class="Complex Reactome_R-HSA-391113 Node Icon" width="98" height="64" fill="#fff" stroke="#a52a2a" href="#HexagonPathVisio"/></g><g ><defs><clipPath ><rect x="-49" y="-32" width="98" height="64" style="stroke:none"/></clipPath></defs><text   transform="translate(49,32)"     style="fill:#a52a2a">p-Y428,Y452,Y469,Y495-SIRPA:CD47:PTK2B</text></g></g><g id="bccb8" class="Metabolite " transform="translate(764,185)"  name="ADP" ><rect   width="40" height="30" style="stroke:#00f"/><text   transform="translate(20,15)"     style="fill:#00f">ADP</text></g><g id="bf3db" class="Protein" transform="translate(1042,324)"  name="FYB" ><rect   width="40" height="22"/><text   transform="translate(20,11)"    >FYB</text></g><g id="c61e1" class="Protein" transform="translate(48,128)"  name="TYROBP" ><rect   width="63" height="22"/><text   transform="translate(31.5,11)"    >TYROBP</text></g><g id="c6bb0" class="Protein" transform="translate(70,425)"  name="SIRPB1" ><rect   width="62" height="22"/><text   transform="translate(31,11)"    >SIRPB1</text></g><g id="ccb96" class="Complex Reactome_R-HSA-210222" transform="translate(144,426)"  name="SIRPB1:TYROBP" ><g class="Complex Reactome_R-HSA-210222"><use class="Complex Reactome_R-HSA-210222 Node Icon" width="118" height="21" fill="#fff" stroke="#a52a2a" href="#HexagonPathVisio"/></g><g ><defs><clipPath ><rect x="-59" y="-10.5" width="118" height="21" style="stroke:none"/></clipPath></defs><text   transform="translate(59,10.5)"     style="fill:#a52a2a">SIRPB1:TYROBP</text></g></g><g id="ceaab" class="Protein" transform="translate(469,128)"  name="CD47" ><rect   width="41" height="22"/><text   transform="translate(20.5,11)"    >CD47</text></g><g id="d574b" class="Protein" transform="translate(403,126)"  name="SIRPA" ><rect   width="43" height="22"/><text   transform="translate(21.5,11)"    >SIRPA</text></g><g id="d68ff" class="Complex Reactome_R-HSA-391112" transform="translate(685,400)"  name="p-Y428,Y452,Y469,Y495-SIRPA:CD47:GRB2-1" ><g class="Complex Reactome_R-HSA-391112"><use class="Complex Reactome_R-HSA-391112 Node Icon" width="114" height="66" fill="#fff" stroke="#a52a2a" href="#HexagonPathVisio"/></g><g ><defs><clipPath ><rect x="-57" y="-33" width="114" height="66" style="stroke:none"/></clipPath></defs><text   transform="translate(57,33)"     style="fill:#a52a2a">p-Y428,Y452,Y469,Y495-SIRPA:CD47:GRB2-1</text></g></g><g id="d6b1f" class="Complex Reactome_R-HSA-389744" transform="translate(933,177)"  name="PTPN6,PTPN11" ><g class="Complex Reactome_R-HSA-389744"><rect   width="66" height="34" rx="15" ry="15" style="stroke:#a52a2a"/></g><g ><defs><clipPath ><rect x="-33" y="-17" width="66" height="34" style="stroke:none"/></clipPath></defs><text   transform="translate(33,17)"     style="fill:#a52a2a">PTPN6,PTPN11</text></g></g><g id="d7668" class="Complex Reactome_R-HSA-391108" transform="translate(360,11)"  name="SFTPA oligomer, SFTPD oligomer" ><g class="Complex Reactome_R-HSA-391108"><rect   width="133" height="36" rx="15" ry="15" style="stroke:#a52a2a"/></g><g ><defs><clipPath ><rect x="-66.5" y="-18" width="133" height="36" style="stroke:none"/></clipPath></defs><text   transform="translate(66.5,18)"     style="fill:#a52a2a"><tspan   x="0" y="-5.5">SFTPA oligomer,</tspan><tspan   x="0" y="5.5">SFTPD oligomer</tspan></text></g></g><g id="e0b76" class="Protein" transform="translate(816,297)"  name="PTK2B" ><rect   width="57" height="25"/><text   transform="translate(28.5,12.5)"    >PTK2B</text></g><g id="e2e13" class="Complex Reactome_R-HSA-391116" transform="translate(1115,409)"  name="p-Y428,Y452,Y469,Y495-SIRPA:CD47:SKAP2:FYB" ><g class="Complex Reactome_R-HSA-391116"><use class="Complex Reactome_R-HSA-391116 Node Icon" width="120" height="49" fill="#fff" stroke="#a52a2a" href="#HexagonPathVisio"/></g><g ><defs><clipPath ><rect x="-60" y="-24.5" width="120" height="49" style="stroke:none"/></clipPath></defs><text   transform="translate(60,24.5)"     style="fill:#a52a2a">p-Y428,Y452,Y469,Y495-SIRPA:CD47:SKAP2:FYB</text></g></g><g id="e3c2f" class="Complex Reactome_R-HSA-391109" transform="translate(237,107)"  name="SIRPA:SFTPA oligomer, SFTPD oligomer" ><g class="Complex Reactome_R-HSA-391109"><use class="Complex Reactome_R-HSA-391109 Node Icon" width="126" height="51" fill="#fff" stroke="#a52a2a" href="#HexagonPathVisio"/></g><g ><defs><clipPath ><rect x="-63" y="-25.5" width="126" height="51" style="stroke:none"/></clipPath></defs><text   transform="translate(63,25.5)"     style="fill:#a52a2a"><tspan   x="0" y="-11">SIRPA:SFTPA</tspan><tspan   x="0" y="0">oligomer, SFTPD</tspan><tspan   x="0" y="11">oligomer</tspan></text></g></g><g id="e5872" class="Complex Reactome_R-HSA-391111" transform="translate(581,127)"  name="SIRPA:CD47" ><g class="Complex Reactome_R-HSA-391111"><use class="Complex Reactome_R-HSA-391111 Node Icon" width="105" height="22" fill="#fff" stroke="#a52a2a" href="#HexagonPathVisio"/></g><g ><defs><clipPath ><rect x="-52.5" y="-11" width="105" height="22" style="stroke:none"/></clipPath></defs><text   transform="translate(52.5,11)"     style="fill:#a52a2a">SIRPA:CD47</text></g></g><g id="edb8e" class="Complex Reactome_R-HSA-391166" transform="translate(307,424)"  name="SIRP gamma:CD47" ><g class="Complex Reactome_R-HSA-391166"><use class="Complex Reactome_R-HSA-391166 Node Icon" width="116" height="22" fill="#fff" stroke="#a52a2a" href="#HexagonPathVisio"/></g><g ><defs><clipPath ><rect x="-58" y="-11" width="116" height="22" style="stroke:none"/></clipPath></defs><text   transform="translate(58,11)"     style="fill:#a52a2a">SIRP gamma:CD47</text></g></g><g id="f1775" class="Complex Reactome_R-HSA-391115" transform="translate(811,111)"  name="p-Y428,Y452,Y469,Y495-SIRPA:CD47" ><g class="Complex Reactome_R-HSA-391115"><use class="Complex Reactome_R-HSA-391115 Node Icon" width="117" height="50" fill="#fff" stroke="#a52a2a" href="#HexagonPathVisio"/></g><g ><defs><clipPath ><rect x="-58.5" y="-25" width="117" height="50" style="stroke:none"/></clipPath></defs><text   transform="translate(58.5,25)"     style="fill:#a52a2a">p-Y428,Y452,Y469,Y495-SIRPA:CD47</text></g></g><g id="f399c" class="Protein" transform="translate(914,288)"  name="SKAP2" ><rect   width="52" height="30"/><text   transform="translate(26,15)"    >SKAP2</text></g><g id="feac7" class="Metabolite " transform="translate(633,187)"  name="ATP" ><rect   width="39" height="30" style="stroke:#00f"/><text   transform="translate(19.5,15)"     style="fill:#00f">ATP</text></g><g id="a211d" class="GroupComplex" transform="translate(178,712)"  ><g class="GroupComplex"><use class="Icon" width="124" height="84" fill="#b4b464" fill-opacity=".1" stroke="grey" href="#Octagon"/><g id="b8a90" class="Unknown Reactome_R-HSA-391097" transform="translate(12,32)"  name="SFTPD oligomer" ><rect   width="100" height="20"/><text   transform="translate(50,10)"    >SFTPD oligomer</text></g><g id="c9ba3" class="Protein" transform="translate(12,52)"  name="SIRPA" ><rect   width="100" height="20"/><text   transform="translate(50,10)"    >SIRPA</text></g><g id="faee7" class="Unknown Reactome_R-HSA-391092" transform="translate(12,12)"  name="SFTPA oligomer" ><rect   width="100" height="20"/><text   transform="translate(50,10)"    >SFTPA oligomer</text></g></g></g><g id="a3f31" class="GroupNone" transform="translate(181,635)"  ><g class="GroupNone"><rect   width="118" height="58" fill-opacity=".1" stroke-dasharray="5,3" style="fill:#b4b464;stroke:grey"/><g id="aaac5" class="Unknown Reactome_R-HSA-391097" transform="translate(9,29)"  name="SFTPD oligomer" ><rect   width="100" height="20"/><text   transform="translate(50,10)"    >SFTPD oligomer</text></g><g id="c9ab9" class="Unknown Reactome_R-HSA-391092" transform="translate(9,9)"  name="SFTPA oligomer" ><rect   width="100" height="20"/><text   transform="translate(50,10)"    >SFTPA oligomer</text></g></g></g><g id="a643f" class="GroupComplex" transform="translate(38,822)"  ><g class="GroupComplex"><use class="Icon" width="124" height="114" fill="#b4b464" fill-opacity=".1" stroke="grey" href="#Octagon"/><g id="b7230" class="Protein" transform="translate(12,82)"  name="PTPN11" ><rect   width="100" height="20"/><text   transform="translate(50,10)"    >PTPN11</text></g><g id="c09c5" class="Protein" transform="translate(12,42)"  name="CD47" ><rect   width="100" height="20"/><text   transform="translate(50,10)"    >CD47</text></g><g id="cd233" class="Protein" transform="translate(12,62)"  name="PTPN6" ><rect   width="100" height="20"/><text   transform="translate(50,10)"    >PTPN6</text></g><g id="ed0ab" class="Protein" transform="translate(12,12)"  name="p-Y428,Y452,Y469,Y495-SIRPA" ><rect   width="100" height="40"/><text   transform="translate(50,20)"    >p-Y428,Y452,Y469,Y495-SIRPA</text></g></g></g><g id="ab77c" class="GroupComplex" transform="translate(178,892)"  ><g class="GroupComplex"><use class="Icon" width="124" height="64" fill="#b4b464" fill-opacity=".1" stroke="grey" href="#Octagon"/><g id="b0a85" class="Protein" transform="translate(12,32)"  name="CD47" ><rect   width="100" height="20"/><text   transform="translate(50,10)"    >CD47</text></g><g id="cc37d" class="Protein" transform="translate(12,12)"  name="SIRPG" ><rect   width="100" height="20"/><text   transform="translate(50,10)"    >SIRPG</text></g></g></g><g id="abb1f" class="GroupComplex" transform="translate(38,1072)"  ><g class="GroupComplex"><use class="Icon" width="124" height="124" fill="#b4b464" fill-opacity=".1" stroke="grey" href="#Octagon"/><g id="a4021" class="Protein" transform="translate(12,32)"  name="SKAP2" ><rect   width="100" height="20"/><text   transform="translate(50,10)"    >SKAP2</text></g><g id="bd043" class="Protein" transform="translate(12,12)"  name="FYB" ><rect   width="100" height="20"/><text   transform="translate(50,10)"    >FYB</text></g><g id="cc0a6" class="Protein" transform="translate(12,62)"  name="p-Y428,Y452,Y469,Y495-SIRPA" ><rect   width="100" height="40"/><text   transform="translate(50,20)"    >p-Y428,Y452,Y469,Y495-SIRPA</text></g><g id="dae6e" class="Protein" transform="translate(12,92)"  name="CD47" ><rect   width="100" height="20"/><text   transform="translate(50,10)"    >CD47</text></g></g></g><g id="cd1eb" class="GroupComplex" transform="translate(178,512)"  ><g class="GroupComplex"><use class="Icon" width="124" height="104" fill="#b4b464" fill-opacity=".1" stroke="grey" href="#Octagon"/><g id="a6631" class="Protein" transform="translate(12,42)"  name="p-Y428,Y452,Y469,Y495-SIRPA" ><rect   width="100" height="40"/><text   transform="translate(50,20)"    >p-Y428,Y452,Y469,Y495-SIRPA</text></g><g id="c850c" class="Protein" transform="translate(12,72)"  name="CD47" ><rect   width="100" height="20"/><text   transform="translate(50,10)"    >CD47</text></g><g id="c8fdd" class="Protein-1" transform="translate(12,12)"  name="GRB2-1" ><rect   width="100" height="20"/><text   transform="translate(50,10)"    >GRB2-1</text></g></g></g><g id="d24d9" class="GroupComplex" transform="translate(38,1212)"  ><g class="GroupComplex"><use class="Icon" width="124" height="104" fill="#b4b464" fill-opacity=".1" stroke="grey" href="#Octagon"/><g id="c2f65" class="Protein" transform="translate(12,72)"  name="CD47" ><rect   width="100" height="20"/><text   transform="translate(50,10)"    >CD47</text></g><g id="d2303" class="Protein" transform="translate(12,42)"  name="p-Y428,Y452,Y469,Y495-SIRPA" ><rect   width="100" height="40"/><text   transform="translate(50,20)"    >p-Y428,Y452,Y469,Y495-SIRPA</text></g><g id="d8245" class="Protein" transform="translate(12,12)"  name="PTK2B" ><rect   width="100" height="20"/><text   transform="translate(50,10)"    >PTK2B</text></g></g></g><g id="d8cc5" class="GroupComplex" transform="translate(38,472)"  ><g class="GroupComplex"><use class="Icon" width="124" height="64" fill="#b4b464" fill-opacity=".1" stroke="grey" href="#Octagon"/><g id="a92dd" class="Protein" transform="translate(12,32)"  name="SIRPA" ><rect   width="100" height="20"/><text   transform="translate(50,10)"    >SIRPA</text></g><g id="ac3ad" class="Protein" transform="translate(12,12)"  name="CD47" ><rect   width="100" height="20"/><text   transform="translate(50,10)"    >CD47</text></g></g></g><g id="d9d58" class="GroupComplex" transform="translate(38,952)"  ><g class="GroupComplex"><use class="Icon" width="124" height="104" fill="#b4b464" fill-opacity=".1" stroke="grey" href="#Octagon"/><g id="b7bf1" class="Protein" transform="translate(12,72)"  name="CD47" ><rect   width="100" height="20"/><text   transform="translate(50,10)"    >CD47</text></g><g id="e6c18" class="Protein" transform="translate(12,12)"  name="SKAP2" ><rect   width="100" height="20"/><text   transform="translate(50,10)"    >SKAP2</text></g><g id="f811b" class="Protein" transform="translate(12,42)"  name="p-Y428,Y452,Y469,Y495-SIRPA" ><rect   width="100" height="40"/><text   transform="translate(50,20)"    >p-Y428,Y452,Y469,Y495-SIRPA</text></g></g></g><g id="e2c7c" class="GroupNone" transform="translate(41,655)"  ><g class="GroupNone"><rect   width="118" height="58" fill-opacity=".1" stroke-dasharray="5,3" style="fill:#b4b464;stroke:grey"/><g id="bfbb8" class="Protein" transform="translate(9,29)"  name="PTK2" ><rect   width="100" height="20"/><text   transform="translate(50,10)"    >PTK2</text></g><g id="f4955" class="Protein-1" transform="translate(9,9)"  name="SRC-1" ><rect   width="100" height="20"/><text   transform="translate(50,10)"    >SRC-1</text></g></g></g><g id="e6333" class="GroupNone" transform="translate(41,735)"  ><g class="GroupNone"><rect   width="118" height="58" fill-opacity=".1" stroke-dasharray="5,3" style="fill:#b4b464;stroke:grey"/><g id="d0dd4" class="Protein" transform="translate(9,9)"  name="PTPN6" ><rect   width="100" height="20"/><text   transform="translate(50,10)"    >PTPN6</text></g><g id="f2d69" class="Protein" transform="translate(9,29)"  name="PTPN11" ><rect   width="100" height="20"/><text   transform="translate(50,10)"    >PTPN11</text></g></g></g><g id="f90fc" class="GroupComplex" transform="translate(38,562)"  ><g class="GroupComplex"><use class="Icon" width="124" height="74" fill="#b4b464" fill-opacity=".1" stroke="grey" href="#Octagon"/><g id="e5871" class="Protein" transform="translate(12,12)"  name="p-Y428,Y452,Y469,Y495-SIRPA" ><rect   width="100" height="40"/><text   transform="translate(50,20)"    >p-Y428,Y452,Y469,Y495-SIRPA</text></g><g id="f9366" class="Protein" transform="translate(12,42)"  name="CD47" ><rect   width="100" height="20"/><text   transform="translate(50,10)"    >CD47</text></g></g></g><g id="fa2a7" class="GroupComplex" transform="translate(178,812)"  ><g class="GroupComplex"><use class="Icon" width="124" height="64" fill="#b4b464" fill-opacity=".1" stroke="grey" href="#Octagon"/><g id="b06a4" class="Protein" transform="translate(12,32)"  name="TYROBP" ><rect   width="100" height="20"/><text   transform="translate(50,10)"    >TYROBP</text></g><g id="c2be0" class="Protein" transform="translate(12,12)"  name="SIRPB1" ><rect   width="100" height="20"/><text   transform="translate(50,10)"    >SIRPB1</text></g></g></g></g></g></g></svg>