<?xml version="1.0" encoding="UTF-8"?>
<svg xmlns="http://www.w3.org/2000/svg" id="-svg" class="Diagram"  baseProfile="full" prefix="schema:http://schema.org/" preserveAspectRatio="xMidYMid"  version="1.1"><defs><g id="filter-defs"><filter id="doublefalse3filter" x="-50%" y="-50%" width="200%" height="200%"><feComposite in="SourceGraphic" in2="SourceGraphic" result="doubleDark"/><feMorphology in="doubleDark" operator="dilate" radius="0.17" result="in2Double"/><feMorphology in="SourceGraphic" operator="dilate" radius="3" result="inDouble"/><feComposite in="inDouble" in2="in2Double" operator="out" result="doubleResult"/></filter></g><g id="icon-defs"><symbol id="ArcPathVisio" class=" Icon ArcPathVisio" x="0" y="0" overflow="visible" preserveAspectRatio="none" viewBox="0 0 100 100"><desc>ArcPathVisio</desc><path d="m99.5 50c0 27.34-22.16 49.5-49.5 49.5s-49.5-22.16-49.5-49.5" vector-effect="non-scaling-stroke"/></symbol><symbol id="Ellipse" class=" Icon Ellipse" x="0" y="0" overflow="visible" preserveAspectRatio="none" viewBox="0 0 50 50"><desc>Ellipse</desc><ellipse cx="25" cy="25" rx="25" ry="25" vector-effect="non-scaling-stroke"/></symbol></g><g id="marker-defs"><marker id="mea" markerHeight="12" markerWidth="12" orient="auto" preserveAspectRatio="none" refX="12" refY="6" viewBox="0 0 12 12"><g id="g-mea" transform=""><g transform="rotate(180 6 6)"><rect y="5.4" width="2" height="1.2" style="stroke:#fff"/><polygon points="12 11 0 6 12 1" stroke-width="0"/></g></g></marker><marker id="meminhibition000" markerHeight="20" markerWidth="10" orient="auto" preserveAspectRatio="none" refX="10" refY="10" viewBox="0 0 10 20"><g id="g-meminhibition000" transform=""><g transform="rotate(180 5 10)"><rect y="9" width="8" height="2" style="stroke:none"/><line x="0" y="0" width="12" height="12" x1="7" x2="7" y2="20" stroke="#000" stroke-width="1.8"/></g></g></marker><marker id="mea999" markerHeight="12" markerWidth="12" orient="auto" preserveAspectRatio="none" refX="12" refY="6" viewBox="0 0 12 12"><g id="g-mea999" transform=""><g transform="rotate(180 6 6)"><rect y="5.4" width="2" height="1.2" style="stroke:#fff"/><polygon points="12 11 0 6 12 1" fill="#999" stroke-width="0"/></g></g></marker></g></defs><g id="viewport-20220102140403690" class="svg-pan-zoom_viewport" transform="matrix(0.93 0 0 0.93 0 2.81)" style="transform:matrix(0.93, 0, 0, 0.93, 0, 2.81)"><style>svg.Diagram {font-family: 'Liberation Sans', Arial, sans-serif; }.Diagram path {fill: transparent;stroke: #000;marker-end: url(#mea);}.Diagram symbol path {fill: inherit;stroke: inherit;stroke-width: inherit;marker-end: inherit;}.Diagram rect {fill: #fff;stroke: #000;}.Diagram text {dominant-baseline: central;overflow: hidden;text-anchor: middle;fill: #000;font-size: 10px;}</style><style type="text/css">.Viewport .textContent {
  pointer-events: none;
  stroke-width: 0px;
}

					.Viewport.Icon {
  fill: white;
}

/* Hide the InfoBox */
.Viewport.textContent {
  font-size: 0;
}

.textContent {
  stroke: none;
}

.DataNode {
  stroke-miterlimit: 1;
  pointer-events: auto;
}

.DataNode:hover {
  cursor: pointer;
}

/* TODO should this apply to things other than DataNodes? */
.DataNode.textContent {
  pointer-events: none;
}

.DataNode.Highlighted {
  opacity: 0.6;
  stroke-width: 0px;
}

marker {
  /* this is what should work per the spec
  stroke-dasharray: none; */
  /* but I need to add this to make it work in Safari */
  stroke-dasharray: 9999999999999999999999999;
}

.Citation.Icon {
  fill: none;
  stroke-width: 0px;
}

.Citation.textContent {
  text-align: center;
  vertical-align: top;
  font-size: 7px;
  fill: #999;
  fill-opacity: 1;
  stroke: none;
}</style><g id="WP2267" class="Pathway http___identifiers_org_pw_PW_0001072 Viewport"  name="Name: Synaptic vesicle pathway Last Modified: 2/21/2013 Organism: Homo sapiens" ><g class="Pathway http___identifiers_org_pw_PW_0001072 Viewport"><rect   width="1286.1" height="711" style="stroke:none"/><g id="a1290" class="Edge"  ><path    d="m417.83 173-90.17 131" stroke-dasharray="5,3"/></g><g id="id3c526817" class="Edge"  ><path    d="m1143.7 220h-24" style="marker-end:none"/></g><g id="a336b" class="Edge"  ><path    d="m599.79 327.27 111.53 0.30"/></g><g id="a3921" class="Edge"  ><path    d="m53.67 584 21 24" style="marker-end:none"/></g><g id="a59fb" class="Edge"  ><path    d="m1097.7 491v-25" style="marker-end:url(#meminhibition000)"/></g><g id="id89b239b8" class="Edge"  ><path    d="m909 515.69-5.29-1e-13c-5.29 1e-13 -15.87 1e-13 -21.16 4.33-5.29 4.33-5.29 13 3.62 17.33 8.91 4.33 26.72 4.33 35.63 4.33h8.91"/></g><g id="a5bfd" class="Edge"  ><path    d="m723.67 214v116"/></g><g id="a9492" class="Edge"  ><path    d="m602.67 600-66 1e-13"/></g><g id="id8b850d89" class="Edge"  ><path    d="m695.67 646-2-99"/></g><g id="b47f9" class="Edge"  ><path    d="m278.67 256-58 43" style="stroke:#999;marker-end:url(#mea999)"/></g><g id="id8d553cb1" class="Edge"  ><path    d="m244.67 559v3" style="marker-end:none"/></g><g id="b5eb2" class="Edge"  ><path    d="m53.67 552v31" style="marker-end:none"/></g><g id="ccbf6" class="Edge"  ><path    d="m293.67 423 1.63 26.69" stroke-dasharray="5,3"/></g><g id="idbc49838d" class="Edge"  ><path    d="m92.67 581h827" style="marker-end:none"/></g><g id="cd51e" class="Edge"  ><path    d="m179.67 275-126 276" style="marker-end:none"/></g><g id="idc6e8cef8" class="Edge"  ><path    d="m875.24 536.05 45.43 34.70"/></g><g id="cf168" class="Edge"  ><path    d="m566.67 474h208"/></g><g id="ide34fe98" class="Edge"  ><path    d="m909.15 68.91h-27.01v139.09h-102"/></g><g id="d2d40" class="Edge"  ><path    d="m340.67 471h130" stroke-dasharray="5,3"/></g><g id="ide36d7e75" class="Edge"  ><path    d="m934.36 322.6-161.12 3" stroke-dasharray="5,3"/></g><g id="idf3ff83b1" class="Edge"  ><path    d="m1077.8 496.69-76.06-129.19" stroke-dasharray="5,3"/></g><g id="dca15" class="Edge"  ><path    d="m75.67 608h857" style="marker-end:none"/></g><g id="id2478a393" class="Edge"  ><path    d="m409.67 526 24 14"/></g><g id="id6ee3c7e1" class="Edge"  ><path    d="m481.67 588 32 11.5"/></g><g id="id8abaa5b6" class="Edge"  ><path    d="m455.67 293-115.43 34.94"/></g><g id="ida349248b" class="Edge"  ><path    d="m1125.7 178-18 3e-14" style="marker-end:none"/></g><g id="edfc8" class="Edge"  ><path    d="m1011.7 178-33.48-0.86"/></g><g id="d2dc6" class="Edge"  ><path    d="m562.67 548-24 47"/></g><g id="id7ca54e6c" class="Edge"  ><path    d="m765.67 562 39 19.75"/></g><g id="d33e1" class="Edge"  ><path    d="m83.67 551v19" style="marker-end:none"/></g><g id="eb00e" class="Edge"  ><path    d="m83.67 570 9 11" style="marker-end:none"/></g><g id="d17eb" class="Edge"  ><path    d="m209.67 275-126 276" style="marker-end:none"/></g><g id="a84bb" class="" transform="translate(12.82 400.25) rotate(-65.56 147 5.21)"  ><g class=""><rect   width="294" height="10.43" style="fill:#999;stroke:#ccc"/></g></g><g id="be55d" class="" transform="translate(920.67 560) rotate(180 34.5 21.5)"  ><g class=""><use class=" Node Icon" width="69" height="43" fill="transparent" stroke="#000" href="#ArcPathVisio"/></g></g><g id="e807a" class="" transform="translate(838.67 540)"  ><g class=""><use class=" Node Icon" width="22" height="36" fill="#66ffff" stroke="#000" href="#Ellipse"/></g></g><g id="bc309" class="GroupGroup" transform="translate(492.67 564)"  ><g class="GroupGroup"><g id="abfc4" class="" transform="translate(8 8)"  ><g class=""><use class=" Node Icon" width="47" height="11" fill="#9900ff" stroke="#9900ff" href="#Ellipse"/></g></g><g id="bf0e1" class="" transform="translate(21 8)"  ><g class=""><use class=" Node Icon" width="10" height="55" fill="#9900ff" stroke="#9900ff" href="#Ellipse"/></g></g><g id="fdec9" class="" transform="translate(31 8)"  ><g class=""><use class=" Node Icon" width="10" height="55" fill="#9900ff" stroke="#9900ff" href="#Ellipse"/></g></g></g></g><g id="a485a" class="Label" transform="translate(239.67 237)"  name="Cytoskeleton" ><g class="Label"/><text   transform="translate(59.5,10)"    font-weight="bold"  style="fill:#999;font-size:16px">Cytoskeleton</text></g><g id="ac227" class="Label" transform="translate(120.67 493)"  name="Synapsin P+" ><g class="Label"/><text   transform="translate(43.5,10)"     style="font-size:12px">Synapsin P+</text></g><g id="bb777" class="Label" transform="translate(153.67 449)"  name="Vesicle  Release" ><g class="Label"/><text   transform="translate(36.5,19)"    font-weight="bold"  style="font-size:14px"><tspan   x="0" y="-7.70">Vesicle </tspan><tspan   x="0" y="7.70">Release</tspan></text></g><g id="cc457" class="Label" transform="translate(519.79 317.27)"  name="Monoamines" ><g class="Label"/><text   transform="translate(40,10)"     style="font-size:11px">Monoamines</text></g><g id="b4859" class="Metabolite " transform="translate(1143.7 210)"  name="L-Glutamine" ><rect   width="80" height="20" style="stroke:#00f"/><text   transform="translate(40,10)"     style="fill:#00f">L-Glutamine</text></g><g id="d661d" class="Metabolite " transform="translate(1125.7 168)"  name="Dopamine" ><rect   width="80" height="20" style="stroke:#00f"/><text   transform="translate(40,10)"     style="fill:#00f">Dopamine</text></g><g id="e274f" class="GeneProduct " transform="translate(415.67 273)"  name="RAB3A" ><rect   width="80" height="20"/><text   transform="translate(40,10)"    >RAB3A</text></g><g id="fde94" class="Metabolite " transform="translate(909 505.69)"  name="ATP" ><rect   width="57" height="20" style="stroke:#00f"/><text   transform="translate(28.5,10)"     style="fill:#00f">ATP</text></g><g id="f16a0" class="GroupGroup" transform="translate(148.67 307)"  ><g class="GroupGroup"><g id="b44b1" class="GeneProduct " transform="translate(8,8)"  name="SYN1" ><rect   width="80" height="20"/><text   transform="translate(40,10)"    >SYN1</text></g><g id="add75" class="GeneProduct " transform="translate(8 28)"  name="SYN2" ><rect   width="80" height="20"/><text   transform="translate(40,10)"    >SYN2</text></g><g id="af7c1" class="GeneProduct " transform="translate(8 48)"  name="SYN3" ><rect   width="80" height="20"/><text   transform="translate(40,10)"    >SYN3</text></g></g></g><g id="d1891" class="GeneProduct " transform="translate(194.67 391)"  name="SYT1" ><rect   width="80" height="20"/><text   transform="translate(40,10)"    >SYT1</text></g><g id="fd54a" class="GeneProduct " transform="translate(310.67 384)"  name="VAMP2" ><rect   width="80" height="20"/><text   transform="translate(40,10)"    >VAMP2</text></g><g id="e51ff" class="Edge"  ><path    d="m196.67 383-54.25 110" style="stroke:#999;marker-end:url(#mea999)"/></g><g id="ae15e" class="Label" transform="translate(314.67 163)"  name="Early Vesicle Trafficking" ><g class="Label"/><text   transform="translate(103.17 10)"    font-weight="bold"  style="fill:#00f;font-size:15px">Early Vesicle Trafficking</text></g><g id="b0bf0" class="Label" transform="translate(413.67 212)"  name="Anterograde Transport from the Trans-Golgi Network" ><g class="Label"/><text   transform="translate(78.17 23.5)"    font-weight="bold"  style="fill:#999;font-size:12px"><tspan   x="0" y="-13.20">Anterograde Transport</tspan><tspan   x="0" y="0">from the Trans-Golgi</tspan><tspan   x="0" y="13.20">Network</tspan></text></g><g id="e9687" class="Label" transform="translate(95.67 585)"  name="Presynaptic membrane" ><g class="Label"/><text   transform="translate(93,10)"    font-weight="bold"  style="fill:#999;font-size:15px">Presynaptic membrane</text></g><g id="afd60" class="GroupGroup" transform="translate(385.67 540)"  ><g class="GroupGroup"><g id="c8b69" class="GeneProduct " transform="translate(8 28)"  name="STX1B" ><rect   width="80" height="20"/><text   transform="translate(40,10)"    >STX1B</text></g><g id="d1b19" class="GeneProduct " transform="translate(8 48)"  name="STX2" ><rect   width="80" height="20"/><text   transform="translate(40,10)"    >STX2</text></g><g id="a9296" class="GeneProduct " transform="translate(8,8)"  name="STX1A" ><rect   width="80" height="20"/><text   transform="translate(40,10)"    >STX1A</text></g><g id="b4e7c" class="GeneProduct " transform="translate(8 68)"  name="STX3" ><rect   width="80" height="20"/><text   transform="translate(40,10)"    >STX3</text></g></g></g><g id="c4597" class="GroupGroup" transform="translate(233.17 291.5)"  ><g class="GroupGroup"><g id="a651a" class="" transform="translate(46.46 81.19)"  ><g class=""><use class=" Node Icon" width="7" height="53" fill="#ccc" stroke="#000" href="#Ellipse"/></g></g><g id="ef69d" class=" PhysicalEntity CellularComponent Nucleus" transform="translate(8 8) rotate(-0.40 46.13 46.1)"  ><g class=" PhysicalEntity CellularComponent Nucleus" filter="url(#doublefalse3filter)"><g class=" PhysicalEntity CellularComponent Nucleus"><use class=" PhysicalEntity CellularComponent Nucleus Node Icon" transform="matrix(0.88 0 0 0.88 5.31 5.31)" width="92.27" height="92.20" fill="transparent" stroke="#c0c0c0" stroke-width="3" href="#Ellipse"/></g></g></g><g id="d9494" class="" transform="translate(29.46 40.19)"  ><g class=""><use class=" Node Icon" width="11.5" height="11.5" fill="#ff6633" stroke="#000" href="#Ellipse"/></g></g><g id="dee6c" class="" transform="translate(49.46 60.19)"  ><g class=""><use class=" Node Icon" width="11.5" height="11.5" fill="#ff6633" stroke="#000" href="#Ellipse"/></g></g><g id="f88a9" class="" transform="translate(73.46 56.19)"  ><g class=""><use class=" Node Icon" width="11.5" height="11.5" fill="#ff6633" stroke="#000" href="#Ellipse"/></g></g><g id="e9ec4" class="" transform="translate(61.46 28.19)"  ><g class=""><use class=" Node Icon" width="11.5" height="11.5" fill="#ff6633" stroke="#000" href="#Ellipse"/></g></g><g id="fd112" class="" transform="translate(65.46 74.19)"  ><g class=""><use class=" Node Icon" width="8" height="52" fill="#f0f" stroke="#f0f" href="#Ellipse"/></g></g><g id="da5f2" class="" transform="translate(52.46 119.19)"  ><g class=""><use class=" Node Icon" width="35" height="7" fill="#f0f" stroke="#f0f" href="#Ellipse"/></g></g></g></g><g id="c293f" class="GeneProduct " transform="translate(562.67 590)"  name="SNAP25" ><rect   width="80" height="20"/><text   transform="translate(40,10)"    >SNAP25</text></g><g id="a5429" class="Label" transform="translate(439.67 629)"  name="Active Zone T-SNARES" ><g class="Label"/><text   transform="translate(86,10)"    font-weight="bold"  style="font-size:14px">Active Zone T-SNARES</text></g><g id="c4cde" class="GeneProduct " transform="translate(204.67 562)"  name="RIMS1" ><rect   width="80" height="20"/><text   transform="translate(40,10)"    >RIMS1</text></g><g id="d265d" class="GeneProduct " transform="translate(369.67 506)"  name="STXBP1" ><rect   width="80" height="20"/><text   transform="translate(40,10)"    >STXBP1</text></g><g id="a7ac5" class="GroupGroup" transform="translate(241.17 448.5)"  ><g class="GroupGroup"><g id="ec23d" class="" transform="translate(54.46 79.5)"  ><g class=""><use class=" Node Icon" width="7" height="40.69" fill="#ccc" stroke="#000" href="#Ellipse"/></g></g><g id="bda6c" class=" PhysicalEntity CellularComponent Nucleus" transform="translate(8 8) rotate(-0.40 46.13 46.1)"  ><g class=" PhysicalEntity CellularComponent Nucleus" filter="url(#doublefalse3filter)"><g class=" PhysicalEntity CellularComponent Nucleus"><use class=" PhysicalEntity CellularComponent Nucleus Node Icon" transform="matrix(0.88 0 0 0.88 5.31 5.31)" width="92.27" height="92.20" fill="transparent" stroke="#c0c0c0" stroke-width="3" href="#Ellipse"/></g></g></g><g id="e61ba" class="" transform="translate(29.46 40.19)"  ><g class=""><use class=" Node Icon" width="11.5" height="11.5" fill="#ff6633" stroke="#000" href="#Ellipse"/></g></g><g id="d49ec" class="" transform="translate(49.46 60.19)"  ><g class=""><use class=" Node Icon" width="11.5" height="11.5" fill="#ff6633" stroke="#000" href="#Ellipse"/></g></g><g id="c2e2c" class="" transform="translate(73.46 56.19)"  ><g class=""><use class=" Node Icon" width="11.5" height="11.5" fill="#ff6633" stroke="#000" href="#Ellipse"/></g></g><g id="bf8d6" class="" transform="translate(61.46 28.19)"  ><g class=""><use class=" Node Icon" width="11.5" height="11.5" fill="#ff6633" stroke="#000" href="#Ellipse"/></g></g><g id="d12f7" class="" transform="translate(75.46 70.5)"  ><g class=""><use class=" Node Icon" width="8" height="43.69" fill="#f0f" stroke="#f0f" href="#Ellipse"/></g></g><g id="a05bf" class="" transform="translate(62.46 107.19)"  ><g class=""><use class=" Node Icon" width="35" height="7" fill="#f0f" stroke="#f0f" href="#Ellipse"/></g></g></g></g><g id="a0532" class="GeneProduct " transform="translate(204.67 539)"  name="RAB3A" ><rect   width="80" height="20"/><text   transform="translate(40,10)"    >RAB3A</text></g><g id="cdc33" class="Label" transform="translate(282.67 565)"  name="Docking" ><g class="Label"/><text   transform="translate(46.5,10)"    font-weight="bold"  style="font-size:14px">Docking</text></g><g id="c9ab3" class="GroupGroup" transform="translate(455.17 451.5)"  ><g class="GroupGroup"><g id="d3e47" class="" transform="translate(52.46 77.5)"  ><g class=""><use class=" Node Icon" width="7" height="40.69" fill="#ccc" stroke="#000" href="#Ellipse"/></g></g><g id="daf1a" class=" PhysicalEntity CellularComponent Nucleus" transform="translate(8 8) rotate(-0.40 46.13 46.1)"  ><g class=" PhysicalEntity CellularComponent Nucleus" filter="url(#doublefalse3filter)"><g class=" PhysicalEntity CellularComponent Nucleus"><use class=" PhysicalEntity CellularComponent Nucleus Node Icon" transform="matrix(0.88 0 0 0.88 5.31 5.31)" width="92.27" height="92.20" fill="transparent" stroke="#c0c0c0" stroke-width="3" href="#Ellipse"/></g></g></g><g id="ddaf4" class="" transform="translate(29.46 40.19)"  ><g class=""><use class=" Node Icon" width="11.5" height="11.5" fill="#ff6633" stroke="#000" href="#Ellipse"/></g></g><g id="a63df" class="" transform="translate(49.46 60.19)"  ><g class=""><use class=" Node Icon" width="11.5" height="11.5" fill="#ff6633" stroke="#000" href="#Ellipse"/></g></g><g id="ead45" class="" transform="translate(73.46 56.19)"  ><g class=""><use class=" Node Icon" width="11.5" height="11.5" fill="#ff6633" stroke="#000" href="#Ellipse"/></g></g><g id="ec320" class="" transform="translate(61.46 28.19)"  ><g class=""><use class=" Node Icon" width="11.5" height="11.5" fill="#ff6633" stroke="#000" href="#Ellipse"/></g></g><g id="dc87a" class="" transform="translate(75.46 70.5)"  ><g class=""><use class=" Node Icon" width="8" height="43.69" fill="#f0f" stroke="#f0f" href="#Ellipse"/></g></g><g id="cc1b5" class="" transform="translate(62.46 107.19)"  ><g class=""><use class=" Node Icon" width="35" height="7" fill="#f0f" stroke="#f0f" href="#Ellipse"/></g></g></g></g><g id="f0791" class="GroupGroup" transform="translate(354.67 411)"  ><g class="GroupGroup"><g id="b7060" class="GeneProduct " transform="translate(8,48)"  name="UNC13C" ><rect   width="80" height="20"/><text   transform="translate(40,10)"    >UNC13C</text></g><g id="fff67" class="GeneProduct " transform="translate(8,28)"  name="UNC13B" ><rect   width="80" height="20"/><text   transform="translate(40,10)"    >UNC13B</text></g><g id="c7e20" class="GeneProduct " transform="translate(8,8)"  name="UNC13A" ><rect   width="80" height="20"/><text   transform="translate(40,10)"    >UNC13A</text></g></g></g><g id="ff701" class="Label" transform="translate(356.67 480)"  name="Priming" ><g class="Label"/><text   transform="translate(46.5,10)"    font-weight="bold"  style="font-size:14px">Priming</text></g><g id="d8248" class="GroupGroup" transform="translate(562.67 491)"  ><g class="GroupGroup"><g id="ed976" class="GeneProduct " transform="translate(8 48)"  name="CPLX3" ><rect   width="80" height="20"/><text   transform="translate(40,10)"    >CPLX3</text></g><g id="ce37c" class="GeneProduct " transform="translate(8 28)"  name="CPLX2" ><rect   width="80" height="20"/><text   transform="translate(40,10)"    >CPLX2</text></g><g id="a5502" class="GeneProduct " transform="translate(8,8)"  name="CPLX1" ><rect   width="80" height="20"/><text   transform="translate(40,10)"    >CPLX1</text></g></g></g><g id="d3469" class="Label" transform="translate(587.67 413)"  name="NSF Attachment Proteins" ><g class="Label"/><text   transform="translate(95.5,13)"    font-weight="bold"  style="font-size:12px">NSF Attachment Proteins</text></g><g id="f25fa" class="GeneProduct " transform="translate(643.67 438)"  name="NAPA" ><rect   width="80" height="20"/><text   transform="translate(40,10)"    >NAPA</text></g><g id="bd181" class="GeneProduct " transform="translate(643.67 458)"  name="NSF" ><rect   width="80" height="20"/><text   transform="translate(40,10)"    >NSF</text></g><g id="a9640" class="Metabolite " transform="translate(665.67 646)"  name="Ca2+" ><rect   width="60" height="20" style="stroke:#00f"/><text   transform="translate(30,10)"    font-weight="bold"  style="fill:#00f;font-size:14px">Ca2+</text></g><g id="a3fc1" class="GeneProduct " transform="translate(662.67 574)"  name="CACNA1A" ><rect   width="80" height="20"/><text   transform="translate(40,10)"    >CACNA1A</text></g><g id="d5dd5" class="GeneProduct " transform="translate(662.67 594)"  name="CACNA1B" ><rect   width="80" height="20"/><text   transform="translate(40,10)"    >CACNA1B</text></g><g id="d4ade" class="GroupGroup" transform="translate(776.17 459.5)"  ><g class="GroupGroup"><g id="d1a8e" class="" transform="translate(40.46 79.5)"  ><g class=""><use class=" Node Icon" width="7" height="40.69" fill="#ccc" stroke="#000" href="#Ellipse"/></g></g><g id="b4e40" class=" PhysicalEntity CellularComponent Nucleus" transform="translate(8 8) rotate(-0.40 46.13 46.1)"  ><g class=" PhysicalEntity CellularComponent Nucleus" filter="url(#doublefalse3filter)"><g class=" PhysicalEntity CellularComponent Nucleus"><use class=" PhysicalEntity CellularComponent Nucleus Node Icon" transform="matrix(0.88 0 0 0.88 5.31 5.31)" width="92.27" height="92.20" fill="transparent" stroke="#c0c0c0" stroke-width="3" href="#Ellipse"/></g></g></g><g id="a2320" class="" transform="translate(25.46 40.19)"  ><g class=""><use class=" Node Icon" width="11.5" height="11.5" fill="#ff6633" stroke="#000" href="#Ellipse"/></g></g><g id="ef0d1" class="" transform="translate(45.46 60.19)"  ><g class=""><use class=" Node Icon" width="11.5" height="11.5" fill="#ff6633" stroke="#000" href="#Ellipse"/></g></g><g id="fdab7" class="" transform="translate(69.46 56.19)"  ><g class=""><use class=" Node Icon" width="11.5" height="11.5" fill="#ff6633" stroke="#000" href="#Ellipse"/></g></g><g id="d9c5e" class="" transform="translate(57.46 28.19)"  ><g class=""><use class=" Node Icon" width="11.5" height="11.5" fill="#ff6633" stroke="#000" href="#Ellipse"/></g></g><g id="ad388" class="" transform="translate(57.46 72.5)"  ><g class=""><use class=" Node Icon" width="8" height="43.69" fill="#f0f" stroke="#f0f" href="#Ellipse"/></g></g><g id="ea48f" class="" transform="translate(44.46 109.19)"  ><g class=""><use class=" Node Icon" width="35" height="7" fill="#f0f" stroke="#f0f" href="#Ellipse"/></g></g></g></g><g id="f9f1a" class="GroupGroup" transform="translate(804.67 564)"  ><g class="GroupGroup"><g id="f95ae" class="" transform="translate(8 8)"  ><g class=""><use class=" Node Icon" width="47" height="11" fill="#9900ff" stroke="#9900ff" href="#Ellipse"/></g></g><g id="b7419" class="" transform="translate(21,8)"  ><g class=""><use class=" Node Icon" width="10" height="55" fill="#9900ff" stroke="#9900ff" href="#Ellipse"/></g></g><g id="c221b" class="" transform="translate(31,8)"  ><g class=""><use class=" Node Icon" width="10" height="55" fill="#9900ff" stroke="#9900ff" href="#Ellipse"/></g></g></g></g><g id="b2440" class="GeneProduct " transform="translate(473.67 446)"  name="RAB3A" ><rect   width="80" height="20"/><text   transform="translate(40,10)"    >RAB3A</text></g><g id="afd29" class="" transform="translate(931.67 590) rotate(180 23.5 17.5)"  ><g class=""><use class=" Node Icon" width="47" height="35" fill="transparent" stroke="#000" href="#ArcPathVisio"/></g></g><g id="f59b0" class="" transform="translate(939.62 617.69)"  ><g class=""><use class=" Node Icon" width="11.5" height="11.5" fill="#ff6633" stroke="#000" href="#Ellipse"/></g></g><g id="fa72d" class="" transform="translate(955.62 631.69)"  ><g class=""><use class=" Node Icon" width="11.5" height="11.5" fill="#ff6633" stroke="#000" href="#Ellipse"/></g></g><g id="aabd9" class="" transform="translate(953.62 599.69)"  ><g class=""><use class=" Node Icon" width="11.5" height="11.5" fill="#ff6633" stroke="#000" href="#Ellipse"/></g></g><g id="aaacc" class="" transform="translate(971.62 617.69)"  ><g class=""><use class=" Node Icon" width="11.5" height="11.5" fill="#ff6633" stroke="#000" href="#Ellipse"/></g></g><g id="aaa01" class="Label" transform="translate(787.67 637)"  name="Synaptic cleft" ><g class="Label"/><text   transform="translate(59.5,10)"    font-weight="bold"  style="fill:#999;font-size:16px">Synaptic cleft</text></g><g id="eb0f1" class="Label" transform="translate(623.67 661)"  name="(upon deplolarization)" ><g class="Label"/><text   transform="translate(70.5,10)"    font-weight="bold"  style="fill:#999;font-size:12px">(upon deplolarization)</text></g><g id="c1936" class="Metabolite " transform="translate(930.72 531.69)"  name="ADP" ><rect   width="57" height="20" style="stroke:#00f"/><text   transform="translate(28.5,10)"     style="fill:#00f">ADP</text></g><g id="ec353" class="Label" transform="translate(911.67 568)"  name="Fusion" ><g class="Label"/><text   transform="translate(46.5,10)"    font-weight="bold"  style="font-size:14px">Fusion</text></g><g id="c956b" class="GeneProduct " transform="translate(723.67 542)"  name="SYP" ><rect   width="56" height="20"/><text   transform="translate(28,10)"    >SYP</text></g><g id="f5779" class="Label" transform="translate(711.67 510)"  name="Pore Formation" ><g class="Label"/><text   transform="translate(39.5,17)"    font-style="italic"  style="font-size:12px"><tspan   x="0" y="-6.60">Pore</tspan><tspan   x="0" y="6.60">Formation</tspan></text></g><g id="e0d65" class="Metabolite " transform="translate(663.67 527)"  name="Ca2+" ><rect   width="60" height="20" style="stroke:#00f"/><text   transform="translate(30,10)"    font-weight="bold"  style="fill:#00f;font-size:14px">Ca2+</text></g><g id="a5d5c" class="Edge"  ><path    d="m990.67 581h214" style="marker-end:none"/></g><g id="d31ba" class="Edge"  ><path    d="m977.67 608h238" style="marker-end:none"/></g><g id="d2388" class="Edge"  ><path    d="m1243.7 552v31" style="marker-end:none"/></g><g id="dea39" class="Edge"  ><path    d="m1243.7 584-27 24" style="marker-end:none"/></g><g id="bcbb8" class="Edge"  ><path    d="m1004.7 29.33 239 521.67" style="marker-end:none"/></g><g id="f103a" class="Edge"  ><path    d="m1213.7 551v19" style="marker-end:none"/></g><g id="ab871" class="Edge"  ><path    d="m1213.7 570-9 11" style="marker-end:none"/></g><g id="e3d2c" class="Edge"  ><path    d="m979.67 41.33 234 509.67" style="marker-end:none"/></g><g id="d0c0e" class=" PhysicalEntity CellularComponent Nucleus" transform="translate(1054.2 495.5) rotate(-0.40 46.13 46.1)"  ><g class=" PhysicalEntity CellularComponent Nucleus" filter="url(#doublefalse3filter)"><g class=" PhysicalEntity CellularComponent Nucleus"><use class=" PhysicalEntity CellularComponent Nucleus Node Icon" transform="matrix(0.88 0 0 0.88 5.31 5.31)" width="92.27" height="92.20" fill="transparent" stroke="#c0c0c0" stroke-width="3" href="#Ellipse"/></g></g></g><g id="bef37" class="" transform="translate(1073.7 573.5)"  ><g class=""><use class=" Node Icon" width="52" height="25.5" fill="#fff" stroke="#fff" href="#Ellipse"/></g></g><g id="c2795" class="Edge"  ><path    d="m1065.7 506-19-18" style="marker-end:url(#meminhibition000)"/></g><g id="f90ad" class="Edge"  ><path    d="m1049.7 543h-23" style="marker-end:url(#meminhibition000)"/></g><g id="caac7" class="Edge"  ><path    d="m1151.7 543h21" style="marker-end:url(#meminhibition000)"/></g><g id="b50cb" class="Edge"  ><path    d="m1132.7 503 20-13" style="marker-end:url(#meminhibition000)"/></g><g id="b2a4f" class="GeneProduct " transform="translate(1031.7 563)"  name="DNM1" ><rect   width="62" height="20"/><text   transform="translate(31,10)"    >DNM1</text></g><g id="c7e34" class="GeneProduct " transform="translate(1031.7 583)"  name="DNM1L" ><rect   width="62" height="20"/><text   transform="translate(31,10)"    >DNM1L</text></g><g id="c2a75" class="GeneProduct " transform="translate(1109.7 563)"  name="DNM2" ><rect   width="62" height="20"/><text   transform="translate(31,10)"    >DNM2</text></g><g id="d190b" class="GeneProduct " transform="translate(1109.7 583)"  name="DNM3" ><rect   width="62" height="20"/><text   transform="translate(31,10)"    >DNM3</text></g><g id="c947a" class="GroupGroup" transform="translate(1055.7 399)"  ><g class="GroupGroup"><g id="b82d5" class="GeneProduct " transform="translate(8,8)"  name="CLTA" ><rect   width="80" height="20"/><text   transform="translate(40,10)"    >CLTA</text></g><g id="a3858" class="GeneProduct " transform="translate(8,28)"  name="CLTC" ><rect   width="80" height="20"/><text   transform="translate(40,10)"    >CLTC</text></g><g id="de755" class="GeneProduct " transform="translate(8,48)"  name="CLTCL1" ><rect   width="80" height="20"/><text   transform="translate(40,10)"    >CLTCL1</text></g></g></g><g id="e2abf" class="GroupGroup" transform="translate(959.67 394)"  ><g class="GroupGroup"><g id="af09e" class="GeneProduct " transform="translate(8,88)"  name="AP2S1" ><rect   width="80" height="20"/><text   transform="translate(40,10)"    >AP2S1</text></g><g id="d93a7" class="GeneProduct " transform="translate(8,8)"  name="AP2A1" ><rect   width="80" height="20"/><text   transform="translate(40,10)"    >AP2A1</text></g><g id="cc5cb" class="GeneProduct " transform="translate(8,28)"  name="AP2A2" ><rect   width="80" height="20"/><text   transform="translate(40,10)"    >AP2A2</text></g><g id="d3a90" class="GeneProduct " transform="translate(8,48)"  name="AP2B1" ><rect   width="80" height="20"/><text   transform="translate(40,10)"    >AP2B1</text></g><g id="dfb56" class="GeneProduct " transform="translate(8,68)"  name="AP2M1" ><rect   width="80" height="20"/><text   transform="translate(40,10)"    >AP2M1</text></g></g></g><g id="d9a3f" class="Label" transform="translate(1014.7 363)"  name="Endocytosis" ><g class="Label"/><text   transform="translate(51.5,10)"    font-weight="bold"  style="font-size:14px">Endocytosis</text></g><g id="a7ef0" class=" PhysicalEntity CellularComponent Nucleus" transform="translate(933.17 276.5) rotate(-0.40 46.13 46.1)"  ><g class=" PhysicalEntity CellularComponent Nucleus" filter="url(#doublefalse3filter)"><g class=" PhysicalEntity CellularComponent Nucleus"><use class=" PhysicalEntity CellularComponent Nucleus Node Icon" transform="matrix(0.88 0 0 0.88 5.31 5.31)" width="92.27" height="92.20" fill="transparent" stroke="#c0c0c0" stroke-width="3" href="#Ellipse"/></g></g></g><g id="f0ff3" class=" PhysicalEntity CellularComponent Nucleus" transform="translate(682.17 279.5) rotate(-0.40 46.13 46.1)"  ><g class=" PhysicalEntity CellularComponent Nucleus" filter="url(#doublefalse3filter)"><g class=" PhysicalEntity CellularComponent Nucleus"><use class=" PhysicalEntity CellularComponent Nucleus Node Icon" transform="matrix(0.88 0 0 0.88 5.31 5.31)" width="92.27" height="92.20" fill="transparent" stroke="#c0c0c0" stroke-width="3" href="#Ellipse"/></g></g></g><g id="caa26" class="Edge"  ><path    d="m1042.7 343 20-13" style="marker-end:url(#meminhibition000)"/></g><g id="a88eb" class="Edge"  ><path    d="m1027.7 295 17-16" style="marker-end:url(#meminhibition000)"/></g><g id="be63e" class="Edge"  ><path    d="m1041.7 303h21" style="marker-end:url(#meminhibition000)"/></g><g id="e45fe" class="GroupGroup" transform="translate(639.67 221)"  ><g class="GroupGroup"><g id="a2a0b" class="GeneProduct " transform="translate(48 68)"  name="SLC32A1" ><rect   width="80" height="20"/><text   transform="translate(40,10)"    >SLC32A1</text></g><g id="f0434" class="GeneProduct " transform="translate(8 48)"  name="SLC17A8" ><rect   width="80" height="20"/><text   transform="translate(40,10)"    >SLC17A8</text></g><g id="e5e9a" class="GeneProduct " transform="translate(8 28)"  name="SLC17A7" ><rect   width="80" height="20"/><text   transform="translate(40,10)"    >SLC17A7</text></g><g id="bef5d" class="GeneProduct " transform="translate(8,8)"  name="SLC17A6" ><rect   width="80" height="20"/><text   transform="translate(40,10)"    >SLC17A6</text></g><g id="a9ddb" class="GeneProduct " transform="translate(90,8)"  name="SLC18A1" ><rect   width="80" height="20"/><text   transform="translate(40,10)"    >SLC18A1</text></g><g id="a7876" class="GeneProduct " transform="translate(90 28)"  name="SLC18A2" ><rect   width="80" height="20"/><text   transform="translate(40,10)"    >SLC18A2</text></g><g id="c9747" class="GeneProduct " transform="translate(90 48)"  name="SLC18A3" ><rect   width="80" height="20"/><text   transform="translate(40,10)"    >SLC18A3</text></g></g></g><g id="aa850" class="Label" transform="translate(640.67 371)"  name="Neurotransmitter Uptake" ><g class="Label"/><text   transform="translate(86,13)"     style="font-size:12px">Neurotransmitter Uptake</text></g><g id="e9f9a" class="Label" transform="translate(664.14 195)"  name="Neurotransmitter" ><g class="Label"/><text   transform="translate(58,13)"     style="font-size:12px">Neurotransmitter</text></g><g id="fbe1f" class="" transform="translate(704.62 179.69)"  ><g class=""><use class=" Node Icon" width="11.5" height="11.5" fill="#ff6633" stroke="#000" href="#Ellipse"/></g></g><g id="c6f35" class="" transform="translate(730.62 185.69)"  ><g class=""><use class=" Node Icon" width="11.5" height="11.5" fill="#ff6633" stroke="#000" href="#Ellipse"/></g></g><g id="b59a9" class="" transform="translate(724.62 343.69)"  ><g class=""><use class=" Node Icon" width="11.5" height="11.5" fill="#ff6633" stroke="#000" href="#Ellipse"/></g></g><g id="d880d" class="" transform="translate(742.62 319.69)"  ><g class=""><use class=" Node Icon" width="11.5" height="11.5" fill="#ff6633" stroke="#000" href="#Ellipse"/></g></g><g id="e6d2a" class="GeneProduct " transform="translate(633.67 318)"  name="SLC32A1" ><rect   width="61" height="20"/><text   transform="translate(30.5,10)"    >SLC32A1</text></g><g id="d2da9" class="Edge"  ><path    d="m933 364-16.33 7" style="marker-end:url(#meminhibition000)"/></g><g id="d5f1d" class="GroupGroup" transform="translate(1011.7 150)"  ><g class="GroupGroup"><g id="ceab9" class="GeneProduct " transform="translate(8,8)"  name="SLC22A3" ><rect   width="80" height="20"/><text   transform="translate(40,10)"    >SLC22A3</text></g><g id="d20d3" class="GeneProduct " transform="translate(8 28)"  name="PARK7" ><rect   width="80" height="20"/><text   transform="translate(40,10)"    >PARK7</text></g></g></g><g id="bfbb1" class="GeneProduct " transform="translate(1039.7 210)"  name="SLC38A1" ><rect   width="80" height="20"/><text   transform="translate(40,10)"    >SLC38A1</text></g><g id="bb569" class="" transform="translate(957.64 173.69)"  ><g class=""><use class=" Node Icon" width="14.19" height="13.54" fill="#ff6633" stroke="#000" href="#Ellipse"/></g></g><g id="c4f70" class="" transform="translate(1213.6 171.69)"  ><g class=""><use class=" Node Icon" width="11.5" height="11.5" fill="#ff6633" stroke="#000" href="#Ellipse"/></g></g><g id="be90e" class="GroupGroup" transform="translate(982.67 78)"  ><g class="GroupGroup"><g id="b6c71" class="GeneProduct " transform="translate(8,28)"  name="SLC1A3" ><rect   width="80" height="20"/><text   transform="translate(40,10)"    >SLC1A3</text></g><g id="bbd69" class="GeneProduct " transform="translate(8 48)"  name="CLN8" ><rect   width="80" height="20"/><text   transform="translate(40,10)"    >CLN8</text></g><g id="e0abd" class="GeneProduct " transform="translate(8,8)"  name="SLC25A4" ><rect   width="80" height="20"/><text   transform="translate(40,10)"    >SLC25A4</text></g></g></g><g id="ed4e3" class="Edge"  ><path    d="m1039.7 220-37 3e-14"/></g><g id="f14ad" class="" transform="translate(982.2 215.69)"  ><g class=""><use class=" Node Icon" width="11.93" height="12.67" fill="#ff6633" stroke="#000" href="#Ellipse"/></g></g><g id="bc856" class="" transform="translate(1230.6 213.69)"  ><g class=""><use class=" Node Icon" width="11.5" height="11.5" fill="#ff6633" stroke="#000" href="#Ellipse"/></g></g><g id="f0d71" class="Metabolite " transform="translate(1157.7 244)"  name="Serotonin" ><rect   width="80" height="20" style="stroke:#00f"/><text   transform="translate(40,10)"     style="fill:#00f">Serotonin</text></g><g id="ee98b" class="GeneProduct " transform="translate(1047.7 244)"  name="SLC6A4" ><rect   width="80" height="20"/><text   transform="translate(40,10)"    >SLC6A4</text></g><g id="aaa70" class="Edge"  ><path    d="m1157.7 254h-30" style="marker-end:none"/></g><g id="c5821" class="Edge"  ><path    d="m1047.7 254-31-1e-14"/></g><g id="eed95" class="" transform="translate(1244.6 247.69)"  ><g class=""><use class=" Node Icon" width="11.5" height="11.5" fill="#ff6633" stroke="#000" href="#Ellipse"/></g></g><g id="ea041" class="" transform="translate(995.7 249.69)"  ><g class=""><use class=" Node Icon" width="14.42" height="11.20" fill="#ff6633" stroke="#000" href="#Ellipse"/></g></g><g id="dd404" class="Metabolite " transform="translate(1099.4 106.75)"  name="Glutamate" ><rect   width="80" height="20" style="stroke:#00f"/><text   transform="translate(40,10)"     style="fill:#00f">Glutamate</text></g><g id="a1324" class="" transform="translate(929.4 111.69)"  ><g class=""><use class=" Node Icon" width="12.72" height="12.31" fill="#ff6633" stroke="#000" href="#Ellipse"/></g></g><g id="cd5ed" class="" transform="translate(1183.6 109.69)"  ><g class=""><use class=" Node Icon" width="11.5" height="11.5" fill="#ff6633" stroke="#000" href="#Ellipse"/></g></g><g id="a9af9" class="Edge"  ><path    d="m1099.4 116.75-20.73-0.75" style="marker-end:none"/></g><g id="a2351" class="Edge"  ><path    d="m982.67 116h-34.67"/></g><g id="b5b5b" class="GeneProduct " transform="translate(965.67 56)"  name="ATP1A2" ><rect   width="80" height="20"/><text   transform="translate(40,10)"    >ATP1A2</text></g><g id="b1cc0" class="Label" transform="translate(1069,53)"  name="Neurotransmitter" ><g class="Label"/><text   transform="translate(52.33 13)"     style="font-size:12px">Neurotransmitter</text></g><g id="d8165" class="Edge"  ><path    d="m1069 66-23.33 6e-14" style="marker-end:none"/></g><g id="b5f2b" class="" transform="translate(909.15 61.69)"  ><g class=""><use class=" Node Icon" width="12.98" height="14.43" fill="#ff6633" stroke="#000" href="#Ellipse"/></g></g><g id="e2e24" class="Edge"  ><path    d="m965.67 66-37.67-6e-14"/></g><g id="bdf02" class="Edge"  ><path    d="m929.4 117.85h-46.95v90.15h-102.32"/></g><g id="cc5e1" class="Edge"  ><path    d="m957.64 180.46h-74.89v27.54h-102.62"/></g><g id="ceef2" class="Edge"  ><path    d="m982.2 222.03h-99.74v-14.03h-102.32"/></g><g id="f04f1" class="Edge"  ><path    d="m995.7 255.29h-113.54v-47.30h-102.03"/></g></g></g></g></svg>