<?xml version="1.0" encoding="UTF-8"?>
<!--
  WikiPathways page: https://www.wikipathways.org/index.php/Pathway:WP229
  URL for this compressed file: https://github.com/eweitz/cachome/tree/main/data/WP229.svg
  Source code for compression: https://github.com/eweitz/cachome/tree/main/src/wikipathways.py
-->
<svg id="wp229-svg" class="Diagram" width="800" height="600" color="black" baseProfile="full" prefix="schema:http://schema.org/" preserveAspectRatio="xMidYMid" version="1.1" viewBox="0 0 771 888.67" vocab="http://vocabularies.wikipathways.org/wp#" xmlns="http://www.w3.org/2000/svg" xmlns:xlink="http://www.w3.org/1999/xlink"><style>svg {font-family: 'Liberation Sans', Arial, sans-serif; }</style><defs><g id="jit-defs"><filter id="kaaviodoublefalse3filter" x="-50%" y="-50%" width="200%" height="200%"><feComposite in="SourceGraphic" in2="SourceGraphic" result="doubleDark"/><feMorphology in="doubleDark" operator="dilate" radius="0.16666666666666666" result="in2Double"/><feMorphology in="SourceGraphic" operator="dilate" radius="3" result="inDouble"/><feComposite in="inDouble" in2="in2Double" operator="out" result="doubleResult"/></filter><filter id="kaavioblackto000000filter" x="0" y="0" width="771" height="888.67" filterUnits="userSpaceOnUse"><feColorMatrix in="SourceGraphic" values="-1   0   0 0 0                   0  -1   0 0 0                   0   0  -1 0 0                   0   0   0 1 0"/></filter><filter id="kaavioblackto0080fffilter" x="0" y="0" width="771" height="888.67" filterUnits="userSpaceOnUse"><feColorMatrix in="SourceGraphic" values="-1   0   0 0 0                   0  -1   0 0 0.5019607843137255                   0   0  -1 0 1                   0   0   0 1 0"/></filter><filter id="kaavioblacktoff8080filter" x="0" y="0" width="771" height="888.67" filterUnits="userSpaceOnUse"><feColorMatrix in="SourceGraphic" values="-1   0   0 0 1                   0  -1   0 0 0.5019607843137255                   0   0  -1 0 0.5019607843137255                   0   0   0 1 0"/></filter><filter id="kaavioblackto0099fffilter" x="0" y="0" width="771" height="888.67" filterUnits="userSpaceOnUse"><feColorMatrix in="SourceGraphic" values="-1   0   0 0 0                   0  -1   0 0 0.6                   0   0  -1 0 1                   0   0   0 1 0"/></filter></g><g id="jic-defs"><marker id="markerEndArrow" stroke-dasharray="99999" markerHeight="12" markerUnits="userSpaceOnUse" markerWidth="12" orient="auto" preserveAspectRatio="none" refX="12" refY="6" viewBox="0 0 12 12"><path transform="rotate(180 6 6)" d="M12 11L0 6l12-5z" fill="currentColor" stroke-width="0"/></marker><marker id="markerEndMimCatalysis" stroke-dasharray="99999" markerHeight="12" markerUnits="userSpaceOnUse" markerWidth="12" orient="auto" preserveAspectRatio="none" refX="12" refY="6" viewBox="0 0 12 12"><circle transform="rotate(180 6 6)" cx="6" cy="6" r="5.3" fill="none" stroke="#000"/></marker><marker id="markerEndMimConversion" stroke-dasharray="99999" markerHeight="12" markerUnits="userSpaceOnUse" markerWidth="12" orient="auto" preserveAspectRatio="none" refX="12" refY="6" viewBox="0 0 12 12"><path transform="rotate(180 6 6)" d="M12 11L0 6l12-5z" fill="currentColor" stroke-width="0"/></marker><symbol id="none" preserveAspectRatio="none" viewBox="0 0 100 100"/></g></defs><g id="WP229" class="Viewport" color="black"  name="Name: Irinotecan pathway Organism: Homo sapiens"><rect id="WP229-icon" class="Icon" width="771" height="888.67" fill="#fff" stroke="#000" stroke-width="0"/><g id="a4c48" class="DirectedInteraction" color="#0080ff" ><g color="#0080ff" fill="transparent"  filter="url(#kaavioblackto0080fffilter)" stroke="#000" stroke-dasharray="152.10046090988956, 5.8"><path id="a4c48" class="EdgeBody" d="m474.33 410 105.67 117.33"   marker-end="url(#markerEndArrow)" /></g><g id="ce2fe" class="Burr Anchor" transform="translate(528.59 470.25)" ><use id="ce2fe-icon" class="Icon" width="0" height="0" fill="#141414" stroke-width="0" xlink:href="#none"/></g></g><g id="dfc34" class="Edge GraphicalLine DirectedInteraction" color="#000" ><g color="#000" fill="transparent"  filter="url(#kaavioblackto000000filter)" stroke="#000" stroke-dasharray="6, 3.6, 6, 3.6, 6, 3.6, 6, 3.6, 0, 5.8"><path id="dfc34" class="EdgeBody" d="m364.31 319.7 24.283-34.377"   marker-end="url(#markerEndArrow)" /></g></g><g id="a5b4c" class="DirectedInteraction" color="#0080ff" ><g color="#0080ff" fill="transparent"  filter="url(#kaavioblackto0080fffilter)" stroke="#000" stroke-dasharray="251.86666666666662, 5.8"><path id="a5b4c" class="EdgeBody" d="m156.67 135h257.67"   marker-end="url(#markerEndArrow)" /></g><g id="a16ee" class="Burr Anchor" transform="translate(242.65 135)" ><use id="a16ee-icon" class="Icon" width="0" height="0" fill="#141414" stroke-width="0" xlink:href="#none"/></g></g><g id="a87c6" class="DirectedInteraction" color="#ff8080" ><g color="#ff8080" fill="transparent"  filter="url(#kaavioblacktoff8080filter)" stroke="#000" stroke-dasharray="101.86666666666663, 5.8"><path id="a87c6" class="EdgeBody" d="m357.67 735v107.67"   marker-end="url(#markerEndArrow)" /></g></g><g id="aac68" class="Interaction" color="#0080ff" ><g color="#0080ff" fill="transparent"  filter="url(#kaavioblackto0080fffilter)" stroke="#000" stroke-dasharray="259.9629704871675, 5.8"><path id="aac68" class="EdgeBody" d="m580.38 735-1e-13 8.8333c1e-13 8.8333 1e-13 26.5-34.618 35.333-34.618 8.8333-103.86 8.8333-138.47 0-34.618-8.8333-34.618-26.5-34.618-35.333l3e-14 -8.8333"   marker-end="url(#markerEndMimConversion)" /></g></g><g id="b2ae0" class="Interaction" color="#0080ff" ><g color="#0080ff" fill="transparent"  filter="url(#kaavioblackto0080fffilter)" stroke="#000" stroke-dasharray="163.2560224089637, 5.8"><path id="b2ae0" class="EdgeBody" d="m387.67 725h169.06"   marker-end="url(#markerEndMimConversion)" /></g><g id="dd9b6" class="Burr Anchor" transform="translate(455.29 725)" ><use id="dd9b6-icon" class="Icon" width="0" height="0" fill="#141414" stroke-width="0" xlink:href="#none"/></g></g><g id="b414d" class="DirectedInteraction" color="#0080ff" ><g color="#0080ff" fill="transparent"  filter="url(#kaavioblackto0080fffilter)" stroke="#000" stroke-dasharray="73.46495655796916, 5.8"><path id="b414d" class="EdgeBody" d="m377.31 340.2 52.027 59.801"   marker-end="url(#markerEndArrow)" /></g><g id="e06a9" class="Burr Anchor" transform="translate(408.28 375.8)" ><use id="e06a9-icon" class="Icon" width="0" height="0" fill="#141414" stroke-width="0" xlink:href="#none"/></g></g><g id="b709c" class="Interaction" color="#0080ff" ><g color="#0080ff" fill="transparent"  filter="url(#kaavioblackto0080fffilter)" stroke="#000" stroke-dasharray="165.19999999999993, 5.8"><path id="b709c" class="EdgeBody" d="m156.67 725h171"   marker-end="url(#markerEndMimConversion)" /></g><g id="c708e" class="Burr Anchor" transform="translate(225.07 725)" ><use id="c708e-icon" class="Icon" width="0" height="0" fill="#141414" stroke-width="0" xlink:href="#none"/></g></g><g id="c1e2c" class="Interaction" color="#0080ff" ><g color="#0080ff" fill="transparent"  filter="url(#kaavioblackto0080fffilter)" stroke="#000" stroke-dasharray="209.74788073393086, 5.8"><path id="c1e2c" class="EdgeBody" d="m136.67 400 147.33-157.33"   marker-end="url(#markerEndMimConversion)" /></g><g id="dda8b" class="Burr Anchor" transform="translate(233.89 296.17)" ><use id="dda8b-icon" class="Icon" width="0" height="0" fill="#141414" stroke-width="0" xlink:href="#none"/></g></g><g id="c4e2c" class="DirectedInteraction" color="#0080ff" ><g color="#0080ff" fill="transparent"  filter="url(#kaavioblackto0080fffilter)" stroke="#000" stroke-dasharray="200.97760552691392, 5.8"><path id="c4e2c" class="EdgeBody" d="m156.67 410 194.64-69.801"   marker-end="url(#markerEndArrow)" /></g><g id="d1429" class="Burr Anchor" transform="translate(214.76 389.17)" ><use id="d1429-icon" class="Icon" width="0" height="0" fill="#141414" stroke-width="0" xlink:href="#none"/></g></g><g id="cd671" class="DirectedInteraction" color="#0080ff" ><g color="#0080ff" fill="transparent"  filter="url(#kaavioblackto0080fffilter)" stroke="#000" stroke-dasharray="401.8185735170462, 5.8"><path id="cd671" class="EdgeBody" d="m474.33 410 19.111-6e-14c19.111 6e-14 57.333 6e-14 76.444-35.167 19.111-35.167 19.111-105.5-2.5-140.67-21.611-35.167-64.833-35.167-86.444-44.167-21.611-9-21.611-27-21.611-36l4e-14 -9"   marker-end="url(#markerEndArrow)" /></g><g id="e34b2" class="Burr Anchor" transform="translate(513.38 199)" ><use id="e34b2-icon" class="Icon" width="0" height="0" fill="#141414" stroke-width="0" xlink:href="#none"/></g></g><g id="d5590" class="DirectedInteraction" color="#0080ff" ><g color="#0080ff" fill="transparent"  filter="url(#kaavioblackto0080fffilter)" stroke="#000" stroke-dasharray="161.86708994970138, 5.8"><path id="d5590" class="EdgeBody" d="m580 547.33 0.37675 167.67"   marker-end="url(#markerEndArrow)" /></g><g id="e5e80" class="Burr Anchor" transform="translate(580.12 601.36)" ><use id="e5e80-icon" class="Icon" width="0" height="0" fill="#141414" stroke-width="0" xlink:href="#none"/></g></g><g id="c3c0d" class="DirectedInteraction" color="#000" ><g color="#000" fill="transparent"  filter="url(#kaavioblackto000000filter)" stroke="#000" stroke-dasharray="88.97664011426399, 5.8"><path id="c3c0d" class="EdgeBody" d="m667.09 563.68-86.965 37.68"   marker-end="url(#markerEndArrow)" /></g></g><g id="d5fe6" class="DirectedInteraction" color="#ff8080" ><g color="#ff8080" fill="transparent"  filter="url(#kaavioblacktoff8080filter)" stroke="#000" stroke-dasharray="87.86681494650188, 5.8"><path id="d5fe6" class="EdgeBody" d="m474.33 135 93.667 0.16667"   marker-end="url(#markerEndArrow)" /></g></g><g id="d6434" class="DirectedInteraction" color="#0080ff" ><g color="#0080ff" fill="transparent"  filter="url(#kaavioblackto0080fffilter)" stroke="#000" stroke-dasharray="249.2, 5.8"><path id="d6434" class="EdgeBody" d="m444.33 145v255"   marker-end="url(#markerEndArrow)" /></g><g id="b4fd1" class="Burr Anchor" transform="translate(444.33 190.42)" ><use id="b4fd1-icon" class="Icon" width="0" height="0" fill="#141414" stroke-width="0" xlink:href="#none"/></g></g><g id="d6a1f" class="DirectedInteraction" color="#0080ff" ><g color="#0080ff" fill="transparent"  filter="url(#kaavioblackto0080fffilter)" stroke="#000" stroke-dasharray="312.41733012746687, 5.8"><path id="d6a1f" class="EdgeBody" d="m444.33 420-4e-14 21.333c0 21.333 0 64-11.944 85.333-11.944 21.333-35.833 21.333-47.778 49.167-11.944 27.833-11.944 83.5-11.944 111.33l3e-14 27.833"   marker-end="url(#markerEndArrow)" /></g><g id="d686a" class="Burr Anchor" transform="translate(377.36 603.1)" ><use id="d686a-icon" class="Icon" width="0" height="0" fill="#141414" stroke-width="0" xlink:href="#none"/></g></g><g id="df6a5" class="DirectedInteraction" color="#000" ><g color="#000" fill="transparent"  filter="url(#kaavioblackto000000filter)" stroke="#000" stroke-dasharray="111.96652659429559, 5.8"><path id="df6a5" class="EdgeBody" d="m517.87 316.48-0.49256-117.77"   marker-end="url(#markerEndArrow)" /></g></g><g id="e9631" class="DirectedInteraction" color="#0080ff" ><g color="#0080ff" fill="transparent"  filter="url(#kaavioblackto0080fffilter)" stroke="#000" stroke-dasharray="289.2, 5.8"><path id="e9631" class="EdgeBody" d="m116.67 420v295"   marker-end="url(#markerEndArrow)" /></g><g id="b89e3" class="Burr Anchor" transform="translate(116.67 607)" ><use id="b89e3-icon" class="Icon" width="0" height="0" fill="#141414" stroke-width="0" xlink:href="#none"/></g></g><g id="ea697" class="DirectedInteraction" color="#0080ff" ><g color="#0080ff" fill="transparent"  filter="url(#kaavioblackto0080fffilter)" stroke="#000" stroke-dasharray="249.2, 5.8"><path id="ea697" class="EdgeBody" d="m96.667 145v255"   marker-end="url(#markerEndArrow)" /></g></g><g id="f4540" class="DirectedInteraction" color="#0080ff" ><g color="#0080ff" fill="transparent"  filter="url(#kaavioblackto0080fffilter)" stroke="#000" stroke-dasharray="348.93400097115085, 5.8"><path id="f4540" class="EdgeBody" d="m136.67 420-3e-14 10c3e-14 10 3e-14 30 48.778 40 48.778 10 146.33 10 195.11 0 48.778-10 48.778-30 48.778-40l4e-14 -10"   marker-end="url(#markerEndArrow)" /></g><g id="fc826" class="Burr Anchor" transform="translate(283.83 477.5)" ><use id="fc826-icon" class="Icon" width="0" height="0" fill="#141414" stroke-width="0" xlink:href="#none"/></g></g><g id="febf4" class="Interaction" color="#0080ff" ><g color="#0080ff" fill="transparent"  filter="url(#kaavioblackto0080fffilter)" stroke="#000" stroke-dasharray="189.6777566376571, 5.8"><path id="febf4" class="EdgeBody" d="m116.67 400 93.77-171.52"   marker-end="url(#markerEndMimConversion)" /></g><g id="ec38f" class="Burr Anchor" transform="translate(155.39 329.16)" ><use id="ec38f-icon" class="Icon" width="0" height="0" fill="#141414" stroke-width="0" xlink:href="#none"/></g></g><g id="id3e0947ec" class="DirectedInteraction" color="#000" ><g color="#000" fill="transparent"  filter="url(#kaavioblackto000000filter)" stroke="#000" stroke-dasharray="53.43476313648647, 5.8"><path id="id3e0947ec" class="EdgeBody" d="m400.33 230.07 44.006-39.651"   marker-end="url(#markerEndArrow)" /></g></g><g id="id86d54c24" class="Interaction" color="#000" ><g color="#000" fill="transparent"  filter="url(#kaavioblackto000000filter)" stroke="#000" stroke-dasharray="32.04138937404902, 11"><path id="id86d54c24" class="EdgeBody" d="m275.13 283.84-41.237 12.333"   marker-end="url(#markerEndMimCatalysis)" /></g></g><g id="caf06" class="Interaction" color="#000" ><g color="#000" fill="transparent"  filter="url(#kaavioblackto000000filter)" stroke="#000" stroke-dasharray="31.250007196494813, 11"><path id="caf06" class="EdgeBody" d="m548.36 432.91-19.765 37.342"   marker-end="url(#markerEndMimCatalysis)" /></g></g><g id="f3996" class="DirectedInteraction" color="#000" ><g color="#000" fill="transparent"  filter="url(#kaavioblackto000000filter)" stroke="#000" stroke-dasharray="92.35272419252553, 5.8"><path id="f3996" class="EdgeBody" d="m457.93 542.66-76.95 60.932"   marker-end="url(#markerEndArrow)" /></g></g><g id="b587f" class="Interaction" color="#000" ><g color="#000" fill="transparent"  filter="url(#kaavioblackto000000filter)" stroke="#000" stroke-dasharray="10.795270828944993, 11"><path id="b587f" class="EdgeBody" d="m283.71 501.78 0.083692-21.795"   marker-end="url(#markerEndMimCatalysis)" /></g></g><g id="b6a36" class="Interaction" color="#0099ff" ><g color="#0099ff" fill="transparent"  filter="url(#kaavioblackto0099fffilter)" stroke="#000" stroke-dasharray="29.84232460679369, 0"><path id="b6a36" class="EdgeBody" d="m436.04 702.2 19.253 22.801"   /></g></g><g id="ee2f1" class="DirectedInteraction" color="#000" ><g color="#000" fill="transparent"  filter="url(#kaavioblackto000000filter)" stroke="#000" stroke-dasharray="78.49721505454129, 5.8"><path id="ee2f1" class="EdgeBody" d="m171.92 543.34-55.254 63.663"   marker-end="url(#markerEndArrow)" /></g></g><g id="id58ffe001" class="Interaction" color="#000" ><g color="#000" fill="transparent"  filter="url(#kaavioblackto000000filter)" stroke="#000" stroke-dasharray="32.51235186843666, 11"><path id="id58ffe001" class="EdgeBody" d="m128.35 295.07 27.039 34.091"   marker-end="url(#markerEndMimCatalysis)" /></g></g><g id="idae8e4255" class="DirectedInteraction" color="#000" ><g color="#000" fill="transparent"  filter="url(#kaavioblackto000000filter)" stroke="#000" stroke-dasharray="21.506851625210256, 5.8"><path id="idae8e4255" class="EdgeBody" d="m384.88 389.87 23.402-14.072"   marker-end="url(#markerEndArrow)" /></g></g><g id="id3177d278" class="Interaction" color="#000" ><g color="#000" fill="transparent"  filter="url(#kaavioblackto000000filter)" stroke="#000" stroke-dasharray="13.879131679055483, 11"><path id="id3177d278" class="EdgeBody" d="m242.44 110.12 0.20529 24.878"   marker-end="url(#markerEndMimCatalysis)" /></g></g><g id="ab64b" class="DirectedInteraction" color="#000" ><g color="#000" fill="transparent"  filter="url(#kaavioblackto000000filter)" stroke="#000" stroke-dasharray="31.770402211737956, 5.8"><path id="ab64b" class="EdgeBody" d="m255.48 702.94-30.412 22.06"   marker-end="url(#markerEndArrow)" /></g></g><g id="id791c7646" class="Interaction" color="#000" ><g color="#000" fill="transparent"  filter="url(#kaavioblackto000000filter)" stroke="#000" stroke-dasharray="26.552009264070975, 11"><path id="id791c7646" class="EdgeBody" d="m250.8 399.72-36.038-10.556"   marker-end="url(#markerEndMimCatalysis)" /></g></g><g id="b9d36" class="SingleFreeNode Shape" transform="translate(42.55 189.5)" color="#c0c0c0" ><g fill="transparent"  filter="url(#kaaviodoublefalse3filter)" stroke="#c0c0c0" stroke-width="3"><rect id="b9d36-icon" class="Icon" transform="matrix(.9831 0 0 .97176 5.8986 5.8306)" width="698" height="413" rx="15" ry="15"   /></g></g><g id="f2732" class="SingleFreeNode Shape" transform="translate(43.5,636.5)" color="#c0c0c0" ><g fill="transparent"  filter="url(#kaaviodoublefalse3filter)" stroke="#c0c0c0" stroke-width="3"><rect id="f2732-icon" class="Icon" transform="matrix(.98312 0 0 .93023 5.8987 5.5814)" width="699" height="160" rx="15" ry="15"   /></g></g><g id="d2c" class="Label" transform="translate(220.54 9.5281)" color="#000"  name="Model human liver cell showing blood, bile and intestinal compartments, indicating tissue involvment of genes in the irinotecan pathway."><use id="d2c-icon" class="Icon" width="438" height="35" fill="transparent"  stroke="#000" stroke-width="0" xlink:href="#none"/><text id="d2c-text" class="Text" transform="translate(219,20.5)" fill="#000"  font-size="10px" font-style="italic" stroke="white" stroke-width="0" text-anchor="middle"><tspan x="0" y="-5.5">Model human liver cell showing blood, bile and intestinal compartments, indicating tissue</tspan> <tspan x="0" y="5.5">involvment of genes in the irinotecan pathway.</tspan></text></g><g id="d64" class="Label" transform="translate(325 842.67)" color="#00f"  name="Diarrhea"><use id="d64-icon" class="Icon" width="65.33333333333333" height="16" fill="transparent"  stroke="#00f" stroke-width="0" xlink:href="#none"/><text id="d64-text" class="Text" transform="translate(32.667 11)" fill="#00f"  font-size="11px" font-weight="bold" stroke="white" stroke-width="0" text-anchor="middle"><tspan x="0" y="0">Diarrhea</tspan></text></g><g id="f0f" class="Label" transform="translate(626.17 647.83)" color="#999"  name="Intestine"><use id="f0f-icon" class="Icon" width="70.33333333333333" height="19" fill="transparent"  stroke="#999" stroke-width="0" xlink:href="#none"/><text id="f0f-text" class="Text" transform="translate(35.167 13.5)" fill="#999"  font-size="12px" font-weight="bold" stroke="black" stroke-width="0" text-anchor="middle"><tspan x="0" y="0">Intestine</tspan></text></g><g id="fad" class="Label" transform="translate(568 127)" color="#00f"  name="Neutropenia"><use id="fad-icon" class="Icon" width="71.83333333333333" height="16.333333333333332" fill="transparent"  stroke="#00f" stroke-width="0" xlink:href="#none"/><text id="fad-text" class="Text" transform="translate(35.917 11.167)" fill="#00f"  font-size="11px" font-weight="bold" stroke="white" stroke-width="0" text-anchor="middle"><tspan x="0" y="0">Neutropenia</tspan></text></g><g id="ffe" class="Label" transform="translate(635.17 211)" color="#999"  name="Liver Cell"><use id="ffe-icon" class="Icon" width="76.33333333333333" height="21.166666666666686" fill="transparent"  stroke="#999" stroke-width="0" xlink:href="#none"/><text id="ffe-text" class="Text" transform="translate(38.167 14.583)" fill="#999"  font-size="12px" font-weight="bold" stroke="black" stroke-width="0" text-anchor="middle"><tspan x="0" y="0">Liver Cell</tspan></text></g><a id="a1e" class="ChEBI_CHEBI_8990 Metabolite  " transform="translate(556.72 715)" color="#00f"  name="SN-38G"  ><rect id="a1e-icon" class="Icon" transform="matrix(.9793 0 0 .95238 .48965 .47619)" width="47.308" height="20" fill="#fff" stroke="#00f"/><text id="a1e-text" class="Text" transform="translate(23.654 13)" fill="#00f"  font-size="10px" stroke="white" stroke-width="0" text-anchor="middle"><tspan x="0" y="0">SN-38G</tspan></text></a><a  id="aa3" class="GeneProduct ABCC2 " transform="translate(637.09 543.68)"   name="ABCC2"  ><rect id="aa3-icon" class="Icon" transform="matrix(.98361 0 0 .95238 .4918 .47619)" width="60" height="20" fill="#fff" stroke="#000"/><text id="aa3-text" class="Text" transform="translate(30,13)" fill="#000"  font-size="10px" stroke="white" stroke-width="0" text-anchor="middle"><tspan x="0" y="0">ABCC2</tspan></text></a><a id="b4030" class="ChEBI_CHEBI_80630 Metabolite  " transform="translate(76.667 715)" color="#00f"  name="Irinotecan"  ><rect id="b4030-icon" class="Icon" transform="matrix(.98765 0 0 .95238 .49383 .47619)" width="80" height="20" fill="#fff" stroke="#00f"/><text id="b4030-text" class="Text" transform="translate(40,13)" fill="#00f"  font-size="10px" stroke="white" stroke-width="0" text-anchor="middle"><tspan x="0" y="0">Irinotecan</tspan></text></a><a  id="b6274" class="GeneProduct NPC1 " transform="translate(338.31 319.7)"   name="NPC1"  ><rect id="b6274-icon" class="Icon" transform="matrix(.98113 0 0 .95349 .49057 .47674)" width="52" height="20.5" fill="#fff" stroke="#000"/><text id="b6274-text" class="Text" transform="translate(26,14.25)" fill="#000"  font-size="12px" stroke="white" stroke-width="0" text-anchor="middle"><tspan x="0" y="0">NPC1</tspan></text></a><a  id="b9a" class="GeneProduct CYP3A4 " transform="translate(275.13 273.84)"   name="CYP3A4"  ><rect id="b9a-icon" class="Icon" transform="matrix(.98361 0 0 .95238 .4918 .47619)" width="60" height="20" fill="#fff" stroke="#000"/><text id="b9a-text" class="Text" transform="translate(30,13)" fill="#000"  font-size="10px" stroke="white" stroke-width="0" text-anchor="middle"><tspan x="0" y="0">CYP3A4</tspan></text></a><a id="bfe" class="ChEBI_CHEBI_8988 Metabolite  " transform="translate(414.33 125)" color="#00f"  name="SN-38"  ><rect id="bfe-icon" class="Icon" transform="matrix(.98361 0 0 .95238 .4918 .47619)" width="60" height="20" fill="#fff" stroke="#00f"/><text id="bfe-text" class="Text" transform="translate(30,13)" fill="#00f"  font-size="10px" stroke="white" stroke-width="0" text-anchor="middle"><tspan x="0" y="0">SN-38</tspan></text></a><a id="c2f" class="ChEBI_CHEBI_8990 Metabolite  " transform="translate(550 527.33)" color="#0033ff"  name="SN-38G"  ><rect id="c2f-icon" class="Icon" transform="matrix(.98361 0 0 .95238 .4918 .47619)" width="60" height="20" fill="#fff" stroke="#03f"/><text id="c2f-text" class="Text" transform="translate(30,13)" fill="#0033ff"  font-size="10px" stroke="white" stroke-width="0" text-anchor="middle"><tspan x="0" y="0">SN-38G</tspan></text></a><a id="c3f" class="ChEBI_CHEBI_8988 Metabolite  " transform="translate(327.67 715)" color="#00f"  name="SN-38"  ><rect id="c3f-icon" class="Icon" transform="matrix(.98361 0 0 .95238 .4918 .47619)" width="60" height="20" fill="#fff" stroke="#00f"/><text id="c3f-text" class="Text" transform="translate(30,13)" fill="#00f"  font-size="10px" stroke="white" stroke-width="0" text-anchor="middle"><tspan x="0" y="0">SN-38</tspan></text></a><a  id="c8f" class="GeneProduct ABCC1 " transform="translate(492.95 296.48)"   name="ABCC1"  ><rect id="c8f-icon" class="Icon" transform="matrix(.98033 0 0 .95238 .49016 .47619)" width="49.826" height="20" fill="#fff" stroke="#000"/><text id="c8f-text" class="Text" transform="translate(24.913 13)" fill="#000"  font-size="10px" stroke="white" stroke-width="0" text-anchor="middle"><tspan x="0" y="0">ABCC1</tspan></text></a><a id="cd3" class="PubChem-compound_10077584 Metabolite ChEBI_CHEBI_80551  " transform="translate(254 222.67)" color="#00f"  name="APC"  ><rect id="cd3-icon" class="Icon" transform="matrix(.98361 0 0 .95238 .4918 .47619)" width="60" height="20" fill="#fff" stroke="#00f"/><text id="cd3-text" class="Text" transform="translate(30,13)" fill="#00f"  font-size="10px" stroke="white" stroke-width="0" text-anchor="middle"><tspan x="0" y="0">APC</tspan></text></a><g id="ded" class="Metabolite" transform="translate(180.44 208.48)" color="#00f"  name="M4"><rect id="ded-icon" class="Icon" transform="matrix(.98361 0 0 .95238 .4918 .47619)" width="60" height="20" fill="#fff" stroke="#00f"/><text id="ded-text" class="Text" transform="translate(30,13)" fill="#00f"  font-size="10px" stroke="white" stroke-width="0" text-anchor="middle"><tspan x="0" y="0">M4</tspan></text></g><a id="e7a" class="ChEBI_CHEBI_8988 Metabolite  " transform="translate(414.33 400)" color="#0033ff"  name="SN-38"  ><rect id="e7a-icon" class="Icon" transform="matrix(.98361 0 0 .95238 .4918 .47619)" width="60" height="20" fill="#fff" stroke="#03f"/><text id="e7a-text" class="Text" transform="translate(30,13)" fill="#0033ff"  font-size="10px" stroke="white" stroke-width="0" text-anchor="middle"><tspan x="0" y="0">SN-38</tspan></text></a><a id="ef2" class="ChEBI_CHEBI_80630 Metabolite  " transform="translate(76.667 125)" color="#00f"  name="Irinotecan"  ><rect id="ef2-icon" class="Icon" transform="matrix(.98765 0 0 .95238 .49383 .47619)" width="80" height="20" fill="#fff" stroke="#00f"/><text id="ef2-text" class="Text" transform="translate(40,13)" fill="#00f"  font-size="10px" stroke="white" stroke-width="0" text-anchor="middle"><tspan x="0" y="0">Irinotecan</tspan></text></a><a  id="f6030" class="GeneProduct SLCO1B1 " transform="translate(346.67 220.07)"   name="SLCO1B1"  ><rect id="f6030-icon" class="Icon" transform="matrix(.9817 0 0 .95238 .49085 .47619)" width="53.655" height="20" fill="#fff" stroke="#000"/><text id="f6030-text" class="Text" transform="translate(26.828 13)" fill="#000"  font-size="10px" stroke="white" stroke-width="0" text-anchor="middle"><tspan x="0" y="0">SLCO1B1</tspan></text></a><a id="f808d" class="ChEBI_CHEBI_80630 Metabolite  " transform="translate(76.667 400)" color="#00f"  name="Irinotecan"  ><rect id="f808d-icon" class="Icon" transform="matrix(.98765 0 0 .95238 .49383 .47619)" width="80" height="20" fill="#fff" stroke="#00f"/><text id="f808d-text" class="Text" transform="translate(40,13)" fill="#00f"  font-size="10px" stroke="white" stroke-width="0" text-anchor="middle"><tspan x="0" y="0">Irinotecan</tspan></text></a><g id="a3628" class="GroupGroup" transform="translate(548.36 404.91)" color="grey" ><use id="a3628-icon" class="Icon" width="76" height="55.99999999999994" fill="transparent"  stroke="grey" stroke-dasharray="5,3" stroke-width="0" xlink:href="#none"/><a  id="c92" class="GeneProduct UGT1A9 " transform="translate(8 28)"   name="UGT1A9"  ><rect id="c92-icon" class="Icon" transform="matrix(.98361 0 0 .95238 .4918 .47619)" width="60" height="20" fill="#fff" stroke="#000"/><text id="c92-text" class="Text" transform="translate(30,13)" fill="#000"  font-size="10px" stroke="white" stroke-width="0" text-anchor="middle"><tspan x="0" y="0">UGT1A9</tspan></text></a><a  id="d1d" class="GeneProduct UGT1A1 " transform="translate(8,8)"   name="UGT1A1"  ><rect id="d1d-icon" class="Icon" transform="matrix(.98361 0 0 .95238 .4918 .47619)" width="60" height="20" fill="#fff" stroke="#000"/><text id="d1d-text" class="Text" transform="translate(30 13)" fill="#000"  font-size="10px" stroke="white" stroke-width="0" text-anchor="middle"><tspan x="0" y="0">UGT1A1</tspan></text></a></g><g id="a97ed" class="GroupNone" transform="translate(456.93 503.66)" color="grey" ><rect id="a97ed-icon" class="Icon" transform="matrix(.98734 0 0 .98734 .49367 .49367)" width="78" height="78" fill="#b4b464" fill-opacity=".1" stroke="grey" stroke-dasharray="5,3"/><a  id="be5" class="GeneProduct ABCC1 " transform="translate(9,9)"   name="ABCC1"  ><rect id="be5-icon" class="Icon" transform="matrix(.98361 0 0 .95238 .4918 .47619)" width="60" height="20" fill="#fff" stroke="#000"/><text id="be5-text" class="Text" transform="translate(30,13)" fill="#000"  font-size="10px" stroke="white" stroke-width="0" text-anchor="middle"><tspan x="0" y="0">ABCC1</tspan></text></a><a  id="d03" class="GeneProduct ABCC2 " transform="translate(9,29)"   name="ABCC2"  ><rect id="d03-icon" class="Icon" transform="matrix(.98361 0 0 .95238 .4918 .47619)" width="60" height="20" fill="#fff" stroke="#000"/><text id="d03-text" class="Text" transform="translate(30,13)" fill="#000"  font-size="10px" stroke="white" stroke-width="0" text-anchor="middle"><tspan x="0" y="0">ABCC2</tspan></text></a><a  id="ec2" class="GeneProduct ABCG2 " transform="translate(9,49)"   name="ABCG2"  ><rect id="ec2-icon" class="Icon" transform="matrix(.98361 0 0 .95238 .4918 .47619)" width="60" height="20" fill="#fff" stroke="#000"/><text id="ec2-text" class="Text" transform="translate(30,13)" fill="#000"  font-size="10px" stroke="white" stroke-width="0" text-anchor="middle"><tspan x="0" y="0">ABCG2</tspan></text></a></g><g id="afef5" class="GroupNone" transform="translate(244.71 500.78)" color="grey" ><rect id="afef5-icon" class="Icon" transform="matrix(.98734 0 0 .98305 .49367 .49153)" width="78" height="58" fill="#b4b464" fill-opacity=".1" stroke="grey" stroke-dasharray="5,3"/><a  id="b6c" class="GeneProduct CES2 " transform="translate(9 29)"   name="CES2"  ><rect id="b6c-icon" class="Icon" transform="matrix(.98361 0 0 .95238 .4918 .47619)" width="60" height="20" fill="#fff" stroke="#000"/><text id="b6c-text" class="Text" transform="translate(30,13)" fill="#000"  font-size="10px" stroke="white" stroke-width="0" text-anchor="middle"><tspan x="0" y="0">CES2</tspan></text></a><a  id="cf6" class="GeneProduct CES1 " transform="translate(9,9)"   name="CES1"  ><rect id="cf6-icon" class="Icon" transform="matrix(.98361 0 0 .95238 .4918 .47619)" width="60" height="20" fill="#fff" stroke="#000"/><text id="cf6-text" class="Text" transform="translate(30,13)" fill="#000"  font-size="10px" stroke="white" stroke-width="0" text-anchor="middle"><tspan x="0" y="0">CES1</tspan></text></a></g><g id="c28da" class="GroupGroup" transform="translate(400.5 646.2)" color="grey" ><use id="c28da-icon" class="Icon" width="71.0728291316525" height="56" fill="transparent"  stroke="grey" stroke-dasharray="5,3" stroke-width="0" xlink:href="#none"/><a  id="a56" class="GeneProduct UGT1A10 " transform="translate(8 28)"   name="UGT1A10"  ><rect id="a56-icon" class="Icon" transform="matrix(.98217 0 0 .95238 .49108 .47619)" width="55.073" height="20" fill="#fff" stroke="#000"/><text id="a56-text" class="Text" transform="translate(27.536 13)" fill="#000"  font-size="10px" stroke="white" stroke-width="0" text-anchor="middle"><tspan x="0" y="0">UGT1A10</tspan></text></a><a  id="cf7" class="GeneProduct UGT1A1 " transform="translate(8,8)"   name="UGT1A1"  ><rect id="cf7-icon" class="Icon" transform="matrix(.98217 0 0 .95238 .49108 .47619)" width="55.073" height="20" fill="#fff" stroke="#000"/><text id="cf7-text" class="Text" transform="translate(27.536 13)" fill="#000"  font-size="10px" stroke="white" stroke-width="0" text-anchor="middle"><tspan x="0" y="0">UGT1A1</tspan></text></a></g><g id="ca8b0" class="GroupNone" transform="translate(132.92 486.34)" color="grey" ><rect id="ca8b0-icon" class="Icon" transform="matrix(.98734 0 0 .98305 .49367 .49153)" width="78" height="58" fill="#b4b464" fill-opacity=".1" stroke="grey" stroke-dasharray="5,3"/><a  id="c7f" class="GeneProduct ABCC2 " transform="translate(9,29)"   name="ABCC2"  ><rect id="c7f-icon" class="Icon" transform="matrix(.98361 0 0 .95238 .4918 .47619)" width="60" height="20" fill="#fff" stroke="#000"/><text id="c7f-text" class="Text" transform="translate(30,13)" fill="#000"  font-size="10px" stroke="white" stroke-width="0" text-anchor="middle"><tspan x="0" y="0">ABCC2</tspan></text></a><a  id="d30" class="GeneProduct ABCC1 " transform="translate(9,9)"   name="ABCC1"  ><rect id="d30-icon" class="Icon" transform="matrix(.98361 0 0 .95238 .4918 .47619)" width="60" height="20" fill="#fff" stroke="#000"/><text id="d30-text" class="Text" transform="translate(30,13)" fill="#000"  font-size="10px" stroke="white" stroke-width="0" text-anchor="middle"><tspan x="0" y="0">ABCC1</tspan></text></a></g><g id="d1057" class="GroupGroup" transform="translate(95.021 239.07)" color="grey" ><use id="d1057-icon" class="Icon" width="66.66666666666666" height="55.99999999999977" fill="transparent"  stroke="grey" stroke-dasharray="5,3" stroke-width="0" xlink:href="#none"/><a  id="cc6" class="GeneProduct CYP3A4 " transform="translate(8 8)"   name="CYP3A4"  ><rect id="cc6-icon" class="Icon" transform="matrix(.98065 0 0 .95238 .49032 .47619)" width="50.667" height="20" fill="#fff" stroke="#000"/><text id="cc6-text" class="Text" transform="translate(25.333 13)" fill="#000"  font-size="10px" stroke="white" stroke-width="0" text-anchor="middle"><tspan x="0" y="0">CYP3A4</tspan></text></a><a  id="ef5" class="GeneProduct CYP3A5 " transform="translate(8 28)"   name="CYP3A5"  ><rect id="ef5-icon" class="Icon" transform="matrix(.98065 0 0 .95238 .49032 .47619)" width="50.667" height="20" fill="#fff" stroke="#000"/><text id="ef5-text" class="Text" transform="translate(25.333 13)" fill="#000"  font-size="10px" stroke="white" stroke-width="0" text-anchor="middle"><tspan x="0" y="0">CYP3A5</tspan></text></a></g><g id="d6b18" class="GroupGroup" transform="translate(308.88 361.87)" color="grey" ><use id="d6b18-icon" class="Icon" width="76.00000000000006" height="56" fill="transparent"  stroke="grey" stroke-dasharray="5,3" stroke-width="0" xlink:href="#none"/><a  id="b81" class="GeneProduct CES1 " transform="translate(8,8)"   name="CES1"  ><rect id="b81-icon" class="Icon" transform="matrix(.98361 0 0 .95238 .4918 .47619)" width="60" height="20" fill="#fff" stroke="#000"/><text id="b81-text" class="Text" transform="translate(30 13)" fill="#000"  font-size="10px" stroke="white" stroke-width="0" text-anchor="middle"><tspan x="0" y="0">CES1</tspan></text></a><a  id="fb1" class="GeneProduct CES2 " transform="translate(8 28)"   name="CES2"  ><rect id="fb1-icon" class="Icon" transform="matrix(.98361 0 0 .95238 .4918 .47619)" width="60" height="20" fill="#fff" stroke="#000"/><text id="fb1-text" class="Text" transform="translate(30,13)" fill="#000"  font-size="10px" stroke="white" stroke-width="0" text-anchor="middle"><tspan x="0" y="0">CES2</tspan></text></a></g><g id="d7fa2" class="GroupGroup" transform="translate(208.39 34.122)" color="grey" ><use id="d7fa2-icon" class="Icon" width="68.1176470588236" height="75.99999999999999" fill="transparent"  stroke="grey" stroke-dasharray="5,3" stroke-width="0" xlink:href="#none"/><a  id="bcf" class="GeneProduct BCHE " transform="translate(8 8)"   name="BCHE"  ><rect id="bcf-icon" class="Icon" transform="matrix(.98117 0 0 .95238 .49059 .47619)" width="52.118" height="20" fill="#fff" stroke="#000"/><text id="bcf-text" class="Text" transform="translate(26.059 13)" fill="#000"  font-size="10px" stroke="white" stroke-width="0" text-anchor="middle"><tspan x="0" y="0">BCHE</tspan></text></a><a  id="bef" class="GeneProduct CES2 " transform="translate(8 28)"   name="CES2"  ><rect id="bef-icon" class="Icon" transform="matrix(.98117 0 0 .95238 .49059 .47619)" width="52.118" height="20" fill="#fff" stroke="#000"/><text id="bef-text" class="Text" transform="translate(26.059 13)" fill="#000"  font-size="10px" stroke="white" stroke-width="0" text-anchor="middle"><tspan x="0" y="0">CES2</tspan></text></a><a  id="c65" class="GeneProduct CES1 " transform="translate(8 48)"   name="CES1"  ><rect id="c65-icon" class="Icon" transform="matrix(.98117 0 0 .95238 .49059 .47619)" width="52.118" height="20" fill="#fff" stroke="#000"/><text id="c65-text" class="Text" transform="translate(26.059 13)" fill="#000"  font-size="10px" stroke="white" stroke-width="0" text-anchor="middle"><tspan x="0" y="0">CES1</tspan></text></a></g><g id="ebd3a" class="GroupNone" transform="translate(216.48 645.94)" color="grey" ><rect id="ebd3a-icon" class="Icon" transform="matrix(.98734 0 0 .98305 .49367 .49153)" width="78" height="58" fill="#b4b464" fill-opacity=".1" stroke="grey" stroke-dasharray="5,3"/><a  id="e81" class="GeneProduct CES2 " transform="translate(9,29)"   name="CES2"  ><rect id="e81-icon" class="Icon" transform="matrix(.98361 0 0 .95238 .4918 .47619)" width="60" height="20" fill="#fff" stroke="#000"/><text id="e81-text" class="Text" transform="translate(30,13)" fill="#000"  font-size="10px" stroke="white" stroke-width="0" text-anchor="middle"><tspan x="0" y="0">CES2</tspan></text></a><a  id="f50" class="GeneProduct CES1 " transform="translate(9,9)"   name="CES1"  ><rect id="f50-icon" class="Icon" transform="matrix(.98361 0 0 .95238 .4918 .47619)" width="60" height="20" fill="#fff" stroke="#000"/><text id="f50-text" class="Text" transform="translate(30,13)" fill="#000"  font-size="10px" stroke="white" stroke-width="0" text-anchor="middle"><tspan x="0" y="0">CES1</tspan></text></a></g><g id="ee5f0" class="GroupGroup" transform="translate(212.8 399.72)" color="grey" ><use id="ee5f0-icon" class="Icon" width="76" height="56" fill="transparent"  stroke="grey" stroke-dasharray="5,3" stroke-width="0" xlink:href="#none"/><a  id="e19" class="GeneProduct CYP3A5 " transform="translate(8,28)"   name="CYP3A5"  ><rect id="e19-icon" class="Icon" transform="matrix(.98361 0 0 .95238 .4918 .47619)" width="60" height="20" fill="#fff" stroke="#000"/><text id="e19-text" class="Text" transform="translate(30 13)" fill="#000"  font-size="10px" stroke="white" stroke-width="0" text-anchor="middle"><tspan x="0" y="0">CYP3A5</tspan></text></a><a  id="fe8" class="GeneProduct CYP3A4 " transform="translate(8,8)"   name="CYP3A4"  ><rect id="fe8-icon" class="Icon" transform="matrix(.98361 0 0 .95238 .4918 .47619)" width="60" height="20" fill="#fff" stroke="#000"/><text id="fe8-text" class="Text" transform="translate(30,13)" fill="#000"  font-size="10px" stroke="white" stroke-width="0" text-anchor="middle"><tspan x="0" y="0">CYP3A4</tspan></text></a></g><g id="f96b9" class="Label" transform="translate(343.59 260.32)" color="#00f"  name="NPC1"><rect id="f96b9-icon" class="Icon" transform="matrix(.98901 0 0 .96154 .49451 .48077)" width="90" height="25" rx="15" ry="15" fill="#fcc" stroke="#00f"/><text id="f96b9-text" class="Text" transform="translate(45,16.5)" fill="#00f"  font-size="12px" stroke="white" stroke-width="0" text-anchor="middle"><tspan x="0" y="0">NPC1</tspan></text></g><text id="WP229-text" class="Text" transform="translate(5,27)" dominant-baseline="central" fill="black"  font-size="12px" font-weight="bold" overflow="visible" stroke="white" stroke-width="0"><tspan x="0" y="-9">Name: Irinotecan pathway</tspan> <tspan x="0" y="9">Organism: Homo sapiens</tspan></text></g></svg>
