<?xml version="1.0" encoding="UTF-8"?>
<svg xmlns="http://www.w3.org/2000/svg" id="-svg" class="Diagram"  baseProfile="full" prefix="schema:http://schema.org/" preserveAspectRatio="xMidYMid"  version="1.1"><defs><g id="icon-defs"><symbol id="Ellipse" class=" Icon Ellipse" x="0" y="0" overflow="visible" preserveAspectRatio="none" viewBox="0 0 50 50"><desc>Ellipse</desc><ellipse cx="25" cy="25" rx="25" ry="25" vector-effect="non-scaling-stroke"/></symbol></g><g id="marker-defs"><marker id="mea" markerHeight="12" markerWidth="12" orient="auto" preserveAspectRatio="none" refX="12" refY="6" viewBox="0 0 12 12"><g id="g-mea" transform=""><g transform="rotate(180 6 6)"><rect y="5.4" width="2" height="1.2" style="stroke:#fff"/><polygon points="12 11 0 6 12 1" stroke-width="0"/></g></g></marker></g></defs><g id="viewport-20220102140445403" class="svg-pan-zoom_viewport" transform="matrix(0.64 0 0 0.64 165.79 0)" style="transform:matrix(0.64, 0, 0, 0.64, 165.79, 0)"><style>svg.Diagram {font-family: 'Liberation Sans', Arial, sans-serif; }.Diagram path {fill: transparent;stroke: #000;marker-end: url(#mea);}.Diagram symbol path {fill: inherit;stroke: inherit;stroke-width: inherit;marker-end: inherit;}.Diagram rect {fill: #fff;stroke: #000;}.Diagram text {dominant-baseline: central;overflow: hidden;text-anchor: middle;fill: #000;font-size: 10px;}</style><style type="text/css">.Viewport .textContent {
  pointer-events: none;
  stroke-width: 0px;
}

					.Viewport.Icon {
  fill: white;
}

/* Hide the InfoBox */
.Viewport.textContent {
  font-size: 0;
}

.textContent {
  stroke: none;
}

.DataNode {
  stroke-miterlimit: 1;
  pointer-events: auto;
}

.DataNode:hover {
  cursor: pointer;
}

/* TODO should this apply to things other than DataNodes? */
.DataNode.textContent {
  pointer-events: none;
}

.DataNode.Highlighted {
  opacity: 0.6;
  stroke-width: 0px;
}

marker {
  /* this is what should work per the spec
  stroke-dasharray: none; */
  /* but I need to add this to make it work in Safari */
  stroke-dasharray: 9999999999999999999999999;
}

.Citation.Icon {
  fill: none;
  stroke-width: 0px;
}

.Citation.textContent {
  text-align: center;
  vertical-align: top;
  font-size: 7px;
  fill: #999;
  fill-opacity: 1;
  stroke: none;
}</style><g id="WP236" class="Pathway http___identifiers_org_pw_PW_0000650 Viewport"  name="Name: Adipogenesis Organism: Homo sapiens" ><g class="Pathway http___identifiers_org_pw_PW_0000650 Viewport"><rect   width="1354.3" height="1043.3" style="stroke:none"/><g id="bd8e5" class="Edge"  ><path    d="m200 220 860-4.29e-6"/></g><g id="a0e" class="" transform="translate(23.91 237.98) rotate(-39.53 42.76 12.02)"  ><g class=""><use class=" Node Icon" width="85.52" height="24.04" fill="transparent" stroke="#000" href="#Ellipse"/></g></g><g id="f90" class="" transform="translate(59.55 242.88)"  ><g class=""><use class=" Node Icon" width="14.24" height="14.24" fill="#000" stroke="#000" href="#Ellipse"/></g></g><g id="bfd" class="" transform="translate(72.38 244.08) rotate(-39.97 44.29 12.59)"  ><g class=""><use class=" Node Icon" width="88.58" height="25.18" fill="transparent" stroke="#000" href="#Ellipse"/></g></g><g id="ec6" class="" transform="translate(106.67 253.71)"  ><g class=""><use class=" Node Icon" width="13.33" height="12.58" fill="#000" stroke="#000" href="#Ellipse"/></g></g><g id="f27" class="" transform="translate(113.33 140.73) rotate(45.10 13.33 42.61)"  ><g class=""><use class=" Node Icon" width="26.67" height="85.21" fill="transparent" stroke="#000" href="#Ellipse"/></g></g><g id="ee5" class="" transform="translate(120.81 174.1)"  ><g class=""><use class=" Node Icon" width="11.72" height="11.80" fill="#000" stroke="#000" href="#Ellipse"/></g></g><g id="eaf" class="" transform="translate(135.94 180.58) rotate(-42.48 40.73 12.76)"  ><g class=""><use class=" Node Icon" width="81.46" height="25.52" fill="transparent" stroke="#000" href="#Ellipse"/></g></g><g id="c06" class="" transform="translate(169.99 185.86)"  ><g class=""><use class=" Node Icon" width="13.36" height="14.95" fill="#000" stroke="#000" href="#Ellipse"/></g></g><g id="cfa" class="" transform="translate(1183.3 190.55)"  ><g class=""><use class=" Node Icon" width="66.69" height="45.57" fill="transparent" stroke="#000" href="#Ellipse"/></g></g><g id="fda" class="" transform="translate(1202.6 204.43) rotate(5.83 7.43 5.57)"  ><g class=""><use class=" Node Icon" width="14.87" height="11.14" fill="#000" stroke="#000" href="#Ellipse"/></g></g><g id="d14" class="" transform="translate(1205.9 234.03)"  ><g class=""><use class=" Node Icon" width="68.27" height="45.28" fill="#fff" stroke="#000" href="#Ellipse"/></g></g><g id="dbc" class="" transform="translate(1250.6 197.49)"  ><g class=""><use class=" Node Icon" width="65.44" height="45.03" fill="transparent" stroke="#000" href="#Ellipse"/></g></g><g id="e73" class="" transform="translate(1145 228.27)"  ><g class=""><use class=" Node Icon" width="63.33" height="43.45" fill="transparent" stroke="#000" href="#Ellipse"/></g></g><g id="e7b" class="" transform="translate(1150 152.5)"  ><g class=""><use class=" Node Icon" width="66.76" height="41.67" fill="transparent" stroke="#000" href="#Ellipse"/></g></g><g id="c67" class="" transform="translate(1219 156.51) rotate(15.92 34.38 20.16)"  ><g class=""><use class=" Node Icon" width="68.75" height="40.31" fill="transparent" stroke="#000" href="#Ellipse"/></g></g><g id="edf" class="" transform="translate(1113.3 189.96)"  ><g class=""><use class=" Node Icon" width="66.76" height="40.09" fill="transparent" stroke="#000" href="#Ellipse"/></g></g><g id="b23" class="" transform="translate(1223.9 240.16) rotate(6.69 6.11 6.51)"  ><g class=""><use class=" Node Icon" width="12.22" height="13.02" fill="#000" stroke="#000" href="#Ellipse"/></g></g><g id="a00" class="" transform="translate(1270 210) rotate(3.02 6.67 6.67)"  ><g class=""><use class=" Node Icon" width="13.33" height="13.33" fill="#000" stroke="#000" href="#Ellipse"/></g></g><g id="a74" class="" transform="translate(1176.7 163.33) rotate(-8.68 6.67 6.67)"  ><g class=""><use class=" Node Icon" width="13.35" height="13.33" fill="#000" stroke="#000" href="#Ellipse"/></g></g><g id="a53" class="" transform="translate(1170.1 243.33) rotate(6.51 6.58 6.67)"  ><g class=""><use class=" Node Icon" width="13.16" height="13.33" fill="#000" stroke="#000" href="#Ellipse"/></g></g><g id="a82" class="" transform="translate(1245.8 170) rotate(12.04 7.54 6.67)"  ><g class=""><use class=" Node Icon" width="15.09" height="13.33" fill="#000" stroke="#000" href="#Ellipse"/></g></g><g id="e1f" class="" transform="translate(1141.4 203.33) rotate(-8.79 8.56 6.67)"  ><g class=""><use class=" Node Icon" width="17.12" height="13.33" fill="#000" stroke="#000" href="#Ellipse"/></g></g><g id="e4a" class="" transform="translate(1170 233.33)"  ><g class=""><use class=" Node Icon" width="6.67" height="6.67" fill="#ff0" stroke="#000" href="#Ellipse"/></g></g><g id="d4f" class="" transform="translate(1193.3 206.67)"  ><g class=""><use class=" Node Icon" width="6.67" height="6.67" fill="#ff0" stroke="#000" href="#Ellipse"/></g></g><g id="b2e" class="" transform="translate(1290,230)"  ><g class=""><use class=" Node Icon" width="6.67" height="6.67" fill="#ff0" stroke="#000" href="#Ellipse"/></g></g><g id="f43" class="" transform="translate(1216.7 260)"  ><g class=""><use class=" Node Icon" width="6.67" height="6.67" fill="#ff0" stroke="#000" href="#Ellipse"/></g></g><g id="c38" class="" transform="translate(1155.3 259.75)"  ><g class=""><use class=" Node Icon" width="9.43" height="7.16" fill="#ff0" stroke="#000" href="#Ellipse"/></g></g><g id="d23" class="" transform="translate(1236.7 163.33)"  ><g class=""><use class=" Node Icon" width="6.67" height="6.67" fill="#ff0" stroke="#000" href="#Ellipse"/></g></g><g id="a86" class="" transform="translate(1247.9 261.12)"  ><g class=""><use class=" Node Icon" width="10.79" height="11.09" fill="#ff0" stroke="#000" href="#Ellipse"/></g></g><g id="f0c" class="" transform="translate(1183.3 240)"  ><g class=""><use class=" Node Icon" width="6.67" height="6.67" fill="#ff0" stroke="#000" href="#Ellipse"/></g></g><g id="a2f" class="" transform="translate(1223.3 200)"  ><g class=""><use class=" Node Icon" width="6.67" height="6.67" fill="#ff0" stroke="#000" href="#Ellipse"/></g></g><g id="e15" class="" transform="translate(1133.3 196.67)"  ><g class=""><use class=" Node Icon" width="6.67" height="6.67" fill="#ff0" stroke="#000" href="#Ellipse"/></g></g><g id="d0b" class="" transform="translate(1136.7 220)"  ><g class=""><use class=" Node Icon" width="6.67" height="6.67" fill="#ff0" stroke="#000" href="#Ellipse"/></g></g><g id="b10" class="" transform="translate(1253.3 250)"  ><g class=""><use class=" Node Icon" width="6.67" height="6.67" fill="#ff0" stroke="#000" href="#Ellipse"/></g></g><g id="c93" class="" transform="translate(1243.3 183.33)"  ><g class=""><use class=" Node Icon" width="6.67" height="6.67" fill="#ff0" stroke="#000" href="#Ellipse"/></g></g><g id="fc2" class="" transform="translate(1193.3 173.33)"  ><g class=""><use class=" Node Icon" width="6.67" height="6.67" fill="#ff0" stroke="#000" href="#Ellipse"/></g></g><g id="d75" class="" transform="translate(1177.8 183.33)"  ><g class=""><use class=" Node Icon" width="11.09" height="6.67" fill="#ff0" stroke="#000" href="#Ellipse"/></g></g><g id="ef1" class="" transform="translate(1293.3 214.47)"  ><g class=""><use class=" Node Icon" width="6.67" height="11.06" fill="#ff0" stroke="#000" href="#Ellipse"/></g></g><g id="c1f" class="" transform="translate(1163.3 180)"  ><g class=""><use class=" Node Icon" width="6.67" height="6.67" fill="#ff0" stroke="#000" href="#Ellipse"/></g></g><g id="e7f" class="" transform="translate(1121.1 206.67)"  ><g class=""><use class=" Node Icon" width="11.10" height="6.67" fill="#ff0" stroke="#000" href="#Ellipse"/></g></g><g id="fbc" class="" transform="translate(1226.7 220)"  ><g class=""><use class=" Node Icon" width="6.67" height="6.67" fill="#ff0" stroke="#000" href="#Ellipse"/></g></g><g id="caa" class="" transform="translate(1226.7 164.46)"  ><g class=""><use class=" Node Icon" width="6.67" height="11.08" fill="#ff0" stroke="#000" href="#Ellipse"/></g></g><g id="a46" class="" transform="translate(1303.3 223.33)"  ><g class=""><use class=" Node Icon" width="6.67" height="6.67" fill="#ff0" stroke="#000" href="#Ellipse"/></g></g><g id="fd4" class="Label" transform="translate(102.67 119.5)"  name="Preadipocyte" ><g class="Label"/><text   transform="translate(60.67 10.5)"   font-family="arial" font-weight="bold"  style="fill:#00f;font-size:14px">Preadipocyte</text></g><g id="d42" class="Label" transform="translate(1109,119.5)"  name="Differentiated adipocyte" ><g class="Label"/><text   transform="translate(107.67 10.5)"   font-family="arial" font-weight="bold"  style="fill:#00f;font-size:14px">Differentiated adipocyte</text></g><g id="d1684" class="GroupGroup" transform="translate(66.83 314.67)"  ><g class="GroupGroup"><g id="b47" class="Label" transform="translate(8,8)"  name="Inhibitors of Preadipocyte to  Adipocyte Transition" ><g class="Label"/><text   transform="translate(76.08 16.17)"   font-family="arial" font-weight="bold" ><tspan   x="0" y="-5.5">Inhibitors of Preadipocyte to </tspan><tspan   x="0" y="5.5">Adipocyte Transition</tspan></text></g><g id="e91" class="GeneProduct " transform="translate(49.83 162)"  name="WNT10B" ><rect   width="60" height="20"/><text   transform="translate(30,10)"    >WNT10B</text></g><g id="c97" class="GeneProduct " transform="translate(49.83 42)"  name="DLK1" ><rect   width="60" height="20"/><text   transform="translate(30,10)"    >DLK1</text></g><g id="e99" class="GeneProduct " transform="translate(49.83 82)"  name="GATA3" ><rect   width="60" height="20"/><text   transform="translate(30,10)"    >GATA3</text></g><g id="cbf" class="GeneProduct " transform="translate(49.83 62)"  name="GATA2" ><rect   width="60" height="20"/><text   transform="translate(30,10)"    >GATA2</text></g><g id="d8a" class="GeneProduct " transform="translate(49.83 182)"  name="NDN" ><rect   width="60" height="20"/><text   transform="translate(30,10)"    >NDN</text></g><g id="a58" class="GeneProduct " transform="translate(49.83 142)"  name="WNT5B" ><rect   width="60" height="20"/><text   transform="translate(30,10)"    >WNT5B</text></g><g id="b69" class="GeneProduct " transform="translate(49.83 122)"  name="WNT1" ><rect   width="60" height="20"/><text   transform="translate(30,10)"    >WNT1</text></g><g id="f63" class="GeneProduct " transform="translate(49.83 102)"  name="GATA4" ><rect   width="60" height="20"/><text   transform="translate(30,10)"    >GATA4</text></g></g></g><g id="a66bc" class="GroupGroup" transform="translate(424.17 324)"  ><g class="GroupGroup"><g id="be7" class="Label" transform="translate(8,8)"  name="Transcription Factors/Modulators" ><g class="Label"/><text   transform="translate(106.17 8)"   font-family="arial" font-weight="bold" >Transcription Factors/Modulators</text></g><g id="f7c" class="GeneProduct " transform="translate(25.83 139.33)"  name="PPARD" ><rect   width="60" height="20"/><text   transform="translate(30,10)"    >PPARD</text></g><g id="feb" class="GeneProduct " transform="translate(25.83 239.33)"  name="CREB1" ><rect   width="60" height="20"/><text   transform="translate(30,10)"    >CREB1</text></g><g id="c55" class="GeneProduct " transform="translate(25.83 59.33)"  name="CEBPB" ><rect   width="60" height="20"/><text   transform="translate(30,10)"    >CEBPB</text></g><g id="f67" class="GeneProduct " transform="translate(25.83 159.33)"  name="RXRA" ><rect   width="60" height="20"/><text   transform="translate(30,10)"    >RXRA</text></g><g id="b4c" class="GeneProduct " transform="translate(25.83 199.33)"  name="RARA" ><rect   width="60" height="20"/><text   transform="translate(30,10)"    >RARA</text></g><g id="ed6" class="GeneProduct " transform="translate(25.83 219.33)"  name="NR1H3" ><rect   width="60" height="20"/><text   transform="translate(30,10)"    >NR1H3</text></g><g id="ca6" class="GeneProduct " transform="translate(142.5 119.33)"  name="SREBF1" ><rect   width="66.67" height="20"/><text   transform="translate(33.33 10)"    >SREBF1</text></g><g id="b0f" class="GeneProduct " transform="translate(25.83 119.33)"  name="PPARG" ><rect   width="60" height="20"/><text   transform="translate(30,10)"    >PPARG</text></g><g id="cd6" class="GeneProduct " transform="translate(142.5 39.33)"  name="MEF2A" ><rect   width="66.67" height="20"/><text   transform="translate(33.33 10)"    >MEF2A</text></g><g id="f8b" class="GeneProduct " transform="translate(142.5 59.33)"  name="MEF2B" ><rect   width="66.67" height="20"/><text   transform="translate(33.33 10)"    >MEF2B</text></g><g id="fd9" class="GeneProduct " transform="translate(142.5 79.33)"  name="MEF2C" ><rect   width="66.67" height="20"/><text   transform="translate(33.33 10)"    >MEF2C</text></g><g id="bd9" class="GeneProduct " transform="translate(142.5 99.33)"  name="MEF2D" ><rect   width="66.67" height="20"/><text   transform="translate(33.33 10)"    >MEF2D</text></g><g id="d1c" class="GeneProduct " transform="translate(25.83 79.33)"  name="CEBPD" ><rect   width="60" height="20"/><text   transform="translate(30,10)"    >CEBPD</text></g><g id="cee" class="GeneProduct " transform="translate(142.5 159.33)"  name="NCOA1" ><rect   width="66.67" height="20"/><text   transform="translate(33.33 10)"    >NCOA1</text></g><g id="dbf" class="GeneProduct " transform="translate(25.83 99.33)"  name="PPARA" ><rect   width="60" height="20"/><text   transform="translate(30,10)"    >PPARA</text></g><g id="d4c" class="GeneProduct " transform="translate(142.5 139.33)"  name="MBNL1" ><rect   width="66.67" height="20"/><text   transform="translate(33.33 10)"    >MBNL1</text></g><g id="efd" class="GeneProduct " transform="translate(25.83 179.33)"  name="RXRG" ><rect   width="60" height="20"/><text   transform="translate(30,10)"    >RXRG</text></g><g id="b5a" class="GeneProduct " transform="translate(142.5 179.33)"  name="NR2F1" ><rect   width="66.67" height="20"/><text   transform="translate(33.33 10)"    >NR2F1</text></g><g id="cf3" class="GeneProduct " transform="translate(142.5 219.33)"  name="NRIP1" ><rect   width="66.67" height="20"/><text   transform="translate(33.33 10)"    >NRIP1</text></g><g id="a5c" class="GeneProduct " transform="translate(142.5 199.33)"  name="RORA" ><rect   width="66.67" height="20"/><text   transform="translate(33.33 10)"    >RORA</text></g><g id="c8e" class="GeneProduct " transform="translate(142.5 239.33)"  name="NCOR1" ><rect   width="66.67" height="20"/><text   transform="translate(33.33 10)"    >NCOR1</text></g><g id="c3a" class="GeneProduct " transform="translate(142.5 259.33)"  name="NCOR2" ><rect   width="66.67" height="20"/><text   transform="translate(33.33 10)"    >NCOR2</text></g><g id="e6c" class="GeneProduct " transform="translate(25.83 39.33)"  name="CEBPA" ><rect   width="60" height="20"/><text   transform="translate(30,10)"    >CEBPA</text></g></g></g><g id="bb831" class="GroupGroup" transform="translate(48.67 682.33)"  ><g class="GroupGroup"><g id="be1" class="Label" transform="translate(257.67 8)"  name="Miscellaneous Factors" ><g class="Label"/><text   transform="translate(75.83 8)"   font-family="arial" font-weight="bold" >Miscellaneous Factors</text></g><g id="bef" class="GeneProduct " transform="translate(601.33 154.33)"  name="PTGIS" ><rect   width="73.33" height="20"/><text   transform="translate(36.67 10)"    >PTGIS</text></g><g id="a7f" class="GeneProduct " transform="translate(601.33 94.33)"  name="MIXL1" ><rect   width="73.33" height="20"/><text   transform="translate(36.67 10)"    >MIXL1</text></g><g id="af5" class="GeneProduct " transform="translate(378,281)"  name="ID3" ><rect   width="66.67" height="20"/><text   transform="translate(33.33 10)"    >ID3</text></g><g id="a05" class="GeneProduct " transform="translate(488 114.33)"  name="STAT5A" ><rect   width="60" height="20"/><text   transform="translate(30,10)"    >STAT5A</text></g><g id="bae" class="GeneProduct " transform="translate(488 134.33)"  name="STAT5B" ><rect   width="60" height="20"/><text   transform="translate(30,10)"    >STAT5B</text></g><g id="a2d" class="GeneProduct " transform="translate(379.33 187.67)"  name="DDIT3" ><rect   width="64" height="20"/><text   transform="translate(32,10)"    >DDIT3</text></g><g id="f23" class="GeneProduct " transform="translate(601.33 54.33)"  name="LIF" ><rect   width="73.33" height="20"/><text   transform="translate(36.67 10)"    >LIF</text></g><g id="fc9" class="GeneProduct " transform="translate(238 234.33)"  name="CYP26A1" ><rect   width="80" height="20"/><text   transform="translate(40,10)"    >CYP26A1</text></g><g id="ed4" class="GeneProduct " transform="translate(238 254.33)"  name="CYP26B1" ><rect   width="80" height="20"/><text   transform="translate(40,10)"    >CYP26B1</text></g><g id="d01" class="GeneProduct " transform="translate(371.33 94.33)"  name="RBL1" ><rect   width="80" height="20"/><text   transform="translate(40,10)"    >RBL1</text></g><g id="b5f" class="GeneProduct " transform="translate(379.33 167.67)"  name="ASIP" ><rect   width="64" height="20"/><text   transform="translate(32,10)"    >ASIP</text></g><g id="cc1" class="GeneProduct " transform="translate(601.33 74.33)"  name="MIF" ><rect   width="73.33" height="20"/><text   transform="translate(36.67 10)"    >MIF</text></g><g id="e06" class="GeneProduct " transform="translate(601.33 134.33)"  name="SERPINE1" ><rect   width="73.33" height="20"/><text   transform="translate(36.67 10)"    >SERPINE1</text></g><g id="fec" class="GeneProduct " transform="translate(601.33 174.33)"  name="SCD" ><rect   width="73.33" height="20"/><text   transform="translate(36.67 10)"    >SCD</text></g><g id="dc3" class="GeneProduct " transform="translate(601.33 214.33)"  name="TWIST1" ><rect   width="73.33" height="20"/><text   transform="translate(36.67 10)"    >TWIST1</text></g><g id="edd" class="GeneProduct " transform="translate(371.33 134.33)"  name="RB1" ><rect   width="80" height="20"/><text   transform="translate(40,10)"    >RB1</text></g><g id="ea1" class="GeneProduct " transform="translate(371.33 114.33)"  name="RBL2" ><rect   width="80" height="20"/><text   transform="translate(40,10)"    >RBL2</text></g><g id="fd8" class="GeneProduct " transform="translate(601.33 114.33)"  name="CDKN1A" ><rect   width="73.33" height="20"/><text   transform="translate(36.67 10)"    >CDKN1A</text></g><g id="e29" class="GeneProduct " transform="translate(371.33 54.33)"  name="E2F1" ><rect   width="80" height="20"/><text   transform="translate(40,10)"    >E2F1</text></g><g id="c3d" class="GeneProduct " transform="translate(601.33 194.33)"  name="SP1" ><rect   width="73.33" height="20"/><text   transform="translate(36.67 10)"    >SP1</text></g><g id="cac" class="GeneProduct " transform="translate(378,261)"  name="HMGA1" ><rect   width="66.67" height="20"/><text   transform="translate(33.33 10)"    >HMGA1</text></g><g id="de5" class="GeneProduct " transform="translate(378,221)"  name="GADD45A" ><rect   width="66.67" height="20"/><text   transform="translate(33.33 10)"    >GADD45A</text></g><g id="dd2" class="GeneProduct " transform="translate(378,241)"  name="GADD45B" ><rect   width="66.67" height="20"/><text   transform="translate(33.33 10)"    >GADD45B</text></g><g id="e08" class="GeneProduct " transform="translate(11.33 54.33)"  name="BMP1" ><rect   width="60" height="20"/><text   transform="translate(30,10)"    >BMP1</text></g><g id="c64" class="GeneProduct " transform="translate(11.33 74.33)"  name="BMP2" ><rect   width="60" height="20"/><text   transform="translate(30,10)"    >BMP2</text></g><g id="fb8" class="GeneProduct " transform="translate(11.33 94.33)"  name="BMP3" ><rect   width="60" height="20"/><text   transform="translate(30,10)"    >BMP3</text></g><g id="abc" class="GeneProduct " transform="translate(11.33 134.33)"  name="BMP4" ><rect   width="60" height="20"/><text   transform="translate(30,10)"    >BMP4</text></g><g id="a6c" class="GeneProduct " transform="translate(121.33 54.33)"  name="FOXO1A" ><rect   width="66.67" height="20"/><text   transform="translate(33.33 10)"    >FOXO1A</text></g><g id="f6a" class="GeneProduct " transform="translate(8 167.67)"  name="KLF5" ><rect   width="66.67" height="20"/><text   transform="translate(33.33 10)"    >KLF5</text></g><g id="bcc" class="GeneProduct " transform="translate(121.33 74.33)"  name="FOXC2" ><rect   width="66.67" height="20"/><text   transform="translate(33.33 10)"    >FOXC2</text></g><g id="e1d" class="GeneProduct " transform="translate(121.33 211)"  name="NCOA2" ><rect   width="66.67" height="20"/><text   transform="translate(33.33 10)"    >NCOA2</text></g><g id="f53" class="GeneProduct " transform="translate(488 94.33)"  name="STAT3" ><rect   width="60" height="20"/><text   transform="translate(30,10)"    >STAT3</text></g><g id="b9d" class="GeneProduct " transform="translate(488 74.33)"  name="STAT2" ><rect   width="60" height="20"/><text   transform="translate(30,10)"    >STAT2</text></g><g id="fef" class="GeneProduct " transform="translate(488 54.33)"  name="STAT1" ><rect   width="60" height="20"/><text   transform="translate(30,10)"    >STAT1</text></g><g id="ec1" class="GeneProduct " transform="translate(488 154.33)"  name="STAT6" ><rect   width="60" height="20"/><text   transform="translate(30,10)"    >STAT6</text></g><g id="a8b" class="GeneProduct " transform="translate(121.33 124.33)"  name="SOCS1" ><rect   width="66.67" height="20"/><text   transform="translate(33.33 10)"    >SOCS1</text></g><g id="b9f" class="GeneProduct " transform="translate(121.33 144.33)"  name="SOCS3" ><rect   width="66.67" height="20"/><text   transform="translate(33.33 10)"    >SOCS3</text></g><g id="bb5" class="GeneProduct " transform="translate(238 54.33)"  name="CNTFR" ><rect   width="80" height="20"/><text   transform="translate(40,10)"    >CNTFR</text></g><g id="f69" class="GeneProduct " transform="translate(238 74.33)"  name="LIFR" ><rect   width="80" height="20"/><text   transform="translate(40,10)"    >LIFR</text></g><g id="f80" class="GeneProduct " transform="translate(238 94.33)"  name="IL6ST" ><rect   width="80" height="20"/><text   transform="translate(40,10)"    >IL6ST</text></g><g id="af3" class="GeneProduct " transform="translate(238 114.33)"  name="OSM" ><rect   width="80" height="20"/><text   transform="translate(40,10)"    >OSM</text></g><g id="bdd" class="GeneProduct " transform="translate(238 134.33)"  name="CTNNB1" ><rect   width="80" height="20"/><text   transform="translate(40,10)"    >CTNNB1</text></g><g id="ed0" class="GeneProduct " transform="translate(238 154.33)"  name="SMAD3" ><rect   width="80" height="20"/><text   transform="translate(40,10)"    >SMAD3</text></g><g id="d56" class="GeneProduct " transform="translate(121.33 231)"  name="FZD1" ><rect   width="66.67" height="20"/><text   transform="translate(33.33 10)"    >FZD1</text></g><g id="a88" class="GeneProduct " transform="translate(238 174.33)"  name="DVL1" ><rect   width="80" height="20"/><text   transform="translate(40,10)"    >DVL1</text></g><g id="c29" class="GeneProduct " transform="translate(238 194.33)"  name="TCF1" ><rect   width="80" height="20"/><text   transform="translate(40,10)"    >TCF1</text></g><g id="f62" class="GeneProduct " transform="translate(238 214.33)"  name="FRZB" ><rect   width="80" height="20"/><text   transform="translate(40,10)"    >FRZB</text></g><g id="e5a" class="GeneProduct " transform="translate(121.33 164.33)"  name="TRIB3" ><rect   width="66.67" height="20"/><text   transform="translate(33.33 10)"    >TRIB3</text></g><g id="fa4" class="GeneProduct " transform="translate(488 194.33)"  name="CUGBP1" ><rect   width="60" height="20"/><text   transform="translate(30,10)"    >CUGBP1</text></g><g id="c5d" class="GeneProduct " transform="translate(488 174.33)"  name="HIF1A" ><rect   width="60" height="20"/><text   transform="translate(30,10)"    >HIF1A</text></g><g id="aad" class="GeneProduct " transform="translate(8 187.67)"  name="KLF6" ><rect   width="66.67" height="20"/><text   transform="translate(33.33 10)"    >KLF6</text></g><g id="b06" class="GeneProduct " transform="translate(8 207.67)"  name="KLF7" ><rect   width="66.67" height="20"/><text   transform="translate(33.33 10)"    >KLF7</text></g><g id="c11" class="GeneProduct " transform="translate(601.33 234.33)"  name="SFRP4" ><rect   width="73.33" height="20"/><text   transform="translate(36.67 10)"    >SFRP4</text></g><g id="b3b" class="GeneProduct " transform="translate(8 227.67)"  name="KLF15" ><rect   width="66.67" height="20"/><text   transform="translate(33.33 10)"    >KLF15</text></g><g id="cf6" class="GeneProduct " transform="translate(8,271)"  name="EGR2" ><rect   width="66.67" height="20"/><text   transform="translate(33.33 10)"    >EGR2</text></g><g id="baf" class="GeneProduct " transform="translate(8,291)"  name="EBF" ><rect   width="66.67" height="20"/><text   transform="translate(33.33 10)"    >EBF</text></g><g id="f28" class="GeneProduct " transform="translate(8,311)"  name="EPAS1" ><rect   width="66.67" height="20"/><text   transform="translate(33.33 10)"    >EPAS1</text></g><g id="d07" class="GeneProduct " transform="translate(474.67 231)"  name="AHR" ><rect   width="86.67" height="20"/><text   transform="translate(43.33 10)"    >AHR</text></g><g id="c96" class="GeneProduct " transform="translate(474.67 251)"  name="C10orf70" ><rect   width="86.67" height="20"/><text   transform="translate(43.33 10)"    >C10orf70</text></g><g id="d40" class="GeneProduct " transform="translate(474.67 271)"  name="WWTR1" ><rect   width="86.67" height="20"/><text   transform="translate(43.33 10)"    >WWTR1</text></g><g id="bd0" class="GeneProduct " transform="translate(11.33 114.33)"  name="GDF10" ><rect   width="60" height="20"/><text   transform="translate(30,10)"    >GDF10</text></g><g id="dee" class="GeneProduct " transform="translate(121.33 274.33)"  name="PCK1" ><rect   width="66.67" height="20"/><text   transform="translate(33.33 10)"    >PCK1</text></g><g id="cad" class="GeneProduct " transform="translate(121.33 294.33)"  name="PCK2" ><rect   width="66.67" height="20"/><text   transform="translate(33.33 10)"    >PCK2</text></g><g id="ff3" class="GeneProduct " transform="translate(371.33 74.33)"  name="E2F4" ><rect   width="80" height="20"/><text   transform="translate(40,10)"    >E2F4</text></g></g></g><g id="ff0dc" class="GroupGroup" transform="translate(1079.8 635.67)"  ><g class="GroupGroup"><g id="f0a" class="Label" transform="translate(8,8)"  name="Adipocyte Secretory Products" ><g class="Label"/><text   transform="translate(96.17 8)"   font-family="arial" font-weight="bold" >Adipocyte Secretory Products</text></g><g id="e4f" class="GeneProduct " transform="translate(70.17 94.33)"  name="TNF" ><rect   width="73.33" height="20"/><text   transform="translate(36.67 10)"    >TNF</text></g><g id="f72" class="GeneProduct " transform="translate(70.17 34.33)"  name="LEP" ><rect   width="73.33" height="20"/><text   transform="translate(36.67 10)"    >LEP</text></g><g id="fe1" class="GeneProduct " transform="translate(70.17 114.33)"  name="RETN" ><rect   width="73.33" height="20"/><text   transform="translate(36.67 10)"    >RETN</text></g><g id="d0f" class="GeneProduct " transform="translate(70.17 134.33)"  name="DF" ><rect   width="73.33" height="20"/><text   transform="translate(36.67 10)"    >DF</text></g><g id="b3d" class="GeneProduct " transform="translate(70.17 54.33)"  name="ADIPOQ" ><rect   width="73.33" height="20"/><text   transform="translate(36.67 10)"    >ADIPOQ</text></g><g id="c25" class="GeneProduct " transform="translate(70.17 154.33)"  name="ADFP" ><rect   width="73.33" height="20"/><text   transform="translate(36.67 10)"    >ADFP</text></g><g id="b01" class="GeneProduct " transform="translate(70.17 194.33)"  name="AGT" ><rect   width="73.33" height="20"/><text   transform="translate(36.67 10)"    >AGT</text></g><g id="fcb" class="GeneProduct " transform="translate(70.17 74.33)"  name="IL6" ><rect   width="73.33" height="20"/><text   transform="translate(36.67 10)"    >IL6</text></g><g id="dfc" class="GeneProduct " transform="translate(70.17 214.33)"  name="PBEF1" ><rect   width="73.33" height="20"/><text   transform="translate(36.67 10)"    >PBEF1</text></g><g id="b5b" class="GeneProduct " transform="translate(70.17 234.33)"  name="SPOCK" ><rect   width="73.33" height="20"/><text   transform="translate(36.67 10)"    >SPOCK</text></g><g id="bf0" class="GeneProduct " transform="translate(70.17 174.33)"  name="ADPN" ><rect   width="73.33" height="20"/><text   transform="translate(36.67 10)"    >ADPN</text></g></g></g><g id="e985a" class="GroupGroup" transform="translate(826 632.67)"  ><g class="GroupGroup"><g id="a91" class="Label" transform="translate(8,8)"  name="Insulin Action Genes" ><g class="Label"/><text   transform="translate(67.67 8)"   font-family="arial" font-weight="bold" >Insulin Action Genes</text></g><g id="acc" class="GeneProduct " transform="translate(50.67 34)"  name="IRS1" ><rect   width="46.67" height="20"/><text   transform="translate(23.33 10)"    >IRS1</text></g><g id="f41" class="GeneProduct " transform="translate(50.67 94)"  name="IRS4" ><rect   width="46.67" height="20"/><text   transform="translate(23.33 10)"    >IRS4</text></g><g id="c01" class="GeneProduct " transform="translate(50.67 54)"  name="IRS2" ><rect   width="46.67" height="20"/><text   transform="translate(23.33 10)"    >IRS2</text></g><g id="f98" class="GeneProduct " transform="translate(50.67 74)"  name="IRS3P" ><rect   width="46.67" height="20"/><text   transform="translate(23.33 10)"    >IRS3P</text></g></g></g><g id="f3e06" class="GroupGroup" transform="translate(793 830.67)"  ><g class="GroupGroup"><g id="aaf" class="Label" transform="translate(8,8)"  name="Possible Lipodystrophy Genes" ><g class="Label"/><text   transform="translate(97.67 8)"   font-family="arial" font-weight="bold" >Possible Lipodystrophy Genes</text></g><g id="de2" class="GeneProduct " transform="translate(70.33 34)"  name="BSCL2" ><rect   width="73.33" height="20"/><text   transform="translate(36.67 10)"    >BSCL2</text></g><g id="c7b" class="GeneProduct " transform="translate(70.33 54)"  name="LMNA" ><rect   width="73.33" height="20"/><text   transform="translate(36.67 10)"    >LMNA</text></g><g id="dd9" class="GeneProduct " transform="translate(70.33 74)"  name="AGPAT2" ><rect   width="73.33" height="20"/><text   transform="translate(36.67 10)"    >AGPAT2</text></g><g id="d69" class="GeneProduct " transform="translate(70.33 94)"  name="ZMPSTE24" ><rect   width="73.33" height="20"/><text   transform="translate(36.67 10)"    >ZMPSTE24</text></g><g id="f37" class="GeneProduct " transform="translate(70.33 114)"  name="LPIN1" ><rect   width="73.33" height="20"/><text   transform="translate(36.67 10)"    >LPIN1</text></g><g id="a29" class="GeneProduct " transform="translate(70.33 134)"  name="LPIN2" ><rect   width="73.33" height="20"/><text   transform="translate(36.67 10)"    >LPIN2</text></g><g id="f06" class="GeneProduct " transform="translate(70.33 154)"  name="LPIN3" ><rect   width="73.33" height="20"/><text   transform="translate(36.67 10)"    >LPIN3</text></g></g></g><g id="d3837" class="GroupGroup" transform="translate(1090,322)"  ><g class="GroupGroup"><g id="ebb" class="Label" transform="translate(8,8)"  name="Fully Differentiated Adipocyte Markers" ><g class="Label"/><text   transform="translate(86.67 15.17)"   font-family="arial" font-weight="bold" ><tspan   x="0" y="-5.5">Fully Differentiated</tspan><tspan   x="0" y="5.5">Adipocyte Markers</tspan></text></g><g id="c04" class="GeneProduct " transform="translate(61.33 120.67)"  name="LPL" ><rect   width="67.17" height="20"/><text   transform="translate(33.58 10)"    >LPL</text></g><g id="e1e" class="GeneProduct " transform="translate(61.33 60.67)"  name="FAS" ><rect   width="67.17" height="20"/><text   transform="translate(33.58 10)"    >FAS</text></g><g id="ed2" class="GeneProduct " transform="translate(61.33 80.67)"  name="SLC2A4" ><rect   width="67.17" height="20"/><text   transform="translate(33.58 10)"    >SLC2A4</text></g><g id="ef2" class="GeneProduct " transform="translate(61.33 40.67)"  name="GTF3A" ><rect   width="67.17" height="20"/><text   transform="translate(33.58 10)"    >GTF3A</text></g><g id="d3c" class="GeneProduct " transform="translate(61.33 100.67)"  name="PLIN" ><rect   width="67.17" height="20"/><text   transform="translate(33.58 10)"    >PLIN</text></g><g id="f00" class="GeneProduct " transform="translate(61.33 140.67)"  name="PPARGC1A" ><rect   width="67.17" height="20"/><text   transform="translate(33.58 10)"    >PPARGC1A</text></g><g id="d38" class="GeneProduct " transform="translate(61.33 160.67)"  name="UCP1" ><rect   width="67.17" height="20"/><text   transform="translate(33.58 10)"    >UCP1</text></g><g id="ecb" class="GeneProduct " transform="translate(61.33 180.67)"  name="LIPE" ><rect   width="67.17" height="20"/><text   transform="translate(33.58 10)"    >LIPE</text></g></g></g><g id="dce5d" class="GroupGroup" transform="translate(786.33 327.67)"  ><g class="GroupGroup"><g id="bee" class="Label" transform="translate(8,8)"  name="Growth Factors/Hormones" ><g class="Label"/><text   transform="translate(84.67 8)"   font-family="arial" font-weight="bold" >Growth Factors/Hormones</text></g><g id="b3c" class="GeneProduct " transform="translate(52.67 56)"  name="IGF1" ><rect   width="60" height="20"/><text   transform="translate(30,10)"    >IGF1</text></g><g id="f9e" class="GeneProduct " transform="translate(52.67 96)"  name="GH1" ><rect   width="60" height="20"/><text   transform="translate(30,10)"    >GH1</text></g><g id="a67" class="GeneProduct " transform="translate(52.67 76)"  name="NR3C1" ><rect   width="60" height="20"/><text   transform="translate(30,10)"    >NR3C1</text></g><g id="ebd" class="GeneProduct " transform="translate(52.67 116)"  name="TGFB1" ><rect   width="60" height="20"/><text   transform="translate(30,10)"    >TGFB1</text></g><g id="b84" class="GeneProduct " transform="translate(52.67 36)"  name="INS" ><rect   width="60" height="20"/><text   transform="translate(30,10)"    >INS</text></g><g id="bf6" class="GeneProduct " transform="translate(52.67 136)"  name="PRLR" ><rect   width="60" height="20"/><text   transform="translate(30,10)"    >PRLR</text></g></g></g></g></g></g></svg>