<?xml version="1.0" encoding="UTF-8"?>
<svg xmlns="http://www.w3.org/2000/svg" id="-svg" class="Diagram"  baseProfile="full" prefix="schema:http://schema.org/" preserveAspectRatio="xMidYMid"  version="1.1"><defs><g id="icon-defs"/><g id="marker-defs"><marker id="markerstartarrow000" markerHeight="12" markerWidth="12" orient="auto" preserveAspectRatio="none" refY="6" viewBox="0 0 12 12"><g id="g-markerstartarrow000" transform="rotate(180 6 6)"><g transform="rotate(180 6 6)"><rect y="5.4" width="2" height="1.2" style="stroke:#fff"/><polygon points="12 11 0 6 12 1" stroke-width="0"/></g></g></marker><marker id="mea" markerHeight="12" markerWidth="12" orient="auto" preserveAspectRatio="none" refX="12" refY="6" viewBox="0 0 12 12"><g id="g-mea" transform=""><g transform="rotate(180 6 6)"><rect y="5.4" width="2" height="1.2" style="stroke:#fff"/><polygon points="12 11 0 6 12 1" stroke-width="0"/></g></g></marker><marker id="memcatalysis000" markerHeight="12" markerWidth="12" orient="auto" preserveAspectRatio="none" refX="12" refY="6" viewBox="0 0 12 12"><g id="g-memcatalysis000" transform=""><g transform="rotate(180 6 6)"><circle cx="6" cy="6" r="5.3px" fill="#fff" stroke="#000"/></g></g></marker><marker id="meaf00" markerHeight="12" markerWidth="12" orient="auto" preserveAspectRatio="none" refX="12" refY="6" viewBox="0 0 12 12"><g id="g-meaf00" transform=""><g transform="rotate(180 6 6)"><rect y="5.4" width="2" height="1.2" style="stroke:#fff"/><polygon points="12 11 0 6 12 1" fill="#f00" stroke-width="0"/></g></g></marker></g></defs><g id="viewport-20220102140531393" class="svg-pan-zoom_viewport" transform="matrix(0.85 0 0 0.85 322.03 9.30e-6)" style="transform:matrix(0.85, 0, 0, 0.85, 322.03, 9.30e-06)"><style>svg.Diagram {font-family: 'Liberation Sans', Arial, sans-serif; }.Diagram path {fill: transparent;stroke: #000;marker-end: url(#mea);}.Diagram symbol path {fill: inherit;stroke: inherit;stroke-width: inherit;marker-end: inherit;}.Diagram rect {fill: #fff;stroke: #000;}.Diagram text {dominant-baseline: central;overflow: hidden;text-anchor: middle;fill: #000;font-size: 10px;}</style><style type="text/css">.Viewport .textContent {
  pointer-events: none;
  stroke-width: 0px;
}

					.Viewport.Icon {
  fill: white;
}

/* Hide the InfoBox */
.Viewport.textContent {
  font-size: 0;
}

.textContent {
  stroke: none;
}

.DataNode {
  stroke-miterlimit: 1;
  pointer-events: auto;
}

.DataNode:hover {
  cursor: pointer;
}

/* TODO should this apply to things other than DataNodes? */
.DataNode.textContent {
  pointer-events: none;
}

.DataNode.Highlighted {
  opacity: 0.6;
  stroke-width: 0px;
}

marker {
  /* this is what should work per the spec
  stroke-dasharray: none; */
  /* but I need to add this to make it work in Safari */
  stroke-dasharray: 9999999999999999999999999;
}

.Citation.Icon {
  fill: none;
  stroke-width: 0px;
}

.Citation.textContent {
  text-align: center;
  vertical-align: top;
  font-size: 7px;
  fill: #999;
  fill-opacity: 1;
  stroke: none;
}</style><g id="WP2456" class="Pathway http___identifiers_org_pw_PW_0000004 http___identifiers_org_pw_PW_0000025 Viewport"  name="Name: HIF1A and PPARG regulation of glycolysis Last Modified: 10/16/2013 Organism: Homo sapiens" ><g class="Pathway http___identifiers_org_pw_PW_0000004 http___identifiers_org_pw_PW_0000025 Viewport"><rect   width="656.5" height="790" style="stroke:none"/><g id="id13d212d5" class="Edge"  ><path    d="m559 462v81"/></g><g id="b3f03" class="Edge"  ><path    d="m314.49 348h-43.49" style="stroke:#f00;marker-end:url(#meaf00)"/></g><g id="id201e4513" class="Edge"  ><path    d="m217 462v81"/><g id="bc346" class="AB" transform="translate(217,494.4)"  ><g class="AB"/></g></g><g id="e10e4" class="Edge"  ><path    d="m327.49 358-50.49 28" style="stroke:#f00;marker-end:url(#meaf00)"/></g><g id="id4a19b4a5" class="Edge"  ><path    d="m252.5 494-35.5 0.4" style="marker-end:url(#memcatalysis000)"/></g><g id="id50b63ef1" class="Edge"  ><path    d="m431 137 128 77"/></g><g id="id5314678f" class="Edge"  ><path    d="m217 249v187" stroke-dasharray="5,3"/><g id="fbf9a" class="AB" transform="translate(217 291.27)"  ><g class="AB"/></g></g><g id="id6eb09df" class="Edge"  ><path    d="m430.44 338.87 48.81-37.18" style="stroke:#f00;marker-end:url(#meaf00)"/></g><g id="id7463f18c" class="Edge"  ><path    d="m559 250v81"/><g id="acf6a" class="AB" transform="translate(559 291.7)"  ><g class="AB"/></g></g><g id="id7c24d473" class="Edge"  ><path    d="m559 362v74"/><g id="aa307" class="AB" transform="translate(559,397)"  ><g class="AB"/></g></g><g id="id80e188c9" class="Edge"  ><path    d="m559 569v77"/></g><g id="id899dc601" class="Edge"  ><path    d="m252.5 291-35.5 0.27" style="marker-end:url(#memcatalysis000)"/></g><g id="id9cd2dc4b" class="Edge"  ><path    d="m430.44 358.87 39.30 38.13" style="stroke:#f00;marker-end:url(#meaf00)"/></g><g id="idac456373" class="Edge"  ><path    d="m340.49 338-61.99-37" style="stroke:#f00;marker-end:url(#meaf00)"/></g><g id="idb66880c0" class="Edge"  ><path    d="m366.49 348 37.94 0.87" style="stroke:#f00;marker-end:url(#meaf00)"/></g><g id="idb93f64f5" class="Edge"  ><path    d="m559 672v68"/></g><g id="idcf5d956b" class="Edge"  ><path    d="m513 232-256 1" marker-start="url(#markerstartarrow000)"/><g id="bbe8e" class="AB" transform="translate(387.93 232.49)"  ><g class="AB"/></g></g><g id="id42628fb5" class="Edge"  ><path    d="m387.51 261.76 0.42-29.27" style="marker-end:url(#memcatalysis000)"/></g><g id="idcfe2f12b" class="Edge"  ><path    d="m391 38v82" stroke-dasharray="5,3"/><g id="d765e" class="AB" transform="translate(391,70.8)"  ><g class="AB"/></g></g><g id="iddd7fd06d" class="Edge"  ><path    d="m351 137-134 80"/></g><g id="a407f" class="GeneProduct " transform="translate(252.5,281)"  name="GAPDH" ><rect   width="52" height="20"/><text   transform="translate(26,10)"    >GAPDH</text></g><g id="b01aa" class="Metabolite KEGG_Compound_C00118" transform="translate(177,217)"  name="Glyceraldehyde- 3-phosphate" ><rect   width="80" height="32" style="stroke:#00f"/><text   transform="translate(40,16)"     style="fill:#00f"><tspan   x="0" y="-5.5">Glyceraldehyde-</tspan><tspan   x="0" y="5.5">3-phosphate</tspan></text></g><g id="c08ef" class="GeneProduct " transform="translate(252.5,484)"  name="LDHA" ><rect   width="52" height="20"/><text   transform="translate(26,10)"    >LDHA</text></g><g id="c8c49" class="Metabolite KEGG_Compound_C00022" transform="translate(177,436)"  name="Pyruvate" ><rect   width="80" height="26" style="stroke:#00f"/><text   transform="translate(40,13)"     style="fill:#00f">Pyruvate</text></g><g id="cfb33" class="Pathway" transform="translate(491.5,740)"  name="Myocardial Steatosis" ><g class="Pathway"/><g ><defs><clipPath ><rect x="-67.5" y="-10" width="135" height="20" style="stroke:none"/></clipPath></defs><text   transform="translate(67.5,10)"    font-weight="bold"  style="fill:#14961e;font-size:12px">Myocardial Steatosis</text></g></g><g id="f61c9" class="Metabolite KEGG_Compound_C05378" transform="translate(351,120)"  name="Fructose-1,6- biphosphate" ><rect   width="80" height="34" style="stroke:#00f"/><text   transform="translate(40,17)"     style="fill:#00f"><tspan   x="0" y="-5.5">Fructose-1,6-</tspan><tspan   x="0" y="5.5">biphosphate</tspan></text></g><g id="fd536" class="GeneProduct " transform="translate(361.51 261.76)"  name="TPI1" ><rect   width="52" height="20"/><text   transform="translate(26,10)"    >TPI1</text></g><g id="ca0b3" class="Metabolite KEGG_Compound_C00111" transform="translate(513,214)"  name="Dihydroxyacetone phosphate" ><rect   width="92" height="36" style="stroke:#00f"/><text   transform="translate(46,18)"     style="fill:#00f"><tspan   x="0" y="-5.5">Dihydroxyacetone</tspan><tspan   x="0" y="5.5">phosphate</tspan></text></g><g id="cbf1a" class="Metabolite KEGG_Compound_C00186" transform="translate(177,543)"  name="Lactate" ><rect   width="80" height="26" style="stroke:#00f"/><text   transform="translate(40,13)"     style="fill:#00f">Lactate</text></g><g id="cac91" class="Metabolite KEGG_Compound_C00093" transform="translate(519,331)"  name="Glycerol-3- phosphate" ><rect   width="80" height="31" style="stroke:#00f"/><text   transform="translate(40,15.5)"     style="fill:#00f"><tspan   x="0" y="-5.5">Glycerol-3-</tspan><tspan   x="0" y="5.5">phosphate</tspan></text></g><g id="e0189" class="Metabolite KEGG_Compound_C00681" transform="translate(511.5,436)"  name="Lysophosphatidate" ><rect   width="95" height="26" style="stroke:#00f"/><text   transform="translate(47.5,13)"     style="fill:#00f">Lysophosphatidate</text></g><g id="ad53d" class="Metabolite KEGG_Compound_C00422" transform="translate(519,646)"  name="Triacylglycerol" ><rect   width="80" height="26" style="stroke:#00f"/><text   transform="translate(40,13)"     style="fill:#00f">Triacylglycerol</text></g><g id="b7415" class="Metabolite KEGG_Compound_C00165" transform="translate(519,543)"  name="Diacylglycerol" ><rect   width="80" height="26" style="stroke:#00f"/><text   transform="translate(40,13)"     style="fill:#00f">Diacylglycerol</text></g><g id="aab2e" class="Edge"  ><path    d="m518.25 291.69 40.75 0.01" style="marker-end:url(#memcatalysis000)"/></g><g id="a9466" class="GeneProduct " transform="translate(466.25 281.69)"  name="GPD1" ><rect   width="52" height="20"/><text   transform="translate(26,10)"    >GPD1</text></g><g id="e01bc" class="Edge"  ><path    d="m521.74 397h37.26" style="marker-end:url(#memcatalysis000)"/></g><g id="a245b" class="GeneProduct " transform="translate(469.74 387)"  name="GPAT3" ><rect   width="52" height="20"/><text   transform="translate(26,10)"    >GPAT3</text></g><g id="c1f5c" class="Metabolite KEGG_Compound_C00031" transform="translate(351,12)"  name="Glucose" ><rect   width="80" height="26" style="stroke:#00f"/><text   transform="translate(40,13)"     style="fill:#00f">Glucose</text></g><g id="c33e8" class="Edge"  ><path    d="m457.5 54-66.5 16.8" style="marker-end:url(#memcatalysis000)"/></g><g id="a7d5d" class="GeneProduct " transform="translate(457.5,44)"  name="SLC2A1" ><rect   width="52" height="20"/><text   transform="translate(26,10)"    >SLC2A1</text></g><g id="abc1e" class="GeneProduct " transform="translate(404.44 338.87)"  name="PPARG" ><rect   width="52" height="20" style="stroke:#f00"/><text   transform="translate(26,10)"     style="fill:#f00">PPARG</text></g><g id="d7504" class="Edge"  ><path    d="m486 97h-59" style="stroke:#f00;marker-end:url(#meaf00)"/></g><g id="dad96" class="Edge"  ><path    d="m486 97-59 18" style="stroke:#f00;marker-end:url(#meaf00)"/></g><g id="bf861" class="Edge"  ><path    d="m486 97-59-20" style="stroke:#f00;marker-end:url(#meaf00)"/></g><g id="aa5a6" class="GeneProduct " transform="translate(460,87)"  name="HIF1A" ><rect   width="52" height="20" style="stroke:#f00"/><text   transform="translate(26,10)"     style="fill:#f00">HIF1A</text></g><g id="bcd64" class="GeneProduct " transform="translate(314.49 338)"  name="HIF1A" ><rect   width="52" height="20" style="stroke:#f00"/><text   transform="translate(26,10)"     style="fill:#f00">HIF1A</text></g></g></g></g></svg>