<?xml version="1.0" encoding="UTF-8"?>
<!--
  WikiPathways page: https://www.wikipathways.org/index.php/Pathway:WP2513
  URL for this compressed file: https://github.com/eweitz/cachome/tree/main/data/WP2513.svg
  Source code for compression: https://github.com/eweitz/cachome/tree/main/src/wikipathways.py
-->
<svg id="wp2513-svg" class="Diagram" width="800" height="600" color="black" baseProfile="full" prefix="schema:http://schema.org/" preserveAspectRatio="xMidYMid" version="1.1" viewBox="0 0 936.13 743.33" vocab="http://vocabularies.wikipathways.org/wp#" xmlns="http://www.w3.org/2000/svg" xmlns:xlink="http://www.w3.org/1999/xlink"><style>svg {font-family: 'Liberation Sans', Arial, sans-serif; }</style><defs><g id="jit-defs"><filter id="kaaviodoublefalse3filter" x="-50%" y="-50%" width="200%" height="200%"><feComposite in="SourceGraphic" in2="SourceGraphic" result="doubleDark"/><feMorphology in="doubleDark" operator="dilate" radius="0.16666666666666666" result="in2Double"/><feMorphology in="SourceGraphic" operator="dilate" radius="3" result="inDouble"/><feComposite in="inDouble" in2="in2Double" operator="out" result="doubleResult"/></filter><filter id="kaavioblackto000000filter" x="0" y="0" width="936.13" height="743.33" filterUnits="userSpaceOnUse"><feColorMatrix in="SourceGraphic" values="-1   0   0 0 0                   0  -1   0 0 0                   0   0  -1 0 0                   0   0   0 1 0"/></filter><filter id="kaavioblackto0033fffilter" x="0" y="0" width="936.13" height="743.33" filterUnits="userSpaceOnUse"><feColorMatrix in="SourceGraphic" values="-1   0   0 0 0                   0  -1   0 0 0.2                   0   0  -1 0 1                   0   0   0 1 0"/></filter></g><g id="jic-defs"><marker id="markerEndArrow" stroke-dasharray="99999" markerHeight="12" markerUnits="userSpaceOnUse" markerWidth="12" orient="auto" preserveAspectRatio="none" refX="12" refY="6" viewBox="0 0 12 12"><path transform="rotate(180 6 6)" d="M12 11L0 6l12-5z" fill="currentColor" stroke-width="0"/></marker><marker id="markerEndMimBinding" stroke-dasharray="99999" markerHeight="12" markerUnits="userSpaceOnUse" markerWidth="12" orient="auto" preserveAspectRatio="none" refX="12" refY="6" viewBox="0 0 12 12"><path transform="rotate(180 6 6)" d="M12 12L0 6l12-6-7 6z" fill="currentColor" stroke-width="0"/></marker><marker id="markerEndMimInhibition" stroke-dasharray="99999" markerHeight="20" markerUnits="userSpaceOnUse" markerWidth="10" orient="auto" preserveAspectRatio="none" refX="10" refY="10" viewBox="0 0 10 20"><path d="m3 0v20" fill="currentColor" stroke="currentColor"/></marker><symbol id="Brace" overflow="visible" preserveAspectRatio="none" viewBox="0 0 100 100"><path d="M1.5 49.5c0-16.167 8.167-24.25 24.5-24.25S50.5 17.167 50.5 1c0 16.167 8.167 24.25 24.5 24.25s24.5 8.083 24.5 24.25" stroke="currentColor" vector-effect="non-scaling-stroke"/></symbol><symbol id="Ellipse" overflow="visible" preserveAspectRatio="none" viewBox="0 0 50 50"><ellipse cx="25" cy="25" rx="25" ry="25" stroke="currentColor" vector-effect="non-scaling-stroke"/></symbol><symbol id="Mitochondria" overflow="visible" preserveAspectRatio="none" viewBox="0 0 100 100"><ellipse cx="50" cy="50" rx="50" ry="50" stroke="currentColor"/><path d="M14.895 26.347c4.364-.741 3.827 17.037 8.183 16.184 8.273.03 2.982-28.149 9.9-28.337 6.967-.187 2.246 29.948 9.204 29.44 7.633-.56.508-32.935 8.137-33.623 7.698-.689 2.919 32.04 10.628 32.225 6.547.16 3.026-27.643 9.56-26.921 7.193.793.665 29.842 7.782 31.667 4.748 1.216 4.42-18.258 9.204-17.44 11.129 7.577 8.628 37.698-2.18 44.644-3.138.699-3.966-10.502-7.113-9.905-5.59 1.059-3.982 22.284-9.603 21.8-5.24-.457-2.226-21.637-7.47-21.73-6.962-.117-3.358 28.924-10.317 28.495-6.14-.376-1.73-24.95-7.825-26.192-5.682-1.157-5.378 22.17-11.027 20.68-6.25-1.644-.47-26.673-6.76-27.865-3.728-.706-2.647 14.4-6.403 14.545-14.016-5.939-15.749-39.708-3.9-47.667z" stroke="currentColor" vector-effect="non-scaling-stroke"/></symbol><symbol id="none" preserveAspectRatio="none" viewBox="0 0 100 100"/></g></defs><g id="WP2513" class="Viewport" color="black"  name="Name: Nanoparticle triggered regulated necrosis Organism: Homo sapiens"><rect id="WP2513-icon" class="Icon" width="936.13" height="743.33" fill="#fff" stroke="#000" stroke-width="0"/><g id="id155653dd" class="DirectedInteraction" color="#000" ><g color="#000" fill="transparent"  filter="url(#kaavioblackto000000filter)" stroke="#000" stroke-dasharray="59.084512790033344, 5.8"><path id="id155653dd" class="EdgeBody" d="m372 345-27 59"   marker-end="url(#markerEndArrow)" /></g></g><g id="id255bd77a" class="DirectedInteraction" color="#000" ><g color="#000" fill="transparent"  filter="url(#kaavioblackto000000filter)" stroke="#000" stroke-dasharray="209.9380952380953, 5.8"><path id="id255bd77a" class="EdgeBody" d="m176 602v101.24h114.5"   marker-end="url(#markerEndArrow)" /></g></g><g id="id33710ccd" class="DirectedInteraction" color="#000" ><g color="#000" fill="transparent"  filter="url(#kaavioblackto000000filter)" stroke="#000" stroke-dasharray="84.57475345167667, 5.8"><path id="id33710ccd" class="EdgeBody" d="m501 340.96v90.375"   marker-end="url(#markerEndArrow)" /></g></g><g id="id3bebf36c" class="DirectedInteraction" color="#000" ><g color="#000" fill="transparent"  filter="url(#kaavioblackto000000filter)" stroke="#000" stroke-dasharray="57.7, 5.8"><path id="id3bebf36c" class="EdgeBody" d="m794 342.5v63.5"   marker-end="url(#markerEndArrow)" /></g></g><g id="id451aabed" class="DirectedInteraction" color="#000" ><g color="#000" fill="transparent"  filter="url(#kaavioblackto000000filter)" stroke="#000" stroke-dasharray="10.792543506045089, 5.8"><path id="id451aabed" class="EdgeBody" d="m571 31 1.75 16.5"   marker-end="url(#markerEndArrow)" /></g></g><g id="id54282776" class="Interaction" color="#000" ><g color="#000" fill="transparent"  filter="url(#kaavioblackto000000filter)" stroke="#000" stroke-dasharray="37.73430066794388, 7"><path id="id54282776" class="EdgeBody" d="m67.312 433.65 37.688 24.1"   marker-end="url(#markerEndMimInhibition)" /></g></g><g id="id595c361c" class="DirectedInteraction" color="#000" ><g color="#000" fill="transparent"  filter="url(#kaavioblackto000000filter)" stroke="#000" stroke-dasharray="81.81904761904771, 5.8"><path id="id595c361c" class="EdgeBody" d="m345 605.62v87.619"   marker-end="url(#markerEndArrow)" /></g></g><g id="id6776928d" class="DirectedInteraction" color="#000" ><g color="#000" fill="transparent"  filter="url(#kaavioblackto000000filter)" stroke="#000" stroke-dasharray="48.2, 5.8"><path id="id6776928d" class="EdgeBody" d="m794 426v54"   marker-end="url(#markerEndArrow)" /></g></g><g id="id81f53c22" class="Interaction" color="#000" ><g color="#000" fill="transparent"  filter="url(#kaavioblackto000000filter)" stroke="#000" stroke-dasharray="72.18224072497387, 7"><path id="id81f53c22" class="EdgeBody" d="m393.82 261.95 79.176-1"   marker-end="url(#markerEndMimInhibition)" /></g></g><g id="id92df436d" class="DirectedInteraction" color="#000" ><g color="#000" fill="transparent"  filter="url(#kaavioblackto000000filter)" stroke="#000" stroke-dasharray="83.7, 5.8"><path id="id92df436d" class="EdgeBody" d="m666 328h89.5"   marker-end="url(#markerEndArrow)" /></g></g><g id="id9b491c9b" class="DirectedInteraction" color="#000" ><g color="#000" fill="transparent"  filter="url(#kaavioblackto000000filter)" stroke="#000" stroke-dasharray="118.17981020715536, 5.8"><path id="id9b491c9b" class="EdgeBody" d="m247 489.25 78 96.369"   marker-end="url(#markerEndArrow)" /></g></g><g id="id9f0baa91" class="DirectedInteraction" color="#000" ><g color="#000" fill="transparent"  filter="url(#kaavioblackto000000filter)" stroke="#000" stroke-dasharray="72.11058308674184, 5.8"><path id="id9f0baa91" class="EdgeBody" d="m462.9 596.57-77.905-0.95238"   marker-end="url(#markerEndArrow)" /></g></g><g id="id9f63d0a1" class="DirectedInteraction" color="#000" ><g color="#000" fill="transparent"  filter="url(#kaavioblackto000000filter)" stroke="#000" stroke-dasharray="68.84863109356134, 5.8"><path id="id9f63d0a1" class="EdgeBody" d="m782.23 165.79-74.648-0.26852"   marker-end="url(#markerEndArrow)" /></g></g><g id="ida7803ccf" class="DirectedInteraction" color="#000" ><g color="#000" fill="transparent"  filter="url(#kaavioblackto000000filter)" stroke="#000" stroke-dasharray="224.03335306566538, 5.8"><path id="ida7803ccf" class="EdgeBody" d="m629.33 703.33-229.83-0.095238"   marker-end="url(#markerEndArrow)" /></g></g><g id="idc1eadb2c" class="DirectedInteraction" color="#000" ><g color="#000" fill="transparent"  filter="url(#kaavioblackto000000filter)" stroke="#000" stroke-dasharray="88.20531899844816, 5.8"><path id="idc1eadb2c" class="EdgeBody" d="m626 338 1 94"   marker-end="url(#markerEndArrow)" /></g></g><g id="idc522b731" class="DirectedInteraction" color="#000" ><g color="#000" fill="transparent"  filter="url(#kaavioblackto000000filter)" stroke="#000" stroke-dasharray="96.8190476190476, 5.8"><path id="idc522b731" class="EdgeBody" d="m345 483v102.62"   marker-end="url(#markerEndArrow)" /></g></g><g id="idc5fddca8" class="DirectedInteraction" color="#000" ><g color="#000" fill="transparent"  filter="url(#kaavioblackto000000filter)" stroke="#000" stroke-dasharray="33.2, 5.8"><path id="idc5fddca8" class="EdgeBody" d="m345 424v39"   marker-end="url(#markerEndArrow)" /></g></g><g id="iddbc55e1e" class="DirectedInteraction" color="#000" ><g color="#000" fill="transparent"  filter="url(#kaavioblackto000000filter)" stroke="#000" stroke-dasharray="71.2, 5.8"><path id="iddbc55e1e" class="EdgeBody" d="m176 505v77"   marker-end="url(#markerEndArrow)" /></g></g><g id="iddd0294e0" class="DirectedInteraction" color="#000" ><g color="#000" fill="transparent"  filter="url(#kaavioblackto000000filter)" stroke="#000" stroke-dasharray="23.599192165772173, 5.8"><path id="iddd0294e0" class="EdgeBody" d="m478 29 16.25 24.5"   marker-end="url(#markerEndArrow)" /></g></g><g id="ide7c79201" class="DirectedInteraction" color="#000" ><g color="#000" fill="transparent"  filter="url(#kaavioblackto000000filter)" stroke="#000" stroke-dasharray="171.6504242351212, 5.8"><path id="ide7c79201" class="EdgeBody" d="m481 451.33-116 134.29"   marker-end="url(#markerEndArrow)" /></g></g><g id="id377a7ef" class="DirectedInteraction" color="#000" ><g color="#000" fill="transparent"  filter="url(#kaavioblackto000000filter)" stroke="#000" stroke-dasharray="74.823438830708, 5.8"><path id="id377a7ef" class="EdgeBody" d="m627 452 6.8333 80.333"   marker-end="url(#markerEndArrow)" /></g></g><g id="id90021668" class="DirectedInteraction" color="#000" ><g color="#000" fill="transparent"  filter="url(#kaavioblackto000000filter)" stroke="#000" stroke-dasharray="26.2, 5.8"><path id="id90021668" class="EdgeBody" d="m668.33 661.33 1.9e-12 32"   marker-end="url(#markerEndArrow)" /></g></g><g id="ida90d8bb3" class="DirectedInteraction" color="#000" ><g color="#000" fill="transparent"  filter="url(#kaavioblackto000000filter)" stroke="#000" stroke-dasharray="131.90139291637956, 5.8"><path id="ida90d8bb3" class="EdgeBody" d="m521 451.33 78.333 113.25"   marker-end="url(#markerEndArrow)" /></g></g><g id="idda31ea5f" class="DirectedInteraction" color="#000" ><g color="#000" fill="transparent"  filter="url(#kaavioblackto000000filter)" stroke="#000" stroke-dasharray="80.11925311334807, 5.8"><path id="idda31ea5f" class="EdgeBody" d="m794 500-56.667 64.583"   marker-end="url(#markerEndArrow)" /></g></g><g id="idda4527cb" class="DirectedInteraction" color="#000" ><g color="#000" fill="transparent"  filter="url(#kaavioblackto000000filter)" stroke="#000" stroke-dasharray="50.62917922115914, 5.8"><path id="idda4527cb" class="EdgeBody" d="m599.33 596.83-56.429-0.2619"   marker-end="url(#markerEndArrow)" /></g></g><g id="idfe119ae4" class="DirectedInteraction" color="#000" ><g color="#000" fill="transparent"  filter="url(#kaavioblackto000000filter)" stroke="#000" stroke-dasharray="490.53333333333336, 5.8"><path id="idfe119ae4" class="EdgeBody" d="m737.33 596.83h161.33v-268.83h-66.167"   marker-end="url(#markerEndArrow)" /></g></g><g id="id119c0eda" class="DirectedInteraction" color="#000" ><g color="#000" fill="transparent"  filter="url(#kaavioblackto000000filter)" stroke="#000" stroke-dasharray="137.07345415648876, 5.8"><path id="id119c0eda" class="EdgeBody" d="m507.25 278.95-135.25 46.046"   marker-end="url(#markerEndArrow)" /></g></g><g id="id3fa6ac31" class="DirectedInteraction" color="#000" ><g color="#000" fill="transparent"  filter="url(#kaavioblackto000000filter)" stroke="#000" stroke-dasharray="35.76531913095524, 5.8"><path id="id3fa6ac31" class="EdgeBody" d="m591.75 278.95 14.25 39.046"   marker-end="url(#markerEndArrow)" /></g></g><g id="id7a79c8d8" class="DirectedInteraction" color="#000" ><g color="#000" fill="transparent"  filter="url(#kaavioblackto000000filter)" stroke="#000" stroke-dasharray="58.3612002905584, 5.8"><path id="id7a79c8d8" class="EdgeBody" d="m549.5 278.95-48.5 42.005"   marker-end="url(#markerEndArrow)" /></g></g><g id="id8a723284" class="DirectedInteraction" color="#000" ><g color="#000" fill="transparent"  filter="url(#kaavioblackto000000filter)" stroke="#000" stroke-dasharray="35.47370665997957, 5.8"><path id="id8a723284" class="EdgeBody" d="m627.58 165.52-35.833 20.481"   marker-end="url(#markerEndArrow)" /></g></g><g id="id9cbeefd8" class="DirectedInteraction" color="#000" ><g color="#000" fill="transparent"  filter="url(#kaavioblackto000000filter)" stroke="#000" stroke-dasharray="42.00167361086848, 5.8"><path id="id9cbeefd8" class="EdgeBody" d="m494.25 140 13 46"   marker-end="url(#markerEndArrow)" /></g></g><g id="idccc65bbe" class="DirectedInteraction" color="#000" ><g color="#000" fill="transparent"  filter="url(#kaavioblackto000000filter)" stroke="#000" stroke-dasharray="55.07252320423411, 5.8"><path id="idccc65bbe" class="EdgeBody" d="m570.85 128.99-21.345 57.008"   marker-end="url(#markerEndArrow)" /></g></g><g id="id482ce5a6" class="DirectedInteraction" color="#000" ><g color="#000" fill="transparent"  filter="url(#kaavioblackto000000filter)" stroke="#000" stroke-dasharray="258.8941671879965, 5.8"><path id="id482ce5a6" class="EdgeBody" d="m507.25 278.95-261.33 42.046"   marker-end="url(#markerEndArrow)" /></g></g><g id="id6d2aba5e" class="DirectedInteraction" color="#000" ><g color="#000" fill="transparent"  filter="url(#kaavioblackto000000filter)" stroke="#000" stroke-dasharray="49.51450482870151, 5.8"><path id="id6d2aba5e" class="EdgeBody" d="m218.83 407-42.833 35"   marker-end="url(#markerEndArrow)" /></g></g><g id="ad9b4" class="SingleFreeNode Shape" transform="translate(361.75,207.75) rotate(270,63,9.25)" color="#000" ><use id="ad9b4-icon" class="Icon" transform="matrix(.99213 0 0 .94872 .49606 .47436)" width="126" height="18.5" fill="transparent"  stroke="#000" xlink:href="#Brace"/></g><g id="c8396" class="SingleFreeNode Shape PhysicalEntity CellularComponent Nucleus" transform="translate(754.86 124.18)" color="#c0c0c0" ><g fill="transparent"  filter="url(#kaaviodoublefalse3filter)" stroke="#c0c0c0" stroke-width="3"><use id="c8396-icon" class="Icon" transform="matrix(.92717 0 0 .86205 5.563 5.1723)" width="152.76851851851848" height="74.99074074074068"    xlink:href="#Ellipse"/></g></g><g id="e8e10" class="SingleFreeNode Shape PhysicalEntity CellularComponent Mitochondria" transform="translate(105,442)" color="#c0c0c0" ><use id="e8e10-icon" class="Icon" transform="matrix(.97931 0 0 .95455 1.469 1.4318)" width="142" height="63" fill="transparent"  stroke="#c0c0c0" stroke-width="3" xlink:href="#Mitochondria"/></g><g id="a4afb" class="GroupGroup" transform="translate(599.33 532.33)" color="grey" ><use id="a4afb-icon" class="Icon" width="138" height="129" fill="transparent"  stroke="grey" stroke-dasharray="5,3" stroke-width="0" xlink:href="#none"/><g id="f5fe1" class="SingleFreeNode Shape" transform="translate(8,8)" color="#000" ><use id="f5fe1-icon" class="Icon" transform="matrix(.99187 0 0 .99123 .49593 .49561)" width="122" height="113" fill="transparent"  stroke="#000" xlink:href="#Ellipse"/></g><a id="e6328" class="Metabolite ChEBI_CHEBI_29033  " transform="translate(28.905 54.571)" color="#00f"  name="Iron"  ><rect id="e6328-icon" class="Icon" transform="matrix(.98765 0 0 .95238 .49383 .47619)" width="80" height="20" fill="#fff" stroke="#00f"/><text id="e6328-text" class="Text" transform="translate(40,13)" fill="#00f"  font-size="10px" stroke="white" stroke-width="0" text-anchor="middle"><tspan x="0" y="0">Iron</tspan></text></a></g><g id="b33ab" class="Label" transform="translate(47,492)" color="#000"  name="Mitochondria"><use id="b33ab-icon" class="Icon" width="80" height="20" fill="transparent"  stroke="#000" stroke-width="0" xlink:href="#none"/><text id="b33ab-text" class="Text" transform="translate(40,13)" fill="#000"  font-size="10px" stroke="white" stroke-width="0" text-anchor="middle"><tspan x="0" y="0">Mitochondria</tspan></text></g><g id="b563d" class="Label" transform="translate(331,208)" color="#000"  name="NECROSOME"><use id="b563d-icon" class="Icon" width="80" height="20" fill="transparent"  stroke="#000" stroke-width="0" xlink:href="#none"/><text id="b563d-text" class="Text" transform="translate(40,13)" fill="#000"  font-size="10px" stroke="white" stroke-width="0" text-anchor="middle"><tspan x="0" y="0">NECROSOME</tspan></text></g><g id="b69f2" class="Label" transform="translate(745,286)" color="#000"  name="Lipid peroxidation"><use id="b69f2-icon" class="Icon" width="98" height="18" fill="transparent"  stroke="#000" stroke-width="0" xlink:href="#none"/><text id="b69f2-text" class="Text" transform="translate(49,12)" fill="#000"  font-size="10px" stroke="white" stroke-width="0" text-anchor="middle"><tspan x="0" y="0">Lipid peroxidation</tspan></text></g><g id="e6117" class="Label" transform="translate(629.33 693.33)" color="#000"  name="Lowered pH"><use id="e6117-icon" class="Icon" width="78.00000000000011" height="20" fill="transparent"  stroke="#000" stroke-width="0" xlink:href="#none"/><text id="e6117-text" class="Text" transform="translate(39 13)" fill="#000"  font-size="10px" stroke="white" stroke-width="0" text-anchor="middle"><tspan x="0" y="0">Lowered pH</tspan></text></g><g id="edb09" class="Label" transform="translate(700.19 634.14)" color="#000"  name="Lysosome"><use id="edb09-icon" class="Icon" width="80" height="20" fill="transparent"  stroke="#000" stroke-width="0" xlink:href="#none"/><text id="edb09-text" class="Text" transform="translate(40,13)" fill="#000"  font-size="10px" stroke="white" stroke-width="0" text-anchor="middle"><tspan x="0" y="0">Lysosome</tspan></text></g><g id="f19ee" class="Label" transform="translate(782.23 155.79)" color="#000"  name="DNA damage"><use id="f19ee-icon" class="Icon" width="80" height="20" fill="transparent"  stroke="#000" stroke-width="0" xlink:href="#none"/><text id="f19ee-text" class="Text" transform="translate(40,13)" fill="#000"  font-size="10px" stroke="white" stroke-width="0" text-anchor="middle"><tspan x="0" y="0">DNA damage</tspan></text></g><a id="a331f" class="Metabolite ChEBI_CHEBI_29033  " transform="translate(462.9 586.57)" color="#00f"  name="Iron"  ><rect id="a331f-icon" class="Icon" transform="matrix(.98765 0 0 .95238 .49383 .47619)" width="80" height="20" fill="#fff" stroke="#00f"/><text id="a331f-text" class="Text" transform="translate(40,13)" fill="#00f"  font-size="10px" stroke="white" stroke-width="0" text-anchor="middle"><tspan x="0" y="0">Iron</tspan></text></a><a  id="b0b03" class="GeneProduct TNFRSF1A " transform="translate(470.5,53.5)"   name="TNFR1"  ><rect id="b0b03-icon" class="Icon" transform="matrix(.97938 0 0 .98857 .48969 .49429)" width="47.5" height="86.5" fill="#fff" stroke="#000"/><text id="b0b03-text" class="Text" transform="translate(23.75,46.25)" fill="#000"  font-size="10px" stroke="white" stroke-width="0" text-anchor="middle"><tspan x="0" y="0">TNFR1</tspan></text></a><g id="b7784" class="Pathway" transform="translate(290.5 693.24)" color="#14961e"  name="Necroptosis"><use id="b7784-icon" class="Icon" width="109" height="20" fill="transparent"  stroke="#14961e" stroke-width="0" xlink:href="#none"/><text id="b7784-text" class="Text" transform="translate(54.5,14)" fill="#14961e"  font-size="12px" font-weight="bold" stroke="black" stroke-width="0" text-anchor="middle"><tspan x="0" y="0">Necroptosis</tspan></text></g><a id="c4878" class="ChEBI_CHEBI_26523 Metabolite  " transform="translate(305 585.62)" color="#00f"  name="ROS"  ><rect id="c4878-icon" class="Icon" transform="matrix(.98765 0 0 .95238 .49383 .47619)" width="80" height="20" fill="#fff" stroke="#00f"/><text id="c4878-text" class="Text" transform="translate(40,13)" fill="#00f"  font-size="10px" stroke="white" stroke-width="0" text-anchor="middle"><tspan x="0" y="0">ROS</tspan></text></a><a  id="c4da6" class="GeneProduct TICAM1 " transform="translate(547.44 107.55)"   name="TRIF"  ><rect id="c4da6-icon" class="Icon" transform="matrix(.97908 0 0 .95545 .48954 .47773)" width="46.805" height="21.447" fill="#fff" stroke="#000"/><text id="c4da6-text" class="Text" transform="translate(23.402 13.724)" fill="#000"  font-size="10px" stroke="white" stroke-width="0" text-anchor="middle"><tspan x="0" y="0">TRIF</tspan></text></a><a id="cbd1a" class="Metabolite ChEBI_CHEBI_15843  " transform="translate(743,406)" color="#00f"  name="Arachidonic acid"  ><rect id="cbd1a-icon" class="Icon" transform="matrix(.99029 0 0 .95238 .49515 .47619)" width="102" height="20" fill="#fff" stroke="#00f"/><text id="cbd1a-text" class="Text" transform="translate(51,13)" fill="#00f"  font-size="10px" stroke="white" stroke-width="0" text-anchor="middle"><tspan x="0" y="0">Arachidonic acid</tspan></text></a><g id="d1eaa" class="Unknown" transform="translate(545,11)" color="#000"  name="PAMPs"><rect id="d1eaa-icon" class="Icon" transform="matrix(.98113 0 0 .95238 .49057 .47619)" width="52" height="20" fill="#fff" stroke="#000"/><text id="d1eaa-text" class="Text" transform="translate(26,13)" fill="#000"  font-size="10px" stroke="white" stroke-width="0" text-anchor="middle"><tspan x="0" y="0">PAMPs</tspan></text></g><a  id="d4c5b" class="Protein" transform="translate(461 320.96)"   name="SMases"  ><rect id="d4c5b-icon" class="Icon" transform="matrix(.98765 0 0 .95238 .49383 .47619)" width="80" height="20" fill="#fff" stroke="#000"/><text id="d4c5b-text" class="Text" transform="translate(40,13)" fill="#000"  font-size="10px" stroke="white" stroke-width="0" text-anchor="middle"><tspan x="0" y="0">SMases</tspan></text></a><g id="d54ac" class="Protein" transform="translate(587,432)" color="#000"  name="Calpains"><rect id="d54ac-icon" class="Icon" transform="matrix(.98765 0 0 .95238 .49383 .47619)" width="80" height="20" fill="#fff" stroke="#000"/><text id="d54ac-text" class="Text" transform="translate(40,13)" fill="#000"  font-size="10px" stroke="white" stroke-width="0" text-anchor="middle"><tspan x="0" y="0">Calpains</tspan></text></g><a  id="d81de" class="Uniprot-TrEMBL_P01375 Protein TNF " transform="translate(457,9)"   name="TNF"  ><rect id="d81de-icon" class="Icon" transform="matrix(.97674 0 0 .95238 .48837 .47619)" width="42" height="20" fill="#fff" stroke="#000"/><text id="d81de-text" class="Text" transform="translate(21,13)" fill="#000"  font-size="10px" stroke="white" stroke-width="0" text-anchor="middle"><tspan x="0" y="0">TNF</tspan></text></a><a  id="db0dc" class="ChEBI_CHEBI_30441 Metabolite  " transform="translate(29.85 404.5)"   name="Ge NP"  ><rect id="db0dc-icon" class="Icon" transform="matrix(.98037 0 0 .96683 .49019 .48342)" width="49.95" height="29.15" fill="#fff" stroke="#000"/><text id="db0dc-text" class="Text" transform="translate(24.975 17.575)" fill="#000"  font-size="10px" stroke="white" stroke-width="0" text-anchor="middle"><tspan x="0" y="0">Ge NP</tspan></text></a><a id="dd587" class="Metabolite ChEBI_CHEBI_16284  " transform="translate(136,582)" color="#00f"  name="ATP"  ><rect id="dd587-icon" class="Icon" transform="matrix(.98765 0 0 .95238 .49383 .47619)" width="80" height="20" fill="#fff" stroke="#00f"/><text id="dd587-text" class="Text" transform="translate(40,13)" fill="#00f"  font-size="10px" stroke="white" stroke-width="0" text-anchor="middle"><tspan x="0" y="0">ATP</tspan></text></a><a id="de358" class="Metabolite ChEBI_CHEBI_29108  " transform="translate(586,318)" color="#00f"  name="Calcium"  ><rect id="de358-icon" class="Icon" transform="matrix(.98765 0 0 .95238 .49383 .47619)" width="80" height="20" fill="#fff" stroke="#00f"/><text id="de358-text" class="Text" transform="translate(40,13)" fill="#00f"  font-size="10px" stroke="white" stroke-width="0" text-anchor="middle"><tspan x="0" y="0">Calcium</tspan></text></a><a id="e0f4c" class="ChEBI_CHEBI_17761 Metabolite  " transform="translate(461 431.33)" color="#0033cc"  name="Ceramide"  ><rect id="e0f4c-icon" class="Icon" transform="matrix(.98765 0 0 .95238 .49383 .47619)" width="80" height="20" fill="#fff" stroke="#03c"/><text id="e0f4c-text" class="Text" transform="translate(40,13)" fill="#0033cc"  font-size="10px" stroke="white" stroke-width="0" text-anchor="middle"><tspan x="0" y="0">Ceramide</tspan></text></a><a  id="e6df9" class="PubChem-compound_2828334 Metabolite ChEBI_CHEBI_91658  " transform="translate(313.82 251.95)"   name="Nec-1"  ><rect id="e6df9-icon" class="Icon" transform="matrix(.98765 0 0 .95238 .49383 .47619)" width="80" height="20" fill="#fff" stroke="#000"/><text id="e6df9-text" class="Text" transform="translate(40,13)" fill="#000"  font-size="10px" stroke="white" stroke-width="0" text-anchor="middle"><tspan x="0" y="0">Nec-1</tspan></text></a><a  id="ed523" class="GeneProduct PARP1 " transform="translate(627.58 155.52)"   name="PARP1"  ><rect id="ed523-icon" class="Icon" transform="matrix(.98765 0 0 .95238 .49383 .47619)" width="80" height="20" fill="#fff" stroke="#000"/><text id="ed523-text" class="Text" transform="translate(40,13)" fill="#000"  font-size="10px" stroke="white" stroke-width="0" text-anchor="middle"><tspan x="0" y="0">PARP1</tspan></text></a><g id="f5060" class="Protein" transform="translate(754,480)" color="#000"  name="lipoxygenase"><rect id="f5060-icon" class="Icon" transform="matrix(.98765 0 0 .95238 .49383 .47619)" width="80" height="20" fill="#fff" stroke="#000"/><text id="f5060-text" class="Text" transform="translate(40,13)" fill="#000"  font-size="10px" stroke="white" stroke-width="0" text-anchor="middle"><tspan x="0" y="0">lipoxygenase</tspan></text></g><a  id="f59c8" class="GeneProduct PLA2G4A " transform="translate(755.5,313.5)"   name="cPLA2"  ><rect id="f59c8-icon" class="Icon" transform="matrix(.98718 0 0 .96667 .49359 .48333)" width="77" height="29" fill="#fff" stroke="#000"/><text id="f59c8-text" class="Text" transform="translate(38.5,17.5)" fill="#000"  font-size="10px" stroke="white" stroke-width="0" text-anchor="middle"><tspan x="0" y="0">cPLA2</tspan></text></a><a  id="f7f7a" class="GeneProduct MAPK8 " transform="translate(332,325)"   name="JNK"  ><rect id="f7f7a-icon" class="Icon" transform="matrix(.98765 0 0 .95238 .49383 .47619)" width="80" height="20" fill="#fff" stroke="#000"/><text id="f7f7a-text" class="Text" transform="translate(40,13)" fill="#000"  font-size="10px" stroke="white" stroke-width="0" text-anchor="middle"><tspan x="0" y="0">JNK</tspan></text></a><g id="b74ab" class="GroupGroup" transform="translate(465,186)" color="grey" ><use id="b74ab-icon" class="Icon" width="169" height="92.95370370370381" fill="transparent"  stroke="grey" stroke-dasharray="5,3" stroke-width="0" xlink:href="#none"/><a  id="b7c26" class="GeneProduct CASP8 " transform="translate(81,36)"   name="CASP8"  ><rect id="b7c26-icon" class="Icon" transform="matrix(.98765 0 0 .95238 .49383 .47619)" width="80" height="20" fill="#fff" stroke="#000"/><text id="b7c26-text" class="Text" transform="translate(40,13)" fill="#000"  font-size="10px" stroke="white" stroke-width="0" text-anchor="middle"><tspan x="0" y="0">CASP8</tspan></text></a><a  id="bd9cf" class="GeneProduct TRADD " transform="translate(36,8)"   name="TRADD"  ><rect id="bd9cf-icon" class="Icon" transform="matrix(.98 0 0 .95238 .49 .47619)" width="49" height="20" fill="#fff" stroke="#000"/><text id="bd9cf-text" class="Text" transform="translate(24.5,13)" fill="#000"  font-size="10px" stroke="white" stroke-width="0" text-anchor="middle"><tspan x="0" y="0">TRADD</tspan></text></a><a  id="d0a17" class="GeneProduct RIPK1 " transform="translate(8 64.954)"   name="RIPK1"  ><rect id="d0a17-icon" class="Icon" transform="matrix(.98039 0 0 .95238 .4902 .47619)" width="50" height="20" fill="#fff" stroke="#000"/><text id="d0a17-text" class="Text" transform="translate(25,13)" fill="#000"  font-size="10px" stroke="white" stroke-width="0" text-anchor="middle"><tspan x="0" y="0">RIPK1</tspan></text></a><a  id="d2a9b" class="GeneProduct FADD " transform="translate(22,36)"   name="FADD"  ><rect id="d2a9b-icon" class="Icon" transform="matrix(.98077 0 0 .95238 .49038 .47619)" width="51" height="20" fill="#fff" stroke="#000"/><text id="d2a9b-text" class="Text" transform="translate(25.5,13)" fill="#000"  font-size="10px" stroke="white" stroke-width="0" text-anchor="middle"><tspan x="0" y="0">FADD</tspan></text></a><a  id="f001b" class="GeneProduct RIPK3 " transform="translate(68 64.954)"   name="RIPK3"  ><rect id="f001b-icon" class="Icon" transform="matrix(.98039 0 0 .95238 .4902 .47619)" width="50" height="20" fill="#fff" stroke="#000"/><text id="f001b-text" class="Text" transform="translate(25,13)" fill="#000"  font-size="10px" stroke="white" stroke-width="0" text-anchor="middle"><tspan x="0" y="0">RIPK3</tspan></text></a></g><g id="d4716" class="GroupGroup" transform="translate(164.67 321)" color="grey" ><use id="d4716-icon" class="Icon" width="108.33333333333334" height="86" fill="transparent"  stroke="grey" stroke-dasharray="5,3" stroke-width="0" xlink:href="#none"/><a id="d6156" class="Pathway" transform="translate(8.3333 8)" color="#009933"  name="Glutaminolysis"  ><rect id="d6156-icon" class="Icon" transform="matrix(.98921 0 0 .95238 .4946 .47619)" width="91.667" height="20" rx="15" ry="15" fill="#fff" stroke="#093"/><text id="d6156-text" class="Text" transform="translate(45.833 14)" fill="#009933"  font-size="12px" font-weight="bold" stroke="black" stroke-width="0" text-anchor="middle"><tspan x="0" y="0">Glutaminolysis</tspan></text></a><g id="f2453" class="WikiPathways_Glycogenolysis Pathway" transform="translate(8,33)" color="#009933"  name="Glycogenolysis"><rect id="f2453-icon" class="Icon" transform="matrix(.98929 0 0 .95238 .49464 .47619)" width="92.333" height="20" rx="15" ry="15" fill="#fff" stroke="#093"/><text id="f2453-text" class="Text" transform="translate(46.167 14)" fill="#009933"  font-size="12px" font-weight="bold" stroke="black" stroke-width="0" text-anchor="middle"><tspan x="0" y="0">Glycogenolysis</tspan></text></g><g id="d31b9" class="WikiPathways_Glycolysis Pathway" transform="translate(14.167 58)" color="#009933"  name="Glycolysis"><rect id="d31b9-icon" class="Icon" transform="matrix(.98765 0 0 .95238 .49383 .47619)" width="80" height="20" rx="15" ry="15" fill="#fff" stroke="#093"/><text id="d31b9-text" class="Text" transform="translate(40,14)" fill="#009933"  font-size="12px" font-weight="bold" stroke="black" stroke-width="0" text-anchor="middle"><tspan x="0" y="0">Glycolysis</tspan></text></g></g><g id="b17d7" class="Ensembl_Toll-like_receptor Protein" transform="translate(553.5 47.5)" color="#000"  name="TLRs"><rect id="b17d7-icon" class="Icon" transform="matrix(.97468 0 0 .98186 .48734 .49093)" width="38.5" height="54.135" fill="#fff" stroke="#000"/><text id="b17d7-text" class="Text" transform="translate(19.25 30.068)" fill="#000"  font-size="10px" stroke="white" stroke-width="0" text-anchor="middle"><tspan x="0" y="0">TLRs</tspan></text></g><a  id="e6d23" class="Uniprot-TrEMBL_P02792 Protein FTL " transform="translate(305,404)"   name="Ferritin"  ><rect id="e6d23-icon" class="Icon" transform="matrix(.98765 0 0 .95238 .49383 .47619)" width="80" height="20" fill="#fff" stroke="#000"/><text id="e6d23-text" class="Text" transform="translate(40,13)" fill="#000"  font-size="10px" stroke="white" stroke-width="0" text-anchor="middle"><tspan x="0" y="0">Ferritin</tspan></text></a><g id="adeee" class="Metabolite" transform="translate(305,463)" color="#0033cc"  name="Labile iron pool"><rect id="adeee-icon" class="Icon" transform="matrix(.98765 0 0 .95238 .49383 .47619)" width="80" height="20" fill="#fff" stroke="#03c"/><text id="adeee-text" class="Text" transform="translate(40,13)" fill="#0033cc"  font-size="10px" stroke="white" stroke-width="0" text-anchor="middle"><tspan x="0" y="0">Labile iron pool</tspan></text></g><g id="e21e8" class="Edge GraphicalLine" color="#0033ff" ><g color="#0033ff" fill="transparent"  filter="url(#kaavioblackto0033fffilter)" stroke="#000" stroke-dasharray="18.963702359346826, 1"><path id="e21e8" class="EdgeBody" d="m225.06 584.41v19.964"   marker-end="url(#markerEndMimBinding)" /></g></g><text id="WP2513-text" class="Text" transform="translate(5,27)" dominant-baseline="central" fill="black"  font-size="12px" font-weight="bold" overflow="visible" stroke="white" stroke-width="0"><tspan x="0" y="-9">Name: Nanoparticle triggered regulated necrosis</tspan> <tspan x="0" y="9">Organism: Homo sapiens</tspan></text></g></svg>
