<?xml version="1.0" encoding="UTF-8"?>
<svg xmlns="http://www.w3.org/2000/svg" id="-svg" class="Diagram"  baseProfile="full" prefix="schema:http://schema.org/" preserveAspectRatio="xMidYMid"  version="1.1"><defs><g id="filter-defs"><filter id="doublefalse3filter" x="-50%" y="-50%" width="200%" height="200%"><feComposite in="SourceGraphic" in2="SourceGraphic" result="doubleDark"/><feMorphology in="doubleDark" operator="dilate" radius="0.17" result="in2Double"/><feMorphology in="SourceGraphic" operator="dilate" radius="3" result="inDouble"/><feComposite in="inDouble" in2="in2Double" operator="out" result="doubleResult"/></filter></g><g id="icon-defs"/><g id="marker-defs"><marker id="mea" markerHeight="12" markerWidth="12" orient="auto" preserveAspectRatio="none" refX="12" refY="6" viewBox="0 0 12 12"><g id="g-mea" transform=""><g transform="rotate(180 6 6)"><rect y="5.4" width="2" height="1.2" style="stroke:#fff"/><polygon points="12 11 0 6 12 1" stroke-width="0"/></g></g></marker><marker id="memcatalysis000" markerHeight="12" markerWidth="12" orient="auto" preserveAspectRatio="none" refX="12" refY="6" viewBox="0 0 12 12"><g id="g-memcatalysis000" transform=""><g transform="rotate(180 6 6)"><circle cx="6" cy="6" r="5.3px" fill="#fff" stroke="#000"/></g></g></marker></g></defs><g id="viewport-20220102140612087" class="svg-pan-zoom_viewport" transform="matrix(1.43 0 0 1.43 31.88 4.79e-6)" style="transform:matrix(1.43, 0, 0, 1.43, 31.88, 4.79e-06)"><style>svg.Diagram {font-family: 'Liberation Sans', Arial, sans-serif; }.Diagram path {fill: transparent;stroke: #000;marker-end: url(#mea);}.Diagram symbol path {fill: inherit;stroke: inherit;stroke-width: inherit;marker-end: inherit;}.Diagram rect {fill: #fff;stroke: #000;}.Diagram text {dominant-baseline: central;overflow: hidden;text-anchor: middle;fill: #000;font-size: 10px;}</style><style type="text/css">.Viewport .textContent {
  pointer-events: none;
  stroke-width: 0px;
}

					.Viewport.Icon {
  fill: white;
}

/* Hide the InfoBox */
.Viewport.textContent {
  font-size: 0;
}

.textContent {
  stroke: none;
}

.DataNode {
  stroke-miterlimit: 1;
  pointer-events: auto;
}

.DataNode:hover {
  cursor: pointer;
}

/* TODO should this apply to things other than DataNodes? */
.DataNode.textContent {
  pointer-events: none;
}

.DataNode.Highlighted {
  opacity: 0.6;
  stroke-width: 0px;
}

marker {
  /* this is what should work per the spec
  stroke-dasharray: none; */
  /* but I need to add this to make it work in Safari */
  stroke-dasharray: 9999999999999999999999999;
}

.Citation.Icon {
  fill: none;
  stroke-width: 0px;
}

.Citation.textContent {
  text-align: center;
  vertical-align: top;
  font-size: 7px;
  fill: #999;
  fill-opacity: 1;
  stroke: none;
}</style><g id="WP2568" class="Pathway http___identifiers_org_pw_PW_0000005 Viewport"  name="Name: Digestion resistant carbohydrate metabolism Last Modified: 10/16/2013 Organism: Homo sapiens" ><g class="Pathway http___identifiers_org_pw_PW_0000005 Viewport"><rect   width="794.22" height="467.62" style="stroke:none"/><g id="id181ac5ba" class="Edge"  ><path    d="m535.72 218.98 82-15.12"/></g><g id="id191f2e9e" class="Edge"  ><path    d="m690.97 311.98v40"/></g><g id="id1ac275e6" class="Edge"  ><path    d="m690.97 164.48v-64.5"/></g><g id="id3f434e58" class="Edge"  ><path    d="m535.72 192.23 82-1.5"/></g><g id="id5174a6b5" class="Edge"  ><path    d="m290.97 356.48-102.65-34.53"/></g><g id="id6969a566" class="Edge"  ><path    d="m535.72 218.98 83.5 63.25"/></g><g id="id71f7b20f" class="Edge"  ><path    d="m535.72 192.23 83.5 90"/></g><g id="id7b94acb8" class="Edge"  ><path    d="m534.97 296.98 84.25 0.12"/></g><g id="id8e6fe02e" class="Edge"  ><path    d="m650.97 89.98-152-26-243 2-49.97 24.02-18.41 24.23-24.38 29.25"/></g><g id="idb424f6cc" class="Edge"  ><path    d="m535.72 160.23 83.5 107.13"/></g><g id="idb94b6fbf" class="Edge"  ><path    d="m314.97 296.98 140 6e-14"/><g id="ac3d5" class="AB" transform="translate(384.97 296.98)"  ><g class="AB"/></g><g id="ea02e" class="AB" transform="translate(370.97 296.98)"  ><g class="AB"/></g></g><g id="id6edc2f40" class="Edge"  ><path    d="m370.97 373.98 2.5e-13 -77" style="marker-end:url(#memcatalysis000)"/></g><g id="idcf2aeba7" class="Edge"  ><path    d="m188.32 307.73 46.65-10.75"/></g><g id="idffaa503a" class="Edge"  ><path    d="m535.72 160.23 82 17.38"/></g><g id="idecb6e298" class="Edge"  ><path    d="m314.97 198.98 131.25-12"/><g id="ad43f" class="AB" transform="translate(371.03 193.86)"  ><g class="AB"/></g></g><g id="id2d9d4fa7" class="Edge"  ><path    d="m371.97 126.98-0.94 66.88" style="marker-end:url(#memcatalysis000)"/></g><g id="id43964744" class="Edge"  ><path    d="m371.03 193.86 83.19-33.62"/></g><g id="idfb6cc4b2" class="Edge"  ><path    d="m371.03 193.86 83.19 25.12"/></g><g id="a383b" class=" PhysicalEntity CellularComponent Cell" transform="translate(84.47 211.98)"  ><g class=" PhysicalEntity CellularComponent Cell" filter="url(#doublefalse3filter)"><g class=" PhysicalEntity CellularComponent Cell"><rect   transform="matrix(0.90 0 0 0.83 5.39 5.01)" width="106" height="60.5" rx="15" ry="15" stroke-width="3" style="fill:transparent;stroke:#c0c0c0"/></g></g></g><g id="add2d" class=" PhysicalEntity CellularComponent Cell" transform="translate(85.22 277.98) rotate(0.21 52.25 29.75)"  name="Goblet cell" ><g class=" PhysicalEntity CellularComponent Cell" filter="url(#doublefalse3filter)"><g class=" PhysicalEntity CellularComponent Cell"><rect   transform="matrix(0.90 0 0 0.83 5.38 4.99)" width="104.5" height="59.5" rx="15" ry="15" stroke-width="3" style="fill:transparent;stroke:#c0c0c0"/></g></g><g ><defs><clipPath ><rect x="-52.25" y="-29.75" width="104.5" height="59.5" style="stroke:none"/></clipPath></defs><text   transform="translate(52.25 29.75) rotate(-0.21)"    font-weight="bold"  style="fill:#c0c0c0;font-size:12px">Goblet cell</text></g></g><g id="e838d" class="" transform="translate(54.95 80.19)"  ><g class=""><rect   width="162.24" height="357.43" style="fill:transparent"/></g></g><g id="b7e4f" class="Label" transform="translate(61.88 85.61)"  name="Intestinal epithelial cells" ><g class="Label"/><text   transform="translate(63.89 10)"    >Intestinal epithelial cells</text></g><g id="a3ff1" class="Protein" transform="translate(234.97 286.98)"  name="Mucin" ><rect   width="80" height="20" style="stroke:#00f"/><text   transform="translate(40,10)"     style="fill:#00f">Mucin</text></g><g id="a5ec2" class="Unknown" transform="translate(617.72 164.48)"  name="Butyrate producing bacteria" ><rect   width="146.5" height="52.5"/><text   transform="translate(73.25,26.25)"    >Butyrate producing bacteria</text></g><g id="bf000" class="Unknown" transform="translate(278.97 87.98)"  name="Carbohydrate degrading bacteria" ><rect   width="186" height="39"/><text   transform="translate(93,19.5)"    >Carbohydrate degrading bacteria</text></g><g id="ca7d0" class="Unknown" transform="translate(290.97 338.98)"  name="Mucin degrading bacteria" ><rect   width="160" height="35"/><text   transform="translate(80,17.5)"    >Mucin degrading bacteria</text></g><g id="ddcd7" class="Unknown" transform="translate(619.22 252.48)"  name="Sulphate reducing bacteria" ><rect   width="143.5" height="59.5"/><text   transform="translate(71.75,29.75)"    >Sulphate reducing bacteria</text></g><g id="e95c8" class="Metabolite " transform="translate(454.97 286.98)"  name="Sulfate" ><rect   width="80" height="20" style="stroke:#00f"/><text   transform="translate(40,10)"     style="fill:#00f">Sulfate</text></g><g id="ea572" class="Metabolite " transform="translate(650.97 79.98)"  name="Butyric acid" ><rect   width="80" height="20" style="stroke:#00f"/><text   transform="translate(40,10)"     style="fill:#00f">Butyric acid</text></g><g id="eaa6c" class="Metabolite " transform="translate(234.97 188.98)"  name="Carbohydrate" ><rect   width="80" height="20" style="stroke:#00f"/><text   transform="translate(40,10)"     style="fill:#00f">Carbohydrate</text></g><g id="eb9ba" class="Metabolite " transform="translate(634.22 351.98)"  name="Hydrogen sulfide" ><rect   width="113.5" height="39" style="stroke:#00f"/><text   transform="translate(56.75,19.5)"     style="fill:#00f">Hydrogen sulfide</text></g><g id="dcdf2" class="GroupGroup" transform="translate(446.22 136.98)"  ><g class="GroupGroup"><g id="ca914" class="Metabolite " transform="translate(8,38.5)"  name="Lactate" ><rect   width="81.5" height="33.5" style="stroke:#00f"/><text   transform="translate(40.75,16.75)"     style="fill:#00f">Lactate</text></g><g id="f0aa6" class="Metabolite " transform="translate(8 72)"  name="Hydrogen sulfide" ><rect   width="81.5" height="20" style="stroke:#00f"/><text   transform="translate(40.75,10)"     style="fill:#00f">Hydrogen sulfide</text></g><g id="fbf3f" class="Metabolite " transform="translate(8,8)"  name="Acetic acid" ><rect   width="81.5" height="30.5" style="stroke:#00f"/><text   transform="translate(40.75,15.25)"     style="fill:#00f">Acetic acid</text></g></g></g><g id="b0d1a" class=" PhysicalEntity CellularComponent Cell" transform="translate(84.47 344.98)"  ><g class=" PhysicalEntity CellularComponent Cell" filter="url(#doublefalse3filter)"><g class=" PhysicalEntity CellularComponent Cell"><rect   transform="matrix(0.90 0 0 0.83 5.39 5.01)" width="106" height="60.5" rx="15" ry="15" stroke-width="3" style="fill:transparent;stroke:#c0c0c0"/></g></g></g><g id="fc6ab" class=" PhysicalEntity CellularComponent Cell" transform="translate(84.47 141.98)"  ><g class=" PhysicalEntity CellularComponent Cell" filter="url(#doublefalse3filter)"><g class=" PhysicalEntity CellularComponent Cell"><rect   transform="matrix(0.90 0 0 0.83 5.39 5.01)" width="106" height="60.5" rx="15" ry="15" stroke-width="3" style="fill:transparent;stroke:#c0c0c0"/></g></g></g><g id="d0722" class="Edge"  ><path    d="m634.22 371.48-137.25 53.5-110 12-60-2-58-10-80-35.38"/></g></g></g></g></svg>