<?xml version="1.0" encoding="UTF-8"?>
<svg xmlns="http://www.w3.org/2000/svg" id="-svg" class="Diagram"  baseProfile="full" prefix="schema:http://schema.org/" preserveAspectRatio="xMidYMid"  version="1.1"><defs><g id="filter-defs"><filter id="doublefalse3filter" x="-50%" y="-50%" width="200%" height="200%"><feComposite in="SourceGraphic" in2="SourceGraphic" result="doubleDark"/><feMorphology in="doubleDark" operator="dilate" radius="0.17" result="in2Double"/><feMorphology in="SourceGraphic" operator="dilate" radius="3" result="inDouble"/><feComposite in="inDouble" in2="in2Double" operator="out" result="doubleResult"/></filter></g><g id="icon-defs"><symbol id="Ellipse" class=" Icon Ellipse" x="0" y="0" overflow="visible" preserveAspectRatio="none" viewBox="0 0 50 50"><desc>Ellipse</desc><ellipse cx="25" cy="25" rx="25" ry="25" vector-effect="non-scaling-stroke"/></symbol><symbol id="HexagonPathVisio" class=" Icon HexagonPathVisio" x="0" y="8" overflow="visible" preserveAspectRatio="none" viewBox="0 8 100 86"><desc>HexagonPathVisio</desc><g transform="scale(1 0.85)"><path d="m1.42 51.00 21.07-42.14h56.19l21.07 42.14-21.07 42.15h-56.19l-21.07-42.15z" stroke="currentColor" vector-effect="non-scaling-stroke"/></g></symbol><symbol id="Octagon" class=" Icon Octagon" x="0" y="0" overflow="visible" preserveAspectRatio="none" viewBox="0 0 100 100"><desc>Octagon</desc><path d="m0 25 25-25h50l25 25v50l-25 25h-50l-25-25z" vector-effect="non-scaling-stroke"/></symbol></g><g id="marker-defs"><marker id="markerendtbarff0033white" markerHeight="20" markerWidth="10" orient="auto" preserveAspectRatio="none" refX="10" refY="10" viewBox="0 0 10 20"><g id="g-markerendtbarff0033white" transform=""><g transform="rotate(180 5 10)"><rect y="9" width="8" height="2" style="stroke:none"/><line x="0" y="0" width="12" height="12" x1="7" x2="7" y2="20" stroke="#f03" stroke-width="1.8"/></g></g></marker><marker id="mea00f" markerHeight="12" markerWidth="12" orient="auto" preserveAspectRatio="none" refX="12" refY="6" viewBox="0 0 12 12"><g id="g-mea00f" transform=""><g transform="rotate(180 6 6)"><rect y="5.4" width="2" height="1.2" style="stroke:#fff"/><polygon points="12 11 0 6 12 1" fill="#00f" stroke-width="0"/></g></g></marker><marker id="markerendtbar3333ffwhite" markerHeight="20" markerWidth="10" orient="auto" preserveAspectRatio="none" refX="10" refY="10" viewBox="0 0 10 20"><g id="g-markerendtbar3333ffwhite" transform=""><g transform="rotate(180 5 10)"><rect y="9" width="8" height="2" style="stroke:none"/><line x="0" y="0" width="12" height="12" x1="7" x2="7" y2="20" stroke="#33f" stroke-width="1.8"/></g></g></marker><marker id="markerendtbar0033ffwhite" markerHeight="20" markerWidth="10" orient="auto" preserveAspectRatio="none" refX="10" refY="10" viewBox="0 0 10 20"><g id="g-markerendtbar0033ffwhite" transform=""><g transform="rotate(180 5 10)"><rect y="9" width="8" height="2" style="stroke:none"/><line x="0" y="0" width="12" height="12" x1="7" x2="7" y2="20" stroke="#03f" stroke-width="1.8"/></g></g></marker><marker id="meac0c" markerHeight="12" markerWidth="12" orient="auto" preserveAspectRatio="none" refX="12" refY="6" viewBox="0 0 12 12"><g id="g-meac0c" transform=""><g transform="rotate(180 6 6)"><rect y="5.4" width="2" height="1.2" style="stroke:#fff"/><polygon points="12 11 0 6 12 1" fill="#c0c" stroke-width="0"/></g></g></marker><marker id="memconversioncc00ccwhite" markerHeight="12" markerWidth="12" orient="auto" preserveAspectRatio="none" refX="12" refY="6" viewBox="0 0 12 12"><g id="g-memconversioncc00ccwhite" transform=""><g transform="rotate(180 6 6)"><rect y="5.4" width="2" height="1.2" style="stroke:#fff"/><polygon points="12 11 0 6 12 1" fill="#c0c" stroke-width="0"/></g></g></marker><marker id="mea33cc00" markerHeight="12" markerWidth="12" orient="auto" preserveAspectRatio="none" refX="12" refY="6" viewBox="0 0 12 12"><g id="g-mea33cc00" transform=""><g transform="rotate(180 6 6)"><rect y="5.4" width="2" height="1.2" style="stroke:#fff"/><polygon points="12 11 0 6 12 1" fill="#3c0" stroke-width="0"/></g></g></marker><marker id="memtranscriptiontranslation33cc00white" markerHeight="24" markerWidth="20" orient="auto" preserveAspectRatio="none" refX="20" refY="12" viewBox="0 0 20 24"><g id="g-memtranscriptiontranslation33cc00white" transform=""><g transform="rotate(180 10 12)"><rect y="11" width="12" height="2" style="stroke:#fff"/><line x1="15" x2="15" y1="12" y2="5" fill="none" stroke="#3c0"/><line x1="15.5" x2="8" y1="5" y2="5" fill="none" stroke="#3c0"/><polygon points="0 5 8 1 8 9" fill="#fff" stroke="#3c0"/></g></g></marker><marker id="memstimulation33cc00white" markerHeight="12" markerWidth="12" orient="auto" preserveAspectRatio="none" refX="12" refY="6" viewBox="0 0 12 12"><g id="g-memstimulation33cc00white" transform=""><g transform="rotate(180 6 6)"><rect y="5.4" width="2" height="1.2" style="stroke:none"/><line x1="12" x2="12" y1="6" y2="6" fill="none"/><polygon points="0 6 11 11 11 1" fill="#fff" stroke="#3c0"/></g></g></marker><marker id="mea0c0" markerHeight="12" markerWidth="12" orient="auto" preserveAspectRatio="none" refX="12" refY="6" viewBox="0 0 12 12"><g id="g-mea0c0" transform=""><g transform="rotate(180 6 6)"><rect y="5.4" width="2" height="1.2" style="stroke:#fff"/><polygon points="12 11 0 6 12 1" fill="#0c0" stroke-width="0"/></g></g></marker><marker id="memtranscriptiontranslation00cc00white" markerHeight="24" markerWidth="20" orient="auto" preserveAspectRatio="none" refX="20" refY="12" viewBox="0 0 20 24"><g id="g-memtranscriptiontranslation00cc00white" transform=""><g transform="rotate(180 10 12)"><rect y="11" width="12" height="2" style="stroke:#fff"/><line x1="15" x2="15" y1="12" y2="5" fill="none" stroke="#0c0"/><line x1="15.5" x2="8" y1="5" y2="5" fill="none" stroke="#0c0"/><polygon points="0 5 8 1 8 9" fill="#fff" stroke="#0c0"/></g></g></marker><marker id="memconversion00cc00white" markerHeight="12" markerWidth="12" orient="auto" preserveAspectRatio="none" refX="12" refY="6" viewBox="0 0 12 12"><g id="g-memconversion00cc00white" transform=""><g transform="rotate(180 6 6)"><rect y="5.4" width="2" height="1.2" style="stroke:#fff"/><polygon points="12 11 0 6 12 1" fill="#0c0" stroke-width="0"/></g></g></marker><marker id="markerendtbar000" markerHeight="20" markerWidth="10" orient="auto" preserveAspectRatio="none" refX="10" refY="10" viewBox="0 0 10 20"><g id="g-markerendtbar000" transform=""><g transform="rotate(180 5 10)"><rect y="9" width="8" height="2" style="stroke:none"/><line x="0" y="0" width="12" height="12" x1="7" x2="7" y2="20" stroke="#000" stroke-width="1.8"/></g></g></marker><marker id="mea" markerHeight="12" markerWidth="12" orient="auto" preserveAspectRatio="none" refX="12" refY="6" viewBox="0 0 12 12"><g id="g-mea" transform=""><g transform="rotate(180 6 6)"><rect y="5.4" width="2" height="1.2" style="stroke:#fff"/><polygon points="12 11 0 6 12 1" stroke-width="0"/></g></g></marker><marker id="meaff9900" markerHeight="12" markerWidth="12" orient="auto" preserveAspectRatio="none" refX="12" refY="6" viewBox="0 0 12 12"><g id="g-meaff9900" transform=""><g transform="rotate(180 6 6)"><rect y="5.4" width="2" height="1.2" style="stroke:#fff"/><polygon points="12 11 0 6 12 1" fill="#f90" stroke-width="0"/></g></g></marker><marker id="markerendtbar0066ffwhite" markerHeight="20" markerWidth="10" orient="auto" preserveAspectRatio="none" refX="10" refY="10" viewBox="0 0 10 20"><g id="g-markerendtbar0066ffwhite" transform=""><g transform="rotate(180 5 10)"><rect y="9" width="8" height="2" style="stroke:none"/><line x="0" y="0" width="12" height="12" x1="7" x2="7" y2="20" stroke="#06f" stroke-width="1.8"/></g></g></marker><marker id="meaf00" markerHeight="12" markerWidth="12" orient="auto" preserveAspectRatio="none" refX="12" refY="6" viewBox="0 0 12 12"><g id="g-meaf00" transform=""><g transform="rotate(180 6 6)"><rect y="5.4" width="2" height="1.2" style="stroke:#fff"/><polygon points="12 11 0 6 12 1" fill="#f00" stroke-width="0"/></g></g></marker></g></defs><g id="viewport-20220102140622236" class="svg-pan-zoom_viewport" transform="matrix(0.65 0 0 0.65 242.38 9.30e-6)" style="transform:matrix(0.65, 0, 0, 0.65, 242.38, 9.30e-06)"><style>svg.Diagram {font-family: 'Liberation Sans', Arial, sans-serif; }.Diagram path {fill: transparent;stroke: #000;marker-end: url(#mea);}.Diagram symbol path {fill: inherit;stroke: inherit;stroke-width: inherit;marker-end: inherit;}.Diagram rect {fill: #fff;stroke: #000;}.Diagram text {dominant-baseline: central;overflow: hidden;text-anchor: middle;fill: #000;font-size: 10px;}</style><style type="text/css">.Viewport .textContent {
  pointer-events: none;
  stroke-width: 0px;
}

					.Viewport.Icon {
  fill: white;
}

/* Hide the InfoBox */
.Viewport.textContent {
  font-size: 0;
}

.textContent {
  stroke: none;
}

.DataNode {
  stroke-miterlimit: 1;
  pointer-events: auto;
}

.DataNode:hover {
  cursor: pointer;
}

/* TODO should this apply to things other than DataNodes? */
.DataNode.textContent {
  pointer-events: none;
}

.DataNode.Highlighted {
  opacity: 0.6;
  stroke-width: 0px;
}

marker {
  /* this is what should work per the spec
  stroke-dasharray: none; */
  /* but I need to add this to make it work in Safari */
  stroke-dasharray: 9999999999999999999999999;
}

.Citation.Icon {
  fill: none;
  stroke-width: 0px;
}

.Citation.textContent {
  text-align: center;
  vertical-align: top;
  font-size: 7px;
  fill: #999;
  fill-opacity: 1;
  stroke: none;
}</style><g id="WP2583" class="Pathway http___identifiers_org_pw_PW_0000315 http___identifiers_org_pw_PW_0000814 http___identifiers_org_pw_PW_0000317 Viewport"  name="Name: T cell receptor and co-stimulatory signaling Organism: Homo sapiens" ><g class="Pathway http___identifiers_org_pw_PW_0000315 http___identifiers_org_pw_PW_0000814 http___identifiers_org_pw_PW_0000317 Viewport"><rect   width="1094.4" height="1023.7" style="stroke:none"/><g id="id12ffba13" class="_protein-protein_interation"  ><path    d="m656.38 689.34v63.24" style="stroke:#f03;marker-end:url(#markerendtbarff0033white)"/></g><g id="id72961117" class="Edge"  ><path    d="m850.61 751.49h37.04" stroke-width="2" style="stroke:#f93;marker-end:none"/></g><g id="id2489f199" class="_de-phosphorylation"  ><path    d="m738.5 231.59v-23.78h-506.71v28.32" style="stroke:#03f;marker-end:url(#markerendtbar0033ffwhite)"/></g><g id="id26a22e18" class="Edge"  ><path    d="m454.17 801.66 0.25 51.45" style="stroke:#3c0;marker-end:url(#memtranscriptiontranslation33cc00white)"/></g><g id="id283fc4e0" class="Edge"  ><path    d="m324.65 342.06 29.65 7e-14" style="stroke:#0c0;marker-end:url(#mea0c0)"/></g><g id="id2fca9322" class="_protein-protein_interaction"  ><path    d="m621.29 106.56v33.18h131.09v91.84" style="stroke:#3c0;marker-end:url(#mea33cc00)"/></g><g id="id4244a269" class="Edge"  ><path    d="m389.2 618.53h38.01" style="stroke:#f90;marker-end:url(#meaff9900)"/><g id="c363b" class="AB" transform="translate(404.41 618.53)"  ><g class="AB"/></g></g><g id="id4430e9f9" class="_protein-protein_interaction"  ><path    d="m495.14 106.56-0.34 169.56" style="stroke:#0c0;marker-end:url(#memconversion00cc00white)"/></g><g id="id49612b91" class="_protein-protein_interaction"  ><path    d="m607.41 106.56v20h-84.87v149.56" style="stroke:#0c0;marker-end:url(#memconversion00cc00white)"/></g><g id="id54643aa6" class="Edge"  ><path    d="m650.95 401.19 44.31-6e-14" style="stroke:#c0c;marker-end:url(#meac0c)"/></g><g id="id57452236" class="_phosphorylation"  ><path    d="m638.41 487.13 0.48 54.86" style="stroke:#c0c;marker-end:url(#meac0c)"/></g><g id="id57e04b22" class="Edge"  ><path    d="m656.38 776.68v88.80h-66.73" style="stroke:#0c0;marker-end:url(#memtranscriptiontranslation00cc00white)"/></g><g id="id641b35cd" class="Edge"  ><path    d="m404.29 566.07 0.11 52.46" style="stroke:#3c0;marker-end:url(#mea33cc00)"/></g><g id="id68241bda" class="_protein-protein_interaction"  ><path    d="m194.79 629.66v37.41" style="stroke:#3c0;marker-end:url(#mea33cc00)"/></g><g id="id6f3349d2" class="_de-phosphorylation"  ><path    d="m752.38 253.86v88.21h-73.10" style="stroke:#06f;marker-end:url(#markerendtbar0066ffwhite)"/></g><g id="id85f10f7a" class="Edge"  ><path    d="m382.05 353.2v47.99h-68.86" style="stroke:#c0c;marker-end:url(#meac0c)"/></g><g id="id94d147d0" class="Edge"  ><path    d="m454.96 629.66 0.22 37.41" style="stroke:#3c0;marker-end:url(#memstimulation33cc00white)"/></g><g id="id95054879" class="_protein-protein_interaction"  ><path    d="m194.47 487.13 0.32 56.67" style="stroke:#3c0;marker-end:url(#mea33cc00)"/></g><g id="id98914f7b" class="Edge"  ><path    d="m656.42 564.25-0.04 102.82" style="stroke:#c0c;marker-end:url(#meac0c)"/></g><g id="id9e40c182" class="Edge"  ><path    d="m454.43 877.83-0.70 70.95" stroke-dasharray="5,3" style="stroke:#f00;marker-end:url(#meaf00)"/></g><g id="id9e7cce8" class="_comes_from"  ><path    d="m651.52 258.39 0.01 72.54" style="stroke:#f90;marker-end:url(#meaff9900)"/><g id="d6af8" class="AB" transform="translate(651.52 287.41)"  ><g class="AB"/></g></g><g id="id3874e5dc" class="Edge"  ><path    d="m684.84 287.26-33.32 0.15" style="stroke:#33f;marker-end:url(#markerendtbar3333ffwhite)"/></g><g id="ida06fc4da" class="Edge"  ><path    d="m222.54 860.03 204.14-0.74" style="stroke:#3c0;marker-end:url(#memtranscriptiontranslation33cc00white)"/></g><g id="ida1506fa6" class="_protein-protein_interaction"  ><path    d="m484.57 475.99h126.09" style="stroke:#3c0;marker-end:url(#mea33cc00)"/></g><g id="ida37351ba" class="Edge"  ><path    d="m284.88 353.2 0.56 36.86" style="stroke:#0c0;marker-end:url(#mea0c0)"/></g><g id="idac77b406" class="Edge"  ><path    d="m345.81 475.99h83.26" style="stroke:#f90;marker-end:url(#meaff9900)"/><g id="c2b15" class="AB" transform="translate(379.11 475.99)"  ><g class="AB"/></g></g><g id="idaf4f9a86" class="Edge"  ><path    d="m637.65 353.2-0.58 36.86" style="stroke:#0c0;marker-end:url(#mea0c0)"/></g><g id="idb6262259" class="_protein-protein_interaction"  ><path    d="m299.32 412.32v20h79.80v43.67" style="stroke:#3c0;marker-end:url(#mea33cc00)"/></g><g id="idb713e88d" class="_protein-protein_interaction"  ><path    d="m515.01 618.53h-32.3" style="stroke:#f03;marker-end:url(#markerendtbarff0033white)"/></g><g id="idb93be9d6" class="_proteion-protein_interaction"  ><path    d="m665.4 353.2v20h57.61v16.86" style="stroke:#0c0;marker-end:url(#mea0c0)"/></g><g id="idbe349dc1" class="Edge"  ><path    d="m536.42 287.26 115.11 0.15" style="stroke:#c0c;marker-end:url(#meac0c)"/></g><g id="idc4ba447e" class="_protein-protein_interation"  ><path    d="m194.79 566.07v41.33" style="stroke:#3c0;marker-end:url(#mea33cc00)"/></g><g id="iddf233a60" class="Edge"  ><path    d="m628.63 764.63h-106.63v107.02h-39.82" style="stroke:#3c0;marker-end:url(#memtranscriptiontranslation33cc00white)"/></g><g id="idf1d50316" class="Edge"  ><path    d="m455.18 689.34-1.00 88.23" style="stroke:#0c0;marker-end:url(#mea0c0)"/></g><g id="idf1fab056" class="_protein-protein_interaction"  ><path    d="m766.23 106.56 0.02 125.02" style="stroke:#0c0;marker-end:url(#mea0c0)"/></g><g id="idf3c791ae" class="Edge"  ><path    d="m723.01 412.32v93.68h-49.07v35.98" style="stroke:#c0c;marker-end:url(#meac0c)"/></g><g id="idf9242188" class="Edge"  ><path    d="m245.67 258.39-0.56 72.54" style="stroke:#c0c;marker-end:url(#meac0c)"/></g><g id="idfaee1523" class="Edge"  ><path    d="m290.31 475.99h-68.08" style="stroke:#f90;marker-end:url(#meaff9900)"/><g id="c973f" class="AB" transform="translate(271.43 475.99)"  ><g class="AB"/></g></g><g id="idff186ca1" class="Edge"  ><path    d="m456.82 487.13v18.87h-52.53v37.80" style="stroke:#3c0;marker-end:url(#mea33cc00)"/></g><g id="idbd80ffef" class="_protein-protein_interaction"  ><path    d="m283.5 130.28v20h-23.96v85.85" style="stroke:#0c0;marker-end:url(#memconversion00cc00white)"/></g><g id="ide5eb4822" class="_de-phosphorylation"  ><path    d="m780.13 242.72h20v-92.44h-476.88v-20" style="stroke:#03f;marker-end:url(#markerendtbar0033ffwhite)"/></g><g id="id4362a538" class="_phosphorylation"  ><path    d="m417.8 232.03h49.59v-125.46" style="stroke:#c0c;marker-end:url(#memconversioncc00ccwhite)"/></g><g id="id4b01005b" class="_phosphorylation"  ><path    d="m382.05 277.43v53.5" style="stroke:#c0c;marker-end:url(#memconversioncc00ccwhite)"/></g><g id="id61bb862f" class="_protein-protein_interaction___activation"  ><path    d="m382.33 131.23-0.28 85.66" style="stroke:#0c0;marker-end:url(#memconversion00cc00white)"/></g><g id="id6316c817" class="_phosphorylation"  ><path    d="m399.92 216.89v-20h380.19v-90.33" style="stroke:#c0c;marker-end:url(#memconversioncc00ccwhite)"/></g><g id="id90944a8f" class="Edge"  ><path    d="m364.17 216.89v-20h-60.80v-66.61" style="stroke:#c0c;marker-end:url(#meac0c)"/></g><g id="idf90384d2" class="_phosphorylation"  ><path    d="m346.3 247.16-72.88 0.10" style="stroke:#c0c;marker-end:url(#memconversioncc00ccwhite)"/></g><g id="idfe2bcb03" class="_phosphorylation"  ><path    d="m417.8 247.16h175.74v-140.6" style="stroke:#c0c;marker-end:url(#memconversioncc00ccwhite)"/></g><g id="id139f5313" class="_de-phosphorylation"  ><path    d="m194.79 689.34-0.40 35.37" style="stroke:#00f;marker-end:url(#mea00f)"/></g><g id="id87e48fbb" class="Edge"  ><path    d="m194.39 815.52 0.40 32.47"/></g><g id="a056d" class=" PhysicalEntity CellularComponent Nucleus" transform="translate(295.2 753.02)"  ><g class=" PhysicalEntity CellularComponent Nucleus" filter="url(#doublefalse3filter)"><g class=" PhysicalEntity CellularComponent Nucleus"><use class=" PhysicalEntity CellularComponent Nucleus Node Icon" transform="matrix(0.97 0 0 0.94 5.79 5.62)" width="331.53" height="177.03" fill="transparent" stroke="#c0c0c0" stroke-width="3" href="#Ellipse"/></g></g></g><g id="a533f" class="" transform="translate(829.92 587.16)"  ><g class=""><rect   width="234.52" height="401.35" style="fill:transparent"/></g></g><g id="e3250" class=" PhysicalEntity CellularComponent Extracellular_region" transform="translate(88.35 96.19)"  ><g class=" PhysicalEntity CellularComponent Extracellular_region"><rect   width="726.65" height="897.51" rx="15" ry="15" stroke-dasharray="5,3" style="fill:transparent;stroke:#c0c0c0"/></g></g><g id="bdd9d" class="Label" transform="translate(390.94 948.78)"  name="Proliferation" ><g class="Label"/><text   transform="translate(62.78 13.40)"    font-weight="bold"  style="fill:#ff0033;font-size:16px">Proliferation</text></g><g id="ea9bf" class="Label" transform="translate(887.29 593.14)"  name="LEGEND" ><g class="Label"/><text   transform="translate(40,10)"    font-weight="bold"  style="font-size:12px">LEGEND</text></g><g id="f76a1" class="Label" transform="translate(908.26 631.1)"  name="protein-protein interaction" ><g class="Label"/><text   transform="translate(74.92 9.99)"     style="font-size:11px">protein-protein interaction</text></g><g id="b9041" class="GroupGroup" transform="translate(346.3 216.89)"  ><g class="GroupGroup"><g id="dde01" class="GeneProduct " transform="translate(8,8)"  name="LCK" ><rect   width="55.5" height="22.27"/><text   transform="translate(27.75 11.13)"    >LCK</text></g><g id="cd850" class="GeneProduct " transform="translate(8 30.27)"  name="FYN" ><rect   width="55.5" height="22.27"/><text   transform="translate(27.75 11.13)"    >FYN</text></g></g></g><g id="f346f" class="GeneProduct " transform="translate(217.92 236.12)"  name="ZAP70" ><rect   width="55.5" height="22.27"/><text   transform="translate(27.75 11.13)"    >ZAP70</text></g><g id="beb89" class="Metabolite " transform="translate(623.77 236.12)"  name="PIP2" ><rect   width="55.5" height="22.27" style="stroke:#00f"/><text   transform="translate(27.75 11.13)"     style="fill:#00f">PIP2</text></g><g id="ff54e" class="Protein" transform="translate(165.57 330.93)"  name="LAT / SLP-76 scaffold complex" ><rect   width="159.08" height="22.27"/><text   transform="translate(79.54 11.13)"    >LAT / SLP-76 scaffold complex</text></g><g id="b8443" class="Metabolite " transform="translate(623.78 330.93)"  name="PIP3" ><rect   width="55.5" height="22.27" style="stroke:#00f"/><text   transform="translate(27.75 11.13)"     style="fill:#00f">PIP3</text></g><g id="f5b02" class="GeneProduct " transform="translate(257.69 390.05)"  name="PLCG1" ><rect   width="55.5" height="22.27"/><text   transform="translate(27.75 11.13)"    >PLCG1</text></g><g id="b6ecd" class="Protein " transform="translate(354.3 330.93)"  name="ITK" ><rect   width="55.5" height="22.27"/><text   transform="translate(27.75 11.13)"    >ITK</text></g><g id="c5e7e" class="GeneProduct " transform="translate(695.26 390.05)"  name="AKT1" ><rect   width="55.5" height="22.27"/><text   transform="translate(27.75 11.13)"    >AKT1</text></g><g id="b78e0" class="GeneProduct " transform="translate(610.66 464.86)"  name="PKC-a" ><rect   width="55.5" height="22.27"/><text   transform="translate(27.75 11.13)"    >PKC-a</text></g><g id="d4781" class="GeneProduct " transform="translate(724.63 231.59)"  name="SHP1" ><rect   width="55.5" height="22.27"/><text   transform="translate(27.75 11.13)"    >SHP1</text></g><g id="f2340" class="Protein" transform="translate(480.92 276.13)"  name="P13K" ><rect   width="55.5" height="22.27"/><text   transform="translate(27.75 11.13)"    >P13K</text></g><g id="fea98" class="Metabolite " transform="translate(167.04 543.8)"  name="Ca2+" ><rect   width="55.5" height="22.27" style="stroke:#00f"/><text   transform="translate(27.75 11.13)"     style="fill:#00f">Ca2+</text></g><g id="eeb8e" class="Protein" transform="translate(534.15 853.11)"  name="Bcl-xL" ><use class="Protein Node Icon" width="55.5" height="24.71" fill="#fff" stroke="#000" href="#HexagonPathVisio"/><text   transform="translate(27.75 12.36)"    >Bcl-xL</text></g><g id="cf1d5" class="Protein" transform="translate(427.43 667.07)"  name="Erk" ><rect   width="55.5" height="22.27"/><text   transform="translate(27.75 11.13)"    >Erk</text></g><g id="d965c" class="GeneProduct " transform="translate(628.63 752.58)"  name="NFKB1" ><use class="GeneProduct Node Icon" width="55.5" height="24.10" fill="#fff" stroke="#000" href="#Ellipse"/><text   transform="translate(27.75 12.05)"    >NFKB1</text></g><g id="dc90a" class="Protein" transform="translate(426.42 777.56)"  name="AP-1" ><use class="Protein Node Icon" width="55.5" height="24.10" fill="#fff" stroke="#000" href="#Ellipse"/><text   transform="translate(27.75 12.05)"    >AP-1</text></g><g id="ff620" class="Protein " transform="translate(167.04 847.99)"  name="NFAT1" ><use class="Protein Node Icon" width="55.5" height="24.10" fill="#fff" stroke="#000" href="#Ellipse"/><text   transform="translate(27.75 12.05)"    >NFAT1</text></g><g id="f2b94" class="GeneProduct " transform="translate(515.01 607.39)"  name="Ras-GAP" ><rect   width="55.5" height="22.27"/><text   transform="translate(27.75 11.13)"    >Ras-GAP</text></g><g id="f002d" class="Protein" transform="translate(427.21 607.39)"  name="Ras-GTP" ><rect   width="55.5" height="22.27"/><text   transform="translate(27.75 11.13)"    >Ras-GTP</text></g><g id="ab4fe" class="Metabolite " transform="translate(429.07 464.86)"  name="DAG" ><rect   width="55.5" height="22.27" style="stroke:#00f"/><text   transform="translate(27.75 11.13)"     style="fill:#00f">DAG</text></g><g id="d1518" class="Metabolite " transform="translate(166.72 464.86)"  name="IP3" ><rect   width="55.5" height="22.27" style="stroke:#00f"/><text   transform="translate(27.75 11.13)"     style="fill:#00f">IP3</text></g><g id="e07f7" class="Protein " transform="translate(167.04 607.39)"  name="Calmodulin" ><rect   width="55.5" height="22.27"/><text   transform="translate(27.75 11.13)"    >Calmodulin</text></g><g id="beeba" class="GeneProduct " transform="translate(376.54 543.8)"  name="RasGRP" ><rect   width="55.5" height="22.27"/><text   transform="translate(27.75 11.13)"    >RasGRP</text></g><g id="b595a" class="GeneProduct " transform="translate(426.68 853.11)"  name="IL2" ><use class="GeneProduct Node Icon" width="55.5" height="24.71" fill="#fff" stroke="#000" href="#HexagonPathVisio"/><text   transform="translate(27.75 12.36)"    >IL2</text></g><g id="e95dc" class="GeneProduct " transform="translate(167.04 667.07)"  name="Calcineurin" ><rect   width="55.5" height="22.27"/><text   transform="translate(27.75 11.13)"    >Calcineurin</text></g><g id="dd1b4" class="Protein" transform="translate(628.63 667.07)"  name="IkBa" ><rect   width="55.5" height="22.27"/><text   transform="translate(27.75 11.13)"    >IkBa</text></g><g id="a7ff6" class="GeneProduct" transform="translate(621.37 541.98)"  name="IKK complex" ><rect   width="70.10" height="22.27"/><text   transform="translate(35.05 11.13)"    >IKK complex</text></g><g id="eb212" class="Label" transform="translate(908.27 652.61)"  name="inhibition" ><g class="Label"/><text   transform="translate(34.76 11.49)"     style="font-size:11px">inhibition</text></g><g id="b4fd7" class="Label" transform="translate(906.08 677.85)"  name="activation / recruitment" ><g class="Label"/><text   transform="translate(69.28 12.48)"     style="font-size:11px">activation / recruitment</text></g><g id="cac09" class="Label" transform="translate(908.64 700.05)"  name="phosphorylation" ><g class="Label"/><text   transform="translate(51.67 10.98)"     style="font-size:11px">phosphorylation</text></g><g id="e3c5c" class="Label" transform="translate(906.8 718.4)"  name="dephosphorylation" ><g class="Label"/><text   transform="translate(58.38 12.98)"     style="font-size:11px">dephosphorylation</text></g><g id="f4440" class="Label" transform="translate(906.91 738.04)"  name="necessary precursor" ><g class="Label"/><text   transform="translate(64.61 12.97)"     style="font-size:11px">necessary precursor</text></g><g id="e9f05" class="Protein " transform="translate(684.84 276.13)"  name="PTEN" ><rect   width="55.5" height="22.27"/><text   transform="translate(27.75 11.13)"    >PTEN</text></g><g id="b6cf9" class="GeneProduct " transform="translate(595.45 390.05)"  name="PDK1" ><rect   width="55.5" height="22.27"/><text   transform="translate(27.75 11.13)"    >PDK1</text></g><g id="a653a" class="Edge"  ><path    d="m561.9 877.83 0.55 70.04" stroke-dasharray="5,3" style="stroke:#f00;marker-end:url(#meaf00)"/></g><g id="d8ce7" class="Label" transform="translate(499.67 947.87)"  name="Survival" ><g class="Label"/><text   transform="translate(62.78 13.40)"    font-weight="bold"  style="fill:#ff0033;font-size:16px">Survival</text></g><g id="e35aa" class="Protein" transform="translate(333.7 607.39)"  name="Ras-GDP" ><rect   width="55.5" height="22.27"/><text   transform="translate(27.75 11.13)"    >Ras-GDP</text></g><g id="c6db8" class="Metabolite " transform="translate(290.31 464.86)"  name="PIP2" ><rect   width="55.5" height="22.27" style="stroke:#00f"/><text   transform="translate(27.75 11.13)"     style="fill:#00f">PIP2</text></g><g id="b2840" class="_protein-protein_interaction"  ><path    d="m271.57 412.32-0.14 63.67" style="stroke:#3c0;marker-end:url(#mea33cc00)"/></g><g id="bbacf" class="Label" transform="translate(845.38 776.82)"  ><rect   width="55.5" height="22.27"/></g><g id="c42b6" class="Label" transform="translate(846.39 817.19)"  ><use class="Icon" width="55.5" height="24.10" fill="#fff" stroke="#000" href="#Ellipse"/></g><g id="ed31b" class="Label" transform="translate(845.4 853.79)"  ><use class="Icon" width="55.5" height="28.54" fill="#fff" stroke="#000" href="#HexagonPathVisio"/></g><g id="af244" class="Label" transform="translate(903.93 770.01)"  name="signaling molecule" ><g class="Label"/><text   transform="translate(62.91 12.97)"     style="font-size:11px">signaling molecule</text></g><g id="da178" class="Label" transform="translate(918.12 812.69)"  name="transcription factor" ><g class="Label"/><text   transform="translate(8 12.97)"     style="text-anchor:start;font-size:11px">transcription factor</text></g><g id="b2480" class="Label" transform="translate(918.43 852.95)"  name="target gene" ><g class="Label"/><text   transform="translate(8 12.97)"     style="text-anchor:start;font-size:11px">target gene</text></g><g id="da6cd" class="Complex" transform="translate(314.99 18.07)"  name="MHC peptide" ><g class="Complex"><use class="Complex Node Icon" width="54.13" height="50.31" fill="#fff" stroke="#000" href="#Ellipse"/></g><g ><defs><clipPath ><rect x="-27.07" y="-25.16" width="54.13" height="50.31" style="stroke:none"/></clipPath></defs><text   transform="translate(27.07 25.16)"    >MHC peptide</text></g></g><g id="a8ece" class="Complex" transform="translate(455.95 29.86)"  name="B7-1/ B7-2" ><g class="Complex"><use class="Complex Node Icon" width="53.63" height="50.31" fill="#fff" stroke="#000" href="#Ellipse"/></g><g ><defs><clipPath ><rect x="-26.82" y="-25.16" width="53.63" height="50.31" style="stroke:none"/></clipPath></defs><text   transform="translate(26.82 25.16)"    >B7-1/ B7-2</text></g></g><g id="f7b20" class="Complex" transform="translate(580.7 29.86)"  name="B7-1/ B7-2" ><g class="Complex"><use class="Complex Node Icon" width="53.63" height="50.31" fill="#fff" stroke="#000" href="#Ellipse"/></g><g ><defs><clipPath ><rect x="-26.82" y="-25.16" width="53.63" height="50.31" style="stroke:none"/></clipPath></defs><text   transform="translate(26.82 25.16)"    >B7-1/ B7-2</text></g></g><g id="c951f" class="Complex" transform="translate(737.36 29.86)"  name="PD-L1" ><g class="Complex"><use class="Complex Node Icon" width="53.63" height="50.31" fill="#fff" stroke="#000" href="#Ellipse"/></g><g ><defs><clipPath ><rect x="-26.82" y="-25.16" width="53.63" height="50.31" style="stroke:none"/></clipPath></defs><text   transform="translate(26.82 25.16)"    >PD-L1</text></g></g><g id="d12be" class="Label" transform="translate(845.98 894.1)"  ><use class="Icon" width="53.63" height="50.31" fill="#fff" stroke="#000" href="#Ellipse"/></g><g id="eebe4" class="Label" transform="translate(919.37 904.84)"  name="ligand" ><g class="Label"/><text   transform="translate(8 12.97)"     style="text-anchor:start;font-size:11px">ligand</text></g><g id="daadd" class="GroupComplex" transform="translate(99.68 724.71)"  ><g class="GroupComplex"><use class="Icon" width="189.42" height="90.81" fill="#b4b464" fill-opacity=".1" stroke="grey" href="#Octagon"/><g id="cc296" class="Protein " transform="translate(121.92 35.20)"  name="NFAT1" ><use class="Protein Node Icon" width="55.5" height="24.10" fill="#fff" stroke="#000" href="#Ellipse"/><g id="e2b6f" class="State Burr" transform="translate(35.72 -7.5)"  name="P" ><g class="State Burr"><use class="State Burr Node Icon" width="15" height="15" fill="#fff" stroke="#000" href="#Ellipse"/></g><g ><defs><clipPath ><rect x="-7.5" y="-7.5" width="15" height="15" style="stroke:none"/></clipPath></defs><text   transform="translate(7.5,7.5)"  font-family="arial" overflow="visible">P</text></g></g><text   transform="translate(27.75 12.05)"    >NFAT1</text></g><g id="ee0e6" class="GeneProduct " transform="translate(12 12.01)"  name="CSNK1A1" ><rect   width="55.5" height="22.27"/><text   transform="translate(27.75 11.13)"    >CSNK1A1</text></g><g id="f3f11" class="GeneProduct " transform="translate(12 34.27)"  name="GSK3A" ><rect   width="55.5" height="22.27"/><text   transform="translate(27.75 11.13)"    >GSK3A</text></g><g id="fd8f4" class="GeneProduct " transform="translate(12 56.54)"  name="GSK3B" ><rect   width="55.5" height="22.27"/><text   transform="translate(27.75 11.13)"    >GSK3B</text></g><g id="d02ac" class="GeneProduct " transform="translate(67.56 56.53)"  name="DYRK1A" ><rect   width="55.5" height="22.27"/><text   transform="translate(27.75 11.13)"    >DYRK1A</text></g><g id="a4c27" class="GeneProduct " transform="translate(67.56 34.27)"  name="DYRK2" ><rect   width="55.5" height="22.27"/><text   transform="translate(27.75 11.13)"    >DYRK2</text></g><g id="dea5f" class="GeneProduct " transform="translate(67.56 12)"  name="NRON" ><rect   width="55.5" height="22.27" style="stroke:#909"/><text   transform="translate(27.75 11.13)"     style="fill:#990099">NRON</text></g></g></g><g id="a140c" class="GroupComplex" transform="translate(263.62 61.74)"  ><g class="GroupComplex"><use class="Icon" width="79.5" height="68.54" fill="#b4b464" fill-opacity=".1" stroke="grey" href="#Octagon"/><g id="e47c1" class="GeneProduct " transform="translate(12,12)"  name="TCRA" ><rect   width="55.5" height="22.27"/><text   transform="translate(27.75 11.13)"    >TCRA</text></g><g id="aa665" class="GeneProduct " transform="translate(12 34.27)"  name="TCRB" ><rect   width="55.5" height="22.27"/><text   transform="translate(27.75 11.13)"    >TCRB</text></g></g></g><g id="b8142" class="GroupComplex" transform="translate(342.58 62.70)"  ><g class="GroupComplex"><use class="Icon" width="79.5" height="68.54" fill="#b4b464" fill-opacity=".1" stroke="grey" href="#Octagon"/><g id="ed56f" class="GeneProduct " transform="translate(12,12)"  name="CD8A" ><rect   width="55.5" height="22.27"/><text   transform="translate(27.75 11.13)"    >CD8A</text></g><g id="c363d" class="GeneProduct " transform="translate(12 34.27)"  name="CD8B" ><rect   width="55.5" height="22.27"/><text   transform="translate(27.75 11.13)"    >CD8B</text></g></g></g><g id="ed30d" class="GeneProduct " transform="translate(453.51 84.30)"  name="CD28" ><rect   width="55.5" height="22.27"/><text   transform="translate(27.75 11.13)"    >CD28</text></g><g id="c2643" class="GeneProduct " transform="translate(579.66 84.30)"  name="CTLA4" ><rect   width="55.5" height="22.27"/><text   transform="translate(27.75 11.13)"    >CTLA4</text></g><g id="e282a" class="GeneProduct " transform="translate(738.48 84.30)"  name="PDCD1" ><rect   width="55.5" height="22.27"/><text   transform="translate(27.75 11.13)"    >PDCD1</text></g><g id="d9cd8" class="Edge"  ><path    d="m850.61 730.52h37.04" stroke-width="2" style="stroke:#33f;marker-end:none"/></g><g id="a55ce" class="Edge"  ><path    d="m850.61 710.2h37.04" stroke-width="2" style="stroke:#c0c;marker-end:none"/></g><g id="ea44f" class="Edge"  ><path    d="m850.61 691.16h37.04" stroke-width="2" style="stroke:#0c3;marker-end:none"/></g><g id="c37ba" class="Edge"  ><path    d="m850.24 639.23h37.04"/></g><g id="c9b3a" class="Edge"  ><path    d="m853.46 662.78h37.04" style="marker-end:url(#markerendtbar000)"/></g></g></g></g></svg>