<?xml version="1.0" encoding="UTF-8"?>
<svg xmlns="http://www.w3.org/2000/svg" id="-svg" class="Diagram"  baseProfile="full" prefix="schema:http://schema.org/" preserveAspectRatio="xMidYMid"  version="1.1"><defs><g id="filter-defs"><filter id="doublefalse3filter" x="-50%" y="-50%" width="200%" height="200%"><feComposite in="SourceGraphic" in2="SourceGraphic" result="doubleDark"/><feMorphology in="doubleDark" operator="dilate" radius="0.17" result="in2Double"/><feMorphology in="SourceGraphic" operator="dilate" radius="3" result="inDouble"/><feComposite in="inDouble" in2="in2Double" operator="out" result="doubleResult"/></filter></g><g id="icon-defs"><symbol id="Ellipse" class=" Icon Ellipse" x="0" y="0" overflow="visible" preserveAspectRatio="none" viewBox="0 0 50 50"><desc>Ellipse</desc><ellipse cx="25" cy="25" rx="25" ry="25" vector-effect="non-scaling-stroke"/></symbol><symbol id="Octagon" class=" Icon Octagon" x="0" y="0" overflow="visible" preserveAspectRatio="none" viewBox="0 0 100 100"><desc>Octagon</desc><path d="m0 25 25-25h50l25 25v50l-25 25h-50l-25-25z" vector-effect="non-scaling-stroke"/></symbol></g><g id="marker-defs"><marker id="mea" markerHeight="12" markerWidth="12" orient="auto" preserveAspectRatio="none" refX="12" refY="6" viewBox="0 0 12 12"><g id="g-mea" transform=""><g transform="rotate(180 6 6)"><rect y="5.4" width="2" height="1.2" style="stroke:#fff"/><polygon points="12 11 0 6 12 1" stroke-width="0"/></g></g></marker><marker id="markerendtbar000" markerHeight="20" markerWidth="10" orient="auto" preserveAspectRatio="none" refX="10" refY="10" viewBox="0 0 10 20"><g id="g-markerendtbar000" transform=""><g transform="rotate(180 5 10)"><rect y="9" width="8" height="2" style="stroke:none"/><line x="0" y="0" width="12" height="12" x1="7" x2="7" y2="20" stroke="#000" stroke-width="1.8"/></g></g></marker><marker id="meaff3366" markerHeight="12" markerWidth="12" orient="auto" preserveAspectRatio="none" refX="12" refY="6" viewBox="0 0 12 12"><g id="g-meaff3366" transform=""><g transform="rotate(180 6 6)"><rect y="5.4" width="2" height="1.2" style="stroke:#fff"/><polygon points="12 11 0 6 12 1" fill="#f36" stroke-width="0"/></g></g></marker><marker id="markerendtbarff3366white" markerHeight="20" markerWidth="10" orient="auto" preserveAspectRatio="none" refX="10" refY="10" viewBox="0 0 10 20"><g id="g-markerendtbarff3366white" transform=""><g transform="rotate(180 5 10)"><rect y="9" width="8" height="2" style="stroke:none"/><line x="0" y="0" width="12" height="12" x1="7" x2="7" y2="20" stroke="#f36" stroke-width="1.8"/></g></g></marker><marker id="mea3333ff" markerHeight="12" markerWidth="12" orient="auto" preserveAspectRatio="none" refX="12" refY="6" viewBox="0 0 12 12"><g id="g-mea3333ff" transform=""><g transform="rotate(180 6 6)"><rect y="5.4" width="2" height="1.2" style="stroke:#fff"/><polygon points="12 11 0 6 12 1" fill="#33f" stroke-width="0"/></g></g></marker><marker id="mea00f" markerHeight="12" markerWidth="12" orient="auto" preserveAspectRatio="none" refX="12" refY="6" viewBox="0 0 12 12"><g id="g-mea00f" transform=""><g transform="rotate(180 6 6)"><rect y="5.4" width="2" height="1.2" style="stroke:#fff"/><polygon points="12 11 0 6 12 1" fill="#00f" stroke-width="0"/></g></g></marker><marker id="memtranscriptiontranslation0000ffwhite" markerHeight="24" markerWidth="20" orient="auto" preserveAspectRatio="none" refX="20" refY="12" viewBox="0 0 20 24"><g id="g-memtranscriptiontranslation0000ffwhite" transform=""><g transform="rotate(180 10 12)"><rect y="11" width="12" height="2" style="stroke:#fff"/><line x1="15" x2="15" y1="12" y2="5" fill="none" stroke="#00f"/><line x1="15.5" x2="8" y1="5" y2="5" fill="none" stroke="#00f"/><polygon points="0 5 8 1 8 9" fill="#fff" stroke="#00f"/></g></g></marker></g></defs><g id="viewport-20220102140642567" class="svg-pan-zoom_viewport" transform="matrix(0.87 0 0 0.87 103.23 9.30e-6)" style="transform:matrix(0.87, 0, 0, 0.87, 103.23, 9.30e-06)"><style>svg.Diagram {font-family: 'Liberation Sans', Arial, sans-serif; }.Diagram path {fill: transparent;stroke: #000;marker-end: url(#mea);}.Diagram symbol path {fill: inherit;stroke: inherit;stroke-width: inherit;marker-end: inherit;}.Diagram rect {fill: #fff;stroke: #000;}.Diagram text {dominant-baseline: central;overflow: hidden;text-anchor: middle;fill: #000;font-size: 10px;}</style><style type="text/css">.Viewport .textContent {
  pointer-events: none;
  stroke-width: 0px;
}

					.Viewport.Icon {
  fill: white;
}

/* Hide the InfoBox */
.Viewport.textContent {
  font-size: 0;
}

.textContent {
  stroke: none;
}

.DataNode {
  stroke-miterlimit: 1;
  pointer-events: auto;
}

.DataNode:hover {
  cursor: pointer;
}

/* TODO should this apply to things other than DataNodes? */
.DataNode.textContent {
  pointer-events: none;
}

.DataNode.Highlighted {
  opacity: 0.6;
  stroke-width: 0px;
}

marker {
  /* this is what should work per the spec
  stroke-dasharray: none; */
  /* but I need to add this to make it work in Safari */
  stroke-dasharray: 9999999999999999999999999;
}

.Citation.Icon {
  fill: none;
  stroke-width: 0px;
}

.Citation.textContent {
  text-align: center;
  vertical-align: top;
  font-size: 7px;
  fill: #999;
  fill-opacity: 1;
  stroke: none;
}</style><g id="WP2636" class="Pathway http___identifiers_org_pw_PW_0001030 http___identifiers_org_pw_PW_0001031 http___identifiers_org_pw_PW_0001032 http___identifiers_org_pw_PW_0000013 http___identifiers_org_pw_PW_0000754 http___identifiers_org_pw_PW_0001033 Viewport"  name="Name: Common pathways underlying drug addiction Organism: Homo sapiens" ><g class="Pathway http___identifiers_org_pw_PW_0001030 http___identifiers_org_pw_PW_0001031 http___identifiers_org_pw_PW_0001032 http___identifiers_org_pw_PW_0000013 http___identifiers_org_pw_PW_0000754 http___identifiers_org_pw_PW_0001033 Viewport"><rect   width="1148" height="773" style="stroke:none"/><g id="id376745d8" class="Edge"  ><path    d="M102.75,635L146,610"/></g><g id="id2cd69a73" class="Edge"  ><path    d="M102.75,657L147,682"/></g><g id="idb7ecbbe" class="Edge"  ><path    d="m119 646h28"/></g><g id="idd95362a7" class="Edge"  ><path    d="m325 369h31" style="stroke:#f36;marker-end:url(#meaff3366)"/></g><g id="idb69210e8" class="Edge"  ><path    d="m436 369 54-2" style="stroke:#f36;marker-end:url(#meaff3366)"/></g><g id="idbce32166" class="Edge"  ><path    d="m846.65 330.98 35.93-81.5" stroke-dasharray="5,3"/></g><g id="id51476eaf" class="Edge"  ><path    d="m739.85 424.72 46.81 28.35"/></g><g id="id632f904e" class="Edge"  ><path    d="m806.65 473.07v84.20h-240.65" stroke-dasharray="5,3"/></g><g id="id50602cb3" class="Edge"  ><path    d="m530 377 0.88 170.27" stroke-dasharray="5,3"/></g><g id="id77d23f73" class="Edge"  ><path    d="m227 646 60.86-1.05"/></g><g id="idda7a923c" class="Edge"  ><path    d="m227 682 61.60 13.46"/></g><g id="ida80d3da" class="Edge"  ><path    d="m367.86 644.95 66.67 27.36"/></g><g id="idf56539ed" class="Edge"  ><path    d="m368.6 695.46 65.93-23.16"/></g><g id="id68b3b374" class="Edge"  ><path    d="m1078 493.75-67.00 121.51" stroke-dasharray="5,3"/></g><g id="idcceb5598" class="Edge"  ><path    d="m846.65 330.98 211.33 142.77" style="marker-end:url(#markerendtbar000)"/></g><g id="idc4c4d1e4" class="Edge"  ><path    d="m926.15 366.91-356.15 0.09" stroke-dasharray="5,3"/></g><g id="id7bb374b0" class="Edge"  ><path    d="m926.15 366.91-99.49 86.16" stroke-dasharray="5,3"/></g><g id="id508a671" class="Edge"  ><path    d="m570 367 129.85 37.72"/></g><g id="idb4aef90" class="Edge"  ><path    d="m612 454-62-77" style="stroke:#00f;marker-end:url(#mea00f)"/></g><g id="id94add873" class="Edge"  ><path    d="m766.65 463.07-94.65 0.93" style="stroke:#00f;marker-end:url(#memtranscriptiontranslation0000ffwhite)"/></g><g id="id341e8f78" class="Edge"  ><path    d="m806.65 241v71.98"/></g><g id="idb1085112" class="Edge"  ><path    d="m806.65 369.98v83.10" style="stroke:#33f;marker-end:url(#mea3333ff)"/></g><g id="id9b37f8a5" class="Edge"  ><path    d="m570 367 43-104"/></g><g id="id363be275" class="Edge"  ><path    d="m717 242 165.58-0.52" stroke-dasharray="5,3"/></g><g id="id97ec9c22" class="Edge"  ><path    d="m237 115 118-1"/></g><g id="id33a940fb" class="Edge"  ><path    d="m104.64 293.62 36.36-164.62"/></g><g id="id9edf7aa2" class="Edge"  ><path    d="m490 367-250-154" style="stroke:#f36;marker-end:url(#meaff3366)"/></g><g id="ida29bb4a3" class="Edge"  ><path    d="m240 239 17.5 52" style="stroke:#f36;marker-end:url(#meaff3366)"/></g><g id="id8beba594" class="Edge"  ><path    d="m104.64 293.62 31.36-54.62"/></g><g id="idae53e360" class="Edge"  ><path    d="m240 369h41" style="stroke:#f36;marker-end:url(#meaff3366)"/></g><g id="id9c6c3ba2" class="Edge"  ><path    d="m257.5 311-17.5 42" style="stroke:#f36;marker-end:url(#meaff3366)"/></g><g id="idf6602f95" class="Edge"  ><path    d="m104.64 313.62 31.36 39.38"/></g><g id="id3165c07d" class="Edge"  ><path    d="m490 367-251 66" style="stroke:#f36;marker-end:url(#meaff3366)"/></g><g id="id45c19271" class="Edge"  ><path    d="m104.64 313.62 30.36 119.38"/></g><g id="id41b68ced" class="Edge"  ><path    d="m806.65 473.07v38.93h-125.65" style="stroke:#00f;marker-end:url(#memtranscriptiontranslation0000ffwhite)"/></g><g id="iddfc9ff16" class="Edge"  ><path    d="m585 498-345-129" style="stroke:#00f;marker-end:url(#mea00f)"/></g><g id="id376f9fd7" class="Edge"  ><path    d="m239 449 95 34" style="stroke:#f36;marker-end:url(#meaff3366)"/></g><g id="idec9cd6f7" class="Edge"  ><path    d="m226 610 134-85"/></g><g id="id6e489686" class="Edge"  ><path    d="m438 483 599.99 0.75" style="marker-end:url(#markerendtbar000)"/></g><g id="id924db568" class="Edge"  ><path    d="m530 155v31"/></g><g id="idfbd27ebc" class="Edge"  ><path    d="m435 114 43-1"/></g><g id="id7290a220" class="Edge"  ><path    d="m478 134-238 53"/></g><g id="id7ec0ca96" class="Edge"  ><path    d="m530 312v45" style="stroke:#f36;marker-end:url(#markerendtbarff3366white)"/></g><g id="idca683de4" class="Edge"  ><path    d="m412 441 92-129" style="stroke:#f36;marker-end:url(#markerendtbarff3366white)"/></g><g id="id2d4dfe89" class="Edge"  ><path    d="m530 206v22" style="marker-end:url(#markerendtbar000)"/></g><g id="id83c7650d" class="Edge"  ><path    d="m514.53 672.31 113.47-0.31"/></g><g id="id6d4dc061" class="Edge"  ><path    d="m732 672 325.99-178.25" style="marker-end:url(#markerendtbar000)"/></g><g id="id5b30d60f" class="Edge"  ><path    d="m806.65 151v33"/></g><g id="idf85df390" class="Edge"  ><path    d="m582 113 38.38-0.48"/></g><g id="id3c5595d0" class="Edge"  ><path    d="m716.38 112.52 42.27 0.48"/></g><g id="ac701" class=" PhysicalEntity CellularComponent Cell" transform="translate(186.5,45.5)"  ><g class=" PhysicalEntity CellularComponent Cell" filter="url(#doublefalse3filter)"><g class=" PhysicalEntity CellularComponent Cell"><rect   transform="matrix(0.99 0 0 0.98 5.92 5.90)" width="894" height="699" rx="15" ry="15" stroke-width="3" style="fill:transparent;stroke:#c0c0c0"/></g></g></g><g id="a1e01" class=" PhysicalEntity CellularComponent Nucleus" transform="translate(539.5,382.5)"  ><g class=" PhysicalEntity CellularComponent Nucleus" filter="url(#doublefalse3filter)"><g class=" PhysicalEntity CellularComponent Nucleus"><use class=" PhysicalEntity CellularComponent Nucleus Node Icon" transform="matrix(0.97 0 0 0.94 5.82 5.65)" width="399.14" height="196.14" fill="transparent" stroke="#c0c0c0" stroke-width="3" href="#Ellipse"/></g></g></g><g id="cf88d" class="Label" transform="translate(790,519)"  name="Nucleus" ><g class="Label"/><text   transform="translate(40,10)"    font-weight="bold"  style="fill:#666666;font-size:14px">Nucleus</text></g><g id="bbc93" class="Metabolite" transform="translate(54,635)"  name="Dopamine" ><rect   width="65" height="22" style="stroke:#00f"/><text   transform="translate(32.5,11)"     style="fill:#00f">Dopamine</text></g><g id="bc249" class="Metabolite " transform="translate(44.64 293.62)"  name="Glutamate" ><rect   width="80" height="20" style="stroke:#00f"/><text   transform="translate(40,10)"     style="fill:#00f">Glutamate</text></g><g id="b1de4" class="Pathway KEGG_Pathway_hsa04010" transform="translate(862.86 144.48)"  name="MAPK Signaling pathway" ><g class="Pathway KEGG_Pathway_hsa04010"><rect   width="167" height="26" rx="15" ry="15" style="stroke:#14961e"/></g><g ><defs><clipPath ><rect x="-83.5" y="-13" width="167" height="26" style="stroke:none"/></clipPath></defs><text   transform="translate(83.5,13)"    font-weight="bold"  style="fill:#14961e;font-size:12px">MAPK Signaling pathway</text></g></g><g id="ec81b" class="Pathway" transform="translate(60,543)"  name="Neuroactive ligand-receptor interaction" ><g class="Pathway"><rect   width="252" height="26" rx="15" ry="15" style="stroke:#14961e"/></g><g ><defs><clipPath ><rect x="-126" y="-13" width="252" height="26" style="stroke:none"/></clipPath></defs><text   transform="translate(126,13)"    font-weight="bold"  style="fill:#14961e;font-size:12px">Neuroactive ligand-receptor interaction</text></g></g><g id="c13d7" class="GeneProduct " transform="translate(146,600)"  name="DRD4" ><rect   width="80" height="20"/><text   transform="translate(40,10)"    >DRD4</text></g><g id="f406e" class="GeneProduct " transform="translate(147,636)"  name="DRD1" ><rect   width="80" height="20"/><text   transform="translate(40,10)"    >DRD1</text></g><g id="fb883" class="GeneProduct " transform="translate(147,672)"  name="DRD2" ><rect   width="80" height="20"/><text   transform="translate(40,10)"    >DRD2</text></g><g id="f5696" class="GeneProduct " transform="translate(287.86 634.95)"  name="Gs" ><rect   width="80" height="20"/><text   transform="translate(40,10)"    >Gs</text></g><g id="c419e" class="Metabolite" transform="translate(281,359)"  name="Ca++" ><rect   width="44" height="20" style="stroke:#00f"/><text   transform="translate(22,10)"     style="fill:#00f">Ca++</text></g><g id="bf640" class="GeneProduct " transform="translate(356,359)"  name="CaM" ><rect   width="80" height="20"/><text   transform="translate(40,10)"    >CaM</text></g><g id="e8503" class="GeneProduct " transform="translate(490,357)"  name="CAMK2A" ><rect   width="80" height="20"/><text   transform="translate(40,10)"    >CAMK2A</text></g><g id="a3cb8" class="Pathway" transform="translate(187,291)"  name="Strong depolarization" ><g class="Pathway"/><g ><defs><clipPath ><rect x="-70.5" y="-10" width="141" height="20" style="stroke:none"/></clipPath></defs><text   transform="translate(70.5,10)"    font-weight="bold"  style="fill:#14961e;font-size:12px">Strong depolarization</text></g></g><g id="fa75f" class="GeneProduct " transform="translate(490,186)"  name="Inhibitor-1" ><rect   width="80" height="20"/><text   transform="translate(40,10)"    >Inhibitor-1</text></g><g id="aa062" class="Metabolite" transform="translate(355,104)"  name="cAMP" ><rect   width="80" height="20" style="stroke:#00f"/><text   transform="translate(40,10)"     style="fill:#00f">cAMP</text></g><g id="b9b93" class="GeneProduct " transform="translate(766.65 453.07)"  name="CREB1" ><rect   width="80" height="20"/><text   transform="translate(40,10)"    >CREB1</text></g><g id="dc121" class="Pathway KEGG_Pathway_hsa04810" transform="translate(882.58 225.48)"  name="Regulation of actin skeleton" ><g class="Pathway KEGG_Pathway_hsa04810"/><g ><defs><clipPath ><rect x="-95.25" y="-16.00" width="190.49" height="32.00" style="stroke:none"/></clipPath></defs><text   transform="translate(95.25 16.00)"    font-weight="bold"  style="fill:#14961e;font-size:12px">Regulation of actin skeleton</text></g></g><g id="eeef6" class="GeneProduct " transform="translate(679.85 404.72)"  name="CAMK4" ><rect   width="80" height="20"/><text   transform="translate(40,10)"    >CAMK4</text></g><g id="a32f6" class="Pathway" transform="translate(425.52 547.27)"  name="Gonadotropins gene  expression &amp; secretion" ><g class="Pathway"/><g ><defs><clipPath ><rect x="-70.24" y="-10" width="140.48" height="20" style="stroke:none"/></clipPath></defs><text   transform="translate(70.24 10)"    font-weight="bold"  style="fill:#14961e;font-size:12px"><tspan   x="0" y="-6.60">Gonadotropins gene </tspan><tspan   x="0" y="6.60">expression &amp; secretion</tspan></text></g></g><g id="e365a" class="GeneProduct " transform="translate(434.53 662.31)"  name="ADCY1" ><rect   width="80" height="20"/><text   transform="translate(40,10)"    >ADCY1</text></g><g id="ba4f1" class="GeneProduct " transform="translate(1038 473.75)"  name="Connexin 32" ><rect   width="80" height="20"/><text   transform="translate(40,10)"    >Connexin 32</text></g><g id="a82e2" class="Pathway" transform="translate(880.27 615.26)"  name="Regulation of Gap junction" ><g class="Pathway"><rect   width="174.28" height="26" rx="15" ry="15" style="stroke:#14961e"/></g><g ><defs><clipPath ><rect x="-87.14" y="-13" width="174.28" height="26" style="stroke:none"/></clipPath></defs><text   transform="translate(87.14 13)"    font-weight="bold"  style="fill:#14961e;font-size:12px">Regulation of Gap junction</text></g></g><g id="eeea3" class="Pathway KEGG_Pathway_hsa04912" transform="translate(926.15 353.91)"  name="GnRH Signal Pathway" ><g class="Pathway KEGG_Pathway_hsa04912"><rect   width="140.71" height="26" rx="15" ry="15" style="stroke:#14961e"/></g><g ><defs><clipPath ><rect x="-70.36" y="-13" width="140.71" height="26" style="stroke:none"/></clipPath></defs><text   transform="translate(70.36 13)"    font-weight="bold"  style="fill:#14961e;font-size:12px">GnRH Signal Pathway</text></g></g><g id="ef15f" class="Pathway KEGG_Pathway_hsa04720" transform="translate(318,198)"  name="Long term potentiation" ><g class="Pathway KEGG_Pathway_hsa04720"><rect   width="146" height="26" rx="15" ry="15" style="stroke:#14961e"/></g><g ><defs><clipPath ><rect x="-73" y="-13" width="146" height="26" style="stroke:none"/></clipPath></defs><text   transform="translate(73,13)"    font-weight="bold"  style="fill:#14961e;font-size:12px">Long term potentiation</text></g></g><g id="dffb3" class="GroupGroup" transform="translate(758.65 184)"  ><g class="GroupGroup"><g id="e6993" class="GeneProduct " transform="translate(8,8)"  name="MEK1" ><rect   width="80" height="20"/><text   transform="translate(40,10)"    >MEK1</text></g><g id="fdf0f" class="GeneProduct " transform="translate(8,29)"  name="MEK2" ><rect   width="80" height="20"/><text   transform="translate(40,10)"    >MEK2</text></g></g></g><g id="b5108" class="GroupGroup" transform="translate(758.65 312.98)"  ><g class="GroupGroup"><g id="bd890" class="GeneProduct " transform="translate(8,8)"  name="ERK1" ><rect   width="80" height="20"/><text   transform="translate(40,10)"    >ERK1</text></g><g id="c8fbe" class="GeneProduct " transform="translate(8,29)"  name="ERK2" ><rect   width="80" height="20"/><text   transform="translate(40,10)"    >ERK2</text></g></g></g><g id="a9acb" class="GroupComplex" transform="translate(613,200)"  name="Actin" ><g class="GroupComplex"><use class="Icon" width="104" height="84" fill="#b4b464" fill-opacity=".1" stroke="grey" href="#Octagon"/><g id="c5be1" class="GeneProduct " transform="translate(12,12)"  name="ACTB" ><rect   width="80" height="20"/><text   transform="translate(40,10)"    >ACTB</text></g><g id="f2519" class="GeneProduct " transform="translate(12,32)"  name="ACTG1" ><rect   width="80" height="20"/><text   transform="translate(40,10)"    >ACTG1</text></g><g id="cb27d" class="GeneProduct " transform="translate(12,52)"  name="ACTG2" ><rect   width="80" height="20"/><text   transform="translate(40,10)"    >ACTG2</text></g></g><g ><defs><clipPath ><rect x="-52" y="-42" width="104" height="84" style="stroke:none"/></clipPath></defs><text   transform="translate(52,42)"  font-family="arial" font-weight="bold" overflow="visible" style="fill:grey;font-size:1px">Actin</text></g></g><g id="d3ebe" class="GroupGroup" transform="translate(141,87)"  ><g class="GroupGroup"><g id="b942d" class="GeneProduct " transform="translate(8,8)"  name="ADCY1" ><rect   width="80" height="20"/><text   transform="translate(40,10)"    >ADCY1</text></g><g id="dfab7" class="GeneProduct " transform="translate(8,28)"  name="ADCY8" ><rect   width="80" height="20"/><text   transform="translate(40,10)"    >ADCY8</text></g></g></g><g id="aceec" class="GroupComplex" transform="translate(136,161)"  name="AMPA receptor" ><g class="GroupComplex"><use class="Icon" width="104" height="104" fill="#b4b464" fill-opacity=".1" stroke="grey" href="#Octagon"/><g id="f8624" class="GeneProduct " transform="translate(12,12)"  name="GRIA1" ><rect   width="80" height="20"/><text   transform="translate(40,10)"    >GRIA1</text></g><g id="cb19e" class="GeneProduct " transform="translate(12,32)"  name="GRIA2" ><rect   width="80" height="20"/><text   transform="translate(40,10)"    >GRIA2</text></g><g id="dfb21" class="GeneProduct " transform="translate(12,52)"  name="GRIA3" ><rect   width="80" height="20"/><text   transform="translate(40,10)"    >GRIA3</text></g><g id="fb01f" class="GeneProduct " transform="translate(12,72)"  name="GRIA4" ><rect   width="80" height="20"/><text   transform="translate(40,10)"    >GRIA4</text></g></g><g ><defs><clipPath ><rect x="-52" y="-52" width="104" height="104" style="stroke:none"/></clipPath></defs><text   transform="translate(52,52)"  font-family="arial" font-weight="bold" overflow="visible" style="fill:grey;font-size:1px">AMPA receptor</text></g></g><g id="ede21" class="GroupComplex" transform="translate(136,337)"  name="NMDA receptor" ><g class="GroupComplex"><use class="Icon" width="104" height="64" fill="#b4b464" fill-opacity=".1" stroke="grey" href="#Octagon"/><g id="ba5c9" class="GeneProduct " transform="translate(12,12)"  name="GRIN1" ><rect   width="80" height="20"/><text   transform="translate(40,10)"    >GRIN1</text></g><g id="dcb74" class="GeneProduct " transform="translate(12,32)"  name="GRIN2A" ><rect   width="80" height="20"/><text   transform="translate(40,10)"    >GRIN2A</text></g></g><g ><defs><clipPath ><rect x="-52" y="-32" width="104" height="64" style="stroke:none"/></clipPath></defs><text   transform="translate(52,32)"  font-family="arial" font-weight="bold" overflow="visible" style="fill:grey;font-size:1px">NMDA receptor</text></g></g><g id="ee920" class="GroupComplex" transform="translate(135,417)"  name="mGluR" ><g class="GroupComplex"><use class="Icon" width="104" height="64" fill="#b4b464" fill-opacity=".1" stroke="grey" href="#Octagon"/><g id="bfee0" class="GeneProduct " transform="translate(12,12)"  name="GRM1" ><rect   width="80" height="20"/><text   transform="translate(40,10)"    >GRM1</text></g><g id="bb2ac" class="GeneProduct " transform="translate(12,32)"  name="GRM5" ><rect   width="80" height="20"/><text   transform="translate(40,10)"    >GRM5</text></g></g><g ><defs><clipPath ><rect x="-52" y="-32" width="104" height="64" style="stroke:none"/></clipPath></defs><text   transform="translate(52,32)"  font-family="arial" font-weight="bold" overflow="visible" style="fill:grey;font-size:1px">mGluR</text></g></g><g id="a54a4" class="GroupComplex" transform="translate(334,441)"  ><g class="GroupComplex"><use class="Icon" width="104" height="84" fill="#b4b464" fill-opacity=".1" stroke="grey" href="#Octagon"/><g id="bce52" class="GeneProduct " transform="translate(12,12)"  name="PRKCA" ><rect   width="80" height="20"/><text   transform="translate(40,10)"    >PRKCA</text></g><g id="b23ca" class="GeneProduct " transform="translate(12,32)"  name="PRKCB" ><rect   width="80" height="20"/><text   transform="translate(40,10)"    >PRKCB</text></g><g id="b4bfc" class="GeneProduct " transform="translate(12,52)"  name="PRKCG" ><rect   width="80" height="20"/><text   transform="translate(40,10)"    >PRKCG</text></g></g></g><g id="c01a7" class="GroupComplex" transform="translate(478,71)"  ><g class="GroupComplex"><use class="Icon" width="104" height="84" fill="#b4b464" fill-opacity=".1" stroke="grey" href="#Octagon"/><g id="adf49" class="GeneProduct " transform="translate(12,52)"  name="PRKACG" ><rect   width="80" height="20"/><text   transform="translate(40,10)"    >PRKACG</text></g><g id="e8fac" class="GeneProduct " transform="translate(12,12)"  name="PRKACA" ><rect   width="80" height="20"/><text   transform="translate(40,10)"    >PRKACA</text></g><g id="b7658" class="GeneProduct " transform="translate(12,32)"  name="PRKACB" ><rect   width="80" height="20"/><text   transform="translate(40,10)"    >PRKACB</text></g></g></g><g id="ae3e3" class="GeneProduct " transform="translate(288.6 685.46)"  name="Gi" ><rect   width="80" height="20"/><text   transform="translate(40,10)"    >Gi</text></g><g id="c7466" class="GeneProduct " transform="translate(592,454)"  name="CAMK2A" ><rect   width="80" height="20"/><text   transform="translate(40,10)"    >CAMK2A</text></g><g id="d3a50" class="GroupGroup" transform="translate(585,484)"  ><g class="GroupGroup"><g id="e0827" class="GeneProduct " transform="translate(8,8)"  name="GRIN1" ><rect   width="80" height="20"/><text   transform="translate(40,10)"    >GRIN1</text></g><g id="e6da8" class="GeneProduct " transform="translate(8,28)"  name="GRIN2A" ><rect   width="80" height="20"/><text   transform="translate(40,10)"    >GRIN2A</text></g></g></g><g id="c0e54" class="GroupComplex" transform="translate(478,228)"  ><g class="GroupComplex"><use class="Icon" width="104" height="84" fill="#b4b464" fill-opacity=".1" stroke="grey" href="#Octagon"/><g id="f15d0" class="GeneProduct " transform="translate(12,12)"  name="PPP1CA" ><rect   width="80" height="20"/><text   transform="translate(40,10)"    >PPP1CA</text></g><g id="cc4e9" class="GeneProduct " transform="translate(12,32)"  name="PPP1CB" ><rect   width="80" height="20"/><text   transform="translate(40,10)"    >PPP1CB</text></g><g id="bc0f9" class="GeneProduct " transform="translate(12,52)"  name="PPP1CC" ><rect   width="80" height="20"/><text   transform="translate(40,10)"    >PPP1CC</text></g></g></g><g id="d0406" class="GroupComplex" transform="translate(628,630)"  ><g class="GroupComplex"><use class="Icon" width="104" height="84" fill="#b4b464" fill-opacity=".1" stroke="grey" href="#Octagon"/><g id="f40de" class="GeneProduct " transform="translate(12,52)"  name="PRKACG" ><rect   width="80" height="20"/><text   transform="translate(40,10)"    >PRKACG</text></g><g id="aef9e" class="GeneProduct " transform="translate(12,12)"  name="PRKACA" ><rect   width="80" height="20"/><text   transform="translate(40,10)"    >PRKACA</text></g><g id="c744f" class="GeneProduct " transform="translate(12,32)"  name="PRKACB" ><rect   width="80" height="20"/><text   transform="translate(40,10)"    >PRKACB</text></g></g></g><g id="f5442" class="GroupGroup" transform="translate(758.65 75)"  ><g class="GroupGroup"><g id="eaf50" class="GeneProduct " transform="translate(8,8)"  name="RAF1" ><rect   width="80" height="20"/><text   transform="translate(40,10)"    >RAF1</text></g><g id="f84c6" class="GeneProduct " transform="translate(8,28)"  name="ARAF" ><rect   width="80" height="20"/><text   transform="translate(40,10)"    >ARAF</text></g><g id="fc300" class="GeneProduct " transform="translate(8,48)"  name="ARAF" ><rect   width="80" height="20"/><text   transform="translate(40,10)"    >ARAF</text></g></g></g><g id="f0df5" class="GroupGroup" transform="translate(620.38 84.52)"  ><g class="GroupGroup"><g id="d6abc" class="GeneProduct " transform="translate(8 28)"  name="RAP1B" ><rect   width="80" height="20"/><text   transform="translate(40,10)"    >RAP1B</text></g><g id="bf950" class="GeneProduct " transform="translate(8,8)"  name="RAP1A" ><rect   width="80" height="20"/><text   transform="translate(40,10)"    >RAP1A</text></g></g></g><g id="d4e8a" class="Edge"  ><path    d="m334 462-94-77" style="stroke:#f36;marker-end:url(#meaff3366)"/></g><g id="d19ac" class="Edge"  ><path    d="m570 367 188.65-25.52" style="stroke:#00f;marker-end:url(#mea00f)"/></g></g></g></g></svg>