<?xml version="1.0" encoding="UTF-8"?>
<svg xmlns="http://www.w3.org/2000/svg" id="-svg" class="Diagram"  baseProfile="full" prefix="schema:http://schema.org/" preserveAspectRatio="xMidYMid"  version="1.1"><defs><g id="icon-defs"><symbol id="HexagonPathVisio" class=" Icon HexagonPathVisio" x="0" y="8" overflow="visible" preserveAspectRatio="none" viewBox="0 8 100 86"><desc>HexagonPathVisio</desc><g transform="scale(1 0.85)"><path d="m1.42 51.00 21.07-42.14h56.19l21.07 42.14-21.07 42.15h-56.19l-21.07-42.15z" stroke="currentColor" vector-effect="non-scaling-stroke"/></g></symbol><symbol id="Octagon" class=" Icon Octagon" x="0" y="0" overflow="visible" preserveAspectRatio="none" viewBox="0 0 100 100"><desc>Octagon</desc><path d="m0 25 25-25h50l25 25v50l-25 25h-50l-25-25z" vector-effect="non-scaling-stroke"/></symbol></g><g id="marker-defs"><marker id="mea" markerHeight="12" markerWidth="12" orient="auto" preserveAspectRatio="none" refX="12" refY="6" viewBox="0 0 12 12"><g id="g-mea" transform=""><g transform="rotate(180 6 6)"><rect y="5.4" width="2" height="1.2" style="stroke:#fff"/><polygon points="12 11 0 6 12 1" stroke-width="0"/></g></g></marker><marker id="markerendtbar000" markerHeight="20" markerWidth="10" orient="auto" preserveAspectRatio="none" refX="10" refY="10" viewBox="0 0 10 20"><g id="g-markerendtbar000" transform=""><g transform="rotate(180 5 10)"><rect y="9" width="8" height="2" style="stroke:none"/><line x="0" y="0" width="12" height="12" x1="7" x2="7" y2="20" stroke="#000" stroke-width="1.8"/></g></g></marker></g></defs><g id="viewport-20220102141038410" class="svg-pan-zoom_viewport" transform="matrix(0.53 0 0 0.53 356.97 9.30e-6)" style="transform:matrix(0.53, 0, 0, 0.53, 356.97, 9.30e-06)"><style>svg.Diagram {font-family: 'Liberation Sans', Arial, sans-serif; }.Diagram path {fill: transparent;stroke: #000;marker-end: url(#mea);}.Diagram symbol path {fill: inherit;stroke: inherit;stroke-width: inherit;marker-end: inherit;}.Diagram rect {fill: #fff;stroke: #000;}.Diagram text {dominant-baseline: central;overflow: hidden;text-anchor: middle;fill: #000;font-size: 10px;}</style><style type="text/css">.Viewport .textContent {
  pointer-events: none;
  stroke-width: 0px;
}

					.Viewport.Icon {
  fill: white;
}

/* Hide the InfoBox */
.Viewport.textContent {
  font-size: 0;
}

.textContent {
  stroke: none;
}

.DataNode {
  stroke-miterlimit: 1;
  pointer-events: auto;
}

.DataNode:hover {
  cursor: pointer;
}

/* TODO should this apply to things other than DataNodes? */
.DataNode.textContent {
  pointer-events: none;
}

.DataNode.Highlighted {
  opacity: 0.6;
  stroke-width: 0px;
}

marker {
  /* this is what should work per the spec
  stroke-dasharray: none; */
  /* but I need to add this to make it work in Safari */
  stroke-dasharray: 9999999999999999999999999;
}

.Citation.Icon {
  fill: none;
  stroke-width: 0px;
}

.Citation.textContent {
  text-align: center;
  vertical-align: top;
  font-size: 7px;
  fill: #999;
  fill-opacity: 1;
  stroke: none;
}</style><g id="WP2753" class="Pathway http___identifiers_org_pw_PW_0000100 Viewport"  name="Name: ATF4 activates genes in response to endoplasmic reticulum  stress Organism: Homo sapiens" ><g class="Pathway http___identifiers_org_pw_PW_0000100 Viewport"><rect   width="914" height="1258" style="stroke:none"/><g id="c5435" class="Reactome_R-HSA-1791095"  ><path    d="m163 259 13 173" style="marker-end:none"/><g id="eddc4" class="AB" transform="translate(163,259)"  ><g class="AB"/></g><g id="f205d" class="AB" transform="translate(175.87,430.27)"  ><g class="AB"/></g><g id="b2f72" class="AB" transform="translate(169.5,345.5)"  ><g class="AB"/></g></g><g id="ba7d2" class="Reactome_R-HSA-1791095"  ><path    d="m356 71-178 228"/></g><g id="c905f" class="Reactome_R-HSA-1791118"  ><path    d="m326 232 17 288" style="marker-end:none"/><g id="e4d8b" class="AB" transform="translate(326,232)"  ><g class="AB"/></g><g id="da384" class="AB" transform="translate(342.83,517.12)"  ><g class="AB"/></g><g id="f4e2b" class="AB" transform="translate(334.5,376)"  ><g class="AB"/></g></g><g id="cc4c1" class="Reactome_R-HSA-1791118"  ><path    d="m309 310 32-6"/></g><g id="d1715" class="Reactome_R-HSA-1791173"  ><path    d="m450 237 43 119" style="marker-end:none"/><g id="f6938" class="AB" transform="translate(450,237)"  ><g class="AB"/></g><g id="fa4b9" class="AB" transform="translate(492.57,354.81)"  ><g class="AB"/></g><g id="cb2a1" class="AB" transform="translate(471.5,296.5)"  ><g class="AB"/></g></g><g id="b894c" class="Reactome_R-HSA-1791173"  ><path    d="m440 260 10-23" style="marker-end:none"/></g><g id="d6c41" class="Reactome_R-HSA-517731"  ><path    d="m586 247 248 147" style="marker-end:none"/><g id="f9600" class="AB" transform="translate(586,247)"  ><g class="AB"/></g><g id="c2746" class="AB" transform="translate(831.52 392.53)"  ><g class="AB"/></g><g id="b56c2" class="AB" transform="translate(710,320.5)"  ><g class="AB"/></g><g id="fda99" class="AB" transform="translate(710,320.5)"  ><g class="AB"/></g></g><g id="c07e0" class="Reactome_R-HSA-517731"  ><path    d="m834 394-3 17"/></g><g id="cd100" class="Reactome_R-HSA-517731"  ><path    d="m558 430 175-104" style="marker-end:url(#markerendtbar000)"/></g><g id="d3066" class="Reactome_R-HSA-517731"  ><path    d="m482 71 251 255"/></g><g id="d83b7" class="Reactome_R-HSA-1791118"  ><path    d="m317 255 9-23" style="marker-end:none"/></g><g id="e0f7c" class="Reactome_R-HSA-1791173"  ><path    d="m407 292 84 14"/></g><g id="e1078" class="Reactome_R-HSA-1791056"  ><path    d="m715 92 108 8" style="marker-end:none"/><g id="accb1" class="AB" transform="translate(715,92)"  ><g class="AB"/></g><g id="d91e9" class="AB" transform="translate(821.92 99.92)"  ><g class="AB"/></g><g id="b2486" class="AB" transform="translate(769,96)"  ><g class="AB"/></g></g><g id="c1dc7" class="Reactome_R-HSA-1791056"  ><path    d="m823 100 3 6"/></g><g id="cdad0" class="Reactome_R-HSA-1791056"  ><path    d="m482 71 285 16"/></g><g id="e1471" class="Reactome_R-HSA-1791180"  ><path    d="m696 171 126 34" style="marker-end:none"/><g id="b9155" class="AB" transform="translate(696,171)"  ><g class="AB"/></g><g id="c7372" class="AB" transform="translate(820.74 204.66)"  ><g class="AB"/></g><g id="bbe93" class="AB" transform="translate(759,188)"  ><g class="AB"/></g></g><g id="d78f0" class="Reactome_R-HSA-1791180"  ><path    d="m687 194 9-23" style="marker-end:none"/></g><g id="de6ef" class="Reactome_R-HSA-1791180"  ><path    d="m482 71 277 110"/></g><g id="e16b2" class="Reactome_R-HSA-1791095"  ><path    d="m176 432v3"/></g><g id="e2dfc" class="Reactome_R-HSA-1791173"  ><path    d="m493 356 1 3"/></g><g id="e550f" class="Reactome_R-HSA-1791180"  ><path    d="m822 205 3 11"/></g><g id="e9805" class="Reactome_R-HSA-1791056"  ><path    d="m705 115 10-23" style="marker-end:none"/></g><g id="eba8a" class="Reactome_R-HSA-517731"  ><path    d="m577 270 9-23" style="marker-end:none"/></g><g id="efe81" class="Reactome_R-HSA-1791095"  ><path    d="m154 282 9-23" style="marker-end:none"/></g><g id="f290d" class="Reactome_R-HSA-1791118"  ><path    d="m343 520 1 3"/></g><g id="f8cc4" class="Reactome_R-HSA-1791107"  ><path    d="m256 65v94" style="marker-end:none"/><g id="ea6c3" class="AB" transform="translate(256,65)"  ><g class="AB"/></g><g id="fd1e4" class="AB" transform="translate(256,158.06)"  ><g class="AB"/></g><g id="f442f" class="AB" transform="translate(256,112)"  ><g class="AB"/></g></g><g id="bc3c8" class="Reactome_R-HSA-1791107"  ><path    d="m152 118 104 13"/></g><g id="c31a2" class="Reactome_R-HSA-1791107"  ><path    d="m152 118 104 13"/></g><g id="d6231" class="Reactome_R-HSA-1791107"  ><path    d="m152 118 104 13"/></g><g id="fb454" class="Reactome_R-HSA-1791107"  ><path    d="m246 88 10-23" style="marker-end:none"/></g><g id="fe25a" class="Reactome_R-HSA-1791107"  ><path    d="m256 159 1 3"/></g><g id="a2fc7" class="GroupGroup" transform="translate(29,32)"  ><g class="GroupGroup"><g id="e4ccb" class="" transform="translate(8,8)"  ><g class=""><rect   transform="matrix(1.00 0 0 0.99 1.49 1.49)" width="756" height="363" rx="15" ry="15" stroke-width="3" style="fill:transparent;stroke:#c0c0c0"/></g></g><g id="de19d" class="Label" transform="translate(17,20)"  name="nucleoplasm" ><g class="Label"/><text   transform="translate(49.5,16.5)"    >nucleoplasm</text></g></g></g><g id="ea7ca" class="GroupGroup" transform="translate(26,408)"  ><g class="GroupGroup"><g id="b0b9f" class="" transform="translate(8,8)"  ><g class=""><rect   transform="matrix(0.99 0 0 0.98 1.48 1.47)" width="254" height="151" rx="15" ry="15" stroke-width="3" style="fill:transparent;stroke:#c0c0c0"/></g></g><g id="bf75f" class="Label" transform="translate(21,107)"  name="endoplasmic reticulum lumen" ><g class="Label"/><text   transform="translate(101.5,16.5)"    >endoplasmic reticulum lumen</text></g></g></g><g id="fd255" class="GroupGroup" transform="translate(-2,6)"  ><g class="GroupGroup"><g id="f73e9" class="" transform="translate(8,8)"  ><g class=""><rect   transform="matrix(1.00 0 0 0.99 1.49 1.49)" width="811" height="596" rx="15" ry="15" stroke-width="3" style="fill:transparent;stroke:#c0c0c0"/></g></g><g id="dc613" class="Label" transform="translate(21,557)"  name="cytosol" ><g class="Label"/><text   transform="translate(32,16.5)"    >cytosol</text></g></g></g><g id="a002d" class="GeneProduct " transform="translate(50,257)"  name="HERPUD1 gene" ><rect   width="104" height="51"/><text   transform="translate(52,25.5)"    >HERPUD1 gene</text></g><g id="a0198" class="Complex Reactome_R-HSA-450479" transform="translate(558,417)"  name="KSRP:mRNA Degradation Complex" ><g class="Complex Reactome_R-HSA-450479"><use class="Complex Reactome_R-HSA-450479 Node Icon" width="239" height="26" fill="#fff" stroke="#a52a2a" href="#HexagonPathVisio"/></g><g ><defs><clipPath ><rect x="-119.5" y="-13" width="239" height="26" style="stroke:none"/></clipPath></defs><text   transform="translate(119.5,13)"     style="fill:#a52a2a"><tspan   x="0" y="-5.5">KSRP:mRNA</tspan><tspan   x="0" y="5.5">Degradation Complex</tspan></text></g></g><g id="a0632" class="GeneProduct " transform="translate(366,235)"  name="ATF3 gene" ><rect   width="75" height="51"/><text   transform="translate(37.5,25.5)"    >ATF3 gene</text></g><g id="a3f2c" class="Complex Reactome_R-HSA-9635905" transform="translate(360,292)"  name="ATF4:ATF3 gene" ><g class="Complex Reactome_R-HSA-9635905"><use class="Complex Reactome_R-HSA-9635905 Node Icon" width="95" height="37" fill="#fff" stroke="#a52a2a" href="#HexagonPathVisio"/></g><g ><defs><clipPath ><rect x="-47.5" y="-18.5" width="95" height="37" style="stroke:none"/></clipPath></defs><text   transform="translate(47.5,18.5)"     style="fill:#a52a2a">ATF4:ATF3 gene</text></g></g><g id="a4e7e" class="Protein" transform="translate(356,60)"  name="ATF4" ><rect   width="126" height="22"/><text   transform="translate(63,11)"    >ATF4</text></g><g id="b542b" class="Protein" transform="translate(831,397)"  name="IL8" ><rect   width="49" height="28"/><text   transform="translate(24.5,14)"    >IL8</text></g><g id="b847e" class="Protein" transform="translate(229,162)"  name="DDIT3" ><rect   width="57" height="22"/><text   transform="translate(28.5,11)"    >DDIT3</text></g><g id="c1e50" class="Protein" transform="translate(826,95)"  name="CCL2" ><rect   width="53" height="22"/><text   transform="translate(26.5,11)"    >CCL2</text></g><g id="d4235" class="GeneProduct " transform="translate(166,63)"  name="DDIT3 gene" ><rect   width="81" height="51"/><text   transform="translate(40.5,25.5)"    >DDIT3 gene</text></g><g id="df262" class="GeneProduct " transform="translate(599,169)"  name="IGFPB1 gene" ><rect   width="88" height="51"/><text   transform="translate(44,25.5)"    >IGFPB1 gene</text></g><g id="df750" class="Complex Reactome_R-HSA-381204" transform="translate(89,144)"  name="NF-Y" ><g class="Complex Reactome_R-HSA-381204"><use class="Complex Reactome_R-HSA-381204 Node Icon" width="53" height="23" fill="#fff" stroke="#a52a2a" href="#HexagonPathVisio"/></g><g ><defs><clipPath ><rect x="-26.5" y="-11.5" width="53" height="23" style="stroke:none"/></clipPath></defs><text   transform="translate(26.5,11.5)"     style="fill:#a52a2a">NF-Y</text></g></g><g id="e1fe0" class="Protein" transform="translate(136,435)"  name="HERPUD1" ><rect   width="81" height="30"/><text   transform="translate(40.5,15)"    >HERPUD1</text></g><g id="e8603" class="GeneProduct " transform="translate(521,245)"  name="IL8 gene" ><rect   width="56" height="51"/><text   transform="translate(28,25.5)"    >IL8 gene</text></g><g id="e940b" class="Complex Reactome_R-HSA-9635898" transform="translate(203,292)"  name="ATF4:CEBPB,CEBPG:ASNS gene" ><g class="Complex Reactome_R-HSA-9635898"><use class="Complex Reactome_R-HSA-9635898 Node Icon" width="106" height="36" fill="#fff" stroke="#a52a2a" href="#HexagonPathVisio"/></g><g ><defs><clipPath ><rect x="-53" y="-18" width="106" height="36" style="stroke:none"/></clipPath></defs><text   transform="translate(53,18)"     style="fill:#a52a2a">ATF4:CEBPB,CEBPG:ASNS gene</text></g></g><g id="f032b" class="Protein" transform="translate(825,201)"  name="IGFBP1" ><rect   width="59" height="30"/><text   transform="translate(29.5,15)"    >IGFBP1</text></g><g id="f0fda" class="Protein" transform="translate(314,523)"  name="ASNS" ><rect   width="61" height="26"/><text   transform="translate(30.5,13)"    >ASNS</text></g><g id="f474d" class="GeneProduct " transform="translate(631,90)"  name="CCL2 gene" ><rect   width="75" height="51"/><text   transform="translate(37.5,25.5)"    >CCL2 gene</text></g><g id="f9be8" class="Protein" transform="translate(463,359)"  name="ATF3" ><rect   width="63" height="22"/><text   transform="translate(31.5,11)"    >ATF3</text></g><g id="fa74e" class="GeneProduct " transform="translate(239,230)"  name="ASNS gene" ><rect   width="78" height="51"/><text   transform="translate(39,25.5)"    >ASNS gene</text></g><g id="fd553" class="Protein" transform="translate(60,108)"  name="ATF6(1-380)" ><rect   width="92" height="21"/><text   transform="translate(46,10.5)"    >ATF6(1-380)</text></g><g id="a2734" class="GroupComplex" transform="translate(38,616)"  ><g class="GroupComplex"><use class="Icon" width="124" height="84" fill="#b4b464" fill-opacity=".1" stroke="grey" href="#Octagon"/><g id="e068c" class="Protein" transform="translate(12,12)"  name="NFYB" ><rect   width="100" height="20"/><text   transform="translate(50,10)"    >NFYB</text></g><g id="eae94" class="Protein" transform="translate(12,52)"  name="NFYA" ><rect   width="100" height="20"/><text   transform="translate(50,10)"    >NFYA</text></g><g id="f3f75" class="Protein" transform="translate(12,32)"  name="NFYC" ><rect   width="100" height="20"/><text   transform="translate(50,10)"    >NFYC</text></g></g></g><g id="a787c" class="GroupComplex" transform="translate(38,716)"  ><g class="GroupComplex"><use class="Icon" width="124" height="324" fill="#b4b464" fill-opacity=".1" stroke="grey" href="#Octagon"/><g id="a0f68" class="Protein" transform="translate(12,252)"  name="EXOSC1" ><rect   width="100" height="20"/><text   transform="translate(50,10)"    >EXOSC1</text></g><g id="a5ef3" class="Unknown Reactome_R-ALL-450386" transform="translate(12,42)"  name="mRNA Transcript Targeted by KSRP" ><rect   width="100" height="40"/><text   transform="translate(50,20)"    >mRNA Transcript Targeted by KSRP</text></g><g id="a9619" class="Protein" transform="translate(12,72)"  name="EXOSC6" ><rect   width="100" height="20"/><text   transform="translate(50,10)"    >EXOSC6</text></g><g id="b4faa" class="Protein" transform="translate(12,172)"  name="EXOSC9" ><rect   width="100" height="20"/><text   transform="translate(50,10)"    >EXOSC9</text></g><g id="c4697" class="Protein" transform="translate(12,232)"  name="EXOSC2" ><rect   width="100" height="20"/><text   transform="translate(50,10)"    >EXOSC2</text></g><g id="ce2be" class="Protein" transform="translate(12,12)"  name="KSRP" ><rect   width="100" height="20"/><text   transform="translate(50,10)"    >KSRP</text></g><g id="cfb8d" class="Protein" transform="translate(12,212)"  name="EXOSC3" ><rect   width="100" height="20"/><text   transform="translate(50,10)"    >EXOSC3</text></g><g id="d499f" class="Protein" transform="translate(12,192)"  name="DIS3" ><rect   width="100" height="20"/><text   transform="translate(50,10)"    >DIS3</text></g><g id="d967a" class="Protein" transform="translate(12,272)"  name="PARN" ><rect   width="100" height="20"/><text   transform="translate(50,10)"    >PARN</text></g><g id="dd6a7" class="Protein" transform="translate(12,152)"  name="EXOSC5" ><rect   width="100" height="20"/><text   transform="translate(50,10)"    >EXOSC5</text></g><g id="e061a" class="Protein" transform="translate(12,112)"  name="EXOSC7" ><rect   width="100" height="20"/><text   transform="translate(50,10)"    >EXOSC7</text></g><g id="e5675" class="Protein" transform="translate(12,92)"  name="EXOSC4" ><rect   width="100" height="20"/><text   transform="translate(50,10)"    >EXOSC4</text></g><g id="e68ec" class="Protein" transform="translate(12,132)"  name="EXOSC8" ><rect   width="100" height="20"/><text   transform="translate(50,10)"    >EXOSC8</text></g><g id="ebc07" class="Protein" transform="translate(12,292)"  name="DCP2" ><rect   width="100" height="20"/><text   transform="translate(50,10)"    >DCP2</text></g></g></g><g id="d6588" class="GroupComplex" transform="translate(38,1136)"  ><g class="GroupComplex"><use class="Icon" width="124" height="104" fill="#b4b464" fill-opacity=".1" stroke="grey" href="#Octagon"/><g id="aa33e" class="Protein " transform="translate(12,12)"  name="ASNS gene" ><rect   width="100" height="20"/><text   transform="translate(50,10)"    >ASNS gene</text></g><g id="d5fd0" class="Protein" transform="translate(12,72)"  name="CEBPG" ><rect   width="100" height="20"/><text   transform="translate(50,10)"    >CEBPG</text></g><g id="d74bc" class="Protein" transform="translate(12,52)"  name="CEBPB" ><rect   width="100" height="20"/><text   transform="translate(50,10)"    >CEBPB</text></g><g id="f7516" class="Protein" transform="translate(12,32)"  name="ATF4" ><rect   width="100" height="20"/><text   transform="translate(50,10)"    >ATF4</text></g></g></g><g id="dcae3" class="GroupComplex" transform="translate(38,1056)"  ><g class="GroupComplex"><use class="Icon" width="124" height="64" fill="#b4b464" fill-opacity=".1" stroke="grey" href="#Octagon"/><g id="ce94a" class="Protein" transform="translate(12,32)"  name="ATF4" ><rect   width="100" height="20"/><text   transform="translate(50,10)"    >ATF4</text></g><g id="d12c6" class="Protein " transform="translate(12,12)"  name="ATF3 gene" ><rect   width="100" height="20"/><text   transform="translate(50,10)"    >ATF3 gene</text></g></g></g></g></g></g></svg>