<?xml version="1.0" encoding="UTF-8"?>
<svg xmlns="http://www.w3.org/2000/svg" id="-svg" class="Diagram"  baseProfile="full" prefix="schema:http://schema.org/" preserveAspectRatio="xMidYMid"  version="1.1"><defs><g id="icon-defs"><symbol id="HexagonPathVisio" class=" Icon HexagonPathVisio" x="0" y="8" overflow="visible" preserveAspectRatio="none" viewBox="0 8 100 86"><desc>HexagonPathVisio</desc><g transform="scale(1 0.85)"><path d="m1.42 51.00 21.07-42.14h56.19l21.07 42.14-21.07 42.15h-56.19l-21.07-42.15z" stroke="currentColor" vector-effect="non-scaling-stroke"/></g></symbol><symbol id="Octagon" class=" Icon Octagon" x="0" y="0" overflow="visible" preserveAspectRatio="none" viewBox="0 0 100 100"><desc>Octagon</desc><path d="m0 25 25-25h50l25 25v50l-25 25h-50l-25-25z" vector-effect="non-scaling-stroke"/></symbol></g><g id="marker-defs"><marker id="mea" markerHeight="12" markerWidth="12" orient="auto" preserveAspectRatio="none" refX="12" refY="6" viewBox="0 0 12 12"><g id="g-mea" transform=""><g transform="rotate(180 6 6)"><rect y="5.4" width="2" height="1.2" style="stroke:#fff"/><polygon points="12 11 0 6 12 1" stroke-width="0"/></g></g></marker><marker id="markerendtbar000" markerHeight="20" markerWidth="10" orient="auto" preserveAspectRatio="none" refX="10" refY="10" viewBox="0 0 10 20"><g id="g-markerendtbar000" transform=""><g transform="rotate(180 5 10)"><rect y="9" width="8" height="2" style="stroke:none"/><line x="0" y="0" width="12" height="12" x1="7" x2="7" y2="20" stroke="#000" stroke-width="1.8"/></g></g></marker><marker id="memcatalysis000" markerHeight="12" markerWidth="12" orient="auto" preserveAspectRatio="none" refX="12" refY="6" viewBox="0 0 12 12"><g id="g-memcatalysis000" transform=""><g transform="rotate(180 6 6)"><circle cx="6" cy="6" r="5.3px" fill="#fff" stroke="#000"/></g></g></marker></g></defs><g id="viewport-20220102140939247" class="svg-pan-zoom_viewport" transform="matrix(0.38 0 0 0.38 330.72 9.30e-6)" style="transform:matrix(0.38, 0, 0, 0.38, 330.72, 9.30e-06)"><style>svg.Diagram {font-family: 'Liberation Sans', Arial, sans-serif; }.Diagram path {fill: transparent;stroke: #000;marker-end: url(#mea);}.Diagram symbol path {fill: inherit;stroke: inherit;stroke-width: inherit;marker-end: inherit;}.Diagram rect {fill: #fff;stroke: #000;}.Diagram text {dominant-baseline: central;overflow: hidden;text-anchor: middle;fill: #000;font-size: 10px;}</style><style type="text/css">.Viewport .textContent {
  pointer-events: none;
  stroke-width: 0px;
}

					.Viewport.Icon {
  fill: white;
}

/* Hide the InfoBox */
.Viewport.textContent {
  font-size: 0;
}

.textContent {
  stroke: none;
}

.DataNode {
  stroke-miterlimit: 1;
  pointer-events: auto;
}

.DataNode:hover {
  cursor: pointer;
}

/* TODO should this apply to things other than DataNodes? */
.DataNode.textContent {
  pointer-events: none;
}

.DataNode.Highlighted {
  opacity: 0.6;
  stroke-width: 0px;
}

marker {
  /* this is what should work per the spec
  stroke-dasharray: none; */
  /* but I need to add this to make it work in Safari */
  stroke-dasharray: 9999999999999999999999999;
}

.Citation.Icon {
  fill: none;
  stroke-width: 0px;
}

.Citation.textContent {
  text-align: center;
  vertical-align: top;
  font-size: 7px;
  fill: #999;
  fill-opacity: 1;
  stroke: none;
}</style><g id="WP2729" class="Pathway http___identifiers_org_pw_PW_0000002 http___identifiers_org_pw_PW_0001756 Viewport"  name="Name: Metabolism of angiotensinogen to angiotensins Organism: Homo sapiens" ><g class="Pathway http___identifiers_org_pw_PW_0000002 http___identifiers_org_pw_PW_0001756 Viewport"><rect   width="1408" height="1749" style="stroke:none"/><g id="a16e3" class="Reactome_R-HSA-9619024"  ><path    d="m170 481v-89" style="marker-end:none"/><g id="a7a26" class="AB" transform="translate(170,481)"  ><g class="AB"/></g><g id="d6bb4" class="AB" transform="translate(170,392.89)"  ><g class="AB"/></g><g id="d94e2" class="AB" transform="translate(170,436.5)"  ><g class="AB"/></g></g><g id="a4f34" class="Reactome_R-HSA-2028294"  ><path    d="m1240 250-64 372" style="marker-end:none"/><g id="b45cd" class="AB" transform="translate(1240,250)"  ><g class="AB"/></g><g id="b7ca9" class="AB" transform="translate(1176.6 618.28)"  ><g class="AB"/></g><g id="c7158" class="AB" transform="translate(1208,436)"  ><g class="AB"/></g></g><g id="a1c5c" class="Reactome_R-HSA-2028294"  ><path    d="m1224 262 16-12" style="marker-end:none"/></g><g id="a4f78" class="Reactome_R-HSA-2022405"  ><path    d="m824 239 125 348" style="marker-end:none"/><g id="c6a46" class="AB" transform="translate(824,239)"  ><g class="AB"/></g><g id="ef1d2" class="AB" transform="translate(947.75 583.52)"  ><g class="AB"/></g><g id="b1ec2" class="AB" transform="translate(886.5,413)"  ><g class="AB"/></g><g id="e10af" class="AB" transform="translate(886.5,413)"  ><g class="AB"/></g></g><g id="a547c" class="Reactome_R-HSA-2022405"  ><path    d="m1016 93-192 146" style="marker-end:none"/></g><g id="a5700" class="Reactome_R-HSA-2022396"  ><path    d="m1378 242-327 707" style="marker-end:none"/><g id="b0c10" class="AB" transform="translate(1378,242)"  ><g class="AB"/></g><g id="ab6a2" class="AB" transform="translate(1054.3 941.93)"  ><g class="AB"/></g><g id="f9e89" class="AB" transform="translate(1214.5,595.5)"  ><g class="AB"/></g></g><g id="b192f" class="Reactome_R-HSA-9619024"  ><path    d="m170 392v-74"/></g><g id="b3d3a" class="Reactome_R-HSA-2022379"  ><path    d="m960 673 70 276" style="marker-end:none"/><g id="f6942" class="AB" transform="translate(960,673)"  ><g class="AB"/></g><g id="b9c32" class="AB" transform="translate(1029.3 946.24)"  ><g class="AB"/></g><g id="ad577" class="AB" transform="translate(995,811)"  ><g class="AB"/></g></g><g id="b7890" class="Reactome_R-HSA-2022381"  ><path    d="m1034 315-60 272" style="marker-end:none"/><g id="a253f" class="AB" transform="translate(1034,315)"  ><g class="AB"/></g><g id="c4d15" class="AB" transform="translate(974.6 584.28)"  ><g class="AB"/></g><g id="b2212" class="AB" transform="translate(1004,451)"  ><g class="AB"/></g></g><g id="b9d50" class="Reactome_R-HSA-2022399"  ><path    d="m846 638-28 170" style="marker-end:none"/><g id="c9554" class="AB" transform="translate(846,638)"  ><g class="AB"/></g><g id="ab480" class="AB" transform="translate(818.28,806.3)"  ><g class="AB"/></g><g id="f9202" class="AB" transform="translate(832,723)"  ><g class="AB"/></g></g><g id="ba45a" class="Reactome_R-HSA-2022396"  ><path    d="m588 769 628 35" style="marker-end:url(#memcatalysis000)"/></g><g id="bea68" class="Reactome_R-HSA-2022381"  ><path    d="m974 587-7 3"/></g><g id="bebfe" class="Reactome_R-HSA-2065357"  ><path    d="m497 166 516-61" style="marker-end:none"/><g id="cc0c8" class="AB" transform="translate(497,166)"  ><g class="AB"/></g><g id="d2e07" class="AB" transform="translate(1007.8 105.61)"  ><g class="AB"/></g><g id="cd487" class="AB" transform="translate(755,135.5)"  ><g class="AB"/></g><g id="f49b3" class="AB" transform="translate(755,135.5)"  ><g class="AB"/></g></g><g id="c2457" class="Reactome_R-HSA-2065357"  ><path    d="m270 111 227 55" style="marker-end:none"/></g><g id="c2fce" class="Reactome_R-HSA-2022379"  ><path    d="m967 618-7 55" style="marker-end:none"/></g><g id="c3a9d" class="Reactome_R-HSA-2022398"  ><path    d="m1171 731-131 218" style="marker-end:none"/><g id="f1e0b" class="AB" transform="translate(1171,731)"  ><g class="AB"/></g><g id="d7539" class="AB" transform="translate(1041.3 946.82)"  ><g class="AB"/></g><g id="cce14" class="AB" transform="translate(1105.5,840)"  ><g class="AB"/></g></g><g id="c40e5" class="Reactome_R-HSA-2022399"  ><path    d="m613 660 233 59" style="marker-end:url(#memcatalysis000)"/></g><g id="c523d" class="Reactome_R-HSA-2065357"  ><path    d="m524 301 135-127" style="marker-end:url(#memcatalysis000)"/></g><g id="c681c" class="Reactome_R-HSA-9619024"  ><path    d="m201 440h-31" style="marker-end:url(#memcatalysis000)"/></g><g id="c7cfc" class="Reactome_R-HSA-2022399"  ><path    d="m907 604-61 34" style="marker-end:none"/></g><g id="c7ee3" class="Reactome_R-HSA-9619024"  ><path    d="m150 493 20-12" style="marker-end:none"/></g><g id="c9d08" class="Reactome_R-HSA-2065357"  ><path    d="m1013 105 3-12"/></g><g id="cb578" class="Reactome_R-HSA-9614933"  ><path    d="m821 346 25 56" style="marker-end:none"/><g id="b5956" class="AB" transform="translate(821,346)"  ><g class="AB"/></g><g id="a96d7" class="AB" transform="translate(845.75 401.44)"  ><g class="AB"/></g></g><g id="a17cc" class="Reactome_R-HSA-9614933"  ><path    d="m855 373-34-27" style="marker-end:none"/></g><g id="b5bdf" class="Reactome_R-HSA-9614933"  ><path    d="m839 311-18 35" style="marker-end:none"/></g><g id="cca4c" class="Reactome_R-HSA-2022381"  ><path    d="m608 493 419-12" style="marker-end:url(#memcatalysis000)"/></g><g id="cd527" class="Reactome_R-HSA-2022381"  ><path    d="m1078 108-44 207" style="marker-end:none"/></g><g id="cdd6b" class="Reactome_R-HSA-2022398"  ><path    d="m1174 655-3 76" style="marker-end:none"/></g><g id="cdf64" class="Reactome_R-HSA-2022405"  ><path    d="m911 209-218 168"/></g><g id="cffb8" class="Reactome_R-HSA-9614933"  ><path    d="m846 402 8 3"/></g><g id="d0657" class="Reactome_R-HSA-2022398"  ><path    d="m550 378 556 390" style="marker-end:url(#memcatalysis000)"/></g><g id="d3156" class="Reactome_R-HSA-2022379"  ><path    d="m1030 949 5 3"/></g><g id="d6a94" class="Reactome_R-HSA-9619034"  ><path    d="m230 304 431-20" style="marker-end:none"/><g id="edf4e" class="AB" transform="translate(230,304)"  ><g class="AB"/></g><g id="fb62f" class="AB" transform="translate(656.69 284.2)"  ><g class="AB"/></g></g><g id="c629e" class="Reactome_R-HSA-9619034"  ><path    d="m224 307 6-3" style="marker-end:none"/></g><g id="d76da" class="Reactome_R-HSA-2022383"  ><path    d="m1136 326-147 261" style="marker-end:none"/><g id="f6b8f" class="AB" transform="translate(1136,326)"  ><g class="AB"/></g><g id="da91c" class="AB" transform="translate(990.47 584.39)"  ><g class="AB"/></g><g id="bd687" class="AB" transform="translate(1062.5,456.5)"  ><g class="AB"/></g></g><g id="b2f3a" class="Reactome_R-HSA-2022383"  ><path    d="m1078 108 58 218" style="marker-end:none"/></g><g id="d3215" class="Reactome_R-HSA-2022383"  ><path    d="m989 587-22 3"/></g><g id="db73a" class="Reactome_R-HSA-2022396"  ><path    d="m1303 241 75 1" style="marker-end:none"/></g><g id="dcde7" class="Reactome_R-HSA-9619024"  ><path    d="m170 523v-42" style="marker-end:none"/></g><g id="dd0e2" class="Reactome_R-HSA-2022383"  ><path    d="m1115 314 21 12" style="marker-end:none"/></g><g id="de185" class="Reactome_R-HSA-2022412"  ><path    d="m461 109 552-19" style="marker-end:none"/><g id="fe9f6" class="AB" transform="translate(461,109)"  ><g class="AB"/></g><g id="e6fd4" class="AB" transform="translate(1007.5 90.19)"  ><g class="AB"/></g><g id="e312f" class="AB" transform="translate(737,99.5)"  ><g class="AB"/></g><g id="d398a" class="AB" transform="translate(737,99.5)"  ><g class="AB"/></g></g><g id="a4cbb" class="Reactome_R-HSA-2022412"  ><path    d="m448 71 13 38" style="marker-end:none"/></g><g id="bff7d" class="Reactome_R-HSA-2022412"  ><path    d="m270 111 191-2" style="marker-end:none"/></g><g id="bdb23" class="Reactome_R-HSA-2022412"  ><path    d="m612 33 38 44" style="marker-end:url(#memcatalysis000)"/></g><g id="a7ab9" class="Reactome_R-HSA-2022412"  ><path    d="m539 125 111-48" style="marker-end:url(#markerendtbar000)"/></g><g id="decb1" class="Reactome_R-HSA-2022398"  ><path    d="m1040 949-5 3"/></g><g id="df278" class="Reactome_R-HSA-2022398"  ><path    d="m1199 703-28 28" style="marker-end:none"/></g><g id="df65e" class="Reactome_R-HSA-2022399"  ><path    d="m811 612 35 26" style="marker-end:none"/></g><g id="dfc4d" class="Reactome_R-HSA-2022368"  ><path    d="m1068 716-33 233" style="marker-end:none"/><g id="e2da4" class="AB" transform="translate(1068,716)"  ><g class="AB"/></g><g id="fec38" class="AB" transform="translate(1035.3 946.67)"  ><g class="AB"/></g><g id="c3374" class="AB" transform="translate(1051.5,832.5)"  ><g class="AB"/></g></g><g id="c213e" class="Reactome_R-HSA-2022368"  ><path    d="m1111 640-43 76" style="marker-end:none"/></g><g id="d8486" class="Reactome_R-HSA-2022368"  ><path    d="m1035 949v3"/></g><g id="a97ef" class="Reactome_R-HSA-2022368"  ><path    d="m588 769 450 38" style="marker-end:url(#memcatalysis000)"/></g><g id="e03aa" class="Reactome_R-HSA-9619034"  ><path    d="m661 284 6-1"/></g><g id="e050d" class="Reactome_R-HSA-2022381"  ><path    d="m1018 286 16 29" style="marker-end:none"/></g><g id="e1c7c" class="Reactome_R-HSA-2022411"  ><path    d="m1042 315-67 272" style="marker-end:none"/><g id="aea2c" class="AB" transform="translate(1042,315)"  ><g class="AB"/></g><g id="cd547" class="AB" transform="translate(975.67,584.28)"  ><g class="AB"/></g><g id="a1b8f" class="AB" transform="translate(1008.5,451)"  ><g class="AB"/></g></g><g id="b4271" class="Reactome_R-HSA-2022411"  ><path    d="m975 587-8 3"/></g><g id="e288e" class="Reactome_R-HSA-2022399"  ><path    d="m818 808-4 3"/></g><g id="e3442" class="Reactome_R-HSA-2022412"  ><path    d="m1013 90 3 3"/></g><g id="e35dd" class="Reactome_R-HSA-2022368"  ><path    d="m1106 710-38 6" style="marker-end:none"/></g><g id="e38e1" class="Reactome_R-HSA-2022383"  ><path    d="m1084 422 52 71" style="marker-end:url(#memcatalysis000)"/></g><g id="e4ac9" class="Reactome_R-HSA-2065355"  ><path    d="m956 265 11 322" style="marker-end:none"/><g id="e1ea6" class="AB" transform="translate(956,265)"  ><g class="AB"/></g><g id="b660c" class="AB" transform="translate(966.89 583.78)"  ><g class="AB"/></g><g id="a4e86" class="AB" transform="translate(961.5,426)"  ><g class="AB"/></g><g id="e70bd" class="AB" transform="translate(961.5,426)"  ><g class="AB"/></g><g id="cff6a" class="AB" transform="translate(961.5,426)"  ><g class="AB"/></g></g><g id="a6f96" class="Reactome_R-HSA-2065355"  ><path    d="m976 286-20-21" style="marker-end:none"/></g><g id="a3cdc" class="Reactome_R-HSA-2065355"  ><path    d="m967 587v3"/></g><g id="b8679" class="Reactome_R-HSA-2065355"  ><path    d="m951 373 22 50" style="marker-end:url(#memcatalysis000)"/></g><g id="bab8a" class="Reactome_R-HSA-2065355"  ><path    d="m899 422 74 1" style="marker-end:url(#markerendtbar000)"/></g><g id="adf97" class="Reactome_R-HSA-2065355"  ><path    d="m928 224 45 199"/></g><g id="e6144" class="Reactome_R-HSA-2022411"  ><path    d="m611 453 432 19" style="marker-end:url(#memcatalysis000)"/></g><g id="e6256" class="Reactome_R-HSA-2022411"  ><path    d="m1078 108-36 207" style="marker-end:none"/></g><g id="e7d17" class="Reactome_R-HSA-2022396"  ><path    d="m1051 949-16 3"/></g><g id="e7df9" class="Reactome_R-HSA-2065357"  ><path    d="m539 125 120 49" style="marker-end:url(#markerendtbar000)"/></g><g id="e80e7" class="Reactome_R-HSA-2028294"  ><path    d="m1176 622-2 3"/></g><g id="e8798" class="Reactome_R-HSA-8851929"  ><path    d="m274 721v70" style="marker-end:none"/><g id="a6ef2" class="AB" transform="translate(274,721)"  ><g class="AB"/></g><g id="c974b" class="AB" transform="translate(274 790.3)"  ><g class="AB"/></g><g id="deaca" class="AB" transform="translate(274,756)"  ><g class="AB"/></g></g><g id="e0f71" class="Reactome_R-HSA-8851929"  ><path    d="m274 651v70" style="marker-end:none"/></g><g id="e5e79" class="Reactome_R-HSA-8851929"  ><path    d="m251 681 23 40" style="marker-end:none"/></g><g id="d9a70" class="Reactome_R-HSA-8851929"  ><path    d="m274 791-18 45"/></g><g id="ecfff" class="Reactome_R-HSA-2028294"  ><path    d="m1244 421-37-1" style="marker-end:url(#memcatalysis000)"/></g><g id="ee921" class="Reactome_R-HSA-2022379"  ><path    d="m1e3 644-40 29" style="marker-end:none"/></g><g id="f0dd1" class="Reactome_R-HSA-2022405"  ><path    d="m810 218 14 21" style="marker-end:none"/></g><g id="f16b3" class="Reactome_R-HSA-2065357"  ><path    d="m465 187 32-21" style="marker-end:none"/></g><g id="f1bde" class="Reactome_R-HSA-9619024"  ><path    d="m170 392-16-40"/></g><g id="f3e49" class="Reactome_R-HSA-2022403"  ><path    d="m447 227 569-116" style="marker-end:none"/><g id="ea5ed" class="AB" transform="translate(447,227)"  ><g class="AB"/></g><g id="a9d3f" class="AB" transform="translate(1010.3 112.16)"  ><g class="AB"/></g><g id="f600d" class="AB" transform="translate(731.5,169)"  ><g class="AB"/></g><g id="fb323" class="AB" transform="translate(731.5,169)"  ><g class="AB"/></g><g id="b8287" class="AB" transform="translate(731.5,169)"  ><g class="AB"/></g></g><g id="d2806" class="Reactome_R-HSA-2022403"  ><path    d="m444 202 3 25" style="marker-end:none"/></g><g id="b3e4e" class="Reactome_R-HSA-2022403"  ><path    d="m1016 111v-18"/></g><g id="ae789" class="Reactome_R-HSA-2022403"  ><path    d="m455 259 86-34" style="marker-end:url(#memcatalysis000)"/></g><g id="e4867" class="Reactome_R-HSA-2022403"  ><path    d="m539 125 2 100" style="marker-end:url(#markerendtbar000)"/></g><g id="b579e" class="Reactome_R-HSA-2022403"  ><path    d="m455 259 86-34"/></g><g id="f4019" class="Reactome_R-HSA-2022393"  ><path    d="m747 873v75" style="marker-end:none"/><g id="f39de" class="AB" transform="translate(747,873)"  ><g class="AB"/></g><g id="dfed3" class="AB" transform="translate(747,947.25)"  ><g class="AB"/></g><g id="b7765" class="AB" transform="translate(747,910.5)"  ><g class="AB"/></g></g><g id="a97cf" class="Reactome_R-HSA-2022393"  ><path    d="m758 825-11 48" style="marker-end:none"/></g><g id="cf3f6" class="Reactome_R-HSA-2022393"  ><path    d="m741 844 6 29" style="marker-end:none"/></g><g id="cb102" class="Reactome_R-HSA-2022393"  ><path    d="m618 902h128" style="marker-end:url(#memcatalysis000)"/></g><g id="f4d75" class="Reactome_R-HSA-2028294"  ><path    d="m1140 93 100 157" style="marker-end:none"/></g><g id="f79cf" class="Reactome_R-HSA-2022405"  ><path    d="m550 378 143-1" style="marker-end:url(#memcatalysis000)"/></g><g id="f986d" class="Reactome_R-HSA-2022405"  ><path    d="m949 587 18 3"/></g><g id="fa3ae" class="Reactome_R-HSA-2022396"  ><path    d="m1140 93 238 149" style="marker-end:none"/></g><g id="fa716" class="Reactome_R-HSA-2022411"  ><path    d="m1062 274-20 41" style="marker-end:none"/></g><g id="fcaee" class="Reactome_R-HSA-8851929"  ><path    d="m274 791-6 67"/></g><g id="fe084" class="Reactome_R-HSA-2022393"  ><path    d="m747 948 1 3"/></g><g id="fe210" class="Reactome_R-HSA-2022379"  ><path    d="m622 535 339 195" style="marker-end:url(#memcatalysis000)"/></g><g id="fe397" class="Reactome_R-HSA-8851929"  ><path    d="m248 752 26 2" style="marker-end:url(#memcatalysis000)"/></g><g id="fef3f" class="Reactome_R-HSA-2022378"  ><path    d="m1173 275 1 347" style="marker-end:none"/><g id="f4eda" class="AB" transform="translate(1173,275)"  ><g class="AB"/></g><g id="f19eb" class="AB" transform="translate(1174 618.53)"  ><g class="AB"/></g><g id="b7d8d" class="AB" transform="translate(1173.5,448.5)"  ><g class="AB"/></g></g><g id="c19ef" class="Reactome_R-HSA-2022378"  ><path    d="m1184 262-11 13" style="marker-end:none"/></g><g id="fafcb" class="Reactome_R-HSA-2022378"  ><path    d="m1140 93 33 182" style="marker-end:none"/></g><g id="c4e68" class="Reactome_R-HSA-2022378"  ><path    d="m1174 622v3"/></g><g id="f8bbf" class="Reactome_R-HSA-2022378"  ><path    d="m622 535 554-6" style="marker-end:url(#memcatalysis000)"/></g><g id="ff367" class="Reactome_R-HSA-2065355"  ><path    d="m1016 93-60 172" style="marker-end:none"/></g><g id="ffdfd" class="Reactome_R-HSA-2022403"  ><path    d="m270 111 177 116" style="marker-end:none"/></g><g id="b7d82" class="GroupGroup" transform="translate(84,273)"  ><g class="GroupGroup"><g id="c84c7" class="" transform="translate(8,8)"  ><g class=""><rect   transform="matrix(0.99 0 0 0.99 1.48 1.49)" width="198" height="320" rx="15" ry="15" stroke-width="3" style="fill:transparent;stroke:#c0c0c0"/></g></g><g id="b22c0" class="Label" transform="translate(11,278)"  name="endoplasmic reticulum membrane" ><g class="Label"/><text   transform="translate(82.5,23.5)"    >endoplasmic reticulum membrane</text></g></g></g><g id="b965b" class="GroupGroup" transform="translate(51,239)"  ><g class="GroupGroup"><g id="d3202" class="" transform="translate(8,8)"  ><g class=""><rect   transform="matrix(0.99 0 0 1.00 1.48 1.49)" width="283" height="690" rx="15" ry="15" stroke-width="3" style="fill:transparent;stroke:#c0c0c0"/></g></g><g id="d560a" class="Label" transform="translate(137,648)"  name="cytosol" ><g class="Label"/><text   transform="translate(32,16.5)"    >cytosol</text></g></g></g><g id="e95ae" class="GroupGroup" transform="translate(328,234)"  ><g class="GroupGroup"><g id="a83ba" class="" transform="translate(8,8)"  ><g class=""><rect   transform="matrix(0.99 0 0 1.00 1.48 1.49)" width="291" height="697" rx="15" ry="15" stroke-width="3" style="fill:transparent;stroke:#c0c0c0"/></g></g><g id="ee0af" class="Label" transform="translate(19,668)"  name="plasma membrane" ><g class="Label"/><text   transform="translate(68,16.5)"    >plasma membrane</text></g></g></g><g id="a712a" class="Complex Reactome_R-HSA-2022361" transform="translate(512,889)"  name="ANPEP Dimer" ><g class="Complex Reactome_R-HSA-2022361"><use class="Complex Reactome_R-HSA-2022361 Node Icon" width="106" height="27" fill="#fff" stroke="#a52a2a" href="#HexagonPathVisio"/></g><g ><defs><clipPath ><rect x="-53" y="-13.5" width="106" height="27" style="stroke:none"/></clipPath></defs><text   transform="translate(53,13.5)"     style="fill:#a52a2a">ANPEP Dimer</text></g></g><g id="a93d8" class="Complex Reactome_R-HSA-2990877" transform="translate(517,440)"  name="Cathepsin G" ><g class="Complex Reactome_R-HSA-2990877"><rect   width="94" height="26" rx="15" ry="15" style="stroke:#a52a2a"/></g><g ><defs><clipPath ><rect x="-47" y="-13" width="94" height="26" style="stroke:none"/></clipPath></defs><text   transform="translate(47,13)"     style="fill:#a52a2a">Cathepsin G</text></g></g><g id="aaa12" class="Metabolite " transform="translate(1e3 629)"  name="H2O" ><rect   width="43" height="30" style="stroke:#00f"/><text   transform="translate(21.5,15)"     style="fill:#00f">H2O</text></g><g id="ab818" class="Protein" transform="translate(440,365)"  name="ACE(30-1306)" ><rect   width="110" height="27"/><text   transform="translate(55,13.5)"    >ACE(30-1306)</text></g><g id="b126a" class="Complex Reactome_R-HSA-2990850" transform="translate(612,21)"  name="Renin" ><g class="Complex Reactome_R-HSA-2990850"><rect   width="70" height="24" rx="15" ry="15" style="stroke:#a52a2a"/></g><g ><defs><clipPath ><rect x="-35" y="-12" width="70" height="24" style="stroke:none"/></clipPath></defs><text   transform="translate(35,12)"     style="fill:#a52a2a">Renin</text></g></g><g id="b25ae" class="Complex Reactome_R-ALL-9614913" transform="translate(839,300)"  name="ACEIs" ><g class="Complex Reactome_R-ALL-9614913"><rect   width="60" height="22" rx="15" ry="15" style="stroke:#a52a2a"/></g><g ><defs><clipPath ><rect x="-30" y="-11" width="60" height="22" style="stroke:none"/></clipPath></defs><text   transform="translate(30,11)"     style="fill:#a52a2a">ACEIs</text></g></g><g id="b3ec5" class="Metabolite " transform="translate(911,194)"  name="Cl-" ><rect   width="35" height="30" style="stroke:#00f"/><text   transform="translate(17.5,15)"     style="fill:#00f">Cl-</text></g><g id="b48bc" class="Metabolite " transform="translate(1062,259)"  name="H2O" ><rect   width="41" height="30" style="stroke:#00f"/><text   transform="translate(20.5,15)"     style="fill:#00f">H2O</text></g><g id="b496e" class="Metabolite " transform="translate(108,478)"  name="H2O" ><rect   width="43" height="30" style="stroke:#00f"/><text   transform="translate(21.5,15)"     style="fill:#00f">H2O</text></g><g id="b5526" class="Complex Reactome_R-HSA-2065393" transform="translate(426,301)"  name="Prorenin-Prorenin Receptor" ><g class="Complex Reactome_R-HSA-2065393"><use class="Complex Reactome_R-HSA-2065393 Node Icon" width="197" height="28" fill="#fff" stroke="#a52a2a" href="#HexagonPathVisio"/></g><g ><defs><clipPath ><rect x="-98.5" y="-14" width="197" height="28" style="stroke:none"/></clipPath></defs><text   transform="translate(98.5,14)"     style="fill:#a52a2a"><tspan   x="0" y="-5.5">Prorenin-Prorenin</tspan><tspan   x="0" y="5.5">Receptor</tspan></text></g></g><g id="b5fc4" class="Metabolite " transform="translate(1199,688)"  name="H2O" ><rect   width="43" height="30" style="stroke:#00f"/><text   transform="translate(21.5,15)"     style="fill:#00f">H2O</text></g><g id="bacd3" class="Protein" transform="translate(855,361)"  name="ACE(30-1232)" ><rect   width="97" height="24"/><text   transform="translate(48.5,12)"    >ACE(30-1232)</text></g><g id="c1e2b" class="Complex Reactome_R-HSA-8852197" transform="translate(196,736)"  name="AOPEP:Zn2+" ><g class="Complex Reactome_R-HSA-8852197"><use class="Complex Reactome_R-HSA-8852197 Node Icon" width="52" height="33" fill="#fff" stroke="#a52a2a" href="#HexagonPathVisio"/></g><g ><defs><clipPath ><rect x="-26" y="-16.5" width="52" height="33" style="stroke:none"/></clipPath></defs><text   transform="translate(26,16.5)"     style="fill:#a52a2a">AOPEP:Zn2+</text></g></g><g id="c2030" class="Protein" transform="translate(1050,422)"  name="CMA1" ><rect   width="69" height="26"/><text   transform="translate(34.5,13)"    >CMA1</text></g><g id="c2741" class="Metabolite " transform="translate(976,271)"  name="H2O" ><rect   width="43" height="30" style="stroke:#00f"/><text   transform="translate(21.5,15)"     style="fill:#00f">H2O</text></g><g id="c3b47" class="Metabolite " transform="translate(206,821)"  name="L-Arg" ><rect   width="50" height="30" style="stroke:#00f"/><text   transform="translate(25,15)"     style="fill:#00f">L-Arg</text></g><g id="c4037" class="Protein" transform="translate(514,523)"  name="ACE2(18-805)" ><rect   width="108" height="25"/><text   transform="translate(54,12.5)"    >ACE2(18-805)</text></g><g id="ce578" class="Protein" transform="translate(758,811)"  name="AGT(35-41)" ><rect   width="113" height="29"/><text   transform="translate(56.5,14.5)"    >AGT(35-41)</text></g><g id="ceb3d" class="Metabolite " transform="translate(406,56)"  name="H2O" ><rect   width="43" height="30" style="stroke:#00f"/><text   transform="translate(21.5,15)"     style="fill:#00f">H2O</text></g><g id="cff26" class="Complex Reactome_R-ALL-9619052" transform="translate(121,523)"  name="ACEI pro-drugs" ><g class="Complex Reactome_R-ALL-9619052"><rect   width="99" height="22" rx="15" ry="15" style="stroke:#a52a2a"/></g><g ><defs><clipPath ><rect x="-49.5" y="-11" width="99" height="22" style="stroke:none"/></clipPath></defs><text   transform="translate(49.5,11)"     style="fill:#a52a2a">ACEI pro-drugs</text></g></g><g id="d0a5e" class="Complex Reactome_R-HSA-5693667" transform="translate(201,429)"  name="CES1 trimer" ><g class="Complex Reactome_R-HSA-5693667"><use class="Complex Reactome_R-HSA-5693667 Node Icon" width="77" height="22" fill="#fff" stroke="#a52a2a" href="#HexagonPathVisio"/></g><g ><defs><clipPath ><rect x="-38.5" y="-11" width="77" height="22" style="stroke:none"/></clipPath></defs><text   transform="translate(38.5,11)"     style="fill:#a52a2a">CES1 trimer</text></g></g><g id="d1814" class="Metabolite " transform="translate(1106,695)"  name="H2O" ><rect   width="43" height="30" style="stroke:#00f"/><text   transform="translate(21.5,15)"     style="fill:#00f">H2O</text></g><g id="d58e2" class="Complex Reactome_R-ALL-9619021" transform="translate(116,296)"  name="hydrolysed ACEIs" ><g class="Complex Reactome_R-ALL-9619021"><rect   width="108" height="22" rx="15" ry="15" style="stroke:#a52a2a"/></g><g ><defs><clipPath ><rect x="-54" y="-11" width="108" height="22" style="stroke:none"/></clipPath></defs><text   transform="translate(54,11)"     style="fill:#a52a2a">hydrolysed ACEIs</text></g></g><g id="d59a1" class="Metabolite " transform="translate(1075,299)"  name="H2O" ><rect   width="40" height="30" style="stroke:#00f"/><text   transform="translate(20,15)"     style="fill:#00f">H2O</text></g><g id="d6349" class="Protein" transform="translate(227,858)"  name="AGT(36-41)" ><rect   width="83" height="30"/><text   transform="translate(41.5,15)"    >AGT(36-41)</text></g><g id="d757d" class="Protein" transform="translate(522,479)"  name="CTSZ" ><rect   width="86" height="28"/><text   transform="translate(43,14)"    >CTSZ</text></g><g id="d904e" class="Metabolite " transform="translate(1261,226)"  name="H2O" ><rect   width="43" height="30" style="stroke:#00f"/><text   transform="translate(21.5,15)"     style="fill:#00f">H2O</text></g><g id="d9516" class="Complex Reactome_R-ALL-9619018" transform="translate(667,266)"  name="hydrolysed ACEIs" ><g class="Complex Reactome_R-ALL-9619018"><rect   width="80" height="34" rx="15" ry="15" style="stroke:#a52a2a"/></g><g ><defs><clipPath ><rect x="-40" y="-17" width="80" height="34" style="stroke:none"/></clipPath></defs><text   transform="translate(40,17)"     style="fill:#a52a2a">hydrolysed ACEIs</text></g></g><g id="d9ed8" class="Metabolite " transform="translate(1184,247)"  name="H2O" ><rect   width="41" height="30" style="stroke:#00f"/><text   transform="translate(20.5,15)"     style="fill:#00f">H2O</text></g><g id="dda99" class="Metabolite " transform="translate(699,829)"  name="H2O" ><rect   width="43" height="30" style="stroke:#00f"/><text   transform="translate(21.5,15)"     style="fill:#00f">H2O</text></g><g id="ddaf7" class="Protein" transform="translate(692,951)"  name="AGT(36-41)" ><rect   width="112" height="30"/><text   transform="translate(56,15)"    >AGT(36-41)</text></g><g id="df330" class="Complex Reactome_R-HSA-9614931" transform="translate(809,405)"  name="ACEIs:ACE(30-1232)" ><g class="Complex Reactome_R-HSA-9614931"><use class="Complex Reactome_R-HSA-9614931 Node Icon" width="91" height="35" fill="#fff" stroke="#a52a2a" href="#HexagonPathVisio"/></g><g ><defs><clipPath ><rect x="-45.5" y="-17.5" width="91" height="35" style="stroke:none"/></clipPath></defs><text   transform="translate(45.5,17.5)"     style="fill:#a52a2a">ACEIs:ACE(30-1232)</text></g></g><g id="e5b21" class="Complex Reactome_R-HSA-2022357" transform="translate(503,646)"  name="ENPEP Dimer" ><g class="Complex Reactome_R-HSA-2022357"><use class="Complex Reactome_R-HSA-2022357 Node Icon" width="111" height="28" fill="#fff" stroke="#a52a2a" href="#HexagonPathVisio"/></g><g ><defs><clipPath ><rect x="-55.5" y="-14" width="111" height="28" style="stroke:none"/></clipPath></defs><text   transform="translate(55.5,14)"     style="fill:#a52a2a">ENPEP Dimer</text></g></g><g id="e7aea" class="Complex Reactome_R-HSA-2022360" transform="translate(367,259)"  name="Renin:Prorenin Receptor" ><g class="Complex Reactome_R-HSA-2022360"><use class="Complex Reactome_R-HSA-2022360 Node Icon" width="177" height="23" fill="#fff" stroke="#a52a2a" href="#HexagonPathVisio"/></g><g ><defs><clipPath ><rect x="-88.5" y="-11.5" width="177" height="23" style="stroke:none"/></clipPath></defs><text   transform="translate(88.5,11.5)"     style="fill:#a52a2a"><tspan   x="0" y="-5.5">Renin:Prorenin</tspan><tspan   x="0" y="5.5">Receptor</tspan></text></g></g><g id="ec0b1" class="Metabolite " transform="translate(539,110)"  name="aliskiren" ><rect   width="74" height="31" style="stroke:#00f"/><text   transform="translate(37,15.5)"     style="fill:#00f">aliskiren</text></g><g id="ef105" class="Protein" transform="translate(907,590)"  name="AGT(34-41)" ><rect   width="120" height="29"/><text   transform="translate(60,14.5)"    >AGT(34-41)</text></g><g id="f05f6" class="Complex Reactome_R-HSA-3229246" transform="translate(1244,410)"  name="Carboxypeptidase" ><g class="Complex Reactome_R-HSA-3229246"><rect   width="123" height="22" rx="15" ry="15" style="stroke:#a52a2a"/></g><g ><defs><clipPath ><rect x="-61.5" y="-11" width="123" height="22" style="stroke:none"/></clipPath></defs><text   transform="translate(61.5,11)"     style="fill:#a52a2a">Carboxypeptidase</text></g></g><g id="f2622" class="Metabolite " transform="translate(211,666)"  name="H2O" ><rect   width="40" height="30" style="stroke:#00f"/><text   transform="translate(20,15)"     style="fill:#00f">H2O</text></g><g id="f2857" class="Metabolite " transform="translate(96,337)"  name="Alcohol" ><rect   width="58" height="30" style="stroke:#00f"/><text   transform="translate(29,15)"     style="fill:#00f">Alcohol</text></g><g id="f3a30" class="Metabolite " transform="translate(789,188)"  name="H2O" ><rect   width="43" height="30" style="stroke:#00f"/><text   transform="translate(21.5,15)"     style="fill:#00f">H2O</text></g><g id="f5d45" class="Protein" transform="translate(975,952)"  name="AGT(34-40)" ><rect   width="120" height="29"/><text   transform="translate(60,14.5)"    >AGT(34-40)</text></g><g id="f62de" class="Protein" transform="translate(516,756)"  name="MME" ><rect   width="72" height="27"/><text   transform="translate(36,13.5)"    >MME</text></g><g id="f8fe0" class="Protein" transform="translate(231,627)"  name="AGT(35-41)" ><rect   width="86" height="25"/><text   transform="translate(43,12.5)"    >AGT(35-41)</text></g><g id="f98ea" class="Metabolite " transform="translate(423,172)"  name="H2O" ><rect   width="43" height="30" style="stroke:#00f"/><text   transform="translate(21.5,15)"     style="fill:#00f">H2O</text></g><g id="fa037" class="Metabolite " transform="translate(769,597)"  name="H2O" ><rect   width="43" height="30" style="stroke:#00f"/><text   transform="translate(21.5,15)"     style="fill:#00f">H2O</text></g><g id="fc13c" class="Protein" transform="translate(1016,78)"  name="AGT(34-43)" ><rect   width="125" height="30"/><text   transform="translate(62.5,15)"    >AGT(34-43)</text></g><g id="fd58d" class="Protein" transform="translate(198,100)"  name="AGT" ><rect   width="72" height="23"/><text   transform="translate(36,11.5)"    >AGT</text></g><g id="fde92" class="Protein" transform="translate(1111,625)"  name="AGT(34-42)" ><rect   width="126" height="31"/><text   transform="translate(63,15.5)"    >AGT(34-42)</text></g><g id="a6238" class="GroupNone" transform="translate(-9,-9)"  ><g class="GroupNone"><rect   width="18" height="18" fill-opacity=".1" stroke-dasharray="5,3" style="fill:#b4b464;stroke:grey"/><g id="ccaf2" class="Unknown" transform="translate(9,9)"  name="benazeprilat" ><rect   transform="scale(0)" width="0" height="0"/><text   transform="translate(0)"    >benazeprilat</text></g></g></g><g id="b746f" class="GroupComplex" transform="translate(38,1147)"  ><g class="GroupComplex"><use class="Icon" width="124" height="44" fill="#b4b464" fill-opacity=".1" stroke="grey" href="#Octagon"/><g id="d5b17" class="Protein" transform="translate(12,12)"  name="ANPEP" ><rect   width="100" height="20"/><text   transform="translate(50,10)"    >ANPEP</text></g></g></g><g id="be582" class="GroupComplex" transform="translate(38,1627)"  ><g class="GroupComplex"><use class="Icon" width="124" height="44" fill="#b4b464" fill-opacity=".1" stroke="grey" href="#Octagon"/><g id="e4d18" class="Protein" transform="translate(12,12)"  name="CES1" ><rect   width="100" height="20"/><text   transform="translate(50,10)"    >CES1</text></g></g></g><g id="cfa56" class="GroupNone" transform="translate(-9,-9)"  ><g class="GroupNone"><rect   width="18" height="18" fill-opacity=".1" stroke-dasharray="5,3" style="fill:#b4b464;stroke:grey"/><g id="ed71f" class="Unknown" transform="translate(9,9)"  name="benazepril" ><rect   transform="scale(0)" width="0" height="0"/><text   transform="translate(0)"    >benazepril</text></g></g></g><g id="d3bc8" class="GroupNone" transform="translate(-9,-9)"  ><g class="GroupNone"><rect   width="18" height="18" fill-opacity=".1" stroke-dasharray="5,3" style="fill:#b4b464;stroke:grey"/><g id="b30f3" class="Unknown" transform="translate(9,9)"  name="benazeprilat" ><rect   transform="scale(0)" width="0" height="0"/><text   transform="translate(0)"    >benazeprilat</text></g></g></g><g id="d42bb" class="GroupComplex" transform="translate(38,1207)"  ><g class="GroupComplex"><use class="Icon" width="124" height="64" fill="#b4b464" fill-opacity=".1" stroke="grey" href="#Octagon"/><g id="a3743" class="Protein" transform="translate(12,12)"  name="REN(24-406)" ><rect   width="100" height="20"/><text   transform="translate(50,10)"    >REN(24-406)</text></g><g id="a4ebe" class="Protein" transform="translate(12,32)"  name="ATP6AP2" ><rect   width="100" height="20"/><text   transform="translate(50,10)"    >ATP6AP2</text></g></g></g><g id="d48c5" class="GroupComplex" transform="translate(-12,-12)"  ><g class="GroupComplex"><use class="Icon" width="174" height="1743" fill="#b4b464" fill-opacity=".1" stroke="grey" href="#Octagon"/><g id="c058e" class="Protein" transform="translate(62,1711)"  name="ACE(30-1232)" ><rect   width="100" height="20"/><text   transform="translate(50,10)"    >ACE(30-1232)</text></g><g id="ec76c" class="Unknown" transform="translate(12,12)"  name="benazeprilat" ><rect   transform="scale(0)" width="0" height="0"/><text   transform="translate(0)"    >benazeprilat</text></g></g></g><g id="d8c88" class="GroupNone" transform="translate(-9,-9)"  ><g class="GroupNone"><rect   width="18" height="18" fill-opacity=".1" stroke-dasharray="5,3" style="fill:#b4b464;stroke:grey"/><g id="e0280" class="Unknown" transform="translate(9,9)"  name="benazeprilat" ><rect   transform="scale(0)" width="0" height="0"/><text   transform="translate(0)"    >benazeprilat</text></g></g></g><g id="dd034" class="GroupNone" transform="translate(41,1370)"  ><g class="GroupNone"><rect   width="118" height="58" fill-opacity=".1" stroke-dasharray="5,3" style="fill:#b4b464;stroke:grey"/><g id="e6952" class="Protein" transform="translate(9,29)"  name="GZMH" ><rect   width="100" height="20"/><text   transform="translate(50,10)"    >GZMH</text></g><g id="fd57a" class="Protein" transform="translate(9,9)"  name="CTSG" ><rect   width="100" height="20"/><text   transform="translate(50,10)"    >CTSG</text></g></g></g><g id="e35d3" class="GroupNone" transform="translate(41,1290)"  ><g class="GroupNone"><rect   width="118" height="58" fill-opacity=".1" stroke-dasharray="5,3" style="fill:#b4b464;stroke:grey"/><g id="a52c9" class="Protein" transform="translate(9,9)"  name="REN" ><rect   width="100" height="20"/><text   transform="translate(50,10)"    >REN</text></g><g id="a7705" class="Protein" transform="translate(9,29)"  name="CTSD(65-412)" ><rect   width="100" height="20"/><text   transform="translate(50,10)"    >CTSD(65-412)</text></g></g></g><g id="e6da3" class="GroupComplex" transform="translate(38,1547)"  ><g class="GroupComplex"><use class="Icon" width="124" height="64" fill="#b4b464" fill-opacity=".1" stroke="grey" href="#Octagon"/><g id="e1905" class="Metabolite " transform="translate(12,32)"  name="Zn2+" ><rect   width="100" height="20" style="stroke:#00f"/><text   transform="translate(50,10)"     style="fill:#00f">Zn2+</text></g><g id="e226a" class="Protein" transform="translate(12,12)"  name="AOPEP" ><rect   width="100" height="20"/><text   transform="translate(50,10)"    >AOPEP</text></g></g></g><g id="e92c0" class="GroupComplex" transform="translate(38,987)"  ><g class="GroupComplex"><use class="Icon" width="124" height="84" fill="#b4b464" fill-opacity=".1" stroke="grey" href="#Octagon"/><g id="a175b" class="Protein" transform="translate(12,12)"  name="ATP6AP2" ><rect   width="100" height="20"/><text   transform="translate(50,10)"    >ATP6AP2</text></g><g id="cc794" class="Protein" transform="translate(12,32)"  name="REN" ><rect   width="100" height="20"/><text   transform="translate(50,10)"    >REN</text></g><g id="e3769" class="Protein" transform="translate(12,52)"  name="CTSD(65-412)" ><rect   width="100" height="20"/><text   transform="translate(50,10)"    >CTSD(65-412)</text></g></g></g><g id="f3737" class="GroupComplex" transform="translate(38,1087)"  ><g class="GroupComplex"><use class="Icon" width="124" height="44" fill="#b4b464" fill-opacity=".1" stroke="grey" href="#Octagon"/><g id="bc2fe" class="Protein" transform="translate(12,12)"  name="ENPEP" ><rect   width="100" height="20"/><text   transform="translate(50,10)"    >ENPEP</text></g></g></g><g id="fafe1" class="GroupNone" transform="translate(41,1450)"  ><g class="GroupNone"><rect   width="118" height="78" fill-opacity=".1" stroke-dasharray="5,3" style="fill:#b4b464;stroke:grey"/><g id="b0809" class="Protein" transform="translate(9,9)"  name="CPA3" ><rect   width="100" height="20"/><text   transform="translate(50,10)"    >CPA3</text></g><g id="e2130" class="Protein" transform="translate(9,29)"  name="CPB1" ><rect   width="100" height="20"/><text   transform="translate(50,10)"    >CPB1</text></g><g id="fdb0b" class="Protein" transform="translate(9,49)"  name="CPB2" ><rect   width="100" height="20"/><text   transform="translate(50,10)"    >CPB2</text></g></g></g></g></g></g></svg>