<?xml version="1.0" encoding="UTF-8"?>
<svg xmlns="http://www.w3.org/2000/svg" id="-svg" class="Diagram"  baseProfile="full" prefix="schema:http://schema.org/" preserveAspectRatio="xMidYMid"  version="1.1"><defs><g id="filter-defs"><filter id="doublefalse1filter" x="-50%" y="-50%" width="200%" height="200%"><feComposite in="SourceGraphic" in2="SourceGraphic" result="doubleDark"/><feMorphology in="doubleDark" operator="dilate" radius="0.5" result="in2Double"/><feMorphology in="SourceGraphic" operator="dilate" radius="1" result="inDouble"/><feComposite in="inDouble" in2="in2Double" operator="out" result="doubleResult"/></filter></g><g id="icon-defs"><symbol id="ArcPathVisio" class=" Icon ArcPathVisio" x="0" y="0" overflow="visible" preserveAspectRatio="none" viewBox="0 0 100 100"><desc>ArcPathVisio</desc><path d="m99.5 50c0 27.34-22.16 49.5-49.5 49.5s-49.5-22.16-49.5-49.5" vector-effect="non-scaling-stroke"/></symbol><symbol id="Ellipse" class=" Icon Ellipse" x="0" y="0" overflow="visible" preserveAspectRatio="none" viewBox="0 0 50 50"><desc>Ellipse</desc><ellipse cx="25" cy="25" rx="25" ry="25" vector-effect="non-scaling-stroke"/></symbol><symbol id="Mitochondria" class=" Icon Mitochondria" x="0" y="0" overflow="visible" preserveAspectRatio="none" viewBox="0 0 100 100"><desc>Mitochondria</desc><ellipse cx="50" cy="50" rx="50" ry="50"/><path d="m14.89 26.35c4.36-0.74 3.83 17.04 8.18 16.18 8.27 0.03 2.98-28.15 9.90-28.34 6.97-0.19 2.25 29.95 9.21 29.44 7.63-0.56 0.51-32.94 8.14-33.62 7.70-0.69 2.92 32.04 10.63 32.23 6.55 0.16 3.03-27.64 9.56-26.92 7.19 0.79 0.66 29.84 7.78 31.67 4.75 1.22 4.42-18.26 9.20-17.44 11.13 7.58 8.63 37.70-2.18 44.65-3.14 0.70-3.97-10.50-7.11-9.91-5.59 1.06-3.98 22.28-9.60 21.80-5.24-0.46-2.23-21.64-7.47-21.73-6.96-0.12-3.36 28.92-10.32 28.50-6.14-0.38-1.73-24.95-7.83-26.19-5.68-1.16-5.38 22.17-11.03 20.68-6.25-1.64-0.47-26.67-6.76-27.87-3.73-0.71-2.65 14.40-6.40 14.54-14.02-5.94-15.75-39.71-3.9-47.67z" vector-effect="non-scaling-stroke"/></symbol></g><g id="marker-defs"><marker id="markerstartarrow000" markerHeight="12" markerWidth="12" orient="auto" preserveAspectRatio="none" refY="6" viewBox="0 0 12 12"><g id="g-markerstartarrow000" transform="rotate(180 6 6)"><g transform="rotate(180 6 6)"><rect y="5.4" width="2" height="1.2" style="stroke:#fff"/><polygon points="12 11 0 6 12 1" stroke-width="0"/></g></g></marker><marker id="markerstarttbar000" markerHeight="20" markerWidth="10" orient="auto" preserveAspectRatio="none" refY="10" viewBox="0 0 10 20"><g id="g-markerstarttbar000" transform="rotate(180 5 10)"><g transform="rotate(180 5 10)"><rect y="9" width="8" height="2" style="stroke:none"/><line x="0" y="0" width="12" height="12" x1="7" x2="7" y2="20" stroke="#000" stroke-width="1.8"/></g></g></marker><marker id="mea" markerHeight="12" markerWidth="12" orient="auto" preserveAspectRatio="none" refX="12" refY="6" viewBox="0 0 12 12"><g id="g-mea" transform=""><g transform="rotate(180 6 6)"><rect y="5.4" width="2" height="1.2" style="stroke:#fff"/><polygon points="12 11 0 6 12 1" stroke-width="0"/></g></g></marker><marker id="markerendtbar000" markerHeight="20" markerWidth="10" orient="auto" preserveAspectRatio="none" refX="10" refY="10" viewBox="0 0 10 20"><g id="g-markerendtbar000" transform=""><g transform="rotate(180 5 10)"><rect y="9" width="8" height="2" style="stroke:none"/><line x="0" y="0" width="12" height="12" x1="7" x2="7" y2="20" stroke="#000" stroke-width="1.8"/></g></g></marker></g></defs><g id="viewport-20220102141242619" class="svg-pan-zoom_viewport" transform="matrix(0.74 0 0 0.74 58.83 9.30e-6)" style="transform:matrix(0.74, 0, 0, 0.74, 58.83, 9.30e-06)"><style>svg.Diagram {font-family: 'Liberation Sans', Arial, sans-serif; }.Diagram path {fill: transparent;stroke: #000;marker-end: url(#mea);}.Diagram symbol path {fill: inherit;stroke: inherit;stroke-width: inherit;marker-end: inherit;}.Diagram rect {fill: #fff;stroke: #000;}.Diagram text {dominant-baseline: central;overflow: hidden;text-anchor: middle;fill: #000;font-size: 10px;}</style><style type="text/css">.Viewport .textContent {
  pointer-events: none;
  stroke-width: 0px;
}

					.Viewport.Icon {
  fill: white;
}

/* Hide the InfoBox */
.Viewport.textContent {
  font-size: 0;
}

.textContent {
  stroke: none;
}

.DataNode {
  stroke-miterlimit: 1;
  pointer-events: auto;
}

.DataNode:hover {
  cursor: pointer;
}

/* TODO should this apply to things other than DataNodes? */
.DataNode.textContent {
  pointer-events: none;
}

.DataNode.Highlighted {
  opacity: 0.6;
  stroke-width: 0px;
}

marker {
  /* this is what should work per the spec
  stroke-dasharray: none; */
  /* but I need to add this to make it work in Safari */
  stroke-dasharray: 9999999999999999999999999;
}

.Citation.Icon {
  fill: none;
  stroke-width: 0px;
}

.Citation.textContent {
  text-align: center;
  vertical-align: top;
  font-size: 7px;
  fill: #999;
  fill-opacity: 1;
  stroke: none;
}</style><g id="WP2817" class="Pathway http___identifiers_org_pw_PW_0000004 Viewport"  name="Name: Mammary gland development pathway - Pregnancy and lactation (Stage 3 of 4) Organism: Homo sapiens" ><g class="Pathway http___identifiers_org_pw_PW_0000004 Viewport"><rect   width="1472.2" height="910" style="stroke:none"/><g id="id102b44ea" class="Edge"  ><path    d="m570.81 299.28 66.19 275.22"/></g><g id="a5ca9" class="Edge"  ><g class="Edge" filter="url(#doublefalse1filter)"><path    d="m1413 100v105.5" style="marker-end:none"/></g></g><g id="id26e3f07f" class="Edge"  ><path    d="m70 390 36-18"/></g><g id="af9d4" class="Edge"  ><g class="Edge" filter="url(#doublefalse1filter)"><path    d="m145 100v780" style="marker-end:none"/></g></g><g id="id27fcd83e" class="Edge"  ><path    d="m718 358.5-47.25-45"/></g><g id="b59e3" class="Edge"  ><path    d="m682 196.5h48.39v54h619.61" stroke-dasharray="5,3"/></g><g id="id2a67e2e7" class="Edge"  ><path    d="m570.81 299.28 66.19 113.22"/></g><g id="c46e9" class="Edge"  ><g class="Edge" filter="url(#doublefalse1filter)"><path    d="m1380 295.5v584.5" style="marker-end:none"/></g></g><g id="id31982909" class="Edge"  ><path    d="m560.5 796.68 2e-13 -16.00"/></g><g id="d12dd" class="Edge"  ><path    d="m682 304.5h48.39v-54h619.61" stroke-dasharray="5,3"/></g><g id="id33c069e1" class="Edge"  ><path    d="m560.5 761.4-2e-13 -18.40"/></g><g id="e701d" class="Edge"  ><g class="Edge" filter="url(#doublefalse1filter)"><path    d="m1380 100v105.5" style="marker-end:none"/></g></g><g id="id35e928e7" class="Edge"  ><path    d="m950.5 70h165"/></g><g id="f303f" class="Edge"  ><g class="Edge" filter="url(#doublefalse1filter)"><path    d="m112 100v780" style="marker-end:none"/></g></g><g id="id36ec3675" class="Edge"  ><path    d="m389.5 259v31.28" style="marker-end:url(#markerendtbar000)"/></g><g id="f67de" class="Edge"  ><path    d="m1300 100v780" stroke-dasharray="5,3" stroke-width="3" style="stroke:#999;marker-end:none"/></g><g id="id373ab15c" class="Edge"  ><path    d="m290.5 196h36" marker-start="url(#markerstarttbar000)" style="marker-end:none"/></g><g id="fde1c" class="Edge"  ><g class="Edge" filter="url(#doublefalse1filter)"><path    d="m1413 295.5v584.5" style="marker-end:none"/></g></g><g id="id402c0c9f" class="Edge"  ><path    d="m538 734h-179.09"/></g><g id="id42e3449f" class="Edge"  ><path    d="m1159.5 520.5h36"/></g><g id="id443bed8b" class="Edge"  ><path    d="m884.01 682.5h35.35"/></g><g id="id46ed6df7" class="Edge"  ><path    d="m70 390 36-54"/></g><g id="id483c3666" class="Edge"  ><path    d="m583 805.68 21.32 0.10"/></g><g id="id4871b79a" class="Edge"  ><path    d="m400.75 241v32.83h296.49v540.85" stroke-dasharray="5,3" style="marker-end:url(#markerendtbar000)"/></g><g id="id4875c071" class="Edge"  ><path    d="m70 299.28h35.80"/></g><g id="id4a7db9be" class="Edge"  ><path    d="m744.23 628.5h27.43" style="marker-end:url(#markerendtbar000)"/></g><g id="id4ae1e4dc" class="Edge"  ><path    d="m708.49 814.68v-20h266.51v-265.18" stroke-dasharray="5,3"/></g><g id="id4e033ea6" class="Edge"  ><path    d="m239 560h-17v-73h515v-20.5h-55" marker-start="url(#markerstartarrow000)" stroke-dasharray="5,3" style="marker-end:none"/></g><g id="id536c44ad" class="Edge"  ><path    d="m389.5 308.28v187.72h439.84v96.5h-12.68" marker-start="url(#markerstartarrow000)" stroke-dasharray="5,3" style="marker-end:none"/></g><g id="id554a64f" class="Edge"  ><path    d="m570.81 299.28 66.19-102.78"/></g><g id="id5556bef" class="Edge"  ><path    d="m744.23 628.5 27.43 36"/></g><g id="id5dd2dbd5" class="Edge"  ><path    d="m659.5 241.5v-36"/></g><g id="id606da185" class="Edge"  ><path    d="m323.32 407.72 66.18-99.44"/></g><g id="id67268274" class="Edge"  ><path    d="m884.01 717.08 35.35 1e-13"/></g><g id="id6c89f269" class="Edge"  ><path    d="m128.5 561v18" style="marker-end:none"/></g><g id="id6d27e9a1" class="Edge"  ><path    d="m682 520.5h265"/></g><g id="id7f895184" class="Edge"  ><path    d="m610 151.5 38.25 36"/></g><g id="id7f8b547b" class="Edge"  ><path    d="m794.16 709.5v30.1" stroke-dasharray="5,3"/></g><g id="id8204c480" class="Edge"  ><path    d="m644.58 841.21 30.16-17.53"/></g><g id="id8299e185" class="Edge"  ><path    d="m816.66 700.5 27.10-18"/></g><g id="id82c7c74e" class="Edge"  ><path    d="m214 350-85.70-41.72"/></g><g id="id835e30db" class="Edge"  ><path    d="m150.8 299.28 36.20-94.28"/></g><g id="id844d31a9" class="Edge"  ><path    d="m1003 520.5h30.5"/></g><g id="id95690b9" class="Edge"  ><path    d="m236.5 359v113.6h612.5v155.9h-32.34" marker-start="url(#markerstarttbar000)" style="marker-end:none"/></g><g id="ida05aa918" class="Edge"  ><path    d="m659.5 349.5v-36"/></g><g id="ida8b13f4c" class="Edge"  ><path    d="m259 350 130.5-41.72"/></g><g id="ida9339e61" class="Edge"  ><path    d="m583 841.68 21.32-0.47"/></g><g id="idaeb7bce4" class="Edge"  ><path    d="m570.81 299.28 66.19 5.22"/></g><g id="idb6f8949d" class="Edge"  ><path    d="m151 444 238.5-135.72"/></g><g id="idb87869df" class="Edge"  ><path    d="m709 151.5-38.25 36"/></g><g id="idba182bdc" class="Edge"  ><path    d="m350.5 70h165"/></g><g id="idba6ee85b" class="Edge"  ><path    d="m863 196.5h-36" style="marker-end:url(#markerendtbar000)"/></g><g id="idbaa29404" class="Edge"  ><path    d="m367.94 824.26 170.06-18.58"/></g><g id="idbc70776e" class="Edge"  ><path    d="m659.5 259.5v36"/></g><g id="idbd2889e5" class="Edge"  ><path    d="m682 412.5h71v67.5h-602" stroke-dasharray="5,3"/></g><g id="idbe9f22d9" class="Edge"  ><path    d="m70 390 36 54"/></g><g id="idc1c97489" class="Edge"  ><path    d="m570.81 299.28 66.19 167.22"/></g><g id="idc5a1f522" class="Edge"  ><path    d="m150.8 299.28h216.2"/></g><g id="idc7926aea" class="Edge"  ><path    d="m313.91 734h-54.91" stroke-dasharray="5,3"/></g><g id="idcb697c4a" class="Edge"  ><path    d="m570.81 299.28 66.19 221.22"/></g><g id="idcc469690" class="Edge"  ><path    d="m816.66 700.5 27.10 16.58"/></g><g id="idcfd03e07" class="Edge"  ><path    d="m744.23 628.5 27.43-36"/></g><g id="idd2d0cc62" class="Edge"  ><path    d="m804.5 187.5v-36" stroke-dasharray="5,3"/></g><g id="idd731e76f" class="Edge"  ><path    d="m47.5 240.87v49.41"/></g><g id="idd89377c7" class="Edge"  ><path    d="m650.5 70h165"/></g><g id="idd91ed4ea" class="Edge"  ><path    d="m1078.5 520.5h36"/></g><g id="iddea8a051" class="Edge"  ><path    d="m70 390 36 18"/></g><g id="ide1e45b28" class="Edge"  ><path    d="m682 628.5h21.98"/></g><g id="ide77f6c2e" class="Edge"  ><path    d="m245.5 196h-36"/></g><g id="ideb748442" class="Edge"  ><path    d="m644.58 805.78 30.16 17.90"/></g><g id="idf4510bc9" class="Edge"  ><path    d="m697.24 832.68v30.04h-307.54" marker-start="url(#markerstartarrow000)" style="marker-end:none"/></g><g id="idf59a5cc0" class="Edge"  ><path    d="m367.94 824.26 170.06 17.42"/></g><g id="idf777f6a5" class="Edge"  ><path    d="m570.81 299.28 66.19 59.22"/></g><g id="idf925ca0c" class="Edge"  ><path    d="m412 299.28h118.55"/></g><g id="a9896" class=" PhysicalEntity CellularComponent Membrane_region" transform="translate(56.5,471)"  ><g class=" PhysicalEntity CellularComponent Membrane_region"><use class=" PhysicalEntity CellularComponent Membrane_region Node Icon" width="45" height="18" fill="#666666" stroke="#666666" href="#Ellipse"/></g></g><g id="a9bc3" class="" transform="translate(1367.8 225.5)"  ><g class=""><use class=" Node Icon" width="4.5" height="4.5" fill="#666666" stroke="#666666" href="#Ellipse"/></g></g><g id="ac969" class=" PhysicalEntity CellularComponent Vesicle" transform="translate(1335,190.5) rotate(90,45,60)"  ><g class=" PhysicalEntity CellularComponent Vesicle"><use class=" PhysicalEntity CellularComponent Vesicle Node Icon" transform="matrix(0.97 0 0 0.98 1.45 1.46)" width="90" height="120" fill="transparent" stroke="#666666" stroke-width="3" href="#ArcPathVisio"/></g></g><g id="b6fe6" class="" transform="translate(515.5,58.75)"  name="Puberty" ><g class=""><rect   width="135" height="22.5" rx="15" ry="15" style="fill:transparent"/></g><g ><defs><clipPath ><rect x="-67.5" y="-11.25" width="135" height="22.5" style="stroke:none"/></clipPath></defs><text   transform="translate(67.5,11.25)"    >Puberty</text></g></g><g id="bbd43" class="" transform="translate(155.25,166)"  ><g class=""><rect   width="225.5" height="60" rx="15" ry="15" style="fill:transparent"/></g></g><g id="bc812" class=" PhysicalEntity CellularComponent Mitochondria" transform="translate(261.83 527.15)"  ><g class=" PhysicalEntity CellularComponent Mitochondria"><use class=" PhysicalEntity CellularComponent Mitochondria Node Icon" transform="matrix(0.97 0 0 0.95 1.45 1.43)" width="89.44" height="62.53" fill="transparent" stroke="#c0c0c0" stroke-width="3" href="#Mitochondria"/></g></g><g id="beb6e" class="" transform="translate(1397.8 229)"  ><g class=""><use class=" Node Icon" width="4.5" height="4.5" fill="#666666" stroke="#666666" href="#Ellipse"/></g></g><g id="c854a" class="" transform="translate(920,490.5)"  ><g class=""><rect   width="347" height="60" rx="15" ry="15" style="fill:transparent"/></g></g><g id="d8008" class="" transform="translate(1427.8 217.75)"  ><g class=""><use class=" Node Icon" width="4.5" height="4.5" fill="#666666" stroke="#666666" href="#Ellipse"/></g></g><g id="dc87b" class="" transform="translate(1260,12)"  name="MAMMARY GLAND DEVELOPMENT PATHWAY" ><g class=""><rect   width="180" height="36" style="fill:transparent;stroke:#f00"/></g><g ><defs><clipPath ><rect x="-90" y="-18" width="180" height="36" style="stroke:none"/></clipPath></defs><text   transform="translate(90,18)"     style="fill:#f00"><tspan   x="0" y="-5.5">MAMMARY GLAND DEVELOPMENT</tspan><tspan   x="0" y="5.5">PATHWAY</tspan></text></g></g><g id="e2e6f" class=" PhysicalEntity CellularComponent Mitochondria" transform="translate(261.5,515)"  ><g class=" PhysicalEntity CellularComponent Mitochondria"><rect   width="90" height="90" rx="15" ry="15" style="fill:#cfc;stroke:#999"/></g></g><g id="e4479" class="" transform="translate(1417.8 277)"  ><g class=""><use class=" Node Icon" width="4.5" height="4.5" fill="#666666" stroke="#666666" href="#Ellipse"/></g></g><g id="e55c5" class="" transform="translate(1357.8 244)"  ><g class=""><use class=" Node Icon" width="4.5" height="4.5" fill="#666666" stroke="#666666" href="#Ellipse"/></g></g><g id="e9cfd" class=" PhysicalEntity CellularComponent Membrane_region" transform="translate(106,471)"  ><g class=" PhysicalEntity CellularComponent Membrane_region"><use class=" PhysicalEntity CellularComponent Membrane_region Node Icon" width="45" height="18" fill="#666666" stroke="#666666" href="#Ellipse"/></g></g><g id="f4839" class="" transform="translate(1387.8 249)"  ><g class=""><use class=" Node Icon" width="4.5" height="4.5" fill="#666666" stroke="#666666" href="#Ellipse"/></g></g><g id="f53ee" class="" transform="translate(1437.8 244.5)"  ><g class=""><use class=" Node Icon" width="4.5" height="4.5" fill="#666666" stroke="#666666" href="#Ellipse"/></g></g><g id="fadbe" class="" transform="translate(1417.8 253)"  ><g class=""><use class=" Node Icon" width="4.5" height="4.5" fill="#666666" stroke="#666666" href="#Ellipse"/></g></g><g id="ff226" class="" transform="translate(1377.8 270)"  ><g class=""><use class=" Node Icon" width="4.5" height="4.5" fill="#666666" stroke="#666666" href="#Ellipse"/></g></g><g id="c713d" class="Label" transform="translate(290.5,316)"  name="+p" ><g class="Label"/><text   transform="translate(22.5,9)"    >+p</text></g><g id="c81a4" class="Label" transform="translate(278.5,614)"  name="Mitochondria" ><g class="Label"/><text   transform="translate(28,9)"    >Mitochondria</text></g><g id="cdc8b" class="Label" transform="translate(1075.5,223.5)"  name="Milk proteins" ><g class="Label"/><text   transform="translate(27.5,9)"    >Milk proteins</text></g><g id="dca10" class="Label" transform="translate(214,725)"  name="Involution" ><g class="Label"/><text   transform="translate(22.5,9)"    >Involution</text></g><g id="dd249" class="Label" transform="translate(357.5,263)"  name="-p" ><g class="Label"/><text   transform="translate(22.5,9)"    >-p</text></g><g id="e03fd" class="Label" transform="translate(160,316)"  name="+p" ><g class="Label"/><text   transform="translate(22.5,9)"    >+p</text></g><g id="e2476" class="Label" transform="translate(859.5,133.5)"  name="Proliferation" ><g class="Label"/><text   transform="translate(26,9)"    >Proliferation</text></g><g id="e44b8" class="Label" transform="translate(228,143.5)"  name="MAPK Signaling" ><g class="Label"/><text   transform="translate(40,9)"    >MAPK Signaling</text></g><g id="f1a14" class="Label" transform="translate(279.5,453)"  name="Gap junction" ><g class="Label"/><text   transform="translate(27,9)"    >Gap junction</text></g><g id="fe7d5" class="Label" transform="translate(774.5,133.5)"  name="Differentiation" ><g class="Label"/><text   transform="translate(30,9)"    >Differentiation</text></g><g id="a0fe6" class="GeneProduct" transform="translate(587.5,133.5)"  name="CEBP" ><rect   width="45" height="18"/><text   transform="translate(22.5,9)"    >CEBP</text></g><g id="a109c" class="GeneProduct " transform="translate(106,579)"  name="ORAI1" ><rect   width="45" height="18"/><text   transform="translate(22.5,9)"    >ORAI1</text></g><g id="a1457" class="GeneProduct " transform="translate(106,363)"  name="ERBB2" ><rect   width="45" height="18"/><text   transform="translate(22.5,9)"    >ERBB2</text></g><g id="a31d9" class="GeneProduct " transform="translate(637,565.5)"  name="CCND1" ><rect   width="45" height="18"/><text   transform="translate(22.5,9)"    >CCND1</text></g><g id="a4810" class="GeneProduct " transform="translate(674.74 814.68)"  name="PGR" ><rect   width="45" height="18"/><text   transform="translate(22.5,9)"    >PGR</text></g><g id="a8005" class="GeneProduct " transform="translate(686.5,133.5)"  name="YY1" ><rect   width="45" height="18"/><text   transform="translate(22.5,9)"    >YY1</text></g><g id="a8ead" class="GeneProduct " transform="translate(25 290.28)"  name="PRL" ><rect   width="45" height="18"/><text   transform="translate(22.5,9)"    >PRL</text></g><g id="a92bc" class="GeneProduct " transform="translate(294.59 407.72)"  name="Galanin" ><rect   width="57.45" height="19.57"/><text   transform="translate(28.72 9.79)"     style="font-size:12px">Galanin</text></g><g id="aac1c" class="GeneProduct" transform="translate(718,349.5)"  name="NFI" ><rect   width="45" height="18"/><text   transform="translate(22.5,9)"    >NFI</text></g><g id="ab308" class="GeneProduct " transform="translate(538,725)"  name="TTC9" ><rect   width="45" height="18"/><text   transform="translate(22.5,9)"    >TTC9</text></g><g id="ab653" class="GeneProduct" transform="translate(1114.5,511.5)"  name="NFKB" ><rect   width="45" height="18"/><text   transform="translate(22.5,9)"    >NFKB</text></g><g id="abbe8" class="Metabolite " transform="translate(304.89 811.76)"  name="Estrogen" ><rect   width="63.05" height="25" style="stroke:#00f"/><text   transform="translate(31.53 12.5)"     style="fill:#00f;font-size:12px">Estrogen</text></g><g id="b0d0f" class="GeneProduct " transform="translate(313.91 725)"  name="TPM3" ><rect   width="45" height="18"/><text   transform="translate(22.5,9)"    >TPM3</text></g><g id="b172f" class="GeneProduct " transform="translate(239,551)"  name="BCL2L1" ><rect   width="45" height="18"/><text   transform="translate(22.5,9)"    >BCL2L1</text></g><g id="b408f" class="GeneProduct " transform="translate(637,511.5)"  name="TNFSF11" ><rect   width="45" height="18"/><text   transform="translate(22.5,9)"    >TNFSF11</text></g><g id="b7503" class="GeneProduct " transform="translate(106,327)"  name="ERBB1" ><rect   width="45" height="18"/><text   transform="translate(22.5,9)"    >ERBB1</text></g><g id="bb362" class="GeneProduct " transform="translate(919.36 673.5)"  name="EIF4E" ><rect   width="45" height="18"/><text   transform="translate(22.5,9)"    >EIF4E</text></g><g id="bed2b" class="GeneProduct " transform="translate(637,619.5)"  name="MYC" ><rect   width="45" height="18"/><text   transform="translate(22.5,9)"    >MYC</text></g><g id="befd9" class="GeneProduct " transform="translate(326.5,187)"  name="PNCK" ><rect   width="45" height="18"/><text   transform="translate(22.5,9)"    >PNCK</text></g><g id="bfea4" class="GeneProduct " transform="translate(367,241)"  name="PTPN1" ><rect   width="45" height="18"/><text   transform="translate(22.5,9)"    >PTPN1</text></g><g id="c2df9" class="GeneProduct " transform="translate(245.5,187)"  name="EGFR" ><rect   width="45" height="18"/><text   transform="translate(22.5,9)"    >EGFR</text></g><g id="c58eb" class="GeneProduct " transform="translate(637,349.5)"  name="ELF5" ><rect   width="45" height="18"/><text   transform="translate(22.5,9)"    >ELF5</text></g><g id="c89ce" class="GeneProduct InterPro_IPR035858" transform="translate(367 290.28)"  name="STAT5" ><rect   width="45" height="18"/><text   transform="translate(22.5,9)"    >STAT5</text></g><g id="c8c19" class="GeneProduct " transform="translate(1033.5,511.5)"  name="IKKA" ><rect   width="45" height="18"/><text   transform="translate(22.5,9)"    >IKKA</text></g><g id="cb2c1" class="GeneProduct " transform="translate(771.66 619.5)"  name="CAV1" ><rect   width="45" height="18"/><text   transform="translate(22.5,9)"    >CAV1</text></g><g id="d13c2" class="GeneProduct" transform="translate(164.5,187)"  name="MAPK" ><rect   width="45" height="18"/><text   transform="translate(22.5,9)"    >MAPK</text></g><g id="d51bf" class="GeneProduct " transform="translate(1195.5,511.5)"  name="CCND1" ><rect   width="45" height="18"/><text   transform="translate(22.5,9)"    >CCND1</text></g><g id="d815f" class="GeneProduct " transform="translate(538 832.68)"  name="ESR2" ><rect   width="45" height="18"/><text   transform="translate(22.5,9)"    >ESR2</text></g><g id="debed" class="GeneProduct " transform="translate(214,341)"  name="JAK2" ><rect   width="45" height="18"/><text   transform="translate(22.5,9)"    >JAK2</text></g><g id="e1256" class="Metabolite " transform="translate(604.32 831.57)"  name="DNA" ><rect   width="40.25" height="19.28"/><text   transform="translate(20.13 9.64)"     style="font-size:12px">DNA</text></g><g id="e1e97" class="GeneProduct " transform="translate(637,403.5)"  name="GJB2" ><rect   width="45" height="18"/><text   transform="translate(22.5,9)"    >GJB2</text></g><g id="e2a53" class="GeneProduct" transform="translate(771.66 655.5)"  name="USF" ><rect   width="45" height="18"/><text   transform="translate(22.5,9)"    >USF</text></g><g id="e48ce" class="GeneProduct InterPro_IPR035858" transform="translate(771.66 583.5)"  name="STAT5" ><rect   width="45" height="18"/><text   transform="translate(22.5,9)"    >STAT5</text></g><g id="e4e2b" class="GeneProduct " transform="translate(106,435)"  name="ERBB4" ><rect   width="45" height="18"/><text   transform="translate(22.5,9)"    >ERBB4</text></g><g id="e6d5c" class="GeneProduct" transform="translate(25,381)"  name="NRG" ><rect   width="45" height="18"/><text   transform="translate(22.5,9)"    >NRG</text></g><g id="e78da" class="GeneProduct " transform="translate(106,399)"  name="ERBB3" ><rect   width="45" height="18"/><text   transform="translate(22.5,9)"    >ERBB3</text></g><g id="e8c90" class="GeneProduct " transform="translate(637,187.5)"  name="CSN2" ><rect   width="45" height="18"/><text   transform="translate(22.5,9)"    >CSN2</text></g><g id="eaa4a" class="GeneProduct " transform="translate(538 796.68)"  name="ESR1" ><rect   width="45" height="18"/><text   transform="translate(22.5,9)"    >ESR1</text></g><g id="ed6e3" class="GeneProduct " transform="translate(771.66 691.5)"  name="USF2" ><rect   width="45" height="18"/><text   transform="translate(22.5,9)"    >USF2</text></g><g id="ee935" class="GeneProduct " transform="translate(782,187.5)"  name="CEBPA" ><rect   width="45" height="18"/><text   transform="translate(22.5,9)"    >CEBPA</text></g><g id="f024c" class="Metabolite " transform="translate(771.66 739.6)"  name="oxytocin" ><rect   width="45" height="18" style="stroke:#00f"/><text   transform="translate(22.5,9)"    font-weight="bold"  style="fill:#00f">oxytocin</text></g><g id="f15f2" class="GeneProduct " transform="translate(637,457.5)"  name="BCL2L1" ><rect   width="45" height="18"/><text   transform="translate(22.5,9)"    >BCL2L1</text></g><g id="f2fd8" class="GeneProduct InterPro_IPR036211" transform="translate(919.36 708.08)"  name="EIF4G" ><rect   width="45" height="18"/><text   transform="translate(22.5,9)"    >EIF4G</text></g><g id="f487b" class="GeneProduct" transform="translate(637,295.5)"  name="WFDC" ><rect   width="45" height="18"/><text   transform="translate(22.5,9)"    >WFDC</text></g><g id="f4e68" class="GeneProduct " transform="translate(863,187.5)"  name="CEBPB" ><rect   width="45" height="18"/><text   transform="translate(22.5,9)"    >CEBPB</text></g><g id="f74d0" class="GeneProduct " transform="translate(106,543)"  name="ATP2C2" ><rect   width="45" height="18"/><text   transform="translate(22.5,9)"    >ATP2C2</text></g><g id="f8a6d" class="GeneProduct " transform="translate(637,241.5)"  name="NR3C1" ><rect   width="45" height="18"/><text   transform="translate(22.5,9)"    >NR3C1</text></g><g id="fed14" class="GeneProduct " transform="translate(947,511.5)"  name="TNFRSF11A" ><rect   width="56" height="18"/><text   transform="translate(28,9)"     style="font-size:8px">TNFRSF11A</text></g><g id="c1ea1" class="Edge"  ><path    d="m468 100v780" stroke-dasharray="5,3" stroke-width="3" style="stroke:#999;marker-end:none"/></g><g id="efd85" class="Edge"  ><path    d="m885.5 187.5v-36" stroke-dasharray="5,3"/></g><g id="f1a6b" class="" transform="translate(1397.8 259)"  ><g class=""><use class=" Node Icon" width="4.5" height="4.5" fill="#666666" stroke="#666666" href="#Ellipse"/></g></g><g id="f0e39" class="" transform="translate(1427.8 269)"  ><g class=""><use class=" Node Icon" width="4.5" height="4.5" fill="#666666" stroke="#666666" href="#Ellipse"/></g></g><g id="f6a36" class="" transform="translate(1387.8 279)"  ><g class=""><use class=" Node Icon" width="4.5" height="4.5" fill="#666666" stroke="#666666" href="#Ellipse"/></g></g><g id="c02a4" class="Label" transform="translate(233.5,367)"  name="+p" ><g class="Label"/><text   transform="translate(22.5,9)"    >+p</text></g><g id="e15e5" class="" transform="translate(815.5,58.75)"  name="Pregnancy and lactation" ><g class=""><rect   width="135" height="22.5" style="fill:transparent;stroke:#f00"/></g><g ><defs><clipPath ><rect x="-67.5" y="-11.25" width="135" height="22.5" style="stroke:none"/></clipPath></defs><text   transform="translate(67.5,11.25)"     style="fill:#f00">Pregnancy and lactation</text></g></g><g id="e0e48" class="" transform="translate(215.5,58.75)"  name="Embryonic development" ><g class=""><rect   width="135" height="22.5" rx="15" ry="15" style="fill:transparent"/></g><g ><defs><clipPath ><rect x="-67.5" y="-11.25" width="135" height="22.5" style="stroke:none"/></clipPath></defs><text   transform="translate(67.5,11.25)"    >Embryonic development</text></g></g><g id="ada20" class="" transform="translate(1115.5,58.75)"  name="Involution" ><g class=""><rect   width="135" height="22.5" rx="15" ry="15" style="fill:transparent"/></g><g ><defs><clipPath ><rect x="-67.5" y="-11.25" width="135" height="22.5" style="stroke:none"/></clipPath></defs><text   transform="translate(67.5,11.25)"    >Involution</text></g></g><g id="d400a" class="GeneProduct " transform="translate(18.78 221.29)"  name="Galanin" ><rect   width="57.45" height="19.57"/><text   transform="translate(28.72 9.79)"     style="font-size:12px">Galanin</text></g><g id="d5c57" class="GeneProduct " transform="translate(105.8 290.28)"  name="PRLR" ><rect   width="45" height="18"/><text   transform="translate(22.5,9)"    >PRLR</text></g><g id="ca35d" class="Metabolite " transform="translate(283.13 850.22)"  name="PROGESTERONE" ><rect   width="106.57" height="25" style="stroke:#00f"/><text   transform="translate(53.28 12.5)"     style="fill:#00f;font-size:12px">PROGESTERONE</text></g><g id="f81f7" class="Metabolite " transform="translate(604.32 796.14)"  name="DNA" ><rect   width="40.25" height="19.28"/><text   transform="translate(20.13 9.64)"     style="font-size:12px">DNA</text></g><g id="c936c" class="Metabolite " transform="translate(540.37 761.4)"  name="DNA" ><rect   width="40.25" height="19.28"/><text   transform="translate(20.13 9.64)"     style="font-size:12px">DNA</text></g><g id="c99fc" class="Metabolite " transform="translate(843.76 707.44)"  name="DNA" ><rect   width="40.25" height="19.28"/><text   transform="translate(20.13 9.64)"     style="font-size:12px">DNA</text></g><g id="ba606" class="Metabolite " transform="translate(843.76 672.86)"  name="DNA" ><rect   width="40.25" height="19.28"/><text   transform="translate(20.13 9.64)"     style="font-size:12px">DNA</text></g><g id="f2f56" class="Metabolite " transform="translate(530.55 289.64)"  name="DNA" ><rect   width="40.25" height="19.28"/><text   transform="translate(20.13 9.64)"     style="font-size:12px">DNA</text></g><g id="aacab" class="Metabolite " transform="translate(703.98 618.86)"  name="DNA" ><rect   width="40.25" height="19.28"/><text   transform="translate(20.13 9.64)"     style="font-size:12px">DNA</text></g></g></g></g></svg>