<?xml version="1.0" encoding="UTF-8"?>
<!--
  WikiPathways page: https://www.wikipathways.org/index.php/Pathway:WP2881
  URL for this compressed file: https://github.com/eweitz/cachome/tree/main/data/WP2881.svg
  Source code for compression: https://github.com/eweitz/cachome/tree/main/src/wikipathways.py
-->
<svg id="wp2881-svg" class="Diagram" width="800" height="600" color="black" baseProfile="full" prefix="schema:http://schema.org/" preserveAspectRatio="xMidYMid" version="1.1" viewBox="0 0 964.94 974.58" vocab="http://vocabularies.wikipathways.org/wp#" xmlns="http://www.w3.org/2000/svg" xmlns:xlink="http://www.w3.org/1999/xlink"><style>svg {font-family: 'Liberation Sans', Arial, sans-serif; }</style><defs><g id="jit-defs"><filter id="kaaviodoublefalse3filter" x="-50%" y="-50%" width="200%" height="200%"><feComposite in="SourceGraphic" in2="SourceGraphic" result="doubleDark"/><feMorphology in="doubleDark" operator="dilate" radius="0.16666666666666666" result="in2Double"/><feMorphology in="SourceGraphic" operator="dilate" radius="3" result="inDouble"/><feComposite in="inDouble" in2="in2Double" operator="out" result="doubleResult"/></filter><filter id="kaavioblackto000000filter" x="0" y="0" width="964.94" height="974.58" filterUnits="userSpaceOnUse"><feColorMatrix in="SourceGraphic" values="-1   0   0 0 0                   0  -1   0 0 0                   0   0  -1 0 0                   0   0   0 1 0"/></filter></g><g id="jic-defs"><marker id="markerEndArrow" stroke-dasharray="99999" markerHeight="12" markerUnits="userSpaceOnUse" markerWidth="12" orient="auto" preserveAspectRatio="none" refX="12" refY="6" viewBox="0 0 12 12"><path transform="rotate(180 6 6)" d="M12 11L0 6l12-5z" fill="currentColor" stroke-width="0"/></marker><marker id="markerEndMimTranscriptionTranslation" stroke-dasharray="99999" markerHeight="24" markerUnits="userSpaceOnUse" markerWidth="20" orient="auto" preserveAspectRatio="none" refX="20" refY="12" viewBox="0 0 20 24"><g transform="rotate(180 10 12)" fill="none" stroke="#000"><path d="M15 12V5M15.5 5H8M0 5l8-4v8z"/></g></marker><symbol id="Ellipse" overflow="visible" preserveAspectRatio="none" viewBox="0 0 50 50"><ellipse cx="25" cy="25" rx="25" ry="25" stroke="currentColor" vector-effect="non-scaling-stroke"/></symbol><symbol id="Octagon" overflow="visible" preserveAspectRatio="none" viewBox="0 0 100 100"><path d="M0 25L25 0h50l25 25v50l-25 25H25L0 75z" stroke="currentColor" vector-effect="non-scaling-stroke"/></symbol><symbol id="none" preserveAspectRatio="none" viewBox="0 0 100 100"/></g></defs><g id="WP2881" class="Viewport" color="black"  name="Name: Estrogen receptor pathway Organism: Homo sapiens"><rect id="WP2881-icon" class="Icon" width="964.94" height="974.58" fill="#fff" stroke="#000" stroke-width="0"/><g id="pvjsgeneratedidff686" class="Edge GraphicalLine" color="#000" ><g color="#000" fill="transparent"  filter="url(#kaavioblackto000000filter)" stroke="#000" stroke-dasharray="179.77819356797482, 11"><path id="pvjsgeneratedidff686" class="EdgeBody" d="m429.47 705.3 190.78 0.054429"   marker-end="url(#markerEndMimTranscriptionTranslation)" /></g></g><g id="acd09" class="Label" transform="translate(653.78 794.36)" color="#000"  name="Cell proliferation  and apoptosis"><use id="acd09-icon" class="Icon" width="80" height="20" fill="transparent"  stroke="#000" stroke-width="0" xlink:href="#none"/><text id="acd09-text" class="Text" transform="translate(40,13)" fill="#000"  font-size="10px" stroke="white" stroke-width="0" text-anchor="middle"><tspan x="0" y="-5.5">Cell proliferation </tspan> <tspan x="0" y="5.5">and apoptosis</tspan></text></g><g id="c31b5" class="Label" transform="translate(322.12 764.26)" color="#000"  name="Drug and steroid  metabolism"><use id="c31b5-icon" class="Icon" width="80" height="20" fill="transparent"  stroke="#000" stroke-width="0" xlink:href="#none"/><text id="c31b5-text" class="Text" transform="translate(40,13)" fill="#000"  font-size="10px" stroke="white" stroke-width="0" text-anchor="middle"><tspan x="0" y="-5.5">Drug and steroid </tspan> <tspan x="0" y="5.5">metabolism</tspan></text></g><g id="c85c1" class="Label" transform="translate(552.89 782.21)" color="#000"  name="Transcription  factors"><use id="c85c1-icon" class="Icon" width="80" height="20" fill="transparent"  stroke="#000" stroke-width="0" xlink:href="#none"/><text id="c85c1-text" class="Text" transform="translate(40,13)" fill="#000"  font-size="10px" stroke="white" stroke-width="0" text-anchor="middle"><tspan x="0" y="-5.5">Transcription </tspan> <tspan x="0" y="5.5">factors</tspan></text></g><g id="f752e" class="Label" transform="translate(439.28 760.09)" color="#000"  name="Metabolism"><use id="f752e-icon" class="Icon" width="80" height="20" fill="transparent"  stroke="#000" stroke-width="0" xlink:href="#none"/><text id="f752e-text" class="Text" transform="translate(40,13)" fill="#000"  font-size="10px" stroke="white" stroke-width="0" text-anchor="middle"><tspan x="0" y="0">Metabolism</tspan></text></g><a id="c6ac8" class="ChEBI_CHEBI_4903 Metabolite  " transform="translate(359.28 70.854)" color="#00f"  name="Estrogen"  ><rect id="c6ac8-icon" class="Icon" transform="matrix(.98765 0 0 .95238 .49383 .47619)" width="80" height="20" fill="#fff" stroke="#00f"/><text id="c6ac8-text" class="Text" transform="translate(40,13)" fill="#00f"  font-size="10px" stroke="white" stroke-width="0" text-anchor="middle"><tspan x="0" y="0">Estrogen</tspan></text></a><g id="c16f5" class="GroupComplex" transform="translate(421.51 334.22)" color="grey" ><use id="c16f5-icon" class="Icon" transform="matrix(.99048 0 0 .98462 .49524 .49231)" width="104.00000000000006" height="63.99999999999977" fill="#b4b464" fill-opacity=".1" stroke="grey" xlink:href="#Octagon"/><a id="fedd0" class="ChEBI_CHEBI_48705 Metabolite  " transform="translate(12 32)" color="#00f"  name="Ligand"  ><rect id="fedd0-icon" class="Icon" transform="matrix(.98765 0 0 .95238 .49383 .47619)" width="80" height="20" fill="#fff" stroke="#00f"/><text id="fedd0-text" class="Text" transform="translate(40,13)" fill="#00f"  font-size="10px" stroke="white" stroke-width="0" text-anchor="middle"><tspan x="0" y="0">Ligand</tspan></text></a><a  id="e9b9d" class="GeneProduct ESR1 " transform="translate(12,12)"   name="ESR1"  ><rect id="e9b9d-icon" class="Icon" transform="matrix(.98765 0 0 .95238 .49383 .47619)" width="80" height="20" fill="#fff" stroke="#000"/><text id="e9b9d-text" class="Text" transform="translate(40 13)" fill="#000"  font-size="10px" stroke="white" stroke-width="0" text-anchor="middle"><tspan x="0" y="0">ESR1</tspan></text></a></g><g id="cd413" class="DirectedInteraction" color="#000" ><g color="#000" fill="transparent"  filter="url(#kaavioblackto000000filter)" stroke="#000" stroke-dasharray="53.31899690806714, 5.8"><path id="cd413" class="EdgeBody" d="m334.42 396.86 41.387 42.216"   marker-end="url(#markerEndArrow)" /></g></g><g id="d54da" class="DirectedInteraction" color="#000" ><g color="#000" fill="transparent"  filter="url(#kaavioblackto000000filter)" stroke="#000" stroke-dasharray="55.50751010921669, 5.8"><path id="d54da" class="EdgeBody" d="m473.51 398.22-45.712 40.854"   marker-end="url(#markerEndArrow)" /></g></g><g id="c36f2" class="DirectedInteraction" color="#000" ><g color="#000" fill="transparent"  filter="url(#kaavioblackto000000filter)" stroke="#000" stroke-dasharray="116.43561559172765, 5.8"><path id="c36f2" class="EdgeBody" d="m324.25 211.04 10.167 121.81"   marker-end="url(#markerEndArrow)" /></g></g><g id="d565b" class="DirectedInteraction" color="#000" ><g color="#000" fill="transparent"  filter="url(#kaavioblackto000000filter)" stroke="#000" stroke-dasharray="113.33531395632498, 5.8"><path id="d565b" class="EdgeBody" d="m478.45 215.19-4.9321 119.03"   marker-end="url(#markerEndArrow)" /></g></g><g id="bfb74" class="DirectedInteraction" color="#000" ><g color="#000" fill="transparent"  filter="url(#kaavioblackto000000filter)" stroke="#000" stroke-dasharray="56.577570932185374, 5.8"><path id="bfb74" class="EdgeBody" d="m401.8 543.07 2.9316 62.309"   marker-end="url(#markerEndArrow)" /></g></g><g id="c5029" class="DirectedInteraction" color="#000" ><g color="#000" fill="transparent"  filter="url(#kaavioblackto000000filter)" stroke="#000" stroke-dasharray="125.16674195975274, 5.8"><path id="c5029" class="EdgeBody" d="m399.28 90.854 79.166 104.33"   marker-end="url(#markerEndArrow)" /></g></g><g id="e0027" class="DirectedInteraction" color="#000" ><g color="#000" fill="transparent"  filter="url(#kaavioblackto000000filter)" stroke="#000" stroke-dasharray="119.37083205511902, 5.8"><path id="e0027" class="EdgeBody" d="m399.28 90.854-75.031 100.19"   marker-end="url(#markerEndArrow)" /></g></g><g id="a8a05" class="SingleFreeNode Shape PhysicalEntity CellularComponent Cell" transform="translate(75.608 134.64)" color="#c0c0c0" ><g fill="transparent"  filter="url(#kaaviodoublefalse3filter)" stroke="#c0c0c0" stroke-width="3"><rect id="a8a05-icon" class="Icon" transform="matrix(.98625 0 0 .98543 5.9175 5.9126)" width="860.83" height="811.44" rx="15" ry="15"   /></g></g><g id="c80f7" class="GroupGroup" transform="translate(481.7 624.14)" color="grey" ><use id="c80f7-icon" class="Icon" width="96.22652277145278" height="78.40477968633343" fill="transparent"  stroke="grey" stroke-dasharray="5,3" stroke-width="0" xlink:href="#none"/><a  id="fe581" class="GeneProduct SP1 " transform="translate(8 50.405)"   name="SP1"  ><rect id="fe581-icon" class="Icon" transform="matrix(.98765 0 0 .95238 .49383 .47619)" width="80" height="20" fill="#fff" stroke="#000"/><text id="fe581-text" class="Text" transform="translate(40,13)" fill="#000"  font-size="10px" stroke="white" stroke-width="0" text-anchor="middle"><tspan x="0" y="0">SP1</tspan></text></a><a  id="ff685" class="GeneProduct JUN " transform="translate(8 30.405)"   name="JUN"  ><rect id="ff685-icon" class="Icon" transform="matrix(.98765 0 0 .95238 .49383 .47619)" width="80" height="20" fill="#fff" stroke="#000"/><text id="ff685-text" class="Text" transform="translate(40,13)" fill="#000"  font-size="10px" stroke="white" stroke-width="0" text-anchor="middle"><tspan x="0" y="0">JUN</tspan></text></a><g id="a1e23" class="Label" transform="translate(9.063 8)" color="#000"  name="Coregulators"><use id="a1e23-icon" class="Icon" width="79.16355489171035" height="22.40477968633298" fill="transparent"  stroke="#000" stroke-width="0" xlink:href="#none"/><text id="a1e23-text" class="Text" transform="translate(39.582 14.202)" fill="#000"  font-size="10px" stroke="white" stroke-width="0" text-anchor="middle"><tspan x="0" y="0">Coregulators</tspan></text></g></g><a  id="a4f32" class="GeneProduct ESR1 " transform="translate(284.25 191.04)"   name="ESR1"  ><rect id="a4f32-icon" class="Icon" transform="matrix(.98765 0 0 .95238 .49383 .47619)" width="80" height="20" fill="#fff" stroke="#000"/><text id="a4f32-text" class="Text" transform="translate(40,13)" fill="#000"  font-size="10px" stroke="white" stroke-width="0" text-anchor="middle"><tspan x="0" y="0">ESR1</tspan></text></a><g id="e2998" class="SingleFreeNode Shape PhysicalEntity CellularComponent Nucleus" transform="translate(97.328 259.19)" color="#c0c0c0" ><g fill="transparent"  filter="url(#kaaviodoublefalse3filter)" stroke="#c0c0c0" stroke-width="3"><use id="e2998-icon" class="Icon" transform="matrix(.98527 0 0 .98208 5.9116 5.8925)" width="802.6575342465756" height="657.4633434936404"    xlink:href="#Ellipse"/></g></g><g id="fd058" class="GroupComplex" transform="translate(349.8 439.07)" color="grey" ><use id="fd058-icon" class="Icon" transform="matrix(.99048 0 0 .99048 .49524 .49524)" width="104.00000000000091" height="103.99999999999937" fill="#b4b464" fill-opacity=".1" stroke="grey" xlink:href="#Octagon"/><a  id="a7482" class="GeneProduct ESR1 " transform="translate(12 32)"   name="ESR1"  ><rect id="a7482-icon" class="Icon" transform="matrix(.98765 0 0 .95238 .49383 .47619)" width="80" height="20" fill="#fff" stroke="#000"/><text id="a7482-text" class="Text" transform="translate(40,13)" fill="#000"  font-size="10px" stroke="white" stroke-width="0" text-anchor="middle"><tspan x="0" y="0">ESR1</tspan></text></a><a  id="f115e" class="GeneProduct ESR1 " transform="translate(12 52)"   name="ESR1"  ><rect id="f115e-icon" class="Icon" transform="matrix(.98765 0 0 .95238 .49383 .47619)" width="80" height="20" fill="#fff" stroke="#000"/><text id="f115e-text" class="Text" transform="translate(40 13)" fill="#000"  font-size="10px" stroke="white" stroke-width="0" text-anchor="middle"><tspan x="0" y="0">ESR1</tspan></text></a><a id="e8526" class="ChEBI_CHEBI_48705 Metabolite  " transform="translate(12 72)" color="#00f"  name="Ligand"  ><rect id="e8526-icon" class="Icon" transform="matrix(.98765 0 0 .95238 .49383 .47619)" width="80" height="20" fill="#fff" stroke="#00f"/><text id="e8526-text" class="Text" transform="translate(40 13)" fill="#00f"  font-size="10px" stroke="white" stroke-width="0" text-anchor="middle"><tspan x="0" y="0">Ligand</tspan></text></a><a id="e1cf3" class="ChEBI_CHEBI_48705 Metabolite  " transform="translate(12 12)" color="#00f"  name="Ligand"  ><rect id="e1cf3-icon" class="Icon" transform="matrix(.98765 0 0 .95238 .49383 .47619)" width="80" height="20" fill="#fff" stroke="#00f"/><text id="e1cf3-text" class="Text" transform="translate(40 13)" fill="#00f"  font-size="10px" stroke="white" stroke-width="0" text-anchor="middle"><tspan x="0" y="0">Ligand</tspan></text></a></g><g id="c8e89" class="GroupComplex" transform="translate(352.73 605.38)" color="grey" ><use id="c8e89-icon" class="Icon" transform="matrix(.99048 0 0 .99172 .49524 .49586)" width="104.00000000000131" height="119.83113456464434" fill="#b4b464" fill-opacity=".1" stroke="grey" xlink:href="#Octagon"/><g id="bc7fc" class="Label" transform="translate(27.267 92)" color="#000"  name="ERE"><rect id="bc7fc-icon" class="Icon" transform="matrix(.98018 0 0 .94059 .49009 .47029)" width="49.466" height="15.831" fill="#fff" stroke="#000"/><text id="bc7fc-text" class="Text" transform="translate(24.733 10.916)" fill="#000"  font-size="10px" stroke="white" stroke-width="0" text-anchor="middle"><tspan x="0" y="0">ERE</tspan></text></g><a  id="cdcbb" class="GeneProduct ESR1 " transform="translate(12 32)"   name="ESR1"  ><rect id="cdcbb-icon" class="Icon" transform="matrix(.98765 0 0 .95238 .49383 .47619)" width="80" height="20" fill="#fff" stroke="#000"/><text id="cdcbb-text" class="Text" transform="translate(40,13)" fill="#000"  font-size="10px" stroke="white" stroke-width="0" text-anchor="middle"><tspan x="0" y="0">ESR1</tspan></text></a><a  id="ff625" class="GeneProduct ESR1 " transform="translate(12 52)"   name="ESR1"  ><rect id="ff625-icon" class="Icon" transform="matrix(.98765 0 0 .95238 .49383 .47619)" width="80" height="20" fill="#fff" stroke="#000"/><text id="ff625-text" class="Text" transform="translate(40,13)" fill="#000"  font-size="10px" stroke="white" stroke-width="0" text-anchor="middle"><tspan x="0" y="0">ESR1</tspan></text></a><g id="e46c1" class="Label" transform="translate(12,12)" color="#000"  name="Ligand"><rect id="e46c1-icon" class="Icon" transform="matrix(.98765 0 0 .95238 .49383 .47619)" width="80" height="20" fill="#fff" stroke="#000"/><text id="e46c1-text" class="Text" transform="translate(40 13)" fill="#000"  font-size="10px" stroke="white" stroke-width="0" text-anchor="middle"><tspan x="0" y="0">Ligand</tspan></text></g><g id="c66da" class="Label" transform="translate(12,72)" color="#000"  name="Ligand"><rect id="c66da-icon" class="Icon" transform="matrix(.98765 0 0 .95238 .49383 .47619)" width="80" height="20" fill="#fff" stroke="#000"/><text id="c66da-text" class="Text" transform="translate(40 13)" fill="#000"  font-size="10px" stroke="white" stroke-width="0" text-anchor="middle"><tspan x="0" y="0">Ligand</tspan></text></g></g><g id="c8f5d" class="GroupComplex" transform="translate(282.42 332.86)" color="grey" ><use id="c8f5d-icon" class="Icon" transform="matrix(.99048 0 0 .98462 .49524 .49231)" width="104.00000000000233" height="63.99999999999966" fill="#b4b464" fill-opacity=".1" stroke="grey" xlink:href="#Octagon"/><a  id="d2b19" class="GeneProduct ESR1 " transform="translate(12,12)"   name="ESR1"  ><rect id="d2b19-icon" class="Icon" transform="matrix(.98765 0 0 .95238 .49383 .47619)" width="80" height="20" fill="#fff" stroke="#000"/><text id="d2b19-text" class="Text" transform="translate(40,13)" fill="#000"  font-size="10px" stroke="white" stroke-width="0" text-anchor="middle"><tspan x="0" y="0">ESR1</tspan></text></a><a id="b2d14" class="ChEBI_CHEBI_48705 Metabolite  " transform="translate(12 32)" color="#00f"  name="Ligand"  ><rect id="b2d14-icon" class="Icon" transform="matrix(.98765 0 0 .95238 .49383 .47619)" width="80" height="20" fill="#fff" stroke="#00f"/><text id="b2d14-text" class="Text" transform="translate(40 13)" fill="#00f"  font-size="10px" stroke="white" stroke-width="0" text-anchor="middle"><tspan x="0" y="0">Ligand</tspan></text></a></g><a  id="c28d0" class="GeneProduct ESR1 " transform="translate(438.45 195.19)"   name="ESR1"  ><rect id="c28d0-icon" class="Icon" transform="matrix(.98765 0 0 .95238 .49383 .47619)" width="80" height="20" fill="#fff" stroke="#000"/><text id="c28d0-text" class="Text" transform="translate(40,13)" fill="#000"  font-size="10px" stroke="white" stroke-width="0" text-anchor="middle"><tspan x="0" y="0">ESR1</tspan></text></a><g id="d9613" class="GroupGroup" transform="translate(434.13 781.26)" color="grey" ><use id="d9613-icon" class="Icon" width="95.99999999999994" height="95.99999999999977" fill="transparent"  stroke="grey" stroke-dasharray="5,3" stroke-width="0" xlink:href="#none"/><a  id="d1c83" class="GeneProduct PDK4 " transform="translate(8 68)"   name="PDK4"  ><rect id="d1c83-icon" class="Icon" transform="matrix(.98765 0 0 .95238 .49383 .47619)" width="80" height="20" fill="#fff" stroke="#000"/><text id="d1c83-text" class="Text" transform="translate(40,13)" fill="#000"  font-size="10px" stroke="white" stroke-width="0" text-anchor="middle"><tspan x="0" y="0">PDK4</tspan></text></a><a  id="fb0ee" class="GeneProduct ACOX1 " transform="translate(8,8)"   name="ACOX1"  ><rect id="fb0ee-icon" class="Icon" transform="matrix(.98765 0 0 .95238 .49383 .47619)" width="80" height="20" fill="#fff" stroke="#000"/><text id="fb0ee-text" class="Text" transform="translate(40,13)" fill="#000"  font-size="10px" stroke="white" stroke-width="0" text-anchor="middle"><tspan x="0" y="0">ACOX1</tspan></text></a><a  id="a488b" class="GeneProduct GPAM " transform="translate(8 28)"   name="GPAM"  ><rect id="a488b-icon" class="Icon" transform="matrix(.98765 0 0 .95238 .49383 .47619)" width="80" height="20" fill="#fff" stroke="#000"/><text id="a488b-text" class="Text" transform="translate(40,13)" fill="#000"  font-size="10px" stroke="white" stroke-width="0" text-anchor="middle"><tspan x="0" y="0">GPAM</tspan></text></a><a  id="d6471" class="GeneProduct PCK1 " transform="translate(8,48)"   name="PCK1"  ><rect id="d6471-icon" class="Icon" transform="matrix(.98765 0 0 .95238 .49383 .47619)" width="80" height="20" fill="#fff" stroke="#000"/><text id="d6471-text" class="Text" transform="translate(40,13)" fill="#000"  font-size="10px" stroke="white" stroke-width="0" text-anchor="middle"><tspan x="0" y="0">PCK1</tspan></text></a></g><g id="f5eac" class="GroupGroup" transform="translate(648.59 810.54)" color="grey" ><use id="f5eac-icon" class="Icon" width="96" height="36" fill="transparent"  stroke="grey" stroke-dasharray="5,3" stroke-width="0" xlink:href="#none"/><a  id="a7be3" class="GeneProduct STAT3 " transform="translate(8,8)"   name="STAT3"  ><rect id="a7be3-icon" class="Icon" transform="matrix(.98765 0 0 .95238 .49383 .47619)" width="80" height="20" fill="#fff" stroke="#000"/><text id="a7be3-text" class="Text" transform="translate(40,13)" fill="#000"  font-size="10px" stroke="white" stroke-width="0" text-anchor="middle"><tspan x="0" y="0">STAT3</tspan></text></a></g><g id="d5d6e" class="GroupGroup" transform="translate(316.46 789.88)" color="grey" ><use id="d5d6e-icon" class="Icon" width="96" height="75.99999999999966" fill="transparent"  stroke="grey" stroke-dasharray="5,3" stroke-width="0" xlink:href="#none"/><a  id="c3842" class="GeneProduct CYP1A1 " transform="translate(8,8)"   name="CYP1A1"  ><rect id="c3842-icon" class="Icon" transform="matrix(.98765 0 0 .95238 .49383 .47619)" width="80" height="20" fill="#fff" stroke="#000"/><text id="c3842-text" class="Text" transform="translate(40,13)" fill="#000"  font-size="10px" stroke="white" stroke-width="0" text-anchor="middle"><tspan x="0" y="0">CYP1A1</tspan></text></a><a  id="ba52c" class="GeneProduct CYP1A2 " transform="translate(8 28)"   name="CYP1A2"  ><rect id="ba52c-icon" class="Icon" transform="matrix(.98765 0 0 .95238 .49383 .47619)" width="80" height="20" fill="#fff" stroke="#000"/><text id="ba52c-text" class="Text" transform="translate(40,13)" fill="#000"  font-size="10px" stroke="white" stroke-width="0" text-anchor="middle"><tspan x="0" y="0">CYP1A2</tspan></text></a><a  id="f238c" class="GeneProduct CYP1B1 " transform="translate(8 48)"   name="CYP1B1"  ><rect id="f238c-icon" class="Icon" transform="matrix(.98765 0 0 .95238 .49383 .47619)" width="80" height="20" fill="#fff" stroke="#000"/><text id="f238c-text" class="Text" transform="translate(40,13)" fill="#000"  font-size="10px" stroke="white" stroke-width="0" text-anchor="middle"><tspan x="0" y="0">CYP1B1</tspan></text></a></g><g id="ca2ff" class="GroupGroup" transform="translate(547.7 799.36)" color="grey" ><use id="ca2ff-icon" class="Icon" width="96" height="56.00000000000023" fill="transparent"  stroke="grey" stroke-dasharray="5,3" stroke-width="0" xlink:href="#none"/><a  id="ccfdf" class="GeneProduct PPARA " transform="translate(8 28)"   name="PPARA"  ><rect id="ccfdf-icon" class="Icon" transform="matrix(.98765 0 0 .95238 .49383 .47619)" width="80" height="20" fill="#fff" stroke="#000"/><text id="ccfdf-text" class="Text" transform="translate(40,13)" fill="#000"  font-size="10px" stroke="white" stroke-width="0" text-anchor="middle"><tspan x="0" y="0">PPARA</tspan></text></a><a  id="c8278" class="GeneProduct NR0B2 " transform="translate(8,8)"   name="NR0B2"  ><rect id="c8278-icon" class="Icon" transform="matrix(.98765 0 0 .95238 .49383 .47619)" width="80" height="20" fill="#fff" stroke="#000"/><text id="c8278-text" class="Text" transform="translate(40,13)" fill="#000"  font-size="10px" stroke="white" stroke-width="0" text-anchor="middle"><tspan x="0" y="0">NR0B2</tspan></text></a></g><text id="WP2881-text" class="Text" transform="translate(5,27)" dominant-baseline="central" fill="black"  font-size="12px" font-weight="bold" overflow="visible" stroke="white" stroke-width="0"><tspan x="0" y="-9">Name: Estrogen receptor pathway</tspan> <tspan x="0" y="9">Organism: Homo sapiens</tspan></text></g></svg>
