<?xml version="1.0" encoding="UTF-8"?>
<svg xmlns="http://www.w3.org/2000/svg" id="-svg" class="Diagram"  baseProfile="full" prefix="schema:http://schema.org/" preserveAspectRatio="xMidYMid"  version="1.1"><defs><g id="filter-defs"><filter id="doublefalse3filter" x="-50%" y="-50%" width="200%" height="200%"><feComposite in="SourceGraphic" in2="SourceGraphic" result="doubleDark"/><feMorphology in="doubleDark" operator="dilate" radius="0.17" result="in2Double"/><feMorphology in="SourceGraphic" operator="dilate" radius="3" result="inDouble"/><feComposite in="inDouble" in2="in2Double" operator="out" result="doubleResult"/></filter></g><g id="icon-defs"><symbol id="Brace" class=" Icon Brace" x="0" y="0" overflow="visible" preserveAspectRatio="none" viewBox="0 0 100 100"><desc>Brace</desc><path d="m1.5 49.5c0-16.17 8.17-24.25 24.5-24.25s24.5-8.08 24.5-24.25c0 16.17 8.17 24.25 24.5 24.25s24.5 8.08 24.5 24.25" vector-effect="non-scaling-stroke"/></symbol><symbol id="Ellipse" class=" Icon Ellipse" x="0" y="0" overflow="visible" preserveAspectRatio="none" viewBox="0 0 50 50"><desc>Ellipse</desc><ellipse cx="25" cy="25" rx="25" ry="25" vector-effect="non-scaling-stroke"/></symbol></g><g id="marker-defs"><marker id="memstimulation000" markerHeight="12" markerWidth="12" orient="auto" preserveAspectRatio="none" refX="12" refY="6" viewBox="0 0 12 12"><g id="g-memstimulation000" transform=""><g transform="rotate(180 6 6)"><rect y="5.4" width="2" height="1.2" style="stroke:none"/><line x1="12" x2="12" y1="6" y2="6" fill="none"/><polygon points="0 6 11 11 11 1" fill="#fff" stroke="#000"/></g></g></marker><marker id="mea" markerHeight="12" markerWidth="12" orient="auto" preserveAspectRatio="none" refX="12" refY="6" viewBox="0 0 12 12"><g id="g-mea" transform=""><g transform="rotate(180 6 6)"><rect y="5.4" width="2" height="1.2" style="stroke:#fff"/><polygon points="12 11 0 6 12 1" stroke-width="0"/></g></g></marker></g></defs><g id="viewport-20220102141219945" class="svg-pan-zoom_viewport" transform="matrix(0.45 0 0 0.45 272.64 9.30e-6)" style="transform:matrix(0.45, 0, 0, 0.45, 272.63, 9.30e-06)"><style>svg.Diagram {font-family: 'Liberation Sans', Arial, sans-serif; }.Diagram path {fill: transparent;stroke: #000;marker-end: url(#mea);}.Diagram symbol path {fill: inherit;stroke: inherit;stroke-width: inherit;marker-end: inherit;}.Diagram rect {fill: #fff;stroke: #000;}.Diagram text {dominant-baseline: central;overflow: hidden;text-anchor: middle;fill: #000;font-size: 10px;}</style><style type="text/css">.Viewport .textContent {
  pointer-events: none;
  stroke-width: 0px;
}

					.Viewport.Icon {
  fill: white;
}

/* Hide the InfoBox */
.Viewport.textContent {
  font-size: 0;
}

.textContent {
  stroke: none;
}

.DataNode {
  stroke-miterlimit: 1;
  pointer-events: auto;
}

.DataNode:hover {
  cursor: pointer;
}

/* TODO should this apply to things other than DataNodes? */
.DataNode.textContent {
  pointer-events: none;
}

.DataNode.Highlighted {
  opacity: 0.6;
  stroke-width: 0px;
}

marker {
  /* this is what should work per the spec
  stroke-dasharray: none; */
  /* but I need to add this to make it work in Safari */
  stroke-dasharray: 9999999999999999999999999;
}

.Citation.Icon {
  fill: none;
  stroke-width: 0px;
}

.Citation.textContent {
  text-align: center;
  vertical-align: top;
  font-size: 7px;
  fill: #999;
  fill-opacity: 1;
  stroke: none;
}</style><g id="WP28" class="Pathway http___identifiers_org_pw_PW_0000133 Viewport"  name="Name: Selenium metabolism and selenoproteins License: CC BY 2.0 Last Modified: 10/16/2013 Organism: Homo sapiens" ><g class="Pathway http___identifiers_org_pw_PW_0000133 Viewport"><rect   width="1441" height="1472.4" style="stroke:none"/><g id="db3b5" class="Edge"  ><path    d="m83.31 282.77h1040" style="marker-end:none"/></g><g id="a7c7b" class="Edge"  ><path    d="m36.64 1141.4h723.33" style="marker-end:none"/><g id="d939b" class="AB" transform="translate(76 1141.4)"  ><g class="AB"/></g><g id="cea96" class="AB" transform="translate(177 1141.4)"  ><g class="AB"/></g><g id="ca97a" class="AB" transform="translate(286 1141.4)"  ><g class="AB"/></g><g id="be09f" class="AB" transform="translate(726 1141.4)"  ><g class="AB"/></g><g id="b6bc9" class="AB" transform="translate(609 1141.4)"  ><g class="AB"/></g><g id="c226d" class="AB" transform="translate(504 1141.4)"  ><g class="AB"/></g><g id="c117a" class="AB" transform="translate(401 1141.4)"  ><g class="AB"/></g></g><g id="a6f4f" class="Edge"  ><path    d="m76 1141.4 0.64 31.33" style="marker-end:none"/></g><g id="b02f4" class="Edge"  ><path    d="m824.81 691.1h117.17"/><g id="f3157" class="AB" transform="translate(871.68 691.1)"  ><g class="AB"/></g></g><g id="b3dd5" class="Edge"  ><path    d="m273.14 691.1 123.17 1e-13"/><g id="f4604" class="AB" transform="translate(322.41 691.1)"  ><g class="AB"/></g></g><g id="b72f5" class="Edge"  ><path    d="m591.25 455v-97"/></g><g id="bbb5e" class="Edge"  ><path    d="m307 348.1 199.5-0.10"/><g id="f94bd" class="AB" transform="translate(386.8 348.06)"  ><g class="AB"/></g></g><g id="c46af" class="Edge"  ><path    d="m514.14 966.1h6.86v-66.64h-77.71" style="marker-end:none"/></g><g id="c479d" class="Edge"  ><path    d="m401 1141.4 0.31 31.33" style="marker-end:none"/></g><g id="c4805" class="Edge"  ><path    d="m609 1141.4 0.98 34.67" style="marker-end:none"/></g><g id="c81b0" class="Edge"  ><path    d="m726 1141.4 0.64 34.67" style="marker-end:none"/></g><g id="d0793" class="Edge"  ><path    d="m521.64 691.1h128.83"/><g id="f16d0" class="AB" transform="translate(573.18 691.1)"  ><g class="AB"/></g></g><g id="d175a" class="Edge"  ><path    d="m619.5 598h253.48v47.44" style="marker-end:none"/></g><g id="d2069" class="Edge"  ><path    d="m506.5 465-202.5 0.10"/></g><g id="d575d" class="Edge"  ><path    d="m563 475v113"/><g id="de4c0" class="AB" transform="translate(563,520.2)"  ><g class="AB"/></g></g><g id="d9670" class="Edge"  ><path    d="m872.98 665.44-1.3 25.67" style="marker-end:url(#memstimulation000)"/></g><g id="dfa43" class="Edge"  ><path    d="m534.75 358v97"/></g><g id="e309e" class="Edge"  ><path    d="m403.31 989.44 0.67 64.33"/></g><g id="e6611" class="Edge"  ><path    d="m259.14 966.1h-174.17v-327" style="marker-end:none"/></g><g id="e6850" class="Edge"  ><path    d="m177 1141.4-1 29.57" style="marker-end:none"/></g><g id="e9141" class="Edge"  ><path    d="m573.31 672.77-0.13 18.33" style="marker-end:url(#memstimulation000)"/></g><g id="e9632" class="Edge"  ><path    d="m249.31 306.1 25.42 32"/></g><g id="f78fe" class="Edge"  ><path    d="m84.98 619.1v-205.14h160.67" style="marker-end:none"/></g><g id="f93d6" class="Edge"  ><path    d="m386.73 320.44 0.07 27.63" style="marker-end:url(#memstimulation000)"/></g><g id="fbeb2" class="Edge"  ><path    d="m286 1141.4 0.64 31.33" style="marker-end:none"/></g><g id="fbf19" class="Edge"  ><path    d="m504 1141.4-0.69 34.67" style="marker-end:none"/></g><g id="b3c71" class="Edge"  ><path    d="m297.98 254.1-1.73 84"/></g><g id="daa97" class="Edge"  ><path    d="m584.48 141.77-227.83 75.33" stroke-dasharray="5,3"/></g><g id="b8b36" class="Edge"  ><path    d="m618.81 141.77 221.5 55.83" stroke-dasharray="5,3"/></g><g id="bd398" class="Edge"  ><path    d="m974.67 1002.9-531.38-123.43"/></g><g id="db11f" class="Edge"  ><path    d="m1015.6 699.1-0.61 288.23"/><g id="b1a3f" class="AB" transform="translate(1015.5 763.33)"  ><g class="AB"/></g></g><g id="c1cc2" class="Edge"  ><path    d="m322.64 679.44-0.23 11.67" style="marker-end:url(#memstimulation000)"/></g><g id="d9e15" class="Edge"  ><path    d="m905.98 380.1v84.90h-286.48"/><g id="c4f90" class="AB" transform="translate(785.53 465)"  ><g class="AB"/></g></g><g id="ecd8d" class="Edge"  ><path    d="m905.98 253.1v71"/></g><g id="aa20a" class="Edge"  ><path    d="m982.31 763.1 33.20 0.23" style="marker-end:url(#memstimulation000)"/></g><g id="dab3d" class="Edge"  ><path    d="m785.64 446.1-0.11 18.90" style="marker-end:url(#memstimulation000)"/></g><g id="c7fee" class="Edge"  ><path    d="m587.64 520.77-24.64-0.57" style="marker-end:url(#memstimulation000)"/></g><g id="c39" class="" transform="translate(259.14 958.1)"  ><g class=""><rect   width="255" height="16" style="fill:transparent"/></g></g><g id="cb4" class="" transform="translate(1081.6 713.77) rotate(90 75.03 4.33)"  ><g class=""><use class=" Node Icon" width="150.07" height="8.67" fill="#000" stroke="#000" href="#Brace"/></g></g><g id="d52" class="" transform="translate(329.83 931.6)"  ><g class=""><use class=" Node Icon" width="50.23" height="26.67" fill="transparent" stroke="#000" href="#Ellipse"/></g></g><g id="d77" class="" transform="translate(11.65 1078.6)"  ><g class=""><rect   width="774.64" height="257.69" style="fill:transparent"/></g></g><g id="d8688" class="" transform="translate(164.97 631.97)"  ><g class=""><rect   width="955.03" height="186.03" stroke-dasharray="5,3" style="fill:transparent"/></g></g><g id="dd7bb" class="" transform="translate(877.5,883.5)"  ><g class="" filter="url(#doublefalse3filter)"><g class=""><use class=" Node Icon" transform="matrix(0.98 0 0 0.97 5.87 5.80)" width="535" height="357" fill="transparent" stroke="#c0c0c0" stroke-width="3" href="#Ellipse"/></g></g></g><g id="efe" class="" transform="translate(810.79 1247.6)"  ><g class=""><rect   width="210.21" height="100.05" style="fill:transparent"/></g></g><g id="f11" class="" transform="translate(186.36 406.28) rotate(-90 66.96 7.68)"  ><g class=""><use class=" Node Icon" width="133.93" height="15.36" fill="#000" stroke="#000" href="#Brace"/></g></g><g id="cf3b9" class="GroupNone" transform="translate(973.67 986.33)"  ><g class="GroupNone"><rect   width="82.73" height="64.27" fill-opacity=".1" stroke-dasharray="5,3" style="fill:#b4b464;stroke:grey"/><g id="e26" class="" transform="translate(23.50 28.60)"  ><g class=""><use class=" Node Icon" width="50.23" height="26.67" fill="transparent" stroke="#000" href="#Ellipse"/></g></g><g id="b42" class="Label" transform="translate(35.63 35.47)"  name="SeC" ><g class="Label"/><text   transform="translate(12.93 7.43)"    >SeC</text></g><g id="a0e" class="GeneProduct" transform="translate(9,9)"  name="SBP2" ><rect   width="40" height="20"/><text   transform="translate(20,10)"    >SBP2</text></g></g></g><g id="b6d" class="Label" transform="translate(584.48 132.77)"  name="Diet" ><g class="Label"/><text   transform="translate(17.17 9)"     style="font-size:12px">Diet</text></g><g id="b8b" class="Label" transform="translate(-12.25 1427.5)"  name="Se = Selenium, SeMet = SelenoMethionine, SeC = Selcysteine, H2Se = Selenide, GSH = gluthatione, Trx = Thioredoxin" ><g class="Label"/><text   transform="translate(353.67 7.43)"    >Se = Selenium, SeMet = SelenoMethionine, SeC = Selcysteine, H2Se = Selenide, GSH = gluthatione, Trx = Thioredoxin</text></g><g id="ba7" class="Label" transform="translate(272.14 958.1)"  name="coding region" ><g class="Label"/><text   transform="translate(41.17 8)"    >coding region</text></g><g id="be2" class="Label" transform="translate(485.31 960.1)"  name="STOP" ><g class="Label"/><text   transform="translate(14.67 6)"     style="font-size:7px">STOP</text></g><g id="cd5" class="Label" transform="translate(908.31 424.77)"  name="TrX" ><g class="Label"/><text   transform="translate(11.67 8)"    >TrX</text></g><g id="cdb" class="Label" transform="translate(396.31 683.1)"  name="Seryl-tRNA[ser](sec)" ><g class="Label"/><text   transform="translate(62.67 8)"    >Seryl-tRNA[ser](sec)</text></g><g id="dce" class="Label" transform="translate(941.98 683.1)"  name="Selenocysteyl-tRNA sec" ><g class="Label"/><text   transform="translate(73.67 8)"    >Selenocysteyl-tRNA sec</text></g><g id="df7" class="Label" transform="translate(1182 708.77)"  name="SeC Biosynthesis" ><g class="Label"/><text   transform="translate(54.67 8)"    >SeC Biosynthesis</text></g><g id="e38" class="Label" transform="translate(346.81 1053.8)"  name="Selenoproteins" ><g class="Label"/><text   transform="translate(57.17 9)"    font-weight="bold"  style="font-size:11px">Selenoproteins</text></g><g id="e3c" class="Label" transform="translate(341.97 937.13)"  name="SeC" ><g class="Label"/><text   transform="translate(12.93 7.43)"    >SeC</text></g><g id="e6a" class="Label" transform="translate(460.98 396.6)"  name="demethylation" ><g class="Label"/><text   transform="translate(36.67 6.5)"    >demethylation</text></g><g id="e6c" class="Label" transform="translate(906.64 404.77)"  name="GSH" ><g class="Label"/><text   transform="translate(16.67 8)"    >GSH</text></g><g id="ea3" class="Label" transform="translate(650.48 683.1)"  name="Phosphoseryl-tRNA[ser](sec)" ><g class="Label"/><text   transform="translate(87.17 8)"    >Phosphoseryl-tRNA[ser](sec)</text></g><g id="ed1" class="Label" transform="translate(1215 905.64)"  name="nucleus" ><g class="Label"/><text   transform="translate(27.5,8.9)"     style="font-size:12px">nucleus</text></g><g id="edd" class="Label" transform="translate(253.31 944.77)"  name="AUG" ><g class="Label"/><text   transform="translate(16.67 8)"    >AUG</text></g><g id="f62" class="Label" transform="translate(163.98 298.1)"  name="Body proteins" ><g class="Label"/><text   transform="translate(42.67 8)"    >Body proteins</text></g><g id="f6d" class="Label" transform="translate(162.81 683.1)"  name="Sec tRNA[ser]sec" ><g class="Label"/><text   transform="translate(55.17 8)"    >Sec tRNA[ser]sec</text></g><g id="fe2" class="Label" transform="translate(589.48 402.77)"  name="methyl transferase" ><g class="Label"/><text   transform="translate(56.17 8)"    >methyl transferase</text></g><g id="a3842" class="GroupNone" transform="translate(450.98 1099.1)"  ><g class="GroupNone"><rect   width="102.83" height="102.67" fill-opacity=".1" stroke-dasharray="5,3" style="fill:#b4b464;stroke:grey"/><g id="fd2" class="Label" transform="translate(17.5,9)"  name="Se transport and storage" ><g class="Label"/><text   transform="translate(38.17 14.45)"    ><tspan   x="0" y="-5.5">Se transport</tspan><tspan   x="0" y="5.5">and storage</tspan></text></g><g id="d12" class="GeneProduct " transform="translate(9 73.67)"  name="SEPP1" ><rect   width="80" height="20"/><text   transform="translate(40,10)"    >SEPP1</text></g></g></g><g id="b3049" class="GroupNone" transform="translate(238.31 179.1)"  ><g class="GroupNone"><rect   width="119.33" height="76" fill-opacity=".1" stroke-dasharray="5,3" style="fill:#b4b464;stroke:grey"/><g id="e49" class="Label" transform="translate(9,9)"  name="ORGANIC Se" ><g class="Label"/><text   transform="translate(50.67 9)"     style="font-size:12px">ORGANIC Se</text></g><g id="aebf5" class="Metabolite " transform="translate(19.67 47)"  name="SeC" ><rect   width="80" height="20" style="stroke:#00f"/><text   transform="translate(40,10)"     style="fill:#00f">SeC</text></g><g id="c3fa8" class="Metabolite " transform="translate(19.67 27)"  name="SeMet" ><rect   width="80" height="20" style="stroke:#00f"/><text   transform="translate(40,10)"     style="fill:#00f">SeMet</text></g></g></g><g id="b3198" class="GroupNone" transform="translate(27.64 1099.1)"  ><g class="GroupNone"><rect   width="99.83" height="239.33" fill-opacity=".1" stroke-dasharray="5,3" style="fill:#b4b464;stroke:grey"/><g id="f1a" class="Label" transform="translate(20.5 9)"  name="Antioxidant enzymes" ><g class="Label"/><text   transform="translate(35.17 14.45)"    ><tspan   x="0" y="-5.5">Antioxidant</tspan><tspan   x="0" y="5.5">enzymes</tspan></text></g><g id="b2e" class="GeneProduct " transform="translate(9 93.67)"  name="GPX2" ><rect   width="80" height="20"/><text   transform="translate(40,10)"    >GPX2</text></g><g id="b41" class="GeneProduct " transform="translate(9 130.33)"  name="GPX4" ><rect   width="80" height="20"/><text   transform="translate(40,10)"    >GPX4</text></g><g id="b61" class="GeneProduct " transform="translate(9 73.67)"  name="GPX1" ><rect   width="80" height="20"/><text   transform="translate(40,10)"    >GPX1</text></g><g id="ba0" class="GeneProduct " transform="translate(9 190.33)"  name="SepX1" ><rect   width="80" height="20"/><text   transform="translate(40,10)"    >SepX1</text></g><g id="d50" class="GeneProduct " transform="translate(9 210.33)"  name="SepW" ><rect   width="80" height="20"/><text   transform="translate(40,10)"    >SepW</text></g><g id="d64" class="GeneProduct " transform="translate(9 170.33)"  name="SelK" ><rect   width="80" height="20"/><text   transform="translate(40,10)"    >SelK</text></g><g id="da9" class="GeneProduct " transform="translate(9 110.33)"  name="GPX3" ><rect   width="80" height="20"/><text   transform="translate(40,10)"    >GPX3</text></g><g id="dd4" class="GeneProduct " transform="translate(9 150.33)"  name="GPX6" ><rect   width="80" height="20"/><text   transform="translate(40,10)"    >GPX6</text></g></g></g><g id="b4036" class="GroupNone" transform="translate(811.87 1248)"  ><g class="GroupNone"><rect   width="209.33" height="100.33" fill-opacity=".1" stroke-dasharray="5,3" style="fill:#b4b464;stroke:grey"/><g id="d65" class="Label" transform="translate(9,9)"  name="Selenium binding proteins" ><g class="Label"/><text   transform="translate(95.67 9)"    font-weight="bold"  style="font-size:11px">Selenium binding proteins</text></g><g id="aa2" class="GeneProduct " transform="translate(71.33 51.33)"  name="Selenbp1" ><rect   width="80" height="20"/><text   transform="translate(40,10)"    >Selenbp1</text></g><g id="ffb" class="GeneProduct " transform="translate(71.33 71.33)"  name="Fabp1" ><rect   width="80" height="20"/><text   transform="translate(40,10)"    >Fabp1</text></g></g></g><g id="bf11f" class="GroupNone" transform="translate(839.31 178.1)"  ><g class="GroupNone"><rect   width="133.33" height="76" fill-opacity=".1" stroke-dasharray="5,3" style="fill:#b4b464;stroke:grey"/><g id="ec1" class="Label" transform="translate(9,9)"  name="INORGANIC Se" ><g class="Label"/><text   transform="translate(57.67 9)"     style="font-size:12px">INORGANIC Se</text></g><g id="c5a95" class="Metabolite" transform="translate(26.67 47)"  name="Selenate" ><rect   width="80" height="20" style="stroke:#00f"/><text   transform="translate(40,10)"     style="fill:#00f">Selenate</text></g><g id="e7bbe" class="Metabolite " transform="translate(26.67 27)"  name="Selenite" ><rect   width="80" height="20" style="stroke:#00f"/><text   transform="translate(40,10)"     style="fill:#00f">Selenite</text></g></g></g><g id="c1b02" class="GroupNone" transform="translate(560.64 1099.1)"  ><g class="GroupNone"><rect   width="105.33" height="159.33" fill-opacity=".1" stroke-dasharray="5,3" style="fill:#b4b464;stroke:grey"/><g id="c50" class="Label" transform="translate(9,9)"  name="Protein folding" ><g class="Label"/><text   transform="translate(43.67 8)"    >Protein folding</text></g><g id="a73" class="GeneProduct " transform="translate(9.33 113.67)"  name="SelM" ><rect   width="80" height="20"/><text   transform="translate(40,10)"    >SelM</text></g><g id="aaa" class="GeneProduct " transform="translate(9.33 97)"  name="SEPN1" ><rect   width="80" height="20"/><text   transform="translate(40,10)"    >SEPN1</text></g><g id="b02" class="GeneProduct" transform="translate(9.33 77)"  name="Sep15" ><rect   width="80" height="20"/><text   transform="translate(40,10)"    >Sep15</text></g><g id="cb1" class="GeneProduct " transform="translate(9.33 130.33)"  name="SelS" ><rect   width="80" height="20"/><text   transform="translate(40,10)"    >SelS</text></g></g></g><g id="d2e15" class="GroupNone" transform="translate(1114.3 978.33)"  ><g class="GroupNone"><rect   width="168.13" height="224.44" fill-opacity=".1" stroke-dasharray="5,3" style="fill:#b4b464;stroke:grey"/><g id="bfd" class="Label" transform="translate(9,9)"  name="Transcription Factors" ><g class="Label"/><text   transform="translate(75.07 8.9)"     style="font-size:12px">Transcription Factors</text></g><g id="a89" class="GeneProduct " transform="translate(39.64 155.44)"  name="NFKB-p105" ><rect   width="80" height="20"/><text   transform="translate(40,10)"    >NFKB-p105</text></g><g id="af4" class="GeneProduct RefSeq_NM_006164" transform="translate(39.64 35.44)"  name="Nfe2l2" ><rect   width="80" height="20"/><text   transform="translate(40,10)"    >Nfe2l2</text></g><g id="bd6" class="GeneProduct " transform="translate(39.64 115.44)"  name="JUN" ><rect   width="80" height="20"/><text   transform="translate(40,10)"    >JUN</text></g><g id="ce9" class="GeneProduct" transform="translate(39.64 95.44)"  name="Pouf2f1" ><rect   width="80" height="20"/><text   transform="translate(40,10)"    >Pouf2f1</text></g><g id="d43" class="GeneProduct " transform="translate(39.64 175.44)"  name="NFKB-p65" ><rect   width="80" height="20"/><text   transform="translate(40,10)"    >NFKB-p65</text></g><g id="d7a" class="GeneProduct " transform="translate(39.64 135.44)"  name="FOS" ><rect   width="80" height="20"/><text   transform="translate(40,10)"    >FOS</text></g><g id="dcc" class="GeneProduct" transform="translate(39.64 195.44)"  name="CREM" ><rect   width="80" height="20"/><text   transform="translate(40,10)"    >CREM</text></g><g id="e96" class="GeneProduct RefSeq_NP_612482" transform="translate(39.64 55.44)"  name="Sp1" ><rect   width="80" height="20"/><text   transform="translate(40,10)"    >Sp1</text></g><g id="f3d" class="GeneProduct " transform="translate(39.64 75.44)"  name="Sp3" ><rect   width="80" height="20"/><text   transform="translate(40,10)"    >Sp3</text></g></g></g><g id="e2698" class="GroupNone" transform="translate(352.31 1099.1)"  ><g class="GroupNone"><rect   width="98" height="102.67" fill-opacity=".1" stroke-dasharray="5,3" style="fill:#b4b464;stroke:grey"/><g id="ea5" class="Label" transform="translate(10.69 9)"  name="Sec synthesis" ><g class="Label"/><text   transform="translate(33 13.95)"    ><tspan   x="0" y="-5.5">Sec</tspan><tspan   x="0" y="5.5">synthesis</tspan></text></g><g id="c85" class="GeneProduct " transform="translate(9 73.67)"  name="SPS2" ><rect   width="80" height="20"/><text   transform="translate(40,10)"    >SPS2</text></g></g></g><g id="e9c73" class="GroupNone" transform="translate(677.64 1099.1)"  ><g class="GroupNone"><rect   width="98" height="182.67" fill-opacity=".1" stroke-dasharray="5,3" style="fill:#b4b464;stroke:grey"/><g id="e77" class="Label" transform="translate(20,9)"  name="Unkown function" ><g class="Label"/><text   transform="translate(25.67 14.95)"    ><tspan   x="0" y="-5.5">Unkown</tspan><tspan   x="0" y="5.5">function</tspan></text></g><g id="aed" class="GeneProduct " transform="translate(9,97)"  name="SelI" ><rect   width="80" height="20"/><text   transform="translate(40,10)"    >SelI</text></g><g id="cef" class="GeneProduct " transform="translate(9 133.67)"  name="SelT" ><rect   width="80" height="20"/><text   transform="translate(40,10)"    >SelT</text></g><g id="cf9" class="GeneProduct " transform="translate(9,77)"  name="SelH" ><rect   width="80" height="20"/><text   transform="translate(40,10)"    >SelH</text></g><g id="e33" class="GeneProduct " transform="translate(9 153.67)"  name="SelV" ><rect   width="80" height="20"/><text   transform="translate(40,10)"    >SelV</text></g><g id="e82" class="GeneProduct " transform="translate(9 113.67)"  name="SelO" ><rect   width="80" height="20"/><text   transform="translate(40,10)"    >SelO</text></g></g></g><g id="edbc0" class="GroupNone" transform="translate(233.64 1099.1)"  ><g class="GroupNone"><rect   width="119.33" height="142.67" fill-opacity=".1" stroke-dasharray="5,3" style="fill:#b4b464;stroke:grey"/><g id="c8d" class="Label" transform="translate(9,9)"  name="Thyroid hormone metabolism" ><g class="Label"/><text   transform="translate(50.67 13.45)"    ><tspan   x="0" y="-5.5">Thyroid hormone</tspan><tspan   x="0" y="5.5">metabolism</tspan></text></g><g id="cfb" class="GeneProduct " transform="translate(13 113.67)"  name="DIO3" ><rect   width="80" height="20"/><text   transform="translate(40,10)"    >DIO3</text></g><g id="d80" class="GeneProduct " transform="translate(13 73.67)"  name="DIO1" ><rect   width="80" height="20"/><text   transform="translate(40,10)"    >DIO1</text></g><g id="fc0" class="GeneProduct " transform="translate(13 93.67)"  name="DIO2" ><rect   width="80" height="20"/><text   transform="translate(40,10)"    >DIO2</text></g></g></g><g id="ff166" class="GroupNone" transform="translate(127.64 1099.1)"  ><g class="GroupNone"><rect   width="98" height="139.33" fill-opacity=".1" stroke-dasharray="5,3" style="fill:#b4b464;stroke:grey"/><g id="af2" class="Label" transform="translate(22.36 9)"  name="Redox signalling" ><g class="Label"/><text   transform="translate(30 14.95)"    ><tspan   x="0" y="-5.5">Redox</tspan><tspan   x="0" y="5.5">signalling</tspan></text></g><g id="a9f" class="GeneProduct " transform="translate(9 110.33)"  name="TXNRD3" ><rect   width="80" height="20"/><text   transform="translate(40,10)"    >TXNRD3</text></g><g id="ab3" class="GeneProduct " transform="translate(9 73.67)"  name="TXNRD1" ><rect   width="80" height="20"/><text   transform="translate(40,10)"    >TXNRD1</text></g><g id="d74" class="GeneProduct " transform="translate(9 90.33)"  name="TXNRD2" ><rect   width="80" height="20"/><text   transform="translate(40,10)"    >TXNRD2</text></g></g></g><g id="a0d" class="GeneProduct" transform="translate(533.31 652.77)"  name="Pstk" ><rect   width="80" height="20"/><text   transform="translate(40,10)"    >Pstk</text></g><g id="b4bcb" class="Metabolite " transform="translate(272.98 455.1)"  name="SeC" ><rect   width="31.02" height="20" style="stroke:#00f"/><text   transform="translate(15.51 10)"     style="fill:#00f">SeC</text></g><g id="bb7" class="GeneProduct RefSeq_NP_001893" transform="translate(331 300.44)"  name="Cystathionine g-lyase" ><rect   width="111.46" height="20"/><text   transform="translate(55.73 10)"    >Cystathionine g-lyase</text></g><g id="c4f66" class="Metabolite " transform="translate(506.5,588)"  name="Selenophosphate" ><rect   width="113" height="20" style="stroke:#00f"/><text   transform="translate(56.5,10)"     style="fill:#00f">Selenophosphate</text></g><g id="cf8" class="GeneProduct " transform="translate(59.98 619.1)"  name="Scly" ><rect   width="50" height="20"/><text   transform="translate(25,10)"    >Scly</text></g><g id="d176f" class="Metabolite " transform="translate(506.5,455)"  name="Hydrogen selenide" ><rect   width="113" height="20" style="stroke:#00f"/><text   transform="translate(56.5,10)"     style="fill:#00f">Hydrogen selenide</text></g><g id="d33" class="GeneProduct" transform="translate(363.31 969.44)"  name="UGA" ><rect   width="80" height="20"/><text   transform="translate(40,10)"    >UGA</text></g><g id="e0a" class="GeneProduct" transform="translate(363.29 869.47)"  name="SBP2" ><rect   width="80" height="20"/><text   transform="translate(40,10)"    >SBP2</text></g><g id="e231d" class="Metabolite" transform="translate(506.5,338)"  name="MethylSelenol MeSeH" ><rect   width="113" height="20" style="stroke:#00f"/><text   transform="translate(56.5,10)"     style="fill:#00f">MethylSelenol MeSeH</text></g><g id="ecd" class="GeneProduct " transform="translate(363.29 909.94)"  name="Rpl30" ><rect   width="80" height="20"/><text   transform="translate(40,10)"    >Rpl30</text></g><g id="f4c" class="GeneProduct " transform="translate(826.31 645.44)"  name="Sla" ><rect   width="93.33" height="20"/><text   transform="translate(46.67 10)"    >Sla</text></g><g id="f59" class="GeneProduct " transform="translate(363.29 889.47)"  name="eEFSec" ><rect   width="80" height="20"/><text   transform="translate(40,10)"    >eEFSec</text></g><g id="fe915" class="Metabolite " transform="translate(263.98 338.1)"  name="SeMet" ><rect   width="43.02" height="20" style="stroke:#00f"/><text   transform="translate(21.51 10)"     style="fill:#00f">SeMet</text></g><g id="dd851" class="GroupNone" transform="translate(233.64 642.44)"  ><g class="GroupNone"><rect   width="178" height="38" fill-opacity=".1" stroke-dasharray="5,3" style="fill:#b4b464;stroke:grey"/><g id="bda" class="GeneProduct " transform="translate(9,9)"  name="Sars2" ><rect   width="80" height="20"/><text   transform="translate(40,10)"    >Sars2</text></g><g id="de6" class="GeneProduct" transform="translate(89,9)"  name="Sars" ><rect   width="80" height="20"/><text   transform="translate(40,10)"    >Sars</text></g></g></g><g id="dd858" class="GroupNone" transform="translate(736.64 369.1)"  ><g class="GroupNone"><rect   width="98" height="78" fill-opacity=".1" stroke-dasharray="5,3" style="fill:#b4b464;stroke:grey"/><g id="e57" class="GeneProduct " transform="translate(9,9)"  name="TXNRD1" ><rect   width="80" height="20"/><text   transform="translate(40,10)"    >TXNRD1</text></g><g id="e8a" class="GeneProduct " transform="translate(9,49)"  name="TXNRD3" ><rect   width="80" height="20"/><text   transform="translate(40,10)"    >TXNRD3</text></g><g id="fa9" class="GeneProduct " transform="translate(9,29)"  name="TXNRD2" ><rect   width="80" height="20"/><text   transform="translate(40,10)"    >TXNRD2</text></g></g></g><g id="df7f5" class="GroupNone" transform="translate(856.98 323.1)"  ><g class="GroupNone"><rect   width="98" height="58" fill-opacity=".1" stroke-dasharray="5,3" style="fill:#b4b464;stroke:grey"/><g id="d646e" class="Metabolite" transform="translate(9,29)"  name="Selenate" ><rect   width="80" height="20" style="stroke:#00f"/><text   transform="translate(40,10)"     style="fill:#00f">Selenate</text></g><g id="f9c6f" class="Metabolite " transform="translate(9 9)"  name="Selenite" ><rect   width="80" height="20" style="stroke:#00f"/><text   transform="translate(40,10)"     style="fill:#00f">Selenite</text></g></g></g><g id="e55e0" class="GroupNone" transform="translate(885.31 725.77)"  ><g class="GroupNone"><rect   width="98" height="74.67" fill-opacity=".1" stroke-dasharray="5,3" style="fill:#b4b464;stroke:grey"/><g id="ab2" class="GeneProduct" transform="translate(9,29)"  name="SBP2" ><rect   width="80" height="20"/><text   transform="translate(40,10)"    >SBP2</text></g><g id="af0" class="GeneProduct " transform="translate(9,9)"  name="Secp43" ><rect   width="80" height="20"/><text   transform="translate(40,10)"    >Secp43</text></g><g id="df0" class="GeneProduct " transform="translate(9 45.67)"  name="eEFSec" ><rect   width="80" height="20"/><text   transform="translate(40,10)"    >eEFSec</text></g></g></g><g id="eeb6e" class="GroupNone" transform="translate(586.64 491.77)"  ><g class="GroupNone"><rect   width="98" height="58" fill-opacity=".1" stroke-dasharray="5,3" style="fill:#b4b464;stroke:grey"/><g id="c55" class="GeneProduct RefSeq_NP_036380" transform="translate(9,29)"  name="Sephs2" ><rect   width="80" height="20"/><text   transform="translate(40,10)"    >Sephs2</text></g><g id="de2" class="GeneProduct" transform="translate(9,9)"  name="Sephs1" ><rect   width="80" height="20"/><text   transform="translate(40,10)"    >Sephs1</text></g></g></g></g></g></g></svg>