<?xml version="1.0" encoding="UTF-8"?>
<!--
  WikiPathways page: https://www.wikipathways.org/index.php/Pathway:WP2895
  URL for this compressed file: https://github.com/eweitz/cachome/tree/main/data/WP2895.svg
  Source code for compression: https://github.com/eweitz/cachome/tree/main/src/wikipathways.py
-->
<svg id="wp2895-svg" class="Diagram" width="800" height="600" color="black" baseProfile="full" prefix="schema:http://schema.org/" preserveAspectRatio="xMidYMid" version="1.1" viewBox="0 0 637.96 594.46" vocab="http://vocabularies.wikipathways.org/wp#" xmlns="http://www.w3.org/2000/svg" xmlns:xlink="http://www.w3.org/1999/xlink"><style>svg {font-family: 'Liberation Sans', Arial, sans-serif; }</style><defs><g id="jit-defs"><filter id="kaavioblackto000000filter" x="0" y="0" width="637.96" height="594.46" filterUnits="userSpaceOnUse"><feColorMatrix in="SourceGraphic" values="-1   0   0 0 0                   0  -1   0 0 0                   0   0  -1 0 0                   0   0   0 1 0"/></filter></g><g id="jic-defs"><marker id="markerEndMimConversion" stroke-dasharray="99999" markerHeight="12" markerUnits="userSpaceOnUse" markerWidth="12" orient="auto" preserveAspectRatio="none" refX="12" refY="6" viewBox="0 0 12 12"><path transform="rotate(180 6 6)" d="M12 11L0 6l12-5z" fill="currentColor" stroke-width="0"/></marker><marker id="markerEndMimInhibition" stroke-dasharray="99999" markerHeight="20" markerUnits="userSpaceOnUse" markerWidth="10" orient="auto" preserveAspectRatio="none" refX="10" refY="10" viewBox="0 0 10 20"><path d="m3 0v20" fill="currentColor" stroke="currentColor"/></marker><marker id="markerEndMimStimulation" stroke-dasharray="99999" markerHeight="12" markerUnits="userSpaceOnUse" markerWidth="12" orient="auto" preserveAspectRatio="none" refX="12" refY="6" viewBox="0 0 12 12"><g transform="rotate(180 6 6)" fill="none"><path d="m12 6"/><path d="M0 6l11 5V1z" stroke="#000"/></g></marker><symbol id="Octagon" overflow="visible" preserveAspectRatio="none" viewBox="0 0 100 100"><path d="M0 25L25 0h50l25 25v50l-25 25H25L0 75z" stroke="currentColor" vector-effect="non-scaling-stroke"/></symbol><symbol id="none" preserveAspectRatio="none" viewBox="0 0 100 100"/></g></defs><g id="WP2895" class="Viewport" color="black"  name="Name: Differentiation of white and brown adipocyte Organism: Homo sapiens"><rect id="WP2895-icon" class="Icon" width="637.96" height="594.46" fill="#fff" stroke="#000" stroke-width="0"/><g id="idad89e69a" class="Interaction" color="#000" ><g color="#000" fill="transparent"  filter="url(#kaavioblackto000000filter)" stroke="#000" stroke-dasharray="176.85192053698574, 5.8"><path id="idad89e69a" class="EdgeBody" d="m252.85 65.014h-13.645v148.53h20.482"   marker-end="url(#markerEndMimConversion)" /></g><g id="e4579" class="Burr Anchor" transform="translate(239.2 138.62)" ><use id="e4579-icon" class="Icon" width="0" height="0" fill="#141414" stroke-width="0" xlink:href="#none"/></g></g><g id="id82f39b21" class="Interaction" color="#000" ><g color="#000" fill="transparent"  filter="url(#kaavioblackto000000filter)" stroke="#000" stroke-dasharray="177.18538504210636, 5.8"><path id="id82f39b21" class="EdgeBody" d="m430.05 65.014h7.957v148.53h-26.503"   marker-end="url(#markerEndMimConversion)" /></g><g id="b6c0b" class="Burr Anchor" transform="translate(438 138.62)" ><use id="b6c0b-icon" class="Icon" width="0" height="0" fill="#141414" stroke-width="0" xlink:href="#none"/></g></g><g id="id8ee9eed1" class="Interaction" color="#000" ><g color="#000" fill="transparent"  filter="url(#kaavioblackto000000filter)" stroke="#000" stroke-dasharray="49.094067916193985, 11"><path id="id8ee9eed1" class="EdgeBody" d="m377.91 138.7 60.094-0.075794"   marker-end="url(#markerEndMimStimulation)" /></g></g><g id="idb11fea82" class="Interaction" color="#000" ><g color="#000" fill="transparent"  filter="url(#kaavioblackto000000filter)" stroke="#000" stroke-dasharray="47.707675646380295, 11"><path id="idb11fea82" class="EdgeBody" d="m297.91 138.7-58.708-0.075794"   marker-end="url(#markerEndMimStimulation)" /></g></g><g id="ida3dff87a" class="Interaction" color="#000" ><g color="#000" fill="transparent"  filter="url(#kaavioblackto000000filter)" stroke="#000" stroke-dasharray="212.0375673551822, 5.8"><path id="ida3dff87a" class="EdgeBody" d="m297.64 223.54-125.63 177.96"   marker-end="url(#markerEndMimConversion)" /></g><g id="a3967" class="Burr Anchor" transform="translate(211.62 345.38)" ><use id="a3967-icon" class="Icon" width="0" height="0" fill="#141414" stroke-width="0" xlink:href="#none"/></g><g id="af0af" class="Burr Anchor" transform="translate(264.42 270.58)" ><use id="af0af-icon" class="Icon" width="0" height="0" fill="#141414" stroke-width="0" xlink:href="#none"/></g><g id="fa4ad" class="Burr Anchor" transform="translate(255.52 283.2)" ><use id="fa4ad-icon" class="Icon" width="0" height="0" fill="#141414" stroke-width="0" xlink:href="#none"/></g><g id="c9b7d" class="Burr Anchor" transform="translate(227.36 323.09)" ><use id="c9b7d-icon" class="Icon" width="0" height="0" fill="#141414" stroke-width="0" xlink:href="#none"/></g></g><g id="id8178e62b" class="Interaction" color="#000" ><g color="#000" fill="transparent"  filter="url(#kaavioblackto000000filter)" stroke="#000" stroke-dasharray="211.54553916176965, 5.8"><path id="id8178e62b" class="EdgeBody" d="m373.54 223.54 121.6 180.14"   marker-end="url(#markerEndMimConversion)" /></g><g id="d5988" class="Burr Anchor" transform="translate(441.51 324.22)" ><use id="d5988-icon" class="Icon" width="0" height="0" fill="#141414" stroke-width="0" xlink:href="#none"/></g><g id="bd860" class="Burr Anchor" transform="translate(413.47 282.69)" ><use id="bd860-icon" class="Icon" width="0" height="0" fill="#141414" stroke-width="0" xlink:href="#none"/></g><g id="bf296" class="Burr Anchor" transform="translate(402.39 266.27)" ><use id="bf296-icon" class="Icon" width="0" height="0" fill="#141414" stroke-width="0" xlink:href="#none"/></g><g id="fa368" class="Burr Anchor" transform="translate(460.9 352.95)" ><use id="fa368-icon" class="Icon" width="0" height="0" fill="#141414" stroke-width="0" xlink:href="#none"/></g></g><g id="id2f1bd5c6" class="Interaction" color="#000" ><g color="#000" fill="transparent"  filter="url(#kaavioblackto000000filter)" stroke="#000" stroke-dasharray="33.67188243941591, 11"><path id="id2f1bd5c6" class="EdgeBody" d="m194.53 138.11 44.669 0.51445"   marker-end="url(#markerEndMimStimulation)" /></g></g><g id="id54825b7d" class="Interaction" color="#000" ><g color="#000" fill="transparent"  filter="url(#kaavioblackto000000filter)" stroke="#000" stroke-dasharray="27.911169250777654, 11"><path id="id54825b7d" class="EdgeBody" d="m294.42 282.51-38.905 0.68919"   marker-end="url(#markerEndMimStimulation)" /></g></g><g id="idca04ea58" class="Interaction" color="#000" ><g color="#000" fill="transparent"  filter="url(#kaavioblackto000000filter)" stroke="#000" stroke-dasharray="56.07338769349941, 11"><path id="idca04ea58" class="EdgeBody" d="m294.42 324.09-67.066-0.99354"   marker-end="url(#markerEndMimStimulation)" /></g></g><g id="id4ac970d9" class="Interaction" color="#000" ><g color="#000" fill="transparent"  filter="url(#kaavioblackto000000filter)" stroke="#000" stroke-dasharray="50.88467603392792, 7"><path id="id4ac970d9" class="EdgeBody" d="m153.74 345.73 57.884-0.35024"   marker-end="url(#markerEndMimInhibition)" /></g></g><g id="id43dfb361" class="Interaction" color="#000" ><g color="#000" fill="transparent"  filter="url(#kaavioblackto000000filter)" stroke="#000" stroke-dasharray="64.39105951766055, 11"><path id="id43dfb361" class="EdgeBody" d="m513.39 139.65-75.384-1.0302"   marker-end="url(#markerEndMimStimulation)" /></g></g><g id="id1ae91eb4" class="Interaction" color="#000" ><g color="#000" fill="transparent"  filter="url(#kaavioblackto000000filter)" stroke="#000" stroke-dasharray="28.051655033589036, 11"><path id="id1ae91eb4" class="EdgeBody" d="m374.42 282.51 39.051 0.17599"   marker-end="url(#markerEndMimStimulation)" /></g></g><g id="id3fbbc879" class="Interaction" color="#000" ><g color="#000" fill="transparent"  filter="url(#kaavioblackto000000filter)" stroke="#000" stroke-dasharray="56.08538193151456, 11"><path id="id3fbbc879" class="EdgeBody" d="m374.42 324.09 67.085 0.13409"   marker-end="url(#markerEndMimStimulation)" /></g></g><g id="id5745c8d6" class="Interaction" color="#000" ><g color="#000" fill="transparent"  filter="url(#kaavioblackto000000filter)" stroke="#000" stroke-dasharray="102.57671833951609, 11"><path id="id5745c8d6" class="EdgeBody" d="m515.96 265.05-113.57 1.2268"   marker-end="url(#markerEndMimStimulation)" /></g></g><g id="id7ee7774" class="Interaction" color="#000" ><g color="#000" fill="transparent"  filter="url(#kaavioblackto000000filter)" stroke="#000" stroke-dasharray="42.904530634079116, 11"><path id="id7ee7774" class="EdgeBody" d="m514.8 353.28-53.903-0.33631"   marker-end="url(#markerEndMimStimulation)" /></g></g><g id="idf964b9f3" class="Interaction" color="#000" ><g color="#000" fill="transparent"  filter="url(#kaavioblackto000000filter)" stroke="#000" stroke-dasharray="84.64188368835532, 11"><path id="idf964b9f3" class="EdgeBody" d="m168.78 269.98 95.64 0.60032"   marker-end="url(#markerEndMimStimulation)" /></g></g><g id="f3771" class="GroupNone" transform="translate(94.515 400.5)" color="grey" ><rect id="f3771-icon" class="Icon" transform="matrix(.99359 0 0 .99309 .49679 .49654)" width="154.98" height="143.64" fill="#b4b464" fill-opacity=".1" stroke="grey" stroke-dasharray="5,3"/><g id="b6646" class="Label" transform="translate(9,9)" color="#cc0066"  name="White Adipocyte"><use id="b6646-icon" class="Icon" width="136.97534613454744" height="20" fill="transparent"  stroke="#cc0066" stroke-width="0" xlink:href="#none"/><text id="b6646-text" class="Text" transform="translate(68.488 14)" fill="#cc0066"  font-size="14px" font-weight="bold" stroke="white" stroke-width="0" text-anchor="middle"><tspan x="0" y="0">White Adipocyte</tspan></text></g><a  id="b284c" class="GeneProduct LEP " transform="translate(37.171 34.645)"   name="Leptin"  ><rect id="b284c-icon" class="Icon" transform="matrix(.98765 0 0 .95238 .49383 .47619)" width="80" height="20" fill="#fff" stroke="#000"/><text id="b284c-text" class="Text" transform="translate(40,13)" fill="#000"  font-size="10px" stroke="white" stroke-width="0" text-anchor="middle"><tspan x="0" y="0">Leptin</tspan></text></a><a  id="b1c1a" class="GeneProduct ADIPOQ " transform="translate(37.171 54.645)"   name="Adiponectin"  ><rect id="b1c1a-icon" class="Icon" transform="matrix(.98765 0 0 .95238 .49383 .47619)" width="80" height="20" fill="#fff" stroke="#000"/><text id="b1c1a-text" class="Text" transform="translate(40,13)" fill="#000"  font-size="10px" stroke="white" stroke-width="0" text-anchor="middle"><tspan x="0" y="0">Adiponectin</tspan></text></a><a  id="b6710" class="GeneProduct SLC7A10 " transform="translate(37.171 74.645)"   name="ASC-1"  ><rect id="b6710-icon" class="Icon" transform="matrix(.98765 0 0 .95238 .49383 .47619)" width="80" height="20" fill="#fff" stroke="#000"/><text id="b6710-text" class="Text" transform="translate(40,13)" fill="#000"  font-size="10px" stroke="white" stroke-width="0" text-anchor="middle"><tspan x="0" y="0">ASC-1</tspan></text></a><a  id="f5d95" class="GeneProduct HOXC8 " transform="translate(37.171 94.645)"   name="HOXC8"  ><rect id="f5d95-icon" class="Icon" transform="matrix(.98765 0 0 .95238 .49383 .47619)" width="80" height="20" fill="#fff" stroke="#000"/><text id="f5d95-text" class="Text" transform="translate(40,13)" fill="#000"  font-size="10px" stroke="white" stroke-width="0" text-anchor="middle"><tspan x="0" y="0">HOXC8</tspan></text></a><a  id="cb567" class="GeneProduct HOXC9 " transform="translate(37.171 114.64)"   name="HOXC9"  ><rect id="cb567-icon" class="Icon" transform="matrix(.98765 0 0 .95238 .49383 .47619)" width="80" height="20" fill="#fff" stroke="#000"/><text id="cb567-text" class="Text" transform="translate(40,13)" fill="#000"  font-size="10px" stroke="white" stroke-width="0" text-anchor="middle"><tspan x="0" y="0">HOXC9</tspan></text></a></g><a  id="d676e" class="GeneProduct ZNF423 " transform="translate(297.91 128.7)"   name="Zfp423"  ><rect id="d676e-icon" class="Icon" transform="matrix(.98765 0 0 .95238 .49383 .47619)" width="80" height="20" fill="#fff" stroke="#000"/><text id="d676e-text" class="Text" transform="translate(40,13)" fill="#000"  font-size="10px" stroke="white" stroke-width="0" text-anchor="middle"><tspan x="0" y="0">Zfp423</tspan></text></a><a  id="c5502" class="GeneProduct PPARG " transform="translate(294.42 272.51)"   name="PPARγ"  ><rect id="c5502-icon" class="Icon" transform="matrix(.98765 0 0 .95238 .49383 .47619)" width="80" height="20" fill="#fff" stroke="#000"/><text id="c5502-text" class="Text" transform="translate(40,13)" fill="#000"  font-size="10px" stroke="white" stroke-width="0" text-anchor="middle"><tspan x="0" y="0">PPARγ</tspan></text></a><a  id="b288a" class="GeneProduct CEBPA " transform="translate(294.42 314.09)"   name="C/EBPα"  ><rect id="b288a-icon" class="Icon" transform="matrix(.98765 0 0 .95238 .49383 .47619)" width="80" height="20" fill="#fff" stroke="#000"/><text id="b288a-text" class="Text" transform="translate(40,13)" fill="#000"  font-size="10px" stroke="white" stroke-width="0" text-anchor="middle"><tspan x="0" y="0">C/EBPα</tspan></text></a><a  id="faf43" class="GeneProduct PRDM16 " transform="translate(73.737 335.73)"   name="PRDM16"  ><rect id="faf43-icon" class="Icon" transform="matrix(.98765 0 0 .95238 .49383 .47619)" width="80" height="20" fill="#fff" stroke="#000"/><text id="faf43-text" class="Text" transform="translate(40,13)" fill="#000"  font-size="10px" stroke="white" stroke-width="0" text-anchor="middle"><tspan x="0" y="0">PRDM16</tspan></text></a><g id="df77e" class="GroupNone" transform="translate(415.24 402.68)" color="grey" ><rect id="df77e-icon" class="Icon" transform="matrix(.99378 0 0 .99389 .49689 .49695)" width="159.81" height="162.78" fill="#b4b464" fill-opacity=".1" stroke="grey" stroke-dasharray="5,3"/><a  id="e54fa" class="GeneProduct PRDM16 " transform="translate(42.618 33.776)"   name="PRDM16"  ><rect id="e54fa-icon" class="Icon" transform="matrix(.98765 0 0 .95238 .49383 .47619)" width="80" height="20" fill="#fff" stroke="#000"/><text id="e54fa-text" class="Text" transform="translate(40,13)" fill="#000"  font-size="10px" stroke="white" stroke-width="0" text-anchor="middle"><tspan x="0" y="0">PRDM16</tspan></text></a><a  id="deb7e" class="GeneProduct CIDEA " transform="translate(42.618 53.776)"   name="CIDEA"  ><rect id="deb7e-icon" class="Icon" transform="matrix(.98765 0 0 .95238 .49383 .47619)" width="80" height="20" fill="#fff" stroke="#000"/><text id="deb7e-text" class="Text" transform="translate(40,13)" fill="#000"  font-size="10px" stroke="white" stroke-width="0" text-anchor="middle"><tspan x="0" y="0">CIDEA</tspan></text></a><a  id="af0d9" class="GeneProduct EBF3 " transform="translate(42.618 93.776)"   name="EBF3"  ><rect id="af0d9-icon" class="Icon" transform="matrix(.98765 0 0 .95238 .49383 .47619)" width="80" height="20" fill="#fff" stroke="#000"/><text id="af0d9-text" class="Text" transform="translate(40,13)" fill="#000"  font-size="10px" stroke="white" stroke-width="0" text-anchor="middle"><tspan x="0" y="0">EBF3</tspan></text></a><a  id="c9e9b" class="GeneProduct HSPB7 " transform="translate(42.618 113.78)"   name="HSPB7"  ><rect id="c9e9b-icon" class="Icon" transform="matrix(.98765 0 0 .95238 .49383 .47619)" width="80" height="20" fill="#fff" stroke="#000"/><text id="c9e9b-text" class="Text" transform="translate(40,13)" fill="#000"  font-size="10px" stroke="white" stroke-width="0" text-anchor="middle"><tspan x="0" y="0">HSPB7</tspan></text></a><a  id="a664c" class="GeneProduct ZIC1 " transform="translate(42.618 133.78)"   name="ZIC1"  ><rect id="a664c-icon" class="Icon" transform="matrix(.98765 0 0 .95238 .49383 .47619)" width="80" height="20" fill="#fff" stroke="#000"/><text id="a664c-text" class="Text" transform="translate(40,13)" fill="#000"  font-size="10px" stroke="white" stroke-width="0" text-anchor="middle"><tspan x="0" y="0">ZIC1</tspan></text></a><a  id="de24f" class="GeneProduct MPZL2 " transform="translate(42.618 73.776)"   name="EVA1"  ><rect id="de24f-icon" class="Icon" transform="matrix(.98765 0 0 .95238 .49383 .47619)" width="80" height="20" fill="#fff" stroke="#000"/><text id="de24f-text" class="Text" transform="translate(40,13)" fill="#000"  font-size="10px" stroke="white" stroke-width="0" text-anchor="middle"><tspan x="0" y="0">EVA1</tspan></text></a><g id="c32cf" class="Label" transform="translate(9,9)" color="#cc0066"  name="Brown Adipocyte"><use id="c32cf-icon" class="Icon" width="141.80868467771197" height="20" fill="transparent"  stroke="#cc0066" stroke-width="0" xlink:href="#none"/><text id="c32cf-text" class="Text" transform="translate(70.904 14)" fill="#cc0066"  font-size="14px" font-weight="bold" stroke="white" stroke-width="0" text-anchor="middle"><tspan x="0" y="0">Brown Adipocyte</tspan></text></g></g><g id="a1f6f" class="GroupComplex" transform="translate(90.532 76.106)" color="grey" ><use id="a1f6f-icon" class="Icon" transform="matrix(.99048 0 0 .992 .49524 .496)" width="104" height="123.99999999999997" fill="#b4b464" fill-opacity=".1" stroke="grey" xlink:href="#Octagon"/><a  id="aaaa1" class="GeneProduct BMP2 " transform="translate(12,12)"   name="BMP2"  ><rect id="aaaa1-icon" class="Icon" transform="matrix(.98765 0 0 .95238 .49383 .47619)" width="80" height="20" fill="#fff" stroke="#000"/><text id="aaaa1-text" class="Text" transform="translate(40,13)" fill="#000"  font-size="10px" stroke="white" stroke-width="0" text-anchor="middle"><tspan x="0" y="0">BMP2</tspan></text></a><a  id="aaaa2" class="GeneProduct BMP4 " transform="translate(12 32)"   name="BMP4"  ><rect id="aaaa2-icon" class="Icon" transform="matrix(.98765 0 0 .95238 .49383 .47619)" width="80" height="20" fill="#fff" stroke="#000"/><text id="aaaa2-text" class="Text" transform="translate(40,13)" fill="#000"  font-size="10px" stroke="white" stroke-width="0" text-anchor="middle"><tspan x="0" y="0">BMP4</tspan></text></a><a  id="aaaa3" class="GeneProduct SMAD1 " transform="translate(12 52)"   name="Smad1"  ><rect id="aaaa3-icon" class="Icon" transform="matrix(.98765 0 0 .95238 .49383 .47619)" width="80" height="20" fill="#fff" stroke="#000"/><text id="aaaa3-text" class="Text" transform="translate(40,13)" fill="#000"  font-size="10px" stroke="white" stroke-width="0" text-anchor="middle"><tspan x="0" y="0">Smad1</tspan></text></a><a  id="c7ee5" class="GeneProduct SMAD5 " transform="translate(12 72)"   name="Smad5"  ><rect id="c7ee5-icon" class="Icon" transform="matrix(.98765 0 0 .95238 .49383 .47619)" width="80" height="20" fill="#fff" stroke="#000"/><text id="c7ee5-text" class="Text" transform="translate(40,13)" fill="#000"  font-size="10px" stroke="white" stroke-width="0" text-anchor="middle"><tspan x="0" y="0">Smad5</tspan></text></a><a  id="aaaa4" class="GeneProduct SMAD9 " transform="translate(12 92)"   name="Smad8"  ><rect id="aaaa4-icon" class="Icon" transform="matrix(.98765 0 0 .95238 .49383 .47619)" width="80" height="20" fill="#fff" stroke="#000"/><text id="aaaa4-text" class="Text" transform="translate(40,13)" fill="#000"  font-size="10px" stroke="white" stroke-width="0" text-anchor="middle"><tspan x="0" y="0">Smad8</tspan></text></a></g><g id="afc95" class="GroupComplex" transform="translate(513.39 87.65)" color="grey" ><use id="afc95-icon" class="Icon" transform="matrix(.99048 0 0 .99048 .49524 .49524)" width="104.00000000000023" height="104.00000000000004" fill="#b4b464" fill-opacity=".1" stroke="grey" xlink:href="#Octagon"/><a  id="aaaa8" class="GeneProduct BMP7 " transform="translate(12 12)"   name="BMP7"  ><rect id="aaaa8-icon" class="Icon" transform="matrix(.98765 0 0 .95238 .49383 .47619)" width="80" height="20" fill="#fff" stroke="#000"/><text id="aaaa8-text" class="Text" transform="translate(40,13)" fill="#000"  font-size="10px" stroke="white" stroke-width="0" text-anchor="middle"><tspan x="0" y="0">BMP7</tspan></text></a><a  id="aaaa9" class="GeneProduct SMAD9 " transform="translate(12 72)"   name="Smad9"  ><rect id="aaaa9-icon" class="Icon" transform="matrix(.98765 0 0 .95238 .49383 .47619)" width="80" height="20" fill="#fff" stroke="#000"/><text id="aaaa9-text" class="Text" transform="translate(40,13)" fill="#000"  font-size="10px" stroke="white" stroke-width="0" text-anchor="middle"><tspan x="0" y="0">Smad9</tspan></text></a><a  id="c65b9" class="GeneProduct SMAD5 " transform="translate(12 52)"   name="Smad5"  ><rect id="c65b9-icon" class="Icon" transform="matrix(.98765 0 0 .95238 .49383 .47619)" width="80" height="20" fill="#fff" stroke="#000"/><text id="c65b9-text" class="Text" transform="translate(40,13)" fill="#000"  font-size="10px" stroke="white" stroke-width="0" text-anchor="middle"><tspan x="0" y="0">Smad5</tspan></text></a><a  id="aaa13" class="GeneProduct SMAD1 " transform="translate(12 32)"   name="Smad1"  ><rect id="aaa13-icon" class="Icon" transform="matrix(.98765 0 0 .95238 .49383 .47619)" width="80" height="20" fill="#fff" stroke="#000"/><text id="aaa13-text" class="Text" transform="translate(40,13)" fill="#000"  font-size="10px" stroke="white" stroke-width="0" text-anchor="middle"><tspan x="0" y="0">Smad1</tspan></text></a></g><g id="fdc37" class="GroupComplex" transform="translate(515.96 223.05)" color="grey" ><use id="fdc37-icon" class="Icon" transform="matrix(.99048 0 0 .98824 .49524 .49412)" width="104" height="84" fill="#b4b464" fill-opacity=".1" stroke="grey" xlink:href="#Octagon"/><a  id="aaaa5" class="GeneProduct CEBPB " transform="translate(12,32)"   name="C/EBPβ"  ><rect id="aaaa5-icon" class="Icon" transform="matrix(.98765 0 0 .95238 .49383 .47619)" width="80" height="20" fill="#fff" stroke="#000"/><text id="aaaa5-text" class="Text" transform="translate(40,13)" fill="#000"  font-size="10px" stroke="white" stroke-width="0" text-anchor="middle"><tspan x="0" y="0">C/EBPβ</tspan></text></a><a  id="aaaa7" class="GeneProduct PRDM16 " transform="translate(12,52)"   name="PRDM16"  ><rect id="aaaa7-icon" class="Icon" transform="matrix(.98765 0 0 .95238 .49383 .47619)" width="80" height="20" fill="#fff" stroke="#000"/><text id="aaaa7-text" class="Text" transform="translate(40,13)" fill="#000"  font-size="10px" stroke="white" stroke-width="0" text-anchor="middle"><tspan x="0" y="0">PRDM16</tspan></text></a><a  id="aaa10" class="GeneProduct PLAC8 " transform="translate(12,12)"   name="PLAC8"  ><rect id="aaa10-icon" class="Icon" transform="matrix(.98765 0 0 .95238 .49383 .47619)" width="80" height="20" fill="#fff" stroke="#000"/><text id="aaa10-text" class="Text" transform="translate(40,13)" fill="#000"  font-size="10px" stroke="white" stroke-width="0" text-anchor="middle"><tspan x="0" y="0">PLAC8</tspan></text></a></g><g id="a15fc" class="GroupComplex" transform="translate(514.8 321.28)" color="grey" ><use id="a15fc-icon" class="Icon" transform="matrix(.99048 0 0 .98462 .49524 .49231)" width="104" height="64.00000000000006" fill="#b4b464" fill-opacity=".1" stroke="grey" xlink:href="#Octagon"/><a  id="aaa11" class="GeneProduct PPARGC1A " transform="translate(12,12)"   name="PGC-1α"  ><rect id="aaa11-icon" class="Icon" transform="matrix(.98765 0 0 .95238 .49383 .47619)" width="80" height="20" fill="#fff" stroke="#000"/><text id="aaa11-text" class="Text" transform="translate(40,13)" fill="#000"  font-size="10px" stroke="white" stroke-width="0" text-anchor="middle"><tspan x="0" y="0">PGC-1α</tspan></text></a><a  id="aaa12" class="GeneProduct PPARGC1B " transform="translate(12 32)"   name="PGC-1β"  ><rect id="aaa12-icon" class="Icon" transform="matrix(.98765 0 0 .95238 .49383 .47619)" width="80" height="20" fill="#fff" stroke="#000"/><text id="aaa12-text" class="Text" transform="translate(40,13)" fill="#000"  font-size="10px" stroke="white" stroke-width="0" text-anchor="middle"><tspan x="0" y="0">PGC-1β</tspan></text></a></g><g id="bcc90" class="GroupComplex" transform="translate(64.785 237.98)" color="grey" ><use id="bcc90-icon" class="Icon" transform="matrix(.99048 0 0 .98462 .49524 .49231)" width="103.99999999999999" height="64" fill="#b4b464" fill-opacity=".1" stroke="grey" xlink:href="#Octagon"/><a  id="aaaa6" class="GeneProduct CEBPG " transform="translate(12,32)"   name="C/EBPδ"  ><rect id="aaaa6-icon" class="Icon" transform="matrix(.98765 0 0 .95238 .49383 .47619)" width="80" height="20" fill="#fff" stroke="#000"/><text id="aaaa6-text" class="Text" transform="translate(40,13)" fill="#000"  font-size="10px" stroke="white" stroke-width="0" text-anchor="middle"><tspan x="0" y="0">C/EBPδ</tspan></text></a><a  id="aaa14" class="GeneProduct CEBPB " transform="translate(12,12)"   name="C/EBPβ"  ><rect id="aaa14-icon" class="Icon" transform="matrix(.98765 0 0 .95238 .49383 .47619)" width="80" height="20" fill="#fff" stroke="#000"/><text id="aaa14-text" class="Text" transform="translate(40,13)" fill="#000"  font-size="10px" stroke="white" stroke-width="0" text-anchor="middle"><tspan x="0" y="0">C/EBPβ</tspan></text></a></g><g id="fe734" class="Label" transform="translate(259.68 203.54)" color="#cc0066"  name="Preadipocyte"><use id="fe734-icon" class="Icon" width="151.8166778448465" height="19.999999999999986" fill="transparent"  stroke="#cc0066" stroke-width="0" xlink:href="#none"/><text id="fe734-text" class="Text" transform="translate(75.908 14)" fill="#cc0066"  font-size="14px" font-weight="bold" stroke="white" stroke-width="0" text-anchor="middle"><tspan x="0" y="0">Preadipocyte</tspan></text></g><g id="da6ba" class="Label" transform="translate(252.85 55.014)" color="#cc0066"  name="Vascular progenitors"><use id="da6ba-icon" class="Icon" width="177.19971350025625" height="20" fill="transparent"  stroke="#cc0066" stroke-width="0" xlink:href="#none"/><text id="da6ba-text" class="Text" transform="translate(88.6 14)" fill="#cc0066"  font-size="14px" font-weight="bold" stroke="white" stroke-width="0" text-anchor="middle"><tspan x="0" y="0">Vascular progenitors</tspan></text></g><text id="WP2895-text" class="Text" transform="translate(5,27)" dominant-baseline="central" fill="black"  font-size="12px" font-weight="bold" overflow="visible" stroke="white" stroke-width="0"><tspan x="0" y="-9">Name: Differentiation of white and brown adipocyte</tspan> <tspan x="0" y="9">Organism: Homo sapiens</tspan></text></g></svg>
