<?xml version="1.0" encoding="UTF-8"?>
<svg xmlns="http://www.w3.org/2000/svg" id="-svg" class="Diagram"  baseProfile="full" prefix="schema:http://schema.org/" preserveAspectRatio="xMidYMid"  version="1.1"><defs><g id="icon-defs"/><g id="marker-defs"><marker id="markerstartarrow000" markerHeight="12" markerWidth="12" orient="auto" preserveAspectRatio="none" refY="6" viewBox="0 0 12 12"><g id="g-markerstartarrow000" transform="rotate(180 6 6)"><g transform="rotate(180 6 6)"><rect y="5.4" width="2" height="1.2" style="stroke:#fff"/><polygon points="12 11 0 6 12 1" stroke-width="0"/></g></g></marker><marker id="mea" markerHeight="12" markerWidth="12" orient="auto" preserveAspectRatio="none" refX="12" refY="6" viewBox="0 0 12 12"><g id="g-mea" transform=""><g transform="rotate(180 6 6)"><rect y="5.4" width="2" height="1.2" style="stroke:#fff"/><polygon points="12 11 0 6 12 1" stroke-width="0"/></g></g></marker></g></defs><g id="viewport-20220102141323939" class="svg-pan-zoom_viewport" transform="matrix(0.85 0 0 0.85 207.74 9.30e-6)" style="transform:matrix(0.85, 0, 0, 0.85, 207.74, 9.30e-06)"><style>svg.Diagram {font-family: 'Liberation Sans', Arial, sans-serif; }.Diagram path {fill: transparent;stroke: #000;marker-end: url(#mea);}.Diagram symbol path {fill: inherit;stroke: inherit;stroke-width: inherit;marker-end: inherit;}.Diagram rect {fill: #fff;stroke: #000;}.Diagram text {dominant-baseline: central;overflow: hidden;text-anchor: middle;fill: #000;font-size: 10px;}</style><style type="text/css">.Viewport .textContent {
  pointer-events: none;
  stroke-width: 0px;
}

					.Viewport.Icon {
  fill: white;
}

/* Hide the InfoBox */
.Viewport.textContent {
  font-size: 0;
}

.textContent {
  stroke: none;
}

.DataNode {
  stroke-miterlimit: 1;
  pointer-events: auto;
}

.DataNode:hover {
  cursor: pointer;
}

/* TODO should this apply to things other than DataNodes? */
.DataNode.textContent {
  pointer-events: none;
}

.DataNode.Highlighted {
  opacity: 0.6;
  stroke-width: 0px;
}

marker {
  /* this is what should work per the spec
  stroke-dasharray: none; */
  /* but I need to add this to make it work in Safari */
  stroke-dasharray: 9999999999999999999999999;
}

.Citation.Icon {
  fill: none;
  stroke-width: 0px;
}

.Citation.textContent {
  text-align: center;
  vertical-align: top;
  font-size: 7px;
  fill: #999;
  fill-opacity: 1;
  stroke: none;
}</style><g id="WP2864" class="Pathway http___identifiers_org_pw_PW_0000009 http___identifiers_org_pw_PW_0000605 Viewport"  name="Name: Apoptosis-related network due to altered Notch3 in ovarian cancer Organism: Homo sapiens" ><g class="Pathway http___identifiers_org_pw_PW_0000009 http___identifiers_org_pw_PW_0000605 Viewport"><rect   width="925.17" height="788.94" style="stroke:none"/><g id="id7a39e0a5" class="Edge"  ><path    d="m547.42 85.69-57.62 45" style="marker-end:none"/></g><g id="id36a39608" class="Edge"  ><path    d="m453.3 303.69 12.5-70.22" style="marker-end:none"/></g><g id="idfccde1c2" class="Edge"  ><path    d="m453.3 303.69 36.5-153"/></g><g id="ide07a98db" class="Edge"  ><path    d="m465.8 233.47 74.5 70.22" style="marker-end:none"/></g><g id="id1f1a0860" class="Edge"  ><path    d="m484.17 313.69h28" style="marker-end:none"/></g><g id="id66006b5c" class="Edge"  ><path    d="m581.8 173.69-41.5 130" style="marker-end:none"/></g><g id="id9bdf3fcd" class="Edge"  ><path    d="m682.42 109.81 28.75 13.88" style="marker-end:none"/></g><g id="id58a7019f" class="Edge"  ><path    d="m656.8 119.69-102.44 184" style="marker-end:none"/></g><g id="id8a486066" class="Edge"  ><path    d="m738.3 133.69-183.94 170" style="marker-end:none"/></g><g id="iddc8caa01" class="Edge"  ><path    d="m765.42 123.69 24.75 6" style="marker-end:none"/></g><g id="id6c9efe41" class="Edge"  ><path    d="m800.17 216.69-266.75 180" style="marker-end:none"/></g><g id="id7476a61f" class="Edge"  ><path    d="m644.8 277.69-138 109" style="marker-end:none"/></g><g id="id2484fa0a" class="Edge"  ><path    d="m615.42 267.69-162.13 36" style="marker-end:none"/></g><g id="id43f7aa98" class="Edge"  ><path    d="m644.8 277.69v101" style="marker-end:none"/></g><g id="idc0828680" class="Edge"  ><path    d="m787.17 285.69-253.75 111" style="marker-end:none"/></g><g id="id7c3d3612" class="Edge"  ><path    d="m568.42 313.69 105.75 18" style="marker-end:none"/></g><g id="idccd5de48" class="Edge"  ><path    d="m698.17 341.69 38.12 50" style="marker-end:none"/></g><g id="idf6bfff90" class="Edge"  ><path    d="m666.42 388.69 44.75 13" style="marker-end:none"/></g><g id="ida9cf1e11" class="Edge"  ><path    d="m736.3 411.69-56.5 146" style="marker-end:none"/></g><g id="id8f3016fc" class="Edge"  ><path    d="m679.8 557.69 61.5-62"/></g><g id="id6130e8de" class="Edge"  ><path    d="m547.42 543.69 162.75-58"/></g><g id="id62d1bd00" class="Edge"  ><path    d="m506.8 406.69 94 67" style="marker-end:none"/></g><g id="id5c9de1cf" class="Edge"  ><path    d="m644.8 398.69-123.38 70"/></g><g id="ida8af3f8d" class="Edge"  ><path    d="m518.8 533.69 82-40"/></g><g id="id890b15d8" class="Edge"  ><path    d="m648.17 567.69-100.75-24"/></g><g id="idf5a8dab6" class="Edge"  ><path    d="m417.42 413.69 62.75-17" style="marker-end:none"/></g><g id="id62fe4894" class="Edge"  ><path    d="m393.3 423.69 96.88 120"/></g><g id="id9b01c618" class="Edge"  ><path    d="m347.42 348.69 275.75 40" style="marker-end:none"/></g><g id="idf27f13f6" class="Edge"  ><path    d="m393.3 403.69 147-80"/></g><g id="idb7238b58" class="Edge"  ><path    d="m506.8 386.69-53.5-63"/></g><g id="ided0bb78b" class="Edge"  ><path    d="m400.42 309.69 79.75 87"/></g><g id="ida8acc83a" class="Edge"  ><path    d="m333.42 460.69 146.75-64"/></g><g id="id32639623" class="Edge"  ><path    d="m856.17 574.94-52-17"/></g><g id="id563e2f6c" class="Edge"  ><path    d="m612.61 493.69 150.56 64.25"/></g><g id="id58ee4287" class="Edge"  ><path    d="m600.8 493.69-0.62 92.25" style="marker-end:none"/></g><g id="ide3a76c59" class="Edge"  ><path    d="m625.17 595.94 95 33"/></g><g id="idf28ff662" class="Edge"  ><path    d="m625.17 595.94 71 70.5"/></g><g id="id20cb3258" class="Edge"  ><path    d="m518.8 553.69 126.88 146.25"/></g><g id="id2ad78e39" class="Edge"  ><path    d="m518.8 553.69 68.88 32.25"/></g><g id="id34b99ba8" class="Edge"  ><path    d="m518.8 553.69 14.38 165.25"/></g><g id="ide25e46cb" class="Edge"  ><path    d="m518.8 553.69 58.88 134.25" style="marker-end:none"/></g><g id="idc91a7056" class="Edge"  ><path    d="m456.67 624.94 15.5 93" style="marker-end:none"/></g><g id="id26d77117" class="Edge"  ><path    d="m575.17 595.94-96 19"/></g><g id="ide8025edb" class="Edge"  ><path    d="m456.67 624.94-57 95" style="marker-end:none"/></g><g id="ide1efa391" class="Edge"  ><path    d="m401.17 601.94 33 13"/></g><g id="ideec00085" class="Edge"  ><path    d="m389.42 591.94 100.75-48.25"/></g><g id="id6e1be64e" class="Edge"  ><path    d="m324.17 587.94 30 14" style="marker-end:none"/></g><g id="idca0ae59" class="Edge"  ><path    d="m307.3 470.69-6.12 107.25"/></g><g id="id2de0ae2f" class="Edge"  ><path    d="m268.17 506.94 222 36.75"/></g><g id="idbaa3dc3" class="Edge"  ><path    d="m247.17 496.94 47.06-26.25"/></g><g id="idf0ae3ddd" class="Edge"  ><path    d="m381.67 511.94 75 93"/></g><g id="id7cca9b0f" class="Edge"  ><path    d="m393.3 423.69-11.62 68.25" style="marker-end:none"/></g><g id="id5c808223" class="Edge"  ><path    d="m322.8 358.69 58.88 133.25" style="marker-end:none"/></g><g id="id88202de2" class="Edge"  ><path    d="m301.17 597.94-37.59 95" style="marker-end:none"/></g><g id="id6130238d" class="Edge"  ><path    d="m263.59 712.94 26 26" style="marker-end:none"/></g><g id="idd1dd67a8" class="Edge"  ><path    d="m237 702.94-45 23.56" style="marker-end:none"/></g><g id="id1954830" class="Edge"  ><path    d="m301.17 597.94-54 45" style="marker-end:none"/></g><g id="idec318524" class="Edge"  ><path    d="m219.17 601.94 137-100"/></g><g id="id30cb66ee" class="Edge"  ><path    d="m183 563 173.17-61.06" style="marker-end:none"/></g><g id="idd0ef8836" class="Edge"  ><path    d="m157.5 573-56.5 37" style="marker-end:none"/></g><g id="id90848656" class="Edge"  ><path    d="m294.24 470.69-65.24-18.69"/></g><g id="id9c282c57" class="Edge"  ><path    d="m210.5 390-6.5 52"/></g><g id="idba3051e5" class="Edge"  ><path    d="m210.5 390 83.74 60.69" style="marker-end:none"/></g><g id="id9ddef89c" class="Edge"  ><path    d="m235 380 134.17 33.69"/></g><g id="ida38c98a1" class="Edge"  ><path    d="m307.3 450.69 61.88-37" style="marker-end:none"/></g><g id="id94451a1d" class="Edge"  ><path    d="m393.3 403.69 60-80" marker-start="url(#markerstartarrow000)" style="marker-end:none"/></g><g id="idb90ba294" class="Edge"  ><path    d="m211 263-0.5 107"/></g><g id="idaa28680e" class="Edge"  ><path    d="m288.5 214-78 156" style="marker-end:none"/></g><g id="id9019097f" class="Edge"  ><path    d="m261 204-50 39"/></g><g id="id52de2750" class="Edge"  ><path    d="m344 182-28 22" style="marker-end:none"/></g><g id="idaa0226c8" class="Edge"  ><path    d="m288.5 214 21.99 124.69" style="marker-end:none"/></g><g id="id1ec4b854" class="Edge"  ><path    d="m366.5 192-43.70 146.69" style="marker-end:none"/></g><g id="idc9d78b34" class="Edge"  ><path    d="m437.86 303.69-121.86-99.69"/></g><g id="ideab043f6" class="Edge"  ><path    d="m380.8 299.69-78.55-85.69"/></g><g id="id88035a64" class="Edge"  ><path    d="m390 104 47.86 199.69" style="marker-end:none"/></g><g id="id7817d944" class="Edge"  ><path    d="m437.86 303.69-10.86-253.69"/></g><g id="ac5c8" class="GeneProduct " transform="translate(361.17 299.69)"  name="NET1" ><rect   width="39.25" height="20"/><text   transform="translate(19.62,10)"    >NET1</text></g><g id="c20ab" class="GeneProduct " transform="translate(281.17 450.69)"  name="ERBB3" ><rect   width="52.25" height="20"/><text   transform="translate(26.12,10)"    >ERBB3</text></g><g id="e6d07" class="GeneProduct " transform="translate(763.17 547.94)"  name="TNF" ><rect   width="41" height="20"/><text   transform="translate(20.5,10)"    >TNF</text></g><g id="daa61" class="GeneProduct " transform="translate(372.17 719.94)"  name="SERBP1" ><rect   width="55" height="20"/><text   transform="translate(27.5,10)"    >SERBP1</text></g><g id="b49e0" class="GeneProduct " transform="translate(141,717)"  name="APOE" ><rect   width="51" height="19"/><text   transform="translate(25.5,9.5)"    >APOE</text></g><g id="fddaf" class="GeneProduct " transform="translate(344,172)"  name="CUL5" ><rect   width="45" height="20"/><text   transform="translate(22.5,10)"    >CUL5</text></g><g id="f44a2" class="GeneProduct " transform="translate(362,84)"  name="SQSTM1" ><rect   width="56" height="20"/><text   transform="translate(28,10)"    >SQSTM1</text></g><g id="abd6e" class="GeneProduct " transform="translate(392,30)"  name="TNFRSF10B" ><rect   width="70" height="20"/><text   transform="translate(35,10)"    >TNFRSF10B</text></g><g id="f5d1a" class="GeneProduct " transform="translate(787.17 275.69)"  name="RIPK2" ><rect   width="52.25" height="20"/><text   transform="translate(26.12,10)"    >RIPK2</text></g><g id="eb005" class="GeneProduct " transform="translate(623.17 378.69)"  name="CUL1" ><rect   width="43.25" height="20"/><text   transform="translate(21.62,10)"    >CUL1</text></g><g id="d2db4" class="GeneProduct " transform="translate(615.42 257.69)"  name="CDKN1A" ><rect   width="58.75" height="20"/><text   transform="translate(29.38,10)"    >CDKN1A</text></g><g id="a322e" class="GeneProduct " transform="translate(480.17 386.69)"  name="AKT1" ><rect   width="53.25" height="20"/><text   transform="translate(26.62,10)"    >AKT1</text></g><g id="abdf6" class="GeneProduct " transform="translate(800.17 206.69)"  name="HSPB1" ><rect   width="50.25" height="20"/><text   transform="translate(25.12,10)"    >HSPB1</text></g><g id="e499e" class="GeneProduct " transform="translate(790.17 119.69)"  name="CTNNA1" ><rect   width="52.25" height="20"/><text   transform="translate(26.12,10)"    >CTNNA1</text></g><g id="e1cc0" class="GeneProduct " transform="translate(711.17 113.69)"  name="HSPD1" ><rect   width="54.25" height="20"/><text   transform="translate(27.12,10)"    >HSPD1</text></g><g id="cbdc4" class="GeneProduct " transform="translate(554.17 153.69)"  name="HELLS" ><rect   width="55.25" height="20"/><text   transform="translate(27.62,10)"    >HELLS</text></g><g id="c1b4d" class="GeneProduct " transform="translate(631.17 99.94)"  name="ANXA5" ><rect   width="51.25" height="19.75"/><text   transform="translate(25.62,9.88)"    >ANXA5</text></g><g id="a9ba2" class="GeneProduct " transform="translate(512.17 303.69)"  name="HDAC1" ><rect   width="56.25" height="20"/><text   transform="translate(28.12,10)"    >HDAC1</text></g><g id="efea1" class="GeneProduct " transform="translate(422.42 303.69)"  name="NFKB1" ><rect   width="61.75" height="20"/><text   transform="translate(30.88,10)"    >NFKB1</text></g><g id="b53b7" class="Protein " transform="translate(438.17 213.47)"  name="BCL3" ><rect   width="55.25" height="20"/><text   transform="translate(27.62,10)"    >BCL3</text></g><g id="acb05" class="GeneProduct " transform="translate(463.17 130.69)"  name="TRAF1" ><rect   width="53.25" height="20"/><text   transform="translate(26.62,10)"    >TRAF1</text></g><g id="b494a" class="GeneProduct " transform="translate(507.42 65.69)"  name="NGFRAP1" ><rect   width="80" height="20"/><text   transform="translate(40,10)"    >NGFRAP1</text></g><g id="b56cf" class="GeneProduct " transform="translate(298.17 338.69)"  name="RNF7" ><rect   width="49.25" height="20"/><text   transform="translate(24.62,10)"    >RNF7</text></g><g id="d1dee" class="GeneProduct " transform="translate(369.17 403.69)"  name="PTK2" ><rect   width="48.25" height="20"/><text   transform="translate(24.12,10)"    >PTK2</text></g><g id="efb08" class="GeneProduct " transform="translate(577.17 473.69)"  name="ETS1" ><rect   width="47.25" height="20"/><text   transform="translate(23.62,10)"    >ETS1</text></g><g id="a37dd" class="GeneProduct " transform="translate(490.17 533.69)"  name="MAPK1" ><rect   width="57.25" height="20"/><text   transform="translate(28.62,10)"    >MAPK1</text></g><g id="af404" class="GeneProduct " transform="translate(459.17 458.69)"  name="CDKN1B" ><rect   width="62.25" height="20"/><text   transform="translate(31.12,10)"    >CDKN1B</text></g><g id="e5079" class="GeneProduct " transform="translate(710.17 475.69)"  name="RPS6KB1" ><rect   width="62.25" height="20"/><text   transform="translate(31.12,10)"    >RPS6KB1</text></g><g id="fcb5a" class="GeneProduct" transform="translate(648.17 557.69)"  name="PPP2GB" ><rect   width="63.25" height="20"/><text   transform="translate(31.62,10)"    >PPP2GB</text></g><g id="b2022" class="GeneProduct " transform="translate(711.17 391.69)"  name="AXIN1" ><rect   width="50.25" height="20"/><text   transform="translate(25.12,10)"    >AXIN1</text></g><g id="e356e" class="GeneProduct " transform="translate(674.17 321.69)"  name="SMAD7" ><rect   width="48" height="20"/><text   transform="translate(24,10)"    >SMAD7</text></g><g id="aa313" class="Edge"  ><path    d="m533.42 396.69 176.75 89"/></g><g id="dd7e6" class="Edge"  ><path    d="m506.8 406.69-16.5 52" style="marker-end:none"/></g><g id="c802d" class="GeneProduct " transform="translate(434.17 604.94)"  name="VIM" ><rect   width="45" height="20"/><text   transform="translate(22.5,10)"    >VIM</text></g><g id="e7809" class="GeneProduct " transform="translate(451.17 717.94)"  name="PKN1" ><rect   width="42" height="20"/><text   transform="translate(21,10)"    >PKN1</text></g><g id="e1ba7" class="GeneProduct " transform="translate(513.17 718.94)"  name="IER3" ><rect   width="40" height="20"/><text   transform="translate(20,10)"    >IER3</text></g><g id="cd31a" class="GeneProduct " transform="translate(557.17 687.94)"  name="CSDA" ><rect   width="41" height="20"/><text   transform="translate(20.5,10)"    >CSDA</text></g><g id="cb4cc" class="GeneProduct " transform="translate(619.17 699.94)"  name="CARD14" ><rect   width="53" height="20"/><text   transform="translate(26.5,10)"    >CARD14</text></g><g id="f3151" class="GeneProduct " transform="translate(696.17 656.94)"  name="NQO1" ><rect   width="48" height="19"/><text   transform="translate(24,9.5)"    >NQO1</text></g><g id="b5fa7" class="GeneProduct " transform="translate(720.17 618.94)"  name="GCLC" ><rect   width="47" height="20"/><text   transform="translate(23.5,10)"    >GCLC</text></g><g id="e2f89" class="GeneProduct " transform="translate(575.17 585.94)"  name="JUND" ><rect   width="50" height="20"/><text   transform="translate(25,10)"    >JUND</text></g><g id="ea18b" class="GeneProduct " transform="translate(856.17 564.94)"  name="F2R" ><rect   width="39" height="20"/><text   transform="translate(19.5,10)"    >F2R</text></g><g id="e9859" class="GeneProduct " transform="translate(168 591.94)"  name="BIRC5" ><rect   width="51.17" height="20"/><text   transform="translate(25.59 10)"    >BIRC5</text></g><g id="e8742" class="GeneProduct " transform="translate(196 632.94)"  name="THBS1" ><rect   width="51.17" height="20"/><text   transform="translate(25.59 10)"    >THBS1</text></g><g id="ecab9" class="GeneProduct " transform="translate(257 738.94)"  name="TNFRSF21" ><rect   width="65.17" height="20"/><text   transform="translate(32.59 10)"    >TNFRSF21</text></g><g id="fe12b" class="GeneProduct " transform="translate(237 692.94)"  name="APP" ><rect   width="53.17" height="20"/><text   transform="translate(26.59 10)"    >APP</text></g><g id="e11b9" class="GeneProduct " transform="translate(356.17 491.94)"  name="CASP7" ><rect   width="51" height="20"/><text   transform="translate(25.5,10)"    >CASP7</text></g><g id="f6810" class="GeneProduct " transform="translate(226.17 496.94)"  name="NRG1" ><rect   width="42" height="20"/><text   transform="translate(21,10)"    >NRG1</text></g><g id="d9514" class="GeneProduct " transform="translate(278.17 577.94)"  name="ABL1" ><rect   width="46" height="20"/><text   transform="translate(23,10)"    >ABL1</text></g><g id="bdf56" class="GeneProduct " transform="translate(354.17 591.94)"  name="PAK2" ><rect   width="47" height="20"/><text   transform="translate(23.5,10)"    >PAK2</text></g><g id="c81f6" class="GeneProduct " transform="translate(261,194)"  name="SOCS3" ><rect   width="55" height="20"/><text   transform="translate(27.5,10)"    >SOCS3</text></g><g id="c8e66" class="GeneProduct " transform="translate(186,243)"  name="IL7R" ><rect   width="50" height="20"/><text   transform="translate(25,10)"    >IL7R</text></g><g id="a0c19" class="GeneProduct " transform="translate(186,370)"  name="PTK2B" ><rect   width="49" height="20"/><text   transform="translate(24.5,10)"    >PTK2B</text></g><g id="ab42e" class="GeneProduct " transform="translate(179,442)"  name="VAV3" ><rect   width="50" height="20"/><text   transform="translate(25,10)"    >VAV3</text></g><g id="a3141" class="GeneProduct " transform="translate(77,610)"  name="ERN1" ><rect   width="48" height="20"/><text   transform="translate(24,10)"    >ERN1</text></g><g id="a4da1" class="GeneProduct " transform="translate(132,553)"  name="HSPA5" ><rect   width="51" height="20"/><text   transform="translate(25.5,10)"    >HSPA5</text></g></g></g></g></svg>