<?xml version="1.0" encoding="UTF-8"?>
<svg xmlns="http://www.w3.org/2000/svg" id="-svg" class="Diagram"  baseProfile="full" prefix="schema:http://schema.org/" preserveAspectRatio="xMidYMid"  version="1.1"><defs><g id="filter-defs"><filter id="doublefalse3filter" x="-50%" y="-50%" width="200%" height="200%"><feComposite in="SourceGraphic" in2="SourceGraphic" result="doubleDark"/><feMorphology in="doubleDark" operator="dilate" radius="0.17" result="in2Double"/><feMorphology in="SourceGraphic" operator="dilate" radius="3" result="inDouble"/><feComposite in="inDouble" in2="in2Double" operator="out" result="doubleResult"/></filter></g><g id="icon-defs"><symbol id="Octagon" class=" Icon Octagon" x="0" y="0" overflow="visible" preserveAspectRatio="none" viewBox="0 0 100 100"><desc>Octagon</desc><path d="m0 25 25-25h50l25 25v50l-25 25h-50l-25-25z" vector-effect="non-scaling-stroke"/></symbol></g><g id="marker-defs"><marker id="markerstartarrow000" markerHeight="12" markerWidth="12" orient="auto" preserveAspectRatio="none" refY="6" viewBox="0 0 12 12"><g id="g-markerstartarrow000" transform="rotate(180 6 6)"><g transform="rotate(180 6 6)"><rect y="5.4" width="2" height="1.2" style="stroke:#fff"/><polygon points="12 11 0 6 12 1" stroke-width="0"/></g></g></marker><marker id="mea" markerHeight="12" markerWidth="12" orient="auto" preserveAspectRatio="none" refX="12" refY="6" viewBox="0 0 12 12"><g id="g-mea" transform=""><g transform="rotate(180 6 6)"><rect y="5.4" width="2" height="1.2" style="stroke:#fff"/><polygon points="12 11 0 6 12 1" stroke-width="0"/></g></g></marker><marker id="markerendtbar000" markerHeight="20" markerWidth="10" orient="auto" preserveAspectRatio="none" refX="10" refY="10" viewBox="0 0 10 20"><g id="g-markerendtbar000" transform=""><g transform="rotate(180 5 10)"><rect y="9" width="8" height="2" style="stroke:none"/><line x="0" y="0" width="12" height="12" x1="7" x2="7" y2="20" stroke="#000" stroke-width="1.8"/></g></g></marker></g></defs><g id="viewport-20220102141333446" class="svg-pan-zoom_viewport" transform="matrix(0.91 0 0 0.91 257.97 0)" style="transform:matrix(0.91, 0, 0, 0.91, 257.97, 0)"><style>svg.Diagram {font-family: 'Liberation Sans', Arial, sans-serif; }.Diagram path {fill: transparent;stroke: #000;marker-end: url(#mea);}.Diagram symbol path {fill: inherit;stroke: inherit;stroke-width: inherit;marker-end: inherit;}.Diagram rect {fill: #fff;stroke: #000;}.Diagram text {dominant-baseline: central;overflow: hidden;text-anchor: middle;fill: #000;font-size: 10px;}</style><style type="text/css">.Viewport .textContent {
  pointer-events: none;
  stroke-width: 0px;
}

					.Viewport.Icon {
  fill: white;
}

/* Hide the InfoBox */
.Viewport.textContent {
  font-size: 0;
}

.textContent {
  stroke: none;
}

.DataNode {
  stroke-miterlimit: 1;
  pointer-events: auto;
}

.DataNode:hover {
  cursor: pointer;
}

/* TODO should this apply to things other than DataNodes? */
.DataNode.textContent {
  pointer-events: none;
}

.DataNode.Highlighted {
  opacity: 0.6;
  stroke-width: 0px;
}

marker {
  /* this is what should work per the spec
  stroke-dasharray: none; */
  /* but I need to add this to make it work in Safari */
  stroke-dasharray: 9999999999999999999999999;
}

.Citation.Icon {
  fill: none;
  stroke-width: 0px;
}

.Citation.textContent {
  text-align: center;
  vertical-align: top;
  font-size: 7px;
  fill: #999;
  fill-opacity: 1;
  stroke: none;
}</style><g id="WP2873" class="Pathway http___identifiers_org_pw_PW_0000004 http___identifiers_org_pw_PW_0000370 Viewport"  name="Name: Aryl hydrocarbon receptor pathway Organism: Homo sapiens" ><g class="Pathway http___identifiers_org_pw_PW_0000004 http___identifiers_org_pw_PW_0000370 Viewport"><rect   width="754" height="787" style="stroke:none"/><g id="b6f14" class=" PhysicalEntity CellularComponent Nucleus" transform="translate(67.5,373.5)"  ><g class=" PhysicalEntity CellularComponent Nucleus" filter="url(#doublefalse3filter)"><g class=" PhysicalEntity CellularComponent Nucleus"><rect   transform="matrix(0.98 0 0 0.97 5.89 5.81)" width="622" height="361" rx="15" ry="15" stroke-width="3" style="fill:transparent;stroke:#c0c0c0"/></g></g></g><g id="a4cbf" class=" PhysicalEntity CellularComponent Cell" transform="translate(46.5,117.5)"  ><g class=" PhysicalEntity CellularComponent Cell" filter="url(#doublefalse3filter)"><g class=" PhysicalEntity CellularComponent Cell"><rect   transform="matrix(0.98 0 0 0.98 5.90 5.89)" width="679" height="641" rx="15" ry="15" stroke-width="3" style="fill:transparent;stroke:#c0c0c0"/></g></g></g><g id="ce2dd" class="Edge"  ><path    d="m370.3 602.55h-261.12" style="marker-end:none"/></g><g id="ida62b6619" class="Edge"  ><path    d="m429.39 236.33-0.33 35.86" stroke-dasharray="5,3"/></g><g id="idcf99fdfc" class="Edge"  ><path    d="m242.11 90.00-82.31 126.88"/></g><g id="id91a42556" class="Edge"  ><path    d="m129.8 258.89v27.52"/><g id="cac90" class="AB" transform="translate(129.8 268.71)"  ><g class="AB"/></g></g><g id="id4ddfb744" class="Edge"  ><path    d="m183.45 350.94-53.65 11.19" style="marker-end:none"/></g><g id="id8fd73907" class="Edge"  ><path    d="m459.06 314.19 87-224.19" stroke-dasharray="5,3"/></g><g id="id14d4e40c" class="Edge"  ><path    d="m663.92 278.31v37.23"/></g><g id="id662a5a46" class="Edge"  ><path    d="m663.92 335.53v89.35h-23.38" style="marker-end:url(#markerendtbar000)"/></g><g id="id6936389" class="Edge"  ><path    d="m663.92 335.53v129.35h-23.38"/></g><g id="idedb62ccb" class="Edge"  ><path    d="m129.8 490.74v24.05"/></g><g id="id312942d2" class="Edge"  ><path    d="m129.8 268.71 122.61 0.16"/></g><g id="ida5e90e14" class="Edge"  ><path    d="m320.4 314.86 78.65-0.68"/></g><g id="a0315" class="Label" transform="translate(401.11 391)"  name="Other" ><g class="Label"/><text   transform="translate(40,10)"    >Other</text></g><g id="af2bd" class="Label" transform="translate(565.19 568.49)"  name="Phase 2  metabolism" ><g class="Label"/><text   transform="translate(45.36 11.62)"    ><tspan   x="0" y="-5.5">Phase 2 </tspan><tspan   x="0" y="5.5">metabolism</tspan></text></g><g id="bdaf9" class="Label" transform="translate(325.5 529.45)"  name="Transcription" ><g class="Label"/><text   transform="translate(33.47 10)"    >Transcription</text></g><g id="c3a7a" class="Label" transform="translate(556.92 387.74)"  name="Drug and steroid  metabolism" ><g class="Label"/><text   transform="translate(53.63 13.27)"    ><tspan   x="0" y="-5.5">Drug and steroid </tspan><tspan   x="0" y="5.5">metabolism</tspan></text></g><g id="dadc4" class="Label" transform="translate(486.54 595.64)"  name="Transcription factors" ><g class="Label"/><text   transform="translate(40,10)"    ><tspan   x="0" y="-5.5">Transcription</tspan><tspan   x="0" y="5.5">factors</tspan></text></g><g id="eca80" class="Label" transform="translate(390.24 552.18)"  name="Cell proliferation  and differentiation" ><g class="Label"/><text   transform="translate(50.87 10)"    ><tspan   x="0" y="-5.5">Cell proliferation </tspan><tspan   x="0" y="5.5">and differentiation</tspan></text></g><g id="fb95e" class="Label" transform="translate(486.54 391)"  name="Inflammation" ><g class="Label"/><text   transform="translate(40,10)"    >Inflammation</text></g><g id="fdebf" class="GroupGroup" transform="translate(201.76 504.62)"  ><g class="GroupGroup"><g id="d0c8e" class="Label" transform="translate(8,8)"  name="Co-activators" ><g class="Label"/><text   transform="translate(39.58 11.20)"    >Co-activators</text></g><g id="bf828" class="GeneProduct " transform="translate(17.58 50.41)"  name="EP300" ><rect   width="60" height="20"/><text   transform="translate(30,10)"    >EP300</text></g><g id="d4b56" class="GeneProduct " transform="translate(17.58 30.41)"  name="NCOA1" ><rect   width="60" height="20"/><text   transform="translate(30,10)"    >NCOA1</text></g></g></g><g id="ae7a3" class="Pathway" transform="translate(613.92 258.31)"  name="EGFR pathway" ><g class="Pathway"/><g ><defs><clipPath ><rect x="-50" y="-10" width="100" height="20" style="stroke:none"/></clipPath></defs><text   transform="translate(50,10)"    font-weight="bold"  style="fill:#14961e;font-size:12px">EGFR pathway</text></g></g><g id="c2ae7" class="GroupGroup" transform="translate(252.4 204.86)"  ><g class="GroupGroup"><g id="e0aed" class="GeneProduct " transform="translate(8,8)"  name="HSP90AA1" ><rect   width="60" height="20"/><text   transform="translate(30 10)"    >HSP90AA1</text></g><g id="d8ee4" class="GeneProduct " transform="translate(8 71)"  name="AIP" ><rect   width="60" height="20"/><text   transform="translate(30 10)"    >AIP</text></g><g id="d3a1a" class="GeneProduct " transform="translate(8 100)"  name="SRC" ><rect   width="60" height="20"/><text   transform="translate(30 10)"    >SRC</text></g><g id="fdfd5" class="GeneProduct " transform="translate(8 42.09)"  name="PTGES3" ><rect   width="60" height="20"/><text   transform="translate(30 10)"    >PTGES3</text></g></g></g><g id="b5e72" class="Metabolite " transform="translate(212.11 70.00)"  name="Ligand" ><rect   width="60" height="20" style="stroke:#00f"/><text   transform="translate(30,10)"     style="fill:#00f">Ligand</text></g><g id="c056e" class="GroupComplex" transform="translate(87.80 134.89)"  ><g class="GroupComplex"><use class="Icon" width="84" height="124.00" fill="#b4b464" fill-opacity=".1" stroke="grey" href="#Octagon"/><g id="a9692" class="GeneProduct " transform="translate(12 92)"  name="SRC" ><rect   width="60" height="20"/><text   transform="translate(30 10)"    >SRC</text></g><g id="eb5fc" class="GeneProduct " transform="translate(12 32)"  name="AIP" ><rect   width="60" height="20"/><text   transform="translate(30 10)"    >AIP</text></g><g id="e3da1" class="GeneProduct " transform="translate(12 72)"  name="AHR" ><rect   width="60" height="20"/><text   transform="translate(30 10)"    >AHR</text></g><g id="cc6cc" class="GeneProduct " transform="translate(12,12)"  name="HSP90AA1" ><rect   width="60" height="20"/><text   transform="translate(30,10)"    >HSP90AA1</text></g><g id="c072f" class="GeneProduct " transform="translate(12 52)"  name="PTGES3" ><rect   width="60" height="20"/><text   transform="translate(30 10)"    >PTGES3</text></g></g></g><g id="a676f" class="GeneProduct " transform="translate(531.06 70.00)"  name="EGFR" ><rect   width="60" height="20"/><text   transform="translate(30,10)"    >EGFR</text></g><g id="a3178" class="GeneProduct " transform="translate(633.92 315.53)"  name="TNF" ><rect   width="60" height="20"/><text   transform="translate(30,10)"    >TNF</text></g><g id="dda0d" class="GroupComplex" transform="translate(87.80 406.74)"  ><g class="GroupComplex"><use class="Icon" width="84" height="84.00" fill="#b4b464" fill-opacity=".1" stroke="grey" href="#Octagon"/><g id="d6cb1" class="GeneProduct " transform="translate(12 52)"  name="ARNT" ><rect   width="60" height="20"/><text   transform="translate(30,10)"    >ARNT</text></g><g id="b5896" class="GeneProduct " transform="translate(12,32)"  name="AHR" ><rect   width="60" height="20"/><text   transform="translate(30,10)"    >AHR</text></g><g id="c644d" class="Metabolite " transform="translate(12,12)"  name="Ligand" ><rect   width="60" height="20" style="stroke:#00f"/><text   transform="translate(30,10)"     style="fill:#00f">Ligand</text></g></g></g><g id="cf024" class="GeneProduct " transform="translate(399.39 216.33)"  name="CDC37" ><rect   width="60" height="20"/><text   transform="translate(30,10)"    >CDC37</text></g><g id="f0e04" class="GeneProduct " transform="translate(183.45 340.94)"  name="ARNT" ><rect   width="60" height="20"/><text   transform="translate(30,10)"    >ARNT</text></g><g id="bb8b3" class="GroupComplex" transform="translate(387.06 272.19)"  ><g class="GroupComplex"><use class="Icon" width="84.00" height="64.00" fill="#b4b464" fill-opacity=".1" stroke="grey" href="#Octagon"/><g id="b8f15" class="GeneProduct " transform="translate(12 32)"  name="SRC" ><rect   width="60" height="20"/><text   transform="translate(30 10)"    >SRC</text></g><g id="a8d4a" class="GeneProduct " transform="translate(12,12)"  name="CDC37" ><rect   width="60" height="20"/><text   transform="translate(30,10)"    >CDC37</text></g></g></g><g id="ea580" class="GroupComplex" transform="translate(87.80 286.4)"  ><g class="GroupComplex"><use class="Icon" width="84" height="64.00" fill="#b4b464" fill-opacity=".1" stroke="grey" href="#Octagon"/><g id="ff908" class="GeneProduct " transform="translate(12 32)"  name="AHR" ><rect   width="60" height="20"/><text   transform="translate(30,10)"    >AHR</text></g><g id="a0be9" class="Metabolite " transform="translate(12,12)"  name="Ligand" ><rect   width="60" height="20" style="stroke:#00f"/><text   transform="translate(30,10)"     style="fill:#00f">Ligand</text></g></g></g><g id="d2236" class="Edge"  ><path    d="m129.8 338.4v68.33"/><g id="d7d9b" class="AB" transform="translate(129.8 348.66)"  ><g class="AB"/></g><g id="db26a" class="AB" transform="translate(129.8 362.13)"  ><g class="AB"/></g></g><g id="f3515" class="GroupComplex" transform="translate(87.80 514.79)"  ><g class="GroupComplex"><use class="Icon" width="84" height="99.75" fill="#b4b464" fill-opacity=".1" stroke="grey" href="#Octagon"/><g id="d8ae5" class="GeneProduct " transform="translate(12,32)"  name="ARNT" ><rect   width="60" height="20"/><text   transform="translate(30,10)"    >ARNT</text></g><g id="a95e0" class="GeneProduct " transform="translate(12 52)"  name="AHR" ><rect   width="60" height="20"/><text   transform="translate(30,10)"    >AHR</text></g><g id="a1377" class="Metabolite " transform="translate(12,12)"  name="Ligand" ><rect   width="60" height="20" style="stroke:#00f"/><text   transform="translate(30,10)"     style="fill:#00f">Ligand</text></g><g id="f4f82" class="Label" transform="translate(17.27 71.92)"  name="XRE" ><rect   width="49.47" height="15.83"/><text   transform="translate(24.73 7.92)"    >XRE</text></g></g></g><g id="a8f30" class="Label" transform="translate(321.39 586.71)"  name="Genes" ><rect   width="49.47" height="15.83"/><text   transform="translate(24.73 7.91)"    >Genes</text></g><g id="c472b" class="Edge"  ><path    d="m561.06 90.00 102.87 168.3"/></g><g id="f3ec2" class="Label" transform="translate(222.15 586.71)"  name="TATA box" ><rect   width="49.47" height="15.83"/><text   transform="translate(24.73 7.92)"    >TATA box</text></g><g id="ff1fe" class="GroupGroup" transform="translate(572.55 586.89)"  ><g class="GroupGroup"><g id="adfa8" class="GeneProduct " transform="translate(8,28)"  name="UGT1A3" ><rect   width="60" height="20"/><text   transform="translate(30,10)"    >UGT1A3</text></g><g id="cd6c4" class="GeneProduct " transform="translate(8,48)"  name="UGT1A4" ><rect   width="60" height="20"/><text   transform="translate(30,10)"    >UGT1A4</text></g><g id="c111c" class="GeneProduct " transform="translate(8,108)"  name="UGT1A9" ><rect   width="60" height="20"/><text   transform="translate(30,10)"    >UGT1A9</text></g><g id="d3eca" class="GeneProduct " transform="translate(8,88)"  name="UGT1A7" ><rect   width="60" height="20"/><text   transform="translate(30,10)"    >UGT1A7</text></g><g id="a7d38" class="GeneProduct " transform="translate(8,68)"  name="UGT1A6" ><rect   width="60" height="20"/><text   transform="translate(30,10)"    >UGT1A6</text></g><g id="e524b" class="GeneProduct " transform="translate(8,8)"  name="UGT1A1" ><rect   width="60" height="20"/><text   transform="translate(30,10)"    >UGT1A1</text></g></g></g><g id="a78f1" class="GroupGroup" transform="translate(403.11 406.89)"  ><g class="GroupGroup"><g id="aa824" class="GeneProduct " transform="translate(8,28)"  name="SLC7A5" ><rect   width="60" height="20"/><text   transform="translate(30,10)"    >SLC7A5</text></g><g id="f64cc" class="GeneProduct " transform="translate(8,68)"  name="MYOF" ><rect   width="60" height="20"/><text   transform="translate(30,10)"    >MYOF</text></g><g id="a428f" class="GeneProduct " transform="translate(8,48)"  name="CAP2" ><rect   width="60" height="20"/><text   transform="translate(30,10)"    >CAP2</text></g><g id="c3e78" class="GeneProduct " transform="translate(8,88)"  name="POLK" ><rect   width="60" height="20"/><text   transform="translate(30,10)"    >POLK</text></g><g id="a3c3b" class="GeneProduct " transform="translate(8,8)"  name="AHRR" ><rect   width="60" height="20"/><text   transform="translate(30,10)"    >AHRR</text></g><g id="ca96b" class="GeneProduct " transform="translate(8,108)"  name="BAX" ><rect   width="60" height="20"/><text   transform="translate(30,10)"    >BAX</text></g></g></g><g id="c8b1a" class="GroupGroup" transform="translate(488.54 406.89)"  ><g class="GroupGroup"><g id="d53fc" class="GeneProduct " transform="translate(8,128)"  name="IFNG" ><rect   width="60" height="20"/><text   transform="translate(30,10)"    >IFNG</text></g><g id="ca011" class="GeneProduct " transform="translate(8,148)"  name="SERPINB2" ><rect   width="60" height="20"/><text   transform="translate(30,10)"    >SERPINB2</text></g><g id="affdb" class="GeneProduct " transform="translate(8,108)"  name="TGFB1" ><rect   width="60" height="20"/><text   transform="translate(30,10)"    >TGFB1</text></g><g id="d1632" class="GeneProduct " transform="translate(8,48)"  name="IL12A" ><rect   width="60" height="20"/><text   transform="translate(30,10)"    >IL12A</text></g><g id="f1fde" class="GeneProduct " transform="translate(8,88)"  name="IL17B" ><rect   width="60" height="20"/><text   transform="translate(30,10)"    >IL17B</text></g><g id="a460d" class="GeneProduct " transform="translate(8,28)"  name="IL1B" ><rect   width="60" height="20"/><text   transform="translate(30,10)"    >IL1B</text></g><g id="bcbe0" class="GeneProduct " transform="translate(8,68)"  name="IL12B" ><rect   width="60" height="20"/><text   transform="translate(30,10)"    >IL12B</text></g><g id="fe59b" class="GeneProduct " transform="translate(8,8)"  name="MGST1" ><rect   width="60" height="20"/><text   transform="translate(30,10)"    >MGST1</text></g></g></g><g id="bde0d" class="GroupGroup" transform="translate(572.55 406.89)"  ><g class="GroupGroup"><g id="c6247" class="GeneProduct " transform="translate(8,128)"  name="CES3" ><rect   width="60" height="20"/><text   transform="translate(30,10)"    >CES3</text></g><g id="a25e3" class="GeneProduct " transform="translate(8,48)"  name="CYP1B1" ><rect   width="60" height="20"/><text   transform="translate(30,10)"    >CYP1B1</text></g><g id="bbd2e" class="GeneProduct " transform="translate(8,108)"  name="ALDH3A1" ><rect   width="60" height="20"/><text   transform="translate(30,10)"    >ALDH3A1</text></g><g id="bb1c4" class="GeneProduct " transform="translate(8,68)"  name="GSTA2" ><rect   width="60" height="20"/><text   transform="translate(30,10)"    >GSTA2</text></g><g id="e47a9" class="GeneProduct " transform="translate(8,88)"  name="NQO1" ><rect   width="60" height="20"/><text   transform="translate(30,10)"    >NQO1</text></g><g id="f0419" class="GeneProduct " transform="translate(8,28)"  name="CYP1A2" ><rect   width="60" height="20"/><text   transform="translate(30,10)"    >CYP1A2</text></g><g id="e0aae" class="GeneProduct " transform="translate(8,8)"  name="CYP1A1" ><rect   width="60" height="20"/><text   transform="translate(30 10)"    >CYP1A1</text></g></g></g><g id="df96f" class="GroupGroup" transform="translate(488.54 611.26)"  ><g class="GroupGroup"><g id="db0f0" class="GeneProduct " transform="translate(8,8)"  name="JUNB" ><rect   width="60" height="20"/><text   transform="translate(30,10)"    >JUNB</text></g><g id="c7cc4" class="GeneProduct " transform="translate(8,28)"  name="NFE2L2" ><rect   width="60" height="20"/><text   transform="translate(30,10)"    >NFE2L2</text></g></g></g><g id="fde92" class="Edge"  ><path    d="m411.11 424.89-163.11 0.11-76.20 139.66" style="marker-end:url(#markerendtbar000)"/></g><g id="d2d14" class="GroupGroup" transform="translate(403.11 568.37)"  ><g class="GroupGroup"><g id="d91e1" class="GeneProduct " transform="translate(8 68)"  name="CDKN1B" ><rect   width="60" height="20"/><text   transform="translate(30,10)"    >CDKN1B</text></g><g id="b19c6" class="GeneProduct " transform="translate(8 108)"  name="JUND" ><rect   width="60" height="20"/><text   transform="translate(30,10)"    >JUND</text></g><g id="ec5a6" class="GeneProduct " transform="translate(8,28)"  name="IGFBP1" ><rect   width="60" height="20"/><text   transform="translate(30,10)"    >IGFBP1</text></g><g id="ed0e5" class="GeneProduct " transform="translate(8 48)"  name="JUN" ><rect   width="60" height="20"/><text   transform="translate(30,10)"    >JUN</text></g><g id="f12e0" class="GeneProduct " transform="translate(8,8)"  name="IL2" ><rect   width="60" height="20"/><text   transform="translate(30,10)"    >IL2</text></g><g id="ebe99" class="GeneProduct " transform="translate(8 88)"  name="HES1" ><rect   width="60" height="20"/><text   transform="translate(30,10)"    >HES1</text></g></g></g><g id="e9b74" class="Edge"  ><path    d="m369.98 586.76h-261.12" style="marker-end:none"/><g id="ab628" class="AB" transform="translate(288 586.76)"  ><g class="AB"/></g></g><g id="b514e" class="Edge"  ><path    d="m325.5 539.45-26.5 0.05-11 47.26" marker-start="url(#markerstartarrow000)" style="marker-end:none"/></g></g></g></g></svg>