<?xml version="1.0" encoding="UTF-8"?>
<svg xmlns="http://www.w3.org/2000/svg" id="-svg" class="Diagram"  baseProfile="full" prefix="schema:http://schema.org/" preserveAspectRatio="xMidYMid"  version="1.1"><defs><g id="icon-defs"><symbol id="HexagonPathVisio" class=" Icon HexagonPathVisio" x="0" y="8" overflow="visible" preserveAspectRatio="none" viewBox="0 8 100 86"><desc>HexagonPathVisio</desc><g transform="scale(1 0.85)"><path d="m1.42 51.00 21.07-42.14h56.19l21.07 42.14-21.07 42.15h-56.19l-21.07-42.15z" stroke="currentColor" vector-effect="non-scaling-stroke"/></g></symbol><symbol id="Octagon" class=" Icon Octagon" x="0" y="0" overflow="visible" preserveAspectRatio="none" viewBox="0 0 100 100"><desc>Octagon</desc><path d="m0 25 25-25h50l25 25v50l-25 25h-50l-25-25z" vector-effect="non-scaling-stroke"/></symbol></g><g id="marker-defs"><marker id="mea" markerHeight="12" markerWidth="12" orient="auto" preserveAspectRatio="none" refX="12" refY="6" viewBox="0 0 12 12"><g id="g-mea" transform=""><g transform="rotate(180 6 6)"><rect y="5.4" width="2" height="1.2" style="stroke:#fff"/><polygon points="12 11 0 6 12 1" stroke-width="0"/></g></g></marker></g></defs><g id="viewport-20220102141627009" class="svg-pan-zoom_viewport" transform="matrix(0.57 0 0 0.57 347.9 0)" style="transform:matrix(0.57, 0, 0, 0.57, 347.90, 0)"><style>svg.Diagram {font-family: 'Liberation Sans', Arial, sans-serif; }.Diagram path {fill: transparent;stroke: #000;marker-end: url(#mea);}.Diagram symbol path {fill: inherit;stroke: inherit;stroke-width: inherit;marker-end: inherit;}.Diagram rect {fill: #fff;stroke: #000;}.Diagram text {dominant-baseline: central;overflow: hidden;text-anchor: middle;fill: #000;font-size: 10px;}</style><style type="text/css">.Viewport .textContent {
  pointer-events: none;
  stroke-width: 0px;
}

					.Viewport.Icon {
  fill: white;
}

/* Hide the InfoBox */
.Viewport.textContent {
  font-size: 0;
}

.textContent {
  stroke: none;
}

.DataNode {
  stroke-miterlimit: 1;
  pointer-events: auto;
}

.DataNode:hover {
  cursor: pointer;
}

/* TODO should this apply to things other than DataNodes? */
.DataNode.textContent {
  pointer-events: none;
}

.DataNode.Highlighted {
  opacity: 0.6;
  stroke-width: 0px;
}

marker {
  /* this is what should work per the spec
  stroke-dasharray: none; */
  /* but I need to add this to make it work in Safari */
  stroke-dasharray: 9999999999999999999999999;
}

.Citation.Icon {
  fill: none;
  stroke-width: 0px;
}

.Citation.textContent {
  text-align: center;
  vertical-align: top;
  font-size: 7px;
  fill: #999;
  fill-opacity: 1;
  stroke: none;
}</style><g id="WP3337" class="Pathway http___identifiers_org_pw_PW_0000003 Viewport"  name="Name: RHO GTPases activate KTN1 Organism: Homo sapiens" ><g class="Pathway http___identifiers_org_pw_PW_0000003 Viewport"><rect   width="882" height="1249" style="stroke:none"/><g id="a9574" class="Reactome_R-HSA-5625959"  ><path    d="m352 228 38-1" style="marker-end:none"/><g id="fa7ef" class="AB" transform="translate(352,228)"  ><g class="AB"/></g><g id="af314" class="AB" transform="translate(389.62 227.01)"  ><g class="AB"/></g></g><g id="aa34d" class="Reactome_R-HSA-5625959"  ><path    d="m313 255 39-27" style="marker-end:none"/></g><g id="aa5c7" class="Reactome_R-HSA-5625959"  ><path    d="m390 227 3-2"/></g><g id="ddbbd" class="Reactome_R-HSA-5672083"  ><path    d="m611 258-2 30" style="marker-end:none"/><g id="c0a93" class="AB" transform="translate(611,258)"  ><g class="AB"/></g><g id="a8351" class="AB" transform="translate(609.02,287.7)"  ><g class="AB"/></g></g><g id="d9e06" class="Reactome_R-HSA-5672083"  ><path    d="m658 204-47 54" style="marker-end:none"/></g><g id="cb56e" class="Reactome_R-HSA-5672083"  ><path    d="m609 288-1 3"/></g><g id="ea67a" class="Reactome_R-HSA-5625959"  ><path    d="m378 188-26 40" style="marker-end:none"/></g><g id="f35a7" class="Reactome_R-HSA-5672083"  ><path    d="m593 225 18 33" style="marker-end:none"/></g><g id="cad07" class="GroupGroup" transform="translate(249,168)"  ><g class="GroupGroup"><g id="ec04b" class="" transform="translate(8,8)"  ><g class=""><rect   transform="matrix(0.99 0 0 0.99 1.49 1.48)" width="338" height="270" rx="15" ry="15" stroke-width="3" style="fill:transparent;stroke:#c0c0c0"/></g></g><g id="c9c7c" class="Label" transform="translate(29,226)"  name="endoplasmic reticulum lumen" ><g class="Label"/><text   transform="translate(101.5,16.5)"    >endoplasmic reticulum lumen</text></g></g></g><g id="e03e7" class="GroupGroup" transform="translate(15,31)"  ><g class="GroupGroup"><g id="af0dd" class="" transform="translate(8,8)"  ><g class=""><rect   transform="matrix(1.00 0 0 0.99 1.49 1.49)" width="829" height="462" rx="15" ry="15" stroke-width="3" style="fill:transparent;stroke:#c0c0c0"/></g></g><g id="a5db1" class="Label" transform="translate(68,410)"  name="cytosol" ><g class="Label"/><text   transform="translate(32,16.5)"    >cytosol</text></g></g></g><g id="ba525" class="Complex Reactome_R-HSA-983227" transform="translate(658,193)"  name="Kinesin-1" ><g class="Complex Reactome_R-HSA-983227"><use class="Complex Reactome_R-HSA-983227 Node Icon" width="73" height="22" fill="#fff" stroke="#a52a2a" href="#HexagonPathVisio"/></g><g ><defs><clipPath ><rect x="-36.5" y="-11" width="73" height="22" style="stroke:none"/></clipPath></defs><text   transform="translate(36.5,11)"     style="fill:#a52a2a">Kinesin-1</text></g></g><g id="bc1e5" class="Complex Reactome_R-HSA-5672103" transform="translate(273,244)"  name="KTN1" ><g class="Complex Reactome_R-HSA-5672103"><use class="Complex Reactome_R-HSA-5672103 Node Icon" width="41" height="22" fill="#fff" stroke="#a52a2a" href="#HexagonPathVisio"/></g><g ><defs><clipPath ><rect x="-20.5" y="-11" width="41" height="22" style="stroke:none"/></clipPath></defs><text   transform="translate(20.5,11)"     style="fill:#a52a2a">KTN1</text></g></g><g id="c4316" class="Complex Reactome_R-HSA-5672087" transform="translate(511,291)"  name="RHOA,RHOG,RAC1,CDC42:GTP:KTN1:Kinesin-1" ><g class="Complex Reactome_R-HSA-5672087"><use class="Complex Reactome_R-HSA-5672087 Node Icon" width="194" height="41" fill="#fff" stroke="#a52a2a" href="#HexagonPathVisio"/></g><g ><defs><clipPath ><rect x="-97" y="-20.5" width="194" height="41" style="stroke:none"/></clipPath></defs><text   transform="translate(97,20.5)"     style="fill:#a52a2a">RHOA,RHOG,RAC1,CDC42:GTP:KTN1:Kinesin-1</text></g></g><g id="c45b6" class="Complex Reactome_R-HSA-5625955" transform="translate(393,206)"  name="RHOA,RHOG,RAC1,CDC42:GTP:KTN1" ><g class="Complex Reactome_R-HSA-5625955"><use class="Complex Reactome_R-HSA-5625955 Node Icon" width="201" height="39" fill="#fff" stroke="#a52a2a" href="#HexagonPathVisio"/></g><g ><defs><clipPath ><rect x="-100.5" y="-19.5" width="201" height="39" style="stroke:none"/></clipPath></defs><text   transform="translate(100.5,19.5)"     style="fill:#a52a2a">RHOA,RHOG,RAC1,CDC42:GTP:KTN1</text></g></g><g id="d5b40" class="Complex Reactome_R-HSA-5625964" transform="translate(180,176)"  name="RHOA,RHOG,RAC1,CDC42:GTP" ><g class="Complex Reactome_R-HSA-5625964"><use class="Complex Reactome_R-HSA-5625964 Node Icon" width="199" height="25" fill="#fff" stroke="#a52a2a" href="#HexagonPathVisio"/></g><g ><defs><clipPath ><rect x="-99.5" y="-12.5" width="199" height="25" style="stroke:none"/></clipPath></defs><text   transform="translate(99.5,12.5)"     style="fill:#a52a2a">RHOA,RHOG,RAC1,CDC42:GTP</text></g></g><g id="beabe" class="GroupComplex" transform="translate(38,967)"  ><g class="GroupComplex"><use class="Icon" width="124" height="264" fill="#b4b464" fill-opacity=".1" stroke="grey" href="#Octagon"/><g id="a1124" class="Protein" transform="translate(12,112)"  name="KTN1" ><rect   width="100" height="20"/><text   transform="translate(50,10)"    >KTN1</text></g><g id="a36b3" class="Protein" transform="translate(12,132)"  name="KIF5A" ><rect   width="100" height="20"/><text   transform="translate(50,10)"    >KIF5A</text></g><g id="a69b9" class="Protein" transform="translate(12,232)"  name="KLC4" ><rect   width="100" height="20"/><text   transform="translate(50,10)"    >KLC4</text></g><g id="adf66" class="Protein" transform="translate(12,192)"  name="KLC2" ><rect   width="100" height="20"/><text   transform="translate(50,10)"    >KLC2</text></g><g id="b893a" class="Protein" transform="translate(12,172)"  name="KLC1" ><rect   width="100" height="20"/><text   transform="translate(50,10)"    >KLC1</text></g><g id="c254a" class="Metabolite " transform="translate(12,92)"  name="GTP" ><rect   width="100" height="20" style="stroke:#00f"/><text   transform="translate(50,10)"     style="fill:#00f">GTP</text></g><g id="d0279" class="Protein" transform="translate(12,12)"  name="CDC42" ><rect   width="100" height="20"/><text   transform="translate(50,10)"    >CDC42</text></g><g id="ddceb" class="Protein" transform="translate(12,72)"  name="RHOG" ><rect   width="100" height="20"/><text   transform="translate(50,10)"    >RHOG</text></g><g id="e2a64" class="Protein" transform="translate(12,32)"  name="RAC1" ><rect   width="100" height="20"/><text   transform="translate(50,10)"    >RAC1</text></g><g id="e2d36" class="Protein" transform="translate(12,212)"  name="KLC3" ><rect   width="100" height="20"/><text   transform="translate(50,10)"    >KLC3</text></g><g id="e3a95" class="Protein" transform="translate(12,152)"  name="KIF5B" ><rect   width="100" height="20"/><text   transform="translate(50,10)"    >KIF5B</text></g><g id="fdb4b" class="Protein" transform="translate(12,52)"  name="RHOA" ><rect   width="100" height="20"/><text   transform="translate(50,10)"    >RHOA</text></g></g></g><g id="ca84f" class="GroupComplex" transform="translate(38,507)"  ><g class="GroupComplex"><use class="Icon" width="124" height="124" fill="#b4b464" fill-opacity=".1" stroke="grey" href="#Octagon"/><g id="a848d" class="Protein" transform="translate(12,32)"  name="RAC1" ><rect   width="100" height="20"/><text   transform="translate(50,10)"    >RAC1</text></g><g id="c812d" class="Metabolite " transform="translate(12,92)"  name="GTP" ><rect   width="100" height="20" style="stroke:#00f"/><text   transform="translate(50,10)"     style="fill:#00f">GTP</text></g><g id="cc3e6" class="Protein" transform="translate(12,12)"  name="CDC42" ><rect   width="100" height="20"/><text   transform="translate(50,10)"    >CDC42</text></g><g id="d547a" class="Protein" transform="translate(12,72)"  name="RHOG" ><rect   width="100" height="20"/><text   transform="translate(50,10)"    >RHOG</text></g><g id="e41f0" class="Protein" transform="translate(12,52)"  name="RHOA" ><rect   width="100" height="20"/><text   transform="translate(50,10)"    >RHOA</text></g></g></g><g id="e68b9" class="GroupComplex" transform="translate(38,647)"  ><g class="GroupComplex"><use class="Icon" width="124" height="144" fill="#b4b464" fill-opacity=".1" stroke="grey" href="#Octagon"/><g id="b3117" class="Protein" transform="translate(12,12)"  name="CDC42" ><rect   width="100" height="20"/><text   transform="translate(50,10)"    >CDC42</text></g><g id="b7190" class="Protein" transform="translate(12,112)"  name="KTN1" ><rect   width="100" height="20"/><text   transform="translate(50,10)"    >KTN1</text></g><g id="b8017" class="Protein" transform="translate(12,32)"  name="RAC1" ><rect   width="100" height="20"/><text   transform="translate(50,10)"    >RAC1</text></g><g id="c1143" class="Protein" transform="translate(12,72)"  name="RHOG" ><rect   width="100" height="20"/><text   transform="translate(50,10)"    >RHOG</text></g><g id="e389f" class="Metabolite " transform="translate(12,92)"  name="GTP" ><rect   width="100" height="20" style="stroke:#00f"/><text   transform="translate(50,10)"     style="fill:#00f">GTP</text></g><g id="e61c0" class="Protein" transform="translate(12,52)"  name="RHOA" ><rect   width="100" height="20"/><text   transform="translate(50,10)"    >RHOA</text></g></g></g><g id="ea873" class="GroupComplex" transform="translate(178,547)"  ><g class="GroupComplex"><use class="Icon" width="124" height="44" fill="#b4b464" fill-opacity=".1" stroke="grey" href="#Octagon"/><g id="faea7" class="Protein" transform="translate(12,12)"  name="KTN1" ><rect   width="100" height="20"/><text   transform="translate(50,10)"    >KTN1</text></g></g></g><g id="fd7e8" class="GroupComplex" transform="translate(38,807)"  ><g class="GroupComplex"><use class="Icon" width="124" height="144" fill="#b4b464" fill-opacity=".1" stroke="grey" href="#Octagon"/><g id="c1084" class="Protein" transform="translate(12,112)"  name="KLC4" ><rect   width="100" height="20"/><text   transform="translate(50,10)"    >KLC4</text></g><g id="c5939" class="Protein" transform="translate(12,92)"  name="KLC3" ><rect   width="100" height="20"/><text   transform="translate(50,10)"    >KLC3</text></g><g id="d4bd1" class="Protein" transform="translate(12,72)"  name="KLC2" ><rect   width="100" height="20"/><text   transform="translate(50,10)"    >KLC2</text></g><g id="dcb83" class="Protein" transform="translate(12,32)"  name="KIF5B" ><rect   width="100" height="20"/><text   transform="translate(50,10)"    >KIF5B</text></g><g id="df58b" class="Protein" transform="translate(12,12)"  name="KIF5A" ><rect   width="100" height="20"/><text   transform="translate(50,10)"    >KIF5A</text></g><g id="f33af" class="Protein" transform="translate(12,52)"  name="KLC1" ><rect   width="100" height="20"/><text   transform="translate(50,10)"    >KLC1</text></g></g></g></g></g></g></svg>