<?xml version="1.0" encoding="UTF-8"?>
<svg xmlns="http://www.w3.org/2000/svg" id="-svg" class="Diagram"  baseProfile="full" prefix="schema:http://schema.org/" preserveAspectRatio="xMidYMid"  version="1.1"><defs><g id="icon-defs"><symbol id="HexagonPathVisio" class=" Icon HexagonPathVisio" x="0" y="8" overflow="visible" preserveAspectRatio="none" viewBox="0 8 100 86"><desc>HexagonPathVisio</desc><g transform="scale(1 0.85)"><path d="m1.42 51.00 21.07-42.14h56.19l21.07 42.14-21.07 42.15h-56.19l-21.07-42.15z" stroke="currentColor" vector-effect="non-scaling-stroke"/></g></symbol><symbol id="Octagon" class=" Icon Octagon" x="0" y="0" overflow="visible" preserveAspectRatio="none" viewBox="0 0 100 100"><desc>Octagon</desc><path d="m0 25 25-25h50l25 25v50l-25 25h-50l-25-25z" vector-effect="non-scaling-stroke"/></symbol></g><g id="marker-defs"><marker id="mea" markerHeight="12" markerWidth="12" orient="auto" preserveAspectRatio="none" refX="12" refY="6" viewBox="0 0 12 12"><g id="g-mea" transform=""><g transform="rotate(180 6 6)"><rect y="5.4" width="2" height="1.2" style="stroke:#fff"/><polygon points="12 11 0 6 12 1" stroke-width="0"/></g></g></marker></g></defs><g id="viewport-20220102141554118" class="svg-pan-zoom_viewport" transform="matrix(0.80 0 0 0.80 289.17 0)" style="transform:matrix(0.80, 0, 0, 0.80, 289.17, 0)"><style>svg.Diagram {font-family: 'Liberation Sans', Arial, sans-serif; }.Diagram path {fill: transparent;stroke: #000;marker-end: url(#mea);}.Diagram symbol path {fill: inherit;stroke: inherit;stroke-width: inherit;marker-end: inherit;}.Diagram rect {fill: #fff;stroke: #000;}.Diagram text {dominant-baseline: central;overflow: hidden;text-anchor: middle;fill: #000;font-size: 10px;}</style><style type="text/css">.Viewport .textContent {
  pointer-events: none;
  stroke-width: 0px;
}

					.Viewport.Icon {
  fill: white;
}

/* Hide the InfoBox */
.Viewport.textContent {
  font-size: 0;
}

.textContent {
  stroke: none;
}

.DataNode {
  stroke-miterlimit: 1;
  pointer-events: auto;
}

.DataNode:hover {
  cursor: pointer;
}

/* TODO should this apply to things other than DataNodes? */
.DataNode.textContent {
  pointer-events: none;
}

.DataNode.Highlighted {
  opacity: 0.6;
  stroke-width: 0px;
}

marker {
  /* this is what should work per the spec
  stroke-dasharray: none; */
  /* but I need to add this to make it work in Safari */
  stroke-dasharray: 9999999999999999999999999;
}

.Citation.Icon {
  fill: none;
  stroke-width: 0px;
}

.Citation.textContent {
  text-align: center;
  vertical-align: top;
  font-size: 7px;
  fill: #999;
  fill-opacity: 1;
  stroke: none;
}</style><g id="WP3322" class="Pathway http___identifiers_org_pw_PW_0000003 Viewport"  name="Name: RHO GTPases regulate CFTR trafficking Organism: Homo sapiens" ><g class="Pathway http___identifiers_org_pw_PW_0000003 Viewport"><rect   width="781" height="897" style="stroke:none"/><g id="a05b9" class="Reactome_R-HSA-5627071"  ><path    d="m374 229 2 142" style="marker-end:none"/><g id="bc09f" class="AB" transform="translate(374,229)"  ><g class="AB"/></g><g id="ca37d" class="AB" transform="translate(375.98,369.58)"  ><g class="AB"/></g><g id="b6bff" class="AB" transform="translate(375,300)"  ><g class="AB"/></g></g><g id="becd3" class="Reactome_R-HSA-5627071"  ><path    d="m374 226v3" style="marker-end:none"/></g><g id="c48f2" class="Reactome_R-HSA-5627071"  ><path    d="m376 371 1 3"/></g><g id="cdc7b" class="Reactome_R-HSA-5627071"  ><path    d="m374 226 1 72"/></g><g id="d009a" class="Reactome_R-HSA-5627275"  ><path    d="m416 138 71 2" style="marker-end:none"/><g id="ddf48" class="AB" transform="translate(416,138)"  ><g class="AB"/></g><g id="bb474" class="AB" transform="translate(486.29,139.98)"  ><g class="AB"/></g><g id="a2522" class="AB" transform="translate(451.5,139)"  ><g class="AB"/></g></g><g id="b9b0f" class="Reactome_R-HSA-5627275"  ><path    d="m412 138h4" style="marker-end:none"/></g><g id="bc188" class="Reactome_R-HSA-5627275"  ><path    d="m412 138 31 1"/></g><g id="e9f16" class="Reactome_R-HSA-5627275"  ><path    d="m487 140 3 1"/></g><g id="fe475" class="Reactome_R-HSA-5627072"  ><path    d="m301 156 47 31" style="marker-end:none"/><g id="ac085" class="AB" transform="translate(301,156)"  ><g class="AB"/></g><g id="f03e2" class="AB" transform="translate(347.53,186.69)"  ><g class="AB"/></g></g><g id="e2859" class="Reactome_R-HSA-5627072"  ><path    d="m326 138-25 18" style="marker-end:none"/></g><g id="e5a25" class="Reactome_R-HSA-5627072"  ><path    d="m293 106 8 50" style="marker-end:none"/></g><g id="ff51c" class="Reactome_R-HSA-5627072"  ><path    d="m348 187 26 3"/></g><g id="c4bd8" class="GroupGroup" transform="translate(521,78)"  ><g class="GroupGroup"><g id="f0206" class="" transform="translate(8,8)"  ><g class=""><rect   transform="matrix(0.98 0 0 0.97 1.48 1.46)" width="190" height="107" rx="15" ry="15" stroke-width="3" style="fill:transparent;stroke:#c0c0c0"/></g></g><g id="e1b21" class="Label" transform="translate(54,65)"  name="lysosomal lumen" ><g class="Label"/><text   transform="translate(61.5,16.5)"    >lysosomal lumen</text></g></g></g><g id="d49da" class="GroupGroup" transform="translate(171,82)"  ><g class="GroupGroup"><g id="e590d" class="" transform="translate(8,8)"  ><g class=""><rect   transform="matrix(0.99 0 0 0.98 1.48 1.48)" width="204" height="187" rx="15" ry="15" stroke-width="3" style="fill:transparent;stroke:#c0c0c0"/></g></g><g id="f7549" class="Label" transform="translate(25,144)"  name="Golgi-associated vesicle" ><g class="Label"/><text   transform="translate(85,16.5)"    >Golgi-associated vesicle</text></g></g></g><g id="d9767" class="GroupGroup" transform="translate(34,30)"  ><g class="GroupGroup"><g id="dbc6a" class="" transform="translate(8,8)"  ><g class=""><rect   transform="matrix(1.00 0 0 0.99 1.49 1.49)" width="709" height="362" rx="15" ry="15" stroke-width="3" style="fill:transparent;stroke:#c0c0c0"/></g></g><g id="c564a" class="Label" transform="translate(27,318)"  name="cytosol" ><g class="Label"/><text   transform="translate(32,16.5)"    >cytosol</text></g></g></g><g id="a313c" class="Complex Reactome_R-HSA-5627082" transform="translate(326,123)"  name="GOPC:CFTR" ><g class="Complex Reactome_R-HSA-5627082"><use class="Complex Reactome_R-HSA-5627082 Node Icon" width="87" height="30" fill="#fff" stroke="#a52a2a" href="#HexagonPathVisio"/></g><g ><defs><clipPath ><rect x="-43.5" y="-15" width="87" height="30" style="stroke:none"/></clipPath></defs><text   transform="translate(43.5,15)"     style="fill:#a52a2a">GOPC:CFTR</text></g></g><g id="bd16a" class="Complex Reactome_R-HSA-5627276" transform="translate(490,126)"  name="GOPC:CFTR" ><g class="Complex Reactome_R-HSA-5627276"><use class="Complex Reactome_R-HSA-5627276 Node Icon" width="78" height="30" fill="#fff" stroke="#a52a2a" href="#HexagonPathVisio"/></g><g ><defs><clipPath ><rect x="-39" y="-15" width="78" height="30" style="stroke:none"/></clipPath></defs><text   transform="translate(39,15)"     style="fill:#a52a2a">GOPC:CFTR</text></g></g><g id="d52af" class="Complex Reactome_R-HSA-5627078" transform="translate(318,190)"  name="RHOQ:GTP:GOPC:CFTR" ><g class="Complex Reactome_R-HSA-5627078"><use class="Complex Reactome_R-HSA-5627078 Node Icon" width="113" height="36" fill="#fff" stroke="#a52a2a" href="#HexagonPathVisio"/></g><g ><defs><clipPath ><rect x="-56.5" y="-18" width="113" height="36" style="stroke:none"/></clipPath></defs><text   transform="translate(56.5,18)"     style="fill:#a52a2a">RHOQ:GTP:GOPC:CFTR</text></g></g><g id="e8e35" class="Complex Reactome_R-HSA-5627084" transform="translate(326,374)"  name="RHOQ:GTP:GOPC:CFTR" ><g class="Complex Reactome_R-HSA-5627084"><use class="Complex Reactome_R-HSA-5627084 Node Icon" width="103" height="35" fill="#fff" stroke="#a52a2a" href="#HexagonPathVisio"/></g><g ><defs><clipPath ><rect x="-51.5" y="-17.5" width="103" height="35" style="stroke:none"/></clipPath></defs><text   transform="translate(51.5,17.5)"     style="fill:#a52a2a">RHOQ:GTP:GOPC:CFTR</text></g></g><g id="f9565" class="Complex Reactome_R-HSA-5627068" transform="translate(257,84)"  name="RHOQ:GTP" ><g class="Complex Reactome_R-HSA-5627068"><use class="Complex Reactome_R-HSA-5627068 Node Icon" width="72" height="22" fill="#fff" stroke="#a52a2a" href="#HexagonPathVisio"/></g><g ><defs><clipPath ><rect x="-36" y="-11" width="72" height="22" style="stroke:none"/></clipPath></defs><text   transform="translate(36,11)"     style="fill:#a52a2a">RHOQ:GTP</text></g></g><g id="a31c3" class="GroupComplex" transform="translate(38,415)"  ><g class="GroupComplex"><use class="Icon" width="124" height="64" fill="#b4b464" fill-opacity=".1" stroke="grey" href="#Octagon"/><g id="ad0e2" class="Protein" transform="translate(12,12)"  name="GOPC" ><rect   width="100" height="20"/><text   transform="translate(50,10)"    >GOPC</text></g><g id="d882d" class="Protein" transform="translate(12,32)"  name="CFTR" ><rect   width="100" height="20"/><text   transform="translate(50,10)"    >CFTR</text></g></g></g><g id="dc2cc" class="GroupComplex" transform="translate(38,775)"  ><g class="GroupComplex"><use class="Icon" width="124" height="104" fill="#b4b464" fill-opacity=".1" stroke="grey" href="#Octagon"/><g id="d09a8" class="Protein" transform="translate(12,52)"  name="GOPC" ><rect   width="100" height="20"/><text   transform="translate(50,10)"    >GOPC</text></g><g id="e24ed" class="Protein" transform="translate(12,72)"  name="CFTR" ><rect   width="100" height="20"/><text   transform="translate(50,10)"    >CFTR</text></g><g id="e36dd" class="Protein" transform="translate(12,12)"  name="RHOQ" ><rect   width="100" height="20"/><text   transform="translate(50,10)"    >RHOQ</text></g><g id="f577e" class="Metabolite " transform="translate(12,32)"  name="GTP" ><rect   width="100" height="20" style="stroke:#00f"/><text   transform="translate(50,10)"     style="fill:#00f">GTP</text></g></g></g><g id="e07df" class="GroupComplex" transform="translate(38,495)"  ><g class="GroupComplex"><use class="Icon" width="124" height="64" fill="#b4b464" fill-opacity=".1" stroke="grey" href="#Octagon"/><g id="ae795" class="Protein" transform="translate(12,32)"  name="CFTR" ><rect   width="100" height="20"/><text   transform="translate(50,10)"    >CFTR</text></g><g id="c593f" class="Protein" transform="translate(12,12)"  name="GOPC" ><rect   width="100" height="20"/><text   transform="translate(50,10)"    >GOPC</text></g></g></g><g id="e795e" class="GroupComplex" transform="translate(38,655)"  ><g class="GroupComplex"><use class="Icon" width="124" height="104" fill="#b4b464" fill-opacity=".1" stroke="grey" href="#Octagon"/><g id="a66f5" class="Protein" transform="translate(12,52)"  name="RHOQ" ><rect   width="100" height="20"/><text   transform="translate(50,10)"    >RHOQ</text></g><g id="a89d2" class="Protein" transform="translate(12,12)"  name="GOPC" ><rect   width="100" height="20"/><text   transform="translate(50,10)"    >GOPC</text></g><g id="da346" class="Metabolite " transform="translate(12,72)"  name="GTP" ><rect   width="100" height="20" style="stroke:#00f"/><text   transform="translate(50,10)"     style="fill:#00f">GTP</text></g><g id="ed2bf" class="Protein" transform="translate(12,32)"  name="CFTR" ><rect   width="100" height="20"/><text   transform="translate(50,10)"    >CFTR</text></g></g></g><g id="f2531" class="GroupComplex" transform="translate(38,575)"  ><g class="GroupComplex"><use class="Icon" width="124" height="64" fill="#b4b464" fill-opacity=".1" stroke="grey" href="#Octagon"/><g id="abf42" class="Protein" transform="translate(12,12)"  name="RHOQ" ><rect   width="100" height="20"/><text   transform="translate(50,10)"    >RHOQ</text></g><g id="dd858" class="Metabolite " transform="translate(12,32)"  name="GTP" ><rect   width="100" height="20" style="stroke:#00f"/><text   transform="translate(50,10)"     style="fill:#00f">GTP</text></g></g></g></g></g></g></svg>