<?xml version="1.0" encoding="UTF-8"?>
<svg xmlns="http://www.w3.org/2000/svg" id="-svg" class="Diagram"  baseProfile="full" prefix="schema:http://schema.org/" preserveAspectRatio="xMidYMid"  version="1.1"><defs><g id="icon-defs"><symbol id="Ellipse" class=" Icon Ellipse" x="0" y="0" overflow="visible" preserveAspectRatio="none" viewBox="0 0 50 50"><desc>Ellipse</desc><ellipse cx="25" cy="25" rx="25" ry="25" vector-effect="non-scaling-stroke"/></symbol><symbol id="Mitochondria" class=" Icon Mitochondria" x="0" y="0" overflow="visible" preserveAspectRatio="none" viewBox="0 0 100 100"><desc>Mitochondria</desc><ellipse cx="50" cy="50" rx="50" ry="50"/><path d="m14.89 26.35c4.36-0.74 3.83 17.04 8.18 16.18 8.27 0.03 2.98-28.15 9.90-28.34 6.97-0.19 2.25 29.95 9.21 29.44 7.63-0.56 0.51-32.94 8.14-33.62 7.70-0.69 2.92 32.04 10.63 32.23 6.55 0.16 3.03-27.64 9.56-26.92 7.19 0.79 0.66 29.84 7.78 31.67 4.75 1.22 4.42-18.26 9.20-17.44 11.13 7.58 8.63 37.70-2.18 44.65-3.14 0.70-3.97-10.50-7.11-9.91-5.59 1.06-3.98 22.28-9.60 21.80-5.24-0.46-2.23-21.64-7.47-21.73-6.96-0.12-3.36 28.92-10.32 28.50-6.14-0.38-1.73-24.95-7.83-26.19-5.68-1.16-5.38 22.17-11.03 20.68-6.25-1.64-0.47-26.67-6.76-27.87-3.73-0.71-2.65 14.40-6.40 14.54-14.02-5.94-15.75-39.71-3.9-47.67z" vector-effect="non-scaling-stroke"/></symbol></g><g id="marker-defs"><marker id="markerstartmimcatalysis000" markerHeight="12" markerWidth="12" orient="auto" preserveAspectRatio="none" refY="6" viewBox="0 0 12 12"><g id="g-markerstartmimcatalysis000" transform="rotate(180 6 6)"><g transform="rotate(180 6 6)"><circle cx="6" cy="6" r="5.3px" fill="#fff" stroke="#000"/></g></g></marker><marker id="mea" markerHeight="12" markerWidth="12" orient="auto" preserveAspectRatio="none" refX="12" refY="6" viewBox="0 0 12 12"><g id="g-mea" transform=""><g transform="rotate(180 6 6)"><rect y="5.4" width="2" height="1.2" style="stroke:#fff"/><polygon points="12 11 0 6 12 1" stroke-width="0"/></g></g></marker><marker id="memcatalysis000" markerHeight="12" markerWidth="12" orient="auto" preserveAspectRatio="none" refX="12" refY="6" viewBox="0 0 12 12"><g id="g-memcatalysis000" transform=""><g transform="rotate(180 6 6)"><circle cx="6" cy="6" r="5.3px" fill="#fff" stroke="#000"/></g></g></marker><marker id="memconversion000" markerHeight="12" markerWidth="12" orient="auto" preserveAspectRatio="none" refX="12" refY="6" viewBox="0 0 12 12"><g id="g-memconversion000" transform=""><g transform="rotate(180 6 6)"><rect y="5.4" width="2" height="1.2" style="stroke:#fff"/><polygon points="12 11 0 6 12 1" stroke-width="0"/></g></g></marker></g></defs><g id="viewport-20220102142003011" class="svg-pan-zoom_viewport" transform="matrix(0.63 0 0 0.63 229.04 0)" style="transform:matrix(0.63, 0, 0, 0.63, 229.04, 0)"><style>svg.Diagram {font-family: 'Liberation Sans', Arial, sans-serif; }.Diagram path {fill: transparent;stroke: #000;marker-end: url(#mea);}.Diagram symbol path {fill: inherit;stroke: inherit;stroke-width: inherit;marker-end: inherit;}.Diagram rect {fill: #fff;stroke: #000;}.Diagram text {dominant-baseline: central;overflow: hidden;text-anchor: middle;fill: #000;font-size: 12px;}</style><style type="text/css">.Viewport .textContent {
  pointer-events: none;
  stroke-width: 0px;
}

					.Viewport.Icon {
  fill: white;
}

/* Hide the InfoBox */
.Viewport.textContent {
  font-size: 0;
}

.textContent {
  stroke: none;
}

.DataNode {
  stroke-miterlimit: 1;
  pointer-events: auto;
}

.DataNode:hover {
  cursor: pointer;
}

/* TODO should this apply to things other than DataNodes? */
.DataNode.textContent {
  pointer-events: none;
}

.DataNode.Highlighted {
  opacity: 0.6;
  stroke-width: 0px;
}

marker {
  /* this is what should work per the spec
  stroke-dasharray: none; */
  /* but I need to add this to make it work in Safari */
  stroke-dasharray: 9999999999999999999999999;
}

.Citation.Icon {
  fill: none;
  stroke-width: 0px;
}

.Citation.textContent {
  text-align: center;
  vertical-align: top;
  font-size: 7px;
  fill: #999;
  fill-opacity: 1;
  stroke: none;
}</style><g id="WP357" class="Pathway http___identifiers_org_pw_PW_0000029 Viewport"  name="Name: Fatty acid biosynthesis Organism: Homo sapiens" ><g class="Pathway http___identifiers_org_pw_PW_0000029 Viewport"><rect   width="1180" height="1135.6" style="stroke:none"/><g id="a4f5a" class="Edge"  ><path    d="m685.33 946.4v-104.13"/><g id="a8209" class="AB" transform="translate(685.33 904.75)"  ><g class="AB"/></g></g><g id="abf75" class="Edge"  ><path    d="m364.13 1096h242.13"/><g id="baff9" class="AB" transform="translate(460.99 1096)"  ><g class="AB"/></g></g><g id="b29ab" class="Edge"  ><path    d="m905.33 715.6-1e-13 174.13"/><g id="ddfcc" class="AB" transform="translate(905.33 793)"  ><g class="AB"/></g></g><g id="b3a0e" class="Edge"  ><path    d="m373.33 965.6v3.33c-4e-14 3.33-4e-14 10-12.44 13.33-12.44 3.33-37.33 3.33-49.78 20.13-12.44 16.8-12.44 50.4-12.44 67.2v16.8"/><g id="f7855" class="AB" transform="translate(298.68 1063.9)"  ><g class="AB"/></g></g><g id="b84ed" class="Edge"  ><path    d="m460.67 1067 0.32 29" style="marker-end:url(#memcatalysis000)"/></g><g id="b91d1" class="Edge"  ><path    d="m685.33 823.07-1e-13 -107.47" stroke-dasharray="5,3"/></g><g id="bd13d" class="Edge"  ><path    d="m230.2 965.6v3.33c-2e-14 3.33-2e-14 10 11.41 13.33 11.41 3.33 34.23 3.33 45.64 20.13 11.41 16.8 11.41 50.4 11.41 67.2v16.8"/><g id="db5d2" class="AB" transform="translate(298.66 1064.4)"  ><g class="AB"/></g></g><g id="c15f6" class="Edge"  ><path    d="m820 218.93 85.33 100.8"/><g id="fd54c" class="AB" transform="translate(858.92 264.91)"  ><g class="AB"/></g></g><g id="c3029" class="Edge"  ><path    d="m125.33 396.4v-120.8"/><g id="cdeb6" class="AB" transform="translate(125.33 337)"  ><g class="AB"/></g></g><g id="c51e1" class="Edge"  ><path    d="m685.33 1086.4 2e-13 -120.8"/><g id="aa58b" class="AB" transform="translate(685.33 1038.1)"  ><g class="AB"/></g></g><g id="c7b2b" class="Edge"  ><path    d="m276.53 698.93-77.87 124.13"/><g id="fd332" class="AB" transform="translate(245.39 748.59)"  ><g class="AB"/></g></g><g id="bdded" class="Edge"  ><path    d="m214 726.33 31.39 22.25" style="marker-end:url(#memcatalysis000)"/></g><g id="ca1ad" class="Edge"  ><path    d="m328 1048.7-30.25 16.16" style="marker-end:url(#memcatalysis000)"/></g><g id="cbdf7" class="Edge"  ><path    d="m685.33 567.07 1e-13 -228.13"/><g id="a384d" class="AB" transform="translate(685.33 533.97)"  ><g class="AB"/></g></g><g id="ac35b" class="Edge"  ><path    d="m618.33 417.33 67 116.64" style="marker-end:url(#memcatalysis000)"/></g><g id="ce8d4" class="Edge"  ><path    d="m198.67 842.27 3e-14 104.13"/><g id="e884b" class="AB" transform="translate(198.67 888)"  ><g class="AB"/></g></g><g id="d15fa" class="Edge"  ><path    d="m636.67 832.67h-187.73" stroke-dasharray="5,3"/></g><g id="d31bb" class="Edge"  ><path    d="m905.33 908.93-0.33 65.07" stroke-dasharray="5,3"/></g><g id="d3826" class="Edge"  ><path    d="m298.67 572.27 4e-14 107.47"/><g id="d24e4" class="AB" transform="translate(298.67 615.25)"  ><g class="AB"/></g></g><g id="d54c1" class="Edge"  ><path    d="m685.33 904.75 26.33 0.59" marker-start="url(#markerstartmimcatalysis000)" style="marker-end:none"/></g><g id="d85ec" class="Edge"  ><path    d="m398.67 842.27-1.1e-13 104.13"/><g id="f3aa0" class="AB" transform="translate(398.67 888)"  ><g class="AB"/></g></g><g id="aefbe" class="Edge"  ><path    d="m426 888.33-27.33-0.33" style="marker-end:url(#memcatalysis000)"/></g><g id="d8cbb" class="Edge"  ><path    d="m225 887.33-26.33 0.67" style="marker-end:url(#memcatalysis000)"/></g><g id="dae8f" class="Edge"  ><path    d="m152.11 336.93-26.78 0.07" style="marker-end:url(#memcatalysis000)"/></g><g id="e3c75" class="Edge"  ><path    d="m143.47 396.4 105.25-52.33"/></g><g id="e43be" class="Edge"  ><path    d="m905.33 338.93v214.13"/><g id="da318" class="AB" transform="translate(905.33 514.77)"  ><g class="AB"/></g></g><g id="e8091" class="Edge"  ><path    d="m320.8 698.93 77.87 124.13"/><g id="ca460" class="AB" transform="translate(351.95 748.59)"  ><g class="AB"/></g></g><g id="efe5c" class="Edge"  ><path    d="m151.47 275.6 97.25 35.97"/></g><g id="f0970" class="Edge"  ><path    d="m714.8 1038.1-29.47-0.01" style="marker-end:url(#memcatalysis000)"/></g><g id="f3b8c" class="Rhea_22434"  ><path    d="m685.33 319.73 52-100.8" style="marker-end:url(#memconversion000)"/><g id="cb83e" class="AB" transform="translate(720.08 252.38)"  ><g class="AB"/></g></g><g id="e25dc" class="Edge"  ><path    d="m703.21 251.06 16.87 1.32" style="marker-end:url(#memcatalysis000)"/></g><g id="f566f" class="Edge"  ><path    d="m685.33 696.4-1e-13 -110.13"/><g id="ceb2f" class="AB" transform="translate(685.33 652.35)"  ><g class="AB"/></g></g><g id="d4391" class="Edge"  ><path    d="m713.67 652-28.33 0.35" style="marker-end:url(#memcatalysis000)"/></g><g id="f5db7" class="Edge"  ><path    d="m328 615-29.33 0.25" style="marker-end:url(#memcatalysis000)"/></g><g id="fc61e" class="Edge"  ><path    d="m328 1048.7-28.30 15.66" style="marker-end:url(#memcatalysis000)"/></g><g id="ff2e6" class="Edge"  ><path    d="m905.33 572.27 1e-13 124.13"/><g id="ef3b1" class="AB" transform="translate(905.33 621.92)"  ><g class="AB"/></g></g><g id="a89b0" class="Edge"  ><path    d="m929.67 621-24.33 0.92" style="marker-end:url(#memcatalysis000)"/></g><g id="ff7d4" class="Edge"  ><path    d="m298.67 360.32-4e-14 192.74"/></g><g id="e8fe7" class="Edge"  ><path    d="m930.67 793-25.33-1e-13" style="marker-end:url(#memcatalysis000)"/></g><g id="f7a9b" class="Edge"  ><path    d="m869 239-10.08 25.91" style="marker-end:url(#memcatalysis000)"/></g><g id="bc9e8" class="Edge"  ><path    d="m373 742.33-21.05 6.25" style="marker-end:url(#memcatalysis000)"/></g><g id="b3eca" class="Edge"  ><path    d="m963.18 456.18-57.84 58.59" style="marker-end:url(#memcatalysis000)"/></g><g id="fb247" class="" transform="translate(3.5,140)"  ><g class=""><use class=" Node Icon" transform="matrix(1.00 0 0 0.99 1.50 1.49)" width="1146.5" height="394" fill="transparent" stroke="#c0c0c0" stroke-width="3" href="#Mitochondria"/></g></g><g id="a16f2" class="Metabolite " transform="translate(696 199.73)"  name="3-L-Hydroxyacyl-CoA" ><rect   width="165.33" height="19.2" style="stroke:#00f"/><text   transform="translate(82.67 9.6)"     style="fill:#00f">3-L-Hydroxyacyl-CoA</text></g><g id="a94" class="Label" transform="translate(95.73 601.73)"  name="Cytosol" ><g class="Label"/><text   transform="translate(30.27 7.6)"    font-weight="bold" >Cytosol</text></g><g id="ae215" class="Protein " transform="translate(135.6,946.4)"  name="Acetyl-synthase" ><rect   width="126.13" height="19.2"/><text   transform="translate(63.07 9.6)"    >Acetyl-synthase</text></g><g id="bd3" class="Label" transform="translate(403.93 171.4)"  name="Mitochondrion" ><g class="Label"/><text   transform="translate(47.07 7.6)"    font-weight="bold" >Mitochondrion</text></g><g id="b2343" class="Metabolite " transform="translate(154 823.07)"  name="Acetyl-ACP" ><rect   width="89.33" height="19.2" style="stroke:#00f"/><text   transform="translate(44.67 9.6)"     style="fill:#00f">Acetyl-ACP</text></g><g id="c11" class="Label" transform="translate(692.67 762.93)"  name="6 iterations" ><g class="Label"/><text   transform="translate(30.67 6.4)"    font-weight="bold"  style="font-size:10px">6 iterations</text></g><g id="b5e3d" class="Metabolite" transform="translate(606.27 1086.4)"  name="beta-hydroxybutyryl" ><rect   width="158.13" height="19.2" style="stroke:#00f"/><text   transform="translate(79.07 9.6)"     style="fill:#00f">beta-hydroxybutyryl</text></g><g id="fe2" class="Label" transform="translate(489.33 811.27)"  name="less than 6 iterations" ><g class="Label"/><text   transform="translate(54.67 6.4)"    font-weight="bold"  style="font-size:10px">less than 6 iterations</text></g><g id="b9c37" class="Metabolite KEGG_Compound_C04618" transform="translate(626.67 946.4)"  name="Crotonoyl-ACP" ><rect   width="117.33" height="19.2" style="stroke:#00f"/><text   transform="translate(58.67 9.6)"     style="fill:#00f">Crotonoyl-ACP</text></g><g id="bb3" class="Metabolite " transform="translate(73.07 256.4)"  name="Oxaloacetate" ><rect   width="104.53" height="19.2"/><text   transform="translate(52.27 9.6)"    >Oxaloacetate</text></g><g id="c0384" class="Metabolite" transform="translate(847.87 889.73)"  name="Fatty acyl CoA" ><rect   width="114.93" height="19.2" style="stroke:#00f"/><text   transform="translate(57.47 9.6)"     style="fill:#00f">Fatty acyl CoA</text></g><g id="c5e" class="Metabolite" transform="translate(647.87 567.07)"  name="Palmitate" ><rect   width="74.93" height="19.2"/><text   transform="translate(37.47 9.6)"    >Palmitate</text></g><g id="cd4c8" class="Metabolite KEGG_Compound_C01209" transform="translate(348,946.4)"  name="Malonyl-ACP" ><rect   width="101.33" height="19.2" style="stroke:#00f"/><text   transform="translate(50.67 9.6)"     style="fill:#00f">Malonyl-ACP</text></g><g id="d002d" class="Metabolite" transform="translate(815.87 319.73)"  name="trans-delta2-enoyl-CoA" ><rect   width="178.93" height="19.2" style="stroke:#00f"/><text   transform="translate(89.47 9.6)"     style="fill:#00f">trans-delta2-enoyl-CoA</text></g><g id="d50f3" class="Metabolite " transform="translate(636.67 823.07)"  name="Butyryl-ACP" ><rect   width="97.33" height="19.2" style="stroke:#00f"/><text   transform="translate(48.67 9.6)"     style="fill:#00f">Butyryl-ACP</text></g><g id="ddba3" class="Metabolite " transform="translate(233.2 1086.4)"  name="Acetoacetyl-ACP" ><rect   width="130.93" height="19.2" style="stroke:#00f"/><text   transform="translate(65.47 9.6)"     style="fill:#00f">Acetoacetyl-ACP</text></g><g id="dfc5e" class="Metabolite KEGG_Compound_C16520" transform="translate(629.47 696.4)"  name="Palmitoyl-ACP" ><rect   width="111.73" height="19.2" style="stroke:#00f"/><text   transform="translate(55.87 9.6)"     style="fill:#00f">Palmitoyl-ACP</text></g><g id="e33f2" class="Pathway" transform="translate(248.71 295.32)"  name="TCA Cycle" ><g class="Pathway"><use class="Pathway Node Icon" width="99.90" height="65" fill="#fff" stroke="#14961e" href="#Ellipse"/></g><g ><defs><clipPath ><rect x="-49.95" y="-32.5" width="99.91" height="65" style="stroke:none"/></clipPath></defs><text   transform="translate(49.95 32.5)"    font-weight="bold"  style="fill:#14961e">TCA Cycle</text></g></g><g id="e37" class="Metabolite" transform="translate(270.8 553.07)"  name="Citrate" ><rect   width="55.73" height="19.2"/><text   transform="translate(27.87 9.6)"    >Citrate</text></g><g id="e68" class="Metabolite " transform="translate(89.07 396.4)"  name="pyruvate" ><rect   width="72.53" height="19.2"/><text   transform="translate(36.27 9.6)"    >pyruvate</text></g><g id="eea" class="Metabolite " transform="translate(821.47 696.4)"  name="Long-Chain fatty acid" ><rect   width="167.73" height="19.2"/><text   transform="translate(83.87 9.6)"    >Long-Chain fatty acid</text></g><g id="f51a8" class="Metabolite " transform="translate(625.47 319.73)"  name="3-ketoacyl-CoA" ><rect   width="119.73" height="19.2" style="stroke:#00f"/><text   transform="translate(59.87 9.6)"     style="fill:#00f">3-ketoacyl-CoA</text></g><g id="ab2" class="GeneProduct " transform="translate(714.8 1028.1)"  name="FASN" ><rect   width="53.33" height="20"/><text   transform="translate(26.67 10)"    >FASN</text></g><g id="ae0" class="Metabolite" transform="translate(348.4 823.07)"  name="Malonyl-CoA" ><rect   width="100.53" height="19.2" style="stroke:#00f"/><text   transform="translate(50.27 9.6)"     style="fill:#00f">Malonyl-CoA</text></g><g id="b16" class="GeneProduct " transform="translate(711.67 895.33)"  name="FASN" ><rect   width="53.33" height="20"/><text   transform="translate(26.67 10)"    >FASN</text></g><g id="bfc" class="Metabolite " transform="translate(254.4 679.73)"  name="Acetyl-CoA" ><rect   width="88.53" height="19.2" style="stroke:#00f"/><text   transform="translate(44.27 9.6)"     style="fill:#00f">Acetyl-CoA</text></g><g id="c2a" class="GeneProduct " transform="translate(434,1047)"  name="FASN" ><rect   width="53.33" height="20"/><text   transform="translate(26.67 10)"    >FASN</text></g><g id="c38" class="GeneProduct " transform="translate(929.67 611)"  name="SCD" ><rect   width="53.33" height="20"/><text   transform="translate(26.67 10)"    >SCD</text></g><g id="ce0" class="GeneProduct " transform="translate(426 878.33)"  name="FASN" ><rect   width="53.33" height="20"/><text   transform="translate(26.67 10)"    >FASN</text></g><g id="d1e" class="GeneProduct " transform="translate(713.67 642)"  name="FASN" ><rect   width="53.33" height="20"/><text   transform="translate(26.67 10)"    >FASN</text></g><g id="d7f" class="GeneProduct " transform="translate(328,605)"  name="ACLY" ><rect   width="53.33" height="20"/><text   transform="translate(26.67 10)"    >ACLY</text></g><g id="da7" class="GeneProduct " transform="translate(187.33 706.33)"  name="FASN" ><rect   width="53.33" height="20"/><text   transform="translate(26.67 10)"    >FASN</text></g><g id="dec" class="GeneProduct " transform="translate(646.98 241.06)"  name="HADHSC" ><rect   width="56.24" height="20"/><text   transform="translate(28.12 10)"    >HADHSC</text></g><g id="e08" class="GeneProduct " transform="translate(225 877.33)"  name="FASN" ><rect   width="53.33" height="20"/><text   transform="translate(26.67 10)"    >FASN</text></g><g id="eb8" class="GeneProduct " transform="translate(152.11 326.93)"  name="PC" ><rect   width="53.33" height="20"/><text   transform="translate(26.67 10)"    >PC</text></g><g id="ebd" class="GeneProduct " transform="translate(591.67 397.33)"  name="ACAA2" ><rect   width="53.33" height="20"/><text   transform="translate(26.67 10)"    >ACAA2</text></g><g id="f06" class="GeneProduct " transform="translate(328 1038.7)"  name="FASN" ><rect   width="53.33" height="20"/><text   transform="translate(26.67 10)"    >FASN</text></g><g id="f589f" class="Pathway" transform="translate(764,974)"  name="Triacylglyceride Synthesis pathway" ><g class="Pathway"/><g ><defs><clipPath ><rect x="-141" y="-10" width="282" height="20" style="stroke:none"/></clipPath></defs><text   transform="translate(141,10)"    font-weight="bold"  style="fill:#14961e">Triacylglyceride Synthesis pathway</text></g></g><g id="fd1" class="Metabolite" transform="translate(846.27 553.07)"  name="Acyl-CoA (n+2)" ><rect   width="118.13" height="19.2" style="stroke:#00f"/><text   transform="translate(59.07 9.6)"     style="fill:#00f">Acyl-CoA (n+2)</text></g><g id="a6886" class="GroupGroup" transform="translate(930.67 725)"  ><g class="GroupGroup"><g id="afd" class="GeneProduct " transform="translate(8,68)"  name="ACSL5" ><rect   width="53.33" height="20"/><text   transform="translate(26.67 10)"    >ACSL5</text></g><g id="bd8" class="GeneProduct " transform="translate(8,48)"  name="ACSL4" ><rect   width="53.33" height="20"/><text   transform="translate(26.67 10)"    >ACSL4</text></g><g id="c63" class="GeneProduct " transform="translate(8,108)"  name="ACAS2" ><rect   width="53.33" height="20"/><text   transform="translate(26.67 10)"    >ACAS2</text></g><g id="dd3" class="GeneProduct " transform="translate(8,28)"  name="ACSL3" ><rect   width="53.33" height="20"/><text   transform="translate(26.67 10)"    >ACSL3</text></g><g id="e6c" class="GeneProduct " transform="translate(8,8)"  name="ACSL1" ><rect   width="53.33" height="20"/><text   transform="translate(26.67 10)"    >ACSL1</text></g><g id="fdd" class="GeneProduct " transform="translate(8,88)"  name="ACSL6" ><rect   width="53.33" height="20"/><text   transform="translate(26.67 10)"    >ACSL6</text></g></g></g><g id="ad87d" class="GroupGroup" transform="translate(869,201)"  ><g class="GroupGroup"><g id="aea" class="GeneProduct " transform="translate(8,28)"  name="ECHS1" ><rect   width="53" height="20"/><text   transform="translate(26.5,10)"    >ECHS1</text></g><g id="b9a" class="GeneProduct " transform="translate(61,28)"  name="ECHDC2" ><rect   width="53" height="20"/><text   transform="translate(26.5,10)"    >ECHDC2</text></g><g id="bc7" class="GeneProduct " transform="translate(61,8)"  name="ECHDC1" ><rect   width="53" height="20"/><text   transform="translate(26.5,10)"    >ECHDC1</text></g><g id="d1d" class="GeneProduct " transform="translate(61,48)"  name="ECHDC3" ><rect   width="53" height="20"/><text   transform="translate(26.5,10)"    >ECHDC3</text></g><g id="fea" class="GeneProduct " transform="translate(8,8)"  name="ECH1" ><rect   width="53" height="20"/><text   transform="translate(26.5,10)"    >ECH1</text></g></g></g><g id="ad971" class="GroupGroup" transform="translate(373 714.33)"  ><g class="GroupGroup"><g id="baf" class="GeneProduct " transform="translate(8,8)"  name="ACACA" ><rect   width="53.33" height="20"/><text   transform="translate(26.67 10)"    >ACACA</text></g><g id="e26" class="GeneProduct " transform="translate(8,28)"  name="ACACB" ><rect   width="53.33" height="20"/><text   transform="translate(26.67 10)"    >ACACB</text></g></g></g><g id="c2c3d" class="GroupGroup" transform="translate(925.18 380.18)"  ><g class="GroupGroup"><g id="b22" class="GeneProduct " transform="translate(8,28)"  name="PECR" ><rect   width="60" height="20"/><text   transform="translate(30,10)"    >PECR</text></g><g id="f2d" class="GeneProduct " transform="translate(8,8)"  name="MECR" ><rect   width="60" height="20"/><text   transform="translate(30,10)"    >MECR</text></g><g id="fb8" class="GeneProduct " transform="translate(8 48)"  name="DECR1" ><rect   width="60" height="20"/><text   transform="translate(30,10)"    >DECR1</text></g></g></g></g></g></g></svg>