<?xml version="1.0" encoding="UTF-8"?>
<svg xmlns="http://www.w3.org/2000/svg" id="-svg" class="Diagram"  baseProfile="full" prefix="schema:http://schema.org/" preserveAspectRatio="xMidYMid"  version="1.1"><defs><g id="filter-defs"><filter id="doublefalse3filter" x="-50%" y="-50%" width="200%" height="200%"><feComposite in="SourceGraphic" in2="SourceGraphic" result="doubleDark"/><feMorphology in="doubleDark" operator="dilate" radius="0.17" result="in2Double"/><feMorphology in="SourceGraphic" operator="dilate" radius="3" result="inDouble"/><feComposite in="inDouble" in2="in2Double" operator="out" result="doubleResult"/></filter></g><g id="icon-defs"><symbol id="Ellipse" class=" Icon Ellipse" x="0" y="0" overflow="visible" preserveAspectRatio="none" viewBox="0 0 50 50"><desc>Ellipse</desc><ellipse cx="25" cy="25" rx="25" ry="25" vector-effect="non-scaling-stroke"/></symbol><symbol id="Octagon" class=" Icon Octagon" x="0" y="0" overflow="visible" preserveAspectRatio="none" viewBox="0 0 100 100"><desc>Octagon</desc><path d="m0 25 25-25h50l25 25v50l-25 25h-50l-25-25z" vector-effect="non-scaling-stroke"/></symbol></g><g id="marker-defs"><marker id="mea" markerHeight="12" markerWidth="12" orient="auto" preserveAspectRatio="none" refX="12" refY="6" viewBox="0 0 12 12"><g id="g-mea" transform=""><g transform="rotate(180 6 6)"><rect y="5.4" width="2" height="1.2" style="stroke:#fff"/><polygon points="12 11 0 6 12 1" stroke-width="0"/></g></g></marker><marker id="memtranscriptiontranslation000" markerHeight="24" markerWidth="20" orient="auto" preserveAspectRatio="none" refX="20" refY="12" viewBox="0 0 20 24"><g id="g-memtranscriptiontranslation000" transform=""><g transform="rotate(180 10 12)"><rect y="11" width="12" height="2" style="stroke:#fff"/><line x1="15" x2="15" y1="12" y2="5" fill="none" stroke="#000"/><line x1="15.5" x2="8" y1="5" y2="5" fill="none" stroke="#000"/><polygon points="0 5 8 1 8 9" fill="#fff" stroke="#000"/></g></g></marker><marker id="membinding000" markerHeight="12" markerWidth="12" orient="auto" preserveAspectRatio="none" refX="12" refY="6" viewBox="0 0 12 12"><g id="g-membinding000" transform=""><g transform="rotate(180 6 6)"><rect y="5.4" width="2" height="1.2" style="stroke:#fff"/><polygon points="12 12 0 6 12 0 5 6" stroke-width="0"/></g></g></marker></g></defs><g id="viewport-20220102142214221" class="svg-pan-zoom_viewport" transform="matrix(1.13 0 0 1.13 0 10.17)" style="transform:matrix(1.13, 0, 0, 1.13, 0, 10.17)"><style>svg.Diagram {font-family: 'Liberation Sans', Arial, sans-serif; }.Diagram path {fill: transparent;stroke: #000;marker-end: url(#mea);}.Diagram symbol path {fill: inherit;stroke: inherit;stroke-width: inherit;marker-end: inherit;}.Diagram rect {fill: #fff;stroke: #000;}.Diagram text {dominant-baseline: central;overflow: hidden;text-anchor: middle;fill: #000;font-size: 10px;}</style><style type="text/css">.Viewport .textContent {
  pointer-events: none;
  stroke-width: 0px;
}

					.Viewport.Icon {
  fill: white;
}

/* Hide the InfoBox */
.Viewport.textContent {
  font-size: 0;
}

.textContent {
  stroke: none;
}

.DataNode {
  stroke-miterlimit: 1;
  pointer-events: auto;
}

.DataNode:hover {
  cursor: pointer;
}

/* TODO should this apply to things other than DataNodes? */
.DataNode.textContent {
  pointer-events: none;
}

.DataNode.Highlighted {
  opacity: 0.6;
  stroke-width: 0px;
}

marker {
  /* this is what should work per the spec
  stroke-dasharray: none; */
  /* but I need to add this to make it work in Safari */
  stroke-dasharray: 9999999999999999999999999;
}

.Citation.Icon {
  fill: none;
  stroke-width: 0px;
}

.Citation.textContent {
  text-align: center;
  vertical-align: top;
  font-size: 7px;
  fill: #999;
  fill-opacity: 1;
  stroke: none;
}</style><g id="WP3668" class="Pathway http___identifiers_org_pw_PW_0000020 http___identifiers_org_pw_PW_0000013 Viewport"  name="Name: Hypothesized pathways in pathogenesis of cardiovascular disease Organism: Homo sapiens" ><g class="Pathway http___identifiers_org_pw_PW_0000020 http___identifiers_org_pw_PW_0000013 Viewport"><rect   width="1064" height="615.05" style="stroke:none"/><g id="afa26" class=" PhysicalEntity CellularComponent Cell" transform="translate(166.5 116.15)"  ><g class=" PhysicalEntity CellularComponent Cell" filter="url(#doublefalse3filter)"><g class=" PhysicalEntity CellularComponent Cell"><rect   transform="matrix(0.99 0 0 0.98 5.92 5.85)" width="869" height="470.4" rx="15" ry="15" stroke-width="3" style="fill:transparent;stroke:#c0c0c0"/></g></g></g><g id="id102b4158" class="Edge"  ><path    d="m510.84 283.85-0.35 137.92"/></g><g id="id2c8e1e39" class="Edge"  ><path    d="m958.56 337-16.56 73.71"/></g><g id="id46972490" class="Edge"  ><path    d="m570 128 79.16 73.39"/></g><g id="id58f6b1d0" class="Edge"  ><path    d="m362 271 0.59 59" style="marker-end:url(#memtranscriptiontranslation000)"/></g><g id="id5a5a03f8" class="Edge"  ><path    d="m693.28 258.16 46.21-0.16"/></g><g id="idae6ff54a" class="Edge"  ><path    d="m783.99 459.26 56.01 0.80"/></g><g id="idfa4df912" class="Edge"  ><path    d="m570 128 67.71 130.16"/></g><g id="id78493b03" class="Edge"  ><path    d="m367.62 117.26 33.87-0.17"/></g><g id="id7ca9b75f" class="Edge"  ><path    d="m456.62 180.34-94.62 70.66" style="marker-end:url(#membinding000)"/></g><g id="id84370b95" class="Edge"  ><path    d="m511.74 180.34-0.90 67.51"/></g><g id="ida0415fbc" class="Edge"  ><path    d="m770 116.9-148 0.18"/></g><g id="id2008d5e6" class="Edge"  ><path    d="m483.6 84.56 83.27 11.44"/></g><g id="id37c45b72" class="Edge"  ><path    d="m420.48 84.56-92.86 22.69"/></g><g id="idb9749dd5" class="Edge"  ><path    d="m413.98 153.54-12.49 5.71" style="marker-end:url(#membinding000)"/></g><g id="id29630079" class="Edge"  ><path    d="m957 144 1.56 118"/></g><g id="id1501a469" class="Edge"  ><path    d="m957 144-125.51 58"/></g><g id="id8961e84" class="Edge"  ><path    d="m779.49 280v20h-132.25v121.76"/></g><g id="ida67ec7fa" class="Edge"  ><path    d="m779.49 280v20h94.51v110.71"/></g><g id="idccf4c373" class="Edge"  ><path    d="m699.85 201.39 27.64 0.61"/></g><g id="af5b5" class="Label" transform="translate(200.63 294.01)"  name="Target Gene Expression" ><g class="Label"/><text   transform="translate(74.42 11.5)"    font-weight="bold"  style="font-size:12px">Target Gene Expression</text></g><g id="c9d97" class="Label" transform="translate(913.56 262)"  name="TGFB Ligands,  Receptors,  Activators,  Effectors" ><g class="Label"/><text   transform="translate(45,37.5)"    font-weight="bold"  style="font-size:12px"><tspan   x="0" y="-19.8">TGFB Ligands, </tspan><tspan   x="0" y="-6.60">Receptors, </tspan><tspan   x="0" y="6.60">Activators, </tspan><tspan   x="0" y="19.8">Effectors</tspan></text></g><g id="e443b" class="Label" transform="translate(236.99 421.76)"  name="Endocardial and Epicardial EMT, neural crest migration, ECM remodeling, cell differentiation, development and maintenance of cardiovascular structure and function" ><rect   width="547" height="75" rx="15" ry="15"/><text   transform="translate(273.5,37.5)"    font-weight="bold"  style="font-size:12px"><tspan   x="0" y="-6.60">Endocardial and Epicardial EMT, neural crest migration, ECM remodeling, cell differentiation,</tspan><tspan   x="0" y="6.60">development and maintenance of cardiovascular structure and function</tspan></text></g><g id="e8d1a" class="Label" transform="translate(840 410.71)"  name="Valvular Heart Disease Cardiomyopathy Aortic Aneurysm Hypertension Atherosclerosis Kawasaki Disease" ><rect   width="136" height="98.70" rx="15" ry="15"/><text   transform="translate(68 49.35)"    font-weight="bold"  style="font-size:12px"><tspan   x="0" y="-33">Valvular Heart Disease</tspan><tspan   x="0" y="-19.8">Cardiomyopathy</tspan><tspan   x="0" y="-6.60">Aortic Aneurysm</tspan><tspan   x="0" y="6.60">Hypertension</tspan><tspan   x="0" y="19.8">Atherosclerosis</tspan><tspan   x="0" y="33">Kawasaki Disease</tspan></text></g><g id="b681d" class="Pathway WikiPathways_N_A" transform="translate(420.84 247.85)"  name="Calcium Calneurin Pathway" ><g class="Pathway WikiPathways_N_A"/><g ><defs><clipPath ><rect x="-90" y="-18" width="180" height="36" style="stroke:none"/></clipPath></defs><text   transform="translate(90,18)"    font-weight="bold"  style="fill:#14961e;font-size:12px">Calcium Calneurin Pathway</text></g></g><g id="c495a" class="GeneProduct " transform="translate(649.16 191.39)"  name="SHC1" ><rect   width="50.69" height="20"/><text   transform="translate(25.34 10)"    >SHC1</text></g><g id="d03c8" class="GeneProduct " transform="translate(637.71 248.16)"  name="NR2C2" ><rect   width="55.57" height="20"/><text   transform="translate(27.79 10)"    >NR2C2</text></g><g id="d688d" class="GeneProduct " transform="translate(770 106.9)"  name="ENG" ><rect   width="80" height="20"/><text   transform="translate(40,10)"    >ENG</text></g><g id="d7caf" class="GeneProduct " transform="translate(287.62 107.26)"  name="TGFBR3" ><rect   width="80" height="20"/><text   transform="translate(40,10)"    >TGFBR3</text></g><g id="b916e" class="GroupComplex" transform="translate(401.49 96)"  ><g class="GroupComplex"><use class="Icon" width="220.51" height="84.34" fill="#b4b464" fill-opacity=".1" stroke="grey" href="#Octagon"/><g id="bcb16" class="GeneProduct " transform="translate(48.51 12)"  name="TGFBR2" ><rect   width="80" height="20"/><text   transform="translate(40,10)"    >TGFBR2</text></g><g id="d8f80" class="GeneProduct " transform="translate(128.51 12)"  name="TGFBR1" ><rect   width="80" height="20"/><text   transform="translate(40,10)"    >TGFBR1</text></g><g id="de2f4" class="GeneProduct " transform="translate(12 32.34)"  name="SMAD2" ><rect   width="80" height="20"/><g id="b62d1" class="State Burr" transform="translate(72.5 -2.21)"  name="P" ><g class="State Burr"><use class="State Burr Node Icon" width="15" height="15" fill="#fff" stroke="#000" href="#Ellipse"/></g><g ><defs><clipPath ><rect x="-7.5" y="-7.5" width="15" height="15" style="stroke:none"/></clipPath></defs><text   transform="translate(7.5,7.5)"  font-family="arial" overflow="visible">P</text></g></g><text   transform="translate(40,10)"    >SMAD2</text></g><g id="df95d" class="GeneProduct " transform="translate(12 52.34)"  name="SMAD3" ><rect   width="80" height="20"/><g id="dd442" class="State Burr" transform="translate(72.5 -4.31)"  name="P" ><g class="State Burr"><use class="State Burr Node Icon" width="15" height="15" fill="#fff" stroke="#000" href="#Ellipse"/></g><g ><defs><clipPath ><rect x="-7.5" y="-7.5" width="15" height="15" style="stroke:none"/></clipPath></defs><text   transform="translate(7.5,7.5)"  font-family="arial" overflow="visible">P</text></g></g><text   transform="translate(40,10)"    >SMAD3</text></g></g></g><g id="c6d4d" class="GroupGroup" transform="translate(223.09 322)"  ><g class="GroupGroup"><g id="c445f" class="GeneProduct " transform="translate(8,8)"  name="POSTN" ><rect   width="55.11" height="20"/><text   transform="translate(27.55 10)"    >POSTN</text></g><g id="c7e1f" class="GeneProduct " transform="translate(114.09 8)"  name="RUNX2" ><rect   width="50.81" height="20"/><text   transform="translate(25.41 10)"    >RUNX2</text></g><g id="cc1b5" class="GeneProduct " transform="translate(63.11 8)"  name="CTGF" ><rect   width="50.98" height="20"/><text   transform="translate(25.49 10)"    >CTGF</text></g><g id="eba49" class="GeneProduct " transform="translate(164.91 8)"  name="SERPINE1" ><rect   width="53.80" height="20"/><text   transform="translate(26.90 10)"    >SERPINE1</text></g></g></g><g id="cea4a" class="GroupGroup" transform="translate(388.91 8.56)"  ><g class="GroupGroup"><g id="cb356" class="GeneProduct " transform="translate(61.19 8)"  name="FBN1" ><rect   width="57.06" height="20"/><text   transform="translate(28.53 10)"    >FBN1</text></g><g id="d08fb" class="GeneProduct " transform="translate(8 8)"  name="LTBP1" ><rect   width="53.19" height="20"/><text   transform="translate(26.60 10)"    >LTBP1</text></g><g id="c59e1" class="GeneProduct " transform="translate(61.19 28)"  name="FBN2" ><rect   width="57.06" height="20"/><text   transform="translate(28.53 10)"    >FBN2</text></g><g id="d1194" class="GeneProduct " transform="translate(61.19 48)"  name="FBN3" ><rect   width="57.06" height="20"/><text   transform="translate(28.53 10)"    >FBN3</text></g><g id="f7739" class="GeneProduct " transform="translate(8,28)"  name="LTBP2" ><rect   width="53.19" height="20"/><text   transform="translate(26.60 10)"    >LTBP2</text></g></g></g><g id="e2693" class="GroupGroup" transform="translate(233.76 222.77)"  ><g class="GroupGroup"><g id="b8567" class="GeneProduct " transform="translate(88.23 28.23)"  name="SMAD4" ><rect   width="80" height="20"/><text   transform="translate(40,10)"    >SMAD4</text></g><g id="fbaa7" class="GeneProduct " transform="translate(8,8)"  name="SMAD2" ><rect   width="80" height="20"/><g id="fad1d" class="State Burr" transform="translate(-6.45 -5.36)"  name="P" ><g class="State Burr"><use class="State Burr Node Icon" width="15" height="15" fill="#fff" stroke="#000" href="#Ellipse"/></g><g ><defs><clipPath ><rect x="-7.5" y="-7.5" width="15" height="15" style="stroke:none"/></clipPath></defs><text   transform="translate(7.5,7.5)"  font-family="arial" overflow="visible">P</text></g></g><text   transform="translate(40,10)"    >SMAD2</text></g><g id="f6122" class="GeneProduct " transform="translate(8 28)"  name="SMAD3" ><rect   width="80" height="20"/><g id="f22fe" class="State Burr" transform="translate(-7.5 -4.31)"  name="P" ><g class="State Burr"><use class="State Burr Node Icon" width="15" height="15" fill="#fff" stroke="#000" href="#Ellipse"/></g><g ><defs><clipPath ><rect x="-7.5" y="-7.5" width="15" height="15" style="stroke:none"/></clipPath></defs><text   transform="translate(7.5,7.5)"  font-family="arial" overflow="visible">P</text></g></g><text   transform="translate(40,10)"    >SMAD3</text></g></g></g><g id="e84b7" class="GroupComplex" transform="translate(905,80)"  ><g class="GroupComplex"><use class="Icon" width="104" height="64" fill="#b4b464" fill-opacity=".1" stroke="grey" href="#Octagon"/><g id="d2cbb" class="GeneProduct " transform="translate(12,12)"  name="ANG2" ><rect   width="80" height="20"/><text   transform="translate(40,10)"    >ANG2</text></g><g id="e660e" class="GeneProduct " transform="translate(12,32)"  name="AGTR1" ><rect   width="80" height="20"/><text   transform="translate(40,10)"    >AGTR1</text></g></g></g><g id="fc794" class="GroupComplex" transform="translate(727.49 176)"  ><g class="GroupComplex"><use class="Icon" width="104" height="104" fill="#b4b464" fill-opacity=".1" stroke="grey" href="#Octagon"/><g id="ac640" class="GeneProduct " transform="translate(12,12)"  name="MAPK3" ><rect   width="80" height="20"/><text   transform="translate(40,10)"    >MAPK3</text></g><g id="b92af" class="GeneProduct " transform="translate(12,52)"  name="MAPK8" ><rect   width="80" height="20"/><text   transform="translate(40,10)"    >MAPK8</text></g><g id="b9717" class="GeneProduct " transform="translate(12,32)"  name="MAPK1" ><rect   width="80" height="20"/><text   transform="translate(40,10)"    >MAPK1</text></g><g id="d1052" class="GeneProduct " transform="translate(12,72)"  name="MAPK14" ><rect   width="80" height="20"/><text   transform="translate(40,10)"    >MAPK14</text></g></g></g><g id="e53c0" class="GroupGroup" transform="translate(211.03 143.7)"  ><g class="GroupGroup"><g id="f1757" class="GeneProduct " transform="translate(139.81 11.38)"  name="FLNA" ><rect   width="55.14" height="20"/><text   transform="translate(27.57 10)"    >FLNA</text></g><g id="a793a" class="Label" transform="translate(8,8)"  name="Actin Cytoskeleton" ><g class="Label"/><text   transform="translate(74.42 11.5)"    font-weight="bold"  style="font-size:12px">Actin Cytoskeleton</text></g></g></g></g></g></g></svg>