<?xml version="1.0" encoding="UTF-8"?>
<svg xmlns="http://www.w3.org/2000/svg" id="-svg" class="Diagram"  baseProfile="full" prefix="schema:http://schema.org/" preserveAspectRatio="xMidYMid"  version="1.1"><defs><g id="filter-defs"><filter id="doublefalse3filter" x="-50%" y="-50%" width="200%" height="200%"><feComposite in="SourceGraphic" in2="SourceGraphic" result="doubleDark"/><feMorphology in="doubleDark" operator="dilate" radius="0.17" result="in2Double"/><feMorphology in="SourceGraphic" operator="dilate" radius="3" result="inDouble"/><feComposite in="inDouble" in2="in2Double" operator="out" result="doubleResult"/></filter></g><g id="icon-defs"><symbol id="Ellipse" class=" Icon Ellipse" x="0" y="0" overflow="visible" preserveAspectRatio="none" viewBox="0 0 50 50"><desc>Ellipse</desc><ellipse cx="25" cy="25" rx="25" ry="25" vector-effect="non-scaling-stroke"/></symbol><symbol id="Octagon" class=" Icon Octagon" x="0" y="0" overflow="visible" preserveAspectRatio="none" viewBox="0 0 100 100"><desc>Octagon</desc><path d="m0 25 25-25h50l25 25v50l-25 25h-50l-25-25z" vector-effect="non-scaling-stroke"/></symbol></g><g id="marker-defs"><marker id="meminhibition000" markerHeight="20" markerWidth="10" orient="auto" preserveAspectRatio="none" refX="10" refY="10" viewBox="0 0 10 20"><g id="g-meminhibition000" transform=""><g transform="rotate(180 5 10)"><rect y="9" width="8" height="2" style="stroke:none"/><line x="0" y="0" width="12" height="12" x1="7" x2="7" y2="20" stroke="#000" stroke-width="1.8"/></g></g></marker><marker id="membinding000" markerHeight="12" markerWidth="12" orient="auto" preserveAspectRatio="none" refX="12" refY="6" viewBox="0 0 12 12"><g id="g-membinding000" transform=""><g transform="rotate(180 6 6)"><rect y="5.4" width="2" height="1.2" style="stroke:#fff"/><polygon points="12 12 0 6 12 0 5 6" stroke-width="0"/></g></g></marker><marker id="mea" markerHeight="12" markerWidth="12" orient="auto" preserveAspectRatio="none" refX="12" refY="6" viewBox="0 0 12 12"><g id="g-mea" transform=""><g transform="rotate(180 6 6)"><rect y="5.4" width="2" height="1.2" style="stroke:#fff"/><polygon points="12 11 0 6 12 1" stroke-width="0"/></g></g></marker></g></defs><g id="viewport-20220102142154472" class="svg-pan-zoom_viewport" transform="matrix(0.60 0 0 0.60 136.82 0)" style="transform:matrix(0.60, 0, 0, 0.60, 136.82, 0)"><style>svg.Diagram {font-family: 'Liberation Sans', Arial, sans-serif; }.Diagram path {fill: transparent;stroke: #000;marker-end: url(#mea);}.Diagram symbol path {fill: inherit;stroke: inherit;stroke-width: inherit;marker-end: inherit;}.Diagram rect {fill: #fff;stroke: #000;}.Diagram text {dominant-baseline: central;overflow: hidden;text-anchor: middle;fill: #000;font-size: 10px;}</style><style type="text/css">.Viewport .textContent {
  pointer-events: none;
  stroke-width: 0px;
}

					.Viewport.Icon {
  fill: white;
}

/* Hide the InfoBox */
.Viewport.textContent {
  font-size: 0;
}

.textContent {
  stroke: none;
}

.DataNode {
  stroke-miterlimit: 1;
  pointer-events: auto;
}

.DataNode:hover {
  cursor: pointer;
}

/* TODO should this apply to things other than DataNodes? */
.DataNode.textContent {
  pointer-events: none;
}

.DataNode.Highlighted {
  opacity: 0.6;
  stroke-width: 0px;
}

marker {
  /* this is what should work per the spec
  stroke-dasharray: none; */
  /* but I need to add this to make it work in Safari */
  stroke-dasharray: 9999999999999999999999999;
}

.Citation.Icon {
  fill: none;
  stroke-width: 0px;
}

.Citation.textContent {
  text-align: center;
  vertical-align: top;
  font-size: 7px;
  fill: #999;
  fill-opacity: 1;
  stroke: none;
}</style><g id="WP3651" class="Pathway http___identifiers_org_pw_PW_0001360 http___identifiers_org_pw_PW_0000089 http___identifiers_org_pw_PW_0001339 Viewport"  name="Name: Pathways affected in adenoid cystic carcinoma Organism: Homo sapiens" ><g class="Pathway http___identifiers_org_pw_PW_0001360 http___identifiers_org_pw_PW_0000089 http___identifiers_org_pw_PW_0001339 Viewport"><rect   width="1553" height="1197" style="stroke:none"/><g id="idccb6c0c4" class="Edge"  ><path    d="m1089 172-38 1" style="marker-end:url(#meminhibition000)"/></g><g id="id71198e04" class="Edge"  ><path    d="m1443 337-78 1" style="marker-end:url(#meminhibition000)"/></g><g id="id6d3192e3" class="Edge"  ><path    d="m1315.5 348-0.5 39" style="marker-end:url(#meminhibition000)"/></g><g id="ide2af8342" class="Edge"  ><path    d="m1121.5 348-0.5 38" style="marker-end:url(#meminhibition000)"/></g><g id="id69d437e8" class="Edge"  ><path    d="m1333 172 54.25 0.75"/></g><g id="idbd289167" class="Edge"  ><path    d="m1306 258h83"/></g><g id="id14479078" class="Edge"  ><path    d="m971 173h-62"/></g><g id="iddfde4367" class="Edge"  ><path    d="m944 258-61.75 0.75"/></g><g id="id930cc9ce" class="Edge"  ><path    d="M379.25,553.75L417,553"/></g><g id="id35d8d9c7" class="Edge"  ><path    d="m330 739 0.25-111.75" style="marker-end:url(#meminhibition000)"/></g><g id="id55017ec0" class="Edge"  ><path    d="m101 751h38" style="marker-end:url(#meminhibition000)"/></g><g id="id3f3af077" class="Edge"  ><path    d="m1011 516 55 36" style="marker-end:url(#meminhibition000)"/></g><g id="id1318e08f" class="Edge"  ><path    d="m1019 637 29.25 0.75" style="marker-end:url(#meminhibition000)"/></g><g id="id1efade1f" class="Edge"  ><path    d="m1090 720 1 30" style="marker-end:url(#meminhibition000)"/></g><g id="id51b71e7f" class="Edge"  ><path    d="m1091 770v31"/></g><g id="id1b07a648" class="Edge"  ><path    d="m1242 772v27"/></g><g id="idce94a352" class="Edge"  ><path    d="m1222 80 71 82"/></g><g id="id2db05937" class="Edge"  ><path    d="m1182 80-53 82"/></g><g id="ide49dab7b" class="Edge"  ><path    d="m1169 172 97 76"/></g><g id="id910cf44b" class="Edge"  ><path    d="m1253 172h-84"/></g><g id="id47b8cf30" class="Edge"  ><path    d="m1149 182 141.75 146"/></g><g id="idef33e422" class="Edge"  ><path    d="m1315.5 328-49.5-60"/></g><g id="idf7930db2" class="Edge"  ><path    d="m1129 182-9 67"/></g><g id="id7a7538e4" class="Edge"  ><path    d="m1109 182-125 66"/></g><g id="id859dea07" class="Edge"  ><path    d="m1120 269 1.5 59"/></g><g id="id913442af" class="Edge"  ><path    d="m1315 407 0.5 32"/></g><g id="idf52c67a8" class="Edge"  ><path    d="m1121 406v29"/></g><g id="id7b1f86fa" class="Edge"  ><path    d="m94 615 46 1"/></g><g id="idfc2e3cbf" class="Edge"  ><path    d="m220 616 70.25 1.25"/></g><g id="idc593a148" class="Edge"  ><path    d="M370.25,617.25L401,617"/></g><g id="id19fb1585" class="Edge"  ><path    d="m179 761v26"/></g><g id="id5e196aab" class="Edge"  ><path    d="m1242 516v40"/></g><g id="id1f0ec620" class="Edge"  ><path    d="m1242 576v51"/></g><g id="ida66ab56f" class="Edge"  ><path    d="m1242 647v47"/></g><g id="id407876d" class="Edge"  ><path    d="m1242 714v38"/></g><g id="idf5c8300b" class="Edge"  ><path    d="M1088.25,647.75L1090,700"/></g><g id="idc3429b81" class="Edge"  ><path    d="m1202 637-73.75 0.75"/></g><g id="id9bec5a18" class="Edge"  ><path    d="m179 975 29.75 1.25"/></g><g id="idd34ea317" class="Edge"  ><path    d="m364 944v58"/><g id="f598d" class="AB" transform="translate(364,975.9)"  ><g class="AB"/></g></g><g id="id880f790d" class="Edge"  ><path    d="m454 960-90 15.9" style="marker-end:url(#meminhibition000)"/></g><g id="id1505063e" class="Edge"  ><path    d="M288.75,976.25L364,975.9" style="marker-end:url(#meminhibition000)"/></g><g id="id42d06968" class="Edge"  ><path    d="m384 1022 26 30"/></g><g id="id67ee2300" class="Edge"  ><path    d="m344 1022-35.25 30.75"/></g><g id="id382cdc5c" class="Edge"  ><path    d="m410 1072-20.5 38"/></g><g id="idbc435f30" class="Edge"  ><path    d="m308.75 1072.8 21.75 37.25"/></g><g id="id55568f45" class="Edge"  ><path    d="M364.25,895.75L364,924"/></g><g id="id65e7d692" class="Edge"  ><path    d="m454 989-90-13.1" style="marker-end:url(#meminhibition000)"/></g><g id="id7fd16d" class="Edge"  ><path    d="M353.25,284.75L353.5,352"/></g><g id="idea859870" class="Edge"  ><path    d="m1144 515-32 25"/></g><g id="idd57a9301" class="Edge"  ><path    d="m1086 604 2.25 23.75"/></g><g id="id7efacd0c" class="Edge"  ><path    d="m353.5 159-0.25 61.75" stroke-dasharray="5,3"/></g><g id="ida0f810d6" class="Edge"  ><path    d="m470 197-64.75 39.75" stroke-dasharray="5,3"/></g><g id="id29c11519" class="Edge"  ><path    d="m469 357-63.75-88.25" stroke-dasharray="5,3"/></g><g id="idb4122b2e" class="Edge"  ><path    d="m234 359 67.25-90.25" stroke-dasharray="5,3"/></g><g id="id9cd04372" class="Edge"  ><path    d="m260 195 41.25 41.75" stroke-dasharray="5,3"/></g><g id="idb9ee254a" class="Edge"  ><path    d="m229 553 70.25 0.75" style="marker-end:url(#membinding000)"/></g><g id="iddf36396c" class="Edge"  ><path    d="m181 581-1 25"/></g><g id="id27ccef16" class="Edge"  ><path    d="m180 626-1 30"/></g><g id="idf0b93036" class="Edge"  ><path    d="m96 684h35"/></g><g id="idbe70fc1d" class="Edge"  ><path    d="m179 712v29"/></g><g id="idb243fcd2" class="Edge"  ><path    d="m978 687 1-40"/></g><g id="be4a2" class=" PhysicalEntity CellularComponent Nucleus" transform="translate(1115,36)"  ><g class=" PhysicalEntity CellularComponent Nucleus" filter="url(#doublefalse3filter)"><g class=" PhysicalEntity CellularComponent Nucleus"><use class=" PhysicalEntity CellularComponent Nucleus Node Icon" transform="matrix(0.93 0 0 0.85 5.61 5.12)" width="171.5" height="69.5" fill="transparent" stroke="#c0c0c0" stroke-width="3" href="#Ellipse"/></g></g></g><g id="cf961" class=" PhysicalEntity CellularComponent Cell" transform="translate(-1.5,513.5)"  ><g class=" PhysicalEntity CellularComponent Cell" filter="url(#doublefalse3filter)"><g class=" PhysicalEntity CellularComponent Cell"><rect   transform="matrix(0.98 0 0 0.96 5.87 5.78)" width="523" height="312" rx="15" ry="15" stroke-width="3" style="fill:transparent;stroke:#c0c0c0"/></g></g></g><g id="b53bf" class=" PhysicalEntity CellularComponent Cell" transform="translate(912.5,564.5)"  ><g class=" PhysicalEntity CellularComponent Cell" filter="url(#doublefalse3filter)"><g class=" PhysicalEntity CellularComponent Cell"><rect   transform="matrix(0.97 0 0 0.96 5.83 5.74)" width="423" height="267" rx="15" ry="15" stroke-width="3" style="fill:transparent;stroke:#c0c0c0"/></g></g></g><g id="ec6f0" class=" PhysicalEntity CellularComponent Cell" transform="translate(86.5,932.5)"  ><g class=" PhysicalEntity CellularComponent Cell" filter="url(#doublefalse3filter)"><g class=" PhysicalEntity CellularComponent Cell"><rect   transform="matrix(0.98 0 0 0.95 5.85 5.71)" width="483" height="236" rx="15" ry="15" stroke-width="3" style="fill:transparent;stroke:#c0c0c0"/></g></g></g><g id="d397b" class="Label" transform="translate(134,38)"  name="Epigenetic Modification" ><g class="Label"/><text   transform="translate(67,10)"    font-weight="bold"  style="font-size:12px">Epigenetic Modification</text></g><g id="da124" class="Label" transform="translate(803,32)"  name="DNA Damage/Checkpoint Signaling" ><g class="Label"/><text   transform="translate(109,10)"    font-weight="bold"  style="font-size:12px">DNA Damage/Checkpoint Signaling</text></g><g id="b531a" class="Label" transform="translate(1162,60)"  name="DNA Damage" ><g class="Label"/><text   transform="translate(40,10)"    font-weight="bold"  style="font-size:12px">DNA Damage</text></g><g id="fcc39" class="Label" transform="translate(26,487)"  name="MYB/MYC Signaling" ><g class="Label"/><text   transform="translate(77,10)"    font-weight="bold"  style="font-size:12px">MYB/MYC Signaling</text></g><g id="e709f" class="Label" transform="translate(417,543)"  name="MYB Depression" ><g class="Label"/><text   transform="translate(54,10)"    font-weight="bold"  style="font-size:12px">MYB Depression</text></g><g id="b5dea" class="Label" transform="translate(772,492)"  name="FGF/IGF/PI3K Signaling" ><g class="Label"/><text   transform="translate(72.5,10)"    font-weight="bold"  style="font-size:12px">FGF/IGF/PI3K Signaling</text></g><g id="aaab9" class="Label" transform="translate(68,890)"  name="Notch Signal" ><g class="Label"/><text   transform="translate(40,10)"    font-weight="bold"  style="font-size:12px">Notch Signal</text></g><g id="e4f9f" class="Label" transform="translate(301,1110)"  name="Pathway Activation" ><g class="Label"/><text   transform="translate(59,10)"    font-weight="bold"  style="font-size:12px">Pathway Activation</text></g><g id="a6ae1" class="GroupGroup" transform="translate(257,23)"  ><g class="GroupGroup"><g id="ff487" class="Label" transform="translate(8,8)"  name="SWI/SNF Complex Activity" ><g class="Label"/><text   transform="translate(88.5,10)"     style="font-size:12px">SWI/SNF Complex Activity</text></g><g id="ce9f0" class="GeneProduct " transform="translate(56.5,28)"  name="SMARCA2" ><rect   width="80" height="20"/><text   transform="translate(40,10)"    >SMARCA2</text></g><g id="a73fe" class="GeneProduct " transform="translate(56.5,68)"  name="SMARCE1" ><rect   width="80" height="20"/><text   transform="translate(40,10)"    >SMARCE1</text></g><g id="d37dd" class="GeneProduct " transform="translate(56.5,88)"  name="ATRX" ><rect   width="80" height="20"/><text   transform="translate(40,10)"    >ATRX</text></g><g id="fb2c2" class="GeneProduct " transform="translate(56.5,48)"  name="ARID1A" ><rect   width="80" height="20"/><text   transform="translate(40,10)"    >ARID1A</text></g><g id="f2b49" class="GeneProduct " transform="translate(56.5,108)"  name="SRCAP" ><rect   width="80" height="20"/><text   transform="translate(40,10)"    >SRCAP</text></g></g></g><g id="f50fe" class="GroupGroup" transform="translate(470,110)"  ><g class="GroupGroup"><g id="e2b0b" class="Label" transform="translate(8,8)"  name="Histone Methyltransferase Activity" ><g class="Label"/><text   transform="translate(94,10)"     style="font-size:12px">Histone Methyltransferase Activity</text></g><g id="eb6d1" class="GeneProduct " transform="translate(49.5,28)"  name="SETD2" ><rect   width="80" height="20"/><text   transform="translate(40,10)"    >SETD2</text></g><g id="e1771" class="GeneProduct " transform="translate(49.5,48)"  name="NSD1" ><rect   width="80" height="20"/><text   transform="translate(40,10)"    >NSD1</text></g><g id="e24ef" class="GeneProduct " transform="translate(49.5,68)"  name="KMT2C" ><rect   width="80" height="20"/><text   transform="translate(40,10)"    >KMT2C</text></g><g id="c1469" class="GeneProduct " transform="translate(49.5,88)"  name="CMTR2" ><rect   width="80" height="20"/><text   transform="translate(40,10)"    >CMTR2</text></g></g></g><g id="df474" class="GroupGroup" transform="translate(469,299)"  ><g class="GroupGroup"><g id="a829a" class="Label" transform="translate(8,8)"  name="Histone Demethylase Activity" ><g class="Label"/><text   transform="translate(91.5,10)"     style="font-size:12px">Histone Demethylase Activity</text></g><g id="d9822" class="GeneProduct " transform="translate(59.5,48)"  name="KDM6B" ><rect   width="80" height="20"/><text   transform="translate(40,10)"    >KDM6B</text></g><g id="e66f2" class="GeneProduct " transform="translate(59.5,28)"  name="KDM6A" ><rect   width="80" height="20"/><text   transform="translate(40,10)"    >KDM6A</text></g><g id="f9375" class="GeneProduct " transform="translate(59.5,68)"  name="ARID5B" ><rect   width="80" height="20"/><text   transform="translate(40,10)"    >ARID5B</text></g><g id="bfd3c" class="GeneProduct " transform="translate(59.5,88)"  name="JMJD1C" ><rect   width="80" height="20"/><text   transform="translate(40,10)"    >JMJD1C</text></g></g></g><g id="df7af" class="GroupGroup" transform="translate(42,335)"  ><g class="GroupGroup"><g id="faa39" class="Label" transform="translate(8,8)"  name="Histone Deacetylase Activity" ><g class="Label"/><text   transform="translate(88,10)"     style="font-size:12px">Histone Deacetylase Activity</text></g><g id="b0e90" class="GeneProduct " transform="translate(56,28)"  name="ARID4B" ><rect   width="80" height="20"/><text   transform="translate(40,10)"    >ARID4B</text></g><g id="e9485" class="GeneProduct " transform="translate(56,48)"  name="BCOR" ><rect   width="80" height="20"/><text   transform="translate(40,10)"    >BCOR</text></g><g id="c4d98" class="GeneProduct " transform="translate(56,68)"  name="BCORL1" ><rect   width="80" height="20"/><text   transform="translate(40,10)"    >BCORL1</text></g></g></g><g id="c6dc3" class="GroupGroup" transform="translate(66,117)"  ><g class="GroupGroup"><g id="e784a" class="Label" transform="translate(8,8)"  name="Histone Acetyltransferase Activity" ><g class="Label"/><text   transform="translate(89,10)"     style="font-size:12px">Histone Acetyltransferase Activity</text></g><g id="f91cd" class="GeneProduct " transform="translate(57,28)"  name="CREBBP" ><rect   width="80" height="20"/><text   transform="translate(40,10)"    >CREBBP</text></g><g id="b348f" class="GeneProduct " transform="translate(57,48)"  name="MORF4L1" ><rect   width="80" height="20"/><text   transform="translate(40,10)"    >MORF4L1</text></g><g id="cfdfc" class="GeneProduct " transform="translate(57,88)"  name="KAT6A" ><rect   width="80" height="20"/><text   transform="translate(40,10)"    >KAT6A</text></g><g id="a532d" class="GeneProduct " transform="translate(57,128)"  name="BRD1" ><rect   width="80" height="20"/><text   transform="translate(40,10)"    >BRD1</text></g><g id="bfa48" class="GeneProduct " transform="translate(57,68)"  name="EP300" ><rect   width="80" height="20"/><text   transform="translate(40,10)"    >EP300</text></g><g id="e7ee3" class="GeneProduct " transform="translate(57,108)"  name="KANSL1" ><rect   width="80" height="20"/><text   transform="translate(40,10)"    >KANSL1</text></g></g></g><g id="a2413" class="GeneProduct " transform="translate(1253,162)"  name="PRKDC" ><rect   width="80" height="20"/><text   transform="translate(40,10)"    >PRKDC</text></g><g id="ab98c" class="GeneProduct " transform="translate(1089,162)"  name="ATM" ><rect   width="80" height="20"/><text   transform="translate(40,10)"    >ATM</text></g><g id="ffde8" class="GeneProduct " transform="translate(971,163)"  name="CREBBP" ><rect   width="80" height="20"/><text   transform="translate(40,10)"    >CREBBP</text></g><g id="cfef6" class="GeneProduct " transform="translate(944,248)"  name="SMC1A" ><rect   width="80" height="20"/><text   transform="translate(40,10)"    >SMC1A</text></g><g id="f647c" class="GeneProduct " transform="translate(1080,249)"  name="BRCA1" ><rect   width="80" height="20"/><text   transform="translate(40,10)"    >BRCA1</text></g><g id="b9b6b" class="GeneProduct " transform="translate(1226,248)"  name="TP53" ><rect   width="80" height="20"/><text   transform="translate(40,10)"    >TP53</text></g><g id="b1889" class="Protein" transform="translate(1266,328)"  name="Chk1" ><rect   width="99" height="20"/><text   transform="translate(49.5,10)"    >Chk1</text></g><g id="d36d2" class="GeneProduct " transform="translate(1443,327)"  name="UHRF1" ><rect   width="80" height="20"/><text   transform="translate(40,10)"    >UHRF1</text></g><g id="b20c8" class="Protein" transform="translate(1078,328)"  name="Chk2" ><rect   width="87" height="20"/><text   transform="translate(43.5,10)"    >Chk2</text></g><g id="e16e5" class="GeneProduct " transform="translate(1081,386)"  name="TLK1" ><rect   width="80" height="20"/><text   transform="translate(40,10)"    >TLK1</text></g><g id="f8d8f" class="GeneProduct NCBI_Protein_78070384" transform="translate(1275,387)"  name="CDC2" ><rect   width="80" height="20"/><text   transform="translate(40,10)"    >CDC2</text></g><g id="a91b5" class="GeneProduct " transform="translate(299.25,543.75)"  name="NFIB" ><rect   width="80" height="20"/><text   transform="translate(40,10)"    >NFIB</text></g><g id="d16a2" class="GeneProduct " transform="translate(14,605)"  name="CREBBP" ><rect   width="80" height="20"/><text   transform="translate(40,10)"    >CREBBP</text></g><g id="b14b1" class="GeneProduct " transform="translate(16,674)"  name="MYCBP" ><rect   width="80" height="20"/><text   transform="translate(40,10)"    >MYCBP</text></g><g id="fa0ca" class="GeneProduct " transform="translate(140,606)"  name="NCOR1" ><rect   width="80" height="20"/><text   transform="translate(40,10)"    >NCOR1</text></g><g id="d0249" class="GeneProduct " transform="translate(290.25,607.25)"  name="CEBPA" ><rect   width="80" height="20"/><text   transform="translate(40,10)"    >CEBPA</text></g><g id="cae38" class="GeneProduct " transform="translate(21,741)"  name="MGA" ><rect   width="80" height="20"/><text   transform="translate(40,10)"    >MGA</text></g><g id="ea82c" class="GeneProduct " transform="translate(139,741)"  name="MAX" ><rect   width="80" height="20"/><text   transform="translate(40,10)"    >MAX</text></g><g id="b82b2" class="GeneProduct " transform="translate(290,739)"  name="SMARCA2" ><rect   width="80" height="20"/><text   transform="translate(40,10)"    >SMARCA2</text></g><g id="fcee7" class="GeneProduct " transform="translate(971,496)"  name="IL17RD" ><rect   width="80" height="20"/><text   transform="translate(40,10)"    >IL17RD</text></g><g id="e99d3" class="GeneProduct " transform="translate(1104,495)"  name="FGF16" ><rect   width="80" height="20"/><text   transform="translate(40,10)"    >FGF16</text></g><g id="cbb1f" class="GeneProduct " transform="translate(1202,496)"  name="ERBB2IP" ><rect   width="80" height="20"/><text   transform="translate(40,10)"    >ERBB2IP</text></g><g id="d2aa0" class="GeneProduct " transform="translate(1048.2 627.75)"  name="PIK3CA" ><rect   width="80" height="20"/><text   transform="translate(40,10)"    >PIK3CA</text></g><g id="b43e7" class="GeneProduct " transform="translate(1202,556)"  name="ERBB2" ><rect   width="80" height="20"/><text   transform="translate(40,10)"    >ERBB2</text></g><g id="b683e" class="GeneProduct " transform="translate(1202,627)"  name="HRAS" ><rect   width="80" height="20"/><text   transform="translate(40,10)"    >HRAS</text></g><g id="e0944" class="GeneProduct " transform="translate(939,627)"  name="PTEN" ><rect   width="80" height="20"/><text   transform="translate(40,10)"    >PTEN</text></g><g id="e082c" class="GeneProduct " transform="translate(1202,694)"  name="RAF1" ><rect   width="80" height="20"/><text   transform="translate(40,10)"    >RAF1</text></g><g id="e6f95" class="GeneProduct " transform="translate(1050,700)"  name="AKT1" ><rect   width="80" height="20"/><text   transform="translate(40,10)"    >AKT1</text></g><g id="e94f3" class="GeneProduct " transform="translate(1051,750)"  name="FOXO3" ><rect   width="80" height="20"/><text   transform="translate(40,10)"    >FOXO3</text></g><g id="f1e71" class="GeneProduct " transform="translate(1202,752)"  name="MAP2K2" ><rect   width="80" height="20"/><text   transform="translate(40,10)"    >MAP2K2</text></g><g id="abcf7" class="GeneProduct " transform="translate(324.25,875.75)"  name="CNTN6" ><rect   width="80" height="20"/><text   transform="translate(40,10)"    >CNTN6</text></g><g id="ee1da" class="GeneProduct " transform="translate(324,924)"  name="NOTCH1" ><rect   width="80" height="20"/><text   transform="translate(40,10)"    >NOTCH1</text></g><g id="ed289" class="GeneProduct " transform="translate(208.75,966.25)"  name="CTBP1" ><rect   width="80" height="20"/><text   transform="translate(40,10)"    >CTBP1</text></g><g id="b8b57" class="GeneProduct " transform="translate(99,965)"  name="FOXP2" ><rect   width="80" height="20"/><text   transform="translate(40,10)"    >FOXP2</text></g><g id="aa6fc" class="GeneProduct " transform="translate(454,950)"  name="DTX4" ><rect   width="80" height="20"/><text   transform="translate(40,10)"    >DTX4</text></g><g id="b45b2" class="GeneProduct " transform="translate(454,979)"  name="FBXW7" ><rect   width="80" height="20"/><text   transform="translate(40,10)"    >FBXW7</text></g><g id="d9e38" class="GeneProduct " transform="translate(370,1052)"  name="MYCN" ><rect   width="80" height="20"/><text   transform="translate(40,10)"    >MYCN</text></g><g id="ba7f7" class="GeneProduct " transform="translate(268.75 1052.8)"  name="MAML3" ><rect   width="80" height="20"/><text   transform="translate(40,10)"    >MAML3</text></g><g id="fca2d" class="Pathway" transform="translate(272,352)"  name="Chromatin Remodeling" ><g class="Pathway"/><g ><defs><clipPath ><rect x="-81.5" y="-10" width="163" height="20" style="stroke:none"/></clipPath></defs><text   transform="translate(81.5,10)"    font-weight="bold"  style="fill:#14961e;font-size:12px">Chromatin Remodeling</text></g></g><g id="bc3b3" class="Pathway" transform="translate(732,163)"  name="Growth Control/Homeostasis" ><g class="Pathway"/><g ><defs><clipPath ><rect x="-88.5" y="-10" width="177" height="20" style="stroke:none"/></clipPath></defs><text   transform="translate(88.5,10)"    font-weight="bold"  style="fill:#14961e;font-size:12px">Growth Control/Homeostasis</text></g></g><g id="cad96" class="Pathway" transform="translate(802.25,248.75)"  name="DNA Repair" ><g class="Pathway"/><g ><defs><clipPath ><rect x="-40" y="-10" width="80" height="20" style="stroke:none"/></clipPath></defs><text   transform="translate(40,10)"    font-weight="bold"  style="fill:#14961e;font-size:12px">DNA Repair</text></g></g><g id="ba4ee" class="Pathway" transform="translate(1389,248)"  name="Apoptosis" ><g class="Pathway"/><g ><defs><clipPath ><rect x="-40" y="-10" width="80" height="20" style="stroke:none"/></clipPath></defs><text   transform="translate(40,10)"    font-weight="bold"  style="fill:#14961e;font-size:12px">Apoptosis</text></g></g><g id="b3784" class="Pathway" transform="translate(1049,435)"  name="S-Phase Progression" ><g class="Pathway"/><g ><defs><clipPath ><rect x="-72" y="-11.5" width="144" height="23" style="stroke:none"/></clipPath></defs><text   transform="translate(72,11.5)"    font-weight="bold"  style="fill:#14961e;font-size:12px">S-Phase Progression</text></g></g><g id="e72c9" class="Pathway" transform="translate(1254,439)"  name="G2/M Progression" ><g class="Pathway"/><g ><defs><clipPath ><rect x="-61.5" y="-10" width="123" height="20" style="stroke:none"/></clipPath></defs><text   transform="translate(61.5,10)"    font-weight="bold"  style="fill:#14961e;font-size:12px">G2/M Progression</text></g></g><g id="a7f60" class="Pathway" transform="translate(401,607)"  name="Growth/Proliferation" ><g class="Pathway"/><g ><defs><clipPath ><rect x="-63" y="-10" width="126" height="20" style="stroke:none"/></clipPath></defs><text   transform="translate(63,10)"    font-weight="bold"  style="fill:#14961e;font-size:12px">Growth/Proliferation</text></g></g><g id="d09c0" class="Pathway" transform="translate(1166,799)"  name="Cell Growth/Migration" ><g class="Pathway"/><g ><defs><clipPath ><rect x="-76" y="-11" width="152" height="22" style="stroke:none"/></clipPath></defs><text   transform="translate(76,11)"    font-weight="bold"  style="fill:#14961e;font-size:12px">Cell Growth/Migration</text></g></g><g id="f29c2" class="GroupComplex" transform="translate(301.25,220.75)"  ><g class="GroupComplex"><use class="Icon" width="104" height="64" fill="#b4b464" fill-opacity=".1" stroke="grey" href="#Octagon"/><g id="a0b8c" class="GeneProduct " transform="translate(12,12)"  name="HIST1H1E" ><rect   width="80" height="20"/><text   transform="translate(40,10)"    >HIST1H1E</text></g><g id="a13cc" class="GeneProduct " transform="translate(12,32)"  name="HIST1H2AL" ><rect   width="80" height="20"/><text   transform="translate(40,10)"    >HIST1H2AL</text></g></g></g><g id="d9845" class="GroupComplex" transform="translate(1034,540)"  ><g class="GroupComplex"><use class="Icon" width="104" height="64" fill="#b4b464" fill-opacity=".1" stroke="grey" href="#Octagon"/><g id="bdfdd" class="GeneProduct " transform="translate(12,12)"  name="FGFR4" ><rect   width="80" height="20"/><text   transform="translate(40,10)"    >FGFR4</text></g><g id="eefd7" class="GeneProduct " transform="translate(12,32)"  name="INSRR" ><rect   width="80" height="20"/><text   transform="translate(40,10)"    >INSRR</text></g></g></g><g id="abf8d" class="GroupGroup" transform="translate(133,525)"  ><g class="GroupGroup"><g id="b8d96" class="GeneProduct " transform="translate(8,8)"  name="MYBL1" ><rect   width="80" height="20"/><text   transform="translate(40,10)"    >MYBL1</text></g><g id="ddb3a" class="GeneProduct " transform="translate(8,28)"  name="MYB" ><rect   width="80" height="20"/><text   transform="translate(40,10)"    >MYB</text></g></g></g><g id="efcb3" class="GroupGroup" transform="translate(131,656)"  ><g class="GroupGroup"><g id="bfb2b" class="GeneProduct " transform="translate(8,28)"  name="MYC" ><rect   width="80" height="20"/><text   transform="translate(40,10)"    >MYC</text></g><g id="b2374" class="GeneProduct " transform="translate(8,8)"  name="MYCN" ><rect   width="80" height="20"/><text   transform="translate(40,10)"    >MYCN</text></g></g></g><g id="cd204" class="GroupGroup" transform="translate(930,687)"  ><g class="GroupGroup"><g id="cbf74" class="GeneProduct " transform="translate(8,8)"  name="MAGI1" ><rect   width="80" height="20"/><text   transform="translate(40,10)"    >MAGI1</text></g><g id="bf514" class="GeneProduct " transform="translate(8,28)"  name="MAGI2" ><rect   width="80" height="20"/><text   transform="translate(40,10)"    >MAGI2</text></g></g></g><g id="fc88b" class="Pathway" transform="translate(1387.2 162.75)"  name="DNA Repair" ><g class="Pathway"/><g ><defs><clipPath ><rect x="-40" y="-10" width="80" height="20" style="stroke:none"/></clipPath></defs><text   transform="translate(40,10)"    font-weight="bold"  style="fill:#14961e;font-size:12px">DNA Repair</text></g></g><g id="e6f35" class="Pathway" transform="translate(116,787)"  name="Growth/Proliferation" ><g class="Pathway"/><g ><defs><clipPath ><rect x="-63" y="-10" width="126" height="20" style="stroke:none"/></clipPath></defs><text   transform="translate(63,10)"    font-weight="bold"  style="fill:#14961e;font-size:12px">Growth/Proliferation</text></g></g><g id="d7810" class="Pathway" transform="translate(1051,801)"  name="Apoptosis" ><g class="Pathway"/><g ><defs><clipPath ><rect x="-40" y="-10" width="80" height="20" style="stroke:none"/></clipPath></defs><text   transform="translate(40,10)"    font-weight="bold"  style="fill:#14961e;font-size:12px">Apoptosis</text></g></g><g id="b32b8" class="GeneProduct " transform="translate(324,1002)"  name="NICD" ><rect   width="80" height="20"/><text   transform="translate(40,10)"    >NICD</text></g></g></g></g></svg>