<?xml version="1.0" encoding="UTF-8"?>
<!--
  WikiPathways page: https://www.wikipathways.org/index.php/Pathway:WP3614
  URL for this compressed file: https://github.com/eweitz/cachome/tree/main/data/WP3614.svg
  Source code for compression: https://github.com/eweitz/cachome/tree/main/src/wikipathways.py
-->
<svg id="wp3614-svg" class="Diagram" width="800" height="600" color="black" baseProfile="full" prefix="schema:http://schema.org/" preserveAspectRatio="xMidYMid" version="1.1" viewBox="0 0 802.87 661.79" vocab="http://vocabularies.wikipathways.org/wp#" xmlns="http://www.w3.org/2000/svg" xmlns:xlink="http://www.w3.org/1999/xlink"><style>svg {font-family: 'Liberation Sans', Arial, sans-serif; }</style><defs><g id="jit-defs"><filter id="kaaviodoubletrue3filter" x="-50%" y="-50%" width="200%" height="200%"><feMorphology in="SourceGraphic" operator="dilate" radius="3" result="in2Double"/><feMorphology in="SourceGraphic" radius="3" result="inDouble"/><feComposite in="inDouble" in2="in2Double" operator="atop" result="doubleResult"/></filter><filter id="kaaviodoublefalse3filter" x="-50%" y="-50%" width="200%" height="200%"><feComposite in="SourceGraphic" in2="SourceGraphic" result="doubleDark"/><feMorphology in="doubleDark" operator="dilate" radius="0.16666666666666666" result="in2Double"/><feMorphology in="SourceGraphic" operator="dilate" radius="3" result="inDouble"/><feComposite in="inDouble" in2="in2Double" operator="out" result="doubleResult"/></filter><filter id="kaavioblackto000000filter" x="0" y="0" width="802.87" height="661.79" filterUnits="userSpaceOnUse"><feColorMatrix in="SourceGraphic" values="-1   0   0 0 0                   0  -1   0 0 0                   0   0  -1 0 0                   0   0   0 1 0"/></filter></g><g id="jic-defs"><marker id="markerStartArrow" stroke-dasharray="99999" markerHeight="12" markerUnits="userSpaceOnUse" markerWidth="12" orient="auto" preserveAspectRatio="none" refY="6" viewBox="0 0 12 12"><path d="M12 11L0 6l12-5z" fill="currentColor" stroke-width="0"/></marker><marker id="markerEndArrow" stroke-dasharray="99999" markerHeight="12" markerUnits="userSpaceOnUse" markerWidth="12" orient="auto" preserveAspectRatio="none" refX="12" refY="6" viewBox="0 0 12 12"><path transform="rotate(180 6 6)" d="M12 11L0 6l12-5z" fill="currentColor" stroke-width="0"/></marker><marker id="markerEndTBar" stroke-dasharray="99999" markerHeight="20" markerUnits="userSpaceOnUse" markerWidth="10" orient="auto" preserveAspectRatio="none" refX="10" refY="10" viewBox="0 0 10 20"><path d="m3 0v20" fill="currentColor" stroke="currentColor"/></marker><symbol id="Ellipse" overflow="visible" preserveAspectRatio="none" viewBox="0 0 50 50"><ellipse cx="25" cy="25" rx="25" ry="25" stroke="currentColor" vector-effect="non-scaling-stroke"/></symbol><symbol id="none" preserveAspectRatio="none" viewBox="0 0 100 100"/></g></defs><g id="WP3614" class="Viewport" color="black"  name="Name: Photodynamic therapy-induced HIF-1 survival signaling Organism: Homo sapiens"><rect id="WP3614-icon" class="Icon" width="802.87" height="661.79" fill="#fff" stroke="#000" stroke-width="0"/><g id="d09ad" class="SingleFreeNode Shape PhysicalEntity CellularComponent Nucleus" transform="translate(386.67 249.1)" color="#009999" ><g fill="#cff" filter="url(#kaaviodoubletrue3filter)" stroke="#099" stroke-width="3"><use id="d09ad-icon" class="Icon" transform="matrix(.94903 0 0 .9169 5.6942 5.5014)" width="223.41297273033362" height="132.39777258307254"    xlink:href="#Ellipse"/></g></g><g id="id53ae9bbe" class="Inhibition" color="#000" ><g color="#000" fill="transparent"  filter="url(#kaavioblackto000000filter)" stroke="#000" stroke-dasharray="76.01668979239768, 7"><path id="id53ae9bbe" class="EdgeBody" d="m498.53 122.2v20h45.076v17.941"   marker-end="url(#markerEndTBar)" /></g></g><g id="id86232cd6" class="Inhibition" color="#000" ><g color="#000" fill="transparent"  filter="url(#kaavioblackto000000filter)" stroke="#000" stroke-dasharray="76.54880245386204, 7"><path id="id86232cd6" class="EdgeBody" d="m543.61 180.14v20h-46.013v17.535"   marker-end="url(#markerEndTBar)" /></g></g><g id="idfa401099" class="DirectedInteraction" color="#000" ><g color="#000" fill="transparent"  filter="url(#kaavioblackto000000filter)" stroke="#000" stroke-dasharray="0, 5.8, 139.717639812752, 0"><path id="idfa401099" class="EdgeBody" d="m392.63 395.43v-20h105.51v-20.011"   marker-start="url(#markerStartArrow)" /></g></g><g id="idabf6117a" class="DirectedInteraction" color="#000" ><g color="#000" fill="transparent"  filter="url(#kaavioblackto000000filter)" stroke="#000" stroke-dasharray="143.91971694164903, 5.8"><path id="idabf6117a" class="EdgeBody" d="m498.13 355.41v20h109.86v19.859"   marker-end="url(#markerEndArrow)" /></g></g><g id="id24174dad" class="DirectedInteraction" color="#000" ><g color="#000" fill="transparent"  filter="url(#kaavioblackto000000filter)" stroke="#000" stroke-dasharray="32.667838484614414, 5.8"><path id="id24174dad" class="EdgeBody" d="m498.13 355.41-0.19343 38.467"   marker-end="url(#markerEndArrow)" /></g></g><g id="id2a76a8d5" class="DirectedInteraction" color="#000" ><g color="#000" fill="transparent"  filter="url(#kaavioblackto000000filter)" stroke="#000" stroke-dasharray="56.39667694719174, 5.8"><path id="id2a76a8d5" class="EdgeBody" d="m497.59 237.68 0.54181 62.194"   marker-end="url(#markerEndArrow)" /></g></g><g id="id3c4750fe" class="DirectedInteraction" color="#000" ><g color="#000" fill="transparent"  filter="url(#kaavioblackto000000filter)" stroke="#000" stroke-dasharray="246.72056530216054, 5.8"><path id="id3c4750fe" class="EdgeBody" d="m498.13 355.41v20h-212.32v20.197"   marker-end="url(#markerEndArrow)" /></g></g><g id="ida27970a0" class="Inhibition" color="#000" ><g color="#000" fill="transparent"  filter="url(#kaavioblackto000000filter)" stroke="#000" stroke-dasharray="75.67341543760685, 7"><path id="ida27970a0" class="EdgeBody" d="m452.45 180.14v20h45.138v17.535"   marker-end="url(#markerEndTBar)" /></g></g><g id="id7698367c" class="DirectedInteraction" color="#000" ><g color="#000" fill="transparent"  filter="url(#kaavioblackto000000filter)" stroke="#000" stroke-dasharray="249.5435502850118, 5.8"><path id="id7698367c" class="EdgeBody" d="m498.13 355.41v20h215.4v19.948"   marker-end="url(#markerEndArrow)" /></g></g><g id="id65795fb4" class="Inhibition" color="#000" ><g color="#000" fill="transparent"  filter="url(#kaavioblackto000000filter)" stroke="#000" stroke-dasharray="77.01691042794336, 7"><path id="id65795fb4" class="EdgeBody" d="m498.53 122.2v20h-46.076v17.941"   marker-end="url(#markerEndTBar)" /></g></g><g id="c4366" class="Label" transform="translate(481.88 189.73)" color="#000"  name="X"><use id="c4366-icon" class="Icon" width="80" height="20" fill="transparent"  stroke="#000" stroke-width="0" xlink:href="#none"/><text id="c4366-text" class="Text" transform="translate(40,18)" fill="#000"  font-size="24px" font-weight="bold" stroke="white" stroke-width="0" text-anchor="middle"><tspan x="0" y="0">X</tspan></text></g><g id="bae14" class="GroupGroup" transform="translate(664.46 395.36)" color="grey" ><use id="bae14-icon" class="Icon" width="98.13958663815674" height="133.5951784989167" fill="transparent"  stroke="grey" stroke-dasharray="5,3" stroke-width="0" xlink:href="#none"/><g id="e03eb" class="Label" transform="translate(8,8)" color="#000"  name="Survival"><use id="e03eb-icon" class="Icon" width="80" height="20" fill="transparent"  stroke="#000" stroke-width="0" xlink:href="#none"/><text id="e03eb-text" class="Text" transform="translate(40,14)" fill="#000"  font-size="12px" stroke="white" stroke-width="0" text-anchor="middle"><tspan x="0" y="0">Survival</tspan></text></g><a  id="b91ce" class="GeneProduct BIRC5 " transform="translate(10.14 85.983)"   name="BIRC5"  ><rect id="b91ce-icon" class="Icon" transform="matrix(.98765 0 0 .95238 .49383 .47619)" width="80" height="20" fill="#fff" stroke="#000"/><text id="b91ce-text" class="Text" transform="translate(40,13)" fill="#000"  font-size="10px" stroke="white" stroke-width="0" text-anchor="middle"><tspan x="0" y="0">BIRC5</tspan></text></a><a  id="ba314" class="GeneProduct PTGS2 " transform="translate(10.14 105.6)"   name="PTGS2"  ><rect id="ba314-icon" class="Icon" transform="matrix(.98765 0 0 .95238 .49383 .47619)" width="80" height="20" fill="#fff" stroke="#000"/><text id="ba314-text" class="Text" transform="translate(40,13)" fill="#000"  font-size="10px" stroke="white" stroke-width="0" text-anchor="middle"><tspan x="0" y="0">PTGS2</tspan></text></a><a  id="d798f" class="GeneProduct BCL2A1 " transform="translate(10.14 27.097)"   name="BCL2A1"  ><rect id="d798f-icon" class="Icon" transform="matrix(.98765 0 0 .95238 .49383 .47619)" width="80" height="20" fill="#fff" stroke="#000"/><text id="d798f-text" class="Text" transform="translate(40,13)" fill="#000"  font-size="10px" stroke="white" stroke-width="0" text-anchor="middle"><tspan x="0" y="0">BCL2A1</tspan></text></a><a  id="e6aea" class="GeneProduct MCL1 " transform="translate(10.14 66.296)"   name="MCL1"  ><rect id="e6aea-icon" class="Icon" transform="matrix(.98765 0 0 .95238 .49383 .47619)" width="80" height="20" fill="#fff" stroke="#000"/><text id="e6aea-text" class="Text" transform="translate(40,13)" fill="#000"  font-size="10px" stroke="white" stroke-width="0" text-anchor="middle"><tspan x="0" y="0">MCL1</tspan></text></a><a  id="b4d88" class="GeneProduct BCL2L1 " transform="translate(10.14 45.958)"   name="BCL2L1"  ><rect id="b4d88-icon" class="Icon" transform="matrix(.98765 0 0 .95238 .49383 .47619)" width="80" height="20" fill="#fff" stroke="#000"/><text id="b4d88-text" class="Text" transform="translate(40,13)" fill="#000"  font-size="10px" stroke="white" stroke-width="0" text-anchor="middle"><tspan x="0" y="0">BCL2L1</tspan></text></a></g><g id="f986b" class="Label" transform="translate(452.53 102.2)" color="#000"  name="ROS / Hypoxia"><use id="f986b-icon" class="Icon" width="92" height="20" fill="transparent"  stroke="#000" stroke-width="0" xlink:href="#none"/><text id="f986b-text" class="Text" transform="translate(46,14)" fill="#000"  font-size="12px" font-weight="bold" stroke="white" stroke-width="0" text-anchor="middle"><tspan x="0" y="0">ROS / Hypoxia</tspan></text></g><g id="d83e2" class="GroupGroup" transform="translate(450.13 299.87)" color="grey" ><use id="d83e2-icon" class="Icon" width="96" height="55.54410804906939" fill="transparent"  stroke="grey" stroke-dasharray="5,3" stroke-width="0" xlink:href="#none"/><a  id="b7031" class="GeneProduct ARNT " transform="translate(8 27.544)"   name="ARNT"  ><rect id="b7031-icon" class="Icon" transform="matrix(.98765 0 0 .95238 .49383 .47619)" width="80" height="20" fill="#fff" stroke="#000"/><text id="b7031-text" class="Text" transform="translate(40,13)" fill="#000"  font-size="10px" stroke="white" stroke-width="0" text-anchor="middle"><tspan x="0" y="0">ARNT</tspan></text></a><a  id="b6d72" class="GeneProduct HIF1A " transform="translate(8,8)"   name="HIF1A"  ><rect id="b6d72-icon" class="Icon" transform="matrix(.98765 0 0 .95238 .49383 .47619)" width="80" height="20" fill="#fff" stroke="#000"/><text id="b6d72-text" class="Text" transform="translate(40,13)" fill="#000"  font-size="10px" stroke="white" stroke-width="0" text-anchor="middle"><tspan x="0" y="0">HIF1A</tspan></text></a></g><g id="ee7a4" class="GroupGroup" transform="translate(445.94 393.88)" color="grey" ><use id="ee7a4-icon" class="Icon" width="103.99999999999994" height="214.27969676079255" fill="transparent"  stroke="grey" stroke-dasharray="5,3" stroke-width="0" xlink:href="#none"/><a  id="aec88" class="GeneProduct PFKL " transform="translate(12.898 166.53)"   name="PFKL"  ><rect id="aec88-icon" class="Icon" transform="matrix(.98765 0 0 .95238 .49383 .47619)" width="80" height="20" fill="#fff" stroke="#000"/><text id="aec88-text" class="Text" transform="translate(40,13)" fill="#000"  font-size="10px" stroke="white" stroke-width="0" text-anchor="middle"><tspan x="0" y="0">PFKL</tspan></text></a><a  id="e10bc" class="GeneProduct SLC16A1 " transform="translate(12.898 127.47)"   name="SLC16A1"  ><rect id="e10bc-icon" class="Icon" transform="matrix(.98765 0 0 .95238 .49383 .47619)" width="80" height="20" fill="#fff" stroke="#000"/><text id="e10bc-text" class="Text" transform="translate(40,13)" fill="#000"  font-size="10px" stroke="white" stroke-width="0" text-anchor="middle"><tspan x="0" y="0">SLC16A1</tspan></text></a><a  id="ae787" class="GeneProduct LDHA " transform="translate(12.898 88.244)"   name="LDHA"  ><rect id="ae787-icon" class="Icon" transform="matrix(.98765 0 0 .95238 .49383 .47619)" width="80" height="20" fill="#fff" stroke="#000"/><text id="ae787-text" class="Text" transform="translate(40,13)" fill="#000"  font-size="10px" stroke="white" stroke-width="0" text-anchor="middle"><tspan x="0" y="0">LDHA</tspan></text></a><a  id="d2670" class="Uniprot-TrEMBL_P08559 Protein PDHA1 " transform="translate(12.898 147.02)"   name="PDHA1"  ><rect id="d2670-icon" class="Icon" transform="matrix(.98765 0 0 .95238 .49383 .47619)" width="80" height="20" fill="#fff" stroke="#000"/><text id="d2670-text" class="Text" transform="translate(40,13)" fill="#000"  font-size="10px" stroke="white" stroke-width="0" text-anchor="middle"><tspan x="0" y="0">PDHA1</tspan></text></a><a  id="f3db9" class="GeneProduct PKM " transform="translate(12.898 107.86)"   name="PKM2"  ><rect id="f3db9-icon" class="Icon" transform="matrix(.98765 0 0 .95238 .49383 .47619)" width="80" height="20" fill="#fff" stroke="#000"/><text id="f3db9-text" class="Text" transform="translate(40,13)" fill="#000"  font-size="10px" stroke="white" stroke-width="0" text-anchor="middle"><tspan x="0" y="0">PKM2</tspan></text></a><a  id="abd1a" class="GeneProduct PGK1 " transform="translate(12.898 186.28)"   name="PGK1"  ><rect id="abd1a-icon" class="Icon" transform="matrix(.98765 0 0 .95238 .49383 .47619)" width="80" height="20" fill="#fff" stroke="#000"/><text id="abd1a-text" class="Text" transform="translate(40,13)" fill="#000"  font-size="10px" stroke="white" stroke-width="0" text-anchor="middle"><tspan x="0" y="0">PGK1</tspan></text></a><a  id="c27b5" class="GeneProduct SLC2A1 " transform="translate(12.898 29.358)"   name="SLC2A1"  ><rect id="c27b5-icon" class="Icon" transform="matrix(.98765 0 0 .95238 .49383 .47619)" width="80" height="20" fill="#fff" stroke="#000"/><text id="c27b5-text" class="Text" transform="translate(40,13)" fill="#000"  font-size="10px" stroke="white" stroke-width="0" text-anchor="middle"><tspan x="0" y="0">SLC2A1</tspan></text></a><a  id="c0d52" class="GeneProduct HK1 " transform="translate(12.898 68.557)"   name="HK1"  ><rect id="c0d52-icon" class="Icon" transform="matrix(.98765 0 0 .95238 .49383 .47619)" width="80" height="20" fill="#fff" stroke="#000"/><text id="c0d52-text" class="Text" transform="translate(40,13)" fill="#000"  font-size="10px" stroke="white" stroke-width="0" text-anchor="middle"><tspan x="0" y="0">HK1</tspan></text></a><a  id="bfdee" class="GeneProduct SLC2A3 " transform="translate(12.898 48.895)"   name="SLC2A3"  ><rect id="bfdee-icon" class="Icon" transform="matrix(.98765 0 0 .95238 .49383 .47619)" width="80" height="20" fill="#fff" stroke="#000"/><text id="bfdee-text" class="Text" transform="translate(40,13)" fill="#000"  font-size="10px" stroke="white" stroke-width="0" text-anchor="middle"><tspan x="0" y="0">SLC2A3</tspan></text></a><g id="e1ba8" class="Label" transform="translate(8,8)" color="#000"  name="Glycolysis"><use id="e1ba8-icon" class="Icon" width="88" height="20" fill="transparent"  stroke="#000" stroke-width="0" xlink:href="#none"/><text id="e1ba8-text" class="Text" transform="translate(44,14)" fill="#000"  font-size="12px" stroke="white" stroke-width="0" text-anchor="middle"><tspan x="0" y="0">Glycolysis</tspan></text></g></g><a  id="eaa7b" class="GeneProduct HIF1AN " transform="translate(503.61 160.14)"   name="HIF1AN"  ><rect id="eaa7b-icon" class="Icon" transform="matrix(.98765 0 0 .95238 .49383 .47619)" width="80" height="20" fill="#fff" stroke="#000"/><text id="eaa7b-text" class="Text" transform="translate(40,13)" fill="#000"  font-size="10px" stroke="white" stroke-width="0" text-anchor="middle"><tspan x="0" y="0">HIF1AN</tspan></text></a><a  id="ad64c" class="GeneProduct EGLN1 " transform="translate(412.45 160.14)"   name="EGLN1"  ><rect id="ad64c-icon" class="Icon" transform="matrix(.98765 0 0 .95238 .49383 .47619)" width="80" height="20" fill="#fff" stroke="#000"/><text id="ad64c-text" class="Text" transform="translate(40,13)" fill="#000"  font-size="10px" stroke="white" stroke-width="0" text-anchor="middle"><tspan x="0" y="0">EGLN1</tspan></text></a><a  id="dc97d" class="GeneProduct HIF1A " transform="translate(457.59 217.68)"   name="HIF1A"  ><rect id="dc97d-icon" class="Icon" transform="matrix(.98765 0 0 .95238 .49383 .47619)" width="80" height="20" fill="#fff" stroke="#000"/><text id="dc97d-text" class="Text" transform="translate(40,13)" fill="#000"  font-size="10px" stroke="white" stroke-width="0" text-anchor="middle"><tspan x="0" y="0">HIF1A</tspan></text></a><g id="d86ab" class="Label" transform="translate(436.66 189.73)" color="#000"  name="X"><use id="d86ab-icon" class="Icon" width="80" height="20" fill="transparent"  stroke="#000" stroke-width="0" xlink:href="#none"/><text id="d86ab-text" class="Text" transform="translate(40,18)" fill="#000"  font-size="24px" font-weight="bold" stroke="white" stroke-width="0" text-anchor="middle"><tspan x="0" y="0">X</tspan></text></g><g id="ea0f3" class="GroupGroup" transform="translate(555.99 395.27)" color="grey" ><use id="ea0f3-icon" class="Icon" width="104" height="154.1591911135426" fill="transparent"  stroke="grey" stroke-dasharray="5,3" stroke-width="0" xlink:href="#none"/><g id="e537a" class="Label" transform="translate(8,8)" color="#000"  name="Proliferation"><use id="e537a-icon" class="Icon" width="88" height="20" fill="transparent"  stroke="#000" stroke-width="0" xlink:href="#none"/><text id="e537a-text" class="Text" transform="translate(44,14)" fill="#000"  font-size="12px" stroke="white" stroke-width="0" text-anchor="middle"><tspan x="0" y="0">Proliferation</tspan></text></g><a  id="b3f19" class="GeneProduct IGFBP1 " transform="translate(12.112 87.03)"   name="IGFBP1"  ><rect id="b3f19-icon" class="Icon" transform="matrix(.98765 0 0 .95238 .49383 .47619)" width="80" height="20" fill="#fff" stroke="#000"/><text id="b3f19-text" class="Text" transform="translate(40,13)" fill="#000"  font-size="10px" stroke="white" stroke-width="0" text-anchor="middle"><tspan x="0" y="0">IGFBP1</tspan></text></a><a  id="a947a" class="GeneProduct IGFBP2 " transform="translate(12.112 106.44)"   name="IGFBP2"  ><rect id="a947a-icon" class="Icon" transform="matrix(.98765 0 0 .95238 .49383 .47619)" width="80" height="20" fill="#fff" stroke="#000"/><text id="a947a-text" class="Text" transform="translate(40,13)" fill="#000"  font-size="10px" stroke="white" stroke-width="0" text-anchor="middle"><tspan x="0" y="0">IGFBP2</tspan></text></a><a  id="e44c3" class="GeneProduct VEGFA " transform="translate(12.112 27.271)"   name="VEGFA"  ><rect id="e44c3-icon" class="Icon" transform="matrix(.98765 0 0 .95238 .49383 .47619)" width="80" height="20" fill="#fff" stroke="#000"/><text id="e44c3-text" class="Text" transform="translate(40,13)" fill="#000"  font-size="10px" stroke="white" stroke-width="0" text-anchor="middle"><tspan x="0" y="0">VEGFA</tspan></text></a><a  id="fa71c" class="GeneProduct TGFA " transform="translate(12.112 47.117)"   name="TGFA"  ><rect id="fa71c-icon" class="Icon" transform="matrix(.98765 0 0 .95238 .49383 .47619)" width="80" height="20" fill="#fff" stroke="#000"/><text id="fa71c-text" class="Text" transform="translate(40,13)" fill="#000"  font-size="10px" stroke="white" stroke-width="0" text-anchor="middle"><tspan x="0" y="0">TGFA</tspan></text></a><a  id="ba211" class="GeneProduct TGFB3 " transform="translate(12.112 66.964)"   name="TGFB3"  ><rect id="ba211-icon" class="Icon" transform="matrix(.98765 0 0 .95238 .49383 .47619)" width="80" height="20" fill="#fff" stroke="#000"/><text id="ba211-text" class="Text" transform="translate(40,13)" fill="#000"  font-size="10px" stroke="white" stroke-width="0" text-anchor="middle"><tspan x="0" y="0">TGFB3</tspan></text></a><a  id="dcf42" class="GeneProduct IGFBP3 " transform="translate(12.112 126.16)"   name="IGFBP3"  ><rect id="dcf42-icon" class="Icon" transform="matrix(.98765 0 0 .95238 .49383 .47619)" width="80" height="20" fill="#fff" stroke="#000"/><text id="dcf42-text" class="Text" transform="translate(40,13)" fill="#000"  font-size="10px" stroke="white" stroke-width="0" text-anchor="middle"><tspan x="0" y="0">IGFBP3</tspan></text></a></g><g id="eb4a8" class="SingleFreeNode Shape PhysicalEntity CellularComponent Cell" transform="translate(226.06 95.217)" color="#006666" ><g fill="transparent"  filter="url(#kaaviodoublefalse3filter)" stroke="#066" stroke-width="3"><rect id="eb4a8-icon" class="Icon" transform="matrix(.97858 0 0 .97818 5.8715 5.8691)" width="548.31" height="538.07" rx="15" ry="15"   /></g></g><g id="b0e4c" class="GroupGroup" transform="translate(343.91 395.43)" color="grey" ><use id="b0e4c-icon" class="Icon" width="97.42809879368332" height="232.45810682922985" fill="transparent"  stroke="grey" stroke-dasharray="5,3" stroke-width="0" xlink:href="#none"/><a  id="a7684" class="GeneProduct SERPINE1 " transform="translate(8 85.937)"   name="SERPINE1"  ><rect id="a7684-icon" class="Icon" transform="matrix(.98765 0 0 .95238 .49383 .47619)" width="80" height="20" fill="#fff" stroke="#000"/><text id="a7684-text" class="Text" transform="translate(40,13)" fill="#000"  font-size="10px" stroke="white" stroke-width="0" text-anchor="middle"><tspan x="0" y="0">SERPINE1</tspan></text></a><a  id="d8774" class="GeneProduct EDN1 " transform="translate(8 66.146)"   name="EDN1"  ><rect id="d8774-icon" class="Icon" transform="matrix(.98765 0 0 .95238 .49383 .47619)" width="80" height="20" fill="#fff" stroke="#000"/><text id="d8774-text" class="Text" transform="translate(40,13)" fill="#000"  font-size="10px" stroke="white" stroke-width="0" text-anchor="middle"><tspan x="0" y="0">EDN1</tspan></text></a><a  id="d2a7d" class="GeneProduct NOS2 " transform="translate(8 105.39)"   name="NOS2"  ><rect id="d2a7d-icon" class="Icon" transform="matrix(.98765 0 0 .95238 .49383 .47619)" width="80" height="20" fill="#fff" stroke="#000"/><text id="d2a7d-text" class="Text" transform="translate(40,13)" fill="#000"  font-size="10px" stroke="white" stroke-width="0" text-anchor="middle"><tspan x="0" y="0">NOS2</tspan></text></a><a  id="c0d7a" class="GeneProduct PTGS2 " transform="translate(8 46.587)"   name="PTGS2"  ><rect id="c0d7a-icon" class="Icon" transform="matrix(.98765 0 0 .95238 .49383 .47619)" width="80" height="20" fill="#fff" stroke="#000"/><text id="c0d7a-text" class="Text" transform="translate(40,13)" fill="#000"  font-size="10px" stroke="white" stroke-width="0" text-anchor="middle"><tspan x="0" y="0">PTGS2</tspan></text></a><a  id="da7d9" class="GeneProduct ANGPT1 " transform="translate(8 125.29)"   name="ANGPT1"  ><rect id="da7d9-icon" class="Icon" transform="matrix(.98765 0 0 .95238 .49383 .47619)" width="80" height="20" fill="#fff" stroke="#000"/><text id="da7d9-text" class="Text" transform="translate(40,13)" fill="#000"  font-size="10px" stroke="white" stroke-width="0" text-anchor="middle"><tspan x="0" y="0">ANGPT1</tspan></text></a><a  id="aa750" class="GeneProduct VEGFA " transform="translate(8 26.828)"   name="VEGFA"  ><rect id="aa750-icon" class="Icon" transform="matrix(.98765 0 0 .95238 .49383 .47619)" width="80" height="20" fill="#fff" stroke="#000"/><text id="aa750-text" class="Text" transform="translate(40,13)" fill="#000"  font-size="10px" stroke="white" stroke-width="0" text-anchor="middle"><tspan x="0" y="0">VEGFA</tspan></text></a><a  id="b3907" class="GeneProduct TGFB3 " transform="translate(8.0175 204.46)"   name="TGFB3"  ><rect id="b3907-icon" class="Icon" transform="matrix(.98765 0 0 .95238 .49383 .47619)" width="80" height="20" fill="#fff" stroke="#000"/><text id="b3907-text" class="Text" transform="translate(40,13)" fill="#000"  font-size="10px" stroke="white" stroke-width="0" text-anchor="middle"><tspan x="0" y="0">TGFB3</tspan></text></a><a  id="f5c95" class="GeneProduct TGFA " transform="translate(8.0175 184.67)"   name="TGFA"  ><rect id="f5c95-icon" class="Icon" transform="matrix(.98765 0 0 .95238 .49383 .47619)" width="80" height="20" fill="#fff" stroke="#000"/><text id="f5c95-text" class="Text" transform="translate(40,13)" fill="#000"  font-size="10px" stroke="white" stroke-width="0" text-anchor="middle"><tspan x="0" y="0">TGFA</tspan></text></a><a  id="acb5c" class="GeneProduct EPO " transform="translate(8.0175 165.11)"   name="EPO"  ><rect id="acb5c-icon" class="Icon" transform="matrix(.98765 0 0 .95238 .49383 .47619)" width="80" height="20" fill="#fff" stroke="#000"/><text id="acb5c-text" class="Text" transform="translate(40,13)" fill="#000"  font-size="10px" stroke="white" stroke-width="0" text-anchor="middle"><tspan x="0" y="0">EPO</tspan></text></a><a  id="c6799" class="GeneProduct ANGPT2 " transform="translate(8.0175 145.35)"   name="ANGPT2"  ><rect id="c6799-icon" class="Icon" transform="matrix(.98765 0 0 .95238 .49383 .47619)" width="80" height="20" fill="#fff" stroke="#000"/><text id="c6799-text" class="Text" transform="translate(40,13)" fill="#000"  font-size="10px" stroke="white" stroke-width="0" text-anchor="middle"><tspan x="0" y="0">ANGPT2</tspan></text></a><g id="f4ed7" class="Label" transform="translate(9.4281 8)" color="#000"  name="Angiogenesis"><use id="f4ed7-icon" class="Icon" width="80" height="20" fill="transparent"  stroke="#000" stroke-width="0" xlink:href="#none"/><text id="f4ed7-text" class="Text" transform="translate(40,14)" fill="#000"  font-size="12px" stroke="white" stroke-width="0" text-anchor="middle"><tspan x="0" y="0">Angiogenesis</tspan></text></g></g><g id="fa73f" class="Label" transform="translate(382.65 269.93)" color="#000"  name="Gene  transcription"><use id="fa73f-icon" class="Icon" width="121.63847947761201" height="34.491543843283075" fill="transparent"  stroke="#000" stroke-width="0" xlink:href="#none"/><text id="fa73f-text" class="Text" transform="translate(60.819 21.246)" fill="#000"  font-size="12px" font-weight="bold" stroke="white" stroke-width="0" text-anchor="middle"><tspan x="0" y="-6.6000000000000005">Gene </tspan> <tspan x="0" y="6.6000000000000005">transcription</tspan></text></g><g id="b9ed5" class="GroupGroup" transform="translate(237.67 395.61)" color="grey" ><use id="b9ed5-icon" class="Icon" width="96.27864373607008" height="172.92911154531322" fill="transparent"  stroke="grey" stroke-dasharray="5,3" stroke-width="0" xlink:href="#none"/><g id="c2031" class="Label" transform="translate(8,8)" color="#000"  name="Apoptosis"><use id="c2031-icon" class="Icon" width="80" height="20" fill="transparent"  stroke="#000" stroke-width="0" xlink:href="#none"/><text id="c2031-text" class="Text" transform="translate(40,14)" fill="#000"  font-size="12px" stroke="white" stroke-width="0" text-anchor="middle"><tspan x="0" y="0">Apoptosis</tspan></text></g><a  id="d556e" class="GeneProduct BNIP3 " transform="translate(8.2786 105.77)"   name="BNIP3"  ><rect id="d556e-icon" class="Icon" transform="matrix(.98765 0 0 .95238 .49383 .47619)" width="80" height="20" fill="#fff" stroke="#000"/><text id="d556e-text" class="Text" transform="translate(40,13)" fill="#000"  font-size="10px" stroke="white" stroke-width="0" text-anchor="middle"><tspan x="0" y="0">BNIP3</tspan></text></a><a  id="ccef3" class="GeneProduct BNIP3L " transform="translate(8.2786 125.38)"   name="BNIP3L"  ><rect id="ccef3-icon" class="Icon" transform="matrix(.98765 0 0 .95238 .49383 .47619)" width="80" height="20" fill="#fff" stroke="#000"/><text id="ccef3-text" class="Text" transform="translate(40,13)" fill="#000"  font-size="10px" stroke="white" stroke-width="0" text-anchor="middle"><tspan x="0" y="0">BNIP3L</tspan></text></a><a  id="e578a" class="GeneProduct BID " transform="translate(8.2786 86.156)"   name="BID"  ><rect id="e578a-icon" class="Icon" transform="matrix(.98765 0 0 .95238 .49383 .47619)" width="80" height="20" fill="#fff" stroke="#000"/><text id="e578a-text" class="Text" transform="translate(40,13)" fill="#000"  font-size="10px" stroke="white" stroke-width="0" text-anchor="middle"><tspan x="0" y="0">BID</tspan></text></a><a  id="fe53b" class="GeneProduct PMAIP1 " transform="translate(8.2786 144.93)"   name="PMAIP1"  ><rect id="fe53b-icon" class="Icon" transform="matrix(.98765 0 0 .95238 .49383 .47619)" width="80" height="20" fill="#fff" stroke="#000"/><text id="fe53b-text" class="Text" transform="translate(40,13)" fill="#000"  font-size="10px" stroke="white" stroke-width="0" text-anchor="middle"><tspan x="0" y="0">PMAIP1</tspan></text></a><a  id="cc180" class="GeneProduct TP53 " transform="translate(8.2786 27.27)"   name="TP53"  ><rect id="cc180-icon" class="Icon" transform="matrix(.98765 0 0 .95238 .49383 .47619)" width="80" height="20" fill="#fff" stroke="#000"/><text id="cc180-text" class="Text" transform="translate(40,13)" fill="#000"  font-size="10px" stroke="white" stroke-width="0" text-anchor="middle"><tspan x="0" y="0">TP53</tspan></text></a><a  id="cf9b5" class="GeneProduct BAX " transform="translate(8.2786 66.469)"   name="BAX"  ><rect id="cf9b5-icon" class="Icon" transform="matrix(.98765 0 0 .95238 .49383 .47619)" width="80" height="20" fill="#fff" stroke="#000"/><text id="cf9b5-text" class="Text" transform="translate(40,13)" fill="#000"  font-size="10px" stroke="white" stroke-width="0" text-anchor="middle"><tspan x="0" y="0">BAX</tspan></text></a><a  id="fe756" class="GeneProduct BAK1 " transform="translate(8.2786 46.807)"   name="BAK1"  ><rect id="fe756-icon" class="Icon" transform="matrix(.98765 0 0 .95238 .49383 .47619)" width="80" height="20" fill="#fff" stroke="#000"/><text id="fe756-text" class="Text" transform="translate(40,13)" fill="#000"  font-size="10px" stroke="white" stroke-width="0" text-anchor="middle"><tspan x="0" y="0">BAK1</tspan></text></a></g><text id="WP3614-text" class="Text" transform="translate(5,27)" dominant-baseline="central" fill="black"  font-size="12px" font-weight="bold" overflow="visible" stroke="white" stroke-width="0"><tspan x="0" y="-9">Name: Photodynamic therapy-induced HIF-1 survival signaling</tspan> <tspan x="0" y="9">Organism: Homo sapiens</tspan></text></g></svg>
