<?xml version="1.0" encoding="UTF-8"?>
<!--
  WikiPathways page: https://www.wikipathways.org/index.php/Pathway:WP3656
  URL for this compressed file: https://github.com/eweitz/cachome/tree/main/data/WP3656.svg
  Source code for compression: https://github.com/eweitz/cachome/tree/main/src/wikipathways.py
-->
<svg id="wp3656-svg" class="Diagram" width="800" height="600" color="black" baseProfile="full" prefix="schema:http://schema.org/" preserveAspectRatio="xMidYMid" version="1.1" viewBox="0 0 853 888.56" vocab="http://vocabularies.wikipathways.org/wp#" xmlns="http://www.w3.org/2000/svg" xmlns:xlink="http://www.w3.org/1999/xlink"><style>svg {font-family: 'Liberation Sans', Arial, sans-serif; }</style><defs><g id="jit-defs"><filter id="kaavioblackto000000filter" x="0" y="0" width="853" height="888.56" filterUnits="userSpaceOnUse"><feColorMatrix in="SourceGraphic" values="-1   0   0 0 0                   0  -1   0 0 0                   0   0  -1 0 0                   0   0   0 1 0"/></filter></g><g id="jic-defs"><marker id="markerEndArrow" stroke-dasharray="99999" markerHeight="12" markerUnits="userSpaceOnUse" markerWidth="12" orient="auto" preserveAspectRatio="none" refX="12" refY="6" viewBox="0 0 12 12"><path transform="rotate(180 6 6)" d="M12 11L0 6l12-5z" fill="currentColor" stroke-width="0"/></marker><marker id="markerEndMimBinding" stroke-dasharray="99999" markerHeight="12" markerUnits="userSpaceOnUse" markerWidth="12" orient="auto" preserveAspectRatio="none" refX="12" refY="6" viewBox="0 0 12 12"><path transform="rotate(180 6 6)" d="M12 12L0 6l12-6-7 6z" fill="currentColor" stroke-width="0"/></marker><symbol id="Ellipse" overflow="visible" preserveAspectRatio="none" viewBox="0 0 50 50"><ellipse cx="25" cy="25" rx="25" ry="25" stroke="currentColor" vector-effect="non-scaling-stroke"/></symbol><symbol id="Octagon" overflow="visible" preserveAspectRatio="none" viewBox="0 0 100 100"><path d="M0 25L25 0h50l25 25v50l-25 25H25L0 75z" stroke="currentColor" vector-effect="non-scaling-stroke"/></symbol><symbol id="none" preserveAspectRatio="none" viewBox="0 0 100 100"/></g></defs><g id="WP3656" class="Viewport" color="black"  name="Name: Interleukin-1 induced activation of NF-kB Organism: Homo sapiens"><rect id="WP3656-icon" class="Icon" width="853" height="888.56" fill="#fff" stroke="#000" stroke-width="0"/><g id="bf487" class="GroupComplex" transform="translate(234,379)" color="grey" ><use id="bf487-icon" class="Icon" transform="matrix(.99567 0 0 .992 .49784 .496)" width="230" height="124" fill="#b4b464" fill-opacity=".1" stroke="grey" xlink:href="#Octagon"/><a  id="fa12b" class="GeneProduct AJUBA " transform="translate(138,33)"   name="AJUBA"  ><rect id="fa12b-icon" class="Icon" transform="matrix(.98765 0 0 .96296 .49383 .48148)" width="80" height="26" fill="#fff" stroke="#000"/><text id="fa12b-text" class="Text" transform="translate(40,16)" fill="#000"  font-size="10px" stroke="white" stroke-width="0" text-anchor="middle"><tspan x="0" y="0">AJUBA</tspan></text></a><a  id="b4f03" class="GeneProduct PRKCZ " transform="translate(138,59)"   name="PKCZ"  ><rect id="b4f03-icon" class="Icon" transform="matrix(.98765 0 0 .96296 .49383 .48148)" width="80" height="26" fill="#fff" stroke="#000"/><text id="b4f03-text" class="Text" transform="translate(40,16)" fill="#000"  font-size="10px" stroke="white" stroke-width="0" text-anchor="middle"><tspan x="0" y="0">PKCZ</tspan></text></a><a  id="ffc48" class="GeneProduct TIFA " transform="translate(58,85)"   name="TIFA"  ><rect id="ffc48-icon" class="Icon" transform="matrix(.98765 0 0 .96429 .49383 .48214)" width="80" height="27" fill="#fff" stroke="#000"/><text id="ffc48-text" class="Text" transform="translate(40,16.5)" fill="#000"  font-size="10px" stroke="white" stroke-width="0" text-anchor="middle"><tspan x="0" y="0">TIFA</tspan></text></a><a  id="ff59f" class="GeneProduct SQSTM1 " transform="translate(138,85)"   name="SQSTM1"  ><rect id="ff59f-icon" class="Icon" transform="matrix(.98765 0 0 .96296 .49383 .48148)" width="80" height="26" fill="#fff" stroke="#000"/><text id="ff59f-text" class="Text" transform="translate(40,16)" fill="#000"  font-size="10px" stroke="white" stroke-width="0" text-anchor="middle"><tspan x="0" y="0">SQSTM1</tspan></text></a><a  id="b5b9f" class="GeneProduct UBE2N " transform="translate(12,12)"   name="UBC13"  ><rect id="b5b9f-icon" class="Icon" transform="matrix(.97895 0 0 .96154 .48947 .48077)" width="46.5" height="25" fill="#fff" stroke="#000"/><text id="b5b9f-text" class="Text" transform="translate(23.25,15.5)" fill="#000"  font-size="10px" stroke="white" stroke-width="0" text-anchor="middle"><tspan x="0" y="0">UBC13</tspan></text></a><a  id="cbffa" class="GeneProduct UBE2V1 " transform="translate(12,37)"   name="UEV1A"  ><rect id="cbffa-icon" class="Icon" transform="matrix(.97895 0 0 .96154 .48947 .48077)" width="46.5" height="25" fill="#fff" stroke="#000"/><text id="cbffa-text" class="Text" transform="translate(23.25,15.5)" fill="#000"  font-size="10px" stroke="white" stroke-width="0" text-anchor="middle"><tspan x="0" y="0">UEV1A</tspan></text></a><a  id="a7f26" class="GeneProduct TRAF6 " transform="translate(58,30)"   name="TRAF6"  ><rect id="a7f26-icon" class="Icon" transform="matrix(.98765 0 0 .96552 .49383 .48276)" width="80" height="28" fill="#fff" stroke="#000"/><g id="ac145" class="Burr State" transform="translate(71.5 -4.7)" color="#000"  name="Ub"><use id="ac145-icon" class="Icon" transform="matrix(.9375 0 0 .9375 .46875 .46875)" width="15" height="15" fill="#0066ff" stroke="#000" xlink:href="#Ellipse"/><text id="ac145-text" class="Text" transform="translate(7.5,10.5)" fill="#000"  font-size="10px" stroke="white" stroke-width="0" text-anchor="middle"><tspan x="0" y="0">Ub</tspan></text></g><g id="c94d4" class="Burr State" transform="translate(56.5 -4.7)" color="#000"  name="Ub"><use id="c94d4-icon" class="Icon" transform="matrix(.9375 0 0 .9375 .46875 .46875)" width="15" height="15" fill="#0066ff" stroke="#000" xlink:href="#Ellipse"/><text id="c94d4-text" class="Text" transform="translate(7.5,10.5)" fill="#000"  font-size="10px" stroke="white" stroke-width="0" text-anchor="middle"><tspan x="0" y="0">Ub</tspan></text></g><text id="a7f26-text" class="Text" transform="translate(40,17)" fill="#000"  font-size="10px" stroke="white" stroke-width="0" text-anchor="middle"><tspan x="0" y="0">TRAF6</tspan></text></a><a  id="ba6d3" class="GeneProduct IRAK1 " transform="translate(58,58)"   name="IRAK1"  ><rect id="ba6d3-icon" class="Icon" transform="matrix(.98765 0 0 .96429 .49383 .48214)" width="80" height="27" fill="#fff" stroke="#000"/><g id="c4f30" class="Burr State" transform="translate(72.5,19.5)" color="#000"  name="P"><use id="c4f30-icon" class="Icon" transform="matrix(.9375 0 0 .9375 .46875 .46875)" width="15" height="15" fill="#ff6666" stroke="#000" xlink:href="#Ellipse"/><text id="c4f30-text" class="Text" transform="translate(7.5,10.5)" fill="#000"  font-size="10px" stroke="white" stroke-width="0" text-anchor="middle"><tspan x="0" y="0">P</tspan></text></g><g id="d1632" class="Burr State" transform="translate(-7.5,16.8)" color="#000"  name="Ub"><use id="d1632-icon" class="Icon" transform="matrix(.9375 0 0 .9375 .46875 .46875)" width="15" height="15" fill="#0066ff" stroke="#000" xlink:href="#Ellipse"/><text id="d1632-text" class="Text" transform="translate(7.5,10.5)" fill="#000"  font-size="10px" stroke="white" stroke-width="0" text-anchor="middle"><tspan x="0" y="0">Ub</tspan></text></g><g id="d1b39" class="Burr State" transform="translate(72.5 -3.45)" color="#000"  name="P"><use id="d1b39-icon" class="Icon" transform="matrix(.9375 0 0 .9375 .46875 .46875)" width="15" height="15" fill="#ff6666" stroke="#000" xlink:href="#Ellipse"/><text id="d1b39-text" class="Text" transform="translate(7.5,10.5)" fill="#000"  font-size="10px" stroke="white" stroke-width="0" text-anchor="middle"><tspan x="0" y="0">P</tspan></text></g><text id="ba6d3-text" class="Text" transform="translate(40,16.5)" fill="#000"  font-size="10px" stroke="white" stroke-width="0" text-anchor="middle"><tspan x="0" y="0">IRAK1</tspan></text></a></g><g id="id970f2026" class="DirectedInteraction" color="#000" ><g color="#000" fill="transparent"  filter="url(#kaavioblackto000000filter)" stroke="#000" stroke-dasharray="68.76424526068358, 5.8"><path id="id970f2026" class="EdgeBody" d="m349 764 0.35915 74.563"   marker-end="url(#markerEndArrow)" /></g></g><g id="id9a9113d0" class="Interaction" color="#000" ><g color="#000" fill="transparent"  filter="url(#kaavioblackto000000filter)" stroke="#000" stroke-dasharray="155.97455582431007, 1"><path id="id9a9113d0" class="EdgeBody" d="m229 290 20-6e-14c20 6e-14 60 6e-14 80 9.5739 20 9.5739 20 28.722 19.85 38.296-0.15027 9.5739-0.45081 9.5739-0.60107 9.5739h-0.15027"   marker-end="url(#markerEndMimBinding)" /></g></g><g id="id191f8c9d" class="DirectedInteraction" color="#000" ><g color="#000" fill="transparent"  filter="url(#kaavioblackto000000filter)" stroke="#000" stroke-dasharray="73.74315629931128, 5.8"><path id="id191f8c9d" class="EdgeBody" d="m349 557.8h0.042289c0.042289 0 0.12687 0 0.16915 7.5831 0.042289 7.5831 0.042289 22.749 7.6741 30.332 7.6318 7.5831 22.896 7.5831 30.527 7.5831h7.6318"   marker-end="url(#markerEndArrow)" /></g></g><g id="idc168ae7a" class="Interaction" color="#000" ><g color="#000" fill="transparent"  filter="url(#kaavioblackto000000filter)" stroke="#000" stroke-dasharray="74.99422810107711, 0"><path id="idc168ae7a" class="EdgeBody" d="m402.01 525.04h-8.7935c-8.7935 0-26.381 0-35.174 5.4592-8.7935 5.4592-8.7935 16.378-8.8358 21.837-0.042289 5.4592-0.12687 5.4592-0.16915 5.4592h-0.042289"   /></g></g><g id="id4b3e8d0c" class="Interaction" color="#000" ><g color="#000" fill="transparent"  filter="url(#kaavioblackto000000filter)" stroke="#000" stroke-dasharray="161.65170944275127, 1"><path id="id4b3e8d0c" class="EdgeBody" d="m475.25 290.25h-21.042c-21.042 0-63.125 0-84.167 9.5323-21.042 9.5323-21.042 28.597-21.192 38.129-0.15027 9.5323-0.45081 9.5323-0.60107 9.5323h-0.15027"   marker-end="url(#markerEndMimBinding)" /></g></g><g id="id7ab26910" class="DirectedInteraction" color="#000" ><g color="#000" fill="transparent"  filter="url(#kaavioblackto000000filter)" stroke="#000" stroke-dasharray="99.24284840006958, 5.8"><path id="id7ab26910" class="EdgeBody" d="m346 274 3 105"   marker-end="url(#markerEndArrow)" /></g><g id="f4fe0" class="Burr Anchor" transform="translate(348.1 347.44)" ><use id="f4fe0-icon" class="Icon" width="0" height="0" fill="#141414" stroke-width="0" xlink:href="#none"/></g></g><g id="idc766628d" class="Interaction" color="#000" ><g color="#000" fill="transparent"  filter="url(#kaavioblackto000000filter)" stroke="#000" stroke-dasharray="89.54788267227256, 1"><path id="idc766628d" class="EdgeBody" d="m646.25 332.25h-3.3333c-3.3333 0-10 0-13.333-7-3.3333-7-3.3333-21-11.167-28-7.8333-7-23.5-7-31.333-7h-7.8333"   marker-end="url(#markerEndMimBinding)" /></g></g><g id="id75fccb2e" class="DirectedInteraction" color="#000" ><g color="#000" fill="transparent"  filter="url(#kaavioblackto000000filter)" stroke="#000" stroke-dasharray="39.106848030116744, 5.8"><path id="id75fccb2e" class="EdgeBody" d="M349.75,103.25L346,148"   marker-end="url(#markerEndArrow)" /></g></g><g id="id101b17b0" class="Interaction" color="#000" ><g color="#000" fill="transparent"  filter="url(#kaavioblackto000000filter)" stroke="#000" stroke-dasharray="88.76479407295997, 1"><path id="id101b17b0" class="EdgeBody" d="m646.25 249.25-3.3333-3e-14c-3.3333 3e-14 -10 3e-14 -13.333 6.8333-3.3333 6.8333-3.3333 20.5-11.167 27.333-7.8333 6.8333-23.5 6.8333-31.333 6.8333h-7.8333"   marker-end="url(#markerEndMimBinding)" /></g></g><g id="id8e0cc3ca" class="DirectedInteraction" color="#000" ><g color="#000" fill="transparent"  filter="url(#kaavioblackto000000filter)" stroke="#000" stroke-dasharray="131.2, 5.8"><path id="id8e0cc3ca" class="EdgeBody" d="m349 503v137"   marker-end="url(#markerEndArrow)" /></g><g id="aae7f" class="Burr Anchor" transform="translate(349 557.8)" ><use id="aae7f-icon" class="Icon" width="0" height="0" fill="#141414" stroke-width="0" xlink:href="#none"/></g></g><g id="ae799" class="Label" transform="translate(125,312)" color="#000"  name="Ajuba-mediated  IRAK-PKCz binding"><use id="ae799-icon" class="Icon" width="115" height="29" fill="transparent"  stroke="#000" stroke-width="0" xlink:href="#none"/><text id="ae799-text" class="Text" transform="translate(57.5,18.5)" fill="#000"  font-size="12px" font-weight="bold" stroke="white" stroke-width="0" text-anchor="middle"><tspan x="0" y="-6.6000000000000005">Ajuba-mediated </tspan> <tspan x="0" y="6.6000000000000005">IRAK-PKCz binding</tspan></text></g><g id="e0cde" class="Label" transform="translate(176,566)" color="#000"  name="PKCZ Phosphorylation"><use id="e0cde-icon" class="Icon" width="157" height="20" fill="transparent"  stroke="#000" stroke-width="0" xlink:href="#none"/><text id="e0cde-text" class="Text" transform="translate(78.5,14)" fill="#000"  font-size="12px" font-weight="bold" stroke="white" stroke-width="0" text-anchor="middle"><tspan x="0" y="0">PKCZ Phosphorylation</tspan></text></g><g id="a0124" class="GroupComplex" transform="translate(475.25,258.25)" color="grey" ><use id="a0124-icon" class="Icon" transform="matrix(.99048 0 0 .98462 .49524 .49231)" width="104" height="64" fill="#b4b464" fill-opacity=".1" stroke="grey" xlink:href="#Octagon"/><a  id="b28d5" class="GeneProduct PRKCZ " transform="translate(12,12)"   name="PKCZ"  ><rect id="b28d5-icon" class="Icon" transform="matrix(.98765 0 0 .95238 .49383 .47619)" width="80" height="20" fill="#fff" stroke="#000"/><text id="b28d5-text" class="Text" transform="translate(40,13)" fill="#000"  font-size="10px" stroke="white" stroke-width="0" text-anchor="middle"><tspan x="0" y="0">PKCZ</tspan></text></a><a  id="b5c74" class="GeneProduct SQSTM1 " transform="translate(12,32)"   name="SQSTM1"  ><rect id="b5c74-icon" class="Icon" transform="matrix(.98765 0 0 .95238 .49383 .47619)" width="80" height="20" fill="#fff" stroke="#000"/><text id="b5c74-text" class="Text" transform="translate(40,13)" fill="#000"  font-size="10px" stroke="white" stroke-width="0" text-anchor="middle"><tspan x="0" y="0">SQSTM1</tspan></text></a></g><a  id="a3bbc" class="GeneProduct IL1A " transform="translate(309.75,83.25)"   name="IL-1"  ><rect id="a3bbc-icon" class="Icon" transform="matrix(.98765 0 0 .95238 .49383 .47619)" width="80" height="20" fill="#fff" stroke="#000"/><text id="a3bbc-text" class="Text" transform="translate(40,13)" fill="#000"  font-size="10px" stroke="white" stroke-width="0" text-anchor="middle"><tspan x="0" y="0">IL-1</tspan></text></a><a id="c9a7f" class="Metabolite ChEBI_CHEBI_15422  " transform="translate(402.01 515.04)" color="#00f"  name="ATP"  ><rect id="c9a7f-icon" class="Icon" transform="matrix(.98765 0 0 .95238 .49383 .47619)" width="80" height="20" fill="#fff" stroke="#00f"/><text id="c9a7f-text" class="Text" transform="translate(40,13)" fill="#00f"  font-size="10px" stroke="white" stroke-width="0" text-anchor="middle"><tspan x="0" y="0">ATP</tspan></text></a><g id="a4baf" class="Uniprot-TrEMBL_P19838 GeneProduct NFKB1 " transform="translate(312.86 838.56)" color="#000"  name="NF-KB"><rect id="a4baf-icon" class="Icon" transform="matrix(.98649 0 0 .95238 .49324 .47619)" width="73" height="20" fill="#fff" stroke="#000"/><text id="a4baf-text" class="Text" transform="translate(36.5,13)" fill="#000"  font-size="10px" stroke="white" stroke-width="0" text-anchor="middle"><tspan x="0" y="0">NF-KB</tspan></text></g><g id="ad6c5" class="GroupComplex" transform="translate(272,148)" color="grey" ><use id="ad6c5-icon" class="Icon" transform="matrix(.99329 0 0 .99213 .49664 .49606)" width="148" height="126" fill="#b4b464" fill-opacity=".1" stroke="grey" xlink:href="#Octagon"/><a  id="dd30c" class="GeneProduct TRAF6 " transform="translate(56,32)"   name="TRAF6"  ><rect id="dd30c-icon" class="Icon" transform="matrix(.98765 0 0 .96552 .49383 .48276)" width="80" height="28" fill="#fff" stroke="#000"/><g id="b0e9c" class="Burr State" transform="translate(71.5 -4.7)" color="#000"  name="Ub"><use id="b0e9c-icon" class="Icon" transform="matrix(.9375 0 0 .9375 .46875 .46875)" width="15" height="15" fill="#0066ff" stroke="#000" xlink:href="#Ellipse"/><text id="b0e9c-text" class="Text" transform="translate(7.5,10.5)" fill="#000"  font-size="10px" stroke="white" stroke-width="0" text-anchor="middle"><tspan x="0" y="0">Ub</tspan></text></g><g id="cc0bc" class="Burr State" transform="translate(56.5 -4.7)" color="#000"  name="Ub"><use id="cc0bc-icon" class="Icon" transform="matrix(.9375 0 0 .9375 .46875 .46875)" width="15" height="15" fill="#0066ff" stroke="#000" xlink:href="#Ellipse"/><text id="cc0bc-text" class="Text" transform="translate(7.5,10.5)" fill="#000"  font-size="10px" stroke="white" stroke-width="0" text-anchor="middle"><tspan x="0" y="0">Ub</tspan></text></g><text id="dd30c-text" class="Text" transform="translate(40,17)" fill="#000"  font-size="10px" stroke="white" stroke-width="0" text-anchor="middle"><tspan x="0" y="0">TRAF6</tspan></text></a><a  id="e194a" class="GeneProduct UBE2V1 " transform="translate(12,37)"   name="UEV1A"  ><rect id="e194a-icon" class="Icon" transform="matrix(.97802 0 0 .96154 .48901 .48077)" width="44.5" height="25" fill="#fff" stroke="#000"/><text id="e194a-text" class="Text" transform="translate(22.25,15.5)" fill="#000"  font-size="10px" stroke="white" stroke-width="0" text-anchor="middle"><tspan x="0" y="0">UEV1A</tspan></text></a><a  id="d2bc3" class="GeneProduct TIFA " transform="translate(56,87)"   name="TIFA"  ><rect id="d2bc3-icon" class="Icon" transform="matrix(.98765 0 0 .96429 .49383 .48214)" width="80" height="27" fill="#fff" stroke="#000"/><text id="d2bc3-text" class="Text" transform="translate(40,16.5)" fill="#000"  font-size="10px" stroke="white" stroke-width="0" text-anchor="middle"><tspan x="0" y="0">TIFA</tspan></text></a><a  id="fad8f" class="GeneProduct UBE2N " transform="translate(12,12)"   name="UBC13"  ><rect id="fad8f-icon" class="Icon" transform="matrix(.97802 0 0 .96154 .48901 .48077)" width="44.5" height="25" fill="#fff" stroke="#000"/><text id="fad8f-text" class="Text" transform="translate(22.25,15.5)" fill="#000"  font-size="10px" stroke="white" stroke-width="0" text-anchor="middle"><tspan x="0" y="0">UBC13</tspan></text></a><a  id="cced7" class="GeneProduct IRAK1 " transform="translate(56,60)"   name="IRAK1"  ><rect id="cced7-icon" class="Icon" transform="matrix(.98765 0 0 .96429 .49383 .48214)" width="80" height="27" fill="#fff" stroke="#000"/><g id="a5e44" class="Burr State" transform="translate(72.5 -3.45)" color="#000"  name="P"><use id="a5e44-icon" class="Icon" transform="matrix(.9375 0 0 .9375 .46875 .46875)" width="15" height="15" fill="#ff6666" stroke="#000" xlink:href="#Ellipse"/><text id="a5e44-text" class="Text" transform="translate(7.5,10.5)" fill="#000"  font-size="10px" stroke="white" stroke-width="0" text-anchor="middle"><tspan x="0" y="0">P</tspan></text></g><g id="d791e" class="Burr State" transform="translate(72.5,19.5)" color="#000"  name="P"><use id="d791e-icon" class="Icon" transform="matrix(.9375 0 0 .9375 .46875 .46875)" width="15" height="15" fill="#ff6666" stroke="#000" xlink:href="#Ellipse"/><text id="d791e-text" class="Text" transform="translate(7.5,10.5)" fill="#000"  font-size="10px" stroke="white" stroke-width="0" text-anchor="middle"><tspan x="0" y="0">P</tspan></text></g><g id="ed556" class="Burr State" transform="translate(-7.5,16.8)" color="#000"  name="Ub"><use id="ed556-icon" class="Icon" transform="matrix(.9375 0 0 .9375 .46875 .46875)" width="15" height="15" fill="#0066ff" stroke="#000" xlink:href="#Ellipse"/><text id="ed556-text" class="Text" transform="translate(7.5,10.5)" fill="#000"  font-size="10px" stroke="white" stroke-width="0" text-anchor="middle"><tspan x="0" y="0">Ub</tspan></text></g><text id="cced7-text" class="Text" transform="translate(40,16.5)" fill="#000"  font-size="10px" stroke="white" stroke-width="0" text-anchor="middle"><tspan x="0" y="0">IRAK1</tspan></text></a></g><a  id="c3a56" class="GeneProduct AJUBA " transform="translate(172,280)"   name="AJUBA"  ><rect id="c3a56-icon" class="Icon" transform="matrix(.98276 0 0 .95238 .49138 .47619)" width="57" height="20" fill="#fff" stroke="#000"/><text id="c3a56-text" class="Text" transform="translate(28.5,13)" fill="#000"  font-size="10px" stroke="white" stroke-width="0" text-anchor="middle"><tspan x="0" y="0">AJUBA</tspan></text></a><a id="d1607" class="Metabolite ChEBI_CHEBI_16761  " transform="translate(395.04 593.3)" color="#00f"  name="ADP"  ><rect id="d1607-icon" class="Icon" transform="matrix(.98765 0 0 .95238 .49383 .47619)" width="80" height="20" fill="#fff" stroke="#00f"/><text id="d1607-text" class="Text" transform="translate(40,13)" fill="#00f"  font-size="10px" stroke="white" stroke-width="0" text-anchor="middle"><tspan x="0" y="0">ADP</tspan></text></a><a  id="c4460" class="GeneProduct PRKCZ " transform="translate(646.25,239.25)"   name="PKCZ"  ><rect id="c4460-icon" class="Icon" transform="matrix(.98381 0 0 .95238 .4919 .47619)" width="60.75" height="20" fill="#fff" stroke="#000"/><text id="c4460-text" class="Text" transform="translate(30.375,13)" fill="#000"  font-size="10px" stroke="white" stroke-width="0" text-anchor="middle"><tspan x="0" y="0">PKCZ</tspan></text></a><a  id="bcfc4" class="GeneProduct SQSTM1 " transform="translate(646.25,322.25)"   name="SQSTM1"  ><rect id="bcfc4-icon" class="Icon" transform="matrix(.98431 0 0 .95238 .49216 .47619)" width="62.75" height="20" fill="#fff" stroke="#000"/><text id="bcfc4-text" class="Text" transform="translate(31.375,13)" fill="#000"  font-size="10px" stroke="white" stroke-width="0" text-anchor="middle"><tspan x="0" y="0">SQSTM1</tspan></text></a><g id="bd1bf" class="Label" transform="translate(674,278)" color="#000"  name="PKCZ / SQST1 binding"><use id="bd1bf-icon" class="Icon" width="149" height="29" fill="transparent"  stroke="#000" stroke-width="0" xlink:href="#none"/><text id="bd1bf-text" class="Text" transform="translate(74.5,18.5)" fill="#000"  font-size="12px" font-weight="bold" stroke="white" stroke-width="0" text-anchor="middle"><tspan x="0" y="0">PKCZ / SQST1 binding</tspan></text></g><g id="e68b0" class="GroupComplex" transform="translate(234,640)" color="grey" ><use id="e68b0-icon" class="Icon" transform="matrix(.99567 0 0 .992 .49784 .496)" width="230" height="124" fill="#b4b464" fill-opacity=".1" stroke="grey" xlink:href="#Octagon"/><a  id="e0055" class="GeneProduct AJUBA " transform="translate(138,33)"   name="AJUBA"  ><rect id="e0055-icon" class="Icon" transform="matrix(.98765 0 0 .96296 .49383 .48148)" width="80" height="26" fill="#fff" stroke="#000"/><text id="e0055-text" class="Text" transform="translate(40,16)" fill="#000"  font-size="10px" stroke="white" stroke-width="0" text-anchor="middle"><tspan x="0" y="0">AJUBA</tspan></text></a><a  id="cac08" class="GeneProduct PRKCZ " transform="translate(138,59)"   name="PKCZ"  ><rect id="cac08-icon" class="Icon" transform="matrix(.98765 0 0 .96296 .49383 .48148)" width="80" height="26" fill="#fff" stroke="#000"/><g id="b406d" class="Burr State" transform="translate(72.5,-1.5)" color="#000"  name="P"><use id="b406d-icon" class="Icon" transform="matrix(.9375 0 0 .9375 .46875 .46875)" width="15" height="15" fill="#ff6666" stroke="#000" xlink:href="#Ellipse"/><text id="b406d-text" class="Text" transform="translate(7.5,10.5)" fill="#000"  font-size="10px" stroke="white" stroke-width="0" text-anchor="middle"><tspan x="0" y="0">P</tspan></text></g><text id="cac08-text" class="Text" transform="translate(40,16)" fill="#000"  font-size="10px" stroke="white" stroke-width="0" text-anchor="middle"><tspan x="0" y="0">PKCZ</tspan></text></a><a  id="c6069" class="GeneProduct TIFA " transform="translate(58,85)"   name="TIFA"  ><rect id="c6069-icon" class="Icon" transform="matrix(.98765 0 0 .96429 .49383 .48214)" width="80" height="27" fill="#fff" stroke="#000"/><text id="c6069-text" class="Text" transform="translate(40,16.5)" fill="#000"  font-size="10px" stroke="white" stroke-width="0" text-anchor="middle"><tspan x="0" y="0">TIFA</tspan></text></a><a  id="a458d" class="GeneProduct SQSTM1 " transform="translate(138,85)"   name="SQSTM1"  ><rect id="a458d-icon" class="Icon" transform="matrix(.98765 0 0 .96296 .49383 .48148)" width="80" height="26" fill="#fff" stroke="#000"/><text id="a458d-text" class="Text" transform="translate(40,16)" fill="#000"  font-size="10px" stroke="white" stroke-width="0" text-anchor="middle"><tspan x="0" y="0">SQSTM1</tspan></text></a><a  id="df639" class="GeneProduct UBE2N " transform="translate(12,12)"   name="UBC13"  ><rect id="df639-icon" class="Icon" transform="matrix(.97895 0 0 .96154 .48947 .48077)" width="46.5" height="25" fill="#fff" stroke="#000"/><text id="df639-text" class="Text" transform="translate(23.25,15.5)" fill="#000"  font-size="10px" stroke="white" stroke-width="0" text-anchor="middle"><tspan x="0" y="0">UBC13</tspan></text></a><a  id="beee8" class="GeneProduct UBE2V1 " transform="translate(12,37)"   name="UEV1A"  ><rect id="beee8-icon" class="Icon" transform="matrix(.97895 0 0 .96154 .48947 .48077)" width="46.5" height="25" fill="#fff" stroke="#000"/><text id="beee8-text" class="Text" transform="translate(23.25,15.5)" fill="#000"  font-size="10px" stroke="white" stroke-width="0" text-anchor="middle"><tspan x="0" y="0">UEV1A</tspan></text></a><a  id="e25ef" class="GeneProduct TRAF6 " transform="translate(58,30)"   name="TRAF6"  ><rect id="e25ef-icon" class="Icon" transform="matrix(.98765 0 0 .96552 .49383 .48276)" width="80" height="28" fill="#fff" stroke="#000"/><g id="c54e1" class="Burr State" transform="translate(56.5 -4.7)" color="#000"  name="Ub"><use id="c54e1-icon" class="Icon" transform="matrix(.9375 0 0 .9375 .46875 .46875)" width="15" height="15" fill="#0066ff" stroke="#000" xlink:href="#Ellipse"/><text id="c54e1-text" class="Text" transform="translate(7.5,10.5)" fill="#000"  font-size="10px" stroke="white" stroke-width="0" text-anchor="middle"><tspan x="0" y="0">Ub</tspan></text></g><g id="e7103" class="Burr State" transform="translate(71.5 -4.7)" color="#000"  name="Ub"><use id="e7103-icon" class="Icon" transform="matrix(.9375 0 0 .9375 .46875 .46875)" width="15" height="15" fill="#0066ff" stroke="#000" xlink:href="#Ellipse"/><text id="e7103-text" class="Text" transform="translate(7.5,10.5)" fill="#000"  font-size="10px" stroke="white" stroke-width="0" text-anchor="middle"><tspan x="0" y="0">Ub</tspan></text></g><text id="e25ef-text" class="Text" transform="translate(40,17)" fill="#000"  font-size="10px" stroke="white" stroke-width="0" text-anchor="middle"><tspan x="0" y="0">TRAF6</tspan></text></a><a  id="d511b" class="GeneProduct IRAK1 " transform="translate(58,58)"   name="IRAK1"  ><rect id="d511b-icon" class="Icon" transform="matrix(.98765 0 0 .96429 .49383 .48214)" width="80" height="27" fill="#fff" stroke="#000"/><g id="b8085" class="Burr State" transform="translate(72.5 -3.45)" color="#000"  name="P"><use id="b8085-icon" class="Icon" transform="matrix(.9375 0 0 .9375 .46875 .46875)" width="15" height="15" fill="#ff6666" stroke="#000" xlink:href="#Ellipse"/><text id="b8085-text" class="Text" transform="translate(7.5,10.5)" fill="#000"  font-size="10px" stroke="white" stroke-width="0" text-anchor="middle"><tspan x="0" y="0">P</tspan></text></g><g id="e1db8" class="Burr State" transform="translate(72.5,19.5)" color="#000"  name="P"><use id="e1db8-icon" class="Icon" transform="matrix(.9375 0 0 .9375 .46875 .46875)" width="15" height="15" fill="#ff6666" stroke="#000" xlink:href="#Ellipse"/><text id="e1db8-text" class="Text" transform="translate(7.5,10.5)" fill="#000"  font-size="10px" stroke="white" stroke-width="0" text-anchor="middle"><tspan x="0" y="0">P</tspan></text></g><g id="e2d7e" class="Burr State" transform="translate(-7.5,16.8)" color="#000"  name="Ub"><use id="e2d7e-icon" class="Icon" transform="matrix(.9375 0 0 .9375 .46875 .46875)" width="15" height="15" fill="#0066ff" stroke="#000" xlink:href="#Ellipse"/><text id="e2d7e-text" class="Text" transform="translate(7.5,10.5)" fill="#000"  font-size="10px" stroke="white" stroke-width="0" text-anchor="middle"><tspan x="0" y="0">Ub</tspan></text></g><text id="d511b-text" class="Text" transform="translate(40,16.5)" fill="#000"  font-size="10px" stroke="white" stroke-width="0" text-anchor="middle"><tspan x="0" y="0">IRAK1</tspan></text></a></g><text id="WP3656-text" class="Text" transform="translate(5,27)" dominant-baseline="central" fill="black"  font-size="12px" font-weight="bold" overflow="visible" stroke="white" stroke-width="0"><tspan x="0" y="-9">Name: Interleukin-1 induced activation of NF-kB</tspan> <tspan x="0" y="9">Organism: Homo sapiens</tspan></text></g></svg>
