<?xml version="1.0" encoding="UTF-8"?>
<svg xmlns="http://www.w3.org/2000/svg" id="-svg" class="Diagram"  baseProfile="full" prefix="schema:http://schema.org/" preserveAspectRatio="xMidYMid"  version="1.1"><defs><g id="icon-defs"><symbol id="ArcPathVisio" class=" Icon ArcPathVisio" x="0" y="0" overflow="visible" preserveAspectRatio="none" viewBox="0 0 100 100"><desc>ArcPathVisio</desc><path d="m99.5 50c0 27.34-22.16 49.5-49.5 49.5s-49.5-22.16-49.5-49.5" vector-effect="non-scaling-stroke"/></symbol><symbol id="Brace" class=" Icon Brace" x="0" y="0" overflow="visible" preserveAspectRatio="none" viewBox="0 0 100 100"><desc>Brace</desc><path d="m1.5 49.5c0-16.17 8.17-24.25 24.5-24.25s24.5-8.08 24.5-24.25c0 16.17 8.17 24.25 24.5 24.25s24.5 8.08 24.5 24.25" vector-effect="non-scaling-stroke"/></symbol><symbol id="Ellipse" class=" Icon Ellipse" x="0" y="0" overflow="visible" preserveAspectRatio="none" viewBox="0 0 50 50"><desc>Ellipse</desc><ellipse cx="25" cy="25" rx="25" ry="25" vector-effect="non-scaling-stroke"/></symbol></g><g id="marker-defs"><marker id="mea" markerHeight="12" markerWidth="12" orient="auto" preserveAspectRatio="none" refX="12" refY="6" viewBox="0 0 12 12"><g id="g-mea" transform=""><g transform="rotate(180 6 6)"><rect y="5.4" width="2" height="1.2" style="stroke:#fff"/><polygon points="12 11 0 6 12 1" stroke-width="0"/></g></g></marker><marker id="meaf00" markerHeight="12" markerWidth="12" orient="auto" preserveAspectRatio="none" refX="12" refY="6" viewBox="0 0 12 12"><g id="g-meaf00" transform=""><g transform="rotate(180 6 6)"><rect y="5.4" width="2" height="1.2" style="stroke:#fff"/><polygon points="12 11 0 6 12 1" fill="#f00" stroke-width="0"/></g></g></marker></g></defs><g id="viewport-20220102142421374" class="svg-pan-zoom_viewport" transform="matrix(0.89 0 0 0.89 132.72 0)" style="transform:matrix(0.89, 0, 0, 0.89, 132.72, 0)"><style>svg.Diagram {font-family: 'Liberation Sans', Arial, sans-serif; }.Diagram path {fill: transparent;stroke: #000;marker-end: url(#mea);}.Diagram symbol path {fill: inherit;stroke: inherit;stroke-width: inherit;marker-end: inherit;}.Diagram rect {fill: #fff;stroke: #000;}.Diagram text {dominant-baseline: central;overflow: hidden;text-anchor: middle;fill: #000;font-size: 10px;}</style><style type="text/css">.Viewport .textContent {
  pointer-events: none;
  stroke-width: 0px;
}

					.Viewport.Icon {
  fill: white;
}

/* Hide the InfoBox */
.Viewport.textContent {
  font-size: 0;
}

.textContent {
  stroke: none;
}

.DataNode {
  stroke-miterlimit: 1;
  pointer-events: auto;
}

.DataNode:hover {
  cursor: pointer;
}

/* TODO should this apply to things other than DataNodes? */
.DataNode.textContent {
  pointer-events: none;
}

.DataNode.Highlighted {
  opacity: 0.6;
  stroke-width: 0px;
}

marker {
  /* this is what should work per the spec
  stroke-dasharray: none; */
  /* but I need to add this to make it work in Safari */
  stroke-dasharray: 9999999999999999999999999;
}

.Citation.Icon {
  fill: none;
  stroke-width: 0px;
}

.Citation.textContent {
  text-align: center;
  vertical-align: top;
  font-size: 7px;
  fill: #999;
  fill-opacity: 1;
  stroke: none;
}</style><g id="WP383" class="Pathway http___identifiers_org_pw_PW_0000004 Viewport"  name="Name: Striated muscle contraction pathway Organism: Homo sapiens" ><g class="Pathway http___identifiers_org_pw_PW_0000004 Viewport"><rect   width="1048" height="800.67" style="stroke:none"/><g id="id116df371" class="Edge"  ><path    d="m347.39 215.05 94.62 0.22" style="marker-end:none"/></g><g id="c5b36" class="Edge"  ><path    d="m661.33 97.33v116.67" style="marker-end:none"/></g><g id="id2dfff517" class="Edge"  ><path    d="m441.45 576.44 0.08 18.62" style="marker-end:none"/></g><g id="ca00e" class="Edge"  ><path    d="m344.67 97.33v116.67" style="marker-end:none"/></g><g id="id42f17e7b" class="Edge"  ><path    d="m476.54 602.2-46.61 18.13" style="marker-end:none"/></g><g id="id47ed27d6" class="Edge"  ><path    d="m662.28 118.47 44.42 0.26" style="marker-end:none"/></g><g id="ee079" class="Edge"  ><path    d="m806.33 300.67-35-33.33"/></g><g id="id4ef00a24" class="Edge"  ><path    d="m624.66 194.04h-246.32" style="marker-end:none"/></g><g id="id5effaa2e" class="Edge"  ><path    d="m704.24 553.77 6.72-9.34" style="marker-end:none"/></g><g id="id7cc861c5" class="Edge"  ><path    d="m417.89 209.69h50.20" style="stroke:#f00;marker-end:none"/></g><g id="id97e4aa0b" class="Edge"  ><path    d="m426.65 209.28-65.21 223.94" style="stroke:#f00;marker-end:url(#meaf00)"/></g><g id="ida6f740b9" class="Edge"  ><path    d="m700.74 548.88 13.88 0.09" style="stroke:#fff;marker-end:none"/></g><g id="idf038578" class="Edge"  ><path    d="m697.03 580.45-46.71 35.74" style="stroke:#f00;marker-end:url(#meaf00)"/></g><g id="id6e71f402" class="Edge"  ><path    d="m347 252.67 34.08-31.42"/></g><g id="id8c7af2f9" class="Edge"  ><path    d="m849.08 601.33-18.88-17.50" style="marker-end:none"/></g><g id="d99a5" class="Edge"  ><path    d="m438 564 17-19" style="marker-end:none"/></g><g id="c5605" class="Edge"  ><path    d="m298 512 93.33 62" style="marker-end:none"/></g><g id="id41476dcf" class="Edge"  ><path    d="m445.67 730.67-22.29-25.79" style="marker-end:none"/></g><g id="f7b9b" class="Edge"  ><path    d="m239.33 546.33 115.33 34.33" style="marker-end:none"/></g><g id="ide57f945e" class="Edge"  ><path    d="m715.67 128.33-42.66 0.09"/></g><g id="ea5e7" class="Edge"  ><path    d="m418 570.67 6.67-58.67" style="marker-end:none"/></g><g id="a14" class="" transform="translate(351.33 114) rotate(180 3.33 6.67)"  ><g class=""><use class=" Node Icon" width="6.67" height="13.33" fill="#000" stroke="#000" href="#ArcPathVisio"/></g></g><g id="a20" class="" transform="translate(591.33 184)"  ><g class=""><rect   width="6.67" height="20" style="fill:#0f0f0f"/></g></g><g id="a21" class="" transform="translate(638 147.33)"  ><g class=""><use class=" Node Icon" width="6.67" height="13.33" fill="#000" stroke="#000" href="#ArcPathVisio"/></g></g><g id="a39" class="" transform="translate(458,184)"  ><g class=""><rect   width="6.67" height="20" style="fill:#0f0f0f"/></g></g><g id="a43" class="" transform="translate(644.67 190.67) rotate(180 3.33 6.67)"  ><g class=""><use class=" Node Icon" width="6.67" height="13.33" fill="#000" stroke="#000" href="#ArcPathVisio"/></g></g><g id="a5f" class="" transform="translate(364.67 114) rotate(180 3.33 6.67)"  ><g class=""><use class=" Node Icon" width="6.67" height="13.33" fill="#000" stroke="#000" href="#ArcPathVisio"/></g></g><g id="a75" class="" transform="translate(371.33 147.33)"  ><g class=""><use class=" Node Icon" width="6.67" height="13.33" fill="#000" stroke="#000" href="#ArcPathVisio"/></g></g><g id="aa0" class="" transform="translate(773.61 587.33) rotate(158.2 47.73 13.33)"  ><g class=""><use class=" Node Icon" width="95.45" height="26.67" fill="#000" stroke="#000" href="#ArcPathVisio"/></g></g><g id="aa4" class="" transform="translate(358 147.33)"  ><g class=""><use class=" Node Icon" width="6.67" height="13.33" fill="#000" stroke="#000" href="#ArcPathVisio"/></g></g><g id="ab5" class="" transform="translate(351.33 190.67) rotate(180 3.33 6.67)"  ><g class=""><use class=" Node Icon" width="6.67" height="13.33" fill="#000" stroke="#000" href="#ArcPathVisio"/></g></g><g id="ab8" class="" transform="translate(684.67 557.33)"  ><g class=""><rect   width="13.33" height="6.67" style="fill:transparent"/></g></g><g id="ad6" class="" transform="translate(631.33 190.67) rotate(180 3.33 6.67)"  ><g class=""><use class=" Node Icon" width="6.67" height="13.33" fill="#000" stroke="#000" href="#ArcPathVisio"/></g></g><g id="aed" class="" transform="translate(441.33 184)"  ><g class=""><rect   width="6.67" height="20" style="fill:#0f0f0f"/></g></g><g id="af5" class="" transform="translate(424.67 107.33)"  ><g class=""><rect   width="6.67" height="20" style="fill:#0f0f0f"/></g></g><g id="b00" class="" transform="translate(651.25 593.91)"  ><g class=""><use class=" Node Icon" width="126.84" height="126.84" fill="transparent" stroke="#000" href="#Ellipse"/></g></g><g id="b08" class="" transform="translate(491.33 184)"  ><g class=""><rect   width="6.67" height="20" style="fill:#0f0f0f"/></g></g><g id="b1b" class="" transform="translate(491.33 107.33)"  ><g class=""><rect   width="6.67" height="20" style="fill:#0f0f0f"/></g></g><g id="b42" class="" transform="translate(644.67 114) rotate(180 3.33 6.67)"  ><g class=""><use class=" Node Icon" width="6.67" height="13.33" fill="#000" stroke="#000" href="#ArcPathVisio"/></g></g><g id="b49" class="" transform="translate(558,184)"  ><g class=""><rect   width="6.67" height="20" style="fill:#0f0f0f"/></g></g><g id="b4f" class="" transform="translate(371.33 110.67)"  ><g class=""><use class=" Node Icon" width="6.67" height="13.33" fill="#000" stroke="#000" href="#ArcPathVisio"/></g></g><g id="b50" class="" transform="translate(344.67 110.67)"  ><g class=""><use class=" Node Icon" width="6.67" height="13.33" fill="#000" stroke="#000" href="#ArcPathVisio"/></g></g><g id="b5b" class="" transform="translate(431.33 594)"  ><g class=""><use class=" Node Icon" width="13.33" height="13.33" fill="transparent" stroke="#000" href="#Ellipse"/></g></g><g id="b70" class="" transform="translate(638 600.67)"  ><g class=""><use class=" Node Icon" width="26.67" height="26.67" fill="transparent" stroke="#000" href="#Ellipse"/></g></g><g id="b71" class="" transform="translate(771.33 609.29) rotate(45 3.33 4.71)"  ><g class=""><use class=" Node Icon" width="6.67" height="9.43" fill="#000" stroke="#000" href="#ArcPathVisio"/></g></g><g id="b8a" class="" transform="translate(591.33 144)"  ><g class=""><rect   width="6.67" height="20" style="fill:#0f0f0f"/></g></g><g id="b90" class="" transform="translate(458,144)"  ><g class=""><rect   width="6.67" height="20" style="fill:#0f0f0f"/></g></g><g id="b9a" class="" transform="translate(474.67 184)"  ><g class=""><rect   width="6.67" height="20" style="fill:#0f0f0f"/></g></g><g id="b9d" class="" transform="translate(624.67 110.67)"  ><g class=""><use class=" Node Icon" width="6.67" height="13.33" fill="#000" stroke="#000" href="#ArcPathVisio"/></g></g><g id="bb5" class="" transform="translate(398 607.33) rotate(35.48 20 3.33)"  ><g class=""><rect   width="40" height="6.67" style="fill:#0f0f0f"/></g></g><g id="bc7" class="" transform="translate(344.67 147.33)"  ><g class=""><use class=" Node Icon" width="6.67" height="13.33" fill="#000" stroke="#000" href="#ArcPathVisio"/></g></g><g id="bd0" class="" transform="translate(574.67 184)"  ><g class=""><rect   width="6.67" height="20" style="fill:#0f0f0f"/></g></g><g id="bd2" class="" transform="translate(631.33 150.67) rotate(180 3.33 6.67)"  ><g class=""><use class=" Node Icon" width="6.67" height="13.33" fill="#000" stroke="#000" href="#ArcPathVisio"/></g></g><g id="be9" class="" transform="translate(431.33 564)"  ><g class=""><use class=" Node Icon" width="13.33" height="13.33" fill="transparent" stroke="#000" href="#Ellipse"/></g></g><g id="bee" class="" transform="translate(474.67 144)"  ><g class=""><rect   width="6.67" height="20" style="fill:#0f0f0f"/></g></g><g id="bfb" class="" transform="translate(731.33 607.33) rotate(35.48 20 3.33)"  ><g class=""><rect   width="40" height="6.67" style="fill:#0f0f0f"/></g></g><g id="c00" class="" transform="translate(608,184)"  ><g class=""><rect   width="6.67" height="20" style="fill:#0f0f0f"/></g></g><g id="c62" class="" transform="translate(441.33 107.33)"  ><g class=""><rect   width="6.67" height="20" style="fill:#0f0f0f"/></g></g><g id="c7e" class="" transform="translate(371.33 187.33)"  ><g class=""><use class=" Node Icon" width="6.67" height="13.33" fill="#000" stroke="#000" href="#ArcPathVisio"/></g></g><g id="c7f" class="" transform="translate(351.33 150.67) rotate(180 3.33 6.67)"  ><g class=""><use class=" Node Icon" width="6.67" height="13.33" fill="#000" stroke="#000" href="#ArcPathVisio"/></g></g><g id="c84" class="" transform="translate(661.33 590.67)"  ><g class=""><use class=" Node Icon" width="20" height="20" fill="transparent" stroke="#000" href="#Ellipse"/></g></g><g id="c9a" class="" transform="translate(391.33 107.33)"  ><g class=""><rect   width="6.67" height="20" style="fill:#0f0f0f"/></g></g><g id="cd7" class="" transform="translate(541.33 144)"  ><g class=""><rect   width="6.67" height="20" style="fill:#0f0f0f"/></g></g><g id="cd8" class="" transform="translate(574.67 144)"  ><g class=""><rect   width="6.67" height="20" style="fill:#0f0f0f"/></g></g><g id="cf8" class="" transform="translate(508,90.58)"  ><g class=""><rect   width="6.67" height="126.84" style="fill:#0f0f0f"/></g></g><g id="d08" class="" transform="translate(364.67 190.67) rotate(180 3.33 6.67)"  ><g class=""><use class=" Node Icon" width="6.67" height="13.33" fill="#000" stroke="#000" href="#ArcPathVisio"/></g></g><g id="d20" class="" transform="translate(341.33 90.58)"  ><g class=""><rect   width="6.67" height="126.84" style="fill:#0f0f0f"/></g></g><g id="d30" class="" transform="translate(381.33 574)"  ><g class=""><use class=" Node Icon" width="20" height="20" fill="transparent" stroke="#000" href="#Ellipse"/></g></g><g id="d3a" class="" transform="translate(558 107.33)"  ><g class=""><rect   width="6.67" height="20" style="fill:#0f0f0f"/></g></g><g id="d5e" class="" transform="translate(317.91 593.91)"  ><g class=""><use class=" Node Icon" width="126.84" height="126.84" fill="transparent" stroke="#000" href="#Ellipse"/></g></g><g id="d62" class="" transform="translate(424.67 184)"  ><g class=""><rect   width="6.67" height="20" style="fill:#0f0f0f"/></g></g><g id="d8a" class="" transform="translate(534.67 600.67) rotate(-90 60 56.67)"  ><g class=""><use class=" Node Icon" width="120" height="113.33" fill="#000" stroke="#000" href="#ArcPathVisio"/></g></g><g id="db9" class="" transform="translate(658 90.58) rotate(0.15 3.33 63.42)"  ><g class=""><rect   width="6.67" height="126.84" style="fill:#0f0f0f"/></g></g><g id="dc3" class="" transform="translate(491.33 144)"  ><g class=""><rect   width="6.67" height="20" style="fill:#0f0f0f"/></g></g><g id="dc6" class="" transform="translate(558,144)"  ><g class=""><rect   width="6.67" height="20" style="fill:#0f0f0f"/></g></g><g id="dcf" class="" transform="translate(458 107.33)"  ><g class=""><rect   width="6.67" height="20" style="fill:#0f0f0f"/></g></g><g id="de7" class="" transform="translate(524.67 144)"  ><g class=""><rect   width="6.67" height="20" style="fill:#0f0f0f"/></g></g><g id="e06" class="" transform="translate(644.67 150.67) rotate(180 3.33 6.67)"  ><g class=""><use class=" Node Icon" width="6.67" height="13.33" fill="#000" stroke="#000" href="#ArcPathVisio"/></g></g><g id="e13" class="" transform="translate(358 187.33)"  ><g class=""><use class=" Node Icon" width="6.67" height="13.33" fill="#000" stroke="#000" href="#ArcPathVisio"/></g></g><g id="e1b" class="" transform="translate(400.99 570.67)"  ><g class=""><use class=" Node Icon" width="34.02" height="33.34" fill="transparent" stroke="#000" href="#Ellipse"/></g></g><g id="e3c" class="" transform="translate(591.33 107.33)"  ><g class=""><rect   width="6.67" height="20" style="fill:#0f0f0f"/></g></g><g id="e41" class="" transform="translate(638 110.67)"  ><g class=""><use class=" Node Icon" width="6.67" height="13.33" fill="#000" stroke="#000" href="#ArcPathVisio"/></g></g><g id="e47" class="" transform="translate(354.67 567.33)"  ><g class=""><use class=" Node Icon" width="26.67" height="26.67" fill="transparent" stroke="#000" href="#Ellipse"/></g></g><g id="e57" class="" transform="translate(624.67 147.33)"  ><g class=""><use class=" Node Icon" width="6.67" height="13.33" fill="#000" stroke="#000" href="#ArcPathVisio"/></g></g><g id="e63" class="" transform="translate(671.33 554)"  ><g class=""><use class=" Node Icon" width="13.33" height="13.33" fill="transparent" stroke="#000" href="#Ellipse"/></g></g><g id="e6e" class="" transform="translate(738.79 557.33) rotate(159.78 55.88 13.33)"  ><g class=""><use class=" Node Icon" width="111.75" height="26.67" fill="#000" stroke="#000" href="#ArcPathVisio"/></g></g><g id="e81" class="" transform="translate(574.67 107.33)"  ><g class=""><rect   width="6.67" height="20" style="fill:#0f0f0f"/></g></g><g id="e88" class="" transform="translate(651.33 147.33)"  ><g class=""><use class=" Node Icon" width="6.67" height="13.33" fill="#000" stroke="#000" href="#ArcPathVisio"/></g></g><g id="e8d" class="" transform="translate(364.67 150.67) rotate(180 3.33 6.67)"  ><g class=""><use class=" Node Icon" width="6.67" height="13.33" fill="#000" stroke="#000" href="#ArcPathVisio"/></g></g><g id="eb6" class="" transform="translate(608 107.33)"  ><g class=""><rect   width="6.67" height="20" style="fill:#0f0f0f"/></g></g><g id="eba" class="" transform="translate(441.33 144)"  ><g class=""><rect   width="6.67" height="20" style="fill:#0f0f0f"/></g></g><g id="ebd" class="" transform="translate(201.33 600.67) rotate(-90 60 56.67)"  ><g class=""><use class=" Node Icon" width="120" height="113.33" fill="#000" stroke="#000" href="#ArcPathVisio"/></g></g><g id="eda" class="" transform="translate(651.33 110.67)"  ><g class=""><use class=" Node Icon" width="6.67" height="13.33" fill="#000" stroke="#000" href="#ArcPathVisio"/></g></g><g id="edc" class="" transform="translate(408,184)"  ><g class=""><rect   width="6.67" height="20" style="fill:#0f0f0f"/></g></g><g id="ef0" class="" transform="translate(391.33 184)"  ><g class=""><rect   width="6.67" height="20" style="fill:#0f0f0f"/></g></g><g id="f06" class="" transform="translate(524.67 184)"  ><g class=""><rect   width="6.67" height="20" style="fill:#0f0f0f"/></g></g><g id="f07" class="" transform="translate(741.33 582.62) rotate(45 3.33 4.71)"  ><g class=""><use class=" Node Icon" width="6.67" height="9.43" fill="#000" stroke="#000" href="#ArcPathVisio"/></g></g><g id="f0c" class="" transform="translate(698,554)"  ><g class=""><use class=" Node Icon" width="13.33" height="13.33" fill="transparent" stroke="#000" href="#Ellipse"/></g></g><g id="f10" class="" transform="translate(651.33 187.33)"  ><g class=""><use class=" Node Icon" width="6.67" height="13.33" fill="#000" stroke="#000" href="#ArcPathVisio"/></g></g><g id="f2a" class="" transform="translate(391.33 144)"  ><g class=""><rect   width="6.67" height="20" style="fill:#0f0f0f"/></g></g><g id="f2d" class="" transform="translate(741.33 594.57) rotate(225 16.67 9.43)"  ><g class=""><use class=" Node Icon" width="33.33" height="18.86" fill="#000" stroke="#000" href="#ArcPathVisio"/></g></g><g id="f30" class="" transform="translate(624.67 187.33)"  ><g class=""><use class=" Node Icon" width="6.67" height="13.33" fill="#000" stroke="#000" href="#ArcPathVisio"/></g></g><g id="f40" class="" transform="translate(541.33 107.33)"  ><g class=""><rect   width="6.67" height="20" style="fill:#0f0f0f"/></g></g><g id="f57" class="" transform="translate(524.67 107.33)"  ><g class=""><rect   width="6.67" height="20" style="fill:#0f0f0f"/></g></g><g id="f78" class="" transform="translate(474.67 107.33)"  ><g class=""><rect   width="6.67" height="20" style="fill:#0f0f0f"/></g></g><g id="f7c" class="" transform="translate(674.33 564)"  ><g class=""><use class=" Node Icon" width="34.02" height="33.34" fill="transparent" stroke="#000" href="#Ellipse"/></g></g><g id="f8f" class="" transform="translate(541.33 184)"  ><g class=""><rect   width="6.67" height="20" style="fill:#0f0f0f"/></g></g><g id="fb7" class="" transform="translate(408 107.33)"  ><g class=""><rect   width="6.67" height="20" style="fill:#0f0f0f"/></g></g><g id="fc0" class="" transform="translate(358 110.67)"  ><g class=""><use class=" Node Icon" width="6.67" height="13.33" fill="#000" stroke="#000" href="#ArcPathVisio"/></g></g><g id="fcb" class="" transform="translate(608,144)"  ><g class=""><rect   width="6.67" height="20" style="fill:#0f0f0f"/></g></g><g id="fd3" class="" transform="translate(408,144)"  ><g class=""><rect   width="6.67" height="20" style="fill:#0f0f0f"/></g></g><g id="fdd" class="" transform="translate(631.33 114) rotate(180 3.33 6.67)"  ><g class=""><use class=" Node Icon" width="6.67" height="13.33" fill="#000" stroke="#000" href="#ArcPathVisio"/></g></g><g id="fe6" class="" transform="translate(344.67 187.33)"  ><g class=""><use class=" Node Icon" width="6.67" height="13.33" fill="#000" stroke="#000" href="#ArcPathVisio"/></g></g><g id="fef" class="" transform="translate(638 187.33)"  ><g class=""><use class=" Node Icon" width="6.67" height="13.33" fill="#000" stroke="#000" href="#ArcPathVisio"/></g></g><g id="ff3" class="" transform="translate(424.67 144)"  ><g class=""><rect   width="6.67" height="20" style="fill:#0f0f0f"/></g></g><g id="c9dba" class="GroupNone" transform="translate(849 71.67)"  ><g class="GroupNone"><rect   width="178" height="131.33" fill-opacity=".1" stroke-dasharray="5,3" style="fill:#b4b464;stroke:grey"/><g id="d17" class="" transform="translate(9,9)"  ><g class=""><rect   width="160" height="113.33" style="fill:transparent"/></g></g><g id="a7a" class="Label" transform="translate(23.83 27.67)"  name="Regulatory Proteins" ><g class="Label"/><text   transform="translate(65.17 8)"    font-weight="bold"  style="fill:#00f">Regulatory Proteins</text></g><g id="f9d" class="Label" transform="translate(35.83 11)"  name="Other Structural" ><g class="Label"/><text   transform="translate(53.17 8)"    font-weight="bold"  style="fill:#00f">Other Structural</text></g><g id="a53" class="GeneProduct " transform="translate(55.67 49)"  name="MYOM1" ><rect   width="60" height="20"/><text   transform="translate(30,10)"    >MYOM1</text></g></g></g><g id="d03be" class="GroupNone" transform="translate(425 503.67)"  ><g class="GroupNone"><rect   width="129.67" height="76" fill-opacity=".1" stroke-dasharray="5,3" style="fill:#b4b464;stroke:grey"/><g id="a22" class="" transform="translate(9 37) rotate(-90 33.33 4.33)"  ><g class=""><use class=" Node Icon" width="66.67" height="8.67" fill="#000" stroke="#8f8f8f" href="#Brace"/></g></g><g id="c71" class="Label" transform="translate(45.33 9)"  name="Troponin-C" ><g class="Label"/><text   transform="translate(37.67 8)"    font-weight="bold"  style="fill:#00f">Troponin-C</text></g><g id="b21" class="GeneProduct " transform="translate(53,27)"  name="TNNC1" ><rect   width="60" height="20"/><text   transform="translate(30,10)"    >TNNC1</text></g><g id="b73" class="GeneProduct " transform="translate(53,47)"  name="TNNC2" ><rect   width="60" height="20"/><text   transform="translate(30,10)"    >TNNC2</text></g></g></g><g id="d23ed" class="GroupNone" transform="translate(692.33 238.33)"  ><g class="GroupNone"><rect   width="118" height="38" fill-opacity=".1" stroke-dasharray="5,3" style="fill:#b4b464;stroke:grey"/><g id="a47" class="" transform="translate(9 14.67) rotate(-90 26.67 4.33)"  ><g class=""><use class=" Node Icon" width="53.33" height="8.67" fill="#000" stroke="#8f8f8f" href="#Brace"/></g></g><g id="c9e" class="GeneProduct " transform="translate(49,9)"  name="TTN" ><rect   width="60" height="20"/><text   transform="translate(30,10)"    >TTN</text></g></g></g><g id="d4763" class="GroupNone" transform="translate(402.33 681.67)"  ><g class="GroupNone"><rect   width="134.67" height="98" fill-opacity=".1" stroke-dasharray="5,3" style="fill:#b4b464;stroke:grey"/><g id="f2e" class="" transform="translate(9 44.67) rotate(-90 46.67 4.33)"  ><g class=""><use class=" Node Icon" width="93.33" height="8.67" fill="#000" stroke="#8f8f8f" href="#Brace"/></g></g><g id="a6d" class="GeneProduct " transform="translate(65.67 29)"  name="ACTA2" ><rect   width="60" height="20"/><text   transform="translate(30,10)"    >ACTA2</text></g><g id="a78" class="GeneProduct " transform="translate(65.67 69)"  name="ACTG1" ><rect   width="60" height="20"/><text   transform="translate(30,10)"    >ACTG1</text></g><g id="a8a" class="GeneProduct " transform="translate(65.67 9)"  name="ACTA1" ><rect   width="60" height="20"/><text   transform="translate(30,10)"    >ACTA1</text></g><g id="c49" class="GeneProduct " transform="translate(65.67 49)"  name="ACTC" ><rect   width="60" height="20"/><text   transform="translate(30,10)"    >ACTC</text></g></g></g><g id="d93c8" class="GroupNone" transform="translate(133 483.33)"  ><g class="GroupNone"><rect   width="156.67" height="119.33" fill-opacity=".1" stroke-dasharray="5,3" style="fill:#b4b464;stroke:grey"/><g id="c80" class="" transform="translate(40.33 59) rotate(90 53.67 4.33)"  ><g class=""><use class=" Node Icon" width="107.33" height="8.67" fill="#000" stroke="#8f8f8f" href="#Brace"/></g></g><g id="dae" class="Label" transform="translate(9,9)"  name="Tropomyosin" ><g class="Label"/><text   transform="translate(43.67 8)"    font-weight="bold"  style="fill:#00f">Tropomyosin</text></g><g id="b37" class="GeneProduct " transform="translate(22.67 50.33)"  name="TPM2" ><rect   width="60" height="20"/><text   transform="translate(30,10)"    >TPM2</text></g><g id="bc0" class="GeneProduct " transform="translate(22.67 70.33)"  name="TPM3" ><rect   width="60" height="20"/><text   transform="translate(30,10)"    >TPM3</text></g><g id="c60" class="GeneProduct " transform="translate(22.67 90.33)"  name="TPM4" ><rect   width="60" height="20"/><text   transform="translate(30,10)"    >TPM4</text></g><g id="fa0" class="GeneProduct " transform="translate(22.67 30.33)"  name="TPM1" ><rect   width="60" height="20"/><text   transform="translate(30,10)"    >TPM1</text></g></g></g><g id="e7493" class="GroupNone" transform="translate(662.33 105)"  ><g class="GroupNone"><rect   width="144.67" height="118" fill-opacity=".1" stroke-dasharray="5,3" style="fill:#b4b464;stroke:grey"/><g id="e6b" class="" transform="translate(9 51.33) rotate(-90 56.67 4.33)"  ><g class=""><use class=" Node Icon" width="113.33" height="8.67" fill="#000" stroke="#8f8f8f" href="#Brace"/></g></g><g id="a0e" class="GeneProduct " transform="translate(75.67 69)"  name="DES" ><rect   width="60" height="20"/><text   transform="translate(30,10)"    >DES</text></g><g id="b7d" class="GeneProduct " transform="translate(75.67 89)"  name="VIM" ><rect   width="60" height="20"/><text   transform="translate(30,10)"    >VIM</text></g><g id="c2a" class="GeneProduct " transform="translate(75.67 49)"  name="ACTN3" ><rect   width="60" height="20"/><text   transform="translate(30,10)"    >ACTN3</text></g><g id="e21" class="GeneProduct " transform="translate(75.67 9)"  name="ACTN4" ><rect   width="60" height="20"/><text   transform="translate(30,10)"    >ACTN4</text></g><g id="ee5" class="GeneProduct " transform="translate(75.67 29)"  name="ACTN2" ><rect   width="60" height="20"/><text   transform="translate(30,10)"    >ACTN2</text></g></g></g><g id="b2a" class="Label" transform="translate(593 376.83)"  name="Contraction by Ca++" ><g class="Label"/><text   transform="translate(91.67 10.5)"    font-weight="bold"  style="font-size:14px">Contraction by Ca++</text></g><g id="b40" class="Label" transform="translate(635.17 67.83)"  name="Z Disk" ><g class="Label"/><text   transform="translate(26.17 9.5)"    font-weight="bold"  style="font-size:12px">Z Disk</text></g><g id="c90" class="Label" transform="translate(476.54 586.2)"  name="Myosin Binding Site (Covered)" ><g class="Label"/><text   transform="translate(52.86 16)"    font-style="italic" font-weight="bold"  style="font-size:11px"><tspan   x="0" y="-6.05">Myosin Binding Site</tspan><tspan   x="0" y="6.05">(Covered)</tspan></text></g><g id="ca7" class="Label" transform="translate(237 376.83)"  name="A Model of Triggering of Striated Muscle" ><g class="Label"/><text   transform="translate(177.67 10.5)"    font-weight="bold"  style="font-size:14px">A Model of Triggering of Striated Muscle</text></g><g id="cb3" class="Label" transform="translate(701.93 532.92)"  name="Ca" ><g class="Label"/><text   transform="translate(10.17 7.5)"    font-weight="bold"  style="font-size:9px">Ca</text></g><g id="cec" class="Label" transform="translate(328.5 67.83)"  name="Z Disk" ><g class="Label"/><text   transform="translate(26.17 9.5)"    font-weight="bold"  style="font-size:12px">Z Disk</text></g><g id="cfd" class="Label" transform="translate(661.17 536.5)"  name="Ca" ><g class="Label"/><text   transform="translate(10.17 7.5)"    font-weight="bold"  style="font-size:9px">Ca</text></g><g id="dcd" class="Label" transform="translate(696,656)"  name="Actin" ><g class="Label"/><text   transform="translate(18.67 8)"    font-weight="bold"  style="fill:grey">Actin</text></g><g id="e71" class="Label" transform="translate(483.17 67.83)"  name="M Disk" ><g class="Label"/><text   transform="translate(28.17 9.5)"    font-weight="bold"  style="font-size:12px">M Disk</text></g><g id="f20" class="Label" transform="translate(790.5 559.33)"  name="Myosin Head" ><g class="Label"/><text   transform="translate(44.17 8)"    font-style="italic" font-weight="bold"  style="fill:grey;font-size:11px">Myosin Head</text></g><g id="ffc" class="Label" transform="translate(362.67 656)"  name="Actin" ><g class="Label"/><text   transform="translate(18.67 8)"    font-weight="bold"  style="fill:grey">Actin</text></g><g id="abaa5" class="GroupNone" transform="translate(812.5 600.33)"  ><g class="GroupNone"><rect   width="144.33" height="136" fill-opacity=".1" stroke-dasharray="5,3" style="fill:#b4b464;stroke:grey"/><g id="fb5" class="Label" transform="translate(9,9)"  name="Myosin Light Chain" ><g class="Label"/><text   transform="translate(63.17 8)"    font-weight="bold"  style="fill:#00f">Myosin Light Chain</text></g><g id="a95" class="GeneProduct " transform="translate(38.83 87)"  name="MYL4" ><rect   width="60" height="20"/><text   transform="translate(30,10)"    >MYL4</text></g><g id="be0" class="GeneProduct " transform="translate(38.83 67)"  name="MYL3" ><rect   width="60" height="20"/><text   transform="translate(30,10)"    >MYL3</text></g><g id="c07" class="GeneProduct " transform="translate(38.83 47)"  name="MYL2" ><rect   width="60" height="20"/><text   transform="translate(30,10)"    >MYL2</text></g><g id="d40" class="GeneProduct " transform="translate(38.83 107)"  name="MYL9" ><rect   width="60" height="20"/><text   transform="translate(30,10)"    >MYL9</text></g><g id="faa" class="GeneProduct " transform="translate(38.83 27)"  name="MYL1" ><rect   width="60" height="20"/><text   transform="translate(30,10)"    >MYL1</text></g></g></g><g id="b2f4e" class="GroupNone" transform="translate(535.67 230.33)"  ><g class="GroupNone"><rect   width="151.33" height="99.33" fill-opacity=".1" stroke-dasharray="5,3" style="fill:#b4b464;stroke:grey"/><g id="b4e" class="Label" transform="translate(9,9)"  name="Myosin Heavy Chain" ><g class="Label"/><text   transform="translate(66.67 8)"    font-weight="bold"  style="fill:#00f">Myosin Heavy Chain</text></g><g id="b12" class="GeneProduct " transform="translate(42.33 30.33)"  name="MYH6" ><rect   width="60" height="20"/><text   transform="translate(30,10)"    >MYH6</text></g><g id="c38" class="GeneProduct " transform="translate(42.33 70.33)"  name="MYH8" ><rect   width="60" height="20"/><text   transform="translate(30,10)"    >MYH8</text></g><g id="c51" class="GeneProduct " transform="translate(42.33 50.33)"  name="MYH3" ><rect   width="60" height="20"/><text   transform="translate(30,10)"    >MYH3</text></g></g></g><g id="d3b85" class="GroupNone" transform="translate(251.83 417)"  ><g class="GroupNone"><rect   width="92.33" height="96" fill-opacity=".1" stroke-dasharray="5,3" style="fill:#b4b464;stroke:grey"/><g id="e3f" class="Label" transform="translate(9,9)"  name="Troponin-T" ><g class="Label"/><text   transform="translate(37.17 8)"    font-weight="bold"  style="fill:#00f">Troponin-T</text></g><g id="a89" class="GeneProduct " transform="translate(16.17 47)"  name="TNNT1" ><rect   width="60" height="20"/><text   transform="translate(30,10)"    >TNNT1</text></g><g id="cba" class="GeneProduct " transform="translate(16.17 67)"  name="TNNT3" ><rect   width="60" height="20"/><text   transform="translate(30,10)"    >TNNT3</text></g><g id="d06" class="GeneProduct " transform="translate(16.17 27)"  name="TNNT2" ><rect   width="60" height="20"/><text   transform="translate(30,10)"    >TNNT2</text></g></g></g><g id="f1e42" class="GroupNone" transform="translate(380.5,417)"  ><g class="GroupNone"><rect   width="88.33" height="96" fill-opacity=".1" stroke-dasharray="5,3" style="fill:#b4b464;stroke:grey"/><g id="d61" class="Label" transform="translate(9,9)"  name="Troponin-I" ><g class="Label"/><text   transform="translate(35.17 8)"    font-weight="bold"  style="fill:#00f">Troponin-I</text></g><g id="a08" class="GeneProduct " transform="translate(14.17 67)"  name="TNNI3" ><rect   width="60" height="20"/><text   transform="translate(30,10)"    >TNNI3</text></g><g id="a28" class="GeneProduct " transform="translate(14.17 27)"  name="TNNI1" ><rect   width="60" height="20"/><text   transform="translate(30,10)"    >TNNI1</text></g><g id="aa7" class="GeneProduct " transform="translate(14.17 47)"  name="TNNI2" ><rect   width="60" height="20"/><text   transform="translate(30,10)"    >TNNI2</text></g></g></g><g id="f77ae" class="GroupNone" transform="translate(411.17 230.33)"  ><g class="GroupNone"><rect   width="120.33" height="99.33" fill-opacity=".1" stroke-dasharray="5,3" style="fill:#b4b464;stroke:grey"/><g id="da2" class="Label" transform="translate(9,9)"  name="Myosin Binding" ><g class="Label"/><text   transform="translate(51.17 8)"    font-weight="bold"  style="fill:#00f">Myosin Binding</text></g><g id="a15" class="GeneProduct " transform="translate(26.83 30.33)"  name="MYBPC1" ><rect   width="60" height="20"/><text   transform="translate(30,10)"    >MYBPC1</text></g><g id="af0" class="GeneProduct " transform="translate(26.83 70.33)"  name="MYBPC3" ><rect   width="60" height="20"/><text   transform="translate(30,10)"    >MYBPC3</text></g><g id="dc4" class="GeneProduct " transform="translate(26.83 50.33)"  name="MYBPC2" ><rect   width="60" height="20"/><text   transform="translate(30,10)"    >MYBPC2</text></g></g></g><g id="a1c" class="GeneProduct " transform="translate(791.33 300.67)"  name="TCAP" ><rect   width="60" height="20"/><text   transform="translate(30,10)"    >TCAP</text></g><g id="a8c19" class="GroupNone" transform="translate(289 251.67)"  ><g class="GroupNone"><rect   width="78" height="78" fill-opacity=".1" stroke-dasharray="5,3" style="fill:#b4b464;stroke:grey"/><g id="c14" class="GeneProduct " transform="translate(9,49)"  name="NEB" ><rect   width="60" height="20"/><text   transform="translate(30,10)"    >NEB</text></g><g id="dce" class="GeneProduct " transform="translate(9,9)"  name="DMD" ><rect   width="60" height="20"/><text   transform="translate(30,10)"    >DMD</text></g><g id="e44" class="GeneProduct " transform="translate(9,29)"  name="TMOD1" ><rect   width="60" height="20"/><text   transform="translate(30,10)"    >TMOD1</text></g></g></g><g id="a7daf" class="Edge"  ><path    d="m347.9 173 94.62 0.22" style="marker-end:none"/></g><g id="ccbd5" class="Edge"  ><path    d="m347.98 96.92 94.62 0.22" style="marker-end:none"/></g><g id="de3f0" class="Edge"  ><path    d="m347.77 135.77 94.62 0.22" style="marker-end:none"/></g><g id="ed4e6" class="Edge"  ><path    d="m563.57 212.66 94.62 0.22" style="marker-end:none"/></g><g id="e46bf" class="Edge"  ><path    d="m564.37 172.11 94.62 0.22" style="marker-end:none"/></g><g id="ccb40" class="Edge"  ><path    d="m565.95 134.62 94.62 0.22" style="marker-end:none"/></g><g id="ea612" class="Edge"  ><path    d="m565.99 96.87 94.62 0.22" style="marker-end:none"/></g><g id="f67f9" class="Edge"  ><path    d="m661.05 155.53 44.42 0.26" style="marker-end:none"/></g><g id="ee8fb" class="Edge"  ><path    d="m661.35 195.91 44.42 0.26" style="marker-end:none"/></g><g id="b53a0" class="Edge"  ><path    d="m624.7 154.19h-246.32" style="marker-end:none"/></g><g id="d4232" class="Edge"  ><path    d="m624.48 117.26h-246.32" style="marker-end:none"/></g><g id="a1feb" class="Edge"  ><path    d="m468.09 209.52 0.16-30.28" style="stroke:#f00;marker-end:none"/></g><g id="e1eaa" class="Edge"  ><path    d="m418.14 179.16 49.95 0.08" style="stroke:#f00;marker-end:none"/></g><g id="a5da3" class="Edge"  ><path    d="m418.01 209.65 0.16-30.28" style="stroke:#f00;marker-end:none"/></g><g id="a67e9" class="Edge"  ><path    d="m471.33 231.33 29.38-22.69"/></g><g id="a191f" class="Edge"  ><path    d="m574 231.33-39.08-21.69"/></g><g id="abbd0" class="Edge"  ><path    d="m715.67 257.33-70.92-38.69"/></g><g id="a2b48" class="Edge"  ><path    d="m301.01 118.03 40.82 0.08" style="marker-end:none"/></g><g id="bbf32" class="Edge"  ><path    d="m301.05 155.36 40.82 0.08" style="marker-end:none"/></g><g id="fb108" class="Edge"  ><path    d="m300.63 195.93 40.82 0.08" style="marker-end:none"/></g><g id="bf94e" class="Edge"  ><path    d="m434.41 576.3 0.08 18.62" style="marker-end:none"/></g></g></g></g></svg>