<?xml version="1.0" encoding="UTF-8"?>
<svg xmlns="http://www.w3.org/2000/svg" id="-svg" class="Diagram"  baseProfile="full" prefix="schema:http://schema.org/" preserveAspectRatio="xMidYMid"  version="1.1"><defs><g id="icon-defs"><symbol id="Ellipse" class=" Icon Ellipse" x="0" y="0" overflow="visible" preserveAspectRatio="none" viewBox="0 0 50 50"><desc>Ellipse</desc><ellipse cx="25" cy="25" rx="25" ry="25" vector-effect="non-scaling-stroke"/></symbol><symbol id="Octagon" class=" Icon Octagon" x="0" y="0" overflow="visible" preserveAspectRatio="none" viewBox="0 0 100 100"><desc>Octagon</desc><path d="m0 25 25-25h50l25 25v50l-25 25h-50l-25-25z" vector-effect="non-scaling-stroke"/></symbol></g><g id="marker-defs"><marker id="markerendtbar000" markerHeight="20" markerWidth="10" orient="auto" preserveAspectRatio="none" refX="10" refY="10" viewBox="0 0 10 20"><g id="g-markerendtbar000" transform=""><g transform="rotate(180 5 10)"><rect y="9" width="8" height="2" style="stroke:none"/><line x="0" y="0" width="12" height="12" x1="7" x2="7" y2="20" stroke="#000" stroke-width="1.8"/></g></g></marker><marker id="mea" markerHeight="12" markerWidth="12" orient="auto" preserveAspectRatio="none" refX="12" refY="6" viewBox="0 0 12 12"><g id="g-mea" transform=""><g transform="rotate(180 6 6)"><rect y="5.4" width="2" height="1.2" style="stroke:#fff"/><polygon points="12 11 0 6 12 1" stroke-width="0"/></g></g></marker><marker id="memstimulation000" markerHeight="12" markerWidth="12" orient="auto" preserveAspectRatio="none" refX="12" refY="6" viewBox="0 0 12 12"><g id="g-memstimulation000" transform=""><g transform="rotate(180 6 6)"><rect y="5.4" width="2" height="1.2" style="stroke:none"/><line x1="12" x2="12" y1="6" y2="6" fill="none"/><polygon points="0 6 11 11 11 1" fill="#fff" stroke="#000"/></g></g></marker><marker id="markerendtbarff3333white" markerHeight="20" markerWidth="10" orient="auto" preserveAspectRatio="none" refX="10" refY="10" viewBox="0 0 10 20"><g id="g-markerendtbarff3333white" transform=""><g transform="rotate(180 5 10)"><rect y="9" width="8" height="2" style="stroke:none"/><line x="0" y="0" width="12" height="12" x1="7" x2="7" y2="20" stroke="#f33" stroke-width="1.8"/></g></g></marker><marker id="meaff3333" markerHeight="12" markerWidth="12" orient="auto" preserveAspectRatio="none" refX="12" refY="6" viewBox="0 0 12 12"><g id="g-meaff3333" transform=""><g transform="rotate(180 6 6)"><rect y="5.4" width="2" height="1.2" style="stroke:#fff"/><polygon points="12 11 0 6 12 1" fill="#f33" stroke-width="0"/></g></g></marker></g></defs><g id="viewport-20220102142539240" class="svg-pan-zoom_viewport" transform="matrix(0.59 0 0 0.59 259.03 0)" style="transform:matrix(0.59, 0, 0, 0.59, 259.03, 0)"><style>svg.Diagram {font-family: 'Liberation Sans', Arial, sans-serif; }.Diagram path {fill: transparent;stroke: #000;marker-end: url(#mea);}.Diagram symbol path {fill: inherit;stroke: inherit;stroke-width: inherit;marker-end: inherit;}.Diagram rect {fill: #fff;stroke: #000;}.Diagram text {dominant-baseline: central;overflow: hidden;text-anchor: middle;fill: #000;font-size: 10px;}</style><style type="text/css">.Viewport .textContent {
  pointer-events: none;
  stroke-width: 0px;
}

					.Viewport.Icon {
  fill: white;
}

/* Hide the InfoBox */
.Viewport.textContent {
  font-size: 0;
}

.textContent {
  stroke: none;
}

.DataNode {
  stroke-miterlimit: 1;
  pointer-events: auto;
}

.DataNode:hover {
  cursor: pointer;
}

/* TODO should this apply to things other than DataNodes? */
.DataNode.textContent {
  pointer-events: none;
}

.DataNode.Highlighted {
  opacity: 0.6;
  stroke-width: 0px;
}

marker {
  /* this is what should work per the spec
  stroke-dasharray: none; */
  /* but I need to add this to make it work in Safari */
  stroke-dasharray: 9999999999999999999999999;
}

.Citation.Icon {
  fill: none;
  stroke-width: 0px;
}

.Citation.textContent {
  text-align: center;
  vertical-align: top;
  font-size: 7px;
  fill: #999;
  fill-opacity: 1;
  stroke: none;
}</style><g id="WP3896" class="Pathway http___identifiers_org_pw_PW_0000502 http___identifiers_org_pw_PW_0000474 Viewport"  name="Name: Dengue-2 interactions with complement and coagulation cascades License: CC BY 2.0 Organism: Homo sapiens" ><g class="Pathway http___identifiers_org_pw_PW_0000502 http___identifiers_org_pw_PW_0000474 Viewport"><rect   width="1158.7" height="1136.7" style="stroke:none"/><g id="a3a38" class="Edge"  ><path    d="m670.33 217h44.33"/></g><g id="a43b9" class="Edge"  ><path    d="m444.67 591.67h188v-37.67"/></g><g id="a441e" class="Edge"  ><path    d="m261 534v-277h25.67"/></g><g id="adae5" class="Edge"  ><path    d="m613.33 873.33 0.34 95.90" style="marker-end:none"/></g><g id="af6d2" class="Edge"  ><path    d="m969.83 217 55.5 0.17" stroke-dasharray="5,3"/><g id="e33f7" class="AB" transform="translate(992.03 217.07)"  ><g class="AB"/></g></g><g id="ac349" class="Edge"  ><path    d="m677.67 544h314.37v-326.93"/><g id="f98ae" class="AB" transform="translate(690.81 544)"  ><g class="AB"/></g></g><g id="af8d7" class="Edge"  ><path    d="m643.33 863.33h286.67" stroke-dasharray="5,3"/><g id="ab685" class="AB" transform="translate(852 863.33)"  ><g class="AB"/></g></g><g id="b15ff" class="Edge"  ><path    d="m736.67 290h85.33v-65"/></g><g id="ba5bf" class="Edge"  ><path    d="m707.67 441.67h15.33v25" style="marker-end:url(#markerendtbar000)"/></g><g id="beee8" class="Edge"  ><path    d="m640.33 207v-124.5h103"/><g id="ffb7f" class="AB" transform="translate(640.33 171.24)"  ><g class="AB"/></g></g><g id="bf394" class="Edge"  ><path    d="m803.33 82.5 44.5 1.17" stroke-dasharray="5,3"/></g><g id="c13fb" class="Edge"  ><path    d="m172 544.33 59-0.33" stroke-dasharray="5,3"/></g><g id="c1f54" class="Edge"  ><path    d="m843 178.67v30.33" style="marker-end:url(#markerendtbar000)"/></g><g id="c3628" class="Edge"  ><path    d="m885 217h47" stroke-dasharray="5,3"/></g><g id="c8699" class="Edge"  ><path    d="m640.33 246.33-0.33 107"/><g id="b64c6" class="AB" transform="translate(640.22 282.71)"  ><g class="AB"/></g><g id="b5d8d" class="AB" transform="translate(640.12 315.33)"  ><g class="AB"/></g></g><g id="aee30" class="Edge"  ><path    d="m640.12 315.33h-338.45v-48.33"/><g id="f5160" class="AB" transform="translate(521.25 315.33)"  ><g class="AB"/></g><g id="d045e" class="AB" transform="translate(417.07 315.33)"  ><g class="AB"/></g></g><g id="cb180" class="Edge"  ><path    d="m884.5 640.67 45.5-0.67"/></g><g id="cea0a" class="Edge"  ><path    d="m444.67 640 373.5 0.67"/></g><g id="ceec8" class="Edge"  ><path    d="m384.67 640h-123.67v-86"/><g id="a561e" class="AB" transform="translate(261 591.8)"  ><g class="AB"/></g></g><g id="c45fa" class="Edge"  ><path    d="m261 591.8 123.67-0.13" style="marker-end:none"/></g><g id="d44b0" class="Edge"  ><path    d="m774.67 217h26.33"/></g><g id="e6156" class="Edge"  ><path    d="m563.67 750-41.52 97.95" style="marker-end:url(#markerendtbar000)"/></g><g id="e82d7" class="Edge"  ><path    d="m678.33 170-23 37" style="marker-end:url(#markerendtbar000)"/></g><g id="e84bf" class="Edge"  ><path    d="m990 640 42-0.17" stroke-dasharray="5,3"/></g><g id="e9fe5" class="Edge"  ><path    d="m553.15 862.45 30.18 0.88"/></g><g id="ec2f1" class="Edge"  ><path    d="m640.22 282.71 36.45 7.29"/></g><g id="ecc7e" class="Edge"  ><path    d="m414.67 601.67v28.33"/></g><g id="eefde" class="Edge"  ><path    d="m662.33 609 0.33-55" style="marker-end:url(#markerendtbar000)"/></g><g id="f473a" class="Edge"  ><path    d="m291 544h326.67"/><g id="fa11b" class="AB" transform="translate(356,544)"  ><g class="AB"/></g></g><g id="b63ee" class="Edge"  ><path    d="m356 544-6e-14 3.33c6e-14 3.33 6e-14 10 9.78 13.33 9.78 3.33 29.33 3.33 39.11 6.28 9.78 2.94 9.78 8.83 9.78 11.78l7e-14 2.94"/></g><g id="f71e4" class="Edge"  ><path    d="m845 501 41 0.83" stroke-dasharray="5,3"/></g><g id="ff9a8" class="Edge"  ><path    d="m647.67 554-141.02 293.95" stroke-dasharray="5,3"/></g><g id="id3b370218" class="Edge"  ><path    d="m662.67 554v3h388.5v-324" style="stroke:#f33;marker-end:url(#meaff3333)"/></g><g id="id8245c69e" class="Edge"  ><path    d="m963 743 20-20" style="marker-end:none"/></g><g id="id97cb1a7b" class="Edge"  ><path    d="m763.33 813.33-1e-13 -14.22c1e-13 -14.22 1e-13 -42.67 29.78-56.89 29.78-14.22 89.33-14.22 119.11-11.72 29.78 2.5 29.78 7.5 29.78 10v2.5" style="stroke:#f33;marker-end:none"/></g><g id="idb894ff5a" class="Edge"  ><path    d="m950 823.33h16.67v30.5" style="stroke:#f33;marker-end:url(#markerendtbarff3333white)"/></g><g id="idcc98245a" class="Edge"  ><path    d="m947 754-27 59.33" style="stroke:#f33;marker-end:url(#markerendtbarff3333white)"/></g><g id="idd6ddc96a" class="Edge"  ><path    d="m662.67 554 100.67 259.33" style="stroke:#f33;marker-end:none"/></g><g id="ide8468517" class="Edge"  ><path    d="m427.71 1025.3v-24.95" style="stroke:#f03;marker-end:none"/></g><g id="a261d" class="Edge"  ><path    d="m685 488.33h-37.33v45.67"/></g><g id="e4362" class="Edge"  ><path    d="m761 503.17 24-2.17"/></g><g id="f897a" class="Edge"  ><path    d="m690.81 544-1e-13 -3.33c1e-13 -3.33 1e-13 -10 5.37-13.33 5.37-3.33 16.10-3.33 21.46-4.33 5.37-1 5.37-3 5.37-4v-1"/></g><g id="aed67" class="Edge"  ><path    d="m581.75 287-57.41-29"/></g><g id="bcbe2" class="Edge"  ><path    d="m523 114 20.33 88" style="marker-end:none"/></g><g id="f0a44" class="Edge"  ><path    d="m581.33 216 29 1"/></g><g id="id41eebb90" class="Edge"  ><path    d="m562.33 202v-127.75h181" style="stroke:#f33;marker-end:url(#markerendtbarff3333white)"/></g><g id="a6d17" class="Edge"  ><path    d="m465.06 287-45.72 11"/></g><g id="ae191" class="Edge"  ><path    d="m453.33 242 52-26"/></g><g id="b29b2" class="Edge"  ><path    d="m346.67 257 38.67-1"/></g><g id="idc804147d" class="Edge"  ><path    d="m453.33 242 52-12" style="stroke:#f33;marker-end:url(#markerendtbarff3333white)"/></g><g id="a0190" class="Edge"  ><path    d="m373.33 358.67-41.67-91.67" style="marker-end:url(#markerendtbar000)"/></g><g id="a2c16" class="Edge"  ><path    d="m373.33 358.67 12-74.67" style="marker-end:url(#markerendtbar000)"/></g><g id="e6031" class="Edge"  ><path    d="m418 385.17h144.33v-127.17" style="marker-end:url(#markerendtbar000)"/></g><g id="f4688" class="Edge"  ><path    d="m418 385.17h207.75v-138.83" style="marker-end:url(#markerendtbar000)"/></g><g id="c84e7" class="Edge"  ><path    d="m506.65 876.95v164.72h298.02"/></g><g id="d7776" class="Edge"  ><path    d="m286.44 1039.8 8.37-60.95" style="marker-end:url(#markerendtbar000)"/></g><g id="fdbc5" class="Edge"  ><path    d="m195.17 943.67 27.64-6.85" style="marker-end:none"/></g><g id="a24f7" class="Edge"  ><path    d="m640.33 171.24-180 0.09"/></g><g id="b00b8" class="Edge"  ><path    d="m460.33 185.33 45 30.67"/></g><g id="b96b8" class="Edge"  ><path    d="m307.67 159 76.67-1.67" stroke-dasharray="5,3"/></g><g id="ba47b" class="Edge"  ><path    d="m523 114-62.67 43.33" style="marker-end:url(#markerendtbar000)"/></g><g id="b0e6f" class="Edge"  ><path    d="m246 554v192h42.67" stroke-dasharray="5,3"/></g><g id="b5038" class="Edge"  ><path    d="m326.67 701.33v30.67" style="marker-end:url(#markerendtbar000)"/></g><g id="becf2" class="Edge"  ><path    d="m506.65 847.95v-87.95h-141.98"/></g><g id="bff06" class="Edge"  ><path    d="m364.67 774 126.48 81.2"/><g id="cfe5b" class="AB" transform="translate(415.26 806.48)"  ><g class="AB"/></g></g><g id="cfb79" class="Edge"  ><path    d="m238.5 772 50.17 2" stroke-dasharray="5,3"/></g><g id="b45f3" class="Edge"  ><path    d="m801.67 841.33-1e-13 3.33c1e-13 3.33 1e-13 10 8.39 13.33 8.39 3.33 25.17 3.33 33.56 3.67 8.39 0.33 8.39 1 8.39 1.33v0.33"/></g><g id="fec9d" class="Edge"  ><path    d="m878.33 766.67 1.5 38.67" style="marker-end:url(#markerendtbar000)"/></g><g id="a7289" class="Edge"  ><path    d="m428 791-12.74 15.48" style="marker-end:url(#memstimulation000)"/></g><g id="cd79d" class="Edge"  ><path    d="m446.71 933.62v38.05h357.96"/><g id="b027e" class="AB" transform="translate(523.21 971.67)"  ><g class="AB"/></g><g id="fec3f" class="AB" transform="translate(615.8 971.67)"  ><g class="AB"/></g></g><g id="db620" class="Edge"  ><path    d="m366.81 936.82 22.90-16.94"/></g><g id="f1ffa" class="Edge"  ><path    d="m465.71 892.4 25.45-22.70"/></g><g id="ideb554cef" class="Edge"  ><path    d="m427.71 980.35 1e-13 -46.74" style="stroke:#f33;marker-end:url(#markerendtbarff3333white)"/></g><g id="a985f" class="Edge"  ><path    d="m344.67 860 45.04 32.40"/></g><g id="b6b65" class="Edge"  ><path    d="m243.33 860h25.33" style="marker-end:none"/></g><g id="e2645" class="Edge"  ><path    d="m522.15 876.95 1.06 94.72" style="marker-end:none"/></g><g id="e89e8" class="Edge"  ><path    d="m640 774.67-102.35 73.28" style="marker-end:url(#markerendtbar000)"/></g><g id="c3f94" class="Edge"  ><path    d="m543.33 413.33v-155.33"/><g id="fcfbf" class="AB" transform="translate(543.33 351.2)"  ><g class="AB"/></g></g><g id="d5617" class="Edge"  ><path    d="m640 373.33v54h-58.67"/></g><g id="e3d2f" class="Edge"  ><path    d="m581.33 441.33 53 0.33"/></g><g id="f2d47" class="Edge"  ><path    d="m418 411.67h20v29.67h67.33" style="marker-end:url(#markerendtbar000)"/></g><g id="d0487" class="Edge"  ><path    d="m543.33 351.2h-90v-53.2"/></g><g id="a2e" class="" transform="translate(853.33 906.67)"  ><g class=""><rect   width="6.67" height="200" style="fill:#afafaf"/></g></g><g id="a9b" class="" transform="translate(830 906.67)"  ><g class=""><rect   width="6.67" height="200" style="fill:#afafaf"/></g></g><g id="ab10e" class="" transform="translate(368.5,242)"  ><g class=""><use class=" Node Icon" width="126.5" height="54" fill="transparent" stroke="#ff3333" href="#Ellipse"/></g></g><g id="b3f" class="" transform="translate(756.67 46.52)"  ><g class=""><rect   width="6.67" height="73.64" style="fill:#afafaf"/></g></g><g id="ce0" class="" transform="translate(943.33 603.18)"  ><g class=""><rect   width="6.67" height="73.64" style="fill:#afafaf"/></g></g><g id="d16" class="" transform="translate(966.67 603.18)"  ><g class=""><rect   width="6.67" height="73.64" style="fill:#afafaf"/></g></g><g id="e25b7" class="" transform="translate(386.2 885.4)"  ><g class=""><use class=" Node Icon" width="81" height="46.5" fill="transparent" stroke="#ff3333" href="#Ellipse"/></g></g><g id="e33f2" class="" transform="translate(604,530)"  ><g class=""><use class=" Node Icon" width="81" height="31" fill="transparent" stroke="#ff3333" href="#Ellipse"/></g></g><g id="f65" class="" transform="translate(680 576.67)"  ><g class=""><rect   width="146.67" height="26.67" style="fill:transparent"/></g></g><g id="fcd" class="" transform="translate(780 46.52)"  ><g class=""><rect   width="6.67" height="73.64" style="fill:#afafaf"/></g></g><g id="ffa9a" class="" transform="translate(864,800.5)"  ><g class=""><use class=" Node Icon" width="99" height="50.5" fill="transparent" stroke="#ff3333" href="#Ellipse"/></g></g><g id="bb997" class="GroupNone" transform="translate(776 455.18)"  ><g class="GroupNone"><rect   width="78" height="91.64" fill-opacity=".1" stroke-dasharray="5,3" style="fill:#b4b464;stroke:grey"/><g id="e43" class="" transform="translate(45.67 9)"  ><g class=""><rect   width="6.67" height="73.64" style="fill:#afafaf"/></g></g><g id="f11" class="" transform="translate(22.33 9)"  ><g class=""><rect   width="6.67" height="73.64" style="fill:#afafaf"/></g></g><g id="db8" class="GeneProduct " transform="translate(9 35.82)"  name="PLAUR" ><rect   width="60" height="20"/><text   transform="translate(30,10)"    >PLAUR</text></g></g></g><g id="a2a6b" class="Label" transform="translate(1032 618.67)"  name="Cell adhesion, migration, proliferation, etc" ><g class="Label"/><text   transform="translate(43.67 21.17)"    ><tspan   x="0" y="-11">Cell adhesion,</tspan><tspan   x="0" y="0">migration,</tspan><tspan   x="0" y="11">proliferation, etc</tspan></text></g><g id="a5c" class="Label" transform="translate(847.83 52.33)"  name="Platelet, monocyte, lymphocyte, endothelial cells, smooth muscle cells activation, etc" ><g class="Label"/><text   transform="translate(59.17 31.33)"    ><tspan   x="0" y="-22">Platelet, monocyte,</tspan><tspan   x="0" y="-11">lymphocyte,</tspan><tspan   x="0" y="0">endothelial cells,</tspan><tspan   x="0" y="11">smooth muscle cells</tspan><tspan   x="0" y="22">activation, etc</tspan></text></g><g id="a83" class="Label" transform="translate(535.83 945.33)"  name="C3a" ><g class="Label"/><text   transform="translate(14.17 8)"    >C3a</text></g><g id="a98" class="Label" transform="translate(36.33 722)"  name="Alternative Pathway" ><g class="Label"/><text   transform="translate(63.67 8)"    font-style="italic" font-weight="bold" >Alternative Pathway</text></g><g id="aa8" class="Label" transform="translate(692.67 582)"  name="Fibrinolytic system" ><g class="Label"/><text   transform="translate(60.67 8)"     style="font-size:11px">Fibrinolytic system</text></g><g id="ae2" class="Label" transform="translate(932,209)"  name="Clot" ><g class="Label"/><text   transform="translate(18.92 8)"    >Clot</text></g><g id="afa" class="Label" transform="translate(171,757)"  name="Zymosan, insulin, etc." ><g class="Label"/><text   transform="translate(33.75,15)"    ><tspan   x="0" y="-5.5">Zymosan,</tspan><tspan   x="0" y="5.5">insulin, etc.</tspan></text></g><g id="b17" class="Label" transform="translate(720.33 868.67)"  name="membrane attack complex" ><g class="Label"/><text   transform="translate(79.67 8)"    >membrane attack complex</text></g><g id="b40" class="Label" transform="translate(857.33 234)"  name="Cross-linked fibrin polymer" ><g class="Label"/><text   transform="translate(44.33 17)"    ><tspan   x="0" y="-5.5">Cross-linked</tspan><tspan   x="0" y="5.5">fibrin polymer</tspan></text></g><g id="b49" class="Label" transform="translate(1025.3 201.33)"  name="fibrin degradation products" ><g class="Label"/><text   transform="translate(51.67 15.83)"    ><tspan   x="0" y="-5.5">fibrin degradation</tspan><tspan   x="0" y="5.5">products</tspan></text></g><g id="b67" class="Label" transform="translate(136,77)"  name="Coagulation Cascade" ><rect   width="141.33" height="24.33"/><text   transform="translate(70.67 12.17)"     style="font-size:11px">Coagulation Cascade</text></g><g id="b8c" class="Label" transform="translate(516.17 392)"  name="Degradation" ><g class="Label"/><text   transform="translate(37.17 8)"    >Degradation</text></g><g id="bac" class="Label" transform="translate(15,452)"  name="Kinin kallikrein system" ><rect   width="143.33" height="27.67"/><text   transform="translate(71.67 13.83)"     style="font-size:11px">Kinin kallikrein system</text></g><g id="be5" class="Label" transform="translate(562.5 878.67)"  name="C3b" ><g class="Label"/><text   transform="translate(14.17 8)"    >C3b</text></g><g id="c24" class="Label" transform="translate(588.83 975.33)"  name="Mediators" ><g class="Label"/><text   transform="translate(31.17 8)"    >Mediators</text></g><g id="cc5" class="Label" transform="translate(491.15 847.95)"  name="C3 Convertase" ><g class="Label"/><text   transform="translate(31,14.5)"    ><tspan   x="0" y="-5.5">C3</tspan><tspan   x="0" y="5.5">Convertase</tspan></text></g><g id="cd1" class="Label" transform="translate(44.17 808.67)"  name="Lectin Pathway" ><g class="Label"/><text   transform="translate(49.17 8)"    font-style="italic" font-weight="bold" >Lectin Pathway</text></g><g id="d4f" class="Label" transform="translate(219.17 122)"  name="Extrinsic pathway" ><g class="Label"/><text   transform="translate(54.17 8)"    >Extrinsic pathway</text></g><g id="d50" class="Label" transform="translate(216.33 151)"  name="Vascular injury" ><g class="Label"/><text   transform="translate(45.67 8)"    >Vascular injury</text></g><g id="d9e" class="Label" transform="translate(898.05 981.25)"  name="Muscle contraction, Chemotaxis, Phagocyte recruitment Inflammation, etc." ><g class="Label"/><text   transform="translate(59.67 30.5)"    ><tspan   x="0" y="-16.5">Muscle contraction,</tspan><tspan   x="0" y="-5.5">Chemotaxis,</tspan><tspan   x="0" y="5.5">Phagocyte recruitment</tspan><tspan   x="0" y="16.5">Inflammation, etc.</tspan></text></g><g id="dc4" class="Label" transform="translate(14.5,654)"  name="Complement Cascade" ><rect   width="144.33" height="24"/><text   transform="translate(72.17 12)"     style="font-size:11px">Complement Cascade</text></g><g id="e3d" class="Label" transform="translate(503.47 1021.1)"  name="C3b/4b, C3b, C3d" ><g class="Label"/><text   transform="translate(54.17 8)"    >C3b/4b, C3b, C3d</text></g><g id="e67" class="Label" transform="translate(92.83 927.33)"  name="Antibody/antigen complex" ><g class="Label"/><text   transform="translate(51.17 16.33)"    ><tspan   x="0" y="-5.5">Antibody/antigen</tspan><tspan   x="0" y="5.5">complex</tspan></text></g><g id="eb4" class="Label" transform="translate(413.5,862)"  name="C4b/2a" ><g class="Label"/><text   transform="translate(23.17 8)"    >C4b/2a</text></g><g id="ebf" class="Label" transform="translate(39.5 885.33)"  name="Classical Pathway" ><g class="Label"/><text   transform="translate(57.17 8)"    font-style="italic" font-weight="bold" >Classical Pathway</text></g><g id="ede" class="Label" transform="translate(886 480.67)"  name="Cell adhesion, migration, proliferation, etc" ><g class="Label"/><text   transform="translate(43.67 21.17)"    ><tspan   x="0" y="-11">Cell adhesion,</tspan><tspan   x="0" y="0">migration,</tspan><tspan   x="0" y="11">proliferation, etc</tspan></text></g><g id="ee9" class="Label" transform="translate(449.17 815.33)"  name="C3b/Bb" ><g class="Label"/><text   transform="translate(24.17 8)"    >C3b/Bb</text></g><g id="ef6" class="Label" transform="translate(452.5 945.33)"  name="C4a" ><g class="Label"/><text   transform="translate(14.17 8)"    >C4a</text></g><g id="f22" class="Label" transform="translate(930 853.83)"  name="Cell lysis" ><g class="Label"/><text   transform="translate(36.67 9.5)"    font-weight="bold"  style="font-size:12px">Cell lysis</text></g><g id="f60" class="Label" transform="translate(586.79 924.32)"  name="C5a" ><g class="Label"/><text   transform="translate(14.17 8)"    >C5a</text></g><g id="fbf" class="Label" transform="translate(50 521.67)"  name="Collagen, basement membrane, activated platelets, etc." ><g class="Label"/><text   transform="translate(61 22.67)"    ><tspan   x="0" y="-11">Collagen,</tspan><tspan   x="0" y="0">basement membrane,</tspan><tspan   x="0" y="11">activated platelets, etc.</tspan></text></g><g id="a9a92" class="GroupNone" transform="translate(601.33 198)"  ><g class="GroupNone"><rect   width="78" height="57.33" fill-opacity=".1" stroke-dasharray="5,3" style="fill:#b4b464;stroke:grey"/><g id="afe" class="Label" transform="translate(9.83 32.33)"  name="Thrombin" ><g class="Label"/><text   transform="translate(29.17 8)"    >Thrombin</text></g><g id="d80" class="GeneProduct " transform="translate(9,9)"  name="F2" ><rect   width="60" height="20"/><text   transform="translate(30,10)"    >F2</text></g></g></g><g id="a62" class="GeneProduct " transform="translate(398,771)"  name="ADN" ><rect   width="60" height="20"/><text   transform="translate(30,10)"    >ADN</text></g><g id="ac8" class="GeneProduct " transform="translate(743.33 66)"  name="F2R" ><rect   width="60" height="33"/><text   transform="translate(30,16.5)"    >F2R</text></g><g id="acc40" class="GeneProduct " transform="translate(922,743)"  name="CLU" ><rect   width="80" height="20" style="stroke:#f03"/><text   transform="translate(40,10)"     style="fill:#ff0033">CLU</text></g><g id="b0c" class="GeneProduct " transform="translate(493,94)"  name="TFPI" ><rect   width="60" height="20"/><text   transform="translate(30,10)"    >TFPI</text></g><g id="b3e" class="GeneProduct " transform="translate(296.67 681.33)"  name="CFH" ><rect   width="60" height="20"/><text   transform="translate(30,10)"    >CFH</text></g><g id="b53" class="GeneProduct " transform="translate(714.67 207)"  name="FGB" ><rect   width="60" height="20"/><text   transform="translate(30,10)"    >FGB</text></g><g id="b56" class="GeneProduct " transform="translate(384.67 581.67)"  name="KLKB1" ><rect   width="60" height="20"/><text   transform="translate(30,10)"    >KLKB1</text></g><g id="ba8f8" class="GeneProduct" transform="translate(387.71 1025.3)"  name="PrM/Cap" ><rect   width="80" height="20" style="stroke:#f03"/><text   transform="translate(40,10)"     style="fill:#ff0033">PrM/Cap</text></g><g id="bc64d" class="GeneProduct " transform="translate(387.71 980.35)"  name="APOA2" ><rect   width="80" height="20" style="stroke:#f33"/><text   transform="translate(40,10)"     style="fill:#ff3333">APOA2</text></g><g id="bc7" class="GeneProduct " transform="translate(676.67 280)"  name="F13B" ><rect   width="60" height="20"/><text   transform="translate(30,10)"    >F13B</text></g><g id="c04" class="GeneProduct" transform="translate(849.21 746.67)"  name="CD59A" ><rect   width="58.24" height="20"/><text   transform="translate(29.12 10)"    >CD59A</text></g><g id="c27" class="GeneProduct " transform="translate(249.77 1039.8)"  name="SERPING1" ><rect   width="73.33" height="20"/><text   transform="translate(36.67 10)"    >SERPING1</text></g><g id="c42" class="GeneProduct " transform="translate(930,630)"  name="BDKRB1" ><rect   width="60" height="20"/><text   transform="translate(30,10)"    >BDKRB1</text></g><g id="cd5" class="GeneProduct " transform="translate(644,609)"  name="SERPINF2" ><rect   width="73.33" height="20"/><text   transform="translate(36.67 10)"    >SERPINF2</text></g><g id="ce1" class="GeneProduct " transform="translate(610 353.33)"  name="THBD" ><rect   width="60" height="20"/><text   transform="translate(30,10)"    >THBD</text></g><g id="ced" class="Metabolite" transform="translate(801,209)"  name="Fibrin monomer" ><rect   width="84" height="16" style="stroke:#00f"/><text   transform="translate(42,8)"     style="fill:#00f">Fibrin monomer</text></g><g id="d36" class="GeneProduct " transform="translate(583.33 853.33)"  name="Hc" ><rect   width="60" height="20"/><text   transform="translate(30,10)"    >Hc</text></g><g id="d3a" class="GeneProduct " transform="translate(533.67 730)"  name="CFI" ><rect   width="60" height="20"/><text   transform="translate(30,10)"    >CFI</text></g><g id="d46" class="Metabolite" transform="translate(818.17 632.67)"  name="Bradykinin" ><rect   width="66.33" height="16" style="stroke:#00f"/><text   transform="translate(33.17 8)"     style="fill:#00f">Bradykinin</text></g><g id="dc8" class="GeneProduct " transform="translate(634.33 431.67)"  name="SERPINE1" ><rect   width="73.33" height="20"/><text   transform="translate(36.67 10)"    >SERPINE1</text></g><g id="e31" class="GeneProduct " transform="translate(231,534)"  name="F12" ><rect   width="60" height="20"/><text   transform="translate(30,10)"    >F12</text></g><g id="e4c" class="GeneProduct " transform="translate(183.33 850)"  name="MBL1" ><rect   width="60" height="20"/><text   transform="translate(30,10)"    >MBL1</text></g><g id="e9c" class="GeneProduct " transform="translate(286.67 247)"  name="109821" ><rect   width="60" height="20"/><text   transform="translate(30,10)"    >109821</text></g><g id="ec4" class="GeneProduct " transform="translate(617.67 534)"  name="PLG" ><rect   width="60" height="20"/><text   transform="translate(30,10)"    >PLG</text></g><g id="ef655" class="GeneProduct" transform="translate(947,709)"  name="PrM/Cap" ><rect   width="80" height="20" style="stroke:#f03"/><text   transform="translate(40,10)"     style="fill:#ff0033">PrM/Cap</text></g><g id="f1b" class="GeneProduct " transform="translate(660,150)"  name="SERPIND1" ><rect   width="73.33" height="20"/><text   transform="translate(36.67 10)"    >SERPIND1</text></g><g id="f95" class="GeneProduct " transform="translate(813 158.67)"  name="CPB2" ><rect   width="60" height="20"/><text   transform="translate(30,10)"    >CPB2</text></g><g id="fe7" class="GeneProduct " transform="translate(384.67 630)"  name="KNG1" ><rect   width="60" height="20"/><text   transform="translate(30,10)"    >KNG1</text></g><g id="a4770" class="GroupNone" transform="translate(684 457.67)"  ><g class="GroupNone"><rect   width="78" height="61.33" fill-opacity=".1" stroke-dasharray="5,3" style="fill:#b4b464;stroke:grey"/><g id="a2d" class="GeneProduct " transform="translate(9,9)"  name="PLAT" ><rect   width="60" height="20"/><text   transform="translate(30,10)"    >PLAT</text></g><g id="cc7" class="GeneProduct " transform="translate(9 32.33)"  name="PLAU" ><rect   width="60" height="20"/><text   transform="translate(30,10)"    >PLAU</text></g></g></g><g id="b8a38" class="GroupNone" transform="translate(504.33 201)"  ><g class="GroupNone"><rect   width="78" height="58" fill-opacity=".1" stroke-dasharray="5,3" style="fill:#b4b464;stroke:grey"/><g id="bd0" class="GeneProduct " transform="translate(9,9)"  name="F10" ><rect   width="60" height="20"/><text   transform="translate(30,10)"    >F10</text></g><g id="c66" class="GeneProduct " transform="translate(9,29)"  name="F5" ><rect   width="60" height="20"/><text   transform="translate(30,10)"    >F5</text></g></g></g><g id="c182d" class="GroupNone" transform="translate(384.33 241)"  ><g class="GroupNone"><rect   width="138" height="58" fill-opacity=".1" stroke-dasharray="5,3" style="fill:#b4b464;stroke:grey"/><g id="a9d" class="GeneProduct " transform="translate(9,29)"  name="F8" ><rect   width="60" height="20"/><text   transform="translate(30,10)"    >F8</text></g><g id="abe" class="GeneProduct " transform="translate(9,9)"  name="F9" ><rect   width="60" height="20"/><text   transform="translate(30,10)"    >F9</text></g><g id="c86" class="GeneProduct " transform="translate(69,29)"  name="VWF" ><rect   width="60" height="20"/><text   transform="translate(30,10)"    >VWF</text></g></g></g><g id="d17eb" class="GroupNone" transform="translate(327.67 357.67)"  ><g class="GroupNone"><rect   width="91.33" height="108" fill-opacity=".1" stroke-dasharray="5,3" style="fill:#b4b464;stroke:grey"/><g id="aae" class="GeneProduct " transform="translate(9 32.33)"  name="SERPINA5" ><rect   width="73.33" height="20"/><text   transform="translate(36.67 10)"    >SERPINA5</text></g><g id="aff" class="GeneProduct " transform="translate(9,79)"  name="SERPINA1" ><rect   width="73.33" height="20"/><text   transform="translate(36.67 10)"    >SERPINA1</text></g><g id="b73" class="GeneProduct " transform="translate(12.33 55.67)"  name="A2M" ><rect   width="66.67" height="20"/><text   transform="translate(33.33 10)"    >A2M</text></g><g id="e8d" class="GeneProduct " transform="translate(9,9)"  name="SERPINC1" ><rect   width="73.33" height="20"/><text   transform="translate(36.67 10)"    >SERPINC1</text></g></g></g><g id="d33ff" class="GroupComplex" transform="translate(804.67 1008)"  ><g class="GroupComplex"><use class="Icon" width="84" height="67.33" fill="#b4b464" fill-opacity=".1" stroke="grey" href="#Octagon"/><g id="bdf" class="GeneProduct " transform="translate(12,12)"  name="CR2" ><rect   width="60" height="20"/><text   transform="translate(30,10)"    >CR2</text></g><g id="ffa" class="GeneProduct " transform="translate(12 35.33)"  name="CR1" ><rect   width="60" height="20"/><text   transform="translate(30,10)"    >CR1</text></g></g></g><g id="d65b9" class="GroupComplex" transform="translate(222.81 894.82)"  ><g class="GroupComplex"><use class="Icon" width="144.00" height="84" fill="#b4b464" fill-opacity=".1" stroke="grey" href="#Octagon"/><g id="c35" class="GeneProduct " transform="translate(72 45.33)"  name="C1S" ><rect   width="60" height="20"/><text   transform="translate(30,10)"    >C1S</text></g><g id="c3b" class="GeneProduct " transform="translate(12,52)"  name="C1QG" ><rect   width="60" height="20"/><text   transform="translate(30,10)"    >C1QG</text></g><g id="d99" class="GeneProduct " transform="translate(72 25.33)"  name="C1R" ><rect   width="60" height="20"/><text   transform="translate(30,10)"    >C1R</text></g><g id="dc7" class="GeneProduct " transform="translate(12,32)"  name="C1QB" ><rect   width="60" height="20"/><text   transform="translate(30,10)"    >C1QB</text></g><g id="dfd" class="GeneProduct " transform="translate(12,12)"  name="C1QA" ><rect   width="60" height="20"/><text   transform="translate(30,10)"    >C1QA</text></g></g></g><g id="dda04" class="GroupComplex" transform="translate(804.67 938)"  ><g class="GroupComplex"><use class="Icon" width="84" height="67.33" fill="#b4b464" fill-opacity=".1" stroke="grey" href="#Octagon"/><g id="b64" class="GeneProduct " transform="translate(12 35.33)"  name="C5R1" ><rect   width="60" height="20"/><text   transform="translate(30,10)"    >C5R1</text></g><g id="cd8" class="GeneProduct " transform="translate(12,12)"  name="C3AR1" ><rect   width="60" height="20"/><text   transform="translate(30,10)"    >C3AR1</text></g></g></g><g id="dfbcd" class="GroupNone" transform="translate(383.33 142.33)"  ><g class="GroupNone"><rect   width="78" height="58" fill-opacity=".1" stroke-dasharray="5,3" style="fill:#b4b464;stroke:grey"/><g id="bd9" class="GeneProduct " transform="translate(9,29)"  name="F7" ><rect   width="60" height="20"/><text   transform="translate(30,10)"    >F7</text></g><g id="bf4" class="GeneProduct " transform="translate(9,9)"  name="F3" ><rect   width="60" height="20"/><text   transform="translate(30,10)"    >F3</text></g></g></g><g id="e2298" class="GroupNone" transform="translate(287.67 731)"  ><g class="GroupNone"><rect   width="78" height="58" fill-opacity=".1" stroke-dasharray="5,3" style="fill:#b4b464;stroke:grey"/><g id="f1e" class="GeneProduct " transform="translate(9,29)"  name="C3" ><rect   width="60" height="20"/><text   transform="translate(30,10)"    >C3</text></g><g id="f8b" class="GeneProduct " transform="translate(9,9)"  name="H2-BF" ><rect   width="60" height="20"/><text   transform="translate(30,10)"    >H2-BF</text></g></g></g><g id="e7549" class="GroupNone" transform="translate(644.33 804.33)"  ><g class="GroupNone"><rect   width="314.67" height="38" fill-opacity=".1" stroke-dasharray="5,3" style="fill:#b4b464;stroke:grey"/><g id="c47" class="GeneProduct " transform="translate(89,9)"  name="C7" ><rect   width="60" height="20"/><text   transform="translate(30,10)"    >C7</text></g><g id="dd4" class="GeneProduct " transform="translate(9,9)"  name="C6" ><rect   width="60" height="20"/><text   transform="translate(30,10)"    >C6</text></g><g id="e1d" class="GeneProduct " transform="translate(165.67 9)"  name="C8G" ><rect   width="60" height="20"/><text   transform="translate(30,10)"    >C8G</text></g><g id="e50" class="GeneProduct " transform="translate(245.67 9)"  name="C9" ><rect   width="60" height="20"/><text   transform="translate(30,10)"    >C9</text></g></g></g><g id="e8468" class="GroupNone" transform="translate(388.71 877.67)"  ><g class="GroupNone"><rect   width="78" height="56.95" fill-opacity=".1" stroke-dasharray="5,3" style="fill:#b4b464;stroke:grey"/><g id="a0d" class="GeneProduct " transform="translate(9,9)"  name="C2" ><rect   width="60" height="20"/><text   transform="translate(30,10)"    >C2</text></g><g id="fb9" class="GeneProduct " transform="translate(9 27.95)"  name="C4" ><rect   width="60" height="20"/><text   transform="translate(30,10)"    >C4</text></g></g></g><g id="f01b1" class="GroupNone" transform="translate(267.67 831)"  ><g class="GroupNone"><rect   width="78" height="58" fill-opacity=".1" stroke-dasharray="5,3" style="fill:#b4b464;stroke:grey"/><g id="b5e" class="GeneProduct " transform="translate(9,29)"  name="MASP2" ><rect   width="60" height="20"/><text   transform="translate(30,10)"    >MASP2</text></g><g id="f8f" class="GeneProduct " transform="translate(9,9)"  name="MASP1" ><rect   width="60" height="20"/><text   transform="translate(30,10)"    >MASP1</text></g></g></g><g id="fb500" class="GroupNone" transform="translate(601,671)"  ><g class="GroupNone"><rect   width="78" height="104.67" fill-opacity=".1" stroke-dasharray="5,3" style="fill:#b4b464;stroke:grey"/><g id="b10" class="GeneProduct" transform="translate(9,9)"  name="CRRY" ><rect   width="60" height="20"/><text   transform="translate(30,10)"    >CRRY</text></g><g id="ba3" class="GeneProduct " transform="translate(9 75.67)"  name="MCP" ><rect   width="60" height="20"/><text   transform="translate(30,10)"    >MCP</text></g><g id="d90" class="GeneProduct" transform="translate(9 52.33)"  name="Daf2" ><rect   width="60" height="20"/><text   transform="translate(30,10)"    >Daf2</text></g><g id="da8" class="GeneProduct " transform="translate(9 30.54)"  name="Daf1" ><rect   width="60" height="20"/><text   transform="translate(30,10)"    >Daf1</text></g></g></g><g id="fd6b8" class="GroupNone" transform="translate(504.33 412.33)"  ><g class="GroupNone"><rect   width="78" height="58" fill-opacity=".1" stroke-dasharray="5,3" style="fill:#b4b464;stroke:grey"/><g id="da2" class="GeneProduct " transform="translate(9,9)"  name="PROC" ><rect   width="60" height="20"/><text   transform="translate(30,10)"    >PROC</text></g><g id="daf" class="GeneProduct " transform="translate(9,29)"  name="PROS1" ><rect   width="60" height="20"/><text   transform="translate(30,10)"    >PROS1</text></g></g></g></g></g></g></svg>