<?xml version="1.0" encoding="UTF-8"?>
<svg xmlns="http://www.w3.org/2000/svg" id="-svg" class="Diagram"  baseProfile="full" prefix="schema:http://schema.org/" preserveAspectRatio="xMidYMid"  version="1.1"><defs><g id="filter-defs"><filter id="doublefalse3filter" x="-50%" y="-50%" width="200%" height="200%"><feComposite in="SourceGraphic" in2="SourceGraphic" result="doubleDark"/><feMorphology in="doubleDark" operator="dilate" radius="0.17" result="in2Double"/><feMorphology in="SourceGraphic" operator="dilate" radius="3" result="inDouble"/><feComposite in="inDouble" in2="in2Double" operator="out" result="doubleResult"/></filter></g><g id="icon-defs"><symbol id="Ellipse" class=" Icon Ellipse" x="0" y="0" overflow="visible" preserveAspectRatio="none" viewBox="0 0 50 50"><desc>Ellipse</desc><ellipse cx="25" cy="25" rx="25" ry="25" vector-effect="non-scaling-stroke"/></symbol><symbol id="Octagon" class=" Icon Octagon" x="0" y="0" overflow="visible" preserveAspectRatio="none" viewBox="0 0 100 100"><desc>Octagon</desc><path d="m0 25 25-25h50l25 25v50l-25 25h-50l-25-25z" vector-effect="non-scaling-stroke"/></symbol></g><g id="marker-defs"><marker id="mea" markerHeight="12" markerWidth="12" orient="auto" preserveAspectRatio="none" refX="12" refY="6" viewBox="0 0 12 12"><g id="g-mea" transform=""><g transform="rotate(180 6 6)"><rect y="5.4" width="2" height="1.2" style="stroke:#fff"/><polygon points="12 11 0 6 12 1" stroke-width="0"/></g></g></marker><marker id="memtranscriptiontranslation000" markerHeight="24" markerWidth="20" orient="auto" preserveAspectRatio="none" refX="20" refY="12" viewBox="0 0 20 24"><g id="g-memtranscriptiontranslation000" transform=""><g transform="rotate(180 10 12)"><rect y="11" width="12" height="2" style="stroke:#fff"/><line x1="15" x2="15" y1="12" y2="5" fill="none" stroke="#000"/><line x1="15.5" x2="8" y1="5" y2="5" fill="none" stroke="#000"/><polygon points="0 5 8 1 8 9" fill="#fff" stroke="#000"/></g></g></marker><marker id="meaf00" markerHeight="12" markerWidth="12" orient="auto" preserveAspectRatio="none" refX="12" refY="6" viewBox="0 0 12 12"><g id="g-meaf00" transform=""><g transform="rotate(180 6 6)"><rect y="5.4" width="2" height="1.2" style="stroke:#fff"/><polygon points="12 11 0 6 12 1" fill="#f00" stroke-width="0"/></g></g></marker><marker id="memtranscriptiontranslationff0000white" markerHeight="24" markerWidth="20" orient="auto" preserveAspectRatio="none" refX="20" refY="12" viewBox="0 0 20 24"><g id="g-memtranscriptiontranslationff0000white" transform=""><g transform="rotate(180 10 12)"><rect y="11" width="12" height="2" style="stroke:#fff"/><line x1="15" x2="15" y1="12" y2="5" fill="none" stroke="#f00"/><line x1="15.5" x2="8" y1="5" y2="5" fill="none" stroke="#f00"/><polygon points="0 5 8 1 8 9" fill="#fff" stroke="#f00"/></g></g></marker><marker id="meminhibitionff0000white" markerHeight="20" markerWidth="10" orient="auto" preserveAspectRatio="none" refX="10" refY="10" viewBox="0 0 10 20"><g id="g-meminhibitionff0000white" transform=""><g transform="rotate(180 5 10)"><rect y="9" width="8" height="2" style="stroke:none"/><line x="0" y="0" width="12" height="12" x1="7" x2="7" y2="20" stroke="#f00" stroke-width="1.8"/></g></g></marker></g></defs><g id="viewport-20220102142446745" class="svg-pan-zoom_viewport" transform="matrix(0.96 0 0 0.96 54.93 0)" style="transform:matrix(0.96, 0, 0, 0.96, 54.93, 0)"><style>svg.Diagram {font-family: 'Liberation Sans', Arial, sans-serif; }.Diagram path {fill: transparent;stroke: #000;marker-end: url(#mea);}.Diagram symbol path {fill: inherit;stroke: inherit;stroke-width: inherit;marker-end: inherit;}.Diagram rect {fill: #fff;stroke: #000;}.Diagram text {dominant-baseline: central;overflow: hidden;text-anchor: middle;fill: #000;font-size: 10px;}</style><style type="text/css">.Viewport .textContent {
  pointer-events: none;
  stroke-width: 0px;
}

					.Viewport.Icon {
  fill: white;
}

/* Hide the InfoBox */
.Viewport.textContent {
  font-size: 0;
}

.textContent {
  stroke: none;
}

.DataNode {
  stroke-miterlimit: 1;
  pointer-events: auto;
}

.DataNode:hover {
  cursor: pointer;
}

/* TODO should this apply to things other than DataNodes? */
.DataNode.textContent {
  pointer-events: none;
}

.DataNode.Highlighted {
  opacity: 0.6;
  stroke-width: 0px;
}

marker {
  /* this is what should work per the spec
  stroke-dasharray: none; */
  /* but I need to add this to make it work in Safari */
  stroke-dasharray: 9999999999999999999999999;
}

.Citation.Icon {
  fill: none;
  stroke-width: 0px;
}

.Citation.textContent {
  text-align: center;
  vertical-align: top;
  font-size: 7px;
  fill: #999;
  fill-opacity: 1;
  stroke: none;
}</style><g id="WP3851" class="Pathway http___identifiers_org_pw_PW_0000178 http___identifiers_org_pw_PW_0000004 Viewport"  name="Name: TLR4 signaling and tolerance Organism: Homo sapiens" ><g class="Pathway http___identifiers_org_pw_PW_0000178 http___identifiers_org_pw_PW_0000004 Viewport"><rect   width="1139" height="746" style="stroke:none"/><g id="id13e3c0be" class="Edge"  ><path    d="m311 519v88"/></g><g id="idf537954b" class="Edge"  ><path    d="m736 40h95" style="stroke:#f00;marker-end:url(#meaf00)"/></g><g id="id4315cdaa" class="Edge"  ><path    d="m692 236-73 88"/></g><g id="idf3cb0063" class="Edge"  ><path    d="m692 461v142" style="stroke:#f00;marker-end:url(#meaf00)"/></g><g id="idfa77519d" class="Edge"  ><path    d="m672 226-101 53"/></g><g id="id67e4ef44" class="Edge"  ><path    d="m296 427 15 40"/></g><g id="id9ff93af7" class="Edge"  ><path    d="m426 501.5v20.83c0 20.83 0 62.5-10.17 83.33-10.17 20.83-30.5 20.83-40.67 20.83l-10.17 1e-13"/></g><g id="idca6b2525" class="Edge"  ><path    d="m434 238 57 41"/></g><g id="idbaa4d358" class="Edge"  ><path    d="m712 236 45 34" style="stroke:#f00;marker-end:url(#meaf00)"/></g><g id="idf977b18d" class="Edge"  ><path    d="m757 353-65 88" style="stroke:#f00;marker-end:url(#meaf00)"/></g><g id="id841e7a0b" class="Edge"  ><path    d="m145 286v-48h185" style="stroke:#f00;marker-end:url(#meminhibitionff0000white)"/></g><g id="ida2dd3341" class="Edge"  ><path    d="M259.25,599L145,342" style="stroke:#f00;marker-end:url(#memtranscriptiontranslationff0000white)"/></g><g id="idc6d90fb6" class="Edge"  ><path    d="m608 147 104 69" style="stroke:#f00;marker-end:url(#meaf00)"/></g><g id="idd451da8f" class="Edge"  ><path    d="m510 147-128 49"/></g><g id="f411c" class="GroupGroup" transform="translate(624,595)"  ><g class="GroupGroup"><g id="id5a3f92c9" class="Edge"  ><path    d="m52 33h80" stroke-width="2" style="marker-end:none"/></g><g id="c9424" class="Label" transform="translate(8,27)"  name="DNA" ><g class="Label"/><text   transform="translate(24,10)"    font-weight="bold"  style="font-size:12px">DNA</text></g><g id="d20a5" class="GeneProduct " transform="translate(44,8)"  name="IRF3" ><rect   width="48" height="20"/><text   transform="translate(24,10)"    >IRF3</text></g><g id="e75b3" class="Edge"  ><path    d="m53 42h80" stroke-width="2" style="marker-end:none"/></g><g id="fb440" class="GeneProduct " transform="translate(100.5,8)"  name="IRF7" ><rect   width="49" height="20"/><text   transform="translate(24.5,10)"    >IRF7</text></g></g></g><g id="id246d5a8f" class="Edge"  ><path    d="m781.5 622.5 128.96-0.15" style="stroke:#f00;marker-end:url(#memtranscriptiontranslationff0000white)"/></g><g id="id73296997" class="Edge"  ><path    d="m224 626.5h-20v-78.5h-53.5" style="marker-end:url(#memtranscriptiontranslation000)"/></g><g id="id1683352c" class="Edge"  ><path    d="m374 342-26 22"/></g><g id="id4b125990" class="Edge"  ><path    d="m426 384v92.5"/></g><g id="idfad388c" class="Edge"  ><path    d="m511 289-33 32"/></g><g id="d36f5" class=" PhysicalEntity CellularComponent Nucleus" transform="translate(132.5,548.5)"  ><g class=" PhysicalEntity CellularComponent Nucleus" filter="url(#doublefalse3filter)"><g class=" PhysicalEntity CellularComponent Nucleus"><use class=" PhysicalEntity CellularComponent Nucleus Node Icon" transform="matrix(0.98 0 0 0.93 5.90 5.56)" width="745" height="152" fill="transparent" stroke="#c0c0c0" stroke-width="3" href="#Ellipse"/></g></g></g><g id="da6a5" class=" PhysicalEntity CellularComponent Cell" transform="translate(50.5,86.5)"  ><g class=" PhysicalEntity CellularComponent Cell" filter="url(#doublefalse3filter)"><g class=" PhysicalEntity CellularComponent Cell"><rect   transform="matrix(0.99 0 0 0.98 5.92 5.89)" width="930" height="631" rx="15" ry="15" stroke-width="3" style="fill:transparent;stroke:#c0c0c0"/></g></g></g><g id="ece6e" class="" transform="translate(730,2)"  ><g class=""><rect   width="379" height="62" style="fill:transparent"/></g></g><g id="a6722" class="Label" transform="translate(452,555)"  name="Nucleus" ><g class="Label"/><text   transform="translate(40,10)"    font-weight="bold"  style="font-size:12px">Nucleus</text></g><g id="b263d" class="Label" transform="translate(846,29)"  name="Enhanced signaling upon subsequent TLR4 activation" ><g class="Label"/><text   transform="translate(126,10)"    font-weight="bold" >Enhanced signaling upon subsequent TLR4 activation</text></g><g id="b474f" class="Label" transform="translate(278,652)"  name="MyD88 Dependent" ><g class="Label"/><text   transform="translate(63,10)"    font-weight="bold"  style="font-size:12px">MyD88 Dependent</text></g><g id="e32e8" class="Label" transform="translate(603,653)"  name="MyD88 independent" ><g class="Label"/><text   transform="translate(68,10)"    font-weight="bold"  style="font-size:12px">MyD88 independent</text></g><g id="f1d3f" class="Label" transform="translate(381,476.5)"  name="MAP Kinases" ><g class="Label"/><text   transform="translate(45,12.5)"    font-weight="bold"  style="font-size:12px">MAP Kinases</text></g><g id="a61ef" class="GeneProduct " transform="translate(667.5,441)"  name="IRF3" ><rect   width="49" height="20"/><text   transform="translate(24.5,10)"    >IRF3</text></g><g id="b03d0" class="GeneProduct " transform="translate(491,269)"  name="TRAF6" ><rect   width="80" height="20"/><text   transform="translate(40,10)"    >TRAF6</text></g><g id="b39af" class="GeneProduct" transform="translate(672,216)"  name="TRIF" ><rect   width="80" height="20"/><text   transform="translate(40,10)"    >TRIF</text></g><g id="d39f4" class="GeneProduct" transform="translate(539,314)"  name="RIP1" ><rect   width="80" height="20"/><text   transform="translate(40,10)"    >RIP1</text></g><g id="db475" class="GeneProduct " transform="translate(910.46 612.85)"  name="IFNB" ><rect   width="49" height="19"/><text   transform="translate(24.5,9.5)"    >IFNB</text></g><g id="a80ab" class="GroupComplex" transform="translate(244,343)"  ><g class="GroupComplex"><use class="Icon" width="104" height="84" fill="#b4b464" fill-opacity=".1" stroke="grey" href="#Octagon"/><g id="b2df5" class="GeneProduct" transform="translate(12,32)"  name="IKKa" ><rect   width="80" height="20"/><text   transform="translate(40,10)"    >IKKa</text></g><g id="bfbbd" class="GeneProduct" transform="translate(12,52)"  name="IKKb" ><rect   width="80" height="20"/><text   transform="translate(40,10)"    >IKKb</text></g><g id="f7438" class="GeneProduct" transform="translate(12,12)"  name="NEMO" ><rect   width="80" height="20"/><text   transform="translate(40,10)"    >NEMO</text></g></g></g><g id="ab818" class="GroupComplex" transform="translate(259,467)"  ><g class="GroupComplex"><use class="Icon" width="104" height="64" fill="#b4b464" fill-opacity=".1" stroke="grey" href="#Octagon"/><g id="c3663" class="GeneProduct " transform="translate(12,32)"  name="NFKB" ><rect   width="80" height="20"/><text   transform="translate(40,10)"    >NFKB</text></g><g id="ffc05" class="GeneProduct" transform="translate(12,12)"  name="IkBa" ><rect   width="80" height="20"/><text   transform="translate(40,10)"    >IkBa</text></g></g></g><g id="ce36d" class="GroupComplex" transform="translate(330,196)"  ><g class="GroupComplex"><use class="Icon" width="104" height="84" fill="#b4b464" fill-opacity=".1" stroke="grey" href="#Octagon"/><g id="a6a9d" class="GeneProduct " transform="translate(12,32)"  name="IRAK1" ><rect   width="80" height="20"/><text   transform="translate(40,10)"    >IRAK1</text></g><g id="bf608" class="GeneProduct " transform="translate(12,12)"  name="MYD88" ><rect   width="80" height="20"/><text   transform="translate(40,10)"    >MYD88</text></g><g id="fbfe5" class="GeneProduct " transform="translate(12,52)"  name="IRAK4" ><rect   width="80" height="20"/><text   transform="translate(40,10)"    >IRAK4</text></g></g></g><g id="db385" class="GroupComplex" transform="translate(665,270)"  ><g class="GroupComplex"><use class="Icon" width="184" height="83" fill="#b4b464" fill-opacity=".1" stroke="grey" href="#Octagon"/><g id="a0b06" class="GeneProduct" transform="translate(12,32)"  name="Ikki" ><rect   width="80" height="20"/><text   transform="translate(40,10)"    >Ikki</text></g><g id="c15d0" class="GeneProduct " transform="translate(52,51)"  name="TRAF3" ><rect   width="80" height="20"/><text   transform="translate(40,10)"    >TRAF3</text></g><g id="c450b" class="GeneProduct " transform="translate(92,32)"  name="TBK1" ><rect   width="80" height="20"/><text   transform="translate(40,10)"    >TBK1</text></g><g id="c994a" class="GeneProduct" transform="translate(51,12)"  name="NAP1" ><rect   width="80" height="20"/><text   transform="translate(40,10)"    >NAP1</text></g></g></g><g id="e1284" class="GroupGroup" transform="translate(97,286)"  ><g class="GroupGroup"><g id="aff65" class="GeneProduct" transform="translate(8,28)"  name="IRAK-M" ><rect   width="80" height="20"/><text   transform="translate(40,10)"    >IRAK-M</text></g><g id="fb80d" class="GeneProduct" transform="translate(8,8)"  name="SHIP1" ><rect   width="80" height="20"/><text   transform="translate(40,10)"    >SHIP1</text></g></g></g><g id="e3bf1" class="GroupComplex" transform="translate(461,62)"  ><g class="GroupComplex"><use class="Icon" width="196" height="85" fill="#b4b464" fill-opacity=".1" stroke="grey" href="#Octagon"/><g id="a4368" class="GeneProduct " transform="translate(12,33)"  name="TIRAP" ><rect   width="80" height="20"/><text   transform="translate(40,10)"    >TIRAP</text></g><g id="abfb9" class="GeneProduct" transform="translate(12,53)"  name="MAL" ><rect   width="80" height="20"/><text   transform="translate(40,10)"    >MAL</text></g><g id="ea0a5" class="GeneProduct " transform="translate(104,33)"  name="TRAM" ><rect   width="80" height="20"/><text   transform="translate(40,10)"    >TRAM</text></g><g id="f4c59" class="GeneProduct " transform="translate(55,12)"  name="TLR4" ><rect   width="80" height="20"/><text   transform="translate(40,10)"    >TLR4</text></g></g></g><g id="fd682" class="GroupGroup" transform="translate(87,520)"  ><g class="GroupGroup"><g id="a30a7" class="GeneProduct" transform="translate(8,8)"  name="TNFa" ><rect   width="47" height="20"/><text   transform="translate(23.5,10)"    >TNFa</text></g><g id="fb0b1" class="GeneProduct " transform="translate(8.5,28)"  name="IL6" ><rect   width="47" height="20"/><text   transform="translate(23.5,10)"    >IL6</text></g></g></g><g id="fe415" class="GroupComplex" transform="translate(374,300)"  ><g class="GroupComplex"><use class="Icon" width="104" height="84" fill="#b4b464" fill-opacity=".1" stroke="grey" href="#Octagon"/><g id="b4cdb" class="GeneProduct" transform="translate(12,12)"  name="TAK1" ><rect   width="80" height="20"/><text   transform="translate(40,10)"    >TAK1</text></g><g id="e9204" class="GeneProduct " transform="translate(12,52)"  name="TAB2" ><rect   width="80" height="20"/><text   transform="translate(40,10)"    >TAB2</text></g><g id="f7627" class="GeneProduct " transform="translate(12,32)"  name="TAB1" ><rect   width="80" height="20"/><text   transform="translate(40,10)"    >TAB1</text></g></g></g><g id="bccef" class="GroupGroup" transform="translate(224,599)"  ><g class="GroupGroup"><g id="c6225" class="GeneProduct " transform="translate(60,8)"  name="NFKB" ><rect   width="54" height="20"/><text   transform="translate(27,10)"    >NFKB</text></g><g id="c7611" class="Edge"  ><path    d="m52 33h80" stroke-width="2" style="marker-end:none"/></g><g id="d47a3" class="Label" transform="translate(8,27)"  name="DNA" ><g class="Label"/><text   transform="translate(24,10)"    font-weight="bold"  style="font-size:12px">DNA</text></g><g id="b3761" class="Edge"  ><path    d="m53 42h80" stroke-width="2" style="marker-end:none"/></g></g></g><g id="f47be" class="Label" transform="translate(725,4)"  name="Legend" ><g class="Label"/><text   transform="translate(36.5,10)"    font-weight="bold" >Legend</text></g><g id="f71c5" class="GeneProduct " transform="translate(724.5,440)"  name="IRF7" ><rect   width="49" height="20"/><text   transform="translate(24.5,10)"    >IRF7</text></g><g id="af8f3" class="Edge"  ><path    d="m757 353-8 87"/></g><g id="ac4e5" class="Edge"  ><path    d="m749 460v143"/></g></g></g></g></svg>