<?xml version="1.0" encoding="UTF-8"?>
<!--
  WikiPathways page: https://www.wikipathways.org/index.php/Pathway:WP3937
  URL for this compressed file: https://github.com/eweitz/cachome/tree/main/data/WP3937.svg
  Source code for compression: https://github.com/eweitz/cachome/tree/main/src/wikipathways.py
-->
<svg id="wp3937-svg" class="Diagram" width="800" height="600" color="black" baseProfile="full" prefix="schema:http://schema.org/" preserveAspectRatio="xMidYMid" version="1.1" viewBox="0 0 1112 665" vocab="http://vocabularies.wikipathways.org/wp#" xmlns="http://www.w3.org/2000/svg" xmlns:xlink="http://www.w3.org/1999/xlink"><style>svg {font-family: 'Liberation Sans', Arial, sans-serif; }</style><defs><g id="jit-defs"><filter id="kaavioblackto000000filter" x="0" y="0" width="1112" height="665" filterUnits="userSpaceOnUse"><feColorMatrix in="SourceGraphic" values="-1   0   0 0 0                   0  -1   0 0 0                   0   0  -1 0 0                   0   0   0 1 0"/></filter></g><g id="jic-defs"><marker id="markerEndArrow" stroke-dasharray="99999" markerHeight="12" markerUnits="userSpaceOnUse" markerWidth="12" orient="auto" preserveAspectRatio="none" refX="12" refY="6" viewBox="0 0 12 12"><path transform="rotate(180 6 6)" d="M12 11L0 6l12-5z" fill="currentColor" stroke-width="0"/></marker><marker id="markerEndMimConversion" stroke-dasharray="99999" markerHeight="12" markerUnits="userSpaceOnUse" markerWidth="12" orient="auto" preserveAspectRatio="none" refX="12" refY="6" viewBox="0 0 12 12"><path transform="rotate(180 6 6)" d="M12 11L0 6l12-5z" fill="currentColor" stroke-width="0"/></marker><marker id="markerEndMimInhibition" stroke-dasharray="99999" markerHeight="20" markerUnits="userSpaceOnUse" markerWidth="10" orient="auto" preserveAspectRatio="none" refX="10" refY="10" viewBox="0 0 10 20"><path d="m3 0v20" fill="currentColor" stroke="currentColor"/></marker><marker id="markerEndMimStimulation" stroke-dasharray="99999" markerHeight="12" markerUnits="userSpaceOnUse" markerWidth="12" orient="auto" preserveAspectRatio="none" refX="12" refY="6" viewBox="0 0 12 12"><g transform="rotate(180 6 6)" fill="none"><path d="m12 6"/><path d="M0 6l11 5V1z" stroke="#000"/></g></marker><marker id="markerEndTBar" stroke-dasharray="99999" markerHeight="20" markerUnits="userSpaceOnUse" markerWidth="10" orient="auto" preserveAspectRatio="none" refX="10" refY="10" viewBox="0 0 10 20"><path d="m3 0v20" fill="currentColor" stroke="currentColor"/></marker><symbol id="Ellipse" overflow="visible" preserveAspectRatio="none" viewBox="0 0 50 50"><ellipse cx="25" cy="25" rx="25" ry="25" stroke="currentColor" vector-effect="non-scaling-stroke"/></symbol><symbol id="none" preserveAspectRatio="none" viewBox="0 0 100 100"/></g></defs><g id="WP3937" class="Viewport" color="black"  name="Name: Microglia pathogen phagocytosis pathway Organism: Homo sapiens"><rect id="WP3937-icon" class="Icon" width="1112" height="665" fill="#fff" stroke="#000" stroke-width="0"/><g id="id1d9e35a2" class="DirectedInteraction" color="#000" ><g color="#000" fill="transparent"  filter="url(#kaavioblackto000000filter)" stroke="#000" stroke-dasharray="75.7, 5.8"><path id="id1d9e35a2" class="EdgeBody" d="m655.5 463v81.5"   marker-end="url(#markerEndArrow)" /></g></g><g id="id20b80b6b" class="DirectedInteraction" color="#000" ><g color="#000" fill="transparent"  filter="url(#kaavioblackto000000filter)" stroke="#000" stroke-dasharray="225.7, 5.8"><path id="id20b80b6b" class="EdgeBody" d="m531 315h162.5v-69"   marker-end="url(#markerEndArrow)" /></g></g><g id="id6af15735" class="DirectedInteraction" color="#000" ><g color="#000" fill="transparent"  filter="url(#kaavioblackto000000filter)" stroke="#000" stroke-dasharray="5.38, 3.23, 5.38, 3.23, 5.38, 3.23, 5.38, 3.23, 5.38, 3.23, 5.38, 3.23, 5.38, 3.23, 0, 5.8"><path id="id6af15735" class="EdgeBody" d="m350 118 57-26.5"   marker-end="url(#markerEndArrow)" /></g></g><g id="id8a1a51a1" class="DirectedInteraction" color="#000" ><g color="#000" fill="transparent"  filter="url(#kaavioblackto000000filter)" stroke="#000" stroke-dasharray="203.2, 5.8"><path id="id8a1a51a1" class="EdgeBody" d="m594 407h20v87h102"   marker-end="url(#markerEndArrow)" /></g></g><g id="id94c26f07" class="DirectedInteraction" color="#000" ><g color="#000" fill="transparent"  filter="url(#kaavioblackto000000filter)" stroke="#000" stroke-dasharray="74.7, 5.8"><path id="id94c26f07" class="EdgeBody" d="m671 235h-49.5v-31"   marker-end="url(#markerEndArrow)" /></g></g><g id="idaaeb77a4" class="Interaction" color="#000" ><g color="#000" fill="transparent"  filter="url(#kaavioblackto000000filter)" stroke="#000" stroke-dasharray="31.2, 5.8"><path id="idaaeb77a4" class="EdgeBody" d="m642 194h37"   marker-end="url(#markerEndMimConversion)" /></g><g id="c48fc" class="Burr Anchor" transform="translate(657,194)" ><use id="c48fc-icon" class="Icon" width="0" height="0" fill="#141414" stroke-width="0" xlink:href="#none"/></g><g id="caec7" class="Burr Anchor" transform="translate(656.8,194)" ><use id="caec7-icon" class="Icon" width="0" height="0" fill="#141414" stroke-width="0" xlink:href="#none"/></g></g><g id="id7cbece71" class="Interaction" color="#000" ><g color="#000" fill="transparent"  filter="url(#kaavioblackto000000filter)" stroke="#000" stroke-dasharray="207.48945054624488, 11"><path id="id7cbece71" class="EdgeBody" d="m576 397 80.8-203"   marker-end="url(#markerEndMimStimulation)" /></g><g id="ced31" class="Burr Anchor" transform="translate(597.14 343.89)" ><use id="ced31-icon" class="Icon" width="0" height="0" fill="#141414" stroke-width="0" xlink:href="#none"/></g></g><g id="idacd3bc6e" class="DirectedInteraction" color="#000" ><g color="#000" fill="transparent"  filter="url(#kaavioblackto000000filter)" stroke="#000" stroke-dasharray="44.2, 5.8"><path id="idacd3bc6e" class="EdgeBody" d="m633 555.5h-50"   marker-end="url(#markerEndArrow)" /></g></g><g id="idc05a1160" class="Inhibition" color="#000" ><g color="#000" fill="transparent"  filter="url(#kaavioblackto000000filter)" stroke="#000" stroke-dasharray="5.1, 3.06, 5.1, 3.06, 5.1, 3.06, 5.1, 3.06, 5.1, 3.06, 5.1, 3.06, 5.1, 3.06, 5.1, 3.06, 5.1, 3.06, 5.1, 3.06, 5.1, 3.06, 5.1, 3.06, 5.1, 3.06, 5.1, 3.06, 5.1, 3.06, 5.1, 3.06, 5.1, 3.06, 5.1, 3.06, 5.1, 3.06, 5.1, 3.06, 5.1, 3.06, 5.1, 3.06, 5.1, 3.06, 5.1, 3.06, 5.1, 3.06, 5.1, 3.06, 5.1, 3.06, 5.1, 3.06, 5.1, 3.06, 5.1, 3.06, 5.1, 3.06, 5.1, 3.06, 5.1, 3.06, 5.1, 3.06, 5.1, 3.06, 5.1, 3.06, 5.1, 3.06, 5.1, 7"><path id="idc05a1160" class="EdgeBody" d="m857 124-311-43"   marker-end="url(#markerEndTBar)" /></g></g><g id="idf0346ac1" class="DirectedInteraction" color="#000" ><g color="#000" fill="transparent"  filter="url(#kaavioblackto000000filter)" stroke="#000" stroke-dasharray="114.2, 5.8"><path id="idf0346ac1" class="EdgeBody" d="m520 325v82h38"   marker-end="url(#markerEndArrow)" /></g></g><g id="idfb396cc2" class="Interaction" color="#000" ><g color="#000" fill="transparent"  filter="url(#kaavioblackto000000filter)" stroke="#000" stroke-dasharray="5.07, 3.04, 5.07, 3.04, 5.07, 3.04, 5.07, 3.04, 5.07, 3.04, 5.07, 3.04, 5.07, 3.04, 5.07, 3.04, 5.07, 3.04, 5.07, 3.04, 5.07, 3.04, 5.07, 3.04, 5.07, 3.04, 5.07, 3.04, 5.07, 3.04, 5.07, 3.04, 5.07, 3.04, 5.07, 3.04, 5.07, 3.04, 5.07, 3.04, 0, 7"><path id="idfb396cc2" class="EdgeBody" d="m347 336h27c27 0 81 0 108-1.8333 27-1.8333 27-5.5 27-7.3333l6e-14 -1.8333"   marker-end="url(#markerEndMimInhibition)" /></g></g><g id="idcd2541a5" class="DirectedInteraction" color="#000" ><g color="#000" fill="transparent"  filter="url(#kaavioblackto000000filter)" stroke="#000" stroke-dasharray="114.7, 5.8"><path id="idcd2541a5" class="EdgeBody" d="m753.5 405v47h-73.5"   marker-end="url(#markerEndArrow)" /></g></g><g id="id796f91e3" class="DirectedInteraction" color="#000" ><g color="#000" fill="transparent"  filter="url(#kaavioblackto000000filter)" stroke="#000" stroke-dasharray="5.28, 3.17, 5.28, 3.17, 5.28, 3.17, 5.28, 3.17, 5.28, 3.17, 5.28, 5.8"><path id="id796f91e3" class="EdgeBody" d="m358 60 49 21"   marker-end="url(#markerEndArrow)" /></g></g><g id="idb9cce549" class="DirectedInteraction" color="#000" ><g color="#000" fill="transparent"  filter="url(#kaavioblackto000000filter)" stroke="#000" stroke-dasharray="63.45, 5.8"><path id="idb9cce549" class="EdgeBody" d="m388 268h52.25v-17"   marker-end="url(#markerEndArrow)" /></g></g><g id="id36f09836" class="DirectedInteraction" color="#000" ><g color="#000" fill="transparent"  filter="url(#kaavioblackto000000filter)" stroke="#000" stroke-dasharray="5.25, 3.15, 5.25, 3.15, 5.25, 3.15, 5.25, 3.15, 5.25, 3.15, 5.25, 5.8"><path id="id36f09836" class="EdgeBody" d="m476.5 102-1.5 53"   marker-end="url(#markerEndArrow)" /></g></g><g id="id9f056740" class="Interaction" color="#000" ><g color="#000" fill="transparent"  filter="url(#kaavioblackto000000filter)" stroke="#000" stroke-dasharray="97.20485425454473, 5.8"><path id="id9f056740" class="EdgeBody" d="m879 237 1-103"   marker-end="url(#markerEndMimConversion)" /></g></g><g id="idc1d58013" class="DirectedInteraction" color="#000" ><g color="#000" fill="transparent"  filter="url(#kaavioblackto000000filter)" stroke="#000" stroke-dasharray="31.078177829171548, 5.8"><path id="idc1d58013" class="EdgeBody" d="m784 364 24-28"   marker-end="url(#markerEndArrow)" /></g></g><g id="idafd0ccf9" class="Interaction" color="#000" ><g color="#000" fill="transparent"  filter="url(#kaavioblackto000000filter)" stroke="#000" stroke-dasharray="204.5025900153412, 5.8"><path id="idafd0ccf9" class="EdgeBody" d="m736 475-1e-13 -3.3333c1e-13 -3.3333 1e-13 -10 23.833-13.333 23.833-3.3333 71.5-3.3333 95.333-17.667 23.833-14.333 23.833-43 23.833-57.333v-14.333"   marker-end="url(#markerEndMimConversion)" /></g></g><g id="id8cae9316" class="DirectedInteraction" color="#000" ><g color="#000" fill="transparent"  filter="url(#kaavioblackto000000filter)" stroke="#000" stroke-dasharray="35.20076218803744, 5.8"><path id="id8cae9316" class="EdgeBody" d="m753.75 282-0.25 41"   marker-end="url(#markerEndArrow)" /></g><g id="e8a30" class="Burr Anchor" transform="translate(753.65 298.4)" ><use id="e8a30-icon" class="Icon" width="0" height="0" fill="#141414" stroke-width="0" xlink:href="#none"/></g></g><g id="a357b" class="SingleFreeNode Shape PhysicalEntity CellularComponent Vesicle" transform="translate(895,420)" color="#c0c0c0"  name="Vesicle"><use id="a357b-icon" class="Icon" transform="matrix(.95588 0 0 .94444 1.4338 1.4167)" width="65" height="51" fill="transparent"  stroke="#c0c0c0" stroke-width="3" xlink:href="#Ellipse"/><text id="a357b-text" class="Text" transform="translate(32.5,28.5)" fill="#c0c0c0"  font-size="10px" stroke="black" stroke-width="0" text-anchor="middle"><tspan x="0" y="0">Vesicle</tspan></text></g><g id="d0c19" class="SingleFreeNode Shape" transform="translate(407,60)" color="#000"  name="Pathogen"><use id="d0c19-icon" class="Icon" transform="matrix(.99286 0 0 .97674 .49643 .48837)" width="139" height="42" fill="#ccc" stroke="#000" xlink:href="#Ellipse"/><text id="d0c19-text" class="Text" transform="translate(69.5,24)" fill="#000"  font-size="10px" stroke="white" stroke-width="0" text-anchor="middle"><tspan x="0" y="0">Pathogen</tspan></text></g><g id="ee897" class="SingleFreeNode Shape" transform="translate(95,169)" color="#009999" ><rect id="ee897-icon" class="Icon" transform="matrix(.97727 0 0 .9918 .97727 .9918)" width="86" height="242" fill="transparent"  stroke="#099" stroke-width="2"/></g><g id="fdfaf" class="SingleFreeNode Shape PhysicalEntity CellularComponent Cell" transform="translate(234,180)" color="#c0c0c0" ><use id="fdfaf-icon" class="Icon" transform="matrix(.99647 0 0 .99345 1.4947 1.4902)" width="848" height="455" fill="transparent"  stroke="#c0c0c0" stroke-width="3" xlink:href="#Ellipse"/></g><g id="b816f" class="Label" transform="translate(492,541)" color="#000"  name="Actin  reorganization"><use id="b816f-icon" class="Icon" width="91" height="29" fill="transparent"  stroke="#000" stroke-width="0" xlink:href="#none"/><text id="b816f-text" class="Text" transform="translate(45.5,18.5)" fill="#000"  font-size="12px" font-weight="bold" stroke="white" stroke-width="0" text-anchor="middle"><tspan x="0" y="0">Actin reorganization</tspan></text></g><g id="e8810" class="Label" transform="translate(626,611)" color="#999"  name="Microglia"><use id="e8810-icon" class="Icon" width="80" height="20" fill="transparent"  stroke="#999" stroke-width="0" xlink:href="#none"/><text id="e8810-text" class="Text" transform="translate(40,15)" fill="#999"  font-size="16px" font-weight="bold" stroke="black" stroke-width="0" text-anchor="middle"><tspan x="0" y="0">Microglia</tspan></text></g><g id="fe718" class="Label" transform="translate(887,177)" color="#000"  name="Oxidative burst"><use id="fe718-icon" class="Icon" width="80" height="30" fill="transparent"  stroke="#000" stroke-width="0" xlink:href="#none"/><text id="fe718-text" class="Text" transform="translate(40,19)" fill="#000"  font-size="12px" font-weight="bold" stroke="white" stroke-width="0" text-anchor="middle"><tspan x="0" y="0">Oxidative burst</tspan></text></g><g id="ef2c4" class="GroupGroup" transform="translate(93,164)" color="grey" ><use id="ef2c4-icon" class="Icon" width="96" height="238" fill="transparent"  stroke="grey" stroke-dasharray="5,3" stroke-width="0" xlink:href="#none"/><g id="b1956" class="Label" transform="translate(8,8)" color="#009999"  name="Pik3"><use id="b1956-icon" class="Icon" width="80" height="20" fill="transparent"  stroke="#009999" stroke-width="0" xlink:href="#none"/><text id="b1956-text" class="Text" transform="translate(40,14)" fill="#009999"  font-size="12px" font-weight="bold" stroke="black" stroke-width="0" text-anchor="middle"><tspan x="0" y="0">Pik3</tspan></text></g><a  id="cfb94" class="GeneProduct PIK3R1 " transform="translate(17.5,30)"   name="PIK3R1"  ><rect id="cfb94-icon" class="Icon" transform="matrix(.98276 0 0 .95238 .49138 .47619)" width="57" height="20" fill="#fff" stroke="#000"/><text id="cfb94-text" class="Text" transform="translate(28.5,13)" fill="#000"  font-size="10px" stroke="white" stroke-width="0" text-anchor="middle"><tspan x="0" y="0">PIK3R1</tspan></text></a><a  id="f18be" class="GeneProduct PIK3CG " transform="translate(17.5,50)"   name="PIK3CG"  ><rect id="f18be-icon" class="Icon" transform="matrix(.98276 0 0 .95238 .49138 .47619)" width="57" height="20" fill="#fff" stroke="#000"/><text id="f18be-text" class="Text" transform="translate(28.5,13)" fill="#000"  font-size="10px" stroke="white" stroke-width="0" text-anchor="middle"><tspan x="0" y="0">PIK3CG</tspan></text></a><a  id="ccea2" class="GeneProduct PIK3CA " transform="translate(17.5,70)"   name="PIK3CA"  ><rect id="ccea2-icon" class="Icon" transform="matrix(.98276 0 0 .95238 .49138 .47619)" width="57" height="20" fill="#fff" stroke="#000"/><text id="ccea2-text" class="Text" transform="translate(28.5,13)" fill="#000"  font-size="10px" stroke="white" stroke-width="0" text-anchor="middle"><tspan x="0" y="0">PIK3CA</tspan></text></a><a  id="ac5ec" class="GeneProduct PIK3CD " transform="translate(17.5,90)"   name="PIK3CD"  ><rect id="ac5ec-icon" class="Icon" transform="matrix(.98276 0 0 .95238 .49138 .47619)" width="57" height="20" fill="#fff" stroke="#000"/><text id="ac5ec-text" class="Text" transform="translate(28.5,13)" fill="#000"  font-size="10px" stroke="white" stroke-width="0" text-anchor="middle"><tspan x="0" y="0">PIK3CD</tspan></text></a><a  id="e411c" class="GeneProduct PIK3CB " transform="translate(17.5,110)"   name="PIK3CB"  ><rect id="e411c-icon" class="Icon" transform="matrix(.98276 0 0 .95238 .49138 .47619)" width="57" height="20" fill="#fff" stroke="#000"/><text id="e411c-text" class="Text" transform="translate(28.5,13)" fill="#000"  font-size="10px" stroke="white" stroke-width="0" text-anchor="middle"><tspan x="0" y="0">PIK3CB</tspan></text></a><a  id="db275" class="GeneProduct PIK3R2 " transform="translate(17.5,130)"   name="PIK3R2"  ><rect id="db275-icon" class="Icon" transform="matrix(.98276 0 0 .95238 .49138 .47619)" width="57" height="20" fill="#fff" stroke="#000"/><text id="db275-text" class="Text" transform="translate(28.5,13)" fill="#000"  font-size="10px" stroke="white" stroke-width="0" text-anchor="middle"><tspan x="0" y="0">PIK3R2</tspan></text></a><a  id="a87de" class="GeneProduct PIK3C3 " transform="translate(17.5,150)"   name="PIK3C3"  ><rect id="a87de-icon" class="Icon" transform="matrix(.98276 0 0 .95238 .49138 .47619)" width="57" height="20" fill="#fff" stroke="#000"/><text id="a87de-text" class="Text" transform="translate(28.5,13)" fill="#000"  font-size="10px" stroke="white" stroke-width="0" text-anchor="middle"><tspan x="0" y="0">PIK3C3</tspan></text></a><a  id="ed399" class="GeneProduct PIK3C2A " transform="translate(17.5,170)"   name="PIK3C2A"  ><rect id="ed399-icon" class="Icon" transform="matrix(.98276 0 0 .95238 .49138 .47619)" width="57" height="20" fill="#fff" stroke="#000"/><text id="ed399-text" class="Text" transform="translate(28.5,13)" fill="#000"  font-size="10px" stroke="white" stroke-width="0" text-anchor="middle"><tspan x="0" y="0">PIK3C2A</tspan></text></a><a  id="b1b21" class="GeneProduct PIK3R6 " transform="translate(17.5,190)"   name="PIK3R6"  ><rect id="b1b21-icon" class="Icon" transform="matrix(.98276 0 0 .95238 .49138 .47619)" width="57" height="20" fill="#fff" stroke="#000"/><text id="b1b21-text" class="Text" transform="translate(28.5,13)" fill="#000"  font-size="10px" stroke="white" stroke-width="0" text-anchor="middle"><tspan x="0" y="0">PIK3R6</tspan></text></a><a  id="ef1a5" class="GeneProduct PIK3R3 " transform="translate(17.5,210)"   name="PIK3R3"  ><rect id="ef1a5-icon" class="Icon" transform="matrix(.98276 0 0 .95238 .49138 .47619)" width="57" height="20" fill="#fff" stroke="#000"/><text id="ef1a5-text" class="Text" transform="translate(28.5,13)" fill="#000"  font-size="10px" stroke="white" stroke-width="0" text-anchor="middle"><tspan x="0" y="0">PIK3R3</tspan></text></a></g><a id="a3593" class="Metabolite ChEBI_CHEBI_15379  " transform="translate(857,114)" color="#00f"  name="Oxygen"  ><rect id="a3593-icon" class="Icon" transform="matrix(.97872 0 0 .95238 .48936 .47619)" width="46" height="20" fill="#fff" stroke="#00f"/><text id="a3593-text" class="Text" transform="translate(23,13)" fill="#00f"  font-size="10px" stroke="white" stroke-width="0" text-anchor="middle"><tspan x="0" y="0">Oxygen</tspan></text></a><g id="a6dc7" class="GeneProduct" transform="translate(558,397)" color="#009999"  name="Pik3"><rect id="a6dc7-icon" class="Icon" transform="matrix(.97297 0 0 .95238 .48649 .47619)" width="36" height="20" fill="#fff" stroke="#099"/><g id="d0b59" class="Burr State" transform="translate(-5.5 12.5)" color="#000"  name="P"><use id="d0b59-icon" class="Icon" transform="matrix(.9375 0 0 .9375 .46875 .46875)" width="15" height="15" fill="#fff" stroke="#000" xlink:href="#Ellipse"/><text id="d0b59-text" class="Text" transform="translate(7.5,10.5)" fill="#000"  font-size="10px" stroke="white" stroke-width="0" text-anchor="middle"><tspan x="0" y="0">P</tspan></text></g><text id="a6dc7-text" class="Text" transform="translate(18,13)" fill="#009999"  font-size="10px" stroke="black" stroke-width="0" text-anchor="middle"><tspan x="0" y="0">Pik3</tspan></text></g><g id="a8fda" class="GeneProduct" transform="translate(306,108)" color="#000"  name="IgG"><rect id="a8fda-icon" class="Icon" transform="matrix(.97778 0 0 .95238 .48889 .47619)" width="44" height="20" fill="#fff" stroke="#000"/><text id="a8fda-text" class="Text" transform="translate(22,13)" fill="#000"  font-size="10px" stroke="white" stroke-width="0" text-anchor="middle"><tspan x="0" y="0">IgG</tspan></text></g><a  id="aad71" class="GeneProduct HCK " transform="translate(371,299)"   name="HCK"  ><rect id="aad71-icon" class="Icon" transform="matrix(.97143 0 0 .95238 .48571 .47619)" width="34" height="20" fill="#fff" stroke="#000"/><text id="aad71-text" class="Text" transform="translate(17,13)" fill="#000"  font-size="10px" stroke="white" stroke-width="0" text-anchor="middle"><tspan x="0" y="0">HCK</tspan></text></a><a  id="c8803" class="GeneProduct SYK " transform="translate(487,305)"   name="SYK"  ><rect id="c8803-icon" class="Icon" transform="matrix(.97778 0 0 .95238 .48889 .47619)" width="44" height="20" fill="#fff" stroke="#000"/><text id="c8803-text" class="Text" transform="translate(22,13)" fill="#000"  font-size="10px" stroke="white" stroke-width="0" text-anchor="middle"><tspan x="0" y="0">SYK</tspan></text></a><a id="d7a56" class="Metabolite" transform="translate(601,184)" color="#00f"  name="PIP2"  ><rect id="d7a56-icon" class="Icon" transform="matrix(.97619 0 0 .95238 .4881 .47619)" width="41" height="20" fill="#fff" stroke="#00f"/><text id="d7a56-text" class="Text" transform="translate(20.5,13)" fill="#00f"  font-size="10px" stroke="white" stroke-width="0" text-anchor="middle"><tspan x="0" y="0">PIP2</tspan></text></a><a  id="f4098" class="GeneProduct FCGR1A " transform="translate(374,210)"   name="FCGR1A"  ><rect id="f4098-icon" class="Icon" transform="matrix(.98113 0 0 .95238 .49057 .47619)" width="52" height="20" fill="#fff" stroke="#000"/><text id="f4098-text" class="Text" transform="translate(26,13)" fill="#000"  font-size="10px" stroke="white" stroke-width="0" text-anchor="middle"><tspan x="0" y="0">FCGR1A</tspan></text></a><g id="b60aa" class="GroupGroup" transform="translate(298,22)" color="grey" ><use id="b60aa-icon" class="Icon" width="60" height="76" fill="transparent"  stroke="grey" stroke-dasharray="5,3" stroke-width="0" xlink:href="#none"/><a  id="adb3f" class="GeneProduct C1QA " transform="translate(8,8)"   name="C1QA"  ><rect id="adb3f-icon" class="Icon" transform="matrix(.97778 0 0 .95238 .48889 .47619)" width="44" height="20" fill="#fff" stroke="#000"/><text id="adb3f-text" class="Text" transform="translate(22,13)" fill="#000"  font-size="10px" stroke="white" stroke-width="0" text-anchor="middle"><tspan x="0" y="0">C1QA</tspan></text></a><a  id="fe05b" class="GeneProduct C1QB " transform="translate(8,28)"   name="C1QB"  ><rect id="fe05b-icon" class="Icon" transform="matrix(.97778 0 0 .95238 .48889 .47619)" width="44" height="20" fill="#fff" stroke="#000"/><text id="fe05b-text" class="Text" transform="translate(22,13)" fill="#000"  font-size="10px" stroke="white" stroke-width="0" text-anchor="middle"><tspan x="0" y="0">C1QB</tspan></text></a><a  id="cba5d" class="GeneProduct C1QC " transform="translate(8,48)"   name="C1QC"  ><rect id="cba5d-icon" class="Icon" transform="matrix(.97778 0 0 .95238 .48889 .47619)" width="44" height="20" fill="#fff" stroke="#000"/><text id="cba5d-text" class="Text" transform="translate(22,13)" fill="#000"  font-size="10px" stroke="white" stroke-width="0" text-anchor="middle"><tspan x="0" y="0">C1QC</tspan></text></a></g><g id="bd25a" class="GroupGroup" transform="translate(404,215)" color="grey" ><use id="bd25a-icon" class="Icon" width="145" height="36" fill="transparent"  stroke="grey" stroke-dasharray="5,3" stroke-width="0" xlink:href="#none"/><a  id="c8356" class="GeneProduct TYROBP " transform="translate(81,8)"   name="TYROBP"  ><rect id="c8356-icon" class="Icon" transform="matrix(.98246 0 0 .95238 .49123 .47619)" width="56" height="20" fill="#fff" stroke="#000"/><g id="aa773" class="Burr State" transform="translate(-5.5 11.5)" color="#000"  name="P"><use id="aa773-icon" class="Icon" transform="matrix(.9375 0 0 .9375 .46875 .46875)" width="15" height="15" fill="#fff" stroke="#000" xlink:href="#Ellipse"/><text id="aa773-text" class="Text" transform="translate(7.5,10.5)" fill="#000"  font-size="10px" stroke="white" stroke-width="0" text-anchor="middle"><tspan x="0" y="0">P</tspan></text></g><g id="eb2e5" class="Burr State" transform="translate(44.5,12.5)" color="#000"  name="P"><use id="eb2e5-icon" class="Icon" transform="matrix(.9375 0 0 .9375 .46875 .46875)" width="15" height="15" fill="#fff" stroke="#000" xlink:href="#Ellipse"/><text id="eb2e5-text" class="Text" transform="translate(7.5,10.5)" fill="#000"  font-size="10px" stroke="white" stroke-width="0" text-anchor="middle"><tspan x="0" y="0">P</tspan></text></g><text id="c8356-text" class="Text" transform="translate(28,13)" fill="#000"  font-size="10px" stroke="white" stroke-width="0" text-anchor="middle"><tspan x="0" y="0">TYROBP</tspan></text></a><a  id="d8a3d" class="GeneProduct FCER1G " transform="translate(8,8)"   name="FCER1G"  ><rect id="d8a3d-icon" class="Icon" transform="matrix(.98361 0 0 .95238 .4918 .47619)" width="60" height="20" fill="#fff" stroke="#000"/><g id="a20af" class="Burr State" transform="translate(49.5,11.5)" color="#000"  name="P"><use id="a20af-icon" class="Icon" transform="matrix(.9375 0 0 .9375 .46875 .46875)" width="15" height="15" fill="#fff" stroke="#000" xlink:href="#Ellipse"/><text id="a20af-text" class="Text" transform="translate(7.5,10.5)" fill="#000"  font-size="10px" stroke="white" stroke-width="0" text-anchor="middle"><tspan x="0" y="0">P</tspan></text></g><g id="d02a0" class="Burr State" transform="translate(-1.5 9.5)" color="#000"  name="P"><use id="d02a0-icon" class="Icon" transform="matrix(.9375 0 0 .9375 .46875 .46875)" width="15" height="15" fill="#fff" stroke="#000" xlink:href="#Ellipse"/><text id="d02a0-text" class="Text" transform="translate(7.5,10.5)" fill="#000"  font-size="10px" stroke="white" stroke-width="0" text-anchor="middle"><tspan x="0" y="0">P</tspan></text></g><text id="d8a3d-text" class="Text" transform="translate(30,13)" fill="#000"  font-size="10px" stroke="white" stroke-width="0" text-anchor="middle"><tspan x="0" y="0">FCER1G</tspan></text></a></g><g id="c8b89" class="GroupGroup" transform="translate(508,175)" color="grey" ><use id="c8b89-icon" class="Icon" width="69" height="56" fill="transparent"  stroke="grey" stroke-dasharray="5,3" stroke-width="0" xlink:href="#none"/><a  id="ffaf8" class="GeneProduct ITGAM " transform="translate(8,8)"   name="ITGAM"  ><rect id="ffaf8-icon" class="Icon" transform="matrix(.98148 0 0 .95238 .49074 .47619)" width="53" height="20" fill="#fff" stroke="#000"/><text id="ffaf8-text" class="Text" transform="translate(26.5,13)" fill="#000"  font-size="10px" stroke="white" stroke-width="0" text-anchor="middle"><tspan x="0" y="0">ITGAM</tspan></text></a><a  id="bbcb5" class="GeneProduct ITGB2 " transform="translate(8,28)"   name="ITGB2"  ><rect id="bbcb5-icon" class="Icon" transform="matrix(.98148 0 0 .95238 .49074 .47619)" width="53" height="20" fill="#fff" stroke="#000"/><text id="bbcb5-text" class="Text" transform="translate(26.5,13)" fill="#000"  font-size="10px" stroke="white" stroke-width="0" text-anchor="middle"><tspan x="0" y="0">ITGB2</tspan></text></a></g><g id="ccf7a" class="GroupGroup" transform="translate(250,291)" color="grey" ><use id="ccf7a-icon" class="Icon" width="105" height="63" fill="transparent"  stroke="grey" stroke-dasharray="5,3" stroke-width="0" xlink:href="#none"/><a  id="d1d6d" class="GeneProduct SIGLEC7 " transform="translate(8,8)"   name="SIGLEC7"  ><rect id="d1d6d-icon" class="Icon" transform="matrix(.98148 0 0 .95238 .49074 .47619)" width="53" height="20" fill="#fff" stroke="#000"/><g id="d4765" class="Burr State" transform="translate(45.5,12.5)" color="#000"  name="P"><use id="d4765-icon" class="Icon" transform="matrix(.9375 0 0 .9375 .46875 .46875)" width="15" height="15" fill="#fff" stroke="#000" xlink:href="#Ellipse"/><text id="d4765-text" class="Text" transform="translate(7.5,10.5)" fill="#000"  font-size="10px" stroke="white" stroke-width="0" text-anchor="middle"><tspan x="0" y="0">P</tspan></text></g><text id="d1d6d-text" class="Text" transform="translate(26.5,13)" fill="#000"  font-size="10px" stroke="white" stroke-width="0" text-anchor="middle"><tspan x="0" y="0">SIGLEC7</tspan></text></a><a  id="f7fe2" class="GeneProduct PTPN6 " transform="translate(52,35)"   name="PTPN6"  ><rect id="f7fe2-icon" class="Icon" transform="matrix(.97826 0 0 .95238 .48913 .47619)" width="45" height="20" fill="#fff" stroke="#000"/><text id="f7fe2-text" class="Text" transform="translate(22.5,13)" fill="#000"  font-size="10px" stroke="white" stroke-width="0" text-anchor="middle"><tspan x="0" y="0">PTPN6</tspan></text></a></g><g id="dd9ca" class="GroupGroup" transform="translate(440,155)" color="grey" ><use id="dd9ca-icon" class="Icon" width="70" height="76" fill="transparent"  stroke="grey" stroke-dasharray="5,3" stroke-width="0" xlink:href="#none"/><a  id="d330a" class="GeneProduct TREM1 " transform="translate(8,8)"   name="TREM1"  ><rect id="d330a-icon" class="Icon" transform="matrix(.98182 0 0 .95238 .49091 .47619)" width="54" height="20" fill="#fff" stroke="#000"/><text id="d330a-text" class="Text" transform="translate(27,13)" fill="#000"  font-size="10px" stroke="white" stroke-width="0" text-anchor="middle"><tspan x="0" y="0">TREM1</tspan></text></a><a  id="fa9da" class="GeneProduct TREM2 " transform="translate(8,28)"   name="TREM2"  ><rect id="fa9da-icon" class="Icon" transform="matrix(.98182 0 0 .95238 .49091 .47619)" width="54" height="20" fill="#fff" stroke="#000"/><text id="fa9da-text" class="Text" transform="translate(27,13)" fill="#000"  font-size="10px" stroke="white" stroke-width="0" text-anchor="middle"><tspan x="0" y="0">TREM2</tspan></text></a><g id="bef2c" class="GeneProduct" transform="translate(8,48)" color="#000"  name="Trem3"><rect id="bef2c-icon" class="Icon" transform="matrix(.98182 0 0 .95238 .49091 .47619)" width="54" height="20" fill="#fff" stroke="#000"/><text id="bef2c-text" class="Text" transform="translate(27,13)" fill="#000"  font-size="10px" stroke="white" stroke-width="0" text-anchor="middle"><tspan x="0" y="0">Trem3</tspan></text></g></g><a  id="be6a8" class="GeneProduct LYN " transform="translate(354,258)"   name="LYN"  ><rect id="be6a8-icon" class="Icon" transform="matrix(.97143 0 0 .95238 .48571 .47619)" width="34" height="20" fill="#fff" stroke="#000"/><text id="be6a8-text" class="Text" transform="translate(17,13)" fill="#000"  font-size="10px" stroke="white" stroke-width="0" text-anchor="middle"><tspan x="0" y="0">LYN</tspan></text></a><g id="e6e67" class="GroupGroup" transform="translate(663,196)" color="grey" ><use id="e6e67-icon" class="Icon" width="121" height="86" fill="transparent"  stroke="grey" stroke-dasharray="5,3" stroke-width="0" xlink:href="#none"/><a  id="ef07b" class="GeneProduct PLCG2 " transform="translate(8,28)"   name="PLCG2"  ><rect id="ef07b-icon" class="Icon" transform="matrix(.97826 0 0 .95652 .48913 .47826)" width="45" height="22" fill="#fff" stroke="#000"/><g id="f3a56" class="Burr State" transform="translate(37.5,14.5)" color="#000"  name="P"><use id="f3a56-icon" class="Icon" transform="matrix(.9375 0 0 .9375 .46875 .46875)" width="15" height="15" fill="#fff" stroke="#000" xlink:href="#Ellipse"/><text id="f3a56-text" class="Text" transform="translate(7.5,10.5)" fill="#000"  font-size="10px" stroke="white" stroke-width="0" text-anchor="middle"><tspan x="0" y="0">P</tspan></text></g><text id="ef07b-text" class="Text" transform="translate(22.5,14)" fill="#000"  font-size="10px" stroke="white" stroke-width="0" text-anchor="middle"><tspan x="0" y="0">PLCG2</tspan></text></a><a  id="bf6f2" class="GeneProduct LAT " transform="translate(22,8)"   name="LAT"  ><rect id="bf6f2-icon" class="Icon" transform="matrix(.97826 0 0 .95238 .48913 .47619)" width="45" height="20" fill="#fff" stroke="#000"/><text id="bf6f2-text" class="Text" transform="translate(22.5,13)" fill="#000"  font-size="10px" stroke="white" stroke-width="0" text-anchor="middle"><tspan x="0" y="0">LAT</tspan></text></a><a  id="d0362" class="GeneProduct VAV1 " transform="translate(68,18)"   name="VAV1"  ><rect id="d0362-icon" class="Icon" transform="matrix(.97826 0 0 .95238 .48913 .47619)" width="45" height="20" fill="#fff" stroke="#000"/><text id="d0362-text" class="Text" transform="translate(22.5,13)" fill="#000"  font-size="10px" stroke="white" stroke-width="0" text-anchor="middle"><tspan x="0" y="0">VAV1</tspan></text></a><a  id="af215" class="GeneProduct VAV2 " transform="translate(68,38)"   name="VAV2"  ><rect id="af215-icon" class="Icon" transform="matrix(.97826 0 0 .95238 .48913 .47619)" width="45" height="20" fill="#fff" stroke="#000"/><text id="af215-text" class="Text" transform="translate(22.5,13)" fill="#000"  font-size="10px" stroke="white" stroke-width="0" text-anchor="middle"><tspan x="0" y="0">VAV2</tspan></text></a><a  id="c016f" class="GeneProduct VAV3 " transform="translate(68,58)"   name="VAV3"  ><rect id="c016f-icon" class="Icon" transform="matrix(.97826 0 0 .95238 .48913 .47619)" width="45" height="20" fill="#fff" stroke="#000"/><text id="c016f-text" class="Text" transform="translate(22.5,13)" fill="#000"  font-size="10px" stroke="white" stroke-width="0" text-anchor="middle"><tspan x="0" y="0">VAV3</tspan></text></a></g><g id="a08b0" class="GroupGroup" transform="translate(723,323)" color="grey" ><use id="a08b0-icon" class="Icon" width="61" height="82" fill="transparent"  stroke="grey" stroke-dasharray="5,3" stroke-width="0" xlink:href="#none"/><a  id="e1720" class="GeneProduct RAC1 " transform="translate(8,8)"   name="RAC1"  ><rect id="e1720-icon" class="Icon" transform="matrix(.97826 0 0 .95652 .48913 .47826)" width="45" height="22" fill="#fff" stroke="#000"/><text id="e1720-text" class="Text" transform="translate(22.5,14)" fill="#000"  font-size="10px" stroke="white" stroke-width="0" text-anchor="middle"><tspan x="0" y="0">RAC1</tspan></text></a><a  id="b10c6" class="GeneProduct RAC2 " transform="translate(8,30)"   name="RAC2"  ><rect id="b10c6-icon" class="Icon" transform="matrix(.97826 0 0 .95652 .48913 .47826)" width="45" height="22" fill="#fff" stroke="#000"/><text id="b10c6-text" class="Text" transform="translate(22.5,14)" fill="#000"  font-size="10px" stroke="white" stroke-width="0" text-anchor="middle"><tspan x="0" y="0">RAC2</tspan></text></a><a  id="fb211" class="GeneProduct RAC3 " transform="translate(8,52)"   name="RAC3"  ><rect id="fb211-icon" class="Icon" transform="matrix(.97826 0 0 .95652 .48913 .47826)" width="45" height="22" fill="#fff" stroke="#000"/><text id="fb211-text" class="Text" transform="translate(22.5,14)" fill="#000"  font-size="10px" stroke="white" stroke-width="0" text-anchor="middle"><tspan x="0" y="0">RAC3</tspan></text></a></g><a  id="e2518" class="GeneProduct NCKAP1L " transform="translate(631,441)"   name="NCKAP1L"  ><rect id="e2518-icon" class="Icon" transform="matrix(.98 0 0 .95652 .49 .47826)" width="49" height="22" fill="#fff" stroke="#000"/><text id="e2518-text" class="Text" transform="translate(24.5,14)" fill="#000"  font-size="10px" stroke="white" stroke-width="0" text-anchor="middle"><tspan x="0" y="0">NCKAP1L</tspan></text></a><a  id="dd45f" class="GeneProduct ARPC1B " transform="translate(633,544.5)"   name="ARPC1B"  ><rect id="dd45f-icon" class="Icon" transform="matrix(.97826 0 0 .95652 .48913 .47826)" width="45" height="22" fill="#fff" stroke="#000"/><text id="dd45f-text" class="Text" transform="translate(22.5,14)" fill="#000"  font-size="10px" stroke="white" stroke-width="0" text-anchor="middle"><tspan x="0" y="0">ARPC1B</tspan></text></a><g id="e4d51" class="GroupGroup" transform="translate(698,475)" color="grey" ><use id="e4d51-icon" class="Icon" width="76" height="82" fill="transparent"  stroke="grey" stroke-dasharray="5,3" stroke-width="0" xlink:href="#none"/><a  id="c53ff" class="GeneProduct NCF4 " transform="translate(8,52)"   name="NCF4"  ><rect id="c53ff-icon" class="Icon" transform="matrix(.97826 0 0 .95652 .48913 .47826)" width="45" height="22" fill="#fff" stroke="#000"/><text id="c53ff-text" class="Text" transform="translate(22.5,14)" fill="#000"  font-size="10px" stroke="white" stroke-width="0" text-anchor="middle"><tspan x="0" y="0">NCF4</tspan></text></a><a  id="fc72f" class="GeneProduct NCF2 " transform="translate(23,30)"   name="NCF2"  ><rect id="fc72f-icon" class="Icon" transform="matrix(.97826 0 0 .95652 .48913 .47826)" width="45" height="22" fill="#fff" stroke="#000"/><text id="fc72f-text" class="Text" transform="translate(22.5,14)" fill="#000"  font-size="10px" stroke="white" stroke-width="0" text-anchor="middle"><tspan x="0" y="0">NCF2</tspan></text></a><a  id="a5899" class="GeneProduct NCF1 " transform="translate(18,8)"   name="NCF1"  ><rect id="a5899-icon" class="Icon" transform="matrix(.97826 0 0 .95652 .48913 .47826)" width="45" height="22" fill="#fff" stroke="#000"/><text id="a5899-text" class="Text" transform="translate(22.5,14)" fill="#000"  font-size="10px" stroke="white" stroke-width="0" text-anchor="middle"><tspan x="0" y="0">NCF1</tspan></text></a></g><g id="ca62c" class="GroupGroup" transform="translate(848,441)" color="grey" ><use id="ca62c-icon" class="Icon" width="104" height="60" fill="transparent"  stroke="grey" stroke-dasharray="5,3" stroke-width="0" xlink:href="#none"/><a  id="b1743" class="GeneProduct CYBB " transform="translate(8,8)"   name="CYBB"  ><rect id="b1743-icon" class="Icon" transform="matrix(.97826 0 0 .95652 .48913 .47826)" width="45" height="22" fill="#fff" stroke="#000"/><text id="b1743-text" class="Text" transform="translate(22.5,14)" fill="#000"  font-size="10px" stroke="white" stroke-width="0" text-anchor="middle"><tspan x="0" y="0">CYBB</tspan></text></a><a  id="b86eb" class="GeneProduct CYBA " transform="translate(51,30)"   name="CYBA"  ><rect id="b86eb-icon" class="Icon" transform="matrix(.97826 0 0 .95652 .48913 .47826)" width="45" height="22" fill="#fff" stroke="#000"/><text id="b86eb-text" class="Text" transform="translate(22.5,14)" fill="#000"  font-size="10px" stroke="white" stroke-width="0" text-anchor="middle"><tspan x="0" y="0">CYBA</tspan></text></a></g><g id="e256f" class="GroupGroup" transform="translate(808,237)" color="grey" ><use id="e256f-icon" class="Icon" width="142" height="132" fill="transparent"  stroke="grey" stroke-dasharray="5,3" stroke-width="0" xlink:href="#none"/><a  id="bd8a4" class="GeneProduct NCF1 " transform="translate(43,102)"   name="NCF1"  ><rect id="bd8a4-icon" class="Icon" transform="matrix(.97826 0 0 .95652 .48913 .47826)" width="45" height="22" fill="#fff" stroke="#000"/><g id="a40dc" class="Burr State" transform="translate(-3.5 14.5)" color="#000"  name="P"><use id="a40dc-icon" class="Icon" transform="matrix(.9375 0 0 .9375 .46875 .46875)" width="15" height="15" fill="#fff" stroke="#000" xlink:href="#Ellipse"/><text id="a40dc-text" class="Text" transform="translate(7.5,10.5)" fill="#000"  font-size="10px" stroke="white" stroke-width="0" text-anchor="middle"><tspan x="0" y="0">P</tspan></text></g><g id="d8d0f" class="Burr State" transform="translate(20.5,14.5)" color="#000"  name="P"><use id="d8d0f-icon" class="Icon" transform="matrix(.9375 0 0 .9375 .46875 .46875)" width="15" height="15" fill="#fff" stroke="#000" xlink:href="#Ellipse"/><text id="d8d0f-text" class="Text" transform="translate(7.5,10.5)" fill="#000"  font-size="10px" stroke="white" stroke-width="0" text-anchor="middle"><tspan x="0" y="0">P</tspan></text></g><g id="f4a75" class="Burr State" transform="translate(37.5,14.5)" color="#000"  name="P"><use id="f4a75-icon" class="Icon" transform="matrix(.9375 0 0 .9375 .46875 .46875)" width="15" height="15" fill="#fff" stroke="#000" xlink:href="#Ellipse"/><text id="f4a75-text" class="Text" transform="translate(7.5,10.5)" fill="#000"  font-size="10px" stroke="white" stroke-width="0" text-anchor="middle"><tspan x="0" y="0">P</tspan></text></g><text id="bd8a4-text" class="Text" transform="translate(22.5,14)" fill="#000"  font-size="10px" stroke="white" stroke-width="0" text-anchor="middle"><tspan x="0" y="0">NCF1</tspan></text></a><a  id="f5c7f" class="GeneProduct NCF4 " transform="translate(89,95)"   name="NCF4"  ><rect id="f5c7f-icon" class="Icon" transform="matrix(.97826 0 0 .95652 .48913 .47826)" width="45" height="22" fill="#fff" stroke="#000"/><text id="f5c7f-text" class="Text" transform="translate(22.5,14)" fill="#000"  font-size="10px" stroke="white" stroke-width="0" text-anchor="middle"><tspan x="0" y="0">NCF4</tspan></text></a><a  id="c8e62" class="GeneProduct NCF2 " transform="translate(51,77)"   name="NCF2"  ><rect id="c8e62-icon" class="Icon" transform="matrix(.97826 0 0 .95652 .48913 .47826)" width="45" height="22" fill="#fff" stroke="#000"/><text id="c8e62-text" class="Text" transform="translate(22.5,14)" fill="#000"  font-size="10px" stroke="white" stroke-width="0" text-anchor="middle"><tspan x="0" y="0">NCF2</tspan></text></a><a  id="c7ed8" class="GeneProduct RAC1 " transform="translate(8,34)"   name="RAC1"  ><rect id="c7ed8-icon" class="Icon" transform="matrix(.97826 0 0 .95652 .48913 .47826)" width="45" height="22" fill="#fff" stroke="#000"/><text id="c7ed8-text" class="Text" transform="translate(22.5,14)" fill="#000"  font-size="10px" stroke="white" stroke-width="0" text-anchor="middle"><tspan x="0" y="0">RAC1</tspan></text></a><a  id="da134" class="GeneProduct RAC2 " transform="translate(8,56)"   name="RAC2"  ><rect id="da134-icon" class="Icon" transform="matrix(.97826 0 0 .95652 .48913 .47826)" width="45" height="22" fill="#fff" stroke="#000"/><text id="da134-text" class="Text" transform="translate(22.5,14)" fill="#000"  font-size="10px" stroke="white" stroke-width="0" text-anchor="middle"><tspan x="0" y="0">RAC2</tspan></text></a><a  id="f3951" class="GeneProduct RAC3 " transform="translate(8,78)"   name="RAC3"  ><rect id="f3951-icon" class="Icon" transform="matrix(.97826 0 0 .95652 .48913 .47826)" width="45" height="22" fill="#fff" stroke="#000"/><text id="f3951-text" class="Text" transform="translate(22.5,14)" fill="#000"  font-size="10px" stroke="white" stroke-width="0" text-anchor="middle"><tspan x="0" y="0">RAC3</tspan></text></a><a  id="bee15" class="GeneProduct CYBB " transform="translate(24,8)"   name="CYBB"  ><rect id="bee15-icon" class="Icon" transform="matrix(.97826 0 0 .95652 .48913 .47826)" width="45" height="22" fill="#fff" stroke="#000"/><text id="bee15-text" class="Text" transform="translate(22.5,14)" fill="#000"  font-size="10px" stroke="white" stroke-width="0" text-anchor="middle"><tspan x="0" y="0">CYBB</tspan></text></a><a  id="b99bf" class="GeneProduct CYBA " transform="translate(70,24)"   name="CYBA"  ><rect id="b99bf-icon" class="Icon" transform="matrix(.97826 0 0 .95652 .48913 .47826)" width="45" height="22" fill="#fff" stroke="#000"/><text id="b99bf-text" class="Text" transform="translate(22.5,14)" fill="#000"  font-size="10px" stroke="white" stroke-width="0" text-anchor="middle"><tspan x="0" y="0">CYBA</tspan></text></a></g><g id="e7fa7" class="Interaction" color="#000" ><g color="#000" fill="transparent"  filter="url(#kaavioblackto000000filter)" stroke="#000" stroke-dasharray="5.06, 3.04, 5.06, 3.04, 5.06, 3.04, 5.06, 3.04, 5.06, 3.04, 5.06, 3.04, 5.06, 3.04, 5.06, 3.04, 5.06, 3.04, 5.06, 3.04, 5.06, 3.04, 5.06, 3.04, 5.06, 3.04, 5.06, 3.04, 5.06, 3.04, 5.06, 3.04, 5.06, 3.04, 5.06, 3.04, 5.06, 3.04, 5.06, 3.04, 5.06, 3.04, 5.06, 3.04, 5.06, 3.04, 5.06, 3.04, 5.06, 3.04, 5.06, 3.04, 5.06, 3.04, 5.06, 3.04, 5.06, 3.04, 5.06, 3.04, 5.06, 3.04, 5.06, 3.04, 5.06, 3.04, 5.06, 3.04, 5.06, 3.04, 5.06, 3.04, 5.06, 3.04, 5.06, 3.04, 5.06, 3.04, 5.06, 3.04, 5.06, 3.04, 5.06, 3.04, 5.06, 3.04, 5.06, 3.04, 5.06, 3.04, 5.06, 3.04, 5.06, 3.04, 5.06, 3.04, 5.06, 3.04, 5.06, 3.04, 5.06, 3.04, 5.06, 3.04, 5.06, 3.04, 5.06, 3.04, 5.06, 3.04, 5.06, 7"><path id="e7fa7" class="EdgeBody" d="m324.5 346-6e-14 3.3333c6e-14 3.3333 6e-14 10 63.25 13.333 63.25 3.3333 189.75 3.3333 253-7.9333 63.25-11.267 63.25-33.8 71.525-45.067 8.275-11.267 24.825-11.267 33.1-11.267h8.275"   marker-end="url(#markerEndMimInhibition)" /></g></g><g id="c1e4f" class="Interaction" color="#000" ><g color="#000" fill="transparent"  filter="url(#kaavioblackto000000filter)" stroke="#000" stroke-dasharray="5.03, 3.02, 5.03, 3.02, 5.03, 3.02, 5.03, 3.02, 5.03, 3.02, 5.03, 3.02, 5.03, 3.02, 5.03, 3.02, 5.03, 3.02, 5.03, 3.02, 5.03, 3.02, 5.03, 3.02, 5.03, 3.02, 5.03, 3.02, 5.03, 3.02, 5.03, 3.02, 5.03, 3.02, 5.03, 3.02, 5.03, 3.02, 5.03, 3.02, 5.03, 3.02, 5.03, 3.02, 5.03, 3.02, 5.03, 3.02, 5.03, 3.02, 5.03, 3.02, 5.03, 3.02, 5.03, 3.02, 5.03, 3.02, 5.03, 3.02, 5.03, 3.02, 5.03, 3.02, 5.03, 3.02, 5.03, 3.02, 5.03, 7"><path id="c1e4f" class="EdgeBody" d="m324.5 346-6e-14 3.3333c6e-14 3.3333 6e-14 10 42.107 13.333 42.107 3.3333 126.32 3.3333 168.43-0.35249 42.107-3.6858 42.107-11.057 45.44-14.743 3.3333-3.6858 10-3.6858 13.333-3.6858h3.3333"   marker-end="url(#markerEndMimInhibition)" /></g></g><g id="edbbe" class="DirectedInteraction" color="#000" ><g color="#000" fill="transparent"  filter="url(#kaavioblackto000000filter)" stroke="#000" stroke-dasharray="58.426649453322725, 5.8"><path id="edbbe" class="EdgeBody" d="m354 268-56.25 31"   marker-end="url(#markerEndArrow)" /></g></g><g id="f167a" class="DirectedInteraction" color="#000" ><g color="#000" fill="transparent"  filter="url(#kaavioblackto000000filter)" stroke="#000" stroke-dasharray="54.2, 5.8"><path id="f167a" class="EdgeBody" d="m371 309h-60"   marker-end="url(#markerEndArrow)" /></g></g><g id="b8758" class="DirectedInteraction" color="#000" ><g color="#000" fill="transparent"  filter="url(#kaavioblackto000000filter)" stroke="#000" stroke-dasharray="123.7, 5.8"><path id="b8758" class="EdgeBody" d="m405 309h71.5v-58"   marker-end="url(#markerEndArrow)" /></g></g><g id="b63c6" class="Label" transform="translate(357,537)" color="#000"  name="Phagocytosis migration"><use id="b63c6-icon" class="Icon" width="88" height="37" fill="transparent"  stroke="#000" stroke-width="0" xlink:href="#none"/><text id="b63c6-text" class="Text" transform="translate(44,22.5)" fill="#000"  font-size="12px" font-weight="bold" stroke="white" stroke-width="0" text-anchor="middle"><tspan x="0" y="0">Phagocytosis migration</tspan></text></g><g id="a7463" class="DirectedInteraction" color="#000" ><g color="#000" fill="transparent"  filter="url(#kaavioblackto000000filter)" stroke="#000" stroke-dasharray="41.2, 5.8"><path id="a7463" class="EdgeBody" d="m492 555.5h-47"   marker-end="url(#markerEndArrow)" /></g></g><g id="b2e95" class="Interaction" color="#000" ><g color="#000" fill="transparent"  filter="url(#kaavioblackto000000filter)" stroke="#000" stroke-dasharray="74.20590378891224, 5.8"><path id="b2e95" class="EdgeBody" d="m878.5 449-1e-13 -3.3333c1e-13 -3.3333 1e-13 -10 0.083333-13.333 0.083333-3.3333 0.25-3.3333 0.33333-13.333 0.083333-10 0.083333-30 0.083333-40v-10"   marker-end="url(#markerEndMimConversion)" /></g></g><g id="f4f05" class="DirectedInteraction" color="#000" ><g color="#000" fill="transparent"  filter="url(#kaavioblackto000000filter)" stroke="#000" stroke-dasharray="5.33, 3.2, 5.33, 3.2, 5.33, 3.2, 5.33, 3.2, 5.33, 3.2, 5.33, 3.2, 5.33, 3.2, 5.33, 3.2, 5.33, 3.2, 0, 5.8"><path id="f4f05" class="EdgeBody" d="m511.25 102 31.25 73"   marker-end="url(#markerEndArrow)" /></g></g><g id="af710" class="DirectedInteraction" color="#000" ><g color="#000" fill="transparent"  filter="url(#kaavioblackto000000filter)" stroke="#000" stroke-dasharray="5.05, 3.03, 5.05, 3.03, 5.05, 3.03, 5.05, 3.03, 5.05, 3.03, 5.05, 3.03, 5.05, 3.03, 5.05, 3.03, 5.05, 3.03, 5.05, 3.03, 5.05, 3.03, 5.05, 3.03, 5.05, 3.03, 5.05, 5.8"><path id="af710" class="EdgeBody" d="M441.75,102L400,210"   marker-end="url(#markerEndArrow)" /></g></g><a id="a4f18" class="Metabolite ChEBI_CHEBI_16618  " transform="translate(679,184)" color="#00f"  name="PIP3"  ><rect id="a4f18-icon" class="Icon" transform="matrix(.97619 0 0 .95238 .4881 .47619)" width="41" height="20" fill="#fff" stroke="#00f"/><text id="a4f18-text" class="Text" transform="translate(20.5,13)" fill="#00f"  font-size="10px" stroke="white" stroke-width="0" text-anchor="middle"><tspan x="0" y="0">PIP3</tspan></text></a><text id="WP3937-text" class="Text" transform="translate(5,27)" dominant-baseline="central" fill="black"  font-size="12px" font-weight="bold" overflow="visible" stroke="white" stroke-width="0"><tspan x="0" y="-9">Name: Microglia pathogen phagocytosis pathway</tspan> <tspan x="0" y="9">Organism: Homo sapiens</tspan></text></g></svg>
