<?xml version="1.0" encoding="UTF-8"?>
<svg xmlns="http://www.w3.org/2000/svg" id="-svg" class="Diagram"  baseProfile="full" prefix="schema:http://schema.org/" preserveAspectRatio="xMidYMid"  version="1.1"><defs><g id="filter-defs"><filter id="doublefalse3filter" x="-50%" y="-50%" width="200%" height="200%"><feComposite in="SourceGraphic" in2="SourceGraphic" result="doubleDark"/><feMorphology in="doubleDark" operator="dilate" radius="0.17" result="in2Double"/><feMorphology in="SourceGraphic" operator="dilate" radius="3" result="inDouble"/><feComposite in="inDouble" in2="in2Double" operator="out" result="doubleResult"/></filter></g><g id="icon-defs"><symbol id="Ellipse" class=" Icon Ellipse" x="0" y="0" overflow="visible" preserveAspectRatio="none" viewBox="0 0 50 50"><desc>Ellipse</desc><ellipse cx="25" cy="25" rx="25" ry="25" vector-effect="non-scaling-stroke"/></symbol></g><g id="marker-defs"><marker id="memtranscriptiontranslation33cc00white" markerHeight="24" markerWidth="20" orient="auto" preserveAspectRatio="none" refX="20" refY="12" viewBox="0 0 20 24"><g id="g-memtranscriptiontranslation33cc00white" transform=""><g transform="rotate(180 10 12)"><rect y="11" width="12" height="2" style="stroke:#fff"/><line x1="15" x2="15" y1="12" y2="5" fill="none" stroke="#3c0"/><line x1="15.5" x2="8" y1="5" y2="5" fill="none" stroke="#3c0"/><polygon points="0 5 8 1 8 9" fill="#fff" stroke="#3c0"/></g></g></marker><marker id="mea33cc00" markerHeight="12" markerWidth="12" orient="auto" preserveAspectRatio="none" refX="12" refY="6" viewBox="0 0 12 12"><g id="g-mea33cc00" transform=""><g transform="rotate(180 6 6)"><rect y="5.4" width="2" height="1.2" style="stroke:#fff"/><polygon points="12 11 0 6 12 1" fill="#3c0" stroke-width="0"/></g></g></marker><marker id="meaff8000" markerHeight="12" markerWidth="12" orient="auto" preserveAspectRatio="none" refX="12" refY="6" viewBox="0 0 12 12"><g id="g-meaff8000" transform=""><g transform="rotate(180 6 6)"><rect y="5.4" width="2" height="1.2" style="stroke:#fff"/><polygon points="12 11 0 6 12 1" fill="#ff8000" stroke-width="0"/></g></g></marker></g></defs><g id="viewport-20220102142809724" class="svg-pan-zoom_viewport" transform="matrix(0.82 0 0 0.82 289.21 0)" style="transform:matrix(0.82, 0, 0, 0.82, 289.21, 0)"><style>svg.Diagram {font-family: 'Liberation Sans', Arial, sans-serif; }.Diagram path {fill: transparent;stroke: #000;marker-end: url(#mea);}.Diagram symbol path {fill: inherit;stroke: inherit;stroke-width: inherit;marker-end: inherit;}.Diagram rect {fill: #fff;stroke: #000;}.Diagram text {dominant-baseline: central;overflow: hidden;text-anchor: middle;fill: #000;font-size: 10px;}</style><style type="text/css">.Viewport .textContent {
  pointer-events: none;
  stroke-width: 0px;
}

					.Viewport.Icon {
  fill: white;
}

/* Hide the InfoBox */
.Viewport.textContent {
  font-size: 0;
}

.textContent {
  stroke: none;
}

.DataNode {
  stroke-miterlimit: 1;
  pointer-events: auto;
}

.DataNode:hover {
  cursor: pointer;
}

/* TODO should this apply to things other than DataNodes? */
.DataNode.textContent {
  pointer-events: none;
}

.DataNode.Highlighted {
  opacity: 0.6;
  stroke-width: 0px;
}

marker {
  /* this is what should work per the spec
  stroke-dasharray: none; */
  /* but I need to add this to make it work in Safari */
  stroke-dasharray: 9999999999999999999999999;
}

.Citation.Icon {
  fill: none;
  stroke-width: 0px;
}

.Citation.textContent {
  text-align: center;
  vertical-align: top;
  font-size: 7px;
  fill: #999;
  fill-opacity: 1;
  stroke: none;
}</style><g id="WP400" class="Pathway http___identifiers_org_pw_PW_0000198 Viewport"  name="Name: p38 MAPK signaling pathway License: CC BY 2.0 Organism: Homo sapiens" ><g class="Pathway http___identifiers_org_pw_PW_0000198 Viewport"><rect   width="760" height="873" style="stroke:none"/><g id="pvjsgeneratedidfedc7" class="Edge"  ><path    d="m271.29 724.43 80.08 0.95" style="stroke:#3c0;marker-end:url(#memtranscriptiontranslation33cc00white)"/></g><g id="a00bd" class="Edge"  ><path    d="m513.33 466.67h47" style="stroke:#3c0;marker-end:url(#mea33cc00)"/></g><g id="a0585" class="Edge"  ><path    d="m364.33 578 29 100" style="stroke:#3c0;marker-end:url(#mea33cc00)"/></g><g id="a3716" class="Edge"  ><path    d="m323.33 466.67-159.67-0.33" style="stroke:#3c0;marker-end:url(#mea33cc00)"/></g><g id="a92c6" class="Edge"  ><path    d="m300.42 121-27.08 105.67" style="stroke:#ff8000;marker-end:url(#meaff8000)"/></g><g id="ae1ee" class="Edge"  ><path    d="m196.67 383.67v44.33h146.67v28.67" style="stroke:#3c0;marker-end:url(#mea33cc00)"/></g><g id="b0108" class="Edge"  ><path    d="m364.33 578 75.67 70" style="stroke:#3c0;marker-end:url(#mea33cc00)"/></g><g id="b9344" class="Edge"  ><path    d="m642.33 560 0.33-47" style="stroke:#3c0;marker-end:url(#mea33cc00)"/></g><g id="bbf9b" class="Edge"  ><path    d="m475.67 342.33v20h-97.33v31" style="stroke:#3c0;marker-end:url(#mea33cc00)"/></g><g id="bd0b7" class="Edge"  ><path    d="m384.33 578 111.33 96.67" style="stroke:#3c0;marker-end:url(#mea33cc00)"/></g><g id="c1494" class="Edge"  ><path    d="m201.89 234.43 51.44 2.24" style="stroke:#3c0;marker-end:url(#mea33cc00)"/></g><g id="c2da6" class="Edge"  ><path    d="m404.33 568 54 14" style="stroke:#3c0;marker-end:url(#mea33cc00)"/></g><g id="c71e5" class="Edge"  ><path    d="m518.33 592 115 69.33" style="stroke:#ff8000;marker-end:url(#meaff8000)"/></g><g id="cc213" class="Edge"  ><path    d="m580.33 636 41.33 25.33" style="stroke:#3c0;marker-end:url(#mea33cc00)"/></g><g id="ccaf0" class="Edge"  ><path    d="m300.42 121 46.25 92.33" style="stroke:#ff8000;marker-end:url(#meaff8000)"/></g><g id="ccbb9" class="Edge"  ><path    d="m560 333.33h-20v70h-146.67" style="stroke:#3c0;marker-end:url(#mea33cc00)"/></g><g id="cf8a2" class="Edge"  ><path    d="m475 110.67 0.33 48" style="marker-end:none"/></g><g id="d24c0" class="Edge"  ><path    d="m151.25 170.33-8.58-38.33" style="marker-end:none"/></g><g id="da21c" class="Edge"  ><path    d="m603.33 343.33-0.33 42.67" style="stroke:#3c0;marker-end:url(#mea33cc00)"/></g><g id="db621" class="Edge"  ><path    d="m344.33 578-87 67.33" style="stroke:#3c0;marker-end:url(#mea33cc00)"/></g><g id="dd7f9" class="Edge"  ><path    d="m475.33 178.67 0.33 143.67" style="stroke:#3c0;marker-end:url(#mea33cc00)"/></g><g id="de0f5" class="Edge"  ><path    d="m283.33 246.67 16.67 53.33" style="stroke:#3c0;marker-end:url(#mea33cc00)"/></g><g id="e000f" class="Edge"  ><path    d="m346.67 320 1.67 73.33" style="stroke:#3c0;marker-end:url(#mea33cc00)"/></g><g id="e0852" class="Edge"  ><path    d="m403.33 466.67h20v36.67h60" style="stroke:#3c0;marker-end:url(#mea33cc00)"/></g><g id="e17a1" class="Edge"  ><path    d="m557 646 19.67 32" style="stroke:#3c0;marker-end:url(#mea33cc00)"/></g><g id="e85a0" class="Edge"  ><path    d="m538.33 582 84-12" style="stroke:#3c0;marker-end:url(#mea33cc00)"/></g><g id="ed14d" class="Edge"  ><path    d="m563.33 503.33 39.33-0.33" style="stroke:#3c0;marker-end:url(#mea33cc00)"/></g><g id="ed3ad" class="Edge"  ><path    d="m363.33 413.33v43.33" style="stroke:#3c0;marker-end:url(#mea33cc00)"/></g><g id="f3d19" class="Edge"  ><path    d="m384.33 578 126 48" style="stroke:#3c0;marker-end:url(#mea33cc00)"/></g><g id="f4295" class="Edge"  ><path    d="m412.87 750.17v10.82h41.51" style="stroke:#3c0;marker-end:url(#mea33cc00)"/></g><g id="f4557" class="Edge"  ><path    d="m324.33 568-137.67 96.67" style="stroke:#3c0;marker-end:url(#mea33cc00)"/></g><g id="f61bc" class="Edge"  ><path    d="m403.33 466.67h56.67" style="stroke:#3c0;marker-end:url(#mea33cc00)"/></g><g id="f805b" class="Edge"  ><path    d="m363.33 476.67 1 81.33" style="stroke:#3c0;marker-end:url(#mea33cc00)"/></g><g id="f86b0" class="Edge"  ><path    d="m300 320v53.67h-73.33" style="stroke:#3c0;marker-end:url(#mea33cc00)"/></g><g id="f8bdf" class="Edge"  ><path    d="m263.33 246.67-66.67 56.67" style="stroke:#3c0;marker-end:url(#mea33cc00)"/></g><g id="fba54" class="Edge"  ><path    d="m196.67 323.33v40.33" style="stroke:#3c0;marker-end:url(#mea33cc00)"/></g><g id="ff02f" class="Edge"  ><path    d="m346.67 236.67-1.4e-13 63.33" style="stroke:#3c0;marker-end:url(#mea33cc00)"/></g><g id="b5743" class="Edge"  ><path    d="m162.35 242.01-7.13-7.59" style="marker-end:none"/></g><g id="ac5a2" class="Edge"  ><path    d="m663.33 234.55-81.67 88.78" style="stroke:#ff8000;marker-end:url(#meaff8000)"/></g><g id="b9f19" class="Edge"  ><path    d="m663.33 234.55-38.33 88.78" style="stroke:#ff8000;marker-end:url(#meaff8000)"/></g><g id="e800f" class="Edge"  ><path    d="m663.33 161.78-35-33.78" style="marker-end:none"/></g><g id="a06eb" class="Edge"  ><path    d="m344.33 578-24.33 72" style="stroke:#3c0;marker-end:url(#mea33cc00)"/></g><g id="aac3a" class="" transform="translate(52.5,525.5)"  ><g class="" filter="url(#doublefalse3filter)"><g class=""><use class=" Node Icon" transform="matrix(0.98 0 0 0.96 5.88 5.76)" width="605" height="289" fill="transparent" stroke="#c0c0c0" stroke-width="3" href="#Ellipse"/></g></g></g><g id="fedc6" class="" transform="translate(27.5,159.5)"  ><g class="" filter="url(#doublefalse3filter)"><g class=""><rect   transform="matrix(0.98 0 0 0.98 5.90 5.90)" width="704" height="685" rx="15" ry="15" stroke-width="3" style="fill:transparent;stroke:#c0c0c0"/></g></g></g><g id="a1c" class="Label" transform="translate(562.67 91.67)"  name="FASL, Inflammatory Cytokines, UV, etc." ><g class="Label"/><text   transform="translate(65.67 18.17)"    font-weight="bold"  style="fill:#00f"><tspan   x="0" y="-5.5">FASL, Inflammatory</tspan><tspan   x="0" y="5.5">Cytokines, UV, etc.</tspan></text></g><g id="a71" class="Label" transform="translate(560.33 457.17)"  name="Translation" ><g class="Label"/><text   transform="translate(45.67 9.5)"    font-weight="bold"  style="fill:#00f;font-size:12px">Translation</text></g><g id="ac4" class="Label" transform="translate(542 593.83)"  name="?" ><g class="Label"/><text   transform="translate(7.67 9.5)"    font-weight="bold"  style="font-size:12px">?</text></g><g id="c24" class="Label" transform="translate(574,280.5)"  name="?" ><g class="Label"/><text   transform="translate(7.67 9.5)"    font-weight="bold"  style="font-size:12px">?</text></g><g id="c4e" class="Label" transform="translate(314 173.17)"  name="?" ><g class="Label"/><text   transform="translate(7.67 9.5)"    font-weight="bold"  style="font-size:12px">?</text></g><g id="c9f" class="Label" transform="translate(79 90.67)"  name="Growth Factors, UV Trophic Factors, etc." ><g class="Label"/><text   transform="translate(63.67 20.67)"    font-weight="bold"  style="fill:#00f"><tspan   x="0" y="-5.5">Growth Factors, UV</tspan><tspan   x="0" y="5.5">Trophic Factors, etc.</tspan></text></g><g id="d55" class="Label" transform="translate(234.83 92)"  name="Stress: Osmotic shock g-radiation, Anisomycin" ><g class="Label"/><text   transform="translate(65.58 14.5)"    font-weight="bold"  style="fill:#00f"><tspan   x="0" y="-5.5">Stress: Osmotic shock</tspan><tspan   x="0" y="5.5">g-radiation, Anisomycin</tspan></text></g><g id="d58" class="Label" transform="translate(617,280.5)"  name="?" ><g class="Label"/><text   transform="translate(7.67 9.5)"    font-weight="bold"  style="font-size:12px">?</text></g><g id="d9e" class="Label" transform="translate(266.33 177.17)"  name="?" ><g class="Label"/><text   transform="translate(7.67 9.5)"    font-weight="bold"  style="font-size:12px">?</text></g><g id="e1b" class="Label" transform="translate(454.38 746.32)"  name="Cytokines Production, Apoptosis, etc." ><g class="Label"/><text   transform="translate(63.17 14.67)"    font-weight="bold"  style="fill:#00f"><tspan   x="0" y="-5.5">Cytokines Production,</tspan><tspan   x="0" y="5.5">Apoptosis, etc.</tspan></text></g><g id="ea8" class="Label" transform="translate(351.37 700.6)"  name="DNA transcription" ><g class="Label"/><text   transform="translate(61.5 24.78)"    font-weight="bold"  style="fill:#33cc00;font-size:12px">DNA transcription</text></g><g id="a00" class="GeneProduct " transform="translate(622.33 560)"  name="MAPKAPK2" ><rect   width="80" height="20"/><text   transform="translate(40,10)"    >MAPKAPK2</text></g><g id="a3f" class="GeneProduct " transform="translate(483.33 493.33)"  name="MAPKAPK5" ><rect   width="80" height="20"/><text   transform="translate(40,10)"    >MAPKAPK5</text></g><g id="a76" class="GeneProduct " transform="translate(602.67 493)"  name="HSPB1" ><rect   width="53.33" height="20"/><text   transform="translate(26.67 10)"    >HSPB1</text></g><g id="ab1" class="GeneProduct " transform="translate(333.33 393.33)"  name="MAP2K6" ><rect   width="60" height="20"/><text   transform="translate(30,10)"    >MAP2K6</text></g><g id="aba" class="GeneProduct " transform="translate(276.67 300)"  name="MAP3K9" ><rect   width="93.33" height="20"/><text   transform="translate(46.67 10)"    >MAP3K9</text></g><g id="b32" class="GeneProduct " transform="translate(253.33 226.67)"  name="RAC1" ><rect   width="40" height="20"/><text   transform="translate(20,10)"    >RAC1</text></g><g id="b42" class="GeneProduct " transform="translate(445.33 158.67)"  name="TGFBR1" ><rect   width="60" height="20"/><text   transform="translate(30,10)"    >TGFBR1</text></g><g id="b4f" class="GeneProduct " transform="translate(413.33 648)"  name="MEF2D" ><rect   width="53.33" height="20"/><text   transform="translate(26.67 10)"    >MEF2D</text></g><g id="b55" class="GeneProduct " transform="translate(475.67 674.67)"  name="ATF2" ><rect   width="40" height="20"/><text   transform="translate(20,10)"    >ATF2</text></g><g id="b96" class="GeneProduct " transform="translate(163.33 664.67)"  name="STAT1" ><rect   width="46.67" height="20"/><text   transform="translate(23.33 10)"    >STAT1</text></g><g id="be9" class="GeneProduct " transform="translate(610 661.33)"  name="CREB1" ><rect   width="46.67" height="20"/><text   transform="translate(23.33 10)"    >CREB1</text></g><g id="c2f" class="GeneProduct " transform="translate(560 323.33)"  name="MAP3K5" ><rect   width="86.67" height="20"/><text   transform="translate(43.33 10)"    >MAP3K5</text></g><g id="c44" class="GeneProduct " transform="translate(460 456.67)"  name="MKNK1" ><rect   width="53.33" height="20"/><text   transform="translate(26.67 10)"    >MKNK1</text></g><g id="c47" class="GeneProduct " transform="translate(432.33 322.33)"  name="MAP3K7" ><rect   width="86.67" height="20"/><text   transform="translate(43.33 10)"    >MAP3K7</text></g><g id="c62" class="GeneProduct " transform="translate(487 626)"  name="RPS6KA5" ><rect   width="93.33" height="20"/><text   transform="translate(46.67 10)"    >RPS6KA5</text></g><g id="c82" class="GeneProduct " transform="translate(323.33 456.67)"  name="MAPK14" ><rect   width="80" height="20"/><text   transform="translate(40,10)"    >MAPK14</text></g><g id="c95" class="GeneProduct " transform="translate(237.33 645.33)"  name="ELK1" ><rect   width="40" height="20"/><text   transform="translate(20,10)"    >ELK1</text></g><g id="cd6" class="GeneProduct " transform="translate(324.33 558)"  name="MAPK14" ><rect   width="80" height="20"/><text   transform="translate(40,10)"    >MAPK14</text></g><g id="d27" class="GeneProduct " transform="translate(155.23 224.43)"  name="HRAS" ><rect   width="46.67" height="20"/><text   transform="translate(23.33 10)"    >HRAS</text></g><g id="d7c" class="GeneProduct " transform="translate(323.33 213.33)"  name="CDC42" ><rect   width="46.67" height="20"/><text   transform="translate(23.33 10)"    >CDC42</text></g><g id="d8d" class="GeneProduct " transform="translate(550,678)"  name="HMGN1" ><rect   width="53.33" height="20"/><text   transform="translate(26.67 10)"    >HMGN1</text></g><g id="db701" class="Pathway" transform="translate(563,386)"  name="Apoptosis" ><g class="Pathway"/><g ><defs><clipPath ><rect x="-40" y="-10" width="80" height="20" style="stroke:none"/></clipPath></defs><text   transform="translate(40,10)"    font-weight="bold"  style="fill:#14961e;font-size:12px">Apoptosis</text></g></g><g id="ddc" class="GeneProduct " transform="translate(97 456.33)"  name="PLA2G4A" ><rect   width="66.67" height="20"/><text   transform="translate(33.33 10)"    >PLA2G4A</text></g><g id="de9" class="GeneProduct " transform="translate(166.67 363.67)"  name="MAP2K4" ><rect   width="60" height="20"/><text   transform="translate(30,10)"    >MAP2K4</text></g><g id="e31" class="GeneProduct " transform="translate(356.67 678)"  name="DDIT3" ><rect   width="73.33" height="20"/><text   transform="translate(36.67 10)"    >DDIT3</text></g><g id="e60" class="GeneProduct " transform="translate(458.33 572)"  name="MAPKAPK2" ><rect   width="80" height="20"/><text   transform="translate(40,10)"    >MAPKAPK2</text></g><g id="ed6" class="GeneProduct " transform="translate(451.67 90.67)"  name="TGFB2" ><rect   width="46.67" height="20"/><text   transform="translate(23.33 10)"    >TGFB2</text></g><g id="f22" class="GeneProduct " transform="translate(146.67 303.33)"  name="MAP3K1" ><rect   width="100" height="20"/><text   transform="translate(50,10)"    >MAP3K1</text></g><g id="d0c2c" class="GroupNone" transform="translate(101.13 174.67)"  ><g class="GroupNone"><rect   width="122.46" height="71.35" fill-opacity=".1" stroke-dasharray="5,3" style="fill:#b4b464;stroke:grey"/><g id="a30" class="GeneProduct " transform="translate(9 42.35)"  name="GRB2" ><rect   width="46.67" height="20"/><text   transform="translate(23.33 10)"    >GRB2</text></g><g id="aa6" class="GeneProduct " transform="translate(15.14 22.35)"  name="SHC1" ><rect   width="40" height="20"/><text   transform="translate(20,10)"    >SHC1</text></g><g id="e3e" class="GeneProduct " transform="translate(46.79 9)"  name="RASGRF1" ><rect   width="66.67" height="20"/><text   transform="translate(33.33 10)"    >RASGRF1</text></g></g></g><g id="fc6c0" class="GroupNone" transform="translate(591 157.33)"  ><g class="GroupNone"><rect   width="144.67" height="81.67" fill-opacity=".1" stroke-dasharray="5,3" style="fill:#b4b464;stroke:grey"/><g id="a3c" class="GeneProduct " transform="translate(52.33 52.67)"  name="TRAF2" ><rect   width="46.67" height="20"/><text   transform="translate(23.33 10)"    >TRAF2</text></g><g id="c5a" class="GeneProduct " transform="translate(38.33 9)"  name="RIPK1" ><rect   width="46.67" height="20"/><text   transform="translate(23.33 10)"    >RIPK1</text></g><g id="f1f" class="GeneProduct " transform="translate(89 19.33)"  name="DAXX" ><rect   width="46.67" height="20"/><text   transform="translate(23.33 10)"    >DAXX</text></g><g id="ffe" class="GeneProduct " transform="translate(9,36)"  name="TRADD" ><rect   width="53.33" height="20"/><text   transform="translate(26.67 10)"    >TRADD</text></g></g></g><g id="fc9d5" class="GroupGroup" transform="translate(292,650)"  ><g class="GroupGroup"><g id="cae" class="GeneProduct " transform="translate(8,8)"  name="MAX" ><rect   width="40" height="20"/><text   transform="translate(20,10)"    >MAX</text></g><g id="ffb" class="GeneProduct " transform="translate(8,28)"  name="MYC" ><rect   width="40" height="20"/><text   transform="translate(20,10)"    >MYC</text></g></g></g><g id="a041e" class="" transform="translate(138.67 605.73)"  name="Transcription factors" ><g class=""><rect   width="530.48" height="118.7" style="fill:transparent"/></g><g ><defs><clipPath ><rect x="-8" y="-104.1" width="530.48" height="118.7" style="stroke:none"/></clipPath></defs><text   transform="translate(8 104.1)"     style="text-anchor:start;font-size:12px">Transcription factors</text></g></g></g></g></g></svg>