<?xml version="1.0" encoding="UTF-8"?>
<svg xmlns="http://www.w3.org/2000/svg" id="-svg" class="Diagram"  baseProfile="full" prefix="schema:http://schema.org/" preserveAspectRatio="xMidYMid"  version="1.1"><defs><g id="icon-defs"><symbol id="HexagonPathVisio" class=" Icon HexagonPathVisio" x="0" y="8" overflow="visible" preserveAspectRatio="none" viewBox="0 8 100 86"><desc>HexagonPathVisio</desc><g transform="scale(1 0.85)"><path d="m1.42 51.00 21.07-42.14h56.19l21.07 42.14-21.07 42.15h-56.19l-21.07-42.15z" stroke="currentColor" vector-effect="non-scaling-stroke"/></g></symbol><symbol id="Octagon" class=" Icon Octagon" x="0" y="0" overflow="visible" preserveAspectRatio="none" viewBox="0 0 100 100"><desc>Octagon</desc><path d="m0 25 25-25h50l25 25v50l-25 25h-50l-25-25z" vector-effect="non-scaling-stroke"/></symbol></g><g id="marker-defs"><marker id="mea" markerHeight="12" markerWidth="12" orient="auto" preserveAspectRatio="none" refX="12" refY="6" viewBox="0 0 12 12"><g id="g-mea" transform=""><g transform="rotate(180 6 6)"><rect y="5.4" width="2" height="1.2" style="stroke:#fff"/><polygon points="12 11 0 6 12 1" stroke-width="0"/></g></g></marker></g></defs><g id="viewport-20220102142905748" class="svg-pan-zoom_viewport" transform="matrix(0.70 0 0 0.70 108.07 0)" style="transform:matrix(0.70, 0, 0, 0.70, 108.07, 0)"><style>svg.Diagram {font-family: 'Liberation Sans', Arial, sans-serif; }.Diagram path {fill: transparent;stroke: #000;marker-end: url(#mea);}.Diagram symbol path {fill: inherit;stroke: inherit;stroke-width: inherit;marker-end: inherit;}.Diagram rect {fill: #fff;stroke: #000;}.Diagram text {dominant-baseline: central;overflow: hidden;text-anchor: middle;fill: #000;font-size: 10px;}</style><style type="text/css">.Viewport .textContent {
  pointer-events: none;
  stroke-width: 0px;
}

					.Viewport.Icon {
  fill: white;
}

/* Hide the InfoBox */
.Viewport.textContent {
  font-size: 0;
}

.textContent {
  stroke: none;
}

.DataNode {
  stroke-miterlimit: 1;
  pointer-events: auto;
}

.DataNode:hover {
  cursor: pointer;
}

/* TODO should this apply to things other than DataNodes? */
.DataNode.textContent {
  pointer-events: none;
}

.DataNode.Highlighted {
  opacity: 0.6;
  stroke-width: 0px;
}

marker {
  /* this is what should work per the spec
  stroke-dasharray: none; */
  /* but I need to add this to make it work in Safari */
  stroke-dasharray: 9999999999999999999999999;
}

.Citation.Icon {
  fill: none;
  stroke-width: 0px;
}

.Citation.textContent {
  text-align: center;
  vertical-align: top;
  font-size: 7px;
  fill: #999;
  fill-opacity: 1;
  stroke: none;
}</style><g id="WP4046" class="Pathway Viewport"  name="Name: Receptor-type tyrosine-protein phosphatases Organism: Homo sapiens" ><g class="Pathway Viewport"><rect   width="1400" height="1016" style="stroke:none"/><g id="ac0e0" class="Reactome_R-HSA-388824"  ><path    d="m1150 218h75" style="marker-end:none"/><g id="a8205" class="AB" transform="translate(1150,218)"  ><g class="AB"/></g><g id="a2774" class="AB" transform="translate(1224.2 218)"  ><g class="AB"/></g></g><g id="adbbc" class="Reactome_R-HSA-6798257"  ><path    d="m755 213h62" style="marker-end:none"/><g id="d2a5b" class="AB" transform="translate(755,213)"  ><g class="AB"/></g><g id="b0d7a" class="AB" transform="translate(816.38,213)"  ><g class="AB"/></g></g><g id="ae5da" class="Reactome_R-HSA-6797810"  ><path    d="m120 215h63" style="marker-end:none"/><g id="ec634" class="AB" transform="translate(120,215)"  ><g class="AB"/></g><g id="df3d4" class="AB" transform="translate(182.37,215)"  ><g class="AB"/></g></g><g id="ae937" class="Reactome_R-HSA-388824"  ><path    d="m1225 218 3 1"/></g><g id="b7cbf" class="Reactome_R-HSA-6798257"  ><path    d="m744 260 11-47" style="marker-end:none"/></g><g id="bf009" class="Reactome_R-HSA-388824"  ><path    d="m1129 249 21-31" style="marker-end:none"/></g><g id="c5610" class="Reactome_R-HSA-6800380"  ><path    d="m337 210h58" style="marker-end:none"/><g id="cc27c" class="AB" transform="translate(337,210)"  ><g class="AB"/></g><g id="eea96" class="AB" transform="translate(394.42,210)"  ><g class="AB"/></g></g><g id="c8522" class="Reactome_R-HSA-6797810"  ><path    d="m183 215 3 2"/></g><g id="cd5fd" class="Reactome_R-HSA-6800380"  ><path    d="m331 260 6-50" style="marker-end:none"/></g><g id="cf526" class="Reactome_R-HSA-388824"  ><path    d="m968 175 182 43" style="marker-end:none"/></g><g id="cf826" class="Reactome_R-HSA-6797803"  ><path    d="m511 213h62" style="marker-end:none"/><g id="a0c5a" class="AB" transform="translate(511,213)"  ><g class="AB"/></g><g id="bee02" class="AB" transform="translate(572.38,213)"  ><g class="AB"/></g></g><g id="b25e2" class="Reactome_R-HSA-6797803"  ><path    d="m495 260 16-47" style="marker-end:none"/></g><g id="d52ab" class="Reactome_R-HSA-6800380"  ><path    d="m111 179 226 31" style="marker-end:none"/></g><g id="d675d" class="Reactome_R-HSA-6797810"  ><path    d="m111 179 9 36" style="marker-end:none"/></g><g id="df967" class="Reactome_R-HSA-6798257"  ><path    d="m817 213 3 1"/></g><g id="e15fb" class="Reactome_R-HSA-6797803"  ><path    d="m111 179 400 34" style="marker-end:none"/></g><g id="ea8f6" class="Reactome_R-HSA-6800380"  ><path    d="m395 210 3 1"/></g><g id="ee6d3" class="Reactome_R-HSA-6798258"  ><path    d="m935 218h69" style="marker-end:none"/><g id="e2ea9" class="AB" transform="translate(935,218)"  ><g class="AB"/></g><g id="d08cf" class="AB" transform="translate(1003.3 218)"  ><g class="AB"/></g></g><g id="d397f" class="Reactome_R-HSA-6798258"  ><path    d="m908 190 27 28" style="marker-end:none"/></g><g id="b10b6" class="Reactome_R-HSA-6798258"  ><path    d="m1004 218 3 1"/></g><g id="f20c3" class="Reactome_R-HSA-6798258"  ><path    d="m938 254-3-36" style="marker-end:none"/></g><g id="f7f3e" class="Reactome_R-HSA-6798257"  ><path    d="m736 179 19 34" style="marker-end:none"/></g><g id="f9459" class="Reactome_R-HSA-6797810"  ><path    d="m94 249 26-34" style="marker-end:none"/></g><g id="fbb5c" class="Reactome_R-HSA-6797803"  ><path    d="m573 213h3"/></g><g id="c534b" class="GroupGroup" transform="translate(-4,11)"  ><g class="GroupGroup"><g id="bc2c9" class="" transform="translate(8,8)"  ><g class=""><rect   transform="matrix(1.00 0 0 0.98 1.50 1.48)" width="1366" height="179" rx="15" ry="15" stroke-width="3" style="fill:transparent;stroke:#c0c0c0"/></g></g><g id="f6436" class="Label" transform="translate(675,87)"  name="cytosol" ><g class="Label"/><text   transform="translate(32,16.5)"    >cytosol</text></g></g></g><g id="d71f3" class="GroupGroup" transform="translate(-2,231)"  ><g class="GroupGroup"><g id="be31e" class="" transform="translate(8,8)"  ><g class=""><rect   transform="matrix(1.00 0 0 0.98 1.50 1.47)" width="1361" height="169" rx="15" ry="15" stroke-width="3" style="fill:transparent;stroke:#c0c0c0"/></g></g><g id="b8460" class="Label" transform="translate(674,87)"  name="cytosol" ><g class="Label"/><text   transform="translate(32,16.5)"    >cytosol</text></g></g></g><g id="b116d" class="Label" transform="translate(577,324)"  name="Postsynaptic" ><g class="Label"/><text   transform="translate(50,12)"    >Postsynaptic</text></g><g id="cb21d" class="Label" transform="translate(581,105)"  name="Presynaptic" ><g class="Label"/><text   transform="translate(48.5,10.5)"    >Presynaptic</text></g><g id="d99f6" class="Label" transform="translate(669,198)"  name="Synaptic cleft" ><g class="Label"/><text   transform="translate(31,20)"    >Synaptic cleft</text></g><g id="a2930" class="Protein-1" transform="translate(267,249)"  name="IL1RAP-1" ><rect   width="64" height="22"/><text   transform="translate(32,11)"    >IL1RAP-1</text></g><g id="ab69c" class="Protein" transform="translate(692,168)"  name="PTPRS" ><rect   width="44" height="22"/><text   transform="translate(22,11)"    >PTPRS</text></g><g id="aefc9" class="Complex Reactome_R-HSA-6797901" transform="translate(186,199)"  name="PTPRD:IL1RAPL1,(IL1RAPL2)" ><g class="Complex Reactome_R-HSA-6797901"><use class="Complex Reactome_R-HSA-6797901 Node Icon" width="114" height="36" fill="#fff" stroke="#a52a2a" href="#HexagonPathVisio"/></g><g ><defs><clipPath ><rect x="-57" y="-18" width="114" height="36" style="stroke:none"/></clipPath></defs><text   transform="translate(57,18)"     style="fill:#a52a2a">PTPRD:IL1RAPL1,(IL1RAPL2)</text></g></g><g id="b2d31" class="Protein" transform="translate(878,243)"  name="LRRC4B" ><rect   width="60" height="22"/><text   transform="translate(30,11)"    >LRRC4B</text></g><g id="b322f" class="Complex Reactome_R-HSA-6797845" transform="translate(32,249)"  name="IL1RAPL1,(IL1RAPL2)" ><g class="Complex Reactome_R-HSA-6797845"><rect   width="125" height="22" rx="15" ry="15" style="stroke:#a52a2a"/></g><g ><defs><clipPath ><rect x="-62.5" y="-11" width="125" height="22" style="stroke:none"/></clipPath></defs><text   transform="translate(62.5,11)"     style="fill:#a52a2a">IL1RAPL1,(IL1RAPL2)</text></g></g><g id="b7d04" class="Complex Reactome_R-HSA-6800384" transform="translate(398,192)"  name="PTPRD:IL1RAP-1" ><g class="Complex Reactome_R-HSA-6800384"><use class="Complex Reactome_R-HSA-6800384 Node Icon" width="82" height="38" fill="#fff" stroke="#a52a2a" href="#HexagonPathVisio"/></g><g ><defs><clipPath ><rect x="-41" y="-19" width="82" height="38" style="stroke:none"/></clipPath></defs><text   transform="translate(41,19)"     style="fill:#a52a2a">PTPRD:IL1RAP-1</text></g></g><g id="bd801" class="Complex Reactome_R-HSA-6797827" transform="translate(576,195)"  name="SLITRK1-6:PTPRD" ><g class="Complex Reactome_R-HSA-6797827"><use class="Complex Reactome_R-HSA-6797827 Node Icon" width="84" height="37" fill="#fff" stroke="#a52a2a" href="#HexagonPathVisio"/></g><g ><defs><clipPath ><rect x="-42" y="-18.5" width="84" height="37" style="stroke:none"/></clipPath></defs><text   transform="translate(42,18.5)"     style="fill:#a52a2a">SLITRK1-6:PTPRD</text></g></g><g id="c5de2" class="Complex Reactome_R-HSA-383387" transform="translate(1228,201)"  name="LAR,PTPRS,PTPRD:Liprins" ><g class="Complex Reactome_R-HSA-383387"><use class="Complex Reactome_R-HSA-383387 Node Icon" width="115" height="36" fill="#fff" stroke="#a52a2a" href="#HexagonPathVisio"/></g><g ><defs><clipPath ><rect x="-57.5" y="-18" width="115" height="36" style="stroke:none"/></clipPath></defs><text   transform="translate(57.5,18)"     style="fill:#a52a2a">LAR,PTPRS,PTPRD:Liprins</text></g></g><g id="c660c" class="Protein" transform="translate(694,249)"  name="NTRK3" ><rect   width="50" height="22"/><text   transform="translate(25,11)"    >NTRK3</text></g><g id="cfd5b" class="Complex Reactome_R-HSA-6798238" transform="translate(848,160)"  name="PTPRF, PTPRS, PTPRD" ><g class="Complex Reactome_R-HSA-6798238"><rect   width="120" height="30" rx="15" ry="15" style="stroke:#a52a2a"/></g><g ><defs><clipPath ><rect x="-60" y="-15" width="120" height="30" style="stroke:none"/></clipPath></defs><text   transform="translate(60,15)"     style="fill:#a52a2a">PTPRF, PTPRS, PTPRD</text></g></g><g id="d31cb" class="Complex Reactome_R-HSA-6799309" transform="translate(1098,249)"  name="Liprins" ><g class="Complex Reactome_R-HSA-6799309"><rect   width="62" height="23" rx="15" ry="15" style="stroke:#a52a2a"/></g><g ><defs><clipPath ><rect x="-31" y="-11.5" width="62" height="23" style="stroke:none"/></clipPath></defs><text   transform="translate(31,11.5)"     style="fill:#a52a2a">Liprins</text></g></g><g id="ddf0e" class="Complex Reactome_R-HSA-6798231" transform="translate(820,203)"  name="PTPRS:NTRK3" ><g class="Complex Reactome_R-HSA-6798231"><use class="Complex Reactome_R-HSA-6798231 Node Icon" width="90" height="22" fill="#fff" stroke="#a52a2a" href="#HexagonPathVisio"/></g><g ><defs><clipPath ><rect x="-45" y="-11" width="90" height="22" style="stroke:none"/></clipPath></defs><text   transform="translate(45,11)"     style="fill:#a52a2a">PTPRS:NTRK3</text></g></g><g id="dfee0" class="Protein" transform="translate(63,168)"  name="PTPRD" ><rect   width="48" height="22"/><text   transform="translate(24,11)"    >PTPRD</text></g><g id="ef0df" class="Complex Reactome_R-HSA-6798251" transform="translate(1007,201)"  name="LRRC4B:PTPRF,PTPRS,PTPRD" ><g class="Complex Reactome_R-HSA-6798251"><use class="Complex Reactome_R-HSA-6798251 Node Icon" width="121" height="36" fill="#fff" stroke="#a52a2a" href="#HexagonPathVisio"/></g><g ><defs><clipPath ><rect x="-60.5" y="-18" width="121" height="36" style="stroke:none"/></clipPath></defs><text   transform="translate(60.5,18)"     style="fill:#a52a2a">LRRC4B:PTPRF,PTPRS,PTPRD</text></g></g><g id="f50c2" class="Complex Reactome_R-HSA-6797785" transform="translate(425,249)"  name="SLITRK1-6" ><g class="Complex Reactome_R-HSA-6797785"><rect   width="71" height="22" rx="15" ry="15" style="stroke:#a52a2a"/></g><g ><defs><clipPath ><rect x="-35.5" y="-11" width="71" height="22" style="stroke:none"/></clipPath></defs><text   transform="translate(35.5,11)"     style="fill:#a52a2a">SLITRK1-6</text></g></g><g id="b642c" class="GroupNone" transform="translate(181,757)"  ><g class="GroupNone"><rect   width="118" height="58" fill-opacity=".1" stroke-dasharray="5,3" style="fill:#b4b464;stroke:grey"/><g id="cc380" class="Unknown Reactome_R-HSA-6799298" transform="translate(9,9)"  name="Beta-liprins" ><rect   width="100" height="20"/><text   transform="translate(50,10)"    >Beta-liprins</text></g><g id="e7bbe" class="Unknown Reactome_R-HSA-383385" transform="translate(9,29)"  name="Alpha-liprins" ><rect   width="100" height="20"/><text   transform="translate(50,10)"    >Alpha-liprins</text></g></g></g><g id="b9d15" class="GroupComplex" transform="translate(178,454)"  ><g class="GroupComplex"><use class="Icon" width="124" height="64" fill="#b4b464" fill-opacity=".1" stroke="grey" href="#Octagon"/><g id="c88e2" class="Protein" transform="translate(12,32)"  name="PTPRS" ><rect   width="100" height="20"/><text   transform="translate(50,10)"    >PTPRS</text></g><g id="d5f3d" class="Protein" transform="translate(12,12)"  name="NTRK3" ><rect   width="100" height="20"/><text   transform="translate(50,10)"    >NTRK3</text></g></g></g><g id="dc04b" class="GroupComplex" transform="translate(38,494)"  ><g class="GroupComplex"><use class="Icon" width="124" height="84" fill="#b4b464" fill-opacity=".1" stroke="grey" href="#Octagon"/><g id="bd711" class="Protein" transform="translate(12,52)"  name="PTPRD" ><rect   width="100" height="20"/><text   transform="translate(50,10)"    >PTPRD</text></g><g id="bec50" class="Protein" transform="translate(12,12)"  name="IL1RAPL2" ><rect   width="100" height="20"/><text   transform="translate(50,10)"    >IL1RAPL2</text></g><g id="f7d90" class="Protein" transform="translate(12,32)"  name="IL1RAPL1" ><rect   width="100" height="20"/><text   transform="translate(50,10)"    >IL1RAPL1</text></g></g></g><g id="dfa1b" class="GroupNone" transform="translate(181,537)"  ><g class="GroupNone"><rect   width="118" height="78" fill-opacity=".1" stroke-dasharray="5,3" style="fill:#b4b464;stroke:grey"/><g id="acad7" class="Protein" transform="translate(9,9)"  name="PTPRF" ><rect   width="100" height="20"/><text   transform="translate(50,10)"    >PTPRF</text></g><g id="bfae5" class="Protein" transform="translate(9,49)"  name="PTPRS" ><rect   width="100" height="20"/><text   transform="translate(50,10)"    >PTPRS</text></g><g id="cdddf" class="Protein" transform="translate(9,29)"  name="PTPRD" ><rect   width="100" height="20"/><text   transform="translate(50,10)"    >PTPRD</text></g></g></g><g id="e0a53" class="GroupComplex" transform="translate(178,634)"  ><g class="GroupComplex"><use class="Icon" width="124" height="104" fill="#b4b464" fill-opacity=".1" stroke="grey" href="#Octagon"/><g id="ce7e3" class="Protein" transform="translate(12,72)"  name="LRRC4B" ><rect   width="100" height="20"/><text   transform="translate(50,10)"    >LRRC4B</text></g><g id="dc9bd" class="Protein" transform="translate(12,12)"  name="PTPRF" ><rect   width="100" height="20"/><text   transform="translate(50,10)"    >PTPRF</text></g><g id="e0ef4" class="Protein" transform="translate(12,32)"  name="PTPRD" ><rect   width="100" height="20"/><text   transform="translate(50,10)"    >PTPRD</text></g><g id="e6ef5" class="Protein" transform="translate(12,52)"  name="PTPRS" ><rect   width="100" height="20"/><text   transform="translate(50,10)"    >PTPRS</text></g></g></g><g id="ee0eb" class="GroupComplex" transform="translate(178,834)"  ><g class="GroupComplex"><use class="Icon" width="124" height="124" fill="#b4b464" fill-opacity=".1" stroke="grey" href="#Octagon"/><g id="acddc" class="Protein" transform="translate(12,12)"  name="PTPRF" ><rect   width="100" height="20"/><text   transform="translate(50,10)"    >PTPRF</text></g><g id="b0208" class="Unknown Reactome_R-HSA-6799298" transform="translate(12,72)"  name="Beta-liprins" ><rect   width="100" height="20"/><text   transform="translate(50,10)"    >Beta-liprins</text></g><g id="d6624" class="Protein" transform="translate(12,52)"  name="PTPRS" ><rect   width="100" height="20"/><text   transform="translate(50,10)"    >PTPRS</text></g><g id="eb4d4" class="Unknown Reactome_R-HSA-383385" transform="translate(12,92)"  name="Alpha-liprins" ><rect   width="100" height="20"/><text   transform="translate(50,10)"    >Alpha-liprins</text></g><g id="edf8c" class="Protein" transform="translate(12,32)"  name="PTPRD" ><rect   width="100" height="20"/><text   transform="translate(50,10)"    >PTPRD</text></g></g></g><g id="f46be" class="GroupComplex" transform="translate(38,834)"  ><g class="GroupComplex"><use class="Icon" width="124" height="164" fill="#b4b464" fill-opacity=".1" stroke="grey" href="#Octagon"/><g id="cb155" class="Protein" transform="translate(12,52)"  name="SLITRK2" ><rect   width="100" height="20"/><text   transform="translate(50,10)"    >SLITRK2</text></g><g id="d3f5d" class="Protein" transform="translate(12,32)"  name="SLITRK1" ><rect   width="100" height="20"/><text   transform="translate(50,10)"    >SLITRK1</text></g><g id="dd243" class="Protein" transform="translate(12,92)"  name="SLITRK4" ><rect   width="100" height="20"/><text   transform="translate(50,10)"    >SLITRK4</text></g><g id="dd2f4" class="Protein" transform="translate(12,112)"  name="SLITRK5" ><rect   width="100" height="20"/><text   transform="translate(50,10)"    >SLITRK5</text></g><g id="e1395" class="Protein" transform="translate(12,132)"  name="SLITRK6" ><rect   width="100" height="20"/><text   transform="translate(50,10)"    >SLITRK6</text></g><g id="e5626" class="Protein" transform="translate(12,12)"  name="PTPRD" ><rect   width="100" height="20"/><text   transform="translate(50,10)"    >PTPRD</text></g><g id="f8fa9" class="Protein" transform="translate(12,72)"  name="SLITRK3" ><rect   width="100" height="20"/><text   transform="translate(50,10)"    >SLITRK3</text></g></g></g><g id="fb0f1" class="GroupNone" transform="translate(41,417)"  ><g class="GroupNone"><rect   width="118" height="58" fill-opacity=".1" stroke-dasharray="5,3" style="fill:#b4b464;stroke:grey"/><g id="bca1a" class="Protein" transform="translate(9,29)"  name="IL1RAPL1" ><rect   width="100" height="20"/><text   transform="translate(50,10)"    >IL1RAPL1</text></g><g id="d8cd8" class="Protein" transform="translate(9,9)"  name="IL1RAPL2" ><rect   width="100" height="20"/><text   transform="translate(50,10)"    >IL1RAPL2</text></g></g></g><g id="fdb1f" class="GroupNone" transform="translate(41,677)"  ><g class="GroupNone"><rect   width="118" height="138" fill-opacity=".1" stroke-dasharray="5,3" style="fill:#b4b464;stroke:grey"/><g id="aa81f" class="Protein" transform="translate(9,89)"  name="SLITRK5" ><rect   width="100" height="20"/><text   transform="translate(50,10)"    >SLITRK5</text></g><g id="b5f58" class="Protein" transform="translate(9,69)"  name="SLITRK4" ><rect   width="100" height="20"/><text   transform="translate(50,10)"    >SLITRK4</text></g><g id="b9cc6" class="Protein" transform="translate(9,49)"  name="SLITRK3" ><rect   width="100" height="20"/><text   transform="translate(50,10)"    >SLITRK3</text></g><g id="e6470" class="Protein" transform="translate(9,29)"  name="SLITRK2" ><rect   width="100" height="20"/><text   transform="translate(50,10)"    >SLITRK2</text></g><g id="f0f81" class="Protein" transform="translate(9,9)"  name="SLITRK1" ><rect   width="100" height="20"/><text   transform="translate(50,10)"    >SLITRK1</text></g><g id="f4f88" class="Protein" transform="translate(9,109)"  name="SLITRK6" ><rect   width="100" height="20"/><text   transform="translate(50,10)"    >SLITRK6</text></g></g></g><g id="ff306" class="GroupComplex" transform="translate(38,594)"  ><g class="GroupComplex"><use class="Icon" width="124" height="64" fill="#b4b464" fill-opacity=".1" stroke="grey" href="#Octagon"/><g id="aa84e" class="Protein" transform="translate(12,32)"  name="PTPRD" ><rect   width="100" height="20"/><text   transform="translate(50,10)"    >PTPRD</text></g><g id="e7e97" class="Protein-1" transform="translate(12,12)"  name="IL1RAP-1" ><rect   width="100" height="20"/><text   transform="translate(50,10)"    >IL1RAP-1</text></g></g></g></g></g></g></svg>