<?xml version="1.0" encoding="UTF-8"?>
<svg xmlns="http://www.w3.org/2000/svg" id="-svg" class="Diagram"  baseProfile="full" prefix="schema:http://schema.org/" preserveAspectRatio="xMidYMid"  version="1.1"><defs><g id="filter-defs"><filter id="doublefalse3filter" x="-50%" y="-50%" width="200%" height="200%"><feComposite in="SourceGraphic" in2="SourceGraphic" result="doubleDark"/><feMorphology in="doubleDark" operator="dilate" radius="0.17" result="in2Double"/><feMorphology in="SourceGraphic" operator="dilate" radius="3" result="inDouble"/><feComposite in="inDouble" in2="in2Double" operator="out" result="doubleResult"/></filter></g><g id="icon-defs"><symbol id="Ellipse" class=" Icon Ellipse" x="0" y="0" overflow="visible" preserveAspectRatio="none" viewBox="0 0 50 50"><desc>Ellipse</desc><ellipse cx="25" cy="25" rx="25" ry="25" vector-effect="non-scaling-stroke"/></symbol></g><g id="marker-defs"><marker id="mea" markerHeight="12" markerWidth="12" orient="auto" preserveAspectRatio="none" refX="12" refY="6" viewBox="0 0 12 12"><g id="g-mea" transform=""><g transform="rotate(180 6 6)"><rect y="5.4" width="2" height="1.2" style="stroke:#fff"/><polygon points="12 11 0 6 12 1" stroke-width="0"/></g></g></marker><marker id="markerendtbar000" markerHeight="20" markerWidth="10" orient="auto" preserveAspectRatio="none" refX="10" refY="10" viewBox="0 0 10 20"><g id="g-markerendtbar000" transform=""><g transform="rotate(180 5 10)"><rect y="9" width="8" height="2" style="stroke:none"/><line x="0" y="0" width="12" height="12" x1="7" x2="7" y2="20" stroke="#000" stroke-width="1.8"/></g></g></marker></g></defs><g id="viewport-20220102143348745" class="svg-pan-zoom_viewport" transform="matrix(0.97 0 0 0.97 137.31 0)" style="transform:matrix(0.97, 0, 0, 0.97, 137.31, 0)"><style>svg.Diagram {font-family: 'Liberation Sans', Arial, sans-serif; }.Diagram path {fill: transparent;stroke: #000;marker-end: url(#mea);}.Diagram symbol path {fill: inherit;stroke: inherit;stroke-width: inherit;marker-end: inherit;}.Diagram rect {fill: #fff;stroke: #000;}.Diagram text {dominant-baseline: central;overflow: hidden;text-anchor: middle;fill: #000;font-size: 12px;}</style><style type="text/css">.Viewport .textContent {
  pointer-events: none;
  stroke-width: 0px;
}

					.Viewport.Icon {
  fill: white;
}

/* Hide the InfoBox */
.Viewport.textContent {
  font-size: 0;
}

.textContent {
  stroke: none;
}

.DataNode {
  stroke-miterlimit: 1;
  pointer-events: auto;
}

.DataNode:hover {
  cursor: pointer;
}

/* TODO should this apply to things other than DataNodes? */
.DataNode.textContent {
  pointer-events: none;
}

.DataNode.Highlighted {
  opacity: 0.6;
  stroke-width: 0px;
}

marker {
  /* this is what should work per the spec
  stroke-dasharray: none; */
  /* but I need to add this to make it work in Safari */
  stroke-dasharray: 9999999999999999999999999;
}

.Citation.Icon {
  fill: none;
  stroke-width: 0px;
}

.Citation.textContent {
  text-align: center;
  vertical-align: top;
  font-size: 7px;
  fill: #999;
  fill-opacity: 1;
  stroke: none;
}</style><g id="WP4197" class="Pathway Viewport"  name="Name: Immune response to tuberculosis Organism: Homo sapiens" ><g class="Pathway Viewport"><rect   width="953.89" height="736" style="stroke:none"/><g id="ade77" class=" PhysicalEntity CellularComponent Nucleus" transform="translate(82.5,409.5)"  ><g class=" PhysicalEntity CellularComponent Nucleus" filter="url(#doublefalse3filter)"><g class=" PhysicalEntity CellularComponent Nucleus"><rect   transform="matrix(0.99 0 0 0.96 5.91 5.74)" width="800" height="268" rx="15" ry="15" stroke-width="3" style="fill:transparent;stroke:#c0c0c0"/></g></g></g><g id="id142d0286" class="Edge"  ><path    d="m196.06 217.96 46.33 32.86"/></g><g id="id1b8eb9d7" class="Edge"  ><path    d="m417.3 217.96 42.78 32.86"/></g><g id="id24a309bf" class="Edge"  ><path    d="m139.35 208.96 26.71-1" style="marker-end:url(#markerendtbar000)"/></g><g id="id258ea6f2" class="Edge"  ><path    d="m639.83 163.06v33.90"/></g><g id="id27e0175c" class="Edge"  ><path    d="m508.14 164.06v33.90" style="marker-end:none"/></g><g id="id28d8435c" class="Edge"  ><path    d="m288.86 217.96-46.47 32.86"/></g><g id="id2ea2a494" class="Edge"  ><path    d="m196.06 164.06v33.90"/></g><g id="id31d0964a" class="Edge"  ><path    d="m226.06 207.96h32.80"/></g><g id="id395f5f25" class="Edge"  ><path    d="m756.71 254.82h28.07" style="marker-end:url(#markerendtbar000)"/></g><g id="id51c04014" class="Edge"  ><path    d="m696.71 254.82h-26.88" style="marker-end:url(#markerendtbar000)"/></g><g id="id6addf71d" class="Edge"  ><path    d="m288.86 164.06-1e-13 33.90" style="marker-end:none"/></g><g id="id721ae914" class="Edge"  ><path    d="m417.3 164.06v33.90"/></g><g id="id7e6d716e" class="Edge"  ><path    d="m814.78 216.96v32.86"/></g><g id="id8914a552" class="Edge"  ><path    d="m639.83 113.63v29.43"/></g><g id="id9bf5b43c" class="Edge"  ><path    d="m196.06 114.63v29.43"/></g><g id="ida381805d" class="Edge"  ><path    d="m508.14 217.96-48.06 32.86"/></g><g id="idaf544be5" class="Edge"  ><path    d="m639.83 216.96v32.86"/></g><g id="idb060e9ba" class="Edge"  ><path    d="m447.3 207.96h30.84"/></g><g id="idda80d1d4" class="Edge"  ><path    d="m624.83 196.96v-33.90"/></g><g id="idf0cd7ca" class="Edge"  ><path    d="m814.78 163.06v33.90"/></g><g id="id804954a5" class="Edge"  ><path    d="m314 453.82-32.76 0.08" style="marker-end:none"/></g><g id="idb3e46b59" class="Edge"  ><path    d="m165.88 470.17 39.13 0.12" style="marker-end:url(#markerendtbar000)"/></g><g id="id68beada1" class="Edge"  ><path    d="m639.83 269.82 95.44 51.24"/></g><g id="id90a0475d" class="Edge"  ><path    d="m814.78 269.82-79.51 51.24"/></g><g id="ided1c1475" class="Edge"  ><path    d="m735.27 386.92-0.25 52.68"/></g><g id="id25789d97" class="Edge"  ><path    d="m734.95 507.12-0.78 29.57"/></g><g id="id3541cfab" class="Edge"  ><path    d="m773.03 458.35 24.86-0.06" style="marker-end:none"/></g><g id="idac7e73ac" class="Edge"  ><path    d="m243.12 503.06 0.62 28.78"/></g><g id="id2c0f317" class="Edge"  ><path    d="m242.61 388.53 0.51 48.98"/></g><g id="idfead600f" class="Edge"  ><path    d="m242.39 270.82 0.21 52.17"/></g><g id="f2701" class=" PhysicalEntity CellularComponent Cell" transform="translate(52.5,68.5)"  ><g class=" PhysicalEntity CellularComponent Cell" filter="url(#doublefalse3filter)"><g class=" PhysicalEntity CellularComponent Cell"><rect   transform="matrix(0.99 0 0 0.98 5.92 5.89)" width="860" height="639" rx="15" ry="15" stroke-width="3" style="fill:transparent;stroke:#c0c0c0"/></g></g></g><g id="a87b3" class="Protein" transform="translate(166.06 94.63)"  name="IFNG" ><rect   width="60" height="20"/><text   transform="translate(30,10)"    >IFNG</text></g><g id="bdfa2" class="GeneProduct " transform="translate(430.08 250.82)"  name="SOCS1" ><rect   width="60" height="20"/><text   transform="translate(30,10)"    >SOCS1</text></g><g id="bfa49" class="GeneProduct " transform="translate(212.39 250.82)"  name="STAT1" ><rect   width="60" height="20"/><g id="b4504" class="State Burr" transform="translate(-7.5,-7.5)"  ><g class="State Burr"><use class="State Burr Node Icon" width="15" height="15" fill="#fff" stroke="#000" href="#Ellipse"/></g></g><text   transform="translate(30,10)"    >STAT1</text></g><g id="bfeee" class="GeneProduct " transform="translate(105.88 460.17)"  name="PIAS1" ><rect   width="60" height="20"/><text   transform="translate(30,10)"    >PIAS1</text></g><g id="c3ca9" class="GeneProduct " transform="translate(797.89 448.29)"  name="IRF9" ><rect   width="60" height="20"/><text   transform="translate(30,10)"    >IRF9</text></g><g id="c8726" class="GeneProduct " transform="translate(166.06 144.06)"  name="IFNGR1" ><rect   width="60" height="20"/><text   transform="translate(30,10)"    >IFNGR1</text></g><g id="cec9e" class="GeneProduct " transform="translate(314 443.82)"  name="PTPN2" ><rect   width="60" height="20"/><text   transform="translate(30,10)"    >PTPN2</text></g><g id="e7b35" class="GeneProduct " transform="translate(609.83 196.96)"  name="TYK2" ><rect   width="60" height="20"/><text   transform="translate(30,10)"    >TYK2</text></g><g id="eb10a" class="GeneProduct " transform="translate(166.06 197.96)"  name="JAK1" ><rect   width="60" height="20"/><text   transform="translate(30,10)"    >JAK1</text></g><g id="c5226" class="GroupGroup" transform="translate(205.01 437.52)"  ><g class="GroupGroup"><g id="c001a" class="GeneProduct " transform="translate(8,8)"  name="STAT1" ><rect   width="60" height="20"/><g id="d6d4e" class="State Burr" transform="translate(-7.5,-7.5)"  ><g class="State Burr"><use class="State Burr Node Icon" width="15" height="15" fill="#fff" stroke="#000" href="#Ellipse"/></g></g><text   transform="translate(30,10)"    >STAT1</text></g><g id="ffea2" class="GeneProduct " transform="translate(8.23 37.54)"  name="STAT1" ><rect   width="60" height="20"/><g id="efcca" class="State Burr" transform="translate(-7.5,-7.5)"  ><g class="State Burr"><use class="State Burr Node Icon" width="15" height="15" fill="#fff" stroke="#000" href="#Ellipse"/></g></g><text   transform="translate(30,10)"    >STAT1</text></g></g></g><g id="d10c3" class="GroupGroup" transform="translate(624.09 536.69)"  ><g class="GroupGroup"><g id="a2d99" class="GeneProduct " transform="translate(81.44 64.89)"  name="IRF9" ><rect   width="60" height="20"/><text   transform="translate(30,10)"    >IRF9</text></g><g id="ab622" class="GeneProduct " transform="translate(82.37 94.42)"  name="PSMB8" ><rect   width="60" height="20"/><text   transform="translate(30,10)"    >PSMB8</text></g><g id="aea67" class="GeneProduct " transform="translate(81.44 8)"  name="OAS1" ><rect   width="60" height="20"/><text   transform="translate(30,10)"    >OAS1</text></g><g id="b1b9d" class="GeneProduct " transform="translate(8 38.16)"  name="MX1" ><rect   width="60" height="20"/><text   transform="translate(30,10)"    >MX1</text></g><g id="bea1c" class="GeneProduct" transform="translate(81.44 37.06)"  name="GIP2" ><rect   width="60" height="20"/><text   transform="translate(30,10)"    >GIP2</text></g><g id="c292f" class="GeneProduct " transform="translate(152.16 10)"  name="IFITM1" ><rect   width="60" height="20"/><text   transform="translate(30,10)"    >IFITM1</text></g><g id="d9a96" class="GeneProduct " transform="translate(8,8)"  name="IFIT1" ><rect   width="60" height="20"/><text   transform="translate(30,10)"    >IFIT1</text></g><g id="e30c3" class="GeneProduct " transform="translate(152.16 66.89)"  name="IFI35" ><rect   width="60" height="20"/><text   transform="translate(30,10)"    >IFI35</text></g><g id="f6a13" class="GeneProduct " transform="translate(8 66.29)"  name="IFIT3" ><rect   width="60" height="20"/><text   transform="translate(30,10)"    >IFIT3</text></g><g id="f6872" class="GeneProduct" transform="translate(152.16 38.80)"  name="GIP3" ><rect   width="60" height="20"/><text   transform="translate(30,10)"    >GIP3</text></g></g></g><g id="db53f" class="GroupGroup" transform="translate(620.71 442.1)"  ><g class="GroupGroup"><g id="d7ca2" class="Complex" transform="translate(8 23.42)"  name="DRIP150" ><g class="Complex"><rect   width="60" height="20"/></g><g ><defs><clipPath ><rect x="-30" y="-10" width="60" height="20" style="stroke:none"/></clipPath></defs><text   transform="translate(30,10)"    >DRIP150</text></g></g><g id="e44a9" class="GeneProduct " transform="translate(84.31 8)"  name="STAT1" ><rect   width="60" height="20"/><g id="b05b1" class="State Burr" transform="translate(-7.5,-7.5)"  ><g class="State Burr"><use class="State Burr Node Icon" width="15" height="15" fill="#fff" stroke="#000" href="#Ellipse"/></g></g><text   transform="translate(30,10)"    >STAT1</text></g><g id="f3711" class="GeneProduct " transform="translate(84.31 37.02)"  name="STAT2" ><rect   width="60" height="20"/><g id="befbf" class="State Burr" transform="translate(-7.5,-7.5)"  ><g class="State Burr"><use class="State Burr Node Icon" width="15" height="15" fill="#fff" stroke="#000" href="#Ellipse"/></g></g><text   transform="translate(30,10)"    >STAT2</text></g></g></g><g id="ef365" class="GroupGroup" transform="translate(133.03 531.84)"  ><g class="GroupGroup"><g id="bc85a" class="GeneProduct " transform="translate(153.42 9)"  name="IRF1" ><rect   width="60" height="20"/><text   transform="translate(30,10)"    >IRF1</text></g><g id="c454d" class="GeneProduct " transform="translate(8 40.57)"  name="PSMB8" ><rect   width="60" height="20"/><text   transform="translate(30,10)"    >PSMB8</text></g><g id="c8cd1" class="GeneProduct " transform="translate(153.42 41.57)"  name="IRF9" ><rect   width="60" height="20"/><text   transform="translate(30,10)"    >IRF9</text></g><g id="d36c0" class="GeneProduct " transform="translate(8,8)"  name="TAP1" ><rect   width="60" height="20"/><text   transform="translate(30,10)"    >TAP1</text></g><g id="d807b" class="GeneProduct " transform="translate(79.89 40.57)"  name="IFI35" ><rect   width="60" height="20"/><text   transform="translate(30,10)"    >IFI35</text></g><g id="df84d" class="GeneProduct " transform="translate(79.89 8)"  name="IFITM1" ><rect   width="60" height="20"/><text   transform="translate(30,10)"    >IFITM1</text></g></g></g><g id="f7ea6" class="GroupGroup" transform="translate(204.49 322.99)"  ><g class="GroupGroup"><g id="dc499" class="GeneProduct " transform="translate(8,8)"  name="STAT1" ><rect   width="60" height="20"/><g id="a4842" class="State Burr" transform="translate(-7.5,-7.5)"  ><g class="State Burr"><use class="State Burr Node Icon" width="15" height="15" fill="#fff" stroke="#000" href="#Ellipse"/></g></g><text   transform="translate(30,10)"    >STAT1</text></g><g id="cfcee" class="GeneProduct " transform="translate(8.23 37.54)"  name="STAT1" ><rect   width="60" height="20"/><g id="ad152" class="State Burr" transform="translate(-7.5,-7.5)"  ><g class="State Burr"><use class="State Burr Node Icon" width="15" height="15" fill="#fff" stroke="#000" href="#Ellipse"/></g></g><text   transform="translate(30,10)"    >STAT1</text></g></g></g><g id="db014" class="GroupGroup" transform="translate(696.42 321.06)"  ><g class="GroupGroup"><g id="fbb52" class="GeneProduct " transform="translate(8,8)"  name="STAT1" ><rect   width="60" height="20"/><g id="a1aba" class="State Burr" transform="translate(-7.5,-7.5)"  ><g class="State Burr"><use class="State Burr Node Icon" width="15" height="15" fill="#fff" stroke="#000" href="#Ellipse"/></g></g><text   transform="translate(30,10)"    >STAT1</text></g><g id="a4f96" class="GeneProduct " transform="translate(9.71 37.86)"  name="STAT2" ><rect   width="60" height="20"/><g id="a9483" class="State Burr" transform="translate(-7.5,-7.5)"  ><g class="State Burr"><use class="State Burr Node Icon" width="15" height="15" fill="#fff" stroke="#000" href="#Ellipse"/></g></g><text   transform="translate(30,10)"    >STAT2</text></g></g></g><g id="e9cd1" class="GeneProduct " transform="translate(258.86 197.96)"  name="JAK2" ><rect   width="60" height="20"/><text   transform="translate(30,10)"    >JAK2</text></g><g id="e08b5" class="GeneProduct " transform="translate(79.35 198.96)"  name="PTPN2" ><rect   width="60" height="20"/><text   transform="translate(30,10)"    >PTPN2</text></g><g id="f0122" class="GeneProduct " transform="translate(387.3 197.96)"  name="JAK1" ><rect   width="60" height="20"/><text   transform="translate(30,10)"    >JAK1</text></g><g id="f61c4" class="GeneProduct " transform="translate(478.14 197.96)"  name="JAK2" ><rect   width="60" height="20"/><text   transform="translate(30,10)"    >JAK2</text></g><g id="c6917" class="GeneProduct " transform="translate(784.78 196.96)"  name="JAK1" ><rect   width="60" height="20"/><text   transform="translate(30,10)"    >JAK1</text></g><g id="d05a6" class="GeneProduct " transform="translate(609.83 249.82)"  name="STAT1" ><rect   width="60" height="20"/><g id="c2863" class="State Burr" transform="translate(-7.5,-7.5)"  ><g class="State Burr"><use class="State Burr Node Icon" width="15" height="15" fill="#fff" stroke="#000" href="#Ellipse"/></g></g><text   transform="translate(30,10)"    >STAT1</text></g><g id="ec48d" class="GeneProduct " transform="translate(784.78 249.82)"  name="STAT2" ><rect   width="60" height="20"/><g id="b1c8c" class="State Burr" transform="translate(52.5,-7.5)"  ><g class="State Burr"><use class="State Burr Node Icon" width="15" height="15" fill="#fff" stroke="#000" href="#Ellipse"/></g></g><text   transform="translate(30,10)"    >STAT2</text></g><g id="f9601" class="GeneProduct " transform="translate(696.71 249.82)"  name="PTPN2" ><rect   width="60" height="20"/><text   transform="translate(30,10)"    >PTPN2</text></g><g id="d0510" class="GeneProduct " transform="translate(258.86 144.06)"  name="IFNGR2" ><rect   width="60" height="20"/><text   transform="translate(30,10)"    >IFNGR2</text></g><g id="a1e4e" class="GeneProduct " transform="translate(387.3 144.06)"  name="IFNGR1" ><rect   width="60" height="20"/><text   transform="translate(30,10)"    >IFNGR1</text></g><g id="bc367" class="GeneProduct " transform="translate(478.14 144.06)"  name="IFNGR2" ><rect   width="60" height="20"/><text   transform="translate(30,10)"    >IFNGR2</text></g><g id="e58c2" class="GeneProduct " transform="translate(609.83 143.06)"  name="IFNAR1" ><rect   width="60" height="20"/><text   transform="translate(30,10)"    >IFNAR1</text></g><g id="b1123" class="GeneProduct " transform="translate(784.78 143.06)"  name="IFNAR2" ><rect   width="60" height="20"/><text   transform="translate(30,10)"    >IFNAR2</text></g><g id="daf8b" class="Protein" transform="translate(609.83 93.63)"  name="IFNa/IFNb" ><rect   width="60" height="20"/><text   transform="translate(30,10)"    >IFNa/IFNb</text></g></g></g></g></svg>