<?xml version="1.0" encoding="UTF-8"?>
<svg xmlns="http://www.w3.org/2000/svg" id="-svg" class="Diagram"  baseProfile="full" prefix="schema:http://schema.org/" preserveAspectRatio="xMidYMid"  version="1.1"><defs><g id="icon-defs"><symbol id="HexagonPathVisio" class=" Icon HexagonPathVisio" x="0" y="8" overflow="visible" preserveAspectRatio="none" viewBox="0 8 100 86"><desc>HexagonPathVisio</desc><g transform="scale(1 0.85)"><path d="m1.42 51.00 21.07-42.14h56.19l21.07 42.14-21.07 42.15h-56.19l-21.07-42.15z" stroke="currentColor" vector-effect="non-scaling-stroke"/></g></symbol><symbol id="Octagon" class=" Icon Octagon" x="0" y="0" overflow="visible" preserveAspectRatio="none" viewBox="0 0 100 100"><desc>Octagon</desc><path d="m0 25 25-25h50l25 25v50l-25 25h-50l-25-25z" vector-effect="non-scaling-stroke"/></symbol></g><g id="marker-defs"><marker id="mea" markerHeight="12" markerWidth="12" orient="auto" preserveAspectRatio="none" refX="12" refY="6" viewBox="0 0 12 12"><g id="g-mea" transform=""><g transform="rotate(180 6 6)"><rect y="5.4" width="2" height="1.2" style="stroke:#fff"/><polygon points="12 11 0 6 12 1" stroke-width="0"/></g></g></marker></g></defs><g id="viewport-20220102143143986" class="svg-pan-zoom_viewport" transform="matrix(0.58 0 0 0.58 251.47 0)" style="transform:matrix(0.58, 0, 0, 0.58, 251.47, 0)"><style>svg.Diagram {font-family: 'Liberation Sans', Arial, sans-serif; }.Diagram path {fill: transparent;stroke: #000;marker-end: url(#mea);}.Diagram symbol path {fill: inherit;stroke: inherit;stroke-width: inherit;marker-end: inherit;}.Diagram rect {fill: #fff;stroke: #000;}.Diagram text {dominant-baseline: central;overflow: hidden;text-anchor: middle;fill: #000;font-size: 10px;}</style><style type="text/css">.Viewport .textContent {
  pointer-events: none;
  stroke-width: 0px;
}

					.Viewport.Icon {
  fill: white;
}

/* Hide the InfoBox */
.Viewport.textContent {
  font-size: 0;
}

.textContent {
  stroke: none;
}

.DataNode {
  stroke-miterlimit: 1;
  pointer-events: auto;
}

.DataNode:hover {
  cursor: pointer;
}

/* TODO should this apply to things other than DataNodes? */
.DataNode.textContent {
  pointer-events: none;
}

.DataNode.Highlighted {
  opacity: 0.6;
  stroke-width: 0px;
}

marker {
  /* this is what should work per the spec
  stroke-dasharray: none; */
  /* but I need to add this to make it work in Safari */
  stroke-dasharray: 9999999999999999999999999;
}

.Citation.Icon {
  fill: none;
  stroke-width: 0px;
}

.Citation.textContent {
  text-align: center;
  vertical-align: top;
  font-size: 7px;
  fill: #999;
  fill-opacity: 1;
  stroke: none;
}</style><g id="WP4108" class="Pathway Viewport"  name="Name: Aryl hydrocarbon receptor signaling Organism: Homo sapiens" ><g class="Pathway Viewport"><rect   width="1193" height="1222" style="stroke:none"/><g id="b809c" class="Reactome_R-HSA-8936849"  ><path    d="m293 213h44" style="marker-end:none"/><g id="e88e2" class="AB" transform="translate(293,213)"  ><g class="AB"/></g><g id="d2ade" class="AB" transform="translate(336.56 213)"  ><g class="AB"/></g></g><g id="acf1a" class="Reactome_R-HSA-8936849"  ><path    d="m219 256 74-43" style="marker-end:none"/></g><g id="b7774" class="Reactome_R-HSA-8936849"  ><path    d="m337 213 3 2"/></g><g id="cfb51" class="Reactome_R-HSA-8937169"  ><path    d="m440 214h83" style="marker-end:none"/><g id="d7728" class="AB" transform="translate(440,214)"  ><g class="AB"/></g><g id="fbced" class="AB" transform="translate(522.17 214)"  ><g class="AB"/></g></g><g id="a93d8" class="Reactome_R-HSA-8937169"  ><path    d="m523 214h3"/></g><g id="d304c" class="Reactome_R-HSA-8937191"  ><path    d="m624 212h79" style="marker-end:none"/><g id="fcb90" class="AB" transform="translate(624,212)"  ><g class="AB"/></g><g id="b1e1f" class="AB" transform="translate(702.21 212)"  ><g class="AB"/></g></g><g id="c6ba1" class="Reactome_R-HSA-8937191"  ><path    d="m620 214 4-2" style="marker-end:none"/></g><g id="a3d8a" class="Reactome_R-HSA-8937191"  ><path    d="m703 212 1-50"/></g><g id="d4693" class="Reactome_R-HSA-8937191"  ><path    d="m703 212 4 38"/></g><g id="d711e" class="Reactome_R-HSA-8937169"  ><path    d="m436 215 4-1" style="marker-end:none"/></g><g id="e4f7e" class="Reactome_R-HSA-8936851"  ><path    d="m821 358 53 1" style="marker-end:none"/><g id="ddbbc" class="AB" transform="translate(821,358)"  ><g class="AB"/></g><g id="dfa03" class="AB" transform="translate(873.47,358.99)"  ><g class="AB"/></g></g><g id="a014a" class="Reactome_R-HSA-8936851"  ><path    d="m784 313 37 45" style="marker-end:none"/></g><g id="d3fd8" class="Reactome_R-HSA-8936851"  ><path    d="m790 389 31-31" style="marker-end:none"/></g><g id="b22bc" class="Reactome_R-HSA-8936851"  ><path    d="m874 359 3 1"/></g><g id="e7f06" class="Reactome_R-HSA-8936849"  ><path    d="m203 168 90 45" style="marker-end:none"/></g><g id="f10a5" class="Reactome_R-HSA-8937177"  ><path    d="m831 274 42 2" style="marker-end:none"/><g id="c4be8" class="AB" transform="translate(831,274)"  ><g class="AB"/></g><g id="e7571" class="AB" transform="translate(872.58 275.98)"  ><g class="AB"/></g></g><g id="a213b" class="Reactome_R-HSA-8937177"  ><path    d="m779 250 52 24" style="marker-end:none"/></g><g id="a3049" class="Reactome_R-HSA-8937177"  ><path    d="m784 313 47-39" style="marker-end:none"/></g><g id="a6839" class="Reactome_R-HSA-8937177"  ><path    d="m873 276h3"/></g><g id="ae622" class="GroupGroup" transform="translate(17,27)"  ><g class="GroupGroup"><g id="b9b3c" class="" transform="translate(8,8)"  ><g class=""><rect   transform="matrix(1.00 0 0 0.99 1.50 1.49)" width="1138" height="519" rx="15" ry="15" stroke-width="3" style="fill:transparent;stroke:#c0c0c0"/></g></g><g id="d7454" class="Label" transform="translate(292,390)"  name="cytosol" ><g class="Label"/><text   transform="translate(32,16.5)"    >cytosol</text></g></g></g><g id="edc2e" class="GroupGroup" transform="translate(459,110)"  ><g class="GroupGroup"><g id="d43fd" class="" transform="translate(8,8)"  ><g class=""><rect   transform="matrix(0.99 0 0 0.99 1.49 1.49)" width="524" height="364" rx="15" ry="15" stroke-width="3" style="fill:transparent;stroke:#c0c0c0"/></g></g><g id="c8b8f" class="Label" transform="translate(27,307)"  name="nucleoplasm" ><g class="Label"/><text   transform="translate(49.5,16.5)"    >nucleoplasm</text></g></g></g><g id="a9350" class="Complex Reactome_R-HSA-8937150" transform="translate(707,239)"  name="AHR:TCDD" ><g class="Complex Reactome_R-HSA-8937150"><use class="Complex Reactome_R-HSA-8937150 Node Icon" width="72" height="22" fill="#fff" stroke="#a52a2a" href="#HexagonPathVisio"/></g><g ><defs><clipPath ><rect x="-36" y="-11" width="72" height="22" style="stroke:none"/></clipPath></defs><text   transform="translate(36,11)"     style="fill:#a52a2a">AHR:TCDD</text></g></g><g id="ab7f4" class="Complex Reactome_R-HSA-8936837" transform="translate(730,299)"  name="ARNT, ARNT2" ><g class="Complex Reactome_R-HSA-8936837"><rect   width="55" height="29" rx="15" ry="15" style="stroke:#a52a2a"/></g><g ><defs><clipPath ><rect x="-27.5" y="-14.5" width="55" height="29" style="stroke:none"/></clipPath></defs><text   transform="translate(27.5,14.5)"     style="fill:#a52a2a">ARNT, ARNT2</text></g></g><g id="b8c29" class="Complex Reactome_R-HSA-8936846" transform="translate(340,190)"  name="AHR:TCDD:2xHSP90AB1:AIP:PTGES3" ><g class="Complex Reactome_R-HSA-8936846"><use class="Complex Reactome_R-HSA-8936846 Node Icon" width="97" height="50" fill="#fff" stroke="#a52a2a" href="#HexagonPathVisio"/></g><g ><defs><clipPath ><rect x="-48.5" y="-25" width="97" height="50" style="stroke:none"/></clipPath></defs><text   transform="translate(48.5,25)"     style="fill:#a52a2a">AHR:TCDD:2xHSP90AB1:AIP:PTGES3</text></g></g><g id="b9624" class="Complex Reactome_R-HSA-8936835" transform="translate(877,342)"  name="AHRR:ARNT" ><g class="Complex Reactome_R-HSA-8936835"><use class="Complex Reactome_R-HSA-8936835 Node Icon" width="46" height="37" fill="#fff" stroke="#a52a2a" href="#HexagonPathVisio"/></g><g ><defs><clipPath ><rect x="-23" y="-18.5" width="46" height="37" style="stroke:none"/></clipPath></defs><text   transform="translate(23,18.5)"     style="fill:#a52a2a">AHRR:ARNT</text></g></g><g id="c434e" class="Complex Reactome_R-HSA-8936844" transform="translate(125,231)"  name="AHR:2xHSP90AB1:AIP:PTGES3" ><g class="Complex Reactome_R-HSA-8936844"><use class="Complex Reactome_R-HSA-8936844 Node Icon" width="94" height="50" fill="#fff" stroke="#a52a2a" href="#HexagonPathVisio"/></g><g ><defs><clipPath ><rect x="-47" y="-25" width="94" height="50" style="stroke:none"/></clipPath></defs><text   transform="translate(47,25)"     style="fill:#a52a2a">AHR:2xHSP90AB1:AIP:PTGES3</text></g></g><g id="dbd3c" class="Protein" transform="translate(736,378)"  name="AHRR" ><rect   width="55" height="22"/><text   transform="translate(27.5,11)"    >AHRR</text></g><g id="ddd4d" class="Complex Reactome_R-HSA-8937201" transform="translate(704,143)"  name="2xHSP90AB1:AIP:PTGES3" ><g class="Complex Reactome_R-HSA-8937201"><use class="Complex Reactome_R-HSA-8937201 Node Icon" width="89" height="38" fill="#fff" stroke="#a52a2a" href="#HexagonPathVisio"/></g><g ><defs><clipPath ><rect x="-44.5" y="-19" width="89" height="38" style="stroke:none"/></clipPath></defs><text   transform="translate(44.5,19)"     style="fill:#a52a2a">2xHSP90AB1:AIP:PTGES3</text></g></g><g id="e52e6" class="Complex Reactome_R-HSA-8937203" transform="translate(876,258)"  name="AHR:TCDD:ARNT" ><g class="Complex Reactome_R-HSA-8937203"><use class="Complex Reactome_R-HSA-8937203 Node Icon" width="76" height="36" fill="#fff" stroke="#a52a2a" href="#HexagonPathVisio"/></g><g ><defs><clipPath ><rect x="-38" y="-18" width="76" height="36" style="stroke:none"/></clipPath></defs><text   transform="translate(38,18)"     style="fill:#a52a2a">AHR:TCDD:ARNT</text></g></g><g id="e7017" class="Metabolite " transform="translate(161,153)"  name="TCDD" ><rect   width="43" height="30" style="stroke:#00f"/><text   transform="translate(21.5,15)"     style="fill:#00f">TCDD</text></g><g id="fae08" class="Complex Reactome_R-HSA-8937154" transform="translate(526,188)"  name="AHR:TCDD:2xHSP90AB1:AIP:PTGES3" ><g class="Complex Reactome_R-HSA-8937154"><use class="Complex Reactome_R-HSA-8937154 Node Icon" width="95" height="52" fill="#fff" stroke="#a52a2a" href="#HexagonPathVisio"/></g><g ><defs><clipPath ><rect x="-47.5" y="-26" width="95" height="52" style="stroke:none"/></clipPath></defs><text   transform="translate(47.5,26)"     style="fill:#a52a2a">AHR:TCDD:2xHSP90AB1:AIP:PTGES3</text></g></g><g id="a7ebd" class="GroupComplex" transform="translate(38,560)"  ><g class="GroupComplex"><use class="Icon" width="124" height="104" fill="#b4b464" fill-opacity=".1" stroke="grey" href="#Octagon"/><g id="a3b30" class="Protein" transform="translate(12,12)"  name="AHR" ><rect   width="100" height="20"/><text   transform="translate(50,10)"    >AHR</text></g><g id="cf9e7" class="Protein" transform="translate(12,72)"  name="PTGES3" ><rect   width="100" height="20"/><text   transform="translate(50,10)"    >PTGES3</text></g><g id="f1cb0" class="Protein" transform="translate(12,32)"  name="HSP90AB1" ><rect   width="100" height="20"/><text   transform="translate(50,10)"    >HSP90AB1</text></g><g id="fbc3a" class="Protein" transform="translate(12,52)"  name="AIP" ><rect   width="100" height="20"/><text   transform="translate(50,10)"    >AIP</text></g></g></g><g id="afb3f" class="GroupComplex" transform="translate(38,1060)"  ><g class="GroupComplex"><use class="Icon" width="124" height="64" fill="#b4b464" fill-opacity=".1" stroke="grey" href="#Octagon"/><g id="ad588" class="Metabolite " transform="translate(12,12)"  name="TCDD" ><rect   width="100" height="20" style="stroke:#00f"/><text   transform="translate(50,10)"     style="fill:#00f">TCDD</text></g><g id="fd02e" class="Protein" transform="translate(12,32)"  name="AHR" ><rect   width="100" height="20"/><text   transform="translate(50,10)"    >AHR</text></g></g></g><g id="b8185" class="GroupComplex" transform="translate(178,600)"  ><g class="GroupComplex"><use class="Icon" width="124" height="104" fill="#b4b464" fill-opacity=".1" stroke="grey" href="#Octagon"/><g id="d513a" class="Protein" transform="translate(12,72)"  name="ARNT2" ><rect   width="100" height="20"/><text   transform="translate(50,10)"    >ARNT2</text></g><g id="d5d2c" class="Protein" transform="translate(12,32)"  name="AHR" ><rect   width="100" height="20"/><text   transform="translate(50,10)"    >AHR</text></g><g id="d98d3" class="Metabolite " transform="translate(12,12)"  name="TCDD" ><rect   width="100" height="20" style="stroke:#00f"/><text   transform="translate(50,10)"     style="fill:#00f">TCDD</text></g><g id="ec184" class="Protein" transform="translate(12,52)"  name="ARNT" ><rect   width="100" height="20"/><text   transform="translate(50,10)"    >ARNT</text></g></g></g><g id="b92e6" class="GroupComplex" transform="translate(38,680)"  ><g class="GroupComplex"><use class="Icon" width="124" height="124" fill="#b4b464" fill-opacity=".1" stroke="grey" href="#Octagon"/><g id="a08d4" class="Protein" transform="translate(12,32)"  name="HSP90AB1" ><rect   width="100" height="20"/><text   transform="translate(50,10)"    >HSP90AB1</text></g><g id="aeecb" class="Protein" transform="translate(12,12)"  name="AHR" ><rect   width="100" height="20"/><text   transform="translate(50,10)"    >AHR</text></g><g id="afa5c" class="Protein" transform="translate(12,72)"  name="PTGES3" ><rect   width="100" height="20"/><text   transform="translate(50,10)"    >PTGES3</text></g><g id="bba9f" class="Metabolite " transform="translate(12,92)"  name="TCDD" ><rect   width="100" height="20" style="stroke:#00f"/><text   transform="translate(50,10)"     style="fill:#00f">TCDD</text></g><g id="bde4f" class="Protein" transform="translate(12,52)"  name="AIP" ><rect   width="100" height="20"/><text   transform="translate(50,10)"    >AIP</text></g></g></g><g id="bb6ec" class="GroupComplex" transform="translate(38,820)"  ><g class="GroupComplex"><use class="Icon" width="124" height="124" fill="#b4b464" fill-opacity=".1" stroke="grey" href="#Octagon"/><g id="a39cc" class="Protein" transform="translate(12,52)"  name="AIP" ><rect   width="100" height="20"/><text   transform="translate(50,10)"    >AIP</text></g><g id="b07ac" class="Metabolite " transform="translate(12,12)"  name="TCDD" ><rect   width="100" height="20" style="stroke:#00f"/><text   transform="translate(50,10)"     style="fill:#00f">TCDD</text></g><g id="e26e2" class="Protein" transform="translate(12,32)"  name="AHR" ><rect   width="100" height="20"/><text   transform="translate(50,10)"    >AHR</text></g><g id="f529a" class="Protein" transform="translate(12,92)"  name="HSP90AB1" ><rect   width="100" height="20"/><text   transform="translate(50,10)"    >HSP90AB1</text></g><g id="facf8" class="Protein" transform="translate(12,72)"  name="PTGES3" ><rect   width="100" height="20"/><text   transform="translate(50,10)"    >PTGES3</text></g></g></g><g id="c5174" class="GroupComplex" transform="translate(178,720)"  ><g class="GroupComplex"><use class="Icon" width="124" height="84" fill="#b4b464" fill-opacity=".1" stroke="grey" href="#Octagon"/><g id="aae1d" class="Protein" transform="translate(12,12)"  name="AHRR" ><rect   width="100" height="20"/><text   transform="translate(50,10)"    >AHRR</text></g><g id="affaf" class="Protein" transform="translate(12,32)"  name="ARNT" ><rect   width="100" height="20"/><text   transform="translate(50,10)"    >ARNT</text></g><g id="d3f89" class="Protein" transform="translate(12,52)"  name="ARNT2" ><rect   width="100" height="20"/><text   transform="translate(50,10)"    >ARNT2</text></g></g></g><g id="f2295" class="GroupNone" transform="translate(41,1143)"  ><g class="GroupNone"><rect   width="118" height="58" fill-opacity=".1" stroke-dasharray="5,3" style="fill:#b4b464;stroke:grey"/><g id="a3c0d" class="Protein" transform="translate(9,29)"  name="ARNT2" ><rect   width="100" height="20"/><text   transform="translate(50,10)"    >ARNT2</text></g><g id="c6ecf" class="Protein" transform="translate(9,9)"  name="ARNT" ><rect   width="100" height="20"/><text   transform="translate(50,10)"    >ARNT</text></g></g></g><g id="fd9e4" class="GroupComplex" transform="translate(38,960)"  ><g class="GroupComplex"><use class="Icon" width="124" height="84" fill="#b4b464" fill-opacity=".1" stroke="grey" href="#Octagon"/><g id="a8b86" class="Protein" transform="translate(12,52)"  name="HSP90AB1" ><rect   width="100" height="20"/><text   transform="translate(50,10)"    >HSP90AB1</text></g><g id="b48c1" class="Protein" transform="translate(12,12)"  name="AIP" ><rect   width="100" height="20"/><text   transform="translate(50,10)"    >AIP</text></g><g id="c3359" class="Protein" transform="translate(12,32)"  name="PTGES3" ><rect   width="100" height="20"/><text   transform="translate(50,10)"    >PTGES3</text></g></g></g></g></g></g></svg>