<?xml version="1.0" encoding="UTF-8"?>
<!--
  WikiPathways page: https://www.wikipathways.org/index.php/Pathway:WP4150
  URL for this compressed file: https://github.com/eweitz/cachome/tree/main/data/WP4150.svg
  Source code for compression: https://github.com/eweitz/cachome/tree/main/src/wikipathways.py
-->
<svg id="wp4150-svg" class="Diagram" width="800" height="600" color="black" baseProfile="full" prefix="schema:http://schema.org/" preserveAspectRatio="xMidYMid" version="1.1" viewBox="0 0 693.19 701.88" vocab="http://vocabularies.wikipathways.org/wp#" xmlns="http://www.w3.org/2000/svg" xmlns:xlink="http://www.w3.org/1999/xlink"><style>svg {font-family: 'Liberation Sans', Arial, sans-serif; }</style><defs><g id="jit-defs"><filter id="kaaviodoublefalse3filter" x="-50%" y="-50%" width="200%" height="200%"><feComposite in="SourceGraphic" in2="SourceGraphic" result="doubleDark"/><feMorphology in="doubleDark" operator="dilate" radius="0.16666666666666666" result="in2Double"/><feMorphology in="SourceGraphic" operator="dilate" radius="3" result="inDouble"/><feComposite in="inDouble" in2="in2Double" operator="out" result="doubleResult"/></filter><filter id="kaavioblackto000000filter" x="0" y="0" width="693.19" height="701.88" filterUnits="userSpaceOnUse"><feColorMatrix in="SourceGraphic" values="-1   0   0 0 0                   0  -1   0 0 0                   0   0  -1 0 0                   0   0   0 1 0"/></filter></g><g id="jic-defs"><marker id="markerEndArrow" stroke-dasharray="99999" markerHeight="12" markerUnits="userSpaceOnUse" markerWidth="12" orient="auto" preserveAspectRatio="none" refX="12" refY="6" viewBox="0 0 12 12"><path transform="rotate(180 6 6)" d="M12 11L0 6l12-5z" fill="currentColor" stroke-width="0"/></marker><marker id="markerEndMimInhibition" stroke-dasharray="99999" markerHeight="20" markerUnits="userSpaceOnUse" markerWidth="10" orient="auto" preserveAspectRatio="none" refX="10" refY="10" viewBox="0 0 10 20"><path d="m3 0v20" fill="currentColor" stroke="currentColor"/></marker><marker id="markerEndTBar" stroke-dasharray="99999" markerHeight="20" markerUnits="userSpaceOnUse" markerWidth="10" orient="auto" preserveAspectRatio="none" refX="10" refY="10" viewBox="0 0 10 20"><path d="m3 0v20" fill="currentColor" stroke="currentColor"/></marker><symbol id="Ellipse" overflow="visible" preserveAspectRatio="none" viewBox="0 0 50 50"><ellipse cx="25" cy="25" rx="25" ry="25" stroke="currentColor" vector-effect="non-scaling-stroke"/></symbol><symbol id="Octagon" overflow="visible" preserveAspectRatio="none" viewBox="0 0 100 100"><path d="M0 25L25 0h50l25 25v50l-25 25H25L0 75z" stroke="currentColor" vector-effect="non-scaling-stroke"/></symbol><symbol id="none" preserveAspectRatio="none" viewBox="0 0 100 100"/></g></defs><g id="WP4150" class="Viewport" color="black"  name="Name: Wnt signaling in kidney disease Organism: Homo sapiens"><rect id="WP4150-icon" class="Icon" width="693.19" height="701.88" fill="#fff" stroke="#000" stroke-width="0"/><g id="id22cf2961" class="DirectedInteraction" color="#000" ><g color="#000" fill="transparent"  filter="url(#kaavioblackto000000filter)" stroke="#000" stroke-dasharray="87.0680555555572, 5.8"><path id="id22cf2961" class="EdgeBody" d="m169.43 459.64v92.868"   marker-end="url(#markerEndArrow)" /></g></g><g id="id5fda9164" class="DirectedInteraction" color="#000" ><g color="#000" fill="transparent"  filter="url(#kaavioblackto000000filter)" stroke="#000" stroke-dasharray="60.67448464193406, 5.8"><path id="id5fda9164" class="EdgeBody" d="m401.89 532.9 12.153 65.354"   marker-end="url(#markerEndArrow)" /></g></g><g id="ide02a4644" class="DirectedInteraction" color="#000" ><g color="#000" fill="transparent"  filter="url(#kaavioblackto000000filter)" stroke="#000" stroke-dasharray="92.73063054832357, 5.8"><path id="ide02a4644" class="EdgeBody" d="m339.85 502.25 22.187 96"   marker-end="url(#markerEndArrow)" /></g></g><g id="idc2ee2143" class="DirectedInteraction" color="#000" ><g color="#000" fill="transparent"  filter="url(#kaavioblackto000000filter)" stroke="#000" stroke-dasharray="32.28264971596167, 5.8"><path id="idc2ee2143" class="EdgeBody" d="m169.45 401.56-0.019685 38.083"   marker-end="url(#markerEndArrow)" /></g></g><g id="id9ea887c7" class="DirectedInteraction" color="#000" ><g color="#000" fill="transparent"  filter="url(#kaavioblackto000000filter)" stroke="#000" stroke-dasharray="43.68911647913852, 5.8"><path id="id9ea887c7" class="EdgeBody" d="m483.24 551.85-17.202 46.403"   marker-end="url(#markerEndArrow)" /></g></g><g id="idcc9548b6" class="Interaction" color="#000" ><g color="#000" fill="transparent"  filter="url(#kaavioblackto000000filter)" stroke="#000" stroke-dasharray="66.45901071118834, 7"><path id="idcc9548b6" class="EdgeBody" d="m275.96 337.06-68.513 26.498"   marker-end="url(#markerEndMimInhibition)" /></g></g><g id="id274739c0" class="DirectedInteraction" color="#000" ><g color="#000" fill="transparent"  filter="url(#kaavioblackto000000filter)" stroke="#000" stroke-dasharray="153.8895087913055, 5.8"><path id="id274739c0" class="EdgeBody" d="m479.86 405.45-140.01 76.805"   marker-end="url(#markerEndArrow)" /></g></g><g id="id3a353084" class="DirectedInteraction" color="#000" ><g color="#000" fill="transparent"  filter="url(#kaavioblackto000000filter)" stroke="#000" stroke-dasharray="72.65194458234568, 5.8"><path id="id3a353084" class="EdgeBody" d="m517.86 405.45-34.617 70.402"   marker-end="url(#markerEndArrow)" /></g></g><g id="id900c5112" class="Inhibition" color="#000" ><g color="#000" fill="transparent"  filter="url(#kaavioblackto000000filter)" stroke="#000" stroke-dasharray="5.16, 3.09, 5.16, 3.09, 5.16, 3.09, 5.16, 3.09, 5.16, 3.09, 5.16, 3.09, 5.16, 3.09, 5.16, 3.09, 5.16, 3.09, 5.16, 7"><path id="id900c5112" class="EdgeBody" d="m379.96 337.06 80.896 30.387"   marker-end="url(#markerEndTBar)" /></g></g><g id="idc5063081" class="DirectedInteraction" color="#000" ><g color="#000" fill="transparent"  filter="url(#kaavioblackto000000filter)" stroke="#000" stroke-dasharray="138.93814729570667, 5.8"><path id="idc5063081" class="EdgeBody" d="m498.86 405.45-96.972 107.45"   marker-end="url(#markerEndArrow)" /></g></g><g id="id76225631" class="DirectedInteraction" color="#000" ><g color="#000" fill="transparent"  filter="url(#kaavioblackto000000filter)" stroke="#000" stroke-dasharray="110.6947146564946, 5.8"><path id="id76225631" class="EdgeBody" d="m420.44 243.3 78.415 86.152"   marker-end="url(#markerEndArrow)" /></g></g><g id="idd9140609" class="DirectedInteraction" color="#000" ><g color="#000" fill="transparent"  filter="url(#kaavioblackto000000filter)" stroke="#000" stroke-dasharray="47.19126499192298, 5.8"><path id="idd9140609" class="EdgeBody" d="m340.44 123.85 31.045 42.945"   marker-end="url(#markerEndArrow)" /></g></g><g id="id92b055c2" class="DirectedInteraction" color="#000" ><g color="#000" fill="transparent"  filter="url(#kaavioblackto000000filter)" stroke="#000" stroke-dasharray="74.4541424827706, 5.8"><path id="id92b055c2" class="EdgeBody" d="m170.09 245.31-0.64512 80.252"   marker-end="url(#markerEndArrow)" /></g></g><g id="idf66e1f24" class="DirectedInteraction" color="#000" ><g color="#000" fill="transparent"  filter="url(#kaavioblackto000000filter)" stroke="#000" stroke-dasharray="55.12566825804037, 5.8"><path id="idf66e1f24" class="EdgeBody" d="m211.21 123.85-41.12 44.957"   marker-end="url(#markerEndArrow)" /></g></g><g id="add5a" class="SingleFreeNode Shape PhysicalEntity CellularComponent Nucleus" transform="translate(41.403 512.76)" color="#c0c0c0" ><g fill="transparent"  filter="url(#kaaviodoublefalse3filter)" stroke="#c0c0c0" stroke-width="3"><use id="add5a-icon" class="Icon" transform="matrix(.95296 0 0 .91909 5.7177 5.5145)" width="243.08333333333331" height="136.3125"    xlink:href="#Ellipse"/></g></g><g id="fcf7f" class="SingleFreeNode Shape PhysicalEntity CellularComponent Cell" transform="translate(20.201 203.36)" color="#c0c0c0" ><g fill="transparent"  filter="url(#kaaviodoublefalse3filter)" stroke="#c0c0c0" stroke-width="3"><rect id="fcf7f-icon" class="Icon" transform="matrix(.97712 0 0 .9751 5.8627 5.8506)" width="512.55" height="470.01" rx="15" ry="15"   /></g></g><g id="a6d22" class="Label" transform="translate(112.56 140.14)" color="#000"  name="Canonical"><use id="a6d22-icon" class="Icon" width="80" height="20" fill="transparent"  stroke="#000" stroke-width="0" xlink:href="#none"/><text id="a6d22-text" class="Text" transform="translate(40,14)" fill="#000"  font-size="12px" font-weight="bold" stroke="white" stroke-width="0" text-anchor="middle"><tspan x="0" y="0">Canonical</tspan></text></g><g id="d2569" class="Label" transform="translate(310.04 598.25)" color="#000"  name="Cytoskeleton/planar cell Polarity"><use id="d2569-icon" class="Icon" width="208" height="20" fill="transparent"  stroke="#000" stroke-width="0" xlink:href="#none"/><text id="d2569-text" class="Text" transform="translate(104,14)" fill="#000"  font-size="12px" font-weight="bold" stroke="white" stroke-width="0" text-anchor="middle"><tspan x="0" y="0">Cytoskeleton/planar cell Polarity</tspan></text></g><g id="e855a" class="Label" transform="translate(405.77 140.14)" color="#000"  name="Non-Canonical"><use id="e855a-icon" class="Icon" width="102" height="20" fill="transparent"  stroke="#000" stroke-width="0" xlink:href="#none"/><text id="e855a-text" class="Text" transform="translate(51,14)" fill="#000"  font-size="12px" font-weight="bold" stroke="white" stroke-width="0" text-anchor="middle"><tspan x="0" y="0">Non-Canonical</tspan></text></g><g id="f52d7" class="Label" transform="translate(129.43 552.51)" color="#000"  name="Transcription"><use id="f52d7-icon" class="Icon" width="80" height="20" fill="transparent"  stroke="#000" stroke-width="0" xlink:href="#none"/><text id="f52d7-text" class="Text" transform="translate(40,14)" fill="#000"  font-size="12px" font-weight="bold" stroke="white" stroke-width="0" text-anchor="middle"><tspan x="0" y="0">Transcription</tspan></text></g><a id="a79e8" class="Metabolite ChEBI_CHEBI_29108  " transform="translate(299.85 482.25)" color="#00f"  name="Calcium"  ><rect id="a79e8-icon" class="Icon" transform="matrix(.98765 0 0 .95238 .49383 .47619)" width="80" height="20" fill="#fff" stroke="#00f"/><text id="a79e8-text" class="Text" transform="translate(40,13)" fill="#00f"  font-size="10px" stroke="white" stroke-width="0" text-anchor="middle"><tspan x="0" y="0">Calcium</tspan></text></a><a  id="d79be" class="GeneProduct RHOA " transform="translate(361.89 512.9)"   name="RHOA"  ><rect id="d79be-icon" class="Icon" transform="matrix(.98765 0 0 .95238 .49383 .47619)" width="80" height="20" fill="#fff" stroke="#000"/><text id="d79be-text" class="Text" transform="translate(40,13)" fill="#000"  font-size="10px" stroke="white" stroke-width="0" text-anchor="middle"><tspan x="0" y="0">RHOA</tspan></text></a><a  id="e260b" class="GeneProduct CTNNB1 " transform="translate(129.43 439.64)"   name="CTNNB1"  ><rect id="e260b-icon" class="Icon" transform="matrix(.98765 0 0 .95238 .49383 .47619)" width="80" height="20" fill="#fff" stroke="#000"/><text id="e260b-text" class="Text" transform="translate(40,13)" fill="#000"  font-size="10px" stroke="white" stroke-width="0" text-anchor="middle"><tspan x="0" y="0">CTNNB1</tspan></text></a><g id="c7d85" class="GroupComplex" transform="translate(275.96 289.06)" color="grey" ><use id="c7d85-icon" class="Icon" transform="matrix(.99048 0 0 .98462 .49524 .49231)" width="104" height="63.99999999999994" fill="#b4b464" fill-opacity=".1" stroke="grey" xlink:href="#Octagon"/><a  id="c1b2f" class="GeneProduct -ACAD11 NPHP3-ACAD11 -ACAD11 " transform="translate(12 32)"   name="NPHP3-ACAD11"  ><rect id="c1b2f-icon" class="Icon" transform="matrix(.98765 0 0 .95238 .49383 .47619)" width="80" height="20" fill="#fff" stroke="#000"/><text id="c1b2f-text" class="Text" transform="translate(40,13)" fill="#000"  font-size="10px" stroke="white" stroke-width="0" text-anchor="middle"><tspan x="0" y="0">NPHP3-ACAD11</tspan></text></a><a  id="f5b5a" class="GeneProduct INVS " transform="translate(12,12)"   name="INVS"  ><rect id="f5b5a-icon" class="Icon" transform="matrix(.98765 0 0 .95238 .49383 .47619)" width="80" height="20" fill="#fff" stroke="#000"/><text id="f5b5a-text" class="Text" transform="translate(40,13)" fill="#000"  font-size="10px" stroke="white" stroke-width="0" text-anchor="middle"><tspan x="0" y="0">INVS</tspan></text></a></g><g id="fc2af" class="GroupGroup" transform="translate(32.886 168.81)" color="grey" ><use id="fc2af-icon" class="Icon" width="274.412936179981" height="76.49586776859496" fill="transparent"  stroke="grey" stroke-dasharray="5,3" stroke-width="0" xlink:href="#none"/><a  id="bed20" class="GeneProduct LRP5 " transform="translate(8 20.424)"   name="LRP5"  ><rect id="bed20-icon" class="Icon" transform="matrix(.98765 0 0 .95238 .49383 .47619)" width="80" height="20" fill="#fff" stroke="#000"/><text id="bed20-text" class="Text" transform="translate(40,13)" fill="#000"  font-size="10px" stroke="white" stroke-width="0" text-anchor="middle"><tspan x="0" y="0">LRP5</tspan></text></a><a  id="a5781" class="GeneProduct LRP6 " transform="translate(8 40.341)"   name="LRP6"  ><rect id="a5781-icon" class="Icon" transform="matrix(.98765 0 0 .95238 .49383 .47619)" width="80" height="20" fill="#fff" stroke="#000"/><text id="a5781-text" class="Text" transform="translate(40,13)" fill="#000"  font-size="10px" stroke="white" stroke-width="0" text-anchor="middle"><tspan x="0" y="0">LRP6</tspan></text></a><a  id="d85b7" class="GeneProduct FZD1 " transform="translate(86.578 8.3306)"   name="FZD1"  ><rect id="d85b7-icon" class="Icon" transform="matrix(.98361 0 0 .95238 .4918 .47619)" width="60" height="20" fill="#fff" stroke="#000"/><text id="d85b7-text" class="Text" transform="translate(30,13)" fill="#000"  font-size="10px" stroke="white" stroke-width="0" text-anchor="middle"><tspan x="0" y="0">FZD1</tspan></text></a><a  id="e7137" class="GeneProduct FZD8 " transform="translate(206.41 28.496)"   name="FZD8"  ><rect id="e7137-icon" class="Icon" transform="matrix(.98361 0 0 .95238 .4918 .47619)" width="60" height="20" fill="#fff" stroke="#000"/><text id="e7137-text" class="Text" transform="translate(30,13)" fill="#000"  font-size="10px" stroke="white" stroke-width="0" text-anchor="middle"><tspan x="0" y="0">FZD8</tspan></text></a><a  id="f98ab" class="GeneProduct FZD4 " transform="translate(146.91 8)"   name="FZD4"  ><rect id="f98ab-icon" class="Icon" transform="matrix(.98361 0 0 .95238 .4918 .47619)" width="60" height="20" fill="#fff" stroke="#000"/><text id="f98ab-text" class="Text" transform="translate(30,13)" fill="#000"  font-size="10px" stroke="white" stroke-width="0" text-anchor="middle"><tspan x="0" y="0">FZD4</tspan></text></a><a  id="d0aea" class="GeneProduct FZD2 " transform="translate(86.578 28.331)"   name="FZD2"  ><rect id="d0aea-icon" class="Icon" transform="matrix(.98361 0 0 .95238 .4918 .47619)" width="60" height="20" fill="#fff" stroke="#000"/><text id="d0aea-text" class="Text" transform="translate(30,13)" fill="#000"  font-size="10px" stroke="white" stroke-width="0" text-anchor="middle"><tspan x="0" y="0">FZD2</tspan></text></a><a  id="b4545" class="GeneProduct FZD7 " transform="translate(206.41 8.4959)"   name="FZD7"  ><rect id="b4545-icon" class="Icon" transform="matrix(.98361 0 0 .95238 .4918 .47619)" width="60" height="20" fill="#fff" stroke="#000"/><text id="b4545-text" class="Text" transform="translate(30,13)" fill="#000"  font-size="10px" stroke="white" stroke-width="0" text-anchor="middle"><tspan x="0" y="0">FZD7</tspan></text></a><a  id="a02b4" class="GeneProduct FZD9 " transform="translate(206.41 48.496)"   name="FZD9"  ><rect id="a02b4-icon" class="Icon" transform="matrix(.98361 0 0 .95238 .4918 .47619)" width="60" height="20" fill="#fff" stroke="#000"/><text id="a02b4-text" class="Text" transform="translate(30,13)" fill="#000"  font-size="10px" stroke="white" stroke-width="0" text-anchor="middle"><tspan x="0" y="0">FZD9</tspan></text></a><a  id="df6aa" class="GeneProduct FZD5 " transform="translate(146.91 28)"   name="FZD5"  ><rect id="df6aa-icon" class="Icon" transform="matrix(.98361 0 0 .95238 .4918 .47619)" width="60" height="20" fill="#fff" stroke="#000"/><text id="df6aa-text" class="Text" transform="translate(30,13)" fill="#000"  font-size="10px" stroke="white" stroke-width="0" text-anchor="middle"><tspan x="0" y="0">FZD5</tspan></text></a><a  id="e461a" class="GeneProduct FZD6 " transform="translate(146.91 48)"   name="FZD6"  ><rect id="e461a-icon" class="Icon" transform="matrix(.98361 0 0 .95238 .4918 .47619)" width="60" height="20" fill="#fff" stroke="#000"/><text id="e461a-text" class="Text" transform="translate(30,13)" fill="#000"  font-size="10px" stroke="white" stroke-width="0" text-anchor="middle"><tspan x="0" y="0">FZD6</tspan></text></a><a  id="f8a11" class="GeneProduct FZD3 " transform="translate(86.578 48.331)"   name="FZD3"  ><rect id="f8a11-icon" class="Icon" transform="matrix(.98361 0 0 .95238 .4918 .47619)" width="60" height="20" fill="#fff" stroke="#000"/><text id="f8a11-text" class="Text" transform="translate(30,13)" fill="#000"  font-size="10px" stroke="white" stroke-width="0" text-anchor="middle"><tspan x="0" y="0">FZD3</tspan></text></a></g><g id="dba99" class="GroupGroup" transform="translate(146.6 27.689)" color="grey" ><use id="dba99-icon" class="Icon" width="258.45399449035835" height="96.16528925619859" fill="transparent"  stroke="grey" stroke-dasharray="5,3" stroke-width="0" xlink:href="#none"/><a  id="c8741" class="GeneProduct WNT1 " transform="translate(8 8.1653)"   name="WNT1"  ><rect id="c8741-icon" class="Icon" transform="matrix(.98403 0 0 .95238 .49201 .47619)" width="61.6" height="20" fill="#fff" stroke="#000"/><text id="c8741-text" class="Text" transform="translate(30.8 13)" fill="#000"  font-size="10px" stroke="white" stroke-width="0" text-anchor="middle"><tspan x="0" y="0">WNT1</tspan></text></a><a  id="e82c7" class="GeneProduct WNT10A " transform="translate(129.9 68.165)"   name="WNT10A"  ><rect id="e82c7-icon" class="Icon" transform="matrix(.98403 0 0 .95238 .49201 .47619)" width="61.6" height="20" fill="#fff" stroke="#000"/><text id="e82c7-text" class="Text" transform="translate(30.8 13)" fill="#000"  font-size="10px" stroke="white" stroke-width="0" text-anchor="middle"><tspan x="0" y="0">WNT10A</tspan></text></a><a  id="b90fc" class="GeneProduct WNT10B " transform="translate(188.85 8)"   name="WNT10B"  ><rect id="b90fc-icon" class="Icon" transform="matrix(.98403 0 0 .95238 .49201 .47619)" width="61.6" height="20" fill="#fff" stroke="#000"/><text id="b90fc-text" class="Text" transform="translate(30.8 13)" fill="#000"  font-size="10px" stroke="white" stroke-width="0" text-anchor="middle"><tspan x="0" y="0">WNT10B</tspan></text></a><a  id="c28ba" class="GeneProduct WNT7A " transform="translate(129.9 28.165)"   name="WNT7A"  ><rect id="c28ba-icon" class="Icon" transform="matrix(.98403 0 0 .95238 .49201 .47619)" width="61.6" height="20" fill="#fff" stroke="#000"/><text id="c28ba-text" class="Text" transform="translate(30.8 13)" fill="#000"  font-size="10px" stroke="white" stroke-width="0" text-anchor="middle"><tspan x="0" y="0">WNT7A</tspan></text></a><a  id="e8067" class="GeneProduct WNT16 " transform="translate(188.85 68)"   name="WNT16"  ><rect id="e8067-icon" class="Icon" transform="matrix(.98403 0 0 .95238 .49201 .47619)" width="61.6" height="20" fill="#fff" stroke="#000"/><text id="e8067-text" class="Text" transform="translate(30.8 13)" fill="#000"  font-size="10px" stroke="white" stroke-width="0" text-anchor="middle"><tspan x="0" y="0">WNT16</tspan></text></a><a  id="eef62" class="GeneProduct WNT6 " transform="translate(127.7 8.1653)"   name="WNT6"  ><rect id="eef62-icon" class="Icon" transform="matrix(.98403 0 0 .95238 .49201 .47619)" width="61.6" height="20" fill="#fff" stroke="#000"/><text id="eef62-text" class="Text" transform="translate(30.8 13)" fill="#000"  font-size="10px" stroke="white" stroke-width="0" text-anchor="middle"><tspan x="0" y="0">WNT6</tspan></text></a><a  id="f16d2" class="GeneProduct WNT5A " transform="translate(68.883 48.042)"   name="WNT5A"  ><rect id="f16d2-icon" class="Icon" transform="matrix(.98403 0 0 .95238 .49201 .47619)" width="61.6" height="20" fill="#fff" stroke="#000"/><text id="f16d2-text" class="Text" transform="translate(30.8 13)" fill="#000"  font-size="10px" stroke="white" stroke-width="0" text-anchor="middle"><tspan x="0" y="0">WNT5A</tspan></text></a><a  id="d6d64" class="GeneProduct WNT2B " transform="translate(8 48.165)"   name="WNT2B"  ><rect id="d6d64-icon" class="Icon" transform="matrix(.98403 0 0 .95238 .49201 .47619)" width="61.6" height="20" fill="#fff" stroke="#000"/><text id="d6d64-text" class="Text" transform="translate(30.8 13)" fill="#000"  font-size="10px" stroke="white" stroke-width="0" text-anchor="middle"><tspan x="0" y="0">WNT2B</tspan></text></a><a  id="d8115" class="GeneProduct WNT11 " transform="translate(188.85 28)"   name="WNT11"  ><rect id="d8115-icon" class="Icon" transform="matrix(.98403 0 0 .95238 .49201 .47619)" width="61.6" height="20" fill="#fff" stroke="#000"/><text id="d8115-text" class="Text" transform="translate(30.8 13)" fill="#000"  font-size="10px" stroke="white" stroke-width="0" text-anchor="middle"><tspan x="0" y="0">WNT11</tspan></text></a><a  id="de75e" class="GeneProduct WNT4 " transform="translate(68.883 28)"   name="WNT4"  ><rect id="de75e-icon" class="Icon" transform="matrix(.98403 0 0 .95238 .49201 .47619)" width="61.6" height="20" fill="#fff" stroke="#000"/><text id="de75e-text" class="Text" transform="translate(30.8 13)" fill="#000"  font-size="10px" stroke="white" stroke-width="0" text-anchor="middle"><tspan x="0" y="0">WNT4</tspan></text></a><a  id="bb0cc" class="GeneProduct WNT3A " transform="translate(69.985 8)"   name="WNT3A"  ><rect id="bb0cc-icon" class="Icon" transform="matrix(.98403 0 0 .95238 .49201 .47619)" width="61.6" height="20" fill="#fff" stroke="#000"/><text id="bb0cc-text" class="Text" transform="translate(30.8 13)" fill="#000"  font-size="10px" stroke="white" stroke-width="0" text-anchor="middle"><tspan x="0" y="0">WNT3A</tspan></text></a><a  id="f68e9" class="GeneProduct WNT5B " transform="translate(67.78 68.042)"   name="WNT5B"  ><rect id="f68e9-icon" class="Icon" transform="matrix(.98403 0 0 .95238 .49201 .47619)" width="61.6" height="20" fill="#fff" stroke="#000"/><text id="f68e9-text" class="Text" transform="translate(30.8 13)" fill="#000"  font-size="10px" stroke="white" stroke-width="0" text-anchor="middle"><tspan x="0" y="0">WNT5B</tspan></text></a><a  id="ad343" class="GeneProduct WNT9B " transform="translate(188.85 48)"   name="WNT9B"  ><rect id="ad343-icon" class="Icon" transform="matrix(.98403 0 0 .95238 .49201 .47619)" width="61.6" height="20" fill="#fff" stroke="#000"/><text id="ad343-text" class="Text" transform="translate(30.8 13)" fill="#000"  font-size="10px" stroke="white" stroke-width="0" text-anchor="middle"><tspan x="0" y="0">WNT9B</tspan></text></a><a  id="a9c73" class="GeneProduct WNT2 " transform="translate(8 28.165)"   name="WNT2"  ><rect id="a9c73-icon" class="Icon" transform="matrix(.98403 0 0 .95238 .49201 .47619)" width="61.6" height="20" fill="#fff" stroke="#000"/><text id="a9c73-text" class="Text" transform="translate(30.8 13)" fill="#000"  font-size="10px" stroke="white" stroke-width="0" text-anchor="middle"><tspan x="0" y="0">WNT2</tspan></text></a><a  id="a6c0a" class="GeneProduct WNT3 " transform="translate(8 68.165)"   name="WNT3"  ><rect id="a6c0a-icon" class="Icon" transform="matrix(.98403 0 0 .95238 .49201 .47619)" width="61.6" height="20" fill="#fff" stroke="#000"/><text id="a6c0a-text" class="Text" transform="translate(30.8 13)" fill="#000"  font-size="10px" stroke="white" stroke-width="0" text-anchor="middle"><tspan x="0" y="0">WNT3</tspan></text></a><a  id="abf91" class="GeneProduct WNT7B " transform="translate(129.9 48.165)"   name="WNT7B"  ><rect id="abf91-icon" class="Icon" transform="matrix(.98403 0 0 .95238 .49201 .47619)" width="61.6" height="20" fill="#fff" stroke="#000"/><text id="abf91-text" class="Text" transform="translate(30.8 13)" fill="#000"  font-size="10px" stroke="white" stroke-width="0" text-anchor="middle"><tspan x="0" y="0">WNT7B</tspan></text></a></g><g id="e6a97" class="GroupGroup" transform="translate(322.52 166.8)" color="grey" ><use id="e6a97-icon" class="Icon" width="195.834710743801" height="76.4958677685955" fill="transparent"  stroke="grey" stroke-dasharray="5,3" stroke-width="0" xlink:href="#none"/><a  id="eddb6" class="GeneProduct FZD1 " transform="translate(8 8.3306)"   name="FZD1"  ><rect id="eddb6-icon" class="Icon" transform="matrix(.98361 0 0 .95238 .4918 .47619)" width="60" height="20" fill="#fff" stroke="#000"/><text id="eddb6-text" class="Text" transform="translate(30,13)" fill="#000"  font-size="10px" stroke="white" stroke-width="0" text-anchor="middle"><tspan x="0" y="0">FZD1</tspan></text></a><a  id="d807c" class="GeneProduct FZD8 " transform="translate(127.83 28.496)"   name="FZD8"  ><rect id="d807c-icon" class="Icon" transform="matrix(.98361 0 0 .95238 .4918 .47619)" width="60" height="20" fill="#fff" stroke="#000"/><text id="d807c-text" class="Text" transform="translate(30,13)" fill="#000"  font-size="10px" stroke="white" stroke-width="0" text-anchor="middle"><tspan x="0" y="0">FZD8</tspan></text></a><a  id="f4e2e" class="GeneProduct FZD4 " transform="translate(68.331 8)"   name="FZD4"  ><rect id="f4e2e-icon" class="Icon" transform="matrix(.98361 0 0 .95238 .4918 .47619)" width="60" height="20" fill="#fff" stroke="#000"/><text id="f4e2e-text" class="Text" transform="translate(30,13)" fill="#000"  font-size="10px" stroke="white" stroke-width="0" text-anchor="middle"><tspan x="0" y="0">FZD4</tspan></text></a><a  id="ebb8e" class="GeneProduct FZD2 " transform="translate(8 28.331)"   name="FZD2"  ><rect id="ebb8e-icon" class="Icon" transform="matrix(.98361 0 0 .95238 .4918 .47619)" width="60" height="20" fill="#fff" stroke="#000"/><text id="ebb8e-text" class="Text" transform="translate(30,13)" fill="#000"  font-size="10px" stroke="white" stroke-width="0" text-anchor="middle"><tspan x="0" y="0">FZD2</tspan></text></a><a  id="b01b5" class="GeneProduct FZD7 " transform="translate(127.83 8.4959)"   name="FZD7"  ><rect id="b01b5-icon" class="Icon" transform="matrix(.98361 0 0 .95238 .4918 .47619)" width="60" height="20" fill="#fff" stroke="#000"/><text id="b01b5-text" class="Text" transform="translate(30,13)" fill="#000"  font-size="10px" stroke="white" stroke-width="0" text-anchor="middle"><tspan x="0" y="0">FZD7</tspan></text></a><a  id="f8c46" class="GeneProduct FZD9 " transform="translate(127.83 48.496)"   name="FZD9"  ><rect id="f8c46-icon" class="Icon" transform="matrix(.98361 0 0 .95238 .4918 .47619)" width="60" height="20" fill="#fff" stroke="#000"/><text id="f8c46-text" class="Text" transform="translate(30,13)" fill="#000"  font-size="10px" stroke="white" stroke-width="0" text-anchor="middle"><tspan x="0" y="0">FZD9</tspan></text></a><a  id="aa653" class="GeneProduct FZD5 " transform="translate(68.331 28)"   name="FZD5"  ><rect id="aa653-icon" class="Icon" transform="matrix(.98361 0 0 .95238 .4918 .47619)" width="60" height="20" fill="#fff" stroke="#000"/><text id="aa653-text" class="Text" transform="translate(30,13)" fill="#000"  font-size="10px" stroke="white" stroke-width="0" text-anchor="middle"><tspan x="0" y="0">FZD5</tspan></text></a><a  id="d84fc" class="GeneProduct FZD6 " transform="translate(68.331 48)"   name="FZD6"  ><rect id="d84fc-icon" class="Icon" transform="matrix(.98361 0 0 .95238 .4918 .47619)" width="60" height="20" fill="#fff" stroke="#000"/><text id="d84fc-text" class="Text" transform="translate(30,13)" fill="#000"  font-size="10px" stroke="white" stroke-width="0" text-anchor="middle"><tspan x="0" y="0">FZD6</tspan></text></a><a  id="c23f4" class="GeneProduct FZD3 " transform="translate(8 48.331)"   name="FZD3"  ><rect id="c23f4-icon" class="Icon" transform="matrix(.98361 0 0 .95238 .4918 .47619)" width="60" height="20" fill="#fff" stroke="#000"/><text id="c23f4-text" class="Text" transform="translate(30,13)" fill="#000"  font-size="10px" stroke="white" stroke-width="0" text-anchor="middle"><tspan x="0" y="0">FZD3</tspan></text></a></g><g id="db3fa" class="GroupGroup" transform="translate(460.86 329.45)" color="grey" ><use id="db3fa-icon" class="Icon" width="76.00000000000006" height="76.00000000000006" fill="transparent"  stroke="grey" stroke-dasharray="5,3" stroke-width="0" xlink:href="#none"/><a  id="e927b" class="GeneProduct DVL2 " transform="translate(8,28)"   name="DVL2"  ><rect id="e927b-icon" class="Icon" transform="matrix(.98361 0 0 .95238 .4918 .47619)" width="60" height="20" fill="#fff" stroke="#000"/><text id="e927b-text" class="Text" transform="translate(30,13)" fill="#000"  font-size="10px" stroke="white" stroke-width="0" text-anchor="middle"><tspan x="0" y="0">DVL2</tspan></text></a><a  id="b3ca8" class="GeneProduct DVL3 " transform="translate(8 48)"   name="DVL3"  ><rect id="b3ca8-icon" class="Icon" transform="matrix(.98361 0 0 .95238 .4918 .47619)" width="60" height="20" fill="#fff" stroke="#000"/><text id="b3ca8-text" class="Text" transform="translate(30,13)" fill="#000"  font-size="10px" stroke="white" stroke-width="0" text-anchor="middle"><tspan x="0" y="0">DVL3</tspan></text></a><a  id="e8e3b" class="GeneProduct DVL1 " transform="translate(8,8)"   name="DVL1"  ><rect id="e8e3b-icon" class="Icon" transform="matrix(.98361 0 0 .95238 .4918 .47619)" width="60" height="20" fill="#fff" stroke="#000"/><text id="e8e3b-text" class="Text" transform="translate(30,13)" fill="#000"  font-size="10px" stroke="white" stroke-width="0" text-anchor="middle"><tspan x="0" y="0">DVL1</tspan></text></a></g><g id="c2e10" class="GroupGroup" transform="translate(444.44 475.85)" color="grey" ><use id="c2e10-icon" class="Icon" width="77.59999999999997" height="75.99999999999955" fill="transparent"  stroke="grey" stroke-dasharray="5,3" stroke-width="0" xlink:href="#none"/><a  id="d4b7c" class="GeneProduct MAPK9 " transform="translate(8 28)"   name="MAPK9"  ><rect id="d4b7c-icon" class="Icon" transform="matrix(.98403 0 0 .95238 .49201 .47619)" width="61.6" height="20" fill="#fff" stroke="#000"/><text id="d4b7c-text" class="Text" transform="translate(30.8,13)" fill="#000"  font-size="10px" stroke="white" stroke-width="0" text-anchor="middle"><tspan x="0" y="0">MAPK9</tspan></text></a><a  id="fbdaf" class="GeneProduct MAPK10 " transform="translate(8 48)"   name="MAPK10"  ><rect id="fbdaf-icon" class="Icon" transform="matrix(.98403 0 0 .95238 .49201 .47619)" width="61.6" height="20" fill="#fff" stroke="#000"/><text id="fbdaf-text" class="Text" transform="translate(30.8,13)" fill="#000"  font-size="10px" stroke="white" stroke-width="0" text-anchor="middle"><tspan x="0" y="0">MAPK10</tspan></text></a><a  id="ba0a5" class="GeneProduct MAPK8 " transform="translate(8,8)"   name="MAPK8"  ><rect id="ba0a5-icon" class="Icon" transform="matrix(.98403 0 0 .95238 .49201 .47619)" width="61.6" height="20" fill="#fff" stroke="#000"/><text id="ba0a5-text" class="Text" transform="translate(30.8,13)" fill="#000"  font-size="10px" stroke="white" stroke-width="0" text-anchor="middle"><tspan x="0" y="0">MAPK8</tspan></text></a></g><g id="a562c" class="GroupGroup" transform="translate(131.45 325.56)" color="grey" ><use id="a562c-icon" class="Icon" width="76" height="76.00000000000011" fill="transparent"  stroke="grey" stroke-dasharray="5,3" stroke-width="0" xlink:href="#none"/><a  id="efafa" class="GeneProduct DVL2 " transform="translate(8 28)"   name="DVL2"  ><rect id="efafa-icon" class="Icon" transform="matrix(.98361 0 0 .95238 .4918 .47619)" width="60" height="20" fill="#fff" stroke="#000"/><text id="efafa-text" class="Text" transform="translate(30,13)" fill="#000"  font-size="10px" stroke="white" stroke-width="0" text-anchor="middle"><tspan x="0" y="0">DVL2</tspan></text></a><a  id="a00e0" class="GeneProduct DVL3 " transform="translate(8 48)"   name="DVL3"  ><rect id="a00e0-icon" class="Icon" transform="matrix(.98361 0 0 .95238 .4918 .47619)" width="60" height="20" fill="#fff" stroke="#000"/><text id="a00e0-text" class="Text" transform="translate(30,13)" fill="#000"  font-size="10px" stroke="white" stroke-width="0" text-anchor="middle"><tspan x="0" y="0">DVL3</tspan></text></a><a  id="a351e" class="GeneProduct DVL1 " transform="translate(8,8)"   name="DVL1"  ><rect id="a351e-icon" class="Icon" transform="matrix(.98361 0 0 .95238 .4918 .47619)" width="60" height="20" fill="#fff" stroke="#000"/><text id="a351e-text" class="Text" transform="translate(30,13)" fill="#000"  font-size="10px" stroke="white" stroke-width="0" text-anchor="middle"><tspan x="0" y="0">DVL1</tspan></text></a></g><g id="eca2f" class="Label" transform="translate(52.247 348.05)" color="#000"  name="cytoplasmic disheveled"><use id="eca2f-icon" class="Icon" width="91.84997704315876" height="33.89158631772307" fill="transparent"  stroke="#000" stroke-width="0" xlink:href="#none"/><text id="eca2f-text" class="Text" transform="translate(45.925 20.946)" fill="#000"  font-size="12px" font-weight="bold" stroke="white" stroke-width="0" text-anchor="middle"><tspan x="0" y="-6.6000000000000005">cytoplasmic</tspan> <tspan x="0" y="6.6000000000000005">disheveled</tspan></text></g><g id="f6223" class="Label" transform="translate(526.66 346.77)" color="#000"  name="membrane-bound disheveled"><use id="f6223-icon" class="Icon" width="136.53747704314895" height="43.85686409550098" fill="transparent"  stroke="#000" stroke-width="0" xlink:href="#none"/><text id="f6223-text" class="Text" transform="translate(68.269 25.928)" fill="#000"  font-size="12px" font-weight="bold" stroke="white" stroke-width="0" text-anchor="middle"><tspan x="0" y="-6.6000000000000005">membrane-bound</tspan> <tspan x="0" y="6.6000000000000005">disheveled</tspan></text></g><text id="WP4150-text" class="Text" transform="translate(5,27)" dominant-baseline="central" fill="black"  font-size="12px" font-weight="bold" overflow="visible" stroke="white" stroke-width="0"><tspan x="0" y="-9">Name: Wnt signaling in kidney disease</tspan> <tspan x="0" y="9">Organism: Homo sapiens</tspan></text></g></svg>
