<?xml version="1.0" encoding="UTF-8"?>
<svg xmlns="http://www.w3.org/2000/svg" id="-svg" class="Diagram"  baseProfile="full" prefix="schema:http://schema.org/" preserveAspectRatio="xMidYMid"  version="1.1"><defs><g id="filter-defs"><filter id="doublefalse3filter" x="-50%" y="-50%" width="200%" height="200%"><feComposite in="SourceGraphic" in2="SourceGraphic" result="doubleDark"/><feMorphology in="doubleDark" operator="dilate" radius="0.17" result="in2Double"/><feMorphology in="SourceGraphic" operator="dilate" radius="3" result="inDouble"/><feComposite in="inDouble" in2="in2Double" operator="out" result="doubleResult"/></filter></g><g id="icon-defs"><symbol id="Ellipse" class=" Icon Ellipse" x="0" y="0" overflow="visible" preserveAspectRatio="none" viewBox="0 0 50 50"><desc>Ellipse</desc><ellipse cx="25" cy="25" rx="25" ry="25" vector-effect="non-scaling-stroke"/></symbol></g><g id="marker-defs"><marker id="mea" markerHeight="12" markerWidth="12" orient="auto" preserveAspectRatio="none" refX="12" refY="6" viewBox="0 0 12 12"><g id="g-mea" transform=""><g transform="rotate(180 6 6)"><rect y="5.4" width="2" height="1.2" style="stroke:#fff"/><polygon points="12 11 0 6 12 1" stroke-width="0"/></g></g></marker><marker id="meminhibition000" markerHeight="20" markerWidth="10" orient="auto" preserveAspectRatio="none" refX="10" refY="10" viewBox="0 0 10 20"><g id="g-meminhibition000" transform=""><g transform="rotate(180 5 10)"><rect y="9" width="8" height="2" style="stroke:none"/><line x="0" y="0" width="12" height="12" x1="7" x2="7" y2="20" stroke="#000" stroke-width="1.8"/></g></g></marker><marker id="memtranscriptiontranslation000" markerHeight="24" markerWidth="20" orient="auto" preserveAspectRatio="none" refX="20" refY="12" viewBox="0 0 20 24"><g id="g-memtranscriptiontranslation000" transform=""><g transform="rotate(180 10 12)"><rect y="11" width="12" height="2" style="stroke:#fff"/><line x1="15" x2="15" y1="12" y2="5" fill="none" stroke="#000"/><line x1="15.5" x2="8" y1="5" y2="5" fill="none" stroke="#000"/><polygon points="0 5 8 1 8 9" fill="#fff" stroke="#000"/></g></g></marker><marker id="memcatalysis000" markerHeight="12" markerWidth="12" orient="auto" preserveAspectRatio="none" refX="12" refY="6" viewBox="0 0 12 12"><g id="g-memcatalysis000" transform=""><g transform="rotate(180 6 6)"><circle cx="6" cy="6" r="5.3px" fill="#fff" stroke="#000"/></g></g></marker></g></defs><g id="viewport-20220102143445464" class="svg-pan-zoom_viewport" transform="matrix(0.49 0 0 0.49 233.89 0)" style="transform:matrix(0.49, 0, 0, 0.49, 233.89, 0)"><style>svg.Diagram {font-family: 'Liberation Sans', Arial, sans-serif; }.Diagram path {fill: transparent;stroke: #000;marker-end: url(#mea);}.Diagram symbol path {fill: inherit;stroke: inherit;stroke-width: inherit;marker-end: inherit;}.Diagram rect {fill: #fff;stroke: #000;}.Diagram text {dominant-baseline: central;overflow: hidden;text-anchor: middle;fill: #000;font-size: 12px;}</style><style type="text/css">.Viewport .textContent {
  pointer-events: none;
  stroke-width: 0px;
}

					.Viewport.Icon {
  fill: white;
}

/* Hide the InfoBox */
.Viewport.textContent {
  font-size: 0;
}

.textContent {
  stroke: none;
}

.DataNode {
  stroke-miterlimit: 1;
  pointer-events: auto;
}

.DataNode:hover {
  cursor: pointer;
}

/* TODO should this apply to things other than DataNodes? */
.DataNode.textContent {
  pointer-events: none;
}

.DataNode.Highlighted {
  opacity: 0.6;
  stroke-width: 0px;
}

marker {
  /* this is what should work per the spec
  stroke-dasharray: none; */
  /* but I need to add this to make it work in Safari */
  stroke-dasharray: 9999999999999999999999999;
}

.Citation.Icon {
  fill: none;
  stroke-width: 0px;
}

.Citation.textContent {
  text-align: center;
  vertical-align: top;
  font-size: 7px;
  fill: #999;
  fill-opacity: 1;
  stroke: none;
}</style><g id="WP4249" class="Pathway http___identifiers_org_pw_PW_0000122 http___identifiers_org_pw_PW_0000650 http___identifiers_org_pw_PW_0000003 Viewport"  name="Name: Hedgehog signaling pathway Organism: Homo sapiens" ><g class="Pathway http___identifiers_org_pw_PW_0000122 http___identifiers_org_pw_PW_0000650 http___identifiers_org_pw_PW_0000003 Viewport"><rect   width="1487" height="1450" style="stroke:none"/><g id="pvjsgeneratedidfebf4" class="Edge"  ><path    d="m1013.5 626.67-51.5-39.75"/></g><g id="abb12" class="Edge"  ><path    d="m21.67 421.67 604.33-0.67 29-197 42.67-75 50.67-58.67 82.67-29.33 81.33-1.33 82.67 33.33 54.67 78.67 22.67 97.33 4 145.33h142.67" stroke-width="4" style="stroke:#ccc;marker-end:none"/></g><g id="id6d9bd167" class="Edge"  ><path    d="m605 417 37-61.5" stroke-dasharray="5,3"/></g><g id="idb3d5b56e" class="Edge"  ><path    d="m934 593.17v56" stroke-dasharray="5,3"/></g><g id="idb672cb68" class="Edge"  ><path    d="m580 492.5v-63" stroke-dasharray="5,3"/></g><g id="idee8796ab" class="Edge"  ><path    d="m928.33 298h-3.56c-3.56-6e-14 -10.67-6e-14 -14.22 25.33-3.56 25.33-3.56 76 1 101.33 4.56 25.33 13.67 25.33 18.22 25.33h4.56" stroke-dasharray="5,3"/></g><g id="id2a2b007d" class="Edge"  ><path    d="m784.5 248 143.83 50" style="marker-end:none"/></g><g id="id6daf0977" class="Edge"  ><path    d="m667 343 44.5-95" style="marker-end:none"/></g><g id="id7c06ff40" class="Edge"  ><path    d="m761.25 513.5-94.25-164.25"/></g><g id="id2afb1039" class="Edge"  ><path    d="m1005.5 567.33-43.5 13.33"/></g><g id="id4d3c87f6" class="Edge"  ><path    d="m282.5 453.5v163" stroke-dasharray="5,3"/></g><g id="id8e7c196" class="Edge"  ><path    d="m386 649.5h-67"/></g><g id="ide144b18a" class="Edge"  ><path    d="m282.5 682.5-1.5 63" stroke-dasharray="5,3"/></g><g id="id41a984d6" class="Edge"  ><path    d="m667 343h134.17v36.99" style="marker-end:url(#meminhibition000)"/></g><g id="pvjsgeneratedidfebf5" class="Edge"  ><path    d="m283 175-2e-13 136.5"/></g><g id="id3631fd87" class="Edge"  ><path    d="m283 352.5-0.5 35"/></g><g id="id82244c1" class="Edge"  ><path    d="m193.5 407.5 89.5-55" style="marker-end:url(#meminhibition000)"/></g><g id="id921e3986" class="Edge"  ><path    d="m642 321.5v9" style="marker-end:none"/></g><g id="id8c5fd54" class="Edge"  ><path    d="m880.33 824.17v156.17h-68.17v46.5" style="marker-end:url(#memtranscriptiontranslation000)"/></g><g id="idd017a6c6" class="Edge"  ><path    d="m879.33 220.5 1 482.67" stroke-dasharray="5,3"/><g id="f1277" class="AB" transform="translate(879.38 245.26)"  ><g class="AB"/></g><g id="bf764" class="AB" transform="translate(879.88 482.09)"  ><g class="AB"/></g></g><g id="idee7df650" class="Edge"  ><path    d="m880.33 824.17-1e-13 11.69c1e-13 11.69 1e-13 35.08-14 46.78s-42 11.69-56 11.69l-14 1e-13" stroke-dasharray="5,3"/><g id="f8800" class="AB" transform="translate(834.59 893.33)"  ><g class="AB"/></g></g><g id="id7181ce26" class="Edge"  ><path    d="m879.88 482.09 0.08-1.1e-13c0.08 7e-14 0.23 7e-14 0.31 16.43 0.08 16.43 0.08 49.29 4.35 65.72 4.28 16.43 12.83 16.43 17.11 16.43h4.28" stroke-dasharray="5,3"/></g><g id="id8d5094c8" class="Edge"  ><path    d="m784.5 248 94.89-2.74"/></g><g id="idbb93dda5" class="Edge"  ><path    d="m779.67 810.33 50.96 78.05" style="marker-end:url(#memcatalysis000)"/></g><g id="b761e" class=" PhysicalEntity CellularComponent Nucleus" transform="translate(602.17 918.17)"  name="Nucleus" ><g class=" PhysicalEntity CellularComponent Nucleus" filter="url(#doublefalse3filter)"><g class=" PhysicalEntity CellularComponent Nucleus"><use class=" PhysicalEntity CellularComponent Nucleus Node Icon" transform="matrix(0.98 0 0 0.95 5.87 5.7)" width="542" height="228" fill="transparent" stroke="#c0c0c0" stroke-width="3" href="#Ellipse"/></g></g><g ><defs><clipPath ><rect x="-271" y="-213.4" width="542" height="228" style="stroke:none"/></clipPath></defs><text   transform="translate(271,213.4)"     style="fill:#c0c0c0">Nucleus</text></g></g><g id="d21ed" class=" PhysicalEntity CellularComponent Cell" transform="translate(181.5 73.5)"  name="HH-producing cell" ><g class=" PhysicalEntity CellularComponent Cell" filter="url(#doublefalse3filter)"><g class=" PhysicalEntity CellularComponent Cell"><rect   transform="matrix(0.94 0 0 0.90 5.67 5.37)" width="203" height="103" rx="15" ry="15" stroke-width="3" style="fill:transparent;stroke:#c0c0c0"/></g></g><g ><defs><clipPath ><rect x="-101.5" y="-51.5" width="203" height="103" style="stroke:none"/></clipPath></defs><text   transform="translate(101.5,51.5)"    font-weight="bold"  style="fill:#c0c0c0">HH-producing cell</text></g></g><g id="f021a" class=" PhysicalEntity CellularComponent Vesicle" transform="translate(211 619)"  ><g class=" PhysicalEntity CellularComponent Vesicle"><use class=" PhysicalEntity CellularComponent Vesicle Node Icon" transform="matrix(0.96 0 0 0.96 1.44 1.44)" width="72" height="69" fill="transparent" stroke="#c0c0c0" stroke-width="3" href="#Ellipse"/></g></g><g id="a994d" class="Label" transform="translate(1134 461.83)"  name="Cytoplasm" ><g class="Label"/><text   transform="translate(45,12.5)"    font-weight="bold"  style="fill:#999">Cytoplasm</text></g><g id="cd9af" class="Label" transform="translate(236 745.5)"  name="Degradation" ><g class="Label"/><text   transform="translate(45,12.5)"    font-weight="bold" >Degradation</text></g><g id="cefc4" class="Label" transform="translate(27.33 430.5)"  name="HH-recieving cell" ><g class="Label"/><text   transform="translate(59.17 12.5)"    font-weight="bold"  style="fill:#999">HH-recieving cell</text></g><g id="f188e" class="Label" transform="translate(971.33 143.17)"  name="Cilium" ><g class="Label"/><text   transform="translate(35.17 12.5)"    font-weight="bold"  style="fill:#999">Cilium</text></g><g id="fca3c" class="GroupGroup" transform="translate(822.33 703.17)"  ><g class="GroupGroup"><g id="deafc" class="Label" transform="translate(8,8)"  name="Activated form" ><g class="Label"/><text   transform="translate(50,12.5)"    font-weight="bold" >Activated form</text></g><g id="cafd4" class="GeneProduct " transform="translate(33,38)"  name="GLI1" ><rect   width="44" height="25"/><text   transform="translate(22,12.5)"    >GLI1</text></g><g id="b7761" class="GeneProduct " transform="translate(33,63)"  name="GLI2" ><rect   width="44" height="25"/><text   transform="translate(22,12.5)"    >GLI2</text></g><g id="b941c" class="GeneProduct " transform="translate(33,88)"  name="GLI3" ><rect   width="44" height="25"/><text   transform="translate(22,12.5)"    >GLI3</text></g></g></g><g id="a73ef" class="GeneProduct " transform="translate(1013.5 614.17)"  name="FBXL17" ><rect   width="61" height="25"/><text   transform="translate(30.5 12.5)"    >FBXL17</text></g><g id="bba53" class="GeneProduct " transform="translate(859.67 1044.8)"  name="HHIP" ><rect   width="52" height="25"/><text   transform="translate(26,12.5)"    >HHIP</text></g><g id="ef7c5" class="GeneProduct " transform="translate(555 404.5)"  name="SMO" ><rect   width="50" height="25"/><text   transform="translate(25,12.5)"    >SMO</text></g><g id="a92f7" class="GroupGroup" transform="translate(711.5 202.5)"  ><g class="GroupGroup"><g id="be481" class="GeneProduct " transform="translate(8,33)"  name="ARRB1" ><rect   width="57" height="25"/><text   transform="translate(28.5,12.5)"    >ARRB1</text></g><g id="dd6ad" class="GeneProduct " transform="translate(8,8)"  name="KIF3A" ><rect   width="57" height="25"/><text   transform="translate(28.5,12.5)"    >KIF3A</text></g><g id="a339d" class="GeneProduct " transform="translate(8 58)"  name="ARRB2" ><rect   width="57" height="25"/><text   transform="translate(28.5,12.5)"    >ARRB2</text></g></g></g><g id="b4710" class="GroupGroup" transform="translate(692 513.5)"  ><g class="GroupGroup"><g id="a038c" class="GeneProduct " transform="translate(62,108)"  name="CSNK1G2" ><rect   width="68.5" height="25"/><text   transform="translate(34.25,12.5)"    >CSNK1G2</text></g><g id="a48ff" class="GeneProduct " transform="translate(8,67)"  name="GRK2" ><rect   width="45" height="25"/><text   transform="translate(22.5,12.5)"    >GRK2</text></g><g id="af753" class="GeneProduct " transform="translate(62,8)"  name="CSNK1A1L" ><rect   width="68.5" height="25"/><text   transform="translate(34.25,12.5)"    >CSNK1A1L</text></g><g id="e17f8" class="GeneProduct " transform="translate(62,33)"  name="CSNK1A1" ><rect   width="68.5" height="25"/><text   transform="translate(34.25,12.5)"    >CSNK1A1</text></g><g id="f7651" class="GeneProduct " transform="translate(62,133)"  name="CSNK1G3" ><rect   width="68.5" height="25"/><text   transform="translate(34.25,12.5)"    >CSNK1G3</text></g><g id="f7bca" class="GeneProduct " transform="translate(62,58)"  name="CSNK1D" ><rect   width="68.5" height="25"/><text   transform="translate(34.25,12.5)"    >CSNK1D</text></g><g id="fbe1c" class="GeneProduct " transform="translate(62,158)"  name="CSNK1G1" ><rect   width="68.5" height="25"/><text   transform="translate(34.25,12.5)"    >CSNK1G1</text></g><g id="fc78f" class="GeneProduct " transform="translate(62,83)"  name="CSNK1E" ><rect   width="68.5" height="25"/><text   transform="translate(34.25,12.5)"    >CSNK1E</text></g><g id="ecb0d" class="GeneProduct " transform="translate(8,92)"  name="GRK3" ><rect   width="45" height="25"/><text   transform="translate(22.5,12.5)"    >GRK3</text></g></g></g><g id="bf5d7" class="GroupGroup" transform="translate(246 387.5)"  ><g class="GroupGroup"><g id="eef95" class="GeneProduct " transform="translate(8,8)"  name="PTCH1" ><rect   width="57" height="25"/><text   transform="translate(28.5,12.5)"    >PTCH1</text></g><g id="d1bf0" class="GeneProduct " transform="translate(8,33)"  name="PTCH2" ><rect   width="57" height="25"/><text   transform="translate(28.5,12.5)"    >PTCH2</text></g></g></g><g id="dff03" class="GroupGroup" transform="translate(760.25 379.99)"  ><g class="GroupGroup"><g id="c242d" class="GeneProduct " transform="translate(8,8)"  name="PRKACA" ><rect   width="65.83" height="25"/><text   transform="translate(32.92 12.5)"    >PRKACA</text></g><g id="ed122" class="GeneProduct " transform="translate(8,33)"  name="PRKACB" ><rect   width="65.83" height="25"/><text   transform="translate(32.92 12.5)"    >PRKACB</text></g><g id="abfa6" class="GeneProduct " transform="translate(8 58)"  name="PRKACG" ><rect   width="65.83" height="25"/><text   transform="translate(32.92 12.5)"    >PRKACG</text></g></g></g><g id="e1b5b" class="GroupGroup" transform="translate(188 311.5)"  ><g class="GroupGroup"><g id="fd195" class="GeneProduct " transform="translate(8,8)"  name="DHH" ><rect   width="58" height="25"/><text   transform="translate(29,12.5)"    >DHH</text></g><g id="febf3" class="GeneProduct " transform="translate(65.5 8)"  name="SHH" ><rect   width="58" height="25"/><text   transform="translate(29,12.5)"    >SHH</text></g><g id="c563a" class="GeneProduct " transform="translate(124,8)"  name="IHH" ><rect   width="58" height="25"/><text   transform="translate(29,12.5)"    >IHH</text></g></g></g><g id="e2c19" class="GroupGroup" transform="translate(609.5 255.5)"  ><g class="GroupGroup"><g id="f5a0b" class="GeneProduct " transform="translate(8,8)"  name="EVC" ><rect   width="49" height="25"/><text   transform="translate(24.5,12.5)"    >EVC</text></g><g id="a49b6" class="GeneProduct " transform="translate(8,33)"  name="EVC2" ><rect   width="49" height="25"/><text   transform="translate(24.5,12.5)"    >EVC2</text></g></g></g><g id="e6bb9" class="GroupGroup" transform="translate(843.33 79.5)"  ><g class="GroupGroup"><g id="aceab" class="GeneProduct " transform="translate(8,8)"  name="SUFU" ><rect   width="56" height="25"/><text   transform="translate(28,12.5)"    >SUFU</text></g><g id="d876f" class="GeneProduct " transform="translate(14 58)"  name="GLI1" ><rect   width="44" height="25"/><text   transform="translate(22,12.5)"    >GLI1</text></g><g id="fa1ff" class="GeneProduct " transform="translate(14 83)"  name="GLI2" ><rect   width="44" height="25"/><text   transform="translate(22,12.5)"    >GLI2</text></g><g id="a0f72" class="GeneProduct " transform="translate(14 108)"  name="GLI3" ><rect   width="44" height="25"/><text   transform="translate(22,12.5)"    >GLI3</text></g><g id="b5ecb" class="GeneProduct " transform="translate(8,33)"  name="KIF7" ><rect   width="56" height="25"/><text   transform="translate(28,12.5)"    >KIF7</text></g></g></g><g id="ebe72" class="GroupGroup" transform="translate(360 379.5)"  ><g class="GroupGroup"><g id="a9ef2" class="GeneProduct " transform="translate(8,8)"  name="GAS1" ><rect   width="46" height="25"/><text   transform="translate(23,12.5)"    >GAS1</text></g><g id="bdb22" class="GeneProduct " transform="translate(8,33)"  name="LRP2" ><rect   width="46" height="25"/><text   transform="translate(23,12.5)"    >LRP2</text></g><g id="e3aef" class="GeneProduct " transform="translate(54,8)"  name="CDON" ><rect   width="46" height="25"/><text   transform="translate(23,12.5)"    >CDON</text></g><g id="eaaea" class="GeneProduct " transform="translate(54,33)"  name="BOC" ><rect   width="46" height="25"/><text   transform="translate(23,12.5)"    >BOC</text></g></g></g><g id="a028a" class="GeneProduct " transform="translate(165 407.5)"  name="HHIP" ><rect   width="57" height="25"/><text   transform="translate(28.5,12.5)"    >HHIP</text></g><g id="dd101" class="GroupGroup" transform="translate(246 616.5)"  ><g class="GroupGroup"><g id="fa1b5" class="GeneProduct " transform="translate(8,8)"  name="PTCH1" ><rect   width="57" height="25"/><g id="abbc4" class="State Burr" transform="translate(48.5 -1.5)"  name="Ub" ><g class="State Burr"><use class="State Burr Node Icon" width="17" height="17" fill="#fff" stroke="#000" href="#Ellipse"/></g><g ><defs><clipPath ><rect x="-8.5" y="-8.5" width="17" height="17" style="stroke:none"/></clipPath></defs><text   transform="translate(8.5,8.5)"  font-family="arial" overflow="visible" style="font-size:10px">Ub</text></g></g><text   transform="translate(28.5,12.5)"    >PTCH1</text></g><g id="e8df6" class="GeneProduct " transform="translate(8,33)"  name="PTCH2" ><rect   width="57" height="25"/><g id="a4c65" class="State Burr" transform="translate(48.5,1.5)"  name="Ub" ><g class="State Burr"><use class="State Burr Node Icon" width="17" height="17" fill="#fff" stroke="#000" href="#Ellipse"/></g><g ><defs><clipPath ><rect x="-8.5" y="-8.5" width="17" height="17" style="stroke:none"/></clipPath></defs><text   transform="translate(8.5,8.5)"  font-family="arial" overflow="visible" style="font-size:10px">Ub</text></g></g><text   transform="translate(28.5,12.5)"    >PTCH2</text></g></g></g><g id="ce07b" class="GroupGroup" transform="translate(386 616.5)"  ><g class="GroupGroup"><g id="e1700" class="GeneProduct " transform="translate(8,8)"  name="SMURF1" ><rect   width="57" height="25"/><text   transform="translate(28.5,12.5)"    >SMURF1</text></g><g id="b5e83" class="GeneProduct " transform="translate(8,33)"  name="SMURF2" ><rect   width="57" height="25"/><text   transform="translate(28.5,12.5)"    >SMURF2</text></g></g></g><g id="e70cd" class="Edge"  ><path    d="m283 352.5 131 27"/></g><g id="e1f6f" class="GeneProduct " transform="translate(617 330.5)"  name="SMO" ><rect   width="50" height="25"/><text   transform="translate(25,12.5)"    >SMO</text></g><g id="fe7da" class="Edge"  ><path    d="m605 505 8.25-1e-13c8.25 4e-14 24.75 4e-14 33-24.92 8.25-24.92 8.25-74.75 8.25-99.67l1e-13 -24.92" stroke-dasharray="5,3"/></g><g id="ba6c3" class="GeneProduct " transform="translate(928.33 285.5)"  name="GPR161" ><rect   width="56" height="25"/><text   transform="translate(28,12.5)"    >GPR161</text></g><g id="b4f09" class="GeneProduct " transform="translate(934.33 437.5)"  name="GPR161" ><rect   width="56" height="25"/><text   transform="translate(28,12.5)"    >GPR161</text></g><g id="dea13" class="GeneProduct " transform="translate(906 568.17)"  name="SUFU" ><rect   width="56" height="25"/><g id="a26fb" class="State Burr" transform="translate(47.5,-5.5)"  name="Ub" ><g class="State Burr"><use class="State Burr Node Icon" width="17" height="17" fill="#fff" stroke="#000" href="#Ellipse"/></g><g ><defs><clipPath ><rect x="-8.5" y="-8.5" width="17" height="17" style="stroke:none"/></clipPath></defs><text   transform="translate(8.5,8.5)"  font-family="arial" overflow="visible" style="font-size:10px">Ub</text></g></g><text   transform="translate(28,12.5)"    >SUFU</text></g><g id="a8d45" class="Label" transform="translate(889 649.17)"  name="Degradation" ><g class="Label"/><text   transform="translate(45,12.5)"    font-weight="bold" >Degradation</text></g><g id="d3ab9" class="GroupGroup" transform="translate(1005.5 521.83)"  ><g class="GroupGroup"><g id="ac378" class="GeneProduct " transform="translate(8,8)"  name="SPOP" ><rect   width="61" height="25"/><text   transform="translate(30.5 12.5)"    >SPOP</text></g><g id="f6ed7" class="GeneProduct " transform="translate(8,33)"  name="SPOPL" ><rect   width="61" height="25"/><text   transform="translate(30.5 12.5)"    >SPOPL</text></g><g id="a36ec" class="GeneProduct " transform="translate(8,58)"  name="CUL3" ><rect   width="61" height="25"/><text   transform="translate(30.5 12.5)"    >CUL3</text></g></g></g><g id="bdf0e" class="GroupGroup" transform="translate(707.67 764.83)"  ><g class="GroupGroup"><g id="ab5f1" class="GeneProduct " transform="translate(8,8)"  name="SPOP" ><rect   width="56" height="25"/><text   transform="translate(28,12.5)"    >SPOP</text></g><g id="a7ff9" class="GeneProduct " transform="translate(8,33)"  name="SPOPL" ><rect   width="56" height="25"/><text   transform="translate(28,12.5)"    >SPOPL</text></g><g id="c0da5" class="GeneProduct " transform="translate(8,58)"  name="CUL3" ><rect   width="56" height="25"/><text   transform="translate(28,12.5)"    >CUL3</text></g></g></g><g id="f1675" class="GroupGroup" transform="translate(700.67 1019.8)"  ><g class="GroupGroup"><g id="db996" class="GeneProduct " transform="translate(8,8)"  name="GLI1" ><rect   width="44" height="25"/><text   transform="translate(22,12.5)"    >GLI1</text></g><g id="a9de9" class="GeneProduct " transform="translate(8,33)"  name="GLI2" ><rect   width="44" height="25"/><text   transform="translate(22,12.5)"    >GLI2</text></g><g id="b0ada" class="GeneProduct " transform="translate(8,58)"  name="GLI3" ><rect   width="44" height="25"/><text   transform="translate(22,12.5)"    >GLI3</text></g></g></g><g id="a032e" class="GroupGroup" transform="translate(775.67 1026.8)"  ><g class="GroupGroup"><g id="b9a1e" class="GeneProduct " transform="translate(8,8)"  name="PTCH1" ><rect   width="57" height="25"/><text   transform="translate(28.5,12.5)"    >PTCH1</text></g><g id="d712e" class="GeneProduct " transform="translate(8,33)"  name="PTCH2" ><rect   width="57" height="25"/><text   transform="translate(28.5,12.5)"    >PTCH2</text></g></g></g><g id="e66be" class="GroupGroup" transform="translate(924.67 1020.8)"  ><g class="GroupGroup"><g id="a55c3" class="GeneProduct " transform="translate(8,8)"  name="CCND1" ><rect   width="52" height="25"/><text   transform="translate(26,12.5)"    >CCND1</text></g><g id="d66cb" class="GeneProduct " transform="translate(8,33)"  name="CCND2" ><rect   width="52" height="25"/><text   transform="translate(26,12.5)"    >CCND2</text></g></g></g><g id="e1e3d" class="GeneProduct " transform="translate(1005.7 1043.8)"  name="BCL2" ><rect   width="52" height="25"/><text   transform="translate(26,12.5)"    >BCL2</text></g><g id="b8634" class="Edge"  ><path    d="m880.33 824.17v156.17h-149.67v39.5" style="marker-end:url(#memtranscriptiontranslation000)"/></g><g id="ff115" class="Edge"  ><path    d="m880.33 824.17v156.17h5.33v64.5" style="marker-end:url(#memtranscriptiontranslation000)"/></g><g id="f53b0" class="Edge"  ><path    d="m880.33 824.17v156.17h78.33v40.5" style="marker-end:url(#memtranscriptiontranslation000)"/></g><g id="db257" class="Edge"  ><path    d="m880.33 824.17v156.17h151.33v63.5" style="marker-end:url(#memtranscriptiontranslation000)"/></g><g id="e9b5b" class="Label" transform="translate(706.33 881.83)"  name="Degradation" ><g class="Label"/><text   transform="translate(45,12.5)"    font-weight="bold" >Degradation</text></g><g id="c7460" class=" PhysicalEntity CellularComponent Vesicle" transform="translate(504 471)"  ><g class=" PhysicalEntity CellularComponent Vesicle"><use class=" PhysicalEntity CellularComponent Vesicle Node Icon" transform="matrix(0.96 0 0 0.96 1.44 1.44)" width="72" height="69" fill="transparent" stroke="#c0c0c0" stroke-width="3" href="#Ellipse"/></g></g><g id="dbf16" class="GeneProduct " transform="translate(555 492.5)"  name="SMO" ><rect   width="50" height="25"/><text   transform="translate(25,12.5)"    >SMO</text></g></g></g></g></svg>