<?xml version="1.0" encoding="UTF-8"?>
<svg xmlns="http://www.w3.org/2000/svg" id="-svg" class="Diagram"  baseProfile="full" prefix="schema:http://schema.org/" preserveAspectRatio="xMidYMid"  version="1.1"><defs><g id="icon-defs"><symbol id="ArcPathVisio" class=" Icon ArcPathVisio" x="0" y="0" overflow="visible" preserveAspectRatio="none" viewBox="0 0 100 100"><desc>ArcPathVisio</desc><path d="m99.5 50c0 27.34-22.16 49.5-49.5 49.5s-49.5-22.16-49.5-49.5" vector-effect="non-scaling-stroke"/></symbol><symbol id="Ellipse" class=" Icon Ellipse" x="0" y="0" overflow="visible" preserveAspectRatio="none" viewBox="0 0 50 50"><desc>Ellipse</desc><ellipse cx="25" cy="25" rx="25" ry="25" vector-effect="non-scaling-stroke"/></symbol><symbol id="Octagon" class=" Icon Octagon" x="0" y="0" overflow="visible" preserveAspectRatio="none" viewBox="0 0 100 100"><desc>Octagon</desc><path d="m0 25 25-25h50l25 25v50l-25 25h-50l-25-25z" vector-effect="non-scaling-stroke"/></symbol></g><g id="marker-defs"><marker id="memcatalysis000" markerHeight="12" markerWidth="12" orient="auto" preserveAspectRatio="none" refX="12" refY="6" viewBox="0 0 12 12"><g id="g-memcatalysis000" transform=""><g transform="rotate(180 6 6)"><circle cx="6" cy="6" r="5.3px" fill="#fff" stroke="#000"/></g></g></marker><marker id="mea" markerHeight="12" markerWidth="12" orient="auto" preserveAspectRatio="none" refX="12" refY="6" viewBox="0 0 12 12"><g id="g-mea" transform=""><g transform="rotate(180 6 6)"><rect y="5.4" width="2" height="1.2" style="stroke:#fff"/><polygon points="12 11 0 6 12 1" stroke-width="0"/></g></g></marker><marker id="memconversion000" markerHeight="12" markerWidth="12" orient="auto" preserveAspectRatio="none" refX="12" refY="6" viewBox="0 0 12 12"><g id="g-memconversion000" transform=""><g transform="rotate(180 6 6)"><rect y="5.4" width="2" height="1.2" style="stroke:#fff"/><polygon points="12 11 0 6 12 1" stroke-width="0"/></g></g></marker><marker id="memcatalysis000000e6e6e6" markerHeight="12" markerWidth="12" orient="auto" preserveAspectRatio="none" refX="12" refY="6" viewBox="0 0 12 12"><g id="g-memcatalysis000000e6e6e6" transform=""><g transform="rotate(180 6 6)"><circle cx="6" cy="6" r="5.3px" fill="#e6e6e6" stroke="#000"/></g></g></marker></g></defs><g id="viewport-20220102143448015" class="svg-pan-zoom_viewport" transform="matrix(0.66 0 0 0.66 0 9.89)" style="transform:matrix(0.66, 0, 0, 0.66, 0, 9.89)"><style>svg.Diagram {font-family: 'Liberation Sans', Arial, sans-serif; }.Diagram path {fill: transparent;stroke: #000;marker-end: url(#mea);}.Diagram symbol path {fill: inherit;stroke: inherit;stroke-width: inherit;marker-end: inherit;}.Diagram rect {fill: #fff;stroke: #000;}.Diagram text {dominant-baseline: central;overflow: hidden;text-anchor: middle;fill: #000;font-size: 12px;}</style><style type="text/css">.Viewport .textContent {
  pointer-events: none;
  stroke-width: 0px;
}

					.Viewport.Icon {
  fill: white;
}

/* Hide the InfoBox */
.Viewport.textContent {
  font-size: 0;
}

.textContent {
  stroke: none;
}

.DataNode {
  stroke-miterlimit: 1;
  pointer-events: auto;
}

.DataNode:hover {
  cursor: pointer;
}

/* TODO should this apply to things other than DataNodes? */
.DataNode.textContent {
  pointer-events: none;
}

.DataNode.Highlighted {
  opacity: 0.6;
  stroke-width: 0px;
}

marker {
  /* this is what should work per the spec
  stroke-dasharray: none; */
  /* but I need to add this to make it work in Safari */
  stroke-dasharray: 9999999999999999999999999;
}

.Citation.Icon {
  fill: none;
  stroke-width: 0px;
}

.Citation.textContent {
  text-align: center;
  vertical-align: top;
  font-size: 7px;
  fill: #999;
  fill-opacity: 1;
  stroke: none;
}</style><g id="WP4253" class="Pathway http___identifiers_org_pw_PW_0000037 http___identifiers_org_pw_PW_0000134 Viewport"  name="Name: Trans-sulfuration pathway Last Modified: 10/16/2013 Organism: Homo sapiens" ><g class="Pathway http___identifiers_org_pw_PW_0000037 http___identifiers_org_pw_PW_0000134 Viewport"><rect   width="1812.4" height="980.55" style="stroke:none"/><g id="idf788f5b6" class="Edge"  ><path    d="m1576.7 378.15h110.29" stroke-dasharray="5,3" stroke-width="2"/></g><g id="id1443832e" class="Edge"  ><path    d="m862.86 640 27.90 13.93" style="marker-end:url(#memcatalysis000)"/></g><g id="id171d7e32" class="Edge"  ><path    d="m1362.2 572.38 103.81 28.62"/></g><g id="id1d23f03b" class="Edge"  ><path    d="m1181.2 643.57-45.18-0.25" style="marker-end:url(#memcatalysis000)"/></g><g id="id1f7fcbf8" class="Edge"  ><path    d="m1377.1 637.27 97.02-25.36"/></g><g id="id22c33353" class="Edge"  ><path    d="m1228.2 330.37-0.19 107.02"/><g id="fbe07" class="AB" transform="translate(1228.1 381.79)"  ><g class="AB"/></g></g><g id="id2f951724" class="Edge"  ><path    d="m1130.5 709.49 2.18 51.96"/></g><g id="id3186f175" class="Edge"  ><path    d="m1376.1 378.15 97.88 1.05" style="marker-end:url(#memconversion000)"/><g id="faa13" class="AB" transform="translate(1425 378.68)"  ><g class="AB"/></g></g><g id="id39fecf4a" class="Edge"  ><path    d="m1505.4 613.26 0.61 63.84" style="marker-end:url(#memconversion000)"/><g id="b0820" class="AB" transform="translate(1505.8 645.18)"  ><g class="AB"/></g></g><g id="id13a10006" class="Edge"  ><path    d="m1559.9 645.79-54.10-0.61" style="marker-end:url(#memcatalysis000)"/></g><g id="id3b7bc2b1" class="Edge"  ><path    d="m1022.2 320.85 123-0.48"/><g id="d7db1" class="AB" transform="translate(1071.4 320.66)"  ><g class="AB"/></g></g><g id="id1c321d5f" class="Edge"  ><path    d="m1071.4 320.66 1.88-121.71" style="marker-end:url(#memconversion000)"/></g><g id="id3f90ddd9" class="Edge"  ><path    d="m456.78 565.29 1.32 202.33"/></g><g id="id470061d3" class="Edge"  ><path    d="m1420 511.43-3.24 80.63" style="marker-end:url(#memcatalysis000)"/></g><g id="id478f6cde" class="Edge"  ><path    d="m729.88 729.7-0.36 92.20" stroke-dasharray="5,3"/></g><g id="id4dc0cb39" class="Edge"  ><path    d="m1179.7 604.19 104.94 24.62"/></g><g id="id50958a8b" class="Edge"  ><path    d="m1018.5 268.05 52.91 52.62" style="marker-end:none"/></g><g id="id50b8ee7c" class="Edge"  ><path    d="m1129.8 616.95 0.70 58.91"/></g><g id="id566429a0" class="Edge"  ><path    d="m834.62 680.26 2.52 25.45" style="marker-end:url(#memcatalysis000)"/></g><g id="id591527d2" class="Edge"  ><path    d="m949.68 539.52v48.32"/></g><g id="id6bfe5f0" class="Edge"  ><path    d="m899.52 447.3-9.92-6e-14c-9.92 0-29.77 0-39.70-21.07-9.92-21.07-9.92-63.22-0.06-84.30 9.87-21.07 29.61-21.07 39.48-21.07h9.87"/><g id="f0228" class="AB" transform="translate(842.52 388.7)"  ><g class="AB"/></g></g><g id="id6e30c765" class="Edge"  ><path    d="m1179.7 598.68 103.64-26.30"/></g><g id="id6f8bce6a" class="Edge"  ><path    d="m1163.6 855.57-29.33-0.33" style="marker-end:url(#memcatalysis000)"/></g><g id="id703fdafa" class="Edge"  ><path    d="m523.41 851.49-66.96 4.08" style="marker-end:url(#memcatalysis000)"/></g><g id="id81359fa" class="Edge"  ><path    d="m840.19 388.53h-3.33c-3.33 0-10 0-13.33-11.10-3.33-11.10-3.33-33.29-6.67-44.39-3.34-11.10-10.01-11.10-13.35-11.10h-3.34" style="marker-end:url(#memconversion000)"/></g><g id="id8619b084" class="Edge"  ><path    d="m784.76 556.19h-87.62"/></g><g id="id8b34176e" class="Edge"  ><path    d="m574.13 557.99-84 1" style="marker-end:url(#memconversion000)"/><g id="f136f" class="AB" transform="translate(528.54 558.54)"  ><g class="AB"/></g></g><g id="id9177a2cf" class="Edge"  ><path    d="m790.83 441.3 3.33-6e-14c3.33 6e-14 10 6e-14 13.33 0.06 3.33 0.06 3.33 0.17 8.23 0.22 4.89 0.06 14.68 0.06 19.57-8.79 4.89-8.85 4.89-26.55 4.89-35.40l2e-13 -8.85" style="marker-end:none"/></g><g id="id918e49e2" class="Edge"  ><path    d="m851.95 559.05 97.57 2.86" style="marker-end:url(#memcatalysis000)"/></g><g id="id959ba6e5" class="Edge"  ><path    d="m459.71 798.08-0.66 118.11"/></g><g id="id9750a6b6" class="Edge"  ><path    d="m949.75 457.3 0.88 49.01"/><g id="e1364" class="AB" transform="translate(950.11 477.61)"  ><g class="AB"/></g></g><g id="id9a91f515" class="Edge"  ><path    d="m1228.1 381.79 46.49-2.31" style="marker-end:url(#memconversion000)"/></g><g id="ida1432e87" class="Edge"  ><path    d="m1187.1 729.93h-54.45" style="marker-end:url(#memcatalysis000)"/></g><g id="ida3bea815" class="Edge"  ><path    d="m950.3 728.98-1 70"/><g id="d1881" class="AB" transform="translate(949.85 760.03)"  ><g class="AB"/></g></g><g id="id24147e29" class="Edge"  ><path    d="m912 759 37.85 1.03" style="marker-end:url(#memcatalysis000)"/></g><g id="idaf1e12f" class="Edge"  ><path    d="m457.14 692.38-41.33 2.23" style="marker-end:url(#memcatalysis000)"/></g><g id="idafeb39c9" class="Edge"  ><path    d="m1551.1 600.88 88 0.12" style="marker-end:url(#memconversion000)"/></g><g id="idbabd3c01" class="Edge"  ><path    d="m1054.5 342.82 16.86-22.16" style="marker-end:url(#memcatalysis000)"/></g><g id="idc55cf613" class="Edge"  ><path    d="m1424.4 338.62 0.62 40.05" style="marker-end:url(#memcatalysis000)"/></g><g id="idc5c3b67" class="Edge"  ><path    d="m1071.4 320.66 27.21-74.61" style="marker-end:url(#memconversion000)"/></g><g id="idca3a977c" class="Edge"  ><path    d="m1131.4 804.76 1.90 108.57" style="marker-end:url(#memconversion000)"/></g><g id="idcca84c72" class="Edge"  ><path    d="m1198.3 369.57 29.79 12.22" style="marker-end:url(#memcatalysis000)"/></g><g id="idcff0cfa0" class="Edge"  ><path    d="m930.4 386.72-90.22 1.81" style="marker-end:url(#memcatalysis000)"/></g><g id="idd6f360b2" class="Edge"  ><path    d="m990.85 597.9 78.15 1.05"/><g id="fe9b9" class="AB" transform="translate(1022.1 598.32)"  ><g class="AB"/></g></g><g id="idb4f24a3" class="Edge"  ><path    d="m1021.3 562.39 0.77 35.92" style="marker-end:url(#memcatalysis000)"/></g><g id="idfeb46347" class="Edge"  ><path    d="m950.85 607.9-1.42 99.34"/><g id="e3bec" class="AB" transform="translate(950.09 660.91)"  ><g class="AB"/></g></g><g id="idefd6ae3e" class="Edge"  ><path    d="m1002.5 662.37-52.36-1.46" style="marker-end:url(#memcatalysis000)"/></g><g id="idfeb7b36" class="Edge"  ><path    d="m1144 448.4-144-1.10"/><g id="ca262" class="AB" transform="translate(1086.4 447.96)"  ><g class="AB"/></g></g><g id="id8a4883cb" class="Edge"  ><path    d="m1090.5 475.58-4.13-27.62" style="marker-end:url(#memcatalysis000)"/></g><g id="pvjsgeneratedidff36f" class="GroupGroup" transform="translate(1535.7 441)"  ><g class="GroupGroup"><g id="id84d0596a" class="Edge"  ><path    d="m53 107.66-0.45 3.86" style="marker-end:url(#memcatalysis000000e6e6e6)"/></g><g id="a9144" class="GeneProduct " transform="translate(8 58.87)"  name="GGT1" ><rect   width="90" height="25"/><text   transform="translate(45 12.5)"    >GGT1</text></g><g id="c0833" class="GeneProduct " transform="translate(8 82.66)"  name="GGT6" ><rect   width="90" height="25"/><text   transform="translate(45 12.5)"    >GGT6</text></g><g id="c37ac" class="GeneProduct " transform="translate(8 33)"  name="GGT7" ><rect   width="90" height="27.25"/><text   transform="translate(45 13.62)"    >GGT7</text></g><g id="f9626" class="GeneProduct " transform="translate(8,8)"  name="GGT5" ><rect   width="90.32" height="28.10"/><text   transform="translate(45.16 14.05)"    >GGT5</text></g><g id="df735" class="Edge"  ><path    d="m53 107.66 1.52 51.73" style="marker-end:url(#memcatalysis000000e6e6e6)"/></g></g></g><g id="id9f1ae1fd" class="Edge"  ><path    d="m527.68 507.23 0.87 51.31" style="marker-end:url(#memcatalysis000)"/></g><g id="id7a2e4a09" class="Edge"  ><path    d="m910.73 467.05 39.39 10.56" style="marker-end:url(#memcatalysis000)"/></g><g id="a453a" class="" transform="translate(731.2 656.96) rotate(-31.68 108.64 9.80)"  ><g class=""><use class=" Node Icon" width="217.27" height="19.61" fill="#fff" stroke="#000" href="#ArcPathVisio"/></g></g><g id="a0339" class="Metabolite KEGG_Compound_C00051" transform="translate(909.47 799.12)"  name="Glutathione" ><rect   width="80" height="20" style="stroke:#00f"/><text   transform="translate(40,10)"     style="fill:#00f">Glutathione</text></g><g id="a1188" class="Metabolite KEGG_Compound_C00440" transform="translate(710.83 431.3)"  name="5-Methyl-THF" ><rect   width="80" height="20" style="stroke:#00f"/><text   transform="translate(40,10)"     style="fill:#00f">5-Methyl-THF</text></g><g id="a2beb" class="GeneProduct " transform="translate(1377.5 483.4)"  name="GAD1" ><rect   width="90" height="25"/><text   transform="translate(45,12.5)"    >GAD1</text></g><g id="a3b9d" class="GeneProduct " transform="translate(1002 648)"  name="GCLM" ><rect   width="43" height="24.63"/><text   transform="translate(21.5 12.32)"    >GCLM</text></g><g id="a57f6" class="Metabolite " transform="translate(1692.4 364.6)"  name="Creatinine" ><rect   width="90" height="25" style="stroke:#00f"/><text   transform="translate(45,12.5)"     style="fill:#00f">Creatinine</text></g><g id="a95f5" class="GeneProduct" transform="translate(1639.1 588.5)"  name="5-Glutamyl Taurine" ><rect   width="132.5" height="25" style="stroke:#00f"/><text   transform="translate(66.25,12.5)"     style="fill:#00f">5-Glutamyl Taurine</text></g><g id="ab3eb" class="GeneProduct " transform="translate(881.4 376.72)"  name="MTR" ><rect   width="49" height="20"/><text   transform="translate(24.5,10)"    >MTR</text></g><g id="b06c7" class="Metabolite KEGG_Compound_C00021" transform="translate(1144 437.4)"  name="S-Adenosylhomocysteine (SAH)" ><rect   width="168.04" height="22" style="stroke:#00f"/><text   transform="translate(84.02 11)"     style="fill:#00f">S-Adenosylhomocysteine (SAH)</text></g><g id="b790f" class="Metabolite " transform="translate(1078.6 915.81)"  name="Sulfite" ><rect   width="107.57" height="34.74" style="stroke:#00f"/><text   transform="translate(53.79 17.37)"     style="fill:#00f">Sulfite</text></g><g id="b9024" class="Metabolite KEGG_Compound_C00019" transform="translate(1145.2 310.37)"  name="S-Adenosylmethionine (SAMe)" ><rect   width="166" height="20" style="stroke:#00f"/><text   transform="translate(83,10)"     style="fill:#00f">S-Adenosylmethionine (SAMe)</text></g><g id="b984b" class="Metabolite " transform="translate(1473.9 366.7)"  name="Phosphocreatine" ><rect   width="97.5" height="25" style="stroke:#00f"/><text   transform="translate(48.75 12.5)"     style="fill:#00f">Phosphocreatine</text></g><g id="ba95a" class="GeneProduct " transform="translate(1377.5 458.4)"  name="GAD2" ><rect   width="90" height="25"/><text   transform="translate(45,12.5)"    >GAD2</text></g><g id="bd46e" class="GeneProduct " transform="translate(1377.5 433.4)"  name="GADL1" ><rect   width="90" height="25"/><text   transform="translate(45,12.5)"    >GADL1</text></g><g id="bfeae" class="Metabolite " transform="translate(402.1 922.01)"  name="Propionylcarnitine" ><rect   width="119.2" height="25" style="stroke:#00f"/><text   transform="translate(59.60 12.5)"     style="fill:#00f">Propionylcarnitine</text></g><g id="c0384" class="GeneProduct " transform="translate(1377.5 408.4)"  name="CSAD" ><rect   width="90" height="25"/><text   transform="translate(45,12.5)"    >CSAD</text></g><g id="c1d47" class="GeneProduct " transform="translate(1190.1 704.27)"  name="MDH1" ><rect   width="52.78" height="25"/><text   transform="translate(26.39 12.5)"    >MDH1</text></g><g id="c4118" class="Pathway" transform="translate(1580 353.05)"  name="SPONTANOUS" ><g class="Pathway"/><g ><defs><clipPath ><rect x="-45" y="-12.5" width="90" height="25" style="stroke:none"/></clipPath></defs><text   transform="translate(45,12.5)"    font-weight="bold"  style="fill:#14961e">SPONTANOUS</text></g></g><g id="c4fd6" class="Metabolite KEGG_Compound_C00008" transform="translate(1098.6 236.05)"  name="ADP" ><rect   width="80" height="20" style="stroke:#00f"/><text   transform="translate(40 10)"     style="fill:#00f">ADP</text></g><g id="c5aa7" class="GeneProduct " transform="translate(1561.9 631.79)"  name="BAAT" ><rect   width="51.38" height="23.83"/><text   transform="translate(25.69 11.91)"    >BAAT</text></g><g id="cb758" class="Metabolite " transform="translate(364.45 545)"  name="2-Hydroxybutyrate" ><rect   width="118" height="24.5" style="stroke:#00f"/><text   transform="translate(59,12.25)"     style="fill:#00f">2-Hydroxybutyrate</text></g><g id="ceaa1" class="Metabolite KEGG_Compound_C00097" transform="translate(910.85 587.9)"  name="L-Cysteine" ><rect   width="80" height="20" style="stroke:#00f"/><text   transform="translate(40,10)"     style="fill:#00f">L-Cysteine</text></g><g id="d42df" class="Metabolite KEGG_Compound_C00101" transform="translate(675.66 311.62)"  name="Tetrahydrofolate (THF)" ><rect   width="124.5" height="20.66" style="stroke:#00f"/><text   transform="translate(62.25 10.33)"     style="fill:#00f">Tetrahydrofolate (THF)</text></g><g id="d56fd" class="Metabolite " transform="translate(1280.8 365.77)"  name="Creatine" ><rect   width="89" height="29.5" style="stroke:#00f"/><text   transform="translate(44.5,14.75)"     style="fill:#00f">Creatine</text></g><g id="d96fd" class="GeneProduct " transform="translate(1190.1 729.27)"  name="MDH2" ><rect   width="52.78" height="25"/><text   transform="translate(26.39 12.5)"    >MDH2</text></g><g id="d9e9e" class="Metabolite KEGG_Compound_C00073" transform="translate(899.19 310.85)"  name="L-Methionine" ><rect   width="123" height="20" style="stroke:#00f"/><text   transform="translate(61.5,10)"     style="fill:#00f">L-Methionine</text></g><g id="da6a6" class="GeneProduct " transform="translate(1186 647.92)"  name="GOT2" ><rect   width="55" height="25"/><text   transform="translate(27.5 12.5)"    >GOT2</text></g><g id="db6f8" class="Metabolite " transform="translate(578.73 540.84)"  name="2-Ketobutyric acid" ><rect   width="113.66" height="29.13" style="stroke:#00f"/><text   transform="translate(56.83 14.56)"     style="fill:#00f">2-Ketobutyric acid</text></g><g id="dc14e" class="GeneProduct " transform="translate(998.85 542.39)"  name="CDO1" ><rect   width="45" height="20"/><text   transform="translate(22.5,10)"    >CDO1</text></g><g id="dd0cc" class="Metabolite KEGG_Compound_C00025" transform="translate(909.47 707.37)"  name="L-Glutamate" ><rect   width="80" height="20" style="stroke:#00f"/><text   transform="translate(40,10)"     style="fill:#00f">L-Glutamate</text></g><g id="dec79" class="GeneProduct " transform="translate(1002 672.63)"  name="GCLC" ><rect   width="43" height="24.63"/><text   transform="translate(21.5 12.32)"    >GCLC</text></g><g id="e0844" class="Metabolite " transform="translate(1076.7 584.78)"  name="3-Sulfinoalanine" ><rect   width="107.57" height="34.74" style="stroke:#00f"/><text   transform="translate(53.79 17.37)"     style="fill:#00f">3-Sulfinoalanine</text></g><g id="e476f" class="Metabolite " transform="translate(1466 591)"  name="Taurine" ><rect   width="80" height="20" style="stroke:#00f"/><text   transform="translate(40,10)"     style="fill:#00f">Taurine</text></g><g id="e480f" class="Pathway" transform="translate(677.72 826.91)"  name="PYRUVATE METABOLISM" ><g class="Pathway"><use class="Pathway Node Icon" width="97.52" height="96.90" fill="#99ff99" stroke="#000" stroke-dasharray="5,3" href="#Ellipse"/></g><g ><defs><clipPath ><rect x="-48.76" y="-48.45" width="97.52" height="96.90" style="stroke:none"/></clipPath></defs><text   transform="translate(48.76 48.45)"    ><tspan   x="0" y="-6.60">PYRUVATE</tspan><tspan   x="0" y="6.60">METABOLISM</tspan></text></g></g><g id="e4d69" class="Metabolite " transform="translate(1076.7 765.83)"  name="3-sulfolactate" ><rect   width="107.57" height="34.74" style="stroke:#00f"/><text   transform="translate(53.79 17.37)"     style="fill:#00f">3-sulfolactate</text></g><g id="e6c5a" class="Metabolite " transform="translate(1467.1 682.4)"  name="Taurocholate" ><rect   width="77.4" height="22.32" style="stroke:#00f"/><text   transform="translate(38.7 11.16)"     style="fill:#00f">Taurocholate</text></g><g id="e6da1" class="Protein" transform="translate(1166.9 841.94)"  name="SO" ><rect   width="48.35" height="25"/><text   transform="translate(24.18 12.5)"    >SO</text></g><g id="ed5e8" class="GeneProduct" transform="translate(788.57 546.55)"  name="CBS" ><rect   width="63.38" height="25"/><text   transform="translate(31.69 12.5)"    >CBS</text></g><g id="edfb5" class="Metabolite " transform="translate(1076.7 674.75)"  name="3-Sulfinopyruvate" ><rect   width="107.57" height="34.74" style="stroke:#00f"/><text   transform="translate(53.79 17.37)"     style="fill:#00f">3-Sulfinopyruvate</text></g><g id="efcf9" class="Metabolite KEGG_Compound_C00155" transform="translate(899.52 437.3)"  name="L-Homocysteine" ><rect   width="100.46" height="20" style="stroke:#00f"/><text   transform="translate(50.23 10)"     style="fill:#00f">L-Homocysteine</text></g><g id="f0440" class="Metabolite " transform="translate(904 509.4)"  name="L-Cystathionine" ><rect   width="90" height="25" style="stroke:#00f"/><text   transform="translate(45,12.5)"     style="fill:#00f">L-Cystathionine</text></g><g id="f0ce1" class="Metabolite KEGG_Compound_C00002" transform="translate(978.48 248.05)"  name="ATP" ><rect   width="80" height="20" style="stroke:#00f"/><text   transform="translate(40 10)"     style="fill:#00f">ATP</text></g><g id="f0d81" class="Metabolite " transform="translate(414.71 773.08)"  name="Propionyl-CoA" ><rect   width="90" height="25" style="stroke:#00f"/><text   transform="translate(45,12.5)"     style="fill:#00f">Propionyl-CoA</text></g><g id="f2464" class="Metabolite " transform="translate(1283.4 554.9)"  name="L-Cysteate" ><rect   width="78.81" height="34.95" style="stroke:#00f"/><text   transform="translate(39.40 17.48)"     style="fill:#00f">L-Cysteate</text></g><g id="f9195" class="GeneProduct " transform="translate(517.27 840.04)"  name="CRAT" ><rect   width="90" height="25"/><text   transform="translate(45,12.5)"    >CRAT</text></g><g id="fc4cb" class="GeneProduct " transform="translate(1186 623.45)"  name="GOT1" ><rect   width="55" height="25"/><text   transform="translate(27.5,12.5)"    >GOT1</text></g><g id="fd897" class="Metabolite KEGG_Compound_C00022" transform="translate(690.03 701.72)"  name="Pyruvate" ><rect   width="74.14" height="25" style="stroke:#00f"/><text   transform="translate(37.07 12.5)"     style="fill:#00f">Pyruvate</text></g><g id="fdb5d" class="Metabolite KEGG_Compound_C00519" transform="translate(1284.7 622.56)"  name="Hypotaurine" ><rect   width="90" height="25" style="stroke:#00f"/><text   transform="translate(45,12.5)"     style="fill:#00f">Hypotaurine</text></g><g id="ff36d" class="GeneProduct " transform="translate(815.95 707.5)"  name="CTH" ><rect   width="41.19" height="25"/><text   transform="translate(20.59 12.5)"    >CTH</text></g><g id="pvjsgeneratedidff36e" class="GroupComplex" transform="translate(323.22 593.09)"  ><g class="GroupComplex"><use class="Icon" width="97" height="154.49" fill="#b4b464" fill-opacity=".1" stroke="grey" href="#Octagon"/><g id="bd662" class="GeneProduct " transform="translate(12,12)"  name="DBT" ><rect   width="73" height="35.99"/><text   transform="translate(36.5 18.00)"    >DBT</text></g><g id="d62a3" class="GeneProduct " transform="translate(12 110.99)"  name="BCKDHA" ><rect   width="73" height="31.5"/><text   transform="translate(36.5,15.75)"    >BCKDHA</text></g><g id="d5b06" class="GeneProduct " transform="translate(12 47.99)"  name="DLD" ><rect   width="73" height="31.5"/><text   transform="translate(36.5,15.75)"    >DLD</text></g><g id="cfc6a" class="GeneProduct " transform="translate(12 79.49)"  name="BCKDHB" ><rect   width="73" height="31.5"/><text   transform="translate(36.5,15.75)"    >BCKDHB</text></g></g></g><g id="pvjsgeneratedidff370" class="GroupGroup" transform="translate(1371.4 205.31)"  ><g class="GroupGroup"><g id="aa791" class="GeneProduct " transform="translate(8 83.19)"  name="CKM" ><rect   width="90" height="25.06"/><text   transform="translate(45 12.53)"    >CKM</text></g><g id="c885f" class="GeneProduct " transform="translate(8 8)"  name="CKMT1A" ><rect   width="90" height="25.06"/><text   transform="translate(45 12.53)"    >CKMT1A</text></g><g id="fbf3d" class="GeneProduct " transform="translate(8 108.25)"  name="CKB" ><rect   width="90" height="25.06"/><text   transform="translate(45 12.53)"    >CKB</text></g><g id="fda18" class="GeneProduct " transform="translate(8 58.13)"  name="CKMT1B" ><rect   width="90" height="25.06"/><text   transform="translate(45 12.53)"    >CKMT1B</text></g><g id="fed05" class="GeneProduct " transform="translate(8 33.06)"  name="CKMT2" ><rect   width="90" height="25.06"/><text   transform="translate(45 12.53)"    >CKMT2</text></g></g></g><g id="pvjsgeneratedidff371" class="GroupGroup" transform="translate(1017 334.82)"  ><g class="GroupGroup"><g id="a5d51" class="GeneProduct " transform="translate(8,8)"  name="MAT2B" ><rect   width="58.96" height="24.08"/><text   transform="translate(29.48 12.04)"    >MAT2B</text></g><g id="bbc27" class="GeneProduct " transform="translate(8 54.27)"  name="MAT2A" ><rect   width="58.96" height="24.08"/><text   transform="translate(29.48 12.04)"    >MAT2A</text></g><g id="cfc72" class="GeneProduct " transform="translate(8 30.68)"  name="MAT1A" ><rect   width="58.96" height="24.08"/><text   transform="translate(29.48 12.04)"    >MAT1A</text></g></g></g><g id="pvjsgeneratedidff372" class="GroupGroup" transform="translate(1057.3 467.58)"  ><g class="GroupGroup"><g id="acdb9" class="Protein " transform="translate(8,8)"  name="AHCY" ><rect   width="50.51" height="20"/><text   transform="translate(25.26 10)"    >AHCY</text></g><g id="fe979" class="Protein " transform="translate(9.10 28)"  name="AHCYL1" ><rect   width="50.51" height="20"/><text   transform="translate(25.26 10)"    >AHCYL1</text></g><g id="d5c0e" class="Protein " transform="translate(8 49.10)"  name="AHCYL2" ><rect   width="50.51" height="20"/><text   transform="translate(25.26 10)"    >AHCYL2</text></g></g></g><g id="a6db1" class="GroupGroup" transform="translate(473.69 367.47)"  ><g class="GroupGroup"><g id="dc3ff" class="GeneProduct " transform="translate(8 83)"  name="LDHA" ><rect   width="91.64" height="23.76"/><text   transform="translate(45.82 11.88)"    >LDHA</text></g><g id="e50ee" class="GeneProduct " transform="translate(8,33)"  name="LDHC" ><rect   width="91.97" height="25"/><text   transform="translate(45.98 12.5)"    >LDHC</text></g><g id="e8cd1" class="GeneProduct " transform="translate(8 106.76)"  name="LDHAL6A" ><rect   width="91.97" height="25"/><text   transform="translate(45.98 12.5)"    >LDHAL6A</text></g><g id="f8d1f" class="GeneProduct " transform="translate(8,8)"  name="LDHAL6B" ><rect   width="91.97" height="25"/><text   transform="translate(45.98 12.5)"    >LDHAL6B</text></g><g id="f99c6" class="GeneProduct " transform="translate(8,58)"  name="LDHB" ><rect   width="91.97" height="25"/><text   transform="translate(45.98 12.5)"    >LDHB</text></g></g></g><g id="cd8c5" class="GroupGroup" transform="translate(809.61 602.39)"  ><g class="GroupGroup"><g id="a4cca" class="GeneProduct " transform="translate(9.10 8)"  name="GOT1" ><rect   width="40.75" height="20"/><text   transform="translate(20.38 10)"    >GOT1</text></g><g id="da022" class="GeneProduct " transform="translate(8,28)"  name="MPST" ><rect   width="40.75" height="20"/><text   transform="translate(20.38,10)"    >MPST</text></g></g></g><g id="dd09e" class="GroupGroup" transform="translate(1142.3 329.29)"  ><g class="GroupGroup"><g id="ecd50" class="GeneProduct " transform="translate(8,8)"  name="DNMT1" ><rect   width="48" height="24.57"/><text   transform="translate(24 12.29)"    >DNMT1</text></g><g id="e021d" class="GeneProduct " transform="translate(8,28)"  name="DNMT3A" ><rect   width="48" height="24.57"/><text   transform="translate(24 12.29)"    >DNMT3A</text></g><g id="e8468" class="GeneProduct " transform="translate(8,48)"  name="DNMT3B" ><rect   width="48" height="24.57"/><text   transform="translate(24 12.29)"    >DNMT3B</text></g><g id="a897e" class="GeneProduct " transform="translate(8 70.28)"  name="DNMT3L" ><rect   width="48" height="24.57"/><text   transform="translate(24 12.29)"    >DNMT3L</text></g></g></g><g id="f03f6" class="GroupGroup" transform="translate(848.08 453.05)"  ><g class="GroupGroup"><g id="a6a65" class="GeneProduct " transform="translate(9.10 8)"  name="CBS" ><rect   width="45.54" height="20"/><text   transform="translate(22.77 10)"    >CBS</text></g><g id="a7295" class="GeneProduct " transform="translate(8 28)"  name="CTH" ><rect   width="45.54" height="20"/><text   transform="translate(22.77 10)"    >CTH</text></g></g></g><g id="eead3" class="GeneProduct " transform="translate(866.13 745.18)"  name="GSS" ><rect   width="43" height="20"/><text   transform="translate(21.5,10)"    >GSS</text></g><g id="c76b0" class="Metabolite KEGG_Compound_C00009" transform="translate(1033.3 178.95)"  name="Phosphate" ><rect   width="80" height="20" style="stroke:#00f"/><text   transform="translate(40,10)"     style="fill:#00f">Phosphate</text></g><g id="e8079" class="GeneProduct " transform="translate(881.4 396.72)"  name="BHMT" ><rect   width="49" height="20"/><text   transform="translate(24.5,10)"    >BHMT</text></g></g></g></g></svg>