<?xml version="1.0" encoding="UTF-8"?>
<svg xmlns="http://www.w3.org/2000/svg" id="-svg" class="Diagram"  baseProfile="full" prefix="schema:http://schema.org/" preserveAspectRatio="xMidYMid"  version="1.1"><defs><g id="icon-defs"><symbol id="Octagon" class=" Icon Octagon" x="0" y="0" overflow="visible" preserveAspectRatio="none" viewBox="0 0 100 100"><desc>Octagon</desc><path d="m0 25 25-25h50l25 25v50l-25 25h-50l-25-25z" vector-effect="non-scaling-stroke"/></symbol></g><g id="marker-defs"><marker id="memcatalysis0033ffwhite" markerHeight="12" markerWidth="12" orient="auto" preserveAspectRatio="none" refX="12" refY="6" viewBox="0 0 12 12"><g id="g-memcatalysis0033ffwhite" transform=""><g transform="rotate(180 6 6)"><circle cx="6" cy="6" r="5.3px" fill="#fff" stroke="#03f"/></g></g></marker><marker id="memcatalysis0000ffwhite" markerHeight="12" markerWidth="12" orient="auto" preserveAspectRatio="none" refX="12" refY="6" viewBox="0 0 12 12"><g id="g-memcatalysis0000ffwhite" transform=""><g transform="rotate(180 6 6)"><circle cx="6" cy="6" r="5.3px" fill="#fff" stroke="#00f"/></g></g></marker><marker id="memconversion0000ffwhite" markerHeight="12" markerWidth="12" orient="auto" preserveAspectRatio="none" refX="12" refY="6" viewBox="0 0 12 12"><g id="g-memconversion0000ffwhite" transform=""><g transform="rotate(180 6 6)"><rect y="5.4" width="2" height="1.2" style="stroke:#fff"/><polygon points="12 11 0 6 12 1" fill="#00f" stroke-width="0"/></g></g></marker><marker id="mea00f" markerHeight="12" markerWidth="12" orient="auto" preserveAspectRatio="none" refX="12" refY="6" viewBox="0 0 12 12"><g id="g-mea00f" transform=""><g transform="rotate(180 6 6)"><rect y="5.4" width="2" height="1.2" style="stroke:#fff"/><polygon points="12 11 0 6 12 1" fill="#00f" stroke-width="0"/></g></g></marker><marker id="memconversion0000ffe6e6e6" markerHeight="12" markerWidth="12" orient="auto" preserveAspectRatio="none" refX="12" refY="6" viewBox="0 0 12 12"><g id="g-memconversion0000ffe6e6e6" transform=""><g transform="rotate(180 6 6)"><rect y="5.4" width="2" height="1.2" style="fill:#e6e6e6;stroke:#e6e6e6"/><polygon points="12 11 0 6 12 1" fill="#00f" stroke-width="0"/></g></g></marker><marker id="markerstartarrow000" markerHeight="12" markerWidth="12" orient="auto" preserveAspectRatio="none" refY="6" viewBox="0 0 12 12"><g id="g-markerstartarrow000" transform="rotate(180 6 6)"><g transform="rotate(180 6 6)"><rect y="5.4" width="2" height="1.2" style="stroke:#fff"/><polygon points="12 11 0 6 12 1" stroke-width="0"/></g></g></marker><marker id="memcatalysis000" markerHeight="12" markerWidth="12" orient="auto" preserveAspectRatio="none" refX="12" refY="6" viewBox="0 0 12 12"><g id="g-memcatalysis000" transform=""><g transform="rotate(180 6 6)"><circle cx="6" cy="6" r="5.3px" fill="#fff" stroke="#000"/></g></g></marker><marker id="memconversion000" markerHeight="12" markerWidth="12" orient="auto" preserveAspectRatio="none" refX="12" refY="6" viewBox="0 0 12 12"><g id="g-memconversion000" transform=""><g transform="rotate(180 6 6)"><rect y="5.4" width="2" height="1.2" style="stroke:#fff"/><polygon points="12 11 0 6 12 1" stroke-width="0"/></g></g></marker><marker id="mea" markerHeight="12" markerWidth="12" orient="auto" preserveAspectRatio="none" refX="12" refY="6" viewBox="0 0 12 12"><g id="g-mea" transform=""><g transform="rotate(180 6 6)"><rect y="5.4" width="2" height="1.2" style="stroke:#fff"/><polygon points="12 11 0 6 12 1" stroke-width="0"/></g></g></marker><marker id="memstimulation000" markerHeight="12" markerWidth="12" orient="auto" preserveAspectRatio="none" refX="12" refY="6" viewBox="0 0 12 12"><g id="g-memstimulation000" transform=""><g transform="rotate(180 6 6)"><rect y="5.4" width="2" height="1.2" style="stroke:none"/><line x1="12" x2="12" y1="6" y2="6" fill="none"/><polygon points="0 6 11 11 11 1" fill="#fff" stroke="#000"/></g></g></marker><marker id="memcatalysisff0000white" markerHeight="12" markerWidth="12" orient="auto" preserveAspectRatio="none" refX="12" refY="6" viewBox="0 0 12 12"><g id="g-memcatalysisff0000white" transform=""><g transform="rotate(180 6 6)"><circle cx="6" cy="6" r="5.3px" fill="#fff" stroke="#f00"/></g></g></marker><marker id="memconversionff0000white" markerHeight="12" markerWidth="12" orient="auto" preserveAspectRatio="none" refX="12" refY="6" viewBox="0 0 12 12"><g id="g-memconversionff0000white" transform=""><g transform="rotate(180 6 6)"><rect y="5.4" width="2" height="1.2" style="stroke:#fff"/><polygon points="12 11 0 6 12 1" fill="#f00" stroke-width="0"/></g></g></marker><marker id="memconversionff0000e6e6e6" markerHeight="12" markerWidth="12" orient="auto" preserveAspectRatio="none" refX="12" refY="6" viewBox="0 0 12 12"><g id="g-memconversionff0000e6e6e6" transform=""><g transform="rotate(180 6 6)"><rect y="5.4" width="2" height="1.2" style="fill:#e6e6e6;stroke:#e6e6e6"/><polygon points="12 11 0 6 12 1" fill="#f00" stroke-width="0"/></g></g></marker></g></defs><g id="viewport-20220102143635285" class="svg-pan-zoom_viewport" transform="matrix(0.52 0 0 0.52 351.95 -5.68e-14)" style="transform:matrix(0.52, 0, 0, 0.52, 351.95, -5.68e-14)"><style>svg.Diagram {font-family: 'Liberation Sans', Arial, sans-serif; }.Diagram path {fill: transparent;stroke: #000;marker-end: url(#mea);}.Diagram symbol path {fill: inherit;stroke: inherit;stroke-width: inherit;marker-end: inherit;}.Diagram rect {fill: #fff;stroke: #000;}.Diagram text {dominant-baseline: central;overflow: hidden;text-anchor: middle;fill: #000;font-size: 10px;}</style><style type="text/css">.Viewport .textContent {
  pointer-events: none;
  stroke-width: 0px;
}

					.Viewport.Icon {
  fill: white;
}

/* Hide the InfoBox */
.Viewport.textContent {
  font-size: 0;
}

.textContent {
  stroke: none;
}

.DataNode {
  stroke-miterlimit: 1;
  pointer-events: auto;
}

.DataNode:hover {
  cursor: pointer;
}

/* TODO should this apply to things other than DataNodes? */
.DataNode.textContent {
  pointer-events: none;
}

.DataNode.Highlighted {
  opacity: 0.6;
  stroke-width: 0px;
}

marker {
  /* this is what should work per the spec
  stroke-dasharray: none; */
  /* but I need to add this to make it work in Safari */
  stroke-dasharray: 9999999999999999999999999;
}

.Citation.Icon {
  fill: none;
  stroke-width: 0px;
}

.Citation.textContent {
  text-align: center;
  vertical-align: top;
  font-size: 7px;
  fill: #999;
  fill-opacity: 1;
  stroke: none;
}</style><g id="WP4361" class="Pathway http___identifiers_org_pw_PW_0000025 http___identifiers_org_pw_PW_0000641 Viewport"  name="Name: Glycolysis and Gluconeogenesis - for workshop Organism: Homo sapiens" ><g class="Pathway http___identifiers_org_pw_PW_0000025 http___identifiers_org_pw_PW_0000641 Viewport"><rect   width="947.41" height="1363.5" style="stroke:none"/><g id="a525b" class="Edge"  ><path    d="m246 594.48v59.67" style="stroke:#00f;marker-end:url(#memconversion0000ffwhite)"/><g id="f03a6" class="AB" transform="translate(246 619.15)"  ><g class="AB"/></g></g><g id="a7962" class="Edge"  ><path    d="m321.17 1227.8h20v52.33h381.83" style="stroke:#00f;marker-end:url(#mea00f)"/><g id="d51fe" class="AB" transform="translate(635.26 1280.1)"  ><g class="AB"/></g></g><g id="b6539" class="Edge"  ><path    d="m502.65 1213.8v-67.17" marker-start="url(#markerstartarrow000)" style="marker-end:url(#memconversion000)"/><g id="db49b" class="AB" transform="translate(502.65 1185.1)"  ><g class="AB"/></g></g><g id="baa72" class="Edge"  ><path    d="m296 311.27v-72.91" style="stroke:#f00;marker-end:url(#memconversionff0000white)"/><g id="c9dd5" class="AB" transform="translate(296 283.86)"  ><g class="AB"/></g></g><g id="a5027" class="Edge"  ><path    d="m386.9 283.63-90.90 0.23" style="stroke:#f00;marker-end:url(#memcatalysisff0000white)"/></g><g id="c4ad7" class="Edge"  ><path    d="m246 238.37v72.91" style="stroke:#00f;marker-end:url(#memconversion0000ffwhite)"/><g id="ddc7f" class="AB" transform="translate(246 282.95)"  ><g class="AB"/></g></g><g id="c5bcc" class="Edge"  ><path    d="m271 1032.1v46.37" marker-start="url(#markerstartarrow000)" style="marker-end:url(#memconversion000)"/><g id="d4d1f" class="AB" transform="translate(271 1057)"  ><g class="AB"/></g></g><g id="c5d08" class="Edge"  ><path    d="m271 792.76v60.38" marker-start="url(#markerstartarrow000)" style="marker-end:url(#memconversion000)"/><g id="f3e62" class="AB" transform="translate(271 820.59)"  ><g class="AB"/></g></g><g id="c61c6" class="Edge"  ><path    d="m486 782.76h48"/></g><g id="c6fe6" class="Edge"  ><path    d="m189.33 820.48 81.67 0.11" style="marker-end:url(#memcatalysis000)"/></g><g id="c96e5" class="Edge"  ><path    d="m246 1098.5 0.17 119.3" style="stroke:#00f;marker-end:url(#memconversion0000ffwhite)"/><g id="bb35c" class="AB" transform="translate(246.07 1146.2)"  ><g class="AB"/></g></g><g id="d6bda" class="Edge"  ><path    d="m271 953.15v59" marker-start="url(#markerstartarrow000)" style="marker-end:url(#memconversion000)"/><g id="fbb3b" class="AB" transform="translate(271 983.99)"  ><g class="AB"/></g></g><g id="da548" class="Edge"  ><path    d="m271 873.15v60" marker-start="url(#markerstartarrow000)" style="marker-end:url(#memconversion000)"/><g id="b6754" class="AB" transform="translate(271 900.8)"  ><g class="AB"/></g></g><g id="dceab" class="Edge"  ><path    d="m321 321.27 209 90.48"/></g><g id="de534" class="Edge"  ><path    d="m296 654.15v-59.67" style="stroke:#f00;marker-end:url(#memconversionff0000white)"/><g id="ce9f4" class="AB" transform="translate(296 617.15)"  ><g class="AB"/></g></g><g id="e3c06" class="Edge"  ><path    d="m386 782.76-65-1e-13" marker-start="url(#markerstartarrow000)" style="marker-end:url(#memconversion000)"/><g id="c3fb6" class="AB" transform="translate(358.71 782.76)"  ><g class="AB"/></g></g><g id="dcd0f" class="Edge"  ><path    d="m358 813.81 0.71-31.05" style="marker-end:url(#memcatalysis000)"/></g><g id="ea8dd" class="Edge"  ><path    d="m246 117.37v101" marker-start="url(#markerstartarrow000)"/><g id="ee3d5" class="AB" transform="translate(246 165.44)"  ><g class="AB"/></g></g><g id="f15fe" class="Edge"  ><path    d="m321 321.27 194-1.33" marker-start="url(#markerstartarrow000)"/></g><g id="f3159" class="Edge"  ><path    d="m477.65 1136.6h-181.65v-38.13" style="stroke:#f00;marker-end:url(#memconversionff0000white)"/><g id="a6353" class="AB" transform="translate(352.14 1136.6)"  ><g class="AB"/></g></g><g id="f0349" class="Edge"  ><path    d="m353 1165.8-0.86-29.17" style="stroke:#f00;marker-end:url(#memcatalysisff0000white)"/></g><g id="f3a78" class="Edge"  ><path    d="m246.17 1237.8-0.13 75.7" marker-start="url(#markerstartarrow000)" style="marker-end:url(#memconversion000)"/><g id="ad8a9" class="AB" transform="translate(246.11 1268.1)"  ><g class="AB"/></g></g><g id="f6b40" class="Edge"  ><path    d="m502.65 1126.6v-78.5" marker-start="url(#markerstartarrow000)" style="marker-end:url(#memconversion000)"/><g id="ec1ea" class="AB" transform="translate(502.65 1085.9)"  ><g class="AB"/></g></g><g id="ccb87" class="Edge"  ><path    d="m555.33 1085.8-52.68 0.11" style="marker-end:url(#memcatalysis000)"/></g><g id="f85be" class="Edge"  ><path    d="m555.33 1185.3-52.68-0.16" style="marker-end:url(#memcatalysis000)"/></g><g id="f94fb" class="Edge"  ><path    d="m271 674.15v98.62" marker-start="url(#markerstartarrow000)" style="marker-end:url(#memconversion000)"/><g id="a3756" class="AB" transform="translate(271 716.15)"  ><g class="AB"/></g><g id="e2e43" class="AB" transform="translate(271 734.15)"  ><g class="AB"/></g></g><g id="c866d" class="Edge"  ><path    d="m271 734.15 140 38.62" style="marker-end:url(#memconversion000)"/><g id="e444a" class="AB" transform="translate(345.47 754.69)"  ><g class="AB"/></g></g><g id="idaec1e20e" class="Edge"  ><path    d="m296 331.27v20h45v233.21h-20" style="marker-end:url(#memconversion000)"/></g><g id="idc75434d8" class="Edge"  ><path    d="m395.9 451.63-54.90 0.85" style="marker-end:url(#memcatalysis000)"/></g><g id="bc862" class="Edge"  ><path    d="m379 900.81-108-0.01" style="marker-end:url(#memcatalysis000)"/></g><g id="a078c" class="Edge"  ><path    d="m187.22 283.01 58.78-0.06" style="stroke:#03f;marker-end:url(#memcatalysis0033ffwhite)"/></g><g id="af003" class="Edge"  ><path    d="m379 617.76-83-0.62" style="stroke:#f00;marker-end:url(#memcatalysisff0000white)"/></g><g id="e27b0" class="Edge"  ><path    d="m362 1057.3-91-0.35" style="marker-end:url(#memcatalysis000)"/></g><g id="ece30" class="Edge"  ><path    d="m379 716.81-108-0.67" style="marker-end:url(#memcatalysis000)"/></g><g id="dccc1" class="Edge"  ><path    d="m172.29 1146.5 73.77-0.25" style="stroke:#00f;marker-end:url(#memcatalysis0000ffwhite)"/></g><g id="c9687" class="Edge"  ><path    d="m378 165.66-132-0.21" style="marker-end:url(#memstimulation000)"/></g><g id="af8b3" class="Edge"  ><path    d="m166 1267.8 80.11 0.28" style="marker-end:url(#memcatalysis000)"/></g><g id="ab869" class="Edge"  ><path    d="m185.67 619.81 60.33-0.67" style="stroke:#03f;marker-end:url(#memcatalysis0033ffwhite)"/></g><g id="a0c40" class="Edge"  ><path    d="m192 984.48 79-0.49" style="marker-end:url(#memcatalysis000)"/></g><g id="f4b57" class="GroupGroup" transform="translate(745.24 99.39)"  ><g class="GroupGroup"><g id="e56d2" class="Edge"  ><path    d="m27.00 24.25 0.71 23.42" style="stroke:#00f;marker-end:url(#memconversion0000ffe6e6e6)"/></g><g id="b0fd4" class="" transform="translate(8,8)"  ><g class=""><rect   width="158.5" height="98" style="fill:transparent"/></g></g><g id="e0db2" class="Label" transform="translate(32.83 64.83)"  name="Gluconeogenesis" ><g class="Label"/><text   transform="translate(69.67 9.5)"    font-weight="bold"  style="fill:#f00;font-size:12px">Gluconeogenesis</text></g><g id="f6d4c" class="Label" transform="translate(40.67 28.17)"  name="Glycolysis" ><g class="Label"/><text   transform="translate(42.17 9.5)"    font-weight="bold"  style="fill:#00f;font-size:12px">Glycolysis</text></g><g id="dd6a7" class="Edge"  ><path    d="m27.00 60.92 0.71 23.42" style="stroke:#f00;marker-end:url(#memconversionff0000e6e6e6)"/></g></g></g><g id="id55224678" class="Edge"  ><path    d="m639 1251.1-3.74 29" style="marker-end:url(#memcatalysis000)"/></g><g id="a0d21" class="GeneProduct " transform="translate(328 813.81)"  name="TPI1" ><rect   width="60" height="20"/><text   transform="translate(30,10)"    >TPI1</text></g><g id="a1201" class="Metabolite " transform="translate(477.65 1213.8)"  name="Malate" ><rect   width="100" height="20" style="stroke:#00f"/><text   transform="translate(50,10)"     style="fill:#00f">Malate</text></g><g id="a6bc9" class="Metabolite " transform="translate(221 1012.1)"  name="2P-Glycerate" ><rect   width="100" height="20" style="stroke:#00f"/><text   transform="translate(50,10)"     style="fill:#00f">2P-Glycerate</text></g><g id="a91df" class="Pathway" transform="translate(515 309.94)"  name="Pentose Phosphate Pathway" ><g class="Pathway"><rect   width="193" height="20" style="stroke:#14961e"/></g><g ><defs><clipPath ><rect x="-96.5" y="-10" width="193" height="20" style="stroke:none"/></clipPath></defs><text   transform="translate(96.5,10)"    font-weight="bold"  style="fill:#14961e;font-size:12px">Pentose Phosphate Pathway</text></g></g><g id="aaccf" class="GeneProduct " transform="translate(555.33 1075.8)"  name="GOT1" ><rect   width="60" height="20"/><text   transform="translate(30,10)"    >GOT1</text></g><g id="abafa" class="Metabolite " transform="translate(477.65 1126.6)"  name="Oxaloacetate" ><rect   width="100" height="20" style="stroke:#00f"/><text   transform="translate(50,10)"     style="fill:#00f">Oxaloacetate</text></g><g id="abb35" class="GeneProduct " transform="translate(126 810.48)"  name="GAPDH" ><rect   width="63.33" height="20"/><text   transform="translate(31.67 10)"    >GAPDH</text></g><g id="ae265" class="Metabolite " transform="translate(221 853.15)"  name="1,3BP-Glycerate" ><rect   width="100" height="20" style="stroke:#00f"/><text   transform="translate(50,10)"     style="fill:#00f">1,3BP-Glycerate</text></g><g id="bbb71" class="Metabolite " transform="translate(221 933.15)"  name="3P-Glycerate" ><rect   width="100" height="20" style="stroke:#00f"/><text   transform="translate(50,10)"     style="fill:#00f">3P-Glycerate</text></g><g id="c010a" class="GeneProduct " transform="translate(555.33 1175.3)"  name="MDH1" ><rect   width="60" height="20"/><text   transform="translate(30,10)"    >MDH1</text></g><g id="cafe6" class="Metabolite " transform="translate(221 654.15)"  name="Fructose-1,6BP" ><rect   width="100" height="20" style="stroke:#00f"/><text   transform="translate(50,10)"     style="fill:#00f">Fructose-1,6BP</text></g><g id="d069e" class="Metabolite " transform="translate(196.03 1313.5)"  name="Lactate" ><rect   width="100" height="20" style="stroke:#00f"/><text   transform="translate(50,10)"     style="fill:#00f">Lactate</text></g><g id="d9df3" class="Metabolite " transform="translate(221 97.37)"  name="Glucose" ><rect   width="100" height="20" style="stroke:#00f"/><text   transform="translate(50,10)"     style="fill:#00f">Glucose</text></g><g id="dd104" class="Metabolite " transform="translate(221 772.76)"  name="Glyceraldehyde 3P" ><rect   width="100" height="20" style="stroke:#00f"/><text   transform="translate(50,10)"     style="fill:#00f">Glyceraldehyde 3P</text></g><g id="df744" class="Metabolite " transform="translate(221.17 1217.8)"  name="Pyruvate" ><rect   width="100" height="20" style="stroke:#00f"/><text   transform="translate(50,10)"     style="fill:#00f">Pyruvate</text></g><g id="e1b43" class="Metabolite " transform="translate(723 1270.1)"  name="Pyruvate" ><rect   width="100" height="20" style="stroke:#00f"/><text   transform="translate(50,10)"     style="fill:#00f">Pyruvate</text></g><g id="e2849" class="Metabolite " transform="translate(221 574.48)"  name="Fructose 6P" ><rect   width="100" height="20" style="stroke:#00f"/><text   transform="translate(50,10)"     style="fill:#00f">Fructose 6P</text></g><g id="e51e3" class="Metabolite " transform="translate(221 218.37)"  name="Glucose" ><rect   width="100" height="20" style="stroke:#00f"/><text   transform="translate(50,10)"     style="fill:#00f">Glucose</text></g><g id="e62a7" class="Pathway" transform="translate(534 772.76)"  name="Triglyceride synthesis" ><g class="Pathway"><rect   width="155" height="20" style="stroke:#14961e"/></g><g ><defs><clipPath ><rect x="-77.5" y="-10" width="155" height="20" style="stroke:none"/></clipPath></defs><text   transform="translate(77.5,10)"    font-weight="bold"  style="fill:#14961e;font-size:12px">Triglyceride synthesis</text></g></g><g id="ea163" class="Pathway" transform="translate(530 401.76)"  name="Glycogen metabolism" ><g class="Pathway"><rect   width="163" height="20" style="stroke:#14961e"/></g><g ><defs><clipPath ><rect x="-81.5" y="-10" width="163" height="20" style="stroke:none"/></clipPath></defs><text   transform="translate(81.5,10)"    font-weight="bold"  style="fill:#14961e;font-size:12px">Glycogen metabolism</text></g></g><g id="eb6d4" class="GeneProduct " transform="translate(386.9 273.63)"  name="G6PC" ><rect   width="60" height="20"/><text   transform="translate(30,10)"    >G6PC</text></g><g id="ec8e8" class="GeneProduct " transform="translate(323 1165.8)"  name="PCK1" ><rect   width="60" height="20"/><text   transform="translate(30,10)"    >PCK1</text></g><g id="f4df9" class="Metabolite " transform="translate(386 772.76)"  name="Dihydroxyacetone-P" ><rect   width="100" height="20" style="stroke:#00f"/><text   transform="translate(50,10)"     style="fill:#00f">Dihydroxyacetone-P</text></g><g id="f56ff" class="Metabolite " transform="translate(221 1078.5)"  name="P-enolpyruvate" ><rect   width="100" height="20" style="stroke:#00f"/><text   transform="translate(50,10)"     style="fill:#00f">P-enolpyruvate</text></g><g id="f6f69" class="Metabolite " transform="translate(477.65 1028.1)"  name="Aspartate" ><rect   width="100" height="20" style="stroke:#00f"/><text   transform="translate(50,10)"     style="fill:#00f">Aspartate</text></g><g id="f9a44" class="Metabolite " transform="translate(221 311.27)"  name="Glucose-6P" ><rect   width="100" height="20" style="stroke:#00f"/><text   transform="translate(50,10)"     style="fill:#00f">Glucose-6P</text></g><g id="a26a8" class="GroupNone" transform="translate(378 871.81)"  ><g class="GroupNone"><rect   width="78" height="58" fill-opacity=".1" stroke-dasharray="5,3" style="fill:#b4b464;stroke:grey"/><g id="b9cbd" class="GeneProduct " transform="translate(9,9)"  name="PGK1" ><rect   width="60" height="20"/><text   transform="translate(30,10)"    >PGK1</text></g><g id="f09d0" class="GeneProduct " transform="translate(9 29)"  name="PGK2" ><rect   width="60" height="20"/><text   transform="translate(30,10)"    >PGK2</text></g></g></g><g id="ad0b5" class="GroupNone" transform="translate(110.22 234.01)"  ><g class="GroupNone"><rect   width="78" height="98" fill-opacity=".1" stroke-dasharray="5,3" style="fill:#b4b464;stroke:grey"/><g id="cc85c" class="GeneProduct " transform="translate(9,9)"  name="HK1" ><rect   width="60" height="20"/><text   transform="translate(30,10)"    >HK1</text></g><g id="e0a56" class="GeneProduct " transform="translate(9 49)"  name="HK3" ><rect   width="60" height="20"/><text   transform="translate(30,10)"    >HK3</text></g><g id="ec226" class="GeneProduct " transform="translate(9 29)"  name="HK2" ><rect   width="60" height="20"/><text   transform="translate(30,10)"    >HK2</text></g><g id="fb06f" class="GeneProduct " transform="translate(9 69)"  name="GCK" ><rect   width="60" height="20"/><text   transform="translate(30,10)"    >GCK</text></g></g></g><g id="b5d1f" class="GroupNone" transform="translate(378 588.76)"  ><g class="GroupNone"><rect   width="78" height="58" fill-opacity=".1" stroke-dasharray="5,3" style="fill:#b4b464;stroke:grey"/><g id="a7caf" class="GeneProduct " transform="translate(9,9)"  name="FBP1" ><rect   width="60" height="20"/><text   transform="translate(30,10)"    >FBP1</text></g><g id="f6085" class="GeneProduct " transform="translate(9,29)"  name="FBP2" ><rect   width="60" height="20"/><text   transform="translate(30,10)"    >FBP2</text></g></g></g><g id="bebdc" class="GroupComplex" transform="translate(362 1015.8)"  ><g class="GroupComplex"><use class="Icon" width="84" height="83.00" fill="#b4b464" fill-opacity=".1" stroke="grey" href="#Octagon"/><g id="da832" class="GeneProduct " transform="translate(12,31)"  name="ENO3" ><rect   width="60" height="20"/><text   transform="translate(30,10)"    >ENO3</text></g><g id="daabb" class="GeneProduct " transform="translate(12,12)"  name="ENO1" ><rect   width="60" height="20"/><text   transform="translate(30,10)"    >ENO1</text></g><g id="e7055" class="GeneProduct " transform="translate(12 51)"  name="ENO2" ><rect   width="60" height="20"/><text   transform="translate(30,10)"    >ENO2</text></g></g></g><g id="ca349" class="GroupNone" transform="translate(378 677.81)"  ><g class="GroupNone"><rect   width="78" height="78" fill-opacity=".1" stroke-dasharray="5,3" style="fill:#b4b464;stroke:grey"/><g id="a8e1c" class="GeneProduct " transform="translate(9,9)"  name="ALDOA" ><rect   width="60" height="20"/><text   transform="translate(30,10)"    >ALDOA</text></g><g id="a9e4c" class="GeneProduct " transform="translate(9 49)"  name="ALDOC" ><rect   width="60" height="20"/><text   transform="translate(30,10)"    >ALDOC</text></g><g id="ffa45" class="GeneProduct " transform="translate(9,29)"  name="ALDOB" ><rect   width="60" height="20"/><text   transform="translate(30,10)"    >ALDOB</text></g></g></g><g id="cb7c6" class="GroupNone" transform="translate(95.29 1107.5)"  ><g class="GroupNone"><rect   width="78" height="78" fill-opacity=".1" stroke-dasharray="5,3" style="fill:#b4b464;stroke:grey"/><g id="a9548" class="GeneProduct " transform="translate(9,9)"  name="PKM2" ><rect   width="60" height="20"/><text   transform="translate(30,10)"    >PKM2</text></g><g id="c1504" class="GeneProduct " transform="translate(9 49)"  name="PKLR" ><rect   width="60" height="20"/><text   transform="translate(30,10)"    >PKLR</text></g><g id="fbe23" class="GeneProduct " transform="translate(9 29)"  name="PKM2" ><rect   width="60" height="20"/><text   transform="translate(30,10)"    >PKM2</text></g></g></g><g id="d645d" class="GroupNone" transform="translate(377 106.66)"  ><g class="GroupNone"><rect   width="78" height="118" fill-opacity=".1" stroke-dasharray="5,3" style="fill:#b4b464;stroke:grey"/><g id="aa290" class="GeneProduct " transform="translate(9,29)"  name="SLC2A2" ><rect   width="60" height="20"/><text   transform="translate(30,10)"    >SLC2A2</text></g><g id="c1e22" class="GeneProduct " transform="translate(9,89)"  name="SLC2A5" ><rect   width="60" height="20"/><text   transform="translate(30,10)"    >SLC2A5</text></g><g id="d1551" class="GeneProduct " transform="translate(9,9)"  name="SLC2A1" ><rect   width="60" height="20"/><text   transform="translate(30,10)"    >SLC2A1</text></g><g id="f4bdb" class="GeneProduct " transform="translate(9,69)"  name="SLC2A4" ><rect   width="60" height="20"/><text   transform="translate(30,10)"    >SLC2A4</text></g><g id="f9637" class="GeneProduct " transform="translate(9,49)"  name="SLC2A3" ><rect   width="60" height="20"/><text   transform="translate(30,10)"    >SLC2A3</text></g></g></g><g id="e189e" class="GroupComplex" transform="translate(82 1215.8)"  ><g class="GroupComplex"><use class="Icon" width="84" height="104" fill="#b4b464" fill-opacity=".1" stroke="grey" href="#Octagon"/><g id="a8fe9" class="GeneProduct " transform="translate(12,12)"  name="LDHAL6B" ><rect   width="60" height="20"/><text   transform="translate(30,10)"    >LDHAL6B</text></g><g id="ca23f" class="GeneProduct " transform="translate(12,32)"  name="LDHA" ><rect   width="60" height="20"/><text   transform="translate(30,10)"    >LDHA</text></g><g id="e06e5" class="GeneProduct " transform="translate(12,72)"  name="LDHC" ><rect   width="60" height="20"/><text   transform="translate(30,10)"    >LDHC</text></g><g id="e5db1" class="GeneProduct " transform="translate(12,52)"  name="LDHB" ><rect   width="60" height="20"/><text   transform="translate(30,10)"    >LDHB</text></g></g></g><g id="e4a6d" class="GroupNone" transform="translate(108.67 580.81)"  ><g class="GroupNone"><rect   width="78" height="78" fill-opacity=".1" stroke-dasharray="5,3" style="fill:#b4b464;stroke:grey"/><g id="a6792" class="GeneProduct " transform="translate(9,49)"  name="PFKP" ><rect   width="60" height="20"/><text   transform="translate(30,10)"    >PFKP</text></g><g id="b5af6" class="GeneProduct " transform="translate(9,9)"  name="PFKM" ><rect   width="60" height="20"/><text   transform="translate(30,10)"    >PFKM</text></g><g id="d9169" class="GeneProduct " transform="translate(9,29)"  name="PFKL" ><rect   width="60" height="20"/><text   transform="translate(30,10)"    >PFKL</text></g></g></g><g id="ebf7e" class="GroupComplex" transform="translate(108 952.48)"  ><g class="GroupComplex"><use class="Icon" width="84" height="64" fill="#b4b464" fill-opacity=".1" stroke="grey" href="#Octagon"/><g id="d214c" class="GeneProduct " transform="translate(12,12)"  name="PGAM2" ><rect   width="60" height="20"/><text   transform="translate(30,10)"    >PGAM2</text></g><g id="fb96d" class="GeneProduct " transform="translate(12,32)"  name="PGAM1" ><rect   width="60" height="20"/><text   transform="translate(30,10)"    >PGAM1</text></g></g></g><g id="f9a70" class="GroupComplex" transform="translate(587 1251.1)"  ><g class="GroupComplex"><use class="Icon" width="104" height="64" fill="#b4b464" fill-opacity=".1" stroke="grey" href="#Octagon"/><g id="e62cc" class="GeneProduct " transform="translate(12,32)"  name="MPC2" ><rect   width="80" height="20"/><text   transform="translate(40,10)"    >MPC2</text></g><g id="e6f94" class="GeneProduct " transform="translate(12,12)"  name="MPC1" ><rect   width="80" height="20"/><text   transform="translate(40,10)"    >MPC1</text></g></g></g><g id="f44c7" class="Metabolite " transform="translate(221 383.27)"  name="Glucose-6P (open)" ><rect   width="100" height="20" style="stroke:#00f"/><text   transform="translate(50,10)"     style="fill:#00f">Glucose-6P (open)</text></g><g id="f30e9" class="Edge"  ><path    d="m153.9 443.63 92.10-80.56" style="stroke:#03f;marker-end:url(#memcatalysis0033ffwhite)"/></g><g id="e232b" class="Edge"  ><path    d="m246 331.27v52" style="stroke:#00f;marker-end:url(#memconversion0000ffwhite)"/><g id="e4530" class="AB" transform="translate(246 363.07)"  ><g class="AB"/></g></g><g id="b6f20" class="GeneProduct" transform="translate(93.90 433.63)"  name="PGI" ><rect   width="60" height="20"/><text   transform="translate(30,10)"    >PGI</text></g><g id="ddf6b" class="Metabolite " transform="translate(221,471)"  name="Fructose 6P (open)" ><rect   width="100" height="20" style="stroke:#00f"/><text   transform="translate(50,10)"     style="fill:#00f">Fructose 6P (open)</text></g><g id="ac25d" class="Edge"  ><path    d="m246 403.27v67.72" style="stroke:#00f;marker-end:url(#memconversion0000ffwhite)"/><g id="f6507" class="AB" transform="translate(246 444.69)"  ><g class="AB"/></g></g><g id="eac87" class="Edge"  ><path    d="m246 491v83.48" style="stroke:#00f;marker-end:url(#memconversion0000ffwhite)"/><g id="ed453" class="AB" transform="translate(246 542.05)"  ><g class="AB"/></g><g id="b846b" class="AB" transform="translate(246 524.39)"  ><g class="AB"/></g></g><g id="b9868" class="Edge"  ><path    d="m153.9 443.63 92.10 1.06" style="stroke:#03f;marker-end:url(#memcatalysis0033ffwhite)"/></g><g id="cbbda" class="Edge"  ><path    d="m153.9 443.63 92.10 80.77" style="stroke:#03f;marker-end:url(#memcatalysis0033ffwhite)"/></g><g id="ae83f" class="GeneProduct " transform="translate(395.9 441.63)"  name="GPI" ><rect   width="60" height="20"/><text   transform="translate(30,10)"    >GPI</text></g><g id="d6411" class="Edge"  ><path    d="m321 584.48h20v-233.21h-45v-20" style="marker-end:url(#memconversion000)"/><g id="c71e0" class="AB" transform="translate(341 452.48)"  ><g class="AB"/></g></g></g></g></g></svg>