<?xml version="1.0" encoding="UTF-8"?>
<svg xmlns="http://www.w3.org/2000/svg" id="-svg" class="Diagram"  baseProfile="full" prefix="schema:http://schema.org/" preserveAspectRatio="xMidYMid"  version="1.1"><defs><g id="filter-defs"><filter id="doublefalse3filter" x="-50%" y="-50%" width="200%" height="200%"><feComposite in="SourceGraphic" in2="SourceGraphic" result="doubleDark"/><feMorphology in="doubleDark" operator="dilate" radius="0.17" result="in2Double"/><feMorphology in="SourceGraphic" operator="dilate" radius="3" result="inDouble"/><feComposite in="inDouble" in2="in2Double" operator="out" result="doubleResult"/></filter></g><g id="icon-defs"><symbol id="Ellipse" class=" Icon Ellipse" x="0" y="0" overflow="visible" preserveAspectRatio="none" viewBox="0 0 50 50"><desc>Ellipse</desc><ellipse cx="25" cy="25" rx="25" ry="25" vector-effect="non-scaling-stroke"/></symbol><symbol id="Octagon" class=" Icon Octagon" x="0" y="0" overflow="visible" preserveAspectRatio="none" viewBox="0 0 100 100"><desc>Octagon</desc><path d="m0 25 25-25h50l25 25v50l-25 25h-50l-25-25z" vector-effect="non-scaling-stroke"/></symbol></g><g id="marker-defs"><marker id="mea" markerHeight="12" markerWidth="12" orient="auto" preserveAspectRatio="none" refX="12" refY="6" viewBox="0 0 12 12"><g id="g-mea" transform=""><g transform="rotate(180 6 6)"><rect y="5.4" width="2" height="1.2" style="stroke:#fff"/><polygon points="12 11 0 6 12 1" stroke-width="0"/></g></g></marker></g></defs><g id="viewport-20220102143954382" class="svg-pan-zoom_viewport" transform="matrix(0.64 0 0 0.64 116.8 0)" style="transform:matrix(0.64, 0, 0, 0.64, 116.80, 0)"><style>svg.Diagram {font-family: 'Liberation Sans', Arial, sans-serif; }.Diagram path {fill: transparent;stroke: #000;marker-end: url(#mea);}.Diagram symbol path {fill: inherit;stroke: inherit;stroke-width: inherit;marker-end: inherit;}.Diagram rect {fill: #fff;stroke: #000;}.Diagram text {dominant-baseline: central;overflow: hidden;text-anchor: middle;fill: #000;font-size: 12px;}</style><style type="text/css">.Viewport .textContent {
  pointer-events: none;
  stroke-width: 0px;
}

					.Viewport.Icon {
  fill: white;
}

/* Hide the InfoBox */
.Viewport.textContent {
  font-size: 0;
}

.textContent {
  stroke: none;
}

.DataNode {
  stroke-miterlimit: 1;
  pointer-events: auto;
}

.DataNode:hover {
  cursor: pointer;
}

/* TODO should this apply to things other than DataNodes? */
.DataNode.textContent {
  pointer-events: none;
}

.DataNode.Highlighted {
  opacity: 0.6;
  stroke-width: 0px;
}

marker {
  /* this is what should work per the spec
  stroke-dasharray: none; */
  /* but I need to add this to make it work in Safari */
  stroke-dasharray: 9999999999999999999999999;
}

.Citation.Icon {
  fill: none;
  stroke-width: 0px;
}

.Citation.textContent {
  text-align: center;
  vertical-align: top;
  font-size: 7px;
  fill: #999;
  fill-opacity: 1;
  stroke: none;
}</style><g id="WP4494" class="Pathway http___identifiers_org_pw_PW_0000829 Viewport"  name="Name: Selective expression of chemokine receptors during T-cell polarization Organism: Homo sapiens" ><g class="Pathway http___identifiers_org_pw_PW_0000829 Viewport"><rect   width="1513.5" height="1047.7" style="stroke:none"/><g id="ide362af56" class="Edge"  ><path    d="m414.78 650.19 105.32-59.34"/></g><g id="idcd7be5ac" class="Edge"  ><path    d="m304.61 229.82 52.77 42.24"/></g><g id="id35608279" class="Edge"  ><path    d="m513.71 146.65 28.46 61.76"/></g><g id="id9daa4fd0" class="Edge"  ><path    d="m427.31 181.88 36.86 42.54"/></g><g id="id86c71c86" class="Edge"  ><path    d="m218.21 265.05 70.05 71.90"/></g><g id="a4479" class=" PhysicalEntity CellularComponent Nucleus" transform="translate(660.77 912.01)"  ><g class=" PhysicalEntity CellularComponent Nucleus" filter="url(#doublefalse3filter)"><g class=" PhysicalEntity CellularComponent Nucleus"><use class=" PhysicalEntity CellularComponent Nucleus Node Icon" transform="matrix(0.82 0 0 0.72 4.90 4.35)" width="53.27" height="31.58" fill="transparent" stroke="#c0c0c0" stroke-width="3" href="#Ellipse"/></g></g></g><g id="c265e" class=" PhysicalEntity CellularComponent Cell" transform="translate(505.96 327.28)"  ><g class=" PhysicalEntity CellularComponent Cell" filter="url(#doublefalse3filter)"><g class=" PhysicalEntity CellularComponent Cell"><rect   transform="matrix(0.95 0 0 0.94 5.68 5.64)" width="212.81" height="188.56" rx="15" ry="15" stroke-width="3" style="fill:transparent;stroke:#c0c0c0"/></g></g></g><g id="ccf34" class="" transform="translate(1332.9 658.83)"  ><g class=""><rect   width="150.59" height="51.42" style="fill:transparent"/></g></g><g id="dcfd2" class=" PhysicalEntity CellularComponent Nucleus" transform="translate(546.8 437.04)"  ><g class=" PhysicalEntity CellularComponent Nucleus" filter="url(#doublefalse3filter)"><g class=" PhysicalEntity CellularComponent Nucleus"><use class=" PhysicalEntity CellularComponent Nucleus Node Icon" transform="matrix(0.86 0 0 0.82 5.15 4.92)" width="72.42" height="54.55" fill="transparent" stroke="#c0c0c0" stroke-width="3" href="#Ellipse"/></g></g></g><g id="f8921" class=" PhysicalEntity CellularComponent Cell" transform="translate(581.64 825.22)"  ><g class=" PhysicalEntity CellularComponent Cell" filter="url(#doublefalse3filter)"><g class=" PhysicalEntity CellularComponent Cell"><rect   transform="matrix(0.94 0 0 0.92 5.62 5.54)" width="175.8" height="143.89" rx="15" ry="15" stroke-width="3" style="fill:transparent;stroke:#c0c0c0"/></g></g></g><g id="a5be7" class="Label" transform="translate(1048.8 375.49)"  name="Th1 cell" ><g class="Label"/><text   transform="translate(45,12.5)"    >Th1 cell</text></g><g id="b8ae9" class="Label" transform="translate(208.98 131.72)"  name="Dendritic cell" ><g class="Label"/><text   transform="translate(45,12.5)"    >Dendritic cell</text></g><g id="c15d8" class="Label" transform="translate(625.05 485.25)"  name="Th0 cell" ><g class="Label"/><text   transform="translate(45,12.5)"    >Th0 cell</text></g><g id="cc4b5" class="Label" transform="translate(427.22 44.93)"  name="Macrophage" ><g class="Label"/><text   transform="translate(45,12.5)"    >Macrophage</text></g><g id="cf9b2" class="Label" transform="translate(1336.1 664.25)"  name="Resevoir of semi naive  T cells (Tsn)" ><g class="Label"/><text   transform="translate(72.36 20.99)"    ><tspan   x="0" y="-6.60">Resevoir of semi naive </tspan><tspan   x="0" y="6.60">T cells (Tsn)</tspan></text></g><g id="e9434" class="Label" transform="translate(1043.2 641.47)"  name="Tsn cell" ><g class="Label"/><text   transform="translate(45,12.5)"    >Tsn cell</text></g><g id="faf0c" class="Label" transform="translate(672.88 817.71)"  name="NK1+ CD4+/CD4-8- TcrAB+" ><g class="Label"/><text   transform="translate(45 38.41)"     style="font-size:9px"><tspan   x="0" y="-9.9">NK1+</tspan><tspan   x="0" y="0">CD4+/CD4-8-</tspan><tspan   x="0" y="9.9">TcrAB+</tspan></text></g><g id="ff59a" class="Label" transform="translate(1047.5 923.01)"  name="Th2 cell" ><g class="Label"/><text   transform="translate(45,12.5)"    >Th2 cell</text></g><g id="pvjsgeneratedida01" class="GeneProduct " transform="translate(429.58 901.82)"  name="CCL3" ><rect   width="80" height="20"/><text   transform="translate(40,10)"    >CCL3</text></g><g id="pvjsgeneratedida5be8" class="GeneProduct " transform="translate(599.33 329.08)"  name="CCR7" ><rect   width="80" height="20"/><text   transform="translate(40,10)"    >CCR7</text></g><g id="pvjsgeneratedidc265f" class="GeneProduct " transform="translate(599.33 309.08)"  name="CXCR4" ><rect   width="80" height="20"/><text   transform="translate(40,10)"    >CXCR4</text></g><g id="pvjsgeneratedidf8922" class="GeneProduct " transform="translate(831.61 678)"  name="IL4" ><rect   width="80" height="20"/><text   transform="translate(40,10)"    >IL4</text></g><g id="pvjsgeneratedidf8923" class="GeneProduct " transform="translate(1324 997.72)"  name="IL5" ><rect   width="80" height="20"/><text   transform="translate(40,10)"    >IL5</text></g><g id="b8073" class="GeneProduct " transform="translate(469.15 351.17)"  name="CD4" ><rect   width="80" height="20"/><text   transform="translate(40,10)"    >CD4</text></g><g id="bf2b8" class="GeneProduct " transform="translate(1353.6 568.87)"  name="IL2" ><rect   width="80" height="20"/><text   transform="translate(40,10)"    >IL2</text></g><g id="c0d52" class="GeneProduct " transform="translate(429.58 941.82)"  name="CSF2" ><rect   width="80" height="20"/><text   transform="translate(40,10)"    >CSF2</text></g><g id="d9b39" class="GeneProduct " transform="translate(1361.1 462.31)"  name="IFNG" ><rect   width="80" height="20"/><text   transform="translate(40,10)"    >IFNG</text></g><g id="f9f5a" class="GeneProduct " transform="translate(429.58 921.82)"  name="CCL4" ><rect   width="80" height="20"/><text   transform="translate(40,10)"    >CCL4</text></g><g id="pvjsgeneratedidff5ae" class="GroupComplex" transform="translate(819.61 269.03)"  ><g class="GroupComplex"><use class="Icon" width="104" height="64" fill="#b4b464" fill-opacity=".1" stroke="grey" href="#Octagon"/><g id="pvjsgeneratedidccf35" class="GeneProduct " transform="translate(12,12)"  name="IL12A" ><rect   width="80" height="20"/><text   transform="translate(40,10)"    >IL12A</text></g><g id="pvjsgeneratediddcfd3" class="GeneProduct " transform="translate(12,32)"  name="IL12B" ><rect   width="80" height="20"/><text   transform="translate(40,10)"    >IL12B</text></g></g></g><g id="pvjsgeneratedidff5af" class="GroupComplex" transform="translate(875.77 417.79)"  ><g class="GroupComplex"><use class="Icon" width="104" height="84.00" fill="#b4b464" fill-opacity=".1" stroke="grey" href="#Octagon"/><g id="pvjsgeneratedidfaf0d" class="GeneProduct " transform="translate(12,12)"  name="TGFB1" ><rect   width="80" height="20"/><text   transform="translate(40,10)"    >TGFB1</text></g><g id="pvjsgeneratedidff59b" class="GeneProduct " transform="translate(12 32)"  name="TGFB2" ><rect   width="80" height="20"/><text   transform="translate(40,10)"    >TGFB2</text></g><g id="pvjsgeneratedidff59c" class="GeneProduct " transform="translate(12 52)"  name="TGFB3" ><rect   width="80" height="20"/><text   transform="translate(40,10)"    >TGFB3</text></g></g></g><g id="a4e99" class=" PhysicalEntity CellularComponent Cell" transform="translate(1058 218.59)"  ><g class=" PhysicalEntity CellularComponent Cell" filter="url(#doublefalse3filter)"><g class=" PhysicalEntity CellularComponent Cell"><rect   transform="matrix(0.95 0 0 0.94 5.68 5.64)" width="212.81" height="188.56" rx="15" ry="15" stroke-width="3" style="fill:transparent;stroke:#c0c0c0"/></g></g></g><g id="d30db" class=" PhysicalEntity CellularComponent Nucleus" transform="translate(1128.2 328.35)"  ><g class=" PhysicalEntity CellularComponent Nucleus" filter="url(#doublefalse3filter)"><g class=" PhysicalEntity CellularComponent Nucleus"><use class=" PhysicalEntity CellularComponent Nucleus Node Icon" transform="matrix(0.86 0 0 0.82 5.15 4.92)" width="72.42" height="54.55" fill="transparent" stroke="#c0c0c0" stroke-width="3" href="#Ellipse"/></g></g></g><g id="a006e" class=" PhysicalEntity CellularComponent Cell" transform="translate(1059.2 485.12)"  ><g class=" PhysicalEntity CellularComponent Cell" filter="url(#doublefalse3filter)"><g class=" PhysicalEntity CellularComponent Cell"><rect   transform="matrix(0.95 0 0 0.94 5.68 5.64)" width="212.81" height="188.56" rx="15" ry="15" stroke-width="3" style="fill:transparent;stroke:#c0c0c0"/></g></g></g><g id="c4ad1" class=" PhysicalEntity CellularComponent Nucleus" transform="translate(1129.4 594.88)"  ><g class=" PhysicalEntity CellularComponent Nucleus" filter="url(#doublefalse3filter)"><g class=" PhysicalEntity CellularComponent Nucleus"><use class=" PhysicalEntity CellularComponent Nucleus Node Icon" transform="matrix(0.86 0 0 0.82 5.15 4.92)" width="72.42" height="54.55" fill="transparent" stroke="#c0c0c0" stroke-width="3" href="#Ellipse"/></g></g></g><g id="db154" class=" PhysicalEntity CellularComponent Cell" transform="translate(1058 761.86)"  ><g class=" PhysicalEntity CellularComponent Cell" filter="url(#doublefalse3filter)"><g class=" PhysicalEntity CellularComponent Cell"><rect   transform="matrix(0.95 0 0 0.94 5.68 5.64)" width="212.81" height="188.56" rx="15" ry="15" stroke-width="3" style="fill:transparent;stroke:#c0c0c0"/></g></g></g><g id="b6c38" class=" PhysicalEntity CellularComponent Nucleus" transform="translate(1128.2 871.62)"  ><g class=" PhysicalEntity CellularComponent Nucleus" filter="url(#doublefalse3filter)"><g class=" PhysicalEntity CellularComponent Nucleus"><use class=" PhysicalEntity CellularComponent Nucleus Node Icon" transform="matrix(0.86 0 0 0.82 5.15 4.92)" width="72.42" height="54.55" fill="transparent" stroke="#c0c0c0" stroke-width="3" href="#Ellipse"/></g></g></g><g id="id64c578b2" class="Edge"  ><path    d="m717.27 421.56 343.47 157.84"/></g><g id="idbf348a1f" class="Edge"  ><path    d="m717.27 467.95 342.19 341.8"/></g><g id="ide8a28fe0" class="Edge"  ><path    d="m717.27 375.17 342.19-62.30"/></g><g id="pvjsgeneratedidff59d" class="GeneProduct " transform="translate(1014.1 238.21)"  name="CD28" ><rect   width="80" height="20"/><text   transform="translate(40,10)"    >CD28</text></g><g id="pvjsgeneratedidff59e" class="GeneProduct " transform="translate(1107.3 210.15)"  name="CD40LG" ><rect   width="80" height="20"/><text   transform="translate(40,10)"    >CD40LG</text></g><g id="pvjsgeneratedidff5b0" class="GroupComplex" transform="translate(1212.7 191.2)"  ><g class="GroupComplex"><use class="Icon" width="104" height="64.00" fill="#b4b464" fill-opacity=".1" stroke="grey" href="#Octagon"/><g id="pvjsgeneratedidff59f" class="GeneProduct " transform="translate(12,12)"  name="IL12RB1" ><rect   width="80" height="20"/><text   transform="translate(40,10)"    >IL12RB1</text></g><g id="pvjsgeneratedidff5a0" class="GeneProduct " transform="translate(12 32)"  name="IL12RB2" ><rect   width="80" height="20"/><text   transform="translate(40,10)"    >IL12RB2</text></g></g></g><g id="daf73" class="GeneProduct " transform="translate(1233.6 278.51)"  name="IL18R1" ><rect   width="80" height="20"/><text   transform="translate(40,10)"    >IL18R1</text></g><g id="e6a56" class="GroupComplex" transform="translate(1216.3 758.93)"  ><g class="GroupComplex"><use class="Icon" width="104" height="64.00" fill="#b4b464" fill-opacity=".1" stroke="grey" href="#Octagon"/><g id="cb3c6" class="GeneProduct " transform="translate(12,12)"  name="IL12RB1" ><rect   width="80" height="20"/><text   transform="translate(40,10)"    >IL12RB1</text></g><g id="fee86" class="GeneProduct " transform="translate(12 32)"  name="IL12RB2" ><rect   width="80" height="20"/><text   transform="translate(40,10)"    >IL12RB2</text></g></g></g><g id="a0210" class="GeneProduct " transform="translate(1231.1 835.63)"  name="IL4R" ><rect   width="80" height="20"/><text   transform="translate(40,10)"    >IL4R</text></g><g id="pvjsgeneratedidff5a1" class="GeneProduct " transform="translate(1020.3 840.41)"  name="CD28" ><rect   width="80" height="20"/><text   transform="translate(40,10)"    >CD28</text></g><g id="pvjsgeneratedidff5a2" class="GeneProduct " transform="translate(1020.3 882.54)"  name="CD40LG" ><rect   width="80" height="20"/><text   transform="translate(40,10)"    >CD40LG</text></g><g id="pvjsgeneratedidff5b1" class="GroupComplex" transform="translate(1097.8 731.03)"  ><g class="GroupComplex"><use class="Icon" width="104" height="64" fill="#b4b464" fill-opacity=".1" stroke="grey" href="#Octagon"/><g id="pvjsgeneratedidff5a3" class="GeneProduct " transform="translate(12,12)"  name="IFNGR1" ><rect   width="80" height="20"/><text   transform="translate(40,10)"    >IFNGR1</text></g><g id="pvjsgeneratedidff5a4" class="GeneProduct " transform="translate(12,32)"  name="IFNGR2" ><rect   width="80" height="20"/><text   transform="translate(40,10)"    >IFNGR2</text></g></g></g><g id="d4920" class="GeneProduct " transform="translate(1324 977.72)"  name="IL4" ><rect   width="80" height="20"/><text   transform="translate(40,10)"    >IL4</text></g><g id="id9b111634" class="Edge"  ><path    d="m1216.8 948.92 107.23 38.80"/></g><g id="id67a94f97" class="Edge"  ><path    d="m1270.5 579.4 83.06-0.53"/></g><g id="ae615" class="GeneProduct " transform="translate(1361.1 442.31)"  name="IL2" ><rect   width="80" height="20"/><text   transform="translate(40,10)"    >IL2</text></g><g id="id1ff6595d" class="Edge"  ><path    d="m1216.8 405.65 144.24 46.66"/></g><g id="pvjsgeneratedidff5a5" class="GeneProduct " transform="translate(1129 466.64)"  name="CCR3" ><rect   width="80" height="20"/><text   transform="translate(40,10)"    >CCR3</text></g><g id="pvjsgeneratedidff5a6" class="GeneProduct " transform="translate(1129 486.64)"  name="CCR4" ><rect   width="80" height="20"/><text   transform="translate(40,10)"    >CCR4</text></g><g id="pvjsgeneratedidff5a7" class="GeneProduct " transform="translate(1233.6 379.85)"  name="CXCR3" ><rect   width="80" height="20"/><text   transform="translate(40,10)"    >CXCR3</text></g><g id="a7a02" class="GeneProduct " transform="translate(1233.6 339.85)"  name="CCR2" ><rect   width="80" height="20"/><text   transform="translate(40,10)"    >CCR2</text></g><g id="d5c47" class="GeneProduct " transform="translate(1233.6 319.85)"  name="CCR1" ><rect   width="80" height="20"/><text   transform="translate(40,10)"    >CCR1</text></g><g id="f8dda" class="GeneProduct " transform="translate(1233.6 359.85)"  name="CCR5" ><rect   width="80" height="20"/><text   transform="translate(40,10)"    >CCR5</text></g><g id="pvjsgeneratedidff5a8" class="GeneProduct " transform="translate(1229.4 892.92)"  name="CCR3" ><rect   width="80" height="20"/><text   transform="translate(40,10)"    >CCR3</text></g><g id="pvjsgeneratedidff5a9" class="GeneProduct " transform="translate(1229.4 912.92)"  name="CCR4" ><rect   width="80" height="20"/><text   transform="translate(40,10)"    >CCR4</text></g><g id="a9977" class="GeneProduct " transform="translate(1229.4 872.92)"  name="CCR2" ><rect   width="80" height="20"/><text   transform="translate(40,10)"    >CCR2</text></g><g id="eed49" class=" PhysicalEntity CellularComponent Nucleus" transform="translate(362.81 735.48)"  ><g class=" PhysicalEntity CellularComponent Nucleus" filter="url(#doublefalse3filter)"><g class=" PhysicalEntity CellularComponent Nucleus"><use class=" PhysicalEntity CellularComponent Nucleus Node Icon" transform="matrix(0.82 0 0 0.72 4.90 4.35)" width="53.27" height="31.58" fill="transparent" stroke="#c0c0c0" stroke-width="3" href="#Ellipse"/></g></g></g><g id="b8c8c" class=" PhysicalEntity CellularComponent Cell" transform="translate(283.68 648.69)"  ><g class=" PhysicalEntity CellularComponent Cell" filter="url(#doublefalse3filter)"><g class=" PhysicalEntity CellularComponent Cell"><rect   transform="matrix(0.94 0 0 0.92 5.62 5.54)" width="175.8" height="143.89" rx="15" ry="15" stroke-width="3" style="fill:transparent;stroke:#c0c0c0"/></g></g></g><g id="babea" class=" PhysicalEntity CellularComponent Nucleus" transform="translate(211.99 217.1)"  ><g class=" PhysicalEntity CellularComponent Nucleus" filter="url(#doublefalse3filter)"><g class=" PhysicalEntity CellularComponent Nucleus"><use class=" PhysicalEntity CellularComponent Nucleus Node Icon" transform="matrix(0.82 0 0 0.72 4.90 4.35)" width="53.27" height="31.58" fill="transparent" stroke="#c0c0c0" stroke-width="3" href="#Ellipse"/></g></g></g><g id="e6c9d" class=" PhysicalEntity CellularComponent Cell" transform="translate(130.31 122.66)"  ><g class=" PhysicalEntity CellularComponent Cell" filter="url(#doublefalse3filter)"><g class=" PhysicalEntity CellularComponent Cell"><rect   transform="matrix(0.94 0 0 0.92 5.62 5.54)" width="175.8" height="143.89" rx="15" ry="15" stroke-width="3" style="fill:transparent;stroke:#c0c0c0"/></g></g></g><g id="fc1c0" class=" PhysicalEntity CellularComponent Nucleus" transform="translate(414.71 126.27)"  ><g class=" PhysicalEntity CellularComponent Nucleus" filter="url(#doublefalse3filter)"><g class=" PhysicalEntity CellularComponent Nucleus"><use class=" PhysicalEntity CellularComponent Nucleus Node Icon" transform="matrix(0.82 0 0 0.72 4.90 4.35)" width="53.27" height="31.58" fill="transparent" stroke="#c0c0c0" stroke-width="3" href="#Ellipse"/></g></g></g><g id="a9619" class=" PhysicalEntity CellularComponent Cell" transform="translate(339.41 39.49)"  ><g class=" PhysicalEntity CellularComponent Cell" filter="url(#doublefalse3filter)"><g class=" PhysicalEntity CellularComponent Cell"><rect   transform="matrix(0.94 0 0 0.92 5.62 5.54)" width="175.8" height="143.89" rx="15" ry="15" stroke-width="3" style="fill:transparent;stroke:#c0c0c0"/></g></g></g><g id="c71a2" class="GroupComplex" transform="translate(357.39 256.06)"  ><g class="GroupComplex"><use class="Icon" width="104" height="64" fill="#b4b464" fill-opacity=".1" stroke="grey" href="#Octagon"/><g id="pvjsgeneratedidff5aa" class="GeneProduct " transform="translate(12,32)"  name="IL12B" ><rect   width="80" height="20"/><text   transform="translate(40,10)"    >IL12B</text></g><g id="pvjsgeneratedidff5ab" class="GeneProduct " transform="translate(12,12)"  name="IL12A" ><rect   width="80" height="20"/><text   transform="translate(40,10)"    >IL12A</text></g></g></g><g id="e7f53" class="GroupComplex" transform="translate(288.26 320.94)"  ><g class="GroupComplex"><use class="Icon" width="104" height="64" fill="#b4b464" fill-opacity=".1" stroke="grey" href="#Octagon"/><g id="pvjsgeneratedidff5ac" class="GeneProduct " transform="translate(12,32)"  name="IL12B" ><rect   width="80" height="20"/><text   transform="translate(40,10)"    >IL12B</text></g><g id="pvjsgeneratedidff5ad" class="GeneProduct " transform="translate(12,12)"  name="IL12A" ><rect   width="80" height="20"/><text   transform="translate(40,10)"    >IL12A</text></g></g></g><g id="dcd72" class="GroupComplex" transform="translate(464.17 208.42)"  ><g class="GroupComplex"><use class="Icon" width="104" height="64" fill="#b4b464" fill-opacity=".1" stroke="grey" href="#Octagon"/><g id="b2151" class="GeneProduct " transform="translate(12,32)"  name="IL12B" ><rect   width="80" height="20"/><text   transform="translate(40,10)"    >IL12B</text></g><g id="a9928" class="GeneProduct " transform="translate(12,12)"  name="IL12A" ><rect   width="80" height="20"/><text   transform="translate(40,10)"    >IL12A</text></g></g></g><g id="id4d7c35be" class="Edge"  ><path    d="m392.26 352.94 167.66-24.16"/></g><g id="idff028c80" class="Edge"  ><path    d="m461.39 304.06 98.53 24.72"/></g><g id="idb90bb3" class="Edge"  ><path    d="m516.17 272.42 43.74 56.36"/></g><g id="id70aec427" class="Edge"  ><path    d="m583.14 932.39-73.56-0.57"/></g><g id="id6eb53762" class="Edge"  ><path    d="m366.26 384.94 260.09 441.78"/></g><g id="ida0ec27bb" class="Edge"  ><path    d="m340.26 384.94 31.32 265.25"/></g><g id="c54d2" class="GeneProduct " transform="translate(520.1 580.86)"  name="IFNG" ><rect   width="80" height="20"/><text   transform="translate(40,10)"    >IFNG</text></g><g id="id78fd7c8b" class="Edge"  ><path    d="m669.54 826.72-57.18-312.38"/></g><g id="id644ecfb2" class="Edge"  ><path    d="m560.1 580.86-0.18-66.52"/></g><g id="ida5606ebb" class="Edge"  ><path    d="m1270.5 625.79 62.35 58.75" style="marker-end:none"/></g><g id="id613de25d" class="Edge"  ><path    d="m175.01 265.05v666.77h254.57" style="marker-end:none"/></g></g></g></g></svg>