<?xml version="1.0" encoding="UTF-8"?>
<svg xmlns="http://www.w3.org/2000/svg" id="-svg" class="Diagram"  baseProfile="full" prefix="schema:http://schema.org/" preserveAspectRatio="xMidYMid"  version="1.1"><defs><g id="icon-defs"><symbol id="HexagonPathVisio" class=" Icon HexagonPathVisio" x="0" y="8" overflow="visible" preserveAspectRatio="none" viewBox="0 8 100 86"><desc>HexagonPathVisio</desc><g transform="scale(1 0.85)"><path d="m1.42 51.00 21.07-42.14h56.19l21.07 42.14-21.07 42.15h-56.19l-21.07-42.15z" stroke="currentColor" vector-effect="non-scaling-stroke"/></g></symbol><symbol id="Octagon" class=" Icon Octagon" x="0" y="0" overflow="visible" preserveAspectRatio="none" viewBox="0 0 100 100"><desc>Octagon</desc><path d="m0 25 25-25h50l25 25v50l-25 25h-50l-25-25z" vector-effect="non-scaling-stroke"/></symbol></g><g id="marker-defs"><marker id="memcatalysis000" markerHeight="12" markerWidth="12" orient="auto" preserveAspectRatio="none" refX="12" refY="6" viewBox="0 0 12 12"><g id="g-memcatalysis000" transform=""><g transform="rotate(180 6 6)"><circle cx="6" cy="6" r="5.3px" fill="#fff" stroke="#000"/></g></g></marker><marker id="mea" markerHeight="12" markerWidth="12" orient="auto" preserveAspectRatio="none" refX="12" refY="6" viewBox="0 0 12 12"><g id="g-mea" transform=""><g transform="rotate(180 6 6)"><rect y="5.4" width="2" height="1.2" style="stroke:#fff"/><polygon points="12 11 0 6 12 1" stroke-width="0"/></g></g></marker></g></defs><g id="viewport-20220102143823521" class="svg-pan-zoom_viewport" transform="matrix(0.46 0 0 0.46 88.24 0)" style="transform:matrix(0.46, 0, 0, 0.46, 88.24, 0)"><style>svg.Diagram {font-family: 'Liberation Sans', Arial, sans-serif; }.Diagram path {fill: transparent;stroke: #000;marker-end: url(#mea);}.Diagram symbol path {fill: inherit;stroke: inherit;stroke-width: inherit;marker-end: inherit;}.Diagram rect {fill: #fff;stroke: #000;}.Diagram text {dominant-baseline: central;overflow: hidden;text-anchor: middle;fill: #000;font-size: 10px;}</style><style type="text/css">.Viewport .textContent {
  pointer-events: none;
  stroke-width: 0px;
}

					.Viewport.Icon {
  fill: white;
}

/* Hide the InfoBox */
.Viewport.textContent {
  font-size: 0;
}

.textContent {
  stroke: none;
}

.DataNode {
  stroke-miterlimit: 1;
  pointer-events: auto;
}

.DataNode:hover {
  cursor: pointer;
}

/* TODO should this apply to things other than DataNodes? */
.DataNode.textContent {
  pointer-events: none;
}

.DataNode.Highlighted {
  opacity: 0.6;
  stroke-width: 0px;
}

marker {
  /* this is what should work per the spec
  stroke-dasharray: none; */
  /* but I need to add this to make it work in Safari */
  stroke-dasharray: 9999999999999999999999999;
}

.Citation.Icon {
  fill: none;
  stroke-width: 0px;
}

.Citation.textContent {
  text-align: center;
  vertical-align: top;
  font-size: 7px;
  fill: #999;
  fill-opacity: 1;
  stroke: none;
}</style><g id="WP4440" class="Pathway http___identifiers_org_pw_PW_0001137 http___identifiers_org_pw_PW_0001239 Viewport"  name="Name: Biosynthesis of EPA-derived SPMs Organism: Homo sapiens" ><g class="Pathway http___identifiers_org_pw_PW_0001137 http___identifiers_org_pw_PW_0001239 Viewport"><rect   width="2223" height="1453" style="stroke:none"/><g id="a0323" class="Reactome_R-HSA-9018858"  ><path    d="m966 452h100" style="marker-end:none"/><g id="fcd4a" class="AB" transform="translate(966,452)"  ><g class="AB"/></g><g id="aa0f7" class="AB" transform="translate(1065,452)"  ><g class="AB"/></g><g id="ed999" class="AB" transform="translate(1016,452)"  ><g class="AB"/></g></g><g id="a03ac" class="Reactome_R-HSA-9018858"  ><path    d="m923 478 43-26" style="marker-end:none"/></g><g id="a27bd" class="Reactome_R-HSA-9018877"  ><path    d="m1358 94h119" style="marker-end:none"/><g id="b28da" class="AB" transform="translate(1358,94)"  ><g class="AB"/></g><g id="e2786" class="AB" transform="translate(1475.8 94)"  ><g class="AB"/></g><g id="ae8d1" class="AB" transform="translate(1417.5,94)"  ><g class="AB"/></g></g><g id="a85e5" class="Reactome_R-HSA-9018895"  ><path    d="m652 257h142" style="marker-end:none"/><g id="c83d9" class="AB" transform="translate(652,257)"  ><g class="AB"/></g><g id="cb3ba" class="AB" transform="translate(792.58,257)"  ><g class="AB"/></g><g id="a563a" class="AB" transform="translate(723,257)"  ><g class="AB"/></g></g><g id="ab0c8" class="Reactome_R-HSA-9020610"  ><path    d="m1e3 388h110" style="marker-end:none"/><g id="d764b" class="AB" transform="translate(1e3 388)"  ><g class="AB"/></g><g id="d787d" class="AB" transform="translate(1108.9 388)"  ><g class="AB"/></g><g id="fdbb3" class="AB" transform="translate(1055,388)"  ><g class="AB"/></g></g><g id="a1bf9" class="Reactome_R-HSA-9020610"  ><path    d="m1032 319 28 69" style="marker-end:url(#memcatalysis000)"/></g><g id="ab420" class="Reactome_R-HSA-9023983"  ><path    d="m1956 250h102" style="marker-end:none"/><g id="d5a0d" class="AB" transform="translate(1956,250)"  ><g class="AB"/></g><g id="b3577" class="AB" transform="translate(2057 250)"  ><g class="AB"/></g></g><g id="b0079" class="Reactome_R-HSA-9018894"  ><path    d="m1118 135 81-42" style="marker-end:none"/><g id="edb00" class="AB" transform="translate(1118,135)"  ><g class="AB"/></g><g id="cae8c" class="AB" transform="translate(1198.2 93.42)"  ><g class="AB"/></g><g id="d4d73" class="AB" transform="translate(1158.5,114)"  ><g class="AB"/></g></g><g id="afe5c" class="Reactome_R-HSA-9018894"  ><path    d="m1142 161-24-26" style="marker-end:none"/></g><g id="a63ea" class="Reactome_R-HSA-9018894"  ><path    d="m1032 93h86" style="marker-end:url(#memcatalysis000)"/></g><g id="b0416" class="Reactome_R-HSA-9023983"  ><path    d="m1950 250h6" style="marker-end:none"/></g><g id="b0da3" class="Reactome_R-HSA-9020610"  ><path    d="m936 388h64" style="marker-end:none"/></g><g id="b4bcf" class="Reactome_R-HSA-9018895"  ><path    d="m572 288 80-31" style="marker-end:none"/></g><g id="bb2d3" class="Reactome_R-HSA-9023968"  ><path    d="m1648 537h76" style="marker-end:none"/><g id="a3882" class="AB" transform="translate(1648,537)"  ><g class="AB"/></g><g id="da045" class="AB" transform="translate(1723.2 537)"  ><g class="AB"/></g><g id="e8dd3" class="AB" transform="translate(1686,537)"  ><g class="AB"/></g></g><g id="ad9ab" class="Reactome_R-HSA-9023968"  ><path    d="m1724 537 53 1"/></g><g id="c0652" class="Reactome_R-HSA-9018877"  ><path    d="m1477 94 3 1"/></g><g id="c0b72" class="Reactome_R-HSA-9018895"  ><path    d="m700 335 29-78" style="marker-end:url(#memcatalysis000)"/></g><g id="c0f17" class="Reactome_R-HSA-9018895"  ><path    d="m629 305 23-48" style="marker-end:none"/></g><g id="c4a4f" class="Reactome_R-HSA-9020610"  ><path    d="m1110 388h3"/></g><g id="c589f" class="Reactome_R-HSA-9020610"  ><path    d="m968 322 32 66" style="marker-end:none"/></g><g id="c5d34" class="Reactome_R-HSA-9018858"  ><path    d="m991 536 23-84" style="marker-end:url(#memcatalysis000)"/></g><g id="c69f0" class="Reactome_R-HSA-9018894"  ><path    d="m1199 93h3"/></g><g id="cc9d6" class="Reactome_R-HSA-9023983"  ><path    d="m2058 250h6"/></g><g id="d00ee" class="Reactome_R-HSA-9018862"  ><path    d="m1396 536h122" style="marker-end:none"/><g id="a15a5" class="AB" transform="translate(1396,536)"  ><g class="AB"/></g><g id="f3ae1" class="AB" transform="translate(1516.8 536)"  ><g class="AB"/></g><g id="c6695" class="AB" transform="translate(1457,536)"  ><g class="AB"/></g></g><g id="ae49e" class="Reactome_R-HSA-9018862"  ><path    d="m1518 536 3 1"/></g><g id="b4841" class="Reactome_R-HSA-9018862"  ><path    d="m1411 592 48-56" style="marker-end:url(#memcatalysis000)"/></g><g id="d1a5c" class="Reactome_R-HSA-9018895"  ><path    d="m794 257 28-23"/></g><g id="d1c9c" class="Reactome_R-HSA-9018868"  ><path    d="m660 387h122" style="marker-end:none"/><g id="a670a" class="AB" transform="translate(660,387)"  ><g class="AB"/></g><g id="a9d54" class="AB" transform="translate(780.78,387)"  ><g class="AB"/></g><g id="b312d" class="AB" transform="translate(721,387)"  ><g class="AB"/></g></g><g id="b8f65" class="Reactome_R-HSA-9018868"  ><path    d="m782 387 14 38"/></g><g id="d7256" class="Reactome_R-HSA-9018907"  ><path    d="m1009 257h101" style="marker-end:none"/><g id="d3326" class="AB" transform="translate(1009,257)"  ><g class="AB"/></g><g id="e0064" class="AB" transform="translate(1109 257)"  ><g class="AB"/></g><g id="a415e" class="AB" transform="translate(1059.5,257)"  ><g class="AB"/></g></g><g id="a0a65" class="Reactome_R-HSA-9018907"  ><path    d="m968 292 41-35" style="marker-end:none"/></g><g id="cd306" class="Reactome_R-HSA-9018907"  ><path    d="m949 258 60-1" style="marker-end:none"/></g><g id="cffd0" class="Reactome_R-HSA-9018907"  ><path    d="m1110 257h3"/></g><g id="d8f66" class="Reactome_R-HSA-9018901"  ><path    d="m1269 203h95" style="marker-end:none"/><g id="fa543" class="AB" transform="translate(1269,203)"  ><g class="AB"/></g><g id="a22d7" class="AB" transform="translate(1363 203)"  ><g class="AB"/></g><g id="d565c" class="AB" transform="translate(1316.5,203)"  ><g class="AB"/></g></g><g id="aab47" class="Reactome_R-HSA-9018901"  ><path    d="m1184 203h85" style="marker-end:none"/></g><g id="cb781" class="Reactome_R-HSA-9018901"  ><path    d="m1313 306-1-103" style="marker-end:url(#memcatalysis000)"/></g><g id="d98f0" class="Reactome_R-HSA-9018863"  ><path    d="m970 203h81" style="marker-end:none"/><g id="e8f37" class="AB" transform="translate(970,203)"  ><g class="AB"/></g><g id="dce49" class="AB" transform="translate(1050.2 203)"  ><g class="AB"/></g><g id="ca291" class="AB" transform="translate(1010.5,203)"  ><g class="AB"/></g></g><g id="c6b55" class="Reactome_R-HSA-9018863"  ><path    d="m1051 203h3"/></g><g id="d9f50" class="Reactome_R-HSA-9023968"  ><path    d="m1724 537 35 28"/></g><g id="da98d" class="Reactome_R-HSA-9018859"  ><path    d="m1134 501 98 35" style="marker-end:none"/><g id="c349c" class="AB" transform="translate(1134,501)"  ><g class="AB"/></g><g id="d8738" class="AB" transform="translate(1231 535.65)"  ><g class="AB"/></g><g id="b551f" class="AB" transform="translate(1183,518.5)"  ><g class="AB"/></g></g><g id="cc05b" class="Reactome_R-HSA-9018859"  ><path    d="m1232 536h3"/></g><g id="bec22" class="Reactome_R-HSA-9018859"  ><path    d="m1039 536h96" style="marker-end:url(#memcatalysis000)"/></g><g id="daaf8" class="Reactome_R-HSA-9018901"  ><path    d="m1364 203 49 102"/></g><g id="dbc28" class="Reactome_R-HSA-9018858"  ><path    d="m936 388 30 64" style="marker-end:none"/></g><g id="dc1b9" class="Reactome_R-HSA-9018868"  ><path    d="m700 335 27 52" style="marker-end:url(#memcatalysis000)"/></g><g id="ddbea" class="Reactome_R-HSA-9018901"  ><path    d="m1232 304 37-101" style="marker-end:none"/></g><g id="ddd68" class="Reactome_R-HSA-9018859"  ><path    d="m1134 468v33" style="marker-end:none"/></g><g id="ddfe5" class="Reactome_R-HSA-9018877"  ><path    d="m1372 44 45 50" style="marker-end:url(#memcatalysis000)"/></g><g id="df889" class="Reactome_R-HSA-9018895"  ><path    d="m794 257 18 38"/></g><g id="e245b" class="Reactome_R-HSA-9018895"  ><path    d="m794 257 69 1"/></g><g id="e31b6" class="Reactome_R-HSA-9023968"  ><path    d="m1632 560 16-23" style="marker-end:none"/></g><g id="e4c63" class="Reactome_R-HSA-9023968"  ><path    d="m1611 537h37" style="marker-end:none"/></g><g id="e644b" class="Reactome_R-HSA-9018863"  ><path    d="m949 258 21-55" style="marker-end:none"/></g><g id="e842b" class="Reactome_R-HSA-9018901"  ><path    d="m1364 203 57 1"/></g><g id="e995c" class="Reactome_R-HSA-9018874"  ><path    d="m224 364h151" style="marker-end:none"/><g id="b9a43" class="AB" transform="translate(224,364)"  ><g class="AB"/></g><g id="b56b1" class="AB" transform="translate(373.49 364)"  ><g class="AB"/></g><g id="cb054" class="AB" transform="translate(299.5,364)"  ><g class="AB"/></g></g><g id="d518e" class="Reactome_R-HSA-9018874"  ><path    d="m179 379 45-15" style="marker-end:none"/></g><g id="e8ee6" class="Reactome_R-HSA-9018874"  ><path    d="m190 399 34-35" style="marker-end:none"/></g><g id="ed9e6" class="Reactome_R-HSA-9018877"  ><path    d="m1292 93 66 1" style="marker-end:none"/></g><g id="eecc8" class="Reactome_R-HSA-9018880"  ><path    d="m199 288h125" style="marker-end:none"/><g id="e096c" class="AB" transform="translate(199,288)"  ><g class="AB"/></g><g id="fb24c" class="AB" transform="translate(322.75,288)"  ><g class="AB"/></g><g id="bad25" class="AB" transform="translate(261.5,288)"  ><g class="AB"/></g></g><g id="a19a9" class="Reactome_R-HSA-9018880"  ><path    d="m140 323 59-35" style="marker-end:none"/></g><g id="c5437" class="Reactome_R-HSA-9018880"  ><path    d="m160 257 39 31" style="marker-end:none"/></g><g id="cfcdc" class="Reactome_R-HSA-9018880"  ><path    d="m220 225 53 63" style="marker-end:url(#memcatalysis000)"/></g><g id="eff37" class="Reactome_R-HSA-9018874"  ><path    d="m375 364 111 1"/></g><g id="f02e7" class="Reactome_R-HSA-9018863"  ><path    d="m1008 104v99" style="marker-end:url(#memcatalysis000)"/></g><g id="f0caa" class="Reactome_R-HSA-9018877"  ><path    d="m1327 70 31 24" style="marker-end:none"/></g><g id="f2524" class="Reactome_R-HSA-9023980"  ><path    d="m1945 379h127" style="marker-end:none"/><g id="e9b43" class="AB" transform="translate(1945,379)"  ><g class="AB"/></g><g id="e742f" class="AB" transform="translate(2070.7 379)"  ><g class="AB"/></g></g><g id="cd53c" class="Reactome_R-HSA-9023980"  ><path    d="m1938 379h7" style="marker-end:none"/></g><g id="a48a5" class="Reactome_R-HSA-9023980"  ><path    d="m2072 379h6"/></g><g id="f2898" class="Reactome_R-HSA-9018874"  ><path    d="m140 323 84 41" style="marker-end:none"/></g><g id="f2c35" class="Reactome_R-HSA-9018863"  ><path    d="m932 177 38 26" style="marker-end:none"/></g><g id="f45fa" class="Reactome_R-HSA-9018868"  ><path    d="m578 365 82 22" style="marker-end:none"/></g><g id="f479c" class="Reactome_R-HSA-9018874"  ><path    d="m375 364 12 40"/></g><g id="f4e24" class="Reactome_R-HSA-9018874"  ><path    d="m262 419 16-55" style="marker-end:url(#memcatalysis000)"/></g><g id="f5fac" class="Reactome_R-HSA-9023968"  ><path    d="m1664 596 29-59" style="marker-end:url(#memcatalysis000)"/></g><g id="f8bfe" class="Reactome_R-HSA-9018867"  ><path    d="m1265 452h105" style="marker-end:none"/><g id="cf5d9" class="AB" transform="translate(1265,452)"  ><g class="AB"/></g><g id="c6a84" class="AB" transform="translate(1368.9 452)"  ><g class="AB"/></g><g id="b8701" class="AB" transform="translate(1317.5,452)"  ><g class="AB"/></g></g><g id="b5c95" class="Reactome_R-HSA-9018867"  ><path    d="m1232 334 33 118" style="marker-end:none"/></g><g id="c278a" class="Reactome_R-HSA-9018867"  ><path    d="m1199 453 66-1" style="marker-end:none"/></g><g id="e676e" class="Reactome_R-HSA-9018867"  ><path    d="m1370 452h55"/></g><g id="a7f0e" class="Reactome_R-HSA-9018867"  ><path    d="m1313 328v124" style="marker-end:url(#memcatalysis000)"/></g><g id="f8f89" class="Reactome_R-HSA-9018907"  ><path    d="m1032 319 27-62" style="marker-end:url(#memcatalysis000)"/></g><g id="f94f7" class="Reactome_R-HSA-9018859"  ><path    d="m1165 491-31 10" style="marker-end:none"/></g><g id="f9a7a" class="Reactome_R-HSA-9018862"  ><path    d="m1325 536h71" style="marker-end:none"/></g><g id="f9baa" class="Reactome_R-HSA-9018867"  ><path    d="m1370 452 43-117"/></g><g id="fa055" class="Reactome_R-HSA-9018868"  ><path    d="m629 335 31 52" style="marker-end:none"/></g><g id="faec6" class="Reactome_R-HSA-9018858"  ><path    d="m1066 452 3 1"/></g><g id="fbf02" class="Reactome_R-HSA-9018868"  ><path    d="m782 387 30-62"/></g><g id="fc1e0" class="Reactome_R-HSA-9018880"  ><path    d="m324 288h6"/></g><g id="fc34e" class="Reactome_R-HSA-9018894"  ><path    d="m1119 188-1-53" style="marker-end:none"/></g><g id="fc9ad" class="Reactome_R-HSA-9018874"  ><path    d="m143 272 81 92" style="marker-end:none"/></g><g id="ff0ba" class="Reactome_R-HSA-9018862"  ><path    d="m1379 583 17-47" style="marker-end:none"/></g><g id="ff6d7" class="Reactome_R-HSA-9018868"  ><path    d="m782 387 70 1"/></g><g id="d350d" class="GroupGroup" transform="translate(22,1)"  ><g class="GroupGroup"><g id="c6296" class="" transform="translate(8,8)"  ><g class=""><rect   transform="matrix(1.00 0 0 1.00 1.50 1.49)" width="1971" height="676" rx="15" ry="15" stroke-width="3" style="fill:transparent;stroke:#c0c0c0"/></g></g><g id="db6ab" class="Label" transform="translate(491,77)"  name="cytosol" ><g class="Label"/><text   transform="translate(32,16.5)"    >cytosol</text></g></g></g><g id="a0910" class="Unknown Reactome_R-HSA-9022670" transform="translate(1281,306)"  name="5-HEDH" ><rect   width="65" height="22"/><text   transform="translate(32.5,11)"    >5-HEDH</text></g><g id="a2458" class="Metabolite " transform="translate(1480,80)"  name="18(R)-RvE1" ><rect   width="84" height="30" style="stroke:#00f"/><text   transform="translate(42,15)"     style="fill:#00f">18(R)-RvE1</text></g><g id="a3907" class="Metabolite " transform="translate(1142,146)"  name="O2" ><rect   width="34" height="30" style="stroke:#00f"/><text   transform="translate(17,15)"     style="fill:#00f">O2</text></g><g id="a3cd5" class="Metabolite " transform="translate(796,410)"  name="H2O" ><rect   width="44" height="30" style="stroke:#00f"/><text   transform="translate(22,15)"     style="fill:#00f">H2O</text></g><g id="a40c4" class="Metabolite " transform="translate(145,364)"  name="H+" ><rect   width="34" height="30" style="stroke:#00f"/><text   transform="translate(17,15)"     style="fill:#00f">H+</text></g><g id="a5b65" class="Metabolite " transform="translate(898,162)"  name="O2" ><rect   width="34" height="30" style="stroke:#00f"/><text   transform="translate(17,15)"     style="fill:#00f">O2</text></g><g id="aa9a0" class="Complex Reactome_R-HSA-266038" transform="translate(1372,32)"  name="LTA4H:Zn2+" ><g class="Complex Reactome_R-HSA-266038"><use class="Complex Reactome_R-HSA-266038 Node Icon" width="91" height="25" fill="#fff" stroke="#a52a2a" href="#HexagonPathVisio"/></g><g ><defs><clipPath ><rect x="-45.5" y="-12.5" width="91" height="25" style="stroke:none"/></clipPath></defs><text   transform="translate(45.5,12.5)"     style="fill:#a52a2a">LTA4H:Zn2+</text></g></g><g id="abf8d" class="Metabolite " transform="translate(1737,565)"  name="NADH" ><rect   width="44" height="30" style="stroke:#00f"/><text   transform="translate(22,15)"     style="fill:#00f">NADH</text></g><g id="abfc0" class="Metabolite " transform="translate(1069,438)"  name="5(S)-Hp-18(S)-HEPE" ><rect   width="130" height="30" style="stroke:#00f"/><text   transform="translate(65,15)"     style="fill:#00f">5(S)-Hp-18(S)-HEPE</text></g><g id="ac3c9" class="Metabolite " transform="translate(1113,373)"  name="18(S)-RvE3" ><rect   width="86" height="30" style="stroke:#00f"/><text   transform="translate(43,15)"     style="fill:#00f">18(S)-RvE3</text></g><g id="ad3ed" class="Metabolite " transform="translate(484,273)"  name="18(R)-HpEPE" ><rect   width="88" height="30" style="stroke:#00f"/><text   transform="translate(44,15)"     style="fill:#00f">18(R)-HpEPE</text></g><g id="ad5d2" class="Metabolite " transform="translate(1204,304)"  name="NADPH" ><rect   width="57" height="30" style="stroke:#00f"/><text   transform="translate(28.5,15)"     style="fill:#00f">NADPH</text></g><g id="b0535" class="Metabolite " transform="translate(1777,523)"  name="18-oxo-RvE1" ><rect   width="93" height="30" style="stroke:#00f"/><text   transform="translate(46.5,15)"     style="fill:#00f">18-oxo-RvE1</text></g><g id="b06f2" class="Metabolite " transform="translate(788,295)"  name="GSSG" ><rect   width="48" height="30" style="stroke:#00f"/><text   transform="translate(24,15)"     style="fill:#00f">GSSG</text></g><g id="b10ac" class="Unknown Reactome_R-HSA-9029001" transform="translate(262,408)"  name="CYP" ><rect   width="30" height="22"/><text   transform="translate(15,11)"    >CYP</text></g><g id="b3a51" class="Protein-2" transform="translate(700,324)"  name="GPX4-2" ><rect   width="56" height="22"/><text   transform="translate(28,11)"    >GPX4-2</text></g><g id="b4ccd" class="Protein" transform="translate(1032,308)"  name="ALOX15" ><rect   width="57" height="22"/><text   transform="translate(28.5,11)"    >ALOX15</text></g><g id="ba0fc" class="Metabolite " transform="translate(1113,242)"  name="(18R)-resolvin E3" ><rect   width="82" height="30" style="stroke:#00f"/><text   transform="translate(41,15)"     style="fill:#00f">(18R)-resolvin E3</text></g><g id="be1d5" class="Metabolite " transform="translate(387,389)"  name="NADP+" ><rect   width="57" height="30" style="stroke:#00f"/><text   transform="translate(28.5,15)"     style="fill:#00f">NADP+</text></g><g id="c0a79" class="Metabolite " transform="translate(68,295)"  name="EPA" ><rect   width="73" height="56" style="stroke:#00f"/><text   transform="translate(36.5,28)"     style="fill:#00f">EPA</text></g><g id="c207e" class="Metabolite " transform="translate(608,305)"  name="GSH" ><rect   width="42" height="30" style="stroke:#00f"/><text   transform="translate(21,15)"     style="fill:#00f">GSH</text></g><g id="c7e75" class="Complex Reactome_R-HSA-266038" transform="translate(1411,580)"  name="LTA4H:Zn2+" ><g class="Complex Reactome_R-HSA-266038"><use class="Complex Reactome_R-HSA-266038 Node Icon" width="94" height="24" fill="#fff" stroke="#a52a2a" href="#HexagonPathVisio"/></g><g ><defs><clipPath ><rect x="-47" y="-12" width="94" height="24" style="stroke:none"/></clipPath></defs><text   transform="translate(47,12)"     style="fill:#a52a2a">LTA4H:Zn2+</text></g></g><g id="c87fe" class="Metabolite " transform="translate(863,243)"  name="18(R)-HEPE" ><rect   width="87" height="30" style="stroke:#00f"/><text   transform="translate(43.5,15)"     style="fill:#00f">18(R)-HEPE</text></g><g id="c9e4a" class="Metabolite " transform="translate(1421,189)"  name="18(R)-RvE2" ><rect   width="80" height="30" style="stroke:#00f"/><text   transform="translate(40,15)"     style="fill:#00f">18(R)-RvE2</text></g><g id="ca39d" class="Metabolite " transform="translate(951,292)"  name="O2" ><rect   width="34" height="30" style="stroke:#00f"/><text   transform="translate(17,15)"     style="fill:#00f">O2</text></g><g id="cc915" class="Metabolite " transform="translate(1054,188)"  name="5(S)-Hp-18(R)-HEPE" ><rect   width="130" height="30" style="stroke:#00f"/><text   transform="translate(65,15)"     style="fill:#00f">5(S)-Hp-18(R)-HEPE</text></g><g id="d0fdf" class="Metabolite " transform="translate(1521,522)"  name="18(S)-RvE1" ><rect   width="91" height="30" style="stroke:#00f"/><text   transform="translate(45.5,15)"     style="fill:#00f">18(S)-RvE1</text></g><g id="d1de5" class="Metabolite " transform="translate(126,242)"  name="O2" ><rect   width="34" height="30" style="stroke:#00f"/><text   transform="translate(17,15)"     style="fill:#00f">O2</text></g><g id="d30bb" class="Complex Reactome_R-HSA-2314687" transform="translate(220,214)"  name="Ac-PTGS2 dimer" ><g class="Complex Reactome_R-HSA-2314687"><use class="Complex Reactome_R-HSA-2314687 Node Icon" width="106" height="22" fill="#fff" stroke="#a52a2a" href="#HexagonPathVisio"/></g><g ><defs><clipPath ><rect x="-53" y="-11" width="106" height="22" style="stroke:none"/></clipPath></defs><text   transform="translate(53,11)"     style="fill:#a52a2a">Ac-PTGS2 dimer</text></g></g><g id="da87a" class="Complex Reactome_R-HSA-2142778" transform="translate(1664,579)"  name="HPGD dimer" ><g class="Complex Reactome_R-HSA-2142778"><use class="Complex Reactome_R-HSA-2142778 Node Icon" width="59" height="35" fill="#fff" stroke="#a52a2a" href="#HexagonPathVisio"/></g><g ><defs><clipPath ><rect x="-29.5" y="-17.5" width="59" height="35" style="stroke:none"/></clipPath></defs><text   transform="translate(29.5,17.5)"     style="fill:#a52a2a">HPGD dimer</text></g></g><g id="db634" class="Metabolite " transform="translate(889,463)"  name="O2" ><rect   width="34" height="30" style="stroke:#00f"/><text   transform="translate(17,15)"     style="fill:#00f">O2</text></g><g id="dc068" class="Metabolite " transform="translate(1610,560)"  name="NAD+" ><rect   width="44" height="30" style="stroke:#00f"/><text   transform="translate(22,15)"     style="fill:#00f">NAD+</text></g><g id="e03ba" class="Metabolite " transform="translate(1425,437)"  name="18(S)-RvE2" ><rect   width="79" height="30" style="stroke:#00f"/><text   transform="translate(39.5,15)"     style="fill:#00f">18(S)-RvE2</text></g><g id="e114d" class="Protein" transform="translate(984,82)"  name="ALOX5" ><rect   width="48" height="22"/><text   transform="translate(24,11)"    >ALOX5</text></g><g id="e4a40" class="Complex Reactome_R-ALL-9023979" transform="translate(1834,239)"  name="18(R)-RvE1,E2,E3" ><g class="Complex Reactome_R-ALL-9023979"><rect   width="116" height="22" rx="15" ry="15" style="stroke:#a52a2a"/></g><g ><defs><clipPath ><rect x="-58" y="-11" width="116" height="22" style="stroke:none"/></clipPath></defs><text   transform="translate(58,11)"     style="fill:#a52a2a">18(R)-RvE1,E2,E3</text></g></g><g id="e8271" class="Metabolite " transform="translate(1385,305)"  name="NADP+" ><rect   width="57" height="30" style="stroke:#00f"/><text   transform="translate(28.5,15)"     style="fill:#00f">NADP+</text></g><g id="eb688" class="Metabolite " transform="translate(852,373)"  name="18(S)-HEPE" ><rect   width="85" height="30" style="stroke:#00f"/><text   transform="translate(42.5,15)"     style="fill:#00f">18(S)-HEPE</text></g><g id="edc81" class="Complex Reactome_R-ALL-9023981" transform="translate(2064,239)"  name="18(R)-RvE1,E2,E3" ><g class="Complex Reactome_R-ALL-9023981"><rect   width="116" height="22" rx="15" ry="15" style="stroke:#a52a2a"/></g><g ><defs><clipPath ><rect x="-58" y="-11" width="116" height="22" style="stroke:none"/></clipPath></defs><text   transform="translate(58,11)"     style="fill:#a52a2a">18(R)-RvE1,E2,E3</text></g></g><g id="eea88" class="Metabolite " transform="translate(1235,506)"  name="5S,6S-epoxy-18(S)-HEPE" ><rect   width="91" height="61" style="stroke:#00f"/><text   transform="translate(45.5,30.5)"     style="fill:#00f">5S,6S-epoxy-18(S)-HEPE</text></g><g id="f1153" class="Protein" transform="translate(991,525)"  name="ALOX5" ><rect   width="48" height="22"/><text   transform="translate(24,11)"    >ALOX5</text></g><g id="f12c9" class="Metabolite " transform="translate(486,350)"  name="18(S)-HpEPE" ><rect   width="93" height="30" style="stroke:#00f"/><text   transform="translate(46.5,15)"     style="fill:#00f">18(S)-HpEPE</text></g><g id="f159f" class="Complex Reactome_R-ALL-9022921" transform="translate(330,268)"  name="18(S)-HpEPE, 18(R)-HpEPE" ><g class="Complex Reactome_R-ALL-9022921"><rect   width="99" height="41" rx="15" ry="15" style="stroke:#a52a2a"/></g><g ><defs><clipPath ><rect x="-49.5" y="-20.5" width="99" height="41" style="stroke:none"/></clipPath></defs><text   transform="translate(49.5,20.5)"     style="fill:#a52a2a"><tspan   x="0" y="-5.5">18(S)-HpEPE,</tspan><tspan   x="0" y="5.5">18(R)-HpEPE</tspan></text></g></g><g id="f2c1a" class="Complex Reactome_R-ALL-9023985" transform="translate(1824,368)"  name="18(S)-RvE1,E2,E3" ><g class="Complex Reactome_R-ALL-9023985"><rect   width="115" height="23" rx="15" ry="15" style="stroke:#a52a2a"/></g><g ><defs><clipPath ><rect x="-57.5" y="-11.5" width="115" height="23" style="stroke:none"/></clipPath></defs><text   transform="translate(57.5,11.5)"     style="fill:#a52a2a">18(S)-RvE1,E2,E3</text></g></g><g id="f7aaa" class="Metabolite " transform="translate(1202,66)"  name="5S,6S-epoxy-18(R)-HEPE" ><rect   width="90" height="55" style="stroke:#00f"/><text   transform="translate(45,27.5)"     style="fill:#00f">5S,6S-epoxy-18(R)-HEPE</text></g><g id="fa0fe" class="Complex Reactome_R-ALL-9029501" transform="translate(2078,366)"  name="18(S)-RvE1,E2,E3" ><g class="Complex Reactome_R-ALL-9029501"><rect   width="115" height="26" rx="15" ry="15" style="stroke:#a52a2a"/></g><g ><defs><clipPath ><rect x="-57.5" y="-13" width="115" height="26" style="stroke:none"/></clipPath></defs><text   transform="translate(57.5,13)"     style="fill:#a52a2a">18(S)-RvE1,E2,E3</text></g></g><g id="fb2a4" class="Metabolite " transform="translate(1333,568)"  name="H2O" ><rect   width="47" height="30" style="stroke:#00f"/><text   transform="translate(23.5,15)"     style="fill:#00f">H2O</text></g><g id="fd8c1" class="Metabolite " transform="translate(1306,40)"  name="H2O" ><rect   width="43" height="30" style="stroke:#00f"/><text   transform="translate(21.5,15)"     style="fill:#00f">H2O</text></g><g id="fe53e" class="Metabolite " transform="translate(162,399)"  name="NADPH" ><rect   width="57" height="30" style="stroke:#00f"/><text   transform="translate(28.5,15)"     style="fill:#00f">NADPH</text></g><g id="ffb66" class="Metabolite " transform="translate(1165,476)"  name="O2" ><rect   width="34" height="30" style="stroke:#00f"/><text   transform="translate(17,15)"     style="fill:#00f">O2</text></g><g id="ffedd" class="Metabolite " transform="translate(802,204)"  name="H2O" ><rect   width="41" height="30" style="stroke:#00f"/><text   transform="translate(20.5,15)"     style="fill:#00f">H2O</text></g><g id="b96d0" class="GroupNone" transform="translate(41,1354)"  ><g class="GroupNone"><rect   width="118" height="78" fill-opacity=".1" stroke-dasharray="5,3" style="fill:#b4b464;stroke:grey"/><g id="e4ddf" class="Metabolite " transform="translate(9,29)"  name="18(S)-RvE2" ><rect   width="100" height="20" style="stroke:#00f"/><text   transform="translate(50,10)"     style="fill:#00f">18(S)-RvE2</text></g><g id="ee262" class="Metabolite " transform="translate(9,49)"  name="18(S)-RvE3" ><rect   width="100" height="20" style="stroke:#00f"/><text   transform="translate(50,10)"     style="fill:#00f">18(S)-RvE3</text></g><g id="f75bf" class="Metabolite " transform="translate(9,9)"  name="18(S)-RvE1" ><rect   width="100" height="20" style="stroke:#00f"/><text   transform="translate(50,10)"     style="fill:#00f">18(S)-RvE1</text></g></g></g><g id="cf427" class="GroupComplex" transform="translate(38,971)"  ><g class="GroupComplex"><use class="Icon" width="124" height="64" fill="#b4b464" fill-opacity=".1" stroke="grey" href="#Octagon"/><g id="e113c" class="Protein" transform="translate(12,12)"  name="LTA4H" ><rect   width="100" height="20"/><text   transform="translate(50,10)"    >LTA4H</text></g><g id="e813b" class="Metabolite " transform="translate(12,32)"  name="Zn2+" ><rect   width="100" height="20" style="stroke:#00f"/><text   transform="translate(50,10)"     style="fill:#00f">Zn2+</text></g></g></g><g id="d1eb7" class="GroupComplex" transform="translate(38,781)"  ><g class="GroupComplex"><use class="Icon" width="124" height="94" fill="#b4b464" fill-opacity=".1" stroke="grey" href="#Octagon"/><g id="b836a" class="Metabolite " transform="translate(12,62)"  name="heme b" ><rect   width="100" height="20" style="stroke:#00f"/><text   transform="translate(50,10)"     style="fill:#00f">heme b</text></g><g id="c4f44" class="Protein" transform="translate(12,12)"  name="O-acetyl-L-serine-PTGS2" ><rect   width="100" height="40"/><text   transform="translate(50,20)"    >O-acetyl-L-serine-PTGS2</text></g><g id="e3c1f" class="Protein" transform="translate(12,42)"  name="PTGS2" ><rect   width="100" height="20"/><text   transform="translate(50,10)"    >PTGS2</text></g></g></g><g id="d2649" class="GroupNone" transform="translate(41,1254)"  ><g class="GroupNone"><rect   width="118" height="78" fill-opacity=".1" stroke-dasharray="5,3" style="fill:#b4b464;stroke:grey"/><g id="d58cb" class="Metabolite " transform="translate(9,49)"  name="(18R)-resolvin E3" ><rect   width="100" height="20" style="stroke:#00f"/><text   transform="translate(50,10)"     style="fill:#00f">(18R)-resolvin E3</text></g><g id="def7f" class="Metabolite " transform="translate(9,29)"  name="18(R)-RvE2" ><rect   width="100" height="20" style="stroke:#00f"/><text   transform="translate(50,10)"     style="fill:#00f">18(R)-RvE2</text></g><g id="f4232" class="Metabolite " transform="translate(9,9)"  name="18(R)-RvE1" ><rect   width="100" height="20" style="stroke:#00f"/><text   transform="translate(50,10)"     style="fill:#00f">18(R)-RvE1</text></g></g></g><g id="d477c" class="GroupNone" transform="translate(41,1154)"  ><g class="GroupNone"><rect   width="118" height="78" fill-opacity=".1" stroke-dasharray="5,3" style="fill:#b4b464;stroke:grey"/><g id="b99ca" class="Metabolite " transform="translate(9,9)"  name="18(R)-RvE1" ><rect   width="100" height="20" style="stroke:#00f"/><text   transform="translate(50,10)"     style="fill:#00f">18(R)-RvE1</text></g><g id="c3fd6" class="Metabolite " transform="translate(9,29)"  name="18(R)-RvE2" ><rect   width="100" height="20" style="stroke:#00f"/><text   transform="translate(50,10)"     style="fill:#00f">18(R)-RvE2</text></g><g id="c85bf" class="Metabolite " transform="translate(9,49)"  name="(18R)-resolvin E3" ><rect   width="100" height="20" style="stroke:#00f"/><text   transform="translate(50,10)"     style="fill:#00f">(18R)-resolvin E3</text></g></g></g><g id="e8c5d" class="GroupComplex" transform="translate(38,891)"  ><g class="GroupComplex"><use class="Icon" width="124" height="64" fill="#b4b464" fill-opacity=".1" stroke="grey" href="#Octagon"/><g id="e501b" class="Protein" transform="translate(12,12)"  name="LTA4H" ><rect   width="100" height="20"/><text   transform="translate(50,10)"    >LTA4H</text></g><g id="f51f7" class="Metabolite " transform="translate(12,32)"  name="Zn2+" ><rect   width="100" height="20" style="stroke:#00f"/><text   transform="translate(50,10)"     style="fill:#00f">Zn2+</text></g></g></g><g id="f0378" class="GroupComplex" transform="translate(178,731)"  ><g class="GroupComplex"><use class="Icon" width="124" height="44" fill="#b4b464" fill-opacity=".1" stroke="grey" href="#Octagon"/><g id="a0ae9" class="Protein" transform="translate(12,12)"  name="HPGD" ><rect   width="100" height="20"/><text   transform="translate(50,10)"    >HPGD</text></g></g></g><g id="f991c" class="GroupNone" transform="translate(41,694)"  ><g class="GroupNone"><rect   width="118" height="58" fill-opacity=".1" stroke-dasharray="5,3" style="fill:#b4b464;stroke:grey"/><g id="db8fd" class="Metabolite " transform="translate(9,9)"  name="18(S)-HpEPE" ><rect   width="100" height="20" style="stroke:#00f"/><text   transform="translate(50,10)"     style="fill:#00f">18(S)-HpEPE</text></g><g id="f07be" class="Metabolite " transform="translate(9,29)"  name="18(R)-HpEPE" ><rect   width="100" height="20" style="stroke:#00f"/><text   transform="translate(50,10)"     style="fill:#00f">18(R)-HpEPE</text></g></g></g><g id="fcbe5" class="GroupNone" transform="translate(41,1054)"  ><g class="GroupNone"><rect   width="118" height="78" fill-opacity=".1" stroke-dasharray="5,3" style="fill:#b4b464;stroke:grey"/><g id="baf97" class="Metabolite " transform="translate(9,49)"  name="18(S)-RvE3" ><rect   width="100" height="20" style="stroke:#00f"/><text   transform="translate(50,10)"     style="fill:#00f">18(S)-RvE3</text></g><g id="d0147" class="Metabolite " transform="translate(9,29)"  name="18(S)-RvE2" ><rect   width="100" height="20" style="stroke:#00f"/><text   transform="translate(50,10)"     style="fill:#00f">18(S)-RvE2</text></g><g id="dc663" class="Metabolite " transform="translate(9,9)"  name="18(S)-RvE1" ><rect   width="100" height="20" style="stroke:#00f"/><text   transform="translate(50,10)"     style="fill:#00f">18(S)-RvE1</text></g></g></g></g></g></g></svg>