<?xml version="1.0" encoding="UTF-8"?>
<svg xmlns="http://www.w3.org/2000/svg" id="-svg" class="Diagram"  baseProfile="full" prefix="schema:http://schema.org/" preserveAspectRatio="xMidYMid"  version="1.1"><defs><g id="icon-defs"><symbol id="HexagonPathVisio" class=" Icon HexagonPathVisio" x="0" y="8" overflow="visible" preserveAspectRatio="none" viewBox="0 8 100 86"><desc>HexagonPathVisio</desc><g transform="scale(1 0.85)"><path d="m1.42 51.00 21.07-42.14h56.19l21.07 42.14-21.07 42.15h-56.19l-21.07-42.15z" stroke="currentColor" vector-effect="non-scaling-stroke"/></g></symbol><symbol id="Octagon" class=" Icon Octagon" x="0" y="0" overflow="visible" preserveAspectRatio="none" viewBox="0 0 100 100"><desc>Octagon</desc><path d="m0 25 25-25h50l25 25v50l-25 25h-50l-25-25z" vector-effect="non-scaling-stroke"/></symbol></g><g id="marker-defs"><marker id="mea" markerHeight="12" markerWidth="12" orient="auto" preserveAspectRatio="none" refX="12" refY="6" viewBox="0 0 12 12"><g id="g-mea" transform=""><g transform="rotate(180 6 6)"><rect y="5.4" width="2" height="1.2" style="stroke:#fff"/><polygon points="12 11 0 6 12 1" stroke-width="0"/></g></g></marker><marker id="memcatalysis000" markerHeight="12" markerWidth="12" orient="auto" preserveAspectRatio="none" refX="12" refY="6" viewBox="0 0 12 12"><g id="g-memcatalysis000" transform=""><g transform="rotate(180 6 6)"><circle cx="6" cy="6" r="5.3px" fill="#fff" stroke="#000"/></g></g></marker></g></defs><g id="viewport-20220102143806618" class="svg-pan-zoom_viewport" transform="matrix(0.54 0 0 0.54 262.03 0)" style="transform:matrix(0.54, 0, 0, 0.54, 262.03, 0)"><style>svg.Diagram {font-family: 'Liberation Sans', Arial, sans-serif; }.Diagram path {fill: transparent;stroke: #000;marker-end: url(#mea);}.Diagram symbol path {fill: inherit;stroke: inherit;stroke-width: inherit;marker-end: inherit;}.Diagram rect {fill: #fff;stroke: #000;}.Diagram text {dominant-baseline: central;overflow: hidden;text-anchor: middle;fill: #000;font-size: 10px;}</style><style type="text/css">.Viewport .textContent {
  pointer-events: none;
  stroke-width: 0px;
}

					.Viewport.Icon {
  fill: white;
}

/* Hide the InfoBox */
.Viewport.textContent {
  font-size: 0;
}

.textContent {
  stroke: none;
}

.DataNode {
  stroke-miterlimit: 1;
  pointer-events: auto;
}

.DataNode:hover {
  cursor: pointer;
}

/* TODO should this apply to things other than DataNodes? */
.DataNode.textContent {
  pointer-events: none;
}

.DataNode.Highlighted {
  opacity: 0.6;
  stroke-width: 0px;
}

marker {
  /* this is what should work per the spec
  stroke-dasharray: none; */
  /* but I need to add this to make it work in Safari */
  stroke-dasharray: 9999999999999999999999999;
}

.Citation.Icon {
  fill: none;
  stroke-width: 0px;
}

.Citation.textContent {
  text-align: center;
  vertical-align: top;
  font-size: 7px;
  fill: #999;
  fill-opacity: 1;
  stroke: none;
}</style><g id="WP4434" class="Pathway http___identifiers_org_pw_PW_0000462 Viewport"  name="Name: Synthesis of Lipoxins (LX) Organism: Homo sapiens" ><g class="Pathway http___identifiers_org_pw_PW_0000462 Viewport"><rect   width="1261" height="1332" style="stroke:none"/><g id="a0973" class="Reactome_R-HSA-9032036"  ><path    d="m479 220v-129" style="marker-end:none"/><g id="cf98c" class="AB" transform="translate(479,220)"  ><g class="AB"/></g><g id="d78ce" class="AB" transform="translate(479 92.29)"  ><g class="AB"/></g></g><g id="a8d32" class="Reactome_R-HSA-9032036"  ><path    d="m480 223-1-3" style="marker-end:none"/></g><g id="af325" class="Reactome_R-HSA-2161907"  ><path    d="m414 374-1 97" style="marker-end:none"/><g id="a150f" class="AB" transform="translate(414,374)"  ><g class="AB"/></g><g id="a6f12" class="AB" transform="translate(413.01,470.03)"  ><g class="AB"/></g><g id="fba52" class="AB" transform="translate(413.5,422.5)"  ><g class="AB"/></g></g><g id="a0ff4" class="Reactome_R-HSA-2161907"  ><path    d="m414 333v41" style="marker-end:none"/></g><g id="afc30" class="Reactome_R-HSA-266051"  ><path    d="m256 239 113-1" style="marker-end:none"/><g id="cb8da" class="AB" transform="translate(256,239)"  ><g class="AB"/></g><g id="ae23a" class="AB" transform="translate(367.87,238.01)"  ><g class="AB"/></g><g id="a5eab" class="AB" transform="translate(312.5,238.5)"  ><g class="AB"/></g></g><g id="bd26d" class="Reactome_R-HSA-2161907"  ><path    d="m372 406 41 13" style="marker-end:url(#memcatalysis000)"/></g><g id="bdae5" class="Reactome_R-HSA-266051"  ><path    d="m369 238h84"/></g><g id="c70d2" class="Reactome_R-HSA-266051"  ><path    d="m369 238 10 35"/></g><g id="ca64f" class="Reactome_R-HSA-9032036"  ><path    d="m479 91 1-3"/></g><g id="d36e1" class="Reactome_R-HSA-266051"  ><path    d="m253 239h3" style="marker-end:none"/></g><g id="d50f5" class="Reactome_R-HSA-2161844"  ><path    d="m980 463 98 1" style="marker-end:none"/><g id="adb74" class="AB" transform="translate(980,463)"  ><g class="AB"/></g><g id="f9313" class="AB" transform="translate(1077 463.99)"  ><g class="AB"/></g><g id="e1dd7" class="AB" transform="translate(1029,463.5)"  ><g class="AB"/></g></g><g id="c552a" class="Reactome_R-HSA-2161844"  ><path    d="m973 427 7 36" style="marker-end:none"/></g><g id="cdc0a" class="Reactome_R-HSA-2161844"  ><path    d="m960 496 20-33" style="marker-end:none"/></g><g id="b648b" class="Reactome_R-HSA-2161844"  ><path    d="m1078 464h40"/></g><g id="d8b6e" class="Reactome_R-HSA-2161907"  ><path    d="m413 471 1 6"/></g><g id="dcdc6" class="Reactome_R-HSA-2161844"  ><path    d="m1078 464 26 24"/></g><g id="dd5f6" class="Reactome_R-HSA-2161917"  ><path    d="m524 367 47 41" style="marker-end:none"/><g id="b4cfc" class="AB" transform="translate(524,367)"  ><g class="AB"/></g><g id="ee6c0" class="AB" transform="translate(570.53 407.59)"  ><g class="AB"/></g><g id="b126c" class="AB" transform="translate(547.5,387.5)"  ><g class="AB"/></g></g><g id="c9c3c" class="Reactome_R-HSA-2161917"  ><path    d="m486 354 38 13" style="marker-end:none"/></g><g id="d9f13" class="Reactome_R-HSA-2161917"  ><path    d="m525 328-1 39" style="marker-end:none"/></g><g id="a263d" class="Reactome_R-HSA-2161917"  ><path    d="m571 408h6"/></g><g id="c14a2" class="Reactome_R-HSA-2161917"  ><path    d="m372 406 152 2" style="marker-end:url(#memcatalysis000)"/></g><g id="e712c" class="Reactome_R-HSA-2161844"  ><path    d="m999 402 28 62" style="marker-end:url(#memcatalysis000)"/></g><g id="e781a" class="Reactome_R-HSA-266051"  ><path    d="m307 388 8-149" style="marker-end:url(#memcatalysis000)"/></g><g id="eaf92" class="Reactome_R-HSA-9032054"  ><path    d="m523 484v132" style="marker-end:none"/><g id="ca080" class="AB" transform="translate(523,484)"  ><g class="AB"/></g><g id="f3696" class="AB" transform="translate(523 614.68)"  ><g class="AB"/></g></g><g id="db1d7" class="Reactome_R-HSA-9032054"  ><path    d="m523 616v6"/></g><g id="ee5fa" class="Reactome_R-HSA-9032054"  ><path    d="m524 478-1 6" style="marker-end:none"/></g><g id="f34af" class="Reactome_R-HSA-2161779"  ><path    d="m694 464h104" style="marker-end:none"/><g id="ac21e" class="AB" transform="translate(694,464)"  ><g class="AB"/></g><g id="f3f9f" class="AB" transform="translate(796.96 464)"  ><g class="AB"/></g><g id="a80f2" class="AB" transform="translate(746,464)"  ><g class="AB"/></g></g><g id="afbdd" class="Reactome_R-HSA-2161779"  ><path    d="m683 455 11 9" style="marker-end:none"/></g><g id="bfab3" class="Reactome_R-HSA-2161779"  ><path    d="m652 465 42-1" style="marker-end:none"/></g><g id="c1f3d" class="Reactome_R-HSA-2161779"  ><path    d="m798 464 52 1"/></g><g id="c2273" class="Reactome_R-HSA-2161779"  ><path    d="m798 464 20-22"/></g><g id="db71c" class="Reactome_R-HSA-2161779"  ><path    d="m798 464 14 19"/></g><g id="aa3af" class="Reactome_R-HSA-2161779"  ><path    d="m692 402 46 62" style="marker-end:url(#memcatalysis000)"/></g><g id="f7927" class="Reactome_R-HSA-2161907"  ><path    d="m454 354-40 20" style="marker-end:none"/></g><g id="f8690" class="Reactome_R-HSA-2161844"  ><path    d="m942 465 38-2" style="marker-end:none"/></g><g id="fcbfa" class="Reactome_R-HSA-2161775"  ><path    d="m537 73h117" style="marker-end:none"/><g id="c7a44" class="AB" transform="translate(537,73)"  ><g class="AB"/></g><g id="ca970" class="AB" transform="translate(652.83,73)"  ><g class="AB"/></g><g id="aa85b" class="AB" transform="translate(595.5,73)"  ><g class="AB"/></g></g><g id="aa77a" class="Reactome_R-HSA-2161775"  ><path    d="m503 73h34" style="marker-end:none"/></g><g id="fb54c" class="Reactome_R-HSA-2161775"  ><path    d="m525 59 12 14" style="marker-end:none"/></g><g id="e2ac8" class="Reactome_R-HSA-2161775"  ><path    d="m654 73h6"/></g><g id="d8d9c" class="Reactome_R-HSA-2161775"  ><path    d="m568 102v-29" style="marker-end:url(#memcatalysis000)"/></g><g id="b60fa" class="GroupGroup" transform="translate(167,333)"  ><g class="GroupGroup"><g id="cb873" class="" transform="translate(8,8)"  ><g class=""><rect   transform="matrix(0.98 0 0 0.96 1.47 1.45)" width="137" height="82" rx="15" ry="15" stroke-width="3" style="fill:transparent;stroke:#c0c0c0"/></g></g><g id="a8c4a" class="Label" transform="translate(14,24)"  name="nuclear envelope" ><g class="Label"/><text   transform="translate(64,16.5)"    >nuclear envelope</text></g></g></g><g id="c7b25" class="GroupGroup" transform="translate(106,149)"  ><g class="GroupGroup"><g id="f0c0e" class="" transform="translate(8,8)"  ><g class=""><rect   transform="matrix(1.00 0 0 0.99 1.50 1.49)" width="1117" height="400" rx="15" ry="15" stroke-width="3" style="fill:transparent;stroke:#c0c0c0"/></g></g><g id="fd858" class="Label" transform="translate(34,335)"  name="cytosol" ><g class="Label"/><text   transform="translate(32,16.5)"    >cytosol</text></g></g></g><g id="ce109" class="GroupGroup" transform="translate(388,7)"  ><g class="GroupGroup"><g id="b5599" class="" transform="translate(8,8)"  ><g class=""><rect   transform="matrix(0.99 0 0 0.98 1.49 1.47)" width="411" height="138" rx="15" ry="15" stroke-width="3" style="fill:transparent;stroke:#c0c0c0"/></g></g><g id="c7593" class="Label" transform="translate(25,102)"  name="cytosol" ><g class="Label"/><text   transform="translate(32,16.5)"    >cytosol</text></g></g></g><g id="c29da" class="Label" transform="translate(409,94)"  name="Platelet" ><g class="Label"/><text   transform="translate(32,12.5)"    >Platelet</text></g><g id="d3120" class="Label" transform="translate(139,466)"  name="Neutrophil" ><g class="Label"/><text   transform="translate(35,15.5)"    >Neutrophil</text></g><g id="a443e" class="Metabolite " transform="translate(454,339)"  name="O2" ><rect   width="33" height="30" style="stroke:#00f"/><text   transform="translate(16.5,15)"     style="fill:#00f">O2</text></g><g id="aa8fe" class="Metabolite " transform="translate(801,412)"  name="H+" ><rect   width="35" height="30" style="stroke:#00f"/><text   transform="translate(17.5,15)"     style="fill:#00f">H+</text></g><g id="b0c9e" class="Complex Reactome_R-HSA-2142793" transform="translate(515,102)"  name="ALOX12:Fe2+" ><g class="Complex Reactome_R-HSA-2142793"><use class="Complex Reactome_R-HSA-2142793 Node Icon" width="107" height="22" fill="#fff" stroke="#a52a2a" href="#HexagonPathVisio"/></g><g ><defs><clipPath ><rect x="-53.5" y="-11" width="107" height="22" style="stroke:none"/></clipPath></defs><text   transform="translate(53.5,11)"     style="fill:#a52a2a">ALOX12:Fe2+</text></g></g><g id="b3b76" class="Metabolite " transform="translate(850,450)"  name="15k-LXA4" ><rect   width="92" height="30" style="stroke:#00f"/><text   transform="translate(46,15)"     style="fill:#00f">15k-LXA4</text></g><g id="b4417" class="Complex Reactome_R-HSA-2318764" transform="translate(242,388)"  name="ALOX5:ALOX5AP:LTC4S" ><g class="Complex Reactome_R-HSA-2318764"><use class="Complex Reactome_R-HSA-2318764 Node Icon" width="130" height="36" fill="#fff" stroke="#a52a2a" href="#HexagonPathVisio"/></g><g ><defs><clipPath ><rect x="-65" y="-18" width="130" height="36" style="stroke:none"/></clipPath></defs><text   transform="translate(65,18)"     style="fill:#a52a2a">ALOX5:ALOX5AP:LTC4S</text></g></g><g id="b883f" class="Metabolite " transform="translate(656,425)"  name="NAD+" ><rect   width="54" height="30" style="stroke:#00f"/><text   transform="translate(27,15)"     style="fill:#00f">NAD+</text></g><g id="bb525" class="Metabolite " transform="translate(926,481)"  name="H+" ><rect   width="35" height="30" style="stroke:#00f"/><text   transform="translate(17.5,15)"     style="fill:#00f">H+</text></g><g id="c78ab" class="Metabolite " transform="translate(1118,449)"  name="dhk-LXA4" ><rect   width="92" height="30" style="stroke:#00f"/><text   transform="translate(46,15)"     style="fill:#00f">dhk-LXA4</text></g><g id="c870f" class="Complex Reactome_R-ALL-9037644" transform="translate(494,622)"  name="LXA4/B4" ><g class="Complex Reactome_R-ALL-9037644"><rect   width="58" height="22" rx="15" ry="15" style="stroke:#a52a2a"/></g><g ><defs><clipPath ><rect x="-29" y="-11" width="58" height="22" style="stroke:none"/></clipPath></defs><text   transform="translate(29,11)"     style="fill:#a52a2a">LXA4/B4</text></g></g><g id="ca0fa" class="Metabolite " transform="translate(453,223)"  name="LTA4" ><rect   width="54" height="30" style="stroke:#00f"/><text   transform="translate(27,15)"     style="fill:#00f">LTA4</text></g><g id="cb71e" class="Metabolite " transform="translate(457,58)"  name="LTA4" ><rect   width="47" height="30" style="stroke:#00f"/><text   transform="translate(23.5,15)"     style="fill:#00f">LTA4</text></g><g id="cdd8d" class="Protein" transform="translate(999,391)"  name="PTGR1" ><rect   width="55" height="22"/><text   transform="translate(27.5,11)"    >PTGR1</text></g><g id="cff8e" class="Complex Reactome_R-ALL-2161856" transform="translate(487,456)"  name="LXA4/B4" ><g class="Complex Reactome_R-ALL-2161856"><rect   width="74" height="22" rx="15" ry="15" style="stroke:#a52a2a"/></g><g ><defs><clipPath ><rect x="-37" y="-11" width="74" height="22" style="stroke:none"/></clipPath></defs><text   transform="translate(37,11)"     style="fill:#a52a2a">LXA4/B4</text></g></g><g id="d125a" class="Metabolite " transform="translate(179,224)"  name="5S-HpETE" ><rect   width="74" height="30" style="stroke:#00f"/><text   transform="translate(37,15)"     style="fill:#00f">5S-HpETE</text></g><g id="d9ad7" class="Metabolite " transform="translate(379,258)"  name="H2O" ><rect   width="43" height="30" style="stroke:#00f"/><text   transform="translate(21.5,15)"     style="fill:#00f">H2O</text></g><g id="dee3f" class="Complex Reactome_R-ALL-2161856" transform="translate(577,397)"  name="LXA4/B4" ><g class="Complex Reactome_R-ALL-2161856"><rect   width="74" height="22" rx="15" ry="15" style="stroke:#a52a2a"/></g><g ><defs><clipPath ><rect x="-37" y="-11" width="74" height="22" style="stroke:none"/></clipPath></defs><text   transform="translate(37,11)"     style="fill:#a52a2a">LXA4/B4</text></g></g><g id="e1a77" class="Metabolite " transform="translate(1073,488)"  name="NADP+" ><rect   width="63" height="30" style="stroke:#00f"/><text   transform="translate(31.5,15)"     style="fill:#00f">NADP+</text></g><g id="e6e23" class="Complex Reactome_R-ALL-2161856" transform="translate(660,62)"  name="LXA4/B4" ><g class="Complex Reactome_R-ALL-2161856"><rect   width="74" height="22" rx="15" ry="15" style="stroke:#a52a2a"/></g><g ><defs><clipPath ><rect x="-37" y="-11" width="74" height="22" style="stroke:none"/></clipPath></defs><text   transform="translate(37,11)"     style="fill:#a52a2a">LXA4/B4</text></g></g><g id="ea646" class="Metabolite " transform="translate(368,303)"  name="15R-HETE" ><rect   width="92" height="30" style="stroke:#00f"/><text   transform="translate(46,15)"     style="fill:#00f">15R-HETE</text></g><g id="eb9cb" class="Complex Reactome_R-HSA-2142778" transform="translate(692,391)"  name="HPGD dimer" ><g class="Complex Reactome_R-HSA-2142778"><use class="Complex Reactome_R-HSA-2142778 Node Icon" width="93" height="22" fill="#fff" stroke="#a52a2a" href="#HexagonPathVisio"/></g><g ><defs><clipPath ><rect x="-46.5" y="-11" width="93" height="22" style="stroke:none"/></clipPath></defs><text   transform="translate(46.5,11)"     style="fill:#a52a2a">HPGD dimer</text></g></g><g id="ef0f1" class="Complex Reactome_R-ALL-2161609" transform="translate(351,477)"  name="15epi-LXA4/B4" ><g class="Complex Reactome_R-ALL-2161609"><rect   width="126" height="22" rx="15" ry="15" style="stroke:#a52a2a"/></g><g ><defs><clipPath ><rect x="-63" y="-11" width="126" height="22" style="stroke:none"/></clipPath></defs><text   transform="translate(63,11)"     style="fill:#a52a2a">15epi-LXA4/B4</text></g></g><g id="f17d2" class="Metabolite " transform="translate(509,29)"  name="O2" ><rect   width="33" height="30" style="stroke:#00f"/><text   transform="translate(16.5,15)"     style="fill:#00f">O2</text></g><g id="f5550" class="Metabolite " transform="translate(911,412)"  name="NADPH" ><rect   width="63" height="30" style="stroke:#00f"/><text   transform="translate(31.5,15)"     style="fill:#00f">NADPH</text></g><g id="f6981" class="Metabolite " transform="translate(785,483)"  name="NADH" ><rect   width="54" height="30" style="stroke:#00f"/><text   transform="translate(27,15)"     style="fill:#00f">NADH</text></g><g id="fbd9c" class="Metabolite " transform="translate(598,450)"  name="LXA4" ><rect   width="54" height="30" style="stroke:#00f"/><text   transform="translate(27,15)"     style="fill:#00f">LXA4</text></g><g id="ff84e" class="Metabolite " transform="translate(475,298)"  name="15S-HpETE" ><rect   width="101" height="30" style="stroke:#00f"/><text   transform="translate(50.5,15)"     style="fill:#00f">15S-HpETE</text></g><g id="a28c9" class="GroupNone" transform="translate(41,1253)"  ><g class="GroupNone"><rect   width="118" height="58" fill-opacity=".1" stroke-dasharray="5,3" style="fill:#b4b464;stroke:grey"/><g id="a76af" class="Metabolite " transform="translate(9,29)"  name="LXB4" ><rect   width="100" height="20" style="stroke:#00f"/><text   transform="translate(50,10)"     style="fill:#00f">LXB4</text></g><g id="af303" class="Metabolite " transform="translate(9,9)"  name="LXA4" ><rect   width="100" height="20" style="stroke:#00f"/><text   transform="translate(50,10)"     style="fill:#00f">LXA4</text></g></g></g><g id="a62e3" class="GroupComplex" transform="translate(38,950)"  ><g class="GroupComplex"><use class="Icon" width="124" height="124" fill="#b4b464" fill-opacity=".1" stroke="grey" href="#Octagon"/><g id="a0de6" class="Metabolite " transform="translate(12,52)"  name="Ca2+" ><rect   width="100" height="20" style="stroke:#00f"/><text   transform="translate(50,10)"     style="fill:#00f">Ca2+</text></g><g id="a2b09" class="Protein" transform="translate(12,32)"  name="LTC4S" ><rect   width="100" height="20"/><text   transform="translate(50,10)"    >LTC4S</text></g><g id="d5167" class="Metabolite " transform="translate(12,72)"  name="Fe2+" ><rect   width="100" height="20" style="stroke:#00f"/><text   transform="translate(50,10)"     style="fill:#00f">Fe2+</text></g><g id="e25b1" class="Protein" transform="translate(12,12)"  name="ALOX5AP" ><rect   width="100" height="20"/><text   transform="translate(50,10)"    >ALOX5AP</text></g><g id="e6d0c" class="Protein" transform="translate(12,92)"  name="p-S272-ALOX5" ><rect   width="100" height="20"/><text   transform="translate(50,10)"    >p-S272-ALOX5</text></g></g></g><g id="b27c2" class="GroupComplex" transform="translate(38,730)"  ><g class="GroupComplex"><use class="Icon" width="124" height="64" fill="#b4b464" fill-opacity=".1" stroke="grey" href="#Octagon"/><g id="d6afc" class="Protein" transform="translate(12,12)"  name="ALOX12" ><rect   width="100" height="20"/><text   transform="translate(50,10)"    >ALOX12</text></g><g id="e1a3b" class="Metabolite " transform="translate(12,32)"  name="Fe2+" ><rect   width="100" height="20" style="stroke:#00f"/><text   transform="translate(50,10)"     style="fill:#00f">Fe2+</text></g></g></g><g id="c48d3" class="GroupComplex" transform="translate(38,890)"  ><g class="GroupComplex"><use class="Icon" width="124" height="44" fill="#b4b464" fill-opacity=".1" stroke="grey" href="#Octagon"/><g id="be5b5" class="Protein" transform="translate(12,12)"  name="HPGD" ><rect   width="100" height="20"/><text   transform="translate(50,10)"    >HPGD</text></g></g></g><g id="cb3cd" class="GroupNone" transform="translate(41,1093)"  ><g class="GroupNone"><rect   width="118" height="58" fill-opacity=".1" stroke-dasharray="5,3" style="fill:#b4b464;stroke:grey"/><g id="b1aa0" class="Metabolite " transform="translate(9,29)"  name="LXB4" ><rect   width="100" height="20" style="stroke:#00f"/><text   transform="translate(50,10)"     style="fill:#00f">LXB4</text></g><g id="bffd6" class="Metabolite " transform="translate(9,9)"  name="LXA4" ><rect   width="100" height="20" style="stroke:#00f"/><text   transform="translate(50,10)"     style="fill:#00f">LXA4</text></g></g></g><g id="d7a4f" class="GroupNone" transform="translate(41,813)"  ><g class="GroupNone"><rect   width="118" height="58" fill-opacity=".1" stroke-dasharray="5,3" style="fill:#b4b464;stroke:grey"/><g id="adeec" class="Metabolite " transform="translate(9,9)"  name="15epi-LXA4" ><rect   width="100" height="20" style="stroke:#00f"/><text   transform="translate(50,10)"     style="fill:#00f">15epi-LXA4</text></g><g id="bfb97" class="Metabolite " transform="translate(9,29)"  name="15epi-LXB4" ><rect   width="100" height="20" style="stroke:#00f"/><text   transform="translate(50,10)"     style="fill:#00f">15epi-LXB4</text></g></g></g><g id="f5cfb" class="GroupNone" transform="translate(41,1173)"  ><g class="GroupNone"><rect   width="118" height="58" fill-opacity=".1" stroke-dasharray="5,3" style="fill:#b4b464;stroke:grey"/><g id="acaf9" class="Metabolite " transform="translate(9,29)"  name="LXB4" ><rect   width="100" height="20" style="stroke:#00f"/><text   transform="translate(50,10)"     style="fill:#00f">LXB4</text></g><g id="e7ef4" class="Metabolite " transform="translate(9,9)"  name="LXA4" ><rect   width="100" height="20" style="stroke:#00f"/><text   transform="translate(50,10)"     style="fill:#00f">LXA4</text></g></g></g><g id="f7839" class="GroupNone" transform="translate(41,653)"  ><g class="GroupNone"><rect   width="118" height="58" fill-opacity=".1" stroke-dasharray="5,3" style="fill:#b4b464;stroke:grey"/><g id="b1010" class="Metabolite " transform="translate(9,9)"  name="LXA4" ><rect   width="100" height="20" style="stroke:#00f"/><text   transform="translate(50,10)"     style="fill:#00f">LXA4</text></g><g id="fac1c" class="Metabolite " transform="translate(9,29)"  name="LXB4" ><rect   width="100" height="20" style="stroke:#00f"/><text   transform="translate(50,10)"     style="fill:#00f">LXB4</text></g></g></g></g></g></g></svg>