<?xml version="1.0" encoding="UTF-8"?>
<svg xmlns="http://www.w3.org/2000/svg" id="-svg" class="Diagram"  baseProfile="full" prefix="schema:http://schema.org/" preserveAspectRatio="xMidYMid"  version="1.1"><defs><g id="filter-defs"><filter id="doublefalse3filter" x="-50%" y="-50%" width="200%" height="200%"><feComposite in="SourceGraphic" in2="SourceGraphic" result="doubleDark"/><feMorphology in="doubleDark" operator="dilate" radius="0.17" result="in2Double"/><feMorphology in="SourceGraphic" operator="dilate" radius="3" result="inDouble"/><feComposite in="inDouble" in2="in2Double" operator="out" result="doubleResult"/></filter><filter id="doubletrue3filter" x="-50%" y="-50%" width="200%" height="200%"><feMorphology in="SourceGraphic" operator="dilate" radius="3" result="in2Double"/><feMorphology in="SourceGraphic" radius="3" result="inDouble"/><feComposite in="inDouble" in2="in2Double" operator="atop" result="doubleResult"/></filter></g><g id="icon-defs"><symbol id="Ellipse" class=" Icon Ellipse" x="0" y="0" overflow="visible" preserveAspectRatio="none" viewBox="0 0 50 50"><desc>Ellipse</desc><ellipse cx="25" cy="25" rx="25" ry="25" vector-effect="non-scaling-stroke"/></symbol></g><g id="marker-defs"><marker id="markerstartarrow000" markerHeight="12" markerWidth="12" orient="auto" preserveAspectRatio="none" refY="6" viewBox="0 0 12 12"><g id="g-markerstartarrow000" transform="rotate(180 6 6)"><g transform="rotate(180 6 6)"><rect y="5.4" width="2" height="1.2" style="stroke:#fff"/><polygon points="12 11 0 6 12 1" stroke-width="0"/></g></g></marker><marker id="mea" markerHeight="12" markerWidth="12" orient="auto" preserveAspectRatio="none" refX="12" refY="6" viewBox="0 0 12 12"><g id="g-mea" transform=""><g transform="rotate(180 6 6)"><rect y="5.4" width="2" height="1.2" style="stroke:#fff"/><polygon points="12 11 0 6 12 1" stroke-width="0"/></g></g></marker><marker id="memconversion000" markerHeight="12" markerWidth="12" orient="auto" preserveAspectRatio="none" refX="12" refY="6" viewBox="0 0 12 12"><g id="g-memconversion000" transform=""><g transform="rotate(180 6 6)"><rect y="5.4" width="2" height="1.2" style="stroke:#fff"/><polygon points="12 11 0 6 12 1" stroke-width="0"/></g></g></marker><marker id="memtranscriptiontranslation000" markerHeight="24" markerWidth="20" orient="auto" preserveAspectRatio="none" refX="20" refY="12" viewBox="0 0 20 24"><g id="g-memtranscriptiontranslation000" transform=""><g transform="rotate(180 10 12)"><rect y="11" width="12" height="2" style="stroke:#fff"/><line x1="15" x2="15" y1="12" y2="5" fill="none" stroke="#000"/><line x1="15.5" x2="8" y1="5" y2="5" fill="none" stroke="#000"/><polygon points="0 5 8 1 8 9" fill="#fff" stroke="#000"/></g></g></marker></g></defs><g id="viewport-20220102143920920" class="svg-pan-zoom_viewport" transform="matrix(0.93 0 0 0.93 117.82 0)" style="transform:matrix(0.93, 0, 0, 0.93, 117.82, 0)"><style>svg.Diagram {font-family: 'Liberation Sans', Arial, sans-serif; }.Diagram path {fill: transparent;stroke: #000;marker-end: url(#mea);}.Diagram symbol path {fill: inherit;stroke: inherit;stroke-width: inherit;marker-end: inherit;}.Diagram rect {fill: #fff;stroke: #000;}.Diagram text {dominant-baseline: central;overflow: hidden;text-anchor: middle;fill: #000;font-size: 12px;}</style><style type="text/css">.Viewport .textContent {
  pointer-events: none;
  stroke-width: 0px;
}

					.Viewport.Icon {
  fill: white;
}

/* Hide the InfoBox */
.Viewport.textContent {
  font-size: 0;
}

.textContent {
  stroke: none;
}

.DataNode {
  stroke-miterlimit: 1;
  pointer-events: auto;
}

.DataNode:hover {
  cursor: pointer;
}

/* TODO should this apply to things other than DataNodes? */
.DataNode.textContent {
  pointer-events: none;
}

.DataNode.Highlighted {
  opacity: 0.6;
  stroke-width: 0px;
}

marker {
  /* this is what should work per the spec
  stroke-dasharray: none; */
  /* but I need to add this to make it work in Safari */
  stroke-dasharray: 9999999999999999999999999;
}

.Citation.Icon {
  fill: none;
  stroke-width: 0px;
}

.Citation.textContent {
  text-align: center;
  vertical-align: top;
  font-size: 7px;
  fill: #999;
  fill-opacity: 1;
  stroke: none;
}</style><g id="WP4462" class="Pathway http___identifiers_org_pw_PW_0000475 Viewport"  name="Name: Platelet-mediated interactions with vascular and circulating cells Organism: Homo sapiens" ><g class="Pathway http___identifiers_org_pw_PW_0000475 Viewport"><rect   width="1040" height="770" style="stroke:none"/><g id="id2ddb2250" class="Edge"  ><path    d="m96.75 300-0.75 49.5" style="marker-end:url(#memconversion000)"/></g><g id="ida683a118" class="Edge"  ><path    d="m703 330-90.5 25.5" marker-start="url(#markerstartarrow000)"/></g><g id="idcae4214a" class="Edge"  ><path    d="m242 133 190.14 189" marker-start="url(#markerstartarrow000)"/><g id="d149b" class="AB" transform="translate(304.69 195.31)"  ><g class="AB"/></g></g><g id="pvjsgeneratedidfb598" class="Edge"  ><path    d="m584.5 454.5-20.08 41.44" stroke-dasharray="5,3"/></g><g id="idc778f3de" class="Edge"  ><path    d="m608 495-43.58 0.94" style="marker-end:url(#memconversion000)"/></g><g id="pvjsgeneratedidfb597" class="Edge"  ><path    d="m614 207.5v-27"/></g><g id="idad5d7955" class="Edge"  ><path    d="m733 240.5h-82"/></g><g id="id125362b" class="Edge"  ><path    d="m432.14 464.7v94.3h-96.14"/></g><g id="id3b03b924" class="Edge"  ><path    d="m262 559-76.75 1.12" style="marker-end:url(#memconversion000)"/></g><g id="idc4b87e9c" class="Edge"  ><path    d="m114.12 657.75 0.38 43.75" style="marker-end:url(#memconversion000)"/></g><g id="id70050b68" class="Edge"  ><path    d="m699 168h-36"/></g><g id="id8bac0e03" class="Edge"  ><path    d="m760 330h55v-162h-50" style="marker-end:url(#memtranscriptiontranslation000)"/></g><g id="idae2efb87" class="Edge"  ><path    d="m495.5 68.5v207" stroke-dasharray="5,3"/></g><g id="bd3ad" class=" PhysicalEntity CellularComponent Cell" transform="translate(731.5,118.5)"  name="Endothelial cell" ><g class=" PhysicalEntity CellularComponent Cell" filter="url(#doublefalse3filter)"><g class=" PhysicalEntity CellularComponent Cell"><rect   transform="matrix(0.94 0 0 0.95 5.61 5.72)" width="174" height="244" rx="15" ry="15" stroke-width="3" style="fill:transparent;stroke:#c0c0c0"/></g></g><g ><defs><clipPath ><rect x="-87" y="-229.4" width="174" height="244" style="stroke:none"/></clipPath></defs><text   transform="translate(87,229.4)"     style="fill:#c0c0c0">Endothelial cell</text></g></g><g id="db46a" class=" PhysicalEntity CellularComponent Cell" transform="translate(364.5 320.5)"  name="Platelet" ><g class=" PhysicalEntity CellularComponent Cell" filter="url(#doublefalse3filter)"><g class=" PhysicalEntity CellularComponent Cell"><use class=" PhysicalEntity CellularComponent Cell Node Icon" transform="matrix(0.96 0 0 0.92 5.74 5.54)" width="267.56" height="145.70" fill="transparent" stroke="#25b0f6" stroke-width="3" href="#Ellipse"/></g></g><g ><defs><clipPath ><rect x="-133.78" y="-131.1" width="267.56" height="145.7" style="stroke:none"/></clipPath></defs><text   transform="translate(133.78 131.1)"     style="fill:#25b0f6">Platelet</text></g></g><g id="dbf9b" class="GroupGroup" transform="translate(20.5 93.5)"  ><g class="GroupGroup"><g id="ce4bc" class=" PhysicalEntity CellularComponent Cell" transform="translate(77 81)"  name="Monocyte" ><g class=" PhysicalEntity CellularComponent Cell" filter="url(#doubletrue3filter)"><g class=" PhysicalEntity CellularComponent Cell"><use class=" PhysicalEntity CellularComponent Cell Node Icon" transform="matrix(0.88 0 0 0.81 5.30 4.88)" width="91" height="52" fill="#fff" stroke="#cc0" stroke-width="3" href="#Ellipse"/></g></g><g ><defs><clipPath ><rect x="-8" y="-26" width="91" height="52" style="stroke:none"/></clipPath></defs><text   transform="translate(8,26)"     style="fill:#cc0;text-anchor:start">Monocyte</text></g></g><g id="c775f" class=" PhysicalEntity CellularComponent Cell" transform="translate(32 140)"  name="Dendritic cell" ><g class=" PhysicalEntity CellularComponent Cell" filter="url(#doublefalse3filter)"><g class=" PhysicalEntity CellularComponent Cell"><use class=" PhysicalEntity CellularComponent Cell Node Icon" transform="matrix(0.88 0 0 0.85 5.28 5.1)" width="88.50" height="68" fill="transparent" stroke="#9933ff" stroke-width="3" href="#Ellipse"/></g></g><g ><defs><clipPath ><rect x="-44.25" y="-34" width="88.5" height="68" style="stroke:none"/></clipPath></defs><text   transform="translate(44.25 34)"     style="fill:#9933ff">Dendritic cell</text></g></g><g id="d1775" class=" PhysicalEntity CellularComponent Cell" transform="translate(8 29)"  name="Eosinophil" ><g class=" PhysicalEntity CellularComponent Cell" filter="url(#doublefalse3filter)"><g class=" PhysicalEntity CellularComponent Cell"><use class=" PhysicalEntity CellularComponent Cell Node Icon" transform="matrix(0.86 0 0 0.83 5.18 4.97)" width="76.00" height="58" fill="transparent" stroke="#f1bd8a" stroke-width="3" href="#Ellipse"/></g></g><g ><defs><clipPath ><rect x="-38" y="-29" width="76" height="58" style="stroke:none"/></clipPath></defs><text   transform="translate(38 29)"     style="fill:#f1bd8a">Eosinophil</text></g></g><g id="d96f8" class="GeneProduct " transform="translate(82.5 180)"  name="CD40LG" ><rect   width="50" height="25"/><text   transform="translate(25,12.5)"    >CD40LG</text></g><g id="aa483" class=" PhysicalEntity CellularComponent Cell" transform="translate(104 8)"  name="Neutrophil" ><g class=" PhysicalEntity CellularComponent Cell" filter="url(#doublefalse3filter)"><g class=" PhysicalEntity CellularComponent Cell"><use class=" PhysicalEntity CellularComponent Cell Node Icon" transform="matrix(0.88 0 0 0.82 5.31 4.94)" width="92" height="56.00" fill="transparent" stroke="#76cc8c" stroke-width="3" href="#Ellipse"/></g></g><g ><defs><clipPath ><rect x="-8" y="-28" width="92" height="56" style="stroke:none"/></clipPath></defs><text   transform="translate(8 28)"     style="fill:#76cc8c;text-anchor:start">Neutrophil</text></g></g><g id="a8f68" class="Protein" transform="translate(168.5 27)"  name="PSGL1" ><rect   width="53" height="25"/><text   transform="translate(26.5,12.5)"    >PSGL1</text></g><g id="e9ecb" class="Protein" transform="translate(139.5 104)"  name="PSGL1" ><rect   width="52" height="25"/><text   transform="translate(26,12.5)"    >PSGL1</text></g></g></g><g id="aae03" class="Label" transform="translate(779.3 513.5)"  name="Increased  endothelial permeability" ><g class="Label"/><text   transform="translate(50.82 22.75)"    font-weight="bold" ><tspan   x="0" y="-13.20">Increased </tspan><tspan   x="0" y="0">endothelial</tspan><tspan   x="0" y="13.20">permeability</tspan></text></g><g id="abbe3" class="Label" transform="translate(27,701.5)"  name="Activation, differentiation IgG production" ><g class="Label"/><text   transform="translate(87.5,19.25)"    font-weight="bold" ><tspan   x="0" y="-6.60">Activation, differentiation</tspan><tspan   x="0" y="6.60">IgG production</tspan></text></g><g id="b7fa1" class="Label" transform="translate(426,43.5)"  name="Inflammatory Signals Infection" ><g class="Label"/><text   transform="translate(69.5,12.5)"    font-weight="bold" ><tspan   x="0" y="-6.60">Inflammatory Signals</tspan><tspan   x="0" y="6.60">Infection</tspan></text></g><g id="bb3d7" class="Label" transform="translate(377,563.5)"  name="Granule content release" ><g class="Label"/><text   transform="translate(45,16.25)"    font-weight="bold" ><tspan   x="0" y="-6.60">Granule content</tspan><tspan   x="0" y="6.60">release</tspan></text></g><g id="cea54" class="Label" transform="translate(608,482.5)"  name="Dengue, flu, CMV" ><g class="Label"/><text   transform="translate(57.5,12.5)"    font-weight="bold" >Dengue, flu, CMV</text></g><g id="e3cf4" class="Label" transform="translate(565,155.5)"  name="Recruitment of  leukocytes" ><g class="Label"/><text   transform="translate(49,12.5)"    font-weight="bold" ><tspan   x="0" y="-6.60">Recruitment of </tspan><tspan   x="0" y="6.60">leukocytes</tspan></text></g><g id="e4f88" class="Label" transform="translate(20,349.5)"  name="DCs become  antigen presenting cells" ><g class="Label"/><text   transform="translate(76,12.5)"    font-weight="bold" ><tspan   x="0" y="-6.60">DCs become </tspan><tspan   x="0" y="6.60">antigen presenting cells</tspan></text></g><g id="f1528" class="Label" transform="translate(256,92.5)"  name="Formation of  Heterotypic Aggregates (HAGs)" ><g class="Label"/><text   transform="translate(101,16.75)"    font-weight="bold" ><tspan   x="0" y="-6.60">Formation of </tspan><tspan   x="0" y="6.60">Heterotypic Aggregates (HAGs)</tspan></text></g><g id="ba960" class="Protein" transform="translate(403,320.5)"  name="P-selectin" ><rect   width="54" height="25"/><text   transform="translate(27,12.5)"    >P-selectin</text></g><g id="fb596" class="GeneProduct " transform="translate(638,523.5)"  name="IL1B" ><rect   width="58" height="25"/><text   transform="translate(29,12.5)"    >IL1B</text></g><g id="d5f05" class="GroupGroup" transform="translate(699,122.5)"  ><g class="GroupGroup"><g id="b3aac" class="GeneProduct " transform="translate(8,8)"  name="SELE" ><rect   width="50" height="25"/><text   transform="translate(25,12.5)"    >SELE</text></g><g id="bc301" class="GeneProduct " transform="translate(8,33)"  name="VCAM1" ><rect   width="50" height="25"/><text   transform="translate(25,12.5)"    >VCAM1</text></g><g id="b1d0f" class="GeneProduct " transform="translate(8,58)"  name="ICAM1" ><rect   width="50" height="25"/><text   transform="translate(25,12.5)"    >ICAM1</text></g></g></g><g id="d6337" class="GroupGroup" transform="translate(463.5,275.5)"  ><g class="GroupGroup"><g id="cdc58" class="Protein" transform="translate(8,8)"  name="TLR2" ><rect   width="48" height="25"/><text   transform="translate(24,12.5)"    >TLR2</text></g><g id="b145d" class="Protein" transform="translate(8,33)"  name="TLR4" ><rect   width="48" height="25"/><text   transform="translate(24,12.5)"    >TLR4</text></g></g></g><g id="b6449" class="Protein" transform="translate(348,360.5)"  name="CD40" ><rect   width="57" height="25"/><text   transform="translate(28.5,12.5)"    >CD40</text></g><g id="fad18" class="Protein" transform="translate(471.5,359.5)"  name="TLR7" ><rect   width="48" height="25"/><text   transform="translate(24,12.5)"    >TLR7</text></g><g id="f4649" class="GeneProduct " transform="translate(703,317.5)"  name="CD40" ><rect   width="57" height="25"/><text   transform="translate(28.5,12.5)"    >CD40</text></g><g id="d037e" class="GroupGroup" transform="translate(262,468.5)"  ><g class="GroupGroup"><g id="eb84a" class="GeneProduct " transform="translate(8,8)"  name="PF4" ><rect   width="58" height="25"/><text   transform="translate(29,12.5)"    >PF4</text></g><g id="c3a75" class="Metabolite " transform="translate(8,37)"  name="Serotonin" ><rect   width="58" height="25"/><text   transform="translate(29,12.5)"    >Serotonin</text></g><g id="a7ea3" class="GeneProduct " transform="translate(8,66)"  name="CCL5" ><rect   width="58" height="25"/><text   transform="translate(29,12.5)"    >CCL5</text></g><g id="d9587" class="GeneProduct " transform="translate(8,95)"  name="TGFB1" ><rect   width="58" height="25"/><text   transform="translate(29,12.5)"    >TGFB1</text></g><g id="a0454" class="GeneProduct " transform="translate(8,123)"  name="TGFB2" ><rect   width="58" height="25"/><text   transform="translate(29,12.5)"    >TGFB2</text></g><g id="de71a" class="GeneProduct " transform="translate(8,148)"  name="TGFB3" ><rect   width="58" height="25"/><text   transform="translate(29,12.5)"    >TGFB3</text></g></g></g><g id="f0546" class="Edge"  ><path    d="m153 286 195 80.75" marker-start="url(#markerstartarrow000)"/></g><g id="d3594" class="GroupGroup" transform="translate(41.5 461)"  ><g class="GroupGroup"><g id="f4dc3" class=" PhysicalEntity CellularComponent Cell" transform="translate(75,128)"  name="B cell" ><g class=" PhysicalEntity CellularComponent Cell" filter="url(#doublefalse3filter)"><g class=" PhysicalEntity CellularComponent Cell"><use class=" PhysicalEntity CellularComponent Cell Node Icon" transform="matrix(0.84 0 0 0.84 5.03 5.03)" width="62.25" height="62.25" fill="transparent" stroke="#f4793b" stroke-width="3" href="#Ellipse"/></g></g><g ><defs><clipPath ><rect x="-31.12" y="-31.12" width="62.25" height="62.25" style="stroke:none"/></clipPath></defs><text   transform="translate(31.12 31.12)"     style="fill:#f4793b">B cell</text></g></g><g id="f503d" class=" PhysicalEntity CellularComponent Cell" transform="translate(8,79)"  name="T cell" ><g class=" PhysicalEntity CellularComponent Cell" filter="url(#doublefalse3filter)"><g class=" PhysicalEntity CellularComponent Cell"><use class=" PhysicalEntity CellularComponent Cell Node Icon" transform="matrix(0.84 0 0 0.84 5.03 5.03)" width="62.25" height="62.25" fill="transparent" stroke="#999900" stroke-width="3" href="#Ellipse"/></g></g><g ><defs><clipPath ><rect x="-31.12" y="-31.12" width="62.25" height="62.25" style="stroke:none"/></clipPath></defs><text   transform="translate(31.12 31.12)"     style="fill:#999900">T cell</text></g></g><g id="a9101" class=" PhysicalEntity CellularComponent Cell" transform="translate(32,8)"  name="NK cell" ><g class=" PhysicalEntity CellularComponent Cell" filter="url(#doublefalse3filter)"><g class=" PhysicalEntity CellularComponent Cell"><use class=" PhysicalEntity CellularComponent Cell Node Icon" transform="matrix(0.84 0 0 0.84 5.03 5.03)" width="62.25" height="62.25" fill="transparent" stroke="#ff6666" stroke-width="3" href="#Ellipse"/></g></g><g ><defs><clipPath ><rect x="-31.12" y="-31.12" width="62.25" height="62.25" style="stroke:none"/></clipPath></defs><text   transform="translate(31.12 31.12)"     style="fill:#ff6666">NK cell</text></g></g></g></g><g id="da1ab" class="Edge"  ><path    d="m706 301.4-138 18.1" marker-start="url(#markerstartarrow000)"/></g><g id="b67b3" class=" PhysicalEntity CellularComponent Cell" transform="translate(733.5,371.5)"  name="Endothelial cell" ><g class=" PhysicalEntity CellularComponent Cell" filter="url(#doublefalse3filter)"><g class=" PhysicalEntity CellularComponent Cell"><rect   transform="matrix(0.93 0 0 0.95 5.61 5.70)" width="172" height="232" rx="15" ry="15" stroke-width="3" style="fill:transparent;stroke:#c0c0c0"/></g></g><g ><defs><clipPath ><rect x="-86" y="-217.4" width="172" height="232" style="stroke:none"/></clipPath></defs><text   transform="translate(86,217.4)"     style="fill:#c0c0c0">Endothelial cell</text></g></g><g id="ca461" class="Edge"  ><path    d="m564.42 464.7v71.3h73.58"/><g id="a389e" class="AB" transform="translate(564.42 495.94)"  ><g class="AB"/></g></g><g id="e3f6a" class="Edge"  ><path    d="m696 536 83.30 0.25"/></g><g id="a92b1" class="Protein" transform="translate(706 288.9)"  name="PSGL1" ><rect   width="53.2" height="25"/><text   transform="translate(26.6 12.5)"    >PSGL1</text></g><g id="b44f5" class="Protein" transform="translate(541,319.5)"  name="P-selectin" ><rect   width="54" height="25"/><text   transform="translate(27,12.5)"    >P-selectin</text></g><g id="af821" class="Edge"  ><path    d="m212 210 204.5 110.5" marker-start="url(#markerstartarrow000)"/><g id="f6afe" class="AB" transform="translate(300.54 257.84)"  ><g class="AB"/></g></g><g id="e3b9d" class="Protein" transform="translate(584,355.5)"  name="CD40-L" ><rect   width="57" height="25"/><text   transform="translate(28.5,12.5)"    >CD40-L</text></g><g id="ac6ef" class="Edge"  ><path    d="m300.54 257.84 56.46-131.84" stroke-dasharray="5,3" style="marker-end:url(#memconversion000)"/></g><g id="d4953" class="Edge"  ><path    d="m304.69 195.31 52.31-69.31" stroke-dasharray="5,3" style="marker-end:url(#memconversion000)"/></g><g id="e088a" class="Protein" transform="translate(560.5,429.5)"  name="TLR4" ><rect   width="48" height="25"/><text   transform="translate(24,12.5)"    >TLR4</text></g><g id="ce228" class="GroupGroup" transform="translate(577,207.5)"  ><g class="GroupGroup"><g id="d0c31" class="GeneProduct " transform="translate(8,8)"  name="IL1B" ><rect   width="58" height="25"/><text   transform="translate(29,12.5)"    >IL1B</text></g><g id="aafdd" class="GeneProduct " transform="translate(8,33)"  name="CCL2" ><rect   width="58" height="25"/><text   transform="translate(29,12.5)"    >CCL2</text></g></g></g></g></g></g></svg>