<?xml version="1.0" encoding="UTF-8"?>
<svg xmlns="http://www.w3.org/2000/svg" id="-svg" class="Diagram"  baseProfile="full" prefix="schema:http://schema.org/" preserveAspectRatio="xMidYMid"  version="1.1"><defs><g id="filter-defs"><filter id="doublefalse3filter" x="-50%" y="-50%" width="200%" height="200%"><feComposite in="SourceGraphic" in2="SourceGraphic" result="doubleDark"/><feMorphology in="doubleDark" operator="dilate" radius="0.17" result="in2Double"/><feMorphology in="SourceGraphic" operator="dilate" radius="3" result="inDouble"/><feComposite in="inDouble" in2="in2Double" operator="out" result="doubleResult"/></filter></g><g id="icon-defs"><symbol id="Ellipse" class=" Icon Ellipse" x="0" y="0" overflow="visible" preserveAspectRatio="none" viewBox="0 0 50 50"><desc>Ellipse</desc><ellipse cx="25" cy="25" rx="25" ry="25" vector-effect="non-scaling-stroke"/></symbol></g><g id="marker-defs"><marker id="memcatalysis000" markerHeight="12" markerWidth="12" orient="auto" preserveAspectRatio="none" refX="12" refY="6" viewBox="0 0 12 12"><g id="g-memcatalysis000" transform=""><g transform="rotate(180 6 6)"><circle cx="6" cy="6" r="5.3px" fill="#fff" stroke="#000"/></g></g></marker><marker id="mea" markerHeight="12" markerWidth="12" orient="auto" preserveAspectRatio="none" refX="12" refY="6" viewBox="0 0 12 12"><g id="g-mea" transform=""><g transform="rotate(180 6 6)"><rect y="5.4" width="2" height="1.2" style="stroke:#fff"/><polygon points="12 11 0 6 12 1" stroke-width="0"/></g></g></marker></g></defs><g id="viewport-20220102144027051" class="svg-pan-zoom_viewport" transform="matrix(1.13 0 0 1.13 111.1 0)" style="transform:matrix(1.13, 0, 0, 1.13, 111.10, 0)"><style>svg.Diagram {font-family: 'Liberation Sans', Arial, sans-serif; }.Diagram path {fill: transparent;stroke: #000;marker-end: url(#mea);}.Diagram symbol path {fill: inherit;stroke: inherit;stroke-width: inherit;marker-end: inherit;}.Diagram rect {fill: #fff;stroke: #000;}.Diagram text {dominant-baseline: central;overflow: hidden;text-anchor: middle;fill: #000;font-size: 10px;}</style><style type="text/css">.Viewport .textContent {
  pointer-events: none;
  stroke-width: 0px;
}

					.Viewport.Icon {
  fill: white;
}

/* Hide the InfoBox */
.Viewport.textContent {
  font-size: 0;
}

.textContent {
  stroke: none;
}

.DataNode {
  stroke-miterlimit: 1;
  pointer-events: auto;
}

.DataNode:hover {
  cursor: pointer;
}

/* TODO should this apply to things other than DataNodes? */
.DataNode.textContent {
  pointer-events: none;
}

.DataNode.Highlighted {
  opacity: 0.6;
  stroke-width: 0px;
}

marker {
  /* this is what should work per the spec
  stroke-dasharray: none; */
  /* but I need to add this to make it work in Safari */
  stroke-dasharray: 9999999999999999999999999;
}

.Citation.Icon {
  fill: none;
  stroke-width: 0px;
}

.Citation.textContent {
  text-align: center;
  vertical-align: top;
  font-size: 7px;
  fill: #999;
  fill-opacity: 1;
  stroke: none;
}</style><g id="WP453" class="Pathway Viewport"  name="Name: Inflammatory response pathway Organism: Homo sapiens" ><g class="Pathway Viewport"><rect   width="862.17" height="629.57" style="stroke:none"/><g id="a6ace" class="Edge"  ><path    d="m736.5 319-11.5-185.67"/></g><g id="b099a" class="Edge"  ><path    d="m163.33 296.67 21.33 45.5" style="marker-end:none"/></g><g id="b3333" class="Edge"  ><path    d="m251 197.5 0.33 112.5" style="marker-end:none"/><g id="c9fd4" class="AB" transform="translate(251.17 254)"  ><g class="AB"/></g></g><g id="d6398" class="Edge"  ><path    d="m163.33 235.33v41.33" style="marker-end:none"/></g><g id="e773e" class="Edge"  ><path    d="m238.92 178.5-32.58-46.5" style="marker-end:none"/></g><g id="f0615" class="Edge"  ><path    d="m251.33 330-37.5 21.67" style="marker-end:none"/></g><g id="fc8a2" class="Edge"  ><path    d="m263.08 178.5 39.58-47.5" style="marker-end:none"/></g><g id="ffa39" class="Edge"  ><path    d="m226.83 188h-63.5v27.33" style="marker-end:none"/></g><g id="d7ff1" class="Edge"  ><path    d="m684 336.5-114.33-48.83"/></g><g id="d40e1" class="Edge"  ><path    d="m155.5 351.67-69.17-5" style="marker-end:none"/></g><g id="c6ea5" class="Edge"  ><path    d="m432 454.5-83.67-56.17" style="marker-end:none"/></g><g id="e00b0" class="Edge"  ><path    d="m226.83 188-92.83-16.67" style="marker-end:none"/></g><g id="a4322" class="Edge"  ><path    d="m281.33 254-30.17 0.00" style="marker-end:url(#memcatalysis000)"/></g><g id="abd84" class="Edge"  ><path    d="m199.25 361.17 71.75 57.5"/></g><g id="c1df7" class="Edge"  ><path    d="m168 375-61 52" style="marker-end:none"/></g><g id="dc78c" class="Edge"  ><path    d="m710.25 389-0.25 53"/></g><g id="c913c" class="" transform="translate(682.5,317.5)"  ><g class="" filter="url(#doublefalse3filter)"><g class=""><use class=" Node Icon" transform="matrix(.9 0 0 0.86 5.4 5.15)" width="108" height="73" fill="transparent" stroke="#c0c0c0" stroke-width="3" href="#Ellipse"/></g></g></g><g id="df965" class="GroupGroup" transform="translate(430.5,70.5)"  ><g class="GroupGroup"><g id="a04d5" class="" transform="translate(8,84)"  ><g class="" filter="url(#doublefalse3filter)"><g class=""><rect   transform="matrix(0.78 0 0 0.77 4.67 4.64)" width="42" height="41" rx="15" ry="15" stroke-width="3" style="fill:transparent;stroke:#c0c0c0"/></g></g></g><g id="af6e0" class="" transform="translate(8,426)"  ><g class="" filter="url(#doublefalse3filter)"><g class=""><rect   transform="matrix(0.78 0 0 0.77 4.67 4.64)" width="42" height="41" rx="15" ry="15" stroke-width="3" style="fill:transparent;stroke:#c0c0c0"/></g></g></g><g id="b11a2" class="" transform="translate(8,236)"  ><g class="" filter="url(#doublefalse3filter)"><g class=""><rect   transform="matrix(0.78 0 0 0.77 4.67 4.64)" width="42" height="41" rx="15" ry="15" stroke-width="3" style="fill:transparent;stroke:#c0c0c0"/></g></g></g><g id="b396b" class="" transform="translate(8,274)"  ><g class="" filter="url(#doublefalse3filter)"><g class=""><rect   transform="matrix(0.78 0 0 0.77 4.67 4.64)" width="42" height="41" rx="15" ry="15" stroke-width="3" style="fill:transparent;stroke:#c0c0c0"/></g></g></g><g id="ca39e" class="" transform="translate(8,122)"  ><g class="" filter="url(#doublefalse3filter)"><g class=""><rect   transform="matrix(0.78 0 0 0.77 4.67 4.64)" width="42" height="41" rx="15" ry="15" stroke-width="3" style="fill:transparent;stroke:#c0c0c0"/></g></g></g><g id="cdf1c" class="" transform="translate(8,312)"  ><g class="" filter="url(#doublefalse3filter)"><g class=""><rect   transform="matrix(0.78 0 0 0.77 4.67 4.64)" width="42" height="41" rx="15" ry="15" stroke-width="3" style="fill:transparent;stroke:#c0c0c0"/></g></g></g><g id="d2133" class="" transform="translate(8,388)"  ><g class="" filter="url(#doublefalse3filter)"><g class=""><rect   transform="matrix(0.78 0 0 0.77 4.67 4.64)" width="42" height="41" rx="15" ry="15" stroke-width="3" style="fill:transparent;stroke:#c0c0c0"/></g></g></g><g id="d91af" class="" transform="translate(8,464)"  ><g class="" filter="url(#doublefalse3filter)"><g class=""><rect   transform="matrix(0.78 0 0 0.77 4.67 4.64)" width="42" height="41" rx="15" ry="15" stroke-width="3" style="fill:transparent;stroke:#c0c0c0"/></g></g></g><g id="dbc5b" class="" transform="translate(8,8)"  ><g class="" filter="url(#doublefalse3filter)"><g class=""><rect   transform="matrix(0.78 0 0 0.77 4.67 4.64)" width="42" height="41" rx="15" ry="15" stroke-width="3" style="fill:transparent;stroke:#c0c0c0"/></g></g></g><g id="f4c88" class="" transform="translate(8,46)"  ><g class="" filter="url(#doublefalse3filter)"><g class=""><rect   transform="matrix(0.78 0 0 0.77 4.67 4.64)" width="42" height="41" rx="15" ry="15" stroke-width="3" style="fill:transparent;stroke:#c0c0c0"/></g></g></g><g id="fcb3c" class="" transform="translate(8,350)"  ><g class="" filter="url(#doublefalse3filter)"><g class=""><rect   transform="matrix(0.78 0 0 0.77 4.67 4.64)" width="42" height="41" rx="15" ry="15" stroke-width="3" style="fill:transparent;stroke:#c0c0c0"/></g></g></g><g id="ff4c3" class="" transform="translate(8,198)"  ><g class="" filter="url(#doublefalse3filter)"><g class=""><rect   transform="matrix(0.78 0 0 0.77 4.67 4.64)" width="42" height="41" rx="15" ry="15" stroke-width="3" style="fill:transparent;stroke:#c0c0c0"/></g></g></g><g id="ff7f9" class="" transform="translate(8,160)"  ><g class="" filter="url(#doublefalse3filter)"><g class=""><rect   transform="matrix(0.78 0 0 0.77 4.67 4.64)" width="42" height="41" rx="15" ry="15" stroke-width="3" style="fill:transparent;stroke:#c0c0c0"/></g></g></g></g></g><g id="af7" class="Label" transform="translate(226.83 178.5)"  name="B-cell" ><g class="Label"/><text   transform="translate(24.17 9.5)"    font-weight="bold"  style="font-size:12px">B-cell</text></g><g id="b92" class="Label" transform="translate(155.5 342.17)"  name="TH-cell" ><g class="Label"/><text   transform="translate(29.17 9.5)"    font-weight="bold"  style="font-size:12px">TH-cell</text></g><g id="c46" class="Label" transform="translate(215.83 557.17)"  name="Blood or Lymph" ><g class="Label"/><text   transform="translate(64.17 9.5)"    font-weight="bold"  style="fill:#999;font-size:12px">Blood or Lymph</text></g><g id="c64" class="Label" transform="translate(510.67 367.17)"  name="Fibrotic Response" ><g class="Label"/><text   transform="translate(72.67 9.5)"    font-weight="bold"  style="font-size:12px">Fibrotic Response</text></g><g id="e4f" class="Label" transform="translate(15 243.83)"  name="Inflammation" ><g class="Label"/><text   transform="translate(51.67 9.5)"    font-weight="bold"  style="font-size:12px">Inflammation</text></g><g id="f86" class="Label" transform="translate(420.83 580.5)"  name="Epithelium" ><g class="Label"/><text   transform="translate(43.17 9.5)"    font-weight="bold"  style="fill:#999;font-size:12px">Epithelium</text></g><g id="fd7" class="Label" transform="translate(186.83 60.5)"  name="Early Response" ><g class="Label"/><text   transform="translate(63.17 9.5)"    font-weight="bold"  style="font-size:12px">Early Response</text></g><g id="a1a66" class="GroupGroup" transform="translate(741.83 296.5)"  name="Group object" ><g class="GroupGroup"><g id="ba1" class="Label" transform="translate(8,8)"  name="Fibroblast" ><g class="Label"/><text   transform="translate(41.17 9.5)"    font-weight="bold"  style="fill:#999;font-size:12px">Fibroblast</text></g></g><g ><defs><clipPath ><rect x="-49.17" y="-17.5" width="98.33" height="35" style="stroke:none"/></clipPath></defs><text   transform="translate(49.17 17.5)"  font-family="arial" font-weight="bold" overflow="visible" style="fill:grey;font-size:1px">Group object</text></g></g><g id="b5f" class="GeneProduct " transform="translate(272.67 111)"  name="IL4R" ><rect   width="60" height="20"/><text   transform="translate(30,10)"    >IL4R</text></g><g id="c3a" class="GeneProduct " transform="translate(695 113.33)"  name="COL3A1" ><rect   width="60" height="20"/><text   transform="translate(30,10)"    >COL3A1</text></g><g id="c4c" class="GeneProduct " transform="translate(130 276.67)"  name="CD40" ><rect   width="66.67" height="20"/><text   transform="translate(33.33 10)"    >CD40</text></g><g id="d21" class="GeneProduct " transform="translate(221.33 310)"  name="CD28" ><rect   width="60" height="20"/><text   transform="translate(30,10)"    >CD28</text></g><g id="d35" class="GeneProduct " transform="translate(133.33 215.33)"  name="CD40LG" ><rect   width="60" height="20"/><text   transform="translate(30,10)"    >CD40LG</text></g><g id="fe4" class="GeneProduct " transform="translate(176.33 112)"  name="IL5RA" ><rect   width="60" height="20"/><text   transform="translate(30,10)"    >IL5RA</text></g><g id="a4c8d" class="GroupNone" transform="translate(511.67 90.67)"  ><g class="GroupNone"><rect   width="78" height="198" fill-opacity=".1" stroke-dasharray="5,3" style="fill:#b4b464;stroke:grey"/><g id="a98" class="GeneProduct " transform="translate(9 69)"  name="LAMB2" ><rect   width="60" height="20"/><text   transform="translate(30,10)"    >LAMB2</text></g><g id="af8" class="GeneProduct " transform="translate(9,169)"  name="THBS3" ><rect   width="60" height="20"/><text   transform="translate(30,10)"    >THBS3</text></g><g id="b06" class="GeneProduct " transform="translate(9,129)"  name="VTN" ><rect   width="60" height="20"/><text   transform="translate(30,10)"    >VTN</text></g><g id="bdd" class="GeneProduct " transform="translate(9 49)"  name="LAMB1" ><rect   width="60" height="20"/><text   transform="translate(30,10)"    >LAMB1</text></g><g id="cfd" class="GeneProduct " transform="translate(9 109)"  name="LAMC2" ><rect   width="60" height="20"/><text   transform="translate(30,10)"    >LAMC2</text></g><g id="dbd" class="GeneProduct " transform="translate(9,9)"  name="FN1" ><rect   width="60" height="20"/><text   transform="translate(30,10)"    >FN1</text></g><g id="eb1" class="GeneProduct " transform="translate(9 89)"  name="LAMC1" ><rect   width="60" height="20"/><text   transform="translate(30,10)"    >LAMC1</text></g><g id="f37" class="GeneProduct " transform="translate(9 29)"  name="LAMA5" ><rect   width="60" height="20"/><text   transform="translate(30,10)"    >LAMA5</text></g><g id="f76" class="GeneProduct " transform="translate(9,149)"  name="THBS1" ><rect   width="60" height="20"/><text   transform="translate(30,10)"    >THBS1</text></g></g></g><g id="ac152" class="GroupNone" transform="translate(302.67 341.33)"  ><g class="GroupNone"><rect   width="91.33" height="58" fill-opacity=".1" stroke-dasharray="5,3" style="fill:#b4b464;stroke:grey"/><g id="a62" class="GeneProduct " transform="translate(9,29)"  name="TNFRSF1B" ><rect   width="73.33" height="20"/><text   transform="translate(36.67 10)"    >TNFRSF1B</text></g><g id="d42" class="GeneProduct " transform="translate(9,9)"  name="TNFRSF1A" ><rect   width="73.33" height="20"/><text   transform="translate(36.67 10)"    >TNFRSF1A</text></g></g></g><g id="d92fd" class="GroupNone" transform="translate(28.33 291.67)"  ><g class="GroupNone"><rect   width="78" height="56" fill-opacity=".1" stroke-dasharray="5,3" style="fill:#b4b464;stroke:grey"/><g id="bb5" class="GeneProduct " transform="translate(9,9)"  name="LCK" ><rect   width="60" height="20"/><text   transform="translate(30,10)"    >LCK</text></g><g id="f05" class="GeneProduct " transform="translate(9,29)"  name="ZAP70" ><rect   width="60" height="18"/><text   transform="translate(30,9)"    >ZAP70</text></g></g></g><g id="e553c" class="GroupNone" transform="translate(81 94.33)"  ><g class="GroupNone"><rect   width="71.33" height="78" fill-opacity=".1" stroke-dasharray="5,3" style="fill:#b4b464;stroke:grey"/><g id="a11" class="GeneProduct " transform="translate(9 29)"  name="IGHA2" ><rect   width="53.33" height="20"/><text   transform="translate(26.67 10)"    >IGHA2</text></g><g id="a20" class="GeneProduct " transform="translate(9,9)"  name="IGHA1" ><rect   width="53.33" height="20"/><text   transform="translate(26.67 10)"    >IGHA1</text></g><g id="aca" class="GeneProduct " transform="translate(9 49)"  name="IGHM" ><rect   width="53.33" height="20"/><text   transform="translate(26.67 10)"    >IGHM</text></g></g></g><g id="e9c0d" class="GroupNone" transform="translate(280.33 225)"  ><g class="GroupNone"><rect   width="78" height="58" fill-opacity=".1" stroke-dasharray="5,3" style="fill:#b4b464;stroke:grey"/><g id="a4f" class="GeneProduct " transform="translate(9,29)"  name="CD86" ><rect   width="60" height="20"/><text   transform="translate(30,10)"    >CD86</text></g><g id="e0a" class="GeneProduct " transform="translate(9,9)"  name="CD80" ><rect   width="60" height="20"/><text   transform="translate(30,10)"    >CD80</text></g></g></g><g id="f7c11" class="GroupNone" transform="translate(251 417.67)"  ><g class="GroupNone"><rect   width="78" height="98" fill-opacity=".1" stroke-dasharray="5,3" style="fill:#b4b464;stroke:grey"/><g id="a9b" class="GeneProduct " transform="translate(9,69)"  name="IFNG" ><rect   width="60" height="20"/><text   transform="translate(30,10)"    >IFNG</text></g><g id="b39" class="GeneProduct " transform="translate(9,9)"  name="IL2" ><rect   width="60" height="20"/><text   transform="translate(30,10)"    >IL2</text></g><g id="bfd" class="GeneProduct " transform="translate(9,29)"  name="IL4" ><rect   width="60" height="20"/><text   transform="translate(30,10)"    >IL4</text></g><g id="fa1" class="GeneProduct " transform="translate(9,49)"  name="IL5" ><rect   width="60" height="20"/><text   transform="translate(30,10)"    >IL5</text></g></g></g><g id="f7f3b" class="GroupNone" transform="translate(68,426)"  ><g class="GroupNone"><rect   width="78" height="78" fill-opacity=".1" stroke-dasharray="5,3" style="fill:#b4b464;stroke:grey"/><g id="b68" class="GeneProduct " transform="translate(9,29)"  name="IL2RB" ><rect   width="60" height="20"/><text   transform="translate(30,10)"    >IL2RB</text></g><g id="bea" class="GeneProduct " transform="translate(9,49)"  name="IL2RG" ><rect   width="60" height="20"/><text   transform="translate(30,10)"    >IL2RG</text></g><g id="e9e" class="GeneProduct " transform="translate(9,9)"  name="IL2RA" ><rect   width="60" height="20"/><text   transform="translate(30,10)"    >IL2RA</text></g></g></g><g id="fc69e" class="GroupNone" transform="translate(671,441)"  ><g class="GroupNone"><rect   width="78" height="58" fill-opacity=".1" stroke-dasharray="5,3" style="fill:#b4b464;stroke:grey"/><g id="ccd" class="GeneProduct " transform="translate(9,9)"  name="COL1A1" ><rect   width="60" height="20"/><text   transform="translate(30,10)"    >COL1A1</text></g><g id="d0c" class="GeneProduct " transform="translate(9,29)"  name="COL1A2" ><rect   width="60" height="20"/><text   transform="translate(30,10)"    >COL1A2</text></g></g></g></g></g></g></svg>