<?xml version="1.0" encoding="UTF-8"?>
<!--
  WikiPathways page: https://www.wikipathways.org/index.php/Pathway:WP458
  URL for this compressed file: https://github.com/eweitz/cachome/tree/main/data/WP458.svg
  Source code for compression: https://github.com/eweitz/cachome/tree/main/src/wikipathways.py
-->
<svg id="wp458-svg" class="Diagram" width="800" height="600" color="black" baseProfile="full" prefix="schema:http://schema.org/" preserveAspectRatio="xMidYMid" version="1.1" viewBox="0 0 818.17 629.57" vocab="http://vocabularies.wikipathways.org/wp#" xmlns="http://www.w3.org/2000/svg" xmlns:xlink="http://www.w3.org/1999/xlink"><style>svg {font-family: 'Liberation Sans', Arial, sans-serif; }</style><defs><g id="jit-defs"><filter id="kaavioblackto000000filter" x="0" y="0" width="818.17" height="629.57" filterUnits="userSpaceOnUse"><feColorMatrix in="SourceGraphic" values="-1   0   0 0 0                   0  -1   0 0 0                   0   0  -1 0 0                   0   0   0 1 0"/></filter></g><g id="jic-defs"><marker id="markerEndArrow" stroke-dasharray="99999" markerHeight="12" markerUnits="userSpaceOnUse" markerWidth="12" orient="auto" preserveAspectRatio="none" refX="12" refY="6" viewBox="0 0 12 12"><path transform="rotate(180 6 6)" d="M12 11L0 6l12-5z" fill="currentColor" stroke-width="0"/></marker><symbol id="Ellipse" overflow="visible" preserveAspectRatio="none" viewBox="0 0 50 50"><ellipse cx="25" cy="25" rx="25" ry="25" stroke="currentColor" vector-effect="non-scaling-stroke"/></symbol><symbol id="none" preserveAspectRatio="none" viewBox="0 0 100 100"/></g></defs><g id="WP458" class="Viewport" color="black"  name="Name: Inflammatory response pathway License: CC BY 2.0 Last Modified: 10/17/2013 Organism: Mus musculus"><rect id="WP458-icon" class="Icon" width="818.17" height="629.57" fill="#fff" stroke="#000" stroke-width="0"/><g id="d5bf6" class="Interaction" color="#000" ><g color="#000" fill="transparent"  filter="url(#kaavioblackto000000filter)" stroke="#000" stroke-dasharray="43.309288200620955, 0"><path id="d5bf6" class="EdgeBody" d="m251.33 330-37.5 21.667"   /></g></g><g id="a1913" class="Interaction" color="#000" ><g color="#000" fill="transparent"  filter="url(#kaavioblackto000000filter)" stroke="#000" stroke-dasharray="50.25297116699779, 0"><path id="a1913" class="EdgeBody" d="m163.33 296.67 21.333 45.5"   /></g></g><g id="e5b7f" class="Interaction" color="#000" ><g color="#000" fill="transparent"  filter="url(#kaavioblackto000000filter)" stroke="#000" stroke-dasharray="63.73191464599544, 0"><path id="e5b7f" class="EdgeBody" d="m263.08 178.5 43.583-46.5"   /></g></g><g id="c1076" class="Interaction" color="#000" ><g color="#000" fill="transparent"  filter="url(#kaavioblackto000000filter)" stroke="#000" stroke-dasharray="88.83333333333331, 0"><path id="c1076" class="EdgeBody" d="m226.83 188h-63.5v25.333"   /></g></g><g id="e890c" class="Interaction" color="#000" ><g color="#000" fill="transparent"  filter="url(#kaavioblackto000000filter)" stroke="#000" stroke-dasharray="58.992289985876766, 0"><path id="e890c" class="EdgeBody" d="m238.92 178.5-33.583-48.5"   /></g></g><g id="b2ba4" class="Interaction" color="#000" ><g color="#000" fill="transparent"  filter="url(#kaavioblackto000000filter)" stroke="#000" stroke-dasharray="43.33333333333334, 0"><path id="b2ba4" class="EdgeBody" d="m163.33 233.33v43.333"   /></g></g><g id="ac486" class="Interaction" color="#000" ><g color="#000" fill="transparent"  filter="url(#kaavioblackto000000filter)" stroke="#000" stroke-dasharray="94.31757818962248, 0"><path id="ac486" class="EdgeBody" d="m226.83 188-92.833-16.667"   /></g></g><g id="d34a5" class="Interaction" color="#000" ><g color="#000" fill="transparent"  filter="url(#kaavioblackto000000filter)" stroke="#000" stroke-dasharray="27.502020127821723, 0"><path id="d34a5" class="EdgeBody" d="m251 197.5 0.33333 27.5"   /></g></g><g id="b7269" class="Interaction" color="#000" ><g color="#000" fill="transparent"  filter="url(#kaavioblackto000000filter)" stroke="#000" stroke-dasharray="29, 0"><path id="b7269" class="EdgeBody" d="m251.33 281v29"   /></g></g><g id="c0d4d" class="DirectedInteraction" color="#000" ><g color="#000" fill="transparent"  filter="url(#kaavioblackto000000filter)" stroke="#000" stroke-dasharray="86.14733546982205, 5.8"><path id="c0d4d" class="EdgeBody" d="m199.25 361.17 71.75 57.5"   marker-end="url(#markerEndArrow)" /></g></g><g id="c3e03" class="Interaction" color="#000" ><g color="#000" fill="transparent"  filter="url(#kaavioblackto000000filter)" stroke="#000" stroke-dasharray="80.156097709407, 0"><path id="c3e03" class="EdgeBody" d="m168 375-61 52"   /></g></g><g id="ebc3a" class="Interaction" color="#000" ><g color="#000" fill="transparent"  filter="url(#kaavioblackto000000filter)" stroke="#000" stroke-dasharray="95.36153718320226, 0"><path id="ebc3a" class="EdgeBody" d="m383.28 487.06-34.943-88.729"   /></g></g><g id="bba97" class="Interaction" color="#000" ><g color="#000" fill="transparent"  filter="url(#kaavioblackto000000filter)" stroke="#000" stroke-dasharray="69.34715407122182, 0"><path id="bba97" class="EdgeBody" d="m155.5 351.67-69.167-5"   /></g></g><g id="b537a" class="DirectedInteraction" color="#000" ><g color="#000" fill="transparent"  filter="url(#kaavioblackto000000filter)" stroke="#000" stroke-dasharray="191.12073983655907, 5.8"><path id="b537a" class="EdgeBody" d="m715 330 10-196.67"   marker-end="url(#markerEndArrow)" /></g></g><g id="bf80c" class="DirectedInteraction" color="#000" ><g color="#000" fill="transparent"  filter="url(#kaavioblackto000000filter)" stroke="#000" stroke-dasharray="64.378344238091, 5.8"><path id="bf80c" class="EdgeBody" d="m715 372-5 70"   marker-end="url(#markerEndArrow)" /></g></g><g id="baead" class="DirectedInteraction" color="#000" ><g color="#000" fill="transparent"  filter="url(#kaavioblackto000000filter)" stroke="#000" stroke-dasharray="113.86852366247176, 5.8"><path id="baead" class="EdgeBody" d="m690 330-114.33-35.333"   marker-end="url(#markerEndArrow)" /></g></g><g id="b74dc" class="GroupGroup" transform="translate(665,330)" color="grey" ><use id="b74dc-icon" class="Icon" width="100" height="42" fill="transparent"  stroke="grey" stroke-dasharray="5,3" stroke-width="0" xlink:href="#none"/><g id="dbdb7" class="SingleFreeNode Shape" transform="translate(8,8)" color="#000" ><use id="dbdb7-icon" class="Icon" transform="matrix(.98824 0 0 .96296 .49412 .48148)" width="84" height="26" fill="transparent"  stroke="#000" xlink:href="#Ellipse"/></g><g id="def76" class="SingleFreeNode Shape" transform="translate(29,17)" color="#000" ><use id="def76-icon" class="Icon" transform="matrix(.96552 0 0 .92308 .48276 .46154)" width="28" height="12" fill="transparent"  stroke="#000" xlink:href="#Ellipse"/></g></g><g id="d4dd6" class="GroupGroup" transform="translate(382,193.5)" color="grey" ><use id="d4dd6-icon" class="Icon" width="86.00000000000006" height="396.5" fill="transparent"  stroke="grey" stroke-dasharray="5,3" stroke-width="0" xlink:href="#none"/><g id="aed" class="SingleFreeNode Shape" transform="translate(31.333 183.83) rotate(-75 13.333 6.6667)" color="#000" ><use id="aed-icon" class="Icon" transform="matrix(.96386 0 0 .93023 .48193 .46512)" width="26.666666666666668" height="13.333333333333334" fill="#000" stroke="#000" xlink:href="#Ellipse"/></g><g id="d92" class="SingleFreeNode Shape" transform="translate(38 130.5) rotate(-75 13.333 6.6667)" color="#000" ><use id="d92-icon" class="Icon" transform="matrix(.96386 0 0 .93023 .48193 .46512)" width="26.666666666666668" height="13.333333333333334" fill="#000" stroke="#000" xlink:href="#Ellipse"/></g><g id="be9" class="SingleFreeNode Shape" transform="translate(44.667 80.5) rotate(-75 13.333 6.6667)" color="#000" ><use id="be9-icon" class="Icon" transform="matrix(.96386 0 0 .93023 .48193 .46512)" width="26.666666666666668" height="13.333333333333334" fill="#000" stroke="#000" xlink:href="#Ellipse"/></g><g id="f9e" class="SingleFreeNode Shape" transform="translate(51.333 30.5) rotate(-75 13.333 6.6667)" color="#000" ><use id="f9e-icon" class="Icon" transform="matrix(.96386 0 0 .93023 .48193 .46512)" width="26.666666666666668" height="13.333333333333334" fill="#000" stroke="#000" xlink:href="#Ellipse"/></g><g id="b24" class="SingleFreeNode Shape" transform="translate(21.333 243.83) rotate(-75 13.333 6.6667)" color="#000" ><use id="b24-icon" class="Icon" transform="matrix(.96386 0 0 .93023 .48193 .46512)" width="26.666666666666668" height="13.333333333333334" fill="#000" stroke="#000" xlink:href="#Ellipse"/></g><g id="a46" class="SingleFreeNode Shape" transform="translate(11.333 297.17) rotate(-75 13.333 6.6667)" color="#000" ><use id="a46-icon" class="Icon" transform="matrix(.96386 0 0 .93023 .48193 .46512)" width="26.666666666666668" height="13.333333333333334" fill="#000" stroke="#000" xlink:href="#Ellipse"/></g><g id="de7" class="SingleFreeNode Shape" transform="translate(8 343.83) rotate(-75 13.333 6.6667)" color="#000" ><use id="de7-icon" class="Icon" transform="matrix(.96386 0 0 .93023 .48193 .46512)" width="26.666666666666668" height="13.333333333333334" fill="#000" stroke="#000" xlink:href="#Ellipse"/></g><g id="dbce4" class="SingleFreeNode Shape" transform="translate(27 8) rotate(7.8153 15.75 190.25)" color="#000" ><rect id="dbce4-icon" class="Icon" transform="matrix(.96923 0 0 .99738 .48462 .49869)" width="31.5" height="380.5" fill="transparent"  stroke="#000"/></g></g><g id="ebe7a" class="GroupGroup" transform="translate(428.5,96.5)" color="grey" ><use id="ebe7a-icon" class="Icon" width="49.5" height="96.5" fill="transparent"  stroke="grey" stroke-dasharray="5,3" stroke-width="0" xlink:href="#none"/><g id="a27" class="SingleFreeNode Shape" transform="translate(11.5 43.5) rotate(-75 13.333 6.6667)" color="#000" ><use id="a27-icon" class="Icon" transform="matrix(.96386 0 0 .93023 .48193 .46512)" width="26.666666666666668" height="13.333333333333334" fill="#000" stroke="#000" xlink:href="#Ellipse"/></g><g id="de81a" class="SingleFreeNode Shape" transform="translate(8 8) rotate(6.4235 16.75 40.25)" color="#000" ><rect id="de81a-icon" class="Icon" transform="matrix(.97101 0 0 .98773 .48551 .49387)" width="33.5" height="80.5" fill="transparent"  stroke="#000"/></g></g><g id="fd7" class="Label" transform="translate(186.83 60.5)" color="#000"  name="Early Response"><use id="fd7-icon" class="Icon" width="126.33333333333333" height="19" fill="transparent"  stroke="#000" stroke-width="0" xlink:href="#none"/><text id="fd7-text" class="Text" transform="translate(63.167 13.5)" fill="#000"  font-size="12px" font-weight="bold" stroke="white" stroke-width="0" text-anchor="middle"><tspan x="0" y="0">Early Response</tspan></text></g><g id="c46" class="Label" transform="translate(215.83 557.17)" color="#000"  name="Blood or Lymph"><use id="c46-icon" class="Icon" width="128.33333333333334" height="19" fill="transparent"  stroke="#000" stroke-width="0" xlink:href="#none"/><text id="c46-text" class="Text" transform="translate(64.167 13.5)" fill="#000"  font-size="12px" font-weight="bold" stroke="white" stroke-width="0" text-anchor="middle"><tspan x="0" y="0">Blood or Lymph</tspan></text></g><g id="e4f" class="Label" transform="translate(15 243.83)" color="#000"  name="Inflammation"><use id="e4f-icon" class="Icon" width="103.33333333333333" height="19" fill="transparent"  stroke="#000" stroke-width="0" xlink:href="#none"/><text id="e4f-text" class="Text" transform="translate(51.667 13.5)" fill="#000"  font-size="12px" font-weight="bold" stroke="white" stroke-width="0" text-anchor="middle"><tspan x="0" y="0">Inflammation</tspan></text></g><g id="f86" class="Label" transform="translate(440.83 558.5)" color="#000"  name="Epithelium"><use id="f86-icon" class="Icon" width="86.33333333333333" height="19" fill="transparent"  stroke="#000" stroke-width="0" xlink:href="#none"/><text id="f86-text" class="Text" transform="translate(43.167 13.5)" fill="#000"  font-size="12px" font-weight="bold" stroke="white" stroke-width="0" text-anchor="middle"><tspan x="0" y="0">Epithelium</tspan></text></g><g id="ba1" class="Label" transform="translate(705.83 319.5)" color="#000"  name="Fibroblast"><use id="ba1-icon" class="Icon" width="82.33333333333333" height="19" fill="transparent"  stroke="#000" stroke-width="0" xlink:href="#none"/><text id="ba1-text" class="Text" transform="translate(41.167 13.5)" fill="#000"  font-size="12px" font-weight="bold" stroke="white" stroke-width="0" text-anchor="middle"><tspan x="0" y="0">Fibroblast</tspan></text></g><g id="c64" class="Label" transform="translate(510.67 367.17)" color="#000"  name="Fibrotic Response"><use id="c64-icon" class="Icon" width="145.33333333333334" height="19" fill="transparent"  stroke="#000" stroke-width="0" xlink:href="#none"/><text id="c64-text" class="Text" transform="translate(72.667 13.5)" fill="#000"  font-size="12px" font-weight="bold" stroke="white" stroke-width="0" text-anchor="middle"><tspan x="0" y="0">Fibrotic Response</tspan></text></g><g id="af7" class="Label" transform="translate(226.83 178.5)" color="#000"  name="B-cell"><use id="af7-icon" class="Icon" width="48.333333333333336" height="19" fill="transparent"  stroke="#000" stroke-width="0" xlink:href="#none"/><text id="af7-text" class="Text" transform="translate(24.167 13.5)" fill="#000"  font-size="12px" font-weight="bold" stroke="white" stroke-width="0" text-anchor="middle"><tspan x="0" y="0">B-cell</tspan></text></g><g id="b92" class="Label" transform="translate(155.5 342.17)" color="#000"  name="TH-cell"><use id="b92-icon" class="Icon" width="58.333333333333336" height="19" fill="transparent"  stroke="#000" stroke-width="0" xlink:href="#none"/><text id="b92-text" class="Text" transform="translate(29.167 13.5)" fill="#000"  font-size="12px" font-weight="bold" stroke="white" stroke-width="0" text-anchor="middle"><tspan x="0" y="0">TH-cell</tspan></text></g><a  id="c3a" class="GeneProduct P594_ENSMUSG00000026043 " transform="translate(695 113.33)"   name="Col3a1"  ><rect id="c3a-icon" class="Icon" transform="matrix(.98361 0 0 .95238 .4918 .47619)" width="60" height="20" fill="#fff" stroke="#000"/><text id="c3a-text" class="Text" transform="translate(30,13)" fill="#000"  font-size="10px" stroke="white" stroke-width="0" text-anchor="middle"><tspan x="0" y="0">Col3a1</tspan></text></a><a  id="d21" class="GeneProduct P594_ENSMUSG00000026012 " transform="translate(221.33 310)"   name="Cd28"  ><rect id="d21-icon" class="Icon" transform="matrix(.98361 0 0 .95238 .4918 .47619)" width="60" height="20" fill="#fff" stroke="#000"/><text id="d21-text" class="Text" transform="translate(30,13)" fill="#000"  font-size="10px" stroke="white" stroke-width="0" text-anchor="middle"><tspan x="0" y="0">Cd28</tspan></text></a><a  id="c4c" class="GeneProduct P594_ENSMUSG00000017652 " transform="translate(130 276.67)"   name="Cd40"  ><rect id="c4c-icon" class="Icon" transform="matrix(.98522 0 0 .95238 .49261 .47619)" width="66.667" height="20" fill="#fff" stroke="#000"/><text id="c4c-text" class="Text" transform="translate(33.333 13)" fill="#000"  font-size="10px" stroke="white" stroke-width="0" text-anchor="middle"><tspan x="0" y="0">Cd40</tspan></text></a><a  id="d35" class="GeneProduct P594_ENSMUSG00000031132 " transform="translate(133.33 213.33)"   name="Cd40lg"  ><rect id="d35-icon" class="Icon" transform="matrix(.98361 0 0 .95238 .4918 .47619)" width="60" height="20" fill="#fff" stroke="#000"/><text id="d35-text" class="Text" transform="translate(30,13)" fill="#000"  font-size="10px" stroke="white" stroke-width="0" text-anchor="middle"><tspan x="0" y="0">Cd40lg</tspan></text></a><a  id="b5f" class="GeneProduct P594_ENSMUSG00000030748 " transform="translate(276.67 112)"   name="Il4ra"  ><rect id="b5f-icon" class="Icon" transform="matrix(.98361 0 0 .95238 .4918 .47619)" width="60" height="20" fill="#fff" stroke="#000"/><text id="b5f-text" class="Text" transform="translate(30,13)" fill="#000"  font-size="10px" stroke="white" stroke-width="0" text-anchor="middle"><tspan x="0" y="0">Il4ra</tspan></text></a><a  id="fe4" class="GeneProduct P594_ENSMUSG00000005364 " transform="translate(175.33 110)"   name="Il5ra"  ><rect id="fe4-icon" class="Icon" transform="matrix(.98361 0 0 .95238 .4918 .47619)" width="60" height="20" fill="#fff" stroke="#000"/><text id="fe4-text" class="Text" transform="translate(30,13)" fill="#000"  font-size="10px" stroke="white" stroke-width="0" text-anchor="middle"><tspan x="0" y="0">Il5ra</tspan></text></a><g id="e553c" class="GroupNone" transform="translate(81 94.333)" color="grey" ><rect id="e553c-icon" class="Icon" transform="matrix(.98618 0 0 .98734 .49309 .49367)" width="71.333" height="78" fill="#b4b464" fill-opacity=".1" stroke="grey" stroke-dasharray="5,3"/><g id="a11" class="GeneProduct" transform="translate(9 29)" color="#000"  name="IGHA2"><rect id="a11-icon" class="Icon" transform="matrix(.9816 0 0 .95238 .4908 .47619)" width="53.333" height="20" fill="#fff" stroke="#000"/><text id="a11-text" class="Text" transform="translate(26.667 13)" fill="#000"  font-size="10px" stroke="white" stroke-width="0" text-anchor="middle"><tspan x="0" y="0">IGHA2</tspan></text></g><g id="aca" class="GeneProduct" transform="translate(9 49)" color="#000"  name="IgM"><rect id="aca-icon" class="Icon" transform="matrix(.9816 0 0 .95238 .4908 .47619)" width="53.333" height="20" fill="#fff" stroke="#000"/><text id="aca-text" class="Text" transform="translate(26.667 13)" fill="#000"  font-size="10px" stroke="white" stroke-width="0" text-anchor="middle"><tspan x="0" y="0">IgM</tspan></text></g><g id="a20" class="GeneProduct" transform="translate(9,9)" color="#000"  name="IGHA1"><rect id="a20-icon" class="Icon" transform="matrix(.9816 0 0 .95238 .4908 .47619)" width="53.333" height="20" fill="#fff" stroke="#000"/><text id="a20-text" class="Text" transform="translate(26.667 13)" fill="#000"  font-size="10px" stroke="white" stroke-width="0" text-anchor="middle"><tspan x="0" y="0">IGHA1</tspan></text></g></g><g id="e9c0d" class="GroupNone" transform="translate(212.33 224)" color="grey" ><rect id="e9c0d-icon" class="Icon" transform="matrix(.98734 0 0 .98305 .49367 .49153)" width="78" height="58" fill="#b4b464" fill-opacity=".1" stroke="grey" stroke-dasharray="5,3"/><a  id="a4f" class="GeneProduct P594_ENSMUSG00000022901 " transform="translate(9,29)"   name="Cd86"  ><rect id="a4f-icon" class="Icon" transform="matrix(.98361 0 0 .95238 .4918 .47619)" width="60" height="20" fill="#fff" stroke="#000"/><text id="a4f-text" class="Text" transform="translate(30,13)" fill="#000"  font-size="10px" stroke="white" stroke-width="0" text-anchor="middle"><tspan x="0" y="0">Cd86</tspan></text></a><a  id="e0a" class="GeneProduct P594_ENSMUSG00000075122 " transform="translate(9,9)"   name="Cd80"  ><rect id="e0a-icon" class="Icon" transform="matrix(.98361 0 0 .95238 .4918 .47619)" width="60" height="20" fill="#fff" stroke="#000"/><text id="e0a-text" class="Text" transform="translate(30,13)" fill="#000"  font-size="10px" stroke="white" stroke-width="0" text-anchor="middle"><tspan x="0" y="0">Cd80</tspan></text></a></g><g id="a4c8d" class="GroupNone" transform="translate(517.67 97.667)" color="grey" ><rect id="a4c8d-icon" class="Icon" transform="matrix(.98734 0 0 .99497 .49367 .49749)" width="78" height="198" fill="#b4b464" fill-opacity=".1" stroke="grey" stroke-dasharray="5,3"/><a  id="dbd" class="GeneProduct P594_ENSMUSG00000026193 " transform="translate(9,9)"   name="Fn1"  ><rect id="dbd-icon" class="Icon" transform="matrix(.98361 0 0 .95238 .4918 .47619)" width="60" height="20" fill="#fff" stroke="#000"/><text id="dbd-text" class="Text" transform="translate(30,13)" fill="#000"  font-size="10px" stroke="white" stroke-width="0" text-anchor="middle"><tspan x="0" y="0">Fn1</tspan></text></a><a  id="f37" class="GeneProduct P594_ENSMUSG00000015647 " transform="translate(9 29)"   name="Lama5"  ><rect id="f37-icon" class="Icon" transform="matrix(.98361 0 0 .95238 .4918 .47619)" width="60" height="20" fill="#fff" stroke="#000"/><text id="f37-text" class="Text" transform="translate(30,13)" fill="#000"  font-size="10px" stroke="white" stroke-width="0" text-anchor="middle"><tspan x="0" y="0">Lama5</tspan></text></a><a  id="bdd" class="GeneProduct P594_ENSMUSG00000002900 " transform="translate(9 49)"   name="Lamb1-1"  ><rect id="bdd-icon" class="Icon" transform="matrix(.98361 0 0 .95238 .4918 .47619)" width="60" height="20" fill="#fff" stroke="#000"/><text id="bdd-text" class="Text" transform="translate(30,13)" fill="#000"  font-size="10px" stroke="white" stroke-width="0" text-anchor="middle"><tspan x="0" y="0">Lamb1-1</tspan></text></a><a  id="a98" class="GeneProduct P594_ENSMUSG00000052911 " transform="translate(9 69)"   name="Lamb2"  ><rect id="a98-icon" class="Icon" transform="matrix(.98361 0 0 .95238 .4918 .47619)" width="60" height="20" fill="#fff" stroke="#000"/><text id="a98-text" class="Text" transform="translate(30,13)" fill="#000"  font-size="10px" stroke="white" stroke-width="0" text-anchor="middle"><tspan x="0" y="0">Lamb2</tspan></text></a><a  id="eb1" class="GeneProduct P594_ENSMUSG00000026478 " transform="translate(9 89)"   name="Lamc1"  ><rect id="eb1-icon" class="Icon" transform="matrix(.98361 0 0 .95238 .4918 .47619)" width="60" height="20" fill="#fff" stroke="#000"/><text id="eb1-text" class="Text" transform="translate(30,13)" fill="#000"  font-size="10px" stroke="white" stroke-width="0" text-anchor="middle"><tspan x="0" y="0">Lamc1</tspan></text></a><a  id="cfd" class="GeneProduct P594_ENSMUSG00000026479 " transform="translate(9 109)"   name="Lamc2"  ><rect id="cfd-icon" class="Icon" transform="matrix(.98361 0 0 .95238 .4918 .47619)" width="60" height="20" fill="#fff" stroke="#000"/><text id="cfd-text" class="Text" transform="translate(30,13)" fill="#000"  font-size="10px" stroke="white" stroke-width="0" text-anchor="middle"><tspan x="0" y="0">Lamc2</tspan></text></a><a  id="b06" class="GeneProduct P594_ENSMUSG00000017344 " transform="translate(9,129)"   name="Vtn"  ><rect id="b06-icon" class="Icon" transform="matrix(.98361 0 0 .95238 .4918 .47619)" width="60" height="20" fill="#fff" stroke="#000"/><text id="b06-text" class="Text" transform="translate(30,13)" fill="#000"  font-size="10px" stroke="white" stroke-width="0" text-anchor="middle"><tspan x="0" y="0">Vtn</tspan></text></a><a  id="af8" class="GeneProduct P594_ENSMUSG00000028047 " transform="translate(9,169)"   name="Thbs3"  ><rect id="af8-icon" class="Icon" transform="matrix(.98361 0 0 .95238 .4918 .47619)" width="60" height="20" fill="#fff" stroke="#000"/><text id="af8-text" class="Text" transform="translate(30,13)" fill="#000"  font-size="10px" stroke="white" stroke-width="0" text-anchor="middle"><tspan x="0" y="0">Thbs3</tspan></text></a><a  id="f76" class="GeneProduct P594_ENSMUSG00000040152 " transform="translate(9,149)"   name="Thbs1"  ><rect id="f76-icon" class="Icon" transform="matrix(.98361 0 0 .95238 .4918 .47619)" width="60" height="20" fill="#fff" stroke="#000"/><text id="f76-text" class="Text" transform="translate(30,13)" fill="#000"  font-size="10px" stroke="white" stroke-width="0" text-anchor="middle"><tspan x="0" y="0">Thbs1</tspan></text></a></g><g id="fc69e" class="GroupNone" transform="translate(671,441)" color="grey" ><rect id="fc69e-icon" class="Icon" transform="matrix(.98734 0 0 .98305 .49367 .49153)" width="78" height="58" fill="#b4b464" fill-opacity=".1" stroke="grey" stroke-dasharray="5,3"/><a  id="ccd" class="GeneProduct P594_ENSMUSG00000001506 " transform="translate(9,9)"   name="Col1a1"  ><rect id="ccd-icon" class="Icon" transform="matrix(.98361 0 0 .95238 .4918 .47619)" width="60" height="20" fill="#fff" stroke="#000"/><text id="ccd-text" class="Text" transform="translate(30,13)" fill="#000"  font-size="10px" stroke="white" stroke-width="0" text-anchor="middle"><tspan x="0" y="0">Col1a1</tspan></text></a><a  id="d0c" class="GeneProduct P594_ENSMUSG00000029661 " transform="translate(9,29)"   name="Col1a2"  ><rect id="d0c-icon" class="Icon" transform="matrix(.98361 0 0 .95238 .4918 .47619)" width="60" height="20" fill="#fff" stroke="#000"/><text id="d0c-text" class="Text" transform="translate(30,13)" fill="#000"  font-size="10px" stroke="white" stroke-width="0" text-anchor="middle"><tspan x="0" y="0">Col1a2</tspan></text></a></g><g id="f7c11" class="GroupNone" transform="translate(251 417.67)" color="grey" ><rect id="f7c11-icon" class="Icon" transform="matrix(.98734 0 0 .9899 .49367 .49495)" width="78" height="98" fill="#b4b464" fill-opacity=".1" stroke="grey" stroke-dasharray="5,3"/><a  id="a9b" class="GeneProduct P594_ENSMUSG00000055170 " transform="translate(9,69)"   name="Ifng"  ><rect id="a9b-icon" class="Icon" transform="matrix(.98361 0 0 .95238 .4918 .47619)" width="60" height="20" fill="#fff" stroke="#000"/><text id="a9b-text" class="Text" transform="translate(30,13)" fill="#000"  font-size="10px" stroke="white" stroke-width="0" text-anchor="middle"><tspan x="0" y="0">Ifng</tspan></text></a><a  id="fa1" class="GeneProduct P594_ENSMUSG00000036117 " transform="translate(9,49)"   name="Il5"  ><rect id="fa1-icon" class="Icon" transform="matrix(.98361 0 0 .95238 .4918 .47619)" width="60" height="20" fill="#fff" stroke="#000"/><text id="fa1-text" class="Text" transform="translate(30,13)" fill="#000"  font-size="10px" stroke="white" stroke-width="0" text-anchor="middle"><tspan x="0" y="0">Il5</tspan></text></a><a  id="bfd" class="GeneProduct P594_ENSMUSG00000000869 " transform="translate(9,29)"   name="Il4"  ><rect id="bfd-icon" class="Icon" transform="matrix(.98361 0 0 .95238 .4918 .47619)" width="60" height="20" fill="#fff" stroke="#000"/><text id="bfd-text" class="Text" transform="translate(30,13)" fill="#000"  font-size="10px" stroke="white" stroke-width="0" text-anchor="middle"><tspan x="0" y="0">Il4</tspan></text></a><a  id="b39" class="GeneProduct P594_ENSMUSG00000027720 " transform="translate(9,9)"   name="Il2"  ><rect id="b39-icon" class="Icon" transform="matrix(.98361 0 0 .95238 .4918 .47619)" width="60" height="20" fill="#fff" stroke="#000"/><text id="b39-text" class="Text" transform="translate(30,13)" fill="#000"  font-size="10px" stroke="white" stroke-width="0" text-anchor="middle"><tspan x="0" y="0">Il2</tspan></text></a></g><g id="f7f3b" class="GroupNone" transform="translate(68,426)" color="grey" ><rect id="f7f3b-icon" class="Icon" transform="matrix(.98734 0 0 .98734 .49367 .49367)" width="78" height="78" fill="#b4b464" fill-opacity=".1" stroke="grey" stroke-dasharray="5,3"/><a  id="bea" class="GeneProduct P594_ENSMUSG00000031304 " transform="translate(9,49)"   name="Il2rg"  ><rect id="bea-icon" class="Icon" transform="matrix(.98361 0 0 .95238 .4918 .47619)" width="60" height="20" fill="#fff" stroke="#000"/><text id="bea-text" class="Text" transform="translate(30,13)" fill="#000"  font-size="10px" stroke="white" stroke-width="0" text-anchor="middle"><tspan x="0" y="0">Il2rg</tspan></text></a><a  id="b68" class="GeneProduct P594_ENSMUSG00000068227 " transform="translate(9,29)"   name="Il2rb"  ><rect id="b68-icon" class="Icon" transform="matrix(.98361 0 0 .95238 .4918 .47619)" width="60" height="20" fill="#fff" stroke="#000"/><text id="b68-text" class="Text" transform="translate(30,13)" fill="#000"  font-size="10px" stroke="white" stroke-width="0" text-anchor="middle"><tspan x="0" y="0">Il2rb</tspan></text></a><a  id="e9e" class="GeneProduct P594_ENSMUSG00000026770 " transform="translate(9,9)"   name="Il2ra"  ><rect id="e9e-icon" class="Icon" transform="matrix(.98361 0 0 .95238 .4918 .47619)" width="60" height="20" fill="#fff" stroke="#000"/><text id="e9e-text" class="Text" transform="translate(30,13)" fill="#000"  font-size="10px" stroke="white" stroke-width="0" text-anchor="middle"><tspan x="0" y="0">Il2ra</tspan></text></a></g><g id="ac152" class="GroupNone" transform="translate(302.67 341.33)" color="grey" ><rect id="ac152-icon" class="Icon" transform="matrix(.98917 0 0 .98305 .49458 .49153)" width="91.333" height="58" fill="#b4b464" fill-opacity=".1" stroke="grey" stroke-dasharray="5,3"/><a  id="a62" class="GeneProduct P594_ENSMUSG00000028599 " transform="translate(9,29)"   name="Tnfrsf1b"  ><rect id="a62-icon" class="Icon" transform="matrix(.98655 0 0 .95238 .49327 .47619)" width="73.333" height="20" fill="#fff" stroke="#000"/><text id="a62-text" class="Text" transform="translate(36.667 13)" fill="#000"  font-size="10px" stroke="white" stroke-width="0" text-anchor="middle"><tspan x="0" y="0">Tnfrsf1b</tspan></text></a><a  id="d42" class="GeneProduct P594_ENSMUSG00000030341 " transform="translate(9,9)"   name="Tnfrsf1a"  ><rect id="d42-icon" class="Icon" transform="matrix(.98655 0 0 .95238 .49327 .47619)" width="73.333" height="20" fill="#fff" stroke="#000"/><text id="d42-text" class="Text" transform="translate(36.667 13)" fill="#000"  font-size="10px" stroke="white" stroke-width="0" text-anchor="middle"><tspan x="0" y="0">Tnfrsf1a</tspan></text></a></g><g id="d92fd" class="GroupNone" transform="translate(28.333 291.67)" color="grey" ><rect id="d92fd-icon" class="Icon" transform="matrix(.98734 0 0 .98246 .49367 .49123)" width="78" height="56" fill="#b4b464" fill-opacity=".1" stroke="grey" stroke-dasharray="5,3"/><a  id="f05" class="GeneProduct P594_ENSMUSG00000026117 " transform="translate(9,29)"   name="Zap70"  ><rect id="f05-icon" class="Icon" transform="matrix(.98361 0 0 .94737 .4918 .47368)" width="60" height="18" fill="#fff" stroke="#000"/><text id="f05-text" class="Text" transform="translate(30,12)" fill="#000"  font-size="10px" stroke="white" stroke-width="0" text-anchor="middle"><tspan x="0" y="0">Zap70</tspan></text></a><a  id="bb5" class="GeneProduct P594_ENSMUSG00000000409 " transform="translate(9,9)"   name="Lck"  ><rect id="bb5-icon" class="Icon" transform="matrix(.98361 0 0 .95238 .4918 .47619)" width="60" height="20" fill="#fff" stroke="#000"/><text id="bb5-text" class="Text" transform="translate(30,13)" fill="#000"  font-size="10px" stroke="white" stroke-width="0" text-anchor="middle"><tspan x="0" y="0">Lck</tspan></text></a></g><text id="WP458-text" class="Text" transform="translate(5,45)" dominant-baseline="central" fill="black"  font-size="12px" font-weight="bold" overflow="visible" stroke="white" stroke-width="0"><tspan x="0" y="-27">Name: Inflammatory response pathway</tspan> <tspan x="0" y="-9">License: CC BY 2.0</tspan> <tspan x="0" y="9">Last Modified: 10/17/2013</tspan> <tspan x="0" y="27">Organism: Mus musculus</tspan></text></g></svg>
