<?xml version="1.0" encoding="UTF-8"?>
<svg xmlns="http://www.w3.org/2000/svg" id="-svg" class="Diagram"  baseProfile="full" prefix="schema:http://schema.org/" preserveAspectRatio="xMidYMid"  version="1.1"><defs><g id="icon-defs"/><g id="marker-defs"><marker id="memconversion000" markerHeight="12" markerWidth="12" orient="auto" preserveAspectRatio="none" refX="12" refY="6" viewBox="0 0 12 12"><g id="g-memconversion000" transform=""><g transform="rotate(180 6 6)"><rect y="5.4" width="2" height="1.2" style="stroke:#fff"/><polygon points="12 11 0 6 12 1" stroke-width="0"/></g></g></marker><marker id="mea" markerHeight="12" markerWidth="12" orient="auto" preserveAspectRatio="none" refX="12" refY="6" viewBox="0 0 12 12"><g id="g-mea" transform=""><g transform="rotate(180 6 6)"><rect y="5.4" width="2" height="1.2" style="stroke:#fff"/><polygon points="12 11 0 6 12 1" stroke-width="0"/></g></g></marker><marker id="memcatalysis000" markerHeight="12" markerWidth="12" orient="auto" preserveAspectRatio="none" refX="12" refY="6" viewBox="0 0 12 12"><g id="g-memcatalysis000" transform=""><g transform="rotate(180 6 6)"><circle cx="6" cy="6" r="5.3px" fill="#fff" stroke="#000"/></g></g></marker></g></defs><g id="viewport-20220102144311298" class="svg-pan-zoom_viewport" transform="matrix(0.84 0 0 0.84 0 6.13)" style="transform:matrix(0.84, 0, 0, 0.84, 0, 6.13)"><style>svg.Diagram {font-family: 'Liberation Sans', Arial, sans-serif; }.Diagram path {fill: transparent;stroke: #000;marker-end: url(#mea);}.Diagram symbol path {fill: inherit;stroke: inherit;stroke-width: inherit;marker-end: inherit;}.Diagram rect {fill: #fff;stroke: #000;}.Diagram text {dominant-baseline: central;overflow: hidden;text-anchor: middle;fill: #000;font-size: 12px;}</style><style type="text/css">.Viewport .textContent {
  pointer-events: none;
  stroke-width: 0px;
}

					.Viewport.Icon {
  fill: white;
}

/* Hide the InfoBox */
.Viewport.textContent {
  font-size: 0;
}

.textContent {
  stroke: none;
}

.DataNode {
  stroke-miterlimit: 1;
  pointer-events: auto;
}

.DataNode:hover {
  cursor: pointer;
}

/* TODO should this apply to things other than DataNodes? */
.DataNode.textContent {
  pointer-events: none;
}

.DataNode.Highlighted {
  opacity: 0.6;
  stroke-width: 0px;
}

marker {
  /* this is what should work per the spec
  stroke-dasharray: none; */
  /* but I need to add this to make it work in Safari */
  stroke-dasharray: 9999999999999999999999999;
}

.Citation.Icon {
  fill: none;
  stroke-width: 0px;
}

.Citation.textContent {
  text-align: center;
  vertical-align: top;
  font-size: 7px;
  fill: #999;
  fill-opacity: 1;
  stroke: none;
}</style><g id="WP4725" class="Pathway http___identifiers_org_pw_PW_0000162 http___identifiers_org_pw_PW_0000197 http___identifiers_org_pw_PW_0000745 Viewport"  name="Name: Sphingolipid metabolism overview Organism: Homo sapiens" ><g class="Pathway http___identifiers_org_pw_PW_0000162 http___identifiers_org_pw_PW_0000197 http___identifiers_org_pw_PW_0000745 Viewport"><rect   width="1421.1" height="831.02" style="stroke:none"/><g id="id11c71881" class="Rhea_22642"  ><path    d="m260.53 357-1.07 105.78" style="marker-end:url(#memconversion000)"/><g id="a8460" class="AB" transform="translate(260.1 399.31)"  ><g class="AB"/></g></g><g id="id1aec68d4" class="Edge"  ><path    d="m166.9 399.08 93.20 0.23" style="marker-end:url(#memcatalysis000)"/></g><g id="id204b067" class="Edge"  ><path    d="m820.21 403.88h167.64" style="marker-end:url(#memconversion000)"/><g id="abc88" class="AB" transform="translate(925.69 403.88)"  ><g class="AB"/></g></g><g id="id46848a70" class="Edge"  ><path    d="m732.08 200.31-85.65-20.85"/><g id="ab0aa" class="AB" transform="translate(697.83 191.97)"  ><g class="AB"/></g></g><g id="id6cf838b" class="Rhea_14762"  ><path    d="m260.03 127 0.5 183.5" style="marker-end:url(#memconversion000)"/><g id="aa5ea" class="AB" transform="translate(260.23 200.49)"  ><g class="AB"/></g></g><g id="id6dd64cb8" class="Edge"  ><path    d="m1286.4 94.72v71.44" style="marker-end:url(#memconversion000)"/><g id="cb42d" class="AB" transform="translate(1286.4 128.7)"  ><g class="AB"/></g></g><g id="id7451d8ea" class="Edge"  ><path    d="m790.83 228.81 52.22 52.17" style="marker-end:url(#memconversion000)"/><g id="e5204" class="AB" transform="translate(811.72 249.68)"  ><g class="AB"/></g></g><g id="id79689790" class="Edge"  ><path    d="m732.08 228.81-137.84 36.12" style="marker-end:url(#memconversion000)"/><g id="ca6bf" class="AB" transform="translate(661.84 247.22)"  ><g class="AB"/></g></g><g id="id2cf5a716" class="Edge"  ><path    d="m552.45 308.96h19.25v-1.49h90.13v-60.24" style="marker-end:url(#memcatalysis000)"/></g><g id="id7a708c67" class="Edge"  ><path    d="m944.68 300.22v-70.54h-132.96v20" style="marker-end:url(#memcatalysis000)"/></g><g id="id82b82715" class="Rhea_15466"  ><path    d="m299.62 491.28-0.18 107.26" style="marker-end:url(#memconversion000)"/><g id="a78e1" class="AB" transform="translate(299.53 543.16)"  ><g class="AB"/></g></g><g id="id924ac751" class="Edge"  ><path    d="m761.46 411-1.41 87.29" style="marker-end:url(#memconversion000)"/><g id="cc60b" class="AB" transform="translate(760.49 471.15)"  ><g class="AB"/></g></g><g id="id9535ea46" class="Rhea_15466"  ><path    d="m325.53 512.63-25.99 30.53" style="marker-end:url(#memconversion000)"/></g><g id="id96290d76" class="Edge"  ><path    d="m760.05 630.38-5.7e-12 89.87" style="marker-end:url(#memconversion000)"/><g id="e70e1" class="AB" transform="translate(760.05 666.67)"  ><g class="AB"/></g></g><g id="id981fc8c8" class="Edge"  ><path    d="m398.03 130.33-137.8 70.16" style="marker-end:url(#memconversion000)"/></g><g id="id9884255a" class="Edge"  ><path    d="m702.71 389.62-97.27-22.73" style="marker-end:url(#memconversion000)"/><g id="b20a1" class="AB" transform="translate(663.8 380.53)"  ><g class="AB"/></g></g><g id="id874d313b" class="Edge"  ><path    d="m552.45 320.9h111.35v59.64" style="marker-end:url(#memcatalysis000)"/></g><g id="id9d280dab" class="Edge"  ><path    d="m985.85 221.69-165.64-2e-14" style="marker-end:url(#memconversion000)"/><g id="f2bba" class="AB" transform="translate(961.9 221.69)"  ><g class="AB"/></g></g><g id="e8959" class="Edge"  ><path    d="m961.9 221.69 79.47 47.26" stroke-dasharray="5,3"/></g><g id="ida1231f2e" class="Edge"  ><path    d="m1028.4 300.32-66.45-78.63" style="marker-end:url(#memcatalysis000)"/></g><g id="idae7f7f89" class="Edge"  ><path    d="m559.6 667.97 200.45-1.31" style="marker-end:url(#memcatalysis000)"/></g><g id="idb9579e0d" class="Edge"  ><path    d="m790.83 382.5 52.22-38.65" style="marker-end:url(#memconversion000)"/><g id="acb81" class="AB" transform="translate(811.72 367.04)"  ><g class="AB"/></g></g><g id="id3752d4e4" class="Edge"  ><path    d="m944.68 320.22v20h-132.96v26.82" style="marker-end:url(#memcatalysis000)"/></g><g id="idbb8ae26" class="Rhea_27515"  ><path    d="m219.11 598.55 0.18-107.26" style="marker-end:url(#memconversion000)"/><g id="e0038" class="AB" transform="translate(219.2 545.26)"  ><g class="AB"/></g></g><g id="idbdf2f556" class="Edge"  ><path    d="m719.89 523.29 5.7e-12 75.26" style="marker-end:url(#memconversion000)"/><g id="a5e51" class="AB" transform="translate(719.89 543.16)"  ><g class="AB"/></g></g><g id="idc2904d49" class="Edge"  ><path    d="m259.28 630.38-1.41 89.87" style="marker-end:url(#memconversion000)"/><g id="c54f2" class="AB" transform="translate(258.69 667.82)"  ><g class="AB"/></g></g><g id="id1472a2e3" class="Edge"  ><path    d="m258.69 667.82 256.82 52.43" style="marker-end:url(#memconversion000)"/></g><g id="idaf973609" class="Edge"  ><path    d="m469.6 667.97-210.91-0.15" style="marker-end:url(#memcatalysis000)"/></g><g id="idc444fee0" class="Edge"  ><path    d="m820.21 207.44 165.64 2e-14" style="marker-end:url(#memconversion000)"/><g id="f7a25" class="AB" transform="translate(886.46 207.44)"  ><g class="AB"/></g></g><g id="idc931ada7" class="Edge"  ><path    d="m987.85 389.62h-167.64" style="marker-end:url(#memconversion000)"/><g id="ae05e" class="AB" transform="translate(960 389.62)"  ><g class="AB"/></g></g><g id="idca8136b2" class="Edge"  ><path    d="m761.46 228.81v153.69" style="marker-end:url(#memconversion000)"/><g id="b938a" class="AB" transform="translate(761.46 305.43)"  ><g class="AB"/></g></g><g id="idd65a3387" class="Edge"  ><path    d="m465.92 353.12v-138.97h231.91v-22.18" style="marker-end:url(#memcatalysis000)"/></g><g id="iddcdb3ebd" class="Edge"  ><path    d="m1028.4 321.82-68.36 67.81" style="marker-end:url(#memcatalysis000)"/></g><g id="ide0bbc0c3" class="Edge"  ><path    d="m800.22 598.55-5.7e-12 -75.26" style="marker-end:url(#memconversion000)"/><g id="b29de" class="AB" transform="translate(800.22 568.44)"  ><g class="AB"/></g></g><g id="idf29bfd2c" class="Edge"  ><path    d="m702.71 403.88-97.27 67.71" style="marker-end:url(#memconversion000)"/><g id="c3008" class="AB" transform="translate(663.8 430.96)"  ><g class="AB"/></g></g><g id="id45ffb504" class="Edge"  ><path    d="m465.92 373.12v20h197.89v37.83" style="marker-end:url(#memcatalysis000)"/></g><g id="idf779ba24" class="Edge"  ><path    d="m760.05 666.67-244.54 53.59" style="marker-end:url(#memconversion000)"/></g><g id="idf9bd034" class="Edge"  ><path    d="m730.19 470.26 30.30 0.89" style="marker-end:url(#memcatalysis000)"/></g><g id="iddbfe9fa1" class="Edge"  ><path    d="m1150.1 339.43v106.42h-224.41v-41.98" style="marker-end:url(#memcatalysis000)"/></g><g id="idf3d315c9" class="Edge"  ><path    d="m1150.1 280.93v-112.15h-263.63v38.66" style="marker-end:url(#memcatalysis000)"/></g><g id="idaad03b91" class="Edge"  ><path    d="m760.76 132.46 0.70 67.85" style="marker-end:url(#memconversion000)"/><g id="afbb2" class="AB" transform="translate(760.98 154.46)"  ><g class="AB"/></g></g><g id="id29679d60" class="Edge"  ><path    d="m339.79 477.03h77.89v-322.57h343.31" style="marker-end:url(#memconversion000)"/></g><g id="idfd30c455" class="Edge"  ><path    d="m463.01 542.14-163.48 1.02" style="marker-end:url(#memcatalysis000)"/></g><g id="idfee96b1a" class="Edge"  ><path    d="m569.01 542.14 150.88 1.02" style="marker-end:url(#memcatalysis000)"/></g><g id="idb39e1f3c" class="Edge"  ><path    d="m180.02 200.63 80.20-0.14" style="marker-end:url(#memcatalysis000)"/></g><g id="id765f7ea9" class="Edge"  ><path    d="m171.95 545.13 47.25 0.13" style="marker-end:url(#memcatalysis000)"/></g><g id="id2fa1d96b" class="Edge"  ><path    d="m739.17 306.05 22.29-0.62" style="marker-end:url(#memcatalysis000)"/></g><g id="id20e811f3" class="Edge"  ><path    d="m859.65 568.6-59.43-0.15" style="marker-end:url(#memcatalysis000)"/></g><g id="b8214" class="Label" transform="translate(1193.9 26.43)"  name="N-acyl chains:" ><g class="Label"/><text   transform="translate(91.63 12.5)"     style="fill:#404040;font-size:22px">N-acyl chains:</text></g><g id="a01f7" class="Metabolite " transform="translate(325.53 500.13)"  name="ATP" ><rect   width="59.74" height="25" rx="15" ry="15" style="stroke:#00f"/><text   transform="translate(29.87 12.5)"     style="fill:#00f">ATP</text></g><g id="a3300" class="Metabolite LIPID_MAPS_LMSP01020002" transform="translate(201.78 310.5)"  name="3-keto-sphinganine" ><rect   width="117.5" height="46.5" style="stroke:#00f"/><text   transform="translate(58.75,23.25)"     style="fill:#00f">3-keto-sphinganine</text></g><g id="ac40d" class="Protein " transform="translate(424.67 353.12)"  name="CERK" ><rect   width="82.5" height="20"/><text   transform="translate(41.25,10)"    >CERK</text></g><g id="b614f" class="Protein " transform="translate(657.05 457.76)"  name="ASAH1" ><rect   width="73.14" height="25"/><text   transform="translate(36.57 12.5)"    >ASAH1</text></g><g id="b7caa" class="Metabolite LIPID_MAPS_LMFA07050360" transform="translate(210.78 92.5)"  name="Palmitoyl-CoA" ><rect   width="98.5" height="34.5" style="stroke:#00f"/><text   transform="translate(49.25,17.25)"     style="fill:#00f">Palmitoyl-CoA</text></g><g id="bd74a" class="Protein " transform="translate(469.6 655.47)"  name="SGPL1" ><rect   width="90" height="25"/><text   transform="translate(45,12.5)"    >SGPL1</text></g><g id="c268f" class="Protein " transform="translate(487.95 302.99)"  name="UGCG" ><rect   width="64.5" height="23.88"/><text   transform="translate(32.25 11.94)"    >UGCG</text></g><g id="c3e72" class="Metabolite" transform="translate(342.78 96.83)"  name="Serine" ><rect   width="110.5" height="33.5" style="stroke:#00f"/><text   transform="translate(55.25 16.75)"     style="fill:#00f">Serine</text></g><g id="d0961" class="Metabolite LIPID_MAPS_LMFA06000088" transform="translate(212.87 720.26)"  name="Hexadecanal" ><rect   width="90" height="25" style="stroke:#00f"/><text   transform="translate(45,12.5)"     style="fill:#00f">Hexadecanal</text></g><g id="de6f3" class="Protein " transform="translate(64.40 387.17)"  name="KDSR" ><rect   width="102.5" height="23.83"/><text   transform="translate(51.25 11.92)"    >KDSR</text></g><g id="f4ce4" class="Metabolite" transform="translate(440.01 720.26)"  name="Ethanolamine-phosphate" ><rect   width="151" height="25" style="stroke:#00f"/><text   transform="translate(75.5,12.5)"     style="fill:#00f">Ethanolamine-phosphate</text></g><g id="f7997" class="Metabolite " transform="translate(96.05 585.39)"  name="H2O" ><rect   width="54.47" height="25" rx="15" ry="15" style="stroke:#00f"/><text   transform="translate(27.24 12.5)"     style="fill:#00f">H2O</text></g><g id="f88b3" class="Metabolite LIPID_MAPS_LMSP01010001" transform="translate(679.72 498.29)"  name="Sphingosine" ><rect   width="160.67" height="25" style="stroke:#00f"/><text   transform="translate(80.33 12.5)"     style="fill:#00f">Sphingosine</text></g><g id="a8e79" class="GroupGroup" transform="translate(1102.3 280.93)"  ><g class="GroupGroup"><g id="b96e1" class="Protein " transform="translate(8,8)"  name="SGMS1" ><rect   width="79.5" height="21.5"/><text   transform="translate(39.75,10.75)"    >SGMS1</text></g><g id="efc57" class="Protein " transform="translate(8 29)"  name="SGMS2" ><rect   width="79.5" height="21.5"/><text   transform="translate(39.75,10.75)"    >SGMS2</text></g></g></g><g id="ce853" class="GroupGroup" transform="translate(463.01 513.12)"  ><g class="GroupGroup"><g id="b9b00" class="Protein " transform="translate(8 29.26)"  name="SPHK2" ><rect   width="90" height="20.79"/><text   transform="translate(45 10.40)"    >SPHK2</text></g><g id="d6dbc" class="Protein " transform="translate(8,8)"  name="SPHK1" ><rect   width="90" height="21.26"/><text   transform="translate(45 10.63)"    >SPHK1</text></g></g></g><g id="e69f4" class="GroupGroup" transform="translate(51.27 166.88)"  ><g class="GroupGroup"><g id="d5e45" class="Protein " transform="translate(8.12,8)"  name="SPTLC1" ><rect   width="112.5" height="26.33"/><text   transform="translate(56.25 13.17)"    >SPTLC1</text></g><g id="e40f3" class="Protein " transform="translate(8 34.33)"  name="SPTLC2" ><rect   width="112.75" height="25.17"/><text   transform="translate(56.38 12.58)"    >SPTLC2</text></g></g></g><g id="e9f31" class="GroupGroup" transform="translate(65.95 512.13)"  ><g class="GroupGroup"><g id="b2311" class="Protein " transform="translate(8,8)"  name="SGPP1" ><rect   width="90" height="25"/><text   transform="translate(45,12.5)"    >SGPP1</text></g><g id="a9f9a" class="Protein " transform="translate(8,33)"  name="SGPP2" ><rect   width="90" height="25"/><text   transform="translate(45,12.5)"    >SGPP2</text></g></g></g><g id="fb07d" class="GroupGroup" transform="translate(660.67 279.55)"  ><g class="GroupGroup"><g id="d7335" class="Protein " transform="translate(8,8)"  name="DEGS1" ><rect   width="62.5" height="18.5"/><text   transform="translate(31.25,9.25)"    >DEGS1</text></g><g id="b3147" class="Protein " transform="translate(8 26.5)"  name="DEGS2" ><rect   width="62.5" height="18.5"/><text   transform="translate(31.25,9.25)"    >DEGS2</text></g></g></g><g id="feaff" class="GroupGroup" transform="translate(859.65 525.72)"  ><g class="GroupGroup"><g id="a9de8" class="Protein" transform="translate(8,8)"  name="Ppap2a" ><rect   width="63" height="23.5"/><text   transform="translate(31.5,11.75)"    >Ppap2a</text></g><g id="a5a0a" class="Protein " transform="translate(8,30.75)"  name="PLPP3" ><rect   width="63" height="23.5"/><text   transform="translate(31.5,11.75)"    >PLPP3</text></g><g id="c0dd9" class="Protein" transform="translate(8,54.25)"  name="Ppap2c" ><rect   width="63" height="23.5"/><text   transform="translate(31.5,11.75)"    >Ppap2c</text></g></g></g><g id="ed964" class="Metabolite LIPID_MAPS_LMSP01020001" transform="translate(179.12 462.78)"  name="Sphinganine" ><rect   width="160.67" height="28.5" style="stroke:#00f"/><text   transform="translate(80.33 14.25)"     style="fill:#00f">Sphinganine</text></g><g id="f368e" class="Metabolite LIPID_MAPS_LMSP01050002" transform="translate(178.94 598.55)"  name="Sphinganine-1-phosphate" ><rect   width="160.67" height="31.83" style="stroke:#00f"/><text   transform="translate(80.33 15.92)"     style="fill:#00f">Sphinganine-1-phosphate</text></g><g id="c997e" class="Metabolite LIPID_MAPS_LMSP02020000" transform="translate(702.71 200.31)"  name="DH-Ceramide" ><rect   width="117.5" height="28.5" style="stroke:#00f"/><text   transform="translate(58.75,14.25)"     style="fill:#00f">DH-Ceramide</text></g><g id="da538" class="GroupGroup" transform="translate(1197 249)"  ><g class="GroupGroup"><g id="f4e24" class="Protein " transform="translate(8 33)"  name="CERS4" ><rect   width="52.96" height="25"/><text   transform="translate(26.48 12.5)"    >CERS4</text></g><g id="ac8a6" class="Protein " transform="translate(8 8)"  name="CERS1" ><rect   width="52.96" height="25"/><text   transform="translate(26.48 12.5)"    >CERS1</text></g></g></g><g id="c7a3b" class="GroupGroup" transform="translate(1190.7 95.40)"  ><g class="GroupGroup"><g id="c24ce" class="Protein " transform="translate(8,8)"  name="CERS4" ><rect   width="52.96" height="25"/><text   transform="translate(26.48 12.5)"    >CERS4</text></g><g id="e4848" class="Protein " transform="translate(8 33)"  name="CERS6" ><rect   width="52.96" height="25"/><text   transform="translate(26.48 12.5)"    >CERS6</text></g></g></g><g id="bf530" class="Metabolite LIPID_MAPS_LMSP02010000" transform="translate(702.71 382.5)"  name="Ceramide" ><rect   width="117.5" height="28.5" style="stroke:#00f"/><text   transform="translate(58.75,14.25)"     style="fill:#00f">Ceramide</text></g><g id="dea07" class="Metabolite LIPID_MAPS_LMSP02050000" transform="translate(561.44 471.58)"  name="Cer-1-P" ><rect   width="88.00" height="28.5" style="stroke:#00f"/><text   transform="translate(44.00 14.25)"     style="fill:#00f">Cer-1-P</text></g><g id="cc25d" class="Metabolite LIPID_MAPS_LMSP020500A0" transform="translate(558.44 165.21)"  name="DH-Cer-1-P" ><rect   width="88.00" height="28.5" style="stroke:#00f"/><text   transform="translate(44.00 14.25)"     style="fill:#00f">DH-Cer-1-P</text></g><g id="e9d8d" class="Metabolite LIPID_MAPS_LMSP0301" transform="translate(987.85 382.5)"  name="SM" ><rect   width="117.5" height="28.5" style="stroke:#00f"/><text   transform="translate(58.75,14.25)"     style="fill:#00f">SM</text></g><g id="d60ba" class="Metabolite LIPID_MAPS_LMSP0501AA00" transform="translate(561.44 338.4)"  name="Glc-Cer" ><rect   width="88.00" height="28.5" style="stroke:#00f"/><text   transform="translate(44.00 14.25)"     style="fill:#00f">Glc-Cer</text></g><g id="ba26f" class="Metabolite LIPID_MAPS_LMSP030100A0" transform="translate(985.85 200.31)"  name="DH-SM" ><rect   width="117.5" height="28.5" style="stroke:#00f"/><text   transform="translate(58.75,14.25)"     style="fill:#00f">DH-SM</text></g><g id="e6a32" class="Metabolite" transform="translate(550.25 264.94)"  name="DH-Glc-Cer" ><rect   width="88.00" height="28.5" style="stroke:#00f"/><text   transform="translate(44.00 14.25)"     style="fill:#00f">DH-Glc-Cer</text></g><g id="be1a4" class="Metabolite LIPID_MAPS_LMSP0501AC00" transform="translate(784.3 315.35)"  name="Gal-Cer" ><rect   width="117.5" height="28.5" style="stroke:#00f"/><text   transform="translate(58.75,14.25)"     style="fill:#00f">Gal-Cer</text></g><g id="c9f6c" class="Metabolite" transform="translate(784.3 280.98)"  name="DH-Gal-Cer" ><rect   width="117.5" height="28.5" style="stroke:#00f"/><text   transform="translate(58.75,14.25)"     style="fill:#00f">DH-Gal-Cer</text></g><g id="fe827" class="Protein " transform="translate(988.61 300.32)"  name="SMPD1" ><rect   width="79.5" height="21.5"/><text   transform="translate(39.75,10.75)"    >SMPD1</text></g><g id="b32ff" class="Metabolite LIPID_MAPS_LMSP01050001" transform="translate(679.72 598.55)"  name="Sphingosine-1-phosphate" ><rect   width="160.67" height="31.83" style="stroke:#00f"/><text   transform="translate(80.33 15.92)"     style="fill:#00f">Sphingosine-1-phosphate</text></g><g id="ba579" class="Metabolite LIPID_MAPS_LMFA06000088" transform="translate(715.05 720.26)"  name="1-Hexadecenal" ><rect   width="90" height="25" style="stroke:#00f"/><text   transform="translate(45,12.5)"     style="fill:#00f">1-Hexadecenal</text></g><g id="bfe17" class="GroupGroup" transform="translate(662.76 16.46)"  ><g class="GroupGroup"><g id="f11ea" class="Metabolite LIPID_MAPS_LMFA07050360" transform="translate(8,8)"  name="CoA(16:0)" ><rect   width="90" height="25" style="stroke:#00f"/><text   transform="translate(45,12.5)"     style="fill:#00f">CoA(16:0)</text></g><g id="fe378" class="Metabolite " transform="translate(98 8)"  name="CoA(18:0)" ><rect   width="90" height="25" style="stroke:#00f"/><text   transform="translate(45,12.5)"     style="fill:#00f">CoA(18:0)</text></g><g id="efdb4" class="Metabolite " transform="translate(8 33)"  name="CoA(20:0)" ><rect   width="90" height="25" style="stroke:#00f"/><text   transform="translate(45,12.5)"     style="fill:#00f">CoA(20:0)</text></g><g id="e18f7" class="Metabolite" transform="translate(98 33)"  name="CoA(22:0)" ><rect   width="90" height="25" style="stroke:#00f"/><text   transform="translate(45,12.5)"     style="fill:#00f">CoA(22:0)</text></g><g id="a179b" class="Metabolite" transform="translate(8 58)"  name="CoA(24:0)" ><rect   width="90" height="25" style="stroke:#00f"/><text   transform="translate(45,12.5)"     style="fill:#00f">CoA(24:0)</text></g><g id="c7424" class="Metabolite" transform="translate(98 58)"  name="CoA(24:1)" ><rect   width="90" height="25" style="stroke:#00f"/><text   transform="translate(45,12.5)"     style="fill:#00f">CoA(24:1)</text></g><g id="f9a59" class="Metabolite" transform="translate(8 83)"  name="CoA(26:0)" ><rect   width="90" height="25" style="stroke:#00f"/><text   transform="translate(45 12.5)"     style="fill:#00f">CoA(26:0)</text></g><g id="b12b3" class="Metabolite" transform="translate(98 83)"  name="CoA(26:1)" ><rect   width="90" height="25" style="stroke:#00f"/><text   transform="translate(45 12.5)"     style="fill:#00f">CoA(26:1)</text></g></g></g><g id="cbfa3" class="Protein " transform="translate(912.43 300.22)"  name="UGT8" ><rect   width="64.5" height="20"/><text   transform="translate(32.25,10)"    >UGT8</text></g><g id="abbf5" class="Metabolite LIPID_MAPS_LMFA07050360" transform="translate(1239 69.72)"  name="CoA(16:0)" ><rect   width="94.91" height="25" style="stroke:#00f"/><text   transform="translate(47.45 12.5)"     style="fill:#00f">CoA(16:0)</text></g><g id="b07bd" class="Metabolite " transform="translate(1239.5 221.84)"  name="CoA(18:0)" ><rect   width="94.91" height="25" style="stroke:#00f"/><text   transform="translate(47.45 12.5)"     style="fill:#00f">CoA(18:0)</text></g><g id="f0afd" class="Metabolite " transform="translate(1195 375.36)"  name="CoA(20:0)" ><rect   width="94.91" height="25" style="stroke:#00f"/><text   transform="translate(47.45 12.5)"     style="fill:#00f">CoA(20:0)</text></g><g id="c1c64" class="Metabolite" transform="translate(1289.9 375.36)"  name="CoA(22:0)" ><rect   width="94.91" height="25" style="stroke:#00f"/><text   transform="translate(47.45 12.5)"     style="fill:#00f">CoA(22:0)</text></g><g id="ef435" class="Metabolite" transform="translate(1197.4 538.74)"  name="CoA(24:0)" ><rect   width="94.91" height="25" style="stroke:#00f"/><text   transform="translate(47.45 12.5)"     style="fill:#00f">CoA(24:0)</text></g><g id="e3f72" class="Metabolite" transform="translate(1291 538.74)"  name="CoA(24:1)" ><rect   width="94.91" height="25" style="stroke:#00f"/><text   transform="translate(47.45 12.5)"     style="fill:#00f">CoA(24:1)</text></g><g id="f9b34" class="Metabolite LIPID_MAPS_LMSP02020000" transform="translate(1239 166.16)"  name="DH-Ceramide" ><rect   width="94.91" height="25" style="stroke:#00f"/><text   transform="translate(47.45 12.5)"     style="fill:#00f">DH-Ceramide</text></g><g id="f2a27" class="Metabolite LIPID_MAPS_LMSP02020000" transform="translate(1239.5 318.28)"  name="DH-Ceramide" ><rect   width="94.91" height="25" style="stroke:#00f"/><text   transform="translate(47.45 12.5)"     style="fill:#00f">DH-Ceramide</text></g><g id="cc18d" class="Metabolite LIPID_MAPS_LMSP02020000" transform="translate(1240.6 471.8)"  name="DH-Ceramide" ><rect   width="94.91" height="25" style="stroke:#00f"/><text   transform="translate(47.45 12.5)"     style="fill:#00f">DH-Ceramide</text></g><g id="aceae" class="Metabolite LIPID_MAPS_LMSP02020000" transform="translate(1245.4 635.18)"  name="DH-Ceramide" ><rect   width="94.91" height="25" style="stroke:#00f"/><text   transform="translate(47.45 12.5)"     style="fill:#00f">DH-Ceramide</text></g><g id="efb40" class="Edge"  ><path    d="m1287 246.84v71.44" style="marker-end:url(#memconversion000)"/><g id="a8f13" class="AB" transform="translate(1287 280.99)"  ><g class="AB"/></g></g><g id="cba2e" class="Edge"  ><path    d="m1242.4 400.36 21.85 71.44" style="marker-end:url(#memconversion000)"/><g id="e8fc0" class="AB" transform="translate(1256.6 446.54)"  ><g class="AB"/></g></g><g id="b5996" class="Edge"  ><path    d="m1337.3 400.36-25.60 71.44" style="marker-end:url(#memconversion000)"/><g id="d16aa" class="AB" transform="translate(1320.1 448.48)"  ><g class="AB"/></g></g><g id="af2e4" class="Edge"  ><path    d="m1244.9 563.74 24.25 71.44" style="marker-end:url(#memconversion000)"/><g id="c5b91" class="AB" transform="translate(1261.2 611.99)"  ><g class="AB"/></g></g><g id="e27f1" class="Edge"  ><path    d="m1338.4 563.74-21.86 71.44" style="marker-end:url(#memconversion000)"/><g id="dc646" class="AB" transform="translate(1324 610.85)"  ><g class="AB"/></g></g><g id="b36ce" class="Edge"  ><path    d="m1259.7 128.4 26.78 0.30" style="marker-end:url(#memcatalysis000)"/></g><g id="aa321" class="Edge"  ><path    d="m1266 282 21.00-1.01" style="marker-end:url(#memcatalysis000)"/></g><g id="e7095" class="Edge"  ><path    d="m1275.3 431.85-18.72 14.69" style="marker-end:url(#memcatalysis000)"/></g><g id="fc613" class="Protein " transform="translate(1262.1 406.85)"  name="CERS4" ><rect   width="52.96" height="25"/><text   transform="translate(26.48 12.5)"    >CERS4</text></g><g id="d54e4" class="Edge"  ><path    d="m1301.8 431.85 18.34 16.63" style="marker-end:url(#memcatalysis000)"/></g><g id="bde74" class="Edge"  ><path    d="m1278.1 593.73-16.91 18.26" style="marker-end:url(#memcatalysis000)"/></g><g id="fed26" class="Protein " transform="translate(1264.9 568.73)"  name="CERS2" ><rect   width="52.96" height="25"/><text   transform="translate(26.48 12.5)"    >CERS2</text></g><g id="c9b6b" class="Edge"  ><path    d="m1304.6 593.73 19.38 17.12" style="marker-end:url(#memcatalysis000)"/></g><g id="ae76f" class="Metabolite" transform="translate(1201.4 679.58)"  name="CoA(26:0)" ><rect   width="94.91" height="25" style="stroke:#00f"/><text   transform="translate(47.45 12.5)"     style="fill:#00f">CoA(26:0)</text></g><g id="b6b95" class="Metabolite" transform="translate(1296.2 679.69)"  name="CoA(26:1)" ><rect   width="94.91" height="25" style="stroke:#00f"/><text   transform="translate(47.45 12.5)"     style="fill:#00f">CoA(26:1)</text></g><g id="d3fb3" class="Metabolite LIPID_MAPS_LMSP02020000" transform="translate(1252.9 776.02)"  name="DH-Ceramide" ><rect   width="94.91" height="25" style="stroke:#00f"/><text   transform="translate(47.45 12.5)"     style="fill:#00f">DH-Ceramide</text></g><g id="ca493" class="Edge"  ><path    d="m1248.8 704.58 27.83 71.44" style="marker-end:url(#memconversion000)"/><g id="b0e5b" class="AB" transform="translate(1268.1 754.1)"  ><g class="AB"/></g><g id="ec86d" class="AB" transform="translate(1260 733.16)"  ><g class="AB"/></g></g><g id="aa3b3" class="Edge"  ><path    d="m1343.6 704.69-19.53 71.33" style="marker-end:url(#memconversion000)"/><g id="aa5cc" class="AB" transform="translate(1329.7 755.47)"  ><g class="AB"/></g></g><g id="db3cb" class="Edge"  ><path    d="m1285.6 736.82-17.44 17.28" style="marker-end:url(#memcatalysis000)"/></g><g id="f166f" class="Protein " transform="translate(1272.3 711.82)"  name="CERS3" ><rect   width="52.96" height="25"/><text   transform="translate(26.48 12.5)"    >CERS3</text></g><g id="fdd42" class="Edge"  ><path    d="m1312 736.82 17.71 18.64" style="marker-end:url(#memcatalysis000)"/></g><g id="aeba0" class="Metabolite " transform="translate(329.21 569.08)"  name="ADP" ><rect   width="59.74" height="25" rx="15" ry="15" style="stroke:#00f"/><text   transform="translate(29.87 12.5)"     style="fill:#00f">ADP</text></g><g id="dd0d4" class="Rhea_15466"  ><path    d="m299.53 543.16 29.68 38.41" style="marker-end:url(#memconversion000)"/></g><g id="fa914" class="Rhea_27515"  ><path    d="m150.53 597.89 68.67-52.64" style="marker-end:url(#memconversion000)"/></g><g id="b59c1" class="Label" transform="translate(1041.4 256.45)"  name="NP Type B" ><rect   width="90" height="25" rx="15" ry="15" style="fill:#fcc;stroke:#00f"/><text   transform="translate(45,12.5)"     style="fill:#00f">NP Type B</text></g><g id="aa1a6" class="Edge"  ><path    d="m960 389.62v-20h126.37v-88.18" stroke-dasharray="5,3"/></g></g></g></g></svg>