<?xml version="1.0" encoding="UTF-8"?>
<!--
  WikiPathways page: https://www.wikipathways.org/index.php/Pathway:WP4756
  URL for this compressed file: https://github.com/eweitz/cachome/tree/main/data/WP4756.svg
  Source code for compression: https://github.com/eweitz/cachome/tree/main/src/wikipathways.py
-->
<svg id="wp4756-svg" class="Diagram" width="800" height="600" color="black" baseProfile="full" prefix="schema:http://schema.org/" preserveAspectRatio="xMidYMid" version="1.1" viewBox="0 0 990.39 1498.5" vocab="http://vocabularies.wikipathways.org/wp#" xmlns="http://www.w3.org/2000/svg" xmlns:xlink="http://www.w3.org/1999/xlink"><style>svg {font-family: 'Liberation Sans', Arial, sans-serif; }</style><defs><g id="jit-defs"><filter id="kaavioblackto000000filter" x="0" y="0" width="990.39" height="1498.5" filterUnits="userSpaceOnUse"><feColorMatrix in="SourceGraphic" values="-1   0   0 0 0                   0  -1   0 0 0                   0   0  -1 0 0                   0   0   0 1 0"/></filter><filter id="kaavioblacktoff0000filter" x="0" y="0" width="990.39" height="1498.5" filterUnits="userSpaceOnUse"><feColorMatrix in="SourceGraphic" values="-1   0   0 0 1                   0  -1   0 0 0                   0   0  -1 0 0                   0   0   0 1 0"/></filter></g><g id="jic-defs"><marker id="markerEndArrow" stroke-dasharray="99999" markerHeight="12" markerUnits="userSpaceOnUse" markerWidth="12" orient="auto" preserveAspectRatio="none" refX="12" refY="6" viewBox="0 0 12 12"><path transform="rotate(180 6 6)" d="M12 11L0 6l12-5z" fill="currentColor" stroke-width="0"/></marker><marker id="markerEndMimBinding" stroke-dasharray="99999" markerHeight="12" markerUnits="userSpaceOnUse" markerWidth="12" orient="auto" preserveAspectRatio="none" refX="12" refY="6" viewBox="0 0 12 12"><path transform="rotate(180 6 6)" d="M12 12L0 6l12-6-7 6z" fill="currentColor" stroke-width="0"/></marker><marker id="markerEndMimCatalysis" stroke-dasharray="99999" markerHeight="12" markerUnits="userSpaceOnUse" markerWidth="12" orient="auto" preserveAspectRatio="none" refX="12" refY="6" viewBox="0 0 12 12"><circle transform="rotate(180 6 6)" cx="6" cy="6" r="5.3" fill="none" stroke="#000"/></marker><marker id="markerEndMimConversion" stroke-dasharray="99999" markerHeight="12" markerUnits="userSpaceOnUse" markerWidth="12" orient="auto" preserveAspectRatio="none" refX="12" refY="6" viewBox="0 0 12 12"><path transform="rotate(180 6 6)" d="M12 11L0 6l12-5z" fill="currentColor" stroke-width="0"/></marker><marker id="markerEndMimInhibition" stroke-dasharray="99999" markerHeight="20" markerUnits="userSpaceOnUse" markerWidth="10" orient="auto" preserveAspectRatio="none" refX="10" refY="10" viewBox="0 0 10 20"><path d="m3 0v20" fill="currentColor" stroke="currentColor"/></marker><marker id="markerEndMimStimulation" stroke-dasharray="99999" markerHeight="12" markerUnits="userSpaceOnUse" markerWidth="12" orient="auto" preserveAspectRatio="none" refX="12" refY="6" viewBox="0 0 12 12"><g transform="rotate(180 6 6)" fill="none"><path d="m12 6"/><path d="M0 6l11 5V1z" stroke="#000"/></g></marker><symbol id="none" preserveAspectRatio="none" viewBox="0 0 100 100"/></g></defs><g id="WP4756" class="Viewport" color="black"  name="Name: Renin-angiotensin-aldosterone system (RAAS) Organism: Homo sapiens"><rect id="WP4756-icon" class="Icon" width="990.39" height="1498.5" fill="#fff" stroke="#000" stroke-width="0"/><g id="a45d0" class="Interaction" color="#000" ><g color="#000" fill="transparent"  filter="url(#kaavioblackto000000filter)" stroke="#000" stroke-dasharray="99.20476179678609, 5.8"><path id="a45d0" class="EdgeBody" d="m454.48 301.91 1 105"   marker-end="url(#markerEndMimConversion)" /></g><g id="b5861" class="Burr Anchor" transform="translate(455.08 364.91)" ><use id="b5861-icon" class="Icon" width="0" height="0" fill="#141414" stroke-width="0" xlink:href="#none"/></g></g><g id="a0cae" class="Interaction" color="#000" ><g color="#000" fill="transparent"  filter="url(#kaavioblackto000000filter)" stroke="#000" stroke-dasharray="24.884423073753446, 11"><path id="a0cae" class="EdgeBody" d="m423.48 347.91 31.6 17.004"   marker-end="url(#markerEndMimCatalysis)" /></g></g><g id="a76b3" class="DirectedInteraction" color="#000" ><g color="#000" fill="transparent"  filter="url(#kaavioblackto000000filter)" stroke="#000" stroke-dasharray="87.2023894555636, 5.8"><path id="a76b3" class="EdgeBody" d="m475.14 188.91-0.66667 93"   marker-end="url(#markerEndArrow)" /></g><g id="ed881" class="Burr Anchor" transform="translate(474.99 210.91)" ><use id="ed881-icon" class="Icon" width="0" height="0" fill="#141414" stroke-width="0" xlink:href="#none"/></g></g><g id="c353b" class="Interaction" color="#f00" ><g color="#f00" fill="transparent"  filter="url(#kaavioblacktoff0000filter)" stroke="#000" stroke-dasharray="92.74106516518673, 7"><path id="c353b" class="EdgeBody" d="m559.98 234.84 0.5 99.74"   marker-end="url(#markerEndMimInhibition)" /></g></g><g id="d74bc" class="Interaction" color="#000" ><g color="#000" fill="transparent"  filter="url(#kaavioblackto000000filter)" stroke="#000" stroke-dasharray="99.20476179678609, 5.8"><path id="d74bc" class="EdgeBody" d="m494.48 301.91 1 105"   marker-end="url(#markerEndMimConversion)" /></g><g id="da262" class="Burr Anchor" transform="translate(494.88 343.91)" ><use id="da262-icon" class="Icon" width="0" height="0" fill="#141414" stroke-width="0" xlink:href="#none"/></g></g><g id="a84e7" class="Interaction" color="#000" ><g color="#000" fill="transparent"  filter="url(#kaavioblackto000000filter)" stroke="#000" stroke-dasharray="24.606241650087775, 11"><path id="a84e7" class="EdgeBody" d="m530.48 344.58-35.6-0.66667"   marker-end="url(#markerEndMimCatalysis)" /></g></g><g id="d8d51" class="Interaction" color="#000" ><g color="#000" fill="transparent"  filter="url(#kaavioblackto000000filter)" stroke="#000" stroke-dasharray="30.10788477257399, 11"><path id="d8d51" class="EdgeBody" d="m433.89 209.86 41.094 1.0541"   marker-end="url(#markerEndMimCatalysis)" /></g></g><g id="f3a74" class="Interaction" color="#000" ><g color="#000" fill="transparent"  filter="url(#kaavioblackto000000filter)" stroke="#000" stroke-dasharray="99.20476179678609, 5.8"><path id="f3a74" class="EdgeBody" d="m474.48 301.91 1 105"   marker-end="url(#markerEndMimConversion)" /></g><g id="deb70" class="Burr Anchor" transform="translate(474.85 340.92)" ><use id="deb70-icon" class="Icon" width="0" height="0" fill="#141414" stroke-width="0" xlink:href="#none"/></g></g><g id="e54f1" class="Interaction" color="#000" ><g color="#000" fill="transparent"  filter="url(#kaavioblackto000000filter)" stroke="#000" stroke-dasharray="25.258016995983844, 11"><path id="e54f1" class="EdgeBody" d="m443.98 321.91 30.872 19.016"   marker-end="url(#markerEndMimCatalysis)" /></g></g><g id="id2b90d2db" class="Interaction" color="#000" ><g color="#000" fill="transparent"  filter="url(#kaavioblackto000000filter)" stroke="#000" stroke-dasharray="84.65581009463635, 5.8"><path id="id2b90d2db" class="EdgeBody" d="m90.632 1271.2-1.5574 90.442"   marker-end="url(#markerEndMimConversion)" /></g><g id="e404e" class="Burr Anchor" transform="translate(89.953 1310.7)" ><use id="e404e-icon" class="Icon" width="0" height="0" fill="#141414" stroke-width="0" xlink:href="#none"/></g></g><g id="id792de397" class="Interaction" color="#000" ><g color="#000" fill="transparent"  filter="url(#kaavioblackto000000filter)" stroke="#000" stroke-dasharray="13.544468309111998, 11"><path id="id792de397" class="EdgeBody" d="m473.98 549.48 0.81288 24.531"   marker-end="url(#markerEndMimStimulation)" /></g></g><g id="id7da050c4" class="Interaction" color="#000" ><g color="#000" fill="transparent"  filter="url(#kaavioblackto000000filter)" stroke="#000" stroke-dasharray="313.63214343383515, 11"><path id="id7da050c4" class="EdgeBody" d="m412.9 1277.7-322.95 32.995"   marker-end="url(#markerEndMimCatalysis)" /></g></g><g id="id92bd2c48" class="Interaction" color="#000" ><g color="#000" fill="transparent"  filter="url(#kaavioblackto000000filter)" stroke="#000" stroke-dasharray="151.32010791122087, 11"><path id="id92bd2c48" class="EdgeBody" d="m247.19 1270.4-157.24 40.291"   marker-end="url(#markerEndMimCatalysis)" /></g></g><g id="id9faf7457" class="Interaction" color="#000" ><g color="#000" fill="transparent"  filter="url(#kaavioblackto000000filter)" stroke="#000" stroke-dasharray="39.57664120279432, 5.8"><path id="id9faf7457" class="EdgeBody" d="m141.87 1374.2 45.367 0.91837"   marker-end="url(#markerEndMimConversion)" /></g><g id="c04d6" class="Burr Anchor" transform="translate(160.02 1374.6)" ><use id="c04d6-icon" class="Icon" width="0" height="0" fill="#141414" stroke-width="0" xlink:href="#none"/></g></g><g id="id1bbcf86a" class="Interaction" color="#000" ><g color="#000" fill="transparent"  filter="url(#kaavioblackto000000filter)" stroke="#000" stroke-dasharray="76.97676913559901, 11"><path id="id1bbcf86a" class="EdgeBody" d="m105.31 1443.5 54.708-68.898"   marker-end="url(#markerEndMimStimulation)" /></g></g><g id="id83e3abf4" class="Interaction" color="#000" ><g color="#000" fill="transparent"  filter="url(#kaavioblackto000000filter)" stroke="#000" stroke-dasharray="74.09397967498207, 11"><path id="id83e3abf4" class="EdgeBody" d="m211.31 1442.5-51.292-67.898"   marker-end="url(#markerEndMimStimulation)" /></g></g><g id="idc5e08d2a" class="Interaction" color="#000" ><g color="#000" fill="transparent"  filter="url(#kaavioblackto000000filter)" stroke="#000" stroke-dasharray="8.207075147954146, 11"><path id="idc5e08d2a" class="EdgeBody" d="m474.79 599.01 1.002 19.181"   marker-end="url(#markerEndMimStimulation)" /></g></g><g id="idc5e84d9d" class="Interaction" color="#000" ><g color="#000" fill="transparent"  filter="url(#kaavioblackto000000filter)" stroke="#000" stroke-dasharray="30.175172958668917, 11"><path id="idc5e84d9d" class="EdgeBody" d="m473.5 483.31 0.47508 41.172"   marker-end="url(#markerEndMimStimulation)" /></g></g><g id="idc7732157" class="Interaction" color="#000" ><g color="#000" fill="transparent"  filter="url(#kaavioblackto000000filter)" stroke="#000" stroke-dasharray="35.435149662394885, 5.8"><path id="idc7732157" class="EdgeBody" d="m284.73 1375.1 41.235 0.19388"   marker-end="url(#markerEndMimConversion)" /></g><g id="c4714" class="Burr Anchor" transform="translate(301.22 1375.2)" ><use id="c4714-icon" class="Icon" width="0" height="0" fill="#141414" stroke-width="0" xlink:href="#none"/></g></g><g id="idd220153a" class="Interaction" color="#000" ><g color="#000" fill="transparent"  filter="url(#kaavioblackto000000filter)" stroke="#000" stroke-dasharray="61.99790147206417, 11"><path id="idd220153a" class="EdgeBody" d="m333.15 1440.8-31.924-65.647"   marker-end="url(#markerEndMimStimulation)" /></g></g><g id="idda4284de" class="Interaction" color="#000" ><g color="#000" fill="transparent"  filter="url(#kaavioblackto000000filter)" stroke="#000" stroke-dasharray="29.036734693876905, 5.8"><path id="idda4284de" class="EdgeBody" d="m619.43 1374.4 34.837 4.3e-12"   marker-end="url(#markerEndMimConversion)" /></g><g id="c8a10" class="Burr Anchor" transform="translate(633.37 1374.4)" ><use id="c8a10-icon" class="Icon" width="0" height="0" fill="#141414" stroke-width="0" xlink:href="#none"/></g></g><g id="ide73d7e64" class="Interaction" color="#000" ><g color="#000" fill="transparent"  filter="url(#kaavioblackto000000filter)" stroke="#000" stroke-dasharray="35.678671827537556, 5.8"><path id="ide73d7e64" class="EdgeBody" d="m467.96 1375.3 41.469-0.87755"   marker-end="url(#markerEndMimConversion)" /></g><g id="f6c92" class="Burr Anchor" transform="translate(482.78 1375)" ><use id="f6c92-icon" class="Icon" width="0" height="0" fill="#141414" stroke-width="0" xlink:href="#none"/></g></g><g id="id66c242d0" class="Interaction" color="#000" ><g color="#000" fill="transparent"  filter="url(#kaavioblackto000000filter)" stroke="#000" stroke-dasharray="9.81337710635733, 11"><path id="id66c242d0" class="EdgeBody" d="m475.79 643.19 0.24717 20.812"   marker-end="url(#markerEndMimStimulation)" /></g></g><g id="idb57cb41b" class="Interaction" color="#000" ><g color="#000" fill="transparent"  filter="url(#kaavioblackto000000filter)" stroke="#000" stroke-dasharray="20.114548701083255, 11"><path id="idb57cb41b" class="EdgeBody" d="m476.04 705.91-0.42846 31.112"   marker-end="url(#markerEndMimStimulation)" /></g></g><g id="id5a0b3ea0" class="Interaction" color="#000" ><g color="#000" fill="transparent"  filter="url(#kaavioblackto000000filter)" stroke="#000" stroke-dasharray="20.164356764512526, 11"><path id="id5a0b3ea0" class="EdgeBody" d="m475.61 762.02-0.50449 31.16"   marker-end="url(#markerEndMimStimulation)" /></g></g><g id="id84356786" class="Interaction" color="#000" ><g color="#000" fill="transparent"  filter="url(#kaavioblackto000000filter)" stroke="#000" stroke-dasharray="56.979087818717446, 11"><path id="id84356786" class="EdgeBody" d="m475.11 871.23-1.2257 67.968"   marker-end="url(#markerEndMimStimulation)" /></g></g><g id="id2322c9cd" class="Interaction" color="#000" ><g color="#000" fill="transparent"  filter="url(#kaavioblackto000000filter)" stroke="#000" stroke-dasharray="71.12565713213156, 11"><path id="id2322c9cd" class="EdgeBody" d="m472.57 1196.2-59.665 56.433"   marker-end="url(#markerEndMimStimulation)" /></g></g><g id="id92e22f5e" class="Interaction" color="#000" ><g color="#000" fill="transparent"  filter="url(#kaavioblackto000000filter)" stroke="#000" stroke-dasharray="42.029579666621856, 11"><path id="id92e22f5e" class="EdgeBody" d="m473.88 1016.3-1.3115 53.013"   marker-end="url(#markerEndMimStimulation)" /></g></g><g id="ideeb58039" class="Interaction" color="#000" ><g color="#000" fill="transparent"  filter="url(#kaavioblackto000000filter)" stroke="#000" stroke-dasharray="70.93954171054772, 11"><path id="ideeb58039" class="EdgeBody" d="m472.57 1196.2 59.409 56.433"   marker-end="url(#markerEndMimStimulation)" /></g></g><g id="ca5b2" class="SingleFreeNode Shape" transform="translate(285.19 139.28)" color="#000" ><rect id="ca5b2-icon" class="Icon" transform="matrix(.99751 0 0 .99729 .49875 .49864)" width="400.18" height="367.74" rx="15" ry="15" fill="transparent"  stroke="#000"/></g><a id="a159a" class="ChEBI_CHEBI_16485 Metabolite  " transform="translate(654.27 1361.9)" color="#00f"  name="18-hydroxycorticosterone"  ><rect id="a159a-icon" class="Icon" transform="matrix(.99394 0 0 .96154 .49697 .48077)" width="164.04" height="25" fill="#fff" stroke="#00f"/><text id="a159a-text" class="Text" transform="translate(82.02 16.5)" fill="#00f"  font-size="12px" stroke="white" stroke-width="0" text-anchor="middle"><tspan x="0" y="0">18-hydroxycorticosterone</tspan></text></a><a  id="a5262" class="CYP11A1 GeneProduct " transform="translate(202.19 1245.4)"   name="CYP11A1"  ><rect id="a5262-icon" class="Icon" transform="matrix(.98901 0 0 .96154 .49451 .48077)" width="90" height="25" fill="#fff" stroke="#000"/><text id="a5262-text" class="Text" transform="translate(45,16.5)" fill="#000"  font-size="12px" stroke="white" stroke-width="0" text-anchor="middle"><tspan x="0" y="0">CYP11A1</tspan></text></a><a  id="a623e" class="HSD3B2 GeneProduct " transform="translate(166.31 1442.5)"   name="HSD3B2"  ><rect id="a623e-icon" class="Icon" transform="matrix(.98901 0 0 .96154 .49451 .48077)" width="90" height="25" fill="#fff" stroke="#000"/><text id="a623e-text" class="Text" transform="translate(45,16.5)" fill="#000"  font-size="12px" stroke="white" stroke-width="0" text-anchor="middle"><tspan x="0" y="0">HSD3B2</tspan></text></a><a id="a6c6a" class="ChEBI_CHEBI_16595 Metabolite  " transform="translate(430.79 618.19)" color="#00f"  name="IP3"  ><rect id="a6c6a-icon" class="Icon" transform="matrix(.98901 0 0 .96154 .49451 .48077)" width="90" height="25" fill="#fff" stroke="#00f"/><text id="a6c6a-text" class="Text" transform="translate(45,16.5)" fill="#00f"  font-size="12px" stroke="white" stroke-width="0" text-anchor="middle"><tspan x="0" y="0">IP3</tspan></text></a><a  id="aacd0" class="STAR Protein " transform="translate(368.93 1252.7)"   name="STAR"  ><rect id="aacd0-icon" class="Icon" transform="matrix(.98876 0 0 .96154 .49438 .48077)" width="87.939" height="25" fill="#fff" stroke="#000"/><text id="aacd0-text" class="Text" transform="translate(43.969 16.5)" fill="#000"  font-size="12px" stroke="white" stroke-width="0" text-anchor="middle"><tspan x="0" y="0">STAR</tspan></text></a><a  id="b3847" class="CYP21A2 GeneProduct " transform="translate(288.15 1440.8)"   name="CYP21A2"  ><rect id="b3847-icon" class="Icon" transform="matrix(.98901 0 0 .96154 .49451 .48077)" width="90" height="25" fill="#fff" stroke="#000"/><text id="b3847-text" class="Text" transform="translate(45,16.5)" fill="#000"  font-size="12px" stroke="white" stroke-width="0" text-anchor="middle"><tspan x="0" y="0">CYP21A2</tspan></text></a><a id="b56f1" class="ChEBI_CHEBI_16827 Metabolite  " transform="translate(509.43 1361.9)" color="#00f"  name="Corticosterone"  ><rect id="b56f1-icon" class="Icon" transform="matrix(.99099 0 0 .96154 .4955 .48077)" width="110" height="25" fill="#fff" stroke="#00f"/><text id="b56f1-text" class="Text" transform="translate(55,16.5)" fill="#00f"  font-size="12px" stroke="white" stroke-width="0" text-anchor="middle"><tspan x="0" y="0">Corticosterone</tspan></text></a><a  id="bb9f1" class="CYP11B2 GeneProduct " transform="translate(486.98 1252.7)"   name="CYP11B2"  ><rect id="bb9f1-icon" class="Icon" transform="matrix(.98901 0 0 .96154 .49451 .48077)" width="90" height="25" fill="#fff" stroke="#000"/><text id="bb9f1-text" class="Text" transform="translate(45,16.5)" fill="#000"  font-size="12px" stroke="white" stroke-width="0" text-anchor="middle"><tspan x="0" y="0">CYP11B2</tspan></text></a><a id="beba6" class="ChEBI_CHEBI_16973 Metabolite  " transform="translate(325.96 1362.8)" color="#00f"  name="11-Deoxycorticosterone"  ><rect id="beba6-icon" class="Icon" transform="matrix(.99301 0 0 .96154 .4965 .48077)" width="142" height="25" fill="#fff" stroke="#00f"/><text id="beba6-text" class="Text" transform="translate(71,16.5)" fill="#00f"  font-size="12px" stroke="white" stroke-width="0" text-anchor="middle"><tspan x="0" y="0">11-Deoxycorticosterone</tspan></text></a><a id="c127e" class="ChEBI_CHEBI_17026 Metabolite  " transform="translate(187.24 1362.6)" color="#00f"  name="Progesterone"  ><rect id="c127e-icon" class="Icon" transform="matrix(.98985 0 0 .96154 .49492 .48077)" width="97.49" height="25" fill="#fff" stroke="#00f"/><text id="c127e-text" class="Text" transform="translate(48.745 16.5)" fill="#00f"  font-size="12px" stroke="white" stroke-width="0" text-anchor="middle"><tspan x="0" y="0">Progesterone</tspan></text></a><a id="c9733" class="ChEBI_CHEBI_16113 Metabolite  " transform="translate(19.926 1246.2)" color="#00f"  name="Cholesterol"  ><rect id="c9733-icon" class="Icon" transform="matrix(.99298 0 0 .96154 .49649 .48077)" width="141.41" height="25" fill="#fff" stroke="#00f"/><text id="c9733-text" class="Text" transform="translate(70.706 16.5)" fill="#00f"  font-size="12px" stroke="white" stroke-width="0" text-anchor="middle"><tspan x="0" y="0">Cholesterol</tspan></text></a><a  id="c9ca8" class="GeneProduct CTSG " transform="translate(383.98 311.91)"   name="CTSG"  ><rect id="c9ca8-icon" class="Icon" transform="matrix(.98361 0 0 .95238 .4918 .47619)" width="60" height="20" fill="#fff" stroke="#000"/><text id="c9ca8-text" class="Text" transform="translate(30,13)" fill="#000"  font-size="10px" stroke="white" stroke-width="0" text-anchor="middle"><tspan x="0" y="0">CTSG</tspan></text></a><a id="ca3ad" class="Metabolite ChEBI_CHEBI_2719  " transform="translate(435.48 406.91)" color="#00f"  name="Angiotensin II"  ><rect id="ca3ad-icon" class="Icon" transform="matrix(.98765 0 0 .95238 .49383 .47619)" width="80" height="20" fill="#fff" stroke="#00f"/><text id="ca3ad-text" class="Text" transform="translate(40,13)" fill="#00f"  font-size="10px" stroke="white" stroke-width="0" text-anchor="middle"><tspan x="0" y="0">Angiotensin II</tspan></text></a><a  id="cd673" class="HSD3B1 GeneProduct " transform="translate(60.309 1443.5)"   name="HSD3B1"  ><rect id="cd673-icon" class="Icon" transform="matrix(.98901 0 0 .96154 .49451 .48077)" width="90" height="25" fill="#fff" stroke="#000"/><text id="cd673-text" class="Text" transform="translate(45,16.5)" fill="#000"  font-size="12px" stroke="white" stroke-width="0" text-anchor="middle"><tspan x="0" y="0">HSD3B1</tspan></text></a><a id="d6a08" class="PubChem-compound_3081372 Metabolite ChEBI_CHEBI_2718  " transform="translate(434.48 281.91)" color="#00f"  name="Angiotensin I"  ><rect id="d6a08-icon" class="Icon" transform="matrix(.98765 0 0 .95238 .49383 .47619)" width="80" height="20" fill="#fff" stroke="#00f"/><text id="d6a08-text" class="Text" transform="translate(40,13)" fill="#00f"  font-size="10px" stroke="white" stroke-width="0" text-anchor="middle"><tspan x="0" y="0">Angiotensin I</tspan></text></a><a id="d9620" class="ChEBI_CHEBI_35457 Metabolite  " transform="translate(514.48 214.84)" color="#c00"  name="ACE Inhibitor"  ><rect id="d9620-icon" class="Icon" transform="matrix(.98913 0 0 .95238 .49457 .47619)" width="91" height="20" fill="#fff" stroke="#c00"/><text id="d9620-text" class="Text" transform="translate(45.5,13)" fill="#c00"  font-size="10px" stroke="white" stroke-width="0" text-anchor="middle"><tspan x="0" y="0">ACE Inhibitor</tspan></text></a><a  id="dade8" class="PLCB2 GeneProduct " transform="translate(429.79 574.01)"   name="PLCB2"  ><rect id="dade8-icon" class="Icon" transform="matrix(.98901 0 0 .96154 .49451 .48077)" width="90" height="25" fill="#fff" stroke="#000"/><text id="dade8-text" class="Text" transform="translate(45,16.5)" fill="#000"  font-size="12px" stroke="white" stroke-width="0" text-anchor="middle"><tspan x="0" y="0">PLCB2</tspan></text></a><a  id="de1e4" class="GeneProduct CMA1 " transform="translate(363.48 337.91)"   name="CMA1"  ><rect id="de1e4-icon" class="Icon" transform="matrix(.98361 0 0 .95238 .4918 .47619)" width="60" height="20" fill="#fff" stroke="#000"/><text id="de1e4-text" class="Text" transform="translate(30,13)" fill="#000"  font-size="10px" stroke="white" stroke-width="0" text-anchor="middle"><tspan x="0" y="0">CMA1</tspan></text></a><a  id="e0a11" class="GeneProduct REN " transform="translate(389.22 199.86)"   name="REN"  ><rect id="e0a11-icon" class="Icon" transform="matrix(.9781 0 0 .95238 .48905 .47619)" width="44.667" height="20" fill="#fff" stroke="#000"/><text id="e0a11-text" class="Text" transform="translate(22.333 13)" fill="#000"  font-size="10px" stroke="white" stroke-width="0" text-anchor="middle"><tspan x="0" y="0">REN</tspan></text></a><a  id="e89d5" class="GeneProduct AGT " transform="translate(445.14 168.91)"   name="AGT"  ><rect id="e89d5-icon" class="Icon" transform="matrix(.98361 0 0 .95238 .4918 .47619)" width="60" height="20" fill="#fff" stroke="#000"/><text id="e89d5-text" class="Text" transform="translate(30,13)" fill="#000"  font-size="10px" stroke="white" stroke-width="0" text-anchor="middle"><tspan x="0" y="0">AGT</tspan></text></a><g id="e9b04" class="Metabolite" transform="translate(551,407.5)" color="#c00"  name="AGTR1 Inhibitor"><rect id="e9b04-icon" class="Icon" transform="matrix(.99167 0 0 .96154 .49583 .48077)" width="119" height="25" fill="#fff" stroke="#c00"/><text id="e9b04-text" class="Text" transform="translate(59.5,15.5)" fill="#c00"  font-size="10px" stroke="white" stroke-width="0" text-anchor="middle"><tspan x="0" y="0">AGTR1 Inhibitor</tspan></text></g><a  id="ef1f3" class="GeneProduct ACE " transform="translate(530.48 334.58)"   name="ACE"  ><rect id="ef1f3-icon" class="Icon" transform="matrix(.98361 0 0 .95238 .4918 .47619)" width="60" height="20" fill="#fff" stroke="#000"/><text id="ef1f3-text" class="Text" transform="translate(30,13)" fill="#000"  font-size="10px" stroke="white" stroke-width="0" text-anchor="middle"><tspan x="0" y="0">ACE</tspan></text></a><a  id="f4c17" class="GNAQ GeneProduct " transform="translate(428.98 524.48)"   name="GNAQ"  ><rect id="f4c17-icon" class="Icon" transform="matrix(.98901 0 0 .96154 .49451 .48077)" width="90" height="25" fill="#fff" stroke="#000"/><text id="f4c17-text" class="Text" transform="translate(45,16.5)" fill="#000"  font-size="12px" stroke="white" stroke-width="0" text-anchor="middle"><tspan x="0" y="0">GNAQ</tspan></text></a><a id="f59c7" class="ChEBI_CHEBI_16581 Metabolite  " transform="translate(36.279 1361.7)" color="#00f"  name="Pregnenolone"  ><rect id="f59c7-icon" class="Icon" transform="matrix(.99062 0 0 .96154 .49531 .48077)" width="105.59" height="25" fill="#fff" stroke="#00f"/><text id="f59c7-text" class="Text" transform="translate(52.796 16.5)" fill="#00f"  font-size="12px" stroke="white" stroke-width="0" text-anchor="middle"><tspan x="0" y="0">Pregnenolone</tspan></text></a><a id="f6131" class="ChEBI_CHEBI_22984 Metabolite  " transform="translate(430.61 737.02)" color="#00f"  name="calcium"  ><rect id="f6131-icon" class="Icon" transform="matrix(.98901 0 0 .96154 .49451 .48077)" width="90" height="25" fill="#fff" stroke="#00f"/><text id="f6131-text" class="Text" transform="translate(45,16.5)" fill="#00f"  font-size="12px" stroke="white" stroke-width="0" text-anchor="middle"><tspan x="0" y="0">calcium</tspan></text></a><g id="a1375" class="GroupGroup" transform="translate(261.33 939.2)" color="grey" ><use id="a1375-icon" class="Icon" width="425.10447761194024" height="77.11940298507523" fill="transparent"  stroke="grey" stroke-dasharray="5,3" stroke-width="0" xlink:href="#none"/><a  id="b0ef3" class="CAMK1D GeneProduct " transform="translate(113.07 8)"   name="CAMK1D"  ><rect id="b0ef3-icon" class="Icon" transform="matrix(.98901 0 0 .96154 .49451 .48077)" width="90" height="25" fill="#fff" stroke="#000"/><text id="b0ef3-text" class="Text" transform="translate(45,16.5)" fill="#000"  font-size="12px" stroke="white" stroke-width="0" text-anchor="middle"><tspan x="0" y="0">CAMK1D</tspan></text></a><a  id="cf99e" class="CAMK1G GeneProduct " transform="translate(220.09 8.2985)"   name="CAMK1G"  ><rect id="cf99e-icon" class="Icon" transform="matrix(.98901 0 0 .96154 .49451 .48077)" width="90" height="25" fill="#fff" stroke="#000"/><text id="cf99e-text" class="Text" transform="translate(45,16.5)" fill="#000"  font-size="12px" stroke="white" stroke-width="0" text-anchor="middle"><tspan x="0" y="0">CAMK1G</tspan></text></a><a  id="a6580" class="CAMK4 GeneProduct " transform="translate(327.1 8.597)"   name="CAMK4"  ><rect id="a6580-icon" class="Icon" transform="matrix(.98901 0 0 .96154 .49451 .48077)" width="90" height="25" fill="#fff" stroke="#000"/><text id="a6580-text" class="Text" transform="translate(45,16.5)" fill="#000"  font-size="12px" stroke="white" stroke-width="0" text-anchor="middle"><tspan x="0" y="0">CAMK4</tspan></text></a><a  id="d73b4" class="CAMK2A GeneProduct " transform="translate(8 43.224)"   name="CAMK2A"  ><rect id="d73b4-icon" class="Icon" transform="matrix(.98901 0 0 .96154 .49451 .48077)" width="90" height="25" fill="#fff" stroke="#000"/><text id="d73b4-text" class="Text" transform="translate(45,16.5)" fill="#000"  font-size="12px" stroke="white" stroke-width="0" text-anchor="middle"><tspan x="0" y="0">CAMK2A</tspan></text></a><a  id="e538a" class="CAMK2B GeneProduct " transform="translate(112.03 42.776)"   name="CAMK2B"  ><rect id="e538a-icon" class="Icon" transform="matrix(.98901 0 0 .96154 .49451 .48077)" width="90" height="25" fill="#fff" stroke="#000"/><text id="e538a-text" class="Text" transform="translate(45,16.5)" fill="#000"  font-size="12px" stroke="white" stroke-width="0" text-anchor="middle"><tspan x="0" y="0">CAMK2B</tspan></text></a><a  id="f9da5" class="CAMK2D GeneProduct " transform="translate(219.04 43.821)"   name="CAMK2D"  ><rect id="f9da5-icon" class="Icon" transform="matrix(.98901 0 0 .96154 .49451 .48077)" width="90" height="25" fill="#fff" stroke="#000"/><text id="f9da5-text" class="Text" transform="translate(45,16.5)" fill="#000"  font-size="12px" stroke="white" stroke-width="0" text-anchor="middle"><tspan x="0" y="0">CAMK2D</tspan></text></a><a  id="aebde" class="CAMK2G GeneProduct " transform="translate(326.06 44.119)"   name="CAMK2G"  ><rect id="aebde-icon" class="Icon" transform="matrix(.98901 0 0 .96154 .49451 .48077)" width="90" height="25" fill="#fff" stroke="#000"/><text id="aebde-text" class="Text" transform="translate(45,16.5)" fill="#000"  font-size="12px" stroke="white" stroke-width="0" text-anchor="middle"><tspan x="0" y="0">CAMK2G</tspan></text></a><a  id="ede76" class="CAMK1 GeneProduct " transform="translate(8.4478 9.3433)"   name="CAMK1"  ><rect id="ede76-icon" class="Icon" transform="matrix(.98901 0 0 .96154 .49451 .48077)" width="90" height="25" fill="#fff" stroke="#000"/><text id="ede76-text" class="Text" transform="translate(45,16.5)" fill="#000"  font-size="12px" stroke="white" stroke-width="0" text-anchor="middle"><tspan x="0" y="0">CAMK1</tspan></text></a></g><g id="a297b" class="GroupGroup" transform="translate(320.25 664)" color="grey" ><use id="a297b-icon" class="Icon" width="311.5760045673716" height="41.90744101633379" fill="transparent"  stroke="grey" stroke-dasharray="5,3" stroke-width="0" xlink:href="#none"/><a  id="c363f" class="ITPR1 GeneProduct " transform="translate(8 8.9074)"   name="ITPR1"  ><rect id="c363f-icon" class="Icon" transform="matrix(.98901 0 0 .96154 .49451 .48077)" width="90" height="25" fill="#fff" stroke="#000"/><text id="c363f-text" class="Text" transform="translate(45,16.5)" fill="#000"  font-size="12px" stroke="white" stroke-width="0" text-anchor="middle"><tspan x="0" y="0">ITPR1</tspan></text></a><a  id="cb6a9" class="ITPR2 GeneProduct " transform="translate(111.45 8.1648)"   name="ITPR2"  ><rect id="cb6a9-icon" class="Icon" transform="matrix(.98901 0 0 .96154 .49451 .48077)" width="90" height="25" fill="#fff" stroke="#000"/><text id="cb6a9-text" class="Text" transform="translate(45,16.5)" fill="#000"  font-size="12px" stroke="white" stroke-width="0" text-anchor="middle"><tspan x="0" y="0">ITPR2</tspan></text></a><a  id="d26fb" class="ITPR3 GeneProduct " transform="translate(213.58 8)"   name="ITPR3"  ><rect id="d26fb-icon" class="Icon" transform="matrix(.98901 0 0 .96154 .49451 .48077)" width="90" height="25" fill="#fff" stroke="#000"/><text id="d26fb-text" class="Text" transform="translate(45,16.5)" fill="#000"  font-size="12px" stroke="white" stroke-width="0" text-anchor="middle"><tspan x="0" y="0">ITPR3</tspan></text></a></g><g id="b2a38" class="GroupGroup" transform="translate(269.62 793.18)" color="grey" ><use id="b2a38-icon" class="Icon" width="410.9673530888967" height="78.05077611154832" fill="transparent"  stroke="grey" stroke-dasharray="5,3" stroke-width="0" xlink:href="#none"/><a  id="ade6c" class="CALML5 GeneProduct " transform="translate(213.25 43.936)"   name="CALML5"  ><rect id="ade6c-icon" class="Icon" transform="matrix(.98901 0 0 .96154 .49451 .48077)" width="90" height="25" fill="#fff" stroke="#000"/><text id="ade6c-text" class="Text" transform="translate(45,16.5)" fill="#000"  font-size="12px" stroke="white" stroke-width="0" text-anchor="middle"><tspan x="0" y="0">CALML5</tspan></text></a><a  id="be303" class="CALM1 GeneProduct " transform="translate(49.781 8)"   name="CALM1"  ><rect id="be303-icon" class="Icon" transform="matrix(.98901 0 0 .96154 .49451 .48077)" width="90" height="25" fill="#fff" stroke="#000"/><text id="be303-text" class="Text" transform="translate(45,16.5)" fill="#000"  font-size="12px" stroke="white" stroke-width="0" text-anchor="middle"><tspan x="0" y="0">CALM1</tspan></text></a><a  id="c0a3d" class="CALML6 GeneProduct " transform="translate(312.97 45.051)"   name="CALML6"  ><rect id="c0a3d-icon" class="Icon" transform="matrix(.98901 0 0 .96154 .49451 .48077)" width="90" height="25" fill="#fff" stroke="#000"/><text id="c0a3d-text" class="Text" transform="translate(45,16.5)" fill="#000"  font-size="12px" stroke="white" stroke-width="0" text-anchor="middle"><tspan x="0" y="0">CALML6</tspan></text></a><a  id="c618f" class="CALML3 GeneProduct " transform="translate(8 44.91)"   name="CALML3"  ><rect id="c618f-icon" class="Icon" transform="matrix(.98901 0 0 .96154 .49451 .48077)" width="90" height="25" fill="#fff" stroke="#000"/><text id="c618f-text" class="Text" transform="translate(45,16.5)" fill="#000"  font-size="12px" stroke="white" stroke-width="0" text-anchor="middle"><tspan x="0" y="0">CALML3</tspan></text></a><a  id="ca502" class="CALML4 GeneProduct " transform="translate(110.87 44.644)"   name="CALML4"  ><rect id="ca502-icon" class="Icon" transform="matrix(.98901 0 0 .96154 .49451 .48077)" width="90" height="25" fill="#fff" stroke="#000"/><text id="ca502-text" class="Text" transform="translate(45,16.5)" fill="#000"  font-size="12px" stroke="white" stroke-width="0" text-anchor="middle"><tspan x="0" y="0">CALML4</tspan></text></a><a  id="d2be4" class="CALM2 GeneProduct " transform="translate(148.36 8.1959)"   name="CALM2"  ><rect id="d2be4-icon" class="Icon" transform="matrix(.98901 0 0 .96154 .49451 .48077)" width="90" height="25" fill="#fff" stroke="#000"/><text id="d2be4-text" class="Text" transform="translate(45,16.5)" fill="#000"  font-size="12px" stroke="white" stroke-width="0" text-anchor="middle"><tspan x="0" y="0">CALM2</tspan></text></a><a  id="f44e9" class="CALM3 GeneProduct " transform="translate(248.33 8.4953)"   name="CALM3"  ><rect id="f44e9-icon" class="Icon" transform="matrix(.98901 0 0 .95975 .49451 .47987)" width="90" height="23.842" fill="#fff" stroke="#000"/><text id="f44e9-text" class="Text" transform="translate(45 15.921)" fill="#000"  font-size="12px" stroke="white" stroke-width="0" text-anchor="middle"><tspan x="0" y="0">CALM3</tspan></text></a></g><g id="d31c8" class="GroupGroup" transform="translate(259.98 1069.3)" color="grey" ><use id="d31c8-icon" class="Icon" width="425.17127071823376" height="126.91160220994766" fill="transparent"  stroke="grey" stroke-dasharray="5,3" stroke-width="0" xlink:href="#none"/><a  id="e6684" class="ATF6B GeneProduct " transform="translate(272.92 93.856)"   name="ATF6B"  ><rect id="e6684-icon" class="Icon" transform="matrix(.98901 0 0 .96154 .49451 .48077)" width="90" height="25" fill="#fff" stroke="#000"/><text id="e6684-text" class="Text" transform="translate(45,16.5)" fill="#000"  font-size="12px" stroke="white" stroke-width="0" text-anchor="middle"><tspan x="0" y="0">ATF6B</tspan></text></a><a  id="e1c44" class="ATF2 GeneProduct " transform="translate(64.133 93.912)"   name="ATF2"  ><rect id="e1c44-icon" class="Icon" transform="matrix(.98901 0 0 .96154 .49451 .48077)" width="90" height="25" fill="#fff" stroke="#000"/><text id="e1c44-text" class="Text" transform="translate(45,16.5)" fill="#000"  font-size="12px" stroke="white" stroke-width="0" text-anchor="middle"><tspan x="0" y="0">ATF2</tspan></text></a><a  id="f58a7" class="ATF1 GeneProduct " transform="translate(327.17 53.083)"   name="ATF1"  ><rect id="f58a7-icon" class="Icon" transform="matrix(.98901 0 0 .96154 .49451 .48077)" width="90" height="25" fill="#fff" stroke="#000"/><text id="f58a7-text" class="Text" transform="translate(45,16.5)" fill="#000"  font-size="12px" stroke="white" stroke-width="0" text-anchor="middle"><tspan x="0" y="0">ATF1</tspan></text></a><a  id="ce19e" class="CREB5 GeneProduct " transform="translate(220.04 52.033)"   name="CREB5"  ><rect id="ce19e-icon" class="Icon" transform="matrix(.98901 0 0 .96154 .49451 .48077)" width="90" height="25" fill="#fff" stroke="#000"/><text id="ce19e-text" class="Text" transform="translate(45,16.5)" fill="#000"  font-size="12px" stroke="white" stroke-width="0" text-anchor="middle"><tspan x="0" y="0">CREB5</tspan></text></a><a  id="f8881" class="CREB3L4 GeneProduct " transform="translate(112.92 50.983)"   name="CREB3L4"  ><rect id="f8881-icon" class="Icon" transform="matrix(.98901 0 0 .96154 .49451 .48077)" width="90" height="25" fill="#fff" stroke="#000"/><text id="f8881-text" class="Text" transform="translate(45,16.5)" fill="#000"  font-size="12px" stroke="white" stroke-width="0" text-anchor="middle"><tspan x="0" y="0">CREB3L4</tspan></text></a><a  id="a7e7b" class="CREB3L3 GeneProduct " transform="translate(8 52.144)"   name="CREB3L3"  ><rect id="a7e7b-icon" class="Icon" transform="matrix(.98901 0 0 .96154 .49451 .48077)" width="90" height="25" fill="#fff" stroke="#000"/><text id="a7e7b-text" class="Text" transform="translate(45,16.5)" fill="#000"  font-size="12px" stroke="white" stroke-width="0" text-anchor="middle"><tspan x="0" y="0">CREB3L3</tspan></text></a><a  id="b1585" class="CREB3L2 GeneProduct " transform="translate(325.18 8)"   name="CREB3L2"  ><rect id="b1585-icon" class="Icon" transform="matrix(.98901 0 0 .96154 .49451 .48077)" width="90" height="25" fill="#fff" stroke="#000"/><text id="b1585-text" class="Text" transform="translate(45,16.5)" fill="#000"  font-size="12px" stroke="white" stroke-width="0" text-anchor="middle"><tspan x="0" y="0">CREB3L2</tspan></text></a><a  id="e4115" class="CREB3L1 GeneProduct " transform="translate(219.16 8.0552)"   name="CREB3L1"  ><rect id="e4115-icon" class="Icon" transform="matrix(.98901 0 0 .96154 .49451 .48077)" width="90" height="25" fill="#fff" stroke="#000"/><text id="e4115-text" class="Text" transform="translate(45,16.5)" fill="#000"  font-size="12px" stroke="white" stroke-width="0" text-anchor="middle"><tspan x="0" y="0">CREB3L1</tspan></text></a><a  id="fd906" class="CREB3 GeneProduct " transform="translate(112.03 8.1105)"   name="CREB3"  ><rect id="fd906-icon" class="Icon" transform="matrix(.98901 0 0 .96154 .49451 .48077)" width="90" height="25" fill="#fff" stroke="#000"/><text id="fd906-text" class="Text" transform="translate(45,16.5)" fill="#000"  font-size="12px" stroke="white" stroke-width="0" text-anchor="middle"><tspan x="0" y="0">CREB3</tspan></text></a><a  id="af393" class="CREB1 GeneProduct " transform="translate(8.221 9.2707)"   name="CREB1"  ><rect id="af393-icon" class="Icon" transform="matrix(.98901 0 0 .96154 .49451 .48077)" width="90" height="25" fill="#fff" stroke="#000"/><text id="af393-text" class="Text" transform="translate(45,16.5)" fill="#000"  font-size="12px" stroke="white" stroke-width="0" text-anchor="middle"><tspan x="0" y="0">CREB1</tspan></text></a><a  id="f9517" class="ATF4 GeneProduct " transform="translate(166.9 93.912)"   name="ATF4"  ><rect id="f9517-icon" class="Icon" transform="matrix(.98901 0 0 .96154 .49451 .48077)" width="90" height="25" fill="#fff" stroke="#000"/><text id="f9517-text" class="Text" transform="translate(45,16.5)" fill="#000"  font-size="12px" stroke="white" stroke-width="0" text-anchor="middle"><tspan x="0" y="0">ATF4</tspan></text></a></g><g id="a8677" class="Interaction" color="#000" ><g color="#000" fill="transparent"  filter="url(#kaavioblackto000000filter)" stroke="#000" stroke-dasharray="313.2067483890921, 11"><path id="a8677" class="EdgeBody" d="m531.98 1277.7 309.35 97.027"   marker-end="url(#markerEndMimCatalysis)" /></g></g><g id="d6ce1" class="Interaction" color="#000" ><g color="#000" fill="transparent"  filter="url(#kaavioblackto000000filter)" stroke="#000" stroke-dasharray="85.95840032987466, 1"><path id="d6ce1" class="EdgeBody" d="m475.48 426.91-78.974 36.398"   marker-end="url(#markerEndMimBinding)" /></g></g><g id="a1dd5" class="Interaction" color="#000" ><g color="#000" fill="transparent"  filter="url(#kaavioblackto000000filter)" stroke="#000" stroke-dasharray="35.451518373129616, 1"><path id="a1dd5" class="EdgeBody" d="m475.48 426.91-1.9744 36.398"   marker-end="url(#markerEndMimBinding)" /></g></g><g id="a5038" class="Interaction" color="#000" ><g color="#000" fill="transparent"  filter="url(#kaavioblackto000000filter)" stroke="#000" stroke-dasharray="37.66415997033627, 5.8"><path id="a5038" class="EdgeBody" d="m818.31 1374.4 43.461 0.54105"   marker-end="url(#markerEndMimConversion)" /></g><g id="e3bb3" class="Burr Anchor" transform="translate(841.32 1374.7)" ><use id="e3bb3-icon" class="Icon" width="0" height="0" fill="#141414" stroke-width="0" xlink:href="#none"/></g></g><a  id="cc44e" class="GeneProduct AGTR2 " transform="translate(366.5 463.31)"   name="AGTR2"  ><rect id="cc44e-icon" class="Icon" transform="matrix(.98361 0 0 .95238 .4918 .47619)" width="60" height="20" fill="#fff" stroke="#000"/><text id="cc44e-text" class="Text" transform="translate(30,13)" fill="#000"  font-size="10px" stroke="white" stroke-width="0" text-anchor="middle"><tspan x="0" y="0">AGTR2</tspan></text></a><a  id="f0ff0" class="GeneProduct AGTR1 " transform="translate(443.5 463.31)"   name="AGTR1"  ><rect id="f0ff0-icon" class="Icon" transform="matrix(.98361 0 0 .95238 .4918 .47619)" width="60" height="20" fill="#fff" stroke="#000"/><text id="f0ff0-text" class="Text" transform="translate(30,13)" fill="#000"  font-size="10px" stroke="white" stroke-width="0" text-anchor="middle"><tspan x="0" y="0">AGTR1</tspan></text></a><a id="a2b83" class="Metabolite ChEBI_CHEBI_27584  " transform="translate(861.77 1362.5)" color="#00f"  name="Aldosterone"  ><rect id="a2b83-icon" class="Icon" transform="matrix(.98996 0 0 .96154 .49498 .48077)" width="98.621" height="25" fill="#fff" stroke="#00f"/><text id="a2b83-text" class="Text" transform="translate(49.31 16.5)" fill="#00f"  font-size="12px" stroke="white" stroke-width="0" text-anchor="middle"><tspan x="0" y="0">Aldosterone</tspan></text></a><g id="f9d60" class="Label" transform="translate(283.27 133.89)" color="#999"  name="Molecular initiating events"><use id="f9d60-icon" class="Icon" width="239.9937304075238" height="35" fill="transparent"  stroke="#999" stroke-width="0" xlink:href="#none"/><text id="f9d60-text" class="Text" transform="translate(120 21.5)" fill="#999"  font-size="14px" font-weight="bold" stroke="black" stroke-width="0" text-anchor="middle"><tspan x="0" y="0">Molecular initiating events</tspan></text></g><g id="f3670" class="Interaction" color="#f00" ><g color="#f00" fill="transparent"  filter="url(#kaavioblacktoff0000filter)" stroke="#000" stroke-dasharray="107.5153358389164, 7"><path id="f3670" class="EdgeBody" d="m610.5 432.5-107 40.807"   marker-end="url(#markerEndMimInhibition)" /></g></g><g id="a2807" class="Interaction" color="#000" ><g color="#000" fill="transparent"  filter="url(#kaavioblackto000000filter)" stroke="#000" stroke-dasharray="98.036972966424, 11"><path id="a2807" class="EdgeBody" d="m531.98 1277.7-49.202 97.305"   marker-end="url(#markerEndMimCatalysis)" /></g></g><g id="cc259" class="Interaction" color="#000" ><g color="#000" fill="transparent"  filter="url(#kaavioblackto000000filter)" stroke="#000" stroke-dasharray="129.13736729521833, 11"><path id="cc259" class="EdgeBody" d="m531.98 1277.7 101.39 96.741"   marker-end="url(#markerEndMimCatalysis)" /></g></g><text id="WP4756-text" class="Text" transform="translate(5,27)" dominant-baseline="central" fill="black"  font-size="12px" font-weight="bold" overflow="visible" stroke="white" stroke-width="0"><tspan x="0" y="-9">Name: Renin-angiotensin-aldosterone system (RAAS)</tspan> <tspan x="0" y="9">Organism: Homo sapiens</tspan></text></g></svg>
