<?xml version="1.0" encoding="UTF-8"?>
<svg xmlns="http://www.w3.org/2000/svg" id="-svg" class="Diagram"  baseProfile="full" prefix="schema:http://schema.org/" preserveAspectRatio="xMidYMid"  version="1.1"><defs><g id="filter-defs"><filter id="doublefalse3filter" x="-50%" y="-50%" width="200%" height="200%"><feComposite in="SourceGraphic" in2="SourceGraphic" result="doubleDark"/><feMorphology in="doubleDark" operator="dilate" radius="0.17" result="in2Double"/><feMorphology in="SourceGraphic" operator="dilate" radius="3" result="inDouble"/><feComposite in="inDouble" in2="in2Double" operator="out" result="doubleResult"/></filter></g><g id="icon-defs"><symbol id="Ellipse" class=" Icon Ellipse" x="0" y="0" overflow="visible" preserveAspectRatio="none" viewBox="0 0 50 50"><desc>Ellipse</desc><ellipse cx="25" cy="25" rx="25" ry="25" vector-effect="non-scaling-stroke"/></symbol><symbol id="HexagonPathVisio" class=" Icon HexagonPathVisio" x="0" y="8" overflow="visible" preserveAspectRatio="none" viewBox="0 8 100 86"><desc>HexagonPathVisio</desc><g transform="scale(1 0.85)"><path d="m1.42 51.00 21.07-42.14h56.19l21.07 42.14-21.07 42.15h-56.19l-21.07-42.15z" stroke="currentColor" vector-effect="non-scaling-stroke"/></g></symbol><symbol id="Octagon" class=" Icon Octagon" x="0" y="0" overflow="visible" preserveAspectRatio="none" viewBox="0 0 100 100"><desc>Octagon</desc><path d="m0 25 25-25h50l25 25v50l-25 25h-50l-25-25z" vector-effect="non-scaling-stroke"/></symbol></g><g id="marker-defs"><marker id="memconversion000" markerHeight="12" markerWidth="12" orient="auto" preserveAspectRatio="none" refX="12" refY="6" viewBox="0 0 12 12"><g id="g-memconversion000" transform=""><g transform="rotate(180 6 6)"><rect y="5.4" width="2" height="1.2" style="stroke:#fff"/><polygon points="12 11 0 6 12 1" stroke-width="0"/></g></g></marker><marker id="mea" markerHeight="12" markerWidth="12" orient="auto" preserveAspectRatio="none" refX="12" refY="6" viewBox="0 0 12 12"><g id="g-mea" transform=""><g transform="rotate(180 6 6)"><rect y="5.4" width="2" height="1.2" style="stroke:#fff"/><polygon points="12 11 0 6 12 1" stroke-width="0"/></g></g></marker><marker id="memstimulation000" markerHeight="12" markerWidth="12" orient="auto" preserveAspectRatio="none" refX="12" refY="6" viewBox="0 0 12 12"><g id="g-memstimulation000" transform=""><g transform="rotate(180 6 6)"><rect y="5.4" width="2" height="1.2" style="stroke:none"/><line x1="12" x2="12" y1="6" y2="6" fill="none"/><polygon points="0 6 11 11 11 1" fill="#fff" stroke="#000"/></g></g></marker><marker id="markerendtbar000" markerHeight="20" markerWidth="10" orient="auto" preserveAspectRatio="none" refX="10" refY="10" viewBox="0 0 10 20"><g id="g-markerendtbar000" transform=""><g transform="rotate(180 5 10)"><rect y="9" width="8" height="2" style="stroke:none"/><line x="0" y="0" width="12" height="12" x1="7" x2="7" y2="20" stroke="#000" stroke-width="1.8"/></g></g></marker><marker id="meminhibition000" markerHeight="20" markerWidth="10" orient="auto" preserveAspectRatio="none" refX="10" refY="10" viewBox="0 0 10 20"><g id="g-meminhibition000" transform=""><g transform="rotate(180 5 10)"><rect y="9" width="8" height="2" style="stroke:none"/><line x="0" y="0" width="12" height="12" x1="7" x2="7" y2="20" stroke="#000" stroke-width="1.8"/></g></g></marker><marker id="memcatalysis000" markerHeight="12" markerWidth="12" orient="auto" preserveAspectRatio="none" refX="12" refY="6" viewBox="0 0 12 12"><g id="g-memcatalysis000" transform=""><g transform="rotate(180 6 6)"><circle cx="6" cy="6" r="5.3px" fill="#fff" stroke="#000"/></g></g></marker></g></defs><g id="viewport-20220102144409052" class="svg-pan-zoom_viewport" transform="matrix(0.36 0 0 0.36 75.91 0)" style="transform:matrix(0.36, 0, 0, 0.36, 75.91, 0)"><style>svg.Diagram {font-family: 'Liberation Sans', Arial, sans-serif; }.Diagram path {fill: transparent;stroke: #000;marker-end: url(#mea);}.Diagram symbol path {fill: inherit;stroke: inherit;stroke-width: inherit;marker-end: inherit;}.Diagram rect {fill: #fff;stroke: #000;}.Diagram text {dominant-baseline: central;overflow: hidden;text-anchor: middle;fill: #000;font-size: 12px;}</style><style type="text/css">.Viewport .textContent {
  pointer-events: none;
  stroke-width: 0px;
}

					.Viewport.Icon {
  fill: white;
}

/* Hide the InfoBox */
.Viewport.textContent {
  font-size: 0;
}

.textContent {
  stroke: none;
}

.DataNode {
  stroke-miterlimit: 1;
  pointer-events: auto;
}

.DataNode:hover {
  cursor: pointer;
}

/* TODO should this apply to things other than DataNodes? */
.DataNode.textContent {
  pointer-events: none;
}

.DataNode.Highlighted {
  opacity: 0.6;
  stroke-width: 0px;
}

marker {
  /* this is what should work per the spec
  stroke-dasharray: none; */
  /* but I need to add this to make it work in Safari */
  stroke-dasharray: 9999999999999999999999999;
}

.Citation.Icon {
  fill: none;
  stroke-width: 0px;
}

.Citation.textContent {
  text-align: center;
  vertical-align: top;
  font-size: 7px;
  fill: #999;
  fill-opacity: 1;
  stroke: none;
}</style><g id="WP4790" class="Pathway http___identifiers_org_pw_PW_0001181 Viewport"  name="Name: FGF23 signaling in hypophosphatemic rickets and related disorders Organism: Homo sapiens" ><g class="Pathway http___identifiers_org_pw_PW_0001181 Viewport"><rect   width="2906.5" height="1855.1" style="stroke:none"/><g id="id1134774a" class="Edge"  ><path    d="m787.72 1278.6-1e-13 69.86" style="marker-end:url(#memconversion000)"/></g><g id="id10a5513b" class="Edge"  ><path    d="m517.22 434.83-74.23-1.56" stroke-dasharray="5,3"/></g><g id="id1a17e332" class="Edge"  ><path    d="m683.64 710.34h-50.80" style="marker-end:url(#memconversion000)"/></g><g id="id2acabefc" class="Edge"  ><path    d="m927.79 319.42v164.61" style="marker-end:url(#memstimulation000)"/></g><g id="id2bea05e5" class="Edge"  ><path    d="m612.66 1146.4 24.15 107.15" style="marker-end:url(#meminhibition000)"/></g><g id="id340801b1" class="Edge"  ><path    d="m966.61 1230.5-1e-13 112.61" style="marker-end:url(#meminhibition000)"/></g><g id="id340c7c76" class="Edge"  ><path    d="m923.93 682.93 1e-13 348.7" style="marker-end:url(#memconversion000)"/></g><g id="id382374ae" class="Edge"  ><path    d="m1196.4 1144.4-28.69 61.11" style="marker-end:url(#meminhibition000)"/></g><g id="id38a92d78" class="Edge"  ><path    d="m905.29 509.03-3.86 148.9" style="marker-end:url(#memstimulation000)"/></g><g id="id3e542aec" class="Edge"  ><path    d="m1100.2 1218h-80.91" style="marker-end:url(#meminhibition000)"/></g><g id="id41762369" class="Edge"  ><path    d="m773.64 704.09 105.29-27.41" style="marker-end:url(#meminhibition000)"/></g><g id="id4252e0e6" class="Edge"  ><path    d="m866.54 1044.1-429.21 2e-13" style="marker-end:url(#memconversion000)"/></g><g id="id503e6075" class="Edge"  ><path    d="m2566.2 1413.1 141.79-14.69" style="marker-end:url(#meminhibition000)"/></g><g id="id5066ecb7" class="Edge"  ><path    d="m2313.7 1383.7 129.2-42.37" style="marker-end:url(#meminhibition000)"/></g><g id="id5b07051e" class="Edge"  ><path    d="m992.95 1230.5v74.93h79.20" style="marker-end:url(#markerendtbar000)"/></g><g id="id5fb03617" class="Edge"  ><path    d="m584.04 1146.4-59.49 107.15" style="marker-end:url(#memconversion000)"/></g><g id="id69906284" class="Edge"  ><path    d="m2521.2 1425.6v54.56" style="marker-end:url(#meminhibition000)"/></g><g id="id6d47a466" class="Edge"  ><path    d="m966.61 1378.8-205.01 114.56" style="marker-end:url(#meminhibition000)"/></g><g id="id6de127c4" class="Edge"  ><path    d="m1118.3 341.68-194.33 316.25" style="marker-end:url(#memstimulation000)"/></g><g id="id6e499b77" class="Edge"  ><path    d="m1035.6 1144.4 87.12 61.11" style="marker-end:url(#meminhibition000)"/></g><g id="id704ae2aa" class="Edge"  ><path    d="m981.31 1044.1h20v168.62h937.18" style="marker-end:url(#meminhibition000)"/><g id="c9f88" class="AB" transform="translate(1794.9 1212.7)"  ><g class="AB"/></g></g><g id="id330a96f8" class="Edge"  ><path    d="m1794.9 1212.7 143.56 243.18" style="marker-end:url(#meminhibition000)"/></g><g id="id4e67847d" class="Edge"  ><path    d="m1794.9 1212.7 143.56-148.19" style="marker-end:url(#memconversion000)"/></g><g id="id7fb1e78f" class="Edge"  ><path    d="m641.29 1146.4 146.43 107.15" style="marker-end:url(#meminhibition000)"/></g><g id="id837332d4" class="Edge"  ><path    d="m1448.5 519.57v153.67" style="marker-end:url(#memconversion000)"/><g id="c2e3e" class="AB" transform="translate(1448.5 581.04)"  ><g class="AB"/></g></g><g id="id89106357" class="Edge"  ><path    d="m2250.3 1077.1v121.18" style="marker-end:url(#memconversion000)"/></g><g id="id89a735e7" class="Edge"  ><path    d="m291.15 1011.9v128.25h264.26" style="marker-end:url(#memconversion000)"/></g><g id="id8d092068" class="Edge"  ><path    d="m1794.9 1212.7 143.56-246.89" style="marker-end:url(#meminhibition000)"/></g><g id="id9032afe1" class="Edge"  ><path    d="m565.24 722.84-1.09 77.11" style="marker-end:url(#memcatalysis000)"/></g><g id="id90dc483" class="Edge"  ><path    d="m1391.2 437.59-422.32 226.58" style="marker-end:url(#memstimulation000)"/></g><g id="id91d1c6d7" class="Edge"  ><path    d="m723.65 812.45-99.07 1e-13" style="marker-end:url(#meminhibition000)"/></g><g id="id978a83f6" class="Edge"  ><path    d="m1351.7 326.06-143.24 117.86" style="marker-end:url(#memstimulation000)"/></g><g id="id98d19edc" class="Edge"  ><path    d="m2028.5 1064.6h176.83" style="marker-end:url(#meminhibition000)"/></g><g id="id9c81365a" class="Edge"  ><path    d="m923.93 1056.6 111.63 62.76" style="marker-end:url(#memconversion000)"/></g><g id="id9c9b71d3" class="Edge"  ><path    d="m812.57 509.03 66.36 155.15" style="marker-end:url(#meminhibition000)"/></g><g id="ida2e0f42a" class="Edge"  ><path    d="m2313.7 1396.2 162.5 16.95" style="marker-end:url(#meminhibition000)"/></g><g id="ida92abbc" class="Edge"  ><path    d="m1135.2 1317.9 1.40 157.68" style="marker-end:url(#meminhibition000)"/></g><g id="idab6f7843" class="Edge"  ><path    d="m2028.5 1378.6 168.39 82.37" style="marker-end:url(#meminhibition000)"/></g><g id="idabd54b8d" class="Edge"  ><path    d="m392.33 1056.6v71.06h163.08" style="marker-end:url(#meminhibition000)"/></g><g id="idaf61273d" class="Edge"  ><path    d="m2599.5 1341.3 108.49 44.63" style="marker-end:url(#meminhibition000)"/></g><g id="idb216fe11" class="Edge"  ><path    d="m636.81 1278.6 91.43 207.86" style="marker-end:url(#memconversion000)"/></g><g id="idb7804764" class="Edge"  ><path    d="m1423.6 799.74h-477.2v-116.81" style="marker-end:url(#memstimulation000)"/></g><g id="idbf6189b7" class="Edge"  ><path    d="m2250.3 1454.8v-52.35" style="marker-end:url(#memconversion000)"/></g><g id="idc08975ca" class="Edge"  ><path    d="m1496.2 581.08-47.71-0.04" style="marker-end:url(#memcatalysis000)"/></g><g id="idc66a6940" class="Edge"  ><path    d="m1794.9 1212.7 143.56 165.89" style="marker-end:url(#meminhibition000)"/></g><g id="idc8c14098" class="Edge"  ><path    d="m1403.5 685.74-97.91-43.03" style="marker-end:url(#memstimulation000)"/></g><g id="idcc5bbd86" class="Edge"  ><path    d="m2250.3 1223.2v154.17" style="marker-end:url(#meminhibition000)"/></g><g id="idcd973889" class="Edge"  ><path    d="m1147.2 476.35-200.81 181.58" style="marker-end:url(#memstimulation000)"/></g><g id="idd93f164e" class="Edge"  ><path    d="m952.62 1056.6 243.75 62.76" style="marker-end:url(#memconversion000)"/></g><g id="ide1dd79e5" class="Edge"  ><path    d="m669.92 1133.9h270.37v71.55" style="marker-end:url(#meminhibition000)"/></g><g id="ide1f3795d" class="Edge"  ><path    d="m1116.9 642.71-147.96 27.72" style="marker-end:url(#memstimulation000)"/></g><g id="ide8175012" class="Edge"  ><path    d="m2028.5 1455.9 168.39 17.58" style="marker-end:url(#meminhibition000)"/></g><g id="idead9f6d9" class="Edge"  ><path    d="m2028.5 965.86 199.33 86.20" style="marker-end:url(#memconversion000)"/></g><g id="idec573788" class="Edge"  ><path    d="m1118.3 277.98-2e-13 38.70" style="marker-end:url(#memconversion000)"/></g><g id="idecc3cc4b" class="Edge"  ><path    d="m832.72 1361 85.29 2e-13" style="marker-end:url(#memconversion000)"/></g><g id="idee07c11d" class="Edge"  ><path    d="m895.24 1031.6v-32.19h-559.09" style="marker-end:url(#meminhibition000)"/></g><g id="idf7099a82" class="Edge"  ><path    d="m990.91 1378.8 100.69 96.81" style="marker-end:url(#meminhibition000)"/></g><g id="idf7328db4" class="Edge"  ><path    d="m2028.5 1212.7 199.33-135.69" style="marker-end:url(#memconversion000)"/></g><g id="idfd564d93" class="Edge"  ><path    d="m524.54 1278.6 170.35 214.77" style="marker-end:url(#meminhibition000)"/></g><g id="idf9ca0049" class="Edge"  ><path    d="m1052.6 726.73-83.65-50.05" style="marker-end:url(#memstimulation000)"/></g><g id="id157490ad" class="Edge"  ><path    d="m584.72 447.33 24.23 119.83" style="marker-end:url(#memconversion000)"/></g><g id="id2be206de" class="Edge"  ><path    d="m694.44 604.16 184.48 66.27" style="marker-end:url(#markerendtbar000)"/></g><g id="id7529a2db" class="Edge"  ><path    d="m637.44 641.16v29.20h-72.20v27.49" style="marker-end:url(#memconversion000)"/></g><g id="ided84d13e" class="Edge"  ><path    d="m663.45 447.33-26.00 119.83" style="marker-end:url(#memconversion000)"/></g><g id="id9c92eee" class="Edge"  ><path    d="m1403.5 685.74-86.92 40.99" style="marker-end:url(#memstimulation000)"/></g><g id="idd16119c9" class="Edge"  ><path    d="m1210.6 726.73h-52.01" style="marker-end:url(#memstimulation000)"/></g><g id="a3e4a" class=" PhysicalEntity CellularComponent Nucleus" transform="translate(824.29 591.05)"  ><g class=" PhysicalEntity CellularComponent Nucleus" filter="url(#doublefalse3filter)"><g class=" PhysicalEntity CellularComponent Nucleus"><use class=" PhysicalEntity CellularComponent Nucleus Node Icon" transform="matrix(0.95 0 0 0.93 5.67 5.55)" width="208.61" height="149.42" fill="transparent" stroke="#c0c0c0" stroke-width="3" href="#Ellipse"/></g></g></g><g id="c26f3" class=" PhysicalEntity CellularComponent Cell" transform="translate(465.22 360.07)"  name="Osteoblast" ><g class=" PhysicalEntity CellularComponent Cell" filter="url(#doublefalse3filter)"><g class=" PhysicalEntity CellularComponent Cell"><rect   transform="matrix(0.99 0 0 0.99 5.92 5.94)" width="883.15" height="1219.7" rx="15" ry="15" stroke-width="3" style="fill:transparent;stroke:#c0c0c0"/></g></g><g ><defs><clipPath ><rect x="-8" y="-1205.1" width="883.15" height="1219.7" style="stroke:none"/></clipPath></defs><text   transform="translate(8 1205.1)"     style="fill:#c0c0c0;text-anchor:start">Osteoblast</text></g></g><g id="c7735" class=" PhysicalEntity CellularComponent Cell" transform="translate(1689.9 891.67)"  name="Systemic circulation" ><g class=" PhysicalEntity CellularComponent Cell" filter="url(#doublefalse3filter)"><g class=" PhysicalEntity CellularComponent Cell"><rect   transform="matrix(0.99 0 0 0.98 5.94 5.90)" width="1188.1" height="720.91" rx="15" ry="15" stroke-width="3" style="fill:transparent;stroke:#c0c0c0"/></g></g><g ><defs><clipPath ><rect x="-8" y="-706.31" width="1188.1" height="720.91" style="stroke:none"/></clipPath></defs><text   transform="translate(8 706.31)"     style="fill:#c0c0c0;text-anchor:start">Systemic circulation</text></g></g><g id="d2c19" class=" PhysicalEntity CellularComponent Cell" transform="translate(2157.5 1137.2)"  name="Gastro-intestinal tract" ><g class=" PhysicalEntity CellularComponent Cell" filter="url(#doublefalse3filter)"><g class=" PhysicalEntity CellularComponent Cell"><rect   transform="matrix(0.94 0 0 0.92 5.64 5.55)" width="188.41" height="146.99" rx="15" ry="15" stroke-width="3" style="fill:transparent;stroke:#c0c0c0"/></g></g><g ><defs><clipPath ><rect x="-180.41" y="-132.39" width="188.41" height="146.99" style="stroke:none"/></clipPath></defs><text   transform="translate(180.41 132.39)"     style="fill:#c0c0c0;text-anchor:end">Gastro-intestinal tract</text></g></g><g id="e0bcb" class=" PhysicalEntity CellularComponent Cell" transform="translate(2651.8 1301.8)"  name="Osteoblast" ><g class=" PhysicalEntity CellularComponent Cell" filter="url(#doublefalse3filter)"><g class=" PhysicalEntity CellularComponent Cell"><rect   transform="matrix(0.94 0 0 0.94 5.63 5.63)" width="183.88" height="180.72" rx="15" ry="15" stroke-width="3" style="fill:transparent;stroke:#c0c0c0"/></g></g><g ><defs><clipPath ><rect x="-175.88" y="-166.12" width="183.88" height="180.72" style="stroke:none"/></clipPath></defs><text   transform="translate(175.88 166.12)"     style="fill:#c0c0c0;text-anchor:end">Osteoblast</text></g></g><g id="e270b" class=" PhysicalEntity CellularComponent Cell" transform="translate(1904.6 1143.1)"  name="Thyroid gland" ><g class=" PhysicalEntity CellularComponent Cell" filter="url(#doublefalse3filter)"><g class=" PhysicalEntity CellularComponent Cell"><rect   transform="matrix(0.93 0 0 0.92 5.58 5.52)" width="157.79" height="139.23" rx="15" ry="15" stroke-width="3" style="fill:transparent;stroke:#c0c0c0"/></g></g><g ><defs><clipPath ><rect x="-149.79" y="-124.63" width="157.79" height="139.23" style="stroke:none"/></clipPath></defs><text   transform="translate(149.79 124.63)"     style="fill:#c0c0c0;text-anchor:end">Thyroid gland</text></g></g><g id="a182f" class="Label" transform="translate(1116.6 443.92)"  name="Stabilisation of nuclear alphaHIF-1" ><g class="Label"/><text   transform="translate(61.26 16.22)"    ><tspan   x="0" y="-6.60">Stabilisation of</tspan><tspan   x="0" y="6.60">nuclear alphaHIF-1</tspan></text></g><g id="a5e83" class="Label" transform="translate(2196.9 1454.8)"  name="Phosphate loss" ><g class="Label"/><text   transform="translate(53.44 12.5)"    >Phosphate loss</text></g><g id="a6f49" class="Label" transform="translate(2205.3 1198.2)"  name="Phosphate absorption" ><g class="Label"/><text   transform="translate(45,12.5)"    ><tspan   x="0" y="-6.60">Phosphate</tspan><tspan   x="0" y="6.60">absorption</tspan></text></g><g id="ac81f" class="Label" transform="translate(1391.2 425.09)"  name="Activated renin angiotensin system" ><g class="Label"/><text   transform="translate(103.9 12.5)"    >Activated renin angiotensin system</text></g><g id="b2709" class="Label" transform="translate(2476.2 1480.2)"  name="Malacia" ><g class="Label"/><text   transform="translate(45,12.5)"    >Malacia</text></g><g id="b3d6a" class="Label" transform="translate(1053.7 316.68)"  name="KLOTHO deficiency" ><g class="Label"/><text   transform="translate(64.58 12.5)"    >KLOTHO deficiency</text></g><g id="b8460" class="Label" transform="translate(2205.3 1052.1)"  name="Calcitrol" ><g class="Label"/><text   transform="translate(45,12.5)"    >Calcitrol</text></g><g id="c0229" class="Label" transform="translate(918.01 1343.1)"  name="Hydroxyapatite formation" ><g class="Label"/><text   transform="translate(48.60 17.85)"    ><tspan   x="0" y="-6.60">Hydroxyapatite</tspan><tspan   x="0" y="6.60">formation</tspan></text></g><g id="c44de" class="Label" transform="translate(503.74 799.95)"  name="FGF23 degradation" ><g class="Label"/><text   transform="translate(60.42 12.5)"    >FGF23 degradation</text></g><g id="cff34" class="Label" transform="translate(2186.9 1377.4)"  name="Hypophosphataemia" ><g class="Label"/><text   transform="translate(63.38 12.5)"    >Hypophosphataemia</text></g><g id="d0fb9" class="Label" transform="translate(1069.1 1475.6)"  name="Osteomalacia" ><g class="Label"/><text   transform="translate(45,12.5)"    >Osteomalacia</text></g><g id="d3d01" class="Label" transform="translate(2476.2 1400.6)"  name="Hydroxyapatite" ><g class="Label"/><text   transform="translate(45,12.5)"    >Hydroxyapatite</text></g><g id="d8d15" class="Label" transform="translate(742.72 1348.5)"  name="pASARM" ><g class="Label"/><text   transform="translate(45,12.5)"    >pASARM</text></g><g id="d9a19" class="Label" transform="translate(1403.5 673.24)"  name="Calcitrol" ><g class="Label"/><text   transform="translate(45,12.5)"    >Calcitrol</text></g><g id="daa0d" class="Label" transform="translate(694.89 1486.4)"  name="Rickets" ><g class="Label"/><text   transform="translate(33.35 13.83)"    >Rickets</text></g><g id="df7c4" class="Label" transform="translate(2708 1379.7)"  name="Rickets" ><g class="Label"/><text   transform="translate(35.76 12.5)"    >Rickets</text></g><g id="e2b56" class="Label" transform="translate(2442.9 1328.8)"  name="Chondrocyte differentiation" ><g class="Label"/><text   transform="translate(78.30 12.5)"    >Chondrocyte differentiation</text></g><g id="f5df9" class="Label" transform="translate(1116.9 630.21)"  name="Actin skeleton reorganisation" ><g class="Label"/><text   transform="translate(94.36 12.5)"    >Actin skeleton reorganisation</text></g><g id="f5ea1" class="Label" transform="translate(1072.1 1292.9)"  name="Phosphate liberated from pyrophosphate" ><g class="Label"/><text   transform="translate(63.05 12.5)"    ><tspan   x="0" y="-6.60">Phosphate liberated</tspan><tspan   x="0" y="6.60">from pyrophosphate</tspan></text></g><g id="f68c1" class="Label" transform="translate(497.65 697.84)"  name="Proprotein convertases" ><g class="Label"/><text   transform="translate(67.59 12.5)"    >Proprotein convertases</text></g><g id="f9282" class="Label" transform="translate(1329.2 301.06)"  name="Iron deficiency" ><g class="Label"/><text   transform="translate(45,12.5)"    >Iron deficiency</text></g><g id="fc3fe" class="Label" transform="translate(866.54 1031.6)"  name="FGF23 signalling" ><g class="Label"/><text   transform="translate(57.38 12.5)"    >FGF23 signalling</text></g><g id="a1b54" class="Metabolite " transform="translate(1423.6 781.87)"  name="calcium" ><rect   width="103.69" height="35.74" style="stroke:#00f"/><text   transform="translate(51.85 17.87)"     style="fill:#00f">calcium</text></g><g id="a1ddd" class="GeneProduct " transform="translate(990.56 1119.4)"  name="FGFR3" ><rect   width="90" height="25"/><text   transform="translate(45,12.5)"    >FGFR3</text></g><g id="a9aac" class="GeneProduct " transform="translate(882.79 484.03)"  name="ROS1" ><rect   width="90" height="25"/><text   transform="translate(45,12.5)"    >ROS1</text></g><g id="ada91" class="GeneProduct " transform="translate(517.22 422.33)"  name="DMP1" ><rect   width="90" height="25"/><text   transform="translate(45,12.5)"    >DMP1</text></g><g id="b01a6" class="GeneProduct " transform="translate(683.64 697.84)"  name="FAM20C" ><rect   width="90" height="25"/><text   transform="translate(45,12.5)"    >FAM20C</text></g><g id="c2929" class="GeneProduct " transform="translate(1073.3 252.98)"  name="KL" ><rect   width="90" height="25"/><g id="bb27d" class="State Burr" transform="translate(-7.5,-7.5)"  ><g class="State Burr"><use class="State Burr Node Icon" width="15" height="15" fill="#fff" stroke="#000" href="#HexagonPathVisio"/></g></g><text   transform="translate(45,12.5)"    >KL</text></g><g id="c2f3b" class="GeneProduct " transform="translate(1938.5 1200.2)"  name="PTH" ><rect   width="90" height="25"/><text   transform="translate(45,12.5)"    >PTH</text></g><g id="c94fa" class="GeneProduct " transform="translate(591.81 1253.6)"  name="CCND1" ><rect   width="90" height="25"/><text   transform="translate(45,12.5)"    >CCND1</text></g><g id="cb0bd" class="GeneProduct " transform="translate(723.65 799.95)"  name="GALNT3" ><rect   width="90" height="25"/><text   transform="translate(45,12.5)"    >GALNT3</text></g><g id="d0e52" class="GeneProduct " transform="translate(1100.2 1205.5)"  name="ALPL" ><rect   width="90" height="25"/><text   transform="translate(45,12.5)"    >ALPL</text></g><g id="d1aad" class="Metabolite " transform="translate(1385 494.57)"  name="25-Hydroxyvitamin D" ><rect   width="126.95" height="25" style="stroke:#00f"/><text   transform="translate(63.48 12.5)"     style="fill:#00f">25-Hydroxyvitamin D</text></g><g id="d9da4" class="GeneProduct " transform="translate(878.93 657.93)"  name="FGF23" ><rect   width="90" height="25"/><text   transform="translate(45,12.5)"    >FGF23</text></g><g id="daae4" class="GeneProduct " transform="translate(742.72 1253.6)"  name="SPP1" ><rect   width="90" height="25"/><text   transform="translate(45,12.5)"    >SPP1</text></g><g id="dc7da" class="GeneProduct " transform="translate(1496.2 568.58)"  name="CYP27B1" ><rect   width="90" height="25"/><text   transform="translate(45,12.5)"    >CYP27B1</text></g><g id="dcb79" class="GeneProduct " transform="translate(1938.5 1366.1)"  name="SLC34A1" ><rect   width="90" height="25"/><text   transform="translate(45,12.5)"    >SLC34A1</text></g><g id="de3b1" class="Metabolite " transform="translate(882.79 294.42)"  name="Phosphorous" ><rect   width="90" height="25" style="stroke:#00f"/><text   transform="translate(45,12.5)"     style="fill:#00f">Phosphorous</text></g><g id="f352b" class="Metabolite " transform="translate(913.95 1205.5)"  name="Pyrophosphate" ><rect   width="105.32" height="25" style="stroke:#00f"/><text   transform="translate(52.66 12.5)"     style="fill:#00f">Pyrophosphate</text></g><g id="faa86" class="GeneProduct " transform="translate(479.54 1253.6)"  name="CDKN1A" ><rect   width="90" height="25"/><text   transform="translate(45,12.5)"    >CDKN1A</text></g><g id="fd9c5" class="GeneProduct " transform="translate(745.07 484.03)"  name="ENPP1" ><rect   width="90" height="25"/><text   transform="translate(45,12.5)"    >ENPP1</text></g><g id="b284f" class="GroupGroup" transform="translate(1052.6 693.73)"  ><g class="GroupGroup"><g id="aa190" class="GeneProduct " transform="translate(8,8)"  name="ORAI1" ><rect   width="90" height="25"/><text   transform="translate(45,12.5)"    >ORAI1</text></g><g id="acf8f" class="GeneProduct " transform="translate(8,33)"  name="CYP11B2" ><rect   width="90" height="25"/><text   transform="translate(45,12.5)"    >CYP11B2</text></g></g></g><g id="b2c8f" class="GroupComplex" transform="translate(580.44 567.16)"  ><g class="GroupComplex"><use class="Icon" width="114" height="74" fill="#b4b464" fill-opacity=".1" stroke="grey" href="#Octagon"/><g id="a9670" class="GeneProduct " transform="translate(12,37)"  name="DMP1" ><rect   width="90" height="25"/><text   transform="translate(45,12.5)"    >DMP1</text></g><g id="b3d48" class="GeneProduct " transform="translate(12,12)"  name="PHEX" ><rect   width="90" height="25"/><text   transform="translate(45,12.5)"    >PHEX</text></g></g></g><g id="ff88c" class="GroupGroup" transform="translate(1210.6 693.73)"  ><g class="GroupGroup"><g id="cfd0b" class="GeneProduct " transform="translate(8,33)"  name="NFKB2" ><rect   width="90" height="25"/><text   transform="translate(45,12.5)"    >NFKB2</text></g><g id="e42aa" class="GeneProduct " transform="translate(8,8)"  name="NFKB1" ><rect   width="90" height="25"/><text   transform="translate(45,12.5)"    >NFKB1</text></g></g></g><g id="ee3a9" class="GeneProduct " transform="translate(640.95 422.33)"  name="PHEX" ><rect   width="90" height="25"/><text   transform="translate(45,12.5)"    >PHEX</text></g><g id="f5091" class="GeneProduct " transform="translate(246.15 986.94)"  name="CYP27B1" ><rect   width="90" height="25"/><text   transform="translate(45,12.5)"    >CYP27B1</text></g><g id="d620b" class="GeneProduct " transform="translate(347.33 1031.6)"  name="CYP24A1" ><rect   width="90" height="25"/><text   transform="translate(45,12.5)"    >CYP24A1</text></g><g id="eb6dc" class="Label" transform="translate(555.41 1121.4)"  name="Locally produced calcitrol" ><g class="Label"/><text   transform="translate(57.25 12.5)"    ><tspan   x="0" y="-6.60">Locally produced</tspan><tspan   x="0" y="6.60">calcitrol</tspan></text></g><g id="ad41b" class="GeneProduct " transform="translate(1151.4 1119.4)"  name="FGFR2" ><rect   width="90" height="25"/><text   transform="translate(45,12.5)"    >FGFR2</text></g><g id="b3013" class="GeneProduct " transform="translate(1938.5 953.36)"  name="CYP27B1" ><rect   width="90" height="25"/><text   transform="translate(45,12.5)"    >CYP27B1</text></g><g id="d7405" class="GeneProduct " transform="translate(1938.5 1052.1)"  name="CYP24A1" ><rect   width="90" height="25"/><text   transform="translate(45,12.5)"    >CYP24A1</text></g><g id="b9e9f" class=" PhysicalEntity CellularComponent Cell" transform="translate(1904.6 1314.7)"  name="Kidney" ><g class=" PhysicalEntity CellularComponent Cell" filter="url(#doublefalse3filter)"><g class=" PhysicalEntity CellularComponent Cell"><rect   transform="matrix(0.93 0 0 0.95 5.58 5.67)" width="157.79" height="207.3" rx="15" ry="15" stroke-width="3" style="fill:transparent;stroke:#c0c0c0"/></g></g><g ><defs><clipPath ><rect x="-149.79" y="-192.7" width="157.79" height="207.3" style="stroke:none"/></clipPath></defs><text   transform="translate(149.79 192.7)"     style="fill:#c0c0c0;text-anchor:end">Kidney</text></g></g><g id="b1fd5" class="GeneProduct " transform="translate(1938.5 1443.4)"  name="SLC34A3" ><rect   width="90" height="25"/><text   transform="translate(45,12.5)"    >SLC34A3</text></g><g id="a2ece" class="GroupGroup" transform="translate(986.14 835.12)"  ><g class="GroupGroup"><g id="pvjsgeneratedidfc3ff" class="Label" transform="translate(8,8)"  name="OMIM:617993 Tumoral Calcinosis, Hyperphosphatemic, Familial, 2" ><rect   width="293.78" height="39" rx="15" ry="15" style="fill:#ffcece;stroke:#00f"/><text   transform="translate(146.89 19.5)"     style="fill:#00f"><tspan   x="0" y="-6.60">OMIM:617993</tspan><tspan   x="0" y="6.60">Tumoral Calcinosis, Hyperphosphatemic, Familial, 2</tspan></text></g><g id="d6c3b" class="Label" transform="translate(9.39 47)"  name="OMIM:193100 Hypophosphatemic Rickets, Autosomal Dominant" ><rect   width="291" height="39" rx="15" ry="15" style="fill:#ffcece;stroke:#00f"/><text   transform="translate(145.5 19.5)"     style="fill:#00f"><tspan   x="0" y="-6.60">OMIM:193100</tspan><tspan   x="0" y="6.60">Hypophosphatemic Rickets, Autosomal Dominant</tspan></text></g></g></g><g id="d4303" class="Label" transform="translate(139.24 642.04)"  name="OMIM:241520 Hypophosphatemic Rickets, Autosomal Recessive, 1" ><rect   width="303.81" height="39" rx="15" ry="15" style="fill:#ffcece;stroke:#00f"/><text   transform="translate(151.91 19.5)"     style="fill:#00f"><tspan   x="0" y="-6.60">OMIM:241520</tspan><tspan   x="0" y="6.60">Hypophosphatemic Rickets, Autosomal Recessive, 1</tspan></text></g><g id="b758b" class="Label" transform="translate(639.04 231.61)"  name="OMIM:613312 Hypophosphatemic Rickets, Autosomal Recessive, 2" ><rect   width="302.05" height="39" rx="15" ry="15" style="fill:#ffcece;stroke:#00f"/><text   transform="translate(151.03 19.5)"     style="fill:#00f"><tspan   x="0" y="-6.60">OMIM:613312</tspan><tspan   x="0" y="6.60">Hypophosphatemic Rickets, Autosomal Recessive, 2</tspan></text></g><g id="ab518" class="Label" transform="translate(139.31 413.77)"  name="OMIM:241520 Hypophosphatemic Rickets, Autosomal Recessive, 1" ><rect   width="303.68" height="39" rx="15" ry="15" style="fill:#ffcece;stroke:#00f"/><text   transform="translate(151.84 19.5)"     style="fill:#00f"><tspan   x="0" y="-6.60">OMIM:241520</tspan><tspan   x="0" y="6.60">Hypophosphatemic Rickets, Autosomal Recessive, 1</tspan></text></g><g id="c2ca0" class="Label" transform="translate(1830.9 825.49)"  name="OMIM:264700 Vitamin D Hydroxylation-Deficient Rickets, Type 1A" ><rect   width="305.21" height="39" rx="15" ry="15" style="fill:#ffcece;stroke:#00f"/><text   transform="translate(152.61 19.5)"     style="fill:#00f"><tspan   x="0" y="-6.60">OMIM:264700</tspan><tspan   x="0" y="6.60">Vitamin D Hydroxylation-Deficient Rickets, Type 1A</tspan></text></g><g id="e1101" class="GroupGroup" transform="translate(1350.5 1069.6)"  ><g class="GroupGroup"><g id="pvjsgeneratedidfd9c6" class="Label" transform="translate(39.27 180.31)"  name="OMIM:146000 Hypochondroplasia" ><rect   width="206.29" height="39" rx="15" ry="15" style="fill:#ffcece;stroke:#00f"/><text   transform="translate(103.14 19.5)"     style="fill:#00f"><tspan   x="0" y="-6.60">OMIM:146000</tspan><tspan   x="0" y="6.60">Hypochondroplasia</tspan></text></g><g id="pvjsgeneratedidfd9c7" class="Label" transform="translate(43.68 219.31)"  name="OMIM:610474 Camptodactyly, Tall Stature,  And Hearing Loss Syndrome" ><rect   width="197.47" height="52.18" rx="15" ry="15" style="fill:#ffcece;stroke:#00f"/><text   transform="translate(98.73 26.09)"     style="fill:#00f"><tspan   x="0" y="-13.20">OMIM:610474</tspan><tspan   x="0" y="0">Camptodactyly, Tall Stature, </tspan><tspan   x="0" y="13.20">And Hearing Loss Syndrome</tspan></text></g><g id="pvjsgeneratedidfd9c8" class="Label" transform="translate(39.27 47)"  name="OMIM:187601 Thanatophoric Dysplasia, Type II" ><rect   width="206.29" height="39" rx="15" ry="15" style="fill:#ffcece;stroke:#00f"/><text   transform="translate(103.14 19.5)"     style="fill:#00f"><tspan   x="0" y="-6.60">OMIM:187601</tspan><tspan   x="0" y="6.60">Thanatophoric Dysplasia, Type II</tspan></text></g><g id="pvjsgeneratedidfd9c9" class="Label" transform="translate(13.56 86)"  name="OMIM:616482 Achondroplasia, Severe, With Developmental  Delay And Acanthosis Nigricans" ><rect   width="257.7" height="55.31" rx="15" ry="15" style="fill:#ffcece;stroke:#00f"/><text   transform="translate(128.85 27.65)"     style="fill:#00f"><tspan   x="0" y="-13.20">OMIM:616482</tspan><tspan   x="0" y="0">Achondroplasia, Severe, With Developmental </tspan><tspan   x="0" y="13.20">Delay And Acanthosis Nigricans</tspan></text></g><g id="pvjsgeneratedidfd9ca" class="Label" transform="translate(39.27 310.48)"  name="OMIM:602849 Muenke Syndrome" ><rect   width="206.29" height="39" rx="15" ry="15" style="fill:#ffcece;stroke:#00f"/><text   transform="translate(103.14 19.5)"     style="fill:#00f"><tspan   x="0" y="-6.60">OMIM:602849</tspan><tspan   x="0" y="6.60">Muenke Syndrome</tspan></text></g><g id="be106" class="Label" transform="translate(39.27 141.31)"  name="OMIM:100800 Achondroplasia" ><rect   width="206.29" height="39" rx="15" ry="15" style="fill:#ffcece;stroke:#00f"/><text   transform="translate(103.14 19.5)"     style="fill:#00f"><tspan   x="0" y="-6.60">OMIM:100800</tspan><tspan   x="0" y="6.60">Achondroplasia</tspan></text></g><g id="pvjsgeneratedidfd9cd" class="Label" transform="translate(39.27 8)"  name="OMIM:187600 Thanatophoric Dysplasia, Type I" ><rect   width="206.29" height="39" rx="15" ry="15" style="fill:#ffcece;stroke:#00f"/><text   transform="translate(103.14 19.5)"     style="fill:#00f"><tspan   x="0" y="-6.60">OMIM:187600</tspan><tspan   x="0" y="6.60">Thanatophoric Dysplasia, Type I</tspan></text></g><g id="pvjsgeneratedidfd9ce" class="Label" transform="translate(8 271.48)"  name="OMIM:612247 Crouzon Syndrome With Acanthosis Nigricans" ><rect   width="268.82" height="39" rx="15" ry="15" style="fill:#ffcece;stroke:#00f"/><text   transform="translate(134.41 19.5)"     style="fill:#00f"><tspan   x="0" y="-6.60">OMIM:612247</tspan><tspan   x="0" y="6.60">Crouzon Syndrome With Acanthosis Nigricans</tspan></text></g></g></g><g id="ace34" class="Label" transform="translate(141.68 890.74)"  name="OMIM:264700 Vitamin D Hydroxylation-Deficient Rickets, Type 1A" ><rect   width="298.93" height="39" rx="15" ry="15" style="fill:#ffcece;stroke:#00f"/><text   transform="translate(149.46 19.5)"     style="fill:#00f"><tspan   x="0" y="-6.60">OMIM:264700</tspan><tspan   x="0" y="6.60">Vitamin D Hydroxylation-Deficient Rickets, Type 1A</tspan></text></g><g id="f276f" class="Label" transform="translate(1812.2 1548.2)"  name="OMIM:241530 Hypophosphatemic Rickets With Hypercalciuria, Hereditary" ><rect   width="342.66" height="39" rx="15" ry="15" style="fill:#ffcece;stroke:#00f"/><text   transform="translate(171.33 19.5)"     style="fill:#00f"><tspan   x="0" y="-6.60">OMIM:241530</tspan><tspan   x="0" y="6.60">Hypophosphatemic Rickets With Hypercalciuria, Hereditary</tspan></text></g><g id="ce7a8" class="Label" transform="translate(377.4 308.19)"  name="OMIM:307800 Hypophosphatemic Rickets, X-Linked Dominant" ><rect   width="271.23" height="39" rx="15" ry="15" style="fill:#ffcece;stroke:#00f"/><text   transform="translate(135.61 19.5)"     style="fill:#00f"><tspan   x="0" y="-6.60">OMIM:307800</tspan><tspan   x="0" y="6.60">Hypophosphatemic Rickets, X-Linked Dominant</tspan></text></g><g id="ef718" class="Label" transform="translate(155.19 572.16)"  name="OMIM:307800 Hypophosphatemic Rickets, X-Linked Dominant" ><rect   width="271.91" height="39" rx="15" ry="15" style="fill:#ffcece;stroke:#00f"/><text   transform="translate(135.96 19.5)"     style="fill:#00f"><tspan   x="0" y="-6.60">OMIM:307800</tspan><tspan   x="0" y="6.60">Hypophosphatemic Rickets, X-Linked Dominant</tspan></text></g><g id="f4451" class="Label" transform="translate(1656.8 561.58)"  name="OMIM:264700 Vitamin D Hydroxylation-Deficient Rickets, Type 1A" ><rect   width="300.77" height="39" rx="15" ry="15" style="fill:#ffcece;stroke:#00f"/><text   transform="translate(150.39 19.5)"     style="fill:#00f"><tspan   x="0" y="-6.60">OMIM:264700</tspan><tspan   x="0" y="6.60">Vitamin D Hydroxylation-Deficient Rickets, Type 1A</tspan></text></g><g id="f843e" class="GroupGroup" transform="translate(1358.9 1455.4)"  ><g class="GroupGroup"><g id="pvjsgeneratedidfd9cb" class="Label" transform="translate(8 125)"  name="OMIM:123790 Beare-Stevenson Cutis Gyrata Syndrome" ><rect   width="251.93" height="39" rx="15" ry="15" style="fill:#ffcece;stroke:#00f"/><text   transform="translate(125.96 19.5)"     style="fill:#00f"><tspan   x="0" y="-6.60">OMIM:123790</tspan><tspan   x="0" y="6.60">Beare-Stevenson Cutis Gyrata Syndrome</tspan></text></g><g id="pvjsgeneratedidfd9cc" class="Label" transform="translate(30.82 86)"  name="OMIM:101200 Apert Syndrome" ><rect   width="206.29" height="39" rx="15" ry="15" style="fill:#ffcece;stroke:#00f"/><text   transform="translate(103.14 19.5)"     style="fill:#00f"><tspan   x="0" y="-6.60">OMIM:101200</tspan><tspan   x="0" y="6.60">Apert Syndrome</tspan></text></g><g id="pvjsgeneratedidfd9cf" class="Label" transform="translate(15.54 203)"  name="OMIM:149730 Lacrimoauriculodentodigital Syndrome" ><rect   width="236.85" height="39" rx="15" ry="15" style="fill:#ffcece;stroke:#00f"/><text   transform="translate(118.43 19.5)"     style="fill:#00f"><tspan   x="0" y="-6.60">OMIM:149730</tspan><tspan   x="0" y="6.60">Lacrimoauriculodentodigital Syndrome</tspan></text></g><g id="pvjsgeneratedidfd9d0" class="Label" transform="translate(30.82 47)"  name="OMIM:101600 Pfeiffer Syndrome" ><rect   width="206.29" height="39" rx="15" ry="15" style="fill:#ffcece;stroke:#00f"/><text   transform="translate(103.14 19.5)"     style="fill:#00f"><tspan   x="0" y="-6.60">OMIM:101600</tspan><tspan   x="0" y="6.60">Pfeiffer Syndrome</tspan></text></g><g id="pvjsgeneratedidfd9d1" class="Label" transform="translate(30.82 8)"  name="OMIM:614592 Bent Bone Dysplasia Syndrome" ><rect   width="206.29" height="39" rx="15" ry="15" style="fill:#ffcece;stroke:#00f"/><text   transform="translate(103.14 19.5)"     style="fill:#00f"><tspan   x="0" y="-6.60">OMIM:614592</tspan><tspan   x="0" y="6.60">Bent Bone Dysplasia Syndrome</tspan></text></g><g id="pvjsgeneratedidfd9d2" class="Label" transform="translate(30.82 164)"  name="OMIM:123500 Crouzon Syndrome" ><rect   width="206.29" height="39" rx="15" ry="15" style="fill:#ffcece;stroke:#00f"/><text   transform="translate(103.14 19.5)"     style="fill:#00f"><tspan   x="0" y="-6.60">OMIM:123500</tspan><tspan   x="0" y="6.60">Crouzon Syndrome</tspan></text></g></g></g><g id="d701c" class="Label" transform="translate(535.99 862.21)"  name="OMIM:211900 Tumoral Calcinosis, Hyperphosphatemic, Familial, 1" ><rect   width="329.76" height="39" rx="15" ry="15" style="fill:#ffcece;stroke:#00f"/><text   transform="translate(164.88 19.5)"     style="fill:#00f"><tspan   x="0" y="-6.60">OMIM:211900</tspan><tspan   x="0" y="6.60">Tumoral Calcinosis, Hyperphosphatemic, Familial, 1</tspan></text></g><g id="ca0e7" class="Label" transform="translate(671.25 749.15)"  name="OMIM:259775 Raine Syndrome" ><rect   width="114.77" height="39" rx="15" ry="15" style="fill:#ffcece;stroke:#00f"/><text   transform="translate(57.39 19.5)"     style="fill:#00f"><tspan   x="0" y="-6.60">OMIM:259775</tspan><tspan   x="0" y="6.60">Raine Syndrome</tspan></text></g><g id="b9bc7" class="GroupGroup" transform="translate(1396.8 1739.1)"  ><g class="GroupGroup"><g id="e02af" class="Label" transform="translate(8.61 47)"  name="OMIM:146300 Hypophosphatasia, Adult" ><rect   width="174.95" height="39" rx="15" ry="15" style="fill:#ffcece;stroke:#00f"/><text   transform="translate(87.48 19.5)"     style="fill:#00f"><tspan   x="0" y="-6.60">OMIM:146300</tspan><tspan   x="0" y="6.60">Hypophosphatasia, Adult</tspan></text></g><g id="d5f10" class="Label" transform="translate(8,8)"  name="OMIM:241500 Hypophosphatasia, Infantile" ><rect   width="176.17" height="39" rx="15" ry="15" style="fill:#ffcece;stroke:#00f"/><text   transform="translate(88.09 19.5)"     style="fill:#00f"><tspan   x="0" y="-6.60">OMIM:241500</tspan><tspan   x="0" y="6.60">Hypophosphatasia, Infantile</tspan></text></g></g></g><g id="a3a42" class="Label" transform="translate(963.95 156.42)"  name="OMIM:617994 Tumoral Calcinosis, Hyperphosphatemic, Familial, 3" ><rect   width="308.6" height="39" rx="15" ry="15" style="fill:#ffcece;stroke:#00f"/><text   transform="translate(154.3 19.5)"     style="fill:#00f"><tspan   x="0" y="-6.60">OMIM:617994</tspan><tspan   x="0" y="6.60">Tumoral Calcinosis, Hyperphosphatemic, Familial, 3</tspan></text></g><g id="ec383" class="Edge"  ><path    d="m685.95 422.33v-94.64h-37.32" stroke-dasharray="5,3"/></g><g id="c3273" class="Edge"  ><path    d="m790.07 484.03 1e-13 -213.42" stroke-dasharray="5,3"/></g><g id="c51ab" class="Edge"  ><path    d="m1118.3 252.98-2e-13 -57.56" stroke-dasharray="5,3"/></g><g id="e1e16" class="Edge"  ><path    d="m592.44 591.66h-165.34" stroke-dasharray="5,3"/></g><g id="d3457" class="Edge"  ><path    d="m592.44 616.66-149.39 44.88" stroke-dasharray="5,3"/></g><g id="dbdc1" class="Edge"  ><path    d="m728.64 722.84v26.31" stroke-dasharray="5,3"/></g><g id="c626a" class="Edge"  ><path    d="m768.65 824.95-67.78 37.26" stroke-dasharray="5,3"/></g><g id="fba3e" class="Edge"  ><path    d="m1586.2 581.08h70.6" stroke-dasharray="5,3"/></g><g id="c3794" class="Edge"  ><path    d="m901.43 682.93v199.19h84.72" stroke-dasharray="5,3"/></g><g id="dffa0" class="Edge"  ><path    d="m291.15 986.94 5e-14 -57.21" stroke-dasharray="5,3"/></g><g id="e36d4" class="Edge"  ><path    d="m1983.5 953.36 2e-13 -88.87" stroke-dasharray="5,3"/></g><g id="cd615" class="Edge"  ><path    d="m1983.5 1468.4-4e-13 79.78" stroke-dasharray="5,3"/></g><g id="d2ff8" class="Edge"  ><path    d="m1190.2 1218h55.52v568.07h151.09" stroke-dasharray="5,3"/></g><g id="e1f98" class="Edge"  ><path    d="m1241.4 1131.9h48.18v448.56h69.37" stroke-dasharray="5,3"/></g><g id="a8051" class="Edge"  ><path    d="m1058.1 1119.4v-43.74h261.17v172.68h31.24" stroke-dasharray="5,3"/></g></g></g></g></svg>