<?xml version="1.0" encoding="UTF-8"?>
<svg xmlns="http://www.w3.org/2000/svg" id="-svg" class="Diagram"  baseProfile="full" prefix="schema:http://schema.org/" preserveAspectRatio="xMidYMid"  version="1.1"><defs><g id="filter-defs"><filter id="doublefalse3filter" x="-50%" y="-50%" width="200%" height="200%"><feComposite in="SourceGraphic" in2="SourceGraphic" result="doubleDark"/><feMorphology in="doubleDark" operator="dilate" radius="0.17" result="in2Double"/><feMorphology in="SourceGraphic" operator="dilate" radius="3" result="inDouble"/><feComposite in="inDouble" in2="in2Double" operator="out" result="doubleResult"/></filter></g><g id="icon-defs"><symbol id="Octagon" class=" Icon Octagon" x="0" y="0" overflow="visible" preserveAspectRatio="none" viewBox="0 0 100 100"><desc>Octagon</desc><path d="m0 25 25-25h50l25 25v50l-25 25h-50l-25-25z" vector-effect="non-scaling-stroke"/></symbol></g><g id="marker-defs"><marker id="mea" markerHeight="12" markerWidth="12" orient="auto" preserveAspectRatio="none" refX="12" refY="6" viewBox="0 0 12 12"><g id="g-mea" transform=""><g transform="rotate(180 6 6)"><rect y="5.4" width="2" height="1.2" style="stroke:#fff"/><polygon points="12 11 0 6 12 1" stroke-width="0"/></g></g></marker><marker id="markerendtbar000" markerHeight="20" markerWidth="10" orient="auto" preserveAspectRatio="none" refX="10" refY="10" viewBox="0 0 10 20"><g id="g-markerendtbar000" transform=""><g transform="rotate(180 5 10)"><rect y="9" width="8" height="2" style="stroke:none"/><line x="0" y="0" width="12" height="12" x1="7" x2="7" y2="20" stroke="#000" stroke-width="1.8"/></g></g></marker></g></defs><g id="viewport-20220102144427181" class="svg-pan-zoom_viewport" transform="matrix(0.62 0 0 0.62 149.65 0)" style="transform:matrix(0.62, 0, 0, 0.62, 149.65, 0)"><style>svg.Diagram {font-family: 'Liberation Sans', Arial, sans-serif; }.Diagram path {fill: transparent;stroke: #000;marker-end: url(#mea);}.Diagram symbol path {fill: inherit;stroke: inherit;stroke-width: inherit;marker-end: inherit;}.Diagram rect {fill: #fff;stroke: #000;}.Diagram text {dominant-baseline: central;overflow: hidden;text-anchor: middle;fill: #000;font-size: 10px;}</style><style type="text/css">.Viewport .textContent {
  pointer-events: none;
  stroke-width: 0px;
}

					.Viewport.Icon {
  fill: white;
}

/* Hide the InfoBox */
.Viewport.textContent {
  font-size: 0;
}

.textContent {
  stroke: none;
}

.DataNode {
  stroke-miterlimit: 1;
  pointer-events: auto;
}

.DataNode:hover {
  cursor: pointer;
}

/* TODO should this apply to things other than DataNodes? */
.DataNode.textContent {
  pointer-events: none;
}

.DataNode.Highlighted {
  opacity: 0.6;
  stroke-width: 0px;
}

marker {
  /* this is what should work per the spec
  stroke-dasharray: none; */
  /* but I need to add this to make it work in Safari */
  stroke-dasharray: 9999999999999999999999999;
}

.Citation.Icon {
  fill: none;
  stroke-width: 0px;
}

.Citation.textContent {
  text-align: center;
  vertical-align: top;
  font-size: 7px;
  fill: #999;
  fill-opacity: 1;
  stroke: none;
}</style><g id="WP481" class="Pathway http___identifiers_org_pw_PW_0000143 Viewport"  name="Name: Insulin signaling Organism: Homo sapiens" ><g class="Pathway http___identifiers_org_pw_PW_0000143 Viewport"><rect   width="1444.4" height="1145" style="stroke:none"/><g id="e6bf6" class="Edge"  ><path    d="m746 515.89 0.67 37.45"/></g><g id="idaf8a5c9d" class="Edge"  ><path    d="m505.66 164.4 111.01-51.07"/></g><g id="d6ebf" class="Edge"  ><path    d="m1132.4 319.95 0.07 43.38"/></g><g id="idf40d6d0f" class="Edge"  ><path    d="m1211.8 585.33 57.28-0.31"/></g><g id="f48fc" class="Edge"  ><path    d="m293.95 515.86 81.64 56.80"/></g><g id="fada3" class="Edge"  ><path    d="m746.67 573.33 50.1 52.67"/></g><g id="b42f3" class="Edge"  ><path    d="m501.57 396.23v14.13h-167"/></g><g id="id4e7e2d08" class="Edge"  ><path    d="m419.98 260.75h81.59v71.49"/></g><g id="e502a" class="Edge"  ><path    d="m746.67 573.33-58.79 49.81"/></g><g id="c6490" class="Edge"  ><path    d="m1132.4 807.33-0.07 105.08"/></g><g id="a42c7" class="Edge"  ><path    d="m212.72 515.86-75.64 50.81"/></g><g id="f03f3" class="Edge"  ><path    d="m96.06 566.68 0.60-453.34"/></g><g id="d1ddc" class="Edge"  ><path    d="m616.67 113.33 72.24 60.51"/></g><g id="db9dc" class="Edge"  ><path    d="m803.33 563.33h20v-250.07h-79.67v-20" style="marker-end:url(#markerendtbar000)"/></g><g id="e16ae" class="Edge"  ><path    d="m763.33 113.33-74.42 60.51"/></g><g id="f74bc" class="Edge"  ><path    d="m798.42 203.7 258.28 0.57"/></g><g id="id215add9" class="Edge"  ><path    d="m579.4 233.55h-77.83v98.68"/></g><g id="a6d8e" class="Edge"  ><path    d="m334.57 445.53 346.28 0.66" style="marker-end:url(#markerendtbar000)"/></g><g id="a883d" class="Edge"  ><path    d="m745.51 466.09 0.49 29.80" style="marker-end:url(#markerendtbar000)"/></g><g id="eee31" class=" PhysicalEntity CellularComponent Cell" transform="translate(12.37 101.49)"  ><g class=" PhysicalEntity CellularComponent Cell" filter="url(#doublefalse3filter)"><g class=" PhysicalEntity CellularComponent Cell"><rect   transform="matrix(0.99 0 0 0.99 5.95 5.93)" width="1403.5" height="1015" rx="15" ry="15" stroke-width="3" style="fill:transparent;stroke:#c0c0c0"/></g></g></g><g id="ce7" class="Label" transform="translate(103.17 125.33)"  name="Glucose transport" ><g class="Label"/><text   transform="translate(60.17 8)"    font-weight="bold"  style="font-size:12px">Glucose transport</text></g><g id="f45dd" class="Label" transform="translate(1269.1 563.09)"  name="Cell growth differentiation" ><g class="Label"/><text   transform="translate(61.50 21.94)"    font-weight="bold"  style="font-size:14px"><tspan   x="0" y="-7.70">Cell growth</tspan><tspan   x="0" y="7.70">differentiation</tspan></text></g><g id="pvjsgeneratedidfada4" class="GroupGroup" transform="translate(408.5 807.33)"  ><g class="GroupGroup"><g id="cf4" class="Label" transform="translate(8,8)"  name="Metabolic regulation" ><g class="Label"/><text   transform="translate(70.17 8)"    font-weight="bold"  style="font-size:12px">Metabolic regulation</text></g><g id="af4" class="GeneProduct " transform="translate(44.83 150.61)"  name="GYG" ><rect   width="66.67" height="20"/><text   transform="translate(33.33 10)"    >GYG</text></g><g id="b2b" class="GeneProduct " transform="translate(44.83 30.61)"  name="PFKM" ><rect   width="66.67" height="20"/><text   transform="translate(33.33 10)"    >PFKM</text></g><g id="ca6" class="GeneProduct " transform="translate(44.83 90.61)"  name="GYS1" ><rect   width="66.67" height="20"/><text   transform="translate(33.33 10)"    >GYS1</text></g><g id="d06" class="GeneProduct " transform="translate(44.83 50.61)"  name="PFKL" ><rect   width="66.67" height="20"/><text   transform="translate(33.33 10)"    >PFKL</text></g><g id="e3a" class="GeneProduct " transform="translate(44.83 110.61)"  name="GYS2" ><rect   width="66.67" height="20"/><text   transform="translate(33.33 10)"    >GYS2</text></g><g id="eb6" class="GeneProduct " transform="translate(44.83 130.61)"  name="PPP1R3A" ><rect   width="66.67" height="20"/><text   transform="translate(33.33 10)"    >PPP1R3A</text></g><g id="efb" class="GeneProduct " transform="translate(44.83 70.61)"  name="LIPE" ><rect   width="66.67" height="20"/><text   transform="translate(33.33 10)"    >LIPE</text></g></g></g><g id="pvjsgeneratedidfada5" class="GroupGroup" transform="translate(642.85 807.59)"  ><g class="GroupGroup"><g id="f73" class="Label" transform="translate(8,8)"  name="Modulators of insulin action" ><g class="Label"/><text   transform="translate(90.67 8)"    font-weight="bold"  style="font-size:12px">Modulators of insulin action</text></g><g id="a14" class="GeneProduct " transform="translate(16.36 33.56)"  name="PTPRF" ><rect   width="66.67" height="20"/><text   transform="translate(33.33 10)"    >PTPRF</text></g><g id="abe" class="GeneProduct " transform="translate(16.36 233.56)"  name="IKBKB" ><rect   width="66.67" height="20"/><text   transform="translate(33.33 10)"    >IKBKB</text></g><g id="ac6" class="GeneProduct " transform="translate(16.36 213.56)"  name="SOCS3" ><rect   width="66.67" height="20"/><text   transform="translate(33.33 10)"    >SOCS3</text></g><g id="ad5" class="GeneProduct " transform="translate(105.69 92.87)"  name="PRKCH" ><rect   width="73.33" height="20"/><text   transform="translate(36.67 10)"    >PRKCH</text></g><g id="b10" class="GeneProduct " transform="translate(105.69 72.87)"  name="PRKCD" ><rect   width="73.33" height="20"/><text   transform="translate(36.67 10)"    >PRKCD</text></g><g id="bfc" class="GeneProduct " transform="translate(16.36 93.56)"  name="PTEN" ><rect   width="66.67" height="20"/><text   transform="translate(33.33 10)"    >PTEN</text></g><g id="c11" class="GeneProduct " transform="translate(105.69 172.87)"  name="TRIB3" ><rect   width="73.33" height="20"/><text   transform="translate(36.67 10)"    >TRIB3</text></g><g id="c3e" class="GeneProduct " transform="translate(16.36 253.56)"  name="XBP1" ><rect   width="66.67" height="20"/><text   transform="translate(33.33 10)"    >XBP1</text></g><g id="c4e" class="GeneProduct " transform="translate(105.69 52.87)"  name="PRKCB1" ><rect   width="73.33" height="20"/><text   transform="translate(36.67 10)"    >PRKCB1</text></g><g id="cd8" class="GeneProduct " transform="translate(16.36 73.56)"  name="ENPP1" ><rect   width="66.67" height="20"/><text   transform="translate(33.33 10)"    >ENPP1</text></g><g id="d24" class="GeneProduct " transform="translate(105.69 152.87)"  name="PRKCZ" ><rect   width="73.33" height="20"/><text   transform="translate(36.67 10)"    >PRKCZ</text></g><g id="d4c" class="GeneProduct " transform="translate(105.69 132.87)"  name="PRKCQ" ><rect   width="73.33" height="20"/><text   transform="translate(36.67 10)"    >PRKCQ</text></g><g id="d94" class="GeneProduct " transform="translate(105.69 212.87)"  name="PRKAA2" ><rect   width="73.33" height="20"/><text   transform="translate(36.67 10)"    >PRKAA2</text></g><g id="db4" class="GeneProduct " transform="translate(16.36 53.56)"  name="PTPN1" ><rect   width="66.67" height="20"/><text   transform="translate(33.33 10)"    >PTPN1</text></g><g id="dc9" class="GeneProduct " transform="translate(16.36 173.56)"  name="MAPK8" ><rect   width="66.67" height="20"/><text   transform="translate(33.33 10)"    >MAPK8</text></g><g id="dcb" class="GeneProduct " transform="translate(16.36 113.56)"  name="INPPL1" ><rect   width="66.67" height="20"/><text   transform="translate(33.33 10)"    >INPPL1</text></g><g id="dfc" class="GeneProduct " transform="translate(16.36 153.56)"  name="INPP4A" ><rect   width="66.67" height="20"/><text   transform="translate(33.33 10)"    >INPP4A</text></g><g id="e35" class="GeneProduct " transform="translate(16.36 133.56)"  name="PTPN11" ><rect   width="66.67" height="20"/><text   transform="translate(33.33 10)"    >PTPN11</text></g><g id="e43" class="GeneProduct " transform="translate(16.36 193.56)"  name="SOCS1" ><rect   width="66.67" height="20"/><text   transform="translate(33.33 10)"    >SOCS1</text></g><g id="e8c" class="GeneProduct " transform="translate(105.69 112.87)"  name="PRKCI" ><rect   width="73.33" height="20"/><text   transform="translate(36.67 10)"    >PRKCI</text></g><g id="e9e" class="GeneProduct " transform="translate(105.69 192.87)"  name="PRKAA1" ><rect   width="73.33" height="20"/><text   transform="translate(36.67 10)"    >PRKAA1</text></g><g id="ef6" class="GeneProduct " transform="translate(105.69 32.87)"  name="PRKCA" ><rect   width="73.33" height="20"/><text   transform="translate(36.67 10)"    >PRKCA</text></g></g></g><g id="a2cc1" class="GroupGroup" transform="translate(1056.7 165.7)"  ><g class="GroupGroup"><g id="d0c" class="Label" transform="translate(8,8)"  name="Ras-MAPK signaling" ><g class="Label"/><text   transform="translate(67.67 8)"    font-weight="bold"  style="font-size:12px">Ras-MAPK signaling</text></g><g id="a24" class="GeneProduct " transform="translate(45.67 106.24)"  name="RAC1" ><rect   width="60" height="20"/><text   transform="translate(30,10)"    >RAC1</text></g><g id="a38" class="GeneProduct " transform="translate(45.67 32.91)"  name="GRB2" ><rect   width="60" height="20"/><text   transform="translate(30,10)"    >GRB2</text></g><g id="c61" class="GeneProduct " transform="translate(45.67 106.24)"  name="SOS1" ><rect   width="60" height="20"/><text   transform="translate(30,10)"    >SOS1</text></g><g id="c74" class="GeneProduct " transform="translate(45.67 126.24)"  name="RAC2" ><rect   width="60" height="20"/><text   transform="translate(30,10)"    >RAC2</text></g><g id="c81" class="GeneProduct " transform="translate(45.67 86.24)"  name="RRAD" ><rect   width="60" height="20"/><text   transform="translate(30,10)"    >RRAD</text></g><g id="d43" class="GeneProduct " transform="translate(45.67 72.91)"  name="GRB14" ><rect   width="60" height="20"/><text   transform="translate(30,10)"    >GRB14</text></g><g id="ea7" class="GeneProduct " transform="translate(45.67 126.24)"  name="SOS2" ><rect   width="60" height="20"/><text   transform="translate(30,10)"    >SOS2</text></g><g id="ebd" class="GeneProduct " transform="translate(45.67 52.91)"  name="RAF1" ><rect   width="60" height="20"/><text   transform="translate(30,10)"    >RAF1</text></g><g id="f20" class="GeneProduct " transform="translate(45.67 32.91)"  name="HRAS" ><rect   width="60" height="20"/><text   transform="translate(30,10)"    >HRAS</text></g><g id="f5b" class="GeneProduct " transform="translate(45.67 52.91)"  name="GRB10" ><rect   width="60" height="20"/><text   transform="translate(30,10)"    >GRB10</text></g></g></g><g id="a60f0" class="GroupGroup" transform="translate(1053.1 363.33)"  ><g class="GroupGroup"><g id="fdd" class="Label" transform="translate(16.49 8)"  name="MEK/MAP kinases" ><g class="Label"/><text   transform="translate(59.67 8)"    font-weight="bold"  style="font-size:12px">MEK/MAP kinases</text></g><g id="a2e" class="GeneProduct " transform="translate(8 416)"  name="MINK1" ><rect   width="66.67" height="20"/><text   transform="translate(33.33 10)"    >MINK1</text></g><g id="ac2" class="GeneProduct " transform="translate(82.67 354.67)"  name="MAP4K4" ><rect   width="66.67" height="20"/><text   transform="translate(33.33 10)"    >MAP4K4</text></g><g id="b07" class="GeneProduct " transform="translate(82.67 54.67)"  name="MAP3K2" ><rect   width="66.67" height="20"/><text   transform="translate(33.33 10)"    >MAP3K2</text></g><g id="b5a" class="GeneProduct " transform="translate(8 216)"  name="MAPK12" ><rect   width="66.67" height="20"/><text   transform="translate(33.33 10)"    >MAPK12</text></g><g id="b67" class="GeneProduct " transform="translate(82.67 114.67)"  name="MAP3K5" ><rect   width="66.67" height="20"/><text   transform="translate(33.33 10)"    >MAP3K5</text></g><g id="bae" class="GeneProduct " transform="translate(8 176)"  name="MAPK10" ><rect   width="66.67" height="20"/><text   transform="translate(33.33 10)"    >MAPK10</text></g><g id="bdd" class="GeneProduct " transform="translate(82.67 74.67)"  name="MAP3K3" ><rect   width="66.67" height="20"/><text   transform="translate(33.33 10)"    >MAP3K3</text></g><g id="be2" class="GeneProduct " transform="translate(8 316)"  name="MAP4K1" ><rect   width="66.67" height="20"/><text   transform="translate(33.33 10)"    >MAP4K1</text></g><g id="bf3" class="GeneProduct " transform="translate(8,56)"  name="MAPK3" ><rect   width="66.67" height="20"/><text   transform="translate(33.33 10)"    >MAPK3</text></g><g id="c52" class="GeneProduct " transform="translate(82.67 374.67)"  name="MAP2K7" ><rect   width="66.67" height="20"/><text   transform="translate(33.33 10)"    >MAP2K7</text></g><g id="ca1" class="GeneProduct " transform="translate(82.67 234.67)"  name="MAPK13" ><rect   width="66.67" height="20"/><text   transform="translate(33.33 10)"    >MAPK13</text></g><g id="ccf" class="GeneProduct " transform="translate(82.67 34.67)"  name="MAP3K1" ><rect   width="66.67" height="20"/><text   transform="translate(33.33 10)"    >MAP3K1</text></g><g id="cd1" class="GeneProduct " transform="translate(8 356)"  name="MAP4K3" ><rect   width="66.67" height="20"/><text   transform="translate(33.33 10)"    >MAP4K3</text></g><g id="cdb" class="GeneProduct " transform="translate(8 376)"  name="MAP2K6" ><rect   width="66.67" height="20"/><text   transform="translate(33.33 10)"    >MAP2K6</text></g><g id="cee" class="GeneProduct " transform="translate(82.67 174.67)"  name="MAP3K8" ><rect   width="66.67" height="20"/><text   transform="translate(33.33 10)"    >MAP3K8</text></g><g id="d13" class="GeneProduct " transform="translate(82.67 254.67)"  name="MAP3K12" ><rect   width="66.67" height="20"/><text   transform="translate(33.33 10)"    >MAP3K12</text></g><g id="d40" class="GeneProduct " transform="translate(82.67 314.67)"  name="MAP2K4" ><rect   width="66.67" height="20"/><text   transform="translate(33.33 10)"    >MAP2K4</text></g><g id="d54" class="GeneProduct " transform="translate(8,116)"  name="MAPK7" ><rect   width="66.67" height="20"/><text   transform="translate(33.33 10)"    >MAPK7</text></g><g id="d77" class="GeneProduct " transform="translate(8 256)"  name="MAPK14" ><rect   width="66.67" height="20"/><text   transform="translate(33.33 10)"    >MAPK14</text></g><g id="d93" class="GeneProduct " transform="translate(8 236)"  name="MAP3K11" ><rect   width="66.67" height="20"/><text   transform="translate(33.33 10)"    >MAP3K11</text></g><g id="def" class="GeneProduct " transform="translate(82.67 154.67)"  name="MAP3K7" ><rect   width="66.67" height="20"/><text   transform="translate(33.33 10)"    >MAP3K7</text></g><g id="e20" class="GeneProduct " transform="translate(8 196)"  name="MAPK11" ><rect   width="66.67" height="20"/><text   transform="translate(33.33 10)"    >MAPK11</text></g><g id="e29" class="GeneProduct " transform="translate(8 156)"  name="MAPK9" ><rect   width="66.67" height="20"/><text   transform="translate(33.33 10)"    >MAPK9</text></g><g id="e50" class="GeneProduct " transform="translate(8,96)"  name="MAPK6" ><rect   width="66.67" height="20"/><text   transform="translate(33.33 10)"    >MAPK6</text></g><g id="eab" class="GeneProduct " transform="translate(84 396)"  name="MAP3K13" ><rect   width="66.67" height="20"/><text   transform="translate(33.33 10)"    >MAP3K13</text></g><g id="f07" class="GeneProduct " transform="translate(82.67 294.67)"  name="MAP2K3" ><rect   width="66.67" height="20"/><text   transform="translate(33.33 10)"    >MAP2K3</text></g><g id="f09" class="GeneProduct " transform="translate(8,76)"  name="MAPK4" ><rect   width="66.67" height="20"/><text   transform="translate(33.33 10)"    >MAPK4</text></g><g id="f15" class="GeneProduct " transform="translate(8 336)"  name="MAP4K2" ><rect   width="66.67" height="20"/><text   transform="translate(33.33 10)"    >MAP4K2</text></g><g id="f56" class="GeneProduct " transform="translate(82.67 334.67)"  name="MAP2K5" ><rect   width="66.67" height="20"/><text   transform="translate(33.33 10)"    >MAP2K5</text></g><g id="f76" class="GeneProduct " transform="translate(82.67 214.67)"  name="MAP3K10" ><rect   width="66.67" height="20"/><text   transform="translate(33.33 10)"    >MAP3K10</text></g><g id="f9f" class="GeneProduct " transform="translate(8,36)"  name="MAPK1" ><rect   width="66.67" height="20"/><text   transform="translate(33.33 10)"    >MAPK1</text></g><g id="fb0" class="GeneProduct " transform="translate(8 276)"  name="MAP2K1" ><rect   width="66.67" height="20"/><text   transform="translate(33.33 10)"    >MAP2K1</text></g><g id="fb3" class="GeneProduct " transform="translate(8,136)"  name="MAP3K6" ><rect   width="66.67" height="20"/><text   transform="translate(33.33 10)"    >MAP3K6</text></g><g id="fc5" class="GeneProduct " transform="translate(82.67 94.67)"  name="MAP3K4" ><rect   width="66.67" height="20"/><text   transform="translate(33.33 10)"    >MAP3K4</text></g><g id="fc6" class="GeneProduct " transform="translate(82.67 194.67)"  name="MAP3K9" ><rect   width="66.67" height="20"/><text   transform="translate(33.33 10)"    >MAP3K9</text></g><g id="fe3" class="GeneProduct " transform="translate(8 396)"  name="MAP4K5" ><rect   width="66.67" height="20"/><text   transform="translate(33.33 10)"    >MAP4K5</text></g><g id="fec" class="GeneProduct " transform="translate(8 296)"  name="MAP2K2" ><rect   width="66.67" height="20"/><text   transform="translate(33.33 10)"    >MAP2K2</text></g><g id="ff3" class="GeneProduct " transform="translate(82.67 134.67)"  name="MAPK8" ><rect   width="66.67" height="20"/><text   transform="translate(33.33 10)"    >MAPK8</text></g><g id="ff9" class="GeneProduct " transform="translate(82.67 274.67)"  name="MAP3K14" ><rect   width="66.67" height="20"/><text   transform="translate(33.33 10)"    >MAP3K14</text></g></g></g><g id="a62f4" class="GroupGroup" transform="translate(259.56 572.67)"  ><g class="GroupGroup"><g id="ff7" class="Label" transform="translate(8,8)"  name="Transcriptional regulators &amp;  immediate early genes" ><g class="Label"/><text   transform="translate(108.02 13.73)"    font-weight="bold"  style="font-size:12px"><tspan   x="0" y="-6.60">Transcriptional regulators &amp; </tspan><tspan   x="0" y="6.60">immediate early genes</tspan></text></g><g id="aff" class="GeneProduct " transform="translate(89.57 106.49)"  name="SRF" ><rect   width="60" height="20"/><text   transform="translate(30,10)"    >SRF</text></g><g id="c00" class="GeneProduct " transform="translate(89.57 86.49)"  name="ELK1" ><rect   width="60" height="20"/><text   transform="translate(30,10)"    >ELK1</text></g><g id="c41" class="GeneProduct " transform="translate(89.57 46.49)"  name="FOXO1A" ><rect   width="60" height="20"/><text   transform="translate(30,10)"    >FOXO1A</text></g><g id="c75" class="GeneProduct " transform="translate(89.57 146.49)"  name="FOS" ><rect   width="60" height="20"/><text   transform="translate(30,10)"    >FOS</text></g><g id="e41" class="GeneProduct " transform="translate(89.57 166.49)"  name="JUN" ><rect   width="60" height="20"/><text   transform="translate(30,10)"    >JUN</text></g><g id="f4f" class="GeneProduct " transform="translate(89.57 66.49)"  name="FOXO3A" ><rect   width="60" height="20"/><text   transform="translate(30,10)"    >FOXO3A</text></g><g id="f71" class="GeneProduct " transform="translate(89.57 126.49)"  name="EGR1" ><rect   width="60" height="20"/><text   transform="translate(30,10)"    >EGR1</text></g></g></g><g id="bfae0" class="GroupGroup" transform="translate(172.1 375.2)"  ><g class="GroupGroup"><g id="c36" class="Label" transform="translate(21.50 8)"  name="PDK/Akt signaling" ><g class="Label"/><text   transform="translate(60.67 8)"    font-weight="bold"  style="font-size:12px">PDK/Akt signaling</text></g><g id="a2b" class="GeneProduct " transform="translate(8 112.67)"  name="GSK3B" ><rect   width="66.67" height="20"/><text   transform="translate(33.33 10)"    >GSK3B</text></g><g id="af6" class="GeneProduct " transform="translate(8 72.67)"  name="AKT2" ><rect   width="66.67" height="20"/><text   transform="translate(33.33 10)"    >AKT2</text></g><g id="b14" class="GeneProduct " transform="translate(8 52.67)"  name="AKT1" ><rect   width="66.67" height="20"/><text   transform="translate(33.33 10)"    >AKT1</text></g><g id="c8d" class="GeneProduct " transform="translate(87.8 75.06)"  name="SGKL" ><rect   width="66.67" height="20"/><text   transform="translate(33.33 10)"    >SGKL</text></g><g id="e07" class="GeneProduct " transform="translate(87.8 35.06)"  name="SGK" ><rect   width="66.67" height="20"/><text   transform="translate(33.33 10)"    >SGK</text></g><g id="e87" class="GeneProduct " transform="translate(8 92.67)"  name="GSK3A" ><rect   width="66.67" height="20"/><text   transform="translate(33.33 10)"    >GSK3A</text></g><g id="f16" class="GeneProduct " transform="translate(8 32.67)"  name="PDPK1" ><rect   width="66.67" height="20"/><text   transform="translate(33.33 10)"    >PDPK1</text></g><g id="fb6" class="GeneProduct " transform="translate(87.8 55.06)"  name="SGK2" ><rect   width="66.67" height="20"/><text   transform="translate(33.33 10)"    >SGK2</text></g></g></g><g id="c0972" class="GroupGroup" transform="translate(755.43 626.01)"  ><g class="GroupGroup"><g id="d31" class="Label" transform="translate(8,8)"  name="Translation regulation" ><g class="Label"/><text   transform="translate(74.67 8)"    font-weight="bold"  style="font-size:12px">Translation regulation</text></g><g id="c46" class="GeneProduct " transform="translate(26.58 34.09)"  name="EIF4EBP1" ><rect   width="113.33" height="20"/><text   transform="translate(56.67 10)"    >EIF4EBP1</text></g><g id="e5c" class="GeneProduct " transform="translate(26.58 54.09)"  name="EIF4E" ><rect   width="113.33" height="20"/><text   transform="translate(56.67 10)"    >EIF4E</text></g></g></g><g id="c7b5d" class="GroupGroup" transform="translate(255.27 127.96)"  ><g class="GroupGroup"><g id="f9e" class="Label" transform="translate(8,8)"  name="PI 3-kinase isoforms" ><g class="Label"/><text   transform="translate(74.35 8)"    font-weight="bold"  style="font-size:12px">PI 3-kinase isoforms</text></g><g id="a0e" class="GeneProduct " transform="translate(14.84 69.05)"  name="PIK3CD" ><rect   width="60" height="20"/><text   transform="translate(30,10)"    >PIK3CD</text></g><g id="a11" class="GeneProduct " transform="translate(14.84 149.05)"  name="PIK3C3" ><rect   width="60" height="20"/><text   transform="translate(30,10)"    >PIK3C3</text></g><g id="b59" class="GeneProduct " transform="translate(87.30 69.05)"  name="PIK3R3" ><rect   width="60" height="20"/><text   transform="translate(30,10)"    >PIK3R3</text></g><g id="b62" class="GeneProduct " transform="translate(87.30 29.05)"  name="PIK3R1" ><rect   width="60" height="20"/><text   transform="translate(30,10)"    >PIK3R1</text></g><g id="bac" class="GeneProduct " transform="translate(14.84 129.05)"  name="PIK3C2G" ><rect   width="60" height="20"/><text   transform="translate(30,10)"    >PIK3C2G</text></g><g id="bad" class="GeneProduct " transform="translate(87.30 49.05)"  name="PIK3R2" ><rect   width="60" height="20"/><text   transform="translate(30,10)"    >PIK3R2</text></g><g id="c78" class="GeneProduct " transform="translate(14.84 89.05)"  name="PIK3CG" ><rect   width="60" height="20"/><text   transform="translate(30,10)"    >PIK3CG</text></g><g id="cb5" class="GeneProduct " transform="translate(14.84 49.05)"  name="PIK3CB" ><rect   width="60" height="20"/><text   transform="translate(30,10)"    >PIK3CB</text></g><g id="e1c" class="GeneProduct " transform="translate(87.30 89.05)"  name="PIK3R4" ><rect   width="60" height="20"/><text   transform="translate(30,10)"    >PIK3R4</text></g><g id="f9d" class="GeneProduct " transform="translate(14.84 109.05)"  name="PIK3C2A" ><rect   width="60" height="20"/><text   transform="translate(30,10)"    >PIK3C2A</text></g><g id="fa4" class="GeneProduct " transform="translate(14.84 29.05)"  name="PIK3CA" ><rect   width="60" height="20"/><text   transform="translate(30,10)"    >PIK3CA</text></g></g></g><g id="e2b1d" class="GroupGroup" transform="translate(600.63 623.14)"  ><g class="GroupGroup"><g id="e11" class="Label" transform="translate(8,8)"  name="p70 S6 kinases" ><g class="Label"/><text   transform="translate(50.17 8)"    font-weight="bold"  style="font-size:12px">p70 S6 kinases</text></g><g id="c54" class="GeneProduct " transform="translate(28.29 55.09)"  name="RPS6KB2" ><rect   width="66.67" height="20"/><text   transform="translate(33.33 10)"    >RPS6KB2</text></g><g id="d80" class="GeneProduct " transform="translate(28.29 35.09)"  name="RPS6KB1" ><rect   width="66.67" height="20"/><text   transform="translate(33.33 10)"    >RPS6KB1</text></g></g></g><g id="e67ee" class="GroupGroup" transform="translate(1071.2 912.41)"  ><g class="GroupGroup"><g id="e71" class="Label" transform="translate(8,8)"  name="p90 Rsk kinases" ><g class="Label"/><text   transform="translate(53.17 8)"    font-weight="bold"  style="font-size:12px">p90 Rsk kinases</text></g><g id="ab4" class="GeneProduct " transform="translate(27.83 93.67)"  name="RPS6KA4" ><rect   width="66.67" height="20"/><text   transform="translate(33.33 10)"    >RPS6KA4</text></g><g id="bf9" class="GeneProduct " transform="translate(27.83 73.67)"  name="RPS6KA3" ><rect   width="66.67" height="20"/><text   transform="translate(33.33 10)"    >RPS6KA3</text></g><g id="c19" class="GeneProduct " transform="translate(27.83 133.67)"  name="RPS6KA6" ><rect   width="66.67" height="20"/><text   transform="translate(33.33 10)"    >RPS6KA6</text></g><g id="d16" class="GeneProduct " transform="translate(27.83 113.67)"  name="RPS6KA5" ><rect   width="66.67" height="20"/><text   transform="translate(33.33 10)"    >RPS6KA5</text></g><g id="d50" class="GeneProduct " transform="translate(27.83 33.67)"  name="RPS6KA1" ><rect   width="66.67" height="20"/><text   transform="translate(33.33 10)"    >RPS6KA1</text></g><g id="d5c" class="GeneProduct " transform="translate(27.83 53.67)"  name="RPS6KA2" ><rect   width="66.67" height="20"/><text   transform="translate(33.33 10)"    >RPS6KA2</text></g></g></g><g id="ebabd" class="GroupGroup" transform="translate(55.05 566.68)"  ><g class="GroupGroup"><g id="d74" class="Label" transform="translate(13.69 8)"  name="Vesicular trafficking" ><g class="Label"/><text   transform="translate(67.67 8)"    font-weight="bold"  style="font-size:12px">Vesicular trafficking</text></g><g id="a02" class="GeneProduct " transform="translate(8.12 107.27)"  name="STXBP2" ><rect   width="60" height="20"/><text   transform="translate(30,10)"    >STXBP2</text></g><g id="a12" class="GeneProduct " transform="translate(8.12 443.94)"  name="PSCD3" ><rect   width="60" height="20"/><text   transform="translate(30,10)"    >PSCD3</text></g><g id="adf" class="GeneProduct " transform="translate(92.71 242.74)"  name="KIF5B" ><rect   width="60" height="20"/><text   transform="translate(30,10)"    >KIF5B</text></g><g id="aea" class="GeneProduct " transform="translate(8.12 403.94)"  name="EHD2" ><rect   width="60" height="20"/><text   transform="translate(30,10)"    >EHD2</text></g><g id="aef" class="GeneProduct " transform="translate(8.12 283.94)"  name="ARF6" ><rect   width="60" height="20"/><text   transform="translate(30,10)"    >ARF6</text></g><g id="b0e" class="GeneProduct " transform="translate(8.12 343.94)"  name="RAB4A" ><rect   width="60" height="20"/><text   transform="translate(30,10)"    >RAB4A</text></g><g id="b15" class="GeneProduct " transform="translate(96.05 56.08)"  name="CAP1" ><rect   width="60" height="20"/><text   transform="translate(30,10)"    >CAP1</text></g><g id="b47" class="GeneProduct " transform="translate(8.12 87.27)"  name="STXBP1" ><rect   width="60" height="20"/><text   transform="translate(30,10)"    >STXBP1</text></g><g id="c09" class="GeneProduct " transform="translate(96.05 136.08)"  name="CRK" ><rect   width="60" height="20"/><text   transform="translate(30,10)"    >CRK</text></g><g id="c17" class="GeneProduct " transform="translate(8.12 147.27)"  name="STXBP4" ><rect   width="60" height="20"/><text   transform="translate(30,10)"    >STXBP4</text></g><g id="c48" class="GeneProduct " transform="translate(8.12 303.94)"  name="TBC1D4" ><rect   width="60" height="20"/><text   transform="translate(30,10)"    >TBC1D4</text></g><g id="c98" class="GeneProduct " transform="translate(8.12 363.94)"  name="APS" ><rect   width="60" height="20"/><text   transform="translate(30,10)"    >APS</text></g><g id="cc4" class="GeneProduct " transform="translate(8.12 383.94)"  name="EHD1" ><rect   width="60" height="20"/><text   transform="translate(30,10)"    >EHD1</text></g><g id="cdc" class="GeneProduct " transform="translate(8.12 423.94)"  name="SNX26" ><rect   width="60" height="20"/><text   transform="translate(30,10)"    >SNX26</text></g><g id="d1b" class="GeneProduct " transform="translate(8.12 187.27)"  name="STX4A" ><rect   width="60" height="20"/><text   transform="translate(30,10)"    >STX4A</text></g><g id="d37" class="GeneProduct " transform="translate(8.12 230.61)"  name="SNAP25" ><rect   width="60" height="20"/><text   transform="translate(30,10)"    >SNAP25</text></g><g id="d8e" class="GeneProduct " transform="translate(96.05 176.08)"  name="RHOQ" ><rect   width="60" height="20"/><text   transform="translate(30,10)"    >RHOQ</text></g><g id="da5" class="GeneProduct " transform="translate(8.12 207.27)"  name="SNAP23" ><rect   width="60" height="20"/><text   transform="translate(30,10)"    >SNAP23</text></g><g id="dd0" class="GeneProduct " transform="translate(96.05 96.08)"  name="CBLB" ><rect   width="60" height="20"/><text   transform="translate(30,10)"    >CBLB</text></g><g id="dfa" class="GeneProduct " transform="translate(8.12 127.27)"  name="STXBP3" ><rect   width="60" height="20"/><text   transform="translate(30,10)"    >STXBP3</text></g><g id="e09" class="GeneProduct " transform="translate(96.05 76.08)"  name="CBL" ><rect   width="60" height="20"/><text   transform="translate(30,10)"    >CBL</text></g><g id="e67" class="GeneProduct " transform="translate(8 52.67)"  name="FLOT2" ><rect   width="60" height="20"/><text   transform="translate(30,10)"    >FLOT2</text></g><g id="e73" class="GeneProduct " transform="translate(96.05 116.08)"  name="CBLC" ><rect   width="60" height="20"/><text   transform="translate(30,10)"    >CBLC</text></g><g id="e74" class="GeneProduct " transform="translate(92.71 262.74)"  name="MYO1C" ><rect   width="60" height="20"/><text   transform="translate(30,10)"    >MYO1C</text></g><g id="e7c" class="GeneProduct " transform="translate(8.12 323.94)"  name="RHOJ" ><rect   width="60" height="20"/><text   transform="translate(30,10)"    >RHOJ</text></g><g id="ea4" class="GeneProduct " transform="translate(96.05 36.08)"  name="SORBS1" ><rect   width="60" height="20"/><text   transform="translate(30,10)"    >SORBS1</text></g><g id="edb" class="GeneProduct " transform="translate(8.12 263.94)"  name="ARF1" ><rect   width="60" height="20"/><text   transform="translate(30,10)"    >ARF1</text></g><g id="f46" class="GeneProduct " transform="translate(96.05 156.08)"  name="RAPGEF1" ><rect   width="60" height="20"/><text   transform="translate(30,10)"    >RAPGEF1</text></g><g id="f8a" class="GeneProduct " transform="translate(8.12 167.27)"  name="VAMP2" ><rect   width="60" height="20"/><text   transform="translate(30,10)"    >VAMP2</text></g><g id="fa3" class="GeneProduct " transform="translate(8 32.67)"  name="FLOT1" ><rect   width="60" height="20"/><text   transform="translate(30,10)"    >FLOT1</text></g><g id="fcb" class="GeneProduct " transform="translate(92.71 222.74)"  name="KIF3A" ><rect   width="60" height="20"/><text   transform="translate(30,10)"    >KIF3A</text></g></g></g><g id="f0fc7" class="GroupGroup" transform="translate(579.4 173.84)"  ><g class="GroupGroup"><g id="a7d" class="Label" transform="translate(8,8)"  name="Insulin receptor substrates" ><g class="Label"/><text   transform="translate(101.51 8)"    font-weight="bold"  style="font-size:12px">Insulin receptor substrates</text></g><g id="a41" class="GeneProduct " transform="translate(122.9 71.47)"  name="SHC3" ><rect   width="60" height="20"/><text   transform="translate(30,10)"    >SHC3</text></g><g id="a45" class="GeneProduct " transform="translate(41.73 31.43)"  name="IRS1" ><rect   width="60" height="20"/><text   transform="translate(30,10)"    >IRS1</text></g><g id="b8a" class="GeneProduct " transform="translate(41.73 51.42)"  name="IRS2" ><rect   width="60" height="20"/><text   transform="translate(30,10)"    >IRS2</text></g><g id="c06" class="GeneProduct " transform="translate(122.9 31.47)"  name="SHC1" ><rect   width="60" height="20"/><text   transform="translate(30,10)"    >SHC1</text></g><g id="c8c" class="GeneProduct " transform="translate(41.73 71.42)"  name="IRS4" ><rect   width="60" height="20"/><text   transform="translate(30,10)"    >IRS4</text></g><g id="e5f" class="GeneProduct " transform="translate(122.9 51.47)"  name="SHC2" ><rect   width="60" height="20"/><text   transform="translate(30,10)"    >SHC2</text></g><g id="e7b" class="GeneProduct " transform="translate(41.73 91.42)"  name="GAB1" ><rect   width="60" height="20"/><text   transform="translate(30,10)"    >GAB1</text></g></g></g><g id="f9997" class="GroupGroup" transform="translate(680.85 386.52)"  ><g class="GroupGroup"><g id="d45" class="Label" transform="translate(19 8)"  name="Tor signaling" ><g class="Label"/><text   transform="translate(45.28 12.92)"    font-weight="bold" >Tor signaling</text></g><g id="ca9" class="GeneProduct " transform="translate(8 51.56)"  name="TSC2" ><rect   width="113.33" height="20"/><text   transform="translate(56.67 10)"    >TSC2</text></g><g id="d0b" class="GeneProduct " transform="translate(8 31.56)"  name="TSC1" ><rect   width="113.33" height="20"/><text   transform="translate(56.67 10)"    >TSC1</text></g></g></g><g id="a2c5c" class="GeneProduct " transform="translate(465.66 164.4)"  name="PTP" ><rect   width="80" height="20"/><text   transform="translate(40,10)"    >PTP</text></g><g id="a4f" class="GeneProduct " transform="translate(181.33 93.33)"  name="SLC2A1" ><rect   width="46.67" height="20"/><text   transform="translate(23.33 10)"    >SLC2A1</text></g><g id="b1c" class="GeneProduct " transform="translate(689.33 495.89)"  name="RHEB" ><rect   width="113.33" height="20"/><text   transform="translate(56.67 10)"    >RHEB</text></g><g id="c27" class="GeneProduct " transform="translate(560 93.33)"  name="INSR" ><rect   width="113.33" height="20"/><text   transform="translate(56.67 10)"    >INSR</text></g><g id="ce3" class="GeneProduct " transform="translate(66.67 93.33)"  name="SLC2A4" ><rect   width="60" height="20"/><text   transform="translate(30,10)"    >SLC2A4</text></g><g id="d20" class="GeneProduct " transform="translate(713.33 93.33)"  name="IGF1R" ><rect   width="100" height="20"/><text   transform="translate(50,10)"    >IGF1R</text></g><g id="eeb" class="GeneProduct " transform="translate(690 553.33)"  name="FRAP1" ><rect   width="113.33" height="20"/><text   transform="translate(56.67 10)"    >FRAP1</text></g><g id="c37a9" class="GroupComplex" transform="translate(449.57 332.23)"  ><g class="GroupComplex"><use class="Icon" width="104.00" height="64.00" fill="#b4b464" fill-opacity=".1" stroke="grey" href="#Octagon"/><g id="ae8b4" class="GeneProduct " transform="translate(12 32)"  name="IRS1/2" ><rect   width="80" height="20"/><text   transform="translate(40,10)"    >IRS1/2</text></g><g id="c8b78" class="GeneProduct " transform="translate(12,12)"  name="PIK3" ><rect   width="80" height="20"/><text   transform="translate(40,10)"    >PIK3</text></g></g></g></g></g></g></svg>