<?xml version="1.0" encoding="UTF-8"?>
<svg xmlns="http://www.w3.org/2000/svg" id="-svg" class="Diagram"  baseProfile="full" prefix="schema:http://schema.org/" preserveAspectRatio="xMidYMid"  version="1.1"><defs><g id="filter-defs"><filter id="doublefalse3filter" x="-50%" y="-50%" width="200%" height="200%"><feComposite in="SourceGraphic" in2="SourceGraphic" result="doubleDark"/><feMorphology in="doubleDark" operator="dilate" radius="0.17" result="in2Double"/><feMorphology in="SourceGraphic" operator="dilate" radius="3" result="inDouble"/><feComposite in="inDouble" in2="in2Double" operator="out" result="doubleResult"/></filter></g><g id="icon-defs"/><g id="marker-defs"><marker id="memcatalysis000" markerHeight="12" markerWidth="12" orient="auto" preserveAspectRatio="none" refX="12" refY="6" viewBox="0 0 12 12"><g id="g-memcatalysis000" transform=""><g transform="rotate(180 6 6)"><circle cx="6" cy="6" r="5.3px" fill="#fff" stroke="#000"/></g></g></marker><marker id="mea" markerHeight="12" markerWidth="12" orient="auto" preserveAspectRatio="none" refX="12" refY="6" viewBox="0 0 12 12"><g id="g-mea" transform=""><g transform="rotate(180 6 6)"><rect y="5.4" width="2" height="1.2" style="stroke:#fff"/><polygon points="12 11 0 6 12 1" stroke-width="0"/></g></g></marker><marker id="memstimulation000" markerHeight="12" markerWidth="12" orient="auto" preserveAspectRatio="none" refX="12" refY="6" viewBox="0 0 12 12"><g id="g-memstimulation000" transform=""><g transform="rotate(180 6 6)"><rect y="5.4" width="2" height="1.2" style="stroke:none"/><line x1="12" x2="12" y1="6" y2="6" fill="none"/><polygon points="0 6 11 11 11 1" fill="#fff" stroke="#000"/></g></g></marker><marker id="meminhibition000" markerHeight="20" markerWidth="10" orient="auto" preserveAspectRatio="none" refX="10" refY="10" viewBox="0 0 10 20"><g id="g-meminhibition000" transform=""><g transform="rotate(180 5 10)"><rect y="9" width="8" height="2" style="stroke:none"/><line x="0" y="0" width="12" height="12" x1="7" x2="7" y2="20" stroke="#000" stroke-width="1.8"/></g></g></marker><marker id="markerendtbar000" markerHeight="20" markerWidth="10" orient="auto" preserveAspectRatio="none" refX="10" refY="10" viewBox="0 0 10 20"><g id="g-markerendtbar000" transform=""><g transform="rotate(180 5 10)"><rect y="9" width="8" height="2" style="stroke:none"/><line x="0" y="0" width="12" height="12" x1="7" x2="7" y2="20" stroke="#000" stroke-width="1.8"/></g></g></marker><marker id="memconversion000" markerHeight="12" markerWidth="12" orient="auto" preserveAspectRatio="none" refX="12" refY="6" viewBox="0 0 12 12"><g id="g-memconversion000" transform=""><g transform="rotate(180 6 6)"><rect y="5.4" width="2" height="1.2" style="stroke:#fff"/><polygon points="12 11 0 6 12 1" stroke-width="0"/></g></g></marker></g></defs><g id="viewport-20220102144449424" class="svg-pan-zoom_viewport" transform="matrix(0.51 0 0 0.51 131.09 0)" style="transform:matrix(0.51, 0, 0, 0.51, 131.09, 0)"><style>svg.Diagram {font-family: 'Liberation Sans', Arial, sans-serif; }.Diagram path {fill: transparent;stroke: #000;marker-end: url(#mea);}.Diagram symbol path {fill: inherit;stroke: inherit;stroke-width: inherit;marker-end: inherit;}.Diagram rect {fill: #fff;stroke: #000;}.Diagram text {dominant-baseline: central;overflow: hidden;text-anchor: middle;fill: #000;font-size: 12px;}</style><style type="text/css">.Viewport .textContent {
  pointer-events: none;
  stroke-width: 0px;
}

					.Viewport.Icon {
  fill: white;
}

/* Hide the InfoBox */
.Viewport.textContent {
  font-size: 0;
}

.textContent {
  stroke: none;
}

.DataNode {
  stroke-miterlimit: 1;
  pointer-events: auto;
}

.DataNode:hover {
  cursor: pointer;
}

/* TODO should this apply to things other than DataNodes? */
.DataNode.textContent {
  pointer-events: none;
}

.DataNode.Highlighted {
  opacity: 0.6;
  stroke-width: 0px;
}

marker {
  /* this is what should work per the spec
  stroke-dasharray: none; */
  /* but I need to add this to make it work in Safari */
  stroke-dasharray: 9999999999999999999999999;
}

.Citation.Icon {
  fill: none;
  stroke-width: 0px;
}

.Citation.textContent {
  text-align: center;
  vertical-align: top;
  font-size: 7px;
  fill: #999;
  fill-opacity: 1;
  stroke: none;
}</style><g id="WP4842" class="Pathway http___identifiers_org_pw_PW_0000003 Viewport"  name="Name: Mammalian disorder of sexual development Organism: Homo sapiens" ><g class="Pathway http___identifiers_org_pw_PW_0000003 Viewport"><rect   width="1830.2" height="1393.4" style="stroke:none"/><g id="fd2d4" class=" PhysicalEntity CellularComponent Cell" transform="translate(1087 234.29)"  ><g class=" PhysicalEntity CellularComponent Cell" filter="url(#doublefalse3filter)"><g class=" PhysicalEntity CellularComponent Cell"><rect   transform="matrix(0.97 0 0 0.95 5.80 5.67)" width="354.7" height="208.06" rx="15" ry="15" stroke-width="3" style="fill:transparent;stroke:#c0c0c0"/></g></g></g><g id="a76da" class=" PhysicalEntity CellularComponent Cell" transform="translate(356.44 111.91)"  ><g class=" PhysicalEntity CellularComponent Cell" filter="url(#doublefalse3filter)"><g class=" PhysicalEntity CellularComponent Cell"><rect   transform="matrix(0.98 0 0 0.96 5.89 5.76)" width="665.67" height="288.24" rx="15" ry="15" stroke-width="3" style="fill:transparent;stroke:#c0c0c0"/></g></g></g><g id="id19dd9f7" class="Edge"  ><path    d="m723.56 309.42 99.60-26.39"/></g><g id="id2301f672" class="Edge"  ><path    d="m1440.2 287.06 162.93-0.04"/></g><g id="id26f6a5ba" class="Edge"  ><path    d="m1158.7 270.53h78.65" style="marker-end:url(#memstimulation000)"/></g><g id="id35559659" class="Edge"  ><path    d="m487.24 803.93 1.28 36.13"/></g><g id="id3de1c091" class="Edge"  ><path    d="m868.16 270.53h200.52" style="marker-end:url(#memstimulation000)"/></g><g id="id4cb257cc" class="Edge"  ><path    d="m1562.9 339.49 40.18-4e-14"/></g><g id="id4fba847c" class="Edge"  ><path    d="m509.74 753.93v-20h408.24v45.00" style="marker-end:url(#meminhibition000)"/><g id="dc5cf" class="AB" transform="translate(509.74 753.93)"  ><g class="AB"/></g></g><g id="id6d86e1cd" class="Edge"  ><path    d="m184.94 564.57 173-237.23" style="marker-end:none"/></g><g id="id6f3b41a5" class="Edge"  ><path    d="m917.98 803.93v62.08h-201.16" style="marker-end:url(#meminhibition000)"/></g><g id="id726ecb57" class="Edge"  ><path    d="m844.76 445.42 1e-13 33.45"/></g><g id="id7f6f8338" class="Edge"  ><path    d="m671.82 792.24-2e-13 36.28"/></g><g id="id88f3a294" class="Edge"  ><path    d="m940.22 702.4 0.25 76.53" style="marker-end:url(#meminhibition000)"/></g><g id="id9787ae04" class="Edge"  ><path    d="m511.02 840.07v-20h384.46v-16.13" style="marker-end:url(#markerendtbar000)"/></g><g id="id9808ceff" class="Edge"  ><path    d="m617.39 270.53h160.77"/><g id="b33d7" class="AB" transform="translate(681.7 270.53)"  ><g class="AB"/></g></g><g id="id9bc0586d" class="Edge"  ><path    d="m671.82 913.13v-34.62" style="marker-end:url(#meminhibition000)"/></g><g id="ida25635a6" class="Edge"  ><path    d="m1328.3 339.49h144.66"/><g id="fdcf9" class="AB" transform="translate(1386.1 339.49)"  ><g class="AB"/></g></g><g id="id143da76e" class="Edge"  ><path    d="m1384.6 393.42 1.54-53.94" style="marker-end:url(#memcatalysis000)"/></g><g id="idb48543bb" class="Edge"  ><path    d="m800.7 195.22-0.05 62.82"/></g><g id="idbc04d39a" class="Edge"  ><path    d="m184.94 564.57 176.67 164.44" style="marker-end:none"/></g><g id="idbd5cf5d8" class="Edge"  ><path    d="m845.66 283.03-0.90 137.39"/><g id="c0b4a" class="AB" transform="translate(845.3 337.99)"  ><g class="AB"/></g></g><g id="id3a62c4c3" class="Edge"  ><path    d="m897.49 325.55-52.20 12.43" style="marker-end:url(#memcatalysis000)"/></g><g id="idc975d7d4" class="Edge"  ><path    d="m932 195.22-86.34 62.82"/></g><g id="idd916e0" class="Edge"  ><path    d="m681.95 235.08-0.26 35.45" style="marker-end:url(#memcatalysis000)"/></g><g id="idee24bd44" class="Edge"  ><path    d="m1282.4 393.42 0.91-41.44"/></g><g id="idf0d18d37" class="Edge"  ><path    d="m1283.3 326.99-0.93-43.95"/></g><g id="idf16fa1e5" class="Edge"  ><path    d="m823.16 258.03 0.05-62.82"/></g><g id="idf69d89f8" class="Edge"  ><path    d="m844.76 503.87v33.64"/></g><g id="id8d6abe3" class="Edge"  ><path    d="m895.22 689.9h-407.98v56.03" style="marker-end:url(#meminhibition000)"/></g><g id="ida7cb1020" class="Edge"  ><path    d="m626.82 779.74-86.58-0.80" style="marker-end:url(#memconversion000)"/></g><g id="id74b6423a" class="Edge"  ><path    d="m494.6 270.95 32.79-0.42"/></g><g id="ide012415d" class="Edge"  ><path    d="m533.52 852.57 85.30 0.95" style="marker-end:url(#memconversion000)"/></g><g id="b024e" class=" PhysicalEntity CellularComponent Cell" transform="translate(65.51 497.17)"  ><g class=" PhysicalEntity CellularComponent Cell" filter="url(#doublefalse3filter)"><g class=" PhysicalEntity CellularComponent Cell"><rect   transform="matrix(0.91 0 0 0.92 5.46 5.51)" width="120.94" height="134.82" rx="15" ry="15" stroke-width="3" style="fill:transparent;stroke:#c0c0c0"/></g></g></g><g id="ff3e4" class=" PhysicalEntity CellularComponent Cell" transform="translate(360.12 637.41)"  ><g class=" PhysicalEntity CellularComponent Cell" filter="url(#doublefalse3filter)"><g class=" PhysicalEntity CellularComponent Cell"><rect   transform="matrix(0.98 0 0 0.97 5.89 5.81)" width="647.29" height="363.41" rx="15" ry="15" stroke-width="3" style="fill:transparent;stroke:#c0c0c0"/></g></g></g><g id="a35e5" class="Label" transform="translate(77.02 497.16)"  name="Bipotential ridge" ><g class="Label"/><text   transform="translate(45,12.5)"    >Bipotential ridge</text></g><g id="a3a8c" class="Label" transform="translate(741.74 537.51)"  name="Regression of M&#252;llarian Ducts" ><g class="Label"/><text   transform="translate(103.02 12.5)"    >Regression of M&#252;llarian Ducts</text></g><g id="a4c40" class="Label" transform="translate(1603.1 326.99)"  name="Male External Genetalia" ><g class="Label"/><text   transform="translate(82.34 12.5)"    >Male External Genetalia</text></g><g id="b7409" class="Label" transform="translate(365.84 114.6)"  name="Sertoli Cell" ><g class="Label"/><text   transform="translate(45,12.5)"    >Sertoli Cell</text></g><g id="e4b08" class="Label" transform="translate(77.02 474.91)"  name="Genital Ridge" ><g class="Label"/><text   transform="translate(45,12.5)"    >Genital Ridge</text></g><g id="e7803" class="Label" transform="translate(359.32 76.46)"  name="Testis" ><g class="Label"/><text   transform="translate(45,12.5)"    >Testis</text></g><g id="ec9da" class="Label" transform="translate(364.13 643.14)"  name="Granulosa Cell" ><g class="Label"/><text   transform="translate(45,12.5)"    >Granulosa Cell</text></g><g id="eee01" class="Label" transform="translate(354.2 595.71)"  name="Ovary" ><g class="Label"/><text   transform="translate(45,12.5)"    >Ovary</text></g><g id="fc1a4" class="Label" transform="translate(1603.1 274.52)"  name="Male Internal Genetalia" ><g class="Label"/><text   transform="translate(82.34 12.5)"    >Male Internal Genetalia</text></g><g id="a02d8" class="GeneProduct " transform="translate(778.16 258.03)"  name="SOX9" ><rect   width="90" height="25"/><text   transform="translate(45,12.5)"    >SOX9</text></g><g id="a14cd" class="GeneProduct " transform="translate(897.49 338.05)"  name="WT1" ><rect   width="90" height="25"/><text   transform="translate(45,12.5)"    >WT1</text></g><g id="a3af9" class="GeneProduct " transform="translate(799.76 420.42)"  name="AMH" ><rect   width="90" height="25"/><text   transform="translate(45,12.5)"    >AMH</text></g><g id="ac679" class="GeneProduct " transform="translate(897.49 363.05)"  name="SOX8" ><rect   width="90" height="25"/><text   transform="translate(45,12.5)"    >SOX8</text></g><g id="aeb4b" class="GeneProduct " transform="translate(77.02 591.7)"  name="CBX2" ><rect   width="90" height="25"/><text   transform="translate(45,12.5)"    >CBX2</text></g><g id="b5c18" class="Metabolite " transform="translate(1238.3 326.99)"  name="Testosterone" ><rect   width="90" height="25" style="stroke:#00f"/><text   transform="translate(45,12.5)"     style="fill:#00f">Testosterone</text></g><g id="bfaa8" class="GeneProduct " transform="translate(636.95 210.08)"  name="NR5A1" ><rect   width="90" height="25"/><text   transform="translate(45,12.5)"    >NR5A1</text></g><g id="c6dc9" class="GeneProduct " transform="translate(1237.3 258.03)"  name="INSL3" ><rect   width="90" height="25"/><text   transform="translate(45,12.5)"    >INSL3</text></g><g id="c819e" class="Metabolite " transform="translate(633.56 296.92)"  name="PGD2" ><rect   width="90" height="25" style="stroke:#00f"/><text   transform="translate(45,12.5)"     style="fill:#00f">PGD2</text></g><g id="cc896" class="GeneProduct " transform="translate(872.98 778.93)"  name="SOX9" ><rect   width="90" height="25"/><text   transform="translate(45,12.5)"    >SOX9</text></g><g id="d1909" class="GeneProduct " transform="translate(1068.7 258.03)"  name="DHH" ><g class="GeneProduct "/><text   transform="translate(45,12.5)"    font-weight="bold"  style="fill:#14961e">DHH</text></g><g id="d562c" class="GeneProduct " transform="translate(626.82 913.13)"  name="DMRT1" ><rect   width="90" height="25"/><text   transform="translate(45,12.5)"    >DMRT1</text></g><g id="d6d45" class="Metabolite " transform="translate(1472.9 326.99)"  name="DHT" ><rect   width="90" height="25" style="stroke:#00f"/><text   transform="translate(45,12.5)"     style="fill:#00f">DHT</text></g><g id="d6ee7" class="GeneProduct " transform="translate(1237.4 393.42)"  name="NR5A1" ><rect   width="90" height="25"/><text   transform="translate(45,12.5)"    >NR5A1</text></g><g id="e034d" class="GeneProduct " transform="translate(897.49 288.05)"  name="NR5A1" ><rect   width="90" height="25"/><text   transform="translate(45,12.5)"    >NR5A1</text></g><g id="e0ca8" class="GeneProduct " transform="translate(443.52 840.07)"  name="CTNNB1" ><rect   width="90" height="25"/><text   transform="translate(45,12.5)"    >CTNNB1</text></g><g id="e0f21" class="GeneProduct " transform="translate(1339.6 393.42)"  name="SRD5A1" ><rect   width="90" height="25"/><text   transform="translate(45,12.5)"    >SRD5A1</text></g><g id="ea517" class="GeneProduct " transform="translate(77.02 516.7)"  name="WT1" ><rect   width="90" height="25"/><text   transform="translate(45,12.5)"    >WT1</text></g><g id="f258f" class="GeneProduct " transform="translate(77.02 566.7)"  name="PBX1" ><rect   width="90" height="25"/><text   transform="translate(45,12.5)"    >PBX1</text></g><g id="f3472" class="GeneProduct " transform="translate(887 170.22)"  name="PTGDS" ><rect   width="90" height="25"/><text   transform="translate(45,12.5)"    >PTGDS</text></g><g id="f45a5" class="GeneProduct " transform="translate(527.39 258.03)"  name="SRY" ><rect   width="90" height="25"/><text   transform="translate(45,12.5)"    >SRY</text></g><g id="f469d" class="GeneProduct " transform="translate(778.2 170.22)"  name="FGFR2" ><rect   width="90" height="25"/><text   transform="translate(45,12.5)"    >FGFR2</text></g><g id="f89b5" class="GeneProduct " transform="translate(799.76 478.87)"  name="AMHR2" ><rect   width="90" height="25"/><text   transform="translate(45,12.5)"    >AMHR2</text></g><g id="f8fca" class="GeneProduct " transform="translate(897.49 313.05)"  name="GATA4" ><rect   width="90" height="25"/><text   transform="translate(45,12.5)"    >GATA4</text></g><g id="fc52c" class="GeneProduct " transform="translate(626.82 767.24)"  name="NR5A1" ><rect   width="90" height="25"/><text   transform="translate(45,12.5)"    >NR5A1</text></g><g id="fcb3c" class="GeneProduct " transform="translate(778.2 145.22)"  name="FGF9" ><rect   width="90" height="25"/><text   transform="translate(45,12.5)"    >FGF9</text></g><g id="fd6d1" class="GeneProduct " transform="translate(77.02 542.56)"  name="EMX2" ><rect   width="90" height="25"/><text   transform="translate(45 12.5)"    >EMX2</text></g><g id="fed28" class="GeneProduct " transform="translate(895.22 677.4)"  name="MAPK11" ><rect   width="90" height="25"/><text   transform="translate(45,12.5)"    >MAPK11</text></g><g id="bbf47" class="GroupGroup" transform="translate(434.24 745.93)"  ><g class="GroupGroup"><g id="db344" class="GeneProduct " transform="translate(8,8)"  name="RSPO1" ><rect   width="90" height="25"/><text   transform="translate(45,12.5)"    >RSPO1</text></g><g id="e3c3c" class="GeneProduct " transform="translate(8 33)"  name="WNT4" ><rect   width="90" height="25"/><text   transform="translate(45,12.5)"    >WNT4</text></g></g></g><g id="cab4b" class="GroupGroup" transform="translate(388.6 225.45)"  ><g class="GroupGroup"><g id="a1a55" class="GeneProduct " transform="translate(8,8)"  name="GATA4" ><rect   width="90" height="25"/><text   transform="translate(45,12.5)"    >GATA4</text></g><g id="c11d3" class="GeneProduct " transform="translate(8 33)"  name="RBFOX2" ><rect   width="90" height="25"/><text   transform="translate(45,12.5)"    >RBFOX2</text></g><g id="daa8a" class="GeneProduct " transform="translate(8 58)"  name="WT1" ><rect   width="90" height="25"/><text   transform="translate(45,12.5)"    >WT1</text></g></g></g><g id="d0a18" class="GroupGroup" transform="translate(618.82 820.52)"  ><g class="GroupGroup"><g id="a9214" class="GeneProduct " transform="translate(8,8)"  name="FST" ><rect   width="90" height="25"/><text   transform="translate(45,12.5)"    >FST</text></g><g id="b0e0c" class="GeneProduct " transform="translate(8,33)"  name="FOXL2" ><rect   width="90" height="25"/><text   transform="translate(45,12.5)"    >FOXL2</text></g></g></g></g></g></g></svg>