<?xml version="1.0" encoding="UTF-8"?>
<!--
  WikiPathways page: https://www.wikipathways.org/index.php/Pathway:WP4860
  URL for this compressed file: https://github.com/eweitz/cachome/tree/main/data/WP4860.svg
  Source code for compression: https://github.com/eweitz/cachome/tree/main/src/wikipathways.py
-->
<svg id="wp4860-svg" class="Diagram" width="800" height="600" color="black" baseProfile="full" prefix="schema:http://schema.org/" preserveAspectRatio="xMidYMid" version="1.1" viewBox="0 0 359.64 259.65" vocab="http://vocabularies.wikipathways.org/wp#" xmlns="http://www.w3.org/2000/svg" xmlns:xlink="http://www.w3.org/1999/xlink"><style>svg {font-family: 'Liberation Sans', Arial, sans-serif; }</style><defs><g id="jit-defs"><filter id="kaavioblackto000000filter" x="0" y="0" width="359.64" height="259.65" filterUnits="userSpaceOnUse"><feColorMatrix in="SourceGraphic" values="-1   0   0 0 0                   0  -1   0 0 0                   0   0  -1 0 0                   0   0   0 1 0"/></filter><filter id="kaavioblacktoeb0000filter" x="0" y="0" width="359.64" height="259.65" filterUnits="userSpaceOnUse"><feColorMatrix in="SourceGraphic" values="-1   0   0 0 0.9215686274509803                   0  -1   0 0 0                   0   0  -1 0 0                   0   0   0 1 0"/></filter></g><g id="jic-defs"><marker id="markerEndArrow" stroke-dasharray="99999" markerHeight="12" markerUnits="userSpaceOnUse" markerWidth="12" orient="auto" preserveAspectRatio="none" refX="12" refY="6" viewBox="0 0 12 12"><path transform="rotate(180 6 6)" d="M12 11L0 6l12-5z" fill="currentColor" stroke-width="0"/></marker><marker id="markerEndMimInhibition" stroke-dasharray="99999" markerHeight="20" markerUnits="userSpaceOnUse" markerWidth="10" orient="auto" preserveAspectRatio="none" refX="10" refY="10" viewBox="0 0 10 20"><path d="m3 0v20" fill="currentColor" stroke="currentColor"/></marker><symbol id="Ellipse" overflow="visible" preserveAspectRatio="none" viewBox="0 0 50 50"><ellipse cx="25" cy="25" rx="25" ry="25" stroke="currentColor" vector-effect="non-scaling-stroke"/></symbol><symbol id="Octagon" overflow="visible" preserveAspectRatio="none" viewBox="0 0 100 100"><path d="M0 25L25 0h50l25 25v50l-25 25H25L0 75z" stroke="currentColor" vector-effect="non-scaling-stroke"/></symbol><symbol id="none" preserveAspectRatio="none" viewBox="0 0 100 100"/></g></defs><g id="WP4860" class="Viewport" color="black"  name="Name: Hijack of ubiquitination by SARS-CoV-2 Organism: Homo sapiens"><rect id="WP4860-icon" class="Icon" width="359.64" height="259.65" fill="#fff" stroke="#000" stroke-width="0"/><g id="id3979ccaf" class="DirectedInteraction" color="#000" ><g color="#000" fill="transparent"  filter="url(#kaavioblackto000000filter)" stroke="#000" stroke-dasharray="5.29, 3.17, 5.29, 3.17, 5.29, 3.17, 5.29, 3.17, 5.29, 3.17, 5.29, 3.17, 5.29, 5.8"><path id="id3979ccaf" class="EdgeBody" d="m248.71 185.88-61.82-0.87345"   marker-end="url(#markerEndArrow)" /></g></g><g id="id92c39589" class="DirectedInteraction" color="#000" ><g color="#000" fill="transparent"  filter="url(#kaavioblackto000000filter)" stroke="#000" stroke-dasharray="35.169284281918706, 5.8"><path id="id92c39589" class="EdgeBody" d="m113.18 110.06 0.049808-40.969"   marker-end="url(#markerEndArrow)" /></g></g><g id="idf1661f52" class="DirectedInteraction" color="#000" ><g color="#000" fill="transparent"  filter="url(#kaavioblackto000000filter)" stroke="#000" stroke-dasharray="5.56, 3.33, 5.56, 3.33, 5.56, 3.33, 5.56, 3.33, 5.56, 3.33, 5.56, 3.33, 5.56, 5.8"><path id="idf1661f52" class="EdgeBody" d="m170.86 100.98v-3.2795c0-3.2795 0-9.8384-6.5523-13.118-6.5523-3.2795-19.657-3.2795-26.209 0.013512-6.5523 3.293-6.5523 9.879-6.5523 13.172v3.293"   marker-end="url(#markerEndArrow)" /></g></g><g id="idc583d98b" class="Interaction" color="#eb0000" ><g color="#eb0000" fill="transparent"  filter="url(#kaavioblacktoeb0000filter)" stroke="#000" stroke-dasharray="29.02070761875406, 7"><path id="idc583d98b" class="EdgeBody" d="m285.31 112.86-0.096736 36.021"   marker-end="url(#markerEndMimInhibition)" /></g></g><g id="pvjsgeneratedidfbcad" class="GroupComplex" transform="translate(18.363 92.323)" color="grey" ><use id="pvjsgeneratedidfbcad-icon" class="Icon" transform="matrix(.99528 0 0 .99235 .49764 .49617)" width="210.83826149385828" height="129.6837606837605" fill="#b4b464" fill-opacity=".1" stroke="grey" xlink:href="#Octagon"/><a  id="cb26a" class="Protein " transform="translate(12,12)"   name="Orf10"  ><use id="cb26a-icon" class="Icon" transform="matrix(.98214 0 0 .96774 .49107 .48387)" width="55" height="30" fill="#ffcccc" stroke="#000" xlink:href="#Ellipse"/><text id="cb26a-text" class="Text" transform="translate(27.5,19)" fill="#000"  font-size="14px" font-weight="bold" stroke="white" stroke-width="0" text-anchor="middle"><tspan x="0" y="0">Orf10</tspan></text></a><a  id="d8af8" class="GeneProduct CUL2 " transform="translate(104.53 67.684)"   name="CUL2"  ><rect id="d8af8-icon" class="Icon" transform="matrix(.98214 0 0 .96154 .49107 .48077)" width="55" height="25" fill="#fff" stroke="#000"/><g id="a6b93" class="Burr State" transform="translate(46,16)" color="#000"  name="N8"><use id="a6b93-icon" class="Icon" transform="matrix(.94737 0 0 .94737 .47368 .47368)" width="18" height="18" fill="#fff" stroke="#000" xlink:href="#Ellipse"/><text id="a6b93-text" class="Text" transform="translate(9,12)" fill="#000"  font-size="10px" stroke="white" stroke-width="0" text-anchor="middle"><tspan x="0" y="0">N8</tspan></text></g><text id="d8af8-text" class="Text" transform="translate(27.5,16.5)" fill="#000"  font-size="12px" stroke="white" stroke-width="0" text-anchor="middle"><tspan x="0" y="0">CUL2</tspan></text></a><a  id="e916f" class="GeneProduct ELOC " transform="translate(49.529 67.684)"   name="ELOC"  ><rect id="e916f-icon" class="Icon" transform="matrix(.98214 0 0 .96154 .49107 .48077)" width="55" height="25" fill="#fff" stroke="#000"/><text id="e916f-text" class="Text" transform="translate(27.5,16.5)" fill="#000"  font-size="12px" stroke="white" stroke-width="0" text-anchor="middle"><tspan x="0" y="0">ELOC</tspan></text></a><a  id="e4a09" class="GeneProduct ELOB " transform="translate(34.378 92.684)"   name="ELOB"  ><rect id="e4a09-icon" class="Icon" transform="matrix(.98214 0 0 .96154 .49107 .48077)" width="55" height="25" fill="#fff" stroke="#000"/><text id="e4a09-text" class="Text" transform="translate(27.5,16.5)" fill="#000"  font-size="12px" stroke="white" stroke-width="0" text-anchor="middle"><tspan x="0" y="0">ELOB</tspan></text></a><a  id="a7eea" class="GeneProduct RBX1 " transform="translate(127.77 42.654)"   name="RBX1"  ><rect id="a7eea-icon" class="Icon" transform="matrix(.98214 0 0 .96154 .49107 .48077)" width="55" height="25" fill="#fff" stroke="#000"/><text id="a7eea-text" class="Text" transform="translate(27.5,16.5)" fill="#000"  font-size="12px" stroke="white" stroke-width="0" text-anchor="middle"><tspan x="0" y="0">RBX1</tspan></text></a><a  id="ac58a" class="GeneProduct CBFB " transform="translate(143.84 17.654)"   name="E2"  ><rect id="ac58a-icon" class="Icon" transform="matrix(.98214 0 0 .96154 .49107 .48077)" width="55" height="25" fill="#fff" stroke="#000"/><g id="fbcac" class="Burr State" transform="translate(-.34199 -9)" color="#000"  name="Ub"><use id="fbcac-icon" class="Icon" transform="matrix(.94737 0 0 .94737 .47368 .47368)" width="18" height="18" fill="#fff" stroke="#000" xlink:href="#Ellipse"/><text id="fbcac-text" class="Text" transform="translate(9,12)" fill="#000"  font-size="10px" stroke="white" stroke-width="0" text-anchor="middle"><tspan x="0" y="0">Ub</tspan></text></g><text id="ac58a-text" class="Text" transform="translate(27.5,16.5)" fill="#000"  font-size="12px" stroke="white" stroke-width="0" text-anchor="middle"><tspan x="0" y="0">E2</tspan></text></a><a  id="b75da" class="GeneProduct ZYG11B " transform="translate(32.077 42.684)"   name="ZYG11B"  ><rect id="b75da-icon" class="Icon" transform="matrix(.98214 0 0 .96154 .49107 .48077)" width="55" height="25" fill="#fff" stroke="#000"/><text id="b75da-text" class="Text" transform="translate(27.5,16.5)" fill="#000"  font-size="12px" stroke="white" stroke-width="0" text-anchor="middle"><tspan x="0" y="0">ZYG11B</tspan></text></a></g><g id="c466c" class="GroupComplex" transform="translate(245.71 148.88)" color="grey" ><use id="c466c-icon" class="Icon" transform="matrix(.9875 0 0 .98667 .49375 .49333)" width="79.00000000000011" height="74.00000000000003" fill="#b4b464" fill-opacity=".1" stroke="grey" xlink:href="#Octagon"/><a  id="d10c6" class="GeneProduct NAE1 " transform="translate(12,12)"   name="NAE1"  ><rect id="d10c6-icon" class="Icon" transform="matrix(.98214 0 0 .96154 .49107 .48077)" width="55" height="25" fill="#fff" stroke="#000"/><text id="d10c6-text" class="Text" transform="translate(27.5,16.5)" fill="#000"  font-size="12px" stroke="white" stroke-width="0" text-anchor="middle"><tspan x="0" y="0">NAE1</tspan></text></a><a  id="a87a8" class="GeneProduct UBA3 " transform="translate(12 37)"   name="UBA3"  ><rect id="a87a8-icon" class="Icon" transform="matrix(.98214 0 0 .96154 .49107 .48077)" width="55" height="25" fill="#fff" stroke="#000"/><g id="c08d9" class="Burr State" transform="translate(-9 -9)" color="#000"  name="N8"><use id="c08d9-icon" class="Icon" transform="matrix(.94737 0 0 .94737 .47368 .47368)" width="18" height="18" fill="#fff" stroke="#000" xlink:href="#Ellipse"/><text id="c08d9-text" class="Text" transform="translate(9,12)" fill="#000"  font-size="10px" stroke="white" stroke-width="0" text-anchor="middle"><tspan x="0" y="0">N8</tspan></text></g><text id="a87a8-text" class="Text" transform="translate(27.5,16.5)" fill="#000"  font-size="12px" stroke="white" stroke-width="0" text-anchor="middle"><tspan x="0" y="0">UBA3</tspan></text></a></g><a id="dda75" class="Metabolite ChEBI_CHEBI_95028 " transform="translate(240.97 92.859)" color="#00f"  name="pevonedistat"  ><rect id="dda75-icon" class="Icon" transform="matrix(.98885 0 0 .95238 .49442 .47619)" width="88.669" height="20" rx="15" ry="15" fill="#fff" stroke="#00f"/><text id="dda75-text" class="Text" transform="translate(44.334 14)" fill="#00f"  font-size="12px" stroke="white" stroke-width="0" text-anchor="middle"><tspan x="0" y="0">pevonedistat</tspan></text></a><a id="e5bba" class="WikiPathways_WP183 Pathway " transform="translate(27.022 44.089)" color="#14961e"  name="Proteasome Degradation"  ><rect id="e5bba-icon" class="Icon" transform="matrix(.99423 0 0 .96154 .49712 .48077)" width="172.42" height="25" rx="15" ry="15" fill="#fff" stroke="#14961e"/><text id="e5bba-text" class="Text" transform="translate(86.212 15.5)" fill="#14961e"  font-size="11px" font-weight="bold" stroke="black" stroke-width="0" text-anchor="middle"><tspan x="0" y="0">Proteasome Degradation</tspan></text></a><g id="d1f64" class="GeneProduct" transform="translate(85.684 110.06)" color="#666666"  name="Substrate"><rect id="d1f64-icon" class="Icon" transform="matrix(.98214 0 0 .96154 .49107 .48077)" width="55" height="25" fill="#fff" stroke="#666"/><g id="cc693" class="Burr State" transform="translate(36.861 -9)" color="#000"  name="Ub"><use id="cc693-icon" class="Icon" transform="matrix(.94737 0 0 .94737 .47368 .47368)" width="18" height="18" fill="#fff" stroke="#000" xlink:href="#Ellipse"/><text id="cc693-text" class="Text" transform="translate(9,12)" fill="#000"  font-size="10px" stroke="white" stroke-width="0" text-anchor="middle"><tspan x="0" y="0">Ub</tspan></text></g><text id="d1f64-text" class="Text" transform="translate(27.5,15.5)" fill="#666666"  font-size="11px" font-style="italic" stroke="white" stroke-width="0" text-anchor="middle"><tspan x="0" y="0">Substrate</tspan></text></g><g id="b88fb" class="Label" transform="translate(259.43 143.36)" color="#666666"  name="NAE"><use id="b88fb-icon" class="Icon" width="51" height="25" fill="transparent"  stroke="#666666" stroke-width="0" xlink:href="#none"/><text id="b88fb-text" class="Text" transform="translate(25.5,15.5)" fill="#666666"  font-size="10px" font-weight="bold" stroke="white" stroke-width="0" text-anchor="middle"><tspan x="0" y="0">NAE</tspan></text></g><g id="bbb9d" class="Label" transform="translate(78.402 204.65)" color="#666666"  name="CUL2(ZYG11B)"><use id="bbb9d-icon" class="Icon" width="87.79316493623583" height="25" fill="transparent"  stroke="#666666" stroke-width="0" xlink:href="#none"/><text id="bbb9d-text" class="Text" transform="translate(43.897 15.5)" fill="#666666"  font-size="10px" font-weight="bold" stroke="white" stroke-width="0" text-anchor="middle"><tspan x="0" y="0">CUL2(ZYG11B)</tspan></text></g><text id="WP4860-text" class="Text" transform="translate(5,27)" dominant-baseline="central" fill="black"  font-size="12px" font-weight="bold" overflow="visible" stroke="white" stroke-width="0"><tspan x="0" y="-9">Name: Hijack of ubiquitination by SARS-CoV-2</tspan> <tspan x="0" y="9">Organism: Homo sapiens</tspan></text></g></svg>
