<?xml version="1.0" encoding="UTF-8"?>
<svg xmlns="http://www.w3.org/2000/svg" id="-svg" class="Diagram"  baseProfile="full" prefix="schema:http://schema.org/" preserveAspectRatio="xMidYMid"  version="1.1"><defs><g id="filter-defs"><filter id="doubletrue0filter" x="-50%" y="-50%" width="200%" height="200%"><feMorphology in="SourceGraphic" operator="dilate" radius="1" result="in2Double"/><feMorphology in="SourceGraphic" radius="1" result="inDouble"/><feComposite in="inDouble" in2="in2Double" operator="atop" result="doubleResult"/></filter></g><g id="icon-defs"><symbol id="HexagonPathVisio" class=" Icon HexagonPathVisio" x="0" y="8" overflow="visible" preserveAspectRatio="none" viewBox="0 8 100 86"><desc>HexagonPathVisio</desc><g transform="scale(1 0.85)"><path d="m1.42 51.00 21.07-42.14h56.19l21.07 42.14-21.07 42.15h-56.19l-21.07-42.15z" stroke="currentColor" vector-effect="non-scaling-stroke"/></g></symbol><symbol id="Octagon" class=" Icon Octagon" x="0" y="0" overflow="visible" preserveAspectRatio="none" viewBox="0 0 100 100"><desc>Octagon</desc><path d="m0 25 25-25h50l25 25v50l-25 25h-50l-25-25z" vector-effect="non-scaling-stroke"/></symbol></g><g id="marker-defs"><marker id="memcatalysis000" markerHeight="12" markerWidth="12" orient="auto" preserveAspectRatio="none" refX="12" refY="6" viewBox="0 0 12 12"><g id="g-memcatalysis000" transform=""><g transform="rotate(180 6 6)"><circle cx="6" cy="6" r="5.3px" fill="#fff" stroke="#000"/></g></g></marker><marker id="mea" markerHeight="12" markerWidth="12" orient="auto" preserveAspectRatio="none" refX="12" refY="6" viewBox="0 0 12 12"><g id="g-mea" transform=""><g transform="rotate(180 6 6)"><rect y="5.4" width="2" height="1.2" style="stroke:#fff"/><polygon points="12 11 0 6 12 1" stroke-width="0"/></g></g></marker><marker id="markerendtbar000" markerHeight="20" markerWidth="10" orient="auto" preserveAspectRatio="none" refX="10" refY="10" viewBox="0 0 10 20"><g id="g-markerendtbar000" transform=""><g transform="rotate(180 5 10)"><rect y="9" width="8" height="2" style="stroke:none"/><line x="0" y="0" width="12" height="12" x1="7" x2="7" y2="20" stroke="#000" stroke-width="1.8"/></g></g></marker></g></defs><g id="viewport-20220102144832611" class="svg-pan-zoom_viewport" transform="matrix(0.53 0 0 0.53 149.93 0)" style="transform:matrix(0.53, 0, 0, 0.53, 149.93, 0)"><style>svg.Diagram {font-family: 'Liberation Sans', Arial, sans-serif; }.Diagram path {fill: transparent;stroke: #000;marker-end: url(#mea);}.Diagram symbol path {fill: inherit;stroke: inherit;stroke-width: inherit;marker-end: inherit;}.Diagram rect {fill: #fff;stroke: #000;}.Diagram text {dominant-baseline: central;overflow: hidden;text-anchor: middle;fill: #000;font-size: 10px;}</style><style type="text/css">.Viewport .textContent {
  pointer-events: none;
  stroke-width: 0px;
}

					.Viewport.Icon {
  fill: white;
}

/* Hide the InfoBox */
.Viewport.textContent {
  font-size: 0;
}

.textContent {
  stroke: none;
}

.DataNode {
  stroke-miterlimit: 1;
  pointer-events: auto;
}

.DataNode:hover {
  cursor: pointer;
}

/* TODO should this apply to things other than DataNodes? */
.DataNode.textContent {
  pointer-events: none;
}

.DataNode.Highlighted {
  opacity: 0.6;
  stroke-width: 0px;
}

marker {
  /* this is what should work per the spec
  stroke-dasharray: none; */
  /* but I need to add this to make it work in Safari */
  stroke-dasharray: 9999999999999999999999999;
}

.Citation.Icon {
  fill: none;
  stroke-width: 0px;
}

.Citation.textContent {
  text-align: center;
  vertical-align: top;
  font-size: 7px;
  fill: #999;
  fill-opacity: 1;
  stroke: none;
}</style><g id="WP4994" class="Pathway http___identifiers_org_pw_PW_0001281 Viewport"  name="Name: Tryptophan catabolism Organism: Homo sapiens" ><g class="Pathway http___identifiers_org_pw_PW_0001281 Viewport"><rect   width="1694" height="1259" style="stroke:none"/><g id="b3b3b" class="Reactome_R-HSA-71200"  ><path    d="m690 283v118" style="marker-end:none"/><g id="d3ac9" class="AB" transform="translate(690,283)"  ><g class="AB"/></g><g id="e9721" class="AB" transform="translate(690 399.82)"  ><g class="AB"/></g><g id="e7ff0" class="AB" transform="translate(690,342)"  ><g class="AB"/></g></g><g id="a6fff" class="Reactome_R-HSA-71200"  ><path    d="m690 218v65" style="marker-end:none"/></g><g id="b5ee4" class="Reactome_R-HSA-71200"  ><path    d="m663 263 27 20" style="marker-end:none"/></g><g id="c08d7" class="Reactome_R-HSA-71217"  ><path    d="m825 462h96" style="marker-end:none"/><g id="c5c6d" class="AB" transform="translate(825,462)"  ><g class="AB"/></g><g id="a5c9a" class="AB" transform="translate(920.04,462)"  ><g class="AB"/></g><g id="ee5a8" class="AB" transform="translate(873,462)"  ><g class="AB"/></g></g><g id="c21e9" class="Reactome_R-HSA-893597"  ><path    d="m1499 195h61" style="marker-end:none"/><g id="b8e3a" class="AB" transform="translate(1499,195)"  ><g class="AB"/></g><g id="e3ec5" class="AB" transform="translate(1559.4 195)"  ><g class="AB"/></g></g><g id="bd355" class="Reactome_R-HSA-893597"  ><path    d="m1496 195h3" style="marker-end:none"/></g><g id="acd64" class="Reactome_R-HSA-893597"  ><path    d="m1560 195 21-27"/></g><g id="c7c1b" class="Reactome_R-HSA-71200"  ><path    d="m690 401-26 76"/></g><g id="cf5fc" class="Reactome_R-HSA-71223"  ><path    d="m1208 462h92" style="marker-end:none"/><g id="a89d2" class="AB" transform="translate(1208,462)"  ><g class="AB"/></g><g id="afc42" class="AB" transform="translate(1299.1 462)"  ><g class="AB"/></g><g id="c182f" class="AB" transform="translate(1254,462)"  ><g class="AB"/></g></g><g id="d0237" class="Reactome_R-HSA-893597"  ><path    d="m1560 195 25 27"/></g><g id="d35f9" class="Reactome_R-HSA-71217"  ><path    d="m921 462 65-146"/></g><g id="d43cd" class="Reactome_R-HSA-8870352"  ><path    d="m91 201h139" style="marker-end:none"/><g id="bcd05" class="AB" transform="translate(91,201)"  ><g class="AB"/></g><g id="f78d7" class="AB" transform="translate(228.61 201)"  ><g class="AB"/></g><g id="db49d" class="AB" transform="translate(160.5,201)"  ><g class="AB"/></g></g><g id="b1dba" class="Reactome_R-HSA-8870352"  ><path    d="m87 201h4" style="marker-end:none"/></g><g id="c589d" class="Reactome_R-HSA-8870352"  ><path    d="m230 201 3 1"/></g><g id="a3e42" class="Reactome_R-HSA-8870352"  ><path    d="m124 151 30 50" style="marker-end:url(#memcatalysis000)"/></g><g id="d4bc1" class="Reactome_R-HSA-71223"  ><path    d="m1300 462 38 1"/></g><g id="d55b5" class="Reactome_R-HSA-888614"  ><path    d="m355 281 100-61" style="marker-end:none"/><g id="ac3ea" class="AB" transform="translate(355,281)"  ><g class="AB"/></g><g id="db498" class="AB" transform="translate(454,220.61)"  ><g class="AB"/></g><g id="e6a29" class="AB" transform="translate(405,250.5)"  ><g class="AB"/></g></g><g id="b08bb" class="Reactome_R-HSA-888614"  ><path    d="m283 202 72 79" style="marker-end:none"/></g><g id="d6730" class="Reactome_R-HSA-71223"  ><path    d="m1204 463 4-1" style="marker-end:none"/></g><g id="d6b89" class="Reactome_R-HSA-893609"  ><path    d="m1034 203h93" style="marker-end:none"/><g id="ca06a" class="AB" transform="translate(1034,203)"  ><g class="AB"/></g><g id="ffd30" class="AB" transform="translate(1126.1 203)"  ><g class="AB"/></g></g><g id="b6b67" class="Reactome_R-HSA-893609"  ><path    d="m1030 204 4-1" style="marker-end:none"/></g><g id="c05eb" class="Reactome_R-HSA-893609"  ><path    d="m1127 203 40-28"/></g><g id="d80d1" class="Reactome_R-HSA-71223"  ><path    d="m1212 420 43 42" style="marker-end:url(#memcatalysis000)"/></g><g id="d8181" class="Reactome_R-HSA-71200"  ><path    d="m690 401 19 62"/></g><g id="d9351" class="Reactome_R-HSA-71200"  ><path    d="m690 401-33 45"/></g><g id="d9399" class="Reactome_R-HSA-888614"  ><path    d="m391 317 18-36" style="marker-end:url(#memcatalysis000)"/></g><g id="d9e08" class="Reactome_R-HSA-71223"  ><path    d="m1300 462 23 27"/></g><g id="de603" class="Reactome_R-HSA-71189"  ><path    d="m539 203h76" style="marker-end:none"/><g id="cfccd" class="AB" transform="translate(539,203)"  ><g class="AB"/></g><g id="e8a74" class="AB" transform="translate(614.24 203)"  ><g class="AB"/></g><g id="b0407" class="AB" transform="translate(577,203)"  ><g class="AB"/></g></g><g id="a6b5a" class="Reactome_R-HSA-71189"  ><path    d="m515 163 24 40" style="marker-end:none"/></g><g id="b4c94" class="Reactome_R-HSA-71189"  ><path    d="m615 203h48"/></g><g id="a749e" class="Reactome_R-HSA-71189"  ><path    d="m552 158 23 45" style="marker-end:url(#memcatalysis000)"/></g><g id="df714" class="Reactome_R-HSA-71239"  ><path    d="m1458 462h82" style="marker-end:none"/><g id="a2585" class="AB" transform="translate(1458,462)"  ><g class="AB"/></g><g id="a5419" class="AB" transform="translate(1539.2 462)"  ><g class="AB"/></g><g id="b509f" class="AB" transform="translate(1499,462)"  ><g class="AB"/></g></g><g id="c1d0c" class="Reactome_R-HSA-71239"  ><path    d="m1445 497 13-35" style="marker-end:none"/></g><g id="cf09a" class="Reactome_R-HSA-71239"  ><path    d="m1388 463 70-1" style="marker-end:none"/></g><g id="b0c6a" class="Reactome_R-HSA-71239"  ><path    d="m1540 462h60"/></g><g id="b1fcd" class="Reactome_R-HSA-71239"  ><path    d="m1540 462 11 42"/></g><g id="c3432" class="Reactome_R-HSA-71239"  ><path    d="m1540 462 25-42"/></g><g id="b86bd" class="Reactome_R-HSA-71239"  ><path    d="m1484 411 1 51" style="marker-end:url(#memcatalysis000)"/></g><g id="e07d6" class="Reactome_R-HSA-71217"  ><path    d="m826 415 39 47" style="marker-end:url(#memcatalysis000)"/></g><g id="e1276" class="Reactome_R-HSA-893583"  ><path    d="m1322 194h79" style="marker-end:none"/><g id="bddc1" class="AB" transform="translate(1322,194)"  ><g class="AB"/></g><g id="faf4a" class="AB" transform="translate(1400.2 194)"  ><g class="AB"/></g><g id="da3f2" class="AB" transform="translate(1361.5,194)"  ><g class="AB"/></g></g><g id="c8562" class="Reactome_R-HSA-893583"  ><path    d="m1291 220 31-26" style="marker-end:none"/></g><g id="d0d67" class="Reactome_R-HSA-893583"  ><path    d="m1306 171 16 23" style="marker-end:none"/></g><g id="b0e67" class="Reactome_R-HSA-893583"  ><path    d="m1401 194 39 1"/></g><g id="cd73c" class="Reactome_R-HSA-893583"  ><path    d="m1401 194 42-38"/></g><g id="e16ad" class="Reactome_R-HSA-888614"  ><path    d="m306 187 49 94" style="marker-end:none"/></g><g id="e477c" class="Reactome_R-HSA-893596"  ><path    d="m810 203h95" style="marker-end:none"/><g id="b2bdd" class="AB" transform="translate(810,203)"  ><g class="AB"/></g><g id="ac70a" class="AB" transform="translate(904.05 203)"  ><g class="AB"/></g><g id="acb72" class="AB" transform="translate(857.5,203)"  ><g class="AB"/></g><g id="cd6a4" class="AB" transform="translate(857.5,203)"  ><g class="AB"/></g></g><g id="b1d16" class="Reactome_R-HSA-893596"  ><path    d="m757 167 53 36" style="marker-end:none"/></g><g id="b6345" class="Reactome_R-HSA-893596"  ><path    d="m717 203h93" style="marker-end:none"/></g><g id="c8ce5" class="Reactome_R-HSA-893596"  ><path    d="m905 203 55 1"/></g><g id="cba2f" class="Reactome_R-HSA-893596"  ><path    d="m905 203 57 98"/></g><g id="bcda3" class="Reactome_R-HSA-893596"  ><path    d="m791 148 60 55" style="marker-end:url(#memcatalysis000)"/></g><g id="b3f9d" class="Reactome_R-HSA-893596"  ><path    d="m796 256 55-53" style="marker-end:url(#markerendtbar000)"/></g><g id="e4aa3" class="Reactome_R-HSA-71189"  ><path    d="m615 203 29-21"/></g><g id="e5c50" class="Reactome_R-HSA-352232"  ><path    d="m125 95h81" style="marker-end:none"/><g id="a1ae3" class="AB" transform="translate(125,95)"  ><g class="AB"/></g><g id="a38bf" class="AB" transform="translate(205.19,95)"  ><g class="AB"/></g><g id="eaa57" class="AB" transform="translate(165.5,95)"  ><g class="AB"/></g></g><g id="ce2d3" class="Reactome_R-HSA-352232"  ><path    d="m118 96 7-1" style="marker-end:none"/></g><g id="c0de5" class="Reactome_R-HSA-352232"  ><path    d="m206 95 6 1"/></g><g id="acfd2" class="Reactome_R-HSA-352232"  ><path    d="m155 64v31" style="marker-end:url(#memcatalysis000)"/></g><g id="e8431" class="Reactome_R-HSA-893583"  ><path    d="m1313 147 45 47" style="marker-end:url(#memcatalysis000)"/></g><g id="e9260" class="Reactome_R-HSA-71217"  ><path    d="m795 424 30 38" style="marker-end:none"/></g><g id="ea662" class="Reactome_R-HSA-888614"  ><path    d="m455 220 12-3"/></g><g id="eb0b0" class="Reactome_R-HSA-901097"  ><path    d="m762 301h144" style="marker-end:none"/><g id="c6f4c" class="AB" transform="translate(762,301)"  ><g class="AB"/></g><g id="dd8b7" class="AB" transform="translate(904.56,301)"  ><g class="AB"/></g><g id="d2894" class="AB" transform="translate(834,301)"  ><g class="AB"/></g></g><g id="ab32b" class="Reactome_R-HSA-901097"  ><path    d="m717 203 45 98" style="marker-end:none"/></g><g id="e2c8e" class="Reactome_R-HSA-901097"  ><path    d="m738 182 24 119" style="marker-end:none"/></g><g id="b6cbc" class="Reactome_R-HSA-901097"  ><path    d="m906 301h56"/></g><g id="c6d1f" class="Reactome_R-HSA-901097"  ><path    d="m906 301 54-97"/></g><g id="b2766" class="Reactome_R-HSA-901097"  ><path    d="m791 341 43-40" style="marker-end:url(#memcatalysis000)"/></g><g id="ec912" class="Reactome_R-HSA-893596"  ><path    d="m796 256 55-53" style="marker-end:url(#markerendtbar000)"/></g><g id="edc5b" class="Reactome_R-HSA-71239"  ><path    d="m1455 428 3 34" style="marker-end:none"/></g><g id="f1198" class="Reactome_R-HSA-893609"  ><path    d="m1127 203 37 36"/></g><g id="f2437" class="Reactome_R-HSA-71200"  ><path    d="m663 329 27-46" style="marker-end:none"/></g><g id="f3241" class="Reactome_R-HSA-71200"  ><path    d="m624 356 66 1" style="marker-end:url(#memcatalysis000)"/></g><g id="f454c" class="Reactome_R-HSA-71200"  ><path    d="m660 294 30-11" style="marker-end:none"/></g><g id="f7492" class="Reactome_R-HSA-71188"  ><path    d="m352 201h92" style="marker-end:none"/><g id="a4330" class="AB" transform="translate(352,201)"  ><g class="AB"/></g><g id="c1fd2" class="AB" transform="translate(443.08,201)"  ><g class="AB"/></g><g id="b8d85" class="AB" transform="translate(398,201)"  ><g class="AB"/></g></g><g id="b18ce" class="Reactome_R-HSA-71188"  ><path    d="m323 172 29 29" style="marker-end:none"/></g><g id="cfbd0" class="Reactome_R-HSA-71188"  ><path    d="m283 202 69-1" style="marker-end:none"/></g><g id="af257" class="Reactome_R-HSA-71188"  ><path    d="m444 201 3 1"/></g><g id="e77e5" class="Reactome_R-HSA-71188"  ><path    d="m383 164-1 37" style="marker-end:url(#memcatalysis000)"/></g><g id="fa199" class="Reactome_R-HSA-71217"  ><path    d="m767 463 58-1" style="marker-end:none"/></g><g id="fb031" class="Reactome_R-HSA-71189"  ><path    d="m487 202 52 1" style="marker-end:none"/></g><g id="fb4aa" class="Reactome_R-HSA-198563"  ><path    d="m348 224 96-17" style="marker-end:none"/><g id="d3725" class="AB" transform="translate(348,224)"  ><g class="AB"/></g><g id="fb96c" class="AB" transform="translate(443.04 207.17)"  ><g class="AB"/></g><g id="ecb21" class="AB" transform="translate(396,215.5)"  ><g class="AB"/></g></g><g id="dc228" class="Reactome_R-HSA-198563"  ><path    d="m283 202 65 22" style="marker-end:none"/></g><g id="e2753" class="Reactome_R-HSA-198563"  ><path    d="m306 187 42 37" style="marker-end:none"/></g><g id="e175d" class="Reactome_R-HSA-198563"  ><path    d="m444 207 3-5"/></g><g id="c89ea" class="Reactome_R-HSA-198563"  ><path    d="m368 258 19-34" style="marker-end:url(#memcatalysis000)"/></g><g id="fcdb6" class="Reactome_R-HSA-71217"  ><path    d="m921 462 52 1"/></g><g id="fd79f" class="Reactome_R-HSA-71218"  ><path    d="m1075 463h88" style="marker-end:none"/><g id="ed833" class="AB" transform="translate(1075,463)"  ><g class="AB"/></g><g id="f62a3" class="AB" transform="translate(1162.1 463)"  ><g class="AB"/></g><g id="a11e7" class="AB" transform="translate(1119,463)"  ><g class="AB"/></g></g><g id="be89a" class="Reactome_R-HSA-71218"  ><path    d="m1046 447 29 16" style="marker-end:none"/></g><g id="d85cd" class="Reactome_R-HSA-71218"  ><path    d="m1023 463h52" style="marker-end:none"/></g><g id="a9974" class="Reactome_R-HSA-71218"  ><path    d="m1163 463h3"/></g><g id="b8226" class="Reactome_R-HSA-71218"  ><path    d="m1095 410 21 53" style="marker-end:url(#memcatalysis000)"/></g><g id="a1c1c" class="GroupGroup" transform="translate(1227,52)"  ><g class="GroupGroup"><g id="ac777" class="" transform="translate(8,8)"  ><g class=""><rect   transform="matrix(0.99 0 0 0.99 1.49 1.48)" width="403" height="229" rx="15" ry="15" stroke-width="3" style="fill:transparent;stroke:#c0c0c0"/></g></g><g id="c9cae" class="Label" transform="translate(16,17)"  name="mitochondrial intermembrane space" ><g class="Label"/><text   transform="translate(123.5,16.5)"    >mitochondrial intermembrane space</text></g></g></g><g id="c586f" class="GroupGroup" transform="translate(1239,89)"  ><g class="GroupGroup"><g id="ecd4f" class="" transform="translate(8,8)"  ><g class=""><rect   transform="matrix(0.99 0 0 0.98 1.49 1.48)" width="376" height="178" rx="15" ry="15" stroke-width="3" style="fill:transparent;stroke:#c0c0c0"/></g></g><g id="c29f5" class="Label" transform="translate(16,16)"  name="mitochondrial matrix" ><g class="Label"/><text   transform="translate(73.5,16.5)"    >mitochondrial matrix</text></g></g></g><g id="efbd3" class="GroupGroup" transform="translate(144,19)"  ><g class="GroupGroup"><g id="d946b" class="" transform="translate(8,8)"  ><g class=""><rect   transform="matrix(1.00 0 0 0.99 1.50 1.49)" width="1512" height="564" rx="15" ry="15" stroke-width="3" style="fill:transparent;stroke:#c0c0c0"/></g></g><g id="ae1e6" class="Label" transform="translate(277,50)"  name="cytosol" ><g class="Label"/><text   transform="translate(32,16.5)"    >cytosol</text></g></g></g><g id="a073a" class="Metabolite " transform="translate(1560,138)"  name="H2O" ><rect   width="43" height="30" style="stroke:#00f"/><text   transform="translate(21.5,15)"     style="fill:#00f">H2O</text></g><g id="a55cf" class="Complex Reactome_R-HSA-71221" transform="translate(1212,409)"  name="ACMSD dimer" ><g class="Complex Reactome_R-HSA-71221"><use class="Complex Reactome_R-HSA-71221 Node Icon" width="88" height="22" fill="#fff" stroke="#a52a2a" href="#HexagonPathVisio"/></g><g ><defs><clipPath ><rect x="-44" y="-11" width="88" height="22" style="stroke:none"/></clipPath></defs><text   transform="translate(44,11)"     style="fill:#a52a2a">ACMSD dimer</text></g></g><g id="a616a" class="Complex Reactome_R-HSA-508545" transform="translate(1313,136)"  name="AADAT dimer" ><g class="Complex Reactome_R-HSA-508545"><use class="Complex Reactome_R-HSA-508545 Node Icon" width="88" height="22" fill="#fff" stroke="#a52a2a" href="#HexagonPathVisio"/></g><g ><defs><clipPath ><rect x="-44" y="-11" width="88" height="22" style="stroke:none"/></clipPath></defs><text   transform="translate(44,11)"     style="fill:#a52a2a">AADAT dimer</text></g></g><g id="a62a1" class="Pathway Reactome_R-HSA-196807" transform="translate(1142,515)"  name="Nicotinate metabolism" ><g class="Pathway Reactome_R-HSA-196807" filter="url(#doubletrue0filter)"><g class="Pathway Reactome_R-HSA-196807"><rect   width="89" height="58" style="stroke:none"/></g></g><g ><defs><clipPath ><rect x="-44.5" y="-29" width="89" height="58" style="stroke:none"/></clipPath></defs><text   transform="translate(44.5,29)"     style="fill:#14961e"><tspan   x="0" y="-5.5">Nicotinate</tspan><tspan   x="0" y="5.5">metabolism</tspan></text></g></g><g id="a923e" class="Metabolite " transform="translate(1403,482)"  name="H2O" ><rect   width="43" height="30" style="stroke:#00f"/><text   transform="translate(21.5,15)"     style="fill:#00f">H2O</text></g><g id="abad2" class="Complex Reactome_R-ALL-352227" transform="translate(212,85)"  name="ligands of SLC7A5" ><g class="Complex Reactome_R-ALL-352227"><rect   width="113" height="22" rx="15" ry="15" style="stroke:#a52a2a"/></g><g ><defs><clipPath ><rect x="-56.5" y="-11" width="113" height="22" style="stroke:none"/></clipPath></defs><text   transform="translate(56.5,11)"     style="fill:#a52a2a">ligands of SLC7A5</text></g></g><g id="ac46b" class="Metabolite " transform="translate(1338,448)"  name="2AMA" ><rect   width="51" height="30" style="stroke:#00f"/><text   transform="translate(25.5,15)"     style="fill:#00f">2AMA</text></g><g id="afc29" class="Metabolite " transform="translate(1403,413)"  name="NAD+" ><rect   width="53" height="30" style="stroke:#00f"/><text   transform="translate(26.5,15)"     style="fill:#00f">NAD+</text></g><g id="b0b19" class="Metabolite " transform="translate(663,188)"  name="L-KYN" ><rect   width="54" height="30" style="stroke:#00f"/><text   transform="translate(27,15)"     style="fill:#00f">L-KYN</text></g><g id="b39e6" class="Metabolite " transform="translate(1264,220)"  name="L-KYN" ><rect   width="54" height="30" style="stroke:#00f"/><text   transform="translate(27,15)"     style="fill:#00f">L-KYN</text></g><g id="b44ad" class="Metabolite " transform="translate(1425,126)"  name="L-Glu" ><rect   width="36" height="30" style="stroke:#00f"/><text   transform="translate(18,15)"     style="fill:#00f">L-Glu</text></g><g id="b6353" class="Complex Reactome_R-HSA-893603" transform="translate(791,137)"  name="PXLP-KYAT1 dimer" ><g class="Complex Reactome_R-HSA-893603"><use class="Complex Reactome_R-HSA-893603 Node Icon" width="121" height="22" fill="#fff" stroke="#a52a2a" href="#HexagonPathVisio"/></g><g ><defs><clipPath ><rect x="-60.5" y="-11" width="121" height="22" style="stroke:none"/></clipPath></defs><text   transform="translate(60.5,11)"     style="fill:#a52a2a">PXLP-KYAT1 dimer</text></g></g><g id="b8bca" class="Complex Reactome_R-HSA-71186" transform="translate(335,142)"  name="TDO2 tetramer" ><g class="Complex Reactome_R-HSA-71186"><use class="Complex Reactome_R-HSA-71186 Node Icon" width="97" height="22" fill="#fff" stroke="#a52a2a" href="#HexagonPathVisio"/></g><g ><defs><clipPath ><rect x="-48.5" y="-11" width="97" height="22" style="stroke:none"/></clipPath></defs><text   transform="translate(48.5,11)"     style="fill:#a52a2a">TDO2 tetramer</text></g></g><g id="bb258" class="Metabolite " transform="translate(719,152)"  name="PYR" ><rect   width="39" height="30" style="stroke:#00f"/><text   transform="translate(19.5,15)"     style="fill:#00f">PYR</text></g><g id="bcf2b" class="Metabolite " transform="translate(634,477)"  name="NADP+" ><rect   width="60" height="30" style="stroke:#00f"/><text   transform="translate(30,15)"     style="fill:#00f">NADP+</text></g><g id="c0d6e" class="Metabolite " transform="translate(473,148)"  name="H2O" ><rect   width="43" height="30" style="stroke:#00f"/><text   transform="translate(21.5,15)"     style="fill:#00f">H2O</text></g><g id="c246a" class="Metabolite " transform="translate(962,286)"  name="L-Ala" ><rect   width="48" height="30" style="stroke:#00f"/><text   transform="translate(24,15)"     style="fill:#00f">L-Ala</text></g><g id="c49a9" class="Metabolite " transform="translate(754,208)"  name="L-Phe" ><rect   width="51" height="30" style="stroke:#00f"/><text   transform="translate(25.5,15)"     style="fill:#00f">L-Phe</text></g><g id="c4aff" class="Metabolite " transform="translate(1164,224)"  name="KYNA" ><rect   width="49" height="30" style="stroke:#00f"/><text   transform="translate(24.5,15)"     style="fill:#00f">KYNA</text></g><g id="c6ecd" class="Protein" transform="translate(124,140)"  name="SLC36A4" ><rect   width="61" height="22"/><text   transform="translate(30.5,11)"    >SLC36A4</text></g><g id="c8a84" class="Metabolite " transform="translate(233,187)"  name="L-Trp" ><rect   width="51" height="30" style="stroke:#00f"/><text   transform="translate(25.5,15)"     style="fill:#00f">L-Trp</text></g><g id="c97b1" class="Metabolite " transform="translate(1167,160)"  name="H2O" ><rect   width="43" height="30" style="stroke:#00f"/><text   transform="translate(21.5,15)"     style="fill:#00f">H2O</text></g><g id="cb9df" class="Complex Reactome_R-HSA-352221" transform="translate(105,42)"  name="SLC7A5:SLC3A2" ><g class="Complex Reactome_R-HSA-352221"><use class="Complex Reactome_R-HSA-352221 Node Icon" width="101" height="22" fill="#fff" stroke="#a52a2a" href="#HexagonPathVisio"/></g><g ><defs><clipPath ><rect x="-50.5" y="-11" width="101" height="22" style="stroke:none"/></clipPath></defs><text   transform="translate(50.5,11)"     style="fill:#a52a2a">SLC7A5:SLC3A2</text></g></g><g id="d0530" class="Metabolite " transform="translate(605,248)"  name="NADPH" ><rect   width="59" height="30" style="stroke:#00f"/><text   transform="translate(29.5,15)"     style="fill:#00f">NADPH</text></g><g id="d16af" class="Complex Reactome_R-HSA-198580" transform="translate(368,247)"  name="IDO1" ><g class="Complex Reactome_R-HSA-198580"><use class="Complex Reactome_R-HSA-198580 Node Icon" width="38" height="22" fill="#fff" stroke="#a52a2a" href="#HexagonPathVisio"/></g><g ><defs><clipPath ><rect x="-19" y="-11" width="38" height="22" style="stroke:none"/></clipPath></defs><text   transform="translate(19,11)"     style="fill:#a52a2a">IDO1</text></g></g><g id="d2110" class="Complex Reactome_R-ALL-8939576" transform="translate(796,245)"  name="I3LACT, I3PROPA" ><g class="Complex Reactome_R-ALL-8939576"><rect   width="108" height="22" rx="15" ry="15" style="stroke:#a52a2a"/></g><g ><defs><clipPath ><rect x="-54" y="-11" width="108" height="22" style="stroke:none"/></clipPath></defs><text   transform="translate(54,11)"     style="fill:#a52a2a">I3LACT, I3PROPA</text></g></g><g id="d3536" class="Unknown Reactome_R-HSA-71237" transform="translate(1451,389)"  name="AM-SHDH" ><rect   width="67" height="22"/><text   transform="translate(33.5,11)"    >AM-SHDH</text></g><g id="d56fc" class="Protein" transform="translate(552,147)"  name="AFMID" ><rect   width="45" height="22"/><text   transform="translate(22.5,11)"    >AFMID</text></g><g id="d6924" class="Complex Reactome_R-ALL-352229" transform="translate(6,85)"  name="ligands of SLC7A5" ><g class="Complex Reactome_R-ALL-352229"><rect   width="113" height="22" rx="15" ry="15" style="stroke:#a52a2a"/></g><g ><defs><clipPath ><rect x="-56.5" y="-11" width="113" height="22" style="stroke:none"/></clipPath></defs><text   transform="translate(56.5,11)"     style="fill:#a52a2a">ligands of SLC7A5</text></g></g><g id="d8726" class="Metabolite " transform="translate(1565,405)"  name="H+" ><rect   width="36" height="30" style="stroke:#00f"/><text   transform="translate(18,15)"     style="fill:#00f">H+</text></g><g id="d8845" class="Metabolite " transform="translate(1264,156)"  name="2OG" ><rect   width="43" height="30" style="stroke:#00f"/><text   transform="translate(21.5,15)"     style="fill:#00f">2OG</text></g><g id="d8fdb" class="Metabolite " transform="translate(1600,447)"  name="2AM" ><rect   width="43" height="30" style="stroke:#00f"/><text   transform="translate(21.5,15)"     style="fill:#00f">2AM</text></g><g id="d9e64" class="Complex Reactome_R-HSA-71086" transform="translate(1095,399)"  name="HAAO" ><g class="Complex Reactome_R-HSA-71086"><use class="Complex Reactome_R-HSA-71086 Node Icon" width="43" height="22" fill="#fff" stroke="#a52a2a" href="#HexagonPathVisio"/></g><g ><defs><clipPath ><rect x="-21.5" y="-11" width="43" height="22" style="stroke:none"/></clipPath></defs><text   transform="translate(21.5,11)"     style="fill:#a52a2a">HAAO</text></g></g><g id="da0e0" class="Complex Reactome_R-HSA-71202" transform="translate(826,404)"  name="KYNU dimer" ><g class="Complex Reactome_R-HSA-71202"><use class="Complex Reactome_R-HSA-71202 Node Icon" width="79" height="22" fill="#fff" stroke="#a52a2a" href="#HexagonPathVisio"/></g><g ><defs><clipPath ><rect x="-39.5" y="-11" width="79" height="22" style="stroke:none"/></clipPath></defs><text   transform="translate(39.5,11)"     style="fill:#a52a2a">KYNU dimer</text></g></g><g id="da727" class="Metabolite " transform="translate(614,152)"  name="HCOOH" ><rect   width="61" height="30" style="stroke:#00f"/><text   transform="translate(30.5,15)"     style="fill:#00f">HCOOH</text></g><g id="db83f" class="Complex Reactome_R-HSA-901094" transform="translate(791,330)"  name="CCBL2 dimer" ><g class="Complex Reactome_R-HSA-901094"><use class="Complex Reactome_R-HSA-901094 Node Icon" width="84" height="22" fill="#fff" stroke="#a52a2a" href="#HexagonPathVisio"/></g><g ><defs><clipPath ><rect x="-42" y="-11" width="84" height="22" style="stroke:none"/></clipPath></defs><text   transform="translate(42,11)"     style="fill:#a52a2a">CCBL2 dimer</text></g></g><g id="de8e5" class="Metabolite " transform="translate(615,431)"  name="H2O" ><rect   width="43" height="30" style="stroke:#00f"/><text   transform="translate(21.5,15)"     style="fill:#00f">H2O</text></g><g id="dedb5" class="Metabolite " transform="translate(626,279)"  name="O2" ><rect   width="34" height="30" style="stroke:#00f"/><text   transform="translate(17,15)"     style="fill:#00f">O2</text></g><g id="e1d5b" class="Metabolite " transform="translate(1551,489)"  name="NADH" ><rect   width="52" height="30" style="stroke:#00f"/><text   transform="translate(26,15)"     style="fill:#00f">NADH</text></g><g id="e2c54" class="Protein" transform="translate(588,345)"  name="KMO" ><rect   width="36" height="22"/><text   transform="translate(18,11)"    >KMO</text></g><g id="e5b8d" class="Complex Reactome_R-HSA-888612" transform="translate(391,306)"  name="IDO2" ><g class="Complex Reactome_R-HSA-888612"><use class="Complex Reactome_R-HSA-888612 Node Icon" width="38" height="22" fill="#fff" stroke="#a52a2a" href="#HexagonPathVisio"/></g><g ><defs><clipPath ><rect x="-19" y="-11" width="38" height="22" style="stroke:none"/></clipPath></defs><text   transform="translate(19,11)"     style="fill:#a52a2a">IDO2</text></g></g><g id="e72b2" class="Metabolite " transform="translate(709,448)"  name="3HKYN" ><rect   width="58" height="30" style="stroke:#00f"/><text   transform="translate(29,15)"     style="fill:#00f">3HKYN</text></g><g id="e7a06" class="Metabolite " transform="translate(960,189)"  name="AP-DOBu" ><rect   width="71" height="30" style="stroke:#00f"/><text   transform="translate(35.5,15)"     style="fill:#00f">AP-DOBu</text></g><g id="e867f" class="Metabolite " transform="translate(1166,448)"  name="ACS" ><rect   width="39" height="30" style="stroke:#00f"/><text   transform="translate(19.5,15)"     style="fill:#00f">ACS</text></g><g id="ea036" class="Metabolite " transform="translate(753,409)"  name="H2O" ><rect   width="43" height="30" style="stroke:#00f"/><text   transform="translate(21.5,15)"     style="fill:#00f">H2O</text></g><g id="eabc2" class="Metabolite " transform="translate(1029,417)"  name="O2" ><rect   width="34" height="30" style="stroke:#00f"/><text   transform="translate(17,15)"     style="fill:#00f">O2</text></g><g id="ebb03" class="Metabolite " transform="translate(973,448)"  name="3HAA" ><rect   width="50" height="30" style="stroke:#00f"/><text   transform="translate(25,15)"     style="fill:#00f">3HAA</text></g><g id="f4106" class="Metabolite " transform="translate(447,187)"  name="NFK" ><rect   width="40" height="30" style="stroke:#00f"/><text   transform="translate(20,15)"     style="fill:#00f">NFK</text></g><g id="f47e7" class="Metabolite " transform="translate(627,314)"  name="H+" ><rect   width="36" height="30" style="stroke:#00f"/><text   transform="translate(18,15)"     style="fill:#00f">H+</text></g><g id="f64c4" class="Metabolite " transform="translate(289,157)"  name="O2" ><rect   width="34" height="30" style="stroke:#00f"/><text   transform="translate(17,15)"     style="fill:#00f">O2</text></g><g id="f7109" class="Metabolite " transform="translate(1302,489)"  name="CO2" ><rect   width="42" height="30" style="stroke:#00f"/><text   transform="translate(21,15)"     style="fill:#00f">CO2</text></g><g id="f8ea0" class="Metabolite " transform="translate(1440,180)"  name="APDBA" ><rect   width="56" height="30" style="stroke:#00f"/><text   transform="translate(28,15)"     style="fill:#00f">APDBA</text></g><g id="f9093" class="Metabolite " transform="translate(1561,222)"  name="KYNA" ><rect   width="49" height="30" style="stroke:#00f"/><text   transform="translate(24.5,15)"     style="fill:#00f">KYNA</text></g><g id="fbcca" class="Metabolite " transform="translate(37,186)"  name="L-Trp" ><rect   width="51" height="30" style="stroke:#00f"/><text   transform="translate(25.5,15)"     style="fill:#00f">L-Trp</text></g><g id="ac4fa" class="GroupComplex" transform="translate(178,1137)"  ><g class="GroupComplex"><use class="Icon" width="124" height="44" fill="#b4b464" fill-opacity=".1" stroke="grey" href="#Octagon"/><g id="d8d62" class="Protein" transform="translate(12,12)"  name="ACMSD" ><rect   width="100" height="20"/><text   transform="translate(50,10)"    >ACMSD</text></g></g></g><g id="ad423" class="GroupComplex" transform="translate(178,937)"  ><g class="GroupComplex"><use class="Icon" width="124" height="44" fill="#b4b464" fill-opacity=".1" stroke="grey" href="#Octagon"/><g id="c2000" class="Protein" transform="translate(12,12)"  name="PXLP-CCBL2" ><rect   width="100" height="20"/><text   transform="translate(50,10)"    >PXLP-CCBL2</text></g></g></g><g id="ade47" class="GroupNone" transform="translate(41,800)"  ><g class="GroupNone"><rect   width="118" height="178" fill-opacity=".1" stroke-dasharray="5,3" style="fill:#b4b464;stroke:grey"/><g id="ab133" class="Metabolite " transform="translate(9,49)"  name="L-Leu" ><rect   width="100" height="20" style="stroke:#00f"/><text   transform="translate(50,10)"     style="fill:#00f">L-Leu</text></g><g id="adcf1" class="Metabolite " transform="translate(9,89)"  name="L-Phe" ><rect   width="100" height="20" style="stroke:#00f"/><text   transform="translate(50,10)"     style="fill:#00f">L-Phe</text></g><g id="b04cb" class="Metabolite " transform="translate(9,29)"  name="L-Ile" ><rect   width="100" height="20" style="stroke:#00f"/><text   transform="translate(50,10)"     style="fill:#00f">L-Ile</text></g><g id="b8b0b" class="Metabolite " transform="translate(9,129)"  name="L-Tyr" ><rect   width="100" height="20" style="stroke:#00f"/><text   transform="translate(50,10)"     style="fill:#00f">L-Tyr</text></g><g id="cae14" class="Metabolite " transform="translate(9,69)"  name="L-Met" ><rect   width="100" height="20" style="stroke:#00f"/><text   transform="translate(50,10)"     style="fill:#00f">L-Met</text></g><g id="d6449" class="Metabolite " transform="translate(9,109)"  name="L-Trp" ><rect   width="100" height="20" style="stroke:#00f"/><text   transform="translate(50,10)"     style="fill:#00f">L-Trp</text></g><g id="e44f7" class="Metabolite " transform="translate(9,149)"  name="L-Val" ><rect   width="100" height="20" style="stroke:#00f"/><text   transform="translate(50,10)"     style="fill:#00f">L-Val</text></g><g id="ecd67" class="Metabolite " transform="translate(9,9)"  name="L-His" ><rect   width="100" height="20" style="stroke:#00f"/><text   transform="translate(50,10)"     style="fill:#00f">L-His</text></g></g></g><g id="b1298" class="GroupComplex" transform="translate(178,637)"  ><g class="GroupComplex"><use class="Icon" width="124" height="64" fill="#b4b464" fill-opacity=".1" stroke="grey" href="#Octagon"/><g id="a425d" class="Protein" transform="translate(12,32)"  name="IDO1" ><rect   width="100" height="20"/><text   transform="translate(50,10)"    >IDO1</text></g><g id="da26d" class="Metabolite " transform="translate(12,12)"  name="heme" ><rect   width="100" height="20" style="stroke:#00f"/><text   transform="translate(50,10)"     style="fill:#00f">heme</text></g></g></g><g id="c4cc9" class="GroupComplex" transform="translate(178,1197)"  ><g class="GroupComplex"><use class="Icon" width="124" height="44" fill="#b4b464" fill-opacity=".1" stroke="grey" href="#Octagon"/><g id="eef6a" class="Protein" transform="translate(12,12)"  name="PXLP-AADAT" ><rect   width="100" height="20"/><text   transform="translate(50,10)"    >PXLP-AADAT</text></g></g></g><g id="ddfef" class="GroupNone" transform="translate(41,600)"  ><g class="GroupNone"><rect   width="118" height="178" fill-opacity=".1" stroke-dasharray="5,3" style="fill:#b4b464;stroke:grey"/><g id="adc29" class="Metabolite " transform="translate(9,89)"  name="L-Phe" ><rect   width="100" height="20" style="stroke:#00f"/><text   transform="translate(50,10)"     style="fill:#00f">L-Phe</text></g><g id="ba31a" class="Metabolite " transform="translate(9,9)"  name="L-His" ><rect   width="100" height="20" style="stroke:#00f"/><text   transform="translate(50,10)"     style="fill:#00f">L-His</text></g><g id="beadf" class="Metabolite " transform="translate(9,129)"  name="L-Tyr" ><rect   width="100" height="20" style="stroke:#00f"/><text   transform="translate(50,10)"     style="fill:#00f">L-Tyr</text></g><g id="c3dfc" class="Metabolite " transform="translate(9,29)"  name="L-Ile" ><rect   width="100" height="20" style="stroke:#00f"/><text   transform="translate(50,10)"     style="fill:#00f">L-Ile</text></g><g id="c6daa" class="Metabolite " transform="translate(9,49)"  name="L-Leu" ><rect   width="100" height="20" style="stroke:#00f"/><text   transform="translate(50,10)"     style="fill:#00f">L-Leu</text></g><g id="dc805" class="Metabolite " transform="translate(9,149)"  name="L-Val" ><rect   width="100" height="20" style="stroke:#00f"/><text   transform="translate(50,10)"     style="fill:#00f">L-Val</text></g><g id="f03b3" class="Metabolite " transform="translate(9,69)"  name="L-Met" ><rect   width="100" height="20" style="stroke:#00f"/><text   transform="translate(50,10)"     style="fill:#00f">L-Met</text></g><g id="f4401" class="Metabolite " transform="translate(9,109)"  name="L-Trp" ><rect   width="100" height="20" style="stroke:#00f"/><text   transform="translate(50,10)"     style="fill:#00f">L-Trp</text></g></g></g><g id="de96d" class="GroupComplex" transform="translate(38,1077)"  ><g class="GroupComplex"><use class="Icon" width="124" height="64" fill="#b4b464" fill-opacity=".1" stroke="grey" href="#Octagon"/><g id="a541b" class="Metabolite " transform="translate(12,32)"  name="heme" ><rect   width="100" height="20" style="stroke:#00f"/><text   transform="translate(50,10)"     style="fill:#00f">heme</text></g><g id="ceb5f" class="Protein" transform="translate(12,12)"  name="TDO2" ><rect   width="100" height="20"/><text   transform="translate(50,10)"    >TDO2</text></g></g></g><g id="eb995" class="GroupComplex" transform="translate(178,997)"  ><g class="GroupComplex"><use class="Icon" width="124" height="44" fill="#b4b464" fill-opacity=".1" stroke="grey" href="#Octagon"/><g id="a81f4" class="Protein" transform="translate(12,12)"  name="PXLP-KYNU" ><rect   width="100" height="20"/><text   transform="translate(50,10)"    >PXLP-KYNU</text></g></g></g><g id="f0cfd" class="GroupComplex" transform="translate(178,1057)"  ><g class="GroupComplex"><use class="Icon" width="124" height="64" fill="#b4b464" fill-opacity=".1" stroke="grey" href="#Octagon"/><g id="b45c1" class="Metabolite " transform="translate(12,32)"  name="Fe2+" ><rect   width="100" height="20" style="stroke:#00f"/><text   transform="translate(50,10)"     style="fill:#00f">Fe2+</text></g><g id="b9875" class="Protein" transform="translate(12,12)"  name="HAAO" ><rect   width="100" height="20"/><text   transform="translate(50,10)"    >HAAO</text></g></g></g><g id="f491d" class="GroupNone" transform="translate(181,860)"  ><g class="GroupNone"><rect   width="118" height="58" fill-opacity=".1" stroke-dasharray="5,3" style="fill:#b4b464;stroke:grey"/><g id="c0899" class="Metabolite " transform="translate(9,29)"  name="I3PROPA" ><rect   width="100" height="20" style="stroke:#00f"/><text   transform="translate(50,10)"     style="fill:#00f">I3PROPA</text></g><g id="fa67b" class="Metabolite " transform="translate(9,9)"  name="I3LACT" ><rect   width="100" height="20" style="stroke:#00f"/><text   transform="translate(50,10)"     style="fill:#00f">I3LACT</text></g></g></g><g id="f5d2c" class="GroupComplex" transform="translate(178,797)"  ><g class="GroupComplex"><use class="Icon" width="124" height="44" fill="#b4b464" fill-opacity=".1" stroke="grey" href="#Octagon"/><g id="e5473" class="Protein" transform="translate(12,12)"  name="PXLP-K247-KYAT1" ><rect   width="100" height="20"/><text   transform="translate(50,10)"    >PXLP-K247-KYAT1</text></g></g></g><g id="fce95" class="GroupComplex" transform="translate(178,717)"  ><g class="GroupComplex"><use class="Icon" width="124" height="64" fill="#b4b464" fill-opacity=".1" stroke="grey" href="#Octagon"/><g id="a3cc2" class="Protein" transform="translate(12,32)"  name="IDO2" ><rect   width="100" height="20"/><text   transform="translate(50,10)"    >IDO2</text></g><g id="e3fb7" class="Metabolite " transform="translate(12,12)"  name="heme" ><rect   width="100" height="20" style="stroke:#00f"/><text   transform="translate(50,10)"     style="fill:#00f">heme</text></g></g></g><g id="fd4fd" class="GroupComplex" transform="translate(38,997)"  ><g class="GroupComplex"><use class="Icon" width="124" height="64" fill="#b4b464" fill-opacity=".1" stroke="grey" href="#Octagon"/><g id="a1126" class="Protein" transform="translate(12,32)"  name="SLC7A5" ><rect   width="100" height="20"/><text   transform="translate(50,10)"    >SLC7A5</text></g><g id="d763e" class="Protein" transform="translate(12,12)"  name="SLC3A2" ><rect   width="100" height="20"/><text   transform="translate(50,10)"    >SLC3A2</text></g></g></g></g></g></g></svg>