<?xml version="1.0" encoding="UTF-8"?>
<svg xmlns="http://www.w3.org/2000/svg" id="-svg" class="Diagram"  baseProfile="full" prefix="schema:http://schema.org/" preserveAspectRatio="xMidYMid"  version="1.1"><defs><g id="filter-defs"><filter id="doublefalse3filter" x="-50%" y="-50%" width="200%" height="200%"><feComposite in="SourceGraphic" in2="SourceGraphic" result="doubleDark"/><feMorphology in="doubleDark" operator="dilate" radius="0.17" result="in2Double"/><feMorphology in="SourceGraphic" operator="dilate" radius="3" result="inDouble"/><feComposite in="inDouble" in2="in2Double" operator="out" result="doubleResult"/></filter></g><g id="icon-defs"><symbol id="Ellipse" class=" Icon Ellipse" x="0" y="0" overflow="visible" preserveAspectRatio="none" viewBox="0 0 50 50"><desc>Ellipse</desc><ellipse cx="25" cy="25" rx="25" ry="25" vector-effect="non-scaling-stroke"/></symbol><symbol id="Octagon" class=" Icon Octagon" x="0" y="0" overflow="visible" preserveAspectRatio="none" viewBox="0 0 100 100"><desc>Octagon</desc><path d="m0 25 25-25h50l25 25v50l-25 25h-50l-25-25z" vector-effect="non-scaling-stroke"/></symbol></g><g id="marker-defs"><marker id="memstimulation000" markerHeight="12" markerWidth="12" orient="auto" preserveAspectRatio="none" refX="12" refY="6" viewBox="0 0 12 12"><g id="g-memstimulation000" transform=""><g transform="rotate(180 6 6)"><rect y="5.4" width="2" height="1.2" style="stroke:none"/><line x1="12" x2="12" y1="6" y2="6" fill="none"/><polygon points="0 6 11 11 11 1" fill="#fff" stroke="#000"/></g></g></marker><marker id="mea" markerHeight="12" markerWidth="12" orient="auto" preserveAspectRatio="none" refX="12" refY="6" viewBox="0 0 12 12"><g id="g-mea" transform=""><g transform="rotate(180 6 6)"><rect y="5.4" width="2" height="1.2" style="stroke:#fff"/><polygon points="12 11 0 6 12 1" stroke-width="0"/></g></g></marker><marker id="membinding000" markerHeight="12" markerWidth="12" orient="auto" preserveAspectRatio="none" refX="12" refY="6" viewBox="0 0 12 12"><g id="g-membinding000" transform=""><g transform="rotate(180 6 6)"><rect y="5.4" width="2" height="1.2" style="stroke:#fff"/><polygon points="12 12 0 6 12 0 5 6" stroke-width="0"/></g></g></marker><marker id="memtranscriptiontranslation000" markerHeight="24" markerWidth="20" orient="auto" preserveAspectRatio="none" refX="20" refY="12" viewBox="0 0 20 24"><g id="g-memtranscriptiontranslation000" transform=""><g transform="rotate(180 10 12)"><rect y="11" width="12" height="2" style="stroke:#fff"/><line x1="15" x2="15" y1="12" y2="5" fill="none" stroke="#000"/><line x1="15.5" x2="8" y1="5" y2="5" fill="none" stroke="#000"/><polygon points="0 5 8 1 8 9" fill="#fff" stroke="#000"/></g></g></marker><marker id="memcatalysis000" markerHeight="12" markerWidth="12" orient="auto" preserveAspectRatio="none" refX="12" refY="6" viewBox="0 0 12 12"><g id="g-memcatalysis000" transform=""><g transform="rotate(180 6 6)"><circle cx="6" cy="6" r="5.3px" fill="#fff" stroke="#000"/></g></g></marker><marker id="memconversion000" markerHeight="12" markerWidth="12" orient="auto" preserveAspectRatio="none" refX="12" refY="6" viewBox="0 0 12 12"><g id="g-memconversion000" transform=""><g transform="rotate(180 6 6)"><rect y="5.4" width="2" height="1.2" style="stroke:#fff"/><polygon points="12 11 0 6 12 1" stroke-width="0"/></g></g></marker><marker id="meminhibition000" markerHeight="20" markerWidth="10" orient="auto" preserveAspectRatio="none" refX="10" refY="10" viewBox="0 0 10 20"><g id="g-meminhibition000" transform=""><g transform="rotate(180 5 10)"><rect y="9" width="8" height="2" style="stroke:none"/><line x="0" y="0" width="12" height="12" x1="7" x2="7" y2="20" stroke="#000" stroke-width="1.8"/></g></g></marker></g></defs><g id="viewport-20220102144647473" class="svg-pan-zoom_viewport" transform="matrix(0.83 0 0 0.83 136.07 0)" style="transform:matrix(0.83, 0, 0, 0.83, 136.07, 0)"><style>svg.Diagram {font-family: 'Liberation Sans', Arial, sans-serif; }.Diagram path {fill: transparent;stroke: #000;marker-end: url(#mea);}.Diagram symbol path {fill: inherit;stroke: inherit;stroke-width: inherit;marker-end: inherit;}.Diagram rect {fill: #fff;stroke: #000;}.Diagram text {dominant-baseline: central;overflow: hidden;text-anchor: middle;fill: #000;font-size: 12px;}</style><style type="text/css">.Viewport .textContent {
  pointer-events: none;
  stroke-width: 0px;
}

					.Viewport.Icon {
  fill: white;
}

/* Hide the InfoBox */
.Viewport.textContent {
  font-size: 0;
}

.textContent {
  stroke: none;
}

.DataNode {
  stroke-miterlimit: 1;
  pointer-events: auto;
}

.DataNode:hover {
  cursor: pointer;
}

/* TODO should this apply to things other than DataNodes? */
.DataNode.textContent {
  pointer-events: none;
}

.DataNode.Highlighted {
  opacity: 0.6;
  stroke-width: 0px;
}

marker {
  /* this is what should work per the spec
  stroke-dasharray: none; */
  /* but I need to add this to make it work in Safari */
  stroke-dasharray: 9999999999999999999999999;
}

.Citation.Icon {
  fill: none;
  stroke-width: 0px;
}

.Citation.textContent {
  text-align: center;
  vertical-align: top;
  font-size: 7px;
  fill: #999;
  fill-opacity: 1;
  stroke: none;
}</style><g id="WP4941" class="Pathway Viewport"  name="Name: GPR143 in melanocytes and retinal pigment epithelium cells Organism: Homo sapiens" ><g class="Pathway Viewport"><rect   width="1115" height="858" style="stroke:none"/><g id="id1841d3a1" class="Edge"  ><path    d="m970.27 662.11-0.35-38.50" style="marker-end:url(#memstimulation000)"/></g><g id="id198dc5c7" class="Edge"  ><path    d="m925.08 327.97 0.80 29.66"/><g id="e4282" class="AB" transform="translate(925.27 335.12)"  ><g class="AB"/></g></g><g id="id1f525e2f" class="Edge"  ><path    d="m530.05 113.87 1.43 56.54" style="marker-end:url(#membinding000)"/></g><g id="id1f581c5d" class="Edge"  ><path    d="m846.37 530.83h-178.84v-42.61" style="marker-end:url(#memstimulation000)"/></g><g id="id29e6b383" class="Edge"  ><path    d="m431.19 539.49 138.13-1.13" style="marker-end:url(#memtranscriptiontranslation000)"/><g id="a2fc0" class="AB" transform="translate(480.03 539.09)"  ><g class="AB"/></g></g><g id="id4229857f" class="Edge"  ><path    d="m823.16 213v-27.00h-219.48v332.12" style="marker-end:url(#memstimulation000)"/></g><g id="id4c203ef" class="Edge"  ><path    d="m620.86 558.61v109.32h26.00" stroke-dasharray="5,3"/></g><g id="id5833ebc6" class="Edge"  ><path    d="m823.16 253.49 1 33.31"/><g id="ec0d9" class="AB" transform="translate(823.56 266.82)"  ><g class="AB"/></g></g><g id="id5b47027f" class="Edge"  ><path    d="m569.32 528.24h-20v-126.82h-193.93"/></g><g id="id77d4eca9" class="Edge"  ><path    d="m433.44 650.64h153.06v-92.03"/></g><g id="id86db474f" class="Edge"  ><path    d="m448.7 67.80 46.99 25.82" style="marker-end:url(#memstimulation000)"/></g><g id="id90b002c4" class="Edge"  ><path    d="m753.43 488.22v17.89h-51.54v-17.89" style="marker-end:url(#memstimulation000)"/></g><g id="id94aac8" class="Edge"  ><path    d="m600.5 67.80-36.09 25.82" style="marker-end:url(#meminhibition000)"/></g><g id="idaff31565" class="Edge"  ><path    d="m856.51 467.97h117.49v-132.85h-48.73" style="marker-end:url(#memcatalysis000)"/></g><g id="idb66e6514" class="Edge"  ><path    d="m1018.2 327.97-2e-13 29.66"/><g id="bf2ad" class="AB" transform="translate(1018.2 335.14)"  ><g class="AB"/></g></g><g id="idbc110e2d" class="Edge"  ><path    d="m882.18 661.99-1.46-110.91" style="marker-end:url(#memstimulation000)"/></g><g id="idbe08daac" class="Edge"  ><path    d="m163.42 311.31 52.44-0.33"/><g id="c40b7" class="AB" transform="translate(184.39 311.18)"  ><g class="AB"/></g></g><g id="id5bcf1679" class="Edge"  ><path    d="m215.49 205.48h-31.10v105.7" style="marker-end:url(#memcatalysis000)"/></g><g id="idd1aa4f0a" class="Edge"  ><path    d="m858.52 307.05 27.29 0.67"/></g><g id="idd2aeee24" class="Edge"  ><path    d="m935.44 530.96-20.35-0.13" style="marker-end:url(#memstimulation000)"/></g><g id="idd3ecaf6b" class="Edge"  ><path    d="m790.02 159.7h-203.52v358.42" style="marker-end:url(#meminhibition000)"/></g><g id="iddb0693bb" class="Edge"  ><path    d="m720.88 253.94v53.11h68.92"/><g id="dae53" class="AB" transform="translate(720.88 274.31)"  ><g class="AB"/></g></g><g id="idea8bc37b" class="Edge"  ><path    d="m814.54 797.83h155.73v-95.22"/></g><g id="idec0aad9" class="Edge"  ><path    d="m755.24 233.69 33.56-0.44"/><g id="c2a5a" class="AB" transform="translate(768.66 233.51)"  ><g class="AB"/></g></g><g id="idcb5b27ad" class="Edge"  ><path    d="m667.53 447.73v-246.39h101.13v32.18" style="marker-end:url(#memcatalysis000)"/><g id="a9a3c" class="AB" transform="translate(667.53 420.33)"  ><g class="AB"/></g><g id="e1664" class="AB" transform="translate(667.53 274.11)"  ><g class="AB"/></g></g><g id="idf0c63627" class="Edge"  ><path    d="m969.92 583.11-0.13-31.91"/></g><g id="idb1ee0b4b" class="Edge"  ><path    d="m667.53 420.33h401.47v-153.52h-245.44" style="marker-end:url(#memcatalysis000)"/><g id="ffe4e" class="AB" transform="translate(1069 334.35)"  ><g class="AB"/></g></g><g id="idf43f54b3" class="Edge"  ><path    d="m620.86 558.61v68.82h26.00" stroke-dasharray="5,3"/><g id="pvjsgeneratedidffe4f" class="AB" transform="translate(618.86 614.29)"  ><g class="AB"><rect   width="4" height="4" style="stroke:none"/></g></g></g><g id="idf4148a1" class="Edge"  ><path    d="m1069 334.35-50.80 0.79" style="marker-end:url(#memcatalysis000)"/></g><g id="idfa42d105" class="Edge"  ><path    d="m226.42 391.54 60.25-0.24" style="marker-end:url(#memtranscriptiontranslation000)"/><g id="bbb11" class="AB" transform="translate(250.52 391.44)"  ><g class="AB"/></g></g><g id="id8311af03" class="Edge"  ><path    d="m250.22 331.23v42.27h0.30v17.94" style="marker-end:url(#memcatalysis000)"/></g><g id="idfb78acf8" class="Edge"  ><path    d="m667.53 274.11 53.34 0.20" style="marker-end:url(#memcatalysis000)"/></g><g id="idfbe5aab2" class="Edge"  ><path    d="m433.44 650.64h-20.80v-30.37h20.80"/></g><g id="idff5be9e4" class="Edge"  ><path    d="m822.15 488.22v30.67h-137.44v-30.67" style="marker-end:url(#memstimulation000)"/></g><g id="id80650969" class="Edge"  ><path    d="m304.51 640.57 48.21-0.05" style="marker-end:url(#memtranscriptiontranslation000)"/><g id="fb7b8" class="AB" transform="translate(319.34 640.55)"  ><g class="AB"/></g></g><g id="id5bfaca00" class="Edge"  ><path    d="m638.04 538.37h20v41.88h61.67" style="marker-end:url(#memstimulation000)"/></g><g id="id752675db" class="Edge"  ><path    d="m822.54 771.46h59.64v-68.97" style="marker-end:url(#memconversion000)"/></g><g id="id9813f0a7" class="Edge"  ><path    d="m779.25 614.61 0.93 23.35" style="marker-end:url(#memstimulation000)"/></g><g id="id9a3213bc" class="Edge"  ><path    d="m321.03 411.55-1.68 229" style="marker-end:url(#memstimulation000)"/></g><g id="idc3bd3034" class="Edge"  ><path    d="m565.84 190.65-93.20 0.39" style="marker-end:url(#memstimulation000)"/></g><g id="id2c49bf97" class="Edge"  ><path    d="m604.83 685.28-1.15-126.66" stroke-dasharray="5,3"/></g><g id="idb4bfc172" class="Edge"  ><path    d="m517.15 282.76-110.3 1.65" style="marker-end:url(#memconversion000)"/><g id="f8a98" class="AB" transform="translate(430.87 284.05)"  ><g class="AB"/></g></g><g id="idb7a2f4b" class="Edge"  ><path    d="m322.13 308.66h-11.80v-137.55h-18.12" style="marker-end:url(#membinding000)"/></g><g id="id4d17af9b" class="Edge"  ><path    d="m292.8 468.16 345.55-0.18" style="marker-end:url(#memtranscriptiontranslation000)"/><g id="ddc49" class="AB" transform="translate(492.21 468.05)"  ><g class="AB"/></g></g><g id="idd7be365e" class="Edge"  ><path    d="m430.28 258.26 0.59 25.80" style="marker-end:url(#memcatalysis000)"/></g><g id="idc93367b2" class="Edge"  ><path    d="m321.03 411.55v20h171.18v36.51" style="marker-end:url(#memstimulation000)"/><g id="ac198" class="AB" transform="translate(370.45 431.55)"  ><g class="AB"/></g></g><g id="id9cf9713d" class="Edge"  ><path    d="m370.45 431.55v16.45h109.57v91.09" style="marker-end:url(#memstimulation000)"/></g><g id="d3c8f" class=" PhysicalEntity CellularComponent Cell" transform="translate(79.5,107)"  ><g class=" PhysicalEntity CellularComponent Cell" filter="url(#doublefalse3filter)"><g class=" PhysicalEntity CellularComponent Cell"><rect   transform="matrix(0.99 0 0 0.98 5.93 5.90)" width="1004.5" height="722.5" rx="15" ry="15" stroke-width="3" style="fill:transparent;stroke:#c0c0c0"/></g></g></g><g id="a06d2" class="GeneProduct " transform="translate(646.86 607.19)"  name="SERPINF1" ><rect   width="68.72" height="40.50"/><text   transform="translate(34.36 20.25)"    >SERPINF1</text></g><g id="a461e" class="Metabolite " transform="translate(935.91 662.11)"  name="IP3" ><rect   width="68.72" height="40.50" style="stroke:#00f"/><text   transform="translate(34.36 20.25)"     style="fill:#00f">IP3</text></g><g id="a978c" class="GeneProduct " transform="translate(600.5 47.55)"  name="ASIP" ><rect   width="68.72" height="40.50"/><text   transform="translate(34.36 20.25)"    >ASIP</text></g><g id="a9a03" class="GeneProduct " transform="translate(646.86 647.68)"  name="VEGFA" ><rect   width="68.72" height="40.50"/><text   transform="translate(34.36 20.25)"    >VEGFA</text></g><g id="a9f0e" class="GeneProduct " transform="translate(379.98 47.55)"  name="POMC" ><rect   width="68.72" height="40.50"/><text   transform="translate(34.36 20.25)"    >POMC</text></g><g id="ab538" class="Metabolite " transform="translate(935.44 510.71)"  name="Ca2+" ><rect   width="68.72" height="40.50" style="stroke:#00f"/><text   transform="translate(34.36 20.25)"     style="fill:#00f">Ca2+</text></g><g id="c5975" class="Metabolite " transform="translate(686.52 213.44)"  name="L-tyrosine" ><rect   width="68.72" height="40.50" style="stroke:#00f"/><text   transform="translate(34.36 20.25)"     style="fill:#00f">L-tyrosine</text></g><g id="ca151" class="Metabolite " transform="translate(885.8 287.47)"  name="Dopachrome" ><rect   width="78.56" height="40.50" style="stroke:#00f"/><text   transform="translate(39.28 20.25)"     style="fill:#00f">Dopachrome</text></g><g id="cc2b4" class="GeneProduct " transform="translate(224.08 437.79)"  name="DCT" ><rect   width="68.72" height="40.50"/><text   transform="translate(34.36 20.25)"    >DCT</text></g><g id="cd6cf" class="Metabolite " transform="translate(788.8 213)"  name="L-DOPA" ><rect   width="68.72" height="40.50" style="stroke:#00f"/><text   transform="translate(34.36 20.25)"     style="fill:#00f">L-DOPA</text></g><g id="cdf8e" class="GeneProduct " transform="translate(224.08 516.79)"  name="TYR" ><rect   width="68.72" height="40.50"/><text   transform="translate(34.36 20.25)"    >TYR</text></g><g id="cdfab" class="Metabolite " transform="translate(891.52 357.62)"  name="DHICA" ><rect   width="68.72" height="40.50" style="stroke:#00f"/><text   transform="translate(34.36 20.25)"     style="fill:#00f">DHICA</text></g><g id="d13c6" class="GeneProduct " transform="translate(224.08 478.29)"  name="TYRP1" ><rect   width="68.72" height="40.50"/><text   transform="translate(34.36 20.25)"    >TYRP1</text></g><g id="d3ace" class="Metabolite " transform="translate(448.43 262.51)"  name="ATP" ><rect   width="68.72" height="40.50" style="stroke:#00f"/><text   transform="translate(34.36 20.25)"     style="fill:#00f">ATP</text></g><g id="dccfb" class="Metabolite " transform="translate(983.84 357.62)"  name="IQ" ><rect   width="68.72" height="40.50" style="stroke:#00f"/><text   transform="translate(34.36 20.25)"     style="fill:#00f">IQ</text></g><g id="e894a" class="GeneProduct " transform="translate(497.12 170.41)"  name="GNAS" ><rect   width="68.72" height="40.50"/><text   transform="translate(34.36 20.25)"    >GNAS</text></g><g id="e9760" class="Protein" transform="translate(286.67 371.05)"  name="MITF" ><rect   width="68.72" height="40.50"/><text   transform="translate(34.36 20.25)"    >MITF</text></g><g id="ea91a" class="Metabolite " transform="translate(847.83 661.99)"  name="DAG" ><rect   width="68.72" height="40.50" style="stroke:#00f"/><text   transform="translate(34.36 20.25)"     style="fill:#00f">DAG</text></g><g id="ea984" class="Metabolite " transform="translate(790.02 139.45)"  name="Dopamine" ><rect   width="68.72" height="40.50" style="stroke:#00f"/><text   transform="translate(34.36 20.25)"     style="fill:#00f">Dopamine</text></g><g id="eac1d" class="Protein" transform="translate(495.69 73.37)"  name="MC1R" ><rect   width="68.72" height="40.50"/><text   transform="translate(34.36 20.25)"    >MC1R</text></g><g id="eea91" class="GeneProduct " transform="translate(362.47 519.24)"  name="GPR143" ><rect   width="68.72" height="40.50"/><text   transform="translate(34.36 20.25)"    >GPR143</text></g><g id="f1dc2" class="GeneProduct " transform="translate(94.70 291.06)"  name="CREB1" ><rect   width="68.72" height="40.50"/><text   transform="translate(34.36 20.25)"    >CREB1</text></g><g id="f65aa" class="Protein" transform="translate(569.32 518.12)"  name="GPR143" ><rect   width="68.72" height="40.50"/><text   transform="translate(34.36 20.25)"    >GPR143</text></g><g id="f75f2" class="Metabolite " transform="translate(789.8 286.8)"  name="DQ" ><rect   width="68.72" height="40.50" style="stroke:#00f"/><text   transform="translate(34.36 20.25)"     style="fill:#00f">DQ</text></g><g id="f9552" class="GeneProduct " transform="translate(846.37 510.58)"  name="PRKCB" ><rect   width="68.72" height="40.50"/><text   transform="translate(34.36 20.25)"    >PRKCB</text></g><g id="ff370" class="GeneProduct " transform="translate(935.56 583.11)"  name="ITPR1" ><rect   width="68.72" height="40.50"/><text   transform="translate(34.36 20.25)"    >ITPR1</text></g><g id="aa56c" class="GroupComplex" transform="translate(352.72 588.02)"  ><g class="GroupComplex"><use class="Icon" width="92.72" height="104.99" fill="#b4b464" fill-opacity=".1" stroke="grey" href="#Octagon"/><g id="b4578" class="Protein" transform="translate(12,12)"  name="PMEL" ><rect   width="68.72" height="40.50"/><text   transform="translate(34.36 20.25)"    >PMEL</text></g><g id="f1385" class="Protein" transform="translate(12 52.50)"  name="MART-1" ><rect   width="68.72" height="40.50"/><text   transform="translate(34.36 20.25)"    >MART-1</text></g></g></g><g id="bc2b2" class="GroupGroup" transform="translate(219.79 592.07)"  ><g class="GroupGroup"><g id="a08ba" class="GeneProduct " transform="translate(8,8)"  name="PMEL" ><rect   width="68.72" height="40.50"/><text   transform="translate(34.36 20.25)"    >PMEL</text></g><g id="fa18f" class="GeneProduct " transform="translate(8 48.50)"  name="MLANA" ><rect   width="68.72" height="40.50"/><text   transform="translate(34.36 20.25)"    >MLANA</text></g></g></g><g id="d2913" class="GroupGroup" transform="translate(719.71 566.12)"  ><g class="GroupGroup"><g id="a3ba8" class="GeneProduct " transform="translate(76.72 8)"  name="GNAQ" ><rect   width="68.72" height="40.50"/><text   transform="translate(34.36 20.25)"    >GNAQ</text></g><g id="a695f" class="GeneProduct " transform="translate(8,8)"  name="GNA15" ><rect   width="68.72" height="40.50"/><text   transform="translate(34.36 20.25)"    >GNA15</text></g></g></g><g id="d690a" class="GroupGroup" transform="translate(737.82 637.97)"  ><g class="GroupGroup"><g id="d648f" class="GeneProduct " transform="translate(8,8)"  name="PLCB1" ><rect   width="68.72" height="40.50"/><text   transform="translate(34.36 20.25)"    >PLCB1</text></g><g id="eb12d" class="GeneProduct " transform="translate(8 88.99)"  name="PLCB3" ><rect   width="68.72" height="40.50"/><text   transform="translate(34.36 20.25)"    >PLCB3</text></g><g id="eb72f" class="GeneProduct " transform="translate(8 48.50)"  name="PLCB2" ><rect   width="68.72" height="40.50"/><text   transform="translate(34.36 20.25)"    >PLCB2</text></g><g id="f69da" class="GeneProduct " transform="translate(8 129.49)"  name="PLCB4" ><rect   width="68.72" height="40.50"/><text   transform="translate(34.36 20.25)"    >PLCB4</text></g></g></g><g id="db87e" class="GroupGroup" transform="translate(387.92 123.83)"  ><g class="GroupGroup"><g id="a0239" class="GeneProduct " transform="translate(8,8)"  name="ADCY9" ><rect   width="68.72" height="40.50"/><text   transform="translate(34.36 20.25)"    >ADCY9</text></g><g id="a932e" class="GeneProduct " transform="translate(8.00 85.93)"  name="ADCY4" ><rect   width="68.72" height="40.50"/><text   transform="translate(34.36 20.25)"    >ADCY4</text></g><g id="cdfe3" class="GeneProduct " transform="translate(8.00 46.10)"  name="ADCY2" ><rect   width="68.72" height="40.50"/><text   transform="translate(34.36 20.25)"    >ADCY2</text></g></g></g><g id="f3713" class="GroupGroup" transform="translate(541.29 685.28)"  ><g class="GroupGroup"><g id="ba089" class="GeneProduct " transform="translate(8 47.50)"  name="ARRB2" ><rect   width="68.72" height="40.50"/><text   transform="translate(34.36 20.25)"    >ARRB2</text></g><g id="d7e68" class="GeneProduct " transform="translate(8,8)"  name="ARRB1" ><rect   width="68.72" height="40.50"/><text   transform="translate(34.36 20.25)"    >ARRB1</text></g></g></g><g id="f6a54" class="GroupGroup" transform="translate(207.49 136.74)"  ><g class="GroupGroup"><g id="a51b6" class="GeneProduct " transform="translate(8 88.99)"  name="PRKACB" ><rect   width="68.72" height="40.50"/><text   transform="translate(34.36 20.25)"    >PRKACB</text></g><g id="b032d" class="GeneProduct " transform="translate(8 48.50)"  name="PRKACA" ><rect   width="68.72" height="40.50"/><text   transform="translate(34.36 20.25)"    >PRKACA</text></g><g id="c6dd1" class="GeneProduct " transform="translate(8 8)"  name="PRKACG" ><rect   width="68.72" height="40.50"/><text   transform="translate(34.36 20.25)"    >PRKACG</text></g></g></g><g id="f74ec" class="GroupGroup" transform="translate(322.13 260.16)"  ><g class="GroupGroup"><g id="a841f" class="Metabolite " transform="translate(8.00 8)"  name="cAMP" ><rect   width="68.72" height="40.50" style="stroke:#00f"/><text   transform="translate(34.36 20.25)"     style="fill:#00f">cAMP</text></g><g id="dea46" class="Metabolite " transform="translate(8 48.50)"  name="PPi" ><rect   width="68.72" height="40.50" style="stroke:#00f"/><text   transform="translate(34.36 20.25)"     style="fill:#00f">PPi</text></g></g></g><g id="f95af" class="GroupComplex" transform="translate(638.35 435.73)"  ><g class="GroupComplex"><use class="Icon" width="230.16" height="64.50" fill="#b4b464" fill-opacity=".1" stroke="grey" href="#Octagon"/><g id="a5712" class="Protein" transform="translate(80.72 12)"  name="TYRP1" ><rect   width="68.72" height="40.50"/><text   transform="translate(34.36 20.25)"    >TYRP1</text></g><g id="d0dd2" class="Protein" transform="translate(149.44 12)"  name="DCT" ><rect   width="68.72" height="40.50"/><text   transform="translate(34.36 20.25)"    >DCT</text></g><g id="f67f8" class="GeneProduct " transform="translate(12,12)"  name="TYR" ><rect   width="68.72" height="40.50"/><text   transform="translate(34.36 20.25)"    >TYR</text></g></g></g><g id="fee5d" class="Metabolite " transform="translate(983.84 287.47)"  name="DHI" ><rect   width="68.72" height="40.50" style="stroke:#00f"/><text   transform="translate(34.36 20.25)"     style="fill:#00f">DHI</text></g><g id="ab265" class="Edge"  ><path    d="m964.36 307.72h19.48"/></g><g id="d1baa" class="GeneProduct " transform="translate(157.7 371.29)"  name="MITF" ><rect   width="68.72" height="40.50"/><text   transform="translate(34.36 20.25)"    >MITF</text></g><g id="a3ed1" class="GeneProduct " transform="translate(215.86 290.73)"  name="CREB1" ><rect   width="68.72" height="40.50"/><g id="e1dfe" class="State Burr" transform="translate(57.70 28.04)"  ><g class="State Burr"><use class="State Burr Node Icon" width="22.04" height="24.92" fill="#fff" stroke="#000" href="#Ellipse"/></g></g><text   transform="translate(34.36 20.25)"    >CREB1</text></g></g></g></g></svg>