<?xml version="1.0" encoding="UTF-8"?>
<svg xmlns="http://www.w3.org/2000/svg" id="-svg" class="Diagram"  baseProfile="full" prefix="schema:http://schema.org/" preserveAspectRatio="xMidYMid"  version="1.1"><defs><g id="filter-defs"><filter id="doublefalse3filter" x="-50%" y="-50%" width="200%" height="200%"><feComposite in="SourceGraphic" in2="SourceGraphic" result="doubleDark"/><feMorphology in="doubleDark" operator="dilate" radius="0.17" result="in2Double"/><feMorphology in="SourceGraphic" operator="dilate" radius="3" result="inDouble"/><feComposite in="inDouble" in2="in2Double" operator="out" result="doubleResult"/></filter></g><g id="icon-defs"><symbol id="Ellipse" class=" Icon Ellipse" x="0" y="0" overflow="visible" preserveAspectRatio="none" viewBox="0 0 50 50"><desc>Ellipse</desc><ellipse cx="25" cy="25" rx="25" ry="25" vector-effect="non-scaling-stroke"/></symbol><symbol id="Mitochondria" class=" Icon Mitochondria" x="0" y="0" overflow="visible" preserveAspectRatio="none" viewBox="0 0 100 100"><desc>Mitochondria</desc><ellipse cx="50" cy="50" rx="50" ry="50"/><path d="m14.89 26.35c4.36-0.74 3.83 17.04 8.18 16.18 8.27 0.03 2.98-28.15 9.90-28.34 6.97-0.19 2.25 29.95 9.21 29.44 7.63-0.56 0.51-32.94 8.14-33.62 7.70-0.69 2.92 32.04 10.63 32.23 6.55 0.16 3.03-27.64 9.56-26.92 7.19 0.79 0.66 29.84 7.78 31.67 4.75 1.22 4.42-18.26 9.20-17.44 11.13 7.58 8.63 37.70-2.18 44.65-3.14 0.70-3.97-10.50-7.11-9.91-5.59 1.06-3.98 22.28-9.60 21.80-5.24-0.46-2.23-21.64-7.47-21.73-6.96-0.12-3.36 28.92-10.32 28.50-6.14-0.38-1.73-24.95-7.83-26.19-5.68-1.16-5.38 22.17-11.03 20.68-6.25-1.64-0.47-26.67-6.76-27.87-3.73-0.71-2.65 14.40-6.40 14.54-14.02-5.94-15.75-39.71-3.9-47.67z" vector-effect="non-scaling-stroke"/></symbol><symbol id="Octagon" class=" Icon Octagon" x="0" y="0" overflow="visible" preserveAspectRatio="none" viewBox="0 0 100 100"><desc>Octagon</desc><path d="m0 25 25-25h50l25 25v50l-25 25h-50l-25-25z" vector-effect="non-scaling-stroke"/></symbol></g><g id="marker-defs"><marker id="membinding000" markerHeight="12" markerWidth="12" orient="auto" preserveAspectRatio="none" refX="12" refY="6" viewBox="0 0 12 12"><g id="g-membinding000" transform=""><g transform="rotate(180 6 6)"><rect y="5.4" width="2" height="1.2" style="stroke:#fff"/><polygon points="12 12 0 6 12 0 5 6" stroke-width="0"/></g></g></marker><marker id="memstimulation000" markerHeight="12" markerWidth="12" orient="auto" preserveAspectRatio="none" refX="12" refY="6" viewBox="0 0 12 12"><g id="g-memstimulation000" transform=""><g transform="rotate(180 6 6)"><rect y="5.4" width="2" height="1.2" style="stroke:none"/><line x1="12" x2="12" y1="6" y2="6" fill="none"/><polygon points="0 6 11 11 11 1" fill="#fff" stroke="#000"/></g></g></marker><marker id="memconversion000" markerHeight="12" markerWidth="12" orient="auto" preserveAspectRatio="none" refX="12" refY="6" viewBox="0 0 12 12"><g id="g-memconversion000" transform=""><g transform="rotate(180 6 6)"><rect y="5.4" width="2" height="1.2" style="stroke:#fff"/><polygon points="12 11 0 6 12 1" stroke-width="0"/></g></g></marker><marker id="meminhibition000" markerHeight="20" markerWidth="10" orient="auto" preserveAspectRatio="none" refX="10" refY="10" viewBox="0 0 10 20"><g id="g-meminhibition000" transform=""><g transform="rotate(180 5 10)"><rect y="9" width="8" height="2" style="stroke:none"/><line x="0" y="0" width="12" height="12" x1="7" x2="7" y2="20" stroke="#000" stroke-width="1.8"/></g></g></marker><marker id="memtranscriptiontranslation000" markerHeight="24" markerWidth="20" orient="auto" preserveAspectRatio="none" refX="20" refY="12" viewBox="0 0 20 24"><g id="g-memtranscriptiontranslation000" transform=""><g transform="rotate(180 10 12)"><rect y="11" width="12" height="2" style="stroke:#fff"/><line x1="15" x2="15" y1="12" y2="5" fill="none" stroke="#000"/><line x1="15.5" x2="8" y1="5" y2="5" fill="none" stroke="#000"/><polygon points="0 5 8 1 8 9" fill="#fff" stroke="#000"/></g></g></marker><marker id="mea" markerHeight="12" markerWidth="12" orient="auto" preserveAspectRatio="none" refX="12" refY="6" viewBox="0 0 12 12"><g id="g-mea" transform=""><g transform="rotate(180 6 6)"><rect y="5.4" width="2" height="1.2" style="stroke:#fff"/><polygon points="12 11 0 6 12 1" stroke-width="0"/></g></g></marker></g></defs><g id="viewport-20220102145202262" class="svg-pan-zoom_viewport" transform="matrix(0.38 0 0 0.38 344.7 0)" style="transform:matrix(0.38, 0, 0, 0.38, 344.70, 0)"><style>svg.Diagram {font-family: 'Liberation Sans', Arial, sans-serif; }.Diagram path {fill: transparent;stroke: #000;marker-end: url(#mea);}.Diagram symbol path {fill: inherit;stroke: inherit;stroke-width: inherit;marker-end: inherit;}.Diagram rect {fill: #fff;stroke: #000;}.Diagram text {dominant-baseline: central;overflow: hidden;text-anchor: middle;fill: #000;font-size: 12px;}</style><style type="text/css">.Viewport .textContent {
  pointer-events: none;
  stroke-width: 0px;
}

					.Viewport.Icon {
  fill: white;
}

/* Hide the InfoBox */
.Viewport.textContent {
  font-size: 0;
}

.textContent {
  stroke: none;
}

.DataNode {
  stroke-miterlimit: 1;
  pointer-events: auto;
}

.DataNode:hover {
  cursor: pointer;
}

/* TODO should this apply to things other than DataNodes? */
.DataNode.textContent {
  pointer-events: none;
}

.DataNode.Highlighted {
  opacity: 0.6;
  stroke-width: 0px;
}

marker {
  /* this is what should work per the spec
  stroke-dasharray: none; */
  /* but I need to add this to make it work in Safari */
  stroke-dasharray: 9999999999999999999999999;
}

.Citation.Icon {
  fill: none;
  stroke-width: 0px;
}

.Citation.textContent {
  text-align: center;
  vertical-align: top;
  font-size: 7px;
  fill: #999;
  fill-opacity: 1;
  stroke: none;
}</style><g id="WP5092" class="Pathway http___identifiers_org_pw_PW_0000626 Viewport"  name="Name: Interactions of natural killer cells in pancreatic cancer Organism: Homo sapiens" ><g class="Pathway http___identifiers_org_pw_PW_0000626 Viewport"><rect   width="1346.5" height="1764.3" style="stroke:none"/><g id="a98cc" class=" PhysicalEntity CellularComponent Nucleus" transform="translate(158.18 991.38)"  name="Nucleus" ><g class=" PhysicalEntity CellularComponent Nucleus" filter="url(#doublefalse3filter)"><g class=" PhysicalEntity CellularComponent Nucleus"><use class=" PhysicalEntity CellularComponent Nucleus Node Icon" transform="matrix(0.98 0 0 0.94 5.87 5.62)" width="547.09" height="177.04" fill="transparent" stroke="#c0c0c0" stroke-width="3" href="#Ellipse"/></g></g><g ><defs><clipPath ><rect x="-273.55" y="-88.52" width="547.09" height="177.04" style="stroke:none"/></clipPath></defs><text   transform="translate(273.55 88.52)"    font-weight="bold"  style="fill:#c0c0c0;font-size:15px">Nucleus</text></g></g><g id="cd6e7" class=" PhysicalEntity CellularComponent Cell" transform="translate(31.24 814.31)"  name="Natural killer cell" ><g class=" PhysicalEntity CellularComponent Cell" filter="url(#doublefalse3filter)"><g class=" PhysicalEntity CellularComponent Cell"><rect   transform="matrix(0.99 0 0 0.97 5.94 5.84)" width="1244.9" height="451.28" rx="15" ry="15" stroke-width="3" style="fill:transparent;stroke:#ccf"/></g></g><g ><defs><clipPath ><rect x="-8" y="-433.38" width="1244.9" height="451.28" style="stroke:none"/></clipPath></defs><text   transform="translate(8 433.38)"    font-weight="bold"  style="fill:#ccccff;text-anchor:start;font-size:18px">Natural killer cell</text></g></g><g id="fc7a1" class=" PhysicalEntity CellularComponent Mitochondria" transform="translate(879.23 70.78)"  ><g class=" PhysicalEntity CellularComponent Mitochondria"><use class=" PhysicalEntity CellularComponent Mitochondria Node Icon" transform="matrix(0.99 0 0 0.98 1.49 1.47)" width="324.54" height="156.31" fill="transparent" stroke="#c0c0c0" stroke-width="3" href="#Mitochondria"/></g></g><g id="d64c6" class=" PhysicalEntity CellularComponent Nucleus" transform="translate(242.12 106.23)"  name="Nucleus" ><g class=" PhysicalEntity CellularComponent Nucleus" filter="url(#doublefalse3filter)"><g class=" PhysicalEntity CellularComponent Nucleus"><use class=" PhysicalEntity CellularComponent Nucleus Node Icon" transform="matrix(0.98 0 0 0.94 5.88 5.64)" width="607.66" height="187.74" fill="transparent" stroke="#c0c0c0" stroke-width="3" href="#Ellipse"/></g></g><g ><defs><clipPath ><rect x="-303.83" y="-93.87" width="607.66" height="187.74" style="stroke:none"/></clipPath></defs><text   transform="translate(303.83 93.87)"    font-weight="bold"  style="fill:#c0c0c0;font-size:15px">Nucleus</text></g></g><g id="id1018903f" class="Edge"  ><path    d="m788.59 805.35-72.01-245.18" style="marker-end:url(#membinding000)"/></g><g id="id145c748b" class="Edge"  ><path    d="m875.04 824.02-70.99 64.16" style="marker-end:url(#memstimulation000)"/></g><g id="id1f42c14b" class="Edge"  ><path    d="m1294 891.73-63.72-331.57" style="marker-end:url(#membinding000)"/></g><g id="id231f9fd5" class="Edge"  ><path    d="m545.63 803.64v-32.39" style="marker-end:url(#membinding000)"/></g><g id="id2a4d919f" class="Edge"  ><path    d="m234.04 1081.9-124.13-251.52" style="marker-end:url(#memtranscriptiontranslation000)"/></g><g id="id2f82d7b6" class="Edge"  ><path    d="m1038.6 176.13-209.73 393.39"/></g><g id="id45912b71" class="Edge"  ><path    d="m1226.5 904.23-216.07-1.25" style="marker-end:url(#meminhibition000)"/></g><g id="id459d87ac" class="Edge"  ><path    d="m455.02 166.26h-65.05" style="marker-end:url(#memstimulation000)"/></g><g id="id5167efb3" class="Edge"  ><path    d="m1316.5 904.23h20v475.31h-674.41" style="marker-end:url(#memstimulation000)"/></g><g id="id540d8c1" class="Edge"  ><path    d="m563.64 1127.4 457.62-161.17" style="marker-end:url(#memstimulation000)"/></g><g id="id55583988" class="Edge"  ><path    d="m1066.3 953.73-75.35-396.03" style="marker-end:url(#memconversion000)"/></g><g id="id56019ef9" class="Edge"  ><path    d="m653.76 830.35 57.18 51.58" style="marker-end:url(#memstimulation000)"/></g><g id="id5711f73b" class="Edge"  ><path    d="m968.45 475.82v-56.28" style="marker-end:url(#memstimulation000)"/></g><g id="id5b64b0e9" class="Edge"  ><path    d="m825.08 193.63 342.14 341.54" style="marker-end:url(#memtranscriptiontranslation000)"/></g><g id="id5b75c969" class="Edge"  ><path    d="m614.23 1035.7 305.81-205.42" style="marker-end:url(#memtranscriptiontranslation000)"/></g><g id="id5fd6a0e9" class="Edge"  ><path    d="m1226.5 910.48-115.29 55.74" style="marker-end:url(#meminhibition000)"/></g><g id="id69b9a613" class="Edge"  ><path    d="m344.97 178.76 0.31 178.65" style="marker-end:url(#memtranscriptiontranslation000)"/></g><g id="id69ec9071" class="Edge"  ><path    d="m545.02 78.06h493.58v56.02"/></g><g id="id7789940f" class="Edge"  ><path    d="m72.41 805.35 0.41-245.18" style="marker-end:url(#membinding000)"/></g><g id="id7f00284" class="Edge"  ><path    d="m500.02 90.56 1.2e-13 63.20" style="marker-end:url(#memstimulation000)"/></g><g id="id968667de" class="Edge"  ><path    d="m968.45 890.48v-389.66" style="marker-end:url(#memconversion000)"/></g><g id="ida38f0fcc" class="Edge"  ><path    d="m716.58 242.62v292.54" style="marker-end:url(#memtranscriptiontranslation000)"/></g><g id="idb155247a" class="Edge"  ><path    d="m563.64 1121.2 362.79-218.17" style="marker-end:url(#memstimulation000)"/></g><g id="idba19f9c0" class="Edge"  ><path    d="m546.97 560.16-1.34 186.09" style="marker-end:url(#memconversion000)"/><g id="d9aa2" class="AB" transform="translate(546.43 634.6)"  ><g class="AB"/></g><g id="fa4c1" class="AB" transform="translate(545.91 707.32)"  ><g class="AB"/></g><g id="pvjsgeneratedidff97a" class="AB" transform="translate(544.43 632.6)"  ><g class="AB"><rect   width="4" height="4" style="stroke:none"/></g></g></g><g id="id66c875dd" class="Edge"  ><path    d="m468.92 426.97h11.97v207.62h65.53" style="marker-end:url(#memstimulation000)"/></g><g id="idba69f41" class="Edge"  ><path    d="m1249 891.73-178.9-331.57" style="marker-end:url(#membinding000)"/></g><g id="idbc270982" class="Edge"  ><path    d="m545.63 828.64 118.76 53.29" style="marker-end:url(#memstimulation000)"/></g><g id="idbc4e62c2" class="Edge"  ><path    d="m631.26 830.35-90.12 284.55" style="marker-end:url(#memstimulation000)"/></g><g id="idbe8f423f" class="Edge"  ><path    d="m449.88 484.54v20h0.09v202.78h95.94" style="marker-end:url(#memstimulation000)"/></g><g id="idc0c8e6d5" class="Edge"  ><path    d="m1294 1003.7v315.75h-676.91v47.61" style="marker-end:url(#meminhibition000)"/></g><g id="idd7846796" class="Edge"  ><path    d="m788.59 830.35-31.09 51.58" style="marker-end:url(#memstimulation000)"/></g><g id="idf7d995e3" class="Edge"  ><path    d="m1226.5 984.93-487.47-424.77" style="marker-end:url(#membinding000)"/></g><g id="idf88ebc51" class="Edge"  ><path    d="m653.76 805.35 40.32-245.18" style="marker-end:url(#membinding000)"/></g><g id="idf92ff4d2" class="Edge"  ><path    d="m411.32 1018.9 111.81-190.26" style="marker-end:url(#memtranscriptiontranslation000)"/></g><g id="idfdb52e76" class="Edge"  ><path    d="m828.88 594.52 91.16 210.75" style="marker-end:url(#meminhibition000)"/></g><g id="id3d816571" class="Edge"  ><path    d="m53.66 817.85h-20v661.69h530.48" style="marker-end:url(#memstimulation000)"/></g><g id="id2d04d624" class="Edge"  ><path    d="m543.2 282.91 3.77 252.25" style="marker-end:url(#memtranscriptiontranslation000)"/></g><g id="idfdd73929" class="Edge"  ><path    d="m617.14 1600v70.26" style="marker-end:url(#memstimulation000)"/></g><g id="id2376cc56" class="Edge"  ><path    d="m322.77 382.42-69.23 140.75" style="marker-end:url(#meminhibition000)"/></g><g id="id7f142a63" class="Edge"  ><path    d="m455.02 78.06h-252.48v445.1" style="marker-end:url(#meminhibition000)"/></g><g id="idc2e8a480" class="Edge"  ><path    d="m91.16 805.35v-207.69h111.38v-25.50" style="marker-end:url(#membinding000)"/></g><g id="id1d9b8a98" class="Edge"  ><path    d="m128.66 817.85 22.35 0.89" style="marker-end:url(#memconversion000)"/></g><g id="id81f7b5d8" class="Edge"  ><path    d="m253.54 572.16-0.53 191.3" style="marker-end:url(#memconversion000)"/><g id="f94bc" class="AB" transform="translate(253.41 619.5)"  ><g class="AB"/></g><g id="f3a1d" class="AB" transform="translate(253.25 677.08)"  ><g class="AB"/></g></g><g id="id3037117d" class="Edge"  ><path    d="m378.92 426.97h-6.60v192.52h-118.91" style="marker-end:url(#memstimulation000)"/></g><g id="id496f8aeb" class="Edge"  ><path    d="m404.88 484.54v20h-171.63v172.54h20" style="marker-end:url(#memstimulation000)"/></g><g id="e1475" class=" PhysicalEntity CellularComponent Cell" transform="translate(33.59 38.38)"  name="Tumor cell" ><g class=" PhysicalEntity CellularComponent Cell" filter="url(#doublefalse3filter)"><g class=" PhysicalEntity CellularComponent Cell"><rect   transform="matrix(0.99 0 0 0.98 5.94 5.86)" width="1257.4" height="511.92" rx="15" ry="15" stroke-width="3" style="fill:transparent;stroke:#9cf"/></g></g><g ><defs><clipPath ><rect x="-8" y="-17.9" width="1257.4" height="511.92" style="stroke:none"/></clipPath></defs><text   transform="translate(8,17.9)"    font-weight="bold"  style="fill:#99ccff;text-anchor:start;font-size:18px">Tumor cell</text></g></g><g id="a4552" class="Label" transform="translate(119.99 648.8)"  name="Shedding of MICA/B complex prevents  binding of KLRK1  to tumor cell" ><g class="Label"/><text   transform="translate(60.06 41.13)"    ><tspan   x="0" y="-19.8">Shedding of MICA/B</tspan><tspan   x="0" y="-6.60">complex prevents</tspan><tspan   x="0" y="6.60">binding of KLRK1</tspan><tspan   x="0" y="19.8">to tumor cell</tspan></text></g><g id="c82d8" class="Label" transform="translate(1173.5 695.42)"  name="IGHG1 and IgE bind competitively to FCGR3A" ><g class="Label"/><text   transform="translate(45 35.74)"    ><tspan   x="0" y="-19.8">IGHG1 and</tspan><tspan   x="0" y="-6.60">IgE bind</tspan><tspan   x="0" y="6.60">competitively</tspan><tspan   x="0" y="19.8">to FCGR3A</tspan></text></g><g id="e5f6d" class="Label" transform="translate(617.84 881.93)"  name="Natural killer cell adhesion" ><rect   width="186.21" height="25" rx="15" ry="15" stroke-dasharray="5,3" style="stroke:#14961e"/><text   transform="translate(93.11 12.5)"    font-weight="bold"  style="fill:#14961e">Natural killer cell adhesion</text></g><g id="a12dd" class="GeneProduct " transform="translate(569.23 1035.7)"  name="NCR1" ><rect   width="90" height="25"/><text   transform="translate(45,12.5)"    >NCR1</text></g><g id="c1543" class="GeneProduct " transform="translate(455.02 153.76)"  name="BMI1" ><rect   width="90" height="25"/><text   transform="translate(45,12.5)"    >BMI1</text></g><g id="c34a2" class="Protein" transform="translate(50.32 535.16)"  name="ULBP1" ><rect   width="90" height="25"/><text   transform="translate(45,12.5)"    >ULBP1</text></g><g id="d62ad" class="Protein" transform="translate(300.27 357.42)"  name="GATA2" ><rect   width="90" height="25"/><text   transform="translate(45,12.5)"    >GATA2</text></g><g id="e3eb0" class="GeneProduct " transform="translate(366.32 1018.9)"  name="NCR3" ><rect   width="90" height="25"/><text   transform="translate(45,12.5)"    >NCR3</text></g><g id="ed4ab" class="Pathway" transform="translate(923.45 394.54)"  name="Apoptosis" ><g class="Pathway"><rect   width="90" height="25" rx="15" ry="15" stroke-dasharray="5,3" style="stroke:#14961e"/></g><g ><defs><clipPath ><rect x="-45" y="-12.5" width="90" height="25" style="stroke:none"/></clipPath></defs><text   transform="translate(45,12.5)"    font-weight="bold"  style="fill:#14961e">Apoptosis</text></g></g><g id="f9915" class="GeneProduct " transform="translate(299.97 153.76)"  name="GATA2" ><rect   width="90" height="25"/><text   transform="translate(45,12.5)"    >GATA2</text></g><g id="bf797" class="GroupComplex" transform="translate(486.2 208.91)"  ><g class="GroupComplex"><use class="Icon" width="114" height="74.00" fill="#b4b464" fill-opacity=".1" stroke="grey" href="#Octagon"/><g id="ff979" class="GeneProduct " transform="translate(12 37)"  name="NCR3LG1" ><rect   width="90" height="25"/><text   transform="translate(45,12.5)"    >NCR3LG1</text></g><g id="b4bce" class="GeneProduct " transform="translate(12,12)"  name="MYC" ><rect   width="90" height="25"/><text   transform="translate(45,12.5)"    >MYC</text></g></g></g><g id="f40de" class="GroupComplex" transform="translate(151.54 523.16)"  ><g class="GroupComplex"><use class="Icon" width="204.00" height="49" fill="#b4b464" fill-opacity=".1" stroke="grey" href="#Octagon"/><g id="c95f4" class="Protein" transform="translate(102 12)"  name="MICB" ><rect   width="90" height="25"/><text   transform="translate(45,12.5)"    >MICB</text></g><g id="f9eeb" class="Protein" transform="translate(12,12)"  name="MICA" ><rect   width="90" height="25"/><text   transform="translate(45,12.5)"    >MICA</text></g></g></g><g id="f5727" class="GroupComplex" transform="translate(151.01 763.46)"  ><g class="GroupComplex"><use class="Icon" width="204.00" height="73.70" fill="#b4b464" fill-opacity=".1" stroke="grey" href="#Octagon"/><g id="e2bbf" class="Protein" transform="translate(102 12)"  name="MICB" ><rect   width="90" height="25"/><text   transform="translate(45,12.5)"    >MICB</text></g><g id="b383e" class="Protein" transform="translate(12,12)"  name="MICA" ><rect   width="90" height="25"/><text   transform="translate(45,12.5)"    >MICA</text></g><g id="dd5cf" class="Protein" transform="translate(65.87 36.70)"  name="KLRK1" ><rect   width="75" height="25"/><text   transform="translate(37.5,12.5)"    >KLRK1</text></g></g></g><g id="cb2ca" class="GeneProduct " transform="translate(382.38 459.54)"  name="ADAM17" ><rect   width="90" height="25"/><text   transform="translate(45,12.5)"    >ADAM17</text></g><g id="af72a" class="GeneProduct " transform="translate(378.92 414.47)"  name="ADAM10" ><rect   width="90" height="25"/><text   transform="translate(45,12.5)"    >ADAM10</text></g><g id="c91df" class="Protein" transform="translate(501.97 535.16)"  name="NCR3LG1" ><rect   width="90" height="25"/><text   transform="translate(45,12.5)"    >NCR3LG1</text></g><g id="fcc61" class="Protein" transform="translate(500.63 746.25)"  name="NCR3LG1" ><rect   width="90" height="25"/><text   transform="translate(45,12.5)"    >NCR3LG1</text></g><g id="f578c" class="Protein" transform="translate(671.58 535.16)"  name="PVR" ><rect   width="90" height="25"/><text   transform="translate(45,12.5)"    >PVR</text></g><g id="c6bdb" class="GeneProduct " transform="translate(671.58 217.62)"  name="PVR" ><rect   width="90" height="25"/><text   transform="translate(45,12.5)"    >PVR</text></g><g id="c919f" class="GeneProduct " transform="translate(735.08 181.13)"  name="IGHG1" ><rect   width="90" height="25"/><text   transform="translate(45,12.5)"    >IGHG1</text></g><g id="af393" class="Protein" transform="translate(1135.7 535.16)"  name="IGHG1" ><rect   width="126.2" height="25"/><text   transform="translate(63.10 12.5)"    >IGHG1</text></g><g id="f14ea" class="Pathway" transform="translate(932.62 134.08)"  name="Glycolysis" ><g class="Pathway"><rect   width="211.96" height="42.05" rx="15" ry="15" stroke-dasharray="5,3" style="stroke:#14961e"/></g><g ><defs><clipPath ><rect x="-105.98" y="-21.03" width="211.96" height="42.05" style="stroke:none"/></clipPath></defs><text   transform="translate(105.98 21.03)"    font-weight="bold"  style="fill:#14961e">Glycolysis</text></g></g><g id="c75e0" class="Metabolite " transform="translate(455.02 65.56)"  name="glucose" ><rect   width="90" height="25" style="stroke:#00f"/><text   transform="translate(45,12.5)"     style="fill:#00f">glucose</text></g><g id="cbd93" class="Protein " transform="translate(1025.1 535.16)"  name="IgE" ><rect   width="90" height="25"/><text   transform="translate(45,12.5)"    >IgE</text></g><g id="f31c1" class="Metabolite " transform="translate(783.88 569.52)"  name="lactate" ><rect   width="90" height="25" style="stroke:#00f"/><text   transform="translate(45,12.5)"     style="fill:#00f">lactate</text></g><g id="da66e" class="Protein" transform="translate(53.66 805.35)"  name="KLRK1" ><rect   width="75" height="25"/><text   transform="translate(37.5,12.5)"    >KLRK1</text></g><g id="fb1d8" class="GeneProduct " transform="translate(211.54 1081.9)"  name="KLRK1" ><rect   width="90" height="25"/><text   transform="translate(45,12.5)"    >KLRK1</text></g><g id="a8f1c" class="Protein" transform="translate(1021.3 953.73)"  name="PRF1" ><rect   width="90" height="25"/><text   transform="translate(45,12.5)"    >PRF1</text></g><g id="d5f4b" class="Protein" transform="translate(926.42 890.48)"  name="GZMB" ><rect   width="84.05" height="25" style="fill:transparent"/><text   transform="translate(42.03 12.5)"    >GZMB</text></g><g id="ba650" class="GroupGroup" transform="translate(564.14 1359)"  ><g class="GroupGroup"><g id="c2c9a" class="GeneProduct " transform="translate(8,108)"  name="CCL1" ><rect   width="90" height="25"/><text   transform="translate(45,12.5)"    >CCL1</text></g><g id="c79ee" class="GeneProduct " transform="translate(8 183)"  name="CCL4" ><rect   width="90" height="25"/><text   transform="translate(45,12.5)"    >CCL4</text></g><g id="cba4d" class="GeneProduct " transform="translate(8 208)"  name="CCL5" ><rect   width="90" height="25"/><text   transform="translate(45,12.5)"    >CCL5</text></g><g id="f66ae" class="GeneProduct " transform="translate(8 158)"  name="CCL3" ><rect   width="90" height="25"/><text   transform="translate(45,12.5)"    >CCL3</text></g><g id="d2d67" class="Protein" transform="translate(8,58)"  name="GM-CSF" ><rect   width="90" height="25"/><text   transform="translate(45,12.5)"    >GM-CSF</text></g><g id="b0a9b" class="GeneProduct " transform="translate(8,33)"  name="TNF" ><rect   width="90" height="25"/><text   transform="translate(45,12.5)"    >TNF</text></g><g id="e7f85" class="GeneProduct " transform="translate(8 133)"  name="CCL2" ><rect   width="90" height="25"/><text   transform="translate(45,12.5)"    >CCL2</text></g><g id="a0a57" class="Metabolite " transform="translate(8,83)"  name="CXCL8" ><rect   width="90" height="25"/><text   transform="translate(45,12.5)"    >CXCL8</text></g><g id="f7078" class="GeneProduct " transform="translate(8,8)"  name="IFNG" ><rect   width="90" height="25"/><text   transform="translate(45,12.5)"    >IFNG</text></g></g></g><g id="e31b9" class="GroupNone" transform="translate(519.26 1669.3)"  ><g class="GroupNone"><rect   width="195.77" height="74" fill-opacity=".1" stroke-dasharray="5,3" style="fill:#b4b464;stroke:grey"/><g id="b0d92" class="Label" transform="translate(9,9)"  name="Innate immune response" ><rect   width="177.77" height="25" rx="15" ry="15" stroke-dasharray="5,3" style="stroke:#14961e"/><text   transform="translate(88.88 12.5)"    font-weight="bold"  style="fill:#14961e">Innate immune response</text></g><g id="f9e2e" class="Label" transform="translate(9 40)"  name="Adaptive immune response" ><rect   width="177.77" height="25" rx="15" ry="15" stroke-dasharray="5,3" style="stroke:#14961e"/><text   transform="translate(88.88 12.5)"    font-weight="bold"  style="fill:#14961e">Adaptive immune response</text></g></g></g><g id="ee4f6" class="Protein" transform="translate(500.63 803.64)"  name="NCR3" ><rect   width="90" height="25"/><text   transform="translate(45,12.5)"    >NCR3</text></g><g id="db89a" class="Protein" transform="translate(608.76 805.35)"  name="CD226" ><rect   width="90" height="25"/><text   transform="translate(45,12.5)"    >CD226</text></g><g id="f6aa4" class="GeneProduct " transform="translate(473.64 1114.9)"  name="FOXO1" ><rect   width="90" height="25"/><text   transform="translate(45,12.5)"    >FOXO1</text></g><g id="a2263" class="Protein" transform="translate(743.59 805.35)"  name="CD96" ><rect   width="90" height="25"/><text   transform="translate(45,12.5)"    >CD96</text></g><g id="a40c1" class="Protein" transform="translate(1226.5 978.68)"  name="TIGIT" ><rect   width="90" height="25"/><text   transform="translate(45,12.5)"    >TIGIT</text></g><g id="af6ac" class="Protein" transform="translate(875.04 805.27)"  name="NCR1" ><rect   width="90" height="25"/><text   transform="translate(45,12.5)"    >NCR1</text></g><g id="cd3c9" class="Protein" transform="translate(1226.5 891.73)"  name="FCGR3A" ><rect   width="90" height="25"/><text   transform="translate(45,12.5)"    >FCGR3A</text></g><g id="d99e3" class="Protein" transform="translate(926.42 475.82)"  name="GZMB" ><rect   width="84.05" height="25" style="fill:transparent"/><text   transform="translate(42.03 12.5)"    >GZMB</text></g><g id="efc10" class="Protein" transform="translate(923.4 532.69)"  name="PRF1" ><rect   width="90" height="25"/><text   transform="translate(45,12.5)"    >PRF1</text></g></g></g></g></svg>