<?xml version="1.0" encoding="UTF-8"?>
<svg xmlns="http://www.w3.org/2000/svg" id="-svg" class="Diagram"  baseProfile="full" prefix="schema:http://schema.org/" preserveAspectRatio="xMidYMid"  version="1.1"><defs><g id="icon-defs"/><g id="marker-defs"><marker id="memstimulation000" markerHeight="12" markerWidth="12" orient="auto" preserveAspectRatio="none" refX="12" refY="6" viewBox="0 0 12 12"><g id="g-memstimulation000" transform=""><g transform="rotate(180 6 6)"><rect y="5.4" width="2" height="1.2" style="stroke:none"/><line x1="12" x2="12" y1="6" y2="6" fill="none"/><polygon points="0 6 11 11 11 1" fill="#fff" stroke="#000"/></g></g></marker><marker id="meminhibition000" markerHeight="20" markerWidth="10" orient="auto" preserveAspectRatio="none" refX="10" refY="10" viewBox="0 0 10 20"><g id="g-meminhibition000" transform=""><g transform="rotate(180 5 10)"><rect y="9" width="8" height="2" style="stroke:none"/><line x="0" y="0" width="12" height="12" x1="7" x2="7" y2="20" stroke="#000" stroke-width="1.8"/></g></g></marker><marker id="memconversion000" markerHeight="12" markerWidth="12" orient="auto" preserveAspectRatio="none" refX="12" refY="6" viewBox="0 0 12 12"><g id="g-memconversion000" transform=""><g transform="rotate(180 6 6)"><rect y="5.4" width="2" height="1.2" style="stroke:#fff"/><polygon points="12 11 0 6 12 1" stroke-width="0"/></g></g></marker><marker id="memcatalysis000" markerHeight="12" markerWidth="12" orient="auto" preserveAspectRatio="none" refX="12" refY="6" viewBox="0 0 12 12"><g id="g-memcatalysis000" transform=""><g transform="rotate(180 6 6)"><circle cx="6" cy="6" r="5.3px" fill="#fff" stroke="#000"/></g></g></marker></g></defs><g id="viewport-20220102145055136" class="svg-pan-zoom_viewport" transform="matrix(0.97 0 0 0.97 133.7 0)" style="transform:matrix(0.97, 0, 0, 0.97, 133.70, 0)"><style>svg.Diagram {font-family: 'Liberation Sans', Arial, sans-serif; }.Diagram path {fill: transparent;stroke: #000;marker-end: url(#mea);}.Diagram symbol path {fill: inherit;stroke: inherit;stroke-width: inherit;marker-end: inherit;}.Diagram rect {fill: #fff;stroke: #000;}.Diagram text {dominant-baseline: central;overflow: hidden;text-anchor: middle;fill: #000;font-size: 12px;}</style><style type="text/css">.Viewport .textContent {
  pointer-events: none;
  stroke-width: 0px;
}

					.Viewport.Icon {
  fill: white;
}

/* Hide the InfoBox */
.Viewport.textContent {
  font-size: 0;
}

.textContent {
  stroke: none;
}

.DataNode {
  stroke-miterlimit: 1;
  pointer-events: auto;
}

.DataNode:hover {
  cursor: pointer;
}

/* TODO should this apply to things other than DataNodes? */
.DataNode.textContent {
  pointer-events: none;
}

.DataNode.Highlighted {
  opacity: 0.6;
  stroke-width: 0px;
}

marker {
  /* this is what should work per the spec
  stroke-dasharray: none; */
  /* but I need to add this to make it work in Safari */
  stroke-dasharray: 9999999999999999999999999;
}

.Citation.Icon {
  fill: none;
  stroke-width: 0px;
}

.Citation.textContent {
  text-align: center;
  vertical-align: top;
  font-size: 7px;
  fill: #999;
  fill-opacity: 1;
  stroke: none;
}</style><g id="WP5049" class="Pathway http___identifiers_org_pw_PW_0000002 http___identifiers_org_pw_PW_0000640 http___identifiers_org_pw_PW_0000277 Viewport"  name="Name: Glycolysis in senescence Organism: Homo sapiens" ><g class="Pathway http___identifiers_org_pw_PW_0000002 http___identifiers_org_pw_PW_0000640 http___identifiers_org_pw_PW_0000277 Viewport"><rect   width="962" height="736.5" style="stroke:none"/><g id="id23dabe04" class="Edge"  ><path    d="m666.05 135.02-22.85 54.23" style="marker-end:url(#meminhibition000)"/></g><g id="id33f434e2" class="Edge"  ><path    d="m216.67 382.67 55.33-7e-14" style="marker-end:url(#memstimulation000)"/><g id="ac30a" class="AB" transform="translate(238.8 382.67)"  ><g class="AB"/></g></g><g id="id2df00515" class="Edge"  ><path    d="m226.29 459.5 12.51-76.83" style="marker-end:url(#memstimulation000)"/></g><g id="id4f623340" class="Edge"  ><path    d="m431 213.04-6 54.82" style="marker-end:url(#memstimulation000)"/></g><g id="id5c826e48" class="Edge"  ><path    d="m598.21 214.26-128.21 60.63" style="marker-end:url(#memstimulation000)"/></g><g id="id6374e7d2" class="Edge"  ><path    d="m585.76 300 29.43 26.72" style="marker-end:url(#memstimulation000)"/></g><g id="id645370fd" class="Edge"  ><path    d="m303 213.04-65.25 49.96" style="marker-end:url(#memstimulation000)"/></g><g id="id6b6f8778" class="Edge"  ><path    d="m859.05 280.15h-59.80" style="marker-end:url(#memstimulation000)"/></g><g id="id76d7a948" class="Edge"  ><path    d="m339.5 370.17 63-74.17" style="marker-end:url(#memstimulation000)"/></g><g id="id8aa7fc3c" class="Edge"  ><path    d="m409.26 129.42-0.76 58.62" style="marker-end:url(#memstimulation000)"/></g><g id="id90563751" class="Edge"  ><path    d="m433.97 523.21-0.67 34.83" style="marker-end:url(#memstimulation000)"/></g><g id="id97bd60f7" class="Edge"  ><path    d="m433.97 419.55v78.67" style="marker-end:url(#memstimulation000)"/><g id="cc106" class="AB" transform="translate(433.97 453.14)"  ><g class="AB"/></g></g><g id="ida11007f2" class="Edge"  ><path    d="m194.17 370.17 185.83-81.20" style="marker-end:url(#meminhibition000)"/></g><g id="idb1361b6a" class="Edge"  ><path    d="m258 200.54-65.6 3e-14" style="marker-end:url(#memstimulation000)"/></g><g id="idb5c45560" class="Edge"  ><path    d="m540.76 281-70.76 0.93" style="marker-end:url(#memstimulation000)"/></g><g id="idc06f55e9" class="Edge"  ><path    d="m380 281.93-127-1.68" style="marker-end:url(#memstimulation000)"/></g><g id="idcec5738b" class="Edge"  ><path    d="m709.25 280.15-78.49 0.85" style="marker-end:url(#memstimulation000)"/></g><g id="iddb020e33" class="Edge"  ><path    d="m264.37 142.5 16.12 45.54" style="marker-end:url(#memstimulation000)"/></g><g id="idf23f7c2e" class="Edge"  ><path    d="m476.31 453.58-42.33-0.43" style="marker-end:url(#memcatalysis000)"/></g><g id="idf42f8c44" class="Edge"  ><path    d="m350.29 129.42-24.79 58.62" style="marker-end:url(#memstimulation000)"/></g><g id="idf7565361" class="Edge"  ><path    d="m425 296 8.97 98.55" style="marker-end:url(#memstimulation000)"/><g id="c8b76" class="AB" transform="translate(431.37 365.99)"  ><g class="AB"/></g></g><g id="id12fe59a5" class="Edge"  ><path    d="m325.5 213.04 105.87 152.96" style="marker-end:url(#memstimulation000)"/></g><g id="idfb610b4b" class="Edge"  ><path    d="m470 288.96 70.76 1.54" style="marker-end:url(#memstimulation000)"/></g><g id="idfe7953d2" class="Edge"  ><path    d="m550.45 180.53-102.95 87.32" style="marker-end:url(#memstimulation000)"/></g><g id="id145d1ef1" class="Edge"  ><path    d="m737.63 460.85 43.09-1.41" style="marker-end:url(#memstimulation000)"/></g><g id="id919b909b" class="Edge"  ><path    d="m447.5 296 184.13 164.85" style="marker-end:url(#memstimulation000)"/></g><g id="id8f8fca56" class="Edge"  ><path    d="m433.31 596.05-1.28 52.75" style="marker-end:url(#memstimulation000)"/></g><g id="id9d70a75f" class="Edge"  ><path    d="m580.84 528.21-101.86-17.50" style="marker-end:url(#memconversion000)"/><g id="b6c1c" class="AB" transform="translate(540.09 521.21)"  ><g class="AB"/></g></g><g id="id281cddcb" class="Edge"  ><path    d="m679.31 646.62-139.22-125.41" style="marker-end:url(#memstimulation000)"/></g><g id="c43fb" class="" transform="translate(300 650.67)"  ><g class=""><rect   width="285.33" height="50.67" rx="15" ry="15" style="fill:transparent"/></g></g><g id="a93ae" class="Label" transform="translate(62.2 188.04)"  name="Oxygen consumption rate" ><g class="Label"/><text   transform="translate(65.1 12.5)"    font-weight="bold" ><tspan   x="0" y="-6.60">Oxygen consumption</tspan><tspan   x="0" y="6.60">rate</tspan></text></g><g id="aba1a" class="Label" transform="translate(555.2 326.72)"  name="Inflammatory signaling cascade" ><g class="Label"/><text   transform="translate(59.98 24.01)"    font-weight="bold" ><tspan   x="0" y="-6.60">Inflammatory</tspan><tspan   x="0" y="6.60">signaling cascade</tspan></text></g><g id="b5d51" class="Label" transform="translate(859.05 267.65)"  name="Irradiation" ><g class="Label"/><text   transform="translate(36.47 12.5)"    font-weight="bold" >Irradiation</text></g><g id="d0da2" class="Label" transform="translate(370.81 558.05)"  name="Acidification of cellular environment" ><g class="Label"/><text   transform="translate(62.5 19.00)"    font-weight="bold" ><tspan   x="0" y="-6.60">Acidification of</tspan><tspan   x="0" y="6.60">cellular environment</tspan></text></g><g id="ef78d" class="Label" transform="translate(219.37 108)"  name="Replicative senescence" ><g class="Label"/><text   transform="translate(45 17.25)"    font-weight="bold" ><tspan   x="0" y="-6.60">Replicative</tspan><tspan   x="0" y="6.60">senescence</tspan></text></g><g id="f045b" class="Label" transform="translate(194.99 459.5)"  name="Stress" ><g class="Label"/><text   transform="translate(31.3 14.25)"    font-weight="bold" >Stress</text></g><g id="a4025" class="GroupGroup" transform="translate(780.72 422.67)"  ><g class="GroupGroup"><g id="b0bb7" class="Label" transform="translate(8 8)"  name="Cell enlargement" ><g class="Label"/><text   transform="translate(45 16.28)"    font-weight="bold" ><tspan   x="0" y="-6.60">Cell</tspan><tspan   x="0" y="6.60">enlargement</tspan></text></g><g id="c538e" class="Pathway" transform="translate(8 40.55)"  name="SASP" ><g class="Pathway"><rect   width="90" height="25" rx="15" ry="15" style="stroke:#14961e"/></g><g ><defs><clipPath ><rect x="-45" y="-12.5" width="90" height="25" style="stroke:none"/></clipPath></defs><text   transform="translate(45,12.5)"    font-weight="bold"  style="fill:#14961e">SASP</text></g></g></g></g><g id="e7c02" class="GroupGroup" transform="translate(272.31 648.8)"  ><g class="GroupGroup"><g id="c46fe" class="Label" transform="translate(8 11.30)"  name="Wound healing" ><g class="Label"/><text   transform="translate(51 17.63)"    font-weight="bold" ><tspan   x="0" y="-6.60">Wound</tspan><tspan   x="0" y="6.60">healing</tspan></text></g><g id="d10b7" class="Label" transform="translate(209.45 8)"  name="Tumorigenesis" ><g class="Label"/><text   transform="translate(51 17.10)"    font-weight="bold" >Tumorigenesis</text></g><g id="e0cc1" class="Label" transform="translate(110 8.15)"  name="Evading immune response" ><g class="Label"/><text   transform="translate(51 20.78)"    font-weight="bold" ><tspan   x="0" y="-6.60">Evading immune</tspan><tspan   x="0" y="6.60">response</tspan></text></g></g></g><g id="a66ac" class="Pathway" transform="translate(627.6 102.67)"  name="Oxidative stress" ><g class="Pathway"><rect   width="76.91" height="32.36" rx="15" ry="15" style="stroke:#14961e"/></g><g ><defs><clipPath ><rect x="-38.45" y="-16.18" width="76.91" height="32.36" style="stroke:none"/></clipPath></defs><text   transform="translate(38.45 16.18)"    font-weight="bold"  style="fill:#14961e"><tspan   x="0" y="-6.60">Oxidative</tspan><tspan   x="0" y="6.60">stress</tspan></text></g></g><g id="b2b89" class="Metabolite " transform="translate(388.97 498.21)"  name="Lactate" ><rect   width="90" height="25" style="stroke:#00f"/><text   transform="translate(45,12.5)"     style="fill:#00f">Lactate</text></g><g id="b4b0b" class="GeneProduct " transform="translate(386 188.04)"  name="RB1" ><rect   width="90" height="25"/><text   transform="translate(45,12.5)"    >RB1</text></g><g id="b522a" class="Pathway" transform="translate(648.42 646.62)"  name="Oncogene induced senescence" ><g class="Pathway"><rect   width="123.58" height="38.05" rx="15" ry="15" style="stroke:#14961e"/></g><g ><defs><clipPath ><rect x="-61.79" y="-19.02" width="123.58" height="38.05" style="stroke:none"/></clipPath></defs><text   transform="translate(61.79 19.02)"    font-weight="bold"  style="fill:#14961e"><tspan   x="0" y="-6.60">Oncogene induced</tspan><tspan   x="0" y="6.60">senescence</tspan></text></g></g><g id="b59f6" class="Metabolite " transform="translate(388.97 394.55)"  name="Pyruvate" ><rect   width="90" height="25" style="stroke:#00f"/><text   transform="translate(45,12.5)"     style="fill:#00f">Pyruvate</text></g><g id="c12d5" class="Pathway" transform="translate(192,263)"  name="TCA cycle" ><g class="Pathway"><rect   width="61" height="34.5" rx="15" ry="15" style="stroke:#14961e"/></g><g ><defs><clipPath ><rect x="-30.5" y="-17.25" width="61" height="34.5" style="stroke:none"/></clipPath></defs><text   transform="translate(30.5,17.25)"    font-weight="bold"  style="fill:#14961e"><tspan   x="0" y="-6.60">TCA</tspan><tspan   x="0" y="6.60">cycle</tspan></text></g></g><g id="c3fc5" class="GeneProduct " transform="translate(272 370.17)"  name="G6PD" ><rect   width="90" height="25"/><text   transform="translate(45,12.5)"    >G6PD</text></g><g id="c41bb" class="GeneProduct " transform="translate(476.31 441.08)"  name="LDHA" ><rect   width="90" height="25"/><text   transform="translate(45,12.5)"    >LDHA</text></g><g id="ce50b" class="Pathway" transform="translate(320.81 94)"  name="Oncogene induced senescence" ><g class="Pathway"><rect   width="117.93" height="35.42" rx="15" ry="15" style="stroke:#14961e"/></g><g ><defs><clipPath ><rect x="-58.97" y="-17.71" width="117.93" height="35.42" style="stroke:none"/></clipPath></defs><text   transform="translate(58.97 17.71)"    font-weight="bold"  style="fill:#14961e"><tspan   x="0" y="-6.60">Oncogene induced</tspan><tspan   x="0" y="6.60">senescence</tspan></text></g></g><g id="d6e7c" class="Pathway" transform="translate(540.76 262)"  name="NF-kB signaling" ><g class="Pathway"><rect   width="90" height="38" rx="15" ry="15" style="stroke:#14961e"/></g><g ><defs><clipPath ><rect x="-45" y="-19" width="90" height="38" style="stroke:none"/></clipPath></defs><text   transform="translate(45,19)"    font-weight="bold"  style="fill:#14961e"><tspan   x="0" y="-6.60">NF-kB</tspan><tspan   x="0" y="6.60">signaling</tspan></text></g></g><g id="e5226" class="Pathway" transform="translate(380 267.85)"  name="Glycolysis" ><g class="Pathway"><rect   width="90" height="28.15" rx="15" ry="15" style="stroke:#14961e"/></g><g ><defs><clipPath ><rect x="-45" y="-14.07" width="90" height="28.15" style="stroke:none"/></clipPath></defs><text   transform="translate(45 14.07)"    font-weight="bold"  style="fill:#14961e">Glycolysis</text></g></g><g id="e5486" class="Protein" transform="translate(709.25 267.65)"  name="AMPK" ><rect   width="90" height="25"/><text   transform="translate(45,12.5)"    >AMPK</text></g><g id="e982a" class="GeneProduct " transform="translate(126.67 370.17)"  name="TP53" ><rect   width="90" height="25"/><text   transform="translate(45,12.5)"    >TP53</text></g><g id="e9884" class="GeneProduct " transform="translate(575.71 189.26)"  name="GAPDH" ><rect   width="90" height="25"/><text   transform="translate(45,12.5)"    >GAPDH</text></g><g id="f39fc" class="GeneProduct " transform="translate(258 188.04)"  name="PKM" ><rect   width="90" height="25"/><text   transform="translate(45,12.5)"    >PKM</text></g><g id="a9eaa" class="GroupGroup" transform="translate(497.45 14.53)"  ><g class="GroupGroup"><g id="a4df1" class="Protein" transform="translate(8 33)"  name="Enolase" ><rect   width="90" height="25"/><text   transform="translate(45,12.5)"    >Enolase</text></g><g id="ac914" class="Protein" transform="translate(8 83)"  name="Aldolase" ><rect   width="90" height="25"/><text   transform="translate(45,12.5)"    >Aldolase</text></g><g id="bfd61" class="Protein" transform="translate(8 58)"  name="Hexokinase" ><rect   width="90" height="25"/><text   transform="translate(45,12.5)"    >Hexokinase</text></g><g id="cf432" class="Metabolite " transform="translate(8 133)"  name="PGM" ><rect   width="90" height="25"/><text   transform="translate(45,12.5)"    >PGM</text></g><g id="e823d" class="GeneProduct " transform="translate(8 108)"  name="PGK1" ><rect   width="90" height="25"/><text   transform="translate(45,12.5)"    >PGK1</text></g><g id="f8ac6" class="Protein" transform="translate(8 8)"  name="Pyruvate kinase" ><rect   width="90" height="25"/><text   transform="translate(45,12.5)"    >Pyruvate kinase</text></g></g></g><g id="d5e2a" class="GroupGroup" transform="translate(631.63 427.85)"  ><g class="GroupGroup"><g id="d29a2" class="Metabolite " transform="translate(8 33)"  name="Lipids" ><rect   width="90" height="25" style="stroke:#00f"/><text   transform="translate(45,12.5)"     style="fill:#00f">Lipids</text></g><g id="f8e1a" class="Metabolite " transform="translate(8,8)"  name="Proteins" ><rect   width="90" height="25" style="stroke:#00f"/><text   transform="translate(45,12.5)"     style="fill:#00f">Proteins</text></g></g></g><g id="f7b72" class="GroupGroup" transform="translate(580.84 495.21)"  ><g class="GroupGroup"><g id="bdca7" class="Metabolite " transform="translate(8 33)"  name="Glutamine" ><rect   width="90" height="25" style="stroke:#00f"/><text   transform="translate(45,12.5)"     style="fill:#00f">Glutamine</text></g><g id="d545c" class="Metabolite " transform="translate(8,8)"  name="Serine" ><rect   width="90" height="25" style="stroke:#00f"/><text   transform="translate(45,12.5)"     style="fill:#00f">Serine</text></g></g></g><g id="id36c03769" class="Edge"  ><path    d="m325.5 213.04 85.97 285.18" style="marker-end:url(#memstimulation000)"/></g></g></g></g></svg>