<?xml version="1.0" encoding="UTF-8"?>
<svg xmlns="http://www.w3.org/2000/svg" id="-svg" class="Diagram"  baseProfile="full" prefix="schema:http://schema.org/" preserveAspectRatio="xMidYMid"  version="1.1"><defs><g id="icon-defs"><symbol id="HexagonPathVisio" class=" Icon HexagonPathVisio" x="0" y="8" overflow="visible" preserveAspectRatio="none" viewBox="0 8 100 86"><desc>HexagonPathVisio</desc><g transform="scale(1 0.85)"><path d="m1.42 51.00 21.07-42.14h56.19l21.07 42.14-21.07 42.15h-56.19l-21.07-42.15z" stroke="currentColor" vector-effect="non-scaling-stroke"/></g></symbol><symbol id="Octagon" class=" Icon Octagon" x="0" y="0" overflow="visible" preserveAspectRatio="none" viewBox="0 0 100 100"><desc>Octagon</desc><path d="m0 25 25-25h50l25 25v50l-25 25h-50l-25-25z" vector-effect="non-scaling-stroke"/></symbol></g><g id="marker-defs"><marker id="memcatalysis000" markerHeight="12" markerWidth="12" orient="auto" preserveAspectRatio="none" refX="12" refY="6" viewBox="0 0 12 12"><g id="g-memcatalysis000" transform=""><g transform="rotate(180 6 6)"><circle cx="6" cy="6" r="5.3px" fill="#fff" stroke="#000"/></g></g></marker><marker id="mea" markerHeight="12" markerWidth="12" orient="auto" preserveAspectRatio="none" refX="12" refY="6" viewBox="0 0 12 12"><g id="g-mea" transform=""><g transform="rotate(180 6 6)"><rect y="5.4" width="2" height="1.2" style="stroke:#fff"/><polygon points="12 11 0 6 12 1" stroke-width="0"/></g></g></marker></g></defs><g id="viewport-20220102144914706" class="svg-pan-zoom_viewport" transform="matrix(0.52 0 0 0.52 179.28 0)" style="transform:matrix(0.52, 0, 0, 0.52, 179.28, 0)"><style>svg.Diagram {font-family: 'Liberation Sans', Arial, sans-serif; }.Diagram path {fill: transparent;stroke: #000;marker-end: url(#mea);}.Diagram symbol path {fill: inherit;stroke: inherit;stroke-width: inherit;marker-end: inherit;}.Diagram rect {fill: #fff;stroke: #000;}.Diagram text {dominant-baseline: central;overflow: hidden;text-anchor: middle;fill: #000;font-size: 10px;}</style><style type="text/css">.Viewport .textContent {
  pointer-events: none;
  stroke-width: 0px;
}

					.Viewport.Icon {
  fill: white;
}

/* Hide the InfoBox */
.Viewport.textContent {
  font-size: 0;
}

.textContent {
  stroke: none;
}

.DataNode {
  stroke-miterlimit: 1;
  pointer-events: auto;
}

.DataNode:hover {
  cursor: pointer;
}

/* TODO should this apply to things other than DataNodes? */
.DataNode.textContent {
  pointer-events: none;
}

.DataNode.Highlighted {
  opacity: 0.6;
  stroke-width: 0px;
}

marker {
  /* this is what should work per the spec
  stroke-dasharray: none; */
  /* but I need to add this to make it work in Safari */
  stroke-dasharray: 9999999999999999999999999;
}

.Citation.Icon {
  fill: none;
  stroke-width: 0px;
}

.Citation.textContent {
  text-align: center;
  vertical-align: top;
  font-size: 7px;
  fill: #999;
  fill-opacity: 1;
  stroke: none;
}</style><g id="WP5005" class="Pathway http___identifiers_org_pw_PW_0001047 Viewport"  name="Name: WNT5:FZD7-mediated leishmania damping Organism: Homo sapiens" ><g class="Pathway http___identifiers_org_pw_PW_0001047 Viewport"><rect   width="1620" height="1288" style="stroke:none"/><g id="a7a90" class="Reactome_R-HSA-9673346"  ><path    d="m561 124h115" style="marker-end:none"/><g id="d532d" class="AB" transform="translate(561,124)"  ><g class="AB"/></g><g id="ca5f7" class="AB" transform="translate(674.85 124)"  ><g class="AB"/></g><g id="d3d74" class="AB" transform="translate(618.5,124)"  ><g class="AB"/></g></g><g id="b201a" class="Reactome_R-HSA-9673296"  ><path    d="m318 125h81" style="marker-end:none"/><g id="ba923" class="AB" transform="translate(318,125)"  ><g class="AB"/></g><g id="e08aa" class="AB" transform="translate(398.19,125)"  ><g class="AB"/></g></g><g id="b324f" class="Reactome_R-HSA-9673346"  ><path    d="m532 174 29-50" style="marker-end:none"/></g><g id="b67ab" class="Reactome_R-HSA-9673349"  ><path    d="m140 127 30-1" style="marker-end:none"/><g id="dc01d" class="AB" transform="translate(140,127)"  ><g class="AB"/></g><g id="e81e3" class="AB" transform="translate(169.7 126.01)"  ><g class="AB"/></g></g><g id="a03eb" class="Reactome_R-HSA-9673349"  ><path    d="m93 73 47 54" style="marker-end:none"/></g><g id="b8f7a" class="Reactome_R-HSA-9673322"  ><path    d="m1108 265-647 91" style="marker-end:none"/><g id="efc95" class="AB" transform="translate(1108,265)"  ><g class="AB"/></g><g id="f7e90" class="AB" transform="translate(467.47 355.09)"  ><g class="AB"/></g></g><g id="c01a1" class="Reactome_R-HSA-9673296"  ><path    d="m282 196 36-71" style="marker-end:none"/></g><g id="c20cf" class="Reactome_R-HSA-9673288"  ><path    d="m941 183 113-37" style="marker-end:none"/><g id="e6ab8" class="AB" transform="translate(941,183)"  ><g class="AB"/></g><g id="a53f2" class="AB" transform="translate(1052.9 146.37)"  ><g class="AB"/></g></g><g id="a8776" class="Reactome_R-HSA-9673288"  ><path    d="m1054 146 3-16"/></g><g id="c7a96" class="Reactome_R-HSA-9673346"  ><path    d="m676 124 50 54"/></g><g id="c8e35" class="Reactome_R-HSA-9673346"  ><path    d="m676 124h58"/></g><g id="c8fb1" class="Reactome_R-HSA-9673296"  ><path    d="m399 125 3 1"/></g><g id="cf210" class="Reactome_R-HSA-9673288"  ><path    d="m862 124 79 59" style="marker-end:none"/></g><g id="d9b4d" class="Reactome_R-HSA-9673322"  ><path    d="m1109 262-1 3" style="marker-end:none"/></g><g id="e47a6" class="Reactome_R-HSA-9673794"  ><path    d="m1198 148 119-12" style="marker-end:none"/><g id="fbcc3" class="AB" transform="translate(1198,148)"  ><g class="AB"/></g><g id="e71a7" class="AB" transform="translate(1315.8 136.12)"  ><g class="AB"/></g></g><g id="cf38f" class="Reactome_R-HSA-9673794"  ><path    d="m1185 122 13 26" style="marker-end:none"/></g><g id="a866d" class="Reactome_R-HSA-9673794"  ><path    d="m1317 136 3-5"/></g><g id="e6ebf" class="Reactome_R-HSA-9673284"  ><path    d="m950 250h75" style="marker-end:none"/><g id="ab96d" class="AB" transform="translate(950,250)"  ><g class="AB"/></g><g id="c4677" class="AB" transform="translate(1024.2 250)"  ><g class="AB"/></g><g id="d07b7" class="AB" transform="translate(987.5,250)"  ><g class="AB"/></g></g><g id="cfe76" class="Reactome_R-HSA-9673284"  ><path    d="m910 251 40-1" style="marker-end:none"/></g><g id="d7413" class="Reactome_R-HSA-9673284"  ><path    d="m928 278 22-28" style="marker-end:none"/></g><g id="c7780" class="Reactome_R-HSA-9673284"  ><path    d="m1025 250 39 1"/></g><g id="cce2d" class="Reactome_R-HSA-9673284"  ><path    d="m1025 250 22 33"/></g><g id="a2934" class="Reactome_R-HSA-9673284"  ><path    d="m1057 130-70 120" style="marker-end:url(#memcatalysis000)"/></g><g id="e7390" class="Reactome_R-HSA-9673349"  ><path    d="m170 126h3"/></g><g id="e7712" class="Reactome_R-HSA-9673346"  ><path    d="m522 126 39-2" style="marker-end:none"/></g><g id="ec8e0" class="Reactome_R-HSA-9673349"  ><path    d="m98 128 42-1" style="marker-end:none"/></g><g id="f1ce5" class="Reactome_R-HSA-9673789"  ><path    d="m394 443h53" style="marker-end:none"/><g id="b9b5c" class="AB" transform="translate(394,443)"  ><g class="AB"/></g><g id="d8ffe" class="AB" transform="translate(446.47 443)"  ><g class="AB"/></g><g id="dbcbf" class="AB" transform="translate(420.5,443)"  ><g class="AB"/></g></g><g id="f1168" class="Reactome_R-HSA-9673789"  ><path    d="m353 409 41 34" style="marker-end:none"/></g><g id="e13f2" class="Reactome_R-HSA-9673789"  ><path    d="m447 443 69-53"/></g><g id="cc2b3" class="Reactome_R-HSA-9673789"  ><path    d="m412 367 2 76" style="marker-end:url(#memcatalysis000)"/></g><g id="f5f7f" class="Reactome_R-HSA-9673789"  ><path    d="m447 443 115 12"/></g><g id="f7cc6" class="Reactome_R-HSA-9673797"  ><path    d="m1503 230v79" style="marker-end:none"/><g id="fdf2d" class="AB" transform="translate(1503,230)"  ><g class="AB"/></g><g id="cae40" class="AB" transform="translate(1503,308.21)"  ><g class="AB"/></g><g id="a9e51" class="AB" transform="translate(1503,269.5)"  ><g class="AB"/></g></g><g id="b6d16" class="Reactome_R-HSA-9673797"  ><path    d="m1484 189 19 41" style="marker-end:none"/></g><g id="c7fce" class="Reactome_R-HSA-9673797"  ><path    d="m1546 191-43 39" style="marker-end:none"/></g><g id="c1d7d" class="Reactome_R-HSA-9673797"  ><path    d="m1503 309-34 46"/></g><g id="c64d5" class="Reactome_R-HSA-9673797"  ><path    d="m1503 309 42 40"/></g><g id="e1c16" class="Reactome_R-HSA-9673797"  ><path    d="m1503 309-101 26"/></g><g id="b20b6" class="Reactome_R-HSA-9673797"  ><path    d="m1442 131 61 146" style="marker-end:url(#memcatalysis000)"/></g><g id="f8a07" class="Reactome_R-HSA-9673322"  ><path    d="m461 356h-4"/></g><g id="f96de" class="Reactome_R-HSA-9673296"  ><path    d="m251 126 67-1" style="marker-end:none"/></g><g id="fa6a0" class="Reactome_R-HSA-9673789"  ><path    d="m363 483 31-40" style="marker-end:none"/></g><g id="fb773" class="Reactome_R-HSA-9673288"  ><path    d="m914 139 27 44" style="marker-end:none"/></g><g id="fc133" class="Reactome_R-HSA-9673346"  ><path    d="m576 205 50-81" style="marker-end:url(#memcatalysis000)"/></g><g id="fdd35" class="Reactome_R-HSA-9673794"  ><path    d="m1161 130 37 18" style="marker-end:none"/></g><g id="a6246" class="GroupGroup" transform="translate(283,271)"  ><g class="GroupGroup"><g id="e98f9" class="" transform="translate(8,8)"  ><g class=""><rect   transform="matrix(0.99 0 0 0.99 1.49 1.48)" width="368" height="241" rx="15" ry="15" stroke-width="3" style="fill:transparent;stroke:#c0c0c0"/></g></g><g id="b0d0e" class="Label" transform="translate(290,204)"  name="nucleolus" ><g class="Label"/><text   transform="translate(40,16.5)"    >nucleolus</text></g></g></g><g id="ff469" class="GroupGroup" transform="translate(41,99)"  ><g class="GroupGroup"><g id="f454d" class="" transform="translate(8,8)"  ><g class=""><rect   transform="matrix(1.00 0 0 0.99 1.50 1.49)" width="1459" height="453" rx="15" ry="15" stroke-width="3" style="fill:transparent;stroke:#c0c0c0"/></g></g><g id="f2e6b" class="Label" transform="translate(45,133)"  name="cytosol" ><g class="Label"/><text   transform="translate(32,16.5)"    >cytosol</text></g></g></g><g id="fbbf9" class="Label" transform="translate(71,219)"  name="Macrophage" ><g class="Label"/><text   transform="translate(48,14.5)"    >Macrophage</text></g><g id="a3a48" class="Metabolite " transform="translate(1426,174)"  name="NADPH" ><rect   width="59" height="30" style="stroke:#00f"/><text   transform="translate(29.5,15)"     style="fill:#00f">NADPH</text></g><g id="a3d6d" class="Metabolite " transform="translate(1409,340)"  name="NADP+" ><rect   width="60" height="30" style="stroke:#00f"/><text   transform="translate(30,15)"     style="fill:#00f">NADP+</text></g><g id="a5df7" class="Protein" transform="translate(367,345)"  name="p-T,Y-MAPK8" ><rect   width="91" height="22"/><text   transform="translate(45.5,11)"    >p-T,Y-MAPK8</text></g><g id="ac212" class="Protein" transform="translate(60,117)"  name="FZD7" ><rect   width="39" height="22"/><text   transform="translate(19.5,11)"    >FZD7</text></g><g id="b185a" class="Complex Reactome_R-HSA-3858479" transform="translate(236,185)"  name="p-DVL" ><g class="Complex Reactome_R-HSA-3858479"><rect   width="47" height="22" rx="15" ry="15" style="stroke:#a52a2a"/></g><g ><defs><clipPath ><rect x="-23.5" y="-11" width="47" height="22" style="stroke:none"/></clipPath></defs><text   transform="translate(23.5,11)"     style="fill:#a52a2a">p-DVL</text></g></g><g id="b2284" class="Metabolite " transform="translate(512,174)"  name="ATP" ><rect   width="40" height="30" style="stroke:#00f"/><text   transform="translate(20,15)"     style="fill:#00f">ATP</text></g><g id="b3b6d" class="Complex Reactome_R-HSA-9673791" transform="translate(1320,109)"  name="NOX1 complex:WNT5:FZD7:pp-DVL:RAC1:GTP" ><g class="Complex Reactome_R-HSA-9673791"><use class="Complex Reactome_R-HSA-9673791 Node Icon" width="123" height="44" fill="#fff" stroke="#a52a2a" href="#HexagonPathVisio"/></g><g ><defs><clipPath ><rect x="-61.5" y="-22" width="123" height="44" style="stroke:none"/></clipPath></defs><text   transform="translate(61.5,22)"     style="fill:#a52a2a"><tspan   x="0" y="-5.5">NOX1</tspan><tspan   x="0" y="5.5">complex:WNT5:FZD7:pp-DVL:RAC1:GTP</tspan></text></g></g><g id="baef7" class="Complex Reactome_R-HSA-5668698" transform="translate(1185,111)"  name="NOX1 Complex" ><g class="Complex Reactome_R-HSA-5668698"><use class="Complex Reactome_R-HSA-5668698 Node Icon" width="98" height="22" fill="#fff" stroke="#a52a2a" href="#HexagonPathVisio"/></g><g ><defs><clipPath ><rect x="-49" y="-11" width="98" height="22" style="stroke:none"/></clipPath></defs><text   transform="translate(49,11)"     style="fill:#a52a2a">NOX1 Complex</text></g></g><g id="bed43" class="Metabolite " transform="translate(706,178)"  name="ADP" ><rect   width="41" height="30" style="stroke:#00f"/><text   transform="translate(20.5,15)"     style="fill:#00f">ADP</text></g><g id="c24d4" class="Unknown Reactome_R-HSA-451336" transform="translate(576,194)"  name="unknown kinase" ><rect   width="101" height="22"/><text   transform="translate(50.5,11)"    >unknown kinase</text></g><g id="c26b5" class="Complex Reactome_R-HSA-9675729" transform="translate(1057,112)"  name="WNT5:FZD7:pp-DVL:RAC1:GTP" ><g class="Complex Reactome_R-HSA-9675729"><use class="Complex Reactome_R-HSA-9675729 Node Icon" width="105" height="36" fill="#fff" stroke="#a52a2a" href="#HexagonPathVisio"/></g><g ><defs><clipPath ><rect x="-52.5" y="-18" width="105" height="36" style="stroke:none"/></clipPath></defs><text   transform="translate(52.5,18)"     style="fill:#a52a2a">WNT5:FZD7:pp-DVL:RAC1:GTP</text></g></g><g id="c580c" class="Metabolite " transform="translate(562,440)"  name="ADP" ><rect   width="41" height="30" style="stroke:#00f"/><text   transform="translate(20.5,15)"     style="fill:#00f">ADP</text></g><g id="c6b2d" class="Protein" transform="translate(860,240)"  name="MAPK8" ><rect   width="50" height="22"/><text   transform="translate(25,11)"    >MAPK8</text></g><g id="c81a9" class="Protein" transform="translate(516,379)"  name="p-S63,S73-JUN" ><rect   width="100" height="22"/><text   transform="translate(50,11)"    >p-S63,S73-JUN</text></g><g id="cc4dc" class="Protein" transform="translate(32,37)"  name="N4GlycoAsn-PalmS WNT5A(36-380)" ><rect   width="123" height="36"/><text   transform="translate(61.5,18)"    ><tspan   x="0" y="-5.5">N4GlycoAsn-PalmS</tspan><tspan   x="0" y="5.5">WNT5A(36-380)</tspan></text></g><g id="cdfe8" class="Metabolite " transform="translate(1546,176)"  name="O2" ><rect   width="34" height="30" style="stroke:#00f"/><text   transform="translate(17,15)"     style="fill:#00f">O2</text></g><g id="cf979" class="Complex Reactome_R-HSA-9673343" transform="translate(734,113)"  name="WNT5:FZD7:pp-DVL" ><g class="Complex Reactome_R-HSA-9673343"><use class="Complex Reactome_R-HSA-9673343 Node Icon" width="128" height="22" fill="#fff" stroke="#a52a2a" href="#HexagonPathVisio"/></g><g ><defs><clipPath ><rect x="-64" y="-11" width="128" height="22" style="stroke:none"/></clipPath></defs><text   transform="translate(64,11)"     style="fill:#a52a2a">WNT5:FZD7:pp-DVL</text></g></g><g id="d0d90" class="Complex Reactome_R-HSA-9673287" transform="translate(173,115)"  name="WNT5:FZD7" ><g class="Complex Reactome_R-HSA-9673287"><use class="Complex Reactome_R-HSA-9673287 Node Icon" width="78" height="22" fill="#fff" stroke="#a52a2a" href="#HexagonPathVisio"/></g><g ><defs><clipPath ><rect x="-39" y="-11" width="78" height="22" style="stroke:none"/></clipPath></defs><text   transform="translate(39,11)"     style="fill:#a52a2a">WNT5:FZD7</text></g></g><g id="d5750" class="Protein" transform="translate(323,398)"  name="JUN" ><rect   width="30" height="22"/><text   transform="translate(15,11)"    >JUN</text></g><g id="db617" class="Metabolite " transform="translate(1366,320)"  name="H+" ><rect   width="36" height="30" style="stroke:#00f"/><text   transform="translate(18,15)"     style="fill:#00f">H+</text></g><g id="e0a7a" class="Metabolite " transform="translate(1545,334)"  name="O2.-" ><rect   width="45" height="30" style="stroke:#00f"/><text   transform="translate(22.5,15)"     style="fill:#00f">O2.-</text></g><g id="e547c" class="Complex Reactome_R-HSA-9673309" transform="translate(402,115)"  name="WNT5:FZD7:p-DVL" ><g class="Complex Reactome_R-HSA-9673309"><use class="Complex Reactome_R-HSA-9673309 Node Icon" width="120" height="22" fill="#fff" stroke="#a52a2a" href="#HexagonPathVisio"/></g><g ><defs><clipPath ><rect x="-60" y="-11" width="120" height="22" style="stroke:none"/></clipPath></defs><text   transform="translate(60,11)"     style="fill:#a52a2a">WNT5:FZD7:p-DVL</text></g></g><g id="e9cbd" class="Metabolite " transform="translate(323,468)"  name="ATP" ><rect   width="40" height="30" style="stroke:#00f"/><text   transform="translate(20,15)"     style="fill:#00f">ATP</text></g><g id="ed36e" class="Complex Reactome_R-HSA-442641" transform="translate(880,117)"  name="RAC1:GTP" ><g class="Complex Reactome_R-HSA-442641"><use class="Complex Reactome_R-HSA-442641 Node Icon" width="69" height="22" fill="#fff" stroke="#a52a2a" href="#HexagonPathVisio"/></g><g ><defs><clipPath ><rect x="-34.5" y="-11" width="69" height="22" style="stroke:none"/></clipPath></defs><text   transform="translate(34.5,11)"     style="fill:#a52a2a">RAC1:GTP</text></g></g><g id="f30e0" class="Metabolite " transform="translate(908,278)"  name="ATP" ><rect   width="40" height="30" style="stroke:#00f"/><text   transform="translate(20,15)"     style="fill:#00f">ATP</text></g><g id="fa093" class="Protein" transform="translate(1064,240)"  name="p-T,Y-MAPK8" ><rect   width="91" height="22"/><text   transform="translate(45.5,11)"    >p-T,Y-MAPK8</text></g><g id="fa768" class="Metabolite " transform="translate(1027,283)"  name="ADP" ><rect   width="41" height="30" style="stroke:#00f"/><text   transform="translate(20.5,15)"     style="fill:#00f">ADP</text></g><g id="a3512" class="GroupNone" transform="translate(41,669)"  ><g class="GroupNone"><rect   width="118" height="78" fill-opacity=".1" stroke-dasharray="5,3" style="fill:#b4b464;stroke:grey"/><g id="a5bdc" class="Protein" transform="translate(9,49)"  name="p-S-DVL1" ><rect   width="100" height="20"/><text   transform="translate(50,10)"    >p-S-DVL1</text></g><g id="b9d7e" class="Protein" transform="translate(9,29)"  name="p-DVL3" ><rect   width="100" height="20"/><text   transform="translate(50,10)"    >p-DVL3</text></g><g id="e1804" class="Protein" transform="translate(9,9)"  name="p-DVL2" ><rect   width="100" height="20"/><text   transform="translate(50,10)"    >p-DVL2</text></g></g></g><g id="a6e98" class="GroupComplex" transform="translate(38,566)"  ><g class="GroupComplex"><use class="Icon" width="124" height="94" fill="#b4b464" fill-opacity=".1" stroke="grey" href="#Octagon"/><g id="cecc2" class="Protein" transform="translate(12,12)"  name="FZD7" ><rect   width="100" height="20"/><text   transform="translate(50,10)"    >FZD7</text></g><g id="e5576" class="Protein" transform="translate(12,42)"  name="N4GlycoAsn-PalmS WNT5A(36-380)" ><rect   width="100" height="40"/><text   transform="translate(50,20)"    >N4GlycoAsn-PalmS WNT5A(36-380)</text></g></g></g><g id="a8f3a" class="GroupComplex" transform="translate(38,1046)"  ><g class="GroupComplex"><use class="Icon" width="124" height="144" fill="#b4b464" fill-opacity=".1" stroke="grey" href="#Octagon"/><g id="b52fd" class="Protein" transform="translate(12,12)"  name="FZD7" ><rect   width="100" height="20"/><text   transform="translate(50,10)"    >FZD7</text></g><g id="bab42" class="Protein" transform="translate(12,112)"  name="pp-DVL3" ><rect   width="100" height="20"/><text   transform="translate(50,10)"    >pp-DVL3</text></g><g id="dc0f4" class="Protein" transform="translate(12,72)"  name="pp-DVL2" ><rect   width="100" height="20"/><text   transform="translate(50,10)"    >pp-DVL2</text></g><g id="e065b" class="Protein" transform="translate(12,92)"  name="pp-DVL1" ><rect   width="100" height="20"/><text   transform="translate(50,10)"    >pp-DVL1</text></g><g id="f94e7" class="Protein" transform="translate(12,42)"  name="N4GlycoAsn-PalmS WNT5A(36-380)" ><rect   width="100" height="40"/><text   transform="translate(50,20)"    >N4GlycoAsn-PalmS WNT5A(36-380)</text></g></g></g><g id="aa2d1" class="GroupComplex" transform="translate(38,766)"  ><g class="GroupComplex"><use class="Icon" width="124" height="104" fill="#b4b464" fill-opacity=".1" stroke="grey" href="#Octagon"/><g id="acdc2" class="Protein" transform="translate(12,32)"  name="NOXA1" ><rect   width="100" height="20"/><text   transform="translate(50,10)"    >NOXA1</text></g><g id="ae599" class="Protein" transform="translate(12,52)"  name="NOXO1" ><rect   width="100" height="20"/><text   transform="translate(50,10)"    >NOXO1</text></g><g id="eaa18" class="Protein" transform="translate(12,72)"  name="CYBA" ><rect   width="100" height="20"/><text   transform="translate(50,10)"    >CYBA</text></g><g id="f3e04" class="Protein" transform="translate(12,12)"  name="NOX1" ><rect   width="100" height="20"/><text   transform="translate(50,10)"    >NOX1</text></g></g></g><g id="b02fc" class="GroupComplex" transform="translate(178,606)"  ><g class="GroupComplex"><use class="Icon" width="124" height="264" fill="#b4b464" fill-opacity=".1" stroke="grey" href="#Octagon"/><g id="a286b" class="Protein" transform="translate(12,12)"  name="NOX1" ><rect   width="100" height="20"/><text   transform="translate(50,10)"    >NOX1</text></g><g id="ad026" class="Protein" transform="translate(12,232)"  name="pp-DVL3" ><rect   width="100" height="20"/><text   transform="translate(50,10)"    >pp-DVL3</text></g><g id="b2ba5" class="Protein" transform="translate(12,32)"  name="NOXA1" ><rect   width="100" height="20"/><text   transform="translate(50,10)"    >NOXA1</text></g><g id="b7f98" class="Protein" transform="translate(12,72)"  name="CYBA" ><rect   width="100" height="20"/><text   transform="translate(50,10)"    >CYBA</text></g><g id="c2d9b" class="Protein" transform="translate(12,212)"  name="pp-DVL1" ><rect   width="100" height="20"/><text   transform="translate(50,10)"    >pp-DVL1</text></g><g id="c5a5f" class="Protein" transform="translate(12,192)"  name="pp-DVL2" ><rect   width="100" height="20"/><text   transform="translate(50,10)"    >pp-DVL2</text></g><g id="d357a" class="Metabolite " transform="translate(12,92)"  name="GTP" ><rect   width="100" height="20" style="stroke:#00f"/><text   transform="translate(50,10)"     style="fill:#00f">GTP</text></g><g id="d487d" class="Protein" transform="translate(12,162)"  name="N4GlycoAsn-PalmS WNT5A(36-380)" ><rect   width="100" height="40"/><text   transform="translate(50,20)"    >N4GlycoAsn-PalmS WNT5A(36-380)</text></g><g id="e4d47" class="Protein" transform="translate(12,132)"  name="FZD7" ><rect   width="100" height="20"/><text   transform="translate(50,10)"    >FZD7</text></g><g id="f27d3" class="Protein" transform="translate(12,112)"  name="RAC1" ><rect   width="100" height="20"/><text   transform="translate(50,10)"    >RAC1</text></g><g id="fe480" class="Protein" transform="translate(12,52)"  name="NOXO1" ><rect   width="100" height="20"/><text   transform="translate(50,10)"    >NOXO1</text></g></g></g><g id="d2ed4" class="GroupComplex" transform="translate(178,886)"  ><g class="GroupComplex"><use class="Icon" width="124" height="184" fill="#b4b464" fill-opacity=".1" stroke="grey" href="#Octagon"/><g id="ba993" class="Protein" transform="translate(12,132)"  name="pp-DVL1" ><rect   width="100" height="20"/><text   transform="translate(50,10)"    >pp-DVL1</text></g><g id="c7964" class="Protein" transform="translate(12,52)"  name="FZD7" ><rect   width="100" height="20"/><text   transform="translate(50,10)"    >FZD7</text></g><g id="d6590" class="Protein" transform="translate(12,152)"  name="pp-DVL3" ><rect   width="100" height="20"/><text   transform="translate(50,10)"    >pp-DVL3</text></g><g id="e4065" class="Metabolite " transform="translate(12,12)"  name="GTP" ><rect   width="100" height="20" style="stroke:#00f"/><text   transform="translate(50,10)"     style="fill:#00f">GTP</text></g><g id="e4bd4" class="Protein" transform="translate(12,82)"  name="N4GlycoAsn-PalmS WNT5A(36-380)" ><rect   width="100" height="40"/><text   transform="translate(50,20)"    >N4GlycoAsn-PalmS WNT5A(36-380)</text></g><g id="eb0a3" class="Protein" transform="translate(12,112)"  name="pp-DVL2" ><rect   width="100" height="20"/><text   transform="translate(50,10)"    >pp-DVL2</text></g><g id="f8064" class="Protein" transform="translate(12,32)"  name="RAC1" ><rect   width="100" height="20"/><text   transform="translate(50,10)"    >RAC1</text></g></g></g><g id="d963a" class="GroupComplex" transform="translate(38,886)"  ><g class="GroupComplex"><use class="Icon" width="124" height="154" fill="#b4b464" fill-opacity=".1" stroke="grey" href="#Octagon"/><g id="a4858" class="Protein" transform="translate(12,52)"  name="p-S-DVL1" ><rect   width="100" height="20"/><text   transform="translate(50,10)"    >p-S-DVL1</text></g><g id="c0224" class="Protein" transform="translate(12,102)"  name="N4GlycoAsn-PalmS WNT5A(36-380)" ><rect   width="100" height="40"/><text   transform="translate(50,20)"    >N4GlycoAsn-PalmS WNT5A(36-380)</text></g><g id="d64cf" class="Protein" transform="translate(12,32)"  name="p-DVL3" ><rect   width="100" height="20"/><text   transform="translate(50,10)"    >p-DVL3</text></g><g id="f144b" class="Protein" transform="translate(12,12)"  name="p-DVL2" ><rect   width="100" height="20"/><text   transform="translate(50,10)"    >p-DVL2</text></g><g id="fd7f0" class="Protein" transform="translate(12,72)"  name="FZD7" ><rect   width="100" height="20"/><text   transform="translate(50,10)"    >FZD7</text></g></g></g><g id="e4868" class="GroupComplex" transform="translate(38,1206)"  ><g class="GroupComplex"><use class="Icon" width="124" height="64" fill="#b4b464" fill-opacity=".1" stroke="grey" href="#Octagon"/><g id="c03ff" class="Protein" transform="translate(12,32)"  name="RAC1" ><rect   width="100" height="20"/><text   transform="translate(50,10)"    >RAC1</text></g><g id="e5809" class="Metabolite " transform="translate(12,12)"  name="GTP" ><rect   width="100" height="20" style="stroke:#00f"/><text   transform="translate(50,10)"     style="fill:#00f">GTP</text></g></g></g></g></g></g></svg>