<?xml version="1.0" encoding="UTF-8"?>
<svg xmlns="http://www.w3.org/2000/svg" id="-svg" class="Diagram"  baseProfile="full" prefix="schema:http://schema.org/" preserveAspectRatio="xMidYMid"  version="1.1"><defs><g id="filter-defs"><filter id="doublefalse3filter" x="-50%" y="-50%" width="200%" height="200%"><feComposite in="SourceGraphic" in2="SourceGraphic" result="doubleDark"/><feMorphology in="doubleDark" operator="dilate" radius="0.17" result="in2Double"/><feMorphology in="SourceGraphic" operator="dilate" radius="3" result="inDouble"/><feComposite in="inDouble" in2="in2Double" operator="out" result="doubleResult"/></filter></g><g id="icon-defs"><symbol id="Ellipse" class=" Icon Ellipse" x="0" y="0" overflow="visible" preserveAspectRatio="none" viewBox="0 0 50 50"><desc>Ellipse</desc><ellipse cx="25" cy="25" rx="25" ry="25" vector-effect="non-scaling-stroke"/></symbol></g><g id="marker-defs"><marker id="memcatalysis000" markerHeight="12" markerWidth="12" orient="auto" preserveAspectRatio="none" refX="12" refY="6" viewBox="0 0 12 12"><g id="g-memcatalysis000" transform=""><g transform="rotate(180 6 6)"><circle cx="6" cy="6" r="5.3px" fill="#fff" stroke="#000"/></g></g></marker><marker id="mea" markerHeight="12" markerWidth="12" orient="auto" preserveAspectRatio="none" refX="12" refY="6" viewBox="0 0 12 12"><g id="g-mea" transform=""><g transform="rotate(180 6 6)"><rect y="5.4" width="2" height="1.2" style="stroke:#fff"/><polygon points="12 11 0 6 12 1" stroke-width="0"/></g></g></marker><marker id="membinding000" markerHeight="12" markerWidth="12" orient="auto" preserveAspectRatio="none" refX="12" refY="6" viewBox="0 0 12 12"><g id="g-membinding000" transform=""><g transform="rotate(180 6 6)"><rect y="5.4" width="2" height="1.2" style="stroke:#fff"/><polygon points="12 12 0 6 12 0 5 6" stroke-width="0"/></g></g></marker><marker id="memstimulation000" markerHeight="12" markerWidth="12" orient="auto" preserveAspectRatio="none" refX="12" refY="6" viewBox="0 0 12 12"><g id="g-memstimulation000" transform=""><g transform="rotate(180 6 6)"><rect y="5.4" width="2" height="1.2" style="stroke:none"/><line x1="12" x2="12" y1="6" y2="6" fill="none"/><polygon points="0 6 11 11 11 1" fill="#fff" stroke="#000"/></g></g></marker></g></defs><g id="viewport-20220102145016724" class="svg-pan-zoom_viewport" transform="matrix(0.77 0 0 0.77 200.06 0)" style="transform:matrix(0.77, 0, 0, 0.77, 200.06, 0)"><style>svg.Diagram {font-family: 'Liberation Sans', Arial, sans-serif; }.Diagram path {fill: transparent;stroke: #000;marker-end: url(#mea);}.Diagram symbol path {fill: inherit;stroke: inherit;stroke-width: inherit;marker-end: inherit;}.Diagram rect {fill: #fff;stroke: #000;}.Diagram text {dominant-baseline: central;overflow: hidden;text-anchor: middle;fill: #000;font-size: 12px;}</style><style type="text/css">.Viewport .textContent {
  pointer-events: none;
  stroke-width: 0px;
}

					.Viewport.Icon {
  fill: white;
}

/* Hide the InfoBox */
.Viewport.textContent {
  font-size: 0;
}

.textContent {
  stroke: none;
}

.DataNode {
  stroke-miterlimit: 1;
  pointer-events: auto;
}

.DataNode:hover {
  cursor: pointer;
}

/* TODO should this apply to things other than DataNodes? */
.DataNode.textContent {
  pointer-events: none;
}

.DataNode.Highlighted {
  opacity: 0.6;
  stroke-width: 0px;
}

marker {
  /* this is what should work per the spec
  stroke-dasharray: none; */
  /* but I need to add this to make it work in Safari */
  stroke-dasharray: 9999999999999999999999999;
}

.Citation.Icon {
  fill: none;
  stroke-width: 0px;
}

.Citation.textContent {
  text-align: center;
  vertical-align: top;
  font-size: 7px;
  fill: #999;
  fill-opacity: 1;
  stroke: none;
}</style><g id="WP5029" class="Pathway http___identifiers_org_pw_PW_0001976 http___identifiers_org_pw_PW_0002214 http___identifiers_org_pw_PW_0001977 http___identifiers_org_pw_PW_0001880 http___identifiers_org_pw_PW_0001871 Viewport"  name="Name: Amino acid transport defects (IEMs) Organism: Homo sapiens" ><g class="Pathway http___identifiers_org_pw_PW_0001976 http___identifiers_org_pw_PW_0002214 http___identifiers_org_pw_PW_0001977 http___identifiers_org_pw_PW_0001880 http___identifiers_org_pw_PW_0001871 Viewport"><rect   width="1035.5" height="924.29" style="stroke:none"/><g id="fd9e5" class=" PhysicalEntity CellularComponent Cell" transform="translate(404.25 43.46)"  name="Apical surface   of renal tubule" ><g class=" PhysicalEntity CellularComponent Cell" filter="url(#doublefalse3filter)"><g class=" PhysicalEntity CellularComponent Cell"><rect   transform="matrix(0.97 0 0 0.99 5.84 5.92)" width="440.51" height="852.33" rx="15" ry="15" stroke-width="3" style="fill:transparent;stroke:#c0c0c0"/></g></g><g ><defs><clipPath ><rect x="-8" y="-21.2" width="440.51" height="852.33" style="stroke:none"/></clipPath></defs><text   transform="translate(8 21.2)"     style="fill:#c0c0c0;text-anchor:start"><tspan   x="0" y="-6.60">Apical surface</tspan><tspan   x="0" y="6.60">of renal tubule</tspan></text></g></g><g id="id1aa915a3" class="Edge"  ><path    d="m758.52 368.72 156.94 1.4e-13" style="marker-end:url(#memtranslocation000)"/><g id="bd6f8" class="AB" transform="translate(842.04 368.72)"  ><g class="AB"/></g></g><g id="a7858" class="Edge"  ><path    d="m842.04 368.72-65.8 44.17" stroke-dasharray="5,3"/></g><g id="id4e556f37" class="Edge"  ><path    d="m819.82 459.23v-36.03" style="marker-end:url(#membinding000)"/></g><g id="id6f0d576b" class="Edge"  ><path    d="m842.32 398.19-0.28-29.47" style="marker-end:url(#memcatalysis000)"/></g><g id="id70a7d0bb" class="Edge"  ><path    d="m384.91 719.31v36.96" style="marker-end:url(#membinding000)"/></g><g id="id73f9d749" class="Edge"  ><path    d="m485.53 274.53h-149.42" style="marker-end:url(#memtranslocation000)"/><g id="b8540" class="AB" transform="translate(405.83 274.53)"  ><g class="AB"/></g></g><g id="id3da88f60" class="Edge"  ><path    d="m405.5 228.91 0.33 45.62" style="marker-end:url(#memcatalysis000)"/></g><g id="idb89c8a8f" class="Edge"  ><path    d="m429.91 719.31v36.96" style="marker-end:url(#memstimulation000)"/></g><g id="idbf14bbb5" class="Edge"  ><path    d="m462.71 493.43-32.81 14.93" style="marker-end:url(#membinding000)"/></g><g id="df977" class="Edge"  ><path    d="m406.54 173-181 54.62" stroke-dasharray="5,3"/></g><g id="ida3ada671" class="Edge"  ><path    d="m405.5 203.91 1.04-30.91" style="marker-end:url(#memcatalysis000)"/></g><g id="id16805d1" class="Edge"  ><path    d="m364.78 806.02 92.09 0.28" style="marker-end:url(#memtranslocation000)"/><g id="c5118" class="AB" transform="translate(408.64 806.16)"  ><g class="AB"/></g></g><g id="id22b4e4a1" class="Edge"  ><path    d="m356.78 834.75 51.85-28.59" style="marker-end:url(#memtranslocation000)"/></g><g id="id4e6306b1" class="Edge"  ><path    d="m364.78 129.91 92.09-0.76" style="marker-end:url(#memtranslocation000)"/><g id="b4cb5" class="AB" transform="translate(406.52 129.57)"  ><g class="AB"/></g></g><g id="ideb6b5f0d" class="Edge"  ><path    d="m407.41 781.27 1.23 24.88" style="marker-end:url(#memcatalysis000)"/></g><g id="id1055e10" class="Edge"  ><path    d="m405.5 203.91 1.01-74.34" style="marker-end:url(#memcatalysis000)"/></g><g id="id86388004" class="Edge"  ><path    d="m407.41 399.72 1.70 34.03" style="marker-end:url(#memcatalysis000)"/></g><g id="ide542506d" class="Edge"  ><path    d="m364.78 322.41h92.09" style="marker-end:url(#memtranslocation000)"/><g id="bf906" class="AB" transform="translate(406.58 322.41)"  ><g class="AB"/></g></g><g id="id45572a99" class="Edge"  ><path    d="m364.78 566.99 92.09 0.28" style="marker-end:url(#memtranslocation000)"/><g id="f40ac" class="AB" transform="translate(408.46 567.12)"  ><g class="AB"/></g></g><g id="c6d85" class="Edge"  ><path    d="m406.58 322.41-181.05 45.46" stroke-dasharray="5,3"/></g><g id="id9689c6dd" class="Edge"  ><path    d="m407.41 342-0.82-19.59" style="marker-end:url(#memcatalysis000)"/></g><g id="iddcd6f15f" class="Edge"  ><path    d="m893.82 322.99-51.77 45.73" style="marker-end:url(#memtranslocation000)"/></g><g id="idb0d18984" class="Edge"  ><path    d="m407.41 533.36 1.06 33.76" style="marker-end:url(#memcatalysis000)"/></g><g id="f2aaf" class="Label" transform="translate(87.54 193.5)"  name="Dicarboxylic Amino Aciduria (DA)" ><use class="Icon" width="138" height="45.5" fill="#ffcccc" stroke="#00f" href="#Ellipse"/><text   transform="translate(69,22.75)"     style="fill:#00f"><tspan   x="0" y="-6.60">Dicarboxylic</tspan><tspan   x="0" y="6.60">Amino Aciduria (DA)</tspan></text></g><g id="fd21a" class="Label" transform="translate(699.8 47.12)"  name="Basolateral surface of renal tubule" ><g class="Label"/><text   transform="translate(71.71 19.01)"     style="fill:#bfbfbf"><tspan   x="0" y="-6.60">Basolateral surface</tspan><tspan   x="0" y="6.60">of renal tubule</tspan></text></g><g id="c61f4" class="GroupGroup" transform="translate(83.37 755.93)"  ><g class="GroupGroup"><g id="a19ce" class="Label" transform="translate(89.13 8)"  name="Basic AA" ><g class="Label"/><text   transform="translate(45,12.5)"     style="fill:#404040">Basic AA</text></g><g id="daef7" class="Metabolite" transform="translate(8 33.80)"  name="Arginine" ><rect   width="90" height="25" rx="15" ry="15" style="stroke:#00f"/><text   transform="translate(45,12.5)"     style="fill:#00f">Arginine</text></g><g id="e2844" class="Metabolite" transform="translate(95.45 33.80)"  name="Lysine" ><rect   width="90" height="25" rx="15" ry="15" style="stroke:#00f"/><text   transform="translate(45,12.5)"     style="fill:#00f">Lysine</text></g><g id="ae12a" class="Metabolite" transform="translate(183.41 33.80)"  name="Histidine" ><rect   width="90" height="25" rx="15" ry="15" style="stroke:#00f"/><text   transform="translate(45,12.5)"     style="fill:#00f">Histidine</text></g></g></g><g id="e70c0" class="GroupGroup" transform="translate(83.37 473.98)"  ><g class="GroupGroup"><g id="aa81b" class="Label" transform="translate(40.53 20.20)"  name="Neutral AA" ><g class="Label"/><text   transform="translate(45,12.5)"     style="fill:#404040">Neutral AA</text></g><g id="e5872" class="Metabolite" transform="translate(8 53.01)"  name="Alanine" ><rect   width="90" height="25" rx="15" ry="15" style="stroke:#00f"/><text   transform="translate(45,12.5)"     style="fill:#00f">Alanine</text></g><g id="c20ff" class="Metabolite" transform="translate(204.08 8)"  name="Na+" ><rect   width="48.67" height="23.68" rx="15" ry="15" style="stroke:#00f"/><text   transform="translate(24.34 11.84)"     style="fill:#00f">Na+</text></g><g id="cd830" class="Metabolite" transform="translate(95.45 53.01)"  name="Asparagine" ><rect   width="90" height="25" rx="15" ry="15" style="stroke:#00f"/><text   transform="translate(45,12.5)"     style="fill:#00f">Asparagine</text></g><g id="da72c" class="Metabolite" transform="translate(183.41 53.01)"  name="Cysteine" ><rect   width="90" height="25" rx="15" ry="15" style="stroke:#00f"/><text   transform="translate(45,12.5)"     style="fill:#00f">Cysteine</text></g><g id="b5dcf" class="Metabolite" transform="translate(8 78.01)"  name="Glutamine" ><rect   width="90" height="25" rx="15" ry="15" style="stroke:#00f"/><text   transform="translate(45,12.5)"     style="fill:#00f">Glutamine</text></g><g id="f0f8a" class="Metabolite" transform="translate(95.45 78.01)"  name="Glycine" ><rect   width="90" height="25" rx="15" ry="15" style="stroke:#00f"/><text   transform="translate(45,12.5)"     style="fill:#00f">Glycine</text></g><g id="c3bee" class="Metabolite" transform="translate(183.41 78.01)"  name="Isoleucine" ><rect   width="90" height="25" rx="15" ry="15" style="stroke:#00f"/><text   transform="translate(45,12.5)"     style="fill:#00f">Isoleucine</text></g><g id="a64ba" class="Metabolite" transform="translate(8 103.01)"  name="Leucine" ><rect   width="90" height="25" rx="15" ry="15" style="stroke:#00f"/><text   transform="translate(45,12.5)"     style="fill:#00f">Leucine</text></g><g id="a334c" class="Metabolite" transform="translate(95.45 103.01)"  name="Methionine" ><rect   width="90" height="25" rx="15" ry="15" style="stroke:#00f"/><text   transform="translate(45,12.5)"     style="fill:#00f">Methionine</text></g><g id="db32f" class="Metabolite" transform="translate(183.41 103.01)"  name="Phenylalanine" ><rect   width="90" height="25" rx="15" ry="15" style="stroke:#00f"/><text   transform="translate(45,12.5)"     style="fill:#00f">Phenylalanine</text></g><g id="c115b" class="Metabolite" transform="translate(8 128.01)"  name="Proline" ><rect   width="90" height="25" rx="15" ry="15" style="stroke:#00f"/><text   transform="translate(45,12.5)"     style="fill:#00f">Proline</text></g><g id="ff814" class="Metabolite" transform="translate(95.45 128.01)"  name="Serine" ><rect   width="90" height="25" rx="15" ry="15" style="stroke:#00f"/><text   transform="translate(45,12.5)"     style="fill:#00f">Serine</text></g><g id="d36e3" class="Metabolite" transform="translate(183.41 128.01)"  name="Threonine" ><rect   width="90" height="25" rx="15" ry="15" style="stroke:#00f"/><text   transform="translate(45,12.5)"     style="fill:#00f">Threonine</text></g><g id="e0903" class="Metabolite" transform="translate(8 153.01)"  name="Tryptophan" ><rect   width="90" height="25" rx="15" ry="15" style="stroke:#00f"/><text   transform="translate(45,12.5)"     style="fill:#00f">Tryptophan</text></g><g id="eb554" class="Metabolite" transform="translate(95.45 153.01)"  name="Tyrosine" ><rect   width="90" height="25" rx="15" ry="15" style="stroke:#00f"/><text   transform="translate(45,12.5)"     style="fill:#00f">Tyrosine</text></g><g id="e5f1f" class="Metabolite" transform="translate(183.41 153.01)"  name="Valine" ><rect   width="90" height="25" rx="15" ry="15" style="stroke:#00f"/><text   transform="translate(45,12.5)"     style="fill:#00f">Valine</text></g></g></g><g id="b356d" class="Metabolite" transform="translate(266.78 160.5)"  name="L-cysteine" ><rect   width="90" height="25" rx="15" ry="15" style="stroke:#00f"/><text   transform="translate(45,12.5)"     style="fill:#00f">L-cysteine</text></g><g id="bc9fa" class="Metabolite" transform="translate(287.45 233.83)"  name="3 Na+" ><rect   width="48.67" height="23.68" rx="15" ry="15" style="stroke:#00f"/><text   transform="translate(24.34 11.84)"     style="fill:#00f">3 Na+</text></g><g id="bed52" class="Metabolite" transform="translate(266.78 822.25)"  name="Cystine" ><rect   width="90" height="25" rx="15" ry="15" style="stroke:#00f"/><text   transform="translate(45,12.5)"     style="fill:#00f">Cystine</text></g><g id="c9830" class="Metabolite" transform="translate(485.53 262.69)"  name="K+" ><rect   width="48.67" height="23.68" rx="15" ry="15" style="stroke:#00f"/><text   transform="translate(24.34 11.84)"     style="fill:#00f">K+</text></g><g id="d5947" class="Protein" transform="translate(797.32 398.19)"  name="SLC7A7" ><rect   width="90" height="25"/><text   transform="translate(45,12.5)"    >SLC7A7</text></g><g id="e5a1e" class="Protein" transform="translate(360.5 203.91)"  name="SLC1A1" ><rect   width="90" height="25"/><text   transform="translate(45,12.5)"    >SLC1A1</text></g><g id="e49bb" class="GroupGroup" transform="translate(170.82 81.56)"  ><g class="GroupGroup"><g id="c1a89" class="Metabolite" transform="translate(8 38.70)"  name="L-glutamate" ><rect   width="90" height="25" rx="15" ry="15" style="stroke:#00f"/><text   transform="translate(45,12.5)"     style="fill:#00f">L-glutamate</text></g><g id="bad3e" class="Metabolite" transform="translate(8 63.70)"  name="L-aspartate" ><rect   width="90" height="25" rx="15" ry="15" style="stroke:#00f"/><text   transform="translate(45,12.5)"     style="fill:#00f">L-aspartate</text></g><g id="dfce6" class="Metabolite" transform="translate(95.96 38.70)"  name="D-aspartate" ><rect   width="90" height="25" rx="15" ry="15" style="stroke:#00f"/><text   transform="translate(45,12.5)"     style="fill:#00f">D-aspartate</text></g><g id="ac48a" class="Label" transform="translate(41.8 14.41)"  name="Acidic AA" ><g class="Label"/><text   transform="translate(45,12.5)"     style="fill:#404040">Acidic AA</text></g><g id="faf59" class="Metabolite" transform="translate(116.63 8)"  name="H+" ><rect   width="48.67" height="23.68" rx="15" ry="15" style="stroke:#00f"/><text   transform="translate(24.34 11.84)"     style="fill:#00f">H+</text></g></g></g><g id="c338d" class="Protein" transform="translate(362.41 342)"  name="SLC36A2" ><rect   width="90" height="25"/><text   transform="translate(45,12.5)"    >SLC36A2</text></g><g id="d0151" class="Protein" transform="translate(362.41 374.72)"  name="SLC6A20" ><rect   width="90" height="25"/><text   transform="translate(45,12.5)"    >SLC6A20</text></g><g id="c5a0b" class="Protein" transform="translate(362.41 508.36)"  name="SLC6A19" ><rect   width="90" height="25"/><text   transform="translate(45,12.5)"    >SLC6A19</text></g><g id="a4d4f" class="Protein" transform="translate(395.21 468.43)"  name="TMEM27" ><rect   width="90" height="25"/><text   transform="translate(45,12.5)"    >TMEM27</text></g><g id="e14cd" class="Protein" transform="translate(362.41 694.31)"  name="SLC3A1" ><rect   width="90" height="25"/><text   transform="translate(45,12.5)"    >SLC3A1</text></g><g id="dcdfc" class="Protein" transform="translate(362.41 756.27)"  name="SLC7A9" ><rect   width="90" height="25"/><text   transform="translate(45,12.5)"    >SLC7A9</text></g><g id="a7c10" class="Metabolite" transform="translate(485.53 233.83)"  name="3 Na+" ><rect   width="48.67" height="23.68" rx="15" ry="15" style="stroke:#00f"/><text   transform="translate(24.34 11.84)"     style="fill:#00f">3 Na+</text></g><g id="e97c1" class="Metabolite" transform="translate(287.45 262.69)"  name="K+" ><rect   width="48.67" height="23.68" rx="15" ry="15" style="stroke:#00f"/><text   transform="translate(24.34 11.84)"     style="fill:#00f">K+</text></g><g id="e1932" class="Edge"  ><path    d="m336.12 245.67 69.71 28.86" style="marker-end:url(#memtranslocation000)"/></g><g id="cd807" class="GroupGroup" transform="translate(456.87 79.37)"  ><g class="GroupGroup"><g id="d3470" class="Metabolite" transform="translate(28.66 8)"  name="H+" ><rect   width="48.67" height="23.68" rx="15" ry="15" style="stroke:#00f"/><text   transform="translate(24.34 11.84)"     style="fill:#00f">H+</text></g><g id="a84f7" class="Metabolite" transform="translate(8 41.56)"  name="L-glutamate" ><rect   width="90" height="25" rx="15" ry="15" style="stroke:#00f"/><text   transform="translate(45,12.5)"     style="fill:#00f">L-glutamate</text></g><g id="fa251" class="Metabolite" transform="translate(95.95 66.56)"  name="L-aspartate" ><rect   width="90" height="25" rx="15" ry="15" style="stroke:#00f"/><text   transform="translate(45,12.5)"     style="fill:#00f">L-aspartate</text></g><g id="ec57c" class="Metabolite" transform="translate(95.95 41.56)"  name="D-aspartate" ><rect   width="90" height="25" rx="15" ry="15" style="stroke:#00f"/><text   transform="translate(45,12.5)"     style="fill:#00f">D-aspartate</text></g><g id="c9c64" class="Label" transform="translate(82.40 16.32)"  name="Acidic AA" ><g class="Label"/><text   transform="translate(45,12.5)"     style="fill:#404040">Acidic AA</text></g></g></g><g id="dba6f" class="Edge"  ><path    d="m405.83 274.53 79.70-28.86" style="marker-end:url(#memtranslocation000)"/></g><g id="fba58" class="Metabolite" transform="translate(464.87 160.5)"  name="L-cysteine" ><rect   width="90" height="25" rx="15" ry="15" style="stroke:#00f"/><text   transform="translate(45,12.5)"     style="fill:#00f">L-cysteine</text></g><g id="a28b5" class="Edge"  ><path    d="m356.78 173 108.09-3e-14" style="marker-end:url(#memtranslocation000)"/><g id="b4a91" class="AB" transform="translate(406.54 173)"  ><g class="AB"/></g></g><g id="e745d" class="GroupGroup" transform="translate(170.82 288.56)"  ><g class="GroupGroup"><g id="e9a6b" class="Metabolite" transform="translate(116.63 8)"  name="H+" ><rect   width="48.67" height="23.68" rx="15" ry="15" style="stroke:#00f"/><text   transform="translate(24.34 11.84)"     style="fill:#00f">H+</text></g><g id="d7278" class="Metabolite" transform="translate(95.96 34.70)"  name="glycine" ><rect   width="90" height="25" rx="15" ry="15" style="stroke:#00f"/><text   transform="translate(45,12.5)"     style="fill:#00f">glycine</text></g><g id="ea87d" class="Label" transform="translate(31.8 10.41)"  name="Imino AA" ><g class="Label"/><text   transform="translate(45,12.5)"     style="fill:#404040">Imino AA</text></g><g id="d9f82" class="Metabolite" transform="translate(8 34.70)"  name="proline" ><rect   width="90" height="25" rx="15" ry="15" style="stroke:#00f"/><text   transform="translate(45,12.5)"     style="fill:#00f">proline</text></g></g></g><g id="ad4b7" class="GroupGroup" transform="translate(456.87 288.56)"  ><g class="GroupGroup"><g id="adbd4" class="Metabolite" transform="translate(116.61 8)"  name="H+" ><rect   width="48.67" height="23.68" rx="15" ry="15" style="stroke:#00f"/><text   transform="translate(24.34 11.84)"     style="fill:#00f">H+</text></g><g id="bfb88" class="Metabolite" transform="translate(95.95 34.70)"  name="glycine" ><rect   width="90" height="25" rx="15" ry="15" style="stroke:#00f"/><text   transform="translate(45,12.5)"     style="fill:#00f">glycine</text></g><g id="ccc3d" class="Label" transform="translate(51.75 10.41)"  name="Imino AA" ><g class="Label"/><text   transform="translate(45,12.5)"     style="fill:#404040">Imino AA</text></g><g id="f46eb" class="Metabolite" transform="translate(8 34.70)"  name="proline" ><rect   width="90" height="25" rx="15" ry="15" style="stroke:#00f"/><text   transform="translate(45,12.5)"     style="fill:#00f">proline</text></g></g></g><g id="e29f8" class="GroupGroup" transform="translate(257.96 401.26)"  ><g class="GroupGroup"><g id="c4a2e" class="Metabolite" transform="translate(8.82 8)"  name="proline" ><rect   width="90" height="25" rx="15" ry="15" style="stroke:#00f"/><text   transform="translate(45,12.5)"     style="fill:#00f">proline</text></g><g id="a5de4" class="Metabolite" transform="translate(8 33.30)"  name="Cl-" ><rect   width="48.67" height="23.68" rx="15" ry="15" style="stroke:#00f"/><text   transform="translate(24.34 11.84)"     style="fill:#00f">Cl-</text></g><g id="af11a" class="Metabolite" transform="translate(48.93 33.30)"  name="2 Na+" ><rect   width="48.67" height="23.68" rx="15" ry="15" style="stroke:#00f"/><text   transform="translate(24.34 11.84)"     style="fill:#00f">2 Na+</text></g></g></g><g id="a869d" class="Edge"  ><path    d="m364.78 433.75h92.09" style="marker-end:url(#memtranslocation000)"/><g id="a504c" class="AB" transform="translate(406.58 433.75)"  ><g class="AB"/></g><g id="caf85" class="AB" transform="translate(409.11 433.75)"  ><g class="AB"/></g></g><g id="e6475" class="GroupGroup" transform="translate(456.87 401.26)"  ><g class="GroupGroup"><g id="b6d14" class="Metabolite" transform="translate(8,8)"  name="proline" ><rect   width="90" height="25" rx="15" ry="15" style="stroke:#00f"/><text   transform="translate(45,12.5)"     style="fill:#00f">proline</text></g><g id="d468c" class="Metabolite" transform="translate(58.84 33.30)"  name="Cl-" ><rect   width="48.67" height="23.68" rx="15" ry="15" style="stroke:#00f"/><text   transform="translate(24.34 11.84)"     style="fill:#00f">Cl-</text></g><g id="e3eaf" class="Metabolite" transform="translate(11.65 33.30)"  name="2 Na+" ><rect   width="48.67" height="23.68" rx="15" ry="15" style="stroke:#00f"/><text   transform="translate(24.34 11.84)"     style="fill:#00f">2 Na+</text></g></g></g><g id="c1995" class="Label" transform="translate(87.54 356.5)"  name="Iminoglycinuria" ><use class="Icon" width="138" height="45.5" fill="#ffcccc" stroke="#00f" href="#Ellipse"/><text   transform="translate(69,22.75)"     style="fill:#00f">Iminoglycinuria</text></g><g id="d6e8a" class="Edge"  ><path    d="m406.52 129.57-180.98 86.68" stroke-dasharray="5,3"/></g><g id="f13ea" class="Edge"  ><path    d="m409.11 433.75-126.11-43.12" stroke-dasharray="5,3"/></g><g id="df41f" class="Edge"  ><path    d="m384.91 508.36v-40.56h-228.37v-65.80" stroke-dasharray="5,3"/></g><g id="f1b3b" class="GroupGroup" transform="translate(456.87 474.26)"  ><g class="GroupGroup"><g id="c4d18" class="Label" transform="translate(56.13 20.20)"  name="Neutral AA" ><g class="Label"/><text   transform="translate(45,12.5)"     style="fill:#404040">Neutral AA</text></g><g id="dd7bc" class="Metabolite" transform="translate(8 53.01)"  name="Alanine" ><rect   width="90" height="25" rx="15" ry="15" style="stroke:#00f"/><text   transform="translate(45,12.5)"     style="fill:#00f">Alanine</text></g><g id="e6133" class="Metabolite" transform="translate(202.67 8)"  name="Na+" ><rect   width="48.67" height="23.68" rx="15" ry="15" style="stroke:#00f"/><text   transform="translate(24.34 11.84)"     style="fill:#00f">Na+</text></g><g id="dad50" class="Metabolite" transform="translate(95.95 53.01)"  name="Asparagine" ><rect   width="90" height="25" rx="15" ry="15" style="stroke:#00f"/><text   transform="translate(45,12.5)"     style="fill:#00f">Asparagine</text></g><g id="d1f44" class="Metabolite" transform="translate(182 53.01)"  name="Cysteine" ><rect   width="90" height="25" rx="15" ry="15" style="stroke:#00f"/><text   transform="translate(45,12.5)"     style="fill:#00f">Cysteine</text></g><g id="f498d" class="Metabolite" transform="translate(8 78.01)"  name="Glutamine" ><rect   width="90" height="25" rx="15" ry="15" style="stroke:#00f"/><text   transform="translate(45,12.5)"     style="fill:#00f">Glutamine</text></g><g id="ae391" class="Metabolite" transform="translate(95.95 78.01)"  name="Glycine" ><rect   width="90" height="25" rx="15" ry="15" style="stroke:#00f"/><text   transform="translate(45,12.5)"     style="fill:#00f">Glycine</text></g><g id="ad9f2" class="Metabolite" transform="translate(182 78.01)"  name="Isoleucine" ><rect   width="90" height="25" rx="15" ry="15" style="stroke:#00f"/><text   transform="translate(45,12.5)"     style="fill:#00f">Isoleucine</text></g><g id="c4af9" class="Metabolite" transform="translate(8 103.01)"  name="Leucine" ><rect   width="90" height="25" rx="15" ry="15" style="stroke:#00f"/><text   transform="translate(45,12.5)"     style="fill:#00f">Leucine</text></g><g id="d30d2" class="Metabolite" transform="translate(95.95 103.01)"  name="Methionine" ><rect   width="90" height="25" rx="15" ry="15" style="stroke:#00f"/><text   transform="translate(45,12.5)"     style="fill:#00f">Methionine</text></g><g id="d2d9b" class="Metabolite" transform="translate(182 103.01)"  name="Phenylalanine" ><rect   width="90" height="25" rx="15" ry="15" style="stroke:#00f"/><text   transform="translate(45,12.5)"     style="fill:#00f">Phenylalanine</text></g><g id="b5fb2" class="Metabolite" transform="translate(8 128.01)"  name="Proline" ><rect   width="90" height="25" rx="15" ry="15" style="stroke:#00f"/><text   transform="translate(45,12.5)"     style="fill:#00f">Proline</text></g><g id="eb68b" class="Metabolite" transform="translate(95.95 128.01)"  name="Serine" ><rect   width="90" height="25" rx="15" ry="15" style="stroke:#00f"/><text   transform="translate(45,12.5)"     style="fill:#00f">Serine</text></g><g id="aa68a" class="Metabolite" transform="translate(182 128.01)"  name="Threonine" ><rect   width="90" height="25" rx="15" ry="15" style="stroke:#00f"/><text   transform="translate(45,12.5)"     style="fill:#00f">Threonine</text></g><g id="e534f" class="Metabolite" transform="translate(8 153.01)"  name="Tryptophan" ><rect   width="90" height="25" rx="15" ry="15" style="stroke:#00f"/><text   transform="translate(45,12.5)"     style="fill:#00f">Tryptophan</text></g><g id="afd75" class="Metabolite" transform="translate(95.95 153.01)"  name="Tyrosine" ><rect   width="90" height="25" rx="15" ry="15" style="stroke:#00f"/><text   transform="translate(45,12.5)"     style="fill:#00f">Tyrosine</text></g><g id="d784e" class="Metabolite" transform="translate(182 153.01)"  name="Valine" ><rect   width="90" height="25" rx="15" ry="15" style="stroke:#00f"/><text   transform="translate(45,12.5)"     style="fill:#00f">Valine</text></g></g></g><g id="aa3e7" class="Label" transform="translate(87.54 670.27)"  name="Hartnup Disorder (HD)" ><use class="Icon" width="138" height="45.5" fill="#ffcccc" stroke="#00f" href="#Ellipse"/><text   transform="translate(69,22.75)"     style="fill:#00f"><tspan   x="0" y="-6.60">Hartnup</tspan><tspan   x="0" y="6.60">Disorder (HD)</tspan></text></g><g id="cea27" class="Edge"  ><path    d="m408.46 567.12-129.46 125.9" stroke-dasharray="5,3"/></g><g id="b7db5" class="Label" transform="translate(87.54 829.72)"  name="Cystinuria" ><use class="Icon" width="138" height="45.5" fill="#ffcccc" stroke="#00f" href="#Ellipse"/><text   transform="translate(69,22.75)"     style="fill:#00f">Cystinuria</text></g><g id="dffe3" class="GroupGroup" transform="translate(456.87 756.21)"  ><g class="GroupGroup"><g id="d6fbc" class="Label" transform="translate(81.64 8)"  name="Basic AA" ><g class="Label"/><text   transform="translate(45,12.5)"     style="fill:#404040">Basic AA</text></g><g id="df2c0" class="Metabolite" transform="translate(8 33.80)"  name="Arginine" ><rect   width="90" height="25" rx="15" ry="15" style="stroke:#00f"/><text   transform="translate(45,12.5)"     style="fill:#00f">Arginine</text></g><g id="cfe4e" class="Metabolite" transform="translate(95.95 33.80)"  name="Lysine" ><rect   width="90" height="25" rx="15" ry="15" style="stroke:#00f"/><text   transform="translate(45,12.5)"     style="fill:#00f">Lysine</text></g><g id="a0a4d" class="Metabolite" transform="translate(182 33.80)"  name="Histidine" ><rect   width="90" height="25" rx="15" ry="15" style="stroke:#00f"/><text   transform="translate(45,12.5)"     style="fill:#00f">Histidine</text></g></g></g><g id="c2e4b" class="Label" transform="translate(531.22 848.33)"  name="Neutral AA" ><g class="Label"/><text   transform="translate(45,12.5)"     style="fill:#404040">Neutral AA</text></g><g id="b795e" class="Edge"  ><path    d="m531.22 860.83-122.59-54.67" style="marker-end:url(#memtranslocation000)"/></g><g id="adadd" class="Metabolite" transform="translate(530.01 822.25)"  name="Cystine" ><rect   width="90" height="25" rx="15" ry="15" style="stroke:#00f"/><text   transform="translate(45,12.5)"     style="fill:#00f">Cystine</text></g><g id="ade1d" class="Label" transform="translate(266.78 848.33)"  name="Neutral AA" ><g class="Label"/><text   transform="translate(45,12.5)"     style="fill:#404040">Neutral AA</text></g><g id="b3bf5" class="Edge"  ><path    d="m408.64 806.16 121.37 28.59" style="marker-end:url(#memtranslocation000)"/></g><g id="cdf66" class="Edge"  ><path    d="m408.64 806.16-51.85 54.67" style="marker-end:url(#memtranslocation000)"/></g><g id="b4282" class="Edge"  ><path    d="m408.64 806.16-183.1 46.31" stroke-dasharray="5,3"/></g><g id="e674e" class="Protein" transform="translate(797.32 459.23)"  name="SLC3A2" ><rect   width="90" height="25"/><text   transform="translate(45,12.5)"    >SLC3A2</text></g><g id="ff2f8" class="GroupGroup" transform="translate(893.82 289.85)"  ><g class="GroupGroup"><g id="ca016" class="Label" transform="translate(8 33.29)"  name="Neutral AA" ><g class="Label"/><text   transform="translate(45,12.5)"     style="fill:#404040">Neutral AA</text></g><g id="cb9d0" class="Metabolite" transform="translate(29.67 8)"  name="Na+" ><rect   width="48.67" height="23.68" rx="15" ry="15" style="stroke:#00f"/><text   transform="translate(24.34 11.84)"     style="fill:#00f">Na+</text></g></g></g><g id="caff5" class="Label" transform="translate(668.52 356.22)"  name="Basic AA" ><g class="Label"/><text   transform="translate(45,12.5)"     style="fill:#404040">Basic AA</text></g><g id="c820b" class="Label" transform="translate(915.46 356.22)"  name="Basic AA" ><g class="Label"/><text   transform="translate(45,12.5)"     style="fill:#404040">Basic AA</text></g><g id="d46da" class="GroupGroup" transform="translate(699.69 290.13)"  ><g class="GroupGroup"><g id="dfe9e" class="Label" transform="translate(8 33.29)"  name="Neutral AA" ><g class="Label"/><text   transform="translate(45,12.5)"     style="fill:#404040">Neutral AA</text></g><g id="c87eb" class="Metabolite" transform="translate(29.67 8)"  name="Na+" ><rect   width="48.67" height="23.68" rx="15" ry="15" style="stroke:#00f"/><text   transform="translate(24.34 11.84)"     style="fill:#00f">Na+</text></g></g></g><g id="ead87" class="Edge"  ><path    d="m842.04 368.72-36.36-45.45" style="marker-end:url(#memtranslocation000)"/></g><g id="c85da" class="Label" transform="translate(638.24 390.15)"  name="Lysinuric Protein Intolerance (LPI)" ><use class="Icon" width="138" height="45.5" fill="#ffcccc" stroke="#00f" href="#Ellipse"/><text   transform="translate(69,22.75)"     style="fill:#00f"><tspan   x="0" y="-6.60">Lysinuric Protein</tspan><tspan   x="0" y="6.60">Intolerance (LPI)</tspan></text></g><g id="fc79f" class="Label" transform="translate(198.37 47.12)"  name="Tubulus lumen" ><g class="Label"/><text   transform="translate(71.71 19.01)"     style="fill:#bfbfbf">Tubulus lumen</text></g></g></g></g></svg>