<?xml version="1.0" encoding="UTF-8"?>
<svg xmlns="http://www.w3.org/2000/svg" id="-svg" class="Diagram"  baseProfile="full" prefix="schema:http://schema.org/" preserveAspectRatio="xMidYMid"  version="1.1"><defs><g id="filter-defs"><filter id="doublefalse2filter" x="-50%" y="-50%" width="200%" height="200%"><feComposite in="SourceGraphic" in2="SourceGraphic" result="doubleDark"/><feMorphology in="doubleDark" operator="dilate" radius="0.25" result="in2Double"/><feMorphology in="SourceGraphic" operator="dilate" radius="2" result="inDouble"/><feComposite in="inDouble" in2="in2Double" operator="out" result="doubleResult"/></filter></g><g id="icon-defs"><symbol id="ArcPathVisio" class=" Icon ArcPathVisio" x="0" y="0" overflow="visible" preserveAspectRatio="none" viewBox="0 0 100 100"><desc>ArcPathVisio</desc><path d="m99.5 50c0 27.34-22.16 49.5-49.5 49.5s-49.5-22.16-49.5-49.5" vector-effect="non-scaling-stroke"/></symbol><symbol id="Ellipse" class=" Icon Ellipse" x="0" y="0" overflow="visible" preserveAspectRatio="none" viewBox="0 0 50 50"><desc>Ellipse</desc><ellipse cx="25" cy="25" rx="25" ry="25" vector-effect="non-scaling-stroke"/></symbol><symbol id="Octagon" class=" Icon Octagon" x="0" y="0" overflow="visible" preserveAspectRatio="none" viewBox="0 0 100 100"><desc>Octagon</desc><path d="m0 25 25-25h50l25 25v50l-25 25h-50l-25-25z" vector-effect="non-scaling-stroke"/></symbol></g><g id="marker-defs"><marker id="membinding000" markerHeight="12" markerWidth="12" orient="auto" preserveAspectRatio="none" refX="12" refY="6" viewBox="0 0 12 12"><g id="g-membinding000" transform=""><g transform="rotate(180 6 6)"><rect y="5.4" width="2" height="1.2" style="stroke:#fff"/><polygon points="12 12 0 6 12 0 5 6" stroke-width="0"/></g></g></marker><marker id="memconversion000" markerHeight="12" markerWidth="12" orient="auto" preserveAspectRatio="none" refX="12" refY="6" viewBox="0 0 12 12"><g id="g-memconversion000" transform=""><g transform="rotate(180 6 6)"><rect y="5.4" width="2" height="1.2" style="stroke:#fff"/><polygon points="12 11 0 6 12 1" stroke-width="0"/></g></g></marker><marker id="memstimulation000" markerHeight="12" markerWidth="12" orient="auto" preserveAspectRatio="none" refX="12" refY="6" viewBox="0 0 12 12"><g id="g-memstimulation000" transform=""><g transform="rotate(180 6 6)"><rect y="5.4" width="2" height="1.2" style="stroke:none"/><line x1="12" x2="12" y1="6" y2="6" fill="none"/><polygon points="0 6 11 11 11 1" fill="#fff" stroke="#000"/></g></g></marker><marker id="memcatalysis000" markerHeight="12" markerWidth="12" orient="auto" preserveAspectRatio="none" refX="12" refY="6" viewBox="0 0 12 12"><g id="g-memcatalysis000" transform=""><g transform="rotate(180 6 6)"><circle cx="6" cy="6" r="5.3px" fill="#fff" stroke="#000"/></g></g></marker><marker id="meminhibitionff0000white" markerHeight="20" markerWidth="10" orient="auto" preserveAspectRatio="none" refX="10" refY="10" viewBox="0 0 10 20"><g id="g-meminhibitionff0000white" transform=""><g transform="rotate(180 5 10)"><rect y="9" width="8" height="2" style="stroke:none"/><line x="0" y="0" width="12" height="12" x1="7" x2="7" y2="20" stroke="#f00" stroke-width="1.8"/></g></g></marker><marker id="memstimulation00ff33white" markerHeight="12" markerWidth="12" orient="auto" preserveAspectRatio="none" refX="12" refY="6" viewBox="0 0 12 12"><g id="g-memstimulation00ff33white" transform=""><g transform="rotate(180 6 6)"><rect y="5.4" width="2" height="1.2" style="stroke:none"/><line x1="12" x2="12" y1="6" y2="6" fill="none"/><polygon points="0 6 11 11 11 1" fill="#fff" stroke="#0f3"/></g></g></marker></g></defs><g id="viewport-20220102145343210" class="svg-pan-zoom_viewport" transform="matrix(1.17 0 0 1.17 36.28 5.68e-14)" style="transform:matrix(1.17, 0, 0, 1.17, 36.28, 5.68e-14)"><style>svg.Diagram {font-family: 'Liberation Sans', Arial, sans-serif; }.Diagram path {fill: transparent;stroke: #000;marker-end: url(#mea);}.Diagram symbol path {fill: inherit;stroke: inherit;stroke-width: inherit;marker-end: inherit;}.Diagram rect {fill: #fff;stroke: #000;}.Diagram text {dominant-baseline: central;overflow: hidden;text-anchor: middle;fill: #000;font-size: 12px;}</style><style type="text/css">.Viewport .textContent {
  pointer-events: none;
  stroke-width: 0px;
}

					.Viewport.Icon {
  fill: white;
}

/* Hide the InfoBox */
.Viewport.textContent {
  font-size: 0;
}

.textContent {
  stroke: none;
}

.DataNode {
  stroke-miterlimit: 1;
  pointer-events: auto;
}

.DataNode:hover {
  cursor: pointer;
}

/* TODO should this apply to things other than DataNodes? */
.DataNode.textContent {
  pointer-events: none;
}

.DataNode.Highlighted {
  opacity: 0.6;
  stroke-width: 0px;
}

marker {
  /* this is what should work per the spec
  stroke-dasharray: none; */
  /* but I need to add this to make it work in Safari */
  stroke-dasharray: 9999999999999999999999999;
}

.Citation.Icon {
  fill: none;
  stroke-width: 0px;
}

.Citation.textContent {
  text-align: center;
  vertical-align: top;
  font-size: 7px;
  fill: #999;
  fill-opacity: 1;
  stroke: none;
}</style><g id="WP5133" class="Pathway http___identifiers_org_pw_PW_0001013 http___identifiers_org_pw_PW_0001011 Viewport"  name="Name: Non-classical role of vitamin D Organism: Homo sapiens" ><g class="Pathway http___identifiers_org_pw_PW_0001013 http___identifiers_org_pw_PW_0001011 Viewport"><rect   width="964" height="610.5" style="stroke:none"/><g id="id1f1dc8a3" class="Edge"  ><path    d="m258 360.5v43" style="marker-end:url(#membinding000)"/></g><g id="id1c420aeb" class="Edge"  ><path    d="m259 521.5v34" style="marker-end:none"/></g><g id="iddf46a0dd" class="Edge"  ><path    d="m520 503-1 46.5" style="marker-end:none"/></g><g id="id3daf0281" class="Edge"  ><path    d="m235.5 335.5-1-59" style="marker-end:url(#memconversion000)"/><g id="f60b1" class="AB" transform="translate(235.1,311.9)"  ><g class="AB"/></g></g><g id="id3e08f39" class="Edge"  ><path    d="m257 176.25v-19.25h159.5v-23.5" style="marker-end:none"/></g><g id="id48331265" class="Edge"  ><path    d="m492 223.88-47-0.88" stroke-width="1.5" style="stroke:#f00;marker-end:url(#meminhibitionff0000white)"/></g><g id="id53aefa5c" class="Edge"  ><path    d="m147.5 433 0.5 34" style="marker-end:none"/></g><g id="id5a128648" class="Edge"  ><path    d="m503 152h-103v58.5" style="marker-end:none"/></g><g id="id865f394b" class="Edge"  ><path    d="m303 341.75 60-30.5" style="marker-end:url(#membinding000)"/></g><g id="id96120839" class="Edge"  ><path    d="m257 276.5 1 59" style="marker-end:url(#memconversion000)"/><g id="c4423" class="AB" transform="translate(257.4,300.1)"  ><g class="AB"/></g></g><g id="id8e566d1e" class="Edge"  ><path    d="m287 300-29.6 0.1" style="marker-end:url(#memcatalysis000)"/></g><g id="ida6b72457" class="Edge"  ><path    d="m453 311.25 41 2.88" stroke-dasharray="5,3" style="marker-end:url(#memconversion000)"/></g><g id="idac429ec" class="Edge"  ><path    d="m395 111 97 0.75" style="marker-end:url(#memconversion000)"/><g id="bac98" class="AB" transform="translate(433.8,111.3)"  ><g class="AB"/></g></g><g id="id6e472ad6" class="Edge"  ><path    d="m433 82.5 0.8 28.8" style="marker-end:url(#memcatalysis000)"/></g><g id="idadb1744e" class="Edge"  ><path    d="m303 354.25 61 35" style="marker-end:url(#membinding000)"/></g><g id="idba0916a" class="Edge"  ><path    d="m213 110.5 92 0.5" style="marker-end:url(#memconversion000)"/></g><g id="idbb55587" class="Edge"  ><path    d="m257 201.25v50.25" style="marker-end:url(#memconversion000)"/><g id="fa952" class="AB" transform="translate(257 221.35)"  ><g class="AB"/></g></g><g id="id548b6ab2" class="Edge"  ><path    d="m355 223-98-1.65" style="marker-end:url(#memstimulation000)"/></g><g id="idbf5a9cab" class="Edge"  ><path    d="m178 311 57.1 0.9" style="marker-end:url(#memcatalysis000)"/></g><g id="idd103f83c" class="Edge"  ><path    d="m147.5 401 2-77.5" stroke-width="2" style="stroke:#0f3;marker-end:url(#memstimulation00ff33white)"/></g><g id="idded1f3a" class="Edge"  ><path    d="m258 457 1 39.5" style="marker-end:url(#memstimulation000)"/></g><g id="idd51b8712" class="Edge"  ><path    d="m552 129.5-0.5 61" style="marker-end:url(#memconversion000)"/><g id="efa4a" class="AB" transform="translate(551.8,153.9)"  ><g class="AB"/></g></g><g id="id97daad93" class="Edge"  ><path    d="m454 389.25 67 45.25" stroke-dasharray="5,3" style="marker-end:url(#memconversion000)"/></g><g id="id27558b8f" class="Edge"  ><path    d="m212 264h-20v-27h-41" stroke-dasharray="5,3" style="marker-end:none"/></g><g id="id5ccfb732" class="Edge"  ><path    d="m573 154.75-21.2-0.85" style="marker-end:url(#memcatalysis000)"/></g><g id="a46eb" class=" PhysicalEntity CellularComponent Cell" transform="translate(480.5,74.5)"  ><g class=" PhysicalEntity CellularComponent Cell" filter="url(#doublefalse2filter)"><g class=" PhysicalEntity CellularComponent Cell"><rect   transform="matrix(0.96 0 0 0.93 3.83 3.73)" width="178.5" height="111.5" rx="15" ry="15" stroke-width="2" style="fill:transparent;stroke:#999"/></g></g></g><g id="c3f5f" class=" PhysicalEntity CellularComponent Cell" transform="translate(97,62)"  ><g class=" PhysicalEntity CellularComponent Cell" filter="url(#doublefalse2filter)"><g class=" PhysicalEntity CellularComponent Cell"><rect   transform="matrix(0.96 0 0 0.92 3.83 3.67)" width="184" height="90" rx="15" ry="15" stroke-width="2" style="fill:transparent;stroke:#999"/></g></g></g><g id="c4f29" class=" PhysicalEntity CellularComponent Cell" transform="translate(292,41)"  ><g class=" PhysicalEntity CellularComponent Cell" filter="url(#doublefalse2filter)"><g class=" PhysicalEntity CellularComponent Cell"><rect   transform="matrix(0.96 0 0 0.93 3.83 3.70)" width="178" height="100" rx="15" ry="15" stroke-width="2" style="fill:transparent;stroke:#999"/></g></g></g><g id="f05cc" class=" PhysicalEntity CellularComponent Organelle" transform="translate(173,165)"  ><g class=" PhysicalEntity CellularComponent Organelle" filter="url(#doublefalse2filter)"><g class=" PhysicalEntity CellularComponent Organelle"><rect   transform="matrix(0.95 0 0 0.96 3.81 3.86)" width="162" height="214" rx="15" ry="15" stroke-width="2" style="fill:transparent;stroke:#999"/></g></g></g><g id="a300f" class="Label" transform="translate(503,139.5)"  name="Kidney" ><g class="Label"/><text   transform="translate(22,12.5)"    >Kidney</text></g><g id="b70b0" class="Label" transform="translate(394,108.5)"  name="Liver" ><g class="Label"/><text   transform="translate(22.5,12.5)"    >Liver</text></g><g id="b8dbb" class="Label" transform="translate(200,91.5)"  name="UV (295-320 nm)" ><g class="Label"/><text   transform="translate(45,12.5)"     style="font-size:8px">UV (295-320 nm)</text></g><g id="c9abf" class="Label" transform="translate(474,549.5)"  name="HTN &amp; CVD" ><g class="Label"/><text   transform="translate(45,12.5)"    font-weight="bold"  style="fill:#ff0033;font-size:14px">HTN &amp; CVD</text></g><g id="e2e09" class="Label" transform="translate(781,326.5)"  name="SARS Cov-2 with genome" ><g class="Label"/><text   transform="translate(76.5,12.5)"    >SARS Cov-2 with genome</text></g><g id="e6494" class="Label" transform="translate(214,555.5)"  name="Diabetes" ><g class="Label"/><text   transform="translate(45,12.5)"    font-weight="bold"  style="fill:#f00;font-size:14px">Diabetes</text></g><g id="ed3c3" class="Label" transform="translate(88,178.5)"  name="Blood stream" ><g class="Label"/><text   transform="translate(45,12.5)"    >Blood stream</text></g><g id="f5af3" class="Label" transform="translate(161,39.5)"  name="Skin" ><g class="Label"/><text   transform="translate(21,12.5)"    >Skin</text></g><g id="fa45e" class="Label" transform="translate(103,467)"  name="Strong Immunity" ><g class="Label"/><text   transform="translate(45,19.75)"    font-weight="bold"  style="fill:#009933;font-size:14px"><tspan   x="0" y="-7.70">Strong</tspan><tspan   x="0" y="7.70">Immunity</tspan></text></g><g id="fae89" class="Label" transform="translate(784,273.5)"  name="SARS glycoprotein spike" ><g class="Label"/><text   transform="translate(74.5,12.5)"    >SARS glycoprotein spike</text></g><g id="pvjsgeneratedidfae8a" class="GroupGroup" transform="translate(486,289)"  ><g class="GroupGroup"><g id="c9bd7" class="Label" transform="translate(8,15.5)"  name="&amp; anti-proliferation" ><g class="Label"/><text   transform="translate(53,19.25)"    >&amp; anti-proliferation</text></g><g id="b2235" class="Pathway" transform="translate(18,8)"  name="Vasodilation" ><g class="Pathway"/><g ><defs><clipPath ><rect x="-44" y="-13.25" width="88" height="26.5" style="stroke:none"/></clipPath></defs><text   transform="translate(44,13.25)"    font-weight="bold"  style="fill:#14961e">Vasodilation</text></g></g></g></g><g id="dcb4b" class="GroupGroup" transform="translate(429,434.5)"  ><g class="GroupGroup"><g id="f1e1f" class="Label" transform="translate(8,42.5)"  name="Increase in Na, K retention,  Increase vasoconstriction" ><g class="Label"/><text   transform="translate(83,13)"    ><tspan   x="0" y="-6.60">Increase in Na, K retention, </tspan><tspan   x="0" y="6.60">Increase vasoconstriction</tspan></text></g><g id="ad27a" class="Pathway" transform="translate(13,23)"  name="cytokines and inflammation" ><g class="Pathway"/><g ><defs><clipPath ><rect x="-81.5" y="-12.5" width="163" height="25" style="stroke:none"/></clipPath></defs><text   transform="translate(81.5,12.5)"    font-weight="bold"  style="fill:#14961e">cytokines and inflammation</text></g></g><g id="b3b49" class="Pathway" transform="translate(50,8)"  name="ROS production" ><g class="Pathway"/><g ><defs><clipPath ><rect x="-45" y="-12.5" width="90" height="25" style="stroke:none"/></clipPath></defs><text   transform="translate(45,12.5)"    font-weight="bold"  style="fill:#14961e">ROS production</text></g></g></g></g><g id="a1790" class="Protein" transform="translate(212,176.25)"  name="Angiotensinogen" ><rect   width="90" height="25"/><text   transform="translate(45,12.5)"     style="font-size:10px">Angiotensinogen</text></g><g id="a5202" class="Metabolite " transform="translate(214,496.5)"  name="aldosterone" ><rect   width="90" height="25"/><text   transform="translate(45,12.5)"    >aldosterone</text></g><g id="b5fb4" class="Metabolite " transform="translate(492,94)"  name="25-hydroxycholecalciferol" ><rect   width="120" height="35.5" style="stroke:#00f"/><text   transform="translate(60,17.75)"     style="fill:#00f;font-size:10px">25-hydroxycholecalciferol</text></g><g id="b6557" class="Metabolite " transform="translate(212,251.5)"  name="angiotensin I" ><rect   width="90" height="25" style="stroke:#039"/><text   transform="translate(45,12.5)"     style="fill:#003399">angiotensin I</text></g><g id="b8b94" class="Metabolite " transform="translate(108,94)"  name="7-Dehydrocholesterol" ><rect   width="105" height="33" style="stroke:#00f"/><text   transform="translate(52.5,16.5)"     style="fill:#00f;font-size:10px">7-Dehydrocholesterol</text></g><g id="ba70a" class="Protein" transform="translate(364,366.5)"  name="Type-1  angiotensin II  receptor" ><rect   width="90" height="45.5"/><text   transform="translate(45,22.75)"    ><tspan   x="0" y="-13.20">Type-1 </tspan><tspan   x="0" y="0">angiotensin II </tspan><tspan   x="0" y="13.20">receptor</tspan></text></g><g id="bac0d" class="Metabolite " transform="translate(305,98.5)"  name="Cholecalciferol" ><rect   width="90" height="25" style="stroke:#00f"/><text   transform="translate(45,12.5)"     style="fill:#00f;font-size:10px">Cholecalciferol</text></g><g id="bf73a" class="Protein" transform="translate(363,288.5)"  name="Type-2  angiotensin II  receptor" ><rect   width="90" height="45.5"/><text   transform="translate(45,22.75)"    ><tspan   x="0" y="-13.20">Type-2 </tspan><tspan   x="0" y="0">angiotensin II </tspan><tspan   x="0" y="13.20">receptor</tspan></text></g><g id="c9f22" class="Protein" transform="translate(388,57.5)"  name="25-hydroxylase" ><rect   width="90" height="25"/><text   transform="translate(45,12.5)"    >25-hydroxylase</text></g><g id="cf765" class="Metabolite " transform="translate(87,401)"  name="1,25-dihydroxycholecalciferol" ><rect   width="121" height="32" style="stroke:#00f"/><text   transform="translate(60.5,16)"     style="fill:#00f;font-size:8px">1,25-dihydroxycholecalciferol</text></g><g id="d0017" class="Protein" transform="translate(213,403.5)"  name="Renal Type-1  angiotensin II  receptor" ><rect   width="90" height="53.5"/><text   transform="translate(45,26.75)"    ><tspan   x="0" y="-13.20">Renal Type-1 </tspan><tspan   x="0" y="0">angiotensin II </tspan><tspan   x="0" y="13.20">receptor</tspan></text></g><g id="d0302" class="Protein" transform="translate(140,298.5)"  name="ACE2" ><rect   width="38" height="25"/><text   transform="translate(19,12.5)"    >ACE2</text></g><g id="d414a" class="Protein" transform="translate(355,210.5)"  name="Renin" ><rect   width="90" height="25"/><text   transform="translate(45,12.5)"    >Renin</text></g><g id="dba94" class="Metabolite " transform="translate(213,335.5)"  name="Angiotensin II" ><rect   width="90" height="25" style="stroke:#039"/><text   transform="translate(45,12.5)"     style="fill:#003399">Angiotensin II</text></g><g id="e5ceb" class="Protein" transform="translate(573,140.5)"  name="1-alpha- hydroxylase" ><rect   width="73" height="28.5"/><text   transform="translate(36.5,14.25)"    ><tspan   x="0" y="-6.60">1-alpha-</tspan><tspan   x="0" y="6.60">hydroxylase</tspan></text></g><g id="e935e" class="Protein" transform="translate(287,287.5)"  name="ACE" ><rect   width="29" height="25"/><text   transform="translate(14.5,12.5)"    >ACE</text></g><g id="b708b" class="GroupComplex" transform="translate(480,190.5)"  ><g class="GroupComplex"><use class="Icon" width="143" height="81.25" fill="#b4b464" fill-opacity=".1" stroke="grey" href="#Octagon"/><g id="ac92f" class="Metabolite " transform="translate(12,12)"  name="1,25-dihydroxycholecalciferol" ><rect   width="116" height="28.5" style="stroke:#00f"/><text   transform="translate(58,14.25)"     style="fill:#00f;font-size:8px">1,25-dihydroxycholecalciferol</text></g><g id="b5eea" class="Metabolite " transform="translate(12,44.25)"  name="vitamin D receptor  agonists" ><rect   width="119" height="25" style="stroke:#00f"/><text   transform="translate(59.5,12.5)"     style="fill:#00f;font-size:10px"><tspan   x="0" y="-5.5">vitamin D receptor </tspan><tspan   x="0" y="5.5">agonists</tspan></text></g></g></g><g id="ec2ea" class="GroupGroup" transform="translate(39,202.5)"  ><g class="GroupGroup"><g id="b9bc7" class="Pathway" transform="translate(13,8)"  name="Apoptosis" ><g class="Pathway"/><g ><defs><clipPath ><rect x="-45" y="-12.5" width="90" height="25" style="stroke:none"/></clipPath></defs><text   transform="translate(45,12.5)"    font-weight="bold"  style="fill:#14961e">Apoptosis</text></g></g><g id="d5e1b" class="Pathway" transform="translate(8,36)"  name="Fibrosis" ><g class="Pathway"/><g ><defs><clipPath ><rect x="-45" y="-12.5" width="90" height="25" style="stroke:none"/></clipPath></defs><text   transform="translate(45,12.5)"    font-weight="bold"  style="fill:#14961e">Fibrosis</text></g></g><g id="ee219" class="Pathway" transform="translate(14,22)"  name="Inflammation" ><g class="Pathway"/><g ><defs><clipPath ><rect x="-45" y="-12.5" width="90" height="25" style="stroke:none"/></clipPath></defs><text   transform="translate(45,12.5)"    font-weight="bold"  style="fill:#14961e">Inflammation</text></g></g></g></g><g id="a55b9" class="" transform="translate(710,276)"  name="S" ><g class=""><use class=" Node Icon" width="72" height="18" fill="#ff6666" stroke="#000" href="#Ellipse"/></g><g ><defs><clipPath ><rect x="-36" y="-9" width="72" height="18" style="stroke:none"/></clipPath></defs><text   transform="translate(36,9)"    font-weight="bold" >S</text></g></g><g id="ec2ec" class="Edge"  ><path    d="m108.4 311.04 31.60-0.04" stroke-width="1.5" style="stroke:#f00;marker-end:url(#meminhibitionff0000white)"/></g><g id="a32e2" class="GroupGroup" transform="translate(16,274)"  ><g class="GroupGroup"><g id="ea6e9" class="" transform="translate(35.65 20.56) rotate(36.53 16.62 13.97)"  ><g class=""><use class=" Node Icon" width="33.24" height="27.95" fill="transparent" stroke="#f00" stroke-width="2" href="#ArcPathVisio"/></g></g><g id="abd01" class="" transform="translate(47.12 28.76) rotate(88.99 29.26 7.5)"  name="S" ><g class=""><use class=" Node Icon" width="58.51" height="15" fill="#ff6666" stroke="#000" href="#Ellipse"/></g><g ><defs><clipPath ><rect x="-29.26" y="-7.5" width="58.51" height="15" style="stroke:none"/></clipPath></defs><text   transform="translate(29.26 7.5) rotate(-88.99)"    font-weight="bold" >S</text></g></g><g id="efc5a" class="" transform="translate(8 8) rotate(1.37 30.25 29.25)"  ><g class=""><use class=" Node Icon" width="60.5" height="58.5" fill="transparent" stroke="#000" href="#Ellipse"/></g></g></g></g><g id="pvjsgeneratedidfae8b" class="GroupGroup" transform="translate(710,304)"  ><g class="GroupGroup"><g id="d2e71" class="" transform="translate(8 8) rotate(1.37 29.39 26.05)"  ><g class=""><use class=" Node Icon" width="58.77" height="52.10" fill="transparent" stroke="#000" href="#Ellipse"/></g></g><g id="d4b59" class="" transform="translate(32.91 19.80) rotate(36.53 17.22 14.00)"  ><g class=""><use class=" Node Icon" width="34.43" height="28.01" fill="transparent" stroke="#f00" stroke-width="2" href="#ArcPathVisio"/></g></g></g></g></g></g></g></svg>