<?xml version="1.0" encoding="UTF-8"?>
<svg xmlns="http://www.w3.org/2000/svg" id="-svg" class="Diagram"  baseProfile="full" prefix="schema:http://schema.org/" preserveAspectRatio="xMidYMid"  version="1.1"><defs><g id="icon-defs"><symbol id="Ellipse" class=" Icon Ellipse" x="0" y="0" overflow="visible" preserveAspectRatio="none" viewBox="0 0 50 50"><desc>Ellipse</desc><ellipse cx="25" cy="25" rx="25" ry="25" vector-effect="non-scaling-stroke"/></symbol></g><g id="marker-defs"><marker id="memstimulation000" markerHeight="12" markerWidth="12" orient="auto" preserveAspectRatio="none" refX="12" refY="6" viewBox="0 0 12 12"><g id="g-memstimulation000" transform=""><g transform="rotate(180 6 6)"><rect y="5.4" width="2" height="1.2" style="stroke:none"/><line x1="12" x2="12" y1="6" y2="6" fill="none"/><polygon points="0 6 11 11 11 1" fill="#fff" stroke="#000"/></g></g></marker><marker id="memconversion000" markerHeight="12" markerWidth="12" orient="auto" preserveAspectRatio="none" refX="12" refY="6" viewBox="0 0 12 12"><g id="g-memconversion000" transform=""><g transform="rotate(180 6 6)"><rect y="5.4" width="2" height="1.2" style="stroke:#fff"/><polygon points="12 11 0 6 12 1" stroke-width="0"/></g></g></marker><marker id="memcatalysis000" markerHeight="12" markerWidth="12" orient="auto" preserveAspectRatio="none" refX="12" refY="6" viewBox="0 0 12 12"><g id="g-memcatalysis000" transform=""><g transform="rotate(180 6 6)"><circle cx="6" cy="6" r="5.3px" fill="#fff" stroke="#000"/></g></g></marker><marker id="meminhibition000" markerHeight="20" markerWidth="10" orient="auto" preserveAspectRatio="none" refX="10" refY="10" viewBox="0 0 10 20"><g id="g-meminhibition000" transform=""><g transform="rotate(180 5 10)"><rect y="9" width="8" height="2" style="stroke:none"/><line x="0" y="0" width="12" height="12" x1="7" x2="7" y2="20" stroke="#000" stroke-width="1.8"/></g></g></marker><marker id="markerendtbar000" markerHeight="20" markerWidth="10" orient="auto" preserveAspectRatio="none" refX="10" refY="10" viewBox="0 0 10 20"><g id="g-markerendtbar000" transform=""><g transform="rotate(180 5 10)"><rect y="9" width="8" height="2" style="stroke:none"/><line x="0" y="0" width="12" height="12" x1="7" x2="7" y2="20" stroke="#000" stroke-width="1.8"/></g></g></marker><marker id="membinding000" markerHeight="12" markerWidth="12" orient="auto" preserveAspectRatio="none" refX="12" refY="6" viewBox="0 0 12 12"><g id="g-membinding000" transform=""><g transform="rotate(180 6 6)"><rect y="5.4" width="2" height="1.2" style="stroke:#fff"/><polygon points="12 12 0 6 12 0 5 6" stroke-width="0"/></g></g></marker><marker id="mea" markerHeight="12" markerWidth="12" orient="auto" preserveAspectRatio="none" refX="12" refY="6" viewBox="0 0 12 12"><g id="g-mea" transform=""><g transform="rotate(180 6 6)"><rect y="5.4" width="2" height="1.2" style="stroke:#fff"/><polygon points="12 11 0 6 12 1" stroke-width="0"/></g></g></marker></g></defs><g id="viewport-20220102145323103" class="svg-pan-zoom_viewport" transform="matrix(0.59 0 0 0.59 93.71 0)" style="transform:matrix(0.59, 0, 0, 0.59, 93.71, 0)"><style>svg.Diagram {font-family: 'Liberation Sans', Arial, sans-serif; }.Diagram path {fill: transparent;stroke: #000;marker-end: url(#mea);}.Diagram symbol path {fill: inherit;stroke: inherit;stroke-width: inherit;marker-end: inherit;}.Diagram rect {fill: #fff;stroke: #000;}.Diagram text {dominant-baseline: central;overflow: hidden;text-anchor: middle;fill: #000;font-size: 12px;}</style><style type="text/css">.Viewport .textContent {
  pointer-events: none;
  stroke-width: 0px;
}

					.Viewport.Icon {
  fill: white;
}

/* Hide the InfoBox */
.Viewport.textContent {
  font-size: 0;
}

.textContent {
  stroke: none;
}

.DataNode {
  stroke-miterlimit: 1;
  pointer-events: auto;
}

.DataNode:hover {
  cursor: pointer;
}

/* TODO should this apply to things other than DataNodes? */
.DataNode.textContent {
  pointer-events: none;
}

.DataNode.Highlighted {
  opacity: 0.6;
  stroke-width: 0px;
}

marker {
  /* this is what should work per the spec
  stroke-dasharray: none; */
  /* but I need to add this to make it work in Safari */
  stroke-dasharray: 9999999999999999999999999;
}

.Citation.Icon {
  fill: none;
  stroke-width: 0px;
}

.Citation.textContent {
  text-align: center;
  vertical-align: top;
  font-size: 7px;
  fill: #999;
  fill-opacity: 1;
  stroke: none;
}</style><g id="WP5121" class="Pathway http___identifiers_org_pw_PW_0000651 http___identifiers_org_pw_PW_0000197 Viewport"  name="Name: Sphingolipid metabolism in senescence Organism: Homo sapiens" ><g class="Pathway http___identifiers_org_pw_PW_0000651 http___identifiers_org_pw_PW_0000197 Viewport"><rect   width="1725" height="1216.3" style="stroke:none"/><g id="f3a1f" class="" transform="translate(758.58 375)"  ><g class=""><rect   width="890.66" height="399" rx="15" ry="15" style="fill:#ffc"/></g></g><g id="ec745" class="" transform="translate(18.76 322.46)"  ><g class=""><rect   width="652.63" height="473.55" rx="15" ry="15" style="fill:#fcc"/></g></g><g id="cce58" class="" transform="translate(456.97 2.68)"  ><g class=""><rect   width="909.92" height="309.56" rx="15" ry="15" style="fill:#cfc"/></g></g><g id="id17ec69ce" class="Edge"  ><path    d="m830.48 843.22 103.86-0.17" style="marker-end:url(#memstimulation000)"/></g><g id="id1888070" class="Edge"  ><path    d="m974.76 76.36h-153.29" style="marker-end:url(#memconversion000)"/><g id="d8f09" class="AB" transform="translate(913.45 76.36)"  ><g class="AB"/></g></g><g id="id1f3a9312" class="Edge"  ><path    d="m1085.1 554.09 150.99-1e-13" style="marker-end:url(#memconversion000)"/><g id="e0e90" class="AB" transform="translate(1126 554.09)"  ><g class="AB"/></g></g><g id="id29b3f30a" class="Edge"  ><path    d="m131 164.5 0.16 498.38" style="marker-end:url(#memstimulation000)"/></g><g id="id2c8ed164" class="Edge"  ><path    d="m1357 430.76-0.85-76.07" style="marker-end:url(#memstimulation000)"/></g><g id="id363c9527" class="Edge"  ><path    d="m785.48 830.72 103.7-402.13" style="marker-end:url(#memstimulation000)"/></g><g id="id4cd2ab94" class="Edge"  ><path    d="m987.06 1036 167.94 2e-13" style="marker-end:url(#memconversion000)"/><g id="e64cb" class="AB" transform="translate(1063.3 1036)"  ><g class="AB"/></g></g><g id="id2895989b" class="Edge"  ><path    d="m1062.6 560.34 0.71 475.65" style="marker-end:url(#memstimulation000)"/></g><g id="id4fc1c872" class="Edge"  ><path    d="m1238 1029.7 367-0.99" style="marker-end:url(#memstimulation000)"/></g><g id="id581004e2" class="Edge"  ><path    d="m785.48 855.72v272.28h-692.48v-573.44h141.22" style="marker-end:url(#memstimulation000)"/></g><g id="id59670532" class="Edge"  ><path    d="m253 164.5 3.95 241.11" style="marker-end:url(#memstimulation000)"/></g><g id="id5cb7e8c5" class="Edge"  ><path    d="m1196.5 1042.2 0.25 46.20" style="marker-end:url(#markerendtbar000)"/></g><g id="id5d216b30" class="Edge"  ><path    d="m1356.7 535.34 0.32-79.58" style="marker-end:url(#membinding000)"/><g id="d8645" class="AB" transform="translate(1356.8 503.34)"  ><g class="AB"/></g></g><g id="id63c0c206" class="Edge"  ><path    d="m280.38 601.18 252.65-47.09" style="marker-end:url(#memconversion000)"/><g id="c2ce9" class="AB" transform="translate(423.22 574.55)"  ><g class="AB"/></g></g><g id="id4585dd4e" class="Edge"  ><path    d="m316.95 542.06 106.27 32.50" style="marker-end:url(#memcatalysis000)"/></g><g id="id63f5ef1b" class="Edge"  ><path    d="m870.62 1076.3-62.64-220.61" style="marker-end:url(#memstimulation000)"/></g><g id="id69c47f1b" class="Edge"  ><path    d="m913.43 41.41 0.01 34.95" style="marker-end:url(#memcatalysis000)"/></g><g id="id6dbb03e8" class="Edge"  ><path    d="m1396.9 547.84 59.94 3e-13" style="marker-end:url(#memstimulation000)"/></g><g id="id6f588d91" class="Edge"  ><path    d="m1236.1 541.59-150.99 1e-13" style="marker-end:url(#memconversion000)"/><g id="aab80" class="AB" transform="translate(1135.4 541.59)"  ><g class="AB"/></g></g><g id="id1f044c92" class="Edge"  ><path    d="m1135.4 502.93-0.05 38.66" style="marker-end:url(#memcatalysis000)"/></g><g id="id6ffb4c11" class="Edge"  ><path    d="m695.03 554.09 67.95 276.63" style="marker-end:url(#memstimulation000)"/></g><g id="id7269bbcd" class="Edge"  ><path    d="m1555.7 560.34 0.10 98.61" style="marker-end:url(#memstimulation000)"/></g><g id="id7eb211c3" class="Edge"  ><path    d="m1196.8 1113.4-0.22 42.90" style="marker-end:url(#memstimulation000)"/></g><g id="id8a4a19cf" class="Edge"  ><path    d="m573.53 535.34-148.62-64.12" style="marker-end:url(#memconversion000)"/><g id="f6b1f" class="AB" transform="translate(514.08 509.69)"  ><g class="AB"/></g></g><g id="id435a224d" class="Edge"  ><path    d="m514.37 366.64-0.28 143.05" style="marker-end:url(#memcatalysis000)"/></g><g id="id9c9f3da0" class="Edge"  ><path    d="m695.03 554.09h300.1" style="marker-end:url(#memconversion000)"/><g id="aa014" class="AB" transform="translate(913.26 554.09)"  ><g class="AB"/></g></g><g id="ida022bed1" class="Edge"  ><path    d="m995.12 541.59h-300.1" style="marker-end:url(#memconversion000)"/><g id="feb6a" class="AB" transform="translate(888.89 541.59)"  ><g class="AB"/></g></g><g id="ida2fc4d74" class="Edge"  ><path    d="m1555.8 699.51-0.14 48.81" style="marker-end:url(#memstimulation000)"/></g><g id="ida7d7e6ed" class="Edge"  ><path    d="m807.98 830.72-1e-13 -31.39c1e-13 -31.39 1e-13 -94.18 45.65-125.58 45.65-31.39 136.94-31.39 182.59-31.39h45.65" style="marker-end:url(#meminhibition000)"/></g><g id="idaf45a802" class="Edge"  ><path    d="m1276.3 535.34v-119.25h-305.97" style="marker-end:url(#meminhibition000)"/></g><g id="idb535ade5" class="Edge"  ><path    d="m574.25 41.41-0.11 81.85" style="marker-end:url(#memstimulation000)"/></g><g id="idb91542c4" class="Edge"  ><path    d="m731.97 88.86-77.71 117.58" style="marker-end:url(#memconversion000)"/><g id="f46f4" class="AB" transform="translate(700.89 135.89)"  ><g class="AB"/></g></g><g id="id7919b2f1" class="Edge"  ><path    d="m619.14 135.75 81.75 0.14" style="marker-end:url(#memcatalysis000)"/></g><g id="idbea82c8" class="Edge"  ><path    d="m1126.9 636.11-0.86-82.02" style="marker-end:url(#memcatalysis000)"/></g><g id="idc1268597" class="Edge"  ><path    d="m889.18 428.59-0.29 113" style="marker-end:url(#memcatalysis000)"/></g><g id="idd2fe7011" class="Edge"  ><path    d="m378.88 471.22 154.15 70.37" style="marker-end:url(#memconversion000)"/><g id="a3422" class="AB" transform="translate(456.59 506.69)"  ><g class="AB"/></g></g><g id="id7a6516df" class="Edge"  ><path    d="m332.92 506.97 123.67-0.28" style="marker-end:url(#memcatalysis000)"/></g><g id="idda43f68b" class="Edge"  ><path    d="m314 158.25 106.77 189.64" style="marker-end:url(#meminhibition000)"/></g><g id="iddac8811f" class="Edge"  ><path    d="m192 164.5 1.11 336.22" style="marker-end:url(#memstimulation000)"/></g><g id="ide09f941a" class="Edge"  ><path    d="m1672.5 1022.5v-20h0.5v-499.16h-316.2" style="marker-end:url(#memstimulation000)"/></g><g id="ide5ba4afc" class="Edge"  ><path    d="m1155 1023.5-167.94-2e-13" style="marker-end:url(#memconversion000)"/><g id="ad1ad" class="AB" transform="translate(1038.3 1023.5)"  ><g class="AB"/></g></g><g id="ide9ee496d" class="Edge"  ><path    d="m654.26 222.94 0.27 312.4" style="marker-end:url(#membinding000)"/><g id="a1dce" class="AB" transform="translate(654.31 287.96)"  ><g class="AB"/></g></g><g id="idad9605c3" class="Edge"  ><path    d="m609.95 287.72 44.37 0.24" style="marker-end:url(#memcatalysis000)"/></g><g id="idf729eabf" class="Edge"  ><path    d="m379.1 399.48-0.22 46.74" style="marker-end:url(#memconversion000)"/><g id="c5836" class="AB" transform="translate(379.01 418.17)"  ><g class="AB"/></g></g><g id="id3d0767a7" class="Edge"  ><path    d="m301.95 418.11 77.06 0.07" style="marker-end:url(#memcatalysis000)"/></g><g id="idfd0746de" class="Edge"  ><path    d="m913.91 591.25-0.65-37.16" style="marker-end:url(#memcatalysis000)"/></g><g id="idffc48859" class="Edge"  ><path    d="m614.03 535.34v-145.44h892.21v145.44" style="marker-end:url(#meminhibition000)"/></g><g id="id9d02c99c" class="Edge"  ><path    d="m981.47 861.8 0.41 37.63" style="marker-end:url(#meminhibition000)"/></g><g id="idd6ff78ba" class="Edge"  ><path    d="m1008.4 970.82 29.89 52.67" style="marker-end:url(#memstimulation000)"/></g><g id="id9a9842bb" class="Edge"  ><path    d="m1253.8 75.12-84.89 1.24" style="marker-end:url(#memconversion000)"/><g id="b360a" class="AB" transform="translate(1212.8 75.72)"  ><g class="AB"/></g></g><g id="id3aa1d057" class="Edge"  ><path    d="m1316.6 857.83-0.11 37.50" style="marker-end:url(#memstimulation000)"/></g><g id="id7eb0e27c" class="Edge"  ><path    d="m1211.6 41.41 1.19 34.31" style="marker-end:url(#memcatalysis000)"/></g><g id="ida83e0770" class="Edge"  ><path    d="m614.46 597.54 0.16 110.29"/><g id="b0082" class="AB" transform="translate(614.54 655.48)"  ><g class="AB"/></g><g id="a0595" class="AB" transform="translate(614.56 669.21)"  ><g class="AB"/></g></g><g id="idd1ee43fb" class="Edge"  ><path    d="m525.03 579.99-210.47 27.44" style="marker-end:url(#memconversion000)"/><g id="e59e3" class="AB" transform="translate(440.84 590.96)"  ><g class="AB"/></g></g><g id="id2bbcfd87" class="Edge"  ><path    d="m614.82 947.44 36.86 87.16" style="marker-end:url(#memstimulation000)"/></g><g id="id69c5f085" class="Edge"  ><path    d="m762.98 855.72-58.30 178.88" style="marker-end:url(#memstimulation000)"/></g><g id="id2b5dddcf" class="Edge"  ><path    d="m221.16 669.13 219.68-78.17" style="marker-end:url(#memcatalysis000)"/></g><g id="ideb6467e0" class="Edge"  ><path    d="m221.16 669.13 393.4 0.08" style="marker-end:url(#memcatalysis000)"/></g><g id="id4d575883" class="Edge"  ><path    d="m698.08 843.39 42.40-0.17" style="marker-end:url(#memstimulation000)"/></g><g id="id93616527" class="Edge"  ><path    d="m614.54 876.39 0.28 46.05" style="marker-end:url(#memstimulation000)"/></g><g id="idc47f4646" class="Edge"  ><path    d="m614.62 732.82-0.08 77.56" style="marker-end:url(#memstimulation000)"/></g><g id="id247a9eea" class="Edge"  ><path    d="m1316.9 717.39-0.23 49.45" style="marker-end:url(#memstimulation000)"/></g><g id="id819cb182" class="Edge"  ><path    d="m1316.5 560.34 0.38 91.05" style="marker-end:url(#membinding000)"/><g id="a98a5" class="AB" transform="translate(1316.6 596.76)"  ><g class="AB"/></g></g><g id="id6d99682a" class="Edge"  ><path    d="m1010.2 754.15h8.85c8.85 0 26.54 0 35.39 46.97 8.85 46.97 8.85 140.92 8.85 187.9v46.97" style="marker-end:url(#memstimulation000)"/></g><g id="idba613c47" class="Edge"  ><path    d="m695.03 554.09 209.22 167.98" style="marker-end:url(#memstimulation000)"/></g><g id="ideb8b7f38" class="Edge"  ><path    d="m1010.2 738.11 261.38 99.22" style="marker-end:url(#meminhibition000)"/></g><g id="idfd01d9f1" class="Edge"  ><path    d="m957.25 770.19 0.66 66.61" style="marker-end:url(#memstimulation000)"/></g><g id="id37f3d838" class="Edge"  ><path    d="m1650 1022.5-333.37-425.74" style="marker-end:url(#meminhibition000)"/></g><g id="a5947" class="" transform="translate(826.48 1076.3)"  name="DNA damage" ><g class=""><rect   width="88.28" height="42.88" rx="15" ry="15"/></g><g ><defs><clipPath ><rect x="-44.14" y="-21.44" width="88.28" height="42.88" style="stroke:none"/></clipPath></defs><text   transform="translate(44.14 21.44)"    >DNA damage</text></g></g><g id="baeb8" class="" transform="translate(1296.2 324.7)"  name="Cytokine release" ><g class=""><rect   width="119.94" height="30" rx="15" ry="15" style="fill:transparent"/></g><g ><defs><clipPath ><rect x="-59.97" y="-15" width="119.94" height="30" style="stroke:none"/></clipPath></defs><text   transform="translate(59.97 15)"    >Cytokine release</text></g></g><g id="be8fc" class="" transform="translate(1117.1 1156.3)"  name="Proliferation" ><g class=""><rect   width="158.88" height="30" rx="15" ry="15" style="fill:transparent"/></g><g ><defs><clipPath ><rect x="-79.44" y="-15" width="158.88" height="30" style="stroke:none"/></clipPath></defs><text   transform="translate(79.44 15)"    >Proliferation</text></g></g><g id="bf90f" class="" transform="translate(1487.2 748.31)"  name="Senescence escape" ><g class=""><rect   width="136.91" height="31.98" rx="15" ry="15" style="fill:transparent"/></g><g ><defs><clipPath ><rect x="-68.46" y="-15.99" width="136.91" height="31.98" style="stroke:none"/></clipPath></defs><text   transform="translate(68.46 15.99)"    >Senescence escape</text></g></g><g id="ed251" class="" transform="translate(1480.5 658.95)"  name="Telomere maintainance" ><g class=""><rect   width="150.62" height="40.56" rx="15" ry="15"/></g><g ><defs><clipPath ><rect x="-75.31" y="-20.28" width="150.62" height="40.56" style="stroke:none"/></clipPath></defs><text   transform="translate(75.31 20.28)"    >Telomere maintainance</text></g></g><g id="b734a" class="GroupGroup" transform="translate(1254.8 766.83)"  ><g class="GroupGroup"><g id="bbab3" class="" transform="translate(8 59.08)"  ><g class=""><rect   width="107.59" height="23.15" rx="15" ry="15" style="fill:transparent"/></g></g><g id="e67c7" class="GeneProduct " transform="translate(16.80 58)"  name="MTOR" ><g class="GeneProduct "/><text   transform="translate(45,12.5)"    font-weight="bold"  style="fill:#14961e">MTOR</text></g><g id="fc6b0" class="GeneProduct " transform="translate(16.80 33)"  name="MAPK1" ><rect   width="90" height="25"/><text   transform="translate(45,12.5)"    >MAPK1</text></g><g id="ff8eb" class="Protein" transform="translate(16.80 8)"  name="PLC" ><rect   width="90" height="25"/><text   transform="translate(45,12.5)"    >PLC</text></g></g></g><g id="ebe27" class="Label" transform="translate(1211.4 272.94)"  name="de novo biosynthesis" ><g class="Label"/><text   transform="translate(74.09 12.5)"    font-style="italic" >de novo biosynthesis</text></g><g id="a216d" class="GeneProduct " transform="translate(569.82 922.44)"  name="P38" ><rect   width="90" height="25"/><text   transform="translate(45,12.5)"    >P38</text></g><g id="a574f" class="GeneProduct " transform="translate(1081.9 636.11)"  name="SPHK1" ><rect   width="90" height="25"/><text   transform="translate(45,12.5)"    >SPHK1</text></g><g id="a746f" class="Protein" transform="translate(1456.8 535.34)"  name="Telomerase reverse transcriptase" ><rect   width="197.78" height="25"/><text   transform="translate(98.89 12.5)"    >Telomerase reverse transcriptase</text></g><g id="a7dea" class="Metabolite " transform="translate(974.76 63.86)"  name="3-ketodihydrosphingosine" ><rect   width="194.16" height="25" style="stroke:#00f"/><text   transform="translate(97.08 12.5)"     style="fill:#00f">3-ketodihydrosphingosine</text></g><g id="abb30" class="Metabolite " transform="translate(309.53 374.48)"  name="lactosylceramide" ><rect   width="139.14" height="25" style="stroke:#00f"/><text   transform="translate(69.57 12.5)"     style="fill:#00f">lactosylceramide</text></g><g id="ac389" class="Protein" transform="translate(796.93 11.40)"  name="3-ketodihydrosphingosine reductase" ><rect   width="233" height="30.00"/><text   transform="translate(116.5 15.00)"    >3-ketodihydrosphingosine reductase</text></g><g id="aecbf" class="Metabolite " transform="translate(1236.1 535.34)"  name="Sphingosine-1-phosphate" ><rect   width="160.74" height="25" style="stroke:#00f"/><text   transform="translate(80.37 12.5)"     style="fill:#00f">Sphingosine-1-phosphate</text></g><g id="b2878" class="GeneProduct " transform="translate(1312 430.76)"  name="S1PR2" ><rect   width="90" height="25"/><text   transform="translate(45,12.5)"    >S1PR2</text></g><g id="b4a44" class="GeneProduct " transform="translate(1155 1017.2)"  name="RB1" ><rect   width="83" height="25"/><text   transform="translate(41.5,12.5)"    >RB1</text></g><g id="ba608" class="GeneProduct " transform="translate(529.14 123.25)"  name="CERS4" ><rect   width="90" height="25"/><text   transform="translate(45,12.5)"    >CERS4</text></g><g id="bba3a" class="Metabolite " transform="translate(642.47 63.86)"  name="C18-dihydrosphingosine" ><rect   width="179" height="25" style="stroke:#00f"/><text   transform="translate(89.5,12.5)"     style="fill:#00f">C18-dihydrosphingosine</text></g><g id="c8355" class="Metabolite " transform="translate(286.8 446.22)"  name="Glucosylceramide" ><rect   width="184.14" height="25" style="stroke:#00f"/><text   transform="translate(92.07 12.5)"     style="fill:#00f">Glucosylceramide</text></g><g id="cb147" class="Protein" transform="translate(193.11 494.47)"  name="Glucosylceramidase" ><rect   width="139.8" height="25"/><text   transform="translate(69.90 12.5)"    >Glucosylceramidase</text></g><g id="d33c1" class="Pathway" transform="translate(479.11 11.40)"  name="Oncogene induced senescence" ><g class="Pathway"><rect   width="190.26" height="30.00" rx="15" ry="15" style="stroke:#14961e"/></g><g ><defs><clipPath ><rect x="-95.13" y="-15.00" width="190.26" height="30.00" style="stroke:none"/></clipPath></defs><text   transform="translate(95.13 15.00)"    font-weight="bold"  style="fill:#14961e">Oncogene induced senescence</text></g></g><g id="dd11b" class="GeneProduct " transform="translate(131.16 656.63)"  name="SGMS2" ><rect   width="90" height="25"/><text   transform="translate(45,12.5)"    >SGMS2</text></g><g id="dde0a" class="Metabolite " transform="translate(573.76 206.44)"  name="Dihydroceramides" ><rect   width="161" height="16.5" style="stroke:#00f"/><text   transform="translate(80.5,8.25)"     style="fill:#00f">Dihydroceramides</text></g><g id="e15e0" class="Protein" transform="translate(934.34 836.8)"  name="p21" ><rect   width="94.26" height="25"/><text   transform="translate(47.13 12.5)"    >p21</text></g><g id="e1a7a" class="Metabolite " transform="translate(740.48 830.72)"  name="p53" ><rect   width="90" height="25"/><text   transform="translate(45,12.5)"    >p53</text></g><g id="e2072" class="GeneProduct " transform="translate(234.22 542.06)"  name="Neutral sphingomyelinase 2" ><rect   width="165.48" height="25"/><text   transform="translate(82.74 12.5)"    >Neutral sphingomyelinase 2</text></g><g id="e3790" class="GeneProduct " transform="translate(1090.4 477.93)"  name="SGPP1" ><rect   width="90" height="25"/><text   transform="translate(45,12.5)"    >SGPP1</text></g><g id="e4717" class="Protein" transform="translate(420.77 341.64)"  name="Ceramide glucosyltransferase" ><rect   width="187.2" height="25"/><text   transform="translate(93.60 12.5)"    >Ceramide glucosyltransferase</text></g><g id="e76ac" class="Pathway" transform="translate(70,139.5)"  name="Senescence" ><g class="Pathway"><rect   width="244" height="25" rx="15" ry="15" style="stroke:#14961e"/></g><g ><defs><clipPath ><rect x="-122" y="-12.5" width="244" height="25" style="stroke:none"/></clipPath></defs><text   transform="translate(122,12.5)"    font-weight="bold"  style="fill:#14961e">Senescence</text></g></g><g id="e939f" class="Metabolite " transform="translate(569.62 707.82)"  name="diacylglycerols" ><rect   width="90" height="25" style="stroke:#00f"/><text   transform="translate(45,12.5)"     style="fill:#00f">diacylglycerols</text></g><g id="edf99" class="Metabolite " transform="translate(177.82 601.18)"  name="sphingomyelins" ><rect   width="136.74" height="25" style="stroke:#00f"/><text   transform="translate(68.37 12.5)"     style="fill:#00f">sphingomyelins</text></g><g id="f651f" class="GeneProduct " transform="translate(808.04 403.59)"  name="CERS2" ><rect   width="162.28" height="25"/><text   transform="translate(81.14 12.5)"    >CERS2</text></g><g id="f682b" class="Pathway" transform="translate(1605,1022.5)"  name="Senescence" ><g class="Pathway"><rect   width="90" height="25" rx="15" ry="15" style="stroke:#14961e"/></g><g ><defs><clipPath ><rect x="-45" y="-12.5" width="90" height="25" style="stroke:none"/></clipPath></defs><text   transform="translate(45,12.5)"    font-weight="bold"  style="fill:#14961e">Senescence</text></g></g><g id="f7ebd" class="GeneProduct " transform="translate(519.95 275.22)"  name="DEGS1" ><rect   width="90" height="25"/><text   transform="translate(45,12.5)"    >DEGS1</text></g><g id="f8583" class="Protein" transform="translate(1084.5 11.40)"  name="Serine palmitoyltransferase 1" ><rect   width="254.29" height="30.00"/><text   transform="translate(127.15 15.00)"    >Serine palmitoyltransferase 1</text></g><g id="f9fc4" class="Metabolite " transform="translate(995.12 535.34)"  name="Sphingosine" ><rect   width="90" height="25" style="stroke:#00f"/><text   transform="translate(45,12.5)"     style="fill:#00f">Sphingosine</text></g><g id="fd46f" class="GeneProduct " transform="translate(1151.8 1088.4)"  name="E2F1" ><rect   width="90" height="25"/><text   transform="translate(45,12.5)"    >E2F1</text></g><g id="fec71" class="GeneProduct " transform="translate(853.2 591.25)"  name="ASAH1" ><rect   width="121.41" height="25"/><text   transform="translate(60.71 12.5)"    >ASAH1</text></g><g id="ff33f" class="GeneProduct " transform="translate(211.95 405.61)"  name="GLB1" ><rect   width="90" height="25"/><text   transform="translate(45,12.5)"    >GLB1</text></g><g id="a366f" class="GroupGroup" transform="translate(928.89 899.43)"  ><g class="GroupGroup"><g id="a1a73" class="GeneProduct " transform="translate(8 38.39)"  name="CDK4" ><rect   width="90" height="25"/><text   transform="translate(45,12.5)"    >CDK4</text></g><g id="fd26e" class="GeneProduct " transform="translate(8,8)"  name="CDK2" ><rect   width="90" height="25"/><text   transform="translate(45,12.5)"    >CDK2</text></g></g></g><g id="b6973" class="GroupGroup" transform="translate(1253.8 40.18)"  ><g class="GroupGroup"><g id="f3c2f" class="Metabolite " transform="translate(8,8)"  name="serine" ><rect   width="90" height="25" style="stroke:#00f"/><text   transform="translate(45,12.5)"     style="fill:#00f">serine</text></g><g id="fac9c" class="Metabolite " transform="translate(8 36.88)"  name="Palmitoyl-CoA" ><rect   width="90" height="25" style="stroke:#00f"/><text   transform="translate(45,12.5)"     style="fill:#00f">Palmitoyl-CoA</text></g></g></g><g id="bfb7e" class="GroupGroup" transform="translate(525.03 527.34)"  ><g class="GroupGroup"><g id="cb88f" class="Metabolite " transform="translate(8,8)"  name="ceramides" ><rect   width="162" height="25" style="stroke:#00f"/><text   transform="translate(81,12.5)"     style="fill:#00f">ceramides</text></g><g id="cec81" class="Metabolite " transform="translate(8.86 37.20)"  name="Phosphatidylcholines" ><rect   width="162" height="25" style="stroke:#00f"/><text   transform="translate(81 12.5)"     style="fill:#00f">Phosphatidylcholines</text></g></g></g><g id="c49c2" class="GroupGroup" transform="translate(625.18 1034.6)"  ><g class="GroupGroup"><g id="a1518" class="Pathway" transform="translate(8 8)"  name="Senescence" ><g class="Pathway"><rect   width="90" height="25" rx="15" ry="15" style="stroke:#14961e"/></g><g ><defs><clipPath ><rect x="-45" y="-12.5" width="90" height="25" style="stroke:none"/></clipPath></defs><text   transform="translate(45,12.5)"    font-weight="bold"  style="fill:#14961e">Senescence</text></g></g><g id="aaf3d" class="Pathway" transform="translate(8 33)"  name="SASP" ><g class="Pathway"><rect   width="90" height="25" rx="15" ry="15" style="stroke:#14961e"/></g><g ><defs><clipPath ><rect x="-45" y="-12.5" width="90" height="25" style="stroke:none"/></clipPath></defs><text   transform="translate(45,12.5)"    font-weight="bold"  style="fill:#14961e">SASP</text></g></g><g id="ebaa7" class="Pathway" transform="translate(8,58)"  name="NF-&#954;B" ><g class="Pathway"><rect   width="90" height="25" rx="15" ry="15" style="stroke:#14961e"/></g><g ><defs><clipPath ><rect x="-45" y="-12.5" width="90" height="25" style="stroke:none"/></clipPath></defs><text   transform="translate(45,12.5)"    font-weight="bold"  style="fill:#14961e">NF-&#954;B</text></g></g></g></g><g id="e0607" class="GroupGroup" transform="translate(892 1009.2)"  ><g class="GroupGroup"><g id="a9cee" class="GeneProduct " transform="translate(8,8)"  name="RB1" ><rect   width="87.06" height="25"/><g id="fea35" class="State Burr" transform="translate(79.56 17.5)"  ><g class="State Burr"><use class="State Burr Node Icon" width="15" height="15" fill="#fff" stroke="#000" href="#Ellipse"/></g></g><text   transform="translate(43.53 12.5)"    >RB1</text></g><g id="ff5af" class="Label" transform="translate(78.26 22.11)"  name="P" ><g class="Label"/><text   transform="translate(18.21 12.5)"    >P</text></g></g></g><g id="e89b0" class="GroupGroup" transform="translate(531 810.39)"  ><g class="GroupGroup"><g id="a8814" class="Protein" transform="translate(8,8)"  name="Protein kinase C alpha type" ><rect   width="151.08" height="25"/><text   transform="translate(75.54 12.5)"    >Protein kinase C alpha type</text></g><g id="aae14" class="Protein" transform="translate(8,33)"  name="Protein kinase C beta type" ><rect   width="151.08" height="25"/><text   transform="translate(75.54 12.5)"    >Protein kinase C beta type</text></g></g></g><g id="eb1f9" class="GroupGroup" transform="translate(1263.9 651.39)"  ><g class="GroupGroup"><g id="b17cc" class="GeneProduct " transform="translate(8,33)"  name="S1PR5" ><rect   width="90" height="25"/><text   transform="translate(45,12.5)"    >S1PR5</text></g><g id="b7807" class="GeneProduct " transform="translate(8,8)"  name="S1PR1" ><rect   width="90" height="25"/><text   transform="translate(45 12.5)"    >S1PR1</text></g></g></g><g id="f3766" class="GroupGroup" transform="translate(904.25 706.03)"  ><g class="GroupGroup"><g id="b290f" class="Protein " transform="translate(8,8)"  name="PP1" ><rect   width="90" height="25"/><text   transform="translate(45,12.5)"    >PP1</text></g><g id="bc22c" class="Protein " transform="translate(8,33)"  name="PP2" ><rect   width="90" height="23.17"/><text   transform="translate(45 11.58)"    >PP2</text></g></g></g><g id="dbd0a" class="" transform="translate(1253.6 895.33)"  name="Proliferation" ><g class=""><rect   width="125.75" height="30" rx="15" ry="15" style="fill:transparent"/></g><g ><defs><clipPath ><rect x="-62.87" y="-15" width="125.75" height="30" style="stroke:none"/></clipPath></defs><text   transform="translate(62.87 15)"    >Proliferation</text></g></g><g id="a4341" class="Label" transform="translate(1540 388.93)"  name="salvage pathway" ><g class="Label"/><text   transform="translate(51.71 12.5)"    font-style="italic" >salvage pathway</text></g><g id="dd67e" class="Label" transform="translate(25.46 753.93)"  name="hydrolysis of complex sphingolipids" ><g class="Label"/><text   transform="translate(107.55 12.5)"    font-style="italic" >hydrolysis of complex sphingolipids</text></g></g></g></g></svg>