<?xml version="1.0" encoding="UTF-8"?>
<svg xmlns="http://www.w3.org/2000/svg" id="-svg" class="Diagram"  baseProfile="full" prefix="schema:http://schema.org/" preserveAspectRatio="xMidYMid"  version="1.1"><defs><g id="icon-defs"><symbol id="ArcPathVisio" class=" Icon ArcPathVisio" x="0" y="0" overflow="visible" preserveAspectRatio="none" viewBox="0 0 100 100"><desc>ArcPathVisio</desc><path d="m99.5 50c0 27.34-22.16 49.5-49.5 49.5s-49.5-22.16-49.5-49.5" vector-effect="non-scaling-stroke"/></symbol><symbol id="Ellipse" class=" Icon Ellipse" x="0" y="0" overflow="visible" preserveAspectRatio="none" viewBox="0 0 50 50"><desc>Ellipse</desc><ellipse cx="25" cy="25" rx="25" ry="25" vector-effect="non-scaling-stroke"/></symbol></g><g id="marker-defs"><marker id="markerstartarrow00cc00white" markerHeight="12" markerWidth="12" orient="auto" preserveAspectRatio="none" refY="6" viewBox="0 0 12 12"><g id="g-markerstartarrow00cc00white" transform="rotate(180 6 6)"><g transform="rotate(180 6 6)"><rect y="5.4" width="2" height="1.2" style="stroke:#fff"/><polygon points="12 11 0 6 12 1" fill="#0c0" stroke-width="0"/></g></g></marker><marker id="mea0c0" markerHeight="12" markerWidth="12" orient="auto" preserveAspectRatio="none" refX="12" refY="6" viewBox="0 0 12 12"><g id="g-mea0c0" transform=""><g transform="rotate(180 6 6)"><rect y="5.4" width="2" height="1.2" style="stroke:#fff"/><polygon points="12 11 0 6 12 1" fill="#0c0" stroke-width="0"/></g></g></marker><marker id="meminhibitionff0033white" markerHeight="20" markerWidth="10" orient="auto" preserveAspectRatio="none" refX="10" refY="10" viewBox="0 0 10 20"><g id="g-meminhibitionff0033white" transform=""><g transform="rotate(180 5 10)"><rect y="9" width="8" height="2" style="stroke:none"/><line x="0" y="0" width="12" height="12" x1="7" x2="7" y2="20" stroke="#f03" stroke-width="1.8"/></g></g></marker><marker id="mea9900cc" markerHeight="12" markerWidth="12" orient="auto" preserveAspectRatio="none" refX="12" refY="6" viewBox="0 0 12 12"><g id="g-mea9900cc" transform=""><g transform="rotate(180 6 6)"><rect y="5.4" width="2" height="1.2" style="stroke:#fff"/><polygon points="12 11 0 6 12 1" fill="#90c" stroke-width="0"/></g></g></marker><marker id="meaf0f" markerHeight="12" markerWidth="12" orient="auto" preserveAspectRatio="none" refX="12" refY="6" viewBox="0 0 12 12"><g id="g-meaf0f" transform=""><g transform="rotate(180 6 6)"><rect y="5.4" width="2" height="1.2" style="stroke:#fff"/><polygon points="12 11 0 6 12 1" fill="#f0f" stroke-width="0"/></g></g></marker><marker id="meac0c" markerHeight="12" markerWidth="12" orient="auto" preserveAspectRatio="none" refX="12" refY="6" viewBox="0 0 12 12"><g id="g-meac0c" transform=""><g transform="rotate(180 6 6)"><rect y="5.4" width="2" height="1.2" style="stroke:#fff"/><polygon points="12 11 0 6 12 1" fill="#c0c" stroke-width="0"/></g></g></marker><marker id="mea999900" markerHeight="12" markerWidth="12" orient="auto" preserveAspectRatio="none" refX="12" refY="6" viewBox="0 0 12 12"><g id="g-mea999900" transform=""><g transform="rotate(180 6 6)"><rect y="5.4" width="2" height="1.2" style="stroke:#fff"/><polygon points="12 11 0 6 12 1" fill="#990" stroke-width="0"/></g></g></marker><marker id="mea0cc" markerHeight="12" markerWidth="12" orient="auto" preserveAspectRatio="none" refX="12" refY="6" viewBox="0 0 12 12"><g id="g-mea0cc" transform=""><g transform="rotate(180 6 6)"><rect y="5.4" width="2" height="1.2" style="stroke:#fff"/><polygon points="12 11 0 6 12 1" fill="#0cc" stroke-width="0"/></g></g></marker><marker id="mea0ff" markerHeight="12" markerWidth="12" orient="auto" preserveAspectRatio="none" refX="12" refY="6" viewBox="0 0 12 12"><g id="g-mea0ff" transform=""><g transform="rotate(180 6 6)"><rect y="5.4" width="2" height="1.2" style="stroke:#fff"/><polygon points="12 11 0 6 12 1" fill="#0ff" stroke-width="0"/></g></g></marker><marker id="meaffcc33" markerHeight="12" markerWidth="12" orient="auto" preserveAspectRatio="none" refX="12" refY="6" viewBox="0 0 12 12"><g id="g-meaffcc33" transform=""><g transform="rotate(180 6 6)"><rect y="5.4" width="2" height="1.2" style="stroke:#fff"/><polygon points="12 11 0 6 12 1" fill="#fc3" stroke-width="0"/></g></g></marker><marker id="mea00f" markerHeight="12" markerWidth="12" orient="auto" preserveAspectRatio="none" refX="12" refY="6" viewBox="0 0 12 12"><g id="g-mea00f" transform=""><g transform="rotate(180 6 6)"><rect y="5.4" width="2" height="1.2" style="stroke:#fff"/><polygon points="12 11 0 6 12 1" fill="#00f" stroke-width="0"/></g></g></marker><marker id="meaff9933" markerHeight="12" markerWidth="12" orient="auto" preserveAspectRatio="none" refX="12" refY="6" viewBox="0 0 12 12"><g id="g-meaff9933" transform=""><g transform="rotate(180 6 6)"><rect y="5.4" width="2" height="1.2" style="stroke:#fff"/><polygon points="12 11 0 6 12 1" fill="#f93" stroke-width="0"/></g></g></marker><marker id="meacc0" markerHeight="12" markerWidth="12" orient="auto" preserveAspectRatio="none" refX="12" refY="6" viewBox="0 0 12 12"><g id="g-meacc0" transform=""><g transform="rotate(180 6 6)"><rect y="5.4" width="2" height="1.2" style="stroke:#fff"/><polygon points="12 11 0 6 12 1" fill="#cc0" stroke-width="0"/></g></g></marker><marker id="mea770000" markerHeight="12" markerWidth="12" orient="auto" preserveAspectRatio="none" refX="12" refY="6" viewBox="0 0 12 12"><g id="g-mea770000" transform=""><g transform="rotate(180 6 6)"><rect y="5.4" width="2" height="1.2" style="stroke:#fff"/><polygon points="12 11 0 6 12 1" fill="#700" stroke-width="0"/></g></g></marker><marker id="mea775200" markerHeight="12" markerWidth="12" orient="auto" preserveAspectRatio="none" refX="12" refY="6" viewBox="0 0 12 12"><g id="g-mea775200" transform=""><g transform="rotate(180 6 6)"><rect y="5.4" width="2" height="1.2" style="stroke:#fff"/><polygon points="12 11 0 6 12 1" fill="#775200" stroke-width="0"/></g></g></marker><marker id="meaff6666" markerHeight="12" markerWidth="12" orient="auto" preserveAspectRatio="none" refX="12" refY="6" viewBox="0 0 12 12"><g id="g-meaff6666" transform=""><g transform="rotate(180 6 6)"><rect y="5.4" width="2" height="1.2" style="stroke:#fff"/><polygon points="12 11 0 6 12 1" fill="#f66" stroke-width="0"/></g></g></marker><marker id="mea999" markerHeight="12" markerWidth="12" orient="auto" preserveAspectRatio="none" refX="12" refY="6" viewBox="0 0 12 12"><g id="g-mea999" transform=""><g transform="rotate(180 6 6)"><rect y="5.4" width="2" height="1.2" style="stroke:#fff"/><polygon points="12 11 0 6 12 1" fill="#999" stroke-width="0"/></g></g></marker><marker id="mea" markerHeight="12" markerWidth="12" orient="auto" preserveAspectRatio="none" refX="12" refY="6" viewBox="0 0 12 12"><g id="g-mea" transform=""><g transform="rotate(180 6 6)"><rect y="5.4" width="2" height="1.2" style="stroke:#fff"/><polygon points="12 11 0 6 12 1" stroke-width="0"/></g></g></marker><marker id="memtranscriptiontranslation000" markerHeight="24" markerWidth="20" orient="auto" preserveAspectRatio="none" refX="20" refY="12" viewBox="0 0 20 24"><g id="g-memtranscriptiontranslation000" transform=""><g transform="rotate(180 10 12)"><rect y="11" width="12" height="2" style="stroke:#fff"/><line x1="15" x2="15" y1="12" y2="5" fill="none" stroke="#000"/><line x1="15.5" x2="8" y1="5" y2="5" fill="none" stroke="#000"/><polygon points="0 5 8 1 8 9" fill="#fff" stroke="#000"/></g></g></marker><marker id="markerendtbar000" markerHeight="20" markerWidth="10" orient="auto" preserveAspectRatio="none" refX="10" refY="10" viewBox="0 0 10 20"><g id="g-markerendtbar000" transform=""><g transform="rotate(180 5 10)"><rect y="9" width="8" height="2" style="stroke:none"/><line x="0" y="0" width="12" height="12" x1="7" x2="7" y2="20" stroke="#000" stroke-width="1.8"/></g></g></marker></g></defs><g id="viewport-20220102145436544" class="svg-pan-zoom_viewport" transform="matrix(0.64 0 0 0.64 261.89 0)" style="transform:matrix(0.64, 0, 0, 0.64, 261.89, 0)"><style>svg.Diagram {font-family: 'Liberation Sans', Arial, sans-serif; }.Diagram path {fill: transparent;stroke: #000;marker-end: url(#mea);}.Diagram symbol path {fill: inherit;stroke: inherit;stroke-width: inherit;marker-end: inherit;}.Diagram rect {fill: #fff;stroke: #000;}.Diagram text {dominant-baseline: central;overflow: hidden;text-anchor: middle;fill: #000;font-size: 12px;}</style><style type="text/css">.Viewport .textContent {
  pointer-events: none;
  stroke-width: 0px;
}

					.Viewport.Icon {
  fill: white;
}

/* Hide the InfoBox */
.Viewport.textContent {
  font-size: 0;
}

.textContent {
  stroke: none;
}

.DataNode {
  stroke-miterlimit: 1;
  pointer-events: auto;
}

.DataNode:hover {
  cursor: pointer;
}

/* TODO should this apply to things other than DataNodes? */
.DataNode.textContent {
  pointer-events: none;
}

.DataNode.Highlighted {
  opacity: 0.6;
  stroke-width: 0px;
}

marker {
  /* this is what should work per the spec
  stroke-dasharray: none; */
  /* but I need to add this to make it work in Safari */
  stroke-dasharray: 9999999999999999999999999;
}

.Citation.Icon {
  fill: none;
  stroke-width: 0px;
}

.Citation.textContent {
  text-align: center;
  vertical-align: top;
  font-size: 7px;
  fill: #999;
  fill-opacity: 1;
  stroke: none;
}</style><g id="WP53" class="Pathway http___identifiers_org_pw_PW_0000003 http___identifiers_org_pw_PW_0001372 Viewport"  name="Name: ID signaling pathway License: Freely available under Creative Commons license Organism: Homo sapiens" ><g class="Pathway http___identifiers_org_pw_PW_0000003 http___identifiers_org_pw_PW_0001372 Viewport"><rect   width="1056" height="1115" style="stroke:none"/><g id="id3b8a29d1" class="Edge"  ><path    d="m279.67 557 0.08 154.75" stroke-width="2" style="stroke:#0c0;marker-end:url(#mea0c0)"/></g><g id="id55535e73" class="Edge"  ><path    d="m63 618h216 138v35.75" stroke-width="2" style="stroke:#0c0;marker-end:url(#mea0c0)"/><g id="d0dec" class="AB" transform="translate(119.67 618)"  ><g class="AB"/></g><g id="b24c8" class="AB" transform="translate(224.85 618)"  ><g class="AB"/></g><g id="eeef4" class="AB" transform="translate(171.56 618)"  ><g class="AB"/></g><g id="a96da" class="AB" transform="translate(63,618)"  ><g class="AB"/></g><g id="f2307" class="AB" transform="translate(390.72 618)"  ><g class="AB"/></g><g id="d1e08" class="AB" transform="translate(323.59 618)"  ><g class="AB"/></g></g><g id="id2933cf3b" class="Edge"  ><path    d="m171.56 618 0.07 93.25" stroke-width="2" style="stroke:#0c0;marker-end:url(#mea0c0)"/></g><g id="id4ff51781" class="Edge"  ><path    d="m63 618 0.75 93.75" stroke-width="2" style="stroke:#0c0;marker-end:url(#mea0c0)"/></g><g id="id8e65fd0a" class="Edge"  ><path    d="m390.72 618-0.47 93.5" stroke-width="2" style="stroke:#0c0;marker-end:url(#mea0c0)"/></g><g id="id9c7b02a0" class="Edge"  ><path    d="m468.69 556.75 0.06 155" stroke-width="2" style="stroke:#0c0;marker-end:url(#mea0c0)"/><g id="f303f" class="AB" transform="translate(468.72 646)"  ><g class="AB"/></g></g><g id="id3dab9863" class="Edge"  ><path    d="m468.72 646h43.28v65.75" stroke-width="2" style="stroke:#0c0;marker-end:url(#mea0c0)"/></g><g id="id9d498b58" class="Edge"  ><path    d="m119.67 618-0.42 93.25" stroke-width="2" style="stroke:#0c0;marker-end:url(#mea0c0)"/></g><g id="idc50bd590" class="Edge"  ><path    d="m580.5 556 0.25 155.75" stroke-width="2" style="stroke:#0c0;marker-end:url(#mea0c0)"/><g id="e6975" class="AB" transform="translate(580.64 644)"  ><g class="AB"/></g></g><g id="idc57cbfe1" class="Edge"  ><path    d="m429.56 556.75-0.06 97" stroke-width="2" style="stroke:#0c0;marker-end:url(#mea0c0)"/><g id="ec1f2" class="AB" transform="translate(429.54 595.55)"  ><g class="AB"/></g></g><g id="ide062f696" class="Edge"  ><path    d="m323.59 618-0.34 93.5" stroke-width="2" style="stroke:#0c0;marker-end:url(#mea0c0)"/></g><g id="ide9b3c97f" class="Edge"  ><path    d="m224.85 618-0.10 93.75" stroke-width="2" style="stroke:#0c0;marker-end:url(#mea0c0)"/></g><g id="idf3bec916" class="Edge"  ><path    d="m523.5 582.25v-35.5h-35.25" stroke-width="2" style="stroke:#00f;marker-end:url(#mea00f)"/></g><g id="idfed4faef" class="Edge"  ><path    d="m429.54 595.55h-54.70v-0.55h-26.58v116.5" stroke-width="2" style="stroke:#0c0;marker-end:url(#mea0c0)"/></g><g id="idfefb97e7" class="Edge"  ><path    d="m537 711.75v-67.75h43.64" marker-start="url(#markerstartarrow00cc00white)" stroke-width="2" style="stroke:#0c0;marker-end:none"/></g><g id="f7aed" class="" transform="translate(231,752)"  name="Regulation of gene expression" ><g class=""/><g ><defs><clipPath ><rect x="-102.5" y="-15" width="205" height="30" style="stroke:none"/></clipPath></defs><text   transform="translate(102.5,15)"     style="fill:#f00">Regulation of gene expression</text></g></g><g id="a80d1" class="Label" transform="translate(856,419.5)"  name="Enzyme complex" ><rect   width="121" height="20" style="fill:#cf3"/><text   transform="translate(60.5,10)"    >Enzyme complex</text></g><g id="aadc9" class="Label" transform="translate(541,326)"  name="Label" ><g class="Label"/><text   transform="translate(0)"     style="font-size:10px">Label</text></g><g id="b4d6a" class="Label" transform="translate(684,371.5)"  name="Ligand" ><rect   width="51" height="20"/><text   transform="translate(25.5,10)"    >Ligand</text></g><g id="ba210" class="Label" transform="translate(857,372.5)"  name="Protein" ><rect   width="69" height="20"/><text   transform="translate(34.5,10)"    >Protein</text></g><g id="bed23" class="Label" transform="translate(388,306)"  name="Ligands" ><rect   width="54" height="20"/><text   transform="translate(27,10)"    >Ligands</text></g><g id="ea053" class="Label" transform="translate(746,419)"  name="Receptor" ><rect   width="76" height="20"/><text   transform="translate(38,10)"    >Receptor</text></g><g id="ec4fa" class="Label" transform="translate(935,372)"  name="mRNA" ><rect   width="41" height="20"/><text   transform="translate(20.5,10)"    font-style="italic" >mRNA</text></g><g id="edf58" class="Label" transform="translate(382,421.5)"  name="Receptor" ><rect   width="67" height="20"/><text   transform="translate(33.5,10)"    >Receptor</text></g><g id="ce987" class="Label" transform="translate(305,202)"  name="ID signaling pathway" ><g class="Label"/><text   transform="translate(109.5,23.5)"     style="font-size:18px">ID signaling pathway</text></g><g id="a48d3" class="Protein " transform="translate(38.75,711.75)"  name="RBL1" ><rect   width="50" height="20"/><text   transform="translate(25,10)"    >RBL1</text></g><g id="a4f8e" class="Protein " transform="translate(94.25,711.25)"  name="RB1" ><rect   width="50" height="20"/><text   transform="translate(25,10)"    >RB1</text></g><g id="c943b" class="Protein " transform="translate(365.25,711.5)"  name="ELK3" ><rect   width="50" height="20"/><text   transform="translate(25,10)"    >ELK3</text></g><g id="cb5b0" class="Protein " transform="translate(310.75,711.5)"  name="PAX5" ><rect   width="50" height="20"/><text   transform="translate(25,10)"    >PAX5</text></g><g id="cfb20" class="Protein " transform="translate(443.75,711.75)"  name="MYOD1" ><rect   width="50" height="20"/><text   transform="translate(25,10)"    >MYOD1</text></g><g id="d5b08" class="Protein " transform="translate(199.75,711.75)"  name="PAX8" ><rect   width="50" height="20"/><text   transform="translate(25,10)"    >PAX8</text></g><g id="d8a75" class="Protein " transform="translate(499.5,711.75)"  name="ELK1" ><rect   width="50" height="20"/><text   transform="translate(25,10)"    >ELK1</text></g><g id="d96c7" class="Protein " transform="translate(149,711.25)"  name="RBL2" ><rect   width="45.25" height="20"/><text   transform="translate(22.62,10)"    >RBL2</text></g><g id="e25bc" class="Protein " transform="translate(410,536.75)"  name="ID3" ><rect   width="78.25" height="20"/><g id="a384a" class="State Burr" transform="translate(70.75,12.5)"  name="P" ><g class="State Burr"><use class="State Burr Node Icon" width="15" height="15" fill="#ff0" stroke="#000" href="#Ellipse"/></g><g ><defs><clipPath ><rect x="-7.5" y="-7.5" width="15" height="15" style="stroke:none"/></clipPath></defs><text   transform="translate(7.5,7.5)"  font-family="arial" overflow="visible" style="font-size:10px">P</text></g></g><text   transform="translate(39.12,10)"    >ID3</text></g><g id="e2fba" class="Protein " transform="translate(555.75,711.75)"  name="ELK4" ><rect   width="50" height="20"/><text   transform="translate(25,10)"    >ELK4</text></g><g id="e74f7" class="Protein " transform="translate(498.5,582.25)"  name="CCNE1" ><rect   width="50" height="20"/><text   transform="translate(25,10)"    >CCNE1</text></g><g id="e8e7d" class="Protein " transform="translate(254.75,711.75)"  name="PAX2" ><rect   width="50" height="20"/><text   transform="translate(25,10)"    >PAX2</text></g><g id="f242d" class="Protein " transform="translate(498.5,603.25)"  name="CDK2" ><rect   width="50" height="20"/><text   transform="translate(25,10)"    >CDK2</text></g><g id="f40e4" class="Protein " transform="translate(404.5,653.75)"  name="SREBF1" ><rect   width="50" height="20"/><text   transform="translate(25,10)"    >SREBF1</text></g><g id="b8f45" class="Protein " transform="translate(234.33 537)"  name="ID2" ><rect   width="90.67" height="20"/><g id="d37dc" class="State Burr" transform="translate(83.17 12.5)"  name="P" ><g class="State Burr"><use class="State Burr Node Icon" width="15" height="15" fill="#ff0" stroke="#000" href="#Ellipse"/></g><g ><defs><clipPath ><rect x="-7.5" y="-7.5" width="15" height="15" style="stroke:none"/></clipPath></defs><text   transform="translate(7.5,7.5)"  font-family="arial" overflow="visible" style="font-size:10px">P</text></g></g><text   transform="translate(45.33 10)"    >ID2</text></g><g id="a7c97" class="Edge"  ><path    d="m686 821h65" stroke-width="2" style="stroke:#f03;marker-end:url(#meminhibitionff0033white)"/></g><g id="c6b24" class="Edge"  ><path    d="m686 722 58 0.50" stroke-width="2" style="stroke:#90c;marker-end:url(#mea9900cc)"/></g><g id="bef3e" class="Edge"  ><path    d="m741 913-1-24" stroke-width="3" style="stroke:#f0f;marker-end:url(#meaf0f)"/></g><g id="f3858" class="Edge"  ><path    d="m686 702.66h58" stroke-width="2" style="stroke:#c0c;marker-end:url(#meac0c)"/></g><g id="fcb2f" class="Edge"  ><path    d="m686 662.66h58" stroke-width="2" style="stroke:#990;marker-end:url(#mea999900)"/></g><g id="aa9d1" class="Edge"  ><path    d="m687 841 58 0.50" stroke-dasharray="5,3" stroke-width="2" style="stroke:#0cc;marker-end:url(#mea0cc)"/></g><g id="c4ddd" class="Edge"  ><path    d="m686 642.66h58" stroke-width="2" style="stroke:#0ff;marker-end:url(#mea0ff)"/></g><g id="f6fd5" class="Edge"  ><path    d="M709.5,391.5L709,411" stroke-width="3" style="stroke:#f39;marker-end:none"/></g><g id="b3cdc" class="Edge"  ><path    d="m686 582 58 0.66" stroke-width="2" style="stroke:#fc3;marker-end:url(#meaffcc33)"/></g><g id="dc6d7" class="Edge"  ><path    d="m784 395v24" stroke-width="3" style="marker-end:none"/></g><g id="abdb8" class="Edge"  ><path    d="m741 905v15" stroke-width="3" style="stroke:#f0f;marker-end:url(#meaf0f)"/></g><g id="d79a9" class="" transform="translate(769,364)"  ><g class=""><use class=" Node Icon" transform="matrix(0.91 0 0 0.91 1.36 1.37)" width="30" height="31" fill="transparent" stroke="#000" stroke-width="3" href="#ArcPathVisio"/></g></g><g id="c01a5" class="" transform="translate(695,411)"  ><g class=""><use class=" Node Icon" width="28" height="28" fill="#ff3399" stroke="#ff0066" href="#Ellipse"/></g></g><g id="f6bad" class="Label" transform="translate(767,811)"  name="Inhibition" ><g class="Label"/><text   transform="translate(33,10)"    >Inhibition</text></g><g id="b5bd5" class="Label" transform="translate(770,552)"  name="Auto catalysis" ><g class="Label"/><text   transform="translate(47,10)"    >Auto catalysis</text></g><g id="d466c" class="Label" transform="translate(767,832)"  name="Transport" ><g class="Label"/><text   transform="translate(33,10)"    >Transport</text></g><g id="b6c6c" class="Label" transform="translate(769.33 507)"  name="Positive regulation of gene expression" ><g class="Label"/><text   transform="translate(123.5,10)"    >Positive regulation of gene expression</text></g><g id="d0a9d" class="Label" transform="translate(773.33 486)"  name="Leads to through unknown mechanism" ><g class="Label"/><text   transform="translate(121.5,10)"    >Leads to through unknown mechanism</text></g><g id="e0c81" class="Label" transform="translate(771.33 528)"  name="Negative regulation of gene expression" ><g class="Label"/><text   transform="translate(123.5,10)"    >Negative regulation of gene expression</text></g><g id="a93ce" class="Label" transform="translate(770,894)"  name="Translocation" ><g class="Label"/><text   transform="translate(46,10)"    >Translocation</text></g><g id="f79e9" class="Label" transform="translate(770,691)"  name="Ubiquitination" ><g class="Label"/><text   transform="translate(46.83 10)"    >Ubiquitination</text></g><g id="aa587" class="Label" transform="translate(768.67 712)"  name="Deubiquitination" ><g class="Label"/><text   transform="translate(55.5,10)"    >Deubiquitination</text></g><g id="e3d54" class="Label" transform="translate(768,651)"  name="Sumoylation" ><g class="Label"/><text   transform="translate(43,10)"    >Sumoylation</text></g><g id="e2742" class="Label" transform="translate(768,852)"  name="Induced catalysis" ><g class="Label"/><text   transform="translate(55.5,10)"    >Induced catalysis</text></g><g id="b584b" class="Label" transform="translate(772,466)"  name="Protein-protein interaction" ><g class="Label"/><text   transform="translate(86.33 10)"    >Protein-protein interaction</text></g><g id="ddf98" class="Label" transform="translate(772,572)"  name="Acetylation" ><g class="Label"/><text   transform="translate(37,10)"    >Acetylation</text></g><g id="f094a" class="Label" transform="translate(767.67 631)"  name="Dephosphorylation" ><g class="Label"/><text   transform="translate(63.5,10)"    >Dephosphorylation</text></g><g id="ccace" class="Label" transform="translate(801,325)"  name="LEGEND" ><g class="Label"/><text   transform="translate(40,10)"     style="fill:#3333ff;font-size:14px">LEGEND</text></g><g id="d077f" class="Label" transform="translate(767.67 612)"  name="Phosphorylation" ><g class="Label"/><text   transform="translate(55.5,10)"    >Phosphorylation</text></g><g id="d2f46" class="Edge"  ><path    d="m686 622.66h58" stroke-width="2" style="stroke:#00f;marker-end:url(#mea00f)"/></g><g id="bcc76" class="Edge"  ><path    d="m686 602.66h58" stroke-width="2" style="stroke:#f93;marker-end:url(#meaff9933)"/></g><g id="febb1" class="Label" transform="translate(770,593)"  name="Deacetylation" ><g class="Label"/><text   transform="translate(44.5,10)"    >Deacetylation</text></g><g id="e2423" class="" transform="translate(671,321)"  ><g class=""><rect   width="355" height="764" style="fill:transparent"/></g></g><g id="e1853" class="Label" transform="translate(768.17 1024.7)"  name="Golgi apparatus" ><g class="Label"/><text   transform="translate(53.17 8)"    >Golgi apparatus</text></g><g id="c7a22" class="Label" transform="translate(769 989.67)"  name="Endosome" ><g class="Label"/><text   transform="translate(35.67 8)"    >Endosome</text></g><g id="cffee" class="Label" transform="translate(769.67 1061.7)"  name="Nucleus" ><g class="Label"/><text   transform="translate(27.67 8)"    >Nucleus</text></g><g id="eea85" class="Label" transform="translate(768.83 1042.7)"  name="Mitochondrion" ><g class="Label"/><text   transform="translate(48.17 8)"    >Mitochondrion</text></g><g id="e7a5d" class="Edge"  ><path    d="m685 682 59 0.50" stroke-width="2" style="stroke:#cc0;marker-end:url(#meacc0)"/></g><g id="c2c98" class="Label" transform="translate(770,671)"  name="Desumoylation" ><g class="Label"/><text   transform="translate(49.5,10)"    >Desumoylation</text></g><g id="db5b9" class="Edge"  ><path    d="m686 742.66h58" stroke-width="2" style="stroke:#700;marker-end:url(#mea770000)"/></g><g id="e85b5" class="Label" transform="translate(771,733)"  name="Methylation" ><g class="Label"/><text   transform="translate(37.5,10)"    >Methylation</text></g><g id="e9a36" class="Edge"  ><path    d="m686 762.66h58" stroke-width="2" style="stroke:#775200;marker-end:url(#mea775200)"/></g><g id="d9a01" class="Label" transform="translate(771,753)"  name="Demethylation" ><g class="Label"/><text   transform="translate(46.5,10)"    >Demethylation</text></g><g id="de4c7" class="Edge"  ><path    d="m686 782.66h58" stroke-width="2" style="stroke:#f66;marker-end:url(#meaff6666)"/></g><g id="e0430" class="Label" transform="translate(771,772)"  name="Palmitoylation" ><g class="Label"/><text   transform="translate(45,10)"    >Palmitoylation</text></g><g id="cc687" class="Label" transform="translate(768 950.67)"  name="Cytoplasm" ><g class="Label"/><text   transform="translate(35.67 8)"    >Cytoplasm</text></g><g id="e153c" class="Label" transform="translate(723.83 971.67)"  name="EC" ><g class="Label"/><text   transform="translate(11.17 8)"     style="fill:#f0f">EC</text></g><g id="afdaa" class="Label" transform="translate(769 930.67)"  name="Plasma membrane" ><g class="Label"/><text   transform="translate(60.33 8)"    >Plasma membrane</text></g><g id="f30ff" class="Label" transform="translate(723.83 1041.7)"  name="MT" ><g class="Label"/><text   transform="translate(12.17 8)"     style="fill:#f0f">MT</text></g><g id="acafd" class="Label" transform="translate(769.5 1007.7)"  name="Endoplasmic reticulum" ><g class="Label"/><text   transform="translate(75.17 8)"    >Endoplasmic reticulum</text></g><g id="d0e33" class="Label" transform="translate(723.83 950.67)"  name="CY" ><g class="Label"/><text   transform="translate(11.17 8)"     style="fill:#f0f">CY</text></g><g id="e6dcd" class="Label" transform="translate(723.33 931.67)"  name="PM" ><g class="Label"/><text   transform="translate(12.67 8)"     style="fill:#f0f">PM</text></g><g id="bed30" class="Label" transform="translate(722.33 1024.7)"  name="GO" ><g class="Label"/><text   transform="translate(12.67 8)"     style="fill:#f0f">GO</text></g><g id="f64ad" class="Label" transform="translate(723.33 1061.7)"  name="NU" ><g class="Label"/><text   transform="translate(11.67 8)"     style="fill:#f0f">NU</text></g><g id="cdd60" class="Label" transform="translate(767.5 969.67)"  name="Extracellular" ><g class="Label"/><text   transform="translate(43.17 8)"    >Extracellular</text></g><g id="c0fbb" class="Label" transform="translate(723.83 1007.7)"  name="ER" ><g class="Label"/><text   transform="translate(11.17 8)"     style="fill:#f0f">ER</text></g><g id="a7189" class="Label" transform="translate(723.83 990.67)"  name="EN" ><g class="Label"/><text   transform="translate(11.17 8)"     style="fill:#f0f">EN</text></g><g id="e8db4" class="Edge"  ><path    d="m686 802.66h58" stroke-width="2" style="stroke:#999;marker-end:url(#mea999)"/></g><g id="a96ee" class="Label" transform="translate(770,792)"  name="Proteolytic cleavage" ><g class="Label"/><text   transform="translate(61,10)"    >Proteolytic cleavage</text></g><g id="c0a81" class="Edge"  ><path    d="m711 537h33" stroke-width="2" style="marker-end:url(#memtranscriptiontranslation000)"/></g><g id="e492c" class="Edge"  ><path    d="m687 537h25" stroke-width="2" style="marker-end:url(#markerendtbar000)"/></g><g id="b924f" class="Edge"  ><path    d="m685 514h58" stroke-width="2" style="marker-end:url(#memtranscriptiontranslation000)"/></g><g id="ca4af" class="Edge"  ><path    d="m685 476h58" stroke-width="2" style="stroke:#0c0;marker-end:url(#mea0c0)"/></g><g id="d947b" class="Edge"  ><path    d="m685 496h58" stroke-dasharray="5,3" stroke-width="2"/></g><g id="b2e92" class="Edge"  ><path    d="m732.33 562.33 6.67 6.67" stroke-width="2"/></g><g id="d3192" class="" transform="translate(720.21 555.67) rotate(146.38 7.45 10)"  ><g class=""><use class=" Node Icon" width="14.91" height="20" fill="transparent" stroke="#000" stroke-width="2" href="#ArcPathVisio"/></g></g><g id="f48dd" class="Protein " transform="translate(565,536)"  name="ID1" ><rect   width="31" height="20"/><text   transform="translate(15.5,10)"    >ID1</text></g><g id="e4763" class="Edge"  ><path    d="m415 326v30" stroke-width="3" style="stroke:#f39;marker-end:none"/></g><g id="e729e" class="Edge"  ><path    d="M415.5,441.5L415,481" stroke-dasharray="5,3" stroke-width="2"/></g><g id="fcc73" class="Edge"  ><path    d="m415 388 0.5 33.5" stroke-width="3" style="marker-end:none"/></g><g id="f1222" class="" transform="translate(400,357)"  ><g class=""><use class=" Node Icon" transform="matrix(0.91 0 0 0.91 1.36 1.37)" width="30" height="31" fill="transparent" stroke="#000" stroke-width="3" href="#ArcPathVisio"/></g></g><g id="a4227" class="" transform="translate(401,356)"  ><g class=""><use class=" Node Icon" width="28" height="28" fill="#ff3399" stroke="#ff0066" href="#Ellipse"/></g></g><g id="d104b" class="Label" transform="translate(221,481)"  name="ID1/ ID2/ ID3 protein expression" ><g class="Label"/><text   transform="translate(194,15.5)"     style="fill:#f00">ID1/ ID2/ ID3 protein expression</text></g><g id="c9666" class="Label" transform="translate(687,853)"  name="Protein" ><rect   width="61" height="20"/><text   transform="translate(30.5,10)"    >Protein</text></g><g id="abdeb" class="" transform="translate(742,865.5)"  ><g class=""><use class=" Node Icon" width="15" height="15" fill="#fff" stroke="#000" href="#Ellipse"/></g></g></g></g></g></svg>