<?xml version="1.0" encoding="UTF-8"?>
<!--
  WikiPathways page: https://www.wikipathways.org/index.php/Pathway:WP561
  URL for this compressed file: https://github.com/eweitz/cachome/tree/main/data/WP561.svg
  Source code for compression: https://github.com/eweitz/cachome/tree/main/src/wikipathways.py
-->
<svg id="wp561-svg" class="Diagram" width="800" height="600" color="black" baseProfile="full" prefix="schema:http://schema.org/" preserveAspectRatio="xMidYMid" version="1.1" viewBox="0 0 825.05 815.82" vocab="http://vocabularies.wikipathways.org/wp#" xmlns="http://www.w3.org/2000/svg" xmlns:xlink="http://www.w3.org/1999/xlink"><style>svg {font-family: 'Liberation Sans', Arial, sans-serif; }</style><defs><g id="jit-defs"><filter id="kaavioblackto000000filter" x="0" y="0" width="825.05" height="815.82" filterUnits="userSpaceOnUse"><feColorMatrix in="SourceGraphic" values="-1   0   0 0 0                   0  -1   0 0 0                   0   0  -1 0 0                   0   0   0 1 0"/></filter><filter id="kaavioblacktoff0000filter" x="0" y="0" width="825.05" height="815.82" filterUnits="userSpaceOnUse"><feColorMatrix in="SourceGraphic" values="-1   0   0 0 1                   0  -1   0 0 0                   0   0  -1 0 0                   0   0   0 1 0"/></filter></g><g id="jic-defs"><marker id="markerEndArrow" stroke-dasharray="99999" markerHeight="12" markerUnits="userSpaceOnUse" markerWidth="12" orient="auto" preserveAspectRatio="none" refX="12" refY="6" viewBox="0 0 12 12"><path transform="rotate(180 6 6)" d="M12 11L0 6l12-5z" fill="currentColor" stroke-width="0"/></marker><marker id="markerEndMimCatalysis" stroke-dasharray="99999" markerHeight="12" markerUnits="userSpaceOnUse" markerWidth="12" orient="auto" preserveAspectRatio="none" refX="12" refY="6" viewBox="0 0 12 12"><circle transform="rotate(180 6 6)" cx="6" cy="6" r="5.3" fill="none" stroke="#000"/></marker><symbol id="none" preserveAspectRatio="none" viewBox="0 0 100 100"/></g></defs><g id="WP561" class="Viewport" color="black"  name="Name: Heme biosynthesis License: CC BY 2.0 Organism: Homo sapiens"><rect id="WP561-icon" class="Icon" width="825.05" height="815.82" fill="#fff" stroke="#000" stroke-width="0"/><g id="a6b7b" class="DirectedInteraction" color="#000" ><g color="#000" fill="transparent"  filter="url(#kaavioblackto000000filter)" stroke="#000" stroke-dasharray="78.20595217006948, 5.8"><path id="a6b7b" class="EdgeBody" d="m328.22 685.82 1 84"   marker-end="url(#markerEndArrow)" /></g><g id="ac767" class="Burr Anchor" transform="translate(328.46 705.89)" ><use id="ac767-icon" class="Icon" width="0" height="0" fill="#141414" stroke-width="0" xlink:href="#none"/></g><g id="e2404" class="Burr Anchor" transform="translate(328.87 740.45)" ><use id="e2404-icon" class="Icon" width="0" height="0" fill="#141414" stroke-width="0" xlink:href="#none"/></g><g id="e561f" class="Burr Anchor" transform="translate(328.62 719.42)" ><use id="e561f-icon" class="Icon" width="0" height="0" fill="#141414" stroke-width="0" xlink:href="#none"/></g></g><g id="a0113" class="Interaction" color="#000" ><g color="#000" fill="transparent"  filter="url(#kaavioblackto000000filter)" stroke="#000" stroke-dasharray="165.08365657211834, 0"><path id="a0113" class="EdgeBody" d="m203.81 691.43 24.108-1e-13c24.108 1e-13 72.325 1e-13 96.434 2.4096 24.108 2.4096 24.108 7.2287 20.775 9.6382-3.3333 2.4096-10 2.4096-13.333 2.4096l-3.3333-1e-13"   /></g></g><g id="a86f8" class="DirectedInteraction" color="#f00" ><g color="#f00" fill="transparent"  filter="url(#kaavioblacktoff0000filter)" stroke="#000" stroke-dasharray="110.8470988068556, 5.8"><path id="a86f8" class="EdgeBody" d="m328.87 740.45h9.315c9.315 0 27.945 0 37.26 1.758 9.315 1.758 9.315 5.2739 19.188 7.0318 9.873 1.758 29.619 1.758 39.492 1.758l9.873 1e-13"   marker-end="url(#markerEndArrow)" /></g></g><g id="b0495" class="DirectedInteraction" color="#000" ><g color="#000" fill="transparent"  filter="url(#kaavioblackto000000filter)" stroke="#000" stroke-dasharray="55.541484965541734, 5.8"><path id="b0495" class="EdgeBody" d="m329.22 433.48-1 61.333"   marker-end="url(#markerEndArrow)" /></g><g id="cf333" class="Burr Anchor" transform="translate(328.59 472.09)" ><use id="cf333-icon" class="Icon" width="0" height="0" fill="#141414" stroke-width="0" xlink:href="#none"/></g><g id="f4405" class="Burr Anchor" transform="translate(328.82 458.02)" ><use id="f4405-icon" class="Icon" width="0" height="0" fill="#141414" stroke-width="0" xlink:href="#none"/></g></g><g id="bacc2" class="DirectedInteraction" color="#000" ><g color="#000" fill="transparent"  filter="url(#kaavioblackto000000filter)" stroke="#000" stroke-dasharray="77.19999999999995, 5.8"><path id="bacc2" class="EdgeBody" d="m329.22 269.15v83"   marker-end="url(#markerEndArrow)" /></g><g id="cedb2" class="Burr Anchor" transform="translate(329.22 297.82)" ><use id="cedb2-icon" class="Icon" width="0" height="0" fill="#141414" stroke-width="0" xlink:href="#none"/></g><g id="e2782" class="Burr Anchor" transform="translate(329.22 326.03)" ><use id="e2782-icon" class="Icon" width="0" height="0" fill="#141414" stroke-width="0" xlink:href="#none"/></g><g id="a0d08" class="Burr Anchor" transform="translate(329.22 309.53)" ><use id="a0d08-icon" class="Icon" width="0" height="0" fill="#141414" stroke-width="0" xlink:href="#none"/></g></g><g id="bcfc0" class="DirectedInteraction" color="#f00" ><g color="#f00" fill="transparent"  filter="url(#kaavioblacktoff0000filter)" stroke="#000" stroke-dasharray="118.22722664091955, 5.8"><path id="bcfc0" class="EdgeBody" d="m329.22 326.03h0.055556c0.055556-1e-13 0.16667-1e-13 0.22222 2.7977 0.055556 2.7977 0.055556 8.393 19.389 11.191 19.333 2.7977 58 2.7977 77.333 2.7977h19.333"   marker-end="url(#markerEndArrow)" /></g></g><g id="cc7d5" class="DirectedInteraction" color="#f00" ><g color="#f00" fill="transparent"  filter="url(#kaavioblacktoff0000filter)" stroke="#000" stroke-dasharray="122.24232678047453, 5.8"><path id="cc7d5" class="EdgeBody" d="m328.59 472.09-0.0061999-1.2e-13c-0.0061999 6e-14 -0.0186 6e-14 -0.024799 2.2877-0.0061999 2.2877-0.0061999 6.863 20.327 9.1507 20.333 2.2877 61 2.2877 81.333 2.2877h20.333"   marker-end="url(#markerEndArrow)" /></g></g><g id="d64e8" class="DirectedInteraction" color="#000" ><g color="#000" fill="transparent"  filter="url(#kaavioblackto000000filter)" stroke="#000" stroke-dasharray="76.19999999999997, 5.8"><path id="d64e8" class="EdgeBody" d="m329.22 171.15v82"   marker-end="url(#markerEndArrow)" /></g><g id="dde29" class="Burr Anchor" transform="translate(329.22 193.54)" ><use id="dde29-icon" class="Icon" width="0" height="0" fill="#141414" stroke-width="0" xlink:href="#none"/></g><g id="cbee4" class="Burr Anchor" transform="translate(329.22 214.03)" ><use id="cbee4-icon" class="Icon" width="0" height="0" fill="#141414" stroke-width="0" xlink:href="#none"/></g><g id="f2969" class="Burr Anchor" transform="translate(329.22 227.7)" ><use id="f2969-icon" class="Icon" width="0" height="0" fill="#141414" stroke-width="0" xlink:href="#none"/></g></g><g id="a2adf" class="DirectedInteraction" color="#f00" ><g color="#f00" fill="transparent"  filter="url(#kaavioblacktoff0000filter)" stroke="#000" stroke-dasharray="127.13542082626516, 5.8"><path id="a2adf" class="EdgeBody" d="m329.22 227.7-0.11111-2e-14c-0.11111 2e-14 -0.33333 2e-14 -0.44444 3.853-0.11111 3.853-0.11111 11.559 20.056 15.412 20.167 3.853 60.5 3.853 80.667 3.853l20.167 7e-14"   marker-end="url(#markerEndArrow)" /></g></g><g id="def97" class="Interaction" color="#000" ><g color="#000" fill="transparent"  filter="url(#kaavioblackto000000filter)" stroke="#000" stroke-dasharray="137.2410628847921, 0"><path id="def97" class="EdgeBody" d="m203.55 171.15 21-3e-14c21 3e-14 63 3e-14 84 3.7314 21 3.7314 21 11.194 20.944 14.926-0.055556 3.7314-0.16667 3.7314-0.22222 3.7314l-0.055556-3e-14"   /></g></g><g id="e2071" class="DirectedInteraction" color="#000" ><g color="#000" fill="transparent"  filter="url(#kaavioblackto000000filter)" stroke="#000" stroke-dasharray="68.2, 5.8"><path id="e2071" class="EdgeBody" d="m328.22 595.82v74"   marker-end="url(#markerEndArrow)" /></g><g id="ff867" class="Burr Anchor" transform="translate(328.22 615.34)" ><use id="ff867-icon" class="Icon" width="0" height="0" fill="#141414" stroke-width="0" xlink:href="#none"/></g><g id="def10" class="Burr Anchor" transform="translate(328.22 649.26)" ><use id="def10-icon" class="Icon" width="0" height="0" fill="#141414" stroke-width="0" xlink:href="#none"/></g><g id="d2208" class="Burr Anchor" transform="translate(328.22 632.83)" ><use id="d2208-icon" class="Icon" width="0" height="0" fill="#141414" stroke-width="0" xlink:href="#none"/></g></g><g id="d3bbc" class="Interaction" color="#000" ><g color="#000" fill="transparent"  filter="url(#kaavioblackto000000filter)" stroke="#000" stroke-dasharray="104.02816763982862, 0"><path id="d3bbc" class="EdgeBody" d="m233.55 599.82h16c16 0 48 0 64 2.588 16 2.588 16 7.7639 15.778 10.352-0.22222 2.588-0.66667 2.588-0.88889 2.588h-0.22222"   /></g></g><g id="a383f" class="DirectedInteraction" color="#f00" ><g color="#f00" fill="transparent"  filter="url(#kaavioblacktoff0000filter)" stroke="#000" stroke-dasharray="114.70351242901015, 5.8"><path id="a383f" class="EdgeBody" d="m328.22 649.26 0.055556-1e-13c0.055556 1e-13 0.16667 1e-13 0.22222 1.7593 0.055556 1.7593 0.055556 5.2778 19.389 7.037 19.333 1.7593 58 1.7593 77.333 1.7593l19.333-1e-13"   marker-end="url(#markerEndArrow)" /></g></g><g id="e2bdd" class="Interaction" color="#000" ><g color="#000" fill="transparent"  filter="url(#kaavioblackto000000filter)" stroke="#000" stroke-dasharray="23.00019582976885, 11"><path id="e2bdd" class="EdgeBody" d="m295.22 214.15 34-0.1154"   marker-end="url(#markerEndMimCatalysis)" /></g></g><g id="e30ff" class="Interaction" color="#000" ><g color="#000" fill="transparent"  filter="url(#kaavioblackto000000filter)" stroke="#000" stroke-dasharray="23.401033576203808, 11"><path id="e30ff" class="EdgeBody" d="m294.22 719.15 34.4 0.26667"   marker-end="url(#markerEndMimCatalysis)" /></g></g><g id="e81fa" class="DirectedInteraction" color="#000" ><g color="#000" fill="transparent"  filter="url(#kaavioblackto000000filter)" stroke="#000" stroke-dasharray="63.2, 5.8"><path id="e81fa" class="EdgeBody" d="m328.22 510.82v69"   marker-end="url(#markerEndArrow)" /></g><g id="a7930" class="Burr Anchor" transform="translate(328.22 532.26)" ><use id="a7930-icon" class="Icon" width="0" height="0" fill="#141414" stroke-width="0" xlink:href="#none"/></g><g id="b86b9" class="Burr Anchor" transform="translate(328.22 560.23)" ><use id="b86b9-icon" class="Icon" width="0" height="0" fill="#141414" stroke-width="0" xlink:href="#none"/></g><g id="dce16" class="Burr Anchor" transform="translate(328.22 543.45)" ><use id="dce16-icon" class="Icon" width="0" height="0" fill="#141414" stroke-width="0" xlink:href="#none"/></g></g><g id="e4a2e" class="Interaction" color="#000" ><g color="#000" fill="transparent"  filter="url(#kaavioblackto000000filter)" stroke="#000" stroke-dasharray="118.51353475837429, 0"><path id="e4a2e" class="EdgeBody" d="m218.55 514.82 18.333-1e-13c18.333 1e-13 55 1e-13 73.333 2.9077 18.333 2.9077 18.333 8.723 18.278 11.631-0.055556 2.9077-0.16667 2.9077-0.22222 2.9077l-0.055556 1e-13"   /></g></g><g id="ab3e9" class="DirectedInteraction" color="#f00" ><g color="#f00" fill="transparent"  filter="url(#kaavioblacktoff0000filter)" stroke="#000" stroke-dasharray="120.51968442051789, 5.8"><path id="ab3e9" class="EdgeBody" d="m328.22 560.23v1.7984c0 1.7984 0 5.3953 19.556 7.1937 19.556 1.7984 58.667 1.7984 78.222 3.5968 19.556 1.7984 19.556 5.3953 19.556 7.1937v1.7984"   marker-end="url(#markerEndArrow)" /></g></g><g id="ddd8c" class="Interaction" color="#000" ><g color="#000" fill="transparent"  filter="url(#kaavioblackto000000filter)" stroke="#000" stroke-dasharray="20.000016036084137, 11"><path id="ddd8c" class="EdgeBody" d="m297.22 543.48 31-0.031532"   marker-end="url(#markerEndMimCatalysis)" /></g></g><g id="eb348" class="DirectedInteraction" color="#000" ><g color="#000" fill="transparent"  filter="url(#kaavioblackto000000filter)" stroke="#000" stroke-dasharray="43.533333333333374, 5.8"><path id="eb348" class="EdgeBody" d="m329.22 368.15v49.333"   marker-end="url(#markerEndArrow)" /></g><g id="bbc6e" class="Burr Anchor" transform="translate(329.22 396.39)" ><use id="bbc6e-icon" class="Icon" width="0" height="0" fill="#141414" stroke-width="0" xlink:href="#none"/></g><g id="a3fb8" class="Burr Anchor" transform="translate(329.22 387.88)" ><use id="a3fb8-icon" class="Icon" width="0" height="0" fill="#141414" stroke-width="0" xlink:href="#none"/></g></g><g id="d73d0" class="Interaction" color="#000" ><g color="#000" fill="transparent"  filter="url(#kaavioblackto000000filter)" stroke="#000" stroke-dasharray="28.000911670255896, 11"><path id="d73d0" class="EdgeBody" d="m290.22 388.15 39-0.26667"   marker-end="url(#markerEndMimCatalysis)" /></g></g><g id="ee591" class="Interaction" color="#000" ><g color="#000" fill="transparent"  filter="url(#kaavioblackto000000filter)" stroke="#000" stroke-dasharray="25.000038874556104, 11"><path id="ee591" class="EdgeBody" d="m293.22 309.48 36 0.052905"   marker-end="url(#markerEndMimCatalysis)" /></g></g><g id="eead2" class="Interaction" color="#000" ><g color="#000" fill="transparent"  filter="url(#kaavioblackto000000filter)" stroke="#000" stroke-dasharray="22.00649524238203, 11"><path id="eead2" class="EdgeBody" d="m295.22 633.48 33-0.65477"   marker-end="url(#markerEndMimCatalysis)" /></g></g><g id="f55f1" class="Interaction" color="#000" ><g color="#000" fill="transparent"  filter="url(#kaavioblackto000000filter)" stroke="#000" stroke-dasharray="24.603058545267864, 11"><path id="f55f1" class="EdgeBody" d="m293.22 458.48 35.6-0.46667"   marker-end="url(#markerEndMimCatalysis)" /></g></g><g id="fa447" class="DirectedInteraction" color="#f00" ><g color="#f00" fill="transparent"  filter="url(#kaavioblacktoff0000filter)" stroke="#000" stroke-dasharray="120.95902926436682, 5.8"><path id="fa447" class="EdgeBody" d="m329.22 396.39 0.055556-6e-14c0.055556 0 0.16667 0 0.22222 2.7379 0.055556 2.7379 0.055556 8.2138 19.889 10.952 19.833 2.7379 59.5 2.7379 79.333 2.7379l19.833 7e-14"   marker-end="url(#markerEndArrow)" /></g></g><g id="c00a3" class="Interaction" color="#000" ><g color="#000" fill="transparent"  filter="url(#kaavioblackto000000filter)" stroke="#000" stroke-dasharray="116.2931081084108, 0"><path id="c00a3" class="EdgeBody" d="m217.11 307.13h18.741c18.741 0 56.223 0 74.964-1.5525 18.741-1.5525 18.741-4.6576 18.685-6.2101-0.055556-1.5525-0.16667-1.5525-0.22222-1.5525h-0.055556"   /></g></g><g id="a7a61" class="DirectedInteraction" color="#000" ><g color="#000" fill="transparent"  filter="url(#kaavioblackto000000filter)" stroke="#000" stroke-dasharray="94.58383440964168, 5.8"><path id="a7a61" class="EdgeBody" d="m329.35 54.765-0.12745 100.38"   marker-end="url(#markerEndArrow)" /></g><g id="d232f" class="Burr Anchor" transform="translate(329.29 99.896)" ><use id="d232f-icon" class="Icon" width="0" height="0" fill="#141414" stroke-width="0" xlink:href="#none"/></g><g id="f790b" class="Burr Anchor" transform="translate(329.28 111.8)" ><use id="f790b-icon" class="Icon" width="0" height="0" fill="#141414" stroke-width="0" xlink:href="#none"/></g></g><g id="ada86" class="DirectedInteraction" color="#f00" ><g color="#f00" fill="transparent"  filter="url(#kaavioblacktoff0000filter)" stroke="#000" stroke-dasharray="152.032757160293, 5.8"><path id="ada86" class="EdgeBody" d="m329.28 111.8h0.046383c0.046383 0 0.13915 0 0.18553 12.055 0.046383 12.055 0.046383 36.165 18.055 48.22 18.009 12.055 54.027 12.055 72.036 12.055h18.009"   marker-end="url(#markerEndArrow)" /></g></g><g id="dc8e0" class="Interaction" color="#000" ><g color="#000" fill="transparent"  filter="url(#kaavioblackto000000filter)" stroke="#000" stroke-dasharray="13.525707357468647, 11"><path id="dc8e0" class="EdgeBody" d="m304.78 100.6 24.516-0.70651"   marker-end="url(#markerEndMimCatalysis)" /></g></g><g id="a5906" class="Metabolite" transform="translate(246.05 579.82)" color="#00f"  name="protoporphyrinogen IX"><rect id="a5906-icon" class="Icon" transform="matrix(.99395 0 0 .94118 .49698 .47059)" width="164.33" height="16" fill="#fff" stroke="#00f"/><text id="a5906-text" class="Text" transform="translate(82.167 11)" fill="#00f"  font-size="11px" stroke="white" stroke-width="0" text-anchor="middle"><tspan x="0" y="0">protoporphyrinogen IX</tspan></text></g><g id="a73" class="Label" transform="translate(645.39 78.315)" color="#000"  name="Black - reactants"><use id="a73-icon" class="Icon" width="132.33333333333334" height="19" fill="transparent"  stroke="#000" stroke-width="0" xlink:href="#none"/><text id="a73-text" class="Text" transform="translate(66.167 13.5)" fill="#000"  font-size="12px" font-weight="bold" stroke="white" stroke-width="0" text-anchor="middle"><tspan x="0" y="0">Black - reactants</tspan></text></g><a  id="dd8" class="Chemspider_10447539 Metabolite ChEBI_CHEBI_12109  " transform="translate(250.55 155.15)"   name="delta-aminolevulinate"  ><rect id="dd8-icon" class="Icon" transform="matrix(.99368 0 0 .94118 .49684 .47059)" width="157.33" height="16" fill="#fff" stroke="#000"/><text id="dd8-text" class="Text" transform="translate(78.667 11)" fill="#000"  font-size="11px" font-weight="bold" stroke="white" stroke-width="0" text-anchor="middle"><tspan x="0" y="0">delta-aminolevulinate</tspan></text></a><g id="dbf" class="Label" transform="translate(79.888 113.15)" color="#00f"  name="rate limiting step"><use id="dbf-icon" class="Icon" width="123.33333333333333" height="16" fill="transparent"  stroke="#00f" stroke-width="0" xlink:href="#none"/><text id="dbf-text" class="Text" transform="translate(61.667 11)" fill="#00f"  font-size="11px" font-weight="bold" stroke="white" stroke-width="0" text-anchor="middle"><tspan x="0" y="0">rate limiting step</tspan></text></g><a  id="e69" class="Chemspider_10447539 Metabolite ChEBI_CHEBI_12109  " transform="translate(46.221 163.15)"   name="delta-aminolevulinate"  ><rect id="e69-icon" class="Icon" transform="matrix(.99368 0 0 .94118 .49684 .47059)" width="157.33" height="16" fill="#fff" stroke="#000"/><text id="e69-text" class="Text" transform="translate(78.667 11)" fill="#000"  font-size="11px" font-weight="bold" stroke="white" stroke-width="0" text-anchor="middle"><tspan x="0" y="0">delta-aminolevulinate</tspan></text></a><g id="fd6" class="Label" transform="translate(640.72 99.315)" color="#f00"  name="Red - side products"><use id="fd6-icon" class="Icon" width="154.33333333333334" height="19" fill="transparent"  stroke="#f00" stroke-width="0" xlink:href="#none"/><text id="fd6-text" class="Text" transform="translate(77.167 13.5)" fill="#f00"  font-size="12px" font-weight="bold" stroke="black" stroke-width="0" text-anchor="middle"><tspan x="0" y="0">Red - side products</tspan></text></g><a id="a9b4a" class="Metabolite ChEBI_CHEBI_15379  " transform="translate(196.55 589.82)" color="#00f"  name="O2"  ><rect id="a9b4a-icon" class="Icon" transform="matrix(.97368 0 0 .95238 .48684 .47619)" width="37" height="20" fill="#fff" stroke="#00f"/><text id="a9b4a-text" class="Text" transform="translate(18.5,13)" fill="#00f"  font-size="10px" stroke="white" stroke-width="0" text-anchor="middle"><tspan x="0" y="0">O2</tspan></text></a><a id="ad4" class="CAS_487-90-1 Metabolite ChEBI_CHEBI_17381  " transform="translate(268.05 253.15)" color="#00f"  name="porphobilinogen"  ><rect id="ad4-icon" class="Icon" transform="matrix(.99189 0 0 .94118 .49595 .47059)" width="122.33" height="16" fill="#fff" stroke="#00f"/><text id="ad4-text" class="Text" transform="translate(61.167 11)" fill="#00f"  font-size="10px" stroke="white" stroke-width="0" text-anchor="middle"><tspan x="0" y="0">porphobilinogen</tspan></text></a><a id="ae090" class="Metabolite ChEBI_CHEBI_16134  " transform="translate(445.55 332.82)" color="#00f"  name="NH3"  ><rect id="ae090-icon" class="Icon" transform="matrix(.97959 0 0 .95238 .4898 .47619)" width="48" height="20" fill="#fff" stroke="#00f"/><text id="ae090-text" class="Text" transform="translate(24,13)" fill="#00f"  font-size="10px" stroke="white" stroke-width="0" text-anchor="middle"><tspan x="0" y="0">NH3</tspan></text></a><a id="b7f31" class="PubChem-compound_1038 Metabolite ChEBI_CHEBI_15378  " transform="translate(444,741)" color="#00f"  name="H+"  ><rect id="b7f31-icon" class="Icon" transform="matrix(.96552 0 0 .95238 .48276 .47619)" width="28" height="20" fill="#fff" stroke="#00f"/><text id="b7f31-text" class="Text" transform="translate(14,13)" fill="#00f"  font-size="10px" stroke="white" stroke-width="0" text-anchor="middle"><tspan x="0" y="0">H+</tspan></text></a><a id="b813b" class="Metabolite ChEBI_CHEBI_16240  " transform="translate(444.55 649.82)" color="#00f"  name="H2O2"  ><rect id="b813b-icon" class="Icon" transform="matrix(.97778 0 0 .95238 .48889 .47619)" width="44" height="20" fill="#fff" stroke="#00f"/><text id="b813b-text" class="Text" transform="translate(22,13)" fill="#00f"  font-size="10px" stroke="white" stroke-width="0" text-anchor="middle"><tspan x="0" y="0">H2O2</tspan></text></a><a id="c0252" class="Metabolite ChEBI_CHEBI_15379  " transform="translate(181.55 504.82)" color="#00f"  name="O2"  ><rect id="c0252-icon" class="Icon" transform="matrix(.97368 0 0 .95238 .48684 .47619)" width="37" height="20" fill="#fff" stroke="#00f"/><text id="c0252-text" class="Text" transform="translate(18.5,13)" fill="#00f"  font-size="10px" stroke="white" stroke-width="0" text-anchor="middle"><tspan x="0" y="0">O2</tspan></text></a><a  id="c3a" class="GeneProduct FECH " transform="translate(234.22 709.15)"   name="FECH"  ><rect id="c3a-icon" class="Icon" transform="matrix(.98361 0 0 .95238 .4918 .47619)" width="60" height="20" fill="#fff" stroke="#000"/><text id="c3a-text" class="Text" transform="translate(30,13)" fill="#000"  font-size="10px" stroke="white" stroke-width="0" text-anchor="middle"><tspan x="0" y="0">FECH</tspan></text></a><a  id="ca1" class="GeneProduct PPOX " transform="translate(235.22 623.48)"   name="PPOX"  ><rect id="ca1-icon" class="Icon" transform="matrix(.98361 0 0 .95238 .4918 .47619)" width="60" height="20" fill="#fff" stroke="#000"/><text id="ca1-text" class="Text" transform="translate(30,13)" fill="#000"  font-size="10px" stroke="white" stroke-width="0" text-anchor="middle"><tspan x="0" y="0">PPOX</tspan></text></a><a id="cae" class="CAS_1976-85-8 Metabolite ChEBI_CHEBI_15437  " transform="translate(254.55 417.48)" color="#00f"  name="uroporphyrinogen III"  ><rect id="cae-icon" class="Icon" transform="matrix(.99335 0 0 .94118 .49667 .47059)" width="149.33" height="16" fill="#fff" stroke="#00f"/><text id="cae-text" class="Text" transform="translate(74.667 11)" fill="#00f"  font-size="10px" stroke="white" stroke-width="0" text-anchor="middle"><tspan x="0" y="0">uroporphyrinogen III</tspan></text></a><a id="cd108" class="Metabolite ChEBI_CHEBI_16526  " transform="translate(450.55 475.82)" color="#00f"  name="CO2"  ><rect id="cd108-icon" class="Icon" transform="matrix(.97561 0 0 .95238 .4878 .47619)" width="40" height="20" fill="#fff" stroke="#00f"/><text id="cd108-text" class="Text" transform="translate(20,13)" fill="#00f"  font-size="10px" stroke="white" stroke-width="0" text-anchor="middle"><tspan x="0" y="0">CO2</tspan></text></a><a  id="d76" class="GeneProduct CPOX " transform="translate(237.22 533.48)"   name="CPOX"  ><rect id="d76-icon" class="Icon" transform="matrix(.98361 0 0 .95238 .4918 .47619)" width="60" height="20" fill="#fff" stroke="#000"/><text id="d76-text" class="Text" transform="translate(30,13)" fill="#000"  font-size="10px" stroke="white" stroke-width="0" text-anchor="middle"><tspan x="0" y="0">CPOX</tspan></text></a><a id="d789f" class="Metabolite ChEBI_CHEBI_15377  " transform="translate(449.55 240.82)" color="#00f"  name="H2O"  ><rect id="d789f-icon" class="Icon" transform="matrix(.98148 0 0 .95238 .49074 .47619)" width="53" height="20" fill="#fff" stroke="#00f"/><text id="d789f-text" class="Text" transform="translate(26.5,13)" fill="#00f"  font-size="10px" stroke="white" stroke-width="0" text-anchor="middle"><tspan x="0" y="0">H2O</tspan></text></a><a  id="d81" class="GeneProduct HMBS " transform="translate(233.22 299.48)"   name="HMBS"  ><rect id="d81-icon" class="Icon" transform="matrix(.98361 0 0 .95238 .4918 .47619)" width="60" height="20" fill="#fff" stroke="#000"/><text id="d81-text" class="Text" transform="translate(30,13)" fill="#000"  font-size="10px" stroke="white" stroke-width="0" text-anchor="middle"><tspan x="0" y="0">HMBS</tspan></text></a><a id="d92" class="CAS_2624-63-7 Metabolite ChEBI_CHEBI_15439  " transform="translate(245.05 494.82)" color="#00f"  name="coproporphyrinogen III"  ><rect id="d92-icon" class="Icon" transform="matrix(.99402 0 0 .94118 .49701 .47059)" width="166.33" height="16" fill="#fff" stroke="#00f"/><text id="d92-text" class="Text" transform="translate(83.167 11)" fill="#00f"  font-size="10px" stroke="white" stroke-width="0" text-anchor="middle"><tspan x="0" y="0">coproporphyrinogen III</tspan></text></a><a id="db0" class="ChEBI_CHEBI_16645 Metabolite  " transform="translate(254.55 352.15)" color="#00f"  name="hydroxymethylbilane"  ><rect id="db0-icon" class="Icon" transform="matrix(.99335 0 0 .94118 .49667 .47059)" width="149.33" height="16" fill="#fff" stroke="#00f"/><text id="db0-text" class="Text" transform="translate(74.667 11)" fill="#00f"  font-size="10px" stroke="white" stroke-width="0" text-anchor="middle"><tspan x="0" y="0">hydroxymethylbilane</tspan></text></a><a id="dc8bb" class="Metabolite ChEBI_CHEBI_16526  " transform="translate(445.55 571.82)" color="#00f"  name="CO2"  ><rect id="dc8bb-icon" class="Icon" transform="matrix(.97561 0 0 .95238 .4878 .47619)" width="40" height="20" fill="#fff" stroke="#00f"/><text id="dc8bb-text" class="Text" transform="translate(20,13)" fill="#00f"  font-size="10px" stroke="white" stroke-width="0" text-anchor="middle"><tspan x="0" y="0">CO2</tspan></text></a><a  id="de3" class="GeneProduct ALAD " transform="translate(235.22 204.15)"   name="ALAD"  ><rect id="de3-icon" class="Icon" transform="matrix(.98361 0 0 .95238 .4918 .47619)" width="60" height="20" fill="#fff" stroke="#000"/><text id="de3-text" class="Text" transform="translate(30,13)" fill="#000"  font-size="10px" stroke="white" stroke-width="0" text-anchor="middle"><tspan x="0" y="0">ALAD</tspan></text></a><a id="dfd99" class="Metabolite ChEBI_CHEBI_15377  " transform="translate(448.55 402.82)" color="#00f"  name="H2O"  ><rect id="dfd99-icon" class="Icon" transform="matrix(.98148 0 0 .95238 .49074 .47619)" width="53" height="20" fill="#fff" stroke="#00f"/><text id="dfd99-text" class="Text" transform="translate(26.5,13)" fill="#00f"  font-size="10px" stroke="white" stroke-width="0" text-anchor="middle"><tspan x="0" y="0">H2O</tspan></text></a><a  id="e16" class="GeneProduct UROS " transform="translate(230.22 378.15)"   name="UROS"  ><rect id="e16-icon" class="Icon" transform="matrix(.98361 0 0 .95238 .4918 .47619)" width="60" height="20" fill="#fff" stroke="#000"/><text id="e16-text" class="Text" transform="translate(30,13)" fill="#000"  font-size="10px" stroke="white" stroke-width="0" text-anchor="middle"><tspan x="0" y="0">UROS</tspan></text></a><a id="ee779" class="PubChem-compound_27284 Metabolite ChEBI_CHEBI_29033  " transform="translate(169.52 681.43)" color="#00f"  name="Fe2+"  ><rect id="ee779-icon" class="Icon" transform="matrix(.97166 0 0 .95238 .48583 .47619)" width="34.286" height="20" fill="#fff" stroke="#00f"/><text id="ee779-text" class="Text" transform="translate(17.143 13)" fill="#00f"  font-size="10px" stroke="white" stroke-width="0" text-anchor="middle"><tspan x="0" y="0">Fe2+</tspan></text></a><a id="f4c" class="CAS_14875-96-8 Metabolite ChEBI_CHEBI_17627 ChEBI_CHEBI_26355   " transform="translate(288.05 769.82)" color="#00f"  name="protoheme"  ><rect id="f4c-icon" class="Icon" transform="matrix(.988 0 0 .94118 .494 .47059)" width="82.333" height="16" fill="#fff" stroke="#00f"/><text id="f4c-text" class="Text" transform="translate(41.167 11)" fill="#00f"  font-size="10px" stroke="white" stroke-width="0" text-anchor="middle"><tspan x="0" y="0">protoheme</tspan></text></a><a id="fb1" class="CAS_553-12-8 Metabolite ChEBI_CHEBI_15430  " transform="translate(264.05 669.82)" color="#00f"  name="protoporphyrin IX"  ><rect id="fb1-icon" class="Icon" transform="matrix(.99227 0 0 .94118 .49613 .47059)" width="128.33" height="16" fill="#fff" stroke="#00f"/><text id="fb1-text" class="Text" transform="translate(64.167 11)" fill="#00f"  font-size="10px" stroke="white" stroke-width="0" text-anchor="middle"><tspan x="0" y="0">protoporphyrin IX</tspan></text></a><a  id="fe4" class="GeneProduct UROD " transform="translate(233.22 448.48)"   name="UROD"  ><rect id="fe4-icon" class="Icon" transform="matrix(.98361 0 0 .95238 .4918 .47619)" width="60" height="20" fill="#fff" stroke="#000"/><text id="fe4-text" class="Text" transform="translate(30,13)" fill="#000"  font-size="10px" stroke="white" stroke-width="0" text-anchor="middle"><tspan x="0" y="0">UROD</tspan></text></a><g id="aab29" class="GroupNone" transform="translate(99.109 274.63)" color="grey" ><rect id="aab29-icon" class="Icon" transform="matrix(.99167 0 0 .98485 .49583 .49242)" width="119" height="65" fill="#b4b464" fill-opacity=".1" stroke="grey" stroke-dasharray="5,3"/><a id="da9f5" class="Metabolite ChEBI_CHEBI_17381  " transform="translate(9,9)" color="#00f"  name="Porphobilinogen"  ><rect id="da9f5-icon" class="Icon" transform="matrix(.9902 0 0 .95652 .4951 .47826)" width="101" height="22" fill="#fff" stroke="#00f"/><text id="da9f5-text" class="Text" transform="translate(50.5,14)" fill="#00f"  font-size="10px" stroke="white" stroke-width="0" text-anchor="middle"><tspan x="0" y="0">Porphobilinogen</tspan></text></a><a id="efc67" class="Metabolite ChEBI_CHEBI_15377  " transform="translate(36 36)" color="#00f"  name="H2O"  ><rect id="efc67-icon" class="Icon" transform="matrix(.97826 0 0 .95238 .48913 .47619)" width="45" height="20" fill="#fff" stroke="#00f"/><text id="efc67-text" class="Text" transform="translate(22.5,13)" fill="#00f"  font-size="10px" stroke="white" stroke-width="0" text-anchor="middle"><tspan x="0" y="0">H2O</tspan></text></a></g><g id="b51ed" class="GroupNone" transform="translate(436.61 151.63)" color="grey" ><rect id="b51ed-icon" class="Icon" transform="matrix(.98305 0 0 .98485 .49153 .49242)" width="58" height="65" fill="#b4b464" fill-opacity=".1" stroke="grey" stroke-dasharray="5,3"/><a id="c8776" class="Metabolite ChEBI_CHEBI_15346  " transform="translate(9.5,9)" color="#00f"  name="CoA"  ><rect id="c8776-icon" class="Icon" transform="matrix(.975 0 0 .95238 .4875 .47619)" width="39" height="20" fill="#fff" stroke="#00f"/><text id="c8776-text" class="Text" transform="translate(19.5,13)" fill="#00f"  font-size="10px" stroke="white" stroke-width="0" text-anchor="middle"><tspan x="0" y="0">CoA</tspan></text></a><a id="f73dc" class="Metabolite ChEBI_CHEBI_16526  " transform="translate(9 36)" color="#00f"  name="CO2"  ><rect id="f73dc-icon" class="Icon" transform="matrix(.97561 0 0 .95238 .4878 .47619)" width="40" height="20" fill="#fff" stroke="#00f"/><text id="f73dc-text" class="Text" transform="translate(20,13)" fill="#00f"  font-size="10px" stroke="white" stroke-width="0" text-anchor="middle"><tspan x="0" y="0">CO2</tspan></text></a></g><g id="d103a" class="GroupGroup" transform="translate(251.37 18.765)" color="grey" ><use id="d103a-icon" class="Icon" width="155.9579831932774" height="36" fill="transparent"  stroke="grey" stroke-dasharray="5,3" stroke-width="0" xlink:href="#none"/><a id="d6e60" class="Metabolite ChEBI_CHEBI_15380  " transform="translate(8,8)" color="#00f"  name="succinyl-CoA"  ><rect id="d6e60-icon" class="Icon" transform="matrix(.98765 0 0 .95238 .49383 .47619)" width="80" height="20" fill="#fff" stroke="#00f"/><text id="d6e60-text" class="Text" transform="translate(40,13)" fill="#00f"  font-size="10px" stroke="white" stroke-width="0" text-anchor="middle"><tspan x="0" y="0">succinyl-CoA</tspan></text></a><a id="d77b3" class="Metabolite ChEBI_CHEBI_15428  " transform="translate(88,8)" color="#00f"  name="Glycine"  ><rect id="d77b3-icon" class="Icon" transform="matrix(.9836 0 0 .95238 .4918 .47619)" width="59.958" height="20" fill="#fff" stroke="#00f"/><text id="d77b3-text" class="Text" transform="translate(29.979 13)" fill="#00f"  font-size="10px" stroke="white" stroke-width="0" text-anchor="middle"><tspan x="0" y="0">Glycine</tspan></text></a></g><g id="d6a95" class="GroupNone" transform="translate(227.78 71.602)" color="grey" ><rect id="d6a95-icon" class="Icon" transform="matrix(.98734 0 0 .98305 .49367 .49153)" width="78" height="58" fill="#b4b464" fill-opacity=".1" stroke="grey" stroke-dasharray="5,3"/><a  id="a6e" class="GeneProduct ALAS2 " transform="translate(9 29)"   name="ALAS2"  ><rect id="a6e-icon" class="Icon" transform="matrix(.98361 0 0 .95238 .4918 .47619)" width="60" height="20" fill="#fff" stroke="#000"/><text id="a6e-text" class="Text" transform="translate(30,13)" fill="#000"  font-size="10px" stroke="white" stroke-width="0" text-anchor="middle"><tspan x="0" y="0">ALAS2</tspan></text></a><a  id="dd6" class="GeneProduct ALAS1 " transform="translate(9,9)"   name="ALAS1"  ><rect id="dd6-icon" class="Icon" transform="matrix(.98361 0 0 .95385 .4918 .47692)" width="60" height="20.667" fill="#fff" stroke="#000"/><text id="dd6-text" class="Text" transform="translate(30 13.333)" fill="#000"  font-size="10px" stroke="white" stroke-width="0" text-anchor="middle"><tspan x="0" y="0">ALAS1</tspan></text></a></g><text id="WP561-text" class="Text" transform="translate(5,36)" dominant-baseline="central" fill="black"  font-size="12px" font-weight="bold" overflow="visible" stroke="white" stroke-width="0"><tspan x="0" y="-18">Name: Heme biosynthesis</tspan> <tspan x="0" y="0">License: CC BY 2.0</tspan> <tspan x="0" y="18">Organism: Homo sapiens</tspan></text></g></svg>
