<?xml version="1.0" encoding="UTF-8"?>
<!--
  WikiPathways page: https://www.wikipathways.org/index.php/Pathway:WP581
  URL for this compressed file: https://github.com/eweitz/cachome/tree/main/data/WP581.svg
  Source code for compression: https://github.com/eweitz/cachome/tree/main/src/wikipathways.py
-->
<svg id="wp581-svg" class="Diagram" width="800" height="600" color="black" baseProfile="full" prefix="schema:http://schema.org/" preserveAspectRatio="xMidYMid" version="1.1" viewBox="0 0 1102 822" vocab="http://vocabularies.wikipathways.org/wp#" xmlns="http://www.w3.org/2000/svg" xmlns:xlink="http://www.w3.org/1999/xlink"><style>svg {font-family: 'Liberation Sans', Arial, sans-serif; }</style><defs><g id="jit-defs"><filter id="kaavioblackto000000filter" x="0" y="0" width="1102" height="822" filterUnits="userSpaceOnUse"><feColorMatrix in="SourceGraphic" values="-1   0   0 0 0                   0  -1   0 0 0                   0   0  -1 0 0                   0   0   0 1 0"/></filter></g><g id="jic-defs"><marker id="markerEndArrow" stroke-dasharray="99999" markerHeight="12" markerUnits="userSpaceOnUse" markerWidth="12" orient="auto" preserveAspectRatio="none" refX="12" refY="6" viewBox="0 0 12 12"><path transform="rotate(180 6 6)" d="M12 11L0 6l12-5z" fill="currentColor" stroke-width="0"/></marker><marker id="markerEndTBar" stroke-dasharray="99999" markerHeight="20" markerUnits="userSpaceOnUse" markerWidth="10" orient="auto" preserveAspectRatio="none" refX="10" refY="10" viewBox="0 0 10 20"><path d="m3 0v20" fill="currentColor" stroke="currentColor"/></marker><symbol id="Octagon" overflow="visible" preserveAspectRatio="none" viewBox="0 0 100 100"><path d="M0 25L25 0h50l25 25v50l-25 25H25L0 75z" stroke="currentColor" vector-effect="non-scaling-stroke"/></symbol><symbol id="none" preserveAspectRatio="none" viewBox="0 0 100 100"/></g></defs><g id="WP581" class="Viewport" color="black"  name="Name: EPO receptor signaling Organism: Homo sapiens"><rect id="WP581-icon" class="Icon" width="1102" height="822" fill="#fff" stroke="#000" stroke-width="0"/><g id="f473a" class="GroupGroup" transform="translate(103.97 764)" color="grey" ><use id="f473a-icon" class="Icon" width="976.0333333333333" height="36" fill="transparent"  stroke="grey" stroke-dasharray="5,3" stroke-width="0" xlink:href="#none"/><g id="ffc01" class="SingleFreeNode Shape" transform="translate(482 11.967)" color="#000" ><rect id="ffc01-icon" class="Icon" transform="matrix(.96301 0 0 .87552 .4815 .43776)" width="26.033" height="7.0333" fill="transparent"  stroke="#000"/></g><g id="d7f65" class="SingleFreeNode Shape" transform="translate(274,12)" color="#000" ><rect id="d7f65-icon" class="Icon" transform="matrix(.93763 0 0 .90909 .46881 .45455)" width="15.033" height="10" fill="transparent"  stroke="#000"/></g><g id="faaf2" class="SingleFreeNode Shape" transform="translate(146 12)" color="#000" ><rect id="faaf2-icon" class="Icon" transform="matrix(.96778 0 0 .90909 .48389 .45455)" width="30.033" height="10" fill="transparent"  stroke="#000"/></g><g id="fb4d7" class="SingleFreeNode Shape" transform="translate(40 12)" color="#000" ><rect id="fb4d7-icon" class="Icon" transform="matrix(.93763 0 0 .90909 .46881 .45455)" width="15.033" height="10" fill="transparent"  stroke="#000"/></g><g id="efe03" class="SingleFreeNode Shape" transform="translate(680.03 11)" color="#000" ><rect id="efe03-icon" class="Icon" transform="matrix(.96296 0 0 .92308 .48148 .46154)" width="26" height="12" fill="transparent"  stroke="#000"/></g><g id="feef5" class="SingleFreeNode Shape" transform="translate(8 11.967)" color="#00c" ><rect id="feef5-icon" class="Icon" transform="matrix(.99896 0 0 .94129 .49948 .47065)" width="960.03" height="16.033" fill="#ccf" stroke="#00c"/></g><g id="eaea2" class="Label" transform="translate(872.03 8)" color="#00f"  name="DNA"><use id="eaea2-icon" class="Icon" width="80" height="20" fill="transparent"  stroke="#00f" stroke-width="0" xlink:href="#none"/><text id="eaea2-text" class="Text" transform="translate(40,13)" fill="#00f"  font-size="10px" font-weight="bold" stroke="white" stroke-width="0" text-anchor="middle"><tspan x="0" y="0">DNA</tspan></text></g></g><g id="c92c3" class="GroupGroup" transform="translate(76.967 172)" color="grey" ><use id="c92c3-icon" class="Icon" width="976.0333333333333" height="36" fill="transparent"  stroke="grey" stroke-dasharray="5,3" stroke-width="0" xlink:href="#none"/><g id="cead5" class="SingleFreeNode Shape" transform="translate(8 11.967)" color="#ff6600" ><rect id="cead5-icon" class="Icon" transform="matrix(.99896 0 0 .94129 .49948 .47065)" width="960.03" height="16.033" fill="#ff9" stroke="#f60"/></g><g id="fb6e0" class="Label" transform="translate(862.03 8)" color="#ff6600"  name="Cell membrane"><use id="fb6e0-icon" class="Icon" width="90" height="20" fill="transparent"  stroke="#ff6600" stroke-width="0" xlink:href="#none"/><text id="fb6e0-text" class="Text" transform="translate(45,13)" fill="#ff6600"  font-size="10px" font-weight="bold" stroke="black" stroke-width="0" text-anchor="middle"><tspan x="0" y="0">Cell membrane</tspan></text></g></g><g id="e7fae" class="GroupGroup" transform="translate(328,156)" color="grey" ><use id="e7fae-icon" class="Icon" width="251" height="159" fill="transparent"  stroke="grey" stroke-dasharray="5,3" stroke-width="0" xlink:href="#none"/><a  id="eda83" class="GeneProduct EPOR " transform="translate(85,8)"   name="EPOR"  ><rect id="eda83-icon" class="Icon" transform="matrix(.98765 0 0 .98305 .49383 .49153)" width="80" height="58" fill="#fff" stroke="#000"/><text id="eda83-text" class="Text" transform="translate(40,32)" fill="#000"  font-size="10px" stroke="white" stroke-width="0" text-anchor="middle"><tspan x="0" y="0">EPOR</tspan></text></a><a  id="cff3e" class="GeneProduct JAK2 " transform="translate(8,77)"   name="JAK2"  ><rect id="cff3e-icon" class="Icon" transform="matrix(.98765 0 0 .95238 .49383 .47619)" width="80" height="20" fill="#fff" stroke="#000"/><text id="cff3e-text" class="Text" transform="translate(40,13)" fill="#000"  font-size="10px" stroke="white" stroke-width="0" text-anchor="middle"><tspan x="0" y="0">JAK2</tspan></text></a><a  id="c4243" class="GeneProduct SRC " transform="translate(163,89)"   name="SRC"  ><rect id="c4243-icon" class="Icon" transform="matrix(.98765 0 0 .95238 .49383 .47619)" width="80" height="20" fill="#fff" stroke="#000"/><text id="c4243-text" class="Text" transform="translate(40,13)" fill="#000"  font-size="10px" stroke="white" stroke-width="0" text-anchor="middle"><tspan x="0" y="0">SRC</tspan></text></a><g id="ed410" class="Label" transform="translate(85,66)" color="#000"  name="Box-1"><rect id="ed410-icon" class="Icon" transform="matrix(.98765 0 0 .95455 .49383 .47727)" width="80" height="21" rx="15" ry="15" fill="#fff" stroke="#000"/><text id="ed410-text" class="Text" transform="translate(40,13.5)" fill="#000"  font-size="10px" stroke="white" stroke-width="0" text-anchor="middle"><tspan x="0" y="0">Box-1</tspan></text></g><g id="c6a73" class="Label" transform="translate(85,87)" color="#000"  name="Box-2"><rect id="c6a73-icon" class="Icon" transform="matrix(.98765 0 0 .95455 .49383 .47727)" width="80" height="21" rx="15" ry="15" fill="#fff" stroke="#000"/><text id="c6a73-text" class="Text" transform="translate(40,13.5)" fill="#000"  font-size="10px" stroke="white" stroke-width="0" text-anchor="middle"><tspan x="0" y="0">Box-2</tspan></text></g><g id="cddc3" class="Label" transform="translate(85,108)" color="#000"  name="Y343"><rect id="cddc3-icon" class="Icon" transform="matrix(.98765 0 0 .95455 .49383 .47727)" width="80" height="21" rx="15" ry="15" fill="#fff" stroke="#000"/><text id="cddc3-text" class="Text" transform="translate(40,13.5)" fill="#000"  font-size="10px" stroke="white" stroke-width="0" text-anchor="middle"><tspan x="0" y="0">Y343</tspan></text></g><g id="be2db" class="Label" transform="translate(64,108)" color="#000"  name="P"><rect id="be2db-icon" class="Icon" transform="matrix(.95652 0 0 .95455 .47826 .47727)" width="22" height="21" rx="15" ry="15" fill="#fff" stroke="#000"/><text id="be2db-text" class="Text" transform="translate(11,13.5)" fill="#000"  font-size="10px" stroke="white" stroke-width="0" text-anchor="middle"><tspan x="0" y="0">P</tspan></text></g><g id="b7191" class="Label" transform="translate(64,130)" color="#000"  name="P"><rect id="b7191-icon" class="Icon" transform="matrix(.95652 0 0 .95455 .47826 .47727)" width="22" height="21" rx="15" ry="15" fill="#fff" stroke="#000"/><text id="b7191-text" class="Text" transform="translate(11,13.5)" fill="#000"  font-size="10px" stroke="white" stroke-width="0" text-anchor="middle"><tspan x="0" y="0">P</tspan></text></g><g id="a74c3" class="Label" transform="translate(85,129)" color="#000"  name="Y431"><rect id="a74c3-icon" class="Icon" transform="matrix(.98765 0 0 .95455 .49383 .47727)" width="80" height="21" rx="15" ry="15" fill="#fff" stroke="#000"/><text id="a74c3-text" class="Text" transform="translate(40,13.5)" fill="#000"  font-size="10px" stroke="white" stroke-width="0" text-anchor="middle"><tspan x="0" y="0">Y431</tspan></text></g><g id="bdc08" class="Label" transform="translate(164,108)" color="#000"  name="P"><rect id="bdc08-icon" class="Icon" transform="matrix(.95652 0 0 .95455 .47826 .47727)" width="22" height="21" rx="15" ry="15" fill="#fff" stroke="#000"/><text id="bdc08-text" class="Text" transform="translate(11,13.5)" fill="#000"  font-size="10px" stroke="white" stroke-width="0" text-anchor="middle"><tspan x="0" y="0">P</tspan></text></g></g><g id="bc2b8" class="GroupGroup" transform="translate(611,158)" color="grey" ><use id="bc2b8-icon" class="Icon" width="138" height="221" fill="transparent"  stroke="grey" stroke-dasharray="5,3" stroke-width="0" xlink:href="#none"/><a  id="ae673" class="GeneProduct EPOR " transform="translate(29,8)"   name="EPOR"  ><rect id="ae673-icon" class="Icon" transform="matrix(.98765 0 0 .98305 .49383 .49153)" width="80" height="58" fill="#fff" stroke="#000"/><text id="ae673-text" class="Text" transform="translate(40,32)" fill="#000"  font-size="10px" stroke="white" stroke-width="0" text-anchor="middle"><tspan x="0" y="0">EPOR</tspan></text></a><g id="d9320" class="Label" transform="translate(108,108)" color="#000"  name="P"><rect id="d9320-icon" class="Icon" transform="matrix(.95652 0 0 .95455 .47826 .47727)" width="22" height="21" rx="15" ry="15" fill="#fff" stroke="#000"/><text id="d9320-text" class="Text" transform="translate(11,13.5)" fill="#000"  font-size="10px" stroke="white" stroke-width="0" text-anchor="middle"><tspan x="0" y="0">P</tspan></text></g><g id="a5151" class="Label" transform="translate(8,192)" color="#000"  name="P"><rect id="a5151-icon" class="Icon" transform="matrix(.95652 0 0 .95455 .47826 .47727)" width="22" height="21" rx="15" ry="15" fill="#fff" stroke="#000"/><text id="a5151-text" class="Text" transform="translate(11,13.5)" fill="#000"  font-size="10px" stroke="white" stroke-width="0" text-anchor="middle"><tspan x="0" y="0">P</tspan></text></g><g id="eda09" class="Label" transform="translate(108,172)" color="#000"  name="P"><rect id="eda09-icon" class="Icon" transform="matrix(.95652 0 0 .95455 .47826 .47727)" width="22" height="21" rx="15" ry="15" fill="#fff" stroke="#000"/><text id="eda09-text" class="Text" transform="translate(11,13.5)" fill="#000"  font-size="10px" stroke="white" stroke-width="0" text-anchor="middle"><tspan x="0" y="0">P</tspan></text></g><g id="bfe09" class="Label" transform="translate(29,108)" color="#000"  name="Y343"><rect id="bfe09-icon" class="Icon" transform="matrix(.98765 0 0 .95455 .49383 .47727)" width="80" height="21" rx="15" ry="15" fill="#fff" stroke="#000"/><text id="bfe09-text" class="Text" transform="translate(40,13.5)" fill="#000"  font-size="10px" stroke="white" stroke-width="0" text-anchor="middle"><tspan x="0" y="0">Y343</tspan></text></g><g id="c2764" class="Label" transform="translate(29,192)" color="#000"  name="Y479"><rect id="c2764-icon" class="Icon" transform="matrix(.98765 0 0 .95455 .49383 .47727)" width="80" height="21" rx="15" ry="15" fill="#fff" stroke="#000"/><text id="c2764-text" class="Text" transform="translate(40,13.5)" fill="#000"  font-size="10px" stroke="white" stroke-width="0" text-anchor="middle"><tspan x="0" y="0">Y479</tspan></text></g><g id="b53a4" class="Label" transform="translate(29,150)" color="#000" ><rect id="b53a4-icon" class="Icon" transform="matrix(.98765 0 0 .95455 .49383 .47727)" width="80" height="21" rx="15" ry="15" fill="#fff" stroke="#000"/></g><g id="dd0fb" class="Label" transform="translate(29,129)" color="#000" ><rect id="dd0fb-icon" class="Icon" transform="matrix(.98765 0 0 .95455 .49383 .47727)" width="80" height="21" rx="15" ry="15" fill="#fff" stroke="#000"/></g><g id="a7db2" class="Label" transform="translate(29,171)" color="#000"  name="Y460"><rect id="a7db2-icon" class="Icon" transform="matrix(.98765 0 0 .95455 .49383 .47727)" width="80" height="21" rx="15" ry="15" fill="#fff" stroke="#000"/><text id="a7db2-text" class="Text" transform="translate(40,13.5)" fill="#000"  font-size="10px" stroke="white" stroke-width="0" text-anchor="middle"><tspan x="0" y="0">Y460</tspan></text></g><g id="fc140" class="Label" transform="translate(29,87)" color="#000"  name="Box-2"><rect id="fc140-icon" class="Icon" transform="matrix(.98765 0 0 .95455 .49383 .47727)" width="80" height="21" rx="15" ry="15" fill="#fff" stroke="#000"/><text id="fc140-text" class="Text" transform="translate(40,13.5)" fill="#000"  font-size="10px" stroke="white" stroke-width="0" text-anchor="middle"><tspan x="0" y="0">Box-2</tspan></text></g><g id="b93b3" class="Label" transform="translate(29,66)" color="#000"  name="Box-1"><rect id="b93b3-icon" class="Icon" transform="matrix(.98765 0 0 .95455 .49383 .47727)" width="80" height="21" rx="15" ry="15" fill="#fff" stroke="#000"/><text id="b93b3-text" class="Text" transform="translate(40,13.5)" fill="#000"  font-size="10px" stroke="white" stroke-width="0" text-anchor="middle"><tspan x="0" y="0">Box-1</tspan></text></g></g><g id="ed80d" class="DirectedInteraction" color="#000" ><g color="#000" fill="transparent"  filter="url(#kaavioblackto000000filter)" stroke="#000" stroke-dasharray="32.2, 5.8"><path id="ed80d" class="EdgeBody" d="m453 126v38"   marker-end="url(#markerEndArrow)" /></g></g><g id="ec0d9" class="DirectedInteraction" color="#000" ><g color="#000" fill="transparent"  filter="url(#kaavioblackto000000filter)" stroke="#000" stroke-dasharray="35.2, 5.8"><path id="ec0d9" class="EdgeBody" d="m680 125v41"   marker-end="url(#markerEndArrow)" /></g></g><g id="df3ad" class="DirectedInteraction" color="#000" ><g color="#000" fill="transparent"  filter="url(#kaavioblackto000000filter)" stroke="#000" stroke-dasharray="233.8579016649287, 5.8"><path id="df3ad" class="EdgeBody" d="m392 274.5h-3.3333c-3.3333 0-10 0-13.333 34.583-3.3333 34.583-3.3333 103.75-10.833 138.33-7.5 34.583-22.5 34.583-30 34.583l-7.5 6e-14"   marker-end="url(#markerEndArrow)" /></g></g><g id="b7b57" class="DirectedInteraction" color="#000" ><g color="#000" fill="transparent"  filter="url(#kaavioblackto000000filter)" stroke="#000" stroke-dasharray="247.2, 5.8"><path id="b7b57" class="EdgeBody" d="m797 522v253"   marker-end="url(#markerEndArrow)" /></g></g><g id="a99b4" class="DirectedInteraction" color="#000" ><g color="#000" fill="transparent"  filter="url(#kaavioblackto000000filter)" stroke="#000" stroke-dasharray="328.1681143296301, 5.8"><path id="a99b4" class="EdgeBody" d="m598 442 0.98333 333.97"   marker-end="url(#markerEndArrow)" /></g></g><g id="e0ae1" class="DirectedInteraction" color="#000" ><g color="#000" fill="transparent"  filter="url(#kaavioblackto000000filter)" stroke="#000" stroke-dasharray="324.7, 5.8"><path id="e0ae1" class="EdgeBody" d="m963 269.5h20v140.5h-150v20"   marker-end="url(#markerEndArrow)" /></g></g><g id="e9cfb" class="DirectedInteraction" color="#000" ><g color="#000" fill="transparent"  filter="url(#kaavioblackto000000filter)" stroke="#000" stroke-dasharray="170.2000007891414, 5.8"><path id="e9cfb" class="EdgeBody" d="m385.5 600-0.016667 176"   marker-end="url(#markerEndArrow)" /></g></g><g id="e97e0" class="DirectedInteraction" color="#000" ><g color="#000" fill="transparent"  filter="url(#kaavioblackto000000filter)" stroke="#000" stroke-dasharray="252.20045273431418, 5.8"><path id="e97e0" class="EdgeBody" d="m264.5 518 0.48333 258"   marker-end="url(#markerEndArrow)" /></g></g><g id="d1f7b" class="Inhibition" color="#000" ><g color="#000" fill="transparent"  filter="url(#kaavioblackto000000filter)" stroke="#000" stroke-dasharray="138, 7"><path id="d1f7b" class="EdgeBody" d="m244 286h112v-33"   marker-end="url(#markerEndTBar)" /></g></g><g id="eebc8" class="DirectedInteraction" color="#000" ><g color="#000" fill="transparent"  filter="url(#kaavioblackto000000filter)" stroke="#000" stroke-dasharray="325.2000004196039, 5.8"><path id="eebc8" class="EdgeBody" d="m151.5 445-0.016667 331"   marker-end="url(#markerEndArrow)" /></g></g><g id="d7ace" class="DirectedInteraction" color="#000" ><g color="#000" fill="transparent"  filter="url(#kaavioblackto000000filter)" stroke="#000" stroke-dasharray="271.0851283565063, 5.8"><path id="d7ace" class="EdgeBody" d="m376 253v26c0 26 0 78-27 104-27 26-81 26-108 26l-27 1e-13"   marker-end="url(#markerEndArrow)" /></g></g><g id="ae35e" class="DirectedInteraction" color="#000" ><g color="#000" fill="transparent"  filter="url(#kaavioblackto000000filter)" stroke="#000" stroke-dasharray="227.68063844498266, 5.8"><path id="ae35e" class="EdgeBody" d="m392 296.5h-1.0833c-1.0833 0-3.25 0-4.3333 38.583-1.0833 38.583-1.0833 115.75-1.0833 154.33v38.583"   marker-end="url(#markerEndArrow)" /></g></g><g id="c0f03" class="Inhibition" color="#000" ><g color="#000" fill="transparent"  filter="url(#kaavioblackto000000filter)" stroke="#000" stroke-dasharray="159, 7"><path id="c0f03" class="EdgeBody" d="m182 231h56v12h98"   marker-end="url(#markerEndTBar)" /></g></g><g id="f97e7" class="GroupComplex" transform="translate(323,528)" color="grey" ><use id="f97e7-icon" class="Icon" transform="matrix(.99206 0 0 .9863 .49603 .49315)" width="125" height="72" fill="#b4b464" fill-opacity=".1" stroke="grey" xlink:href="#Octagon"/><g id="ed225" class="Label" transform="translate(91,12)" color="#000"  name="P"><rect id="ed225-icon" class="Icon" transform="matrix(.95652 0 0 .95455 .47826 .47727)" width="22" height="21" rx="15" ry="15" fill="#fff" stroke="#000"/><text id="ed225-text" class="Text" transform="translate(11,13.5)" fill="#000"  font-size="10px" stroke="white" stroke-width="0" text-anchor="middle"><tspan x="0" y="0">P</tspan></text></g><g id="b7249" class="Label" transform="translate(91,39)" color="#000"  name="P"><rect id="b7249-icon" class="Icon" transform="matrix(.95652 0 0 .95455 .47826 .47727)" width="22" height="21" rx="15" ry="15" fill="#fff" stroke="#000"/><text id="b7249-text" class="Text" transform="translate(11,13.5)" fill="#000"  font-size="10px" stroke="white" stroke-width="0" text-anchor="middle"><tspan x="0" y="0">P</tspan></text></g><a  id="f64b4" class="GeneProduct STAT3 " transform="translate(12,35)"   name="STAT3"  ><rect id="f64b4-icon" class="Icon" transform="matrix(.98765 0 0 .95238 .49383 .47619)" width="80" height="20" fill="#fff" stroke="#000"/><text id="f64b4-text" class="Text" transform="translate(40,13)" fill="#000"  font-size="10px" stroke="white" stroke-width="0" text-anchor="middle"><tspan x="0" y="0">STAT3</tspan></text></a><a  id="e22d7" class="GeneProduct STAT3 " transform="translate(12,15)"   name="STAT3"  ><rect id="e22d7-icon" class="Icon" transform="matrix(.98765 0 0 .95238 .49383 .47619)" width="80" height="20" fill="#fff" stroke="#000"/><text id="e22d7-text" class="Text" transform="translate(40,13)" fill="#000"  font-size="10px" stroke="white" stroke-width="0" text-anchor="middle"><tspan x="0" y="0">STAT3</tspan></text></a></g><g id="da768" class="GroupComplex" transform="translate(707,318)" color="grey" ><use id="da768-icon" class="Icon" transform="matrix(.99448 0 0 .99512 .49724 .49756)" width="180" height="204" fill="#b4b464" fill-opacity=".1" stroke="grey" xlink:href="#Octagon"/><g id="d236a" class="Label" transform="translate(146,122)" color="#000"  name="P"><rect id="d236a-icon" class="Icon" transform="matrix(.95652 0 0 .95455 .47826 .47727)" width="22" height="21" rx="15" ry="15" fill="#fff" stroke="#000"/><text id="d236a-text" class="Text" transform="translate(11,13.5)" fill="#000"  font-size="10px" stroke="white" stroke-width="0" text-anchor="middle"><tspan x="0" y="0">P</tspan></text></g><g id="ffb01" class="Label" transform="translate(146,162)" color="#000"  name="P"><rect id="ffb01-icon" class="Icon" transform="matrix(.95652 0 0 .95455 .47826 .47727)" width="22" height="21" rx="15" ry="15" fill="#fff" stroke="#000"/><text id="ffb01-text" class="Text" transform="translate(11,13.5)" fill="#000"  font-size="10px" stroke="white" stroke-width="0" text-anchor="middle"><tspan x="0" y="0">P</tspan></text></g><g id="e07c7" class="Label" transform="translate(12,93)" color="#000"  name="P"><rect id="e07c7-icon" class="Icon" transform="matrix(.95652 0 0 .95455 .47826 .47727)" width="22" height="21" rx="15" ry="15" fill="#fff" stroke="#000"/><text id="e07c7-text" class="Text" transform="translate(11,13.5)" fill="#000"  font-size="10px" stroke="white" stroke-width="0" text-anchor="middle"><tspan x="0" y="0">P</tspan></text></g><a  id="b79de" class="GeneProduct SHC1 " transform="translate(33,12)"   name="SHC1"  ><rect id="b79de-icon" class="Icon" transform="matrix(.98765 0 0 .95238 .49383 .47619)" width="80" height="20" fill="#fff" stroke="#000"/><text id="b79de-text" class="Text" transform="translate(40,13)" fill="#000"  font-size="10px" stroke="white" stroke-width="0" text-anchor="middle"><tspan x="0" y="0">SHC1</tspan></text></a><a  id="b0bea" class="GeneProduct GRB2 " transform="translate(33,32)"   name="GRB2"  ><rect id="b0bea-icon" class="Icon" transform="matrix(.98765 0 0 .95238 .49383 .47619)" width="80" height="20" fill="#fff" stroke="#000"/><text id="b0bea-text" class="Text" transform="translate(40,13)" fill="#000"  font-size="10px" stroke="white" stroke-width="0" text-anchor="middle"><tspan x="0" y="0">GRB2</tspan></text></a><a  id="e9a48" class="GeneProduct MAP2K1 " transform="translate(66,112)"   name="MEK1"  ><rect id="e9a48-icon" class="Icon" transform="matrix(.98765 0 0 .95238 .49383 .47619)" width="80" height="20" fill="#fff" stroke="#000"/><text id="e9a48-text" class="Text" transform="translate(40,13)" fill="#000"  font-size="10px" stroke="white" stroke-width="0" text-anchor="middle"><tspan x="0" y="0">MEK1</tspan></text></a><a  id="e49ea" class="GeneProduct MAPK3 " transform="translate(66,152)"   name="ERK1"  ><rect id="e49ea-icon" class="Icon" transform="matrix(.98765 0 0 .95238 .49383 .47619)" width="80" height="20" fill="#fff" stroke="#000"/><text id="e49ea-text" class="Text" transform="translate(40,13)" fill="#000"  font-size="10px" stroke="white" stroke-width="0" text-anchor="middle"><tspan x="0" y="0">ERK1</tspan></text></a><a  id="fe42f" class="GeneProduct MAPK1 " transform="translate(66,172)"   name="ERK2"  ><rect id="fe42f-icon" class="Icon" transform="matrix(.98765 0 0 .95238 .49383 .47619)" width="80" height="20" fill="#fff" stroke="#000"/><text id="fe42f-text" class="Text" transform="translate(40,13)" fill="#000"  font-size="10px" stroke="white" stroke-width="0" text-anchor="middle"><tspan x="0" y="0">ERK2</tspan></text></a><a  id="ec2ce" class="GeneProduct MAP2K2 " transform="translate(66,132)"   name="MEK2"  ><rect id="ec2ce-icon" class="Icon" transform="matrix(.98765 0 0 .95238 .49383 .47619)" width="80" height="20" fill="#fff" stroke="#000"/><text id="ec2ce-text" class="Text" transform="translate(40,13)" fill="#000"  font-size="10px" stroke="white" stroke-width="0" text-anchor="middle"><tspan x="0" y="0">MEK2</tspan></text></a><a  id="e7de4" class="GeneProduct RAF1 " transform="translate(33,92)"   name="RAF1"  ><rect id="e7de4-icon" class="Icon" transform="matrix(.98765 0 0 .95238 .49383 .47619)" width="80" height="20" fill="#fff" stroke="#000"/><text id="e7de4-text" class="Text" transform="translate(40,13)" fill="#000"  font-size="10px" stroke="white" stroke-width="0" text-anchor="middle"><tspan x="0" y="0">RAF1</tspan></text></a><a  id="d2bbc" class="GeneProduct SOS1 " transform="translate(33,52)"   name="SOS1"  ><rect id="d2bbc-icon" class="Icon" transform="matrix(.98765 0 0 .95238 .49383 .47619)" width="80" height="20" fill="#fff" stroke="#000"/><text id="d2bbc-text" class="Text" transform="translate(40,13)" fill="#000"  font-size="10px" stroke="white" stroke-width="0" text-anchor="middle"><tspan x="0" y="0">SOS1</tspan></text></a><a  id="c5a9b" class="GeneProduct RASA1 " transform="translate(33,72)"   name="RAS"  ><rect id="c5a9b-icon" class="Icon" transform="matrix(.98765 0 0 .95238 .49383 .47619)" width="80" height="20" fill="#fff" stroke="#000"/><text id="c5a9b-text" class="Text" transform="translate(40,13)" fill="#000"  font-size="10px" stroke="white" stroke-width="0" text-anchor="middle"><tspan x="0" y="0">RAS</tspan></text></a></g><g id="cbd49" class="GroupComplex" transform="translate(202,446)" color="grey" ><use id="cbd49-icon" class="Icon" transform="matrix(.99206 0 0 .9863 .49603 .49315)" width="125" height="72" fill="#b4b464" fill-opacity=".1" stroke="grey" xlink:href="#Octagon"/><g id="b4af2" class="Label" transform="translate(91,12)" color="#000"  name="P"><rect id="b4af2-icon" class="Icon" transform="matrix(.95652 0 0 .95455 .47826 .47727)" width="22" height="21" rx="15" ry="15" fill="#fff" stroke="#000"/><text id="b4af2-text" class="Text" transform="translate(11,13.5)" fill="#000"  font-size="10px" stroke="white" stroke-width="0" text-anchor="middle"><tspan x="0" y="0">P</tspan></text></g><g id="eaeb3" class="Label" transform="translate(91,39)" color="#000"  name="P"><rect id="eaeb3-icon" class="Icon" transform="matrix(.95652 0 0 .95455 .47826 .47727)" width="22" height="21" rx="15" ry="15" fill="#fff" stroke="#000"/><text id="eaeb3-text" class="Text" transform="translate(11,13.5)" fill="#000"  font-size="10px" stroke="white" stroke-width="0" text-anchor="middle"><tspan x="0" y="0">P</tspan></text></g><a  id="dcf6d" class="GeneProduct STAT5B " transform="translate(12,35)"   name="STAT5B"  ><rect id="dcf6d-icon" class="Icon" transform="matrix(.98765 0 0 .95238 .49383 .47619)" width="80" height="20" fill="#fff" stroke="#000"/><text id="dcf6d-text" class="Text" transform="translate(40,13)" fill="#000"  font-size="10px" stroke="white" stroke-width="0" text-anchor="middle"><tspan x="0" y="0">STAT5B</tspan></text></a><a  id="ccc1a" class="GeneProduct STAT5A " transform="translate(12,15)"   name="STAT5A"  ><rect id="ccc1a-icon" class="Icon" transform="matrix(.98765 0 0 .95238 .49383 .47619)" width="80" height="20" fill="#fff" stroke="#000"/><text id="ccc1a-text" class="Text" transform="translate(40,13)" fill="#000"  font-size="10px" stroke="white" stroke-width="0" text-anchor="middle"><tspan x="0" y="0">STAT5A</tspan></text></a></g><g id="ee500" class="GroupComplex" transform="translate(89,373)" color="grey" ><use id="ee500-icon" class="Icon" transform="matrix(.99206 0 0 .9863 .49603 .49315)" width="125" height="72" fill="#b4b464" fill-opacity=".1" stroke="grey" xlink:href="#Octagon"/><g id="cf2f6" class="Label" transform="translate(91,12)" color="#000"  name="P"><rect id="cf2f6-icon" class="Icon" transform="matrix(.95652 0 0 .95455 .47826 .47727)" width="22" height="21" rx="15" ry="15" fill="#fff" stroke="#000"/><text id="cf2f6-text" class="Text" transform="translate(11,13.5)" fill="#000"  font-size="10px" stroke="white" stroke-width="0" text-anchor="middle"><tspan x="0" y="0">P</tspan></text></g><g id="a969a" class="Label" transform="translate(91,39)" color="#000"  name="P"><rect id="a969a-icon" class="Icon" transform="matrix(.95652 0 0 .95455 .47826 .47727)" width="22" height="21" rx="15" ry="15" fill="#fff" stroke="#000"/><text id="a969a-text" class="Text" transform="translate(11,13.5)" fill="#000"  font-size="10px" stroke="white" stroke-width="0" text-anchor="middle"><tspan x="0" y="0">P</tspan></text></g><a  id="d3f46" class="GeneProduct STAT1 " transform="translate(12,35)"   name="STAT1"  ><rect id="d3f46-icon" class="Icon" transform="matrix(.98765 0 0 .95238 .49383 .47619)" width="80" height="20" fill="#fff" stroke="#000"/><text id="d3f46-text" class="Text" transform="translate(40,13)" fill="#000"  font-size="10px" stroke="white" stroke-width="0" text-anchor="middle"><tspan x="0" y="0">STAT1</tspan></text></a><a  id="a6b33" class="GeneProduct STAT1 " transform="translate(12,15)"   name="STAT1"  ><rect id="a6b33-icon" class="Icon" transform="matrix(.98765 0 0 .95238 .49383 .47619)" width="80" height="20" fill="#fff" stroke="#000"/><text id="a6b33-text" class="Text" transform="translate(40,13)" fill="#000"  font-size="10px" stroke="white" stroke-width="0" text-anchor="middle"><tspan x="0" y="0">STAT1</tspan></text></a></g><a  id="b3cbc" class="GeneProduct EPO " transform="translate(413,106)"   name="EPO"  ><rect id="b3cbc-icon" class="Icon" transform="matrix(.98765 0 0 .95238 .49383 .47619)" width="80" height="20" fill="#fff" stroke="#000"/><text id="b3cbc-text" class="Text" transform="translate(40,13)" fill="#000"  font-size="10px" stroke="white" stroke-width="0" text-anchor="middle"><tspan x="0" y="0">EPO</tspan></text></a><a  id="f5813" class="GeneProduct EPO " transform="translate(640,105)"   name="EPO"  ><rect id="f5813-icon" class="Icon" transform="matrix(.98765 0 0 .95238 .49383 .47619)" width="80" height="20" fill="#fff" stroke="#000"/><text id="f5813-text" class="Text" transform="translate(40,13)" fill="#000"  font-size="10px" stroke="white" stroke-width="0" text-anchor="middle"><tspan x="0" y="0">EPO</tspan></text></a><g id="a7cb0" class="GroupComplex" transform="translate(546,358)" color="grey" ><use id="a7cb0-icon" class="Icon" transform="matrix(.99048 0 0 .98824 .49524 .49412)" width="104" height="84" fill="#b4b464" fill-opacity=".1" stroke="grey" xlink:href="#Octagon"/><a  id="d1fdf" class="GeneProduct PDK1 " transform="translate(12,52)"   name="PDK1"  ><rect id="d1fdf-icon" class="Icon" transform="matrix(.98765 0 0 .95238 .49383 .47619)" width="80" height="20" fill="#fff" stroke="#000"/><text id="d1fdf-text" class="Text" transform="translate(40,13)" fill="#000"  font-size="10px" stroke="white" stroke-width="0" text-anchor="middle"><tspan x="0" y="0">PDK1</tspan></text></a><a  id="fc2b9" class="GeneProduct AKT1 " transform="translate(12,32)"   name="PKB"  ><rect id="fc2b9-icon" class="Icon" transform="matrix(.98765 0 0 .95238 .49383 .47619)" width="80" height="20" fill="#fff" stroke="#000"/><text id="fc2b9-text" class="Text" transform="translate(40,13)" fill="#000"  font-size="10px" stroke="white" stroke-width="0" text-anchor="middle"><tspan x="0" y="0">PKB</tspan></text></a><a  id="ab227" class="GeneProduct PIK3CG " transform="translate(12,12)"   name="PI3K"  ><rect id="ab227-icon" class="Icon" transform="matrix(.98765 0 0 .95238 .49383 .47619)" width="80" height="20" fill="#fff" stroke="#000"/><text id="ab227-text" class="Text" transform="translate(40,13)" fill="#000"  font-size="10px" stroke="white" stroke-width="0" text-anchor="middle"><tspan x="0" y="0">PI3K</tspan></text></a></g><g id="e3bcf" class="GroupComplex" transform="translate(140,254)" color="grey" ><use id="e3bcf-icon" class="Icon" transform="matrix(.99048 0 0 .98462 .49524 .49231)" width="104" height="64" fill="#b4b464" fill-opacity=".1" stroke="grey" xlink:href="#Octagon"/><a  id="aa3f5" class="GeneProduct SOCS1 " transform="translate(12,12)"   name="SOCS1"  ><rect id="aa3f5-icon" class="Icon" transform="matrix(.98765 0 0 .95238 .49383 .47619)" width="80" height="20" fill="#fff" stroke="#000"/><text id="aa3f5-text" class="Text" transform="translate(40,13)" fill="#000"  font-size="10px" stroke="white" stroke-width="0" text-anchor="middle"><tspan x="0" y="0">SOCS1</tspan></text></a><a  id="f14c4" class="GeneProduct CISH " transform="translate(12,32)"   name="CISH"  ><rect id="f14c4-icon" class="Icon" transform="matrix(.98765 0 0 .95238 .49383 .47619)" width="80" height="20" fill="#fff" stroke="#000"/><text id="f14c4-text" class="Text" transform="translate(40,13)" fill="#000"  font-size="10px" stroke="white" stroke-width="0" text-anchor="middle"><tspan x="0" y="0">CISH</tspan></text></a></g><g id="cfbf2" class="GroupComplex" transform="translate(90,135)" color="grey" ><use id="cfbf2-icon" class="Icon" transform="matrix(.99048 0 0 .9916 .49524 .4958)" width="104" height="118" fill="#b4b464" fill-opacity=".1" stroke="grey" xlink:href="#Octagon"/><a  id="d4530" class="GeneProduct PTPRC " transform="translate(30,12)"   name="CD45"  ><rect id="d4530-icon" class="Icon" transform="matrix(.97778 0 0 .98667 .48889 .49333)" width="44" height="74" fill="#fff" stroke="#000"/><text id="d4530-text" class="Text" transform="translate(22,40)" fill="#000"  font-size="10px" stroke="white" stroke-width="0" text-anchor="middle"><tspan x="0" y="0">CD45</tspan></text></a><a  id="aacad" class="GeneProduct PTPRU " transform="translate(12,86)"   name="PTP"  ><rect id="aacad-icon" class="Icon" transform="matrix(.98765 0 0 .95238 .49383 .47619)" width="80" height="20" fill="#fff" stroke="#000"/><text id="aacad-text" class="Text" transform="translate(40,13)" fill="#000"  font-size="10px" stroke="white" stroke-width="0" text-anchor="middle"><tspan x="0" y="0">PTP</tspan></text></a></g><g id="ea249" class="Label" transform="translate(829,260)" color="#000"  name="P"><rect id="ea249-icon" class="Icon" transform="matrix(.95652 0 0 .95455 .47826 .47727)" width="22" height="21" rx="15" ry="15" fill="#fff" stroke="#000"/><text id="ea249-text" class="Text" transform="translate(11,13.5)" fill="#000"  font-size="10px" stroke="white" stroke-width="0" text-anchor="middle"><tspan x="0" y="0">P</tspan></text></g><g id="bb6fc" class="GroupComplex" transform="translate(703,217)" color="grey" ><use id="bb6fc-icon" class="Icon" transform="matrix(.99617 0 0 .99057 .49808 .49528)" width="260" height="105" fill="#b4b464" fill-opacity=".1" stroke="grey" xlink:href="#Octagon"/><g id="b1bdf" class="Label" transform="translate(226,72)" color="#000"  name="P"><rect id="b1bdf-icon" class="Icon" transform="matrix(.95652 0 0 .95455 .47826 .47727)" width="22" height="21" rx="15" ry="15" fill="#fff" stroke="#000"/><text id="b1bdf-text" class="Text" transform="translate(11,13.5)" fill="#000"  font-size="10px" stroke="white" stroke-width="0" text-anchor="middle"><tspan x="0" y="0">P</tspan></text></g><a  id="c9c65" class="GeneProduct GRB2 " transform="translate(146,12)"   name="GRB2"  ><rect id="c9c65-icon" class="Icon" transform="matrix(.98765 0 0 .95238 .49383 .47619)" width="80" height="20" fill="#fff" stroke="#000"/><text id="c9c65-text" class="Text" transform="translate(40,13)" fill="#000"  font-size="10px" stroke="white" stroke-width="0" text-anchor="middle"><tspan x="0" y="0">GRB2</tspan></text></a><a  id="b1bb8" class="GeneProduct RAF1 " transform="translate(146,72)"   name="RAF1"  ><rect id="b1bb8-icon" class="Icon" transform="matrix(.98765 0 0 .95238 .49383 .47619)" width="80" height="20" fill="#fff" stroke="#000"/><text id="b1bb8-text" class="Text" transform="translate(40,13)" fill="#000"  font-size="10px" stroke="white" stroke-width="0" text-anchor="middle"><tspan x="0" y="0">RAF1</tspan></text></a><a  id="b4884" class="GeneProduct SOS1 " transform="translate(146,32)"   name="SOS1"  ><rect id="b4884-icon" class="Icon" transform="matrix(.98765 0 0 .95238 .49383 .47619)" width="80" height="20" fill="#fff" stroke="#000"/><text id="b4884-text" class="Text" transform="translate(40,13)" fill="#000"  font-size="10px" stroke="white" stroke-width="0" text-anchor="middle"><tspan x="0" y="0">SOS1</tspan></text></a><a  id="c5f46" class="GeneProduct IRS2 " transform="translate(45,57)"   name="IRS2"  ><rect id="c5f46-icon" class="Icon" transform="matrix(.98765 0 0 .95238 .49383 .47619)" width="80" height="20" fill="#fff" stroke="#000"/><text id="c5f46-text" class="Text" transform="translate(40,13)" fill="#000"  font-size="10px" stroke="white" stroke-width="0" text-anchor="middle"><tspan x="0" y="0">IRS2</tspan></text></a><a  id="ce795" class="GeneProduct JAK2 " transform="translate(12,16)"   name="JAK2"  ><rect id="ce795-icon" class="Icon" transform="matrix(.98765 0 0 .95238 .49383 .47619)" width="80" height="20" fill="#fff" stroke="#000"/><text id="ce795-text" class="Text" transform="translate(40,13)" fill="#000"  font-size="10px" stroke="white" stroke-width="0" text-anchor="middle"><tspan x="0" y="0">JAK2</tspan></text></a><a  id="f4068" class="GeneProduct IRS1 " transform="translate(45,37)"   name="IRS1"  ><rect id="f4068-icon" class="Icon" transform="matrix(.98765 0 0 .95238 .49383 .47619)" width="80" height="20" fill="#fff" stroke="#000"/><text id="f4068-text" class="Text" transform="translate(40,13)" fill="#000"  font-size="10px" stroke="white" stroke-width="0" text-anchor="middle"><tspan x="0" y="0">IRS1</tspan></text></a><a  id="b7cdf" class="GeneProduct RASA1 " transform="translate(146,52)"   name="RASA1"  ><rect id="b7cdf-icon" class="Icon" transform="matrix(.98765 0 0 .95238 .49383 .47619)" width="80" height="20" fill="#fff" stroke="#000"/><text id="b7cdf-text" class="Text" transform="translate(40,13)" fill="#000"  font-size="10px" stroke="white" stroke-width="0" text-anchor="middle"><tspan x="0" y="0">RASA1</tspan></text></a></g><text id="WP581-text" class="Text" transform="translate(5,27)" dominant-baseline="central" fill="black"  font-size="12px" font-weight="bold" overflow="visible" stroke="white" stroke-width="0"><tspan x="0" y="-9">Name: EPO receptor signaling</tspan> <tspan x="0" y="9">Organism: Homo sapiens</tspan></text></g></svg>
