<?xml version="1.0" encoding="UTF-8"?>
<svg xmlns="http://www.w3.org/2000/svg" id="-svg" class="Diagram"  baseProfile="full" prefix="schema:http://schema.org/" preserveAspectRatio="xMidYMid"  version="1.1"><defs><g id="icon-defs"><symbol id="Octagon" class=" Icon Octagon" x="0" y="0" overflow="visible" preserveAspectRatio="none" viewBox="0 0 100 100"><desc>Octagon</desc><path d="m0 25 25-25h50l25 25v50l-25 25h-50l-25-25z" vector-effect="non-scaling-stroke"/></symbol></g><g id="marker-defs"><marker id="markerstartarrow000" markerHeight="12" markerWidth="12" orient="auto" preserveAspectRatio="none" refY="6" viewBox="0 0 12 12"><g id="g-markerstartarrow000" transform="rotate(180 6 6)"><g transform="rotate(180 6 6)"><rect y="5.4" width="2" height="1.2" style="stroke:#fff"/><polygon points="12 11 0 6 12 1" stroke-width="0"/></g></g></marker><marker id="mea" markerHeight="12" markerWidth="12" orient="auto" preserveAspectRatio="none" refX="12" refY="6" viewBox="0 0 12 12"><g id="g-mea" transform=""><g transform="rotate(180 6 6)"><rect y="5.4" width="2" height="1.2" style="stroke:#fff"/><polygon points="12 11 0 6 12 1" stroke-width="0"/></g></g></marker></g></defs><g id="viewport-20220102145555027" class="svg-pan-zoom_viewport" transform="matrix(1.04 0 0 1.04 159.61 0)" style="transform:matrix(1.04, 0, 0, 1.04, 159.61, 0)"><style>svg.Diagram {font-family: 'Liberation Sans', Arial, sans-serif; }.Diagram path {fill: transparent;stroke: #000;marker-end: url(#mea);}.Diagram symbol path {fill: inherit;stroke: inherit;stroke-width: inherit;marker-end: inherit;}.Diagram rect {fill: #fff;stroke: #000;}.Diagram text {dominant-baseline: central;overflow: hidden;text-anchor: middle;fill: #000;font-size: 10px;}</style><style type="text/css">.Viewport .textContent {
  pointer-events: none;
  stroke-width: 0px;
}

					.Viewport.Icon {
  fill: white;
}

/* Hide the InfoBox */
.Viewport.textContent {
  font-size: 0;
}

.textContent {
  stroke: none;
}

.DataNode {
  stroke-miterlimit: 1;
  pointer-events: auto;
}

.DataNode:hover {
  cursor: pointer;
}

/* TODO should this apply to things other than DataNodes? */
.DataNode.textContent {
  pointer-events: none;
}

.DataNode.Highlighted {
  opacity: 0.6;
  stroke-width: 0px;
}

marker {
  /* this is what should work per the spec
  stroke-dasharray: none; */
  /* but I need to add this to make it work in Safari */
  stroke-dasharray: 9999999999999999999999999;
}

.Citation.Icon {
  fill: none;
  stroke-width: 0px;
}

.Citation.textContent {
  text-align: center;
  vertical-align: top;
  font-size: 7px;
  fill: #999;
  fill-opacity: 1;
  stroke: none;
}</style><g id="WP699" class="Pathway http___identifiers_org_pw_PW_0000124 http___identifiers_org_pw_PW_0001366 Viewport"  name="Name: Aflatoxin B1 metabolism Last Modified: 2/21/2013 Organism: Homo sapiens" ><g class="Pathway http___identifiers_org_pw_PW_0000124 http___identifiers_org_pw_PW_0001366 Viewport"><rect   width="845" height="685" style="stroke:none"/><g id="a0fce" class="Edge"  ><path    d="m290.5 349-1.78 46.17" marker-start="url(#markerstartarrow000)"/></g><g id="a9ec0" class="Edge"  ><path    d="m280 142h-83"/><g id="cd543" class="AB" transform="translate(239,142)"  ><g class="AB"/></g></g><g id="ae829" class="Edge"  ><path    d="m406.5 260-0.5 51" stroke-dasharray="5,3"/></g><g id="b30fd" class="Edge"  ><path    d="m430 545.31 0.5 33.69"/></g><g id="b5af9" class="Edge"  ><path    d="m239 82v60"/></g><g id="badb2" class="Edge"  ><path    d="M430.5,599L319,635"/></g><g id="bcf85" class="Edge"  ><path    d="m300 152-32 88"/><g id="c3a65" class="AB" transform="translate(284.64 194.23)"  ><g class="AB"/></g></g><g id="ab5fb" class="Edge"  ><path    d="m190 194 94.64 0.23"/></g><g id="c8ae1" class="Edge"  ><path    d="m480 250h158"/><g id="be322" class="AB" transform="translate(577,250)"  ><g class="AB"/></g></g><g id="ca368" class="Edge"  ><path    d="m542 142h64"/><g id="e8310" class="AB" transform="translate(572,142)"  ><g class="AB"/></g></g><g id="bb58c" class="Edge"  ><path    d="m572 88v54"/></g><g id="ccbaa" class="Edge"  ><path    d="m255.72 415.17-65.22 97.83"/><g id="b34a7" class="AB" transform="translate(211.16 482.01)"  ><g class="AB"/></g></g><g id="cfb30" class="Edge"  ><path    d="m321.72 415.17 68.78 110.13"/><g id="c6d45" class="AB" transform="translate(370.59 493.42)"  ><g class="AB"/></g></g><g id="d2ea3" class="Edge"  ><path    d="m340 152 29.75 88"/><g id="cdc80" class="AB" transform="translate(354.58 195.13)"  ><g class="AB"/></g></g><g id="dccb8" class="Edge"  ><path    d="m151 533 0.5 46"/></g><g id="f1e7e" class="Edge"  ><path    d="m151.5 599 99.5 36"/></g><g id="f316a" class="Edge"  ><path    d="m360 142h102"/><g id="a1ef3" class="AB" transform="translate(408.96 142)"  ><g class="AB"/></g></g><g id="c0f6f" class="Edge"  ><path    d="m408 85 0.96 57"/></g><g id="fcfc8" class="Edge"  ><path    d="m369.75 260-79.25 69"/><g id="c8e9a" class="AB" transform="translate(314.05 308.5)"  ><g class="AB"/></g></g><g id="c5b41" class="Edge"  ><path    d="m251 308 63.05 0.50" stroke-dasharray="5,3"/></g><g id="d407b" class="Edge"  ><path    d="m239 483-27.84-0.99"/></g><g id="f6ba5" class="Edge"  ><path    d="m343 483 27.59 10.42"/></g><g id="dea95" class="Edge"  ><path    d="m385 195-30.42 0.13"/></g><g id="a0ddb" class="Edge"  ><path    d="m577 227v23"/></g><g id="b5013" class="Label" transform="translate(262,271)"  name="nonenzymatic" ><g class="Label"/><text   transform="translate(40,10)"    >nonenzymatic</text></g><g id="e7cdd" class="Label" transform="translate(208,358)"  name="nonenzymatic (pH-dependent)" ><g class="Label"/><text   transform="translate(40,14)"    ><tspan   x="0" y="-5.5">nonenzymatic</tspan><tspan   x="0" y="5.5">(pH-dependent)</tspan></text></g><g id="e8dd5" class="Label" transform="translate(366,311)"  name="DNA adducts" ><g class="Label"/><text   transform="translate(40,10)"    >DNA adducts</text></g><g id="a12e7" class="Metabolite" transform="translate(355,579)"  name="Aflatoxin B1 C8-monoalcohol" ><rect   width="151" height="20" style="stroke:#00f"/><text   transform="translate(75.5,10)"     style="fill:#00f">Aflatoxin B1 C8-monoalcohol</text></g><g id="a238f" class="Metabolite" transform="translate(151,240)"  name="Aflatoxin-endo-B1-8,9-epoxide" ><rect   width="156" height="20" style="stroke:#00f"/><text   transform="translate(78,10)"     style="fill:#00f">Aflatoxin-endo-B1-8,9-epoxide</text></g><g id="c3289" class="Metabolite" transform="translate(638,240)"  name="Aflatoxin B1 exo-8,9-epoxide-GSH" ><rect   width="177" height="20" style="stroke:#00f"/><text   transform="translate(88.5,10)"     style="fill:#00f">Aflatoxin B1 exo-8,9-epoxide-GSH</text></g><g id="c48fb" class="GeneProduct " transform="translate(171,298)"  name="EPHX1" ><rect   width="80" height="20"/><text   transform="translate(40,10)"    >EPHX1</text></g><g id="ca92d" class="GeneProduct " transform="translate(368,65)"  name="CYP1A2" ><rect   width="80" height="20"/><text   transform="translate(40,10)"    >CYP1A2</text></g><g id="d1240" class="Metabolite" transform="translate(217,635)"  name="Aflatoxin B1-6,8-dialcohol" ><rect   width="136" height="20" style="stroke:#00f"/><text   transform="translate(68,10)"     style="fill:#00f">Aflatoxin B1-6,8-dialcohol</text></g><g id="d35ce" class="Metabolite " transform="translate(218,329)"  name="Aflatoxin B1 8,9-dihydrodiol" ><rect   width="145" height="20" style="stroke:#00f"/><text   transform="translate(72.5,10)"     style="fill:#00f">Aflatoxin B1 8,9-dihydrodiol</text></g><g id="d4505" class="Metabolite " transform="translate(222.72 395.17)"  name="Aflatoxin B1 dialdehyde" ><rect   width="132" height="20" style="stroke:#00f"/><text   transform="translate(66,10)"     style="fill:#00f">Aflatoxin B1 dialdehyde</text></g><g id="d7dec" class="GeneProduct " transform="translate(110,184)"  name="CYP1A2" ><rect   width="80" height="20"/><text   transform="translate(40,10)"    >CYP1A2</text></g><g id="df622" class="Metabolite " transform="translate(280,132)"  name="aflatoxin B1" ><rect   width="80" height="20" style="stroke:#00f"/><text   transform="translate(40,10)"     style="fill:#00f">aflatoxin B1</text></g><g id="e2f80" class="Metabolite " transform="translate(333,240)"  name="Aflatoxin B1 exo-8,9-epoxide" ><rect   width="147" height="20" style="stroke:#00f"/><text   transform="translate(73.5,10)"     style="fill:#00f">Aflatoxin B1 exo-8,9-epoxide</text></g><g id="e3b9e" class="Metabolite" transform="translate(462,132)"  name="Aflatoxin M1" ><rect   width="80" height="20" style="stroke:#00f"/><text   transform="translate(40,10)"     style="fill:#00f">Aflatoxin M1</text></g><g id="e42c7" class="Metabolite" transform="translate(351 525.31)"  name="Aflatoxin B1 C8-monoaldehyde" ><rect   width="158" height="20" style="stroke:#00f"/><text   transform="translate(79,10)"     style="fill:#00f">Aflatoxin B1 C8-monoaldehyde</text></g><g id="e85a1" class="Metabolite" transform="translate(606,132)"  name="Aflatoxin M1 epoxide" ><rect   width="115" height="20" style="stroke:#00f"/><text   transform="translate(57.5,10)"     style="fill:#00f">Aflatoxin M1 epoxide</text></g><g id="e99d8" class="GeneProduct " transform="translate(532,68)"  name="CYP2A13" ><rect   width="80" height="20"/><text   transform="translate(40,10)"    >CYP2A13</text></g><g id="ebc2f" class="Metabolite" transform="translate(76,579)"  name="Aflatoxin B1 C6-monoalcohol" ><rect   width="151" height="20" style="stroke:#00f"/><text   transform="translate(75.5,10)"     style="fill:#00f">Aflatoxin B1 C6-monoalcohol</text></g><g id="ebd78" class="Metabolite" transform="translate(117,132)"  name="Aflatoxin Q1" ><rect   width="80" height="20" style="stroke:#00f"/><text   transform="translate(40,10)"     style="fill:#00f">Aflatoxin Q1</text></g><g id="f7dca" class="GeneProduct " transform="translate(199,62)"  name="CYP3A4" ><rect   width="80" height="20"/><text   transform="translate(40,10)"    >CYP3A4</text></g><g id="fb5f1" class="Metabolite" transform="translate(72,513)"  name="Aflatoxin B1 C6-monoaldehyde" ><rect   width="158" height="20" style="stroke:#00f"/><text   transform="translate(79,10)"     style="fill:#00f">Aflatoxin B1 C6-monoaldehyde</text></g><g id="a440e" class="GroupComplex" transform="translate(239,451)"  ><g class="GroupComplex"><use class="Icon" width="104" height="64" fill="#b4b464" fill-opacity=".1" stroke="grey" href="#Octagon"/><g id="a5f5e" class="GeneProduct " transform="translate(12,12)"  name="AKR7A2" ><rect   width="80" height="20"/><text   transform="translate(40,10)"    >AKR7A2</text></g><g id="ae411" class="GeneProduct " transform="translate(12,32)"  name="AKR7A3" ><rect   width="80" height="20"/><text   transform="translate(40,10)"    >AKR7A3</text></g></g></g><g id="bf33d" class="GroupComplex" transform="translate(385,153)"  ><g class="GroupComplex"><use class="Icon" width="104" height="84" fill="#b4b464" fill-opacity=".1" stroke="grey" href="#Octagon"/><g id="a6499" class="GeneProduct " transform="translate(12,12)"  name="CYP1A2" ><rect   width="80" height="20"/><text   transform="translate(40,10)"    >CYP1A2</text></g><g id="c2cd3" class="GeneProduct " transform="translate(12,52)"  name="CYP2A13" ><rect   width="80" height="20"/><text   transform="translate(40,10)"    >CYP2A13</text></g><g id="fc4a1" class="GeneProduct " transform="translate(12,32)"  name="CYP3A4" ><rect   width="80" height="20"/><text   transform="translate(40,10)"    >CYP3A4</text></g></g></g><g id="c62a4" class="GroupComplex" transform="translate(525,163)"  ><g class="GroupComplex"><use class="Icon" width="104" height="64" fill="#b4b464" fill-opacity=".1" stroke="grey" href="#Octagon"/><g id="b6f29" class="GeneProduct " transform="translate(12,12)"  name="GSTT1" ><rect   width="80" height="20"/><text   transform="translate(40,10)"    >GSTT1</text></g><g id="b8659" class="GeneProduct " transform="translate(12,32)"  name="GSTM1" ><rect   width="80" height="20"/><text   transform="translate(40,10)"    >GSTM1</text></g></g></g></g></g></g></svg>