<?xml version="1.0" encoding="UTF-8"?>
<svg xmlns="http://www.w3.org/2000/svg" id="-svg" class="Diagram"  baseProfile="full" prefix="schema:http://schema.org/" preserveAspectRatio="xMidYMid"  version="1.1"><defs><g id="icon-defs"><symbol id="Octagon" class=" Icon Octagon" x="0" y="0" overflow="visible" preserveAspectRatio="none" viewBox="0 0 100 100"><desc>Octagon</desc><path d="m0 25 25-25h50l25 25v50l-25 25h-50l-25-25z" vector-effect="non-scaling-stroke"/></symbol></g><g id="marker-defs"><marker id="mea" markerHeight="12" markerWidth="12" orient="auto" preserveAspectRatio="none" refX="12" refY="6" viewBox="0 0 12 12"><g id="g-mea" transform=""><g transform="rotate(180 6 6)"><rect y="5.4" width="2" height="1.2" style="stroke:#fff"/><polygon points="12 11 0 6 12 1" stroke-width="0"/></g></g></marker><marker id="memcatalysis000" markerHeight="12" markerWidth="12" orient="auto" preserveAspectRatio="none" refX="12" refY="6" viewBox="0 0 12 12"><g id="g-memcatalysis000" transform=""><g transform="rotate(180 6 6)"><circle cx="6" cy="6" r="5.3px" fill="#fff" stroke="#000"/></g></g></marker><marker id="meminhibition000" markerHeight="20" markerWidth="10" orient="auto" preserveAspectRatio="none" refX="10" refY="10" viewBox="0 0 10 20"><g id="g-meminhibition000" transform=""><g transform="rotate(180 5 10)"><rect y="9" width="8" height="2" style="stroke:none"/><line x="0" y="0" width="12" height="12" x1="7" x2="7" y2="20" stroke="#000" stroke-width="1.8"/></g></g></marker></g></defs><g id="viewport-20220102145542750" class="svg-pan-zoom_viewport" transform="matrix(1.47 0 0 1.47 57.15 0)" style="transform:matrix(1.47, 0, 0, 1.47, 57.15, 0)"><style>svg.Diagram {font-family: 'Liberation Sans', Arial, sans-serif; }.Diagram path {fill: transparent;stroke: #000;marker-end: url(#mea);}.Diagram symbol path {fill: inherit;stroke: inherit;stroke-width: inherit;marker-end: inherit;}.Diagram rect {fill: #fff;stroke: #000;}.Diagram text {dominant-baseline: central;overflow: hidden;text-anchor: middle;fill: #000;font-size: 10px;}</style><style type="text/css">.Viewport .textContent {
  pointer-events: none;
  stroke-width: 0px;
}

					.Viewport.Icon {
  fill: white;
}

/* Hide the InfoBox */
.Viewport.textContent {
  font-size: 0;
}

.textContent {
  stroke: none;
}

.DataNode {
  stroke-miterlimit: 1;
  pointer-events: auto;
}

.DataNode:hover {
  cursor: pointer;
}

/* TODO should this apply to things other than DataNodes? */
.DataNode.textContent {
  pointer-events: none;
}

.DataNode.Highlighted {
  opacity: 0.6;
  stroke-width: 0px;
}

marker {
  /* this is what should work per the spec
  stroke-dasharray: none; */
  /* but I need to add this to make it work in Safari */
  stroke-dasharray: 9999999999999999999999999;
}

.Citation.Icon {
  fill: none;
  stroke-width: 0px;
}

.Citation.textContent {
  text-align: center;
  vertical-align: top;
  font-size: 7px;
  fill: #999;
  fill-opacity: 1;
  stroke: none;
}</style><g id="WP692" class="Pathway http___identifiers_org_pw_PW_0000860 Viewport"  name="Name: Sulfation biotransformation reaction License: CC BY 2.0 Last Modified: 2/22/2013 Organism: Homo sapiens" ><g class="Pathway http___identifiers_org_pw_PW_0000860 Viewport"><rect   width="739" height="486" style="stroke:none"/><g id="a5d9e" class="Edge"  ><path    d="m225 296h198"/><g id="d8aa6" class="AB" transform="translate(310,296)"  ><g class="AB"/></g></g><g id="a98be" class="Edge"  ><path    d="m343 24h-5.83c-5.83 0-17.5 0-23.33 11.33-5.83 11.33-5.83 34 0.17 45.33 6 11.33 18 11.33 24 11.33l6 1e-14"/><g id="b54fb" class="AB" transform="translate(309.48 57.52)"  ><g class="AB"/></g></g><g id="a9f78" class="Edge"  ><path    d="m463 286-1e-13 -15.17c4e-14 -15.17 4e-14 -45.5 19.17-60.67 19.17-15.17 57.5-15.17 76.67 0 19.17 15.17 19.17 45.5 19.17 60.67v15.17"/></g><g id="abced" class="Edge"  ><path    d="m262 259v6c0 6 0 18 16.67 24 16.67 6 50 6 66.67 0 16.67-6 16.67-18 16.67-24l6e-14 -6"/></g><g id="be82f" class="Edge"  ><path    d="m580 28.48 3.83-7e-15c3.83 3e-15 11.5 3e-15 15.33 8.92 3.83 8.92 3.83 26.76-0.33 35.68-4.17 8.92-12.5 8.92-16.67 8.92h-4.17"/><g id="c3359" class="AB" transform="translate(602 55.01)"  ><g class="AB"/></g></g><g id="c9af0" class="Edge"  ><path    d="m456 82h-3.33c-3.33 0-10 0-13.33-8.92-3.33-8.92-3.33-26.76 0.16-35.68 3.50-8.92 10.49-8.92 13.99-8.92l3.50 7e-15"/><g id="c46ab" class="AB" transform="translate(436.86 55.97)"  ><g class="AB"/></g></g><g id="aeefb" class="Edge"  ><path    d="m412 56 24.03-0.07" style="marker-end:url(#memcatalysis000)"/></g><g id="dc4a8" class="Edge"  ><path    d="m278 57 30.02 0.56" style="marker-end:url(#memcatalysis000)"/></g><g id="e0780" class="Edge"  ><path    d="m185 424v-118"/><g id="ff529" class="AB" transform="translate(185,370)"  ><g class="AB"/></g></g><g id="ec4ed" class="Edge"  ><path    d="m517 92v57" style="marker-end:url(#meminhibition000)"/><g id="c6919" class="AB" transform="translate(517,117)"  ><g class="AB"/></g></g><g id="ecdf8" class="Edge"  ><path    d="m150 346h5.33c5.33 0 16 0 21.33 8.17 5.33 8.17 5.33 24.5 0.17 32.67-5.17 8.17-15.5 8.17-20.67 8.17l-5.17 6e-14"/></g><g id="eecbd" class="Edge"  ><path    d="m629 54-26.01 1.05" style="marker-end:url(#memcatalysis000)"/></g><g id="f34cf" class="Edge"  ><path    d="m463 286v-169h54" style="marker-end:url(#meminhibition000)"/></g><g id="f4b9a" class="Edge"  ><path    d="m455 194h147"/><g id="a29e7" class="AB" transform="translate(517,194)"  ><g class="AB"/></g></g><g id="f3cb1" class="Edge"  ><path    d="m517 169v25" style="marker-end:url(#memcatalysis000)"/></g><g id="fcc06" class="Edge"  ><path    d="m424 92 2-1e-14c2 1e-14 6 1e-14 8-11.33 2-11.33 2-34-0.17-45.33-2.17-11.33-6.5-11.33-8.67-11.33h-2.17"/></g><g id="d26cc" class="Edge"  ><path    d="m258 370h-73" style="marker-end:url(#memcatalysis000)"/></g><g id="d2d7d" class="Edge"  ><path    d="m310 338v-42" style="marker-end:url(#memcatalysis000)"/></g><g id="b2ad0" class="" transform="translate(35 231.97)"  ><g class=""><rect   width="480" height="224.03" style="fill:transparent;stroke:#999"/></g></g><g id="c3ad9" class="GroupGroup" transform="translate(-0.03 56.97)"  ><g class="GroupGroup"><g id="aeeed" class="" transform="translate(8,8)"  ><g class=""><rect   width="174.03" height="154.03" style="fill:transparent;stroke:#f03"/></g></g><g id="a0aeb" class="GeneProduct " transform="translate(95.03 95.03)"  name="SULT1E1" ><rect   width="80" height="20" style="stroke:#f03"/><text   transform="translate(40,10)"     style="fill:#ff0033">SULT1E1</text></g><g id="b2fc3" class="GeneProduct " transform="translate(15.03 15.03)"  name="SULT1A1" ><rect   width="80" height="20" style="stroke:#f03"/><text   transform="translate(40,10)"     style="fill:#ff0033">SULT1A1</text></g><g id="c6d02" class="GeneProduct " transform="translate(95.03 135.03)"  name="SULT6B1" ><rect   width="80" height="20" style="stroke:#f03"/><text   transform="translate(40,10)"     style="fill:#ff0033">SULT6B1</text></g><g id="c993e" class="GeneProduct " transform="translate(15.03 135.03)"  name="SULT4A1" ><rect   width="80" height="20" style="stroke:#f03"/><text   transform="translate(40,10)"     style="fill:#ff0033">SULT4A1</text></g><g id="cfc18" class="GeneProduct " transform="translate(95.03 35.03)"  name="SULT1A4" ><rect   width="80" height="20" style="stroke:#f03"/><text   transform="translate(40,10)"     style="fill:#ff0033">SULT1A4</text></g><g id="d4728" class="GeneProduct " transform="translate(95.03 15.03)"  name="SULT1A2" ><rect   width="80" height="20" style="stroke:#f03"/><text   transform="translate(40,10)"     style="fill:#ff0033">SULT1A2</text></g><g id="e1f0d" class="GeneProduct " transform="translate(15.03 115.03)"  name="SULT2A1" ><rect   width="80" height="20" style="stroke:#f03"/><text   transform="translate(40,10)"     style="fill:#ff0033">SULT2A1</text></g><g id="e444e" class="GeneProduct " transform="translate(95.03 75.03)"  name="SULT1C3" ><rect   width="80" height="20" style="stroke:#f03"/><text   transform="translate(40,10)"     style="fill:#ff0033">SULT1C3</text></g><g id="eafc6" class="GeneProduct " transform="translate(15.03 35.03)"  name="SULT1A3" ><rect   width="80" height="20" style="stroke:#f03"/><text   transform="translate(40,10)"     style="fill:#ff0033">SULT1A3</text></g><g id="eb6c5" class="GeneProduct " transform="translate(15.03 95.03)"  name="SULT1C4" ><rect   width="80" height="20" style="stroke:#f03"/><text   transform="translate(40,10)"     style="fill:#ff0033">SULT1C4</text></g><g id="ebadf" class="GeneProduct " transform="translate(95.03 55.03)"  name="SULT1C1" ><rect   width="80" height="20" style="stroke:#f03"/><text   transform="translate(40,10)"     style="fill:#ff0033">SULT1C1</text></g><g id="f504b" class="GeneProduct " transform="translate(15.03 75.03)"  name="SULT1C2" ><rect   width="80" height="20" style="stroke:#f03"/><text   transform="translate(40,10)"     style="fill:#ff0033">SULT1C2</text></g><g id="f89bf" class="GeneProduct " transform="translate(15.03 55.03)"  name="SULT1B1" ><rect   width="80" height="20" style="stroke:#f03"/><text   transform="translate(40,10)"     style="fill:#ff0033">SULT1B1</text></g><g id="faca8" class="GeneProduct " transform="translate(95.03 115.03)"  name="SULT2B1" ><rect   width="80" height="20" style="stroke:#f03"/><text   transform="translate(40,10)"     style="fill:#ff0033">SULT2B1</text></g></g></g><g id="a0906" class="Label" transform="translate(185,351)"  name="sulfurylase" ><g class="Label"/><text   transform="translate(40,10)"    >sulfurylase</text></g><g id="a3eac" class="Label" transform="translate(602,181.5)"  name="Substrate sulfate" ><g class="Label"/><text   transform="translate(52.5,12.5)"     style="fill:#00ff66;font-size:12px">Substrate sulfate</text></g><g id="a7d22" class="Label" transform="translate(365,181.5)"  name="Substrate" ><g class="Label"/><text   transform="translate(45,12.5)"     style="fill:#00ff66;font-size:12px">Substrate</text></g><g id="b1053" class="Label" transform="translate(298,316)"  name="APS kinase" ><g class="Label"/><text   transform="translate(40,10)"    >APS kinase</text></g><g id="b874a" class="Label" transform="translate(34,231)"  name="PAPS synthesis (co-substrate)" ><rect   width="174" height="20" style="stroke:#999"/><text   transform="translate(87,10)"     style="fill:#999">PAPS synthesis (co-substrate)</text></g><g id="effa8" class="Label" transform="translate(524,126)"  name="modification of Cys83 in SULT1E1" ><g class="Label"/><text   transform="translate(88.5,10)"    >modification of Cys83 in SULT1E1</text></g><g id="a9bd0" class="Metabolite " transform="translate(145,424)"  name="Sulfate" ><rect   width="80" height="20" style="stroke:#00f"/><text   transform="translate(40,10)"     style="fill:#00f">Sulfate</text></g><g id="b19ad" class="Metabolite " transform="translate(70,336)"  name="ATP" ><rect   width="80" height="20" style="stroke:#00f"/><text   transform="translate(40,10)"     style="fill:#00f">ATP</text></g><g id="b1db5" class="Metabolite " transform="translate(456.98 18.48)"  name="Glutathione (reduced)" ><rect   width="123.02" height="20" style="stroke:#00f"/><text   transform="translate(61.51 10)"     style="fill:#00f">Glutathione (reduced)</text></g><g id="b6da1" class="Metabolite " transform="translate(423,286)"  name="PAPS" ><rect   width="80" height="20" style="stroke:#00f"/><text   transform="translate(40,10)"     style="fill:#00f">PAPS</text></g><g id="c1483" class="GeneProduct" transform="translate(629,44)"  name="GPX" ><rect   width="80" height="20"/><text   transform="translate(40,10)"    >GPX</text></g><g id="c1752" class="GeneProduct" transform="translate(471,149)"  name="Sulfotransferase" ><rect   width="92" height="20" style="stroke:#f03"/><text   transform="translate(46,10)"     style="fill:#ff0033">Sulfotransferase</text></g><g id="c52fb" class="GeneProduct " transform="translate(198,47)"  name="G6PD" ><rect   width="80" height="20"/><text   transform="translate(40,10)"    >G6PD</text></g><g id="cab83" class="Metabolite " transform="translate(344,82)"  name="NADPH" ><rect   width="80" height="20" style="stroke:#00f"/><text   transform="translate(40,10)"     style="fill:#00f">NADPH</text></g><g id="d04e5" class="Metabolite " transform="translate(456,72)"  name="Glutathione (oxidized)" ><rect   width="122" height="20" style="stroke:#00f"/><text   transform="translate(61,10)"     style="fill:#00f">Glutathione (oxidized)</text></g><g id="d53c1" class="Metabolite" transform="translate(71,385)"  name="PPi" ><rect   width="80" height="20" style="stroke:#00f"/><text   transform="translate(40,10)"     style="fill:#00f">PPi</text></g><g id="dd1af" class="GeneProduct " transform="translate(332,46)"  name="GSR" ><rect   width="80" height="20"/><text   transform="translate(40,10)"    >GSR</text></g><g id="e5377" class="Metabolite " transform="translate(145,286)"  name="APS" ><rect   width="80" height="20" style="stroke:#00f"/><text   transform="translate(40,10)"     style="fill:#00f">APS</text></g><g id="efc9b" class="Metabolite " transform="translate(222,239)"  name="ATP" ><rect   width="80" height="20" style="stroke:#00f"/><text   transform="translate(40,10)"     style="fill:#00f">ATP</text></g><g id="f2a78" class="Metabolite " transform="translate(538,286)"  name="PAP" ><rect   width="80" height="20" style="stroke:#00f"/><text   transform="translate(40,10)"     style="fill:#00f">PAP</text></g><g id="f86e8" class="Metabolite " transform="translate(343,14)"  name="NADP+" ><rect   width="80" height="20" style="stroke:#00f"/><text   transform="translate(40,10)"     style="fill:#00f">NADP+</text></g><g id="fde0b" class="Metabolite " transform="translate(322,239)"  name="ADP" ><rect   width="80" height="20" style="stroke:#00f"/><text   transform="translate(40,10)"     style="fill:#00f">ADP</text></g><g id="e366d" class="GroupComplex" transform="translate(258,338)"  ><g class="GroupComplex"><use class="Icon" width="104" height="64" fill="#b4b464" fill-opacity=".1" stroke="grey" href="#Octagon"/><g id="a7615" class="GeneProduct " transform="translate(12,32)"  name="PAPSS2" ><rect   width="80" height="20"/><text   transform="translate(40,10)"    >PAPSS2</text></g><g id="c06a9" class="GeneProduct " transform="translate(12,12)"  name="PAPSS1" ><rect   width="80" height="20"/><text   transform="translate(40,10)"    >PAPSS1</text></g></g></g></g></g></g></svg>