<?xml version="1.0" encoding="UTF-8"?>
<!--
  WikiPathways page: https://www.wikipathways.org/index.php/Pathway:WP1263
  URL for this compressed file: https://github.com/eweitz/cachome/tree/main/data/WP1263.svg
  Source code for compression: https://github.com/eweitz/cachome/tree/main/src/wikipathways.py
-->
<svg id="wp1263-svg" class="Diagram" width="800" height="600" color="black" baseProfile="full" prefix="schema:http://schema.org/" preserveAspectRatio="xMidYMid" version="1.1" viewBox="0 0 746 767" vocab="http://vocabularies.wikipathways.org/wp#" xmlns="http://www.w3.org/2000/svg" xmlns:xlink="http://www.w3.org/1999/xlink"><style>svg {font-family: 'Liberation Sans', Arial, sans-serif; }</style><defs><g id="jit-defs"><filter id="kaavioblackto000000filter" x="0" y="0" width="746" height="767" filterUnits="userSpaceOnUse"><feColorMatrix in="SourceGraphic" values="-1   0   0 0 0                   0  -1   0 0 0                   0   0  -1 0 0                   0   0   0 1 0"/></filter></g><g id="jic-defs"><marker id="markerEndArrow" stroke-dasharray="99999" markerHeight="12" markerUnits="userSpaceOnUse" markerWidth="12" orient="auto" preserveAspectRatio="none" refX="12" refY="6" viewBox="0 0 12 12"><path transform="rotate(180 6 6)" d="M12 11L0 6l12-5z" fill="currentColor" stroke-width="0"/></marker><symbol id="Ellipse" overflow="visible" preserveAspectRatio="none" viewBox="0 0 50 50"><ellipse cx="25" cy="25" rx="25" ry="25" stroke="currentColor" vector-effect="non-scaling-stroke"/></symbol></g></defs><g id="WP1263" class="Viewport" color="black"  name="Name: Mitochondrial gene expression Last Modified: 10/17/2013 Organism: Mus musculus"><rect id="WP1263-icon" class="Icon" width="746" height="767" fill="#fff" stroke="#000" stroke-width="0"/><g id="a1fd8" class="DirectedInteraction" color="#000" ><g color="#000" fill="transparent"  filter="url(#kaavioblackto000000filter)" stroke="#000" stroke-dasharray="38.9213595499958, 5.8"><path id="a1fd8" class="EdgeBody" d="m308 158 44 8"   marker-end="url(#markerEndArrow)" /></g></g><g id="a3192" class="Interaction" color="#000" ><g color="#000" fill="transparent"  filter="url(#kaavioblackto000000filter)" stroke="#000" stroke-dasharray="60.8276253029822, 0"><path id="a3192" class="EdgeBody" d="m530 270-44 42"   /></g></g><g id="b1d73" class="DirectedInteraction" color="#000" ><g color="#000" fill="transparent"  filter="url(#kaavioblackto000000filter)" stroke="#000" stroke-dasharray="57.8553218513582, 5.8"><path id="b1d73" class="EdgeBody" d="m308 158 44 46"   marker-end="url(#markerEndArrow)" /></g></g><g id="b8294" class="DirectedInteraction" color="#000" ><g color="#000" fill="transparent"  filter="url(#kaavioblackto000000filter)" stroke="#000" stroke-dasharray="36.3070065428546, 5.8"><path id="b8294" class="EdgeBody" d="m163 106-3 42"   marker-end="url(#markerEndArrow)" /></g></g><g id="b8c0f" class="DirectedInteraction" color="#000" ><g color="#000" fill="transparent"  filter="url(#kaavioblackto000000filter)" stroke="#000" stroke-dasharray="78.58404930896467, 5.8"><path id="b8c0f" class="EdgeBody" d="m611 337-68 49.967"   marker-end="url(#markerEndArrow)" /></g></g><g id="bf33e" class="DirectedInteraction" color="#000" ><g color="#000" fill="transparent"  filter="url(#kaavioblackto000000filter)" stroke="#000" stroke-dasharray="28.405262752974142, 5.8"><path id="bf33e" class="EdgeBody" d="m95 227 21 27"   marker-end="url(#markerEndArrow)" /></g></g><g id="c400c" class="DirectedInteraction" color="#000" ><g color="#000" fill="transparent"  filter="url(#kaavioblackto000000filter)" stroke="#000" stroke-dasharray="90.45487000666512, 5.8"><path id="c400c" class="EdgeBody" d="m261 264 7-96"   marker-end="url(#markerEndArrow)" /></g></g><g id="c59a2" class="DirectedInteraction" color="#000" ><g color="#000" fill="transparent"  filter="url(#kaavioblackto000000filter)" stroke="#000" stroke-dasharray="94.6987562112089, 5.8"><path id="c59a2" class="EdgeBody" d="m196 254 52-86"   marker-end="url(#markerEndArrow)" /></g></g><g id="c7dd4" class="DirectedInteraction" color="#000" ><g color="#000" fill="transparent"  filter="url(#kaavioblackto000000filter)" stroke="#000" stroke-dasharray="22.80069929215018, 5.8"><path id="c7dd4" class="EdgeBody" d="m95 227 23-17"   marker-end="url(#markerEndArrow)" /></g></g><g id="c7fc7" class="DirectedInteraction" color="#000" ><g color="#000" fill="transparent"  filter="url(#kaavioblackto000000filter)" stroke="#000" stroke-dasharray="82.53001896402439, 5.8"><path id="c7fc7" class="EdgeBody" d="m506 332-72.761 50.08"   marker-end="url(#markerEndArrow)" /></g></g><g id="ca8c3" class="DirectedInteraction" color="#000" ><g color="#000" fill="transparent"  filter="url(#kaavioblackto000000filter)" stroke="#000" stroke-dasharray="46.897248505021594, 5.8"><path id="ca8c3" class="EdgeBody" d="m308 158 44-29"   marker-end="url(#markerEndArrow)" /></g></g><g id="dc1dc" class="DirectedInteraction" color="#000" ><g color="#000" fill="transparent"  filter="url(#kaavioblackto000000filter)" stroke="#000" stroke-dasharray="26.262439083762796, 5.8"><path id="dc1dc" class="EdgeBody" d="m158 200 2-32"   marker-end="url(#markerEndArrow)" /></g></g><g id="e0924" class="DirectedInteraction" color="#000" ><g color="#000" fill="transparent"  filter="url(#kaavioblackto000000filter)" stroke="#000" stroke-dasharray="55.79519815886763, 5.8"><path id="e0924" class="EdgeBody" d="m506 332-37.236 49.066"   marker-end="url(#markerEndArrow)" /></g></g><g id="e1491" class="DirectedInteraction" color="#000" ><g color="#000" fill="transparent"  filter="url(#kaavioblackto000000filter)" stroke="#000" stroke-dasharray="46.52590180780452, 5.8"><path id="e1491" class="EdgeBody" d="m305 117 47-23"   marker-end="url(#markerEndArrow)" /></g></g><g id="e28a5" class="DirectedInteraction" color="#000" ><g color="#000" fill="transparent"  filter="url(#kaavioblackto000000filter)" stroke="#000" stroke-dasharray="71.8659513557904, 5.8"><path id="e28a5" class="EdgeBody" d="m308 158 44-64"   marker-end="url(#markerEndArrow)" /></g></g><g id="e36d7" class="DirectedInteraction" color="#000" ><g color="#000" fill="transparent"  filter="url(#kaavioblackto000000filter)" stroke="#000" stroke-dasharray="60.22878940513857, 5.8"><path id="e36d7" class="EdgeBody" d="m506 332-45.236 48.099"   marker-end="url(#markerEndArrow)" /></g></g><g id="e76fa" class="DirectedInteraction" color="#000" ><g color="#000" fill="transparent"  filter="url(#kaavioblackto000000filter)" stroke="#000" stroke-dasharray="19.2, 5.8"><path id="e76fa" class="EdgeBody" d="m98 96h25"   marker-end="url(#markerEndArrow)" /></g></g><g id="e7762" class="Interaction" color="#000" ><g color="#000" fill="transparent"  filter="url(#kaavioblackto000000filter)" stroke="#000" stroke-dasharray="50.00999900019995, 0"><path id="e7762" class="EdgeBody" d="m490 260 1-50"   /></g></g><g id="edcfb" class="Interaction" color="#000" ><g color="#000" fill="transparent"  filter="url(#kaavioblackto000000filter)" stroke="#000" stroke-dasharray="56.08029957123981, 0"><path id="edcfb" class="EdgeBody" d="m582 229-52 21"   /></g></g><g id="f3472" class="DirectedInteraction" color="#000" ><g color="#000" fill="transparent"  filter="url(#kaavioblackto000000filter)" stroke="#000" stroke-dasharray="22.2, 5.8"><path id="f3472" class="EdgeBody" d="m200 158h28"   marker-end="url(#markerEndArrow)" /></g></g><g id="f4adc" class="DirectedInteraction" color="#000" ><g color="#000" fill="transparent"  filter="url(#kaavioblackto000000filter)" stroke="#000" stroke-dasharray="43.84876634922564, 5.8"><path id="f4adc" class="EdgeBody" d="m305 78 47 16"   marker-end="url(#markerEndArrow)" /></g></g><g id="b7dbb" class="SingleFreeNode Shape" transform="translate(466.92 381.26) rotate(7.5583 1.8411 5.7918)" color="#9999ff" ><rect id="b7dbb-icon" class="Icon" transform="matrix(.78642 0 0 .92053 .39321 .46027)" width="3.6821" height="11.584" fill="#33f" stroke="#99f"/></g><g id="dc0c1" class="SingleFreeNode Shape" transform="translate(270 386.97)" color="#3333ff" ><use id="dc0c1-icon" class="Icon" transform="matrix(.99726 0 0 .99715 .49863 .49858)" width="364" height="350.03333333333336" fill="transparent"  stroke="#3333ff" xlink:href="#Ellipse"/></g><g id="e2436" class="SingleFreeNode Shape" transform="translate(430.87 382.3) rotate(-6.131 2.3657 5.74)" color="#9999ff" ><rect id="e2436-icon" class="Icon" transform="matrix(.82552 0 0 .91987 .41276 .45994)" width="4.7314" height="11.48" fill="#33f" stroke="#99f"/></g><g id="eee9d" class="SingleFreeNode Shape" transform="translate(458.92 380.26) rotate(5.9028 1.8411 5.7918)" color="#9999ff" ><rect id="eee9d-icon" class="Icon" transform="matrix(.78642 0 0 .92053 .39321 .46027)" width="3.6821" height="11.584" fill="#33f" stroke="#99f"/></g><a id="a0c4e" class="PubChem-compound_24316 Metabolite ChEBI_CHEBI_16356  " transform="translate(20,290)" color="#00f"  name="cGMP"  ><rect id="a0c4e-icon" class="Icon" transform="matrix(.98765 0 0 .95238 .49383 .47619)" width="80" height="20" fill="#fff" stroke="#00f"/><text id="a0c4e-text" class="Text" transform="translate(40,13)" fill="#00f"  font-size="10px" stroke="white" stroke-width="0" text-anchor="middle"><tspan x="0" y="0">cGMP</tspan></text></a><a  id="a2d0e" class="Protein P594_ENSMUSG00000003923 " transform="translate(490,250)"   name="Tfam"  ><rect id="a2d0e-icon" class="Icon" transform="matrix(.98765 0 0 .95238 .49383 .47619)" width="80" height="20" fill="#fff" stroke="#000"/><text id="a2d0e-text" class="Text" transform="translate(40,13)" fill="#000"  font-size="10px" stroke="white" stroke-width="0" text-anchor="middle"><tspan x="0" y="0">Tfam</tspan></text></a><a  id="b0e34" class="Protein P594_ENSMUSG00000031386 " transform="translate(215,22)"   name="Hcfc1"  ><rect id="b0e34-icon" class="Icon" transform="matrix(.98765 0 0 .95238 .49383 .47619)" width="80" height="20" fill="#fff" stroke="#000"/><text id="b0e34-text" class="Text" transform="translate(40,13)" fill="#000"  font-size="10px" stroke="white" stroke-width="0" text-anchor="middle"><tspan x="0" y="0">Hcfc1</tspan></text></a><a  id="b36a6" class="Protein P594_ENSMUSG00000036983 " transform="translate(542,209)"   name="Tfb1m"  ><rect id="b36a6-icon" class="Icon" transform="matrix(.98765 0 0 .95238 .49383 .47619)" width="80" height="20" fill="#fff" stroke="#000"/><text id="b36a6-text" class="Text" transform="translate(40,13)" fill="#000"  font-size="10px" stroke="white" stroke-width="0" text-anchor="middle"><tspan x="0" y="0">Tfb1m</tspan></text></a><a id="b7e5a" class="Metabolite ChEBI_CHEBI_17489  " transform="translate(18,86)" color="#00f"  name="cAMP"  ><rect id="b7e5a-icon" class="Icon" transform="matrix(.98765 0 0 .95238 .49383 .47619)" width="80" height="20" fill="#fff" stroke="#00f"/><text id="b7e5a-text" class="Text" transform="translate(40,13)" fill="#00f"  font-size="10px" stroke="white" stroke-width="0" text-anchor="middle"><tspan x="0" y="0">cAMP</tspan></text></a><a  id="c48d7" class="Protein P594_ENSMUSG00000026492 " transform="translate(451,210)"   name="Tfb2m"  ><rect id="c48d7-icon" class="Icon" transform="matrix(.98765 0 0 .95238 .49383 .47619)" width="80" height="20" fill="#fff" stroke="#000"/><text id="c48d7-text" class="Text" transform="translate(40,13)" fill="#000"  font-size="10px" stroke="white" stroke-width="0" text-anchor="middle"><tspan x="0" y="0">Tfb2m</tspan></text></a><a  id="c581d" class="Protein P594_ENSMUSG00000055491 " transform="translate(225,68)"   name="Pprc1"  ><rect id="c581d-icon" class="Icon" transform="matrix(.98765 0 0 .95238 .49383 .47619)" width="80" height="20" fill="#fff" stroke="#000"/><text id="c581d-text" class="Text" transform="translate(40,13)" fill="#000"  font-size="10px" stroke="white" stroke-width="0" text-anchor="middle"><tspan x="0" y="0">Pprc1</tspan></text></a><a  id="c59e2" class="Protein P594_ENSMUSG00000021519 " transform="translate(636,91)"   name="Mterfd1"  ><rect id="c59e2-icon" class="Icon" transform="matrix(.98765 0 0 .95238 .49383 .47619)" width="80" height="20" fill="#fff" stroke="#000"/><text id="c59e2-text" class="Text" transform="translate(40,13)" fill="#000"  font-size="10px" stroke="white" stroke-width="0" text-anchor="middle"><tspan x="0" y="0">Mterfd1</tspan></text></a><a  id="cec67" class="Protein P594_ENSMUSG00000040429 " transform="translate(571,317)"   name="Mterf"  ><rect id="cec67-icon" class="Icon" transform="matrix(.98765 0 0 .95238 .49383 .47619)" width="80" height="20" fill="#fff" stroke="#000"/><text id="cec67-text" class="Text" transform="translate(40,13)" fill="#000"  font-size="10px" stroke="white" stroke-width="0" text-anchor="middle"><tspan x="0" y="0">Mterf</tspan></text></a><a  id="d0aba" class="Protein P594_ENSMUSG00000008976 " transform="translate(352,119)"   name="Gabpa"  ><rect id="d0aba-icon" class="Icon" transform="matrix(.98765 0 0 .95238 .49383 .47619)" width="80" height="20" fill="#fff" stroke="#000"/><text id="d0aba-text" class="Text" transform="translate(40,13)" fill="#000"  font-size="10px" stroke="white" stroke-width="0" text-anchor="middle"><tspan x="0" y="0">Gabpa</tspan></text></a><a  id="db7ea" class="Protein P594_ENSMUSG00000020329 " transform="translate(466,312)"   name="Polrmt"  ><rect id="db7ea-icon" class="Icon" transform="matrix(.98765 0 0 .95238 .49383 .47619)" width="80" height="20" fill="#fff" stroke="#000"/><text id="db7ea-text" class="Text" transform="translate(40,13)" fill="#000"  font-size="10px" stroke="white" stroke-width="0" text-anchor="middle"><tspan x="0" y="0">Polrmt</tspan></text></a><a  id="de06d" class="Protein P594_ENSMUSG00000024955 " transform="translate(352,194)"   name="Esrra"  ><rect id="de06d-icon" class="Icon" transform="matrix(.98765 0 0 .95238 .49383 .47619)" width="80" height="20" fill="#fff" stroke="#000"/><text id="de06d-text" class="Text" transform="translate(40,13)" fill="#000"  font-size="10px" stroke="white" stroke-width="0" text-anchor="middle"><tspan x="0" y="0">Esrra</tspan></text></a><a  id="e5c22" class="Protein P594_ENSMUSG00000058440 " transform="translate(352,84)"   name="Nrf1"  ><rect id="e5c22-icon" class="Icon" transform="matrix(.98765 0 0 .95238 .49383 .47619)" width="80" height="20" fill="#fff" stroke="#000"/><text id="e5c22-text" class="Text" transform="translate(40,13)" fill="#000"  font-size="10px" stroke="white" stroke-width="0" text-anchor="middle"><tspan x="0" y="0">Nrf1</tspan></text></a><a  id="ef8ff" class="Protein P594_ENSMUSG00000038766 " transform="translate(352,156)"   name="Gabpb2"  ><rect id="ef8ff-icon" class="Icon" transform="matrix(.98765 0 0 .95238 .49383 .47619)" width="80" height="20" fill="#fff" stroke="#000"/><text id="ef8ff-text" class="Text" transform="translate(40,13)" fill="#000"  font-size="10px" stroke="white" stroke-width="0" text-anchor="middle"><tspan x="0" y="0">Gabpb2</tspan></text></a><a id="f0707" class="PubChem-compound_271 Metabolite ChEBI_CHEBI_29108  " transform="translate(15,217)" color="#00f"  name="Ca2+"  ><rect id="f0707-icon" class="Icon" transform="matrix(.98765 0 0 .95238 .49383 .47619)" width="80" height="20" fill="#fff" stroke="#00f"/><text id="f0707-text" class="Text" transform="translate(40,13)" fill="#00f"  font-size="10px" stroke="white" stroke-width="0" text-anchor="middle"><tspan x="0" y="0">Ca2+</tspan></text></a><a  id="f4058" class="Protein P594_ENSMUSG00000001280 " transform="translate(353,274)"   name="Sp1"  ><rect id="f4058-icon" class="Icon" transform="matrix(.98765 0 0 .95238 .49383 .47619)" width="80" height="20" fill="#fff" stroke="#000"/><text id="f4058-text" class="Text" transform="translate(40,13)" fill="#000"  font-size="10px" stroke="white" stroke-width="0" text-anchor="middle"><tspan x="0" y="0">Sp1</tspan></text></a><a  id="f60b1" class="Protein P594_ENSMUSG00000029167 " transform="translate(228,148)"   name="Ppargc1a"  ><rect id="f60b1-icon" class="Icon" transform="matrix(.98765 0 0 .95238 .49383 .47619)" width="80" height="20" fill="#fff" stroke="#000"/><text id="f60b1-text" class="Text" transform="translate(40,13)" fill="#000"  font-size="10px" stroke="white" stroke-width="0" text-anchor="middle"><tspan x="0" y="0">Ppargc1a</tspan></text></a><a  id="f65cf" class="Protein P594_ENSMUSG00000033871 " transform="translate(225,107)"   name="Ppargc1b"  ><rect id="f65cf-icon" class="Icon" transform="matrix(.98765 0 0 .95238 .49383 .47619)" width="80" height="20" fill="#fff" stroke="#000"/><text id="f65cf-text" class="Text" transform="translate(40,13)" fill="#000"  font-size="10px" stroke="white" stroke-width="0" text-anchor="middle"><tspan x="0" y="0">Ppargc1b</tspan></text></a><a  id="f829f" class="Protein P594_ENSMUSG00000027201 " transform="translate(221,244)"   name="Myef2"  ><rect id="f829f-icon" class="Icon" transform="matrix(.98765 0 0 .95238 .49383 .47619)" width="80" height="20" fill="#fff" stroke="#000"/><text id="f829f-text" class="Text" transform="translate(40,13)" fill="#000"  font-size="10px" stroke="white" stroke-width="0" text-anchor="middle"><tspan x="0" y="0">Myef2</tspan></text></a><a  id="f8866" class="Protein P594_ENSMUSG00000038128 " transform="translate(118,200)"   name="Camk4"  ><rect id="f8866-icon" class="Icon" transform="matrix(.98765 0 0 .95238 .49383 .47619)" width="80" height="20" fill="#fff" stroke="#000"/><text id="f8866-text" class="Text" transform="translate(40,13)" fill="#000"  font-size="10px" stroke="white" stroke-width="0" text-anchor="middle"><tspan x="0" y="0">Camk4</tspan></text></a><a  id="fb9fa" class="Protein P594_ENSMUSG00000025958 " transform="translate(120,148)"   name="Creb1"  ><rect id="fb9fa-icon" class="Icon" transform="matrix(.98765 0 0 .95238 .49383 .47619)" width="80" height="20" fill="#fff" stroke="#000"/><text id="fb9fa-text" class="Text" transform="translate(40,13)" fill="#000"  font-size="10px" stroke="white" stroke-width="0" text-anchor="middle"><tspan x="0" y="0">Creb1</tspan></text></a><a  id="fbffd" class="Protein P594_ENSMUSG00000028161 " transform="translate(116,244)"   name="Ppp3ca"  ><rect id="fbffd-icon" class="Icon" transform="matrix(.98765 0 0 .95238 .49383 .47619)" width="80" height="20" fill="#fff" stroke="#000"/><text id="fbffd-text" class="Text" transform="translate(40,13)" fill="#000"  font-size="10px" stroke="white" stroke-width="0" text-anchor="middle"><tspan x="0" y="0">Ppp3ca</tspan></text></a><g id="fc7a3" class="Complex" transform="translate(123,86)" color="#000"  name="PKA"><rect id="fc7a3-icon" class="Icon" transform="matrix(.98765 0 0 .95238 .49383 .47619)" width="80" height="20" fill="#fff" stroke="#000"/><text id="fc7a3-text" class="Text" transform="translate(40,13)" fill="#000"  font-size="10px" stroke="white" stroke-width="0" text-anchor="middle"><tspan x="0" y="0">PKA</tspan></text></g><text id="WP1263-text" class="Text" transform="translate(5,36)" dominant-baseline="central" fill="black"  font-size="12px" font-weight="bold" overflow="visible" stroke="white" stroke-width="0"><tspan x="0" y="-18">Name: Mitochondrial gene expression</tspan> <tspan x="0" y="0">Last Modified: 10/17/2013</tspan> <tspan x="0" y="18">Organism: Mus musculus</tspan></text></g></svg>
