<?xml version="1.0" encoding="UTF-8"?>
<!--
  WikiPathways page: https://www.wikipathways.org/index.php/Pathway:WP12
  URL for this compressed file: https://github.com/eweitz/cachome/tree/main/data/WP12.svg
  Source code for compression: https://github.com/eweitz/cachome/tree/main/src/wikipathways.py
-->
<svg id="wp12-svg" class="Diagram" width="800" height="600" color="black" baseProfile="full" prefix="schema:http://schema.org/" preserveAspectRatio="xMidYMid" version="1.1" viewBox="0 0 873 549" vocab="http://vocabularies.wikipathways.org/wp#" xmlns="http://www.w3.org/2000/svg" xmlns:xlink="http://www.w3.org/1999/xlink"><style>svg {font-family: 'Liberation Sans', Arial, sans-serif; }</style><defs><g id="jit-defs"><filter id="kaavioblackto999999filter" x="0" y="0" width="873" height="549" filterUnits="userSpaceOnUse"><feColorMatrix in="SourceGraphic" values="-1   0   0 0 0.6                   0  -1   0 0 0.6                   0   0  -1 0 0.6                   0   0   0 1 0"/></filter><filter id="kaavioblackto000000filter" x="0" y="0" width="873" height="549" filterUnits="userSpaceOnUse"><feColorMatrix in="SourceGraphic" values="-1   0   0 0 0                   0  -1   0 0 0                   0   0  -1 0 0                   0   0   0 1 0"/></filter></g><g id="jic-defs"><marker id="markerEndArrow" stroke-dasharray="99999" markerHeight="12" markerUnits="userSpaceOnUse" markerWidth="12" orient="auto" preserveAspectRatio="none" refX="12" refY="6" viewBox="0 0 12 12"><path transform="rotate(180 6 6)" d="M12 11L0 6l12-5z" fill="currentColor" stroke-width="0"/></marker><marker id="markerEndTBar" stroke-dasharray="99999" markerHeight="20" markerUnits="userSpaceOnUse" markerWidth="10" orient="auto" preserveAspectRatio="none" refX="10" refY="10" viewBox="0 0 10 20"><path d="m3 0v20" fill="currentColor" stroke="currentColor"/></marker><symbol id="ArcPathVisio" overflow="visible" preserveAspectRatio="none" viewBox="0 0 100 100"><path d="M99.5 50c0 27.338-22.162 49.5-49.5 49.5S.5 77.338.5 50" stroke="currentColor" vector-effect="non-scaling-stroke"/></symbol><symbol id="Ellipse" overflow="visible" preserveAspectRatio="none" viewBox="0 0 50 50"><ellipse cx="25" cy="25" rx="25" ry="25" stroke="currentColor" vector-effect="non-scaling-stroke"/></symbol><symbol id="Octagon" overflow="visible" preserveAspectRatio="none" viewBox="0 0 100 100"><path d="M0 25L25 0h50l25 25v50l-25 25H25L0 75z" stroke="currentColor" vector-effect="non-scaling-stroke"/></symbol><symbol id="none" preserveAspectRatio="none" viewBox="0 0 100 100"/></g></defs><g id="WP12" class="Viewport" color="black"  name="Name: Osteoclast signaling License: CC BY 2.0 Last Modified: 2/21/2013 Organism: Homo sapiens"><rect id="WP12-icon" class="Icon" width="873" height="549" fill="#fff" stroke="#000" stroke-width="0"/><g id="id6251ac9" class="DirectedInteraction" color="#000" ><g color="#000" fill="transparent"  filter="url(#kaavioblackto000000filter)" stroke="#000" stroke-dasharray="80.49745071553389, 5.8"><path id="id6251ac9" class="EdgeBody" d="m748 141.5-55 66.5"   marker-end="url(#markerEndArrow)" /></g></g><g id="daded" class="Edge GraphicalLine" color="#999" ><g color="#999" fill="transparent"  filter="url(#kaavioblackto999999filter)" stroke="#000" stroke-dasharray="809, 0" stroke-width="3"><path id="daded" class="EdgeBody" d="m34 318h809"   /></g></g><g id="id8c09da4b" class="DirectedInteraction" color="#000" ><g color="#000" fill="transparent"  filter="url(#kaavioblackto000000filter)" stroke="#000" stroke-dasharray="60.50987860040162, 5.8"><path id="id8c09da4b" class="EdgeBody" d="m326 130 26 61"   marker-end="url(#markerEndArrow)" /></g></g><g id="id95a3cc31" class="DirectedInteraction" color="#000" ><g color="#000" fill="transparent"  filter="url(#kaavioblackto000000filter)" stroke="#000" stroke-dasharray="112.12658998292116, 5.8"><path id="id95a3cc31" class="EdgeBody" d="m521.5 244-49.575 107"   marker-end="url(#markerEndArrow)" /></g></g><g id="id97d6c00c" class="DirectedInteraction" color="#000" ><g color="#000" fill="transparent"  filter="url(#kaavioblackto000000filter)" stroke="#000" stroke-dasharray="68.07827826905552, 5.8"><path id="id97d6c00c" class="EdgeBody" d="m93 110 47 57"   marker-end="url(#markerEndArrow)" /></g></g><g id="id9b9d3cf3" class="DirectedInteraction" color="#000" ><g color="#000" fill="transparent"  filter="url(#kaavioblackto000000filter)" stroke="#000" stroke-dasharray="83.94661901709726, 5.8"><path id="id9b9d3cf3" class="EdgeBody" d="m256.5 354 32.125-83.8"   marker-end="url(#markerEndArrow)" /></g></g><g id="idd042eb8a" class="DirectedInteraction" color="#000" ><g color="#000" fill="transparent"  filter="url(#kaavioblackto000000filter)" stroke="#000" stroke-dasharray="51.32404402920018, 5.8"><path id="idd042eb8a" class="EdgeBody" d="m283.64 67 29.362 49"   marker-end="url(#markerEndArrow)" /></g></g><g id="idd251fdd6" class="DirectedInteraction" color="#000" ><g color="#000" fill="transparent"  filter="url(#kaavioblackto000000filter)" stroke="#000" stroke-dasharray="111.19252112848923, 5.8"><path id="idd251fdd6" class="EdgeBody" d="M610.5,242L653,351"   marker-end="url(#markerEndArrow)" /></g></g><g id="idd2de7709" class="DirectedInteraction" color="#000" ><g color="#000" fill="transparent"  filter="url(#kaavioblackto000000filter)" stroke="#000" stroke-dasharray="74.2, 5.8"><path id="idd2de7709" class="EdgeBody" d="m564.5 275v80"   marker-end="url(#markerEndArrow)" /></g></g><g id="ide0d8b590" class="Inhibition" color="#000" ><g color="#000" fill="transparent"  filter="url(#kaavioblackto000000filter)" stroke="#000" stroke-dasharray="37, 7"><path id="ide0d8b590" class="EdgeBody" d="m750 88v44"   marker-end="url(#markerEndTBar)" /></g></g><g id="idfd71dced" class="DirectedInteraction" color="#000" ><g color="#000" fill="transparent"  filter="url(#kaavioblackto000000filter)" stroke="#000" stroke-dasharray="95.8366075781753, 5.8"><path id="idfd71dced" class="EdgeBody" d="m249.5 264-41 93"   marker-end="url(#markerEndArrow)" /></g></g><g id="idff22054c" class="DirectedInteraction" color="#000" ><g color="#000" fill="transparent"  filter="url(#kaavioblackto000000filter)" stroke="#000" stroke-dasharray="84.77075963024711, 5.8"><path id="idff22054c" class="EdgeBody" d="m114.5 346 36.25-83"   marker-end="url(#markerEndArrow)" /></g></g><g id="idffa65a8b" class="DirectedInteraction" color="#000" ><g color="#000" fill="transparent"  filter="url(#kaavioblackto000000filter)" stroke="#000" stroke-dasharray="26.402484376209234, 5.8"><path id="idffa65a8b" class="EdgeBody" d="m691 232-26 19"   marker-end="url(#markerEndArrow)" /></g></g><g id="f0652" class="SingleFreeNode Shape" transform="translate(71,117) rotate(180,366.5,201)" color="#999" ><use id="f0652-icon" class="Icon" transform="matrix(.99592 0 0 .99259 1.4939 1.4889)" width="733" height="402" fill="transparent"  stroke="#999" stroke-width="3" xlink:href="#ArcPathVisio"/></g><g id="b7e" class="Label" transform="translate(555,49)" color="#000"  name="PDGF-BB complex"><use id="b7e-icon" class="Icon" width="101" height="20" fill="transparent"  stroke="#000" stroke-width="0" xlink:href="#none"/><text id="b7e-text" class="Text" transform="translate(50.5,13)" fill="#000"  font-size="10px" stroke="white" stroke-width="0" text-anchor="middle"><tspan x="0" y="0">PDGF-BB complex</tspan></text></g><g id="bdf" class="Label" transform="translate(317,191)" color="#990099"  name="Osteoclast activation"><use id="bdf-icon" class="Icon" width="140" height="20" fill="transparent"  stroke="#990099" stroke-width="0" xlink:href="#none"/><text id="bdf-text" class="Text" transform="translate(70,14)" fill="#990099"  font-size="12px" font-weight="bold" stroke="white" stroke-width="0" text-anchor="middle"><tspan x="0" y="0">Osteoclast activation</tspan></text></g><g id="c7c" class="Label" transform="translate(398 130.07)" color="#999"  name="Osteoclast"><use id="c7c-icon" class="Icon" width="90" height="19.933333333333334" fill="transparent"  stroke="#999" stroke-width="0" xlink:href="#none"/><text id="c7c-text" class="Text" transform="translate(45 13.967)" fill="#999"  font-size="14px" font-weight="bold" stroke="black" stroke-width="0" text-anchor="middle"><tspan x="0" y="0">Osteoclast</tspan></text></g><g id="f53" class="Label" transform="translate(412 320.07)" color="#999"  name="Bone"><use id="f53-icon" class="Icon" width="48" height="19.933333333333334" fill="transparent"  stroke="#999" stroke-width="0" xlink:href="#none"/><text id="f53-text" class="Text" transform="translate(24 13.967)" fill="#999"  font-size="14px" font-weight="bold" stroke="black" stroke-width="0" text-anchor="middle"><tspan x="0" y="0">Bone</tspan></text></g><a id="b2d25" class="PubChem-compound_271 Metabolite ChEBI_CHEBI_29108  " transform="translate(144,237)" color="#00f"  name="Ca2+"  ><use id="b2d25-icon" class="Icon" transform="matrix(.96429 0 0 .96296 .48214 .48148)" width="27" height="26" fill="#fff" stroke="#00f" xlink:href="#Ellipse"/><text id="b2d25-text" class="Text" transform="translate(13.5,16)" fill="#00f"  font-size="10px" stroke="white" stroke-width="0" text-anchor="middle"><tspan x="0" y="0">Ca2+</tspan></text></a><a  id="b5e" class="Protein TNFRSF11B " transform="translate(727.5,79)"   name="OPG"  ><rect id="b5e-icon" class="Icon" transform="matrix(.97826 0 0 .95238 .48913 .47619)" width="45" height="20" fill="#fff" stroke="#000"/><text id="b5e-text" class="Text" transform="translate(22.5,13)" fill="#000"  font-size="10px" stroke="white" stroke-width="0" text-anchor="middle"><tspan x="0" y="0">OPG</tspan></text></a><a id="b96e7" class="PubChem-compound_1038 Metabolite ChEBI_CHEBI_15378  " transform="translate(238,244)" color="#00f"  name="H+"  ><use id="b96e7-icon" class="Icon" transform="matrix(.95833 0 0 .95238 .47917 .47619)" width="23" height="20" fill="#fff" stroke="#00f" xlink:href="#Ellipse"/><text id="b96e7-text" class="Text" transform="translate(11.5,13)" fill="#00f"  font-size="10px" stroke="white" stroke-width="0" text-anchor="middle"><tspan x="0" y="0">H+</tspan></text></a><a id="c0f" class="ChEBI_CHEBI_35780 Metabolite  " transform="translate(407,355)" color="#00f"  name="Pi"  ><use id="c0f-icon" class="Icon" transform="matrix(.95833 0 0 .95455 .47917 .47727)" width="23" height="21" fill="#fff" stroke="#00f" xlink:href="#Ellipse"/><text id="c0f-text" class="Text" transform="translate(11.5,13.5)" fill="#00f"  font-size="10px" stroke="white" stroke-width="0" text-anchor="middle"><tspan x="0" y="0">Pi</tspan></text></a><a id="c3b03" class="PubChem-compound_1038 Metabolite ChEBI_CHEBI_15378  " transform="translate(553,355)" color="#00f"  name="H+"  ><use id="c3b03-icon" class="Icon" transform="matrix(.95833 0 0 .95238 .47917 .47619)" width="23" height="20" fill="#fff" stroke="#00f" xlink:href="#Ellipse"/><text id="c3b03-text" class="Text" transform="translate(11.5,13)" fill="#00f"  font-size="10px" stroke="white" stroke-width="0" text-anchor="middle"><tspan x="0" y="0">H+</tspan></text></a><a  id="c3d" class="Protein TRPV5 " transform="translate(87.5,307)"   name="TRPV"  ><rect id="c3d-icon" class="Icon" transform="matrix(.98765 0 0 .95238 .49383 .47619)" width="80" height="20" fill="#fff" stroke="#000"/><text id="c3d-text" class="Text" transform="translate(40,13)" fill="#000"  font-size="10px" stroke="white" stroke-width="0" text-anchor="middle"><tspan x="0" y="0">TRPV</tspan></text></a><a  id="c68" class="Protein TNFSF11 " transform="translate(710,132)"   name="RANK ligand"  ><rect id="c68-icon" class="Icon" transform="matrix(.98765 0 0 .95 .49383 .475)" width="80" height="19" fill="#fff" stroke="#000"/><text id="c68-text" class="Text" transform="translate(40,12.5)" fill="#000"  font-size="10px" stroke="white" stroke-width="0" text-anchor="middle"><tspan x="0" y="0">RANK ligand</tspan></text></a><a id="cc086" class="PubChem-compound_271 Metabolite ChEBI_CHEBI_29108  " transform="translate(101,346)" color="#00f"  name="Ca2+"  ><use id="cc086-icon" class="Icon" transform="matrix(.96429 0 0 .96296 .48214 .48148)" width="27" height="26" fill="#fff" stroke="#00f" xlink:href="#Ellipse"/><text id="cc086-text" class="Text" transform="translate(13.5,16)" fill="#00f"  font-size="10px" stroke="white" stroke-width="0" text-anchor="middle"><tspan x="0" y="0">Ca2+</tspan></text></a><a id="cf3" class="PubChem-compound_1038 Metabolite ChEBI_CHEBI_15378  " transform="translate(273,57)" color="#00f"  name="H+"  ><use id="cf3-icon" class="Icon" transform="matrix(.95833 0 0 .95238 .47917 .47619)" width="23" height="20" fill="#fff" stroke="#00f" xlink:href="#Ellipse"/><text id="cf3-text" class="Text" transform="translate(11.5,13)" fill="#00f"  font-size="10px" stroke="white" stroke-width="0" text-anchor="middle"><tspan x="0" y="0">H+</tspan></text></a><a id="d02b2" class="PubChem-compound_1038 Metabolite ChEBI_CHEBI_15378  " transform="translate(197,357)" color="#00f"  name="H+"  ><use id="d02b2-icon" class="Icon" transform="matrix(.95833 0 0 .95238 .47917 .47619)" width="23" height="20" fill="#fff" stroke="#00f" xlink:href="#Ellipse"/><text id="d02b2-text" class="Text" transform="translate(11.5,13)" fill="#00f"  font-size="10px" stroke="white" stroke-width="0" text-anchor="middle"><tspan x="0" y="0">H+</tspan></text></a><a  id="d062f" class="GeneProduct AIMP2 " transform="translate(625,251)"   name="AIMP2"  ><rect id="d062f-icon" class="Icon" transform="matrix(.98765 0 0 .95238 .49383 .47619)" width="80" height="20" fill="#fff" stroke="#000"/><text id="d062f-text" class="Text" transform="translate(40,13)" fill="#000"  font-size="10px" stroke="white" stroke-width="0" text-anchor="middle"><tspan x="0" y="0">AIMP2</tspan></text></a><a  id="d2e" class="Protein ACP5 " transform="translate(438,356)"   name="TRAP"  ><rect id="d2e-icon" class="Icon" transform="matrix(.98333 0 0 .95238 .49167 .47619)" width="59" height="20" fill="#fff" stroke="#000"/><text id="d2e-text" class="Text" transform="translate(29.5,13)" fill="#000"  font-size="10px" stroke="white" stroke-width="0" text-anchor="middle"><tspan x="0" y="0">TRAP</tspan></text></a><a  id="d7366" class="Protein CTSK " transform="translate(577,222)"   name="Cathepsin K"  ><rect id="d7366-icon" class="Icon" transform="matrix(.98529 0 0 .95238 .49265 .47619)" width="67" height="20" fill="#fff" stroke="#000"/><text id="d7366-text" class="Text" transform="translate(33.5,13)" fill="#000"  font-size="10px" stroke="white" stroke-width="0" text-anchor="middle"><tspan x="0" y="0">Cathepsin K</tspan></text></a><a  id="e2f" class="Protein IFNB1 " transform="translate(50,103)"   name="IFN-b"  ><rect id="e2f-icon" class="Icon" transform="matrix(.98765 0 0 .95238 .49383 .47619)" width="80" height="20" fill="#fff" stroke="#000"/><text id="e2f-text" class="Text" transform="translate(40,13)" fill="#000"  font-size="10px" stroke="white" stroke-width="0" text-anchor="middle"><tspan x="0" y="0">IFN-b</tspan></text></a><a id="e918b" class="PubChem-compound_1038 Metabolite ChEBI_CHEBI_15378  " transform="translate(553,255)" color="#00f"  name="H+"  ><use id="e918b-icon" class="Icon" transform="matrix(.95833 0 0 .95238 .47917 .47619)" width="23" height="20" fill="#fff" stroke="#00f" xlink:href="#Ellipse"/><text id="e918b-text" class="Text" transform="translate(11.5,13)" fill="#00f"  font-size="10px" stroke="white" stroke-width="0" text-anchor="middle"><tspan x="0" y="0">H+</tspan></text></a><a  id="ea3" class="Protein SLC9A1 " transform="translate(188,308)"   name="Na+/H+ transporter"  ><rect id="ea3-icon" class="Icon" transform="matrix(.99153 0 0 .95238 .49576 .47619)" width="117" height="20" fill="#fff" stroke="#000"/><text id="ea3-text" class="Text" transform="translate(58.5,13)" fill="#000"  font-size="10px" stroke="white" stroke-width="0" text-anchor="middle"><tspan x="0" y="0">Na+/H+ transporter</tspan></text></a><a id="ed298" class="Metabolite ChEBI_CHEBI_29101  " transform="translate(245,354)" color="#00f"  name="Na+"  ><use id="ed298-icon" class="Icon" transform="matrix(.95833 0 0 .95455 .47917 .47727)" width="23" height="21" fill="#fff" stroke="#00f" xlink:href="#Ellipse"/><text id="ed298-text" class="Text" transform="translate(11.5,13.5)" fill="#00f"  font-size="10px" stroke="white" stroke-width="0" text-anchor="middle"><tspan x="0" y="0">Na+</tspan></text></a><a  id="edf" class="Protein ATP6V1G1 " transform="translate(528,307)"   name="H+ ATPase"  ><rect id="edf-icon" class="Icon" transform="matrix(.98765 0 0 .95238 .49383 .47619)" width="80" height="20" fill="#fff" stroke="#000"/><text id="edf-text" class="Text" transform="translate(40,13)" fill="#000"  font-size="10px" stroke="white" stroke-width="0" text-anchor="middle"><tspan x="0" y="0">H+ ATPase</tspan></text></a><a  id="ee596" class="GeneProduct MAPK8 " transform="translate(710,267)"   name="MAPK8"  ><rect id="ee596-icon" class="Icon" transform="matrix(.98765 0 0 .95238 .49383 .47619)" width="80" height="20" fill="#fff" stroke="#000"/><text id="ee596-text" class="Text" transform="translate(40,13)" fill="#000"  font-size="10px" stroke="white" stroke-width="0" text-anchor="middle"><tspan x="0" y="0">MAPK8</tspan></text></a><a id="ef6" class="Metabolite ChEBI_CHEBI_29101  " transform="translate(280,245)" color="#00f"  name="Na+"  ><use id="ef6-icon" class="Icon" transform="matrix(.95833 0 0 .95455 .47917 .47727)" width="23" height="21" fill="#fff" stroke="#00f" xlink:href="#Ellipse"/><text id="ef6-text" class="Text" transform="translate(11.5,13.5)" fill="#00f"  font-size="10px" stroke="white" stroke-width="0" text-anchor="middle"><tspan x="0" y="0">Na+</tspan></text></a><a  id="f00" class="Protein TNFRSF11A " transform="translate(651,212)"   name="RANK"  ><rect id="f00-icon" class="Icon" transform="matrix(.98765 0 0 .95238 .49383 .47619)" width="80" height="20" fill="#fff" stroke="#000"/><text id="f00-text" class="Text" transform="translate(40,13)" fill="#000"  font-size="10px" stroke="white" stroke-width="0" text-anchor="middle"><tspan x="0" y="0">RANK</tspan></text></a><a  id="f080e" class="Protein ACP5 " transform="translate(493,224)"   name="TRAP"  ><rect id="f080e-icon" class="Icon" transform="matrix(.98276 0 0 .95238 .49138 .47619)" width="57" height="20" fill="#fff" stroke="#000"/><text id="f080e-text" class="Text" transform="translate(28.5,13)" fill="#000"  font-size="10px" stroke="white" stroke-width="0" text-anchor="middle"><tspan x="0" y="0">TRAP</tspan></text></a><a  id="f27" class="Protein IFNAR1 " transform="translate(90.5,172)"   name="Type 1 interferon receptor"  ><rect id="f27-icon" class="Icon" transform="matrix(.99394 0 0 .95238 .49697 .47619)" width="164" height="20" fill="#fff" stroke="#000"/><text id="f27-text" class="Text" transform="translate(82,13)" fill="#000"  font-size="10px" stroke="white" stroke-width="0" text-anchor="middle"><tspan x="0" y="0">Type 1 interferon receptor</tspan></text></a><a  id="f56" class="Protein ITGB3 " transform="translate(698,307.5)"   name="b3 integrin"  ><rect id="f56-icon" class="Icon" transform="matrix(.98765 0 0 .95238 .49383 .47619)" width="80" height="20" fill="#fff" stroke="#000"/><text id="f56-text" class="Text" transform="translate(40,13)" fill="#000"  font-size="10px" stroke="white" stroke-width="0" text-anchor="middle"><tspan x="0" y="0">b3 integrin</tspan></text></a><a  id="f78" class="Protein CTSK " transform="translate(613,356)"   name="Cathepsin K"  ><rect id="f78-icon" class="Icon" transform="matrix(.98765 0 0 .95238 .49383 .47619)" width="80" height="20" fill="#fff" stroke="#000"/><text id="f78-text" class="Text" transform="translate(40,13)" fill="#000"  font-size="10px" stroke="white" stroke-width="0" text-anchor="middle"><tspan x="0" y="0">Cathepsin K</tspan></text></a><a  id="fbe" class="Protein GPR68 " transform="translate(282,121)"   name="OGR1"  ><rect id="fbe-icon" class="Icon" transform="matrix(.98765 0 0 .95238 .49383 .47619)" width="80" height="20" fill="#fff" stroke="#000"/><text id="fbe-text" class="Text" transform="translate(40,13)" fill="#000"  font-size="10px" stroke="white" stroke-width="0" text-anchor="middle"><tspan x="0" y="0">OGR1</tspan></text></a><a  id="fc5" class="Protein SPP1 " transform="translate(698,327)"   name="Osteopontin"  ><rect id="fc5-icon" class="Icon" transform="matrix(.98765 0 0 .95238 .49383 .47619)" width="80" height="20" fill="#fff" stroke="#000"/><text id="fc5-text" class="Text" transform="translate(40,13)" fill="#000"  font-size="10px" stroke="white" stroke-width="0" text-anchor="middle"><tspan x="0" y="0">Osteopontin</tspan></text></a><g id="ae22d" class="GroupComplex" transform="translate(552,65)" color="grey" ><use id="ae22d-icon" class="Icon" transform="matrix(.99048 0 0 .98462 .49524 .49231)" width="104" height="64" fill="#b4b464" fill-opacity=".1" stroke="grey" xlink:href="#Octagon"/><a  id="bc3" class="Protein PDGFB " transform="translate(12,32)"   name="PDGFB"  ><rect id="bc3-icon" class="Icon" transform="matrix(.98765 0 0 .95238 .49383 .47619)" width="80" height="20" fill="#fff" stroke="#000"/><text id="bc3-text" class="Text" transform="translate(40,13)" fill="#000"  font-size="10px" stroke="white" stroke-width="0" text-anchor="middle"><tspan x="0" y="0">PDGFB</tspan></text></a><a  id="fd0" class="Protein PDGFB " transform="translate(12,12)"   name="PDGFB"  ><rect id="fd0-icon" class="Icon" transform="matrix(.98765 0 0 .95238 .49383 .47619)" width="80" height="20" fill="#fff" stroke="#000"/><text id="fd0-text" class="Text" transform="translate(40,13)" fill="#000"  font-size="10px" stroke="white" stroke-width="0" text-anchor="middle"><tspan x="0" y="0">PDGFB</tspan></text></a></g><g id="f49c2" class="DirectedInteraction" color="#000" ><g color="#000" fill="transparent"  filter="url(#kaavioblackto000000filter)" stroke="#000" stroke-dasharray="62.80029154456999, 5.8"><path id="f49c2" class="EdgeBody" d="m691 232 59 35"   marker-end="url(#markerEndArrow)" /></g></g><text id="WP12-text" class="Text" transform="translate(5,45)" dominant-baseline="central" fill="black"  font-size="12px" font-weight="bold" overflow="visible" stroke="white" stroke-width="0"><tspan x="0" y="-27">Name: Osteoclast signaling</tspan> <tspan x="0" y="-9">License: CC BY 2.0</tspan> <tspan x="0" y="9">Last Modified: 2/21/2013</tspan> <tspan x="0" y="27">Organism: Homo sapiens</tspan></text></g></svg>
