<?xml version="1.0" encoding="UTF-8"?>
<svg xmlns="http://www.w3.org/2000/svg" id="-svg" class="Diagram"  baseProfile="full" prefix="schema:http://schema.org/" preserveAspectRatio="xMidYMid"  version="1.1"><defs><g id="icon-defs"><symbol id="Ellipse" class=" Icon Ellipse" x="0" y="0" overflow="visible" preserveAspectRatio="none" viewBox="0 0 50 50"><desc>Ellipse</desc><ellipse cx="25" cy="25" rx="25" ry="25" vector-effect="non-scaling-stroke"/></symbol><symbol id="Octagon" class=" Icon Octagon" x="0" y="0" overflow="visible" preserveAspectRatio="none" viewBox="0 0 100 100"><desc>Octagon</desc><path d="m0 25 25-25h50l25 25v50l-25 25h-50l-25-25z" vector-effect="non-scaling-stroke"/></symbol></g><g id="marker-defs"><marker id="mea" markerHeight="12" markerWidth="12" orient="auto" preserveAspectRatio="none" refX="12" refY="6" viewBox="0 0 12 12"><g id="g-mea" transform=""><g transform="rotate(180 6 6)"><rect y="5.4" width="2" height="1.2" style="stroke:#fff"/><polygon points="12 11 0 6 12 1" stroke-width="0"/></g></g></marker><marker id="mea000e6e6e6" markerHeight="12" markerWidth="12" orient="auto" preserveAspectRatio="none" refX="12" refY="6" viewBox="0 0 12 12"><g id="g-mea000e6e6e6" transform=""><g transform="rotate(180 6 6)"><rect y="5.4" width="2" height="1.2" style="fill:#e6e6e6;stroke:#e6e6e6"/><polygon points="12 11 0 6 12 1" stroke-width="0"/></g></g></marker></g></defs><g id="viewport-20220102135617625" class="svg-pan-zoom_viewport" transform="matrix(0.71 0 0 0.71 0 94.5)" style="transform:matrix(0.71, 0, 0, 0.71, 0, 94.5)"><style>svg.Diagram {font-family: 'Liberation Sans', Arial, sans-serif; }.Diagram path {fill: transparent;stroke: #000;marker-end: url(#mea);}.Diagram symbol path {fill: inherit;stroke: inherit;stroke-width: inherit;marker-end: inherit;}.Diagram rect {fill: #fff;stroke: #000;}.Diagram text {dominant-baseline: central;overflow: hidden;text-anchor: middle;fill: #000;font-size: 10px;}</style><style type="text/css">.Viewport .textContent {
  pointer-events: none;
  stroke-width: 0px;
}

					.Viewport.Icon {
  fill: white;
}

/* Hide the InfoBox */
.Viewport.textContent {
  font-size: 0;
}

.textContent {
  stroke: none;
}

.DataNode {
  stroke-miterlimit: 1;
  pointer-events: auto;
}

.DataNode:hover {
  cursor: pointer;
}

/* TODO should this apply to things other than DataNodes? */
.DataNode.textContent {
  pointer-events: none;
}

.DataNode.Highlighted {
  opacity: 0.6;
  stroke-width: 0px;
}

marker {
  /* this is what should work per the spec
  stroke-dasharray: none; */
  /* but I need to add this to make it work in Safari */
  stroke-dasharray: 9999999999999999999999999;
}

.Citation.Icon {
  fill: none;
  stroke-width: 0px;
}

.Citation.textContent {
  text-align: center;
  vertical-align: top;
  font-size: 7px;
  fill: #999;
  fill-opacity: 1;
  stroke: none;
}</style><g id="WP1528" class="Pathway http___identifiers_org_pw_PW_0000296 Viewport"  name="Name: Physiological and pathological hypertrophy of the heart License: CC BY 2.0 Organism: Homo sapiens" ><g class="Pathway http___identifiers_org_pw_PW_0000296 Viewport"><rect   width="1700" height="680" style="stroke:none"/><g id="id11cd5914" class="Edge"  ><path    d="m602 271.5 349-0.5"/></g><g id="id6558b8e5" class="Edge"  ><path    d="m817.75 597-407.25 33"/></g><g id="id811dbead" class="Edge"  ><path    d="m1011 281 68.25 78.5"/></g><g id="id914d0c16" class="Edge"  ><path    d="m1079.2 597 332.5 33"/></g><g id="id92d52513" class="Edge"  ><path    d="m452 640h920"/></g><g id="id95873b64" class="Edge"  ><path    d="M1233.5,286.5L1031,271"/></g><g id="idaa18e8a6" class="Edge"  ><path    d="m991 226v35"/></g><g id="idb1e5b34f" class="Edge"  ><path    d="m971 281-153.25 78.5"/></g><g id="id6b58dcbd" class="Edge"  ><path    d="m369 69v38"/></g><g id="idb8a5cfad" class="Edge"  ><path    d="m369 143v80"/></g><g id="id956dbbd1" class="Edge"  ><path    d="m1121 135 221.62 72"/></g><g id="idc3bad0d4" class="Edge"  ><path    d="m865 135-379.5 88"/></g><g id="iddd9d9a63" class="Edge"  ><path    d="m993 153-2 53"/></g><g id="ad2f1" class="GroupGroup" transform="translate(1376,422)"  ><g class="GroupGroup"><g id="d244a" class="Edge"  ><path    d="m34 8v20" style="marker-end:url(#mea000e6e6e6)"/></g><g id="e1beb" class="Label" transform="translate(35,51)"  name="Apoptosis" ><g class="Label"/><text   transform="translate(40,10)"    >Apoptosis</text></g><g id="f3317" class="Label" transform="translate(35,11)"  name="Contractility" ><g class="Label"/><text   transform="translate(40,10)"    >Contractility</text></g><g id="faec0" class="Label" transform="translate(8,31)"  name="Electrophysiology defects" ><g class="Label"/><text   transform="translate(67,10)"    >Electrophysiology defects</text></g></g></g><g id="id4910f871" class="Edge"  ><path    d="m1451 501 0.5 129"/></g><g id="id56606217" class="Edge"  ><path    d="m1451.8 366-0.75 56"/></g><g id="id20eac086" class="Edge"  ><path    d="m1123 405 21 63"/></g><g id="id3af30581" class="Edge"  ><path    d="m1451 77v47"/></g><g id="ida2ed24c6" class="Edge"  ><path    d="m1451 160 0.75 47"/></g><g id="id4cf27147" class="Edge"  ><path    d="m855 407-80 61"/></g><g id="fd054" class="GroupGroup" transform="translate(321 469.36)"  ><g class="GroupGroup"><g id="bc453" class="Edge"  ><path    d="m9 25.64 0.28-17.64" style="marker-end:url(#mea000e6e6e6)"/></g><g id="b76e0" class="Label" transform="translate(8 13.64)"  name="Contractility" ><g class="Label"/><text   transform="translate(40,10)"    >Contractility</text></g><g id="c027a" class="Label" transform="translate(8 33.64)"  name="Cellular growth" ><g class="Label"/><text   transform="translate(40,10)"    >Cellular growth</text></g><g id="f092f" class="Label" transform="translate(8 53.64)"  name="Survival" ><g class="Label"/><text   transform="translate(40,10)"    >Survival</text></g></g></g><g id="id567446f6" class="Edge"  ><path    d="m369 551v79"/></g><g id="idb9b84245" class="Edge"  ><path    d="m369 417v52.36"/></g><g id="id58f7dfb1" class="Edge"  ><path    d="m993 71v46"/></g><g id="id354a67af" class="Edge"  ><path    d="m1018 405 19 63"/></g><g id="id4c179a35" class="Edge"  ><path    d="m949 415v53"/></g><g id="b0f29" class="" transform="translate(136,223)"  ><g class=""><use class=" Node Icon" width="466" height="194" fill="transparent" stroke="#000" href="#Ellipse"/></g></g><g id="c412f" class="" transform="translate(1233.5,207)"  ><g class=""><use class=" Node Icon" width="436.5" height="159" fill="transparent" stroke="#000" href="#Ellipse"/></g></g><g id="d9f58" class="" transform="translate(687,359.5)"  ><g class=""><rect   width="523" height="237.5" style="fill:transparent"/></g></g><g id="a03a6" class="Label" transform="translate(953,16)"  name="GPCR agonists" ><g class="Label"/><text   transform="translate(40,10)"    >GPCR agonists</text></g><g id="a180d" class="Label" transform="translate(1352,57)"  name="(mechanical, oxidative, metabolic)" ><g class="Label"/><text   transform="translate(99,10)"    >(mechanical, oxidative, metabolic)</text></g><g id="b3c4a" class="Label" transform="translate(1392,234)"  name="Pathological remodeling" ><rect   width="122" height="20" style="fill:#f30"/><text   transform="translate(61,10)"    >Pathological remodeling</text></g><g id="ba646" class="Label" transform="translate(329,19)"  name="Cytokines" ><g class="Label"/><text   transform="translate(40,10)"    >Cytokines</text></g><g id="bcff2" class="Label" transform="translate(1372,630)"  name="Decompensated heart failure" ><rect   width="159" height="20" style="fill:#f30"/><text   transform="translate(79.5,10)"    >Decompensated heart failure</text></g><g id="bf69b" class="Label" transform="translate(292,251)"  name="Physioclogical Hypertrophy" ><rect   width="146" height="20" style="fill:#ff0"/><text   transform="translate(73,10)"    >Physioclogical Hypertrophy</text></g><g id="cb744" class="Label" transform="translate(1410,22)"  name="Stress" ><g class="Label"/><text   transform="translate(40,10)"    >Stress</text></g><g id="dc824" class="Label" transform="translate(911,536)"  name="Hypertrophic gene expression" ><rect   width="175" height="20" style="fill:#ff0"/><text   transform="translate(87.5,10)"    >Hypertrophic gene expression</text></g><g id="dc879" class="Label" transform="translate(915,388)"  name="Label" ><g class="Label"/><text   transform="translate(40,10)"    >Label</text></g><g id="ee1a3" class="Label" transform="translate(286,630)"  name="Compensatory hypertrophy" ><rect   width="166" height="20" style="fill:#ff0"/><text   transform="translate(83,10)"    >Compensatory hypertrophy</text></g><g id="a6f1b" class="GroupGroup" transform="translate(154,299)"  ><g class="GroupGroup"><g id="b84e4" class="Label" transform="translate(328,8)"  name="PAK" ><rect   width="80" height="20"/><text   transform="translate(40,10)"    >PAK</text></g><g id="c6c37" class="GeneProduct " transform="translate(248,8)"  name="PKCE" ><rect   width="80" height="20"/><text   transform="translate(40,10)"    >PKCE</text></g><g id="dc043" class="GeneProduct " transform="translate(168,8)"  name="p38b" ><rect   width="80" height="20"/><text   transform="translate(40,10)"    >p38b</text></g><g id="e649f" class="GeneProduct " transform="translate(8,8)"  name="STAT3" ><rect   width="80" height="20"/><text   transform="translate(40,10)"    >STAT3</text></g><g id="fc658" class="GeneProduct " transform="translate(88,8)"  name="erk" ><rect   width="80" height="20"/><text   transform="translate(40,10)"    >erk</text></g></g></g><g id="ab1b3" class="GroupGroup" transform="translate(865,117)"  ><g class="GroupGroup"><g id="a6c1b" class="Label" transform="translate(168,8)"  name="RAS" ><rect   width="80" height="20"/><text   transform="translate(40,10)"    >RAS</text></g><g id="ae23e" class="Label" transform="translate(88,8)"  name="Gq" ><rect   width="80" height="20"/><text   transform="translate(40,10)"    >Gq</text></g><g id="c7980" class="GeneProduct " transform="translate(8,8)"  name="Rac1" ><rect   width="80" height="20"/><text   transform="translate(40,10)"    >Rac1</text></g></g></g><g id="d764b" class="GroupGroup" transform="translate(1363,124)"  ><g class="GroupGroup"><g id="c74ab" class="Label" transform="translate(8,8)"  name="Gi" ><rect   width="80" height="20"/><text   transform="translate(40,10)"    >Gi</text></g><g id="a285b" class="GeneProduct " transform="translate(88,8)"  name="MKK3" ><rect   width="80" height="20"/><text   transform="translate(40,10)"    >MKK3</text></g></g></g><g id="bdc06" class="GeneProduct " transform="translate(329,49)"  name="CTF1" ><rect   width="80" height="20"/><text   transform="translate(40,10)"    >CTF1</text></g><g id="e8269" class="Metabolite " transform="translate(952,43)"  name="PE" ><rect   width="80" height="20" style="stroke:#00f"/><text   transform="translate(40,10)"     style="fill:#00f">PE</text></g><g id="f7a5f" class="Metabolite " transform="translate(951,206)"  name="Calcium" ><rect   width="80" height="20" style="stroke:#00f"/><text   transform="translate(40,10)"     style="fill:#00f">Calcium</text></g><g id="ffa8e" class="Protein " transform="translate(951,261)"  name="Calmodulin" ><rect   width="80" height="20"/><text   transform="translate(40,10)"    >Calmodulin</text></g><g id="a62bf" class="GroupGroup" transform="translate(807,377)"  ><g class="GroupGroup"><g id="bac3d" class="GeneProduct " transform="translate(191,8)"  name="CamK" ><rect   width="80" height="20"/><text   transform="translate(40,10)"    >CamK</text></g><g id="e2439" class="GeneProduct " transform="translate(8,10)"  name="JNK" ><rect   width="80" height="20"/><text   transform="translate(40,10)"    >JNK</text></g><g id="f3041" class="GeneProduct " transform="translate(276,8)"  name="p38" ><rect   width="80" height="20"/><text   transform="translate(40,10)"    >p38</text></g></g></g><g id="a79c2" class="GroupGroup" transform="translate(281,107)"  ><g class="GroupGroup"><g id="b78fc" class="GeneProduct " transform="translate(88,8)"  name="LIFR" ><rect   width="80" height="20"/><text   transform="translate(40,10)"    >LIFR</text></g><g id="fdf5c" class="GeneProduct " transform="translate(8,8)"  name="gp130" ><rect   width="80" height="20"/><text   transform="translate(40,10)"    >gp130</text></g></g></g><g id="c5d4d" class="GroupGroup" transform="translate(1096,468)"  ><g class="GroupGroup"><g id="af2d1" class="GeneProduct " transform="translate(8,8)"  name="MEF-2" ><rect   width="80" height="20"/><text   transform="translate(40,10)"    >MEF-2</text></g></g></g><g id="cc8b7" class="GroupGroup" transform="translate(1287,276)"  ><g class="GroupGroup"><g id="b4fc0" class="GeneProduct " transform="translate(248,8)"  name="p38a" ><rect   width="80" height="20"/><text   transform="translate(40,10)"    >p38a</text></g><g id="b715e" class="GeneProduct " transform="translate(168,8)"  name="PKCb" ><rect   width="80" height="20"/><text   transform="translate(40,10)"    >PKCb</text></g><g id="ba5bd" class="GeneProduct " transform="translate(8,8)"  name="JNK" ><rect   width="80" height="20"/><text   transform="translate(40,10)"    >JNK</text></g><g id="def9a" class="GeneProduct " transform="translate(88,8)"  name="RhoA" ><rect   width="80" height="20"/><text   transform="translate(40,10)"    >RhoA</text></g></g></g><g id="d69e0" class="GroupComplex" transform="translate(896,374)"  ><g class="GroupComplex"><use class="Icon" width="104" height="64" fill="#b4b464" fill-opacity=".1" stroke="grey" href="#Octagon"/><g id="c05cf" class="GeneProduct " transform="translate(12,32)"  name="CalNB" ><rect   width="80" height="20"/><text   transform="translate(40,10)"    >CalNB</text></g><g id="e42bb" class="GeneProduct " transform="translate(12,12)"  name="CalNA" ><rect   width="80" height="20"/><text   transform="translate(40,10)"    >CalNA</text></g></g></g><g id="fbc0a" class="GroupGroup" transform="translate(687,468)"  ><g class="GroupGroup"><g id="bebf3" class="GeneProduct " transform="translate(8,8)"  name="C-JUN" ><rect   width="80" height="20"/><text   transform="translate(40,10)"    >C-JUN</text></g><g id="d212a" class="GeneProduct " transform="translate(88,8)"  name="FOS" ><rect   width="80" height="20"/><text   transform="translate(40,10)"    >FOS</text></g></g></g><g id="fd656" class="GroupGroup" transform="translate(865,35)"  ><g class="GroupGroup"><g id="ce5ef" class="GeneProduct " transform="translate(168,8)"  name="ET-1" ><rect   width="80" height="20"/><text   transform="translate(40,10)"    >ET-1</text></g><g id="fd921" class="GeneProduct " transform="translate(8,8)"  name="Ang II" ><rect   width="80" height="20"/><text   transform="translate(40,10)"    >Ang II</text></g></g></g><g id="fdd70" class="GroupGroup" transform="translate(905,468)"  ><g class="GroupGroup"><g id="dff64" class="GeneProduct " transform="translate(8,8)"  name="NFAT3" ><rect   width="80" height="20"/><text   transform="translate(40,10)"    >NFAT3</text></g><g id="f592a" class="GeneProduct " transform="translate(88,8)"  name="GATA-4" ><rect   width="80" height="20"/><text   transform="translate(40,10)"    >GATA-4</text></g></g></g></g></g></g></svg>