<?xml version="1.0" encoding="UTF-8"?>
<!--
  WikiPathways page: https://www.wikipathways.org/index.php/Pathway:WP1604
  URL for this compressed file: https://github.com/eweitz/cachome/tree/main/data/WP1604.svg
  Source code for compression: https://github.com/eweitz/cachome/tree/main/src/wikipathways.py
-->
<svg id="wp1604-svg" class="Diagram" width="800" height="600" color="black" baseProfile="full" prefix="schema:http://schema.org/" preserveAspectRatio="xMidYMid" version="1.1" viewBox="0 0 845.35 822.5" vocab="http://vocabularies.wikipathways.org/wp#" xmlns="http://www.w3.org/2000/svg" xmlns:xlink="http://www.w3.org/1999/xlink"><style>svg {font-family: 'Liberation Sans', Arial, sans-serif; }</style><defs><g id="jit-defs"><filter id="kaaviodoublefalse3filter" x="-50%" y="-50%" width="200%" height="200%"><feComposite in="SourceGraphic" in2="SourceGraphic" result="doubleDark"/><feMorphology in="doubleDark" operator="dilate" radius="0.16666666666666666" result="in2Double"/><feMorphology in="SourceGraphic" operator="dilate" radius="3" result="inDouble"/><feComposite in="inDouble" in2="in2Double" operator="out" result="doubleResult"/></filter><filter id="kaavioblackto000000filter" x="0" y="0" width="845.35" height="822.5" filterUnits="userSpaceOnUse"><feColorMatrix in="SourceGraphic" values="-1   0   0 0 0                   0  -1   0 0 0                   0   0  -1 0 0                   0   0   0 1 0"/></filter></g><g id="jic-defs"><marker id="markerEndArrow" stroke-dasharray="99999" markerHeight="12" markerUnits="userSpaceOnUse" markerWidth="12" orient="auto" preserveAspectRatio="none" refX="12" refY="6" viewBox="0 0 12 12"><path transform="rotate(180 6 6)" d="M12 11L0 6l12-5z" fill="currentColor" stroke-width="0"/></marker><marker id="markerEndMimCatalysis" stroke-dasharray="99999" markerHeight="12" markerUnits="userSpaceOnUse" markerWidth="12" orient="auto" preserveAspectRatio="none" refX="12" refY="6" viewBox="0 0 12 12"><circle transform="rotate(180 6 6)" cx="6" cy="6" r="5.3" fill="none" stroke="#000"/></marker><marker id="markerEndMimConversion" stroke-dasharray="99999" markerHeight="12" markerUnits="userSpaceOnUse" markerWidth="12" orient="auto" preserveAspectRatio="none" refX="12" refY="6" viewBox="0 0 12 12"><path transform="rotate(180 6 6)" d="M12 11L0 6l12-5z" fill="currentColor" stroke-width="0"/></marker><symbol id="none" preserveAspectRatio="none" viewBox="0 0 100 100"/></g></defs><g id="WP1604" class="Viewport" color="black"  name="Name: Codeine and morphine metabolism Organism: Homo sapiens"><rect id="WP1604-icon" class="Icon" width="845.35" height="822.5" fill="#fff" stroke="#000" stroke-width="0"/><g id="id157a3ce3" class="DirectedInteraction" color="#000" ><g color="#000" fill="transparent"  filter="url(#kaavioblackto000000filter)" stroke="#000" stroke-dasharray="205.06699447703855, 5.8"><path id="id157a3ce3" class="EdgeBody" d="m333.32 165.74v9.2784c0 9.2784 0 27.835-18.22 37.114-18.22 9.2784-54.661 9.2784-72.882 24.377-18.22 15.098-18.22 45.294-18.22 60.393l6e-14 15.098"   marker-end="url(#markerEndArrow)" /></g><g id="c6ae6" class="Burr Anchor" transform="translate(285.25 220.71)" ><use id="c6ae6-icon" class="Icon" width="0" height="0" fill="#141414" stroke-width="0" xlink:href="#none"/></g></g><g id="id35379b93" class="DirectedInteraction" color="#000" ><g color="#000" fill="transparent"  filter="url(#kaavioblackto000000filter)" stroke="#000" stroke-dasharray="148.87714247093805, 5.8"><path id="id35379b93" class="EdgeBody" d="m363.32 155.74h154.68"   marker-end="url(#markerEndArrow)" /></g><g id="e9ce0" class="Burr Anchor" transform="translate(436.55 155.74)" ><use id="e9ce0-icon" class="Icon" width="0" height="0" fill="#141414" stroke-width="0" xlink:href="#none"/></g></g><g id="id2647e419" class="Interaction" color="#000" ><g color="#000" fill="transparent"  filter="url(#kaavioblackto000000filter)" stroke="#000" stroke-dasharray="13.476310476771534, 11"><path id="id2647e419" class="EdgeBody" d="m436.4 180.22 0.15742-24.476"   marker-end="url(#markerEndMimCatalysis)" /></g></g><g id="id4e7cb6a3" class="DirectedInteraction" color="#000" ><g color="#000" fill="transparent"  filter="url(#kaavioblackto000000filter)" stroke="#000" stroke-dasharray="176.6206627097403, 5.8"><path id="id4e7cb6a3" class="EdgeBody" d="m549.91 439.17 0.42018 182.42"   marker-end="url(#markerEndArrow)" /></g><g id="d4c3f" class="Burr Anchor" transform="translate(550.11 525.22)" ><use id="d4c3f-icon" class="Icon" width="0" height="0" fill="#141414" stroke-width="0" xlink:href="#none"/></g></g><g id="id67727403" class="Interaction" color="#000" ><g color="#000" fill="transparent"  filter="url(#kaavioblackto000000filter)" stroke="#000" stroke-dasharray="13.524700935091644, 11"><path id="id67727403" class="EdgeBody" d="m436.4 131.22 0.15742 24.524"   marker-end="url(#markerEndMimCatalysis)" /></g></g><g id="id6a688998" class="DirectedInteraction" color="#000" ><g color="#000" fill="transparent"  filter="url(#kaavioblackto000000filter)" stroke="#000" stroke-dasharray="246.45925925925934, 5.8"><path id="id6a688998" class="EdgeBody" d="m333.32 165.74v252.26"   marker-end="url(#markerEndArrow)" /></g><g id="fc5ea" class="Burr Anchor" transform="translate(333.32 296.35)" ><use id="fc5ea-icon" class="Icon" width="0" height="0" fill="#141414" stroke-width="0" xlink:href="#none"/></g></g><g id="id892fc659" class="DirectedInteraction" color="#000" ><g color="#000" fill="transparent"  filter="url(#kaavioblackto000000filter)" stroke="#000" stroke-dasharray="177.79106271359618, 5.8"><path id="id892fc659" class="EdgeBody" d="m333.32 438-0.91928 183.59"   marker-end="url(#markerEndArrow)" /></g><g id="c7538" class="Burr Anchor" transform="translate(333.01 500.66)" ><use id="c7538-icon" class="Icon" width="0" height="0" fill="#141414" stroke-width="0" xlink:href="#none"/></g></g><g id="id917ac615" class="DirectedInteraction" color="#000" ><g color="#000" fill="transparent"  filter="url(#kaavioblackto000000filter)" stroke="#000" stroke-dasharray="317.85104877344276, 5.8"><path id="id917ac615" class="EdgeBody" d="m719.81 304.96 4.0428 323.63"   marker-end="url(#markerEndArrow)" /></g><g id="de3a5" class="Burr Anchor" transform="translate(722.26 501.03)" ><use id="de3a5-icon" class="Icon" width="0" height="0" fill="#141414" stroke-width="0" xlink:href="#none"/></g></g><g id="id9e976b05" class="DirectedInteraction" color="#000" ><g color="#000" fill="transparent"  filter="url(#kaavioblackto000000filter)" stroke="#000" stroke-dasharray="167.49120847525558, 5.8"><path id="id9e976b05" class="EdgeBody" d="m754.35 648.59-164.11 55.651"   marker-end="url(#markerEndArrow)" /></g></g><g id="ida20009c6" class="Interaction" color="#000" ><g color="#000" fill="transparent"  filter="url(#kaavioblackto000000filter)" stroke="#000" stroke-dasharray="25.371058230725176, 11"><path id="ida20009c6" class="EdgeBody" d="m260.16 193.95 24.182 27.168"   marker-end="url(#markerEndMimCatalysis)" /></g></g><g id="idaa161f3f" class="Interaction" color="#000" ><g color="#000" fill="transparent"  filter="url(#kaavioblackto000000filter)" stroke="#000" stroke-dasharray="247.65076454013763, 5.8"><path id="idaa161f3f" class="EdgeBody" d="m546.5 165.74 3.4087 253.43"   marker-end="url(#markerEndMimConversion)" /></g><g id="a03e2" class="Burr Anchor" transform="translate(549.05 354.99)" ><use id="a03e2-icon" class="Icon" width="0" height="0" fill="#141414" stroke-width="0" xlink:href="#none"/></g></g><g id="id3295267" class="Interaction" color="#000" ><g color="#000" fill="transparent"  filter="url(#kaavioblackto000000filter)" stroke="#000" stroke-dasharray="41.20714685567485, 11"><path id="id3295267" class="EdgeBody" d="m511.01 319.23 38.034 35.763"   marker-end="url(#markerEndMimCatalysis)" /></g></g><g id="idad0b415a" class="Interaction" color="#000" ><g color="#000" fill="transparent"  filter="url(#kaavioblackto000000filter)" stroke="#000" stroke-dasharray="212.8475828881369, 5.8"><path id="idad0b415a" class="EdgeBody" d="m546.5 165.74v5.5822c0 5.5822 0 16.746 23.801 22.329 23.801 5.5822 71.403 5.5822 95.204 19.87 23.801 14.288 23.801 42.865 23.801 57.153v14.288"   marker-end="url(#markerEndMimConversion)" /></g><g id="c2166" class="Burr Anchor" transform="translate(650.59 207.07)" ><use id="c2166-icon" class="Icon" width="0" height="0" fill="#141414" stroke-width="0" xlink:href="#none"/></g></g><g id="idc7d7facd" class="DirectedInteraction" color="#000" ><g color="#000" fill="transparent"  filter="url(#kaavioblackto000000filter)" stroke="#000" stroke-dasharray="56.855980255950925, 5.8"><path id="idc7d7facd" class="EdgeBody" d="m550.33 641.59-0.76245 62.651"   marker-end="url(#markerEndArrow)" /></g></g><g id="idc8d059f6" class="Interaction" color="#000" ><g color="#000" fill="transparent"  filter="url(#kaavioblackto000000filter)" stroke="#000" stroke-dasharray="128.5806774365887, 5.8"><path id="idc8d059f6" class="EdgeBody" d="m546.5 165.74v5.5822c0 5.5822 0 16.746-8.0733 22.329-8.0733 5.5822-24.22 5.5822-32.293 18.555-8.0733 12.973-8.0733 38.919-8.0733 51.892l6e-14 12.973"   marker-end="url(#markerEndMimConversion)" /></g><g id="c2b71" class="Burr Anchor" transform="translate(499.66 233.34)" ><use id="c2b71-icon" class="Icon" width="0" height="0" fill="#141414" stroke-width="0" xlink:href="#none"/></g></g><g id="idcabfc5d" class="DirectedInteraction" color="#000" ><g color="#000" fill="transparent"  filter="url(#kaavioblackto000000filter)" stroke="#000" stroke-dasharray="30.216539226676115, 5.8"><path id="idcabfc5d" class="EdgeBody" d="m452.01 354.4-36.011 0.60281"   marker-end="url(#markerEndArrow)" /></g></g><g id="ide74ddb3f" class="DirectedInteraction" color="#000" ><g color="#000" fill="transparent"  filter="url(#kaavioblackto000000filter)" stroke="#000" stroke-dasharray="181.48280302590086, 5.8"><path id="ide74ddb3f" class="EdgeBody" d="m332.4 641.59 176.49 62.651"   marker-end="url(#markerEndArrow)" /></g></g><g id="ide9ecbfc1" class="Interaction" color="#000" ><g color="#000" fill="transparent"  filter="url(#kaavioblackto000000filter)" stroke="#000" stroke-dasharray="28.038519214295768, 11"><path id="ide9ecbfc1" class="EdgeBody" d="m510.01 354.4 39.034 0.59455"   marker-end="url(#markerEndMimCatalysis)" /></g></g><g id="ided88d85f" class="Interaction" color="#000" ><g color="#000" fill="transparent"  filter="url(#kaavioblackto000000filter)" stroke="#000" stroke-dasharray="25.754983990325655, 11"><path id="ided88d85f" class="EdgeBody" d="m306.05 271.71 27.275 24.637"   marker-end="url(#markerEndMimCatalysis)" /></g></g><g id="idedd99414" class="Interaction" color="#000" ><g color="#000" fill="transparent"  filter="url(#kaavioblackto000000filter)" stroke="#000" stroke-dasharray="14.67954765112274, 11"><path id="idedd99414" class="EdgeBody" d="m359 296-25.677 0.35146"   marker-end="url(#markerEndMimCatalysis)" /></g></g><g id="ide74120" class="Interaction" color="#000" ><g color="#000" fill="transparent"  filter="url(#kaavioblackto000000filter)" stroke="#000" stroke-dasharray="32.9388851524062, 11"><path id="ide74120" class="EdgeBody" d="m687.96 185.13-38.37 21.409"   marker-end="url(#markerEndMimCatalysis)" /></g></g><g id="id1f1fc9a3" class="Interaction" color="#000" ><g color="#000" fill="transparent"  filter="url(#kaavioblackto000000filter)" stroke="#000" stroke-dasharray="30.76646279018488, 11"><path id="id1f1fc9a3" class="EdgeBody" d="m460.03 233.37 41.76 0.71953"   marker-end="url(#markerEndMimCatalysis)" /></g></g><g id="ide804ace8" class="Interaction" color="#000" ><g color="#000" fill="transparent"  filter="url(#kaavioblackto000000filter)" stroke="#000" stroke-dasharray="17.73532739092545, 11"><path id="ide804ace8" class="EdgeBody" d="m568.28 333.64-19.235 21.348"   marker-end="url(#markerEndMimCatalysis)" /></g></g><g id="id642d9ee1" class="Interaction" color="#000" ><g color="#000" fill="transparent"  filter="url(#kaavioblackto000000filter)" stroke="#000" stroke-dasharray="231.86384524716968, 11"><path id="id642d9ee1" class="EdgeBody" d="m479.39 501.62 242.86-0.58893"   marker-end="url(#markerEndMimCatalysis)" /></g></g><g id="id7b019058" class="Interaction" color="#000" ><g color="#000" fill="transparent"  filter="url(#kaavioblackto000000filter)" stroke="#000" stroke-dasharray="59.71596725399057, 11"><path id="id7b019058" class="EdgeBody" d="m479.39 525.62 70.715-0.40632"   marker-end="url(#markerEndMimCatalysis)" /></g></g><g id="id96151173" class="Interaction" color="#000" ><g color="#000" fill="transparent"  filter="url(#kaavioblackto000000filter)" stroke="#000" stroke-dasharray="56.389823642825604, 11"><path id="id96151173" class="EdgeBody" d="m400.39 501.62-67.383-0.95944"   marker-end="url(#markerEndMimCatalysis)" /></g></g><g id="c1586" class="SingleFreeNode Shape" transform="translate(130.5,87.5)" color="#c0c0c0" ><g fill="transparent"  filter="url(#kaaviodoublefalse3filter)" stroke="#c0c0c0" stroke-width="3"><rect id="c1586-icon" class="Icon" transform="matrix(.98233 0 0 .97633 5.894 5.858)" width="667" height="494.88" rx="15" ry="15"   /></g></g><g id="a7025" class="Label" transform="translate(468.23 704.24)" color="#990099"  name="Elimination via bile"><use id="a7025-icon" class="Icon" width="162.68071519795694" height="28.837803320562564" fill="transparent"  stroke="#990099" stroke-width="0" xlink:href="#none"/><text id="a7025-text" class="Text" transform="translate(81.34 18.419)" fill="#990099"  font-size="12px" font-weight="bold" stroke="white" stroke-width="0" text-anchor="middle"><tspan x="0" y="0">Elimination via bile</tspan></text></g><g id="aa6c4" class="Label" transform="translate(693.49 111.39)" color="#666666"  name="Liver cell"><use id="aa6c4-icon" class="Icon" width="80" height="20" fill="transparent"  stroke="#666666" stroke-width="0" xlink:href="#none"/><text id="aa6c4-text" class="Text" transform="translate(40,14)" fill="#666666"  font-size="12px" font-weight="bold" stroke="white" stroke-width="0" text-anchor="middle"><tspan x="0" y="0">Liver cell</tspan></text></g><g id="c918d" class="Label" transform="translate(352,342.5)" color="#c0c"  name="Gilbert  syndrome"><rect id="c918d-icon" class="Icon" transform="matrix(.98462 0 0 .96154 .49231 .48077)" width="64" height="25" rx="15" ry="15" fill="#fff" stroke="#c0c"/><text id="c918d-text" class="Text" transform="translate(32,16.5)" fill="#c0c"  font-size="12px" stroke="white" stroke-width="0" text-anchor="middle"><tspan x="0" y="-6.6000000000000005">Gilbert </tspan> <tspan x="0" y="6.6000000000000005">syndrome</tspan></text></g><a id="a05b6" class="Metabolite ChEBI_CHEBI_16714  " transform="translate(303.32 145.74)" color="#00f"  name="Codeine"  ><rect id="a05b6-icon" class="Icon" transform="matrix(.98361 0 0 .95238 .4918 .47619)" width="60" height="20" rx="15" ry="15" fill="#fff" stroke="#00f"/><text id="a05b6-text" class="Text" transform="translate(30,13)" fill="#00f"  font-size="10px" stroke="white" stroke-width="0" text-anchor="middle"><tspan x="0" y="0">Codeine</tspan></text></a><a  id="a15cc" class="GeneProduct CYP3A4 " transform="translate(213.66 173.95)"   name="CYP3A4"  ><rect id="a15cc-icon" class="Icon" transform="matrix(.98413 0 0 .95238 .49206 .47619)" width="62" height="20" rx="15" ry="15" fill="#fff" stroke="#000"/><text id="a15cc-text" class="Text" transform="translate(31,13)" fill="#000"  font-size="10px" stroke="white" stroke-width="0" text-anchor="middle"><tspan x="0" y="0">CYP3A4</tspan></text></a><a  id="a5cfa" class="GeneProduct CYP2D6 " transform="translate(406.9 111.22)"   name="CYP2D6"  ><rect id="a5cfa-icon" class="Icon" transform="matrix(.98333 0 0 .95238 .49167 .47619)" width="59" height="20" rx="15" ry="15" fill="#fff" stroke="#000"/><text id="a5cfa-text" class="Text" transform="translate(29.5,13)" fill="#000"  font-size="10px" stroke="white" stroke-width="0" text-anchor="middle"><tspan x="0" y="0">CYP2D6</tspan></text></a><a id="a83fd" class="Metabolite " transform="translate(461.06 277.07)" color="#00f"  name="Normorphine"  ><rect id="a83fd-icon" class="Icon" transform="matrix(.98667 0 0 .95238 .49333 .47619)" width="74" height="20" rx="15" ry="15" fill="#fff" stroke="#00f"/><text id="a83fd-text" class="Text" transform="translate(37,13)" fill="#00f"  font-size="10px" stroke="white" stroke-width="0" text-anchor="middle"><tspan x="0" y="0">Normorphine</tspan></text></a><a  id="a9a36" class="GeneProduct UGT2B7 " transform="translate(359,286)"   name="UGT2B7"  ><rect id="a9a36-icon" class="Icon" transform="matrix(.98305 0 0 .95238 .49153 .47619)" width="58" height="20" rx="15" ry="15" fill="#fff" stroke="#000"/><text id="a9a36-text" class="Text" transform="translate(29,13)" fill="#000"  font-size="10px" stroke="white" stroke-width="0" text-anchor="middle"><tspan x="0" y="0">UGT2B7</tspan></text></a><a  id="ae2b0" class="GeneProduct UGT2B7 " transform="translate(451.01 309.23)"   name="UGT2B7"  ><rect id="ae2b0-icon" class="Icon" transform="matrix(.98361 0 0 .95238 .4918 .47619)" width="60" height="20" rx="15" ry="15" fill="#fff" stroke="#000"/><text id="ae2b0-text" class="Text" transform="translate(30,13)" fill="#000"  font-size="10px" stroke="white" stroke-width="0" text-anchor="middle"><tspan x="0" y="0">UGT2B7</tspan></text></a><a id="b05ff" class="Metabolite " transform="translate(487.41 419.17)" color="#00f"  name="Morphine-3-glucuronide"  ><rect id="b05ff-icon" class="Icon" transform="matrix(.99206 0 0 .95238 .49603 .47619)" width="125" height="20" rx="15" ry="15" fill="#fff" stroke="#00f"/><text id="b05ff-text" class="Text" transform="translate(62.5,13)" fill="#00f"  font-size="10px" stroke="white" stroke-width="0" text-anchor="middle"><tspan x="0" y="0">Morphine-3-glucuronide</tspan></text></a><a id="b1b59" class="PubChem-compound_5489029 Metabolite ChEBI_CHEBI_80580  " transform="translate(270.32 418)" color="#00f"  name="Codeine-6-glucuronide"  ><rect id="b1b59-icon" class="Icon" transform="matrix(.99213 0 0 .95238 .49606 .47619)" width="126" height="20" rx="15" ry="15" fill="#fff" stroke="#00f"/><text id="b1b59-text" class="Text" transform="translate(63,13)" fill="#00f"  font-size="10px" stroke="white" stroke-width="0" text-anchor="middle"><tspan x="0" y="0">Codeine-6-glucuronide</tspan></text></a><a id="b59b1" class="Metabolite ChEBI_CHEBI_17303  " transform="translate(518 145.74)" color="#00f"  name="Morphine"  ><rect id="b59b1-icon" class="Icon" transform="matrix(.98276 0 0 .95238 .49138 .47619)" width="57" height="20" rx="15" ry="15" fill="#fff" stroke="#00f"/><text id="b59b1-text" class="Text" transform="translate(28.5,13)" fill="#00f"  font-size="10px" stroke="white" stroke-width="0" text-anchor="middle"><tspan x="0" y="0">Morphine</tspan></text></a><a id="caaed" class="Metabolite " transform="translate(487.83 621.59)" color="#00f"  name="Morphine-3-glucuronide"  ><rect id="caaed-icon" class="Icon" transform="matrix(.99206 0 0 .95238 .49603 .47619)" width="125" height="20" rx="15" ry="15" fill="#fff" stroke="#00f"/><text id="caaed-text" class="Text" transform="translate(62.5,13)" fill="#00f"  font-size="10px" stroke="white" stroke-width="0" text-anchor="middle"><tspan x="0" y="0">Morphine-3-glucuronide</tspan></text></a><a id="cd587" class="PubChem-compound_5360621 Metabolite ChEBI_CHEBI_80581  " transform="translate(693.35 628.59)" color="#00f"  name="Morphine-6-glucuronide"  ><rect id="cd587-icon" class="Icon" transform="matrix(.99187 0 0 .95238 .49593 .47619)" width="122" height="20" rx="15" ry="15" fill="#fff" stroke="#00f"/><text id="cd587-text" class="Text" transform="translate(61,13)" fill="#00f"  font-size="10px" stroke="white" stroke-width="0" text-anchor="middle"><tspan x="0" y="0">Morphine-6-glucuronide</tspan></text></a><a id="dad0a" class="PubChem-compound_5360621 Metabolite ChEBI_CHEBI_80581  " transform="translate(658.81 284.96)" color="#00f"  name="Morphine-6-glucuronide"  ><rect id="dad0a-icon" class="Icon" transform="matrix(.99187 0 0 .95238 .49593 .47619)" width="122" height="20" rx="15" ry="15" fill="#fff" stroke="#00f"/><text id="dad0a-text" class="Text" transform="translate(61,13)" fill="#00f"  font-size="10px" stroke="white" stroke-width="0" text-anchor="middle"><tspan x="0" y="0">Morphine-6-glucuronide</tspan></text></a><a id="e46d4" class="PubChem-compound_9925873 Metabolite ChEBI_CHEBI_80579  " transform="translate(194,312)" color="#00f"  name="Norcodeine"  ><rect id="e46d4-icon" class="Icon" transform="matrix(.98361 0 0 .95238 .4918 .47619)" width="60" height="20" rx="15" ry="15" fill="#fff" stroke="#00f"/><text id="e46d4-text" class="Text" transform="translate(30,13)" fill="#00f"  font-size="10px" stroke="white" stroke-width="0" text-anchor="middle"><tspan x="0" y="0">Norcodeine</tspan></text></a><a id="e9b6a" class="PubChem-compound_5489029 Metabolite ChEBI_CHEBI_80580  " transform="translate(269.4 621.59)" color="#00f"  name="Codeine-6-glucuronide"  ><rect id="e9b6a-icon" class="Icon" transform="matrix(.99213 0 0 .95238 .49606 .47619)" width="126" height="20" rx="15" ry="15" fill="#fff" stroke="#00f"/><text id="e9b6a-text" class="Text" transform="translate(63,13)" fill="#00f"  font-size="10px" stroke="white" stroke-width="0" text-anchor="middle"><tspan x="0" y="0">Codeine-6-glucuronide</tspan></text></a><a  id="f3c5f" class="GeneProduct UGT1A1 " transform="translate(452.01 344.4)"   name="UGT1A1"  ><rect id="f3c5f-icon" class="Icon" transform="matrix(.98305 0 0 .95238 .49153 .47619)" width="58" height="20" rx="15" ry="15" fill="#fff" stroke="#000"/><text id="f3c5f-text" class="Text" transform="translate(29,13)" fill="#000"  font-size="10px" stroke="white" stroke-width="0" text-anchor="middle"><tspan x="0" y="0">UGT1A1</tspan></text></a><g id="f8ef0" class="GeneProduct CYP2D7 " transform="translate(396.4 180.22)" color="#000"  name="CYP2D7P1"><rect id="f8ef0-icon" class="Icon" transform="matrix(.98765 0 0 .95238 .49383 .47619)" width="80" height="20" rx="15" ry="15" fill="#fff" stroke="#000"/><text id="f8ef0-text" class="Text" transform="translate(40,13)" fill="#000"  font-size="10px" stroke="white" stroke-width="0" text-anchor="middle"><tspan x="0" y="0">CYP2D7P1</tspan></text></g><g id="b962e" class="GroupGroup" transform="translate(687.96 156.86)" color="grey" ><use id="b962e-icon" class="Icon" width="74" height="56.554278416347586" fill="transparent"  stroke="grey" stroke-dasharray="5,3" stroke-width="0" xlink:href="#none"/><a  id="c78b0" class="GeneProduct UGT2B7 " transform="translate(8,8)"   name="UGT2B7"  ><rect id="c78b0-icon" class="Icon" transform="matrix(.98305 0 0 .95238 .49153 .47619)" width="58" height="20" rx="15" ry="15" fill="#fff" stroke="#000"/><text id="c78b0-text" class="Text" transform="translate(29,13)" fill="#000"  font-size="10px" stroke="white" stroke-width="0" text-anchor="middle"><tspan x="0" y="0">UGT2B7</tspan></text></a><a  id="ca599" class="GeneProduct UGT1A1 " transform="translate(8 28.554)"   name="UGT1A1"  ><rect id="ca599-icon" class="Icon" transform="matrix(.98305 0 0 .95238 .49153 .47619)" width="58" height="20" rx="15" ry="15" fill="#fff" stroke="#000"/><text id="ca599-text" class="Text" transform="translate(29,13)" fill="#000"  font-size="10px" stroke="white" stroke-width="0" text-anchor="middle"><tspan x="0" y="0">UGT1A1</tspan></text></a></g><g id="dbbd0" class="GroupGroup" transform="translate(400.39 477.62)" color="grey" ><use id="dbbd0-icon" class="Icon" width="79" height="96" fill="transparent"  stroke="grey" stroke-dasharray="5,3" stroke-width="0" xlink:href="#none"/><a  id="c7695" class="GeneProduct SLCO1B1 " transform="translate(8,68)"   name="SLCO1B1"  ><rect id="c7695-icon" class="Icon" transform="matrix(.98438 0 0 .95238 .49219 .47619)" width="63" height="20" rx="15" ry="15" fill="#fff" stroke="#000"/><text id="c7695-text" class="Text" transform="translate(31.5,13)" fill="#000"  font-size="10px" stroke="white" stroke-width="0" text-anchor="middle"><tspan x="0" y="0">SLCO1B1</tspan></text></a><a  id="cf2f5" class="GeneProduct ABCC2 " transform="translate(8,8)"   name="ABCC2"  ><rect id="cf2f5-icon" class="Icon" transform="matrix(.98438 0 0 .95238 .49219 .47619)" width="63" height="20" rx="15" ry="15" fill="#fff" stroke="#000"/><text id="cf2f5-text" class="Text" transform="translate(31.5,13)" fill="#000"  font-size="10px" stroke="white" stroke-width="0" text-anchor="middle"><tspan x="0" y="0">ABCC2</tspan></text></a><a  id="ddbf0" class="GeneProduct ABCB1 " transform="translate(8 48)"   name="ABCB1"  ><rect id="ddbf0-icon" class="Icon" transform="matrix(.98438 0 0 .95238 .49219 .47619)" width="63" height="20" rx="15" ry="15" fill="#fff" stroke="#000"/><text id="ddbf0-text" class="Text" transform="translate(31.5,13)" fill="#000"  font-size="10px" stroke="white" stroke-width="0" text-anchor="middle"><tspan x="0" y="0">ABCB1</tspan></text></a><a  id="fb1c5" class="GeneProduct ABCC3 " transform="translate(8 28)"   name="ABCC3"  ><rect id="fb1c5-icon" class="Icon" transform="matrix(.98438 0 0 .95238 .49219 .47619)" width="63" height="20" rx="15" ry="15" fill="#fff" stroke="#000"/><text id="fb1c5-text" class="Text" transform="translate(31.5,13)" fill="#000"  font-size="10px" stroke="white" stroke-width="0" text-anchor="middle"><tspan x="0" y="0">ABCC3</tspan></text></a></g><g id="bd808" class="GroupGroup" transform="translate(386.03 205.09)" color="grey" ><use id="bd808-icon" class="Icon" width="74" height="56.554278416347586" fill="transparent"  stroke="grey" stroke-dasharray="5,3" stroke-width="0" xlink:href="#none"/><a  id="aaf79" class="Protein CYP3A4 " transform="translate(8,8)"   name="CYP3A4"  ><rect id="aaf79-icon" class="Icon" transform="matrix(.98305 0 0 .95238 .49153 .47619)" width="58" height="20" rx="15" ry="15" fill="#fff" stroke="#000"/><text id="aaf79-text" class="Text" transform="translate(29,13)" fill="#000"  font-size="10px" stroke="white" stroke-width="0" text-anchor="middle"><tspan x="0" y="0">CYP3A4</tspan></text></a><a  id="ae0d5" class="Protein CYP2C8 " transform="translate(8 28.554)"   name="CYP2C8"  ><rect id="ae0d5-icon" class="Icon" transform="matrix(.98305 0 0 .95238 .49153 .47619)" width="58" height="20" rx="15" ry="15" fill="#fff" stroke="#000"/><text id="ae0d5-text" class="Text" transform="translate(29,13)" fill="#000"  font-size="10px" stroke="white" stroke-width="0" text-anchor="middle"><tspan x="0" y="0">CYP2C8</tspan></text></a></g><g id="d7c1a" class="GroupGroup" transform="translate(568.28 275.64)" color="grey" ><use id="d7c1a-icon" class="Icon" width="74" height="116" fill="transparent"  stroke="grey" stroke-dasharray="5,3" stroke-width="0" xlink:href="#none"/><g id="d07ba" class="GeneProduct UGT1A3 " transform="translate(8,8)" color="#000"  name="UGT1A3"><rect id="d07ba-icon" class="Icon" transform="matrix(.98305 0 0 .95238 .49153 .47619)" width="58" height="20" rx="15" ry="15" fill="#fff" stroke="#000"/><text id="d07ba-text" class="Text" transform="translate(29,13)" fill="#000"  font-size="10px" stroke="white" stroke-width="0" text-anchor="middle"><tspan x="0" y="0">UGT1A3</tspan></text></g><a  id="a2799" class="Protein UGT1A6 " transform="translate(8,28)"   name="UGT1A6"  ><rect id="a2799-icon" class="Icon" transform="matrix(.98305 0 0 .95238 .49153 .47619)" width="58" height="20" rx="15" ry="15" fill="#fff" stroke="#000"/><text id="a2799-text" class="Text" transform="translate(29,13)" fill="#000"  font-size="10px" stroke="white" stroke-width="0" text-anchor="middle"><tspan x="0" y="0">UGT1A6</tspan></text></a><a  id="a52da" class="GeneProduct UGT1A8 " transform="translate(8,48)"   name="UGT1A8"  ><rect id="a52da-icon" class="Icon" transform="matrix(.98305 0 0 .95238 .49153 .47619)" width="58" height="20" rx="15" ry="15" fill="#fff" stroke="#000"/><text id="a52da-text" class="Text" transform="translate(29,13)" fill="#000"  font-size="10px" stroke="white" stroke-width="0" text-anchor="middle"><tspan x="0" y="0">UGT1A8</tspan></text></a><a  id="a52f7" class="GeneProduct UGT1A9 " transform="translate(8,68)"   name="UGT1A9"  ><rect id="a52f7-icon" class="Icon" transform="matrix(.98305 0 0 .95238 .49153 .47619)" width="58" height="20" rx="15" ry="15" fill="#fff" stroke="#000"/><text id="a52f7-text" class="Text" transform="translate(29,13)" fill="#000"  font-size="10px" stroke="white" stroke-width="0" text-anchor="middle"><tspan x="0" y="0">UGT1A9</tspan></text></a><a  id="e34cb" class="GeneProduct UGT1A10 " transform="translate(8,88)"   name="UGT1A10"  ><rect id="e34cb-icon" class="Icon" transform="matrix(.98305 0 0 .95238 .49153 .47619)" width="58" height="20" rx="15" ry="15" fill="#fff" stroke="#000"/><text id="e34cb-text" class="Text" transform="translate(29,13)" fill="#000"  font-size="10px" stroke="white" stroke-width="0" text-anchor="middle"><tspan x="0" y="0">UGT1A10</tspan></text></a></g><a  id="f957d" class="Protein UGT2B4 " transform="translate(248.05 261.71)"   name="UGT2B4"  ><rect id="f957d-icon" class="Icon" transform="matrix(.98305 0 0 .95238 .49153 .47619)" width="58" height="20" rx="15" ry="15" fill="#fff" stroke="#000"/><text id="f957d-text" class="Text" transform="translate(29,13)" fill="#000"  font-size="10px" stroke="white" stroke-width="0" text-anchor="middle"><tspan x="0" y="0">UGT2B4</tspan></text></a><text id="WP1604-text" class="Text" transform="translate(5,27)" dominant-baseline="central" fill="black"  font-size="12px" font-weight="bold" overflow="visible" stroke="white" stroke-width="0"><tspan x="0" y="-9">Name: Codeine and morphine metabolism</tspan> <tspan x="0" y="9">Organism: Homo sapiens</tspan></text></g></svg>
