<?xml version="1.0" encoding="UTF-8"?>
<svg xmlns="http://www.w3.org/2000/svg" id="-svg" class="Diagram"  baseProfile="full" prefix="schema:http://schema.org/" preserveAspectRatio="xMidYMid"  version="1.1"><defs><g id="icon-defs"><symbol id="HexagonPathVisio" class=" Icon HexagonPathVisio" x="0" y="8" overflow="visible" preserveAspectRatio="none" viewBox="0 8 100 86"><desc>HexagonPathVisio</desc><g transform="scale(1 0.85)"><path d="m1.42 51.00 21.07-42.14h56.19l21.07 42.14-21.07 42.15h-56.19l-21.07-42.15z" stroke="currentColor" vector-effect="non-scaling-stroke"/></g></symbol><symbol id="Octagon" class=" Icon Octagon" x="0" y="0" overflow="visible" preserveAspectRatio="none" viewBox="0 0 100 100"><desc>Octagon</desc><path d="m0 25 25-25h50l25 25v50l-25 25h-50l-25-25z" vector-effect="non-scaling-stroke"/></symbol></g><g id="marker-defs"><marker id="mea" markerHeight="12" markerWidth="12" orient="auto" preserveAspectRatio="none" refX="12" refY="6" viewBox="0 0 12 12"><g id="g-mea" transform=""><g transform="rotate(180 6 6)"><rect y="5.4" width="2" height="1.2" style="stroke:#fff"/><polygon points="12 11 0 6 12 1" stroke-width="0"/></g></g></marker></g></defs><g id="viewport-20220102140006663" class="svg-pan-zoom_viewport" transform="matrix(0.32 0 0 0.32 437.61 0)" style="transform:matrix(0.32, 0, 0, 0.32, 437.61, 0)"><style>svg.Diagram {font-family: 'Liberation Sans', Arial, sans-serif; }.Diagram path {fill: transparent;stroke: #000;marker-end: url(#mea);}.Diagram symbol path {fill: inherit;stroke: inherit;stroke-width: inherit;marker-end: inherit;}.Diagram rect {fill: #fff;stroke: #000;}.Diagram text {dominant-baseline: central;overflow: hidden;text-anchor: middle;fill: #000;font-size: 10px;}</style><style type="text/css">.Viewport .textContent {
  pointer-events: none;
  stroke-width: 0px;
}

					.Viewport.Icon {
  fill: white;
}

/* Hide the InfoBox */
.Viewport.textContent {
  font-size: 0;
}

.textContent {
  stroke: none;
}

.DataNode {
  stroke-miterlimit: 1;
  pointer-events: auto;
}

.DataNode:hover {
  cursor: pointer;
}

/* TODO should this apply to things other than DataNodes? */
.DataNode.textContent {
  pointer-events: none;
}

.DataNode.Highlighted {
  opacity: 0.6;
  stroke-width: 0px;
}

marker {
  /* this is what should work per the spec
  stroke-dasharray: none; */
  /* but I need to add this to make it work in Safari */
  stroke-dasharray: 9999999999999999999999999;
}

.Citation.Icon {
  fill: none;
  stroke-width: 0px;
}

.Citation.textContent {
  text-align: center;
  vertical-align: top;
  font-size: 7px;
  fill: #999;
  fill-opacity: 1;
  stroke: none;
}</style><g id="WP1874" class="Pathway http___identifiers_org_pw_PW_0000004 http___identifiers_org_pw_PW_0000085 Viewport"  name="Name: Nucleosome assembly Organism: Homo sapiens" ><g class="Pathway http___identifiers_org_pw_PW_0000004 http___identifiers_org_pw_PW_0000085 Viewport"><rect   width="1020" height="2101" style="stroke:none"/><g id="a0163" class="Reactome_R-HSA-606349"  ><path    d="m349 162v67" style="marker-end:none"/><g id="f2ddc" class="AB" transform="translate(349,162)"  ><g class="AB"/></g><g id="f62a0" class="AB" transform="translate(349,228.33)"  ><g class="AB"/></g></g><g id="a3a2d" class="Reactome_R-HSA-606349"  ><path    d="m386 102-37 60" style="marker-end:none"/></g><g id="d7eae" class="Reactome_R-HSA-606349"  ><path    d="m274 90 75 72" style="marker-end:none"/></g><g id="dcdf9" class="Reactome_R-HSA-606287"  ><path    d="m330 782h-102" style="marker-end:none"/><g id="c0b92" class="AB" transform="translate(330,782)"  ><g class="AB"/></g><g id="f5732" class="AB" transform="translate(229.02 782)"  ><g class="AB"/></g></g><g id="ae766" class="Reactome_R-HSA-606287"  ><path    d="m351 738-21 44" style="marker-end:none"/></g><g id="c3a34" class="Reactome_R-HSA-606287"  ><path    d="m365 814-35-32" style="marker-end:none"/></g><g id="a2b46" class="Reactome_R-HSA-606287"  ><path    d="m228 782 3 87"/></g><g id="de241" class="Reactome_R-HSA-606326"  ><path    d="m349 336v58" style="marker-end:none"/><g id="f9d0c" class="AB" transform="translate(349,336)"  ><g class="AB"/></g><g id="dd6a9" class="AB" transform="translate(349,393.42)"  ><g class="AB"/></g></g><g id="a2a0a" class="Reactome_R-HSA-606326"  ><path    d="m349 284v52" style="marker-end:none"/></g><g id="b91e4" class="Reactome_R-HSA-606326"  ><path    d="m349 394 1 3"/></g><g id="e0b53" class="Reactome_R-HSA-606289"  ><path    d="m350 536 1 129" style="marker-end:none"/><g id="afd8d" class="AB" transform="translate(350,536)"  ><g class="AB"/></g><g id="ee28e" class="AB" transform="translate(350.99,663.71)"  ><g class="AB"/></g></g><g id="bbafc" class="Reactome_R-HSA-606289"  ><path    d="m402 579-52-43" style="marker-end:none"/></g><g id="c71d5" class="Reactome_R-HSA-606289"  ><path    d="m422 503-72 33" style="marker-end:none"/></g><g id="e1ad1" class="Reactome_R-HSA-606326"  ><path    d="m388 336h-39" style="marker-end:none"/></g><g id="eba17" class="Reactome_R-HSA-606349"  ><path    d="m349 229v3"/></g><g id="ef3fd" class="Reactome_R-HSA-606287"  ><path    d="m228 782 1-673"/></g><g id="f3e23" class="Reactome_R-HSA-606289"  ><path    d="m351 665v3"/></g><g id="f6de2" class="Reactome_R-HSA-606287"  ><path    d="m228 782-75-41"/></g><g id="fd004" class="Reactome_R-HSA-606289"  ><path    d="m350 465v71" style="marker-end:none"/></g><g id="a34bd" class="Complex Reactome_R-HSA-606319" transform="translate(388,306)"  name="HJURP:NPM1:RBBP4:RBBP7:RUVBL1:CENPA:H4" ><g class="Complex Reactome_R-HSA-606319"><use class="Complex Reactome_R-HSA-606319 Node Icon" width="98" height="61" fill="#fff" stroke="#a52a2a" href="#HexagonPathVisio"/></g><g ><defs><clipPath ><rect x="-49" y="-30.5" width="98" height="61" style="stroke:none"/></clipPath></defs><text   transform="translate(49,30.5)"     style="fill:#a52a2a">HJURP:NPM1:RBBP4:RBBP7:RUVBL1:CENPA:H4</text></g></g><g id="a4945" class="Complex Reactome_R-HSA-606323" transform="translate(164,869)"  name="CCAN:DNA:CASC5:Centromeric nucleosome:RSF complex" ><g class="Complex Reactome_R-HSA-606323"><use class="Complex Reactome_R-HSA-606323 Node Icon" width="134" height="84" fill="#fff" stroke="#a52a2a" href="#HexagonPathVisio"/></g><g ><defs><clipPath ><rect x="-67" y="-42" width="134" height="84" style="stroke:none"/></clipPath></defs><text   transform="translate(67,42)"     style="fill:#a52a2a">CCAN:DNA:CASC5:Centromeric nucleosome:RSF complex</text></g></g><g id="b1696" class="Complex Reactome_R-HSA-606340" transform="translate(386,76)"  name="CCAN:DNA:CASC5" ><g class="Complex Reactome_R-HSA-606340"><use class="Complex Reactome_R-HSA-606340 Node Icon" width="130" height="53" fill="#fff" stroke="#a52a2a" href="#HexagonPathVisio"/></g><g ><defs><clipPath ><rect x="-65" y="-26.5" width="130" height="53" style="stroke:none"/></clipPath></defs><text   transform="translate(65,26.5)"     style="fill:#a52a2a">CCAN:DNA:CASC5</text></g></g><g id="bd12d" class="Complex Reactome_R-HSA-606288" transform="translate(323,814)"  name="RSF Complex" ><g class="Complex Reactome_R-HSA-606288"><use class="Complex Reactome_R-HSA-606288 Node Icon" width="84" height="38" fill="#fff" stroke="#a52a2a" href="#HexagonPathVisio"/></g><g ><defs><clipPath ><rect x="-42" y="-19" width="84" height="38" style="stroke:none"/></clipPath></defs><text   transform="translate(42,19)"     style="fill:#a52a2a">RSF Complex</text></g></g><g id="cb019" class="Complex Reactome_R-HSA-606342" transform="translate(284,232)"  name="CCAN:DNA:CASC5:Mis18 complex" ><g class="Complex Reactome_R-HSA-606342"><use class="Complex Reactome_R-HSA-606342 Node Icon" width="130" height="53" fill="#fff" stroke="#a52a2a" href="#HexagonPathVisio"/></g><g ><defs><clipPath ><rect x="-65" y="-26.5" width="130" height="53" style="stroke:none"/></clipPath></defs><text   transform="translate(65,26.5)"     style="fill:#a52a2a"><tspan   x="0" y="-5.5">CCAN:DNA:CASC5:Mis18</tspan><tspan   x="0" y="5.5">complex</tspan></text></g></g><g id="cc8bc" class="Complex Reactome_R-HSA-606330" transform="translate(29,716)"  name="HJURP:NPM1:RBBP4:RBBP7:RUVBL1" ><g class="Complex Reactome_R-HSA-606330"><use class="Complex Reactome_R-HSA-606330 Node Icon" width="125" height="50" fill="#fff" stroke="#a52a2a" href="#HexagonPathVisio"/></g><g ><defs><clipPath ><rect x="-62.5" y="-25" width="125" height="50" style="stroke:none"/></clipPath></defs><text   transform="translate(62.5,25)"     style="fill:#a52a2a">HJURP:NPM1:RBBP4:RBBP7:RUVBL1</text></g></g><g id="d44ee" class="Complex Reactome_R-HSA-181899" transform="translate(422,484)"  name="Histone H2A" ><g class="Complex Reactome_R-HSA-181899"><rect   width="78" height="38" rx="15" ry="15" style="stroke:#a52a2a"/></g><g ><defs><clipPath ><rect x="-39" y="-19" width="78" height="38" style="stroke:none"/></clipPath></defs><text   transform="translate(39,19)"     style="fill:#a52a2a">Histone H2A</text></g></g><g id="d7e7f" class="Complex Reactome_R-HSA-181911" transform="translate(402,560)"  name="Histone H2B" ><g class="Complex Reactome_R-HSA-181911"><rect   width="78" height="38" rx="15" ry="15" style="stroke:#a52a2a"/></g><g ><defs><clipPath ><rect x="-39" y="-19" width="78" height="38" style="stroke:none"/></clipPath></defs><text   transform="translate(39,19)"     style="fill:#a52a2a">Histone H2B</text></g></g><g id="d8ee8" class="Complex Reactome_R-HSA-606328" transform="translate(286,668)"  name="CCAN:DNA:CASC5:Mis18 complex:HJURP complex:CENPA nucleosome" ><g class="Complex Reactome_R-HSA-606328"><use class="Complex Reactome_R-HSA-606328 Node Icon" width="131" height="71" fill="#fff" stroke="#a52a2a" href="#HexagonPathVisio"/></g><g ><defs><clipPath ><rect x="-65.5" y="-35.5" width="131" height="71" style="stroke:none"/></clipPath></defs><text   transform="translate(65.5,35.5)"     style="fill:#a52a2a"><tspan   x="0" y="-16.5">CCAN:DNA:CASC5:Mis18</tspan><tspan   x="0" y="-5.5">complex:HJURP</tspan><tspan   x="0" y="5.5">complex:CENPA</tspan><tspan   x="0" y="16.5">nucleosome</tspan></text></g></g><g id="f2bd4" class="Complex Reactome_R-HSA-606346" transform="translate(184,71)"  name="Mis18 Complex" ><g class="Complex Reactome_R-HSA-606346"><use class="Complex Reactome_R-HSA-606346 Node Icon" width="90" height="38" fill="#fff" stroke="#a52a2a" href="#HexagonPathVisio"/></g><g ><defs><clipPath ><rect x="-45" y="-19" width="90" height="38" style="stroke:none"/></clipPath></defs><text   transform="translate(45,19)"     style="fill:#a52a2a">Mis18 Complex</text></g></g><g id="f6dc3" class="Complex Reactome_R-HSA-606282" transform="translate(285,397)"  name="CCAN:DNA:CASC5:Mis18 complex:HJURP complex:CENPA:H4" ><g class="Complex Reactome_R-HSA-606282"><use class="Complex Reactome_R-HSA-606282 Node Icon" width="130" height="68" fill="#fff" stroke="#a52a2a" href="#HexagonPathVisio"/></g><g ><defs><clipPath ><rect x="-65" y="-34" width="130" height="68" style="stroke:none"/></clipPath></defs><text   transform="translate(65,34)"     style="fill:#a52a2a"><tspan   x="0" y="-11">CCAN:DNA:CASC5:Mis18</tspan><tspan   x="0" y="0">complex:HJURP</tspan><tspan   x="0" y="11">complex:CENPA:H4</tspan></text></g></g><g id="a3b59" class="GroupComplex" transform="translate(318,1179)"  ><g class="GroupComplex"><use class="Icon" width="124" height="584" fill="#b4b464" fill-opacity=".1" stroke="grey" href="#Octagon"/><g id="a0b5b" class="Protein" transform="translate(12,312)"  name="ITGB3BP" ><rect   width="100" height="20"/><text   transform="translate(50,10)"    >ITGB3BP</text></g><g id="a9218" class="Protein" transform="translate(12,372)"  name="MIS18BP1" ><rect   width="100" height="20"/><text   transform="translate(50,10)"    >MIS18BP1</text></g><g id="aaf45" class="Protein" transform="translate(12,452)"  name="NPM1" ><rect   width="100" height="20"/><text   transform="translate(50,10)"    >NPM1</text></g><g id="ab583" class="Protein" transform="translate(12,292)"  name="CENPW" ><rect   width="100" height="20"/><text   transform="translate(50,10)"    >CENPW</text></g><g id="b39b9" class="Protein" transform="translate(12,492)"  name="RBBP4" ><rect   width="100" height="20"/><text   transform="translate(50,10)"    >RBBP4</text></g><g id="b665b" class="Protein" transform="translate(12,512)"  name="CENPA" ><rect   width="100" height="20"/><text   transform="translate(50,10)"    >CENPA</text></g><g id="b95d2" class="Protein" transform="translate(12,392)"  name="MIS18A" ><rect   width="100" height="20"/><text   transform="translate(50,10)"    >MIS18A</text></g><g id="c2c29" class="Protein" transform="translate(12,252)"  name="CENPQ" ><rect   width="100" height="20"/><text   transform="translate(50,10)"    >CENPQ</text></g><g id="ca1fe" class="Protein" transform="translate(12,72)"  name="CENPC" ><rect   width="100" height="20"/><text   transform="translate(50,10)"    >CENPC</text></g><g id="ca7be" class="Protein" transform="translate(12,232)"  name="CENPP" ><rect   width="100" height="20"/><text   transform="translate(50,10)"    >CENPP</text></g><g id="cd787" class="Protein" transform="translate(12,112)"  name="CENPI" ><rect   width="100" height="20"/><text   transform="translate(50,10)"    >CENPI</text></g><g id="d026f" class="Protein" transform="translate(12,192)"  name="CENPN" ><rect   width="100" height="20"/><text   transform="translate(50,10)"    >CENPN</text></g><g id="d15eb" class="Protein" transform="translate(12,552)"  name="RBBP7" ><rect   width="100" height="20"/><text   transform="translate(50,10)"    >RBBP7</text></g><g id="d4066" class="Protein" transform="translate(12,472)"  name="RUVBL1" ><rect   width="100" height="20"/><text   transform="translate(50,10)"    >RUVBL1</text></g><g id="d9af2" class="Protein" transform="translate(12,432)"  name="HJURP" ><rect   width="100" height="20"/><text   transform="translate(50,10)"    >HJURP</text></g><g id="d9fcc" class="Protein" transform="translate(12,92)"  name="CENPH" ><rect   width="100" height="20"/><text   transform="translate(50,10)"    >CENPH</text></g><g id="db32f" class="Protein" transform="translate(12,152)"  name="CENPL" ><rect   width="100" height="20"/><text   transform="translate(50,10)"    >CENPL</text></g><g id="e0f97" class="Protein" transform="translate(12,412)"  name="OIP5" ><rect   width="100" height="20"/><text   transform="translate(50,10)"    >OIP5</text></g><g id="e2592" class="Protein" transform="translate(12,52)"  name="APITD1" ><rect   width="100" height="20"/><text   transform="translate(50,10)"    >APITD1</text></g><g id="e4be4" class="Protein" transform="translate(12,332)"  name="MLF1IP" ><rect   width="100" height="20"/><text   transform="translate(50,10)"    >MLF1IP</text></g><g id="e54c0" class="Protein" transform="translate(12,172)"  name="CENPM" ><rect   width="100" height="20"/><text   transform="translate(50,10)"    >CENPM</text></g><g id="e60a0" class="Unknown Reactome_R-ALL-29428" transform="translate(12,32)"  name="DNA" ><rect   width="100" height="20"/><text   transform="translate(50,10)"    >DNA</text></g><g id="f43a1" class="Protein" transform="translate(12,212)"  name="CENPO" ><rect   width="100" height="20"/><text   transform="translate(50,10)"    >CENPO</text></g><g id="f5980" class="Protein" transform="translate(12,352)"  name="STRA13" ><rect   width="100" height="20"/><text   transform="translate(50,10)"    >STRA13</text></g><g id="f8531" class="Protein" transform="translate(12,272)"  name="CENPT" ><rect   width="100" height="20"/><text   transform="translate(50,10)"    >CENPT</text></g><g id="fb068" class="Protein" transform="translate(12,532)"  name="HIST1H4" ><rect   width="100" height="20"/><text   transform="translate(50,10)"    >HIST1H4</text></g><g id="fcbed" class="Protein" transform="translate(12,132)"  name="CENPK" ><rect   width="100" height="20"/><text   transform="translate(50,10)"    >CENPK</text></g><g id="ff092" class="Protein" transform="translate(12,12)"  name="CASC5" ><rect   width="100" height="20"/><text   transform="translate(50,10)"    >CASC5</text></g></g></g><g id="a412e" class="GroupComplex" transform="translate(878,999)"  ><g class="GroupComplex"><use class="Icon" width="124" height="124" fill="#b4b464" fill-opacity=".1" stroke="grey" href="#Octagon"/><g id="a5de1" class="Protein" transform="translate(12,12)"  name="HJURP" ><rect   width="100" height="20"/><text   transform="translate(50,10)"    >HJURP</text></g><g id="ce659" class="Protein" transform="translate(12,92)"  name="RBBP7" ><rect   width="100" height="20"/><text   transform="translate(50,10)"    >RBBP7</text></g><g id="de828" class="Protein" transform="translate(12,32)"  name="NPM1" ><rect   width="100" height="20"/><text   transform="translate(50,10)"    >NPM1</text></g><g id="ed6f3" class="Protein" transform="translate(12,52)"  name="RUVBL1" ><rect   width="100" height="20"/><text   transform="translate(50,10)"    >RUVBL1</text></g><g id="f5f4c" class="Protein" transform="translate(12,72)"  name="RBBP4" ><rect   width="100" height="20"/><text   transform="translate(50,10)"    >RBBP4</text></g></g></g><g id="a6bb4" class="GroupComplex" transform="translate(38,959)"  ><g class="GroupComplex"><use class="Icon" width="124" height="84" fill="#b4b464" fill-opacity=".1" stroke="grey" href="#Octagon"/><g id="e43ab" class="Protein" transform="translate(12,32)"  name="MIS18A" ><rect   width="100" height="20"/><text   transform="translate(50,10)"    >MIS18A</text></g><g id="ed959" class="Protein" transform="translate(12,12)"  name="MIS18BP1" ><rect   width="100" height="20"/><text   transform="translate(50,10)"    >MIS18BP1</text></g><g id="f3948" class="Protein" transform="translate(12,52)"  name="OIP5" ><rect   width="100" height="20"/><text   transform="translate(50,10)"    >OIP5</text></g></g></g><g id="b4b83" class="GroupComplex" transform="translate(178,999)"  ><g class="GroupComplex"><use class="Icon" width="124" height="444" fill="#b4b464" fill-opacity=".1" stroke="grey" href="#Octagon"/><g id="ab158" class="Protein" transform="translate(12,12)"  name="CASC5" ><rect   width="100" height="20"/><text   transform="translate(50,10)"    >CASC5</text></g><g id="ae2d3" class="Protein" transform="translate(12,232)"  name="CENPP" ><rect   width="100" height="20"/><text   transform="translate(50,10)"    >CENPP</text></g><g id="b3665" class="Protein" transform="translate(12,412)"  name="OIP5" ><rect   width="100" height="20"/><text   transform="translate(50,10)"    >OIP5</text></g><g id="b7ec8" class="Protein" transform="translate(12,92)"  name="CENPH" ><rect   width="100" height="20"/><text   transform="translate(50,10)"    >CENPH</text></g><g id="be4ef" class="Protein" transform="translate(12,332)"  name="MLF1IP" ><rect   width="100" height="20"/><text   transform="translate(50,10)"    >MLF1IP</text></g><g id="c3793" class="Protein" transform="translate(12,132)"  name="CENPK" ><rect   width="100" height="20"/><text   transform="translate(50,10)"    >CENPK</text></g><g id="c6ea7" class="Protein" transform="translate(12,352)"  name="STRA13" ><rect   width="100" height="20"/><text   transform="translate(50,10)"    >STRA13</text></g><g id="c75c9" class="Protein" transform="translate(12,172)"  name="CENPM" ><rect   width="100" height="20"/><text   transform="translate(50,10)"    >CENPM</text></g><g id="cab11" class="Protein" transform="translate(12,192)"  name="CENPN" ><rect   width="100" height="20"/><text   transform="translate(50,10)"    >CENPN</text></g><g id="d7621" class="Protein" transform="translate(12,312)"  name="ITGB3BP" ><rect   width="100" height="20"/><text   transform="translate(50,10)"    >ITGB3BP</text></g><g id="df236" class="Protein" transform="translate(12,52)"  name="APITD1" ><rect   width="100" height="20"/><text   transform="translate(50,10)"    >APITD1</text></g><g id="e627f" class="Protein" transform="translate(12,152)"  name="CENPL" ><rect   width="100" height="20"/><text   transform="translate(50,10)"    >CENPL</text></g><g id="e9772" class="Protein" transform="translate(12,112)"  name="CENPI" ><rect   width="100" height="20"/><text   transform="translate(50,10)"    >CENPI</text></g><g id="e9a4b" class="Protein" transform="translate(12,272)"  name="CENPT" ><rect   width="100" height="20"/><text   transform="translate(50,10)"    >CENPT</text></g><g id="ec6c1" class="Protein" transform="translate(12,292)"  name="CENPW" ><rect   width="100" height="20"/><text   transform="translate(50,10)"    >CENPW</text></g><g id="edaa1" class="Protein" transform="translate(12,392)"  name="MIS18A" ><rect   width="100" height="20"/><text   transform="translate(50,10)"    >MIS18A</text></g><g id="f43a0" class="Protein" transform="translate(12,212)"  name="CENPO" ><rect   width="100" height="20"/><text   transform="translate(50,10)"    >CENPO</text></g><g id="f54be" class="Protein" transform="translate(12,252)"  name="CENPQ" ><rect   width="100" height="20"/><text   transform="translate(50,10)"    >CENPQ</text></g><g id="f7ed2" class="Protein" transform="translate(12,72)"  name="CENPC" ><rect   width="100" height="20"/><text   transform="translate(50,10)"    >CENPC</text></g><g id="fb44a" class="Protein" transform="translate(12,372)"  name="MIS18BP1" ><rect   width="100" height="20"/><text   transform="translate(50,10)"    >MIS18BP1</text></g><g id="fee85" class="Unknown Reactome_R-ALL-29428" transform="translate(12,32)"  name="DNA" ><rect   width="100" height="20"/><text   transform="translate(50,10)"    >DNA</text></g></g></g><g id="b6614" class="GroupComplex" transform="translate(458,1079)"  ><g class="GroupComplex"><use class="Icon" width="124" height="964" fill="#b4b464" fill-opacity=".1" stroke="grey" href="#Octagon"/><g id="a1abf" class="Protein" transform="translate(12,392)"  name="STRA13" ><rect   width="100" height="20"/><text   transform="translate(50,10)"    >STRA13</text></g><g id="a2df7" class="Protein" transform="translate(12,272)"  name="CENPP" ><rect   width="100" height="20"/><text   transform="translate(50,10)"    >CENPP</text></g><g id="aadc5" class="Protein" transform="translate(12,632)"  name="H2AFX" ><rect   width="100" height="20"/><text   transform="translate(50,10)"    >H2AFX</text></g><g id="aca4d" class="Protein" transform="translate(12,412)"  name="CENPA" ><rect   width="100" height="20"/><text   transform="translate(50,10)"    >CENPA</text></g><g id="adb45" class="Protein" transform="translate(12,672)"  name="HIST1H2BK" ><rect   width="100" height="20"/><text   transform="translate(50,10)"    >HIST1H2BK</text></g><g id="ae794" class="Protein" transform="translate(12,932)"  name="H2BFS" ><rect   width="100" height="20"/><text   transform="translate(50,10)"    >H2BFS</text></g><g id="b20a6" class="Protein" transform="translate(12,772)"  name="HIST1H2BL" ><rect   width="100" height="20"/><text   transform="translate(50,10)"    >HIST1H2BL</text></g><g id="b9f6b" class="Protein" transform="translate(12,372)"  name="MLF1IP" ><rect   width="100" height="20"/><text   transform="translate(50,10)"    >MLF1IP</text></g><g id="bade8" class="Protein" transform="translate(12,852)"  name="HIST1H2BH" ><rect   width="100" height="20"/><text   transform="translate(50,10)"    >HIST1H2BH</text></g><g id="bc17a" class="Protein" transform="translate(12,352)"  name="ITGB3BP" ><rect   width="100" height="20"/><text   transform="translate(50,10)"    >ITGB3BP</text></g><g id="c2615" class="Protein" transform="translate(12,12)"  name="RSF1" ><rect   width="100" height="20"/><text   transform="translate(50,10)"    >RSF1</text></g><g id="c303d" class="Protein" transform="translate(12,912)"  name="HIST1H2BJ" ><rect   width="100" height="20"/><text   transform="translate(50,10)"    >HIST1H2BJ</text></g><g id="c4e27" class="Protein" transform="translate(12,112)"  name="CENPC" ><rect   width="100" height="20"/><text   transform="translate(50,10)"    >CENPC</text></g><g id="c5618" class="Protein" transform="translate(12,712)"  name="HIST1H2BA" ><rect   width="100" height="20"/><text   transform="translate(50,10)"    >HIST1H2BA</text></g><g id="c61b6" class="Protein" transform="translate(12,332)"  name="CENPW" ><rect   width="100" height="20"/><text   transform="translate(50,10)"    >CENPW</text></g><g id="ca895" class="Protein" transform="translate(12,172)"  name="CENPK" ><rect   width="100" height="20"/><text   transform="translate(50,10)"    >CENPK</text></g><g id="cbc83" class="Protein" transform="translate(12,252)"  name="CENPO" ><rect   width="100" height="20"/><text   transform="translate(50,10)"    >CENPO</text></g><g id="d0076" class="Protein" transform="translate(12,512)"  name="HIST1H2AD" ><rect   width="100" height="20"/><text   transform="translate(50,10)"    >HIST1H2AD</text></g><g id="d04de" class="Protein" transform="translate(12,452)"  name="H2AFB1" ><rect   width="100" height="20"/><text   transform="translate(50,10)"    >H2AFB1</text></g><g id="d1458" class="Protein" transform="translate(12,652)"  name="H2AFZ" ><rect   width="100" height="20"/><text   transform="translate(50,10)"    >H2AFZ</text></g><g id="d1cdd" class="Protein" transform="translate(12,92)"  name="APITD1" ><rect   width="100" height="20"/><text   transform="translate(50,10)"    >APITD1</text></g><g id="d3660" class="Protein" transform="translate(12,232)"  name="CENPN" ><rect   width="100" height="20"/><text   transform="translate(50,10)"    >CENPN</text></g><g id="d6a25" class="Protein" transform="translate(12,892)"  name="HIST2H2BE" ><rect   width="100" height="20"/><text   transform="translate(50,10)"    >HIST2H2BE</text></g><g id="d9231" class="Protein" transform="translate(12,572)"  name="HIST2H2AC" ><rect   width="100" height="20"/><text   transform="translate(50,10)"    >HIST2H2AC</text></g><g id="d97fa" class="Protein" transform="translate(12,492)"  name="HIST1H2AJ" ><rect   width="100" height="20"/><text   transform="translate(50,10)"    >HIST1H2AJ</text></g><g id="d9fa6" class="Protein" transform="translate(12,872)"  name="HIST1H2BO" ><rect   width="100" height="20"/><text   transform="translate(50,10)"    >HIST1H2BO</text></g><g id="dd2fa" class="Protein" transform="translate(12,152)"  name="CENPI" ><rect   width="100" height="20"/><text   transform="translate(50,10)"    >CENPI</text></g><g id="dd74b" class="Protein" transform="translate(12,732)"  name="HIST1H2BC" ><rect   width="100" height="20"/><text   transform="translate(50,10)"    >HIST1H2BC</text></g><g id="deeab" class="Protein" transform="translate(12,212)"  name="CENPM" ><rect   width="100" height="20"/><text   transform="translate(50,10)"    >CENPM</text></g><g id="df9d8" class="Protein" transform="translate(12,32)"  name="SMARCA5" ><rect   width="100" height="20"/><text   transform="translate(50,10)"    >SMARCA5</text></g><g id="dfc2e" class="Protein" transform="translate(12,812)"  name="HIST1H2BM" ><rect   width="100" height="20"/><text   transform="translate(50,10)"    >HIST1H2BM</text></g><g id="e2748" class="Protein" transform="translate(12,532)"  name="HIST1H2AC" ><rect   width="100" height="20"/><text   transform="translate(50,10)"    >HIST1H2AC</text></g><g id="e2f7f" class="Protein" transform="translate(12,52)"  name="CASC5" ><rect   width="100" height="20"/><text   transform="translate(50,10)"    >CASC5</text></g><g id="e5fda" class="Protein" transform="translate(12,792)"  name="HIST1H2BN" ><rect   width="100" height="20"/><text   transform="translate(50,10)"    >HIST1H2BN</text></g><g id="e6482" class="Protein" transform="translate(12,752)"  name="HIST1H2BD" ><rect   width="100" height="20"/><text   transform="translate(50,10)"    >HIST1H2BD</text></g><g id="e6514" class="Protein" transform="translate(12,612)"  name="H2AFV" ><rect   width="100" height="20"/><text   transform="translate(50,10)"    >H2AFV</text></g><g id="e82fd" class="Protein" transform="translate(12,132)"  name="CENPH" ><rect   width="100" height="20"/><text   transform="translate(50,10)"    >CENPH</text></g><g id="eaa58" class="Protein" transform="translate(12,832)"  name="HIST1H2BB" ><rect   width="100" height="20"/><text   transform="translate(50,10)"    >HIST1H2BB</text></g><g id="ed459" class="Protein" transform="translate(12,312)"  name="CENPT" ><rect   width="100" height="20"/><text   transform="translate(50,10)"    >CENPT</text></g><g id="ede16" class="Unknown Reactome_R-ALL-29428" transform="translate(12,72)"  name="DNA" ><rect   width="100" height="20"/><text   transform="translate(50,10)"    >DNA</text></g><g id="ee590" class="Protein" transform="translate(12,552)"  name="HIST2H2AA3" ><rect   width="100" height="20"/><text   transform="translate(50,10)"    >HIST2H2AA3</text></g><g id="f068d" class="Protein" transform="translate(12,472)"  name="HIST1H2AB" ><rect   width="100" height="20"/><text   transform="translate(50,10)"    >HIST1H2AB</text></g><g id="f2344" class="Protein" transform="translate(12,692)"  name="HIST3H2BB" ><rect   width="100" height="20"/><text   transform="translate(50,10)"    >HIST3H2BB</text></g><g id="f5b17" class="Protein" transform="translate(12,292)"  name="CENPQ" ><rect   width="100" height="20"/><text   transform="translate(50,10)"    >CENPQ</text></g><g id="fa6b4" class="Protein" transform="translate(12,192)"  name="CENPL" ><rect   width="100" height="20"/><text   transform="translate(50,10)"    >CENPL</text></g><g id="fcf00" class="Protein" transform="translate(12,592)"  name="H2AFJ" ><rect   width="100" height="20"/><text   transform="translate(50,10)"    >H2AFJ</text></g><g id="fea1e" class="Protein" transform="translate(12,432)"  name="HIST1H4" ><rect   width="100" height="20"/><text   transform="translate(50,10)"    >HIST1H4</text></g></g></g><g id="cf8aa" class="GroupComplex" transform="translate(318,999)"  ><g class="GroupComplex"><use class="Icon" width="124" height="164" fill="#b4b464" fill-opacity=".1" stroke="grey" href="#Octagon"/><g id="b1984" class="Protein" transform="translate(12,132)"  name="RBBP7" ><rect   width="100" height="20"/><text   transform="translate(50,10)"    >RBBP7</text></g><g id="c98ba" class="Protein" transform="translate(12,52)"  name="RUVBL1" ><rect   width="100" height="20"/><text   transform="translate(50,10)"    >RUVBL1</text></g><g id="d6c75" class="Protein" transform="translate(12,92)"  name="CENPA" ><rect   width="100" height="20"/><text   transform="translate(50,10)"    >CENPA</text></g><g id="dc692" class="Protein" transform="translate(12,72)"  name="RBBP4" ><rect   width="100" height="20"/><text   transform="translate(50,10)"    >RBBP4</text></g><g id="e719f" class="Protein" transform="translate(12,32)"  name="NPM1" ><rect   width="100" height="20"/><text   transform="translate(50,10)"    >NPM1</text></g><g id="e9174" class="Protein" transform="translate(12,112)"  name="HIST1H4" ><rect   width="100" height="20"/><text   transform="translate(50,10)"    >HIST1H4</text></g><g id="f2fe5" class="Protein" transform="translate(12,12)"  name="HJURP" ><rect   width="100" height="20"/><text   transform="translate(50,10)"    >HJURP</text></g></g></g><g id="e2957" class="GroupNone" transform="translate(601,1002)"  ><g class="GroupNone"><rect   width="118" height="238" fill-opacity=".1" stroke-dasharray="5,3" style="fill:#b4b464;stroke:grey"/><g id="a2337" class="Protein" transform="translate(9,29)"  name="HIST1H2AB" ><rect   width="100" height="20"/><text   transform="translate(50,10)"    >HIST1H2AB</text></g><g id="a612e" class="Protein" transform="translate(9,149)"  name="H2AFJ" ><rect   width="100" height="20"/><text   transform="translate(50,10)"    >H2AFJ</text></g><g id="b7514" class="Protein" transform="translate(9,89)"  name="HIST1H2AC" ><rect   width="100" height="20"/><text   transform="translate(50,10)"    >HIST1H2AC</text></g><g id="b8183" class="Protein" transform="translate(9,189)"  name="H2AFX" ><rect   width="100" height="20"/><text   transform="translate(50,10)"    >H2AFX</text></g><g id="bbf23" class="Protein" transform="translate(9,109)"  name="HIST2H2AA3" ><rect   width="100" height="20"/><text   transform="translate(50,10)"    >HIST2H2AA3</text></g><g id="c5369" class="Protein" transform="translate(9,9)"  name="H2AFB1" ><rect   width="100" height="20"/><text   transform="translate(50,10)"    >H2AFB1</text></g><g id="db276" class="Protein" transform="translate(9,209)"  name="H2AFZ" ><rect   width="100" height="20"/><text   transform="translate(50,10)"    >H2AFZ</text></g><g id="e14f7" class="Protein" transform="translate(9,169)"  name="H2AFV" ><rect   width="100" height="20"/><text   transform="translate(50,10)"    >H2AFV</text></g><g id="e5a2f" class="Protein" transform="translate(9,49)"  name="HIST1H2AJ" ><rect   width="100" height="20"/><text   transform="translate(50,10)"    >HIST1H2AJ</text></g><g id="e83c1" class="Protein" transform="translate(9,129)"  name="HIST2H2AC" ><rect   width="100" height="20"/><text   transform="translate(50,10)"    >HIST2H2AC</text></g><g id="e8979" class="Protein" transform="translate(9,69)"  name="HIST1H2AD" ><rect   width="100" height="20"/><text   transform="translate(50,10)"    >HIST1H2AD</text></g></g></g><g id="e6f13" class="GroupNone" transform="translate(601,1262)"  ><g class="GroupNone"><rect   width="118" height="298" fill-opacity=".1" stroke-dasharray="5,3" style="fill:#b4b464;stroke:grey"/><g id="a82f4" class="Protein" transform="translate(9,229)"  name="HIST2H2BE" ><rect   width="100" height="20"/><text   transform="translate(50,10)"    >HIST2H2BE</text></g><g id="a9d91" class="Protein" transform="translate(9,49)"  name="HIST1H2BA" ><rect   width="100" height="20"/><text   transform="translate(50,10)"    >HIST1H2BA</text></g><g id="aa017" class="Protein" transform="translate(9,9)"  name="HIST1H2BK" ><rect   width="100" height="20"/><text   transform="translate(50,10)"    >HIST1H2BK</text></g><g id="b08bd" class="Protein" transform="translate(9,209)"  name="HIST1H2BO" ><rect   width="100" height="20"/><text   transform="translate(50,10)"    >HIST1H2BO</text></g><g id="b4aab" class="Protein" transform="translate(9,129)"  name="HIST1H2BN" ><rect   width="100" height="20"/><text   transform="translate(50,10)"    >HIST1H2BN</text></g><g id="ba06a" class="Protein" transform="translate(9,249)"  name="HIST1H2BJ" ><rect   width="100" height="20"/><text   transform="translate(50,10)"    >HIST1H2BJ</text></g><g id="bd1bf" class="Protein" transform="translate(9,269)"  name="H2BFS" ><rect   width="100" height="20"/><text   transform="translate(50,10)"    >H2BFS</text></g><g id="c849e" class="Protein" transform="translate(9,149)"  name="HIST1H2BM" ><rect   width="100" height="20"/><text   transform="translate(50,10)"    >HIST1H2BM</text></g><g id="d4cdd" class="Protein" transform="translate(9,169)"  name="HIST1H2BB" ><rect   width="100" height="20"/><text   transform="translate(50,10)"    >HIST1H2BB</text></g><g id="eb2d8" class="Protein" transform="translate(9,29)"  name="HIST3H2BB" ><rect   width="100" height="20"/><text   transform="translate(50,10)"    >HIST3H2BB</text></g><g id="eb490" class="Protein" transform="translate(9,189)"  name="HIST1H2BH" ><rect   width="100" height="20"/><text   transform="translate(50,10)"    >HIST1H2BH</text></g><g id="f14e5" class="Protein" transform="translate(9,69)"  name="HIST1H2BC" ><rect   width="100" height="20"/><text   transform="translate(50,10)"    >HIST1H2BC</text></g><g id="f2254" class="Protein" transform="translate(9,89)"  name="HIST1H2BD" ><rect   width="100" height="20"/><text   transform="translate(50,10)"    >HIST1H2BD</text></g><g id="f844f" class="Protein" transform="translate(9,109)"  name="HIST1H2BL" ><rect   width="100" height="20"/><text   transform="translate(50,10)"    >HIST1H2BL</text></g></g></g><g id="e7015" class="GroupComplex" transform="translate(38,1059)"  ><g class="GroupComplex"><use class="Icon" width="124" height="384" fill="#b4b464" fill-opacity=".1" stroke="grey" href="#Octagon"/><g id="a8107" class="Protein" transform="translate(12,12)"  name="CASC5" ><rect   width="100" height="20"/><text   transform="translate(50,10)"    >CASC5</text></g><g id="b0056" class="Protein" transform="translate(12,72)"  name="CENPC" ><rect   width="100" height="20"/><text   transform="translate(50,10)"    >CENPC</text></g><g id="b0256" class="Protein" transform="translate(12,52)"  name="APITD1" ><rect   width="100" height="20"/><text   transform="translate(50,10)"    >APITD1</text></g><g id="b52d2" class="Protein" transform="translate(12,152)"  name="CENPL" ><rect   width="100" height="20"/><text   transform="translate(50,10)"    >CENPL</text></g><g id="ba660" class="Protein" transform="translate(12,112)"  name="CENPI" ><rect   width="100" height="20"/><text   transform="translate(50,10)"    >CENPI</text></g><g id="c4065" class="Protein" transform="translate(12,292)"  name="CENPW" ><rect   width="100" height="20"/><text   transform="translate(50,10)"    >CENPW</text></g><g id="c5266" class="Protein" transform="translate(12,212)"  name="CENPO" ><rect   width="100" height="20"/><text   transform="translate(50,10)"    >CENPO</text></g><g id="cf02b" class="Unknown Reactome_R-ALL-29428" transform="translate(12,32)"  name="DNA" ><rect   width="100" height="20"/><text   transform="translate(50,10)"    >DNA</text></g><g id="cfb67" class="Protein" transform="translate(12,332)"  name="MLF1IP" ><rect   width="100" height="20"/><text   transform="translate(50,10)"    >MLF1IP</text></g><g id="d3a4f" class="Protein" transform="translate(12,92)"  name="CENPH" ><rect   width="100" height="20"/><text   transform="translate(50,10)"    >CENPH</text></g><g id="dbafc" class="Protein" transform="translate(12,192)"  name="CENPN" ><rect   width="100" height="20"/><text   transform="translate(50,10)"    >CENPN</text></g><g id="de87b" class="Protein" transform="translate(12,312)"  name="ITGB3BP" ><rect   width="100" height="20"/><text   transform="translate(50,10)"    >ITGB3BP</text></g><g id="e0e12" class="Protein" transform="translate(12,252)"  name="CENPQ" ><rect   width="100" height="20"/><text   transform="translate(50,10)"    >CENPQ</text></g><g id="e731e" class="Protein" transform="translate(12,132)"  name="CENPK" ><rect   width="100" height="20"/><text   transform="translate(50,10)"    >CENPK</text></g><g id="e9b4e" class="Protein" transform="translate(12,352)"  name="STRA13" ><rect   width="100" height="20"/><text   transform="translate(50,10)"    >STRA13</text></g><g id="eb84e" class="Protein" transform="translate(12,232)"  name="CENPP" ><rect   width="100" height="20"/><text   transform="translate(50,10)"    >CENPP</text></g><g id="eea17" class="Protein" transform="translate(12,272)"  name="CENPT" ><rect   width="100" height="20"/><text   transform="translate(50,10)"    >CENPT</text></g><g id="f3f47" class="Protein" transform="translate(12,172)"  name="CENPM" ><rect   width="100" height="20"/><text   transform="translate(50,10)"    >CENPM</text></g></g></g><g id="f2f1d" class="GroupComplex" transform="translate(458,999)"  ><g class="GroupComplex"><use class="Icon" width="124" height="64" fill="#b4b464" fill-opacity=".1" stroke="grey" href="#Octagon"/><g id="d151d" class="Protein" transform="translate(12,32)"  name="SMARCA5" ><rect   width="100" height="20"/><text   transform="translate(50,10)"    >SMARCA5</text></g><g id="ff236" class="Protein" transform="translate(12,12)"  name="RSF1" ><rect   width="100" height="20"/><text   transform="translate(50,10)"    >RSF1</text></g></g></g><g id="ff9f7" class="GroupComplex" transform="translate(738,999)"  ><g class="GroupComplex"><use class="Icon" width="124" height="1084" fill="#b4b464" fill-opacity=".1" stroke="grey" href="#Octagon"/><g id="a1c92" class="Protein" transform="translate(12,772)"  name="HIST1H2BM" ><rect   width="100" height="20"/><text   transform="translate(50,10)"    >HIST1H2BM</text></g><g id="a1d43" class="Protein" transform="translate(12,1012)"  name="MIS18BP1" ><rect   width="100" height="20"/><text   transform="translate(50,10)"    >MIS18BP1</text></g><g id="a2e89" class="Protein" transform="translate(12,372)"  name="CENPA" ><rect   width="100" height="20"/><text   transform="translate(50,10)"    >CENPA</text></g><g id="a38ae" class="Protein" transform="translate(12,92)"  name="CENPH" ><rect   width="100" height="20"/><text   transform="translate(50,10)"    >CENPH</text></g><g id="a45f3" class="Protein" transform="translate(12,212)"  name="CENPO" ><rect   width="100" height="20"/><text   transform="translate(50,10)"    >CENPO</text></g><g id="a4eb9" class="Protein" transform="translate(12,952)"  name="RUVBL1" ><rect   width="100" height="20"/><text   transform="translate(50,10)"    >RUVBL1</text></g><g id="a8053" class="Protein" transform="translate(12,852)"  name="HIST2H2BE" ><rect   width="100" height="20"/><text   transform="translate(50,10)"    >HIST2H2BE</text></g><g id="a874a" class="Protein" transform="translate(12,592)"  name="H2AFX" ><rect   width="100" height="20"/><text   transform="translate(50,10)"    >H2AFX</text></g><g id="aa6cf" class="Protein" transform="translate(12,752)"  name="HIST1H2BN" ><rect   width="100" height="20"/><text   transform="translate(50,10)"    >HIST1H2BN</text></g><g id="ac127" class="Protein" transform="translate(12,272)"  name="CENPT" ><rect   width="100" height="20"/><text   transform="translate(50,10)"    >CENPT</text></g><g id="ad26a" class="Protein" transform="translate(12,512)"  name="HIST2H2AA3" ><rect   width="100" height="20"/><text   transform="translate(50,10)"    >HIST2H2AA3</text></g><g id="afa91" class="Protein" transform="translate(12,232)"  name="CENPP" ><rect   width="100" height="20"/><text   transform="translate(50,10)"    >CENPP</text></g><g id="b83e8" class="Protein" transform="translate(12,352)"  name="STRA13" ><rect   width="100" height="20"/><text   transform="translate(50,10)"    >STRA13</text></g><g id="bbb9d" class="Protein" transform="translate(12,572)"  name="H2AFV" ><rect   width="100" height="20"/><text   transform="translate(50,10)"    >H2AFV</text></g><g id="becf1" class="Protein" transform="translate(12,632)"  name="HIST1H2BK" ><rect   width="100" height="20"/><text   transform="translate(50,10)"    >HIST1H2BK</text></g><g id="bfac8" class="Protein" transform="translate(12,872)"  name="HIST1H2BJ" ><rect   width="100" height="20"/><text   transform="translate(50,10)"    >HIST1H2BJ</text></g><g id="bfcc9" class="Protein" transform="translate(12,472)"  name="HIST1H2AD" ><rect   width="100" height="20"/><text   transform="translate(50,10)"    >HIST1H2AD</text></g><g id="c2188" class="Protein" transform="translate(12,432)"  name="HIST1H2AB" ><rect   width="100" height="20"/><text   transform="translate(50,10)"    >HIST1H2AB</text></g><g id="c318b" class="Protein" transform="translate(12,812)"  name="HIST1H2BH" ><rect   width="100" height="20"/><text   transform="translate(50,10)"    >HIST1H2BH</text></g><g id="c3379" class="Protein" transform="translate(12,332)"  name="MLF1IP" ><rect   width="100" height="20"/><text   transform="translate(50,10)"    >MLF1IP</text></g><g id="c5d19" class="Protein" transform="translate(12,132)"  name="CENPK" ><rect   width="100" height="20"/><text   transform="translate(50,10)"    >CENPK</text></g><g id="c6a97" class="Protein" transform="translate(12,932)"  name="NPM1" ><rect   width="100" height="20"/><text   transform="translate(50,10)"    >NPM1</text></g><g id="c70b1" class="Protein" transform="translate(12,452)"  name="HIST1H2AJ" ><rect   width="100" height="20"/><text   transform="translate(50,10)"    >HIST1H2AJ</text></g><g id="c8967" class="Protein" transform="translate(12,72)"  name="CENPC" ><rect   width="100" height="20"/><text   transform="translate(50,10)"    >CENPC</text></g><g id="c8a18" class="Protein" transform="translate(12,392)"  name="HIST1H4" ><rect   width="100" height="20"/><text   transform="translate(50,10)"    >HIST1H4</text></g><g id="c9a50" class="Protein" transform="translate(12,832)"  name="HIST1H2BO" ><rect   width="100" height="20"/><text   transform="translate(50,10)"    >HIST1H2BO</text></g><g id="cb1fd" class="Protein" transform="translate(12,492)"  name="HIST1H2AC" ><rect   width="100" height="20"/><text   transform="translate(50,10)"    >HIST1H2AC</text></g><g id="cf5ce" class="Protein" transform="translate(12,412)"  name="H2AFB1" ><rect   width="100" height="20"/><text   transform="translate(50,10)"    >H2AFB1</text></g><g id="d1591" class="Protein" transform="translate(12,532)"  name="HIST2H2AC" ><rect   width="100" height="20"/><text   transform="translate(50,10)"    >HIST2H2AC</text></g><g id="d2d12" class="Protein" transform="translate(12,992)"  name="RBBP7" ><rect   width="100" height="20"/><text   transform="translate(50,10)"    >RBBP7</text></g><g id="d3be2" class="Protein" transform="translate(12,612)"  name="H2AFZ" ><rect   width="100" height="20"/><text   transform="translate(50,10)"    >H2AFZ</text></g><g id="d6a78" class="Protein" transform="translate(12,192)"  name="CENPN" ><rect   width="100" height="20"/><text   transform="translate(50,10)"    >CENPN</text></g><g id="d8170" class="Protein" transform="translate(12,552)"  name="H2AFJ" ><rect   width="100" height="20"/><text   transform="translate(50,10)"    >H2AFJ</text></g><g id="d8627" class="Protein" transform="translate(12,312)"  name="ITGB3BP" ><rect   width="100" height="20"/><text   transform="translate(50,10)"    >ITGB3BP</text></g><g id="dd139" class="Protein" transform="translate(12,972)"  name="RBBP4" ><rect   width="100" height="20"/><text   transform="translate(50,10)"    >RBBP4</text></g><g id="dd625" class="Protein" transform="translate(12,732)"  name="HIST1H2BL" ><rect   width="100" height="20"/><text   transform="translate(50,10)"    >HIST1H2BL</text></g><g id="dda42" class="Protein" transform="translate(12,152)"  name="CENPL" ><rect   width="100" height="20"/><text   transform="translate(50,10)"    >CENPL</text></g><g id="e11d0" class="Protein" transform="translate(12,792)"  name="HIST1H2BB" ><rect   width="100" height="20"/><text   transform="translate(50,10)"    >HIST1H2BB</text></g><g id="e2476" class="Protein" transform="translate(12,892)"  name="H2BFS" ><rect   width="100" height="20"/><text   transform="translate(50,10)"    >H2BFS</text></g><g id="e315c" class="Protein" transform="translate(12,12)"  name="CASC5" ><rect   width="100" height="20"/><text   transform="translate(50,10)"    >CASC5</text></g><g id="e57c2" class="Protein" transform="translate(12,1032)"  name="MIS18A" ><rect   width="100" height="20"/><text   transform="translate(50,10)"    >MIS18A</text></g><g id="e85b4" class="Protein" transform="translate(12,652)"  name="HIST3H2BB" ><rect   width="100" height="20"/><text   transform="translate(50,10)"    >HIST3H2BB</text></g><g id="e8a13" class="Unknown Reactome_R-ALL-29428" transform="translate(12,32)"  name="DNA" ><rect   width="100" height="20"/><text   transform="translate(50,10)"    >DNA</text></g><g id="eaf4b" class="Protein" transform="translate(12,112)"  name="CENPI" ><rect   width="100" height="20"/><text   transform="translate(50,10)"    >CENPI</text></g><g id="eb528" class="Protein" transform="translate(12,672)"  name="HIST1H2BA" ><rect   width="100" height="20"/><text   transform="translate(50,10)"    >HIST1H2BA</text></g><g id="f0f17" class="Protein" transform="translate(12,292)"  name="CENPW" ><rect   width="100" height="20"/><text   transform="translate(50,10)"    >CENPW</text></g><g id="f6e71" class="Protein" transform="translate(12,712)"  name="HIST1H2BD" ><rect   width="100" height="20"/><text   transform="translate(50,10)"    >HIST1H2BD</text></g><g id="f73de" class="Protein" transform="translate(12,172)"  name="CENPM" ><rect   width="100" height="20"/><text   transform="translate(50,10)"    >CENPM</text></g><g id="f9ac5" class="Protein" transform="translate(12,252)"  name="CENPQ" ><rect   width="100" height="20"/><text   transform="translate(50,10)"    >CENPQ</text></g><g id="f9b7e" class="Protein" transform="translate(12,1052)"  name="OIP5" ><rect   width="100" height="20"/><text   transform="translate(50,10)"    >OIP5</text></g><g id="fa994" class="Protein" transform="translate(12,912)"  name="HJURP" ><rect   width="100" height="20"/><text   transform="translate(50,10)"    >HJURP</text></g><g id="fdb57" class="Protein" transform="translate(12,692)"  name="HIST1H2BC" ><rect   width="100" height="20"/><text   transform="translate(50,10)"    >HIST1H2BC</text></g><g id="ff569" class="Protein" transform="translate(12,52)"  name="APITD1" ><rect   width="100" height="20"/><text   transform="translate(50,10)"    >APITD1</text></g></g></g></g></g></g></svg>