<?xml version="1.0" encoding="UTF-8"?>
<!--
  WikiPathways page: https://www.wikipathways.org/index.php/Pathway:WP2113
  URL for this compressed file: https://github.com/eweitz/cachome/tree/main/data/WP2113.svg
  Source code for compression: https://github.com/eweitz/cachome/tree/main/src/wikipathways.py
-->
<svg id="wp2113-svg" class="Diagram" width="800" height="600" color="black" baseProfile="full" prefix="schema:http://schema.org/" preserveAspectRatio="xMidYMid" version="1.1" viewBox="0 0 1413 1224" vocab="http://vocabularies.wikipathways.org/wp#" xmlns="http://www.w3.org/2000/svg" xmlns:xlink="http://www.w3.org/1999/xlink"><style>svg {font-family: 'Liberation Sans', Arial, sans-serif; }</style><defs><g id="jit-defs"><filter id="kaaviodoublefalse3filter" x="-50%" y="-50%" width="200%" height="200%"><feComposite in="SourceGraphic" in2="SourceGraphic" result="doubleDark"/><feMorphology in="doubleDark" operator="dilate" radius="0.16666666666666666" result="in2Double"/><feMorphology in="SourceGraphic" operator="dilate" radius="3" result="inDouble"/><feComposite in="inDouble" in2="in2Double" operator="out" result="doubleResult"/></filter><filter id="kaavioblackto000000filter" x="0" y="0" width="1413" height="1224" filterUnits="userSpaceOnUse"><feColorMatrix in="SourceGraphic" values="-1   0   0 0 0                   0  -1   0 0 0                   0   0  -1 0 0                   0   0   0 1 0"/></filter></g><g id="jic-defs"><marker id="markerEndArrow" stroke-dasharray="99999" markerHeight="12" markerUnits="userSpaceOnUse" markerWidth="12" orient="auto" preserveAspectRatio="none" refX="12" refY="6" viewBox="0 0 12 12"><path transform="rotate(180 6 6)" d="M12 11L0 6l12-5z" fill="currentColor" stroke-width="0"/></marker><marker id="markerEndMimBinding" stroke-dasharray="99999" markerHeight="12" markerUnits="userSpaceOnUse" markerWidth="12" orient="auto" preserveAspectRatio="none" refX="12" refY="6" viewBox="0 0 12 12"><path transform="rotate(180 6 6)" d="M12 12L0 6l12-6-7 6z" fill="currentColor" stroke-width="0"/></marker><marker id="markerEndMimConversion" stroke-dasharray="99999" markerHeight="12" markerUnits="userSpaceOnUse" markerWidth="12" orient="auto" preserveAspectRatio="none" refX="12" refY="6" viewBox="0 0 12 12"><path transform="rotate(180 6 6)" d="M12 11L0 6l12-5z" fill="currentColor" stroke-width="0"/></marker><symbol id="Ellipse" overflow="visible" preserveAspectRatio="none" viewBox="0 0 50 50"><ellipse cx="25" cy="25" rx="25" ry="25" stroke="currentColor" vector-effect="non-scaling-stroke"/></symbol><symbol id="Octagon" overflow="visible" preserveAspectRatio="none" viewBox="0 0 100 100"><path d="M0 25L25 0h50l25 25v50l-25 25H25L0 75z" stroke="currentColor" vector-effect="non-scaling-stroke"/></symbol><symbol id="TrianglePathVisio" overflow="visible" preserveAspectRatio="none" viewBox="0 0 50 50"><path d="M14.5 3.3v43.4L61 25z" stroke="currentColor" vector-effect="non-scaling-stroke"/></symbol><symbol id="none" preserveAspectRatio="none" viewBox="0 0 100 100"/></g></defs><g id="WP2113" class="Viewport" color="black"  name="Name: Type III interferon signaling Organism: Homo sapiens"><rect id="WP2113-icon" class="Icon" width="1413" height="1224" fill="#fff" stroke="#000" stroke-width="0"/><g id="id7b36159b" class="DirectedInteraction" color="#000" ><g color="#000" fill="transparent"  filter="url(#kaavioblackto000000filter)" stroke="#000" stroke-dasharray="432.9174489349609, 5.8"><path id="id7b36159b" class="EdgeBody" d="m671.75 586-148 413"   marker-end="url(#markerEndArrow)" /></g></g><g id="id80079018" class="DirectedInteraction" color="#000" ><g color="#000" fill="transparent"  filter="url(#kaavioblackto000000filter)" stroke="#000" stroke-dasharray="418.8998940428406, 5.8"><path id="id80079018" class="EdgeBody" d="m671.75 586 161 393"   marker-end="url(#markerEndArrow)" /></g></g><g id="idc2022868" class="Interaction" color="#000" ><g color="#000" fill="transparent"  filter="url(#kaavioblackto000000filter)" stroke="#000" stroke-dasharray="120.34455076351801, 1"><path id="idc2022868" class="EdgeBody" d="m703 107-66.5 101.5"   marker-end="url(#markerEndMimBinding)" /></g></g><g id="idce034040" class="Interaction" color="#000" ><g color="#000" fill="transparent"  filter="url(#kaavioblackto000000filter)" stroke="#000" stroke-dasharray="95.10671152422186, 1"><path id="idce034040" class="EdgeBody" d="m584 128 52.5 80.5"   marker-end="url(#markerEndMimBinding)" /></g></g><g id="id7ddc5757" class="Interaction" color="#000" ><g color="#000" fill="transparent"  filter="url(#kaavioblackto000000filter)" stroke="#000" stroke-dasharray="134.71477443521024, 1"><path id="id7ddc5757" class="EdgeBody" d="m509 162 127.5 46.5"   marker-end="url(#markerEndMimBinding)" /></g></g><g id="a0e10" class="GroupGroup" transform="translate(609.5,337)" color="grey" ><use id="a0e10-icon" class="Icon" width="170.5" height="257" fill="transparent"  stroke="grey" stroke-dasharray="5,3" stroke-width="0" xlink:href="#none"/><g id="id79da6b86" class="DirectedInteraction" color="#000" ><g color="#000" fill="transparent"  filter="url(#kaavioblackto000000filter)" stroke="#000" stroke-dasharray="91.32266728215407, 5.8"><path id="id79da6b86" class="EdgeBody" d="m27 8 35.25 90.5"   marker-end="url(#markerEndArrow)" /></g></g><g id="da410" class="SingleFreeNode Shape" transform="translate(8,98.5)" color="#66ff33" ><rect id="da410-icon" class="Icon" transform="matrix(.97309 0 0 .98046 1.4596 1.4707)" width="108.5" height="150.5" rx="15" ry="15" fill="transparent"  stroke="#6f3" stroke-width="3"/></g><g id="adca3" class="Label" transform="translate(66.5,75)" color="#000"  name="ISGF3 complex"><use id="adca3-icon" class="Icon" width="96" height="20" fill="transparent"  stroke="#000" stroke-width="0" xlink:href="#none"/><text id="adca3-text" class="Text" transform="translate(48,14)" fill="#000"  font-size="12px" font-weight="bold" stroke="white" stroke-width="0" text-anchor="middle"><tspan x="0" y="0">ISGF3 complex</tspan></text></g><a  id="fdbcc" class="GeneProduct IRF9 " transform="translate(21.5,199)"   name="IRF9"  ><rect id="fdbcc-icon" class="Icon" transform="matrix(.98765 0 0 .95238 .49383 .47619)" width="80" height="20" fill="#fff" stroke="#000"/><text id="fdbcc-text" class="Text" transform="translate(40,13)" fill="#000"  font-size="10px" stroke="white" stroke-width="0" text-anchor="middle"><tspan x="0" y="0">IRF9</tspan></text></a></g><g id="idff1e426a" class="Interaction" color="#000" ><g color="#000" fill="transparent"  filter="url(#kaavioblackto000000filter)" stroke="#000" stroke-dasharray="222.9515787601077, 5.8"><path id="idff1e426a" class="EdgeBody" d="m636.5 345v3.3333c0 3.3333 0 10-26.125 13.333-26.125 3.3333-78.375 3.3333-104.5 18.917-26.125 15.583-26.125 46.75-26.125 62.333l6e-14 15.583"   marker-end="url(#markerEndMimConversion)" /></g></g><g id="f5bd1" class="SingleFreeNode Shape PhysicalEntity CellularComponent Cell" transform="translate(24,257.5)" color="#c0c0c0" ><g fill="transparent"  filter="url(#kaaviodoublefalse3filter)" stroke="#c0c0c0" stroke-width="3"><rect id="f5bd1-icon" class="Icon" transform="matrix(.99126 0 0 .98737 5.9475 5.9242)" width="1360.5" height="938" rx="15" ry="15"   /></g></g><g id="ce6db" class="SingleFreeNode Shape" transform="translate(536,208.5)" color="#33ff33" ><rect id="ce6db-icon" class="Icon" transform="matrix(.98529 0 0 .97849 1.4779 1.4677)" width="201" height="136.5" rx="15" ry="15" fill="transparent"  stroke="#3f3" stroke-width="3"/></g><g id="b68fb" class="SingleFreeNode Shape PhysicalEntity CellularComponent Nucleus" transform="translate(389.5,829.5)" color="#c0c0c0" ><g fill="transparent"  filter="url(#kaaviodoublefalse3filter)" stroke="#c0c0c0" stroke-width="3"><use id="b68fb-icon" class="Icon" transform="matrix(.98256 0 0 .96439 5.8953 5.7864)" width="676" height="325"    xlink:href="#Ellipse"/></g></g><g id="fedd1" class="SingleFreeNode Shape" transform="translate(512,999)" color="#000"  name="ISRE"><use id="fedd1-icon" class="Icon" transform="matrix(.97917 0 0 .97619 .48958 .4881)" width="47" height="41" fill="transparent"  stroke="#000" xlink:href="#TrianglePathVisio"/><text id="fedd1-text" class="Text" transform="translate(23.5,24.5)" fill="#000"  font-size="12px" font-weight="bold" stroke="white" stroke-width="0" text-anchor="middle"><tspan x="0" y="0">ISRE</tspan></text></g><a  id="eb7e9" class="GeneProduct IFNL2 " transform="translate(469,142)"   name="IL28A"  ><rect id="eb7e9-icon" class="Icon" transform="matrix(.98765 0 0 .95238 .49383 .47619)" width="80" height="20" rx="15" ry="15" fill="#fff" stroke="#000"/><text id="eb7e9-text" class="Text" transform="translate(40,13)" fill="#000"  font-size="10px" stroke="white" stroke-width="0" text-anchor="middle"><tspan x="0" y="0">IL28A</tspan></text></a><a  id="d26ec" class="GeneProduct IFNL1 " transform="translate(663,87)"   name="IL29"  ><rect id="d26ec-icon" class="Icon" transform="matrix(.98765 0 0 .95238 .49383 .47619)" width="80" height="20" rx="15" ry="15" fill="#fff" stroke="#000"/><text id="d26ec-text" class="Text" transform="translate(40,13)" fill="#000"  font-size="10px" stroke="white" stroke-width="0" text-anchor="middle"><tspan x="0" y="0">IL29</tspan></text></a><a  id="caf9d" class="GeneProduct IFNL3 " transform="translate(544,108)"   name="IL28B"  ><rect id="caf9d-icon" class="Icon" transform="matrix(.98765 0 0 .95238 .49383 .47619)" width="80" height="20" rx="15" ry="15" fill="#fff" stroke="#000"/><text id="caf9d-text" class="Text" transform="translate(40,13)" fill="#000"  font-size="10px" stroke="white" stroke-width="0" text-anchor="middle"><tspan x="0" y="0">IL28B</tspan></text></a><a  id="e5c12" class="GeneProduct JAK1 " transform="translate(541,275)"   name="JAK1"  ><rect id="e5c12-icon" class="Icon" transform="matrix(.98765 0 0 .95238 .49383 .47619)" width="80" height="20" rx="15" ry="15" fill="#fff" stroke="#000"/><text id="e5c12-text" class="Text" transform="translate(40,13)" fill="#000"  font-size="10px" stroke="white" stroke-width="0" text-anchor="middle"><tspan x="0" y="0">JAK1</tspan></text></a><a  id="a02a0" class="GeneProduct IL10RB " transform="translate(636,248)"   name="IL10RB"  ><rect id="a02a0-icon" class="Icon" transform="matrix(.98765 0 0 .95238 .49383 .47619)" width="80" height="20" rx="15" ry="15" fill="#fff" stroke="#000"/><text id="a02a0-text" class="Text" transform="translate(40,13)" fill="#000"  font-size="10px" stroke="white" stroke-width="0" text-anchor="middle"><tspan x="0" y="0">IL10RB</tspan></text></a><a  id="c88d5" class="GeneProduct TYK2 " transform="translate(648,273)"   name="TYK2"  ><rect id="c88d5-icon" class="Icon" transform="matrix(.98765 0 0 .95238 .49383 .47619)" width="80" height="20" rx="15" ry="15" fill="#fff" stroke="#000"/><text id="c88d5-text" class="Text" transform="translate(40,13)" fill="#000"  font-size="10px" stroke="white" stroke-width="0" text-anchor="middle"><tspan x="0" y="0">TYK2</tspan></text></a><a  id="f78d0" class="GeneProduct IFNLR1 " transform="translate(547,247)"   name="IL28RA"  ><rect id="f78d0-icon" class="Icon" transform="matrix(.98765 0 0 .95238 .49383 .47619)" width="80" height="20" rx="15" ry="15" fill="#fff" stroke="#000"/><text id="f78d0-text" class="Text" transform="translate(40,13)" fill="#000"  font-size="10px" stroke="white" stroke-width="0" text-anchor="middle"><tspan x="0" y="0">IL28RA</tspan></text></a><a  id="c38be" class="GeneProduct STAT2 " transform="translate(630,453)"   name="STAT2"  ><rect id="c38be-icon" class="Icon" transform="matrix(.98765 0 0 .95238 .49383 .47619)" width="80" height="20" rx="15" ry="15" fill="#fff" stroke="#000"/><text id="c38be-text" class="Text" transform="translate(40,13)" fill="#000"  font-size="10px" stroke="white" stroke-width="0" text-anchor="middle"><tspan x="0" y="0">STAT2</tspan></text></a><g id="e22fd" class="GroupComplex" transform="translate(413.5,458.5)" color="grey" ><use id="e22fd-icon" class="Icon" transform="matrix(.99251 0 0 .98857 .49625 .49429)" width="132.5" height="86.5" fill="#b4b464" fill-opacity=".1" stroke="grey" xlink:href="#Octagon"/><a  id="eaf54" class="GeneProduct STAT1 " transform="translate(22.5,44.5)"   name="STAT1"  ><rect id="eaf54-icon" class="Icon" transform="matrix(.98765 0 0 .95238 .49383 .47619)" width="80" height="20" rx="15" ry="15" fill="#fff" stroke="#000"/><text id="eaf54-text" class="Text" transform="translate(40,13)" fill="#000"  font-size="10px" stroke="white" stroke-width="0" text-anchor="middle"><tspan x="0" y="0">STAT1</tspan></text></a><a  id="bb515" class="GeneProduct STAT1 " transform="translate(20.5,22.5)"   name="STAT1"  ><rect id="bb515-icon" class="Icon" transform="matrix(.98765 0 0 .95238 .49383 .47619)" width="80" height="20" rx="15" ry="15" fill="#fff" stroke="#000"/><text id="bb515-text" class="Text" transform="translate(40,13)" fill="#000"  font-size="10px" stroke="white" stroke-width="0" text-anchor="middle"><tspan x="0" y="0">STAT1</tspan></text></a><g id="d1c14" class="SingleFreeNode Shape" transform="translate(12,12)" color="#66ff33" ><rect id="d1c14-icon" class="Icon" transform="matrix(.97309 0 0 .9542 1.4596 1.4313)" width="108.5" height="62.5" rx="15" ry="15" fill="transparent"  stroke="#6f3" stroke-width="3"/></g></g><g id="db133" class="SingleFreeNode Shape" transform="translate(821,979)" color="#000"  name="GAS"><use id="db133-icon" class="Icon" transform="matrix(.97917 0 0 .97619 .48958 .4881)" width="47" height="41" fill="transparent"  stroke="#000" xlink:href="#TrianglePathVisio"/><text id="db133-text" class="Text" transform="translate(23.5,24.5)" fill="#000"  font-size="12px" font-weight="bold" stroke="white" stroke-width="0" text-anchor="middle"><tspan x="0" y="0">GAS</tspan></text></g><a  id="b7ba1" class="GeneProduct STAT1 " transform="translate(632,495)"   name="STAT1"  ><rect id="b7ba1-icon" class="Icon" transform="matrix(.98765 0 0 .95238 .49383 .47619)" width="80" height="20" rx="15" ry="15" fill="#fff" stroke="#000"/><text id="b7ba1-text" class="Text" transform="translate(40,13)" fill="#000"  font-size="10px" stroke="white" stroke-width="0" text-anchor="middle"><tspan x="0" y="0">STAT1</tspan></text></a><text id="WP2113-text" class="Text" transform="translate(5,27)" dominant-baseline="central" fill="black"  font-size="12px" font-weight="bold" overflow="visible" stroke="white" stroke-width="0"><tspan x="0" y="-9">Name: Type III interferon signaling</tspan> <tspan x="0" y="9">Organism: Homo sapiens</tspan></text></g></svg>
