<?xml version="1.0" encoding="UTF-8"?>
<svg xmlns="http://www.w3.org/2000/svg" id="-svg" class="Diagram"  baseProfile="full" prefix="schema:http://schema.org/" preserveAspectRatio="xMidYMid"  version="1.1"><defs><g id="icon-defs"><symbol id="ArcPathVisio" class=" Icon ArcPathVisio" x="0" y="0" overflow="visible" preserveAspectRatio="none" viewBox="0 0 100 100"><desc>ArcPathVisio</desc><path d="m99.5 50c0 27.34-22.16 49.5-49.5 49.5s-49.5-22.16-49.5-49.5" vector-effect="non-scaling-stroke"/></symbol><symbol id="Ellipse" class=" Icon Ellipse" x="0" y="0" overflow="visible" preserveAspectRatio="none" viewBox="0 0 50 50"><desc>Ellipse</desc><ellipse cx="25" cy="25" rx="25" ry="25" vector-effect="non-scaling-stroke"/></symbol></g><g id="marker-defs"><marker id="mea0c0" markerHeight="12" markerWidth="12" orient="auto" preserveAspectRatio="none" refX="12" refY="6" viewBox="0 0 12 12"><g id="g-mea0c0" transform=""><g transform="rotate(180 6 6)"><rect y="5.4" width="2" height="1.2" style="stroke:#fff"/><polygon points="12 11 0 6 12 1" fill="#0c0" stroke-width="0"/></g></g></marker><marker id="meminhibitionff0033white" markerHeight="20" markerWidth="10" orient="auto" preserveAspectRatio="none" refX="10" refY="10" viewBox="0 0 10 20"><g id="g-meminhibitionff0033white" transform=""><g transform="rotate(180 5 10)"><rect y="9" width="8" height="2" style="stroke:none"/><line x="0" y="0" width="12" height="12" x1="7" x2="7" y2="20" stroke="#f03" stroke-width="1.8"/></g></g></marker><marker id="mea9900cc" markerHeight="12" markerWidth="12" orient="auto" preserveAspectRatio="none" refX="12" refY="6" viewBox="0 0 12 12"><g id="g-mea9900cc" transform=""><g transform="rotate(180 6 6)"><rect y="5.4" width="2" height="1.2" style="stroke:#fff"/><polygon points="12 11 0 6 12 1" fill="#90c" stroke-width="0"/></g></g></marker><marker id="meaf0f" markerHeight="12" markerWidth="12" orient="auto" preserveAspectRatio="none" refX="12" refY="6" viewBox="0 0 12 12"><g id="g-meaf0f" transform=""><g transform="rotate(180 6 6)"><rect y="5.4" width="2" height="1.2" style="stroke:#fff"/><polygon points="12 11 0 6 12 1" fill="#f0f" stroke-width="0"/></g></g></marker><marker id="meac0c" markerHeight="12" markerWidth="12" orient="auto" preserveAspectRatio="none" refX="12" refY="6" viewBox="0 0 12 12"><g id="g-meac0c" transform=""><g transform="rotate(180 6 6)"><rect y="5.4" width="2" height="1.2" style="stroke:#fff"/><polygon points="12 11 0 6 12 1" fill="#c0c" stroke-width="0"/></g></g></marker><marker id="mea999900" markerHeight="12" markerWidth="12" orient="auto" preserveAspectRatio="none" refX="12" refY="6" viewBox="0 0 12 12"><g id="g-mea999900" transform=""><g transform="rotate(180 6 6)"><rect y="5.4" width="2" height="1.2" style="stroke:#fff"/><polygon points="12 11 0 6 12 1" fill="#990" stroke-width="0"/></g></g></marker><marker id="mea0cc" markerHeight="12" markerWidth="12" orient="auto" preserveAspectRatio="none" refX="12" refY="6" viewBox="0 0 12 12"><g id="g-mea0cc" transform=""><g transform="rotate(180 6 6)"><rect y="5.4" width="2" height="1.2" style="stroke:#fff"/><polygon points="12 11 0 6 12 1" fill="#0cc" stroke-width="0"/></g></g></marker><marker id="mea" markerHeight="12" markerWidth="12" orient="auto" preserveAspectRatio="none" refX="12" refY="6" viewBox="0 0 12 12"><g id="g-mea" transform=""><g transform="rotate(180 6 6)"><rect y="5.4" width="2" height="1.2" style="stroke:#fff"/><polygon points="12 11 0 6 12 1" stroke-width="0"/></g></g></marker><marker id="memtranscriptiontranslation000" markerHeight="24" markerWidth="20" orient="auto" preserveAspectRatio="none" refX="20" refY="12" viewBox="0 0 20 24"><g id="g-memtranscriptiontranslation000" transform=""><g transform="rotate(180 10 12)"><rect y="11" width="12" height="2" style="stroke:#fff"/><line x1="15" x2="15" y1="12" y2="5" fill="none" stroke="#000"/><line x1="15.5" x2="8" y1="5" y2="5" fill="none" stroke="#000"/><polygon points="0 5 8 1 8 9" fill="#fff" stroke="#000"/></g></g></marker><marker id="markerendtbar000" markerHeight="20" markerWidth="10" orient="auto" preserveAspectRatio="none" refX="10" refY="10" viewBox="0 0 10 20"><g id="g-markerendtbar000" transform=""><g transform="rotate(180 5 10)"><rect y="9" width="8" height="2" style="stroke:none"/><line x="0" y="0" width="12" height="12" x1="7" x2="7" y2="20" stroke="#000" stroke-width="1.8"/></g></g></marker><marker id="mea0ff" markerHeight="12" markerWidth="12" orient="auto" preserveAspectRatio="none" refX="12" refY="6" viewBox="0 0 12 12"><g id="g-mea0ff" transform=""><g transform="rotate(180 6 6)"><rect y="5.4" width="2" height="1.2" style="stroke:#fff"/><polygon points="12 11 0 6 12 1" fill="#0ff" stroke-width="0"/></g></g></marker><marker id="meaffcc33" markerHeight="12" markerWidth="12" orient="auto" preserveAspectRatio="none" refX="12" refY="6" viewBox="0 0 12 12"><g id="g-meaffcc33" transform=""><g transform="rotate(180 6 6)"><rect y="5.4" width="2" height="1.2" style="stroke:#fff"/><polygon points="12 11 0 6 12 1" fill="#fc3" stroke-width="0"/></g></g></marker><marker id="mea00f" markerHeight="12" markerWidth="12" orient="auto" preserveAspectRatio="none" refX="12" refY="6" viewBox="0 0 12 12"><g id="g-mea00f" transform=""><g transform="rotate(180 6 6)"><rect y="5.4" width="2" height="1.2" style="stroke:#fff"/><polygon points="12 11 0 6 12 1" fill="#00f" stroke-width="0"/></g></g></marker><marker id="meaff9933" markerHeight="12" markerWidth="12" orient="auto" preserveAspectRatio="none" refX="12" refY="6" viewBox="0 0 12 12"><g id="g-meaff9933" transform=""><g transform="rotate(180 6 6)"><rect y="5.4" width="2" height="1.2" style="stroke:#fff"/><polygon points="12 11 0 6 12 1" fill="#f93" stroke-width="0"/></g></g></marker><marker id="meacc0" markerHeight="12" markerWidth="12" orient="auto" preserveAspectRatio="none" refX="12" refY="6" viewBox="0 0 12 12"><g id="g-meacc0" transform=""><g transform="rotate(180 6 6)"><rect y="5.4" width="2" height="1.2" style="stroke:#fff"/><polygon points="12 11 0 6 12 1" fill="#cc0" stroke-width="0"/></g></g></marker><marker id="mea770000" markerHeight="12" markerWidth="12" orient="auto" preserveAspectRatio="none" refX="12" refY="6" viewBox="0 0 12 12"><g id="g-mea770000" transform=""><g transform="rotate(180 6 6)"><rect y="5.4" width="2" height="1.2" style="stroke:#fff"/><polygon points="12 11 0 6 12 1" fill="#700" stroke-width="0"/></g></g></marker><marker id="mea775200" markerHeight="12" markerWidth="12" orient="auto" preserveAspectRatio="none" refX="12" refY="6" viewBox="0 0 12 12"><g id="g-mea775200" transform=""><g transform="rotate(180 6 6)"><rect y="5.4" width="2" height="1.2" style="stroke:#fff"/><polygon points="12 11 0 6 12 1" fill="#775200" stroke-width="0"/></g></g></marker><marker id="meaff6666" markerHeight="12" markerWidth="12" orient="auto" preserveAspectRatio="none" refX="12" refY="6" viewBox="0 0 12 12"><g id="g-meaff6666" transform=""><g transform="rotate(180 6 6)"><rect y="5.4" width="2" height="1.2" style="stroke:#fff"/><polygon points="12 11 0 6 12 1" fill="#f66" stroke-width="0"/></g></g></marker><marker id="mea999" markerHeight="12" markerWidth="12" orient="auto" preserveAspectRatio="none" refX="12" refY="6" viewBox="0 0 12 12"><g id="g-mea999" transform=""><g transform="rotate(180 6 6)"><rect y="5.4" width="2" height="1.2" style="stroke:#fff"/><polygon points="12 11 0 6 12 1" fill="#999" stroke-width="0"/></g></g></marker></g></defs><g id="viewport-20220102140348385" class="svg-pan-zoom_viewport" transform="matrix(0.55 0 0 0.55 342.93 9.30e-6)" style="transform:matrix(0.55, 0, 0, 0.55, 342.93, 9.30e-06)"><style>svg.Diagram {font-family: 'Liberation Sans', Arial, sans-serif; }.Diagram path {fill: transparent;stroke: #000;marker-end: url(#mea);}.Diagram symbol path {fill: inherit;stroke: inherit;stroke-width: inherit;marker-end: inherit;}.Diagram rect {fill: #fff;stroke: #000;}.Diagram text {dominant-baseline: central;overflow: hidden;text-anchor: middle;fill: #000;font-size: 12px;}</style><style type="text/css">.Viewport .textContent {
  pointer-events: none;
  stroke-width: 0px;
}

					.Viewport.Icon {
  fill: white;
}

/* Hide the InfoBox */
.Viewport.textContent {
  font-size: 0;
}

.textContent {
  stroke: none;
}

.DataNode {
  stroke-miterlimit: 1;
  pointer-events: auto;
}

.DataNode:hover {
  cursor: pointer;
}

/* TODO should this apply to things other than DataNodes? */
.DataNode.textContent {
  pointer-events: none;
}

.DataNode.Highlighted {
  opacity: 0.6;
  stroke-width: 0px;
}

marker {
  /* this is what should work per the spec
  stroke-dasharray: none; */
  /* but I need to add this to make it work in Safari */
  stroke-dasharray: 9999999999999999999999999;
}

.Citation.Icon {
  fill: none;
  stroke-width: 0px;
}

.Citation.textContent {
  text-align: center;
  vertical-align: top;
  font-size: 7px;
  fill: #999;
  fill-opacity: 1;
  stroke: none;
}</style><g id="WP22" class="Pathway http___identifiers_org_pw_PW_0000909 http___identifiers_org_pw_PW_0000512 Viewport"  name="Name: IL-9 signaling pathway License: Freely available under Creative Commons license Organism: Homo sapiens" ><g class="Pathway http___identifiers_org_pw_PW_0000909 http___identifiers_org_pw_PW_0000512 Viewport"><rect   width="933" height="1214" style="stroke:none"/><g id="e0d1f" class="GroupGroup" transform="translate(111,1020)"  ><g class="GroupGroup"><g id="d403c" class="Protein " transform="translate(8 29.96)"  name="STAT1" ><rect   width="54.33" height="20"/><text   transform="translate(27.17 10)"    >STAT1</text></g><g id="a2e7f" class="Protein " transform="translate(8.67 8)"  name="STAT3" ><rect   width="53.33" height="20"/><g id="cd2e1" class="State Burr" transform="translate(45.83 12.5)"  name="P" ><g class="State Burr"><use class="State Burr Node Icon" width="15" height="15" fill="#ff0" stroke="#000" href="#Ellipse"/></g><g ><defs><clipPath ><rect x="-7.5" y="-7.5" width="15" height="15" style="stroke:none"/></clipPath></defs><text   transform="translate(7.5,7.5)"  font-family="arial" overflow="visible" style="font-size:10px">P</text></g></g><text   transform="translate(26.67 10)"    >STAT3</text></g></g></g><g id="fd37e" class="GroupGroup" transform="translate(249.67 794)"  ><g class="GroupGroup"><g id="a1a46" class="Protein " transform="translate(8 31.67)"  name="STAT5B" ><rect   width="54" height="20"/><text   transform="translate(27 10)"    >STAT5B</text></g><g id="dc750" class="Protein " transform="translate(8 8)"  name="STAT5B" ><rect   width="54" height="20"/><g id="af22f" class="State Burr" transform="translate(46.46 12.38)"  name="P" ><g class="State Burr"><use class="State Burr Node Icon" width="15.08" height="15.25" fill="#ff0" stroke="#000" href="#Ellipse"/></g><g ><defs><clipPath ><rect x="-7.54" y="-7.62" width="15.08" height="15.25" style="stroke:none"/></clipPath></defs><text   transform="translate(7.54 7.62)"  font-family="arial" overflow="visible" style="font-size:10px">P</text></g></g><text   transform="translate(27 10)"    >STAT5B</text></g></g></g><g id="b460b" class="GroupGroup" transform="translate(364 842.67)"  ><g class="GroupGroup"><g id="a4606" class="Protein " transform="translate(8,31)"  name="MAPK3" ><rect   width="55.87" height="20"/><text   transform="translate(27.93 10)"    >MAPK3</text></g><g id="c747f" class="Protein " transform="translate(8.67 8)"  name="MAPK1" ><rect   width="54" height="20"/><g id="f0c95" class="State Burr" transform="translate(45.75 11.08)"  name="P" ><g class="State Burr"><use class="State Burr Node Icon" width="16.5" height="17.83" fill="#ff0" stroke="#000" href="#Ellipse"/></g><g ><defs><clipPath ><rect x="-8.25" y="-8.92" width="16.5" height="17.83" style="stroke:none"/></clipPath></defs><text   transform="translate(8.25 8.92)"  font-family="arial" overflow="visible" style="font-size:10px">P</text></g></g><text   transform="translate(27,10)"    >MAPK1</text></g></g></g><g id="id19ee3408" class="Edge"  ><path    d="m452.33 521.67 47.67-0.67" stroke-width="2" style="stroke:#0c0;marker-end:none"/></g><g id="id7a131319" class="Edge"  ><path    d="m190.33 640.67-44.33-0.67" stroke-width="2" style="stroke:#0c0;marker-end:none"/></g><g id="aa4f3" class="Label" transform="translate(561,952.5)"  name="Protein" ><rect   width="61" height="20"/><text   transform="translate(30.5,10)"    >Protein</text></g><g id="d3ba7" class="Label" transform="translate(168 144.33)"  name="IL-9 signaling pathway" ><g class="Label"/><text   transform="translate(127.33 17.33)"     style="font-size:20px">IL-9 signaling pathway</text></g><g id="a267a" class="Edge"  ><path    d="m319.67 409-0.5 102" stroke-width="2" style="stroke:#0c0;marker-end:url(#mea0c0)"/></g><g id="c562c" class="Edge"  ><path    d="m270.67 409-0.25 103" stroke-width="2" style="stroke:#0c0;marker-end:url(#mea0c0)"/></g><g id="ddb23" class="Edge"  ><path    d="m215.33 650.67 1 66" stroke-width="2" style="stroke:#0c0;marker-end:url(#mea0c0)"/></g><g id="b41d4" class="GroupGroup" transform="translate(238.67 227)"  ><g class="GroupGroup"><g id="ad093" class="Edge"  ><path    d="m54.33 28 0.67 37" stroke-width="3" style="stroke:#f39;marker-end:none"/></g><g id="a9793" class="Edge"  ><path    d="m32 106-6.8e-13 56" stroke-width="3" style="marker-end:none"/></g><g id="eceac" class="Edge"  ><path    d="m81 104-9.1e-13 58" stroke-width="3" style="marker-end:none"/></g><g id="cbca1" class="" transform="translate(41 65)"  ><g class=""><use class=" Node Icon" width="28" height="28" fill="#ff3399" stroke="#ff0066" href="#Ellipse"/></g></g><g id="a3c05" class="" transform="translate(17 75)"  ><g class=""><use class=" Node Icon" transform="matrix(0.91 0 0 0.91 1.36 1.37)" width="30" height="31" fill="transparent" stroke="#000" stroke-width="3" href="#ArcPathVisio"/></g></g><g id="f719c" class="" transform="translate(66 73)"  ><g class=""><use class=" Node Icon" transform="matrix(0.91 0 0 0.91 1.36 1.37)" width="30" height="31" fill="transparent" stroke="#000" stroke-width="3" href="#ArcPathVisio"/></g></g><g id="af61f" class="Protein " transform="translate(37.67 8)"  name="IL9" ><rect   width="33.33" height="20"/><text   transform="translate(16.67 10)"    >IL9</text></g><g id="c6ecc" class="Protein " transform="translate(8,162)"  name="IL2RG" ><rect   width="48" height="20"/><text   transform="translate(24,10)"    >IL2RG</text></g><g id="bde62" class="Protein " transform="translate(57 162)"  name="IL9R" ><rect   width="48" height="20"/><g id="d5801" class="State Burr" transform="translate(-8.25,11.25)"  name="P" ><g class="State Burr"><use class="State Burr Node Icon" width="16.5" height="17.5" fill="#ff0" stroke="#000" href="#Ellipse"/></g><g ><defs><clipPath ><rect x="-8.25" y="-8.75" width="16.5" height="17.5" style="stroke:none"/></clipPath></defs><text   transform="translate(8.25,8.75)"  font-family="arial" overflow="visible" style="font-size:10px">P</text></g></g><text   transform="translate(24,10)"    >IL9R</text></g></g></g><g id="ec036" class="Edge"  ><path    d="m294.67 399 2.75e-12 169" stroke-dasharray="5,3" stroke-width="2" style="marker-end:none"/></g><g id="a7807" class="Edge"  ><path    d="m216.33 736.67v66" stroke-dasharray="5,3" stroke-width="2"/></g><g id="b5fa0" class="Edge"  ><path    d="m500 521 0.33 68.67" stroke-width="2" style="stroke:#0c0;marker-end:url(#mea0c0)"/></g><g id="fa7d0" class="Edge"  ><path    d="m399.67 571v173.67" stroke-dasharray="5,3" stroke-width="2"/></g><g id="a0320" class="Edge"  ><path    d="m299.67 938 1-24" stroke-width="3" style="stroke:#f0f;marker-end:url(#meaf0f)"/></g><g id="bbaf1" class="Edge"  ><path    d="m229.67 938 1-24" stroke-width="3" style="stroke:#f0f;marker-end:url(#meaf0f)"/></g><g id="a1cb6" class="Edge"  ><path    d="m216 570-0.67 60.67" stroke-dasharray="5,3" stroke-width="2"/></g><g id="e64e6" class="Edge"  ><path    d="m230.67 931v15" stroke-width="3" style="stroke:#f0f;marker-end:url(#meaf0f)"/></g><g id="e3673" class="Edge"  ><path    d="m362.67 521 49.67 0.67" stroke-width="2" style="stroke:#00f;marker-end:url(#mea00f)"/></g><g id="e0524" class="Edge"  ><path    d="m284.67 845.67-0.95 183.29" stroke-dasharray="5,3" stroke-width="2" style="stroke:#0cc;marker-end:url(#mea0cc)"/></g><g id="ec286" class="Edge"  ><path    d="m247 505.33 6.67 6.67" stroke-width="2" style="stroke:#00f;marker-end:url(#mea00f)"/></g><g id="fc7c2" class="Edge"  ><path    d="m216.33 844.67v184" stroke-dasharray="5,3" stroke-width="2" style="stroke:#0cc;marker-end:url(#mea0cc)"/></g><g id="a54b8" class="Edge"  ><path    d="m217.67 570h182" stroke-dasharray="5,3" stroke-width="2" style="marker-end:none"/></g><g id="b6e9d" class="Edge"  ><path    d="m326.67 571-0.33 144.67" stroke-dasharray="5,3" stroke-width="2"/></g><g id="b3e08" class="Edge"  ><path    d="m399.83 786.67-0.17 64" stroke-dasharray="5,3" stroke-width="2"/></g><g id="f3eed" class="Edge"  ><path    d="m350 504.33 6.67 6.67" stroke-width="2" style="stroke:#00f;marker-end:url(#mea00f)"/></g><g id="f3bcb" class="Edge"  ><path    d="m161 937-0.33-22" stroke-width="3" style="stroke:#f0f;marker-end:url(#meaf0f)"/></g><g id="c9658" class="Edge"  ><path    d="m300 930v16" stroke-width="3" style="stroke:#f0f;marker-end:url(#meaf0f)"/></g><g id="ceb68" class="Edge"  ><path    d="m146.67 781-0.33 247" stroke-dasharray="5,3" stroke-width="2" style="stroke:#0cc;marker-end:url(#mea0cc)"/></g><g id="c0604" class="Edge"  ><path    d="m146 641 0.67 120" stroke-width="2" style="stroke:#0c0;marker-end:url(#mea0c0)"/></g><g id="af4c1" class="Edge"  ><path    d="m284.67 572v230" stroke-dasharray="5,3" stroke-width="2"/></g><g id="e860a" class="Edge"  ><path    d="m160.67 931v16" stroke-width="3" style="stroke:#f0f;marker-end:url(#meaf0f)"/></g><g id="a537f" class="Edge"  ><path    d="m432.33 531.67 0.33 58.33" stroke-width="2" style="stroke:#0c0;marker-end:url(#mea0c0)"/></g><g id="f23a8" class="" transform="translate(234.88 499.67) rotate(146.38 7.45 10)"  ><g class=""><use class=" Node Icon" width="14.91" height="20" fill="transparent" stroke="#00f" stroke-width="2" href="#ArcPathVisio"/></g></g><g id="ef732" class="" transform="translate(337.88 498.67) rotate(146.38 7.45 10)"  ><g class=""><use class=" Node Icon" width="14.91" height="20" fill="transparent" stroke="#00f" stroke-width="2" href="#ArcPathVisio"/></g></g><g id="f6c40" class="Label" transform="translate(120.67 895)"  name="CY" ><g class="Label"/><text   transform="translate(40,10)"     style="fill:#f0f">CY</text></g><g id="fc958" class="Label" transform="translate(260.67 895)"  name="CY" ><g class="Label"/><text   transform="translate(40,10)"     style="fill:#f0f">CY</text></g><g id="bd212" class="Label" transform="translate(190.67 895)"  name="CY" ><g class="Label"/><text   transform="translate(40,10)"     style="fill:#f0f">CY</text></g><g id="a6bc7" class="Label" transform="translate(120.67 947)"  name="NU" ><g class="Label"/><text   transform="translate(40,10)"     style="fill:#f0f">NU</text></g><g id="bf8cf" class="Label" transform="translate(190.67 947)"  name="NU" ><g class="Label"/><text   transform="translate(40,10)"     style="fill:#f0f">NU</text></g><g id="b0b00" class="Label" transform="translate(260.67 947)"  name="NU" ><g class="Label"/><text   transform="translate(40,10)"     style="fill:#f0f">NU</text></g><g id="d2168" class="Protein " transform="translate(409.33 590)"  name="GRB2" ><rect   width="46.67" height="20"/><text   transform="translate(23.33 10)"    >GRB2</text></g><g id="bf3fd" class="GroupGroup" transform="translate(465 581.67)"  ><g class="GroupGroup"><g id="f149a" class="Protein " transform="translate(8,31)"  name="PIK3R2" ><rect   width="54.33" height="20"/><text   transform="translate(27.17 10)"    >PIK3R2</text></g><g id="b5564" class="Protein " transform="translate(8.67 8)"  name="PIK3R1" ><rect   width="53.33" height="20"/><text   transform="translate(26.67 10)"    >PIK3R1</text></g></g></g><g id="c8cda" class="GroupGroup" transform="translate(183.33 1020.7)"  ><g class="GroupGroup"><g id="fc03c" class="Protein " transform="translate(8,30)"  name="STAT1" ><rect   width="50" height="20"/><text   transform="translate(25,10)"    >STAT1</text></g><g id="ba4d3" class="Protein " transform="translate(8,8)"  name="STAT1" ><rect   width="50" height="20"/><g id="a178c" class="State Burr" transform="translate(42.5,12.5)"  name="P" ><g class="State Burr"><use class="State Burr Node Icon" width="15" height="15" fill="#ff0" stroke="#000" href="#Ellipse"/></g><g ><defs><clipPath ><rect x="-7.5" y="-7.5" width="15" height="15" style="stroke:none"/></clipPath></defs><text   transform="translate(7.5,7.5)"  font-family="arial" overflow="visible" style="font-size:10px">P</text></g></g><text   transform="translate(25,10)"    >STAT1</text></g></g></g><g id="d9dbe" class="Protein " transform="translate(296.33 715.67)"  name="STAT5A" ><rect   width="60" height="20"/><g id="b7267" class="State Burr" transform="translate(53.5 12.62)"  name="P" ><g class="State Burr"><use class="State Burr Node Icon" width="13" height="14.75" fill="#ff0" stroke="#000" href="#Ellipse"/></g><g ><defs><clipPath ><rect x="-6.5" y="-7.38" width="13" height="14.75" style="stroke:none"/></clipPath></defs><text   transform="translate(6.5 7.38)"  font-family="arial" overflow="visible" style="font-size:10px">P</text></g></g><text   transform="translate(30,10)"    >STAT5A</text></g><g id="f133e" class="Protein " transform="translate(191.33 716.67)"  name="STAT1" ><rect   width="50" height="20"/><text   transform="translate(25,10)"    >STAT1</text></g><g id="dd41a" class="Protein " transform="translate(412.33 511.67)"  name="IRS1" ><rect   width="40" height="20"/><text   transform="translate(20,10)"    >IRS1</text></g><g id="c4d72" class="Protein " transform="translate(227.67 512)"  name="JAK3" ><rect   width="57" height="20"/><text   transform="translate(28.5,10)"    >JAK3</text></g><g id="a08fa" class="Protein " transform="translate(190.33 630.67)"  name="STAT1" ><rect   width="50" height="20"/><g id="e788d" class="State Burr" transform="translate(42.46 11.62)"  name="P" ><g class="State Burr"><use class="State Burr Node Icon" width="15.08" height="16.75" fill="#ff0" stroke="#000" href="#Ellipse"/></g><g ><defs><clipPath ><rect x="-7.54" y="-8.38" width="15.08" height="16.75" style="stroke:none"/></clipPath></defs><text   transform="translate(7.54 8.38)"  font-family="arial" overflow="visible" style="font-size:10px">P</text></g></g><text   transform="translate(25,10)"    >STAT1</text></g><g id="a8288" class="GroupGroup" transform="translate(248.71 1021)"  ><g class="GroupGroup"><g id="f6eb6" class="Protein " transform="translate(8.95 30.71)"  name="STAT5B" ><rect   width="54" height="20"/><text   transform="translate(27 10)"    >STAT5B</text></g><g id="fbd08" class="Protein " transform="translate(8,8)"  name="STAT5B" ><rect   width="54" height="20"/><g id="de4a3" class="State Burr" transform="translate(46.5 12.5)"  name="P" ><g class="State Burr"><use class="State Burr Node Icon" width="15" height="15" fill="#ff0" stroke="#000" href="#Ellipse"/></g><g ><defs><clipPath ><rect x="-7.5" y="-7.5" width="15" height="15" style="stroke:none"/></clipPath></defs><text   transform="translate(7.5,7.5)"  font-family="arial" overflow="visible" style="font-size:10px">P</text></g></g><text   transform="translate(27 10)"    >STAT5B</text></g></g></g><g id="e29b3" class="GroupGroup" transform="translate(360.67 736.67)"  ><g class="GroupGroup"><g id="d2866" class="Protein " transform="translate(8,30)"  name="MAP2K2" ><rect   width="62.33" height="20"/><text   transform="translate(31.17 10)"    >MAP2K2</text></g><g id="fbbe4" class="Protein " transform="translate(8,8)"  name="MAP2K1" ><rect   width="62" height="20"/><g id="ded46" class="State Burr" transform="translate(54.71 12.88)"  name="P" ><g class="State Burr"><use class="State Burr Node Icon" width="14.58" height="14.25" fill="#ff0" stroke="#000" href="#Ellipse"/></g><g ><defs><clipPath ><rect x="-7.29" y="-7.12" width="14.58" height="14.25" style="stroke:none"/></clipPath></defs><text   transform="translate(7.29 7.12)"  font-family="arial" overflow="visible" style="font-size:10px">P</text></g></g><text   transform="translate(31 10)"    >MAP2K1</text></g></g></g><g id="af745" class="Protein " transform="translate(304.67 511)"  name="JAK1" ><rect   width="58" height="20"/><text   transform="translate(29,10)"    >JAK1</text></g><g id="aa425" class="Protein " transform="translate(119.67 761)"  name="STAT3" ><rect   width="54" height="20"/><g id="f8b77" class="State Burr" transform="translate(45.96 12.62)"  name="P" ><g class="State Burr"><use class="State Burr Node Icon" width="16.08" height="14.75" fill="#ff0" stroke="#000" href="#Ellipse"/></g><g ><defs><clipPath ><rect x="-8.04" y="-7.38" width="16.08" height="14.75" style="stroke:none"/></clipPath></defs><text   transform="translate(8.04 7.38)"  font-family="arial" overflow="visible" style="font-size:10px">P</text></g></g><text   transform="translate(27,10)"    >STAT3</text></g><g id="e6a47" class="GroupGroup" transform="translate(183.33 794.67)"  ><g class="GroupGroup"><g id="be3dd" class="Protein " transform="translate(8,30)"  name="STAT1" ><rect   width="50" height="20"/><text   transform="translate(25,10)"    >STAT1</text></g><g id="cda5c" class="Protein " transform="translate(8,8)"  name="STAT1" ><rect   width="50" height="20"/><g id="c3e6b" class="State Burr" transform="translate(42.5,12.5)"  name="P" ><g class="State Burr"><use class="State Burr Node Icon" width="15" height="15" fill="#ff0" stroke="#000" href="#Ellipse"/></g><g ><defs><clipPath ><rect x="-7.5" y="-7.5" width="15" height="15" style="stroke:none"/></clipPath></defs><text   transform="translate(7.5,7.5)"  font-family="arial" overflow="visible" style="font-size:10px">P</text></g></g><text   transform="translate(25,10)"    >STAT1</text></g></g></g><g id="db428" class="Label" transform="translate(812,471)"  name="mRNA" ><rect   width="41" height="20"/><text   transform="translate(20.5,10)"    font-style="italic" >mRNA</text></g><g id="c15f6" class="Label" transform="translate(561,470.5)"  name="Ligand" ><rect   width="51" height="20"/><text   transform="translate(25.5,10)"    >Ligand</text></g><g id="d09ae" class="Label" transform="translate(734,471.5)"  name="Protein" ><rect   width="69" height="20"/><text   transform="translate(34.5,10)"    >Protein</text></g><g id="c6e02" class="Label" transform="translate(733,518.5)"  name="Enzyme complex" ><rect   width="121" height="20" style="fill:#cf3"/><text   transform="translate(60.5,10)"    >Enzyme complex</text></g><g id="dd44d" class="Label" transform="translate(623,518)"  name="Receptor" ><rect   width="76" height="20"/><text   transform="translate(38,10)"    >Receptor</text></g><g id="d1732" class="Edge"  ><path    d="m563 920h65" stroke-width="2" style="stroke:#f03;marker-end:url(#meminhibitionff0033white)"/></g><g id="bdbbe" class="Edge"  ><path    d="m563 821 58 0.50" stroke-width="2" style="stroke:#90c;marker-end:url(#mea9900cc)"/></g><g id="a9f70" class="Edge"  ><path    d="m618 1012-1-24" stroke-width="3" style="stroke:#f0f;marker-end:url(#meaf0f)"/></g><g id="df505" class="Edge"  ><path    d="m563 801.66h58" stroke-width="2" style="stroke:#c0c;marker-end:url(#meac0c)"/></g><g id="dd7f2" class="Edge"  ><path    d="m563 761.66h58" stroke-width="2" style="stroke:#990;marker-end:url(#mea999900)"/></g><g id="ce7ab" class="Edge"  ><path    d="m564 940 58 0.50" stroke-dasharray="5,3" stroke-width="2" style="stroke:#0cc;marker-end:url(#mea0cc)"/></g><g id="c2fa6" class="Edge"  ><path    d="m563 741.66h58" stroke-width="2" style="stroke:#0ff;marker-end:url(#mea0ff)"/></g><g id="e9889" class="Edge"  ><path    d="M586.5,490.5L586,510" stroke-width="3" style="stroke:#f39;marker-end:none"/></g><g id="a4c02" class="Edge"  ><path    d="m563 681 58 0.66" stroke-width="2" style="stroke:#fc3;marker-end:url(#meaffcc33)"/></g><g id="dd4b6" class="Edge"  ><path    d="m661 494v24" stroke-width="3" style="marker-end:none"/></g><g id="adb4a" class="Edge"  ><path    d="m618 1004v15" stroke-width="3" style="stroke:#f0f;marker-end:url(#meaf0f)"/></g><g id="f152b" class="" transform="translate(646,463)"  ><g class=""><use class=" Node Icon" transform="matrix(0.91 0 0 0.91 1.36 1.37)" width="30" height="31" fill="transparent" stroke="#000" stroke-width="3" href="#ArcPathVisio"/></g></g><g id="cc4d5" class="" transform="translate(572,510)"  ><g class=""><use class=" Node Icon" width="28" height="28" fill="#ff3399" stroke="#ff0066" href="#Ellipse"/></g></g><g id="f6b7f" class="Label" transform="translate(644,910)"  name="Inhibition" ><g class="Label"/><text   transform="translate(33,10)"    >Inhibition</text></g><g id="ea116" class="Label" transform="translate(647,651)"  name="Auto catalysis" ><g class="Label"/><text   transform="translate(47,10)"    >Auto catalysis</text></g><g id="ae44c" class="Label" transform="translate(644,931)"  name="Transport" ><g class="Label"/><text   transform="translate(33,10)"    >Transport</text></g><g id="c54c2" class="Label" transform="translate(646.33 606)"  name="Positive regulation of gene expression" ><g class="Label"/><text   transform="translate(123.5,10)"    >Positive regulation of gene expression</text></g><g id="d2355" class="Label" transform="translate(650.33 585)"  name="Leads to through unknown mechanism" ><g class="Label"/><text   transform="translate(121.5,10)"    >Leads to through unknown mechanism</text></g><g id="bed0a" class="Label" transform="translate(648.33 627)"  name="Negative regulation of gene expression" ><g class="Label"/><text   transform="translate(123.5,10)"    >Negative regulation of gene expression</text></g><g id="d1859" class="Label" transform="translate(647,993)"  name="Translocation" ><g class="Label"/><text   transform="translate(46,10)"    >Translocation</text></g><g id="f380f" class="Label" transform="translate(647,790)"  name="Ubiquitination" ><g class="Label"/><text   transform="translate(46.83 10)"    >Ubiquitination</text></g><g id="a6742" class="Label" transform="translate(645.67 811)"  name="Deubiquitination" ><g class="Label"/><text   transform="translate(55.5,10)"    >Deubiquitination</text></g><g id="f94ba" class="Label" transform="translate(645,750)"  name="Sumoylation" ><g class="Label"/><text   transform="translate(43,10)"    >Sumoylation</text></g><g id="bd7f0" class="Label" transform="translate(645,951)"  name="Induced catalysis" ><g class="Label"/><text   transform="translate(55.5,10)"    >Induced catalysis</text></g><g id="b609e" class="Label" transform="translate(649,565)"  name="Protein-protein interaction" ><g class="Label"/><text   transform="translate(86.33 10)"    >Protein-protein interaction</text></g><g id="e177a" class="Label" transform="translate(649,671)"  name="Acetylation" ><g class="Label"/><text   transform="translate(37,10)"    >Acetylation</text></g><g id="a0c07" class="Label" transform="translate(644.67 730)"  name="Dephosphorylation" ><g class="Label"/><text   transform="translate(63.5,10)"    >Dephosphorylation</text></g><g id="e7c49" class="Label" transform="translate(678,424)"  name="LEGEND" ><g class="Label"/><text   transform="translate(40,10)"     style="fill:#3333ff;font-size:14px">LEGEND</text></g><g id="c0d65" class="Label" transform="translate(644.67 711)"  name="Phosphorylation" ><g class="Label"/><text   transform="translate(55.5,10)"    >Phosphorylation</text></g><g id="f7d56" class="Edge"  ><path    d="m563 721.66h58" stroke-width="2" style="stroke:#00f;marker-end:url(#mea00f)"/></g><g id="ee1b2" class="Edge"  ><path    d="m563 701.66h58" stroke-width="2" style="stroke:#f93;marker-end:url(#meaff9933)"/></g><g id="a5731" class="Label" transform="translate(647,692)"  name="Deacetylation" ><g class="Label"/><text   transform="translate(44.5,10)"    >Deacetylation</text></g><g id="b0c82" class="" transform="translate(548,420)"  ><g class=""><rect   width="355" height="764" style="fill:transparent"/></g></g><g id="e5ae0" class="Label" transform="translate(645.17 1123.7)"  name="Golgi apparatus" ><g class="Label"/><text   transform="translate(53.17 8)"    >Golgi apparatus</text></g><g id="b91d4" class="Label" transform="translate(646 1088.7)"  name="Endosome" ><g class="Label"/><text   transform="translate(35.67 8)"    >Endosome</text></g><g id="e8956" class="Label" transform="translate(646.67 1160.7)"  name="Nucleus" ><g class="Label"/><text   transform="translate(27.67 8)"    >Nucleus</text></g><g id="ea9fb" class="Label" transform="translate(645.83 1141.7)"  name="Mitochondrion" ><g class="Label"/><text   transform="translate(48.17 8)"    >Mitochondrion</text></g><g id="a9574" class="Edge"  ><path    d="m562 781 59 0.50" stroke-width="2" style="stroke:#cc0;marker-end:url(#meacc0)"/></g><g id="faba9" class="Label" transform="translate(647,770)"  name="Desumoylation" ><g class="Label"/><text   transform="translate(49.5,10)"    >Desumoylation</text></g><g id="a83f8" class="Edge"  ><path    d="m563 841.66h58" stroke-width="2" style="stroke:#700;marker-end:url(#mea770000)"/></g><g id="fa258" class="Label" transform="translate(648,832)"  name="Methylation" ><g class="Label"/><text   transform="translate(37.5,10)"    >Methylation</text></g><g id="ccc2e" class="Edge"  ><path    d="m563 861.66h58" stroke-width="2" style="stroke:#775200;marker-end:url(#mea775200)"/></g><g id="e8aa6" class="Label" transform="translate(648,852)"  name="Demethylation" ><g class="Label"/><text   transform="translate(46.5,10)"    >Demethylation</text></g><g id="e1f3b" class="Edge"  ><path    d="m563 881.66h58" stroke-width="2" style="stroke:#f66;marker-end:url(#meaff6666)"/></g><g id="e008b" class="Label" transform="translate(648,871)"  name="Palmitoylation" ><g class="Label"/><text   transform="translate(45,10)"    >Palmitoylation</text></g><g id="bde0d" class="Label" transform="translate(645 1049.7)"  name="Cytoplasm" ><g class="Label"/><text   transform="translate(35.67 8)"    >Cytoplasm</text></g><g id="e655b" class="Label" transform="translate(600.83 1070.7)"  name="EC" ><g class="Label"/><text   transform="translate(11.17 8)"     style="fill:#f0f">EC</text></g><g id="aad8b" class="Label" transform="translate(646 1029.7)"  name="Plasma membrane" ><g class="Label"/><text   transform="translate(60.33 8)"    >Plasma membrane</text></g><g id="f5ed6" class="Label" transform="translate(600.83 1140.7)"  name="MT" ><g class="Label"/><text   transform="translate(12.17 8)"     style="fill:#f0f">MT</text></g><g id="eb785" class="Label" transform="translate(646.5 1106.7)"  name="Endoplasmic reticulum" ><g class="Label"/><text   transform="translate(75.17 8)"    >Endoplasmic reticulum</text></g><g id="a55b6" class="Label" transform="translate(600.83 1049.7)"  name="CY" ><g class="Label"/><text   transform="translate(11.17 8)"     style="fill:#f0f">CY</text></g><g id="d4a1c" class="Label" transform="translate(600.33 1030.7)"  name="PM" ><g class="Label"/><text   transform="translate(12.67 8)"     style="fill:#f0f">PM</text></g><g id="f4115" class="Label" transform="translate(599.33 1123.7)"  name="GO" ><g class="Label"/><text   transform="translate(12.67 8)"     style="fill:#f0f">GO</text></g><g id="d1e98" class="Label" transform="translate(600.33 1160.7)"  name="NU" ><g class="Label"/><text   transform="translate(11.67 8)"     style="fill:#f0f">NU</text></g><g id="c5918" class="Label" transform="translate(644.5 1068.7)"  name="Extracellular" ><g class="Label"/><text   transform="translate(43.17 8)"    >Extracellular</text></g><g id="e3f9a" class="Label" transform="translate(600.83 1106.7)"  name="ER" ><g class="Label"/><text   transform="translate(11.17 8)"     style="fill:#f0f">ER</text></g><g id="e6ab2" class="Label" transform="translate(600.83 1089.7)"  name="EN" ><g class="Label"/><text   transform="translate(11.17 8)"     style="fill:#f0f">EN</text></g><g id="fb919" class="Edge"  ><path    d="m563 901.66h58" stroke-width="2" style="stroke:#999;marker-end:url(#mea999)"/></g><g id="a8d2f" class="Label" transform="translate(647,891)"  name="Proteolytic cleavage" ><g class="Label"/><text   transform="translate(61,10)"    >Proteolytic cleavage</text></g><g id="aa873" class="Edge"  ><path    d="m588 636h33" stroke-width="2" style="marker-end:url(#memtranscriptiontranslation000)"/></g><g id="f6d74" class="Edge"  ><path    d="m564 636h25" stroke-width="2" style="marker-end:url(#markerendtbar000)"/></g><g id="b7122" class="Edge"  ><path    d="m562 613h58" stroke-width="2" style="marker-end:url(#memtranscriptiontranslation000)"/></g><g id="d0d53" class="Edge"  ><path    d="m562 575h58" stroke-width="2" style="stroke:#0c0;marker-end:url(#mea0c0)"/></g><g id="d27bc" class="Edge"  ><path    d="m562 595h58" stroke-dasharray="5,3" stroke-width="2"/></g><g id="f25d5" class="Edge"  ><path    d="m609.33 661.33 6.67 6.67" stroke-width="2"/></g><g id="e206a" class="" transform="translate(597.21 654.67) rotate(146.38 7.45 10)"  ><g class=""><use class=" Node Icon" width="14.91" height="20" fill="transparent" stroke="#000" stroke-width="2" href="#ArcPathVisio"/></g></g><g id="ebfb3" class="" transform="translate(616,965)"  ><g class=""><use class=" Node Icon" width="15" height="15" fill="#fff" stroke="#000" href="#Ellipse"/></g></g></g></g></g></svg>