<?xml version="1.0" encoding="UTF-8"?>
<svg xmlns="http://www.w3.org/2000/svg" id="-svg" class="Diagram"  baseProfile="full" prefix="schema:http://schema.org/" preserveAspectRatio="xMidYMid"  version="1.1"><defs><g id="icon-defs"><symbol id="Ellipse" class=" Icon Ellipse" x="0" y="0" overflow="visible" preserveAspectRatio="none" viewBox="0 0 50 50"><desc>Ellipse</desc><ellipse cx="25" cy="25" rx="25" ry="25" vector-effect="non-scaling-stroke"/></symbol></g><g id="marker-defs"><marker id="markerstartarrow000" markerHeight="12" markerWidth="12" orient="auto" preserveAspectRatio="none" refY="6" viewBox="0 0 12 12"><g id="g-markerstartarrow000" transform="rotate(180 6 6)"><g transform="rotate(180 6 6)"><rect y="5.4" width="2" height="1.2" style="stroke:#fff"/><polygon points="12 11 0 6 12 1" stroke-width="0"/></g></g></marker><marker id="mea" markerHeight="12" markerWidth="12" orient="auto" preserveAspectRatio="none" refX="12" refY="6" viewBox="0 0 12 12"><g id="g-mea" transform=""><g transform="rotate(180 6 6)"><rect y="5.4" width="2" height="1.2" style="stroke:#fff"/><polygon points="12 11 0 6 12 1" stroke-width="0"/></g></g></marker><marker id="markerendtbar000" markerHeight="20" markerWidth="10" orient="auto" preserveAspectRatio="none" refX="10" refY="10" viewBox="0 0 10 20"><g id="g-markerendtbar000" transform=""><g transform="rotate(180 5 10)"><rect y="9" width="8" height="2" style="stroke:none"/><line x="0" y="0" width="12" height="12" x1="7" x2="7" y2="20" stroke="#000" stroke-width="1.8"/></g></g></marker><marker id="mea999" markerHeight="12" markerWidth="12" orient="auto" preserveAspectRatio="none" refX="12" refY="6" viewBox="0 0 12 12"><g id="g-mea999" transform=""><g transform="rotate(180 6 6)"><rect y="5.4" width="2" height="1.2" style="stroke:#fff"/><polygon points="12 11 0 6 12 1" fill="#999" stroke-width="0"/></g></g></marker></g></defs><g id="viewport-20220102140508367" class="svg-pan-zoom_viewport" transform="matrix(1.06 0 0 1.06 0 96.50)" style="transform:matrix(1.06, 0, 0, 1.06, 0, 96.51)"><style>svg.Diagram {font-family: 'Liberation Sans', Arial, sans-serif; }.Diagram path {fill: transparent;stroke: #000;marker-end: url(#mea);}.Diagram symbol path {fill: inherit;stroke: inherit;stroke-width: inherit;marker-end: inherit;}.Diagram rect {fill: #fff;stroke: #000;}.Diagram text {dominant-baseline: central;overflow: hidden;text-anchor: middle;fill: #000;font-size: 10px;}</style><style type="text/css">.Viewport .textContent {
  pointer-events: none;
  stroke-width: 0px;
}

					.Viewport.Icon {
  fill: white;
}

/* Hide the InfoBox */
.Viewport.textContent {
  font-size: 0;
}

.textContent {
  stroke: none;
}

.DataNode {
  stroke-miterlimit: 1;
  pointer-events: auto;
}

.DataNode:hover {
  cursor: pointer;
}

/* TODO should this apply to things other than DataNodes? */
.DataNode.textContent {
  pointer-events: none;
}

.DataNode.Highlighted {
  opacity: 0.6;
  stroke-width: 0px;
}

marker {
  /* this is what should work per the spec
  stroke-dasharray: none; */
  /* but I need to add this to make it work in Safari */
  stroke-dasharray: 9999999999999999999999999;
}

.Citation.Icon {
  fill: none;
  stroke-width: 0px;
}

.Citation.textContent {
  text-align: center;
  vertical-align: top;
  font-size: 7px;
  fill: #999;
  fill-opacity: 1;
  stroke: none;
}</style><g id="WP2406" class="Pathway http___identifiers_org_pw_PW_0000004 Viewport"  name="Name: Cardiac progenitor differentiation Last Modified: 10/17/2013 Organism: Homo sapiens" ><g class="Pathway http___identifiers_org_pw_PW_0000004 Viewport"><rect   width="1137" height="451" style="stroke:none"/><g id="id21a400a0" class="Edge"  ><path    d="m734 195v-18.23h23.60v-19.96" style="marker-end:none"/></g><g id="idbb99a6d5" class="Edge"  ><path    d="m183 249h92" stroke-width="3"/></g><g id="id2f1f0664" class="Edge"  ><path    d="m473 68 0.75 45"/></g><g id="id324e2aec" class="Edge"  ><path    d="m510 249v-50h-96v50" marker-start="url(#markerstartarrow000)"/><g id="d5533" class="AB" transform="translate(458,199)"  ><g class="AB"/></g></g><g id="id38803442" class="Edge"  ><path    d="m458.5 133-0.5 66" style="marker-end:none"/><g id="d7b2c" class="AB" transform="translate(458.39 148.15)"  ><g class="AB"/></g></g><g id="id40f02218" class="Edge"  ><path    d="m434 148 24.39 0.15" style="marker-end:url(#markerendtbar000)"/></g><g id="id53e4ab04" class="Edge"  ><path    d="M444,60.75L425,61"/></g><g id="id5920670c" class="Edge"  ><path    d="m425 47 19-0.75"/></g><g id="id80102d17" class="Edge"  ><path    d="m824.5 138-1.5 111"/></g><g id="idb34da48e" class="Edge"  ><path    d="m757.6 156.81v20h22.40v18.19"/></g><g id="idc37d1d45" class="Edge"  ><path    d="m370 196v53" style="marker-end:url(#markerendtbar000)"/></g><g id="id699be87" class="Edge"  ><path    d="m900.81 149.13v19.63h31.43v26.24"/></g><g id="ide95b5693" class="Edge"  ><path    d="m868.75 195v-26.29h32.06v-19.58" style="marker-end:none"/></g><g id="bef0b" class="" transform="translate(1006.9 238.34) rotate(-10.33 39.87 12.65)"  ><g class=""><rect   width="79.73" height="25.29" style="fill:#f33;stroke:#c00"/></g></g><g id="e27cd" class="GroupGroup" transform="translate(106,250)"  ><g class="GroupGroup"><g id="e1910" class="" transform="translate(8,8)"  ><g class=""><use class=" Node Icon" width="30" height="30" fill="#999" stroke="#666666" stroke-width="2" href="#Ellipse"/></g></g><g id="b9a38" class="" transform="translate(12,11.75)"  ><g class=""><use class=" Node Icon" width="20.75" height="20.75" fill="#ccc" stroke="#999" stroke-width="2" href="#Ellipse"/></g></g></g></g><g id="a8901" class="Label" transform="translate(180,227)"  name="Hypoxia" ><g class="Label"/><text   transform="translate(40,11.5)"     style="font-size:12px">Hypoxia</text></g><g id="e7e3f" class="Label" transform="translate(82,202)"  name="ES/IPS cells" ><g class="Label"/><text   transform="translate(56,13)"    font-weight="bold"  style="font-size:15px">ES/IPS cells</text></g><g id="df69d" class="Metabolite " transform="translate(952.04 150.14)"  name="Retinoic acid" ><rect   width="71" height="20" style="stroke:#00f"/><text   transform="translate(35.5,10)"     style="fill:#00f">Retinoic acid</text></g><g id="e7845" class="GeneProduct " transform="translate(339,176)"  name="INS" ><rect   width="62" height="20"/><text   transform="translate(31,10)"    >INS</text></g><g id="fceee" class="GeneProduct " transform="translate(35,245)"  name="POU5F1" ><rect   width="67" height="20"/><text   transform="translate(33.5,10)"    >POU5F1</text></g><g id="ba4f9" class="GeneProduct " transform="translate(35,265)"  name="NANOG" ><rect   width="67" height="20"/><text   transform="translate(33.5,10)"    >NANOG</text></g><g id="b43e5" class="GeneProduct " transform="translate(35,285)"  name="SOX2" ><rect   width="67" height="20"/><text   transform="translate(33.5,10)"    >SOX2</text></g><g id="b18e4" class="GeneProduct " transform="translate(35,305)"  name="LIN28A" ><rect   width="67" height="20"/><text   transform="translate(33.5,10)"    >LIN28A</text></g><g id="b265a" class="GeneProduct " transform="translate(177,266)"  name="LIN28B" ><rect   width="67" height="20"/><text   transform="translate(33.5,10)"    >LIN28B</text></g><g id="af6bf" class="GeneProduct " transform="translate(177,286)"  name="ZFP42" ><rect   width="67" height="20"/><text   transform="translate(33.5,10)"    >ZFP42</text></g><g id="dad40" class="GeneProduct " transform="translate(177,306)"  name="THY1" ><rect   width="67" height="20"/><text   transform="translate(33.5,10)"    >THY1</text></g><g id="f9710" class="GroupGroup" transform="translate(136,246)"  ><g class="GroupGroup"><g id="f412b" class="" transform="translate(8,8)"  ><g class=""><use class=" Node Icon" width="30" height="30" fill="#999" stroke="#666666" stroke-width="2" href="#Ellipse"/></g></g><g id="a20dc" class="" transform="translate(12,11.75)"  ><g class=""><use class=" Node Icon" width="20.75" height="20.75" fill="#ccc" stroke="#999" stroke-width="2" href="#Ellipse"/></g></g></g></g><g id="be55f" class="GroupGroup" transform="translate(100,222)"  ><g class="GroupGroup"><g id="b5c11" class="" transform="translate(8,8)"  ><g class=""><use class=" Node Icon" width="30" height="30" fill="#999" stroke="#666666" stroke-width="2" href="#Ellipse"/></g></g><g id="a575a" class="" transform="translate(12,11.75)"  ><g class=""><use class=" Node Icon" width="20.75" height="20.75" fill="#ccc" stroke="#999" stroke-width="2" href="#Ellipse"/></g></g></g></g><g id="bac6a" class="GroupGroup" transform="translate(130,218)"  ><g class="GroupGroup"><g id="c0d3c" class="" transform="translate(8,8)"  ><g class=""><use class=" Node Icon" width="30" height="30" fill="#999" stroke="#666666" stroke-width="2" href="#Ellipse"/></g></g><g id="a59bd" class="" transform="translate(12,11.75)"  ><g class=""><use class=" Node Icon" width="20.75" height="20.75" fill="#ccc" stroke="#999" stroke-width="2" href="#Ellipse"/></g></g></g></g><g id="c7754" class="Label" transform="translate(81,133)"  name="Ectoderm" ><g class="Label"/><text   transform="translate(56,11.5)"    font-weight="bold"  style="fill:#666666;font-size:15px">Ectoderm</text></g><g id="b0a05" class="GeneProduct " transform="translate(104,91)"  name="SOX1" ><rect   width="67" height="20"/><text   transform="translate(33.5,10)"    >SOX1</text></g><g id="b40ba" class="GeneProduct " transform="translate(104,111)"  name="PAX6" ><rect   width="67" height="20"/><text   transform="translate(33.5,10)"    >PAX6</text></g><g id="b85ff" class="Label" transform="translate(84,357)"  name="Endoderm" ><g class="Label"/><text   transform="translate(56,12.5)"    font-weight="bold"  style="fill:#666666;font-size:15px">Endoderm</text></g><g id="b649f" class="GeneProduct " transform="translate(104,381)"  name="SOX17" ><rect   width="67" height="20"/><text   transform="translate(33.5,10)"    >SOX17</text></g><g id="dfd6f" class="GeneProduct " transform="translate(104,401)"  name="FOXA2" ><rect   width="67" height="20"/><text   transform="translate(33.5,10)"    >FOXA2</text></g><g id="a26f4" class="" transform="translate(429,231)"  ><g class=""><use class=" Node Icon" width="63" height="30" fill="#0066ff" stroke="#00c" stroke-width="2" href="#Ellipse"/></g></g><g id="fd432" class="" transform="translate(436,235.75)"  ><g class=""><use class=" Node Icon" width="36" height="20.75" fill="#99ccff" stroke="#3399ff" stroke-width="2" href="#Ellipse"/></g></g><g id="b062d" class="" transform="translate(440,239)"  ><g class=""><use class=" Node Icon" width="24" height="12" fill="#ccffff" stroke="#99ccff" href="#Ellipse"/></g></g><g id="f33b7" class="Label" transform="translate(418,204.5)"  name="Mesoderm" ><g class="Label"/><text   transform="translate(43.5,13.25)"    font-weight="bold"  style="font-size:15px">Mesoderm</text></g><g id="e381a" class="" transform="translate(285,233)"  ><g class=""><use class=" Node Icon" width="63" height="30" fill="#9900ff" stroke="#660099" stroke-width="2" href="#Ellipse"/></g></g><g id="bcee4" class="" transform="translate(292,237.75)"  ><g class=""><use class=" Node Icon" width="36" height="20.75" fill="#cc99ff" stroke="#9933ff" stroke-width="2" href="#Ellipse"/></g></g><g id="ddb78" class="" transform="translate(296,241)"  ><g class=""><use class=" Node Icon" width="24" height="12" fill="#ffccff" stroke="#ffccff" href="#Ellipse"/></g></g><g id="a43cb" class="Label" transform="translate(260,197)"  name="Mesoderm Progenitor" ><g class="Label"/><text   transform="translate(53,18)"    font-weight="bold"  style="font-size:15px"><tspan   x="0" y="-8.25">Mesoderm</tspan><tspan   x="0" y="8.25">Progenitor</tspan></text></g><g id="ec903" class="GeneProduct " transform="translate(283,290)"  name="NCAM1" ><rect   width="67" height="20"/><text   transform="translate(33.5,10)"    >NCAM1</text></g><g id="aa6b1" class="GeneProduct " transform="translate(429,290)"  name="T" ><rect   width="67" height="20"/><text   transform="translate(33.5,10)"    >T</text></g><g id="f4d76" class="GeneProduct " transform="translate(429,310)"  name="ANPEP" ><rect   width="67" height="20"/><text   transform="translate(33.5,10)"    >ANPEP</text></g><g id="ac57a" class="GeneProduct " transform="translate(429,330)"  name="MIXL1" ><rect   width="67" height="20"/><text   transform="translate(33.5,10)"    >MIXL1</text></g><g id="b6085" class="GeneProduct " transform="translate(429,350)"  name="ROR2" ><rect   width="67" height="20"/><text   transform="translate(33.5,10)"    >ROR2</text></g><g id="ec418" class="GeneProduct " transform="translate(428,113)"  name="WNT3A" ><rect   width="61" height="20"/><text   transform="translate(30.5,10)"    >WNT3A</text></g><g id="c3146" class="GeneProduct " transform="translate(367,40)"  name="BMP4" ><rect   width="58" height="28"/><text   transform="translate(29,14)"    >BMP4</text></g><g id="b5ec1" class="GeneProduct " transform="translate(444,39)"  name="INHBA" ><rect   width="58" height="29"/><text   transform="translate(29,14.5)"    >INHBA</text></g><g id="fa7cb" class="GeneProduct " transform="translate(367,138)"  name="GSK3B" ><rect   width="67" height="20"/><text   transform="translate(33.5,10)"    >GSK3B</text></g><g id="be357" class="GeneProduct " transform="translate(291,48)"  name="FGF2" ><rect   width="55" height="20"/><text   transform="translate(27.5,10)"    >FGF2</text></g><g id="d0175" class="Edge"  ><path    d="m332.25 68v20h49.25v-20" style="marker-end:none"/><g id="e1a67" class="AB" transform="translate(356.21 88)"  ><g class="AB"/></g></g><g id="b540f" class="Edge"  ><path    d="m356.21 88v8h87.04v17"/></g><g id="f80b6" class="Edge"  ><path    d="m458.39 148.15h71.61v-139.15h-134v31"/></g><g id="a2155" class="Edge"  ><path    d="m458.39 148.15h62.62v-38.85-55.8h-19"/></g><g id="f4e87" class="Label" transform="translate(285,263)"  name="Day 1" ><g class="Label"/><text   transform="translate(29,13)"    font-weight="bold"  style="fill:#00f;font-size:15px">Day 1</text></g><g id="ea793" class="Label" transform="translate(428,266)"  name="Day 2" ><g class="Label"/><text   transform="translate(33.5,13)"    font-weight="bold"  style="fill:#00f;font-size:15px">Day 2</text></g><g id="a6931" class="Label" transform="translate(557,196)"  name="Cardiac Mesoderm" ><g class="Label"/><text   transform="translate(54,19)"    font-weight="bold"  style="font-size:15px"><tspan   x="0" y="-8.25">Cardiac</tspan><tspan   x="0" y="8.25">Mesoderm</tspan></text></g><g id="db4a2" class="" transform="translate(579,231)"  ><g class=""><use class=" Node Icon" width="63" height="30" fill="#009900" stroke="#006633" stroke-width="2" href="#Ellipse"/></g></g><g id="cc0ea" class="" transform="translate(586,235.75)"  ><g class=""><use class=" Node Icon" width="36" height="20.75" fill="#0c0" stroke="#009900" stroke-width="2" href="#Ellipse"/></g></g><g id="b91b7" class="" transform="translate(590,239)"  ><g class=""><use class=" Node Icon" width="24" height="12" fill="#ccffcc" stroke="#33ff33" href="#Ellipse"/></g></g><g id="f189f" class="GeneProduct " transform="translate(579,290)"  name="MESP1" ><rect   width="67" height="20"/><text   transform="translate(33.5,10)"    >MESP1</text></g><g id="a157e" class="GeneProduct " transform="translate(579,310)"  name="MESP2" ><rect   width="67" height="20"/><text   transform="translate(33.5,10)"    >MESP2</text></g><g id="a3ae2" class="GeneProduct " transform="translate(579,330)"  name="KDR" ><rect   width="67" height="20"/><text   transform="translate(33.5,10)"    >KDR</text></g><g id="e33e4" class="GeneProduct " transform="translate(579,350)"  name="KIT" ><rect   width="67" height="20"/><text   transform="translate(33.5,10)"    >KIT</text></g><g id="cd449" class="Label" transform="translate(578,266)"  name="Day 3-4" ><g class="Label"/><text   transform="translate(33.5,13)"    font-weight="bold"  style="fill:#00f;font-size:15px">Day 3-4</text></g><g id="ea235" class="GeneProduct " transform="translate(579,370)"  name="CXCR4" ><rect   width="67" height="20"/><text   transform="translate(33.5,10)"    >CXCR4</text></g><g id="b9f26" class="GeneProduct " transform="translate(579,390)"  name="PDGFRA" ><rect   width="67" height="20"/><text   transform="translate(33.5,10)"    >PDGFRA</text></g><g id="f9f64" class="Edge"  ><path    d="m542.5 191-0.5 58" style="marker-end:url(#markerendtbar000)"/></g><g id="d635b" class="GeneProduct " transform="translate(514,171)"  name="NOTCH1" ><rect   width="57" height="20"/><text   transform="translate(28.5,10)"    >NOTCH1</text></g><g id="f6bed" class="" transform="translate(725,233)"  ><g class=""><use class=" Node Icon" width="63" height="30" fill="#ff9999" stroke="#ff6699" stroke-width="2" href="#Ellipse"/></g></g><g id="a19ef" class="" transform="translate(732,237.75)"  ><g class=""><use class=" Node Icon" width="36" height="20.75" fill="#ffcccc" stroke="#ffcccc" stroke-width="2" href="#Ellipse"/></g></g><g id="c4aa7" class="" transform="translate(736,241)"  ><g class=""><use class=" Node Icon" width="24" height="12" fill="#fff" stroke="#ffcccc" href="#Ellipse"/></g></g><g id="ac932" class="Label" transform="translate(711,195)"  name="Cardiac Progenitor" ><g class="Label"/><text   transform="translate(46,21)"    font-weight="bold"  style="font-size:15px"><tspan   x="0" y="-8.25">Cardiac</tspan><tspan   x="0" y="8.25">Progenitor</tspan></text></g><g id="bb42b" class="GeneProduct " transform="translate(725,290)"  name="ISL1" ><rect   width="67" height="20"/><text   transform="translate(33.5,10)"    >ISL1</text></g><g id="f8fd0" class="GeneProduct " transform="translate(725,310)"  name="NKX2-5" ><rect   width="67" height="20"/><text   transform="translate(33.5,10)"    >NKX2-5</text></g><g id="b2e02" class="GeneProduct " transform="translate(725,330)"  name="GATA4" ><rect   width="67" height="20"/><text   transform="translate(33.5,10)"    >GATA4</text></g><g id="fe91c" class="GeneProduct " transform="translate(725,350)"  name="TBX5" ><rect   width="67" height="20"/><text   transform="translate(33.5,10)"    >TBX5</text></g><g id="b5684" class="Label" transform="translate(724,266)"  name="Day 5-6" ><g class="Label"/><text   transform="translate(33.5,13)"    font-weight="bold"  style="fill:#00f;font-size:15px">Day 5-6</text></g><g id="b6034" class="GeneProduct " transform="translate(725,370)"  name="TBX20" ><rect   width="67" height="20"/><text   transform="translate(33.5,10)"    >TBX20</text></g><g id="a6814" class="GeneProduct " transform="translate(725,390)"  name="MEF2C" ><rect   width="67" height="20"/><text   transform="translate(33.5,10)"    >MEF2C</text></g><g id="fcf17" class="Edge"  ><path    d="m682.5 180 0.5 69" style="marker-end:url(#markerendtbar000)"/></g><g id="e49a3" class="GeneProduct " transform="translate(652,160)"  name="MAPK14" ><rect   width="61" height="20"/><text   transform="translate(30.5,10)"    >MAPK14</text></g><g id="fae2f" class="GeneProduct " transform="translate(652,138)"  name="BMP1" ><rect   width="61" height="20"/><text   transform="translate(30.5,10)"    >BMP1</text></g><g id="e9c72" class="GeneProduct " transform="translate(574,138)"  name="NOG" ><rect   width="61" height="20"/><text   transform="translate(30.5,10)"    >NOG</text></g><g id="a43f9" class="GeneProduct " transform="translate(652,115)"  name="NODAL" ><rect   width="61" height="20"/><text   transform="translate(30.5,10)"    >NODAL</text></g><g id="abb82" class="GeneProduct " transform="translate(652,93)"  name="TGFB1" ><rect   width="61" height="20"/><text   transform="translate(30.5,10)"    >TGFB1</text></g><g id="aef27" class="Pathway" transform="translate(652,71)"  name="WNT" ><g class="Pathway"><rect   width="61" height="20" style="stroke:#060"/></g><g ><defs><clipPath ><rect x="-30.5" y="-10" width="61" height="20" style="stroke:none"/></clipPath></defs><text   transform="translate(30.5,10)"     style="fill:#006600">WNT</text></g></g><g id="a9dd0" class="GeneProduct " transform="translate(574,71)"  name="DKK1" ><rect   width="61" height="20"/><text   transform="translate(30.5,10)"    >DKK1</text></g><g id="fc91f" class="Edge"  ><path    d="m635 148h17" style="marker-end:url(#markerendtbar000)"/></g><g id="fc2d4" class="Edge"  ><path    d="m635 81h17" style="marker-end:url(#markerendtbar000)"/></g><g id="ae8c0" class="" transform="translate(867,233)"  ><g class=""><use class=" Node Icon" width="63" height="30" fill="#ff6600" stroke="#cc6600" stroke-width="2" href="#Ellipse"/></g></g><g id="ca358" class="" transform="translate(874,237.75)"  ><g class=""><use class=" Node Icon" width="36" height="20.75" fill="#ff9966" stroke="#ff9933" stroke-width="2" href="#Ellipse"/></g></g><g id="f5fa9" class="" transform="translate(878,241)"  ><g class=""><use class=" Node Icon" width="24" height="12" fill="#fff" stroke="#ff9966" href="#Ellipse"/></g></g><g id="acd14" class="Label" transform="translate(837,195)"  name="Immature Cardiomyocyte" ><g class="Label"/><text   transform="translate(63.5,21)"    font-weight="bold"  style="font-size:15px"><tspan   x="0" y="-8.25">Immature</tspan><tspan   x="0" y="8.25">Cardiomyocyte</tspan></text></g><g id="ff22d" class="GeneProduct " transform="translate(867,290)"  name="MYH6" ><rect   width="67" height="20"/><text   transform="translate(33.5,10)"    >MYH6</text></g><g id="ef63a" class="GeneProduct " transform="translate(867,310)"  name="TNNT2" ><rect   width="67" height="20"/><text   transform="translate(33.5,10)"    >TNNT2</text></g><g id="c2eb8" class="GeneProduct " transform="translate(867,330)"  name="TNNI3" ><rect   width="67" height="20"/><text   transform="translate(33.5,10)"    >TNNI3</text></g><g id="a9efa" class="GeneProduct " transform="translate(867,350)"  name="MYLK3" ><rect   width="67" height="20"/><text   transform="translate(33.5,10)"    >MYLK3</text></g><g id="caa01" class="Label" transform="translate(866,266)"  name="Day 7" ><g class="Label"/><text   transform="translate(33.5,13)"    font-weight="bold"  style="fill:#00f;font-size:15px">Day 7</text></g><g id="f37e1" class="GeneProduct " transform="translate(867,370)"  name="SIRPA" ><rect   width="67" height="20"/><text   transform="translate(33.5,10)"    >SIRPA</text></g><g id="bc0cc" class="GeneProduct " transform="translate(867,390)"  name="MEF2C" ><rect   width="67" height="20"/><text   transform="translate(33.5,10)"    >MEF2C</text></g><g id="cefae" class="" transform="translate(1027 240.75) rotate(-12.07 18 10.38)"  ><g class=""><use class=" Node Icon" width="36" height="20.75" fill="#ff9999" stroke="#ff6666" stroke-width="2" href="#Ellipse"/></g></g><g id="e8b18" class="" transform="translate(1031 244) rotate(-10.62 12 6)"  ><g class=""><use class=" Node Icon" width="24" height="12" fill="#fff" stroke="#ffcccc" href="#Ellipse"/></g></g><g id="e3fd9" class="Label" transform="translate(979,191)"  name="Mature Cardiomyocyte" ><g class="Label"/><text   transform="translate(64,21)"    font-weight="bold"  style="font-size:15px"><tspan   x="0" y="-8.25">Mature</tspan><tspan   x="0" y="8.25">Cardiomyocyte</tspan></text></g><g id="d08f0" class="GeneProduct " transform="translate(1011,290)"  name="TNNT2" ><rect   width="67" height="20"/><text   transform="translate(33.5,10)"    >TNNT2</text></g><g id="df556" class="GeneProduct " transform="translate(1011,310)"  name="ACTC1" ><rect   width="67" height="20"/><text   transform="translate(33.5,10)"    >ACTC1</text></g><g id="ca6a1" class="GeneProduct " transform="translate(1011,330)"  name="MYL2" ><rect   width="67" height="20"/><text   transform="translate(33.5,10)"    >MYL2</text></g><g id="b8f84" class="GeneProduct " transform="translate(1011,350)"  name="SCN5A" ><rect   width="67" height="20"/><text   transform="translate(33.5,10)"    >SCN5A</text></g><g id="fa4a9" class="Label" transform="translate(1010,268)"  name="Day 30+" ><g class="Label"/><text   transform="translate(33.5,13)"    font-weight="bold"  style="fill:#00f;font-size:15px">Day 30+</text></g><g id="c9377" class="GeneProduct " transform="translate(1011,370)"  name="IRX4" ><rect   width="67" height="20"/><text   transform="translate(33.5,10)"    >IRX4</text></g><g id="a265a" class="GroupGroup" transform="translate(862.31 93.13)"  ><g class="GroupGroup"><g id="fc534" class="GeneProduct " transform="translate(8,28)"  name="IGF2" ><rect   width="61" height="20"/><text   transform="translate(30.5,10)"    >IGF2</text></g><g id="e0abc" class="GeneProduct " transform="translate(8,8)"  name="IGF1" ><rect   width="61" height="20"/><text   transform="translate(30.5,10)"    >IGF1</text></g></g></g><g id="d1db1" class="GeneProduct " transform="translate(727.1 136.81)"  name="WNT3A" ><rect   width="61" height="20"/><text   transform="translate(30.5,10)"    >WNT3A</text></g><g id="f75f2" class="GeneProduct " transform="translate(794,118)"  name="NRG1" ><rect   width="61" height="20"/><text   transform="translate(30.5,10)"    >NRG1</text></g><g id="fef79" class="Edge"  ><path    d="m969.79 170.14-0.79 78.86" style="marker-end:url(#markerendtbar000)"/></g><g id="b4899" class="Edge"  ><path    d="m359 249h59" stroke-width="3"/><g id="d221f" class="AB" transform="translate(370,249)"  ><g class="AB"/></g><g id="b35b9" class="AB" transform="translate(414 249)"  ><g class="AB"/></g></g><g id="ca5d8" class="Edge"  ><path    d="m502 249h71" stroke-width="3"/><g id="af63f" class="AB" transform="translate(510,249)"  ><g class="AB"/></g><g id="d0c53" class="AB" transform="translate(542,249)"  ><g class="AB"/></g></g><g id="adf29" class="Edge"  ><path    d="m651 249h69" stroke-width="3"/><g id="c77e5" class="AB" transform="translate(683,249)"  ><g class="AB"/></g></g><g id="f19e1" class="Edge"  ><path    d="m797 249h67" stroke-width="3"/><g id="bb4e2" class="AB" transform="translate(823,249)"  ><g class="AB"/></g></g><g id="c2570" class="Edge"  ><path    d="m936 249h63" stroke-width="3"/><g id="dc0ea" class="AB" transform="translate(969,249)"  ><g class="AB"/></g></g><g id="e9a93" class="Edge"  ><path    d="m139 293v58" stroke-width="3" style="stroke:#999;marker-end:url(#mea999)"/></g><g id="d976c" class="Edge"  ><path    d="m138 199v-45" stroke-width="3" style="stroke:#999;marker-end:url(#mea999)"/></g></g></g></g></svg>