<?xml version="1.0" encoding="UTF-8"?>
<svg xmlns="http://www.w3.org/2000/svg" id="-svg" class="Diagram"  baseProfile="full" prefix="schema:http://schema.org/" preserveAspectRatio="xMidYMid"  version="1.1"><defs><g id="icon-defs"><symbol id="HexagonPathVisio" class=" Icon HexagonPathVisio" x="0" y="8" overflow="visible" preserveAspectRatio="none" viewBox="0 8 100 86"><desc>HexagonPathVisio</desc><g transform="scale(1 0.85)"><path d="m1.42 51.00 21.07-42.14h56.19l21.07 42.14-21.07 42.15h-56.19l-21.07-42.15z" stroke="currentColor" vector-effect="non-scaling-stroke"/></g></symbol><symbol id="Octagon" class=" Icon Octagon" x="0" y="0" overflow="visible" preserveAspectRatio="none" viewBox="0 0 100 100"><desc>Octagon</desc><path d="m0 25 25-25h50l25 25v50l-25 25h-50l-25-25z" vector-effect="non-scaling-stroke"/></symbol></g><g id="marker-defs"><marker id="mea" markerHeight="12" markerWidth="12" orient="auto" preserveAspectRatio="none" refX="12" refY="6" viewBox="0 0 12 12"><g id="g-mea" transform=""><g transform="rotate(180 6 6)"><rect y="5.4" width="2" height="1.2" style="stroke:#fff"/><polygon points="12 11 0 6 12 1" stroke-width="0"/></g></g></marker><marker id="memcatalysis000" markerHeight="12" markerWidth="12" orient="auto" preserveAspectRatio="none" refX="12" refY="6" viewBox="0 0 12 12"><g id="g-memcatalysis000" transform=""><g transform="rotate(180 6 6)"><circle cx="6" cy="6" r="5.3px" fill="#fff" stroke="#000"/></g></g></marker></g></defs><g id="viewport-20220102140823009" class="svg-pan-zoom_viewport" transform="matrix(0.45 0 0 0.45 391.47 9.30e-6)" style="transform:matrix(0.45, 0, 0, 0.45, 391.47, 9.30e-06)"><style>svg.Diagram {font-family: 'Liberation Sans', Arial, sans-serif; }.Diagram path {fill: transparent;stroke: #000;marker-end: url(#mea);}.Diagram symbol path {fill: inherit;stroke: inherit;stroke-width: inherit;marker-end: inherit;}.Diagram rect {fill: #fff;stroke: #000;}.Diagram text {dominant-baseline: central;overflow: hidden;text-anchor: middle;fill: #000;font-size: 10px;}</style><style type="text/css">.Viewport .textContent {
  pointer-events: none;
  stroke-width: 0px;
}

					.Viewport.Icon {
  fill: white;
}

/* Hide the InfoBox */
.Viewport.textContent {
  font-size: 0;
}

.textContent {
  stroke: none;
}

.DataNode {
  stroke-miterlimit: 1;
  pointer-events: auto;
}

.DataNode:hover {
  cursor: pointer;
}

/* TODO should this apply to things other than DataNodes? */
.DataNode.textContent {
  pointer-events: none;
}

.DataNode.Highlighted {
  opacity: 0.6;
  stroke-width: 0px;
}

marker {
  /* this is what should work per the spec
  stroke-dasharray: none; */
  /* but I need to add this to make it work in Safari */
  stroke-dasharray: 9999999999999999999999999;
}

.Citation.Icon {
  fill: none;
  stroke-width: 0px;
}

.Citation.textContent {
  text-align: center;
  vertical-align: top;
  font-size: 7px;
  fill: #999;
  fill-opacity: 1;
  stroke: none;
}</style><g id="WP2690" class="Pathway http___identifiers_org_pw_PW_0000002 Viewport"  name="Name: Cytosolic iron-sulfur cluster assembly Organism: Homo sapiens" ><g class="Pathway http___identifiers_org_pw_PW_0000002 Viewport"><rect   width="932" height="1495" style="stroke:none"/><g id="c5138" class="Reactome_R-HSA-2564824"  ><path    d="m209 308v51" style="marker-end:none"/><g id="ecc21" class="AB" transform="translate(209,308)"  ><g class="AB"/></g><g id="c4e17" class="AB" transform="translate(209,358.49)"  ><g class="AB"/></g></g><g id="cd06f" class="Reactome_R-HSA-2564824"  ><path    d="m216 270-7 38" style="marker-end:none"/></g><g id="dd0b9" class="Reactome_R-HSA-2564828"  ><path    d="m530 534v109" style="marker-end:none"/><g id="b47d0" class="AB" transform="translate(530,534)"  ><g class="AB"/></g><g id="bd24c" class="AB" transform="translate(530 641.91)"  ><g class="AB"/></g><g id="b6cf0" class="AB" transform="translate(530,588.5)"  ><g class="AB"/></g></g><g id="dbe67" class="Reactome_R-HSA-2564828"  ><path    d="m532 441-2 93" style="marker-end:none"/></g><g id="d18df" class="Reactome_R-HSA-2564828"  ><path    d="m431 590h99" style="marker-end:url(#memcatalysis000)"/></g><g id="dd2d2" class="Reactome_R-HSA-2564828"  ><path    d="m530 643 169-381"/></g><g id="e5370" class="Reactome_R-HSA-2564828"  ><path    d="m425 508 105 26" style="marker-end:none"/></g><g id="ed541" class="Reactome_R-HSA-2564824"  ><path    d="m209 359 3 41"/></g><g id="ed984" class="Reactome_R-HSA-2564828"  ><path    d="m530 643-69 45"/></g><g id="eea77" class="Reactome_R-HSA-2564826"  ><path    d="m627 290-96 120" style="marker-end:none"/><g id="a652d" class="AB" transform="translate(627,290)"  ><g class="AB"/></g><g id="f2686" class="AB" transform="translate(531.96,408.8)"  ><g class="AB"/></g><g id="df7ff" class="AB" transform="translate(579,350)"  ><g class="AB"/></g><g id="a102c" class="AB" transform="translate(579,350)"  ><g class="AB"/></g></g><g id="dd12d" class="Reactome_R-HSA-2564826"  ><path    d="m699 262-72 28" style="marker-end:none"/></g><g id="e6ec3" class="Reactome_R-HSA-2564826"  ><path    d="m499 235 128 55" style="marker-end:none"/></g><g id="edfbc" class="Reactome_R-HSA-2564826"  ><path    d="m520 264 107 26" style="marker-end:none"/></g><g id="c5232" class="Reactome_R-HSA-2564826"  ><path    d="m531 410 1 3"/></g><g id="cbe47" class="Reactome_R-HSA-2564826"  ><path    d="m461 360 69-5" style="marker-end:url(#memcatalysis000)"/></g><g id="d5a26" class="Reactome_R-HSA-2564826"  ><path    d="m450 146 80 209"/></g><g id="f1f46" class="Reactome_R-HSA-2564824"  ><path    d="m170 269 39 39" style="marker-end:none"/></g><g id="f7250" class="Reactome_R-HSA-2564828"  ><path    d="m530 643 75-446"/></g><g id="f7a4f" class="Reactome_R-HSA-2564824"  ><path    d="m209 359 78 1"/></g><g id="f9273" class="Reactome_R-HSA-2564826"  ><path    d="m659 208-32 82" style="marker-end:none"/></g><g id="ff0e4" class="Reactome_R-HSA-2564824"  ><path    d="m209 359-53 30"/></g><g id="b6786" class="GroupGroup" transform="translate(202,42)"  ><g class="GroupGroup"><g id="a9cc7" class="" transform="translate(8,8)"  ><g class=""><rect   transform="matrix(0.99 0 0 0.97 1.48 1.46)" width="251" height="112" rx="15" ry="15" stroke-width="3" style="fill:transparent;stroke:#c0c0c0"/></g></g><g id="bac2a" class="Label" transform="translate(21,56)"  name="mitochondrial matrix" ><g class="Label"/><text   transform="translate(73.5,16.5)"    >mitochondrial matrix</text></g></g></g><g id="d25b0" class="GroupGroup" transform="translate(145,24)"  ><g class="GroupGroup"><g id="feeac" class="" transform="translate(8,8)"  ><g class=""><rect   transform="matrix(0.99 0 0 0.98 1.49 1.47)" width="322" height="173" rx="15" ry="15" stroke-width="3" style="fill:transparent;stroke:#c0c0c0"/></g></g><g id="ca276" class="Label" transform="translate(17,138)"  name="mitochondrial intermembrane space" ><g class="Label"/><text   transform="translate(123.5,16.5)"    >mitochondrial intermembrane space</text></g></g></g><g id="ffb68" class="GroupGroup" transform="translate(-2,-4)"  ><g class="GroupGroup"><g id="c4791" class="" transform="translate(8,8)"  ><g class=""><rect   transform="matrix(1.00 0 0 1.00 1.50 1.49)" width="896" height="743" rx="15" ry="15" stroke-width="3" style="fill:transparent;stroke:#c0c0c0"/></g></g><g id="ae8d3" class="Label" transform="translate(36,682)"  name="cytosol" ><g class="Label"/><text   transform="translate(32,16.5)"    >cytosol</text></g></g></g><g id="a02ff" class="Metabolite " transform="translate(52,254)"  name="NADPH" ><rect   width="118" height="30" style="stroke:#00f"/><text   transform="translate(59,15)"     style="fill:#00f">NADPH</text></g><g id="a07f9" class="Complex Reactome_R-HSA-2564814" transform="translate(223,577)"  name="NARFL:CIAO1:FAM96B:MMS19" ><g class="Complex Reactome_R-HSA-2564814"><use class="Complex Reactome_R-HSA-2564814 Node Icon" width="209" height="26" fill="#fff" stroke="#a52a2a" href="#HexagonPathVisio"/></g><g ><defs><clipPath ><rect x="-104.5" y="-13" width="209" height="26" style="stroke:none"/></clipPath></defs><text   transform="translate(104.5,13)"     style="fill:#a52a2a">NARFL:CIAO1:FAM96B:MMS19</text></g></g><g id="a1814" class="Complex Reactome_R-HSA-2564805" transform="translate(287,347)"  name="NDOR1:CIAPIN1 reduced" ><g class="Complex Reactome_R-HSA-2564805"><use class="Complex Reactome_R-HSA-2564805 Node Icon" width="174" height="26" fill="#fff" stroke="#a52a2a" href="#HexagonPathVisio"/></g><g ><defs><clipPath ><rect x="-87" y="-13" width="174" height="26" style="stroke:none"/></clipPath></defs><text   transform="translate(87,13)"     style="fill:#a52a2a"><tspan   x="0" y="-5.5">NDOR1:CIAPIN1</tspan><tspan   x="0" y="5.5">reduced</tspan></text></g></g><g id="a280d" class="Complex Reactome_R-HSA-2564804" transform="translate(216,257)"  name="NDOR1:CIAPIN1 oxidized" ><g class="Complex Reactome_R-HSA-2564804"><use class="Complex Reactome_R-HSA-2564804 Node Icon" width="179" height="26" fill="#fff" stroke="#a52a2a" href="#HexagonPathVisio"/></g><g ><defs><clipPath ><rect x="-89.5" y="-13" width="179" height="26" style="stroke:none"/></clipPath></defs><text   transform="translate(89.5,13)"     style="fill:#a52a2a"><tspan   x="0" y="-5.5">NDOR1:CIAPIN1</tspan><tspan   x="0" y="5.5">oxidized</tspan></text></g></g><g id="b378d" class="Metabolite " transform="translate(480,249)"  name="Fe" ><rect   width="41" height="30" style="stroke:#00f"/><text   transform="translate(20.5,15)"     style="fill:#00f">Fe</text></g><g id="c0ede" class="Complex Reactome_R-HSA-2564798" transform="translate(447,413)"  name="NUBP2:4Fe-4S:NUBP1" ><g class="Complex Reactome_R-HSA-2564798"><use class="Complex Reactome_R-HSA-2564798 Node Icon" width="171" height="29" fill="#fff" stroke="#a52a2a" href="#HexagonPathVisio"/></g><g ><defs><clipPath ><rect x="-85.5" y="-14.5" width="171" height="29" style="stroke:none"/></clipPath></defs><text   transform="translate(85.5,14.5)"     style="fill:#a52a2a">NUBP2:4Fe-4S:NUBP1</text></g></g><g id="c6127" class="Complex Reactome_R-HSA-2564799" transform="translate(699,249)"  name="NUBP1:4Fe-4S" ><g class="Complex Reactome_R-HSA-2564799"><use class="Complex Reactome_R-HSA-2564799 Node Icon" width="137" height="26" fill="#fff" stroke="#a52a2a" href="#HexagonPathVisio"/></g><g ><defs><clipPath ><rect x="-68.5" y="-13" width="137" height="26" style="stroke:none"/></clipPath></defs><text   transform="translate(68.5,13)"     style="fill:#a52a2a">NUBP1:4Fe-4S</text></g></g><g id="c9d98" class="Complex Reactome_R-HSA-2564791" transform="translate(183,674)"  name="Holoprotein Containing 4Fe-4S Cluster" ><g class="Complex Reactome_R-HSA-2564791"><rect   width="278" height="29" rx="15" ry="15" style="stroke:#a52a2a"/></g><g ><defs><clipPath ><rect x="-139" y="-14.5" width="278" height="29" style="stroke:none"/></clipPath></defs><text   transform="translate(139,14.5)"     style="fill:#a52a2a"><tspan   x="0" y="-11">Holoprotein</tspan><tspan   x="0" y="0">Containing 4Fe-4S</tspan><tspan   x="0" y="11">Cluster</tspan></text></g></g><g id="cc8a9" class="Metabolite " transform="translate(38,374)"  name="NADP+" ><rect   width="119" height="30" style="stroke:#00f"/><text   transform="translate(59.5,15)"     style="fill:#00f">NADP+</text></g><g id="d2e5b" class="Complex Reactome_R-HSA-2564793" transform="translate(173,493)"  name="Apoprotein Lacking 4Fe-4S Cluster" ><g class="Complex Reactome_R-HSA-2564793"><rect   width="252" height="31" rx="15" ry="15" style="stroke:#a52a2a"/></g><g ><defs><clipPath ><rect x="-126" y="-15.5" width="252" height="31" style="stroke:none"/></clipPath></defs><text   transform="translate(126,15.5)"     style="fill:#a52a2a"><tspan   x="0" y="-5.5">Apoprotein Lacking</tspan><tspan   x="0" y="5.5">4Fe-4S Cluster</tspan></text></g></g><g id="d809f" class="Complex Reactome_R-HSA-1369041" transform="translate(346,135)"  name="ABC7 dimer" ><g class="Complex Reactome_R-HSA-1369041"><use class="Complex Reactome_R-HSA-1369041 Node Icon" width="105" height="22" fill="#fff" stroke="#a52a2a" href="#HexagonPathVisio"/></g><g ><defs><clipPath ><rect x="-52.5" y="-11" width="105" height="22" style="stroke:none"/></clipPath></defs><text   transform="translate(52.5,11)"     style="fill:#a52a2a">ABC7 dimer</text></g></g><g id="e287e" class="Metabolite " transform="translate(165,400)"  name="H+" ><rect   width="94" height="30" style="stroke:#00f"/><text   transform="translate(47,15)"     style="fill:#00f">H+</text></g><g id="e5c9d" class="Metabolite " transform="translate(469,221)"  name="S" ><rect   width="31" height="28" style="stroke:#00f"/><text   transform="translate(15.5,14)"     style="fill:#00f">S</text></g><g id="f0be8" class="Protein" transform="translate(605,186)"  name="NUBP2" ><rect   width="109" height="22"/><text   transform="translate(54.5,11)"    >NUBP2</text></g><g id="c351a" class="GroupNone" transform="translate(41,756)"  ><g class="GroupNone"><rect   width="118" height="98" fill-opacity=".1" stroke-dasharray="5,3" style="fill:#b4b464;stroke:grey"/><g id="a0731" class="Protein" transform="translate(9,49)"  name="BRIP1" ><rect   width="100" height="20"/><text   transform="translate(50,10)"    >BRIP1</text></g><g id="b0c71" class="Protein" transform="translate(9,9)"  name="POLD1" ><rect   width="100" height="20"/><text   transform="translate(50,10)"    >POLD1</text></g><g id="c1a3a" class="Protein" transform="translate(9,69)"  name="RTEL1" ><rect   width="100" height="20"/><text   transform="translate(50,10)"    >RTEL1</text></g><g id="d80d9" class="Protein" transform="translate(9,29)"  name="ERCC2" ><rect   width="100" height="20"/><text   transform="translate(50,10)"    >ERCC2</text></g></g></g><g id="cf22c" class="GroupNone" transform="translate(41,876)"  ><g class="GroupNone"><rect   width="118" height="118" fill-opacity=".1" stroke-dasharray="5,3" style="fill:#b4b464;stroke:grey"/><g id="a53f1" class="Metabolite " transform="translate(9,29)"  name="4Fe-4S cluster" ><rect   width="100" height="20" style="stroke:#00f"/><text   transform="translate(50,10)"     style="fill:#00f">4Fe-4S cluster</text></g><g id="b03d5" class="Protein" transform="translate(9,49)"  name="ERCC2" ><rect   width="100" height="20"/><text   transform="translate(50,10)"    >ERCC2</text></g><g id="d31c2" class="Protein" transform="translate(9,9)"  name="POLD1" ><rect   width="100" height="20"/><text   transform="translate(50,10)"    >POLD1</text></g><g id="d43b2" class="Protein" transform="translate(9,89)"  name="RTEL1" ><rect   width="100" height="20"/><text   transform="translate(50,10)"    >RTEL1</text></g><g id="d6a61" class="Protein" transform="translate(9,69)"  name="BRIP1" ><rect   width="100" height="20"/><text   transform="translate(50,10)"    >BRIP1</text></g></g></g><g id="dc9b3" class="GroupComplex" transform="translate(178,953)"  ><g class="GroupComplex"><use class="Icon" width="124" height="44" fill="#b4b464" fill-opacity=".1" stroke="grey" href="#Octagon"/><g id="cbfd5" class="Protein" transform="translate(12,12)"  name="ABCB7(23-752)" ><rect   width="100" height="20"/><text   transform="translate(50,10)"    >ABCB7(23-752)</text></g></g></g><g id="e06ea" class="GroupComplex" transform="translate(38,1333)"  ><g class="GroupComplex"><use class="Icon" width="124" height="144" fill="#b4b464" fill-opacity=".1" stroke="grey" href="#Octagon"/><g id="a00ff" class="Metabolite " transform="translate(12,112)"  name="FMN" ><rect   width="100" height="20" style="stroke:#00f"/><text   transform="translate(50,10)"     style="fill:#00f">FMN</text></g><g id="a1b7d" class="Metabolite " transform="translate(12,32)"  name="4Fe-4S cluster" ><rect   width="100" height="20" style="stroke:#00f"/><text   transform="translate(50,10)"     style="fill:#00f">4Fe-4S cluster</text></g><g id="aa2ba" class="Metabolite " transform="translate(12,92)"  name="FAD" ><rect   width="100" height="20" style="stroke:#00f"/><text   transform="translate(50,10)"     style="fill:#00f">FAD</text></g><g id="c8843" class="Metabolite " transform="translate(12,52)"  name="(2Fe-2S)(2+)" ><rect   width="100" height="20" style="stroke:#00f"/><text   transform="translate(50,10)"     style="fill:#00f">(2Fe-2S)(2+)</text></g><g id="f55d7" class="Protein" transform="translate(12,12)"  name="CIAPIN1" ><rect   width="100" height="20"/><text   transform="translate(50,10)"    >CIAPIN1</text></g><g id="f73ef" class="Protein" transform="translate(12,72)"  name="NDOR1" ><rect   width="100" height="20"/><text   transform="translate(50,10)"    >NDOR1</text></g></g></g><g id="e3ee1" class="GroupComplex" transform="translate(178,793)"  ><g class="GroupComplex"><use class="Icon" width="124" height="144" fill="#b4b464" fill-opacity=".1" stroke="grey" href="#Octagon"/><g id="a7a95" class="Protein" transform="translate(12,72)"  name="CIAPIN1" ><rect   width="100" height="20"/><text   transform="translate(50,10)"    >CIAPIN1</text></g><g id="a8dc4" class="Metabolite " transform="translate(12,52)"  name="FMN" ><rect   width="100" height="20" style="stroke:#00f"/><text   transform="translate(50,10)"     style="fill:#00f">FMN</text></g><g id="ad3d0" class="Metabolite " transform="translate(12,32)"  name="FAD" ><rect   width="100" height="20" style="stroke:#00f"/><text   transform="translate(50,10)"     style="fill:#00f">FAD</text></g><g id="dca4d" class="Metabolite " transform="translate(12,112)"  name="(2Fe-2S)(1+)" ><rect   width="100" height="20" style="stroke:#00f"/><text   transform="translate(50,10)"     style="fill:#00f">(2Fe-2S)(1+)</text></g><g id="e4ed6" class="Metabolite " transform="translate(12,92)"  name="4Fe-4S cluster" ><rect   width="100" height="20" style="stroke:#00f"/><text   transform="translate(50,10)"     style="fill:#00f">4Fe-4S cluster</text></g><g id="e5bdb" class="Protein" transform="translate(12,12)"  name="NDOR1" ><rect   width="100" height="20"/><text   transform="translate(50,10)"    >NDOR1</text></g></g></g><g id="e4526" class="GroupComplex" transform="translate(38,1233)"  ><g class="GroupComplex"><use class="Icon" width="124" height="84" fill="#b4b464" fill-opacity=".1" stroke="grey" href="#Octagon"/><g id="a53b9" class="Protein" transform="translate(12,12)"  name="NUBP2" ><rect   width="100" height="20"/><text   transform="translate(50,10)"    >NUBP2</text></g><g id="b0c53" class="Protein" transform="translate(12,52)"  name="NUBP1" ><rect   width="100" height="20"/><text   transform="translate(50,10)"    >NUBP1</text></g><g id="c40f6" class="Metabolite " transform="translate(12,32)"  name="4Fe-4S cluster" ><rect   width="100" height="20" style="stroke:#00f"/><text   transform="translate(50,10)"     style="fill:#00f">4Fe-4S cluster</text></g></g></g><g id="e5ad9" class="GroupComplex" transform="translate(38,1153)"  ><g class="GroupComplex"><use class="Icon" width="124" height="64" fill="#b4b464" fill-opacity=".1" stroke="grey" href="#Octagon"/><g id="f3d80" class="Protein" transform="translate(12,12)"  name="NUBP1" ><rect   width="100" height="20"/><text   transform="translate(50,10)"    >NUBP1</text></g><g id="f9b34" class="Metabolite " transform="translate(12,32)"  name="4Fe-4S cluster" ><rect   width="100" height="20" style="stroke:#00f"/><text   transform="translate(50,10)"     style="fill:#00f">4Fe-4S cluster</text></g></g></g><g id="fa557" class="GroupComplex" transform="translate(38,1013)"  ><g class="GroupComplex"><use class="Icon" width="124" height="124" fill="#b4b464" fill-opacity=".1" stroke="grey" href="#Octagon"/><g id="ba47b" class="Protein" transform="translate(12,52)"  name="CIAO1" ><rect   width="100" height="20"/><text   transform="translate(50,10)"    >CIAO1</text></g><g id="d4ec8" class="Protein" transform="translate(12,72)"  name="FAM96B" ><rect   width="100" height="20"/><text   transform="translate(50,10)"    >FAM96B</text></g><g id="deb85" class="Metabolite " transform="translate(12,32)"  name="4Fe-4S cluster" ><rect   width="100" height="20" style="stroke:#00f"/><text   transform="translate(50,10)"     style="fill:#00f">4Fe-4S cluster</text></g><g id="ea504" class="Protein" transform="translate(12,92)"  name="MMS19" ><rect   width="100" height="20"/><text   transform="translate(50,10)"    >MMS19</text></g><g id="f7142" class="Protein" transform="translate(12,12)"  name="NARFL" ><rect   width="100" height="20"/><text   transform="translate(50,10)"    >NARFL</text></g></g></g></g></g></g></svg>