<?xml version="1.0" encoding="UTF-8"?>
<svg xmlns="http://www.w3.org/2000/svg" id="-svg" class="Diagram"  baseProfile="full" prefix="schema:http://schema.org/" preserveAspectRatio="xMidYMid"  version="1.1"><defs><g id="filter-defs"><filter id="doublefalse3filter" x="-50%" y="-50%" width="200%" height="200%"><feComposite in="SourceGraphic" in2="SourceGraphic" result="doubleDark"/><feMorphology in="doubleDark" operator="dilate" radius="0.17" result="in2Double"/><feMorphology in="SourceGraphic" operator="dilate" radius="3" result="inDouble"/><feComposite in="inDouble" in2="in2Double" operator="out" result="doubleResult"/></filter></g><g id="icon-defs"><symbol id="Ellipse" class=" Icon Ellipse" x="0" y="0" overflow="visible" preserveAspectRatio="none" viewBox="0 0 50 50"><desc>Ellipse</desc><ellipse cx="25" cy="25" rx="25" ry="25" vector-effect="non-scaling-stroke"/></symbol></g><g id="marker-defs"><marker id="meminhibition000" markerHeight="20" markerWidth="10" orient="auto" preserveAspectRatio="none" refX="10" refY="10" viewBox="0 0 10 20"><g id="g-meminhibition000" transform=""><g transform="rotate(180 5 10)"><rect y="9" width="8" height="2" style="stroke:none"/><line x="0" y="0" width="12" height="12" x1="7" x2="7" y2="20" stroke="#000" stroke-width="1.8"/></g></g></marker><marker id="mea" markerHeight="12" markerWidth="12" orient="auto" preserveAspectRatio="none" refX="12" refY="6" viewBox="0 0 12 12"><g id="g-mea" transform=""><g transform="rotate(180 6 6)"><rect y="5.4" width="2" height="1.2" style="stroke:#fff"/><polygon points="12 11 0 6 12 1" stroke-width="0"/></g></g></marker></g></defs><g id="viewport-20220102140803056" class="svg-pan-zoom_viewport" transform="matrix(0.97 0 0 0.97 0 94.96)" style="transform:matrix(0.97, 0, 0, 0.97, 0, 94.96)"><style>svg.Diagram {font-family: 'Liberation Sans', Arial, sans-serif; }.Diagram path {fill: transparent;stroke: #000;marker-end: url(#mea);}.Diagram symbol path {fill: inherit;stroke: inherit;stroke-width: inherit;marker-end: inherit;}.Diagram rect {fill: #fff;stroke: #000;}.Diagram text {dominant-baseline: central;overflow: hidden;text-anchor: middle;fill: #000;font-size: 10px;}</style><style type="text/css">.Viewport .textContent {
  pointer-events: none;
  stroke-width: 0px;
}

					.Viewport.Icon {
  fill: white;
}

/* Hide the InfoBox */
.Viewport.textContent {
  font-size: 0;
}

.textContent {
  stroke: none;
}

.DataNode {
  stroke-miterlimit: 1;
  pointer-events: auto;
}

.DataNode:hover {
  cursor: pointer;
}

/* TODO should this apply to things other than DataNodes? */
.DataNode.textContent {
  pointer-events: none;
}

.DataNode.Highlighted {
  opacity: 0.6;
  stroke-width: 0px;
}

marker {
  /* this is what should work per the spec
  stroke-dasharray: none; */
  /* but I need to add this to make it work in Safari */
  stroke-dasharray: 9999999999999999999999999;
}

.Citation.Icon {
  fill: none;
  stroke-width: 0px;
}

.Citation.textContent {
  text-align: center;
  vertical-align: top;
  font-size: 7px;
  fill: #999;
  fill-opacity: 1;
  stroke: none;
}</style><g id="WP268" class="Pathway http___identifiers_org_pw_PW_0000204 Viewport"  name="Name: Notch signaling License: CC BY 2.0 Last Modified: 2/22/2013 Organism: Homo sapiens" ><g class="Pathway http___identifiers_org_pw_PW_0000204 Viewport"><rect   width="1238.1" height="494.29" style="stroke:none"/><g id="a536d" class="Edge"  ><path    d="m1018.5 262.67 58.17 0.67"/></g><g id="e38f9" class="Edge"  ><path    d="m739.33 266.67 238.83-4"/></g><g id="d887b" class="Edge"  ><path    d="m870.67 238.67 27-15.33" style="marker-end:none"/></g><g id="a1f36" class="Edge"  ><path    d="m405.33 173.33-80.67 72.67" style="marker-end:url(#meminhibition000)"/></g><g id="a5a50" class="Edge"  ><path    d="m324.67 270h152.91v126.48h50.80" stroke-dasharray="5,3"/></g><g id="ff3aa" class="Edge"  ><path    d="m286.67 270 407.33-3.33"/></g><g id="e5d22" class="Edge"  ><path    d="m370.67 335.67-65-17.67"/></g><g id="f99ba" class="Edge"  ><path    d="m190 406.67 77.67-88.67"/></g><g id="b7e5a" class="Edge"  ><path    d="m348 162-42.33 60" style="marker-end:url(#meminhibition000)"/></g><g id="a74d8" class="Edge"  ><path    d="m140.51 247.33 108.15-1.33"/><g id="c2862" class="AB" transform="translate(197.2 246.63)"  ><g class="AB"/></g></g><g id="edbf0" class="Edge"  ><path    d="m195.75 205.14 1.45 41.50"/></g><g id="efa0d" class="Edge"  ><path    d="m324.67 270 174-64.33"/></g><g id="be9e1" class="Edge"  ><path    d="m1008.4 253.17 57.92-43.17"/></g><g id="d1eeb" class="Edge"  ><path    d="m139.51 346.67 109.15-52.67" style="marker-end:url(#meminhibition000)"/></g><g id="f5ad3" class="Edge"  ><path    d="m786.13 195.13 43.21 43.54"/></g><g id="a5fa5" class=" PhysicalEntity CellularComponent Nucleus" transform="translate(608.47 35.58)"  ><g class=" PhysicalEntity CellularComponent Nucleus" filter="url(#doublefalse3filter)"><g class=" PhysicalEntity CellularComponent Nucleus"><use class=" PhysicalEntity CellularComponent Nucleus Node Icon" transform="matrix(0.98 0 0 0.97 5.88 5.82)" width="589.40" height="388.96" fill="transparent" stroke="#c0c0c0" stroke-width="3" href="#Ellipse"/></g></g></g><g id="b78f2" class=" PhysicalEntity CellularComponent Cell" transform="translate(283.71 11.97)"  ><g class=" PhysicalEntity CellularComponent Cell" filter="url(#doublefalse3filter)"><g class=" PhysicalEntity CellularComponent Cell"><rect   transform="matrix(0.99 0 0 0.97 5.92 5.85)" width="925.86" height="453.81" rx="15" ry="15" stroke-width="3" style="fill:transparent;stroke:#c0c0c0"/></g></g></g><g id="ec28e" class=" PhysicalEntity CellularComponent Cell" transform="translate(11.36 151.17)"  ><g class=" PhysicalEntity CellularComponent Cell" filter="url(#doublefalse3filter)"><g class=" PhysicalEntity CellularComponent Cell"><rect   transform="matrix(0.89 0 0 0.96 5.32 5.77)" width="94.15" height="301.66" rx="15" ry="15" stroke-width="3" style="fill:transparent;stroke:#c0c0c0"/></g></g></g><g id="a7a" class="Label" transform="translate(782.02 355.21)"  name="co-repressor complex" ><g class="Label"/><text   transform="translate(71.17 8)"    font-weight="bold" >co-repressor complex</text></g><g id="c8626" class="Label" transform="translate(368 277.27)"  name="g-secretase complex" ><g class="Label"/><text   transform="translate(40,13.5)"    font-weight="bold" ><tspan   x="0" y="-5.5">g-secretase</tspan><tspan   x="0" y="5.5">complex</tspan></text></g><g id="c87" class="Label" transform="translate(647.67 276.83)"  name="Notch Intracellular Domain" ><g class="Label"/><text   transform="translate(65.67 6.5)"     style="font-size:8px">Notch Intracellular Domain</text></g><g id="c8f" class="Label" transform="translate(336 310.67)"  name="S3" ><g class="Label"/><text   transform="translate(10.67 8)"    font-weight="bold" >S3</text></g><g id="fbf" class="Label" transform="translate(978.17 253.17)"  name="DNA" ><g class="Label"/><text   transform="translate(20.17 9.5)"    font-weight="bold"  style="font-size:12px">DNA</text></g><g id="fd0" class="Label" transform="translate(207.67 348)"  name="S2" ><g class="Label"/><text   transform="translate(10.67 8)"    font-weight="bold" >S2</text></g><g id="fe5" class="Label" transform="translate(694 257.17)"  name="NICD" ><g class="Label"/><text   transform="translate(22.67 9.5)"    font-weight="bold"  style="font-size:12px">NICD</text></g><g id="bcd49" class="Pathway" transform="translate(528.38 386.48)"  name="MAPK signaling pathway" ><g class="Pathway"><rect   width="161.52" height="20" rx="15" ry="15" style="stroke:#14961e"/></g><g ><defs><clipPath ><rect x="-80.76" y="-10" width="161.52" height="20" style="stroke:none"/></clipPath></defs><text   transform="translate(80.76 10)"    font-weight="bold"  style="fill:#14961e;font-size:12px">MAPK signaling pathway</text></g></g><g id="c78" class="GeneProduct " transform="translate(1076.7 253.33)"  name="PTCRA" ><rect   width="53.33" height="20"/><text   transform="translate(26.67 10)"    >PTCRA</text></g><g id="daf" class="GeneProduct " transform="translate(160 406.67)"  name="ADAM17" ><rect   width="60" height="20"/><text   transform="translate(30,10)"    >ADAM17</text></g><g id="ef8" class="GeneProduct " transform="translate(867.67 203.33)"  name="SKIP" ><rect   width="60" height="20"/><text   transform="translate(30,10)"    >SKIP</text></g><g id="a3601" class="GroupNone" transform="translate(369.67 300.67)"  ><g class="GroupNone"><rect   width="78" height="138" fill-opacity=".1" stroke-dasharray="5,3" style="fill:#b4b464;stroke:grey"/><g id="a5b" class="GeneProduct " transform="translate(9,89)"  name="PSEN2" ><rect   width="60" height="20"/><text   transform="translate(30,10)"    >PSEN2</text></g><g id="a84" class="GeneProduct " transform="translate(9,29)"  name="APH1B" ><rect   width="60" height="20"/><text   transform="translate(30,10)"    >APH1B</text></g><g id="c16" class="GeneProduct " transform="translate(9,49)"  name="TNF" ><rect   width="60" height="20"/><text   transform="translate(30,10)"    >TNF</text></g><g id="d60" class="GeneProduct " transform="translate(9,9)"  name="APH1A" ><rect   width="60" height="20"/><text   transform="translate(30,10)"    >APH1A</text></g><g id="e5b" class="GeneProduct " transform="translate(9,109)"  name="NCSTN" ><rect   width="60" height="20"/><text   transform="translate(30,10)"    >NCSTN</text></g><g id="f40" class="GeneProduct " transform="translate(9,69)"  name="PSEN1" ><rect   width="60" height="20"/><text   transform="translate(30,10)"    >PSEN1</text></g></g></g><g id="af561" class="GroupNone" transform="translate(807.67 237.67)"  ><g class="GroupNone"><rect   width="84.67" height="58" fill-opacity=".1" stroke-dasharray="5,3" style="fill:#b4b464;stroke:grey"/><g id="b01" class="GeneProduct " transform="translate(9,29)"  name="RBPSUHL" ><rect   width="66.67" height="20"/><text   transform="translate(33.33 10)"    >RBPSUHL</text></g><g id="e01" class="GeneProduct " transform="translate(9,9)"  name="RBPJ" ><rect   width="66.67" height="20"/><text   transform="translate(33.33 10)"    >RBPJ</text></g></g></g><g id="b8ef6" class="GroupNone" transform="translate(404.33 144.33)"  ><g class="GroupNone"><rect   width="78" height="58" fill-opacity=".1" stroke-dasharray="5,3" style="fill:#b4b464;stroke:grey"/><g id="be2" class="GeneProduct " transform="translate(9,9)"  name="NUMB" ><rect   width="60" height="20"/><text   transform="translate(30,10)"    >NUMB</text></g><g id="e45" class="GeneProduct " transform="translate(9,29)"  name="NUMBL" ><rect   width="60" height="20"/><text   transform="translate(30,10)"    >NUMBL</text></g></g></g><g id="c4747" class="GroupNone" transform="translate(247.67 221)"  ><g class="GroupNone"><rect   width="78" height="98" fill-opacity=".1" stroke-dasharray="5,3" style="fill:#b4b464;stroke:grey"/><g id="d9f" class="GeneProduct " transform="translate(9,49)"  name="NOTCH3" ><rect   width="60" height="20"/><text   transform="translate(30,10)"    >NOTCH3</text></g><g id="db2" class="GeneProduct " transform="translate(9,29)"  name="NOTCH2" ><rect   width="60" height="20"/><text   transform="translate(30,10)"    >NOTCH2</text></g><g id="e81" class="GeneProduct " transform="translate(9,69)"  name="NOTCH4" ><rect   width="60" height="20"/><text   transform="translate(30,10)"    >NOTCH4</text></g><g id="e83" class="GeneProduct " transform="translate(9,9)"  name="NOTCH1" ><rect   width="60" height="20"/><text   transform="translate(30,10)"    >NOTCH1</text></g></g></g><g id="d05e9" class="GroupNone" transform="translate(309,85)"  ><g class="GroupNone"><rect   width="78" height="78" fill-opacity=".1" stroke-dasharray="5,3" style="fill:#b4b464;stroke:grey"/><g id="b1f" class="GeneProduct " transform="translate(9,49)"  name="DVL3" ><rect   width="60" height="20"/><text   transform="translate(30,10)"    >DVL3</text></g><g id="ca6" class="GeneProduct " transform="translate(9,29)"  name="DVL2" ><rect   width="60" height="20"/><text   transform="translate(30,10)"    >DVL2</text></g><g id="e13" class="GeneProduct " transform="translate(9,9)"  name="DVL1" ><rect   width="60" height="20"/><text   transform="translate(30,10)"    >DVL1</text></g></g></g><g id="dbcea" class="GroupNone" transform="translate(63.51 208.33)"  ><g class="GroupNone"><rect   width="78" height="78" fill-opacity=".1" stroke-dasharray="5,3" style="fill:#b4b464;stroke:grey"/><g id="b28" class="GeneProduct " transform="translate(9,29)"  name="DLL3" ><rect   width="60" height="20"/><text   transform="translate(30,10)"    >DLL3</text></g><g id="dd1" class="GeneProduct " transform="translate(9,9)"  name="DLL1" ><rect   width="60" height="20"/><text   transform="translate(30,10)"    >DLL1</text></g><g id="e21" class="GeneProduct " transform="translate(9 49)"  name="DLL4" ><rect   width="60" height="20"/><text   transform="translate(30,10)"    >DLL4</text></g></g></g><g id="e3ded" class="GroupNone" transform="translate(156.75 128.14)"  ><g class="GroupNone"><rect   width="78" height="78" fill-opacity=".1" stroke-dasharray="5,3" style="fill:#b4b464;stroke:grey"/><g id="bf7" class="GeneProduct " transform="translate(9,9)"  name="LFNG" ><rect   width="60" height="20"/><text   transform="translate(30,10)"    >LFNG</text></g><g id="e51" class="GeneProduct " transform="translate(9,49)"  name="RFNG" ><rect   width="60" height="20"/><text   transform="translate(30,10)"    >RFNG</text></g><g id="f00" class="GeneProduct " transform="translate(9,29)"  name="MFNG" ><rect   width="60" height="20"/><text   transform="translate(30,10)"    >MFNG</text></g></g></g><g id="eb0ec" class="GroupNone" transform="translate(497.67 117.67)"  ><g class="GroupNone"><rect   width="78" height="118" fill-opacity=".1" stroke-dasharray="5,3" style="fill:#b4b464;stroke:grey"/><g id="b27" class="GeneProduct " transform="translate(9,49)"  name="DTX3" ><rect   width="60" height="20"/><text   transform="translate(30,10)"    >DTX3</text></g><g id="bb9" class="GeneProduct " transform="translate(9,29)"  name="DTX2" ><rect   width="60" height="20"/><text   transform="translate(30,10)"    >DTX2</text></g><g id="cdb" class="GeneProduct " transform="translate(9,89)"  name="DTX3L" ><rect   width="60" height="20"/><text   transform="translate(30,10)"    >DTX3L</text></g><g id="da1" class="GeneProduct " transform="translate(9,9)"  name="DTX1" ><rect   width="60" height="20"/><text   transform="translate(30,10)"    >DTX1</text></g><g id="f38" class="GeneProduct " transform="translate(9,69)"  name="DTX4" ><rect   width="60" height="20"/><text   transform="translate(30,10)"    >DTX4</text></g></g></g><g id="f4b25" class="GroupNone" transform="translate(1065.3 181)"  ><g class="GroupNone"><rect   width="78" height="58" fill-opacity=".1" stroke-dasharray="5,3" style="fill:#b4b464;stroke:grey"/><g id="f06" class="GeneProduct " transform="translate(9,29)"  name="HES5" ><rect   width="60" height="20"/><text   transform="translate(30,10)"    >HES5</text></g><g id="f28" class="GeneProduct " transform="translate(9,9)"  name="HES1" ><rect   width="60" height="20"/><text   transform="translate(30,10)"    >HES1</text></g></g></g><g id="f73b6" class="GroupNone" transform="translate(62.51 317.67)"  ><g class="GroupNone"><rect   width="78" height="58" fill-opacity=".1" stroke-dasharray="5,3" style="fill:#b4b464;stroke:grey"/><g id="b52" class="GeneProduct " transform="translate(9,29)"  name="JAG2" ><rect   width="60" height="20"/><text   transform="translate(30,10)"    >JAG2</text></g><g id="b8c" class="GeneProduct " transform="translate(9,9)"  name="JAG1" ><rect   width="60" height="20"/><text   transform="translate(30,10)"    >JAG1</text></g></g></g><g id="fa9f7" class="GroupNone" transform="translate(740.46 78.13)"  ><g class="GroupNone"><rect   width="91.33" height="118" fill-opacity=".1" stroke-dasharray="5,3" style="fill:#b4b464;stroke:grey"/><g id="a43" class="GeneProduct " transform="translate(9,9)"  name="MAML1" ><rect   width="73.33" height="20"/><text   transform="translate(36.67 10)"    >MAML1</text></g><g id="ccb" class="GeneProduct " transform="translate(9 49)"  name="CREBBP" ><rect   width="73.33" height="20"/><text   transform="translate(36.67 10)"    >CREBBP</text></g><g id="d16" class="GeneProduct " transform="translate(9 69)"  name="GCN5L2" ><rect   width="73.33" height="20"/><text   transform="translate(36.67 10)"    >GCN5L2</text></g><g id="f61" class="GeneProduct " transform="translate(9,29)"  name="MAML3" ><rect   width="73.33" height="20"/><text   transform="translate(36.67 10)"    >MAML3</text></g><g id="faa" class="GeneProduct " transform="translate(9 89)"  name="PCAF" ><rect   width="73.33" height="20"/><text   transform="translate(36.67 10)"    >PCAF</text></g></g></g><g id="fb4c1" class="GroupNone" transform="translate(755 298.33)"  ><g class="GroupNone"><rect   width="198" height="58" fill-opacity=".1" stroke-dasharray="5,3" style="fill:#b4b464;stroke:grey"/><g id="b6d" class="GeneProduct " transform="translate(69 9)"  name="HDAC1" ><rect   width="60" height="20"/><text   transform="translate(30,10)"    >HDAC1</text></g><g id="c13" class="GeneProduct " transform="translate(129 9)"  name="NCOR2" ><rect   width="60" height="20"/><text   transform="translate(30,10)"    >NCOR2</text></g><g id="e92" class="GeneProduct " transform="translate(129 29)"  name="CIR" ><rect   width="60" height="20"/><text   transform="translate(30,10)"    >CIR</text></g><g id="eb8" class="GeneProduct " transform="translate(9,9)"  name="CTBP1" ><rect   width="60" height="20"/><text   transform="translate(30,10)"    >CTBP1</text></g><g id="f7a" class="GeneProduct " transform="translate(9,29)"  name="CTBP2" ><rect   width="60" height="20"/><text   transform="translate(30,10)"    >CTBP2</text></g><g id="ff9" class="GeneProduct " transform="translate(69 29)"  name="HDAC2" ><rect   width="60" height="20"/><text   transform="translate(30,10)"    >HDAC2</text></g></g></g></g></g></g></svg>