<?xml version="1.0" encoding="UTF-8"?>
<svg xmlns="http://www.w3.org/2000/svg" id="-svg" class="Diagram"  baseProfile="full" prefix="schema:http://schema.org/" preserveAspectRatio="xMidYMid"  version="1.1"><defs><g id="filter-defs"><filter id="doubletrue0filter" x="-50%" y="-50%" width="200%" height="200%"><feMorphology in="SourceGraphic" operator="dilate" radius="1" result="in2Double"/><feMorphology in="SourceGraphic" radius="1" result="inDouble"/><feComposite in="inDouble" in2="in2Double" operator="atop" result="doubleResult"/></filter></g><g id="icon-defs"><symbol id="HexagonPathVisio" class=" Icon HexagonPathVisio" x="0" y="8" overflow="visible" preserveAspectRatio="none" viewBox="0 8 100 86"><desc>HexagonPathVisio</desc><g transform="scale(1 0.85)"><path d="m1.42 51.00 21.07-42.14h56.19l21.07 42.14-21.07 42.15h-56.19l-21.07-42.15z" stroke="currentColor" vector-effect="non-scaling-stroke"/></g></symbol><symbol id="Octagon" class=" Icon Octagon" x="0" y="0" overflow="visible" preserveAspectRatio="none" viewBox="0 0 100 100"><desc>Octagon</desc><path d="m0 25 25-25h50l25 25v50l-25 25h-50l-25-25z" vector-effect="non-scaling-stroke"/></symbol></g><g id="marker-defs"><marker id="mea" markerHeight="12" markerWidth="12" orient="auto" preserveAspectRatio="none" refX="12" refY="6" viewBox="0 0 12 12"><g id="g-mea" transform=""><g transform="rotate(180 6 6)"><rect y="5.4" width="2" height="1.2" style="stroke:#fff"/><polygon points="12 11 0 6 12 1" stroke-width="0"/></g></g></marker><marker id="memcatalysis000" markerHeight="12" markerWidth="12" orient="auto" preserveAspectRatio="none" refX="12" refY="6" viewBox="0 0 12 12"><g id="g-memcatalysis000" transform=""><g transform="rotate(180 6 6)"><circle cx="6" cy="6" r="5.3px" fill="#fff" stroke="#000"/></g></g></marker></g></defs><g id="viewport-20220102140817955" class="svg-pan-zoom_viewport" transform="matrix(0.41 0 0 0.41 331.53 9.30e-6)" style="transform:matrix(0.41, 0, 0, 0.41, 331.53, 9.30e-06)"><style>svg.Diagram {font-family: 'Liberation Sans', Arial, sans-serif; }.Diagram path {fill: transparent;stroke: #000;marker-end: url(#mea);}.Diagram symbol path {fill: inherit;stroke: inherit;stroke-width: inherit;marker-end: inherit;}.Diagram rect {fill: #fff;stroke: #000;}.Diagram text {dominant-baseline: central;overflow: hidden;text-anchor: middle;fill: #000;font-size: 10px;}</style><style type="text/css">.Viewport .textContent {
  pointer-events: none;
  stroke-width: 0px;
}

					.Viewport.Icon {
  fill: white;
}

/* Hide the InfoBox */
.Viewport.textContent {
  font-size: 0;
}

.textContent {
  stroke: none;
}

.DataNode {
  stroke-miterlimit: 1;
  pointer-events: auto;
}

.DataNode:hover {
  cursor: pointer;
}

/* TODO should this apply to things other than DataNodes? */
.DataNode.textContent {
  pointer-events: none;
}

.DataNode.Highlighted {
  opacity: 0.6;
  stroke-width: 0px;
}

marker {
  /* this is what should work per the spec
  stroke-dasharray: none; */
  /* but I need to add this to make it work in Safari */
  stroke-dasharray: 9999999999999999999999999;
}

.Citation.Icon {
  fill: none;
  stroke-width: 0px;
}

.Citation.textContent {
  text-align: center;
  vertical-align: top;
  font-size: 7px;
  fill: #999;
  fill-opacity: 1;
  stroke: none;
}</style><g id="WP2686" class="Pathway http___identifiers_org_pw_PW_0000002 http___identifiers_org_pw_PW_0000010 Viewport"  name="Name: Regulation of cholesterol biosynthesis by SREBP (SREBF) Organism: Homo sapiens" ><g class="Pathway http___identifiers_org_pw_PW_0000002 http___identifiers_org_pw_PW_0000010 Viewport"><rect   width="1301" height="1621" style="stroke:none"/><g id="a310f" class="Reactome_R-HSA-2317530"  ><path    d="m332 209 95 101" style="marker-end:none"/><g id="c0c5f" class="AB" transform="translate(332,209)"  ><g class="AB"/></g><g id="a19ec" class="AB" transform="translate(426.05 308.99)"  ><g class="AB"/></g></g><g id="a758e" class="Reactome_R-HSA-2317531"  ><path    d="m193 201-28 109" style="marker-end:none"/><g id="b687e" class="AB" transform="translate(193,201)"  ><g class="AB"/></g><g id="af3f2" class="AB" transform="translate(165.28 308.91)"  ><g class="AB"/></g></g><g id="a6485" class="Reactome_R-HSA-2317531"  ><path    d="m165 310-2 3"/></g><g id="a846e" class="Reactome_R-HSA-2317530"  ><path    d="m288 51 44 158" style="marker-end:none"/></g><g id="ae1dd" class="Reactome_R-HSA-2065549"  ><path    d="m1015 451 94 70" style="marker-end:none"/><g id="b1c4b" class="AB" transform="translate(1015,451)"  ><g class="AB"/></g><g id="e5a1c" class="AB" transform="translate(1108.1 520.3)"  ><g class="AB"/></g></g><g id="b2d57" class="Reactome_R-HSA-1655825"  ><path    d="m448 50 145 35" style="marker-end:none"/><g id="c70d5" class="AB" transform="translate(448,50)"  ><g class="AB"/></g><g id="c5fa8" class="AB" transform="translate(591.55 84.65)"  ><g class="AB"/></g></g><g id="b4d5a" class="Reactome_R-HSA-2065550"  ><path    d="m1027 556 22 66" style="marker-end:none"/><g id="a1515" class="AB" transform="translate(1027,556)"  ><g class="AB"/></g><g id="dade9" class="AB" transform="translate(1048.8 621.34)"  ><g class="AB"/></g></g><g id="a0e0d" class="Reactome_R-HSA-2065550"  ><path    d="m1064 536-37 20" style="marker-end:none"/></g><g id="a4145" class="Reactome_R-HSA-2065550"  ><path    d="m961 539 66 17" style="marker-end:none"/></g><g id="bb6dc" class="Reactome_R-HSA-1655831"  ><path    d="m946 635-365-163" style="marker-end:none"/><g id="ff272" class="AB" transform="translate(946,635)"  ><g class="AB"/></g><g id="e0a1d" class="AB" transform="translate(584.65,473.63)"  ><g class="AB"/></g></g><g id="b04ca" class="Reactome_R-HSA-1655831"  ><path    d="m949 637-3-2" style="marker-end:none"/></g><g id="a7290" class="Reactome_R-HSA-1655831"  ><path    d="m581 472-3-2"/></g><g id="c1e8e" class="Reactome_R-HSA-1655825"  ><path    d="m593 85 26 3"/></g><g id="c3479" class="Reactome_R-HSA-2317531"  ><path    d="m154 126 39 75" style="marker-end:none"/></g><g id="c51b4" class="Reactome_R-HSA-2065550"  ><path    d="m1049 622 8 3"/></g><g id="c5f70" class="Reactome_R-HSA-2317531"  ><path    d="m214 65-21 136" style="marker-end:none"/></g><g id="ca132" class="Reactome_R-HSA-1655825"  ><path    d="m477 91-29-41" style="marker-end:none"/></g><g id="d0867" class="Reactome_R-HSA-2317530"  ><path    d="m407 205-75 4" style="marker-end:none"/></g><g id="dc0ee" class="Reactome_R-HSA-1655825"  ><path    d="m288 51 160-1" style="marker-end:none"/></g><g id="e0790" class="Reactome_R-HSA-1655834"  ><path    d="m728 95 165-19" style="marker-end:none"/><g id="c85c3" class="AB" transform="translate(728,95)"  ><g class="AB"/></g><g id="d71f1" class="AB" transform="translate(891.35 76.19)"  ><g class="AB"/></g></g><g id="b51cc" class="Reactome_R-HSA-1655834"  ><path    d="m724 100 4-5" style="marker-end:none"/></g><g id="df635" class="Reactome_R-HSA-1655834"  ><path    d="m893 76 3-9"/></g><g id="e2146" class="Reactome_R-HSA-2317530"  ><path    d="m427 310 13 3"/></g><g id="e5907" class="Reactome_R-HSA-1655851"  ><path    d="m977 287 28 121" style="marker-end:none"/><g id="b3c63" class="AB" transform="translate(977,287)"  ><g class="AB"/></g><g id="a81f0" class="AB" transform="translate(1004.7 406.79)"  ><g class="AB"/></g><g id="ade39" class="AB" transform="translate(991,347.5)"  ><g class="AB"/></g></g><g id="c19d3" class="Reactome_R-HSA-1655851"  ><path    d="m974 280 3 7" style="marker-end:none"/></g><g id="ce399" class="Reactome_R-HSA-1655851"  ><path    d="m1005 408 4 6"/></g><g id="b8cb2" class="Reactome_R-HSA-1655851"  ><path    d="m1062 330-73 1" style="marker-end:url(#memcatalysis000)"/></g><g id="ec718" class="Reactome_R-HSA-2065539"  ><path    d="m560 523 2 54" style="marker-end:none"/><g id="bb057" class="AB" transform="translate(560,523)"  ><g class="AB"/></g><g id="dc7f0" class="AB" transform="translate(561.98,576.46)"  ><g class="AB"/></g></g><g id="a3916" class="Reactome_R-HSA-2065539"  ><path    d="m578 470-18 53" style="marker-end:none"/></g><g id="d5849" class="Reactome_R-HSA-2065539"  ><path    d="m618 507-58 16" style="marker-end:none"/></g><g id="c3c3b" class="Reactome_R-HSA-2065539"  ><path    d="m562 577-119-5"/></g><g id="e503a" class="Reactome_R-HSA-2065539"  ><path    d="m562 577 41 31"/></g><g id="f7491" class="Reactome_R-HSA-2317530"  ><path    d="m372 165-40 44" style="marker-end:none"/></g><g id="f7ca2" class="Reactome_R-HSA-2065549"  ><path    d="m1109 521 33 3"/></g><g id="fd260" class="Reactome_R-HSA-2065549"  ><path    d="m1009 444 6 7" style="marker-end:none"/></g><g id="fd31e" class="Reactome_R-HSA-1655842"  ><path    d="m971 81-6 99" style="marker-end:none"/><g id="a4642" class="AB" transform="translate(971,81)"  ><g class="AB"/></g><g id="acdc8" class="AB" transform="translate(965.06,179.01)"  ><g class="AB"/></g><g id="dbd36" class="AB" transform="translate(968,130.5)"  ><g class="AB"/></g></g><g id="f9671" class="Reactome_R-HSA-1655842"  ><path    d="m973 78-2 3" style="marker-end:none"/></g><g id="da50e" class="Reactome_R-HSA-1655842"  ><path    d="m965 180 75 26"/></g><g id="f0a95" class="Reactome_R-HSA-1655842"  ><path    d="m965 180 9 74"/></g><g id="b0edc" class="Reactome_R-HSA-1655842"  ><path    d="m1041 130-74-1" style="marker-end:url(#memcatalysis000)"/></g><g id="b60e7" class="GroupGroup" transform="translate(18,14)"  ><g class="GroupGroup"><g id="cb1d4" class="" transform="translate(8,8)"  ><g class=""><rect   transform="matrix(1.00 0 0 0.99 1.49 1.49)" width="718" height="374" rx="15" ry="15" stroke-width="3" style="fill:transparent;stroke:#c0c0c0"/></g></g><g id="a5f1f" class="Label" transform="translate(15,339)"  name="endoplasmic reticulum membrane" ><g class="Label"/><text   transform="translate(116,16.5)"    >endoplasmic reticulum membrane</text></g></g></g><g id="d20b3" class="GroupGroup" transform="translate(-1,-4)"  ><g class="GroupGroup"><g id="bf455" class="" transform="translate(8,8)"  ><g class=""><rect   transform="matrix(1.00 0 0 1.00 1.50 1.49)" width="1264" height="769" rx="15" ry="15" stroke-width="3" style="fill:transparent;stroke:#c0c0c0"/></g></g><g id="c7ed9" class="Label" transform="translate(37,729)"  name="cytosol" ><g class="Label"/><text   transform="translate(32,16.5)"    >cytosol</text></g></g></g><g id="dd2b8" class="GroupGroup" transform="translate(77,426)"  ><g class="GroupGroup"><g id="ec5da" class="" transform="translate(8,8)"  ><g class=""><rect   transform="matrix(1.00 0 0 0.99 1.49 1.48)" width="649" height="289" rx="15" ry="15" stroke-width="3" style="fill:transparent;stroke:#c0c0c0"/></g></g><g id="a716c" class="Label" transform="translate(28,249)"  name="nucleoplasm" ><g class="Label"/><text   transform="translate(49.5,16.5)"    >nucleoplasm</text></g></g></g><g id="f6c91" class="GroupGroup" transform="translate(779,23)"  ><g class="GroupGroup"><g id="a0bc4" class="" transform="translate(8,8)"  ><g class=""><rect   transform="matrix(0.99 0 0 0.99 1.49 1.49)" width="383" height="352" rx="15" ry="15" stroke-width="3" style="fill:transparent;stroke:#c0c0c0"/></g></g><g id="f7749" class="Label" transform="translate(11,322)"  name="Golgi membrane" ><g class="Label"/><text   transform="translate(61,16.5)"    >Golgi membrane</text></g></g></g><g id="a5c2d" class="Complex Reactome_R-HSA-1655749" transform="translate(407,194)"  name="INSIG" ><g class="Complex Reactome_R-HSA-1655749"><rect   width="60" height="23" rx="15" ry="15" style="stroke:#a52a2a"/></g><g ><defs><clipPath ><rect x="-30" y="-11.5" width="60" height="23" style="stroke:none"/></clipPath></defs><text   transform="translate(30,11.5)"     style="fill:#a52a2a">INSIG</text></g></g><g id="a6dca" class="Protein" transform="translate(1041,118)"  name="MBTPS1" ><rect   width="68" height="24"/><text   transform="translate(34,12)"    >MBTPS1</text></g><g id="a7028" class="Complex Reactome_R-HSA-2317517" transform="translate(40,115)"  name="INSIG:oxysterol" ><g class="Complex Reactome_R-HSA-2317517"><use class="Complex Reactome_R-HSA-2317517 Node Icon" width="115" height="23" fill="#fff" stroke="#a52a2a" href="#HexagonPathVisio"/></g><g ><defs><clipPath ><rect x="-57.5" y="-11.5" width="115" height="23" style="stroke:none"/></clipPath></defs><text   transform="translate(57.5,11.5)"     style="fill:#a52a2a">INSIG:oxysterol</text></g></g><g id="a7519" class="Complex Reactome_R-HSA-180719" transform="translate(494,608)"  name="Importin-beta:Ran GTP complex" ><g class="Complex Reactome_R-HSA-180719"><use class="Complex Reactome_R-HSA-180719 Node Icon" width="218" height="23" fill="#fff" stroke="#a52a2a" href="#HexagonPathVisio"/></g><g ><defs><clipPath ><rect x="-109" y="-11.5" width="218" height="23" style="stroke:none"/></clipPath></defs><text   transform="translate(109,11.5)"     style="fill:#a52a2a"><tspan   x="0" y="-5.5">Importin-beta:Ran</tspan><tspan   x="0" y="5.5">GTP complex</tspan></text></g></g><g id="a9308" class="Complex Reactome_R-HSA-2317520" transform="translate(140,37)"  name="SREBP1A,1C,2:SCAP" ><g class="Complex Reactome_R-HSA-2317520"><use class="Complex Reactome_R-HSA-2317520 Node Icon" width="149" height="28" fill="#fff" stroke="#a52a2a" href="#HexagonPathVisio"/></g><g ><defs><clipPath ><rect x="-74.5" y="-14" width="149" height="28" style="stroke:none"/></clipPath></defs><text   transform="translate(74.5,14)"     style="fill:#a52a2a">SREBP1A,1C,2:SCAP</text></g></g><g id="a9e0e" class="Complex Reactome_R-HSA-1655732" transform="translate(904,414)"  name="SREBF1A,1C,2 cleaved by S2P" ><g class="Complex Reactome_R-HSA-1655732"><rect   width="211" height="31" rx="15" ry="15" style="stroke:#a52a2a"/></g><g ><defs><clipPath ><rect x="-105.5" y="-15.5" width="211" height="31" style="stroke:none"/></clipPath></defs><text   transform="translate(105.5,15.5)"     style="fill:#a52a2a"><tspan   x="0" y="-5.5">SREBF1A,1C,2 cleaved</tspan><tspan   x="0" y="5.5">by S2P</tspan></text></g></g><g id="afa78" class="Complex Reactome_R-HSA-2065548" transform="translate(1064,524)"  name="SREBP1A,1C,2 dimer" ><g class="Complex Reactome_R-HSA-2065548"><use class="Complex Reactome_R-HSA-2065548 Node Icon" width="157" height="24" fill="#fff" stroke="#a52a2a" href="#HexagonPathVisio"/></g><g ><defs><clipPath ><rect x="-78.5" y="-12" width="157" height="24" style="stroke:none"/></clipPath></defs><text   transform="translate(78.5,12)"     style="fill:#a52a2a">SREBP1A,1C,2 dimer</text></g></g><g id="aff0c" class="Complex Reactome_R-HSA-1655765" transform="translate(514,88)"  name="SREBP1A,1C,2:SCAP:Cop II Coat" ><g class="Complex Reactome_R-HSA-1655765"><use class="Complex Reactome_R-HSA-1655765 Node Icon" width="211" height="24" fill="#fff" stroke="#a52a2a" href="#HexagonPathVisio"/></g><g ><defs><clipPath ><rect x="-105.5" y="-12" width="211" height="24" style="stroke:none"/></clipPath></defs><text   transform="translate(105.5,12)"     style="fill:#a52a2a">SREBP1A,1C,2:SCAP:Cop II Coat</text></g></g><g id="b0528" class="Protein" transform="translate(1062,321)"  name="MBTPS2" ><rect   width="52" height="19"/><text   transform="translate(26,9.5)"    >MBTPS2</text></g><g id="b1172" class="Complex Reactome_R-HSA-1655742" transform="translate(896,56)"  name="SREBP1A,1C,2:SCAP" ><g class="Complex Reactome_R-HSA-1655742"><use class="Complex Reactome_R-HSA-1655742 Node Icon" width="154" height="22" fill="#fff" stroke="#a52a2a" href="#HexagonPathVisio"/></g><g ><defs><clipPath ><rect x="-77" y="-11" width="154" height="22" style="stroke:none"/></clipPath></defs><text   transform="translate(77,11)"     style="fill:#a52a2a">SREBP1A,1C,2:SCAP</text></g></g><g id="b19ab" class="Complex Reactome_R-HSA-2317522" transform="translate(39,313)"  name="SREBP1A,1C,2:SCAP:INSIG:oxysterol" ><g class="Complex Reactome_R-HSA-2317522"><use class="Complex Reactome_R-HSA-2317522 Node Icon" width="249" height="26" fill="#fff" stroke="#a52a2a" href="#HexagonPathVisio"/></g><g ><defs><clipPath ><rect x="-124.5" y="-13" width="249" height="26" style="stroke:none"/></clipPath></defs><text   transform="translate(124.5,13)"     style="fill:#a52a2a">SREBP1A,1C,2:SCAP:INSIG:oxysterol</text></g></g><g id="cab16" class="Complex Reactome_R-HSA-2065543" transform="translate(366,458)"  name="SREBP1A,1C,2:Importin beta-1" ><g class="Complex Reactome_R-HSA-2065543"><use class="Complex Reactome_R-HSA-2065543 Node Icon" width="212" height="24" fill="#fff" stroke="#a52a2a" href="#HexagonPathVisio"/></g><g ><defs><clipPath ><rect x="-106" y="-12" width="212" height="24" style="stroke:none"/></clipPath></defs><text   transform="translate(106,12)"     style="fill:#a52a2a">SREBP1A,1C,2:Importin beta-1</text></g></g><g id="d01bd" class="Protein" transform="translate(845,527)"  name="KPNB1" ><rect   width="116" height="24"/><text   transform="translate(58,12)"    >KPNB1</text></g><g id="d0506" class="Complex Reactome_R-HSA-1655766" transform="translate(312,313)"  name="SREBP1A,1C,2:SCAP:cholesterol:INSIG" ><g class="Complex Reactome_R-HSA-1655766"><use class="Complex Reactome_R-HSA-1655766 Node Icon" width="256" height="27" fill="#fff" stroke="#a52a2a" href="#HexagonPathVisio"/></g><g ><defs><clipPath ><rect x="-128" y="-13.5" width="256" height="27" style="stroke:none"/></clipPath></defs><text   transform="translate(128,13.5)"     style="fill:#a52a2a">SREBP1A,1C,2:SCAP:cholesterol:INSIG</text></g></g><g id="d0e3a" class="Complex Reactome_R-HSA-203997" transform="translate(283,78)"  name="SAR1B:GTP:SEC23:SEC24" ><g class="Complex Reactome_R-HSA-203997"><use class="Complex Reactome_R-HSA-203997 Node Icon" width="194" height="27" fill="#fff" stroke="#a52a2a" href="#HexagonPathVisio"/></g><g ><defs><clipPath ><rect x="-97" y="-13.5" width="194" height="27" style="stroke:none"/></clipPath></defs><text   transform="translate(97,13.5)"     style="fill:#a52a2a">SAR1B:GTP:SEC23:SEC24</text></g></g><g id="e24aa" class="Metabolite " transform="translate(372,150)"  name="CHOL" ><rect   width="81" height="30" style="stroke:#00f"/><text   transform="translate(40.5,15)"     style="fill:#00f">CHOL</text></g><g id="e34bb" class="Complex Reactome_R-HSA-180738" transform="translate(618,496)"  name="RAN:GTP" ><g class="Complex Reactome_R-HSA-180738"><use class="Complex Reactome_R-HSA-180738 Node Icon" width="82" height="22" fill="#fff" stroke="#a52a2a" href="#HexagonPathVisio"/></g><g ><defs><clipPath ><rect x="-41" y="-11" width="82" height="22" style="stroke:none"/></clipPath></defs><text   transform="translate(41,11)"     style="fill:#a52a2a">RAN:GTP</text></g></g><g id="e7e88" class="Complex Reactome_R-HSA-1655737" transform="translate(1040,194)"  name="SCAP tetramer" ><g class="Complex Reactome_R-HSA-1655737"><use class="Complex Reactome_R-HSA-1655737 Node Icon" width="120" height="25" fill="#fff" stroke="#a52a2a" href="#HexagonPathVisio"/></g><g ><defs><clipPath ><rect x="-60" y="-12.5" width="120" height="25" style="stroke:none"/></clipPath></defs><text   transform="translate(60,12.5)"     style="fill:#a52a2a">SCAP tetramer</text></g></g><g id="f0e5b" class="Pathway Reactome_R-HSA-2426168" transform="translate(114,595)"  name="Activation of gene expression by SREBF (SREBP)" ><g class="Pathway Reactome_R-HSA-2426168" filter="url(#doubletrue0filter)"><g class="Pathway Reactome_R-HSA-2426168"><rect   width="343" height="75" style="stroke:none"/></g></g><g ><defs><clipPath ><rect x="-171.5" y="-37.5" width="343" height="75" style="stroke:none"/></clipPath></defs><text   transform="translate(171.5,37.5)"     style="fill:#14961e"><tspan   x="0" y="-11">Activation of gene</tspan><tspan   x="0" y="0">expression by SREBF</tspan><tspan   x="0" y="11">(SREBP)</tspan></text></g></g><g id="f5a74" class="Complex Reactome_R-HSA-2065556" transform="translate(949,625)"  name="SREBP1A,1C,2:Importin beta-1" ><g class="Complex Reactome_R-HSA-2065556"><use class="Complex Reactome_R-HSA-2065556 Node Icon" width="216" height="25" fill="#fff" stroke="#a52a2a" href="#HexagonPathVisio"/></g><g ><defs><clipPath ><rect x="-108" y="-12.5" width="216" height="25" style="stroke:none"/></clipPath></defs><text   transform="translate(108,12.5)"     style="fill:#a52a2a">SREBP1A,1C,2:Importin beta-1</text></g></g><g id="f61f7" class="Complex Reactome_R-HSA-1655744" transform="translate(285,560)"  name="SREBP1A,1C,2 dimer" ><g class="Complex Reactome_R-HSA-1655744"><use class="Complex Reactome_R-HSA-1655744 Node Icon" width="159" height="25" fill="#fff" stroke="#a52a2a" href="#HexagonPathVisio"/></g><g ><defs><clipPath ><rect x="-79.5" y="-12.5" width="159" height="25" style="stroke:none"/></clipPath></defs><text   transform="translate(79.5,12.5)"     style="fill:#a52a2a">SREBP1A,1C,2 dimer</text></g></g><g id="f7952" class="Complex Reactome_R-HSA-1655726" transform="translate(873,254)"  name="SREBF1A,1C,2 cleaved by S1P" ><g class="Complex Reactome_R-HSA-1655726"><rect   width="202" height="27" rx="15" ry="15" style="stroke:#a52a2a"/></g><g ><defs><clipPath ><rect x="-101" y="-13.5" width="202" height="27" style="stroke:none"/></clipPath></defs><text   transform="translate(101,13.5)"     style="fill:#a52a2a"><tspan   x="0" y="-5.5">SREBF1A,1C,2 cleaved</tspan><tspan   x="0" y="5.5">by S1P</tspan></text></g></g><g id="abe6e" class="GroupComplex" transform="translate(178,819)"  ><g class="GroupComplex"><use class="Icon" width="124" height="104" fill="#b4b464" fill-opacity=".1" stroke="grey" href="#Octagon"/><g id="a3a75" class="Protein-3" transform="translate(12,32)"  name="SREBF1-3" ><rect   width="100" height="20"/><text   transform="translate(50,10)"    >SREBF1-3</text></g><g id="a83e9" class="Protein-1" transform="translate(12,12)"  name="SREBF1-1(1-490)" ><rect   width="100" height="20"/><text   transform="translate(50,10)"    >SREBF1-1(1-490)</text></g><g id="c56f2" class="Protein" transform="translate(12,72)"  name="KPNB1" ><rect   width="100" height="20"/><text   transform="translate(50,10)"    >KPNB1</text></g><g id="eabb4" class="Protein" transform="translate(12,52)"  name="SREBF2(1-484)" ><rect   width="100" height="20"/><text   transform="translate(50,10)"    >SREBF2(1-484)</text></g></g></g><g id="b4d56" class="GroupNone" transform="translate(321,822)"  ><g class="GroupNone"><rect   width="118" height="58" fill-opacity=".1" stroke-dasharray="5,3" style="fill:#b4b464;stroke:grey"/><g id="b0c4e" class="Protein" transform="translate(9,9)"  name="INSIG1" ><rect   width="100" height="20"/><text   transform="translate(50,10)"    >INSIG1</text></g><g id="f788c" class="Protein" transform="translate(9,29)"  name="INSIG2" ><rect   width="100" height="20"/><text   transform="translate(50,10)"    >INSIG2</text></g></g></g><g id="b73d0" class="GroupComplex" transform="translate(178,1239)"  ><g class="GroupComplex"><use class="Icon" width="124" height="84" fill="#b4b464" fill-opacity=".1" stroke="grey" href="#Octagon"/><g id="b98a4" class="Protein" transform="translate(12,32)"  name="RAN" ><rect   width="100" height="20"/><text   transform="translate(50,10)"    >RAN</text></g><g id="c9ca0" class="Metabolite " transform="translate(12,52)"  name="GTP" ><rect   width="100" height="20" style="stroke:#00f"/><text   transform="translate(50,10)"     style="fill:#00f">GTP</text></g><g id="dc319" class="Protein" transform="translate(12,12)"  name="KPNB1" ><rect   width="100" height="20"/><text   transform="translate(50,10)"    >KPNB1</text></g></g></g><g id="bd2ac" class="GroupNone" transform="translate(41,1162)"  ><g class="GroupNone"><rect   width="118" height="78" fill-opacity=".1" stroke-dasharray="5,3" style="fill:#b4b464;stroke:grey"/><g id="bad55" class="Protein-1" transform="translate(9,9)"  name="SREBF1-1(1-530)" ><rect   width="100" height="20"/><text   transform="translate(50,10)"    >SREBF1-1(1-530)</text></g><g id="cd56b" class="Protein-3" transform="translate(9,29)"  name="SREBF1-3" ><rect   width="100" height="20"/><text   transform="translate(50,10)"    >SREBF1-3</text></g><g id="cf256" class="Protein" transform="translate(9,49)"  name="SREBF2(1-522)" ><rect   width="100" height="20"/><text   transform="translate(50,10)"    >SREBF2(1-522)</text></g></g></g><g id="c716d" class="GroupComplex" transform="translate(178,1059)"  ><g class="GroupComplex"><use class="Icon" width="124" height="84" fill="#b4b464" fill-opacity=".1" stroke="grey" href="#Octagon"/><g id="b8c0e" class="Protein-3" transform="translate(12,32)"  name="SREBF1-3" ><rect   width="100" height="20"/><text   transform="translate(50,10)"    >SREBF1-3</text></g><g id="e61b9" class="Protein-1" transform="translate(12,12)"  name="SREBF1-1(1-490)" ><rect   width="100" height="20"/><text   transform="translate(50,10)"    >SREBF1-1(1-490)</text></g><g id="fae53" class="Protein" transform="translate(12,52)"  name="SREBF2(1-484)" ><rect   width="100" height="20"/><text   transform="translate(50,10)"    >SREBF2(1-484)</text></g></g></g><g id="c89d1" class="GroupComplex" transform="translate(178,1159)"  ><g class="GroupComplex"><use class="Icon" width="124" height="64" fill="#b4b464" fill-opacity=".1" stroke="grey" href="#Octagon"/><g id="aed48" class="Protein" transform="translate(12,12)"  name="RAN" ><rect   width="100" height="20"/><text   transform="translate(50,10)"    >RAN</text></g><g id="b6de4" class="Metabolite " transform="translate(12,32)"  name="GTP" ><rect   width="100" height="20" style="stroke:#00f"/><text   transform="translate(50,10)"     style="fill:#00f">GTP</text></g></g></g><g id="c9b5c" class="GroupComplex" transform="translate(318,899)"  ><g class="GroupComplex"><use class="Icon" width="124" height="164" fill="#b4b464" fill-opacity=".1" stroke="grey" href="#Octagon"/><g id="a1ff6" class="Protein" transform="translate(12,92)"  name="SCAP" ><rect   width="100" height="20"/><text   transform="translate(50,10)"    >SCAP</text></g><g id="a8e75" class="Protein" transform="translate(12,52)"  name="SREBF2(1-1141)" ><rect   width="100" height="20"/><text   transform="translate(50,10)"    >SREBF2(1-1141)</text></g><g id="aca18" class="Protein" transform="translate(12,132)"  name="INSIG2" ><rect   width="100" height="20"/><text   transform="translate(50,10)"    >INSIG2</text></g><g id="cd3ba" class="Protein" transform="translate(12,112)"  name="INSIG1" ><rect   width="100" height="20"/><text   transform="translate(50,10)"    >INSIG1</text></g><g id="d2f50" class="Protein-1" transform="translate(12,12)"  name="SREBF1-1" ><rect   width="100" height="20"/><text   transform="translate(50,10)"    >SREBF1-1</text></g><g id="eaa4a" class="Protein-3" transform="translate(12,32)"  name="SREBF1-3" ><rect   width="100" height="20"/><text   transform="translate(50,10)"    >SREBF1-3</text></g><g id="eaa71" class="Metabolite " transform="translate(12,72)"  name="CHOL" ><rect   width="100" height="20" style="stroke:#00f"/><text   transform="translate(50,10)"     style="fill:#00f">CHOL</text></g></g></g><g id="cb8ac" class="GroupComplex" transform="translate(318,1179)"  ><g class="GroupComplex"><use class="Icon" width="124" height="164" fill="#b4b464" fill-opacity=".1" stroke="grey" href="#Octagon"/><g id="a22f3" class="Protein-3" transform="translate(12,32)"  name="SREBF1-3" ><rect   width="100" height="20"/><text   transform="translate(50,10)"    >SREBF1-3</text></g><g id="a7194" class="Protein" transform="translate(12,52)"  name="SREBF2(1-1141)" ><rect   width="100" height="20"/><text   transform="translate(50,10)"    >SREBF2(1-1141)</text></g><g id="beb69" class="Protein-1" transform="translate(12,12)"  name="SREBF1-1" ><rect   width="100" height="20"/><text   transform="translate(50,10)"    >SREBF1-1</text></g><g id="d8660" class="Metabolite " transform="translate(12,132)"  name="oxysterol" ><rect   width="100" height="20" style="stroke:#00f"/><text   transform="translate(50,10)"     style="fill:#00f">oxysterol</text></g><g id="e20fb" class="Protein" transform="translate(12,72)"  name="SCAP" ><rect   width="100" height="20"/><text   transform="translate(50,10)"    >SCAP</text></g><g id="eda0e" class="Protein" transform="translate(12,92)"  name="INSIG1" ><rect   width="100" height="20"/><text   transform="translate(50,10)"    >INSIG1</text></g><g id="f80d2" class="Protein" transform="translate(12,112)"  name="INSIG2" ><rect   width="100" height="20"/><text   transform="translate(50,10)"    >INSIG2</text></g></g></g><g id="cd55f" class="GroupComplex" transform="translate(38,779)"  ><g class="GroupComplex"><use class="Icon" width="124" height="244" fill="#b4b464" fill-opacity=".1" stroke="grey" href="#Octagon"/><g id="a90f4" class="Protein" transform="translate(12,72)"  name="SEC24B" ><rect   width="100" height="20"/><text   transform="translate(50,10)"    >SEC24B</text></g><g id="aa3c9" class="Protein" transform="translate(12,112)"  name="SEC24D" ><rect   width="100" height="20"/><text   transform="translate(50,10)"    >SEC24D</text></g><g id="af752" class="Protein" transform="translate(12,32)"  name="SAR1B" ><rect   width="100" height="20"/><text   transform="translate(50,10)"    >SAR1B</text></g><g id="bb503" class="Metabolite " transform="translate(12,12)"  name="GTP" ><rect   width="100" height="20" style="stroke:#00f"/><text   transform="translate(50,10)"     style="fill:#00f">GTP</text></g><g id="cb469" class="Protein" transform="translate(12,212)"  name="SREBF2(1-1141)" ><rect   width="100" height="20"/><text   transform="translate(50,10)"    >SREBF2(1-1141)</text></g><g id="cfa49" class="Protein" transform="translate(12,152)"  name="SCAP" ><rect   width="100" height="20"/><text   transform="translate(50,10)"    >SCAP</text></g><g id="d1dd5" class="Protein" transform="translate(12,52)"  name="SEC24A" ><rect   width="100" height="20"/><text   transform="translate(50,10)"    >SEC24A</text></g><g id="d52bd" class="Protein" transform="translate(12,132)"  name="SEC23A" ><rect   width="100" height="20"/><text   transform="translate(50,10)"    >SEC23A</text></g><g id="d8675" class="Protein-3" transform="translate(12,192)"  name="SREBF1-3" ><rect   width="100" height="20"/><text   transform="translate(50,10)"    >SREBF1-3</text></g><g id="d9429" class="Protein-1" transform="translate(12,172)"  name="SREBF1-1" ><rect   width="100" height="20"/><text   transform="translate(50,10)"    >SREBF1-1</text></g><g id="fcaea" class="Protein" transform="translate(12,92)"  name="SEC24C" ><rect   width="100" height="20"/><text   transform="translate(50,10)"    >SEC24C</text></g></g></g><g id="d2e49" class="GroupNone" transform="translate(41,1322)"  ><g class="GroupNone"><rect   width="118" height="78" fill-opacity=".1" stroke-dasharray="5,3" style="fill:#b4b464;stroke:grey"/><g id="c4e59" class="Protein-1" transform="translate(9,9)"  name="SREBF1-1(1-490)" ><rect   width="100" height="20"/><text   transform="translate(50,10)"    >SREBF1-1(1-490)</text></g><g id="c9d3e" class="Protein-3" transform="translate(9,29)"  name="SREBF1-3" ><rect   width="100" height="20"/><text   transform="translate(50,10)"    >SREBF1-3</text></g><g id="d8fa2" class="Protein" transform="translate(9,49)"  name="SREBF2(1-484)" ><rect   width="100" height="20"/><text   transform="translate(50,10)"    >SREBF2(1-484)</text></g></g></g><g id="d7c72" class="GroupComplex" transform="translate(38,1259)"  ><g class="GroupComplex"><use class="Icon" width="124" height="44" fill="#b4b464" fill-opacity=".1" stroke="grey" href="#Octagon"/><g id="f00c7" class="Protein" transform="translate(12,12)"  name="SCAP" ><rect   width="100" height="20"/><text   transform="translate(50,10)"    >SCAP</text></g></g></g><g id="da59e" class="GroupComplex" transform="translate(318,1079)"  ><g class="GroupComplex"><use class="Icon" width="124" height="84" fill="#b4b464" fill-opacity=".1" stroke="grey" href="#Octagon"/><g id="b47cc" class="Protein" transform="translate(12,12)"  name="INSIG1" ><rect   width="100" height="20"/><text   transform="translate(50,10)"    >INSIG1</text></g><g id="d84e4" class="Metabolite " transform="translate(12,52)"  name="oxysterol" ><rect   width="100" height="20" style="stroke:#00f"/><text   transform="translate(50,10)"     style="fill:#00f">oxysterol</text></g><g id="fe29a" class="Protein" transform="translate(12,32)"  name="INSIG2" ><rect   width="100" height="20"/><text   transform="translate(50,10)"    >INSIG2</text></g></g></g><g id="e0e95" class="GroupComplex" transform="translate(318,1359)"  ><g class="GroupComplex"><use class="Icon" width="124" height="104" fill="#b4b464" fill-opacity=".1" stroke="grey" href="#Octagon"/><g id="adcf6" class="Protein-1" transform="translate(12,32)"  name="SREBF1-1" ><rect   width="100" height="20"/><text   transform="translate(50,10)"    >SREBF1-1</text></g><g id="b59db" class="Protein" transform="translate(12,12)"  name="SCAP" ><rect   width="100" height="20"/><text   transform="translate(50,10)"    >SCAP</text></g><g id="d53af" class="Protein-3" transform="translate(12,52)"  name="SREBF1-3" ><rect   width="100" height="20"/><text   transform="translate(50,10)"    >SREBF1-3</text></g><g id="e0cea" class="Protein" transform="translate(12,72)"  name="SREBF2(1-1141)" ><rect   width="100" height="20"/><text   transform="translate(50,10)"    >SREBF2(1-1141)</text></g></g></g><g id="e76a8" class="GroupComplex" transform="translate(178,1339)"  ><g class="GroupComplex"><use class="Icon" width="124" height="84" fill="#b4b464" fill-opacity=".1" stroke="grey" href="#Octagon"/><g id="a7137" class="Protein" transform="translate(12,52)"  name="SREBF2(1-484)" ><rect   width="100" height="20"/><text   transform="translate(50,10)"    >SREBF2(1-484)</text></g><g id="e6f1e" class="Protein-3" transform="translate(12,32)"  name="SREBF1-3" ><rect   width="100" height="20"/><text   transform="translate(50,10)"    >SREBF1-3</text></g><g id="eb249" class="Protein-1" transform="translate(12,12)"  name="SREBF1-1(1-490)" ><rect   width="100" height="20"/><text   transform="translate(50,10)"    >SREBF1-1(1-490)</text></g></g></g><g id="e787b" class="GroupComplex" transform="translate(178,939)"  ><g class="GroupComplex"><use class="Icon" width="124" height="104" fill="#b4b464" fill-opacity=".1" stroke="grey" href="#Octagon"/><g id="a5f20" class="Protein" transform="translate(12,72)"  name="KPNB1" ><rect   width="100" height="20"/><text   transform="translate(50,10)"    >KPNB1</text></g><g id="c71f1" class="Protein-3" transform="translate(12,32)"  name="SREBF1-3" ><rect   width="100" height="20"/><text   transform="translate(50,10)"    >SREBF1-3</text></g><g id="ed6ae" class="Protein" transform="translate(12,52)"  name="SREBF2(1-484)" ><rect   width="100" height="20"/><text   transform="translate(50,10)"    >SREBF2(1-484)</text></g><g id="fa151" class="Protein-1" transform="translate(12,12)"  name="SREBF1-1(1-490)" ><rect   width="100" height="20"/><text   transform="translate(50,10)"    >SREBF1-1(1-490)</text></g></g></g><g id="fb566" class="GroupComplex" transform="translate(178,1439)"  ><g class="GroupComplex"><use class="Icon" width="124" height="164" fill="#b4b464" fill-opacity=".1" stroke="grey" href="#Octagon"/><g id="af7a5" class="Protein" transform="translate(12,52)"  name="SEC24A" ><rect   width="100" height="20"/><text   transform="translate(50,10)"    >SEC24A</text></g><g id="c6e0b" class="Protein" transform="translate(12,132)"  name="SEC23A" ><rect   width="100" height="20"/><text   transform="translate(50,10)"    >SEC23A</text></g><g id="d040b" class="Protein" transform="translate(12,112)"  name="SEC24D" ><rect   width="100" height="20"/><text   transform="translate(50,10)"    >SEC24D</text></g><g id="dfc5f" class="Protein" transform="translate(12,92)"  name="SEC24C" ><rect   width="100" height="20"/><text   transform="translate(50,10)"    >SEC24C</text></g><g id="f4005" class="Protein" transform="translate(12,32)"  name="SAR1B" ><rect   width="100" height="20"/><text   transform="translate(50,10)"    >SAR1B</text></g><g id="f9446" class="Metabolite " transform="translate(12,12)"  name="GTP" ><rect   width="100" height="20" style="stroke:#00f"/><text   transform="translate(50,10)"     style="fill:#00f">GTP</text></g><g id="fc68f" class="Protein" transform="translate(12,72)"  name="SEC24B" ><rect   width="100" height="20"/><text   transform="translate(50,10)"    >SEC24B</text></g></g></g><g id="fc96b" class="GroupComplex" transform="translate(38,1039)"  ><g class="GroupComplex"><use class="Icon" width="124" height="104" fill="#b4b464" fill-opacity=".1" stroke="grey" href="#Octagon"/><g id="a6685" class="Protein-3" transform="translate(12,32)"  name="SREBF1-3" ><rect   width="100" height="20"/><text   transform="translate(50,10)"    >SREBF1-3</text></g><g id="bae33" class="Protein-1" transform="translate(12,12)"  name="SREBF1-1" ><rect   width="100" height="20"/><text   transform="translate(50,10)"    >SREBF1-1</text></g><g id="c342e" class="Protein" transform="translate(12,72)"  name="SCAP" ><rect   width="100" height="20"/><text   transform="translate(50,10)"    >SCAP</text></g><g id="cf5f6" class="Protein" transform="translate(12,52)"  name="SREBF2(1-1141)" ><rect   width="100" height="20"/><text   transform="translate(50,10)"    >SREBF2(1-1141)</text></g></g></g></g></g></g></svg>