<?xml version="1.0" encoding="UTF-8"?>
<!--
  WikiPathways page: https://www.wikipathways.org/index.php/Pathway:WP273
  URL for this compressed file: https://github.com/eweitz/cachome/tree/main/data/WP273.svg
  Source code for compression: https://github.com/eweitz/cachome/tree/main/src/wikipathways.py
-->
<svg id="wp273-svg" class="Diagram" width="800" height="600" color="black" baseProfile="full" prefix="schema:http://schema.org/" preserveAspectRatio="xMidYMid" version="1.1" viewBox="0 0 963.33 490" vocab="http://vocabularies.wikipathways.org/wp#" xmlns="http://www.w3.org/2000/svg" xmlns:xlink="http://www.w3.org/1999/xlink"><style>svg {font-family: 'Liberation Sans', Arial, sans-serif; }</style><defs><g id="jit-defs"><filter id="kaavioblackto000000filter" x="0" y="0" width="963.33" height="490" filterUnits="userSpaceOnUse"><feColorMatrix in="SourceGraphic" values="-1   0   0 0 0                   0  -1   0 0 0                   0   0  -1 0 0                   0   0   0 1 0"/></filter></g><g id="jic-defs"><marker id="markerEndArrow" stroke-dasharray="99999" markerHeight="12" markerUnits="userSpaceOnUse" markerWidth="12" orient="auto" preserveAspectRatio="none" refX="12" refY="6" viewBox="0 0 12 12"><path transform="rotate(180 6 6)" d="M12 11L0 6l12-5z" fill="currentColor" stroke-width="0"/></marker><symbol id="Ellipse" overflow="visible" preserveAspectRatio="none" viewBox="0 0 50 50"><ellipse cx="25" cy="25" rx="25" ry="25" stroke="currentColor" vector-effect="non-scaling-stroke"/></symbol><symbol id="none" preserveAspectRatio="none" viewBox="0 0 100 100"/></g></defs><g id="WP273" class="Viewport" color="black"  name="Name: Ovarian infertility Organism: Mus musculus"><rect id="WP273-icon" class="Icon" width="963.33" height="490" fill="#fff" stroke="#000" stroke-width="0"/><g id="pvjsgeneratedid1000" class="Edge GraphicalLine DirectedInteraction" color="#000" ><g color="#000" fill="transparent"  filter="url(#kaavioblackto000000filter)" stroke="#000" stroke-dasharray="74.77907182325521, 5.8"><path id="pvjsgeneratedid1000" class="EdgeBody" d="m552.37 359.43 0.96288 80.573"   marker-end="url(#markerEndArrow)" /></g></g><g id="pvjsgeneratedid1001" class="Edge GraphicalLine DirectedInteraction" color="#000" ><g color="#000" fill="transparent"  filter="url(#kaavioblackto000000filter)" stroke="#000" stroke-dasharray="38.364840642105214, 5.8"><path id="pvjsgeneratedid1001" class="EdgeBody" d="m563.33 180 44.164-0.28666"   marker-end="url(#markerEndArrow)" /></g></g><g id="pvjsgeneratedid1002" class="Edge GraphicalLine DirectedInteraction" color="#000" ><g color="#000" fill="transparent"  filter="url(#kaavioblackto000000filter)" stroke="#000" stroke-dasharray="39.116246470535984, 5.8"><path id="pvjsgeneratedid1002" class="EdgeBody" d="m359.43 205.07 44.907 0.92834"   marker-end="url(#markerEndArrow)" /></g></g><g id="cdd" class="SingleFreeNode Shape" transform="translate(103.33 136.62)" color="#000" ><use id="cdd-icon" class="Icon" transform="matrix(.99668 0 0 .99617 .49834 .49808)" width="300" height="260.08546666666666" fill="transparent"  stroke="#000" xlink:href="#Ellipse"/></g><g id="ba6" class="SingleFreeNode Shape" transform="translate(466.67 116.67)" color="#000" ><rect id="ba6-icon" class="Icon" transform="matrix(.99773 0 0 .99635 .49887 .49818)" width="440" height="273.33" fill="transparent"  stroke="#000"/></g><g id="dbd" class="SingleFreeNode Shape" transform="translate(136.67 179.72) rotate(2.6026 80 80.277)" color="#000" ><use id="dbd-icon" class="Icon" transform="matrix(.99379 0 0 .99381 .49689 .49691)" width="160" height="160.55453333333335" fill="transparent"  stroke="#000" xlink:href="#Ellipse"/></g><g id="a53" class="SingleFreeNode Shape" transform="translate(613.28 153.33)" color="#000" ><rect id="a53-icon" class="Icon" transform="matrix(.99486 0 0 .99518 .49743 .49759)" width="193.45" height="206.67" fill="transparent"  stroke="#000"/></g><g id="b51" class="Label" transform="translate(568.67 55)" color="#000"  name="Granulosa Cell"><use id="b51-icon" class="Icon" width="189.33333333333334" height="30" fill="transparent"  stroke="#000" stroke-width="0" xlink:href="#none"/><text id="b51-text" class="Text" transform="translate(94.667 21)" fill="#000"  font-size="20px" font-weight="bold" stroke="white" stroke-width="0" text-anchor="middle"><tspan x="0" y="0">Granulosa Cell</tspan></text></g><g id="fd7" class="Label" transform="translate(479.67 122.17)" color="#000"  name="Cytoplasm"><use id="fd7-icon" class="Icon" width="127.33333333333333" height="29" fill="transparent"  stroke="#000" stroke-width="0" xlink:href="#none"/><text id="fd7-text" class="Text" transform="translate(63.667 20.5)" fill="#000"  font-size="18px" font-weight="bold" stroke="white" stroke-width="0" text-anchor="middle"><tspan x="0" y="0">Cytoplasm</tspan></text></g><g id="f8f" class="Label" transform="translate(697.5 158.83)" color="#000"  name="Nucleus"><use id="f8f-icon" class="Icon" width="98.33333333333333" height="29" fill="transparent"  stroke="#000" stroke-width="0" xlink:href="#none"/><text id="f8f-text" class="Text" transform="translate(49.167 20.5)" fill="#000"  font-size="18px" font-weight="bold" stroke="white" stroke-width="0" text-anchor="middle"><tspan x="0" y="0">Nucleus</tspan></text></g><g id="f00" class="Label" transform="translate(193.33 85)" color="#000"  name="Oocyte"><use id="f00-icon" class="Icon" width="93.33333333333333" height="30" fill="transparent"  stroke="#000" stroke-width="0" xlink:href="#none"/><text id="f00-text" class="Text" transform="translate(46.667 21)" fill="#000"  font-size="20px" font-weight="bold" stroke="white" stroke-width="0" text-anchor="middle"><tspan x="0" y="0">Oocyte</tspan></text></g><g id="dc7" class="Label" transform="translate(173.5 304.67)" color="#000"  name="Nucleus"><use id="dc7-icon" class="Icon" width="86.33333333333333" height="24" fill="transparent"  stroke="#000" stroke-width="0" xlink:href="#none"/><text id="dc7-text" class="Text" transform="translate(43.167 17)" fill="#000"  font-size="16px" font-weight="bold" stroke="white" stroke-width="0" text-anchor="middle"><tspan x="0" y="0">Nucleus</tspan></text></g><g id="ec8" class="Label" transform="translate(282.33 311.33)" color="#000"  name="Ooplasm"><use id="ec8-icon" class="Icon" width="95.33333333333333" height="24" fill="transparent"  stroke="#000" stroke-width="0" xlink:href="#none"/><text id="ec8-text" class="Text" transform="translate(47.667 17)" fill="#000"  font-size="16px" font-weight="bold" stroke="white" stroke-width="0" text-anchor="middle"><tspan x="0" y="0">Ooplasm</tspan></text></g><a  id="c5e" class="GeneProduct P594_ENSMUSG00000052430 " transform="translate(436.67 170)"   name="Bmpr1b"  ><rect id="c5e-icon" class="Icon" transform="matrix(.98361 0 0 .95238 .4918 .47619)" width="60" height="20" fill="#fff" stroke="#000"/><text id="c5e-text" class="Text" transform="translate(30,13)" fill="#000"  font-size="10px" stroke="white" stroke-width="0" text-anchor="middle"><tspan x="0" y="0">Bmpr1b</tspan></text></a><a  id="bb7" class="GeneProduct P594_ENSMUSG00000018238 " transform="translate(404.33 196)"   name="Gdf9"  ><rect id="bb7-icon" class="Icon" transform="matrix(.97561 0 0 .95238 .4878 .47619)" width="40" height="20" fill="#fff" stroke="#000"/><text id="bb7-text" class="Text" transform="translate(20,13)" fill="#000"  font-size="10px" stroke="white" stroke-width="0" text-anchor="middle"><tspan x="0" y="0">Gdf9</tspan></text></a><a  id="c56" class="GeneProduct P594_ENSMUSG00000037049 " transform="translate(236.67 356.67)"   name="Smpd1"  ><rect id="c56-icon" class="Icon" transform="matrix(.98361 0 0 .95238 .4918 .47619)" width="60" height="20" fill="#fff" stroke="#000"/><text id="c56-text" class="Text" transform="translate(30,13)" fill="#000"  font-size="10px" stroke="white" stroke-width="0" text-anchor="middle"><tspan x="0" y="0">Smpd1</tspan></text></a><a  id="c21" class="GeneProduct P594_ENSMUSG00000010592 " transform="translate(320 253.33)"   name="Dazl"  ><rect id="c21-icon" class="Icon" transform="matrix(.98361 0 0 .95238 .4918 .47619)" width="60" height="20" fill="#fff" stroke="#000"/><text id="c21-text" class="Text" transform="translate(30,13)" fill="#000"  font-size="10px" stroke="white" stroke-width="0" text-anchor="middle"><tspan x="0" y="0">Dazl</tspan></text></a><a  id="e42" class="GeneProduct P594_ENSMUSG00000050234 " transform="translate(370,290)"   name="Gja4"  ><rect id="e42-icon" class="Icon" transform="matrix(.98361 0 0 .95238 .4918 .47619)" width="60" height="20" fill="#fff" stroke="#000"/><text id="e42-text" class="Text" transform="translate(30,13)" fill="#000"  font-size="10px" stroke="white" stroke-width="0" text-anchor="middle"><tspan x="0" y="0">Gja4</tspan></text></a><a  id="d32" class="GeneProduct P594_ENSMUSG00000050234 " transform="translate(433.33 290)"   name="Gja4"  ><rect id="d32-icon" class="Icon" transform="matrix(.98361 0 0 .95238 .4918 .47619)" width="60" height="20" fill="#fff" stroke="#000"/><text id="d32-text" class="Text" transform="translate(30,13)" fill="#000"  font-size="10px" stroke="white" stroke-width="0" text-anchor="middle"><tspan x="0" y="0">Gja4</tspan></text></a><a  id="ed6" class="GeneProduct P594_ENSMUSG00000032968 " transform="translate(523.33 440)"   name="Inha"  ><rect id="ed6-icon" class="Icon" transform="matrix(.98361 0 0 .95238 .4918 .47619)" width="60" height="20" fill="#fff" stroke="#000"/><text id="ed6-text" class="Text" transform="translate(30,13)" fill="#000"  font-size="10px" stroke="white" stroke-width="0" text-anchor="middle"><tspan x="0" y="0">Inha</tspan></text></a><a  id="caf" class="GeneProduct P594_ENSMUSG00000032402 " transform="translate(503.33 170)"   name="Smad3"  ><rect id="caf-icon" class="Icon" transform="matrix(.98361 0 0 .95238 .4918 .47619)" width="60" height="20" fill="#fff" stroke="#000"/><text id="caf-text" class="Text" transform="translate(30,13)" fill="#000"  font-size="10px" stroke="white" stroke-width="0" text-anchor="middle"><tspan x="0" y="0">Smad3</tspan></text></a><a  id="ff1" class="GeneProduct P594_ENSMUSG00000037759 " transform="translate(873.33 300)"   name="Ptger2"  ><rect id="ff1-icon" class="Icon" transform="matrix(.98361 0 0 .95238 .4918 .47619)" width="60" height="20" fill="#fff" stroke="#000"/><text id="ff1-text" class="Text" transform="translate(30,13)" fill="#000"  font-size="10px" stroke="white" stroke-width="0" text-anchor="middle"><tspan x="0" y="0">Ptger2</tspan></text></a><a  id="c54" class="GeneProduct P594_ENSMUSG00000037049 " transform="translate(823.33 353.33)"   name="Smpd1"  ><rect id="c54-icon" class="Icon" transform="matrix(.98361 0 0 .95238 .4918 .47619)" width="60" height="20" fill="#fff" stroke="#000"/><text id="c54-text" class="Text" transform="translate(30,13)" fill="#000"  font-size="10px" stroke="white" stroke-width="0" text-anchor="middle"><tspan x="0" y="0">Smpd1</tspan></text></a><a  id="b1a" class="GeneProduct P594_ENSMUSG00000032274 " transform="translate(503.33 250)"   name="Cyp19a1"  ><rect id="b1a-icon" class="Icon" transform="matrix(.98522 0 0 .95238 .49261 .47619)" width="66.667" height="20" fill="#fff" stroke="#000"/><text id="b1a-text" class="Text" transform="translate(33.333 13)" fill="#000"  font-size="10px" stroke="white" stroke-width="0" text-anchor="middle"><tspan x="0" y="0">Cyp19a1</tspan></text></a><a  id="e9e" class="GeneProduct P594_ENSMUSG00000063450 " transform="translate(700 193.33)"   name="Syne2"  ><rect id="e9e-icon" class="Icon" transform="matrix(.98361 0 0 .95238 .4918 .47619)" width="60" height="20" fill="#fff" stroke="#000"/><text id="e9e-text" class="Text" transform="translate(30,13)" fill="#000"  font-size="10px" stroke="white" stroke-width="0" text-anchor="middle"><tspan x="0" y="0">Syne2</tspan></text></a><g id="cea77" class="GroupNone" transform="translate(174.33 191)" color="grey" ><rect id="cea77-icon" class="Icon" transform="matrix(.98833 0 0 .9916 .49416 .4958)" width="84.667" height="118" fill="#b4b464" fill-opacity=".1" stroke="grey" stroke-dasharray="5,3"/><g id="c01" class="GeneProduct" transform="translate(9,89)" color="#000"  name="Fig-alpha"><rect id="c01-icon" class="Icon" transform="matrix(.98522 0 0 .95238 .49261 .47619)" width="66.667" height="20" fill="#fff" stroke="#000"/><text id="c01-text" class="Text" transform="translate(33.333 13)" fill="#000"  font-size="10px" stroke="white" stroke-width="0" text-anchor="middle"><tspan x="0" y="0">Fig-alpha</tspan></text></g><a  id="ea6" class="GeneProduct P594_ENSMUSG00000022429 " transform="translate(12.333 69)"   name="Dmc1"  ><rect id="ea6-icon" class="Icon" transform="matrix(.98361 0 0 .95238 .4918 .47619)" width="60" height="20" fill="#fff" stroke="#000"/><text id="ea6-text" class="Text" transform="translate(30,13)" fill="#000"  font-size="10px" stroke="white" stroke-width="0" text-anchor="middle"><tspan x="0" y="0">Dmc1</tspan></text></a><a  id="c6e" class="GeneProduct P594_ENSMUSG00000034218 " transform="translate(12.333 9)"   name="Atm"  ><rect id="c6e-icon" class="Icon" transform="matrix(.98361 0 0 .95238 .4918 .47619)" width="60" height="20" fill="#fff" stroke="#000"/><text id="c6e-text" class="Text" transform="translate(30,13)" fill="#000"  font-size="10px" stroke="white" stroke-width="0" text-anchor="middle"><tspan x="0" y="0">Atm</tspan></text></a><a  id="a06" class="GeneProduct P594_ENSMUSG00000032498 " transform="translate(12.333 29)"   name="Mlh1"  ><rect id="a06-icon" class="Icon" transform="matrix(.98361 0 0 .95238 .4918 .47619)" width="60" height="20" fill="#fff" stroke="#000"/><text id="a06-text" class="Text" transform="translate(30,13)" fill="#000"  font-size="10px" stroke="white" stroke-width="0" text-anchor="middle"><tspan x="0" y="0">Mlh1</tspan></text></a><a  id="b0d" class="GeneProduct P594_ENSMUSG00000007035 " transform="translate(12.333 49)"   name="Msh5"  ><rect id="b0d-icon" class="Icon" transform="matrix(.98361 0 0 .95238 .4918 .47619)" width="60" height="20" fill="#fff" stroke="#000"/><text id="b0d-text" class="Text" transform="translate(30,13)" fill="#000"  font-size="10px" stroke="white" stroke-width="0" text-anchor="middle"><tspan x="0" y="0">Msh5</tspan></text></a></g><g id="e7e08" class="GroupNone" transform="translate(107.67 317.67)" color="grey" ><rect id="e7e08-icon" class="Icon" transform="matrix(.98734 0 0 .98734 .49367 .49367)" width="78" height="78" fill="#b4b464" fill-opacity=".1" stroke="grey" stroke-dasharray="5,3"/><a  id="a15" class="GeneProduct P594_ENSMUSG00000004948 " transform="translate(9,9)"   name="Zp3"  ><rect id="a15-icon" class="Icon" transform="matrix(.98361 0 0 .95238 .4918 .47619)" width="60" height="20" fill="#fff" stroke="#000"/><text id="a15-text" class="Text" transform="translate(30,13)" fill="#000"  font-size="10px" stroke="white" stroke-width="0" text-anchor="middle"><tspan x="0" y="0">Zp3</tspan></text></a><a  id="b20" class="GeneProduct P594_ENSMUSG00000004948 " transform="translate(9,29)"   name="Zp3"  ><rect id="b20-icon" class="Icon" transform="matrix(.98361 0 0 .95238 .4918 .47619)" width="60" height="20" fill="#fff" stroke="#000"/><text id="b20-text" class="Text" transform="translate(30,13)" fill="#000"  font-size="10px" stroke="white" stroke-width="0" text-anchor="middle"><tspan x="0" y="0">Zp3</tspan></text></a><a  id="f9f" class="GeneProduct P594_ENSMUSG00000030911 " transform="translate(9,49)"   name="Zp2"  ><rect id="f9f-icon" class="Icon" transform="matrix(.98361 0 0 .95238 .4918 .47619)" width="60" height="20" fill="#fff" stroke="#000"/><text id="f9f-text" class="Text" transform="translate(30,13)" fill="#000"  font-size="10px" stroke="white" stroke-width="0" text-anchor="middle"><tspan x="0" y="0">Zp2</tspan></text></a></g><g id="d5158" class="GroupNone" transform="translate(617.67 161)" color="grey" ><rect id="d5158-icon" class="Icon" transform="matrix(.98734 0 0 .99497 .49367 .49749)" width="78" height="198" fill="#b4b464" fill-opacity=".1" stroke="grey" stroke-dasharray="5,3"/><a  id="fc2" class="GeneProduct P594_ENSMUSG00000031870 " transform="translate(9,9)"   name="Pgr"  ><rect id="fc2-icon" class="Icon" transform="matrix(.98361 0 0 .95238 .4918 .47619)" width="60" height="20" fill="#fff" stroke="#000"/><text id="fc2-text" class="Text" transform="translate(30,13)" fill="#000"  font-size="10px" stroke="white" stroke-width="0" text-anchor="middle"><tspan x="0" y="0">Pgr</tspan></text></a><a  id="bd3" class="GeneProduct P594_ENSMUSG00000021055 " transform="translate(9,29)"   name="Esr2"  ><rect id="bd3-icon" class="Icon" transform="matrix(.98361 0 0 .95238 .4918 .47619)" width="60" height="20" fill="#fff" stroke="#000"/><text id="bd3-text" class="Text" transform="translate(30,13)" fill="#000"  font-size="10px" stroke="white" stroke-width="0" text-anchor="middle"><tspan x="0" y="0">Esr2</tspan></text></a><a  id="e68" class="GeneProduct P594_ENSMUSG00000022479 " transform="translate(9,49)"   name="Vdr"  ><rect id="e68-icon" class="Icon" transform="matrix(.98361 0 0 .95238 .4918 .47619)" width="60" height="20" fill="#fff" stroke="#000"/><text id="e68-text" class="Text" transform="translate(30,13)" fill="#000"  font-size="10px" stroke="white" stroke-width="0" text-anchor="middle"><tspan x="0" y="0">Vdr</tspan></text></a><a  id="fa9" class="GeneProduct P594_ENSMUSG00000026751 " transform="translate(9,69)"   name="Nr5a1"  ><rect id="fa9-icon" class="Icon" transform="matrix(.98361 0 0 .95238 .4918 .47619)" width="60" height="20" fill="#fff" stroke="#000"/><text id="fa9-text" class="Text" transform="translate(30,13)" fill="#000"  font-size="10px" stroke="white" stroke-width="0" text-anchor="middle"><tspan x="0" y="0">Nr5a1</tspan></text></a><a  id="bf8" class="GeneProduct P594_ENSMUSG00000014767 " transform="translate(9,89)"   name="Tbp"  ><rect id="bf8-icon" class="Icon" transform="matrix(.98361 0 0 .95238 .4918 .47619)" width="60" height="20" fill="#fff" stroke="#000"/><text id="bf8-text" class="Text" transform="translate(30,13)" fill="#000"  font-size="10px" stroke="white" stroke-width="0" text-anchor="middle"><tspan x="0" y="0">Tbp</tspan></text></a><a  id="fff" class="GeneProduct P594_ENSMUSG00000018501 " transform="translate(9,109)"   name="Ncor1"  ><rect id="fff-icon" class="Icon" transform="matrix(.98361 0 0 .95238 .4918 .47619)" width="60" height="20" fill="#fff" stroke="#000"/><text id="fff-text" class="Text" transform="translate(30,13)" fill="#000"  font-size="10px" stroke="white" stroke-width="0" text-anchor="middle"><tspan x="0" y="0">Ncor1</tspan></text></a><a  id="d93" class="GeneProduct P594_ENSMUSG00000048490 " transform="translate(9,129)"   name="Nrip1"  ><rect id="d93-icon" class="Icon" transform="matrix(.98361 0 0 .95238 .4918 .47619)" width="60" height="20" fill="#fff" stroke="#000"/><text id="d93-text" class="Text" transform="translate(30,13)" fill="#000"  font-size="10px" stroke="white" stroke-width="0" text-anchor="middle"><tspan x="0" y="0">Nrip1</tspan></text></a><a  id="af4" class="GeneProduct P594_ENSMUSG00000038418 " transform="translate(9,149)"   name="Egr1"  ><rect id="af4-icon" class="Icon" transform="matrix(.98361 0 0 .95238 .4918 .47619)" width="60" height="20" fill="#fff" stroke="#000"/><text id="af4-text" class="Text" transform="translate(30,13)" fill="#000"  font-size="10px" stroke="white" stroke-width="0" text-anchor="middle"><tspan x="0" y="0">Egr1</tspan></text></a><a  id="c2b" class="GeneProduct P594_ENSMUSG00000056501 " transform="translate(9,169)"   name="Cebpb"  ><rect id="c2b-icon" class="Icon" transform="matrix(.98361 0 0 .95238 .4918 .47619)" width="60" height="20" fill="#fff" stroke="#000"/><text id="c2b-text" class="Text" transform="translate(30,13)" fill="#000"  font-size="10px" stroke="white" stroke-width="0" text-anchor="middle"><tspan x="0" y="0">Cebpb</tspan></text></a></g><g id="a2295" class="GroupNone" transform="translate(771 204.33)" color="grey" ><rect id="a2295-icon" class="Icon" transform="matrix(.98734 0 0 .98734 .49367 .49367)" width="78" height="78" fill="#b4b464" fill-opacity=".1" stroke="grey" stroke-dasharray="5,3"/><a  id="e69" class="GeneProduct P594_ENSMUSG00000003031 " transform="translate(9,29)"   name="Cdkn1b"  ><rect id="e69-icon" class="Icon" transform="matrix(.98361 0 0 .95238 .4918 .47619)" width="60" height="20" fill="#fff" stroke="#000"/><text id="e69-text" class="Text" transform="translate(30,13)" fill="#000"  font-size="10px" stroke="white" stroke-width="0" text-anchor="middle"><tspan x="0" y="0">Cdkn1b</tspan></text></a><a  id="f06" class="GeneProduct P594_ENSMUSG00000000184 " transform="translate(9,9)"   name="Ccnd2"  ><rect id="f06-icon" class="Icon" transform="matrix(.98361 0 0 .95238 .4918 .47619)" width="60" height="20" fill="#fff" stroke="#000"/><text id="f06-text" class="Text" transform="translate(30,13)" fill="#000"  font-size="10px" stroke="white" stroke-width="0" text-anchor="middle"><tspan x="0" y="0">Ccnd2</tspan></text></a><a  id="a32" class="GeneProduct P594_ENSMUSG00000006728 " transform="translate(9 49)"   name="Cdk4"  ><rect id="a32-icon" class="Icon" transform="matrix(.98361 0 0 .95238 .4918 .47619)" width="60" height="20" fill="#fff" stroke="#000"/><text id="a32-text" class="Text" transform="translate(30,13)" fill="#000"  font-size="10px" stroke="white" stroke-width="0" text-anchor="middle"><tspan x="0" y="0">Cdk4</tspan></text></a></g><g id="cdb96" class="GroupNone" transform="translate(864.33 191)" color="grey" ><rect id="cdb96-icon" class="Icon" transform="matrix(.98734 0 0 .98734 .49367 .49367)" width="78" height="78" fill="#b4b464" fill-opacity=".1" stroke="grey" stroke-dasharray="5,3"/><a  id="cac" class="GeneProduct P594_ENSMUSG00000005268 " transform="translate(9,49)"   name="Prlr"  ><rect id="cac-icon" class="Icon" transform="matrix(.98361 0 0 .95238 .4918 .47619)" width="60" height="20" fill="#fff" stroke="#000"/><text id="cac-text" class="Text" transform="translate(30,13)" fill="#000"  font-size="10px" stroke="white" stroke-width="0" text-anchor="middle"><tspan x="0" y="0">Prlr</tspan></text></a><a  id="b78" class="GeneProduct P594_ENSMUSG00000032937 " transform="translate(9,29)"   name="Fshr"  ><rect id="b78-icon" class="Icon" transform="matrix(.98361 0 0 .95238 .4918 .47619)" width="60" height="20" fill="#fff" stroke="#000"/><text id="b78-text" class="Text" transform="translate(30,13)" fill="#000"  font-size="10px" stroke="white" stroke-width="0" text-anchor="middle"><tspan x="0" y="0">Fshr</tspan></text></a><a  id="af1" class="GeneProduct P594_ENSMUSG00000024107 " transform="translate(9,9)"   name="Lhcgr"  ><rect id="af1-icon" class="Icon" transform="matrix(.98361 0 0 .95238 .4918 .47619)" width="60" height="20" fill="#fff" stroke="#000"/><text id="af1-text" class="Text" transform="translate(30,13)" fill="#000"  font-size="10px" stroke="white" stroke-width="0" text-anchor="middle"><tspan x="0" y="0">Lhcgr</tspan></text></a></g><text id="WP273-text" class="Text" transform="translate(5,27)" dominant-baseline="central" fill="black"  font-size="12px" font-weight="bold" overflow="visible" stroke="white" stroke-width="0"><tspan x="0" y="-9">Name: Ovarian infertility</tspan> <tspan x="0" y="9">Organism: Mus musculus</tspan></text></g></svg>
