<?xml version="1.0" encoding="UTF-8"?>
<svg xmlns="http://www.w3.org/2000/svg" id="-svg" class="Diagram"  baseProfile="full" prefix="schema:http://schema.org/" preserveAspectRatio="xMidYMid"  version="1.1"><defs><g id="icon-defs"><symbol id="HexagonPathVisio" class=" Icon HexagonPathVisio" x="0" y="8" overflow="visible" preserveAspectRatio="none" viewBox="0 8 100 86"><desc>HexagonPathVisio</desc><g transform="scale(1 0.85)"><path d="m1.42 51.00 21.07-42.14h56.19l21.07 42.14-21.07 42.15h-56.19l-21.07-42.15z" stroke="currentColor" vector-effect="non-scaling-stroke"/></g></symbol><symbol id="Octagon" class=" Icon Octagon" x="0" y="0" overflow="visible" preserveAspectRatio="none" viewBox="0 0 100 100"><desc>Octagon</desc><path d="m0 25 25-25h50l25 25v50l-25 25h-50l-25-25z" vector-effect="non-scaling-stroke"/></symbol></g><g id="marker-defs"><marker id="mea" markerHeight="12" markerWidth="12" orient="auto" preserveAspectRatio="none" refX="12" refY="6" viewBox="0 0 12 12"><g id="g-mea" transform=""><g transform="rotate(180 6 6)"><rect y="5.4" width="2" height="1.2" style="stroke:#fff"/><polygon points="12 11 0 6 12 1" stroke-width="0"/></g></g></marker><marker id="memcatalysis000" markerHeight="12" markerWidth="12" orient="auto" preserveAspectRatio="none" refX="12" refY="6" viewBox="0 0 12 12"><g id="g-memcatalysis000" transform=""><g transform="rotate(180 6 6)"><circle cx="6" cy="6" r="5.3px" fill="#fff" stroke="#000"/></g></g></marker></g></defs><g id="viewport-20220102140835760" class="svg-pan-zoom_viewport" transform="matrix(0.47 0 0 0.47 378.19 9.30e-6)" style="transform:matrix(0.47, 0, 0, 0.47, 378.19, 9.30e-06)"><style>svg.Diagram {font-family: 'Liberation Sans', Arial, sans-serif; }.Diagram path {fill: transparent;stroke: #000;marker-end: url(#mea);}.Diagram symbol path {fill: inherit;stroke: inherit;stroke-width: inherit;marker-end: inherit;}.Diagram rect {fill: #fff;stroke: #000;}.Diagram text {dominant-baseline: central;overflow: hidden;text-anchor: middle;fill: #000;font-size: 10px;}</style><style type="text/css">.Viewport .textContent {
  pointer-events: none;
  stroke-width: 0px;
}

					.Viewport.Icon {
  fill: white;
}

/* Hide the InfoBox */
.Viewport.textContent {
  font-size: 0;
}

.textContent {
  stroke: none;
}

.DataNode {
  stroke-miterlimit: 1;
  pointer-events: auto;
}

.DataNode:hover {
  cursor: pointer;
}

/* TODO should this apply to things other than DataNodes? */
.DataNode.textContent {
  pointer-events: none;
}

.DataNode.Highlighted {
  opacity: 0.6;
  stroke-width: 0px;
}

marker {
  /* this is what should work per the spec
  stroke-dasharray: none; */
  /* but I need to add this to make it work in Safari */
  stroke-dasharray: 9999999999999999999999999;
}

.Citation.Icon {
  fill: none;
  stroke-width: 0px;
}

.Citation.textContent {
  text-align: center;
  vertical-align: top;
  font-size: 7px;
  fill: #999;
  fill-opacity: 1;
  stroke: none;
}</style><g id="WP2702" class="Pathway http___identifiers_org_pw_PW_0000002 Viewport"  name="Name: Mitochondrial iron-sulfur cluster biogenesis Organism: Homo sapiens" ><g class="Pathway http___identifiers_org_pw_PW_0000002 Viewport"><rect   width="935" height="1410" style="stroke:none"/><g id="af290" class="Reactome_R-HSA-8878815"  ><path    d="m565 609 63-1" style="marker-end:none"/><g id="d7404" class="AB" transform="translate(565,609)"  ><g class="AB"/></g><g id="bf8a6" class="AB" transform="translate(627.37,608.01)"  ><g class="AB"/></g><g id="cc304" class="AB" transform="translate(596.5,608.5)"  ><g class="AB"/></g></g><g id="a278a" class="Reactome_R-HSA-8878815"  ><path    d="m579 568 24 41"/></g><g id="b79b9" class="Reactome_R-HSA-2395512"  ><path    d="m631 409-2-96" style="marker-end:none"/><g id="ee1ea" class="AB" transform="translate(631,409)"  ><g class="AB"/></g><g id="a7a27" class="AB" transform="translate(629.02 313.96)"  ><g class="AB"/></g></g><g id="af808" class="Reactome_R-HSA-2395512"  ><path    d="m591 441 40-32" style="marker-end:none"/></g><g id="a5a17" class="Reactome_R-HSA-2395512"  ><path    d="m629 313-54 33"/></g><g id="bf0ad" class="Reactome_R-HSA-1362408"  ><path    d="m346 350v78" style="marker-end:none"/><g id="bafc3" class="AB" transform="translate(346,350)"  ><g class="AB"/></g><g id="eb488" class="AB" transform="translate(346 427.22)"  ><g class="AB"/></g><g id="cbf21" class="AB" transform="translate(346,389)"  ><g class="AB"/></g><g id="d6a82" class="AB" transform="translate(346,389)"  ><g class="AB"/></g></g><g id="a6fed" class="Reactome_R-HSA-1362408"  ><path    d="m349 298-3 52" style="marker-end:none"/></g><g id="ab70f" class="Reactome_R-HSA-1362408"  ><path    d="m283 326 63 24" style="marker-end:none"/></g><g id="b50ec" class="Reactome_R-HSA-1362408"  ><path    d="m346 428 85 13"/></g><g id="b8222" class="Reactome_R-HSA-1362408"  ><path    d="m417 346-73 38"/></g><g id="c57f6" class="Reactome_R-HSA-2395512"  ><path    d="m629 313 20-129"/></g><g id="cb694" class="Reactome_R-HSA-8878815"  ><path    d="m628 608 28 12"/></g><g id="ccf84" class="Reactome_R-HSA-8878815"  ><path    d="m476 608 89 1" style="marker-end:none"/></g><g id="cd72d" class="Reactome_R-HSA-2395512"  ><path    d="m629 313 27-62"/></g><g id="cd94b" class="Reactome_R-HSA-8878815"  ><path    d="m562 561 3 48" style="marker-end:none"/></g><g id="da18f" class="Reactome_R-HSA-1362408"  ><path    d="m346 428-67 31"/></g><g id="da1a0" class="Reactome_R-HSA-1362408"  ><path    d="m346 428 2 59"/></g><g id="dc61b" class="Reactome_R-HSA-1362417"  ><path    d="m149 208 72 1" style="marker-end:none"/><g id="dd910" class="AB" transform="translate(149,208)"  ><g class="AB"/></g><g id="cf301" class="AB" transform="translate(220.28,208.99)"  ><g class="AB"/></g><g id="df17d" class="AB" transform="translate(185,208.5)"  ><g class="AB"/></g></g><g id="cb22c" class="Reactome_R-HSA-1362417"  ><path    d="m145 210 4-2" style="marker-end:none"/></g><g id="b5958" class="Reactome_R-HSA-1362417"  ><path    d="m176 160v48" style="marker-end:url(#memcatalysis000)"/></g><g id="e1b18" class="Reactome_R-HSA-1362408"  ><path    d="m349 298-5 86" style="marker-end:url(#memcatalysis000)"/></g><g id="e1e46" class="Reactome_R-HSA-1362408"  ><path    d="m417 346-71 4" style="marker-end:none"/></g><g id="e25e9" class="Reactome_R-HSA-1362417"  ><path    d="m221 209 3 2"/></g><g id="e322a" class="Reactome_R-HSA-8878815"  ><path    d="m628 608 38-38"/></g><g id="e3c2d" class="Reactome_R-HSA-1362416"  ><path    d="m379 213-22 60" style="marker-end:none"/><g id="a075b" class="AB" transform="translate(379,213)"  ><g class="AB"/></g><g id="a45ae" class="AB" transform="translate(357.22,272.4)"  ><g class="AB"/></g></g><g id="c5145" class="Reactome_R-HSA-1362416"  ><path    d="m286 211 93 2" style="marker-end:none"/></g><g id="cfe87" class="Reactome_R-HSA-1362416"  ><path    d="m413 154-34 59" style="marker-end:none"/></g><g id="e8ade" class="Reactome_R-HSA-2395512"  ><path    d="m661 433-30-24" style="marker-end:none"/></g><g id="eeadb" class="Reactome_R-HSA-1362416"  ><path    d="m357 273-8 3"/></g><g id="f90e7" class="Reactome_R-HSA-2395517"  ><path    d="m693 239 5 61" style="marker-end:none"/><g id="b7841" class="AB" transform="translate(693,239)"  ><g class="AB"/></g><g id="ed69a" class="AB" transform="translate(697.95 299.39)"  ><g class="AB"/></g></g><g id="a737f" class="Reactome_R-HSA-2395517"  ><path    d="m736 187-43 52" style="marker-end:none"/></g><g id="b6f57" class="Reactome_R-HSA-2395517"  ><path    d="m683 173 10 66" style="marker-end:none"/></g><g id="b7cfb" class="Reactome_R-HSA-2395517"  ><path    d="m674 236 19 3" style="marker-end:none"/></g><g id="d98e5" class="Reactome_R-HSA-2395517"  ><path    d="m698 300 17 53"/></g><g id="e5885" class="Reactome_R-HSA-2395517"  ><path    d="m698 300 5 122"/></g><g id="aea0a" class="GroupGroup" transform="translate(166,100)"  ><g class="GroupGroup"><g id="e6891" class="" transform="translate(8,8)"  ><g class=""><rect   transform="matrix(1.00 0 0 0.99 1.49 1.49)" width="655" height="546" rx="15" ry="15" stroke-width="3" style="fill:transparent;stroke:#c0c0c0"/></g></g><g id="ca709" class="Label" transform="translate(20,504)"  name="mitochondrial matrix" ><g class="Label"/><text   transform="translate(73.5,16.5)"    >mitochondrial matrix</text></g></g></g><g id="bc464" class="GroupGroup" transform="translate(-4,-4)"  ><g class="GroupGroup"><g id="a0dc4" class="" transform="translate(8,8)"  ><g class=""><rect   transform="matrix(1.00 0 0 1.00 1.50 1.49)" width="901" height="758" rx="15" ry="15" stroke-width="3" style="fill:transparent;stroke:#c0c0c0"/></g></g><g id="b2a69" class="Label" transform="translate(21,720)"  name="cytosol" ><g class="Label"/><text   transform="translate(32,16.5)"    >cytosol</text></g></g></g><g id="dbead" class="GroupGroup" transform="translate(45,60)"  ><g class="GroupGroup"><g id="adb14" class="" transform="translate(8,8)"  ><g class=""><rect   transform="matrix(1.00 0 0 1.00 1.49 1.49)" width="822" height="633" rx="15" ry="15" stroke-width="3" style="fill:transparent;stroke:#c0c0c0"/></g></g><g id="d6879" class="Label" transform="translate(22,594)"  name="mitochondrial intermembrane space" ><g class="Label"/><text   transform="translate(123.5,16.5)"    >mitochondrial intermembrane space</text></g></g></g><g id="a1cd5" class="Complex Reactome_R-HSA-2408370" transform="translate(431,428)"  name="FDX1,FDX2 (oxidized)" ><g class="Complex Reactome_R-HSA-2408370"><rect   width="160" height="27" rx="15" ry="15" style="stroke:#a52a2a"/></g><g ><defs><clipPath ><rect x="-80" y="-13.5" width="160" height="27" style="stroke:none"/></clipPath></defs><text   transform="translate(80,13.5)"     style="fill:#a52a2a">FDX1,FDX2 (oxidized)</text></g></g><g id="a2e94" class="Metabolite " transform="translate(83,195)"  name="Fe2+" ><rect   width="63" height="31" style="stroke:#00f"/><text   transform="translate(31.5,15.5)"     style="fill:#00f">Fe2+</text></g><g id="a4637" class="Protein" transform="translate(666,559)"  name="GLRX5" ><rect   width="52" height="22"/><text   transform="translate(26,11)"    >GLRX5</text></g><g id="b2e05" class="Complex Reactome_R-HSA-1362399" transform="translate(133,124)"  name="Mitoferrin1,2" ><g class="Complex Reactome_R-HSA-1362399"><rect   width="87" height="37" rx="15" ry="15" style="stroke:#a52a2a"/></g><g ><defs><clipPath ><rect x="-43.5" y="-18.5" width="87" height="37" style="stroke:none"/></clipPath></defs><text   transform="translate(43.5,18.5)"     style="fill:#a52a2a">Mitoferrin1,2</text></g></g><g id="b56d1" class="Metabolite " transform="translate(706,157)"  name="NADPH" ><rect   width="60" height="30" style="stroke:#00f"/><text   transform="translate(30,15)"     style="fill:#00f">NADPH</text></g><g id="bda4e" class="Complex Reactome_R-HSA-8878840" transform="translate(366,597)"  name="ISCA1:ISCA2" ><g class="Complex Reactome_R-HSA-8878840"><use class="Complex Reactome_R-HSA-8878840 Node Icon" width="110" height="22" fill="#fff" stroke="#a52a2a" href="#HexagonPathVisio"/></g><g ><defs><clipPath ><rect x="-55" y="-11" width="110" height="22" style="stroke:none"/></clipPath></defs><text   transform="translate(55,11)"     style="fill:#a52a2a">ISCA1:ISCA2</text></g></g><g id="bdb6a" class="Complex Reactome_R-HSA-8878793" transform="translate(458,550)"  name="GLRX5:2Fe-2S" ><g class="Complex Reactome_R-HSA-8878793"><use class="Complex Reactome_R-HSA-8878793 Node Icon" width="105" height="22" fill="#fff" stroke="#a52a2a" href="#HexagonPathVisio"/></g><g ><defs><clipPath ><rect x="-52.5" y="-11" width="105" height="22" style="stroke:none"/></clipPath></defs><text   transform="translate(52.5,11)"     style="fill:#a52a2a">GLRX5:2Fe-2S</text></g></g><g id="c644a" class="Complex Reactome_R-HSA-2395508" transform="translate(615,162)"  name="FDXR:FAD" ><g class="Complex Reactome_R-HSA-2395508"><use class="Complex Reactome_R-HSA-2395508 Node Icon" width="69" height="22" fill="#fff" stroke="#a52a2a" href="#HexagonPathVisio"/></g><g ><defs><clipPath ><rect x="-34.5" y="-11" width="69" height="22" style="stroke:none"/></clipPath></defs><text   transform="translate(34.5,11)"     style="fill:#a52a2a">FDXR:FAD</text></g></g><g id="cfe7b" class="Metabolite " transform="translate(199,312)"  name="L-Cys" ><rect   width="85" height="28" style="stroke:#00f"/><text   transform="translate(42.5,14)"     style="fill:#00f">L-Cys</text></g><g id="d8f1f" class="Complex Reactome_R-HSA-1362404" transform="translate(325,130)"  name="FXN:ISD11:NFS1:ISCU" ><g class="Complex Reactome_R-HSA-1362404"><use class="Complex Reactome_R-HSA-1362404 Node Icon" width="176" height="24" fill="#fff" stroke="#a52a2a" href="#HexagonPathVisio"/></g><g ><defs><clipPath ><rect x="-88" y="-12" width="176" height="24" style="stroke:none"/></clipPath></defs><text   transform="translate(88,12)"     style="fill:#a52a2a">FXN:ISD11:NFS1:ISCU</text></g></g><g id="d9544" class="Protein" transform="translate(579,557)"  name="HSCB" ><rect   width="53" height="23"/><text   transform="translate(26.5,11.5)"    >HSCB</text></g><g id="d9e59" class="Metabolite " transform="translate(199,444)"  name="L-Ala" ><rect   width="81" height="30" style="stroke:#00f"/><text   transform="translate(40.5,15)"     style="fill:#00f">L-Ala</text></g><g id="d9f5f" class="Complex Reactome_R-HSA-2408372" transform="translate(417,331)"  name="FDX1,FDX2 (reduced)" ><g class="Complex Reactome_R-HSA-2408372"><rect   width="159" height="30" rx="15" ry="15" style="stroke:#a52a2a"/></g><g ><defs><clipPath ><rect x="-79.5" y="-15" width="159" height="30" style="stroke:none"/></clipPath></defs><text   transform="translate(79.5,15)"     style="fill:#a52a2a">FDX1,FDX2 (reduced)</text></g></g><g id="e0bf9" class="Metabolite " transform="translate(638,221)"  name="H+" ><rect   width="36" height="30" style="stroke:#00f"/><text   transform="translate(18,15)"     style="fill:#00f">H+</text></g><g id="e1813" class="Metabolite " transform="translate(224,197)"  name="Fe2+" ><rect   width="62" height="29" style="stroke:#00f"/><text   transform="translate(31,14.5)"     style="fill:#00f">Fe2+</text></g><g id="e2767" class="Complex Reactome_R-HSA-1362398" transform="translate(203,487)"  name="FXN:NFS1:ISD11:ISCU:2Fe-2S Cluster" ><g class="Complex Reactome_R-HSA-1362398"><use class="Complex Reactome_R-HSA-1362398 Node Icon" width="291" height="24" fill="#fff" stroke="#a52a2a" href="#HexagonPathVisio"/></g><g ><defs><clipPath ><rect x="-145.5" y="-12" width="291" height="24" style="stroke:none"/></clipPath></defs><text   transform="translate(145.5,12)"     style="fill:#a52a2a">FXN:NFS1:ISD11:ISCU:2Fe-2S Cluster</text></g></g><g id="e2bef" class="Complex Reactome_R-HSA-1362401" transform="translate(254,276)"  name="2 Iron:FXN:NFS1:ISD11:ISCU" ><g class="Complex Reactome_R-HSA-1362401"><use class="Complex Reactome_R-HSA-1362401 Node Icon" width="190" height="23" fill="#fff" stroke="#a52a2a" href="#HexagonPathVisio"/></g><g ><defs><clipPath ><rect x="-95" y="-11.5" width="190" height="23" style="stroke:none"/></clipPath></defs><text   transform="translate(95,11.5)"     style="fill:#a52a2a"><tspan   x="0" y="-5.5">2</tspan><tspan   x="0" y="5.5">Iron:FXN:NFS1:ISD11:ISCU</tspan></text></g></g><g id="e471f" class="Complex Reactome_R-HSA-2395502" transform="translate(661,422)"  name="FDXR:FADH2" ><g class="Complex Reactome_R-HSA-2395502"><use class="Complex Reactome_R-HSA-2395502 Node Icon" width="85" height="22" fill="#fff" stroke="#a52a2a" href="#HexagonPathVisio"/></g><g ><defs><clipPath ><rect x="-42.5" y="-11" width="85" height="22" style="stroke:none"/></clipPath></defs><text   transform="translate(42.5,11)"     style="fill:#a52a2a">FDXR:FADH2</text></g></g><g id="f0670" class="Metabolite " transform="translate(715,338)"  name="NADP+" ><rect   width="60" height="30" style="stroke:#00f"/><text   transform="translate(30,15)"     style="fill:#00f">NADP+</text></g><g id="fcfb2" class="Complex Reactome_R-HSA-8878796" transform="translate(656,608)"  name="ISCA1:ISCA2:4Fe-4S" ><g class="Complex Reactome_R-HSA-8878796"><use class="Complex Reactome_R-HSA-8878796 Node Icon" width="154" height="24" fill="#fff" stroke="#a52a2a" href="#HexagonPathVisio"/></g><g ><defs><clipPath ><rect x="-77" y="-12" width="154" height="24" style="stroke:none"/></clipPath></defs><text   transform="translate(77,12)"     style="fill:#a52a2a">ISCA1:ISCA2:4Fe-4S</text></g></g><g id="b4006" class="GroupComplex" transform="translate(38,1248)"  ><g class="GroupComplex"><use class="Icon" width="124" height="64" fill="#b4b464" fill-opacity=".1" stroke="grey" href="#Octagon"/><g id="da1a8" class="Metabolite " transform="translate(12,12)"  name="FAD" ><rect   width="100" height="20" style="stroke:#00f"/><text   transform="translate(50,10)"     style="fill:#00f">FAD</text></g><g id="ec5eb" class="Protein" transform="translate(12,32)"  name="FDXR" ><rect   width="100" height="20"/><text   transform="translate(50,10)"    >FDXR</text></g></g></g><g id="c1dda" class="GroupNone" transform="translate(181,911)"  ><g class="GroupNone"><rect   width="118" height="78" fill-opacity=".1" stroke-dasharray="5,3" style="fill:#b4b464;stroke:grey"/><g id="b2543" class="Metabolite " transform="translate(9,29)"  name="(2Fe-2S)(1+)" ><rect   width="100" height="20" style="stroke:#00f"/><text   transform="translate(50,10)"     style="fill:#00f">(2Fe-2S)(1+)</text></g><g id="d8dd8" class="Protein" transform="translate(9,9)"  name="FDX1" ><rect   width="100" height="20"/><text   transform="translate(50,10)"    >FDX1</text></g><g id="f2a2a" class="Protein" transform="translate(9,49)"  name="FDX2" ><rect   width="100" height="20"/><text   transform="translate(50,10)"    >FDX2</text></g></g></g><g id="c46ee" class="GroupNone" transform="translate(41,771)"  ><g class="GroupNone"><rect   width="118" height="58" fill-opacity=".1" stroke-dasharray="5,3" style="fill:#b4b464;stroke:grey"/><g id="cbd51" class="Protein" transform="translate(9,29)"  name="SLC25A28" ><rect   width="100" height="20"/><text   transform="translate(50,10)"    >SLC25A28</text></g><g id="d19f9" class="Protein" transform="translate(9,9)"  name="SLC25A37" ><rect   width="100" height="20"/><text   transform="translate(50,10)"    >SLC25A37</text></g></g></g><g id="dd6f1" class="GroupComplex" transform="translate(38,1328)"  ><g class="GroupComplex"><use class="Icon" width="124" height="64" fill="#b4b464" fill-opacity=".1" stroke="grey" href="#Octagon"/><g id="d21fd" class="Metabolite " transform="translate(12,12)"  name="FADH2" ><rect   width="100" height="20" style="stroke:#00f"/><text   transform="translate(50,10)"     style="fill:#00f">FADH2</text></g><g id="eae22" class="Protein" transform="translate(12,32)"  name="FDXR" ><rect   width="100" height="20"/><text   transform="translate(50,10)"    >FDXR</text></g></g></g><g id="e031e" class="GroupComplex" transform="translate(38,848)"  ><g class="GroupComplex"><use class="Icon" width="124" height="104" fill="#b4b464" fill-opacity=".1" stroke="grey" href="#Octagon"/><g id="a7285" class="Protein" transform="translate(12,52)"  name="FXN(81-210)" ><rect   width="100" height="20"/><text   transform="translate(50,10)"    >FXN(81-210)</text></g><g id="aa560" class="Protein" transform="translate(12,32)"  name="LYRM4" ><rect   width="100" height="20"/><text   transform="translate(50,10)"    >LYRM4</text></g><g id="cd5a7" class="Protein-1" transform="translate(12,12)"  name="ISCU-1" ><rect   width="100" height="20"/><text   transform="translate(50,10)"    >ISCU-1</text></g><g id="d0222" class="Protein-1" transform="translate(12,72)"  name="PXLP-K258-NFS1-1" ><rect   width="100" height="20"/><text   transform="translate(50,10)"    >PXLP-K258-NFS1-1</text></g></g></g><g id="e4db7" class="GroupComplex" transform="translate(178,1088)"  ><g class="GroupComplex"><use class="Icon" width="124" height="64" fill="#b4b464" fill-opacity=".1" stroke="grey" href="#Octagon"/><g id="d4882" class="Protein" transform="translate(12,32)"  name="ISCA2" ><rect   width="100" height="20"/><text   transform="translate(50,10)"    >ISCA2</text></g><g id="f8458" class="Protein" transform="translate(12,12)"  name="ISCA1" ><rect   width="100" height="20"/><text   transform="translate(50,10)"    >ISCA1</text></g></g></g><g id="ebf1a" class="GroupComplex" transform="translate(178,1008)"  ><g class="GroupComplex"><use class="Icon" width="124" height="64" fill="#b4b464" fill-opacity=".1" stroke="grey" href="#Octagon"/><g id="d0175" class="Metabolite " transform="translate(12,32)"  name="2Fe-2S cluster" ><rect   width="100" height="20" style="stroke:#00f"/><text   transform="translate(50,10)"     style="fill:#00f">2Fe-2S cluster</text></g><g id="f7084" class="Protein" transform="translate(12,12)"  name="GLRX5" ><rect   width="100" height="20"/><text   transform="translate(50,10)"    >GLRX5</text></g></g></g><g id="f2161" class="GroupComplex" transform="translate(38,1108)"  ><g class="GroupComplex"><use class="Icon" width="124" height="124" fill="#b4b464" fill-opacity=".1" stroke="grey" href="#Octagon"/><g id="b3fb7" class="Protein-1" transform="translate(12,12)"  name="ISCU-1" ><rect   width="100" height="20"/><text   transform="translate(50,10)"    >ISCU-1</text></g><g id="c37fd" class="Protein" transform="translate(12,32)"  name="LYRM4" ><rect   width="100" height="20"/><text   transform="translate(50,10)"    >LYRM4</text></g><g id="ca112" class="Protein" transform="translate(12,72)"  name="FXN(81-210)" ><rect   width="100" height="20"/><text   transform="translate(50,10)"    >FXN(81-210)</text></g><g id="e3784" class="Metabolite " transform="translate(12,52)"  name="2Fe-2S cluster" ><rect   width="100" height="20" style="stroke:#00f"/><text   transform="translate(50,10)"     style="fill:#00f">2Fe-2S cluster</text></g><g id="ed5f5" class="Protein-1" transform="translate(12,92)"  name="PXLP-K258-NFS1-1" ><rect   width="100" height="20"/><text   transform="translate(50,10)"    >PXLP-K258-NFS1-1</text></g></g></g><g id="f8ab6" class="GroupNone" transform="translate(181,811)"  ><g class="GroupNone"><rect   width="118" height="78" fill-opacity=".1" stroke-dasharray="5,3" style="fill:#b4b464;stroke:grey"/><g id="c43d0" class="Metabolite " transform="translate(9,29)"  name="(2Fe-2S)2+" ><rect   width="100" height="20" style="stroke:#00f"/><text   transform="translate(50,10)"     style="fill:#00f">(2Fe-2S)2+</text></g><g id="c4fe8" class="Protein" transform="translate(9,49)"  name="FDX2" ><rect   width="100" height="20"/><text   transform="translate(50,10)"    >FDX2</text></g><g id="ce5b7" class="Protein" transform="translate(9,9)"  name="FDX1" ><rect   width="100" height="20"/><text   transform="translate(50,10)"    >FDX1</text></g></g></g><g id="fc958" class="GroupComplex" transform="translate(178,1168)"  ><g class="GroupComplex"><use class="Icon" width="124" height="84" fill="#b4b464" fill-opacity=".1" stroke="grey" href="#Octagon"/><g id="b2675" class="Protein" transform="translate(12,12)"  name="ISCA1" ><rect   width="100" height="20"/><text   transform="translate(50,10)"    >ISCA1</text></g><g id="cc8c1" class="Metabolite " transform="translate(12,52)"  name="4Fe-4S cluster" ><rect   width="100" height="20" style="stroke:#00f"/><text   transform="translate(50,10)"     style="fill:#00f">4Fe-4S cluster</text></g><g id="ceec2" class="Protein" transform="translate(12,32)"  name="ISCA2" ><rect   width="100" height="20"/><text   transform="translate(50,10)"    >ISCA2</text></g></g></g><g id="fecff" class="GroupComplex" transform="translate(38,968)"  ><g class="GroupComplex"><use class="Icon" width="124" height="124" fill="#b4b464" fill-opacity=".1" stroke="grey" href="#Octagon"/><g id="a168b" class="Protein-1" transform="translate(12,12)"  name="ISCU-1" ><rect   width="100" height="20"/><text   transform="translate(50,10)"    >ISCU-1</text></g><g id="b9bfd" class="Protein" transform="translate(12,32)"  name="LYRM4" ><rect   width="100" height="20"/><text   transform="translate(50,10)"    >LYRM4</text></g><g id="ca74d" class="Protein" transform="translate(12,52)"  name="FXN(81-210)" ><rect   width="100" height="20"/><text   transform="translate(50,10)"    >FXN(81-210)</text></g><g id="d4e93" class="Protein-1" transform="translate(12,92)"  name="PXLP-K258-NFS1-1" ><rect   width="100" height="20"/><text   transform="translate(50,10)"    >PXLP-K258-NFS1-1</text></g><g id="ff55c" class="Metabolite " transform="translate(12,72)"  name="Fe2+" ><rect   width="100" height="20" style="stroke:#00f"/><text   transform="translate(50,10)"     style="fill:#00f">Fe2+</text></g></g></g></g></g></g></svg>