<?xml version="1.0" encoding="UTF-8"?>
<svg xmlns="http://www.w3.org/2000/svg" id="-svg" class="Diagram"  baseProfile="full" prefix="schema:http://schema.org/" preserveAspectRatio="xMidYMid"  version="1.1"><defs><g id="icon-defs"><symbol id="HexagonPathVisio" class=" Icon HexagonPathVisio" x="0" y="8" overflow="visible" preserveAspectRatio="none" viewBox="0 8 100 86"><desc>HexagonPathVisio</desc><g transform="scale(1 0.85)"><path d="m1.42 51.00 21.07-42.14h56.19l21.07 42.14-21.07 42.15h-56.19l-21.07-42.15z" stroke="currentColor" vector-effect="non-scaling-stroke"/></g></symbol><symbol id="Octagon" class=" Icon Octagon" x="0" y="0" overflow="visible" preserveAspectRatio="none" viewBox="0 0 100 100"><desc>Octagon</desc><path d="m0 25 25-25h50l25 25v50l-25 25h-50l-25-25z" vector-effect="non-scaling-stroke"/></symbol></g><g id="marker-defs"><marker id="mea" markerHeight="12" markerWidth="12" orient="auto" preserveAspectRatio="none" refX="12" refY="6" viewBox="0 0 12 12"><g id="g-mea" transform=""><g transform="rotate(180 6 6)"><rect y="5.4" width="2" height="1.2" style="stroke:#fff"/><polygon points="12 11 0 6 12 1" stroke-width="0"/></g></g></marker><marker id="memcatalysis000" markerHeight="12" markerWidth="12" orient="auto" preserveAspectRatio="none" refX="12" refY="6" viewBox="0 0 12 12"><g id="g-memcatalysis000" transform=""><g transform="rotate(180 6 6)"><circle cx="6" cy="6" r="5.3px" fill="#fff" stroke="#000"/></g></g></marker><marker id="markerendtbar000" markerHeight="20" markerWidth="10" orient="auto" preserveAspectRatio="none" refX="10" refY="10" viewBox="0 0 10 20"><g id="g-markerendtbar000" transform=""><g transform="rotate(180 5 10)"><rect y="9" width="8" height="2" style="stroke:none"/><line x="0" y="0" width="12" height="12" x1="7" x2="7" y2="20" stroke="#000" stroke-width="1.8"/></g></g></marker></g></defs><g id="viewport-20220102141200487" class="svg-pan-zoom_viewport" transform="matrix(0.41 0 0 0.41 358.55 0)" style="transform:matrix(0.41, 0, 0, 0.41, 358.55, 0)"><style>svg.Diagram {font-family: 'Liberation Sans', Arial, sans-serif; }.Diagram path {fill: transparent;stroke: #000;marker-end: url(#mea);}.Diagram symbol path {fill: inherit;stroke: inherit;stroke-width: inherit;marker-end: inherit;}.Diagram rect {fill: #fff;stroke: #000;}.Diagram text {dominant-baseline: central;overflow: hidden;text-anchor: middle;fill: #000;font-size: 10px;}</style><style type="text/css">.Viewport .textContent {
  pointer-events: none;
  stroke-width: 0px;
}

					.Viewport.Icon {
  fill: white;
}

/* Hide the InfoBox */
.Viewport.textContent {
  font-size: 0;
}

.textContent {
  stroke: none;
}

.DataNode {
  stroke-miterlimit: 1;
  pointer-events: auto;
}

.DataNode:hover {
  cursor: pointer;
}

/* TODO should this apply to things other than DataNodes? */
.DataNode.textContent {
  pointer-events: none;
}

.DataNode.Highlighted {
  opacity: 0.6;
  stroke-width: 0px;
}

marker {
  /* this is what should work per the spec
  stroke-dasharray: none; */
  /* but I need to add this to make it work in Safari */
  stroke-dasharray: 9999999999999999999999999;
}

.Citation.Icon {
  fill: none;
  stroke-width: 0px;
}

.Citation.textContent {
  text-align: center;
  vertical-align: top;
  font-size: 7px;
  fill: #999;
  fill-opacity: 1;
  stroke: none;
}</style><g id="WP2791" class="Pathway http___identifiers_org_pw_PW_0000003 Viewport"  name="Name: Signaling by Activin Organism: Homo sapiens" ><g class="Pathway http___identifiers_org_pw_PW_0000003 Viewport"><rect   width="1191" height="1650" style="stroke:none"/><g id="a5e03" class="Reactome_R-HSA-1181153"  ><path    d="m206 239-28 57" style="marker-end:none"/><g id="aa2b7" class="AB" transform="translate(206,239)"  ><g class="AB"/></g><g id="f21e8" class="AB" transform="translate(178.28,295.43)"  ><g class="AB"/></g></g><g id="aa49b" class="Reactome_R-HSA-2473186"  ><path    d="m630 79 248 13" style="marker-end:none"/><g id="e6169" class="AB" transform="translate(630,79)"  ><g class="AB"/></g><g id="cab19" class="AB" transform="translate(875.52 91.87)"  ><g class="AB"/></g></g><g id="b422d" class="Reactome_R-HSA-1549526"  ><path    d="m309 474 75 6" style="marker-end:none"/><g id="ad15a" class="AB" transform="translate(309,474)"  ><g class="AB"/></g><g id="b2ea9" class="AB" transform="translate(383.25,479.94)"  ><g class="AB"/></g><g id="b74da" class="AB" transform="translate(346.5,477)"  ><g class="AB"/></g></g><g id="b857a" class="Reactome_R-HSA-1181149"  ><path    d="m238 353 120-3" style="marker-end:none"/><g id="bca01" class="AB" transform="translate(238,353)"  ><g class="AB"/></g><g id="c382e" class="AB" transform="translate(356.8 350.03)"  ><g class="AB"/></g><g id="a07be" class="AB" transform="translate(298,351.5)"  ><g class="AB"/></g></g><g id="ad23d" class="Reactome_R-HSA-1181149"  ><path    d="m276 313 17 43" style="marker-end:url(#memcatalysis000)"/></g><g id="ba2b2" class="Reactome_R-HSA-1181149"  ><path    d="m358 350 32 45"/></g><g id="ba389" class="Reactome_R-HSA-1181153"  ><path    d="m463 207-257 32" style="marker-end:none"/></g><g id="c69eb" class="Reactome_R-HSA-2470508"  ><path    d="m1017 354h-98" style="marker-end:none"/><g id="c86c7" class="AB" transform="translate(1017,354)"  ><g class="AB"/></g><g id="da720" class="AB" transform="translate(919.98,354)"  ><g class="AB"/></g><g id="bad09" class="AB" transform="translate(968,354)"  ><g class="AB"/></g></g><g id="a3c6f" class="Reactome_R-HSA-2470508"  ><path    d="m1040 327-23 27" style="marker-end:none"/></g><g id="a69d2" class="Reactome_R-HSA-2470508"  ><path    d="m919 354-62-43"/></g><g id="c73c6" class="Reactome_R-HSA-1181149"  ><path    d="m200 403 38-50" style="marker-end:none"/></g><g id="cc0bb" class="Reactome_R-HSA-2470483"  ><path    d="m964 234 73 66" style="marker-end:none"/><g id="c3eea" class="AB" transform="translate(964,234)"  ><g class="AB"/></g><g id="f518a" class="AB" transform="translate(1036.3 299.34)"  ><g class="AB"/></g></g><g id="ab02a" class="Reactome_R-HSA-2470483"  ><path    d="m485 152 479 82" style="marker-end:none"/></g><g id="bdfdc" class="Reactome_R-HSA-2470483"  ><path    d="m1082 207-118 27" style="marker-end:none"/></g><g id="c5925" class="Reactome_R-HSA-2470483"  ><path    d="m615 207 349 27" style="marker-end:none"/></g><g id="d3f18" class="Reactome_R-HSA-1549526"  ><path    d="m384 480 3 70"/></g><g id="d61a8" class="Reactome_R-HSA-1225919"  ><path    d="m772 664 137 64" style="marker-end:none"/><g id="fb3c4" class="AB" transform="translate(772,664)"  ><g class="AB"/></g><g id="d0ade" class="AB" transform="translate(907.63,727.36)"  ><g class="AB"/></g><g id="f840e" class="AB" transform="translate(840.5,696)"  ><g class="AB"/></g></g><g id="ba96d" class="Reactome_R-HSA-1225919"  ><path    d="m659 721 113-57" style="marker-end:none"/></g><g id="cd2a8" class="Reactome_R-HSA-1225919"  ><path    d="m909 728 19 3"/></g><g id="d689b" class="Reactome_R-HSA-1549526"  ><path    d="m481 357-131 116" style="marker-end:url(#memcatalysis000)"/></g><g id="d8d44" class="Reactome_R-HSA-1181149"  ><path    d="m276 313-38 40" style="marker-end:none"/></g><g id="db52f" class="Reactome_R-HSA-1181153"  ><path    d="m178 296-13 3"/></g><g id="deede" class="Reactome_R-HSA-1225919"  ><path    d="m768 607 45 59" style="marker-end:url(#markerendtbar000)"/></g><g id="e03ad" class="Reactome_R-HSA-1181149"  ><path    d="m358 350 66-29"/></g><g id="e4014" class="Reactome_R-HSA-1225919"  ><path    d="m732 601 40 63" style="marker-end:none"/></g><g id="e413c" class="Reactome_R-HSA-1549526"  ><path    d="m248 495 61-21" style="marker-end:none"/></g><g id="e441d" class="Reactome_R-HSA-2470483"  ><path    d="m1037 300 3 3"/></g><g id="e62db" class="Reactome_R-HSA-1549526"  ><path    d="m252 453 57 21" style="marker-end:none"/></g><g id="e6b7c" class="Reactome_R-HSA-2473184"  ><path    d="m627 60 251 6" style="marker-end:none"/><g id="fde2e" class="AB" transform="translate(627,60)"  ><g class="AB"/></g><g id="fcba8" class="AB" transform="translate(875.49 65.94)"  ><g class="AB"/></g></g><g id="b45c7" class="Reactome_R-HSA-2473184"  ><path    d="m240 50 387 10" style="marker-end:none"/></g><g id="e65d0" class="Reactome_R-HSA-2473184"  ><path    d="m528 32 99 28" style="marker-end:none"/></g><g id="e9b9c" class="Reactome_R-HSA-1225919"  ><path    d="m627 642 145 22" style="marker-end:none"/></g><g id="e9bb3" class="Reactome_R-HSA-1549526"  ><path    d="m384 480 67-18"/></g><g id="e9e8d" class="Reactome_R-HSA-2473184"  ><path    d="m878 66 3 1"/></g><g id="eb1d5" class="Reactome_R-HSA-2473186"  ><path    d="m878 92 3 3"/></g><g id="eb83c" class="Reactome_R-HSA-173488"  ><path    d="m353 723 135-2" style="marker-end:none"/><g id="f7880" class="AB" transform="translate(353,723)"  ><g class="AB"/></g><g id="dbe7e" class="AB" transform="translate(486.65,721.02)"  ><g class="AB"/></g></g><g id="e3775" class="Reactome_R-HSA-173488"  ><path    d="m350 724 3-1" style="marker-end:none"/></g><g id="cfe31" class="Reactome_R-HSA-173488"  ><path    d="m488 721h3"/></g><g id="ece8d" class="Reactome_R-HSA-2470508"  ><path    d="m1077 393-60-39" style="marker-end:none"/></g><g id="f1374" class="Reactome_R-HSA-170847"  ><path    d="m248 626 11 84" style="marker-end:none"/><g id="c8ae7" class="AB" transform="translate(248,626)"  ><g class="AB"/></g><g id="a7cd3" class="AB" transform="translate(258.89 709.16)"  ><g class="AB"/></g></g><g id="a717c" class="Reactome_R-HSA-170847"  ><path    d="m173 599 75 27" style="marker-end:none"/></g><g id="b2c37" class="Reactome_R-HSA-170847"  ><path    d="m338 561-90 65" style="marker-end:none"/></g><g id="cf3d2" class="Reactome_R-HSA-170847"  ><path    d="m259 710 4 3"/></g><g id="f4379" class="Reactome_R-HSA-2470508"  ><path    d="m1040 327-56 29" style="marker-end:url(#memcatalysis000)"/></g><g id="fb0b3" class="Reactome_R-HSA-2473186"  ><path    d="m240 50 390 29" style="marker-end:none"/></g><g id="fb6a1" class="Reactome_R-HSA-1181153"  ><path    d="m139 205 67 34" style="marker-end:none"/></g><g id="fcc60" class="Reactome_R-HSA-2473186"  ><path    d="m529 94 101-15" style="marker-end:none"/></g><g id="fcf29" class="Reactome_R-HSA-1181153"  ><path    d="m173 61 33 178" style="marker-end:none"/></g><g id="fe2e7" class="Reactome_R-HSA-2470508"  ><path    d="m919 354-41 42"/></g><g id="ad1e8" class="GroupGroup" transform="translate(33,183)"  ><g class="GroupGroup"><g id="a914e" class="" transform="translate(8,8)"  ><g class=""><rect   transform="matrix(1.00 0 0 1.00 1.50 1.49)" width="1120" height="691" rx="15" ry="15" stroke-width="3" style="fill:transparent;stroke:#c0c0c0"/></g></g><g id="a3fad" class="Label" transform="translate(24,648)"  name="cytosol" ><g class="Label"/><text   transform="translate(32,16.5)"    >cytosol</text></g></g></g><g id="dc55d" class="GroupGroup" transform="translate(438,514)"  ><g class="GroupGroup"><g id="be4f7" class="" transform="translate(8,8)"  ><g class=""><rect   transform="matrix(1.00 0 0 0.99 1.49 1.49)" width="680" height="310" rx="15" ry="15" stroke-width="3" style="fill:transparent;stroke:#c0c0c0"/></g></g><g id="b2f8f" class="Label" transform="translate(17,271)"  name="nucleoplasm" ><g class="Label"/><text   transform="translate(49.5,16.5)"    >nucleoplasm</text></g></g></g><g id="a07d8" class="Protein" transform="translate(1082,196)"  name="ACVR1C" ><rect   width="57" height="22"/><text   transform="translate(28.5,11)"    >ACVR1C</text></g><g id="a2bc4" class="Complex Reactome_R-HSA-173511" transform="translate(491,710)"  name="p-2S-SMAD2/3:SMAD4" ><g class="Complex Reactome_R-HSA-173511"><use class="Complex Reactome_R-HSA-173511 Node Icon" width="169" height="23" fill="#fff" stroke="#a52a2a" href="#HexagonPathVisio"/></g><g ><defs><clipPath ><rect x="-84.5" y="-11.5" width="169" height="23" style="stroke:none"/></clipPath></defs><text   transform="translate(84.5,11.5)"     style="fill:#a52a2a">p-2S-SMAD2/3:SMAD4</text></g></g><g id="ab776" class="Complex Reactome_R-HSA-2473219" transform="translate(881,85)"  name="Activin A,AB,B:FSTL3" ><g class="Complex Reactome_R-HSA-2473219"><use class="Complex Reactome_R-HSA-2473219 Node Icon" width="146" height="21" fill="#fff" stroke="#a52a2a" href="#HexagonPathVisio"/></g><g ><defs><clipPath ><rect x="-73" y="-10.5" width="146" height="21" style="stroke:none"/></clipPath></defs><text   transform="translate(73,10.5)"     style="fill:#a52a2a">Activin A,AB,B:FSTL3</text></g></g><g id="b2a33" class="Complex Reactome_R-HSA-2470484" transform="translate(481,344)"  name="Activin:ACVR2A,B:p-ACVR1B,C" ><g class="Complex Reactome_R-HSA-2470484"><rect   width="231" height="27" rx="15" ry="15" style="stroke:#a52a2a"/></g><g ><defs><clipPath ><rect x="-115.5" y="-13.5" width="231" height="27" style="stroke:none"/></clipPath></defs><text   transform="translate(115.5,13.5)"     style="fill:#a52a2a">Activin:ACVR2A,B:p-ACVR1B,C</text></g></g><g id="b5562" class="Complex Reactome_R-HSA-2470478" transform="translate(361,141)"  name="Activin AB,B" ><g class="Complex Reactome_R-HSA-2470478"><rect   width="124" height="22" rx="15" ry="15" style="stroke:#a52a2a"/></g><g ><defs><clipPath ><rect x="-62" y="-11" width="124" height="22" style="stroke:none"/></clipPath></defs><text   transform="translate(62,11)"     style="fill:#a52a2a">Activin AB,B</text></g></g><g id="b6f9b" class="Protein" transform="translate(83,194)"  name="ACVR1B" ><rect   width="56" height="22"/><text   transform="translate(28,11)"    >ACVR1B</text></g><g id="b7f70" class="Complex Reactome_R-HSA-171182" transform="translate(338,550)"  name="p-2S-SMAD2/3" ><g class="Complex Reactome_R-HSA-171182"><rect   width="99" height="22" rx="15" ry="15" style="stroke:#a52a2a"/></g><g ><defs><clipPath ><rect x="-49.5" y="-11" width="99" height="22" style="stroke:none"/></clipPath></defs><text   transform="translate(49.5,11)"     style="fill:#a52a2a">p-2S-SMAD2/3</text></g></g><g id="c1ee6" class="Metabolite " transform="translate(214,438)"  name="ATP" ><rect   width="38" height="30" style="stroke:#00f"/><text   transform="translate(19,15)"     style="fill:#00f">ATP</text></g><g id="c327f" class="Complex Reactome_R-HSA-2470494" transform="translate(106,39)"  name="Activin A,AB,B" ><g class="Complex Reactome_R-HSA-2470494"><rect   width="134" height="23" rx="15" ry="15" style="stroke:#a52a2a"/></g><g ><defs><clipPath ><rect x="-67" y="-11.5" width="134" height="23" style="stroke:none"/></clipPath></defs><text   transform="translate(67,11.5)"     style="fill:#a52a2a">Activin A,AB,B</text></g></g><g id="c9fa3" class="Metabolite " transform="translate(1077,378)"  name="ATP" ><rect   width="38" height="30" style="stroke:#00f"/><text   transform="translate(19,15)"     style="fill:#00f">ATP</text></g><g id="ca0e0" class="Protein" transform="translate(488,21)"  name="FST" ><rect   width="41" height="23"/><text   transform="translate(20.5,11.5)"    >FST</text></g><g id="cb28f" class="Metabolite " transform="translate(451,447)"  name="ADP" ><rect   width="40" height="30" style="stroke:#00f"/><text   transform="translate(20,15)"     style="fill:#00f">ADP</text></g><g id="cf322" class="Complex Reactome_R-HSA-1181136" transform="translate(463,194)"  name="ACVR2A,B" ><g class="Complex Reactome_R-HSA-1181136"><rect   width="152" height="26" rx="15" ry="15" style="stroke:#a52a2a"/></g><g ><defs><clipPath ><rect x="-76" y="-13" width="152" height="26" style="stroke:none"/></clipPath></defs><text   transform="translate(76,13)"     style="fill:#a52a2a">ACVR2A,B</text></g></g><g id="d163a" class="Metabolite " transform="translate(370,395)"  name="ADP" ><rect   width="41" height="30" style="stroke:#00f"/><text   transform="translate(20.5,15)"     style="fill:#00f">ADP</text></g><g id="d415f" class="Complex Reactome_R-HSA-2473196" transform="translate(881,56)"  name="Activin A,AB,B:FST" ><g class="Complex Reactome_R-HSA-2473196"><use class="Complex Reactome_R-HSA-2473196 Node Icon" width="147" height="22" fill="#fff" stroke="#a52a2a" href="#HexagonPathVisio"/></g><g ><defs><clipPath ><rect x="-73.5" y="-11" width="147" height="22" style="stroke:none"/></clipPath></defs><text   transform="translate(73.5,11)"     style="fill:#a52a2a">Activin A,AB,B:FST</text></g></g><g id="d8642" class="Complex Reactome_R-HSA-1226031" transform="translate(768,596)"  name="FOXH1:DRAP1" ><g class="Complex Reactome_R-HSA-1226031"><use class="Complex Reactome_R-HSA-1226031 Node Icon" width="102" height="22" fill="#fff" stroke="#a52a2a" href="#HexagonPathVisio"/></g><g ><defs><clipPath ><rect x="-51" y="-11" width="102" height="22" style="stroke:none"/></clipPath></defs><text   transform="translate(51,11)"     style="fill:#a52a2a">FOXH1:DRAP1</text></g></g><g id="dc653" class="Complex Reactome_R-HSA-1549500" transform="translate(297,299)"  name="Activin A,AB,B:ACVR2A,B:p-ACVR1B" ><g class="Complex Reactome_R-HSA-1549500"><use class="Complex Reactome_R-HSA-1549500 Node Icon" width="254" height="23" fill="#fff" stroke="#a52a2a" href="#HexagonPathVisio"/></g><g ><defs><clipPath ><rect x="-127" y="-11.5" width="254" height="23" style="stroke:none"/></clipPath></defs><text   transform="translate(127,11.5)"     style="fill:#a52a2a"><tspan   x="0" y="-5.5">Activin</tspan><tspan   x="0" y="5.5">A,AB,B:ACVR2A,B:p-ACVR1B</tspan></text></g></g><g id="dc909" class="Protein" transform="translate(573,631)"  name="FOXH1" ><rect   width="54" height="22"/><text   transform="translate(27,11)"    >FOXH1</text></g><g id="e45fa" class="Complex Reactome_R-HSA-171172" transform="translate(180,482)"  name="SMAD2/3" ><g class="Complex Reactome_R-HSA-171172"><rect   width="69" height="26" rx="15" ry="15" style="stroke:#a52a2a"/></g><g ><defs><clipPath ><rect x="-34.5" y="-13" width="69" height="26" style="stroke:none"/></clipPath></defs><text   transform="translate(34.5,13)"     style="fill:#a52a2a">SMAD2/3</text></g></g><g id="e46d8" class="Complex Reactome_R-HSA-2470475" transform="translate(621,298)"  name="Activin AB,B:ACVR2A,B:p-ACVR1C" ><g class="Complex Reactome_R-HSA-2470475"><use class="Complex Reactome_R-HSA-2470475 Node Icon" width="236" height="27" fill="#fff" stroke="#a52a2a" href="#HexagonPathVisio"/></g><g ><defs><clipPath ><rect x="-118" y="-13.5" width="236" height="27" style="stroke:none"/></clipPath></defs><text   transform="translate(118,13.5)"     style="fill:#a52a2a"><tspan   x="0" y="-5.5">Activin</tspan><tspan   x="0" y="5.5">AB,B:ACVR2A,B:p-ACVR1C</tspan></text></g></g><g id="e56fa" class="Unknown Reactome_R-ALL-1225892" transform="translate(540,589)"  name="Activin Response Element" ><rect   width="192" height="24"/><text   transform="translate(96,12)"    ><tspan   x="0" y="-5.5">Activin Response</tspan><tspan   x="0" y="5.5">Element</tspan></text></g><g id="e5d84" class="Protein" transform="translate(481,82)"  name="FSTL3" ><rect   width="49" height="24"/><text   transform="translate(24.5,12)"    >FSTL3</text></g><g id="ecc8f" class="Protein" transform="translate(117,588)"  name="SMAD4" ><rect   width="57" height="23"/><text   transform="translate(28.5,11.5)"    >SMAD4</text></g><g id="edb17" class="Complex Reactome_R-HSA-171175" transform="translate(176,713)"  name="p-2S-SMAD2/3:SMAD4" ><g class="Complex Reactome_R-HSA-171175"><use class="Complex Reactome_R-HSA-171175 Node Icon" width="174" height="22" fill="#fff" stroke="#a52a2a" href="#HexagonPathVisio"/></g><g ><defs><clipPath ><rect x="-87" y="-11" width="174" height="22" style="stroke:none"/></clipPath></defs><text   transform="translate(87,11)"     style="fill:#a52a2a">p-2S-SMAD2/3:SMAD4</text></g></g><g id="f41df" class="Complex Reactome_R-HSA-2470469" transform="translate(932,303)"  name="Activin AB,B:ACVR2A,B:ACVR1C" ><g class="Complex Reactome_R-HSA-2470469"><use class="Complex Reactome_R-HSA-2470469 Node Icon" width="217" height="24" fill="#fff" stroke="#a52a2a" href="#HexagonPathVisio"/></g><g ><defs><clipPath ><rect x="-108.5" y="-12" width="217" height="24" style="stroke:none"/></clipPath></defs><text   transform="translate(108.5,12)"     style="fill:#a52a2a"><tspan   x="0" y="-5.5">Activin</tspan><tspan   x="0" y="5.5">AB,B:ACVR2A,B:ACVR1C</tspan></text></g></g><g id="f79e8" class="Metabolite " transform="translate(160,388)"  name="ATP" ><rect   width="40" height="30" style="stroke:#00f"/><text   transform="translate(20,15)"     style="fill:#00f">ATP</text></g><g id="f836f" class="Complex Reactome_R-HSA-1225870" transform="translate(759,731)"  name="SMAD2,3:SMAD4:FOXH1:Activin Response Element" ><g class="Complex Reactome_R-HSA-1225870"><use class="Complex Reactome_R-HSA-1225870 Node Icon" width="338" height="25" fill="#fff" stroke="#a52a2a" href="#HexagonPathVisio"/></g><g ><defs><clipPath ><rect x="-169" y="-12.5" width="338" height="25" style="stroke:none"/></clipPath></defs><text   transform="translate(169,12.5)"     style="fill:#a52a2a">SMAD2,3:SMAD4:FOXH1:Activin Response Element</text></g></g><g id="f8c01" class="Complex Reactome_R-HSA-1549493" transform="translate(54,299)"  name="Activin A,AB,B:ACVR2A,B:ACVR1B" ><g class="Complex Reactome_R-HSA-1549493"><use class="Complex Reactome_R-HSA-1549493 Node Icon" width="223" height="28" fill="#fff" stroke="#a52a2a" href="#HexagonPathVisio"/></g><g ><defs><clipPath ><rect x="-111.5" y="-14" width="223" height="28" style="stroke:none"/></clipPath></defs><text   transform="translate(111.5,14)"     style="fill:#a52a2a"><tspan   x="0" y="-5.5">Activin</tspan><tspan   x="0" y="5.5">A,AB,B:ACVR2A,B:ACVR1B</tspan></text></g></g><g id="fb5b0" class="Metabolite " transform="translate(838,381)"  name="ADP" ><rect   width="40" height="30" style="stroke:#00f"/><text   transform="translate(20,15)"     style="fill:#00f">ADP</text></g><g id="a57db" class="GroupNone" transform="translate(41,891)"  ><g class="GroupNone"><rect   width="118" height="58" fill-opacity=".1" stroke-dasharray="5,3" style="fill:#b4b464;stroke:grey"/><g id="c6974" class="Protein" transform="translate(9,9)"  name="ACVR2A" ><rect   width="100" height="20"/><text   transform="translate(50,10)"    >ACVR2A</text></g><g id="fe370" class="Protein" transform="translate(9,29)"  name="ACVR2B" ><rect   width="100" height="20"/><text   transform="translate(50,10)"    >ACVR2B</text></g></g></g><g id="a80e4" class="GroupComplex" transform="translate(318,1268)"  ><g class="GroupComplex"><use class="Icon" width="124" height="84" fill="#b4b464" fill-opacity=".1" stroke="grey" href="#Octagon"/><g id="b9fdd" class="Protein" transform="translate(12,52)"  name="FSTL3" ><rect   width="100" height="20"/><text   transform="translate(50,10)"    >FSTL3</text></g><g id="dffbf" class="Protein" transform="translate(12,32)"  name="INHBB" ><rect   width="100" height="20"/><text   transform="translate(50,10)"    >INHBB</text></g><g id="ecd68" class="Protein" transform="translate(12,12)"  name="INHBA" ><rect   width="100" height="20"/><text   transform="translate(50,10)"    >INHBA</text></g></g></g><g id="a896f" class="GroupComplex" transform="translate(318,1088)"  ><g class="GroupComplex"><use class="Icon" width="124" height="64" fill="#b4b464" fill-opacity=".1" stroke="grey" href="#Octagon"/><g id="a4a8f" class="Protein" transform="translate(12,12)"  name="DRAP1" ><rect   width="100" height="20"/><text   transform="translate(50,10)"    >DRAP1</text></g><g id="b941b" class="Protein" transform="translate(12,32)"  name="FOXH1" ><rect   width="100" height="20"/><text   transform="translate(50,10)"    >FOXH1</text></g></g></g><g id="acdaa" class="GroupComplex" transform="translate(38,968)"  ><g class="GroupComplex"><use class="Icon" width="124" height="124" fill="#b4b464" fill-opacity=".1" stroke="grey" href="#Octagon"/><g id="a42e4" class="Protein" transform="translate(12,92)"  name="INHBB" ><rect   width="100" height="20"/><text   transform="translate(50,10)"    >INHBB</text></g><g id="ad0ad" class="Protein" transform="translate(12,72)"  name="INHBA" ><rect   width="100" height="20"/><text   transform="translate(50,10)"    >INHBA</text></g><g id="b4316" class="Protein" transform="translate(12,52)"  name="ACVR2B" ><rect   width="100" height="20"/><text   transform="translate(50,10)"    >ACVR2B</text></g><g id="d7730" class="Protein" transform="translate(12,12)"  name="ACVR1B" ><rect   width="100" height="20"/><text   transform="translate(50,10)"    >ACVR1B</text></g><g id="eb922" class="Protein" transform="translate(12,32)"  name="ACVR2A" ><rect   width="100" height="20"/><text   transform="translate(50,10)"    >ACVR2A</text></g></g></g><g id="b11f8" class="GroupComplex" transform="translate(38,1428)"  ><g class="GroupComplex"><use class="Icon" width="124" height="124" fill="#b4b464" fill-opacity=".1" stroke="grey" href="#Octagon"/><g id="ca50b" class="Protein" transform="translate(12,72)"  name="ACVR2B" ><rect   width="100" height="20"/><text   transform="translate(50,10)"    >ACVR2B</text></g><g id="cd8aa" class="Protein" transform="translate(12,12)"  name="INHBA" ><rect   width="100" height="20"/><text   transform="translate(50,10)"    >INHBA</text></g><g id="d5f77" class="Protein" transform="translate(12,92)"  name="ACVR1C" ><rect   width="100" height="20"/><text   transform="translate(50,10)"    >ACVR1C</text></g><g id="ecb2c" class="Protein" transform="translate(12,32)"  name="INHBB" ><rect   width="100" height="20"/><text   transform="translate(50,10)"    >INHBB</text></g><g id="ef482" class="Protein" transform="translate(12,52)"  name="ACVR2A" ><rect   width="100" height="20"/><text   transform="translate(50,10)"    >ACVR2A</text></g></g></g><g id="ba32e" class="GroupNone" transform="translate(41,1271)"  ><g class="GroupNone"><rect   width="118" height="58" fill-opacity=".1" stroke-dasharray="5,3" style="fill:#b4b464;stroke:grey"/><g id="aca7f" class="Protein" transform="translate(9,29)"  name="INHBB" ><rect   width="100" height="20"/><text   transform="translate(50,10)"    >INHBB</text></g><g id="ff5b7" class="Protein" transform="translate(9,9)"  name="INHBA" ><rect   width="100" height="20"/><text   transform="translate(50,10)"    >INHBA</text></g></g></g><g id="c1f99" class="GroupComplex" transform="translate(318,1168)"  ><g class="GroupComplex"><use class="Icon" width="124" height="84" fill="#b4b464" fill-opacity=".1" stroke="grey" href="#Octagon"/><g id="a8f03" class="Protein" transform="translate(12,12)"  name="INHBA" ><rect   width="100" height="20"/><text   transform="translate(50,10)"    >INHBA</text></g><g id="e07e0" class="Protein" transform="translate(12,32)"  name="INHBB" ><rect   width="100" height="20"/><text   transform="translate(50,10)"    >INHBB</text></g><g id="f7d35" class="Protein" transform="translate(12,52)"  name="FST" ><rect   width="100" height="20"/><text   transform="translate(50,10)"    >FST</text></g></g></g><g id="c2d74" class="GroupNone" transform="translate(181,1251)"  ><g class="GroupNone"><rect   width="118" height="188" fill-opacity=".1" stroke-dasharray="5,3" style="fill:#b4b464;stroke:grey"/><g id="a3b99" class="Protein" transform="translate(9,29)"  name="ACVR2B" ><rect   width="100" height="20"/><text   transform="translate(50,10)"    >ACVR2B</text></g><g id="c545f" class="Protein" transform="translate(9,9)"  name="ACVR2A" ><rect   width="100" height="20"/><text   transform="translate(50,10)"    >ACVR2A</text></g><g id="c925c" class="Protein" transform="translate(9,139)"  name="p-T175,S177,S179,S181,T194-ACVR1C" ><rect   width="100" height="40"/><text   transform="translate(50,20)"    >p-T175,S177,S179,S181,T194-ACVR1C</text></g><g id="d8948" class="Protein" transform="translate(9,109)"  name="INHBB" ><rect   width="100" height="20"/><text   transform="translate(50,10)"    >INHBB</text></g><g id="e40f6" class="Protein" transform="translate(9,89)"  name="INHBA" ><rect   width="100" height="20"/><text   transform="translate(50,10)"    >INHBA</text></g><g id="efe75" class="Protein" transform="translate(9,59)"  name="p-4S,T188,T206-ACVR1B" ><rect   width="100" height="40"/><text   transform="translate(50,20)"    >p-4S,T188,T206-ACVR1B</text></g></g></g><g id="c90f1" class="GroupComplex" transform="translate(38,1108)"  ><g class="GroupComplex"><use class="Icon" width="124" height="144" fill="#b4b464" fill-opacity=".1" stroke="grey" href="#Octagon"/><g id="bedd8" class="Protein" transform="translate(12,12)"  name="ACVR2A" ><rect   width="100" height="20"/><text   transform="translate(50,10)"    >ACVR2A</text></g><g id="d3e2f" class="Protein" transform="translate(12,62)"  name="p-4S,T188,T206-ACVR1B" ><rect   width="100" height="40"/><text   transform="translate(50,20)"    >p-4S,T188,T206-ACVR1B</text></g><g id="e8407" class="Protein" transform="translate(12,92)"  name="INHBA" ><rect   width="100" height="20"/><text   transform="translate(50,10)"    >INHBA</text></g><g id="f1bee" class="Protein" transform="translate(12,112)"  name="INHBB" ><rect   width="100" height="20"/><text   transform="translate(50,10)"    >INHBB</text></g><g id="fbb9e" class="Protein" transform="translate(12,32)"  name="ACVR2B" ><rect   width="100" height="20"/><text   transform="translate(50,10)"    >ACVR2B</text></g></g></g><g id="ca127" class="GroupNone" transform="translate(181,1091)"  ><g class="GroupNone"><rect   width="118" height="58" fill-opacity=".1" stroke-dasharray="5,3" style="fill:#b4b464;stroke:grey"/><g id="b91c6" class="Protein" transform="translate(9,29)"  name="SMAD3" ><rect   width="100" height="20"/><text   transform="translate(50,10)"    >SMAD3</text></g><g id="f9793" class="Protein" transform="translate(9,9)"  name="SMAD2" ><rect   width="100" height="20"/><text   transform="translate(50,10)"    >SMAD2</text></g></g></g><g id="dbf8b" class="GroupNone" transform="translate(41,1351)"  ><g class="GroupNone"><rect   width="118" height="58" fill-opacity=".1" stroke-dasharray="5,3" style="fill:#b4b464;stroke:grey"/><g id="c2ee1" class="Protein" transform="translate(9,9)"  name="INHBA" ><rect   width="100" height="20"/><text   transform="translate(50,10)"    >INHBA</text></g><g id="e2265" class="Protein" transform="translate(9,29)"  name="INHBB" ><rect   width="100" height="20"/><text   transform="translate(50,10)"    >INHBB</text></g></g></g><g id="de3e7" class="GroupComplex" transform="translate(178,928)"  ><g class="GroupComplex"><use class="Icon" width="124" height="154" fill="#b4b464" fill-opacity=".1" stroke="grey" href="#Octagon"/><g id="b32f4" class="Protein" transform="translate(12,32)"  name="INHBB" ><rect   width="100" height="20"/><text   transform="translate(50,10)"    >INHBB</text></g><g id="c3c36" class="Protein" transform="translate(12,102)"  name="p-T175,S177,S179,S181,T194-ACVR1C" ><rect   width="100" height="40"/><text   transform="translate(50,20)"    >p-T175,S177,S179,S181,T194-ACVR1C</text></g><g id="ce06f" class="Protein" transform="translate(12,72)"  name="ACVR2B" ><rect   width="100" height="20"/><text   transform="translate(50,10)"    >ACVR2B</text></g><g id="e9f35" class="Protein" transform="translate(12,12)"  name="INHBA" ><rect   width="100" height="20"/><text   transform="translate(50,10)"    >INHBA</text></g><g id="f953d" class="Protein" transform="translate(12,52)"  name="ACVR2A" ><rect   width="100" height="20"/><text   transform="translate(50,10)"    >ACVR2A</text></g></g></g><g id="e968e" class="GroupComplex" transform="translate(318,928)"  ><g class="GroupComplex"><use class="Icon" width="124" height="154" fill="#b4b464" fill-opacity=".1" stroke="grey" href="#Octagon"/><g id="a568e" class="Protein" transform="translate(12,52)"  name="p-S423,S425-SMAD3" ><rect   width="100" height="20"/><text   transform="translate(50,10)"    >p-S423,S425-SMAD3</text></g><g id="a9b10" class="Protein" transform="translate(12,12)"  name="SMAD4" ><rect   width="100" height="20"/><text   transform="translate(50,10)"    >SMAD4</text></g><g id="b635b" class="Protein" transform="translate(12,72)"  name="FOXH1" ><rect   width="100" height="20"/><text   transform="translate(50,10)"    >FOXH1</text></g><g id="ef877" class="Protein" transform="translate(12,32)"  name="p-S465,S467-SMAD2" ><rect   width="100" height="20"/><text   transform="translate(50,10)"    >p-S465,S467-SMAD2</text></g><g id="fba78" class="Unknown Reactome_R-ALL-1225892" transform="translate(12,102)"  name="Activin Response Element" ><rect   width="100" height="40"/><text   transform="translate(50,20)"    >Activin Response Element</text></g></g></g><g id="fa8f1" class="GroupNone" transform="translate(181,1171)"  ><g class="GroupNone"><rect   width="118" height="58" fill-opacity=".1" stroke-dasharray="5,3" style="fill:#b4b464;stroke:grey"/><g id="e0f14" class="Protein" transform="translate(9,29)"  name="p-S423,S425-SMAD3" ><rect   width="100" height="20"/><text   transform="translate(50,10)"    >p-S423,S425-SMAD3</text></g><g id="f6e56" class="Protein" transform="translate(9,9)"  name="p-S465,S467-SMAD2" ><rect   width="100" height="20"/><text   transform="translate(50,10)"    >p-S465,S467-SMAD2</text></g></g></g><g id="fb98a" class="GroupComplex" transform="translate(178,1548)"  ><g class="GroupComplex"><use class="Icon" width="124" height="84" fill="#b4b464" fill-opacity=".1" stroke="grey" href="#Octagon"/><g id="ad785" class="Protein" transform="translate(12,12)"  name="SMAD4" ><rect   width="100" height="20"/><text   transform="translate(50,10)"    >SMAD4</text></g><g id="ec6bf" class="Protein" transform="translate(12,32)"  name="p-S465,S467-SMAD2" ><rect   width="100" height="20"/><text   transform="translate(50,10)"    >p-S465,S467-SMAD2</text></g><g id="f353c" class="Protein" transform="translate(12,52)"  name="p-S423,S425-SMAD3" ><rect   width="100" height="20"/><text   transform="translate(50,10)"    >p-S423,S425-SMAD3</text></g></g></g><g id="fc9bd" class="GroupComplex" transform="translate(178,1448)"  ><g class="GroupComplex"><use class="Icon" width="124" height="84" fill="#b4b464" fill-opacity=".1" stroke="grey" href="#Octagon"/><g id="b0fcc" class="Protein" transform="translate(12,12)"  name="SMAD4" ><rect   width="100" height="20"/><text   transform="translate(50,10)"    >SMAD4</text></g><g id="f7cae" class="Protein" transform="translate(12,52)"  name="p-S423,S425-SMAD3" ><rect   width="100" height="20"/><text   transform="translate(50,10)"    >p-S423,S425-SMAD3</text></g><g id="f819b" class="Protein" transform="translate(12,32)"  name="p-S465,S467-SMAD2" ><rect   width="100" height="20"/><text   transform="translate(50,10)"    >p-S465,S467-SMAD2</text></g></g></g></g></g></g></svg>