<?xml version="1.0" encoding="UTF-8"?>
<svg xmlns="http://www.w3.org/2000/svg" id="-svg" class="Diagram"  baseProfile="full" prefix="schema:http://schema.org/" preserveAspectRatio="xMidYMid"  version="1.1"><defs><g id="filter-defs"><filter id="doublefalse1filter" x="-50%" y="-50%" width="200%" height="200%"><feComposite in="SourceGraphic" in2="SourceGraphic" result="doubleDark"/><feMorphology in="doubleDark" operator="dilate" radius="0.5" result="in2Double"/><feMorphology in="SourceGraphic" operator="dilate" radius="1" result="inDouble"/><feComposite in="inDouble" in2="in2Double" operator="out" result="doubleResult"/></filter></g><g id="icon-defs"><symbol id="Ellipse" class=" Icon Ellipse" x="0" y="0" overflow="visible" preserveAspectRatio="none" viewBox="0 0 50 50"><desc>Ellipse</desc><ellipse cx="25" cy="25" rx="25" ry="25" vector-effect="non-scaling-stroke"/></symbol></g><g id="marker-defs"><marker id="mea" markerHeight="12" markerWidth="12" orient="auto" preserveAspectRatio="none" refX="12" refY="6" viewBox="0 0 12 12"><g id="g-mea" transform=""><g transform="rotate(180 6 6)"><rect y="5.4" width="2" height="1.2" style="stroke:#fff"/><polygon points="12 11 0 6 12 1" stroke-width="0"/></g></g></marker><marker id="markerendtbar000" markerHeight="20" markerWidth="10" orient="auto" preserveAspectRatio="none" refX="10" refY="10" viewBox="0 0 10 20"><g id="g-markerendtbar000" transform=""><g transform="rotate(180 5 10)"><rect y="9" width="8" height="2" style="stroke:none"/><line x="0" y="0" width="12" height="12" x1="7" x2="7" y2="20" stroke="#000" stroke-width="1.8"/></g></g></marker></g></defs><g id="viewport-20220102141233379" class="svg-pan-zoom_viewport" transform="matrix(1.06 0 0 1.06 164.35 9.30e-6)" style="transform:matrix(1.06, 0, 0, 1.06, 164.35, 9.30e-06)"><style>svg.Diagram {font-family: 'Liberation Sans', Arial, sans-serif; }.Diagram path {fill: transparent;stroke: #000;marker-end: url(#mea);}.Diagram symbol path {fill: inherit;stroke: inherit;stroke-width: inherit;marker-end: inherit;}.Diagram rect {fill: #fff;stroke: #000;}.Diagram text {dominant-baseline: central;overflow: hidden;text-anchor: middle;fill: #000;font-size: 10px;}</style><style type="text/css">.Viewport .textContent {
  pointer-events: none;
  stroke-width: 0px;
}

					.Viewport.Icon {
  fill: white;
}

/* Hide the InfoBox */
.Viewport.textContent {
  font-size: 0;
}

.textContent {
  stroke: none;
}

.DataNode {
  stroke-miterlimit: 1;
  pointer-events: auto;
}

.DataNode:hover {
  cursor: pointer;
}

/* TODO should this apply to things other than DataNodes? */
.DataNode.textContent {
  pointer-events: none;
}

.DataNode.Highlighted {
  opacity: 0.6;
  stroke-width: 0px;
}

marker {
  /* this is what should work per the spec
  stroke-dasharray: none; */
  /* but I need to add this to make it work in Safari */
  stroke-dasharray: 9999999999999999999999999;
}

.Citation.Icon {
  fill: none;
  stroke-width: 0px;
}

.Citation.textContent {
  text-align: center;
  vertical-align: top;
  font-size: 7px;
  fill: #999;
  fill-opacity: 1;
  stroke: none;
}</style><g id="WP2813" class="Pathway http___identifiers_org_pw_PW_0000004 Viewport"  name="Name: Mammary gland development pathway - Embryonic development (Stage 1 of 4) Organism: Homo sapiens" ><g class="Pathway http___identifiers_org_pw_PW_0000004 Viewport"><rect   width="820.5" height="630" style="stroke:none"/><g id="id18d6867f" class="Edge"  ><path    d="m394.5 70h63"/></g><g id="bb8f0" class="Edge"  ><g class="Edge" filter="url(#doublefalse1filter)"><path    d="m300 100v500" style="marker-end:none"/></g></g><g id="id1aac8138" class="Edge"  ><path    d="m609.99 322.23h24.01v-18.23h43.5" style="marker-end:url(#markerendtbar000)"/></g><g id="c7a35" class="Edge"  ><g class="Edge" filter="url(#doublefalse1filter)"><path    d="m336 100v500" style="marker-end:none"/></g></g><g id="id21da69f4" class="Edge"  ><path    d="m722.5 376h69.5v54h-451.5" stroke-dasharray="5,3"/></g><g id="cbb82" class="Edge"  ><path    d="m469.05 100v500" stroke-dasharray="5,3" stroke-width="3" style="stroke:#999;marker-end:none"/></g><g id="id24c31193" class="Edge"  ><path    d="m609.99 322.23h24.01v53.77h43.5" style="marker-end:url(#markerendtbar000)"/></g><g id="id29b1814a" class="Edge"  ><path    d="m535.78 322 30.12 0.23"/></g><g id="id2ab32d01" class="Edge"  ><path    d="m600 529v18h-40.5v18" stroke-dasharray="5,3" style="marker-end:url(#markerendtbar000)"/></g><g id="id2f2e0ed5" class="Edge"  ><path    d="m609.99 322.23h24.01v89.77h43.5" style="marker-end:url(#markerendtbar000)"/></g><g id="id35d1982a" class="Edge"  ><path    d="m240 178h202.83v144h47.95" stroke-dasharray="5,3"/></g><g id="id3ef4167f" class="Edge"  ><path    d="m592.5 70h63"/></g><g id="id3f3420e" class="Edge"  ><path    d="m722.5 412h69.5v18h-451.5" stroke-dasharray="5,3"/></g><g id="id45a0e36b" class="Edge"  ><path    d="m222.5 520h73"/></g><g id="id52d26212" class="Edge"  ><path    d="m609.99 322.23h24.01v161.77h16"/></g><g id="id5b89ae88" class="Edge"  ><path    d="m600 529v18h40.5v18" stroke-dasharray="5,3" style="marker-end:url(#markerendtbar000)"/></g><g id="id5dd91c8e" class="Edge"  ><path    d="m222.5 250h204.9v72h63.38" stroke-dasharray="5,3"/></g><g id="id7bde5174" class="Edge"  ><path    d="m609.99 322.23h24.01v-54.23h43.5" style="marker-end:url(#markerendtbar000)"/></g><g id="id896466d2" class="Edge"  ><path    d="m609.99 322.23h24.01v-90.23h43.5" style="marker-end:url(#markerendtbar000)"/></g><g id="id8a530b78" class="Edge"  ><path    d="m609.99 322.23h24.01v-126.23h43.5" style="marker-end:url(#markerendtbar000)"/></g><g id="ida3e58876" class="Edge"  ><path    d="m222.5 286h235.18v36h33.10" stroke-dasharray="5,3"/></g><g id="idadeab32b" class="Edge"  ><path    d="m609.99 322.23h24.01v-162.23h43.5" style="marker-end:url(#markerendtbar000)"/></g><g id="idb769c6e6" class="Edge"  ><path    d="m141.5 214h36" stroke-dasharray="5,3"/></g><g id="idb7af60b8" class="Edge"  ><path    d="m397.09 322h93.69" stroke-dasharray="5,3"/></g><g id="idb966722" class="Edge"  ><path    d="m609.99 322.23h24.01v125.77h43.5" style="marker-end:url(#markerendtbar000)"/></g><g id="ide8178db0" class="Edge"  ><path    d="m609.99 322.23h24.01v17.77h43.5" style="marker-end:url(#markerendtbar000)"/></g><g id="ide93edc51" class="Edge"  ><path    d="m222.5 214h186.76v108h81.52" stroke-dasharray="5,3"/></g><g id="idf2b8f67f" class="Edge"  ><path    d="m196.5 70h63"/></g><g id="idfb1f312f" class="Edge"  ><path    d="m340.5 520h237" stroke-dasharray="5,3"/></g><g id="b8bef" class="" transform="translate(241.5,421)"  ><g class=""><use class=" Node Icon" width="45" height="18" fill="#333333" stroke="#333333" href="#Ellipse"/></g></g><g id="f1022" class="" transform="translate(295.5,421)"  ><g class=""><use class=" Node Icon" width="45" height="18" fill="#333333" stroke="#333333" href="#Ellipse"/></g></g><g id="d3ad5" class="Label" transform="translate(388,403)"  name="Cell junction" ><g class="Label"/><text   transform="translate(30,9)"    >Cell junction</text></g><g id="a39ec" class="GeneProduct " transform="translate(677.5,295)"  name="MIR429" ><rect   width="45" height="18"/><text   transform="translate(22.5,9)"    >MIR429</text></g><g id="a53a8" class="GeneProduct " transform="translate(677.5,259)"  name="MIR200B" ><rect   width="45" height="18"/><text   transform="translate(22.5,9)"    >MIR200B</text></g><g id="b9ff0" class="GeneProduct " transform="translate(577.5,511)"  name="MYC" ><rect   width="45" height="18"/><text   transform="translate(22.5,9)"    >MYC</text></g><g id="baf55" class="GeneProduct InterPro_IPR000975" transform="translate(177.5,277)"  name="IL1" ><rect   width="45" height="18"/><text   transform="translate(22.5,9)"    >IL1</text></g><g id="be06c" class="GeneProduct " transform="translate(677.5,187)"  name="SFRP1" ><rect   width="45" height="18"/><text   transform="translate(22.5,9)"    >SFRP1</text></g><g id="be934" class="GeneProduct " transform="translate(537,565)"  name="ITGA6" ><rect   width="45" height="18"/><text   transform="translate(22.5,9)"    >ITGA6</text></g><g id="c0589" class="GeneProduct" transform="translate(650,475)"  name="Mesenchymal markers" ><rect   width="100" height="18"/><text   transform="translate(50,9)"    >Mesenchymal markers</text></g><g id="c2a61" class="GeneProduct " transform="translate(677.5,439)"  name="ALPL" ><rect   width="45" height="18"/><text   transform="translate(22.5,9)"    >ALPL</text></g><g id="c2c71" class="GeneProduct " transform="translate(490.78 313)"  name="ZEB2" ><rect   width="45" height="18"/><text   transform="translate(22.5,9)"    >ZEB2</text></g><g id="c4e34" class="GeneProduct " transform="translate(677.5,403)"  name="CLDN4" ><rect   width="45" height="18"/><text   transform="translate(22.5,9)"    >CLDN4</text></g><g id="d3604" class="GeneProduct " transform="translate(677.5,331)"  name="TERT" ><rect   width="45" height="18"/><text   transform="translate(22.5,9)"    >TERT</text></g><g id="db499" class="GeneProduct" transform="translate(160,169)"  name="Hypoxia signals" ><rect   width="80" height="18"/><text   transform="translate(40,9)"    >Hypoxia signals</text></g><g id="de529" class="GeneProduct " transform="translate(295.5,511)"  name="ERBB4" ><rect   width="45" height="18"/><text   transform="translate(22.5,9)"    >ERBB4</text></g><g id="e370e" class="GeneProduct " transform="translate(618,565)"  name="ITGB1" ><rect   width="45" height="18"/><text   transform="translate(22.5,9)"    >ITGB1</text></g><g id="e4149" class="GeneProduct " transform="translate(177.5,205)"  name="TGFB1" ><rect   width="45" height="18"/><text   transform="translate(22.5,9)"    >TGFB1</text></g><g id="e9314" class="GeneProduct " transform="translate(177.5,511)"  name="NRG3" ><rect   width="45" height="18"/><text   transform="translate(22.5,9)"    >NRG3</text></g><g id="ef5b1" class="GeneProduct " transform="translate(677.5,223)"  name="MIR200A" ><rect   width="45" height="18"/><text   transform="translate(22.5,9)"    >MIR200A</text></g><g id="f17fe" class="GeneProduct " transform="translate(677.5,151)"  name="CCND1" ><rect   width="45" height="18"/><text   transform="translate(22.5,9)"    >CCND1</text></g><g id="f4a65" class="GeneProduct " transform="translate(352.09 313)"  name="AKT1" ><rect   width="45" height="18"/><text   transform="translate(22.5,9)"    >AKT1</text></g><g id="fbcd7" class="GeneProduct " transform="translate(677.5,367)"  name="CDH1" ><rect   width="45" height="18"/><text   transform="translate(22.5,9)"    >CDH1</text></g><g id="fbcf9" class="Metabolite " transform="translate(565.9 309.73)"  name="DNA" ><rect   width="44.09" height="25"/><text   transform="translate(22.05 12.5)"     style="font-size:12px">DNA</text></g><g id="fe7da" class="GeneProduct " transform="translate(177.5,241)"  name="TNF" ><rect   width="45" height="18"/><text   transform="translate(22.5,9)"    >TNF</text></g><g id="ffbb8" class="GeneProduct" transform="translate(45,205)"  name="Hedgehog signals" ><rect   width="96.5" height="18"/><text   transform="translate(48.25,9)"    >Hedgehog signals</text></g><g id="ad3ca" class="" transform="translate(655.5,58.75)"  name="Involution" ><g class=""><rect   width="135" height="22.5" rx="15" ry="15" style="fill:transparent"/></g><g ><defs><clipPath ><rect x="-67.5" y="-11.25" width="135" height="22.5" style="stroke:none"/></clipPath></defs><text   transform="translate(67.5,11.25)"    >Involution</text></g></g><g id="b0262" class="" transform="translate(259.5,58.75)"  name="Puberty" ><g class=""><rect   width="135" height="22.5" rx="15" ry="15" style="fill:transparent"/></g><g ><defs><clipPath ><rect x="-67.5" y="-11.25" width="135" height="22.5" style="stroke:none"/></clipPath></defs><text   transform="translate(67.5,11.25)"    >Puberty</text></g></g><g id="ad4df" class="" transform="translate(61.5,58.75)"  name="Embryonic development" ><g class=""><rect   width="135" height="22.5" style="fill:transparent;stroke:#f00"/></g><g ><defs><clipPath ><rect x="-67.5" y="-11.25" width="135" height="22.5" style="stroke:none"/></clipPath></defs><text   transform="translate(67.5,11.25)"     style="fill:#f00">Embryonic development</text></g></g><g id="b7af7" class="" transform="translate(610.5,12)"  name="MAMMARY GLAND DEVELOPMENT PATHWAY" ><g class=""><rect   width="180" height="36" style="fill:transparent;stroke:#f00"/></g><g ><defs><clipPath ><rect x="-90" y="-18" width="180" height="36" style="stroke:none"/></clipPath></defs><text   transform="translate(90,18)"     style="fill:#f00"><tspan   x="0" y="-5.5">MAMMARY GLAND DEVELOPMENT</tspan><tspan   x="0" y="5.5">PATHWAY</tspan></text></g></g><g id="b3fe9" class="" transform="translate(457.5,58.75)"  name="Pregnancy and lactation" ><g class=""><rect   width="135" height="22.5" rx="15" ry="15" style="fill:transparent"/></g><g ><defs><clipPath ><rect x="-67.5" y="-11.25" width="135" height="22.5" style="stroke:none"/></clipPath></defs><text   transform="translate(67.5,11.25)"    >Pregnancy and lactation</text></g></g></g></g></g></svg>