<?xml version="1.0" encoding="UTF-8"?>
<!--
  WikiPathways page: https://www.wikipathways.org/index.php/Pathway:WP2876
  URL for this compressed file: https://github.com/eweitz/cachome/tree/main/data/WP2876.svg
  Source code for compression: https://github.com/eweitz/cachome/tree/main/src/wikipathways.py
-->
<svg id="wp2876-svg" class="Diagram" width="800" height="600" color="black" baseProfile="full" prefix="schema:http://schema.org/" preserveAspectRatio="xMidYMid" version="1.1" viewBox="0 0 856.87 1038.1" vocab="http://vocabularies.wikipathways.org/wp#" xmlns="http://www.w3.org/2000/svg" xmlns:xlink="http://www.w3.org/1999/xlink"><style>svg {font-family: 'Liberation Sans', Arial, sans-serif; }</style><defs><g id="jit-defs"><filter id="kaaviodoublefalse3filter" x="-50%" y="-50%" width="200%" height="200%"><feComposite in="SourceGraphic" in2="SourceGraphic" result="doubleDark"/><feMorphology in="doubleDark" operator="dilate" radius="0.16666666666666666" result="in2Double"/><feMorphology in="SourceGraphic" operator="dilate" radius="3" result="inDouble"/><feComposite in="inDouble" in2="in2Double" operator="out" result="doubleResult"/></filter><filter id="kaavioblackto000000filter" x="0" y="0" width="856.87" height="1038.1" filterUnits="userSpaceOnUse"><feColorMatrix in="SourceGraphic" values="-1   0   0 0 0                   0  -1   0 0 0                   0   0  -1 0 0                   0   0   0 1 0"/></filter></g><g id="jic-defs"><marker id="markerEndArrow" stroke-dasharray="99999" markerHeight="12" markerUnits="userSpaceOnUse" markerWidth="12" orient="auto" preserveAspectRatio="none" refX="12" refY="6" viewBox="0 0 12 12"><path transform="rotate(180 6 6)" d="M12 11L0 6l12-5z" fill="currentColor" stroke-width="0"/></marker><symbol id="Ellipse" overflow="visible" preserveAspectRatio="none" viewBox="0 0 50 50"><ellipse cx="25" cy="25" rx="25" ry="25" stroke="currentColor" vector-effect="non-scaling-stroke"/></symbol><symbol id="Octagon" overflow="visible" preserveAspectRatio="none" viewBox="0 0 100 100"><path d="M0 25L25 0h50l25 25v50l-25 25H25L0 75z" stroke="currentColor" vector-effect="non-scaling-stroke"/></symbol><symbol id="none" preserveAspectRatio="none" viewBox="0 0 100 100"/></g></defs><g id="WP2876" class="Viewport" color="black"  name="Name: Pregnane X receptor pathway Organism: Homo sapiens"><rect id="WP2876-icon" class="Icon" width="856.87" height="1038.1" fill="#fff" stroke="#000" stroke-width="0"/><g id="id9c317629" class="Edge GraphicalLine DirectedInteraction" color="#000" ><g color="#000" fill="transparent"  filter="url(#kaavioblackto000000filter)" stroke="#000" stroke-dasharray="39.77080002273661, 5.8"><path id="id9c317629" class="EdgeBody" d="m359.65 721.05 45.551 1.3474"   marker-end="url(#markerEndArrow)" /></g></g><g id="idb760effc" class="Edge GraphicalLine" color="#000" ><g color="#000" fill="transparent"  filter="url(#kaavioblackto000000filter)" stroke="#000" stroke-dasharray="29.239766081871267, 0"><path id="idb760effc" class="EdgeBody" d="m359.65 722.22v29.24"   /></g></g><g id="idfc3cf16b" class="DirectedInteraction" color="#000" ><g color="#000" fill="transparent"  filter="url(#kaavioblackto000000filter)" stroke="#000" stroke-dasharray="85.64908036960371, 5.8"><path id="idfc3cf16b" class="EdgeBody" d="m170.34 107.84v91.449"   marker-end="url(#markerEndArrow)" /></g></g><g id="id7906785c" class="DirectedInteraction" color="#000" ><g color="#000" fill="transparent"  filter="url(#kaavioblackto000000filter)" stroke="#000" stroke-dasharray="283.5189371536084, 5.8"><path id="id7906785c" class="EdgeBody" d="m170.34 391.41 3e-14 289.32"   marker-end="url(#markerEndArrow)" /></g><g id="c7bdc" class="Burr Anchor" transform="translate(170.34 633.23)" ><use id="c7bdc-icon" class="Icon" width="0" height="0" fill="#141414" stroke-width="0" xlink:href="#none"/></g></g><g id="id359b0d4f" class="Interaction" color="#000" ><g color="#000" fill="transparent"  filter="url(#kaavioblackto000000filter)" stroke="#000" stroke-dasharray="110.45945275589663, 0"><path id="id359b0d4f" class="EdgeBody" d="m264.32 575.19-93.98 58.044"   /></g></g><g id="id9c01d2a4" class="DirectedInteraction" color="#000" ><g color="#000" fill="transparent"  filter="url(#kaavioblackto000000filter)" stroke="#000" stroke-dasharray="50.32515800904896, 5.8"><path id="id9c01d2a4" class="EdgeBody" d="m170.34 271.29v56.125"   marker-end="url(#markerEndArrow)" /></g><g id="f8c2d" class="Burr Anchor" transform="translate(170.34 293.74)" ><use id="f8c2d-icon" class="Icon" width="0" height="0" fill="#141414" stroke-width="0" xlink:href="#none"/></g></g><g id="id5d17c7c0" class="DirectedInteraction" color="#000" ><g color="#000" fill="transparent"  filter="url(#kaavioblackto000000filter)" stroke="#000" stroke-dasharray="115.72035044587507, 5.8"><path id="id5d17c7c0" class="EdgeBody" d="m170.34 293.74 121.31 7.117"   marker-end="url(#markerEndArrow)" /></g></g><g id="eef09" class="SingleFreeNode Shape PhysicalEntity CellularComponent Cell" transform="translate(19.237 161.51)" color="#c0c0c0" ><g fill="transparent"  filter="url(#kaaviodoublefalse3filter)" stroke="#c0c0c0" stroke-width="3"><rect id="eef09-icon" class="Icon" transform="matrix(.98539 0 0 .98605 5.9123 5.9163)" width="809.13" height="848.05" rx="15" ry="15"   /></g></g><g id="f158c" class="SingleFreeNode Shape PhysicalEntity CellularComponent Nucleus" transform="translate(29.968 455.56)" color="#c0c0c0" ><g fill="transparent"  filter="url(#kaaviodoublefalse3filter)" stroke="#c0c0c0" stroke-width="3"><use id="f158c-icon" class="Icon" transform="matrix(.98455 0 0 .97772 5.9073 5.8663)" width="764.5323325966733" height="526.6414337123028"    xlink:href="#Ellipse"/></g></g><a id="a5d29" class="ChEBI_CHEBI_77318 Metabolite  " transform="translate(130.34 87.839)" color="#00f"  name="Ligand"  ><rect id="a5d29-icon" class="Icon" transform="matrix(.98765 0 0 .95238 .49383 .47619)" width="80" height="20" fill="#fff" stroke="#00f"/><text id="a5d29-text" class="Text" transform="translate(40 13)" fill="#00f"  font-size="10px" stroke="white" stroke-width="0" text-anchor="middle"><tspan x="0" y="0">Ligand</tspan></text></a><g id="c377f" class="Label" transform="translate(450.83 575.76)" color="#000"  name="Phase 2 metabolism"><use id="c377f-icon" class="Icon" width="80" height="20" fill="transparent"  stroke="#000" stroke-width="0" xlink:href="#none"/><text id="c377f-text" class="Text" transform="translate(40,13)" fill="#000"  font-size="10px" stroke="white" stroke-width="0" text-anchor="middle"><tspan x="0" y="0">Phase 2 metabolism</tspan></text></g><g id="cb93e" class="Label" transform="translate(405.2 712.4)" color="#000"  name="Transcription"><use id="cb93e-icon" class="Icon" width="80" height="20" fill="transparent"  stroke="#000" stroke-width="0" xlink:href="#none"/><text id="cb93e-text" class="Text" transform="translate(40,13)" fill="#000"  font-size="10px" stroke="white" stroke-width="0" text-anchor="middle"><tspan x="0" y="0">Transcription</tspan></text></g><g id="d9726" class="Label" transform="translate(565.44 571.13)" color="#000"  name="Drug and steroid metabolism"><use id="d9726-icon" class="Icon" width="80" height="20" fill="transparent"  stroke="#000" stroke-width="0" xlink:href="#none"/><text id="d9726-text" class="Text" transform="translate(40,13)" fill="#000"  font-size="10px" stroke="white" stroke-width="0" text-anchor="middle"><tspan x="0" y="0">Drug and steroid metabolism</tspan></text></g><g id="f26e1" class="Label" transform="translate(565.44 770.24)" color="#000"  name="Other"><use id="f26e1-icon" class="Icon" width="80" height="20" fill="transparent"  stroke="#000" stroke-width="0" xlink:href="#none"/><text id="f26e1-text" class="Text" transform="translate(40,13)" fill="#000"  font-size="10px" stroke="white" stroke-width="0" text-anchor="middle"><tspan x="0" y="0">Other</tspan></text></g><g id="f8e6b" class="Label" transform="translate(447.36 756.35)" color="#000"  name="Multi-drug resistance"><use id="f8e6b-icon" class="Icon" width="80" height="20" fill="transparent"  stroke="#000" stroke-width="0" xlink:href="#none"/><text id="f8e6b-text" class="Text" transform="translate(40,13)" fill="#000"  font-size="10px" stroke="white" stroke-width="0" text-anchor="middle"><tspan x="0" y="0">Multi-drug resistance</tspan></text></g><a  id="ea0af" class="GeneProduct RXRA " transform="translate(224.32 555.19)"   name="RXRA"  ><rect id="ea0af-icon" class="Icon" transform="matrix(.98765 0 0 .95238 .49383 .47619)" width="80" height="20" fill="#fff" stroke="#000"/><text id="ea0af-text" class="Text" transform="translate(40,13)" fill="#000"  font-size="10px" stroke="white" stroke-width="0" text-anchor="middle"><tspan x="0" y="0">RXRA</tspan></text></a><g id="a40ba" class="GroupGroup" transform="translate(234.71 769.71)" color="grey" ><use id="a40ba-icon" class="Icon" width="96" height="178.40477968633286" fill="transparent"  stroke="grey" stroke-dasharray="5,3" stroke-width="0" xlink:href="#none"/><a  id="a579b" class="GeneProduct SRC " transform="translate(8 130.4)"   name="SRC"  ><rect id="a579b-icon" class="Icon" transform="matrix(.98765 0 0 .95238 .49383 .47619)" width="80" height="20" fill="#fff" stroke="#000"/><text id="a579b-text" class="Text" transform="translate(40,13)" fill="#000"  font-size="10px" stroke="white" stroke-width="0" text-anchor="middle"><tspan x="0" y="0">SRC</tspan></text></a><a  id="ab60d" class="GeneProduct NCOA2 " transform="translate(8 70.405)"   name="NCOA2"  ><rect id="ab60d-icon" class="Icon" transform="matrix(.98765 0 0 .95238 .49383 .47619)" width="80" height="20" fill="#fff" stroke="#000"/><text id="ab60d-text" class="Text" transform="translate(40,13)" fill="#000"  font-size="10px" stroke="white" stroke-width="0" text-anchor="middle"><tspan x="0" y="0">NCOA2</tspan></text></a><a  id="ac29c" class="GeneProduct NCOA3 " transform="translate(8 30.405)"   name="NCOA3"  ><rect id="ac29c-icon" class="Icon" transform="matrix(.98765 0 0 .95238 .49383 .47619)" width="80" height="20" fill="#fff" stroke="#000"/><text id="ac29c-text" class="Text" transform="translate(40,13)" fill="#000"  font-size="10px" stroke="white" stroke-width="0" text-anchor="middle"><tspan x="0" y="0">NCOA3</tspan></text></a><a  id="b3c35" class="GeneProduct PSMC5 " transform="translate(8 110.4)"   name="PSMC5"  ><rect id="b3c35-icon" class="Icon" transform="matrix(.98765 0 0 .95238 .49383 .47619)" width="80" height="20" fill="#fff" stroke="#000"/><text id="b3c35-text" class="Text" transform="translate(40,13)" fill="#000"  font-size="10px" stroke="white" stroke-width="0" text-anchor="middle"><tspan x="0" y="0">PSMC5</tspan></text></a><a  id="c83c8" class="GeneProduct NRIP1 " transform="translate(8 50.405)"   name="NRIP1"  ><rect id="c83c8-icon" class="Icon" transform="matrix(.98765 0 0 .95238 .49383 .47619)" width="80" height="20" fill="#fff" stroke="#000"/><text id="c83c8-text" class="Text" transform="translate(40,13)" fill="#000"  font-size="10px" stroke="white" stroke-width="0" text-anchor="middle"><tspan x="0" y="0">NRIP1</tspan></text></a><a  id="ccce7" class="GeneProduct SRPX2 " transform="translate(8 150.4)"   name="SRPX2"  ><rect id="ccce7-icon" class="Icon" transform="matrix(.98765 0 0 .95238 .49383 .47619)" width="80" height="20" fill="#fff" stroke="#000"/><text id="ccce7-text" class="Text" transform="translate(40,13)" fill="#000"  font-size="10px" stroke="white" stroke-width="0" text-anchor="middle"><tspan x="0" y="0">SRPX2</tspan></text></a><a  id="fb94b" class="GeneProduct PPARGC1A " transform="translate(8 90.405)"   name="PPARGC1A"  ><rect id="fb94b-icon" class="Icon" transform="matrix(.98765 0 0 .95238 .49383 .47619)" width="80" height="20" fill="#fff" stroke="#000"/><text id="fb94b-text" class="Text" transform="translate(40,13)" fill="#000"  font-size="10px" stroke="white" stroke-width="0" text-anchor="middle"><tspan x="0" y="0">PPARGC1A</tspan></text></a><g id="f9f95" class="Label" transform="translate(8.4182 8)" color="#000"  name="Coregulators"><use id="f9f95-icon" class="Icon" width="79.16355489171035" height="22.40477968633298" fill="transparent"  stroke="#000" stroke-width="0" xlink:href="#none"/><text id="f9f95-text" class="Text" transform="translate(39.582 14.202)" fill="#000"  font-size="10px" stroke="white" stroke-width="0" text-anchor="middle"><tspan x="0" y="0">Coregulators</tspan></text></g></g><g id="ee20f" class="GroupComplex" transform="translate(118.34 187.29)" color="grey" ><use id="ee20f-icon" class="Icon" transform="matrix(.99048 0 0 .98824 .49524 .49412)" width="104" height="83.99999999999997" fill="#b4b464" fill-opacity=".1" stroke="grey" xlink:href="#Octagon"/><a  id="dcb3e" class="GeneProduct NR1I2 " transform="translate(12,12)"   name="NR1I2"  ><rect id="dcb3e-icon" class="Icon" transform="matrix(.98765 0 0 .95238 .49383 .47619)" width="80" height="20" fill="#fff" stroke="#000"/><text id="dcb3e-text" class="Text" transform="translate(40,13)" fill="#000"  font-size="10px" stroke="white" stroke-width="0" text-anchor="middle"><tspan x="0" y="0">NR1I2</tspan></text></a><a  id="fb1db" class="GeneProduct HSP90AA1 " transform="translate(12 32)"   name="HSP90AA1"  ><rect id="fb1db-icon" class="Icon" transform="matrix(.98765 0 0 .95238 .49383 .47619)" width="80" height="20" fill="#fff" stroke="#000"/><text id="fb1db-text" class="Text" transform="translate(40,13)" fill="#000"  font-size="10px" stroke="white" stroke-width="0" text-anchor="middle"><tspan x="0" y="0">HSP90AA1</tspan></text></a><a  id="e5675" class="GeneProduct DNAJC7 " transform="translate(12,52)"   name="DNAJC7"  ><rect id="e5675-icon" class="Icon" transform="matrix(.98765 0 0 .95238 .49383 .47619)" width="80" height="20" fill="#fff" stroke="#000"/><text id="e5675-text" class="Text" transform="translate(40,13)" fill="#000"  font-size="10px" stroke="white" stroke-width="0" text-anchor="middle"><tspan x="0" y="0">DNAJC7</tspan></text></a></g><g id="ab1fd" class="GroupComplex" transform="translate(118.34 327.41)" color="grey" ><use id="ab1fd-icon" class="Icon" transform="matrix(.99048 0 0 .98462 .49524 .49231)" width="104" height="63.99999999999994" fill="#b4b464" fill-opacity=".1" stroke="grey" xlink:href="#Octagon"/><a  id="d270a" class="GeneProduct NR1I2 " transform="translate(12 32)"   name="NR1I2"  ><rect id="d270a-icon" class="Icon" transform="matrix(.98765 0 0 .95238 .49383 .47619)" width="80" height="20" fill="#fff" stroke="#000"/><text id="d270a-text" class="Text" transform="translate(40,13)" fill="#000"  font-size="10px" stroke="white" stroke-width="0" text-anchor="middle"><tspan x="0" y="0">NR1I2</tspan></text></a><a id="bed6c" class="ChEBI_CHEBI_77318 Metabolite  " transform="translate(12 12)" color="#00f"  name="Ligand"  ><rect id="bed6c-icon" class="Icon" transform="matrix(.98765 0 0 .95238 .49383 .47619)" width="80" height="20" fill="#fff" stroke="#00f"/><text id="bed6c-text" class="Text" transform="translate(40 13)" fill="#00f"  font-size="10px" stroke="white" stroke-width="0" text-anchor="middle"><tspan x="0" y="0">Ligand</tspan></text></a></g><g id="ce48e" class="GroupGroup" transform="translate(291.66 268.15)" color="grey" ><use id="ce48e-icon" class="Icon" width="96.00000000000006" height="65.40593426352763" fill="transparent"  stroke="grey" stroke-dasharray="5,3" stroke-width="0" xlink:href="#none"/><a  id="eec55" class="GeneProduct HSP90AA1 " transform="translate(8 8)"   name="HSP90AA1"  ><rect id="eec55-icon" class="Icon" transform="matrix(.98765 0 0 .95238 .49383 .47619)" width="80" height="20" fill="#fff" stroke="#000"/><text id="eec55-text" class="Text" transform="translate(40,13)" fill="#000"  font-size="10px" stroke="white" stroke-width="0" text-anchor="middle"><tspan x="0" y="0">HSP90AA1</tspan></text></a><a  id="a242c" class="GeneProduct DNAJC7 " transform="translate(8 37.406)"   name="DNAJC7"  ><rect id="a242c-icon" class="Icon" transform="matrix(.98765 0 0 .95238 .49383 .47619)" width="80" height="20" fill="#fff" stroke="#000"/><text id="a242c-text" class="Text" transform="translate(40,13)" fill="#000"  font-size="10px" stroke="white" stroke-width="0" text-anchor="middle"><tspan x="0" y="0">DNAJC7</tspan></text></a></g><g id="bb41c" class="Edge GraphicalLine" color="#000" ><g color="#000" fill="transparent"  filter="url(#kaavioblackto000000filter)" stroke="#000" stroke-dasharray="268.09494385492576, 0"><path id="bb41c" class="EdgeBody" d="m148.09 752.29h268.09"   /></g></g><g id="c702d" class="Edge GraphicalLine" color="#000" ><g color="#000" fill="transparent"  filter="url(#kaavioblackto000000filter)" stroke="#000" stroke-dasharray="268.62364884069285, 0"><path id="c702d" class="EdgeBody" d="m147.56 768.77 268.62-0.34063"   /></g></g><g id="e4430" class="Label" transform="translate(367.04 752.7)" color="#000"  name="Genes"><rect id="e4430-icon" class="Icon" transform="matrix(.98018 0 0 .94058 .49009 .47029)" width="49.466" height="15.829" fill="#fff" stroke="#000"/><text id="e4430-text" class="Text" transform="translate(24.733 10.915)" fill="#000"  font-size="10px" stroke="white" stroke-width="0" text-anchor="middle"><tspan x="0" y="0">Genes</tspan></text></g><g id="baf13" class="Label" transform="translate(262.29 752.57)" color="#000"  name="TATA box"><rect id="baf13-icon" class="Icon" transform="matrix(.98018 0 0 .94059 .49009 .47029)" width="49.466" height="15.831" fill="#fff" stroke="#000"/><text id="baf13-text" class="Text" transform="translate(24.733 10.916)" fill="#000"  font-size="10px" stroke="white" stroke-width="0" text-anchor="middle"><tspan x="0" y="0">TATA box</tspan></text></g><g id="b0d1e" class="GroupComplex" transform="translate(118.34 680.73)" color="grey" ><use id="b0d1e-icon" class="Icon" transform="matrix(.99048 0 0 .99008 .49524 .49504)" width="104" height="99.83113456464366" fill="#b4b464" fill-opacity=".1" stroke="grey" xlink:href="#Octagon"/><g id="f0515" class="Label" transform="translate(27.267 72)" color="#000"  name="XRE"><rect id="f0515-icon" class="Icon" transform="matrix(.98018 0 0 .94059 .49009 .47029)" width="49.466" height="15.831" fill="#fff" stroke="#000"/><text id="f0515-text" class="Text" transform="translate(24.733 10.916)" fill="#000"  font-size="10px" stroke="white" stroke-width="0" text-anchor="middle"><tspan x="0" y="0">XRE</tspan></text></g><a  id="ea607" class="GeneProduct RXRA " transform="translate(12 52)"   name="RXRA"  ><rect id="ea607-icon" class="Icon" transform="matrix(.98765 0 0 .95238 .49383 .47619)" width="80" height="20" fill="#fff" stroke="#000"/><text id="ea607-text" class="Text" transform="translate(40,13)" fill="#000"  font-size="10px" stroke="white" stroke-width="0" text-anchor="middle"><tspan x="0" y="0">RXRA</tspan></text></a><a  id="cf413" class="GeneProduct NR1I2 " transform="translate(12,32)"   name="NR1I2"  ><rect id="cf413-icon" class="Icon" transform="matrix(.98765 0 0 .95238 .49383 .47619)" width="80" height="20" fill="#fff" stroke="#000"/><text id="cf413-text" class="Text" transform="translate(40,13)" fill="#000"  font-size="10px" stroke="white" stroke-width="0" text-anchor="middle"><tspan x="0" y="0">NR1I2</tspan></text></a><a id="fbbbd" class="ChEBI_CHEBI_77318 Metabolite  " transform="translate(12,12)" color="#00f"  name="Ligand"  ><rect id="fbbbd-icon" class="Icon" transform="matrix(.98765 0 0 .95238 .49383 .47619)" width="80" height="20" fill="#fff" stroke="#00f"/><text id="fbbbd-text" class="Text" transform="translate(40 13)" fill="#00f"  font-size="10px" stroke="white" stroke-width="0" text-anchor="middle"><tspan x="0" y="0">Ligand</tspan></text></a></g><g id="a6c47" class="GroupGroup" transform="translate(559.83 592.76)" color="grey" ><use id="a6c47-icon" class="Icon" width="96" height="176" fill="transparent"  stroke="grey" stroke-dasharray="5,3" stroke-width="0" xlink:href="#none"/><a  id="d088f" class="GeneProduct CYP3A7 " transform="translate(8,128)"   name="CYP3A7"  ><rect id="d088f-icon" class="Icon" transform="matrix(.98765 0 0 .95238 .49383 .47619)" width="80" height="20" fill="#fff" stroke="#000"/><text id="d088f-text" class="Text" transform="translate(40,13)" fill="#000"  font-size="10px" stroke="white" stroke-width="0" text-anchor="middle"><tspan x="0" y="0">CYP3A7</tspan></text></a><a  id="e14d2" class="GeneProduct CYP2A6 " transform="translate(8,8)"   name="CYP2A6"  ><rect id="e14d2-icon" class="Icon" transform="matrix(.98765 0 0 .95238 .49383 .47619)" width="80" height="20" fill="#fff" stroke="#000"/><text id="e14d2-text" class="Text" transform="translate(40,13)" fill="#000"  font-size="10px" stroke="white" stroke-width="0" text-anchor="middle"><tspan x="0" y="0">CYP2A6</tspan></text></a><a  id="d5e6e" class="GeneProduct CYP3A4 " transform="translate(8,88)"   name="CYP3A4"  ><rect id="d5e6e-icon" class="Icon" transform="matrix(.98765 0 0 .95238 .49383 .47619)" width="80" height="20" fill="#fff" stroke="#000"/><text id="d5e6e-text" class="Text" transform="translate(40,13)" fill="#000"  font-size="10px" stroke="white" stroke-width="0" text-anchor="middle"><tspan x="0" y="0">CYP3A4</tspan></text></a><a  id="d3784" class="GeneProduct CYP2B6 " transform="translate(8,28)"   name="CYP2B6"  ><rect id="d3784-icon" class="Icon" transform="matrix(.98765 0 0 .95238 .49383 .47619)" width="80" height="20" fill="#fff" stroke="#000"/><text id="d3784-text" class="Text" transform="translate(40,13)" fill="#000"  font-size="10px" stroke="white" stroke-width="0" text-anchor="middle"><tspan x="0" y="0">CYP2B6</tspan></text></a><a  id="edd35" class="GeneProduct GSTA2 " transform="translate(8,148)"   name="GSTA2"  ><rect id="edd35-icon" class="Icon" transform="matrix(.98765 0 0 .95238 .49383 .47619)" width="80" height="20" fill="#fff" stroke="#000"/><text id="edd35-text" class="Text" transform="translate(40,13)" fill="#000"  font-size="10px" stroke="white" stroke-width="0" text-anchor="middle"><tspan x="0" y="0">GSTA2</tspan></text></a><a  id="b49b2" class="GeneProduct CYP2C9 " transform="translate(8,48)"   name="CYP2C9"  ><rect id="b49b2-icon" class="Icon" transform="matrix(.98765 0 0 .95238 .49383 .47619)" width="80" height="20" fill="#fff" stroke="#000"/><text id="b49b2-text" class="Text" transform="translate(40,13)" fill="#000"  font-size="10px" stroke="white" stroke-width="0" text-anchor="middle"><tspan x="0" y="0">CYP2C9</tspan></text></a><a  id="ab215" class="GeneProduct CYP3A5 " transform="translate(8,108)"   name="CYP3A5"  ><rect id="ab215-icon" class="Icon" transform="matrix(.98765 0 0 .95238 .49383 .47619)" width="80" height="20" fill="#fff" stroke="#000"/><text id="ab215-text" class="Text" transform="translate(40,13)" fill="#000"  font-size="10px" stroke="white" stroke-width="0" text-anchor="middle"><tspan x="0" y="0">CYP3A5</tspan></text></a><a  id="a5f11" class="GeneProduct CYP2C19 " transform="translate(8,68)"   name="CYP2C19"  ><rect id="a5f11-icon" class="Icon" transform="matrix(.98765 0 0 .95238 .49383 .47619)" width="80" height="20" fill="#fff" stroke="#000"/><text id="a5f11-text" class="Text" transform="translate(40,13)" fill="#000"  font-size="10px" stroke="white" stroke-width="0" text-anchor="middle"><tspan x="0" y="0">CYP2C19</tspan></text></a></g><g id="db85b" class="GroupGroup" transform="translate(441.65 595.45)" color="grey" ><use id="db85b-icon" class="Icon" width="96.0000000000004" height="116.00000000000011" fill="transparent"  stroke="grey" stroke-dasharray="5,3" stroke-width="0" xlink:href="#none"/><a  id="cdb49" class="GeneProduct UGT1A6 " transform="translate(8 68)"   name="UGT1A6"  ><rect id="cdb49-icon" class="Icon" transform="matrix(.98765 0 0 .95238 .49383 .47619)" width="80" height="20" fill="#fff" stroke="#000"/><text id="cdb49-text" class="Text" transform="translate(40,13)" fill="#000"  font-size="10px" stroke="white" stroke-width="0" text-anchor="middle"><tspan x="0" y="0">UGT1A6</tspan></text></a><g id="d5187" class="GeneProduct UGT1A3 " transform="translate(8 28)" color="#000"  name="UGT1A3"><rect id="d5187-icon" class="Icon" transform="matrix(.98765 0 0 .95238 .49383 .47619)" width="80" height="20" fill="#fff" stroke="#000"/><text id="d5187-text" class="Text" transform="translate(40,13)" fill="#000"  font-size="10px" stroke="white" stroke-width="0" text-anchor="middle"><tspan x="0" y="0">UGT1A3</tspan></text></g><a  id="b442a" class="GeneProduct UGT1A9 " transform="translate(8 88)"   name="UGT1A9"  ><rect id="b442a-icon" class="Icon" transform="matrix(.98765 0 0 .95238 .49383 .47619)" width="80" height="20" fill="#fff" stroke="#000"/><text id="b442a-text" class="Text" transform="translate(40,13)" fill="#000"  font-size="10px" stroke="white" stroke-width="0" text-anchor="middle"><tspan x="0" y="0">UGT1A9</tspan></text></a><a  id="aa9ef" class="GeneProduct UGT1A4 " transform="translate(8 48)"   name="UGT1A4"  ><rect id="aa9ef-icon" class="Icon" transform="matrix(.98765 0 0 .95238 .49383 .47619)" width="80" height="20" fill="#fff" stroke="#000"/><text id="aa9ef-text" class="Text" transform="translate(40,13)" fill="#000"  font-size="10px" stroke="white" stroke-width="0" text-anchor="middle"><tspan x="0" y="0">UGT1A4</tspan></text></a><a  id="b15b8" class="GeneProduct UGT1A1 " transform="translate(8 8)"   name="UGT1A1"  ><rect id="b15b8-icon" class="Icon" transform="matrix(.98765 0 0 .95238 .49383 .47619)" width="80" height="20" fill="#fff" stroke="#000"/><text id="b15b8-text" class="Text" transform="translate(40,13)" fill="#000"  font-size="10px" stroke="white" stroke-width="0" text-anchor="middle"><tspan x="0" y="0">UGT1A1</tspan></text></a></g><g id="f8f73" class="Label" transform="translate(494.6 536.45)" color="#666666"  name="PXR target genes"><use id="f8f73-icon" class="Icon" width="117.25452812202093" height="20.972354623450897" fill="transparent"  stroke="#666666" stroke-width="0" xlink:href="#none"/><text id="f8f73-text" class="Text" transform="translate(58.627 14.486)" fill="#666666"  font-size="12px" font-weight="bold" stroke="white" stroke-width="0" text-anchor="middle"><tspan x="0" y="0">PXR target genes</tspan></text></g><g id="c3953" class="GroupGroup" transform="translate(559.45 787.85)" color="grey" ><use id="c3953-icon" class="Icon" width="96.00000000000045" height="96.00000000000023" fill="transparent"  stroke="grey" stroke-dasharray="5,3" stroke-width="0" xlink:href="#none"/><a  id="e8c82" class="GeneProduct SLCO1B1 " transform="translate(8 28)"   name="SLCO1B1"  ><rect id="e8c82-icon" class="Icon" transform="matrix(.98765 0 0 .95238 .49383 .47619)" width="80" height="20" fill="#fff" stroke="#000"/><text id="e8c82-text" class="Text" transform="translate(40,13)" fill="#000"  font-size="10px" stroke="white" stroke-width="0" text-anchor="middle"><tspan x="0" y="0">SLCO1B1</tspan></text></a><a  id="a8557" class="GeneProduct FOXO1 " transform="translate(8 68)"   name="FOXO1"  ><rect id="a8557-icon" class="Icon" transform="matrix(.98765 0 0 .95238 .49383 .47619)" width="80" height="20" fill="#fff" stroke="#000"/><text id="a8557-text" class="Text" transform="translate(40,13)" fill="#000"  font-size="10px" stroke="white" stroke-width="0" text-anchor="middle"><tspan x="0" y="0">FOXO1</tspan></text></a><a  id="f041f" class="GeneProduct CYP4F12 " transform="translate(8 8)"   name="CYP4F12"  ><rect id="f041f-icon" class="Icon" transform="matrix(.98765 0 0 .95238 .49383 .47619)" width="80" height="20" fill="#fff" stroke="#000"/><text id="f041f-text" class="Text" transform="translate(40,13)" fill="#000"  font-size="10px" stroke="white" stroke-width="0" text-anchor="middle"><tspan x="0" y="0">CYP4F12</tspan></text></a><a  id="e9dd1" class="GeneProduct SULT2A1 " transform="translate(8 48)"   name="SULT2A1"  ><rect id="e9dd1-icon" class="Icon" transform="matrix(.98765 0 0 .95238 .49383 .47619)" width="80" height="20" fill="#fff" stroke="#000"/><text id="e9dd1-text" class="Text" transform="translate(40,13)" fill="#000"  font-size="10px" stroke="white" stroke-width="0" text-anchor="middle"><tspan x="0" y="0">SULT2A1</tspan></text></a></g><g id="f9b7d" class="GroupGroup" transform="translate(665.21 634.5)" color="grey" ><use id="f9b7d-icon" class="Icon" width="96" height="178.4047796863348" fill="transparent"  stroke="grey" stroke-dasharray="5,3" stroke-width="0" xlink:href="#none"/><a  id="de46f" class="GeneProduct SRPX2 " transform="translate(8 150.4)"   name="SRPX2"  ><rect id="de46f-icon" class="Icon" transform="matrix(.98765 0 0 .95238 .49383 .47619)" width="80" height="20" fill="#fff" stroke="#000"/><text id="de46f-text" class="Text" transform="translate(40,13)" fill="#000"  font-size="10px" stroke="white" stroke-width="0" text-anchor="middle"><tspan x="0" y="0">SRPX2</tspan></text></a><a  id="be6bf" class="GeneProduct NCOA3 " transform="translate(8 70.405)"   name="NCOA3"  ><rect id="be6bf-icon" class="Icon" transform="matrix(.98765 0 0 .95238 .49383 .47619)" width="80" height="20" fill="#fff" stroke="#000"/><text id="be6bf-text" class="Text" transform="translate(40,13)" fill="#000"  font-size="10px" stroke="white" stroke-width="0" text-anchor="middle"><tspan x="0" y="0">NCOA3</tspan></text></a><a  id="db581" class="GeneProduct NRIP1 " transform="translate(8 130.4)"   name="NRIP1"  ><rect id="db581-icon" class="Icon" transform="matrix(.98765 0 0 .95238 .49383 .47619)" width="80" height="20" fill="#fff" stroke="#000"/><text id="db581-text" class="Text" transform="translate(40,13)" fill="#000"  font-size="10px" stroke="white" stroke-width="0" text-anchor="middle"><tspan x="0" y="0">NRIP1</tspan></text></a><a  id="f74d2" class="GeneProduct PSMC5 " transform="translate(8 110.4)"   name="PSMC5"  ><rect id="f74d2-icon" class="Icon" transform="matrix(.98765 0 0 .95238 .49383 .47619)" width="80" height="20" fill="#fff" stroke="#000"/><text id="f74d2-text" class="Text" transform="translate(40,13)" fill="#000"  font-size="10px" stroke="white" stroke-width="0" text-anchor="middle"><tspan x="0" y="0">PSMC5</tspan></text></a><a  id="aad0a" class="GeneProduct PPARGC1A " transform="translate(8 90.405)"   name="PPARGC1A"  ><rect id="aad0a-icon" class="Icon" transform="matrix(.98765 0 0 .95238 .49383 .47619)" width="80" height="20" fill="#fff" stroke="#000"/><text id="aad0a-text" class="Text" transform="translate(40,13)" fill="#000"  font-size="10px" stroke="white" stroke-width="0" text-anchor="middle"><tspan x="0" y="0">PPARGC1A</tspan></text></a><a  id="f1fc3" class="GeneProduct NCOA1 " transform="translate(8 30.405)"   name="NCOA1"  ><rect id="f1fc3-icon" class="Icon" transform="matrix(.98765 0 0 .95238 .49383 .47619)" width="80" height="20" fill="#fff" stroke="#000"/><text id="f1fc3-text" class="Text" transform="translate(40,13)" fill="#000"  font-size="10px" stroke="white" stroke-width="0" text-anchor="middle"><tspan x="0" y="0">NCOA1</tspan></text></a><a  id="fb760" class="GeneProduct NCOA2 " transform="translate(8 50.405)"   name="NCOA2"  ><rect id="fb760-icon" class="Icon" transform="matrix(.98765 0 0 .95238 .49383 .47619)" width="80" height="20" fill="#fff" stroke="#000"/><text id="fb760-text" class="Text" transform="translate(40,13)" fill="#000"  font-size="10px" stroke="white" stroke-width="0" text-anchor="middle"><tspan x="0" y="0">NCOA2</tspan></text></a><g id="c54f6" class="Label" transform="translate(8.4182 8)" color="#000"  name="Coregulators"><use id="c54f6-icon" class="Icon" width="79.16355489171035" height="22.40477968633298" fill="transparent"  stroke="#000" stroke-width="0" xlink:href="#none"/><text id="c54f6-text" class="Text" transform="translate(39.582 14.202)" fill="#000"  font-size="10px" stroke="white" stroke-width="0" text-anchor="middle"><tspan x="0" y="0">Coregulators</tspan></text></g></g><g id="cfeb2" class="GroupGroup" transform="translate(442.77 778.82)" color="grey" ><use id="cfeb2-icon" class="Icon" width="95.99999999999994" height="96.00000000000023" fill="transparent"  stroke="grey" stroke-dasharray="5,3" stroke-width="0" xlink:href="#none"/><a  id="eda68" class="GeneProduct ABCC4 " transform="translate(8 68)"   name="ABCC4"  ><rect id="eda68-icon" class="Icon" transform="matrix(.98765 0 0 .95238 .49383 .47619)" width="80" height="20" fill="#fff" stroke="#000"/><text id="eda68-text" class="Text" transform="translate(40,13)" fill="#000"  font-size="10px" stroke="white" stroke-width="0" text-anchor="middle"><tspan x="0" y="0">ABCC4</tspan></text></a><a  id="b3bfe" class="GeneProduct ABCB1 " transform="translate(8,8)"   name="ABCB1"  ><rect id="b3bfe-icon" class="Icon" transform="matrix(.98765 0 0 .95238 .49383 .47619)" width="80" height="20" fill="#fff" stroke="#000"/><text id="b3bfe-text" class="Text" transform="translate(40,13)" fill="#000"  font-size="10px" stroke="white" stroke-width="0" text-anchor="middle"><tspan x="0" y="0">ABCB1</tspan></text></a><a  id="cdc05" class="GeneProduct ABCC2 " transform="translate(8 28)"   name="ABCC2"  ><rect id="cdc05-icon" class="Icon" transform="matrix(.98765 0 0 .95238 .49383 .47619)" width="80" height="20" fill="#fff" stroke="#000"/><text id="cdc05-text" class="Text" transform="translate(40,13)" fill="#000"  font-size="10px" stroke="white" stroke-width="0" text-anchor="middle"><tspan x="0" y="0">ABCC2</tspan></text></a><a  id="eeab2" class="GeneProduct ABCC3 " transform="translate(8 48)"   name="ABCC3"  ><rect id="eeab2-icon" class="Icon" transform="matrix(.98765 0 0 .95238 .49383 .47619)" width="80" height="20" fill="#fff" stroke="#000"/><text id="eeab2-text" class="Text" transform="translate(40,13)" fill="#000"  font-size="10px" stroke="white" stroke-width="0" text-anchor="middle"><tspan x="0" y="0">ABCC3</tspan></text></a></g><text id="WP2876-text" class="Text" transform="translate(5,27)" dominant-baseline="central" fill="black"  font-size="12px" font-weight="bold" overflow="visible" stroke="white" stroke-width="0"><tspan x="0" y="-9">Name: Pregnane X receptor pathway</tspan> <tspan x="0" y="9">Organism: Homo sapiens</tspan></text></g></svg>
