<?xml version="1.0" encoding="UTF-8"?>
<svg xmlns="http://www.w3.org/2000/svg" id="-svg" class="Diagram"  baseProfile="full" prefix="schema:http://schema.org/" preserveAspectRatio="xMidYMid"  version="1.1"><defs><g id="icon-defs"/><g id="marker-defs"><marker id="meaf00" markerHeight="12" markerWidth="12" orient="auto" preserveAspectRatio="none" refX="12" refY="6" viewBox="0 0 12 12"><g id="g-meaf00" transform=""><g transform="rotate(180 6 6)"><rect y="5.4" width="2" height="1.2" style="stroke:#fff"/><polygon points="12 11 0 6 12 1" fill="#f00" stroke-width="0"/></g></g></marker><marker id="mea" markerHeight="12" markerWidth="12" orient="auto" preserveAspectRatio="none" refX="12" refY="6" viewBox="0 0 12 12"><g id="g-mea" transform=""><g transform="rotate(180 6 6)"><rect y="5.4" width="2" height="1.2" style="stroke:#fff"/><polygon points="12 11 0 6 12 1" stroke-width="0"/></g></g></marker><marker id="memcatalysis000" markerHeight="12" markerWidth="12" orient="auto" preserveAspectRatio="none" refX="12" refY="6" viewBox="0 0 12 12"><g id="g-memcatalysis000" transform=""><g transform="rotate(180 6 6)"><circle cx="6" cy="6" r="5.3px" fill="#fff" stroke="#000"/></g></g></marker><marker id="markerendtbar000" markerHeight="20" markerWidth="10" orient="auto" preserveAspectRatio="none" refX="10" refY="10" viewBox="0 0 10 20"><g id="g-markerendtbar000" transform=""><g transform="rotate(180 5 10)"><rect y="9" width="8" height="2" style="stroke:none"/><line x="0" y="0" width="12" height="12" x1="7" x2="7" y2="20" stroke="#000" stroke-width="1.8"/></g></g></marker></g></defs><g id="viewport-20220102141423957" class="svg-pan-zoom_viewport" transform="matrix(0.91 0 0 0.91 178.87 0)" style="transform:matrix(0.91, 0, 0, 0.91, 178.87, 0)"><style>svg.Diagram {font-family: 'Liberation Sans', Arial, sans-serif; }.Diagram path {fill: transparent;stroke: #000;marker-end: url(#mea);}.Diagram symbol path {fill: inherit;stroke: inherit;stroke-width: inherit;marker-end: inherit;}.Diagram rect {fill: #fff;stroke: #000;}.Diagram text {dominant-baseline: central;overflow: hidden;text-anchor: middle;fill: #000;font-size: 10px;}</style><style type="text/css">.Viewport .textContent {
  pointer-events: none;
  stroke-width: 0px;
}

					.Viewport.Icon {
  fill: white;
}

/* Hide the InfoBox */
.Viewport.textContent {
  font-size: 0;
}

.textContent {
  stroke: none;
}

.DataNode {
  stroke-miterlimit: 1;
  pointer-events: auto;
}

.DataNode:hover {
  cursor: pointer;
}

/* TODO should this apply to things other than DataNodes? */
.DataNode.textContent {
  pointer-events: none;
}

.DataNode.Highlighted {
  opacity: 0.6;
  stroke-width: 0px;
}

marker {
  /* this is what should work per the spec
  stroke-dasharray: none; */
  /* but I need to add this to make it work in Safari */
  stroke-dasharray: 9999999999999999999999999;
}

.Citation.Icon {
  fill: none;
  stroke-width: 0px;
}

.Citation.textContent {
  text-align: center;
  vertical-align: top;
  font-size: 7px;
  fill: #999;
  fill-opacity: 1;
  stroke: none;
}</style><g id="WP299" class="Pathway http___identifiers_org_pw_PW_0000010 Viewport"  name="Name: Nuclear receptors in lipid metabolism and toxicity License: CC BY 2.0 Last Modified: 2/22/2013 Organism: Homo sapiens" ><g class="Pathway http___identifiers_org_pw_PW_0000010 Viewport"><rect   width="929.54" height="738.33" style="stroke:none"/><g id="c2875" class="Edge"  ><path    d="m416.67 696.67h36.67" stroke-dasharray="5,3" style="stroke:#f00;marker-end:url(#meaf00)"/></g><g id="a4043" class="Edge"  ><path    d="m566 146 50.67 0.67"/></g><g id="acb04" class="Edge"  ><path    d="m546 136v-56"/></g><g id="acd6b" class="Edge"  ><path    d="m226.67 369.5v43.83h92.67"/></g><g id="ad991" class="Edge"  ><path    d="m119 278.67h-69v-25.33" stroke-dasharray="5,3" style="stroke:#f00;marker-end:url(#meaf00)"/></g><g id="aee11" class="Edge"  ><path    d="m226.67 481.33-42.33 83"/></g><g id="b05f1" class="Edge"  ><path    d="m109.33 243.33-42.67-3e-14" stroke-dasharray="5,3" style="stroke:#f00;marker-end:url(#meaf00)"/></g><g id="b2d0f" class="Edge"  ><path    d="m206 253.33v25.33h-40.33"/></g><g id="b628c" class="Edge"  ><path    d="m366 291 0.67 57.67"/></g><g id="b9c53" class="Edge"  ><path    d="m226 233.33v-67.33h-152.67"/></g><g id="beca4" class="Edge"  ><path    d="m187 473.33-34.33 0.33"/></g><g id="bf6a0" class="Edge"  ><path    d="m366 236v35"/></g><g id="c1a75" class="Edge"  ><path    d="m366 422.83v91.17"/></g><g id="c2ba7" class="Edge"  ><path    d="m366 422.83v20h-80v121.17"/></g><g id="c3f58" class="Edge"  ><path    d="m608 310 62.33 0.33"/></g><g id="d2a6e" class="Edge"  ><path    d="m526 136v-20h-47.33v-36"/></g><g id="d3920" class="Edge"  ><path    d="m50 176v57.33" stroke-dasharray="5,3" style="stroke:#f00;marker-end:url(#meaf00)"/></g><g id="d3edc" class="Edge"  ><path    d="m411.33 146.67 74.67-0.67"/></g><g id="d4da1" class="Edge"  ><path    d="m226.67 350.5-0.67-97.17"/></g><g id="d5281" class="Edge"  ><path    d="m412.67 413.33 89.33-0.33"/><g id="e223a" class="AB" transform="translate(448.4,413.2)"  ><g class="AB"/></g></g><g id="d5976" class="Edge"  ><path    d="m437.33 356.67h88.67v-36.67"/><g id="d9b46" class="AB" transform="translate(487.47 356.67)"  ><g class="AB"/></g></g><g id="adaeb" class="Edge"  ><path    d="m487.33 373.33 0.13-16.67" style="marker-end:url(#memcatalysis000)"/></g><g id="daabc" class="Edge"  ><path    d="m226.67 369.5-3e-14 95.83"/></g><g id="db1af" class="Edge"  ><path    d="m366 534v46"/></g><g id="df68e" class="Edge"  ><path    d="m526 156 0.67 84.5"/></g><g id="e193e" class="Edge"  ><path    d="m562 423v57.67h86"/></g><g id="e5b95" class="Edge"  ><path    d="m366.67 156.17-0.67 59.83"/></g><g id="ece87" class="Edge"  ><path    d="m526.67 259.5-0.67 40.5"/></g><g id="ed3a8" class="Edge"  ><path    d="m572.67 70 42 0.67" stroke-dasharray="5,3" style="stroke:#f00;marker-end:url(#meaf00)"/></g><g id="efd5f" class="Edge"  ><path    d="m266 564-125-80.33"/></g><g id="f1c1d" class="Edge"  ><path    d="m186 243.33-30 3e-14"/></g><g id="f391b" class="Edge"  ><path    d="m448 435.67 0.4-22.47" style="marker-end:url(#memcatalysis000)"/></g><g id="f7fcd" class="Edge"  ><path    d="m366.67 364.67-0.67 39.17"/></g><g id="f80b2" class="Edge"  ><path    d="m246 574-38.33 0.33"/></g><g id="id42daa0bd" class="Edge"  ><path    d="m580.6 569.89-30.60 0.11" style="marker-end:url(#markerendtbar000)"/></g><g id="e8afc" class="Edge"  ><path    d="m670 146.67h51.67" stroke-dasharray="5,3" style="stroke:#f00;marker-end:url(#meaf00)"/></g><g id="a7fa0" class="Edge"  ><path    d="m694.67 480.67 47-0.67" stroke-dasharray="5,3" style="stroke:#f00;marker-end:url(#meaf00)"/></g><g id="idd4e0c7e3" class="Edge"  ><path    d="m70 659v-35" style="marker-end:url(#markerendtbar000)"/></g><g id="d925e" class="Edge"  ><path    d="m161 574.33-56-0.33" stroke-dasharray="5,3" style="stroke:#f00;marker-end:url(#meaf00)"/></g><g id="id81cb2c2c" class="Edge"  ><path    d="m811.54 70.40-143.54 0.27" style="marker-end:url(#markerendtbar000)"/></g><g id="c5a77" class="Edge"  ><path    d="m389.33 590h62.33" stroke-dasharray="5,3" style="stroke:#f00;marker-end:url(#meaf00)"/></g><g id="a00e7" class="Edge"  ><path    d="m106 473.67h-49.33v-38.67" stroke-dasharray="5,3" style="stroke:#f00;marker-end:url(#meaf00)"/></g><g id="f57d4" class="Edge"  ><path    d="m710.33 310.33 44.67-0.33" stroke-dasharray="5,3" style="stroke:#f00;marker-end:url(#meaf00)"/></g><g id="c0c99" class="Edge"  ><path    d="m452 70h-83.67" stroke-dasharray="5,3" style="stroke:#f00;marker-end:url(#meaf00)"/></g><g id="c87" class="Metabolite " transform="translate(187 465.33)"  name="Xenobiotics" ><rect   width="79.33" height="16" style="stroke:#f00"/><text   transform="translate(39.67 8)"    font-weight="bold"  style="fill:#f00">Xenobiotics</text></g><g id="db5" class="Label" transform="translate(205.5,350.5)"  name="DIET" ><g class="Label"/><text   transform="translate(21.17 9.5)"    font-style="italic"  style="fill:#008080;font-size:12px">DIET</text></g><g id="ea8" class="Label" transform="translate(505.5 240.5)"  name="DIET" ><g class="Label"/><text   transform="translate(21.17 9.5)"    font-style="italic"  style="fill:#008080;font-size:12px">DIET</text></g><g id="ec8" class="Label" transform="translate(460 687.67)"  name="Gene expression" ><g class="Label"/><text   transform="translate(66.67 9)"    font-style="italic" font-weight="bold"  style="fill:#f00;font-size:12px">Gene expression</text></g><g id="a1540" class="Metabolite " transform="translate(486,136)"  name="Fatty Acids" ><rect   width="80" height="20" style="stroke:#00f"/><text   transform="translate(40,10)"     style="fill:#00f">Fatty Acids</text></g><g id="a22" class="GeneProduct " transform="translate(616.67 136.67)"  name="PPARA" ><rect   width="53.33" height="20"/><text   transform="translate(26.67 10)"    >PPARA</text></g><g id="a3d" class="GeneProduct " transform="translate(452,60)"  name="PPARG" ><rect   width="53.33" height="20"/><text   transform="translate(26.67 10)"    >PPARG</text></g><g id="a6f" class="GeneProduct " transform="translate(161 564.33)"  name="NR1I2" ><rect   width="46.67" height="20"/><text   transform="translate(23.33 10)"    >NR1I2</text></g><g id="a97" class="GeneProduct " transform="translate(109.33 233.33)"  name="RARA" ><rect   width="46.67" height="20"/><text   transform="translate(23.33 10)"    >RARA</text></g><g id="ae4b8" class="Metabolite " transform="translate(246,564)"  name="Steroids" ><rect   width="80" height="20" style="stroke:#00f"/><text   transform="translate(40,10)"     style="fill:#00f">Steroids</text></g><g id="b23" class="Metabolite" transform="translate(319.33 403.83)"  name="Cholesterol" ><rect   width="93.33" height="19" style="stroke:#00f"/><text   transform="translate(46.67 9.5)"     style="fill:#00f">Cholesterol</text></g><g id="b79" class="Metabolite" transform="translate(296 348.67)"  name="7-DehydroCholesterol" ><rect   width="141.33" height="16" style="stroke:#00f"/><text   transform="translate(70.67 8)"     style="fill:#00f">7-DehydroCholesterol</text></g><g id="bdc" class="GeneProduct " transform="translate(614.67 60.67)"  name="ABCA1" ><rect   width="53.33" height="20"/><text   transform="translate(26.67 10)"    >ABCA1</text></g><g id="c148e" class="Metabolite " transform="translate(444,300)"  name="1,25-Dihydroxy-Vitamins D3" ><rect   width="164" height="20" style="stroke:#00f"/><text   transform="translate(82,10)"     style="fill:#00f">1,25-Dihydroxy-Vitamins D3</text></g><g id="c25" class="GeneProduct " transform="translate(0 233.33)"  name="CYP26A1" ><rect   width="66.67" height="20"/><text   transform="translate(33.33 10)"    >CYP26A1</text></g><g id="c47" class="GeneProduct " transform="translate(106 463.67)"  name="NR1I3" ><rect   width="46.67" height="20"/><text   transform="translate(23.33 10)"    >NR1I3</text></g><g id="c5d" class="GeneProduct " transform="translate(670.33 300.33)"  name="VDR" ><rect   width="40" height="20"/><text   transform="translate(20,10)"    >VDR</text></g><g id="ca9" class="GeneProduct " transform="translate(421.33 435.67)"  name="CYP7A1" ><rect   width="53.33" height="20"/><text   transform="translate(26.67 10)"    >CYP7A1</text></g><g id="cac80" class="Metabolite " transform="translate(502,403)"  name="Bile Acids" ><rect   width="80" height="20" style="stroke:#00f"/><text   transform="translate(40,10)"     style="fill:#00f">Bile Acids</text></g><g id="cdc" class="GeneProduct " transform="translate(119 268.67)"  name="RARB" ><rect   width="46.67" height="20"/><text   transform="translate(23.33 10)"    >RARB</text></g><g id="d0c63" class="Metabolite " transform="translate(186 233.33)"  name="Retinoic acid" ><rect   width="80" height="20" style="stroke:#00f"/><text   transform="translate(40,10)"     style="fill:#00f">Retinoic acid</text></g><g id="d3d" class="Metabolite" transform="translate(322 137.17)"  name="Acetyl CoA" ><rect   width="89.33" height="19" style="stroke:#00f"/><text   transform="translate(44.67 9.5)"     style="fill:#00f">Acetyl CoA</text></g><g id="d4b" class="GeneProduct " transform="translate(454 373.33)"  name="CYP27B1" ><rect   width="66.67" height="20"/><text   transform="translate(33.33 10)"    >CYP27B1</text></g><g id="db3" class="GeneProduct " transform="translate(26.67 156)"  name="RARG" ><rect   width="46.67" height="20"/><text   transform="translate(23.33 10)"    >RARG</text></g><g id="e53" class="GeneProduct " transform="translate(342.67 580)"  name="NR1H3" ><rect   width="46.67" height="20"/><text   transform="translate(23.33 10)"    >NR1H3</text></g><g id="e8c" class="GeneProduct " transform="translate(648 470.67)"  name="NR1H4" ><rect   width="46.67" height="20"/><text   transform="translate(23.33 10)"    >NR1H4</text></g><g id="eb4c4" class="Metabolite " transform="translate(326,271)"  name="Lanosterol" ><rect   width="80" height="20" style="stroke:#00f"/><text   transform="translate(40,10)"     style="fill:#00f">Lanosterol</text></g><g id="ec02d" class="Metabolite " transform="translate(326,514)"  name="Oxysterol" ><rect   width="80" height="20" style="stroke:#00f"/><text   transform="translate(40,10)"     style="fill:#00f">Oxysterol</text></g><g id="ef7" class="GeneProduct " transform="translate(519.33 60)"  name="PPARD" ><rect   width="53.33" height="20"/><text   transform="translate(26.67 10)"    >PPARD</text></g><g id="ffef8" class="Metabolite " transform="translate(326,216)"  name="Isoprenoids" ><rect   width="80" height="20" style="stroke:#00f"/><text   transform="translate(40,10)"     style="fill:#00f">Isoprenoids</text></g><g id="ae15d" class="GroupGroup" transform="translate(580.6 541.89)"  ><g class="GroupGroup"><g id="b23af" class="GeneProduct " transform="translate(8,28)"  name="MIR33B" ><rect   width="80" height="20"/><text   transform="translate(40,10)"    >MIR33B</text></g><g id="bb0f2" class="GeneProduct " transform="translate(8,8)"  name="MIR33A" ><rect   width="80" height="20"/><text   transform="translate(40,10)"    >MIR33A</text></g></g></g><g id="b2195" class="GroupNone" transform="translate(717.67 97.67)"  ><g class="GroupNone"><rect   width="84.67" height="98" fill-opacity=".1" stroke-dasharray="5,3" style="fill:#b4b464;stroke:grey"/><g id="c68" class="GeneProduct " transform="translate(9,9)"  name="CYP4A11" ><rect   width="66.67" height="20"/><text   transform="translate(33.33 10)"    >CYP4A11</text></g><g id="dd3" class="GeneProduct " transform="translate(9 29)"  name="ABCB4" ><rect   width="66.67" height="20"/><text   transform="translate(33.33 10)"    >ABCB4</text></g><g id="edf" class="GeneProduct " transform="translate(9 49)"  name="ABCD2" ><rect   width="66.67" height="20"/><text   transform="translate(33.33 10)"    >ABCD2</text></g><g id="f9d" class="GeneProduct " transform="translate(9 69)"  name="ABCD3" ><rect   width="66.67" height="20"/><text   transform="translate(33.33 10)"    >ABCD3</text></g></g></g><g id="d37e1" class="GroupNone" transform="translate(737.67 441)"  ><g class="GroupNone"><rect   width="78" height="78" fill-opacity=".1" stroke-dasharray="5,3" style="fill:#b4b464;stroke:grey"/><g id="a80" class="GeneProduct " transform="translate(9,49)"  name="ABCB11" ><rect   width="60" height="20"/><text   transform="translate(30,10)"    >ABCB11</text></g><g id="ac3" class="GeneProduct " transform="translate(9,29)"  name="CYP8B1" ><rect   width="60" height="20"/><text   transform="translate(30,10)"    >CYP8B1</text></g><g id="e5c" class="GeneProduct " transform="translate(9,9)"  name="CYP7A1" ><rect   width="60" height="20"/><text   transform="translate(30,10)"    >CYP7A1</text></g></g></g><g id="e51ef" class="GroupNone" transform="translate(31,515)"  ><g class="GroupNone"><rect   width="78" height="118" fill-opacity=".1" stroke-dasharray="5,3" style="fill:#b4b464;stroke:grey"/><g id="a23" class="GeneProduct " transform="translate(9,49)"  name="ABCC2" ><rect   width="60" height="20"/><text   transform="translate(30,10)"    >ABCC2</text></g><g id="dd2" class="GeneProduct " transform="translate(9,9)"  name="CYP3A4" ><rect   width="60" height="20"/><text   transform="translate(30,10)"    >CYP3A4</text></g><g id="e71" class="GeneProduct" transform="translate(9,69)"  name="ABCB1a" ><rect   width="60" height="20"/><text   transform="translate(30,10)"    >ABCB1a</text></g><g id="fd4" class="GeneProduct " transform="translate(9,89)"  name="ABCB1" ><rect   width="60" height="20"/><text   transform="translate(30,10)"    >ABCB1</text></g><g id="fe0" class="GeneProduct " transform="translate(9,29)"  name="CYP2C9" ><rect   width="60" height="20"/><text   transform="translate(30,10)"    >CYP2C9</text></g></g></g><g id="ed18b" class="GroupNone" transform="translate(447.67 531)"  ><g class="GroupNone"><rect   width="111.33" height="118" fill-opacity=".1" stroke-dasharray="5,3" style="fill:#b4b464;stroke:grey"/><g id="acd" class="GeneProduct " transform="translate(9,69)"  name="ABCG5" ><rect   width="93.33" height="20"/><text   transform="translate(46.67 10)"    >ABCG5</text></g><g id="afd" class="GeneProduct " transform="translate(9,49)"  name="ABCG1" ><rect   width="93.33" height="20"/><text   transform="translate(46.67 10)"    >ABCG1</text></g><g id="cfb" class="GeneProduct " transform="translate(9,9)"  name="CYP7A1" ><rect   width="93.33" height="20"/><text   transform="translate(46.67 10)"    >CYP7A1</text></g><g id="d05" class="GeneProduct " transform="translate(9,29)"  name="ABCA1" ><rect   width="93.33" height="20"/><text   transform="translate(46.67 10)"    >ABCA1</text></g><g id="dd8" class="GeneProduct" transform="translate(9,89)"  name="abcg6" ><rect   width="93.33" height="20"/><text   transform="translate(46.67 10)"    >abcg6</text></g></g></g><g id="ef0bc" class="GroupNone" transform="translate(21 301)"  ><g class="GroupNone"><rect   width="71.33" height="138" fill-opacity=".1" stroke-dasharray="5,3" style="fill:#b4b464;stroke:grey"/><g id="a1e" class="GeneProduct " transform="translate(9,89)"  name="CYP3A4" ><rect   width="53.33" height="20"/><text   transform="translate(26.67 10)"    >CYP3A4</text></g><g id="aca" class="GeneProduct " transform="translate(9,9)"  name="CYP1A2" ><rect   width="53.33" height="20"/><text   transform="translate(26.67 10)"    >CYP1A2</text></g><g id="c61" class="GeneProduct " transform="translate(9,109)"  name="ABCC3" ><rect   width="53.33" height="20"/><text   transform="translate(26.67 10)"    >ABCC3</text></g><g id="c70" class="GeneProduct " transform="translate(9,29)"  name="CYP2B6" ><rect   width="53.33" height="20"/><text   transform="translate(26.67 10)"    >CYP2B6</text></g><g id="e9f" class="GeneProduct " transform="translate(9,69)"  name="CYP2E1" ><rect   width="53.33" height="20"/><text   transform="translate(26.67 10)"    >CYP2E1</text></g><g id="ec7" class="GeneProduct " transform="translate(9,49)"  name="CYP2C9" ><rect   width="53.33" height="20"/><text   transform="translate(26.67 10)"    >CYP2C9</text></g></g></g><g id="ef1ae" class="GroupNone" transform="translate(751,261)"  ><g class="GroupNone"><rect   width="84.67" height="98" fill-opacity=".1" stroke-dasharray="5,3" style="fill:#b4b464;stroke:grey"/><g id="bbc" class="GeneProduct " transform="translate(9,49)"  name="CYP2C9" ><rect   width="66.67" height="20"/><text   transform="translate(33.33 10)"    >CYP2C9</text></g><g id="bfd" class="GeneProduct " transform="translate(9,29)"  name="CYP3A4" ><rect   width="66.67" height="20"/><text   transform="translate(33.33 10)"    >CYP3A4</text></g><g id="db1" class="GeneProduct " transform="translate(9,9)"  name="CYP2B6" ><rect   width="66.67" height="20"/><text   transform="translate(33.33 10)"    >CYP2B6</text></g><g id="ddc" class="GeneProduct " transform="translate(9,69)"  name="CYP24A1" ><rect   width="66.67" height="20"/><text   transform="translate(33.33 10)"    >CYP24A1</text></g></g></g><g id="fbc12" class="GroupNone" transform="translate(274.33 41)"  ><g class="GroupNone"><rect   width="98" height="58" fill-opacity=".1" stroke-dasharray="5,3" style="fill:#b4b464;stroke:grey"/><g id="a19" class="GeneProduct " transform="translate(9,29)"  name="ABCA1" ><rect   width="80" height="20"/><text   transform="translate(40,10)"    >ABCA1</text></g><g id="dbd" class="GeneProduct " transform="translate(9,9)"  name="CYP4B1" ><rect   width="80" height="20"/><text   transform="translate(40,10)"    >CYP4B1</text></g></g></g><g id="e332b" class="GroupGroup" transform="translate(22,659)"  ><g class="GroupGroup"><g id="dcb6d" class="GeneProduct " transform="translate(8,8)"  name="MIR33A" ><rect   width="80" height="20"/><text   transform="translate(40,10)"    >MIR33A</text></g><g id="c2aac" class="GeneProduct " transform="translate(8,28)"  name="MIR33B" ><rect   width="80" height="20"/><text   transform="translate(40,10)"    >MIR33B</text></g></g></g><g id="ec829" class="GroupGroup" transform="translate(811.54 42.40)"  ><g class="GroupGroup"><g id="a2766" class="GeneProduct " transform="translate(8,8)"  name="MIR33A" ><rect   width="80" height="20"/><text   transform="translate(40,10)"    >MIR33A</text></g><g id="a6898" class="GeneProduct " transform="translate(8 28)"  name="MIR33B" ><rect   width="80" height="20"/><text   transform="translate(40,10)"    >MIR33B</text></g></g></g></g></g></g></svg>