<?xml version="1.0" encoding="UTF-8"?>
<!--
  WikiPathways page: https://www.wikipathways.org/index.php/Pathway:WP3
  URL for this compressed file: https://github.com/eweitz/cachome/tree/main/data/WP3.svg
  Source code for compression: https://github.com/eweitz/cachome/tree/main/src/wikipathways.py
-->
<svg id="wp3-svg" class="Diagram" width="800" height="600" color="black" baseProfile="full" prefix="schema:http://schema.org/" preserveAspectRatio="xMidYMid" version="1.1" viewBox="0 0 726.05 706.53" vocab="http://vocabularies.wikipathways.org/wp#" xmlns="http://www.w3.org/2000/svg" xmlns:xlink="http://www.w3.org/1999/xlink"><style>svg {font-family: 'Liberation Sans', Arial, sans-serif; }</style><defs><g id="jit-defs"><filter id="kaaviodoublefalse3filter" x="-50%" y="-50%" width="200%" height="200%"><feComposite in="SourceGraphic" in2="SourceGraphic" result="doubleDark"/><feMorphology in="doubleDark" operator="dilate" radius="0.16666666666666666" result="in2Double"/><feMorphology in="SourceGraphic" operator="dilate" radius="3" result="inDouble"/><feComposite in="inDouble" in2="in2Double" operator="out" result="doubleResult"/></filter><filter id="kaavioblackto000000filter" x="0" y="0" width="726.05" height="706.53" filterUnits="userSpaceOnUse"><feColorMatrix in="SourceGraphic" values="-1   0   0 0 0                   0  -1   0 0 0                   0   0  -1 0 0                   0   0   0 1 0"/></filter></g><g id="jic-defs"><marker id="markerEndArrow" stroke-dasharray="99999" markerHeight="12" markerUnits="userSpaceOnUse" markerWidth="12" orient="auto" preserveAspectRatio="none" refX="12" refY="6" viewBox="0 0 12 12"><path transform="rotate(180 6 6)" d="M12 11L0 6l12-5z" fill="currentColor" stroke-width="0"/></marker><marker id="markerEndMimCatalysis" stroke-dasharray="99999" markerHeight="12" markerUnits="userSpaceOnUse" markerWidth="12" orient="auto" preserveAspectRatio="none" refX="12" refY="6" viewBox="0 0 12 12"><circle transform="rotate(180 6 6)" cx="6" cy="6" r="5.3" fill="none" stroke="#000"/></marker><marker id="markerEndMimConversion" stroke-dasharray="99999" markerHeight="12" markerUnits="userSpaceOnUse" markerWidth="12" orient="auto" preserveAspectRatio="none" refX="12" refY="6" viewBox="0 0 12 12"><path transform="rotate(180 6 6)" d="M12 11L0 6l12-5z" fill="currentColor" stroke-width="0"/></marker><marker id="markerEndMimStimulation" stroke-dasharray="99999" markerHeight="12" markerUnits="userSpaceOnUse" markerWidth="12" orient="auto" preserveAspectRatio="none" refX="12" refY="6" viewBox="0 0 12 12"><g transform="rotate(180 6 6)" fill="none"><path d="m12 6"/><path d="M0 6l11 5V1z" stroke="#000"/></g></marker><marker id="markerEndMimTranscriptionTranslation" stroke-dasharray="99999" markerHeight="24" markerUnits="userSpaceOnUse" markerWidth="20" orient="auto" preserveAspectRatio="none" refX="20" refY="12" viewBox="0 0 20 24"><g transform="rotate(180 10 12)" fill="none" stroke="#000"><path d="M15 12V5M15.5 5H8M0 5l8-4v8z"/></g></marker><symbol id="Ellipse" overflow="visible" preserveAspectRatio="none" viewBox="0 0 50 50"><ellipse cx="25" cy="25" rx="25" ry="25" stroke="currentColor" vector-effect="non-scaling-stroke"/></symbol><symbol id="Octagon" overflow="visible" preserveAspectRatio="none" viewBox="0 0 100 100"><path d="M0 25L25 0h50l25 25v50l-25 25H25L0 75z" stroke="currentColor" vector-effect="non-scaling-stroke"/></symbol><symbol id="none" preserveAspectRatio="none" viewBox="0 0 100 100"/></g></defs><g id="WP3" class="Viewport" color="black"  name="Name: Transcriptional activation by NRF2 in response to phytochemicals License: CC BY 2.0 Last Modified: 5/16/2012 Organism: Homo sapiens"><rect id="WP3-icon" class="Icon" width="726.05" height="706.53" fill="#fff" stroke="#000" stroke-width="0"/><g id="id14c2c6c1" class="Interaction" color="#000" ><g color="#000" fill="transparent"  filter="url(#kaavioblackto000000filter)" stroke="#000" stroke-dasharray="129.20841049712166, 5.8"><path id="id14c2c6c1" class="EdgeBody" d="m473.92 157.27-135.01-0.45802"   marker-end="url(#markerEndMimConversion)" /></g><g id="b9ef5" class="Burr Anchor" transform="translate(419.91 157.08)" ><use id="b9ef5-icon" class="Icon" width="0" height="0" fill="#141414" stroke-width="0" xlink:href="#none"/></g></g><g id="id7b573b82" class="Interaction" color="#000" ><g color="#000" fill="transparent"  filter="url(#kaavioblackto000000filter)" stroke="#000" stroke-dasharray="62.28862950078464, 5.8"><path id="id7b573b82" class="EdgeBody" d="m234.91 156.81-68.088 0.16794"   marker-end="url(#markerEndMimConversion)" /></g></g><g id="iddbb87dcb" class="DirectedInteraction" color="#000" ><g color="#000" fill="transparent"  filter="url(#kaavioblackto000000filter)" stroke="#000" stroke-dasharray="109.60458015267189, 5.8"><path id="iddbb87dcb" class="EdgeBody" d="m286.91 188.85 1.64e-12 115.4"   marker-end="url(#markerEndArrow)" /></g><g id="cfadf" class="Burr Anchor" transform="translate(286.91 241.41)" ><use id="cfadf-icon" class="Icon" width="0" height="0" fill="#141414" stroke-width="0" xlink:href="#none"/></g></g><g id="dc948" class="DirectedInteraction" color="#000" ><g color="#000" fill="transparent"  filter="url(#kaavioblackto000000filter)" stroke="#000" stroke-dasharray="66.06273418089295, 5.8"><path id="dc948" class="EdgeBody" d="m358.77 241.55-71.863-0.14122"   marker-end="url(#markerEndArrow)" /></g></g><g id="id27fc892c" class="Interaction" color="#000" ><g color="#000" fill="transparent"  filter="url(#kaavioblackto000000filter)" stroke="#000" stroke-dasharray="20.59629166566018, 11"><path id="id27fc892c" class="EdgeBody" d="m419.38 125.49 0.53603 31.592"   marker-end="url(#markerEndMimCatalysis)" /></g></g><g id="idb1485347" class="Interaction" color="#000" ><g color="#000" fill="transparent"  filter="url(#kaavioblackto000000filter)" stroke="#000" stroke-dasharray="47.67808433269426, 11"><path id="idb1485347" class="EdgeBody" d="m414 539.38 58.675 0.63451"   marker-end="url(#markerEndMimTranscriptionTranslation)" /></g></g><g id="f0473" class="Interaction" color="#000" ><g color="#000" fill="transparent"  filter="url(#kaavioblackto000000filter)" stroke="#000" stroke-dasharray="55.726914311482645, 11"><path id="f0473" class="EdgeBody" d="m353.4 376.39-66.727-0.088915"   marker-end="url(#markerEndMimStimulation)" /></g></g><g id="bd859" class="DirectedInteraction" color="#000" ><g color="#000" fill="transparent"  filter="url(#kaavioblackto000000filter)" stroke="#000" stroke-dasharray="5.11, 3.07, 5.11, 3.07, 5.11, 3.07, 5.11, 3.07, 5.11, 3.07, 5.11, 3.07, 5.11, 3.07, 5.11, 3.07, 5.11, 3.07, 5.11, 3.07, 5.11, 3.07, 5.11, 3.07, 5.11, 3.07, 5.11, 3.07, 5.11, 3.07, 5.11, 3.07, 5.11, 5.8"><path id="bd859" class="EdgeBody" d="m198.89 387.8-0.82118 141.74"   marker-end="url(#markerEndArrow)" /></g></g><g id="bcfe7" class="DirectedInteraction" color="#000" ><g color="#000" fill="transparent"  filter="url(#kaavioblackto000000filter)" stroke="#000" stroke-dasharray="5.06, 3.03, 5.06, 3.03, 5.06, 3.03, 5.06, 3.03, 5.06, 3.03, 5.06, 3.03, 5.06, 3.03, 5.06, 3.03, 5.06, 3.03, 5.06, 3.03, 5.06, 3.03, 5.06, 3.03, 5.06, 3.03, 5.06, 3.03, 5.06, 3.03, 5.06, 3.03, 5.06, 3.03, 5.06, 3.03, 5.06, 3.03, 5.06, 3.03, 5.06, 3.03, 5.06, 3.03, 5.06, 3.03, 5.06, 3.03, 5.06, 5.8"><path id="bcfe7" class="EdgeBody" d="m286.91 324.25-0.9084 204.97"   marker-end="url(#markerEndArrow)" /></g><g id="f1d61" class="Burr Anchor" transform="translate(286.68 376.3)" ><use id="f1d61-icon" class="Icon" width="0" height="0" fill="#141414" stroke-width="0" xlink:href="#none"/></g></g><g id="bff9c" class="DirectedInteraction" color="#000" ><g color="#000" fill="transparent"  filter="url(#kaavioblackto000000filter)" stroke="#000" stroke-dasharray="89.73364433135335, 5.8"><path id="bff9c" class="EdgeBody" d="m198.89 272.27v95.534"   marker-end="url(#markerEndArrow)" /></g></g><g id="dabd5" class="SingleFreeNode Shape" transform="translate(55.239 411.67)" color="#c0c0c0" ><g fill="transparent"  filter="url(#kaaviodoublefalse3filter)" stroke="#c0c0c0" stroke-width="3"><use id="dabd5-icon" class="Icon" transform="matrix(.98166 0 0 .95689 5.89 5.7413)" width="642.3129770992366" height="266.3587786259543"    xlink:href="#Ellipse"/></g></g><g id="dafdb" class="GroupGroup" transform="translate(472.67 461.49)" color="grey" ><use id="dafdb-icon" class="Icon" width="132" height="157.0458015267173" fill="transparent"  stroke="grey" stroke-dasharray="5,3" stroke-width="0" xlink:href="#none"/><g id="edfb9" class="Label" transform="translate(8,8)" color="#000"  name="Phase II enzymes"><use id="edfb9-icon" class="Icon" width="116" height="20" fill="transparent"  stroke="#000" stroke-width="0" xlink:href="#none"/><text id="edfb9-text" class="Text" transform="translate(58,13)" fill="#000"  font-size="10px" font-weight="bold" stroke="white" stroke-width="0" text-anchor="middle"><tspan x="0" y="0">Phase II enzymes</tspan></text></g><a  id="cecad" class="GeneProduct GCLC " transform="translate(24 69.046)"   name="GCLC"  ><rect id="cecad-icon" class="Icon" transform="matrix(.98765 0 0 .95238 .49383 .47619)" width="80" height="20" fill="#fff" stroke="#000"/><text id="cecad-text" class="Text" transform="translate(40,13)" fill="#000"  font-size="10px" stroke="white" stroke-width="0" text-anchor="middle"><tspan x="0" y="0">GCLC</tspan></text></a><a  id="d4c77" class="GeneProduct HMOX1 " transform="translate(24 109.05)"   name="HO-1"  ><rect id="d4c77-icon" class="Icon" transform="matrix(.98765 0 0 .95238 .49383 .47619)" width="80" height="20" fill="#fff" stroke="#000"/><text id="d4c77-text" class="Text" transform="translate(40,13)" fill="#000"  font-size="10px" stroke="white" stroke-width="0" text-anchor="middle"><tspan x="0" y="0">HO-1</tspan></text></a><a  id="a1b6d" class="GeneProduct SLC7A11 " transform="translate(24 129.05)"   name="SLC7A11"  ><rect id="a1b6d-icon" class="Icon" transform="matrix(.98765 0 0 .95238 .49383 .47619)" width="80" height="20" fill="#fff" stroke="#000"/><text id="a1b6d-text" class="Text" transform="translate(40,13)" fill="#000"  font-size="10px" stroke="white" stroke-width="0" text-anchor="middle"><tspan x="0" y="0">SLC7A11</tspan></text></a><a  id="f553c" class="GeneProduct NQO1 " transform="translate(24 49.046)"   name="NQO1"  ><rect id="f553c-icon" class="Icon" transform="matrix(.98765 0 0 .95238 .49383 .47619)" width="80" height="20" fill="#fff" stroke="#000"/><text id="f553c-text" class="Text" transform="translate(40,13)" fill="#000"  font-size="10px" stroke="white" stroke-width="0" text-anchor="middle"><tspan x="0" y="0">NQO1</tspan></text></a><a  id="dfa5a" class="GeneProduct GSTA2 " transform="translate(24.103 29.046)"   name="GSTA2"  ><rect id="dfa5a-icon" class="Icon" transform="matrix(.98765 0 0 .95238 .49383 .47619)" width="80" height="20" fill="#fff" stroke="#000"/><text id="dfa5a-text" class="Text" transform="translate(40,13)" fill="#000"  font-size="10px" stroke="white" stroke-width="0" text-anchor="middle"><tspan x="0" y="0">GSTA2</tspan></text></a><a  id="f5ed1" class="GeneProduct GCLM " transform="translate(24 89.046)"   name="GCLM"  ><rect id="f5ed1-icon" class="Icon" transform="matrix(.98765 0 0 .95238 .49383 .47619)" width="80" height="20" fill="#fff" stroke="#000"/><text id="f5ed1-text" class="Text" transform="translate(40,13)" fill="#000"  font-size="10px" stroke="white" stroke-width="0" text-anchor="middle"><tspan x="0" y="0">GCLM</tspan></text></a></g><g id="caf0a" class="Label" transform="translate(339.48 426.09)" color="#666666"  name="Nucleus"><use id="caf0a-icon" class="Icon" width="80" height="20" fill="transparent"  stroke="#666666" stroke-width="0" xlink:href="#none"/><text id="caf0a-text" class="Text" transform="translate(40,14)" fill="#666666" font-family="Dialog" font-size="14px" font-style="italic" font-weight="bold" stroke="white" stroke-width="0" text-anchor="middle"><tspan x="0" y="0">Nucleus</tspan></text></g><g id="d3065" class="GroupGroup" transform="translate(371.38 14.111)" color="grey" ><use id="d3065-icon" class="Icon" width="96.00000000000023" height="111.3816793893128" fill="transparent"  stroke="grey" stroke-dasharray="5,3" stroke-width="0" xlink:href="#none"/><a  id="dbe12" class="GeneProduct EPHB2 " transform="translate(8 33.763)"   name="ERK"  ><rect id="dbe12-icon" class="Icon" transform="matrix(.98765 0 0 .95238 .49383 .47619)" width="80" height="20" fill="#fff" stroke="#000"/><text id="dbe12-text" class="Text" transform="translate(40,13)" fill="#000"  font-size="10px" stroke="white" stroke-width="0" text-anchor="middle"><tspan x="0" y="0">ERK</tspan></text></a><a  id="a859f" class="GeneProduct MAPK8 " transform="translate(8 58.573)"   name="JNK"  ><rect id="a859f-icon" class="Icon" transform="matrix(.98765 0 0 .95238 .49383 .47619)" width="80" height="20" fill="#fff" stroke="#000"/><text id="a859f-text" class="Text" transform="translate(40,13)" fill="#000"  font-size="10px" stroke="white" stroke-width="0" text-anchor="middle"><tspan x="0" y="0">JNK</tspan></text></a><a  id="b06bd" class="GeneProduct AIMP2 " transform="translate(8 8)"   name="P38"  ><rect id="b06bd-icon" class="Icon" transform="matrix(.98765 0 0 .95238 .49383 .47619)" width="80" height="20" fill="#fff" stroke="#000"/><text id="b06bd-text" class="Text" transform="translate(40,13)" fill="#000"  font-size="10px" stroke="white" stroke-width="0" text-anchor="middle"><tspan x="0" y="0">P38</tspan></text></a><a  id="a62fe" class="GeneProduct PRKCA " transform="translate(8 83.382)"   name="PKC"  ><rect id="a62fe-icon" class="Icon" transform="matrix(.98765 0 0 .95238 .49383 .47619)" width="80" height="20" fill="#fff" stroke="#000"/><text id="a62fe-text" class="Text" transform="translate(40,13)" fill="#000"  font-size="10px" stroke="white" stroke-width="0" text-anchor="middle"><tspan x="0" y="0">PKC</tspan></text></a></g><g id="df624" class="GroupNone" transform="translate(149.07 520.22)" color="grey" ><rect id="df624-icon" class="Icon" transform="matrix(.99625 0 0 .97457 .49813 .48728)" width="265.93" height="38.321" fill="#b4b464" fill-opacity=".1" stroke="grey" stroke-dasharray="5,3"/><a  id="b3620" class="GeneProduct CEBPB " transform="translate(9 9.3206)"   name="C/EBP-beta"  ><rect id="b3620-icon" class="Icon" transform="matrix(.98765 0 0 .95238 .49383 .47619)" width="80" height="20" fill="#fff" stroke="#000"/><text id="b3620-text" class="Text" transform="translate(40,13)" fill="#000"  font-size="10px" stroke="white" stroke-width="0" text-anchor="middle"><tspan x="0" y="0">C/EBP-beta</tspan></text></a><a  id="d79c3" class="GeneProduct MAF " transform="translate(176.93 9)"   name="MAF"  ><rect id="d79c3-icon" class="Icon" transform="matrix(.98765 0 0 .95238 .49383 .47619)" width="80" height="20" fill="#fff" stroke="#000"/><text id="d79c3-text" class="Text" transform="translate(40,13)" fill="#000"  font-size="10px" stroke="white" stroke-width="0" text-anchor="middle"><tspan x="0" y="0">MAF</tspan></text></a><a  id="b68db" class="GeneProduct NFE2L2 " transform="translate(96.931 9)"   name="NRF2"  ><rect id="b68db-icon" class="Icon" transform="matrix(.98765 0 0 .95238 .49383 .47619)" width="80" height="20" fill="#fff" stroke="#000"/><g id="aa2c5" class="Burr State" transform="translate(64.5,12.5)" color="#000"  name="P"><use id="aa2c5-icon" class="Icon" transform="matrix(.9375 0 0 .9375 .46875 .46875)" width="15" height="15" fill="#fff" stroke="#000" xlink:href="#Ellipse"/><text id="aa2c5-text" class="Text" transform="translate(7.5,10.5)" fill="#000"  font-size="10px" stroke="white" stroke-width="0" text-anchor="middle"><tspan x="0" y="0">P</tspan></text></g><g id="c8125" class="Burr State" transform="translate(48.21 12.5)" color="#000"  name="P"><use id="c8125-icon" class="Icon" transform="matrix(.9375 0 0 .9375 .46875 .46875)" width="15" height="15" fill="#fff" stroke="#000" xlink:href="#Ellipse"/><text id="c8125-text" class="Text" transform="translate(7.5,10.5)" fill="#000"  font-size="10px" stroke="white" stroke-width="0" text-anchor="middle"><tspan x="0" y="0">P</tspan></text></g><text id="b68db-text" class="Text" transform="translate(40,13)" fill="#000"  font-size="10px" stroke="white" stroke-width="0" text-anchor="middle"><tspan x="0" y="0">NRF2</tspan></text></a></g><a  id="dea4c" class="GeneProduct PIK3CA " transform="translate(158.89 252.27)"   name="PI3K"  ><rect id="dea4c-icon" class="Icon" transform="matrix(.98765 0 0 .95238 .49383 .47619)" width="80" height="20" fill="#fff" stroke="#000"/><text id="dea4c-text" class="Text" transform="translate(40,13)" fill="#000"  font-size="10px" stroke="white" stroke-width="0" text-anchor="middle"><tspan x="0" y="0">PI3K</tspan></text></a><g id="f8512" class="GroupComplex" transform="translate(234.91 124.77)" color="grey" ><use id="f8512-icon" class="Icon" transform="matrix(.99048 0 0 .98463 .49524 .49232)" width="104.0000000000033" height="64.07633587786273" fill="#b4b464" fill-opacity=".1" stroke="grey" xlink:href="#Octagon"/><a  id="d3b16" class="GeneProduct NFE2L2 " transform="translate(12 32.076)"   name="NRF2"  ><rect id="d3b16-icon" class="Icon" transform="matrix(.98765 0 0 .95238 .49383 .47619)" width="80" height="20" fill="#fff" stroke="#000"/><g id="e02c4" class="Burr State" transform="translate(65.744 12.5)" color="#000"  name="P"><use id="e02c4-icon" class="Icon" transform="matrix(.9375 0 0 .9375 .46875 .46875)" width="15" height="15" fill="#fff" stroke="#000" xlink:href="#Ellipse"/><text id="e02c4-text" class="Text" transform="translate(7.5,10.5)" fill="#000"  font-size="10px" stroke="white" stroke-width="0" text-anchor="middle"><tspan x="0" y="0">P</tspan></text></g><g id="ec84a" class="Burr State" transform="translate(49.363 12.5)" color="#000"  name="P"><use id="ec84a-icon" class="Icon" transform="matrix(.9375 0 0 .9375 .46875 .46875)" width="15" height="15" fill="#fff" stroke="#000" xlink:href="#Ellipse"/><text id="ec84a-text" class="Text" transform="translate(7.5,10.5)" fill="#000"  font-size="10px" stroke="white" stroke-width="0" text-anchor="middle"><tspan x="0" y="0">P</tspan></text></g><text id="d3b16-text" class="Text" transform="translate(40,13)" fill="#000"  font-size="10px" stroke="white" stroke-width="0" text-anchor="middle"><tspan x="0" y="0">NRF2</tspan></text></a><a  id="d61e1" class="GeneProduct KEAP1 " transform="translate(12,12)"   name="KEAP1"  ><rect id="d61e1-icon" class="Icon" transform="matrix(.98765 0 0 .95238 .49383 .47619)" width="80" height="20" fill="#fff" stroke="#000"/><text id="d61e1-text" class="Text" transform="translate(40 13)" fill="#000"  font-size="10px" stroke="white" stroke-width="0" text-anchor="middle"><tspan x="0" y="0">KEAP1</tspan></text></a></g><g id="dabcf" class="GroupGroup" transform="translate(358.77 196.07)" color="grey" ><use id="dabcf-icon" class="Icon" width="152.53435114503424" height="90.96946564885548" fill="transparent"  stroke="grey" stroke-dasharray="5,3" stroke-width="0" xlink:href="#none"/><a id="ff3f4" class="Metabolite ChEBI_CHEBI_3962  " transform="translate(8,8)" color="#00f"  name="Curcumin"  ><rect id="ff3f4-icon" class="Icon" transform="matrix(.98765 0 0 .95238 .49383 .47619)" width="80" height="20" fill="#fff" stroke="#00f"/><text id="ff3f4-text" class="Text" transform="translate(40,13)" fill="#00f"  font-size="10px" stroke="white" stroke-width="0" text-anchor="middle"><tspan x="0" y="0">Curcumin</tspan></text></a><a id="d739f" class="ChEBI_CHEBI_8062 Metabolite  " transform="translate(8.5115 35.74)" color="#00f"  name="Caffeic acid phenethyl ester"  ><rect id="d739f-icon" class="Icon" transform="matrix(.9927 0 0 .95238 .49635 .47619)" width="136.02" height="20" fill="#fff" stroke="#00f"/><text id="d739f-text" class="Text" transform="translate(68.011 13)" fill="#00f"  font-size="10px" stroke="white" stroke-width="0" text-anchor="middle"><tspan x="0" y="0">Caffeic acid phenethyl ester</tspan></text></a><a id="b03a0" class="Metabolite ChEBI_CHEBI_47807  " transform="translate(8.5115 62.969)" color="#00f"  name="Sulforaphane"  ><rect id="b03a0-icon" class="Icon" transform="matrix(.98765 0 0 .95238 .49383 .47619)" width="80" height="20" fill="#fff" stroke="#00f"/><text id="b03a0-text" class="Text" transform="translate(40,13)" fill="#00f"  font-size="10px" stroke="white" stroke-width="0" text-anchor="middle"><tspan x="0" y="0">Sulforaphane</tspan></text></a></g><a  id="be345" class="GeneProduct KEAP1 " transform="translate(108.35 146.98)"   name="KEAP1"  ><rect id="be345-icon" class="Icon" transform="matrix(.98319 0 0 .95238 .49159 .47619)" width="58.473" height="20" fill="#fff" stroke="#000"/><text id="be345-text" class="Text" transform="translate(29.237 13)" fill="#000"  font-size="10px" stroke="white" stroke-width="0" text-anchor="middle"><tspan x="0" y="0">KEAP1</tspan></text></a><a  id="c9ebb" class="GeneProduct CEBPB " transform="translate(158.89 367.8)"   name="C/EBP-beta"  ><rect id="c9ebb-icon" class="Icon" transform="matrix(.98765 0 0 .95238 .49383 .47619)" width="80" height="20" fill="#fff" stroke="#000"/><text id="c9ebb-text" class="Text" transform="translate(40,13)" fill="#000"  font-size="10px" stroke="white" stroke-width="0" text-anchor="middle"><tspan x="0" y="0">C/EBP-beta</tspan></text></a><a id="b366d" class="Chemspider_7991398 Metabolite ChEBI_CHEBI_138799  " transform="translate(353.4 366.39)" color="#00f"  name="6-HITC"  ><rect id="b366d-icon" class="Icon" transform="matrix(.98765 0 0 .95238 .49383 .47619)" width="80" height="20" fill="#fff" stroke="#00f"/><text id="b366d-text" class="Text" transform="translate(40,13)" fill="#00f"  font-size="10px" stroke="white" stroke-width="0" text-anchor="middle"><tspan x="0" y="0">6-HITC</tspan></text></a><g id="c915f" class="GroupComplex" transform="translate(473.92 125.23)" color="grey" ><use id="c915f-icon" class="Icon" transform="matrix(.99048 0 0 .98463 .49524 .49232)" width="104.0000000000025" height="64.07633587786316" fill="#b4b464" fill-opacity=".1" stroke="grey" xlink:href="#Octagon"/><a  id="b5bb9" class="GeneProduct NFE2L2 " transform="translate(12 32.076)"   name="NRF2"  ><rect id="b5bb9-icon" class="Icon" transform="matrix(.98765 0 0 .95238 .49383 .47619)" width="80" height="20" fill="#fff" stroke="#000"/><text id="b5bb9-text" class="Text" transform="translate(40,13)" fill="#000"  font-size="10px" stroke="white" stroke-width="0" text-anchor="middle"><tspan x="0" y="0">NRF2</tspan></text></a><a  id="e3f69" class="GeneProduct KEAP1 " transform="translate(12,12)"   name="KEAP1"  ><rect id="e3f69-icon" class="Icon" transform="matrix(.98765 0 0 .95238 .49383 .47619)" width="80" height="20" fill="#fff" stroke="#000"/><text id="e3f69-text" class="Text" transform="translate(40 13)" fill="#000"  font-size="10px" stroke="white" stroke-width="0" text-anchor="middle"><tspan x="0" y="0">KEAP1</tspan></text></a></g><a  id="b2519" class="GeneProduct NFE2L2 " transform="translate(246.91 304.25)"   name="NRF2"  ><rect id="b2519-icon" class="Icon" transform="matrix(.98765 0 0 .95238 .49383 .47619)" width="80" height="20" fill="#fff" stroke="#000"/><g id="b9fd6" class="Burr State" transform="translate(65.5,12.5)" color="#000"  name="P"><use id="b9fd6-icon" class="Icon" transform="matrix(.9375 0 0 .9375 .46875 .46875)" width="15" height="15" fill="#fff" stroke="#000" xlink:href="#Ellipse"/><text id="b9fd6-text" class="Text" transform="translate(7.5,10.5)" fill="#000"  font-size="10px" stroke="white" stroke-width="0" text-anchor="middle"><tspan x="0" y="0">P</tspan></text></g><g id="dc608" class="Burr State" transform="translate(49.256 12.5)" color="#000"  name="P"><use id="dc608-icon" class="Icon" transform="matrix(.9375 0 0 .9375 .46875 .46875)" width="15" height="15" fill="#fff" stroke="#000" xlink:href="#Ellipse"/><text id="dc608-text" class="Text" transform="translate(7.5,10.5)" fill="#000"  font-size="10px" stroke="white" stroke-width="0" text-anchor="middle"><tspan x="0" y="0">P</tspan></text></g><text id="b2519-text" class="Text" transform="translate(40,13)" fill="#000"  font-size="10px" stroke="white" stroke-width="0" text-anchor="middle"><tspan x="0" y="0">NRF2</tspan></text></a><text id="WP3-text" class="Text" transform="translate(5,45)" dominant-baseline="central" fill="black"  font-size="12px" font-weight="bold" overflow="visible" stroke="white" stroke-width="0"><tspan x="0" y="-27">Name: Transcriptional activation by NRF2 in response to phytochemicals</tspan> <tspan x="0" y="-9">License: CC BY 2.0</tspan> <tspan x="0" y="9">Last Modified: 5/16/2012</tspan> <tspan x="0" y="27">Organism: Homo sapiens</tspan></text></g></svg>
