<?xml version="1.0" encoding="UTF-8"?>
<!--
  WikiPathways page: https://www.wikipathways.org/index.php/Pathway:WP317
  URL for this compressed file: https://github.com/eweitz/cachome/tree/main/data/WP317.svg
  Source code for compression: https://github.com/eweitz/cachome/tree/main/src/wikipathways.py
-->
<svg id="wp317-svg" class="Diagram" width="800" height="600" color="black" baseProfile="full" prefix="schema:http://schema.org/" preserveAspectRatio="xMidYMid" version="1.1" viewBox="0 0 974.53 844.67" vocab="http://vocabularies.wikipathways.org/wp#" xmlns="http://www.w3.org/2000/svg" xmlns:xlink="http://www.w3.org/1999/xlink"><style>svg {font-family: 'Liberation Sans', Arial, sans-serif; }</style><defs><g id="jit-defs"><filter id="kaavioblackto000000filter" x="0" y="0" width="974.53" height="844.67" filterUnits="userSpaceOnUse"><feColorMatrix in="SourceGraphic" values="-1   0   0 0 0                   0  -1   0 0 0                   0   0  -1 0 0                   0   0   0 1 0"/></filter></g><g id="jic-defs"><marker id="markerEndArrow" stroke-dasharray="99999" markerHeight="12" markerUnits="userSpaceOnUse" markerWidth="12" orient="auto" preserveAspectRatio="none" refX="12" refY="6" viewBox="0 0 12 12"><path transform="rotate(180 6 6)" d="M12 11L0 6l12-5z" fill="currentColor" stroke-width="0"/></marker><marker id="markerEndTBar" stroke-dasharray="99999" markerHeight="20" markerUnits="userSpaceOnUse" markerWidth="10" orient="auto" preserveAspectRatio="none" refX="10" refY="10" viewBox="0 0 10 20"><path d="m3 0v20" fill="currentColor" stroke="currentColor"/></marker><symbol id="none" preserveAspectRatio="none" viewBox="0 0 100 100"/></g></defs><g id="WP317" class="Viewport" color="black"  name="Name: Glycogen metabolism Organism: Mus musculus"><rect id="WP317-icon" class="Icon" width="974.53" height="844.67" fill="#fff" stroke="#000" stroke-width="0"/><g id="ac3e7" class="DirectedInteraction" color="#000" ><g color="#000" fill="transparent"  filter="url(#kaavioblackto000000filter)" stroke="#000" stroke-dasharray="258.8666666666666, 5.8"><path id="ac3e7" class="EdgeBody" d="m70 433.83v-109.17h155.5"   marker-end="url(#markerEndArrow)" /></g></g><g id="ad0d8" class="DirectedInteraction" color="#000" ><g color="#000" fill="transparent"  filter="url(#kaavioblackto000000filter)" stroke="#000" stroke-dasharray="98.0398874335976, 5.8"><path id="ad0d8" class="EdgeBody" d="m264.67 334.17-1.1667 103.83"   marker-end="url(#markerEndArrow)" /></g><g id="c16c9" class="Burr Anchor" transform="translate(264.2 375.7)" ><use id="c16c9-icon" class="Icon" width="0" height="0" fill="#141414" stroke-width="0" xlink:href="#none"/></g></g><g id="aefe3" class="DirectedInteraction" color="#000" ><g color="#000" fill="transparent"  filter="url(#kaavioblackto000000filter)" stroke="#000" stroke-dasharray="5.67, 3.4, 5.67, 3.4, 5.67, 3.4, 5.67, 3.4, 5.67, 3.4, 5.67, 5.8"><path id="aefe3" class="EdgeBody" d="m263.67 537.17 1.696 56.8"   marker-end="url(#markerEndArrow)" /></g></g><g id="df54d" class="DirectedInteraction" color="#000" ><g color="#000" fill="transparent"  filter="url(#kaavioblackto000000filter)" stroke="#000" stroke-dasharray="59.540985946375514, 5.8"><path id="df54d" class="EdgeBody" d="m70 452.83 1 65.333"   marker-end="url(#markerEndArrow)" /></g><g id="eae25" class="Burr Anchor" transform="translate(70.4 478.97)" ><use id="eae25-icon" class="Icon" width="0" height="0" fill="#141414" stroke-width="0" xlink:href="#none"/></g></g><g id="a6108" class="DirectedInteraction" color="#000" ><g color="#000" fill="transparent"  filter="url(#kaavioblackto000000filter)" stroke="#000" stroke-dasharray="5.183067776253464, 5.8"><path id="a6108" class="EdgeBody" d="m71 468-0.6 10.967"   marker-end="url(#markerEndArrow)" /></g></g><g id="e23ab" class="DirectedInteraction" color="#000" ><g color="#000" fill="transparent"  filter="url(#kaavioblackto000000filter)" stroke="#000" stroke-dasharray="54.366897506482346, 5.8"><path id="e23ab" class="EdgeBody" d="m263.5 458 0.16667 60.167"   marker-end="url(#markerEndArrow)" /></g><g id="aacbf" class="Burr Anchor" transform="translate(263.57 482.07)" ><use id="aacbf-icon" class="Icon" width="0" height="0" fill="#141414" stroke-width="0" xlink:href="#none"/></g></g><g id="edecf" class="DirectedInteraction" color="#000" ><g color="#000" fill="transparent"  filter="url(#kaavioblackto000000filter)" stroke="#000" stroke-dasharray="75.3673511264775, 5.8"><path id="edecf" class="EdgeBody" d="m707.67 231.83 0.33333 81.167"   marker-end="url(#markerEndArrow)" /></g><g id="ecec7" class="Burr Anchor" transform="translate(707.8,264.3)" ><use id="ecec7-icon" class="Icon" width="0" height="0" fill="#141414" stroke-width="0" xlink:href="#none"/></g></g><g id="f0d39" class="DirectedInteraction" color="#000" ><g color="#000" fill="transparent"  filter="url(#kaavioblackto000000filter)" stroke="#000" stroke-dasharray="4.32658766701685, 5.8"><path id="f0d39" class="EdgeBody" d="m264.67 472-1.1 10.067"   marker-end="url(#markerEndArrow)" /></g></g><g id="f18c0" class="DirectedInteraction" color="#000" ><g color="#000" fill="transparent"  filter="url(#kaavioblackto000000filter)" stroke="#000" stroke-dasharray="50.86666666666669, 5.8"><path id="f18c0" class="EdgeBody" d="m768.53 452.83 3e-13 56.667"   marker-end="url(#markerEndArrow)" /></g><g id="e0566" class="Burr Anchor" transform="translate(768.53 475.5)" ><use id="e0566-icon" class="Icon" width="0" height="0" fill="#141414" stroke-width="0" xlink:href="#none"/></g></g><g id="ce91c" class="DirectedInteraction" color="#000" ><g color="#000" fill="transparent"  filter="url(#kaavioblackto000000filter)" stroke="#000" stroke-dasharray="2.0333333333333146, 5.8"><path id="ce91c" class="EdgeBody" d="m768.53 467.67v7.8333"   marker-end="url(#markerEndArrow)" /></g></g><g id="f6c92" class="DirectedInteraction" color="#000" ><g color="#000" fill="transparent"  filter="url(#kaavioblackto000000filter)" stroke="#000" stroke-dasharray="5.05, 3.03, 5.05, 3.03, 5.05, 3.03, 5.05, 3.03, 5.05, 3.03, 5.05, 3.03, 5.05, 3.03, 5.05, 3.03, 5.05, 3.03, 5.05, 3.03, 5.05, 3.03, 5.05, 3.03, 5.05, 3.03, 5.05, 3.03, 5.05, 3.03, 5.05, 3.03, 5.05, 3.03, 5.05, 3.03, 5.05, 3.03, 5.05, 3.03, 5.05, 5.8"><path id="f6c92" class="EdgeBody" d="m71 537.17 156.96 71.279"   marker-end="url(#markerEndArrow)" /></g></g><g id="a05ad" class="DirectedInteraction" color="#000" ><g color="#000" fill="transparent"  filter="url(#kaavioblackto000000filter)" stroke="#000" stroke-dasharray="21.905133900496615, 5.8"><path id="a05ad" class="EdgeBody" d="m263.67 348 0.53333 27.7"   marker-end="url(#markerEndArrow)" /></g></g><g id="fd5b6" class="DirectedInteraction" color="#000" ><g color="#000" fill="transparent"  filter="url(#kaavioblackto000000filter)" stroke="#000" stroke-dasharray="17.50038149425409, 5.8"><path id="fd5b6" class="EdgeBody" d="m707.67 241 0.13333 23.3"   marker-end="url(#markerEndArrow)" /></g></g><g id="b1243" class="DirectedInteraction" color="#000" ><g color="#000" fill="transparent"  filter="url(#kaavioblackto000000filter)" stroke="#000" stroke-dasharray="21.732921810699462, 5.8"><path id="b1243" class="EdgeBody" d="m768.53 406.3-1e-13 27.533"   marker-end="url(#markerEndArrow)" /></g><g id="a14cb" class="Burr Anchor" transform="translate(768.53 407.13)" ><use id="a14cb-icon" class="Icon" width="0" height="0" fill="#141414" stroke-width="0" xlink:href="#none"/></g></g><g id="d9f67" class="Interaction" color="#000" ><g color="#000" fill="transparent"  filter="url(#kaavioblackto000000filter)" stroke="#000" stroke-dasharray="47.831275720164, 0"><path id="d9f67" class="EdgeBody" d="m748 323h20.531v27.3"   /></g></g><g id="daf36" class="DirectedInteraction" color="#000" ><g color="#000" fill="transparent"  filter="url(#kaavioblackto000000filter)" stroke="#000" stroke-dasharray="41.30288065843702, 5.8"><path id="daf36" class="EdgeBody" d="m788.67 323.33h-20.136v26.967"   marker-end="url(#markerEndArrow)" /></g></g><g id="e4a06" class="Inhibition" color="#000" ><g color="#000" fill="transparent"  filter="url(#kaavioblackto000000filter)" stroke="#000" stroke-dasharray="62.99588477366228, 7"><path id="e4a06" class="EdgeBody" d="m876.53 378.3h-69.996"   marker-end="url(#markerEndTBar)" /></g></g><g id="c5d4a" class="DirectedInteraction" color="#000" ><g color="#000" fill="transparent"  filter="url(#kaavioblackto000000filter)" stroke="#000" stroke-dasharray="226.50041283486306, 5.8"><path id="c5d4a" class="EdgeBody" d="m528.33 506.67 202.2-114.37"   marker-end="url(#markerEndArrow)" /></g></g><g id="d1916" class="Inhibition" color="#000" ><g color="#000" fill="transparent"  filter="url(#kaavioblackto000000filter)" stroke="#000" stroke-dasharray="204.3872171053764, 7"><path id="d1916" class="EdgeBody" d="m487 506.67-185.33-101.67"   marker-end="url(#markerEndTBar)" /></g></g><g id="c38a8" class="DirectedInteraction" color="#000" ><g color="#000" fill="transparent"  filter="url(#kaavioblackto000000filter)" stroke="#000" stroke-dasharray="5.71, 3.43, 5.71, 3.43, 5.71, 3.43, 5.71, 3.43, 5.71, 3.43, 5.71, 3.43, 5.71, 5.8"><path id="c38a8" class="EdgeBody" d="m503 63 0.66667 66.333"   marker-end="url(#markerEndArrow)" /></g></g><g id="c774d" class="DirectedInteraction" color="#000" ><g color="#000" fill="transparent"  filter="url(#kaavioblackto000000filter)" stroke="#000" stroke-dasharray="194.19027754146234, 5.8"><path id="c774d" class="EdgeBody" d="m484.67 305.33-183 80.667"   marker-end="url(#markerEndArrow)" /></g></g><g id="cf30f" class="Inhibition" color="#000" ><g color="#000" fill="transparent"  filter="url(#kaavioblackto000000filter)" stroke="#000" stroke-dasharray="213.29915822497665, 7"><path id="cf30f" class="EdgeBody" d="m522.67 305.33 207.86 72.967"   marker-end="url(#markerEndTBar)" /></g></g><g id="a8f" class="Label" transform="translate(419.83 108.5)" color="#000"  name="Phosphorylase Kinase"><use id="a8f-icon" class="Icon" width="178.33333333333334" height="19" fill="transparent"  stroke="#000" stroke-width="0" xlink:href="#none"/><text id="a8f-text" class="Text" transform="translate(89.167 13.5)" fill="#000"  font-size="12px" font-weight="bold" stroke="white" stroke-width="0" text-anchor="middle"><tspan x="0" y="0">Phosphorylase Kinase</tspan></text></g><g id="ee7" class="Label" transform="translate(720.5 166.17)" color="#000"  name="Synthesis"><use id="ee7-icon" class="Icon" width="92.33333333333333" height="21" fill="transparent"  stroke="#000" stroke-width="0" xlink:href="#none"/><text id="ee7-text" class="Text" transform="translate(46.167 14.5)" fill="#000"  font-size="14px" font-weight="bold" stroke="white" stroke-width="0" text-anchor="middle"><tspan x="0" y="0">Synthesis</tspan></text></g><g id="f20" class="Label" transform="translate(207.67 276.17)" color="#000"  name="Degradation"><use id="f20-icon" class="Icon" width="111.33333333333333" height="21" fill="transparent"  stroke="#000" stroke-width="0" xlink:href="#none"/><text id="f20-text" class="Text" transform="translate(55.667 14.5)" fill="#000"  font-size="14px" font-weight="bold" stroke="white" stroke-width="0" text-anchor="middle"><tspan x="0" y="0">Degradation</tspan></text></g><g id="f30" class="Label" transform="translate(382 493.83)" color="#000"  name="Ser/Thr Protein Phosphatase 2A"><use id="f30-icon" class="Icon" width="249.33333333333334" height="19" fill="transparent"  stroke="#000" stroke-width="0" xlink:href="#none"/><text id="f30-text" class="Text" transform="translate(124.67 13.5)" fill="#000"  font-size="12px" font-weight="bold" stroke="white" stroke-width="0" text-anchor="middle"><tspan x="0" y="0">Ser/Thr Protein Phosphatase 2A</tspan></text></g><a id="aa2" class="Metabolite ChEBI_CHEBI_28087  " transform="translate(225.5 315.17)" color="#00f"  name="Glycogen"  ><rect id="aa2-icon" class="Icon" transform="matrix(.98739 0 0 .95 .4937 .475)" width="78.333" height="19" fill="#fff" stroke="#00f"/><text id="aa2-text" class="Text" transform="translate(39.167 12.5)" fill="#00f"  font-size="10px" stroke="white" stroke-width="0" text-anchor="middle"><tspan x="0" y="0">Glycogen</tspan></text></a><a id="afdba" class="Metabolite ChEBI_CHEBI_17489  " transform="translate(475,43)" color="#00f"  name="cAMP"  ><rect id="afdba-icon" class="Icon" transform="matrix(.98246 0 0 .95238 .49123 .47619)" width="56" height="20" fill="#fff" stroke="#00f"/><text id="afdba-text" class="Text" transform="translate(28,13)" fill="#00f"  font-size="10px" stroke="white" stroke-width="0" text-anchor="middle"><tspan x="0" y="0">cAMP</tspan></text></a><a id="b8494" class="Metabolite ChEBI_CHEBI_28087  " transform="translate(9.8333 433.83)" color="#00f"  name="Glycogen (n+1)"  ><rect id="b8494-icon" class="Icon" transform="matrix(.99176 0 0 .95 .49588 .475)" width="120.33" height="19" fill="#fff" stroke="#00f"/><text id="b8494-text" class="Text" transform="translate(60.167 12.5)" fill="#00f"  font-size="10px" stroke="white" stroke-width="0" text-anchor="middle"><tspan x="0" y="0">Glycogen (n+1)</tspan></text></a><a id="b9f" class="Metabolite ChEBI_CHEBI_29042  " transform="translate(623 212.83)" color="#00f"  name="Glucose 1-phosphate"  ><rect id="b9f-icon" class="Icon" transform="matrix(.99413 0 0 .95 .49706 .475)" width="169.33" height="19" fill="#fff" stroke="#00f"/><text id="b9f-text" class="Text" transform="translate(84.667 12.5)" fill="#00f"  font-size="10px" stroke="white" stroke-width="0" text-anchor="middle"><tspan x="0" y="0">Glucose 1-phosphate</tspan></text></a><a id="bd066" class="WikiPathways_WP157 Pathway " transform="translate(227.96 593.97)" color="#14961e"  name="Glycolysis"  ><use id="bd066-icon" class="Icon" width="74.808300395257" height="28.958498023715432" fill="transparent"  stroke="#14961e" stroke-width="0" xlink:href="#none"/><text id="bd066-text" class="Text" transform="translate(37.404 18.479)" fill="#14961e"  font-size="12px" font-weight="bold" stroke="black" stroke-width="0" text-anchor="middle"><tspan x="0" y="0">Glycolysis</tspan></text></a><a id="d1c90" class="Metabolite ChEBI_CHEBI_46229  " transform="translate(668,313)" color="#00f"  name="UDP-glucose"  ><rect id="d1c90-icon" class="Icon" transform="matrix(.98765 0 0 .95238 .49383 .47619)" width="80" height="20" fill="#fff" stroke="#00f"/><text id="d1c90-text" class="Text" transform="translate(40,13)" fill="#00f"  font-size="10px" stroke="white" stroke-width="0" text-anchor="middle"><tspan x="0" y="0">UDP-glucose</tspan></text></a><a id="d5dd2" class="Metabolite ChEBI_CHEBI_29042  " transform="translate(202,438)" color="#00f"  name="Glucose 1-phosphate"  ><rect id="d5dd2-icon" class="Icon" transform="matrix(.99194 0 0 .95238 .49597 .47619)" width="123" height="20" fill="#fff" stroke="#00f"/><text id="d5dd2-text" class="Text" transform="translate(61.5,13)" fill="#00f"  font-size="10px" stroke="white" stroke-width="0" text-anchor="middle"><tspan x="0" y="0">Glucose 1-phosphate</tspan></text></a><a id="da6" class="Metabolite ChEBI_CHEBI_28087  " transform="translate(729.36 509.5)" color="#00f"  name="Glycogen"  ><rect id="da6-icon" class="Icon" transform="matrix(.98739 0 0 .95 .4937 .475)" width="78.333" height="19" fill="#fff" stroke="#00f"/><text id="da6-text" class="Text" transform="translate(39.167 12.5)" fill="#00f"  font-size="10px" stroke="white" stroke-width="0" text-anchor="middle"><tspan x="0" y="0">Glycogen</tspan></text></a><a id="dcc" class="Metabolite ChEBI_CHEBI_15903  " transform="translate(36.833 518.17)" color="#00f"  name="Glucose"  ><rect id="dcc-icon" class="Icon" transform="matrix(.98558 0 0 .95 .49279 .475)" width="68.333" height="19" fill="#fff" stroke="#00f"/><text id="dcc-text" class="Text" transform="translate(34.167 12.5)" fill="#00f"  font-size="10px" stroke="white" stroke-width="0" text-anchor="middle"><tspan x="0" y="0">Glucose</tspan></text></a><a  id="df1" class="GeneProduct P594_ENSMUSG00000033400 " transform="translate(41,468)"   name="Agl"  ><rect id="df1-icon" class="Icon" transform="matrix(.98361 0 0 .95238 .4918 .47619)" width="60" height="20" fill="#fff" stroke="#000"/><text id="df1-text" class="Text" transform="translate(30,13)" fill="#000"  font-size="10px" stroke="white" stroke-width="0" text-anchor="middle"><tspan x="0" y="0">Agl</tspan></text></a><a id="e3e" class="Metabolite ChEBI_CHEBI_28087  " transform="translate(708.36 433.83)" color="#00f"  name="Glycogen (n+1)"  ><rect id="e3e-icon" class="Icon" transform="matrix(.99176 0 0 .95 .49588 .475)" width="120.33" height="19" fill="#fff" stroke="#00f"/><text id="e3e-text" class="Text" transform="translate(60.167 12.5)" fill="#00f"  font-size="10px" stroke="white" stroke-width="0" text-anchor="middle"><tspan x="0" y="0">Glycogen (n+1)</tspan></text></a><a  id="f01" class="GeneProduct P594_ENSMUSG00000022707 " transform="translate(738.53 467.67)"   name="Gbe1"  ><rect id="f01-icon" class="Icon" transform="matrix(.98361 0 0 .95238 .4918 .47619)" width="60" height="20" fill="#fff" stroke="#000"/><text id="f01-text" class="Text" transform="translate(30,13)" fill="#000"  font-size="10px" stroke="white" stroke-width="0" text-anchor="middle"><tspan x="0" y="0">Gbe1</tspan></text></a><a  id="f0d" class="GeneProduct P594_ENSMUSG00000025791 " transform="translate(234.67 472)"   name="Pgm2"  ><rect id="f0d-icon" class="Icon" transform="matrix(.98361 0 0 .95238 .4918 .47619)" width="60" height="20" fill="#fff" stroke="#000"/><text id="f0d-text" class="Text" transform="translate(30,13)" fill="#000"  font-size="10px" stroke="white" stroke-width="0" text-anchor="middle"><tspan x="0" y="0">Pgm2</tspan></text></a><a id="f2c" class="Metabolite ChEBI_CHEBI_4170  " transform="translate(179 518.17)" color="#00f"  name="Glucose 6-phosphate"  ><rect id="f2c-icon" class="Icon" transform="matrix(.99413 0 0 .95 .49706 .475)" width="169.33" height="19" fill="#fff" stroke="#00f"/><text id="f2c-text" class="Text" transform="translate(84.667 12.5)" fill="#00f"  font-size="10px" stroke="white" stroke-width="0" text-anchor="middle"><tspan x="0" y="0">Glucose 6-phosphate</tspan></text></a><g id="a9287" class="GroupNone" transform="translate(224.67 347)" color="grey" ><rect id="a9287-icon" class="Icon" transform="matrix(.98734 0 0 .98734 .49367 .49367)" width="78" height="78" fill="#b4b464" fill-opacity=".1" stroke="grey" stroke-dasharray="5,3"/><a  id="a03" class="GeneProduct P594_ENSMUSG00000032648 " transform="translate(9,29)"   name="Pygm"  ><rect id="a03-icon" class="Icon" transform="matrix(.98361 0 0 .95238 .4918 .47619)" width="60" height="20" fill="#fff" stroke="#000"/><text id="a03-text" class="Text" transform="translate(30,13)" fill="#000"  font-size="10px" stroke="white" stroke-width="0" text-anchor="middle"><tspan x="0" y="0">Pygm</tspan></text></a><a  id="b4d" class="GeneProduct P594_ENSMUSG00000033059 " transform="translate(9,49)"   name="Pygb"  ><rect id="b4d-icon" class="Icon" transform="matrix(.98361 0 0 .95238 .4918 .47619)" width="60" height="20" fill="#fff" stroke="#000"/><text id="b4d-text" class="Text" transform="translate(30,13)" fill="#000"  font-size="10px" stroke="white" stroke-width="0" text-anchor="middle"><tspan x="0" y="0">Pygb</tspan></text></a><a  id="fd9" class="GeneProduct P594_ENSMUSG00000021069 " transform="translate(9,9)"   name="Pygl"  ><rect id="fd9-icon" class="Icon" transform="matrix(.98361 0 0 .95238 .4918 .47619)" width="60" height="20" fill="#fff" stroke="#000"/><text id="fd9-text" class="Text" transform="translate(30,13)" fill="#000"  font-size="10px" stroke="white" stroke-width="0" text-anchor="middle"><tspan x="0" y="0">Pygl</tspan></text></a></g><g id="af3bf" class="GroupNone" transform="translate(875.53 349.3)" color="grey" ><rect id="af3bf-icon" class="Icon" transform="matrix(.98734 0 0 .98305 .49367 .49153)" width="78" height="58" fill="#b4b464" fill-opacity=".1" stroke="grey" stroke-dasharray="5,3"/><a  id="bf3" class="GeneProduct P594_ENSMUSG00000057177 " transform="translate(9,9)"   name="Gsk3a"  ><rect id="bf3-icon" class="Icon" transform="matrix(.98361 0 0 .95238 .4918 .47619)" width="60" height="20" fill="#fff" stroke="#000"/><text id="bf3-text" class="Text" transform="translate(30,13)" fill="#000"  font-size="10px" stroke="white" stroke-width="0" text-anchor="middle"><tspan x="0" y="0">Gsk3a</tspan></text></a><a  id="ea5" class="GeneProduct P594_ENSMUSG00000022812 " transform="translate(9,29)"   name="Gsk3b"  ><rect id="ea5-icon" class="Icon" transform="matrix(.98361 0 0 .95238 .4918 .47619)" width="60" height="20" fill="#fff" stroke="#000"/><text id="ea5-text" class="Text" transform="translate(30,13)" fill="#000"  font-size="10px" stroke="white" stroke-width="0" text-anchor="middle"><tspan x="0" y="0">Gsk3b</tspan></text></a></g><g id="dea4e" class="GroupNone" transform="translate(668.67 240)" color="grey" ><rect id="dea4e-icon" class="Icon" transform="matrix(.98734 0 0 .98305 .49367 .49153)" width="78" height="58" fill="#b4b464" fill-opacity=".1" stroke="grey" stroke-dasharray="5,3"/><a  id="b6f" class="GeneProduct P594_ENSMUSG00000001891 " transform="translate(9,9)"   name="Ugp2"  ><rect id="b6f-icon" class="Icon" transform="matrix(.98361 0 0 .95238 .4918 .47619)" width="60" height="20" fill="#fff" stroke="#000"/><text id="b6f-text" class="Text" transform="translate(30,13)" fill="#000"  font-size="10px" stroke="white" stroke-width="0" text-anchor="middle"><tspan x="0" y="0">Ugp2</tspan></text></a><a  id="ced" class="GeneProduct P594_ENSMUSG00000001891 " transform="translate(9,29)"   name="Ugp2"  ><rect id="ced-icon" class="Icon" transform="matrix(.98361 0 0 .95238 .4918 .47619)" width="60" height="20" fill="#fff" stroke="#000"/><text id="ced-text" class="Text" transform="translate(30,13)" fill="#000"  font-size="10px" stroke="white" stroke-width="0" text-anchor="middle"><tspan x="0" y="0">Ugp2</tspan></text></a></g><g id="dfe4e" class="GroupNone" transform="translate(787.67 294.33)" color="grey" ><rect id="dfe4e-icon" class="Icon" transform="matrix(.98734 0 0 .98305 .49367 .49153)" width="78" height="58" fill="#b4b464" fill-opacity=".1" stroke="grey" stroke-dasharray="5,3"/><a  id="c04" class="GeneProduct P594_ENSMUSG00000019528 " transform="translate(9,9)"   name="Gyg"  ><rect id="c04-icon" class="Icon" transform="matrix(.98361 0 0 .95238 .4918 .47619)" width="60" height="20" fill="#fff" stroke="#000"/><text id="c04-text" class="Text" transform="translate(30,13)" fill="#000"  font-size="10px" stroke="white" stroke-width="0" text-anchor="middle"><tspan x="0" y="0">Gyg</tspan></text></a><g id="d29" class="GeneProduct" transform="translate(9,29)" color="#000"  name="GYG2"><rect id="d29-icon" class="Icon" transform="matrix(.98361 0 0 .95238 .4918 .47619)" width="60" height="20" fill="#fff" stroke="#000"/><text id="d29-text" class="Text" transform="translate(30,13)" fill="#000"  font-size="10px" stroke="white" stroke-width="0" text-anchor="middle"><tspan x="0" y="0">GYG2</tspan></text></g></g><g id="e2798" class="GroupNone" transform="translate(729.53 349.3)" color="grey" ><rect id="e2798-icon" class="Icon" transform="matrix(.98734 0 0 .98305 .49367 .49153)" width="78" height="58" fill="#b4b464" fill-opacity=".1" stroke="grey" stroke-dasharray="5,3"/><a  id="a3c" class="GeneProduct P594_ENSMUSG00000030244 " transform="translate(9,29)"   name="Gys2"  ><rect id="a3c-icon" class="Icon" transform="matrix(.98361 0 0 .95238 .4918 .47619)" width="60" height="20" fill="#fff" stroke="#000"/><text id="a3c-text" class="Text" transform="translate(30,13)" fill="#000"  font-size="10px" stroke="white" stroke-width="0" text-anchor="middle"><tspan x="0" y="0">Gys2</tspan></text></a><a  id="bdb" class="GeneProduct P594_ENSMUSG00000003865 " transform="translate(9,9)"   name="Gys1"  ><rect id="bdb-icon" class="Icon" transform="matrix(.98361 0 0 .95238 .4918 .47619)" width="60" height="20" fill="#fff" stroke="#000"/><text id="bdb-text" class="Text" transform="translate(30,13)" fill="#000"  font-size="10px" stroke="white" stroke-width="0" text-anchor="middle"><tspan x="0" y="0">Gys1</tspan></text></a></g><g id="f80c3" class="GroupNone" transform="translate(465.33 505.67)" color="grey" ><rect id="f80c3-icon" class="Icon" transform="matrix(.98833 0 0 .99687 .49416 .49843)" width="84.667" height="318" fill="#b4b464" fill-opacity=".1" stroke="grey" stroke-dasharray="5,3"/><a  id="a2e" class="GeneProduct P594_ENSMUSG00000009630 " transform="translate(9,29)"   name="Ppp2cb"  ><rect id="a2e-icon" class="Icon" transform="matrix(.98522 0 0 .95238 .49261 .47619)" width="66.667" height="20" fill="#fff" stroke="#000"/><text id="a2e-text" class="Text" transform="translate(33.333 13)" fill="#000"  font-size="10px" stroke="white" stroke-width="0" text-anchor="middle"><tspan x="0" y="0">Ppp2cb</tspan></text></a><a  id="a4f" class="GeneProduct P594_ENSMUSG00000024777 " transform="translate(9,189)"   name="Ppp2r5b"  ><rect id="a4f-icon" class="Icon" transform="matrix(.98522 0 0 .95238 .49261 .47619)" width="66.667" height="20" fill="#fff" stroke="#000"/><text id="a4f-text" class="Text" transform="translate(33.333 13)" fill="#000"  font-size="10px" stroke="white" stroke-width="0" text-anchor="middle"><tspan x="0" y="0">Ppp2r5b</tspan></text></a><a  id="ac1" class="GeneProduct P594_ENSMUSG00000017843 " transform="translate(9,209)"   name="Ppp2r5c"  ><rect id="ac1-icon" class="Icon" transform="matrix(.98522 0 0 .95238 .49261 .47619)" width="66.667" height="20" fill="#fff" stroke="#000"/><text id="ac1-text" class="Text" transform="translate(33.333 13)" fill="#000"  font-size="10px" stroke="white" stroke-width="0" text-anchor="middle"><tspan x="0" y="0">Ppp2r5c</tspan></text></a><a  id="b42" class="GeneProduct P594_ENSMUSG00000029120 " transform="translate(9,129)"   name="Ppp2r2c"  ><rect id="b42-icon" class="Icon" transform="matrix(.98522 0 0 .95238 .49261 .47619)" width="66.667" height="20" fill="#fff" stroke="#000"/><text id="b42-text" class="Text" transform="translate(33.333 13)" fill="#000"  font-size="10px" stroke="white" stroke-width="0" text-anchor="middle"><tspan x="0" y="0">Ppp2r2c</tspan></text></a><a  id="bf6" class="GeneProduct P594_ENSMUSG00000043154 " transform="translate(9,149)"   name="3222402P14Rik"  ><rect id="bf6-icon" class="Icon" transform="matrix(.98522 0 0 .95238 .49261 .47619)" width="66.667" height="20" fill="#fff" stroke="#000"/><text id="bf6-text" class="Text" transform="translate(33.333 13)" fill="#000"  font-size="10px" stroke="white" stroke-width="0" text-anchor="middle"><tspan x="0" y="0">3222402P14Rik</tspan></text></a><a  id="c15" class="GeneProduct P594_ENSMUSG00000007564 " transform="translate(9,49)"   name="Ppp2r1a"  ><rect id="c15-icon" class="Icon" transform="matrix(.98522 0 0 .95238 .49261 .47619)" width="66.667" height="20" fill="#fff" stroke="#000"/><text id="c15-text" class="Text" transform="translate(33.333 13)" fill="#000"  font-size="10px" stroke="white" stroke-width="0" text-anchor="middle"><tspan x="0" y="0">Ppp2r1a</tspan></text></a><a  id="c42" class="GeneProduct P594_ENSMUSG00000021051 " transform="translate(9,249)"   name="Ppp2r5e"  ><rect id="c42-icon" class="Icon" transform="matrix(.98522 0 0 .95238 .49261 .47619)" width="66.667" height="20" fill="#fff" stroke="#000"/><text id="c42-text" class="Text" transform="translate(33.333 13)" fill="#000"  font-size="10px" stroke="white" stroke-width="0" text-anchor="middle"><tspan x="0" y="0">Ppp2r5e</tspan></text></a><a  id="c65" class="GeneProduct P594_ENSMUSG00000020349 " transform="translate(9,9)"   name="Ppp2ca"  ><rect id="c65-icon" class="Icon" transform="matrix(.98522 0 0 .95238 .49261 .47619)" width="66.667" height="20" fill="#fff" stroke="#000"/><text id="c65-text" class="Text" transform="translate(33.333 13)" fill="#000"  font-size="10px" stroke="white" stroke-width="0" text-anchor="middle"><tspan x="0" y="0">Ppp2ca</tspan></text></a><a  id="d4b" class="GeneProduct P594_ENSMUSG00000059409 " transform="translate(9,229)"   name="Ppp2r5d"  ><rect id="d4b-icon" class="Icon" transform="matrix(.98522 0 0 .95238 .49261 .47619)" width="66.667" height="20" fill="#fff" stroke="#000"/><text id="d4b-text" class="Text" transform="translate(33.333 13)" fill="#000"  font-size="10px" stroke="white" stroke-width="0" text-anchor="middle"><tspan x="0" y="0">Ppp2r5d</tspan></text></a><a  id="d5a" class="GeneProduct P594_ENSMUSG00000024500 " transform="translate(9,109)"   name="Ppp2r2b"  ><rect id="d5a-icon" class="Icon" transform="matrix(.98522 0 0 .95238 .49261 .47619)" width="66.667" height="20" fill="#fff" stroke="#000"/><text id="d5a-text" class="Text" transform="translate(33.333 13)" fill="#000"  font-size="10px" stroke="white" stroke-width="0" text-anchor="middle"><tspan x="0" y="0">Ppp2r2b</tspan></text></a><a  id="df7" class="GeneProduct P594_ENSMUSG00000026626 " transform="translate(9,169)"   name="Ppp2r5a"  ><rect id="df7-icon" class="Icon" transform="matrix(.98522 0 0 .95238 .49261 .47619)" width="66.667" height="20" fill="#fff" stroke="#000"/><text id="df7-text" class="Text" transform="translate(33.333 13)" fill="#000"  font-size="10px" stroke="white" stroke-width="0" text-anchor="middle"><tspan x="0" y="0">Ppp2r5a</tspan></text></a><g id="df9" class="GeneProduct" transform="translate(9,269)" color="#000"  name="PPP2R3B"><rect id="df9-icon" class="Icon" transform="matrix(.98522 0 0 .95238 .49261 .47619)" width="66.667" height="20" fill="#fff" stroke="#000"/><text id="df9-text" class="Text" transform="translate(33.333 13)" fill="#000"  font-size="10px" stroke="white" stroke-width="0" text-anchor="middle"><tspan x="0" y="0">PPP2R3B</tspan></text></g><a  id="e1e" class="GeneProduct P594_ENSMUSG00000022052 " transform="translate(9,89)"   name="Ppp2r2a"  ><rect id="e1e-icon" class="Icon" transform="matrix(.98522 0 0 .95238 .49261 .47619)" width="66.667" height="20" fill="#fff" stroke="#000"/><text id="e1e-text" class="Text" transform="translate(33.333 13)" fill="#000"  font-size="10px" stroke="white" stroke-width="0" text-anchor="middle"><tspan x="0" y="0">Ppp2r2a</tspan></text></a><a  id="edd" class="GeneProduct P594_ENSMUSG00000032058 " transform="translate(9,69)"   name="Ppp2r1b"  ><rect id="edd-icon" class="Icon" transform="matrix(.98522 0 0 .95238 .49261 .47619)" width="66.667" height="20" fill="#fff" stroke="#000"/><text id="edd-text" class="Text" transform="translate(33.333 13)" fill="#000"  font-size="10px" stroke="white" stroke-width="0" text-anchor="middle"><tspan x="0" y="0">Ppp2r1b</tspan></text></a><a  id="f57" class="GeneProduct P594_ENSMUSG00000039515 " transform="translate(9,289)"   name="Ppp2r4"  ><rect id="f57-icon" class="Icon" transform="matrix(.98522 0 0 .95238 .49261 .47619)" width="66.667" height="20" fill="#fff" stroke="#000"/><text id="f57-text" class="Text" transform="translate(33.333 13)" fill="#000"  font-size="10px" stroke="white" stroke-width="0" text-anchor="middle"><tspan x="0" y="0">Ppp2r4</tspan></text></a></g><g id="f88ec" class="GroupNone" transform="translate(464.67 128.33)" color="grey" ><rect id="f88ec-icon" class="Icon" transform="matrix(.98734 0 0 .99441 .49367 .49721)" width="78" height="178" fill="#b4b464" fill-opacity=".1" stroke="grey" stroke-dasharray="5,3"/><a  id="a31" class="GeneProduct P594_ENSMUSG00000036879 " transform="translate(9,49)"   name="Phkb"  ><rect id="a31-icon" class="Icon" transform="matrix(.98361 0 0 .95238 .4918 .47619)" width="60" height="20" fill="#fff" stroke="#000"/><text id="a31-text" class="Text" transform="translate(30,13)" fill="#000"  font-size="10px" stroke="white" stroke-width="0" text-anchor="middle"><tspan x="0" y="0">Phkb</tspan></text></a><a  id="a9b" class="GeneProduct P594_ENSMUSG00000030815 " transform="translate(9,89)"   name="Phkg2"  ><rect id="a9b-icon" class="Icon" transform="matrix(.98361 0 0 .95238 .4918 .47619)" width="60" height="20" fill="#fff" stroke="#000"/><text id="a9b-text" class="Text" transform="translate(30,13)" fill="#000"  font-size="10px" stroke="white" stroke-width="0" text-anchor="middle"><tspan x="0" y="0">Phkg2</tspan></text></a><a  id="af6" class="GeneProduct P594_ENSMUSG00000001175 " transform="translate(9,109)"   name="Calm1"  ><rect id="af6-icon" class="Icon" transform="matrix(.98361 0 0 .95238 .4918 .47619)" width="60" height="20" fill="#fff" stroke="#000"/><text id="af6-text" class="Text" transform="translate(30,13)" fill="#000"  font-size="10px" stroke="white" stroke-width="0" text-anchor="middle"><tspan x="0" y="0">Calm1</tspan></text></a><a  id="b13" class="GeneProduct P594_ENSMUSG00000034055 " transform="translate(9,9)"   name="Phka1"  ><rect id="b13-icon" class="Icon" transform="matrix(.98361 0 0 .95238 .4918 .47619)" width="60" height="20" fill="#fff" stroke="#000"/><text id="b13-text" class="Text" transform="translate(30,13)" fill="#000"  font-size="10px" stroke="white" stroke-width="0" text-anchor="middle"><tspan x="0" y="0">Phka1</tspan></text></a><a  id="c2a" class="GeneProduct P594_ENSMUSG00000019370 " transform="translate(9 149)"   name="Calm3"  ><rect id="c2a-icon" class="Icon" transform="matrix(.98361 0 0 .95238 .4918 .47619)" width="60" height="20" fill="#fff" stroke="#000"/><text id="c2a-text" class="Text" transform="translate(30,13)" fill="#000"  font-size="10px" stroke="white" stroke-width="0" text-anchor="middle"><tspan x="0" y="0">Calm3</tspan></text></a><a  id="df8" class="GeneProduct P594_ENSMUSG00000036438 " transform="translate(9 129)"   name="Calm2"  ><rect id="df8-icon" class="Icon" transform="matrix(.98361 0 0 .95238 .4918 .47619)" width="60" height="20" fill="#fff" stroke="#000"/><text id="df8-text" class="Text" transform="translate(30,13)" fill="#000"  font-size="10px" stroke="white" stroke-width="0" text-anchor="middle"><tspan x="0" y="0">Calm2</tspan></text></a><a  id="e17" class="GeneProduct P594_ENSMUSG00000031295 " transform="translate(9,29)"   name="Phka2"  ><rect id="e17-icon" class="Icon" transform="matrix(.98361 0 0 .95238 .4918 .47619)" width="60" height="20" fill="#fff" stroke="#000"/><text id="e17-text" class="Text" transform="translate(30,13)" fill="#000"  font-size="10px" stroke="white" stroke-width="0" text-anchor="middle"><tspan x="0" y="0">Phka2</tspan></text></a><a  id="eb4" class="GeneProduct P594_ENSMUSG00000025537 " transform="translate(9,69)"   name="Phkg1"  ><rect id="eb4-icon" class="Icon" transform="matrix(.98361 0 0 .95238 .4918 .47619)" width="60" height="20" fill="#fff" stroke="#000"/><text id="eb4-text" class="Text" transform="translate(30,13)" fill="#000"  font-size="10px" stroke="white" stroke-width="0" text-anchor="middle"><tspan x="0" y="0">Phkg1</tspan></text></a></g><text id="WP317-text" class="Text" transform="translate(5,27)" dominant-baseline="central" fill="black"  font-size="12px" font-weight="bold" overflow="visible" stroke="white" stroke-width="0"><tspan x="0" y="-9">Name: Glycogen metabolism</tspan> <tspan x="0" y="9">Organism: Mus musculus</tspan></text></g></svg>
