<?xml version="1.0" encoding="UTF-8"?>
<!--
  WikiPathways page: https://www.wikipathways.org/index.php/Pathway:WP327
  URL for this compressed file: https://github.com/eweitz/cachome/tree/main/data/WP327.svg
  Source code for compression: https://github.com/eweitz/cachome/tree/main/src/wikipathways.py
-->
<svg id="wp327-svg" class="Diagram" width="800" height="600" color="black" baseProfile="full" prefix="schema:http://schema.org/" preserveAspectRatio="xMidYMid" version="1.1" viewBox="0 0 333.67 403.33" vocab="http://vocabularies.wikipathways.org/wp#" xmlns="http://www.w3.org/2000/svg" xmlns:xlink="http://www.w3.org/1999/xlink"><style>svg {font-family: 'Liberation Sans', Arial, sans-serif; }</style><defs><g id="jic-defs"><symbol id="none" preserveAspectRatio="none" viewBox="0 0 100 100"/></g></defs><g id="WP327" class="Viewport" color="black"  name="Name: GPCRs, class C metabotropic glutamate, pheromone Organism: Mus musculus"><rect id="WP327-icon" class="Icon" width="333.67" height="403.33" fill="#fff" stroke="#000" stroke-width="0"/><g id="cc7" class="Label" transform="translate(39.833 116.33)" color="#000"  name="Metabotropic glutamate"><use id="cc7-icon" class="Icon" width="120.33333333333333" height="12" fill="transparent"  stroke="#000" stroke-width="0" xlink:href="#none"/><text id="cc7-text" class="Text" transform="translate(60.167 8)" fill="#000"  font-size="8px" font-weight="bold" stroke="white" stroke-width="0" text-anchor="middle"><tspan x="0" y="0">Metabotropic glutamate</tspan></text></g><g id="e3f" class="Label" transform="translate(25.833 337.33)" color="#000"  name="Metabotropic glutamate other"><use id="e3f-icon" class="Icon" width="148.33333333333334" height="12" fill="transparent"  stroke="#000" stroke-width="0" xlink:href="#none"/><text id="e3f-text" class="Text" transform="translate(74.167 8)" fill="#000"  font-size="8px" font-weight="bold" stroke="white" stroke-width="0" text-anchor="middle"><tspan x="0" y="0">Metabotropic glutamate other</tspan></text></g><g id="b13" class="Label" transform="translate(241.83 116.33)" color="#000"  name="GABA-B"><use id="b13-icon" class="Icon" width="44.333333333333336" height="12" fill="transparent"  stroke="#000" stroke-width="0" xlink:href="#none"/><text id="b13-text" class="Text" transform="translate(22.167 8)" fill="#000"  font-size="8px" font-weight="bold" stroke="white" stroke-width="0" text-anchor="middle"><tspan x="0" y="0">GABA-B</tspan></text></g><g id="da7" class="Label" transform="translate(224.33 209.33)" color="#000"  name="Orphan GPRC5"><use id="da7-icon" class="Icon" width="79.33333333333333" height="12" fill="transparent"  stroke="#000" stroke-width="0" xlink:href="#none"/><text id="da7-text" class="Text" transform="translate(39.667 8)" fill="#000"  font-size="8px" font-weight="bold" stroke="white" stroke-width="0" text-anchor="middle"><tspan x="0" y="0">Orphan GPRC5</tspan></text></g><a  id="f17" class="GeneProduct P594_ENSMUSG00000051980 " transform="translate(70 353.33)"   name="Casr"  ><rect id="f17-icon" class="Icon" transform="matrix(.98361 0 0 .95238 .4918 .47619)" width="60" height="20" fill="#fff" stroke="#000"/><text id="f17-text" class="Text" transform="translate(30,13)" fill="#000"  font-size="10px" stroke="white" stroke-width="0" text-anchor="middle"><tspan x="0" y="0">Casr</tspan></text></a><g id="f64f6" class="GroupNone" transform="translate(62 135.33)" color="grey" ><rect id="f64f6-icon" class="Icon" transform="matrix(.98734 0 0 .99441 .49367 .49721)" width="78" height="178" fill="#b4b464" fill-opacity=".1" stroke="grey" stroke-dasharray="5,3"/><a  id="bc3" class="GeneProduct P594_ENSMUSG00000019828 " transform="translate(9,9)"   name="Grm1"  ><rect id="bc3-icon" class="Icon" transform="matrix(.98361 0 0 .95238 .4918 .47619)" width="60" height="20" fill="#fff" stroke="#000"/><text id="bc3-text" class="Text" transform="translate(30,13)" fill="#000"  font-size="10px" stroke="white" stroke-width="0" text-anchor="middle"><tspan x="0" y="0">Grm1</tspan></text></a><a  id="e0e" class="GeneProduct P594_ENSMUSG00000049583 " transform="translate(9,29)"   name="Grm5"  ><rect id="e0e-icon" class="Icon" transform="matrix(.98361 0 0 .95238 .4918 .47619)" width="60" height="20" fill="#fff" stroke="#000"/><text id="e0e-text" class="Text" transform="translate(30,13)" fill="#000"  font-size="10px" stroke="white" stroke-width="0" text-anchor="middle"><tspan x="0" y="0">Grm5</tspan></text></a><a  id="da2" class="GeneProduct P594_ENSMUSG00000023192 " transform="translate(9,49)"   name="Grm2"  ><rect id="da2-icon" class="Icon" transform="matrix(.98361 0 0 .95238 .4918 .47619)" width="60" height="20" fill="#fff" stroke="#000"/><text id="da2-text" class="Text" transform="translate(30,13)" fill="#000"  font-size="10px" stroke="white" stroke-width="0" text-anchor="middle"><tspan x="0" y="0">Grm2</tspan></text></a><a  id="f71" class="GeneProduct P594_ENSMUSG00000003974 " transform="translate(9,69)"   name="Grm3"  ><rect id="f71-icon" class="Icon" transform="matrix(.98361 0 0 .95238 .4918 .47619)" width="60" height="20" fill="#fff" stroke="#000"/><text id="f71-text" class="Text" transform="translate(30,13)" fill="#000"  font-size="10px" stroke="white" stroke-width="0" text-anchor="middle"><tspan x="0" y="0">Grm3</tspan></text></a><a  id="a89" class="GeneProduct P594_ENSMUSG00000024211 " transform="translate(9,89)"   name="Grm8"  ><rect id="a89-icon" class="Icon" transform="matrix(.98361 0 0 .95238 .4918 .47619)" width="60" height="20" fill="#fff" stroke="#000"/><text id="a89-text" class="Text" transform="translate(30,13)" fill="#000"  font-size="10px" stroke="white" stroke-width="0" text-anchor="middle"><tspan x="0" y="0">Grm8</tspan></text></a><a  id="ca8" class="GeneProduct P594_ENSMUSG00000063239 " transform="translate(9,109)"   name="Grm4"  ><rect id="ca8-icon" class="Icon" transform="matrix(.98361 0 0 .95238 .4918 .47619)" width="60" height="20" fill="#fff" stroke="#000"/><text id="ca8-text" class="Text" transform="translate(30,13)" fill="#000"  font-size="10px" stroke="white" stroke-width="0" text-anchor="middle"><tspan x="0" y="0">Grm4</tspan></text></a><a  id="eea" class="GeneProduct P594_ENSMUSG00000056755 " transform="translate(9 129)"   name="Grm7"  ><rect id="eea-icon" class="Icon" transform="matrix(.98361 0 0 .95238 .4918 .47619)" width="60" height="20" fill="#fff" stroke="#000"/><text id="eea-text" class="Text" transform="translate(30,13)" fill="#000"  font-size="10px" stroke="white" stroke-width="0" text-anchor="middle"><tspan x="0" y="0">Grm7</tspan></text></a><a  id="a77" class="GeneProduct P594_ENSMUSG00000000617 " transform="translate(9 149)"   name="GRM6"  ><rect id="a77-icon" class="Icon" transform="matrix(.98361 0 0 .95238 .4918 .47619)" width="60" height="20" fill="#fff" stroke="#000"/><text id="a77-text" class="Text" transform="translate(30,13)" fill="#000"  font-size="10px" stroke="white" stroke-width="0" text-anchor="middle"><tspan x="0" y="0">GRM6</tspan></text></a></g><g id="bd186" class="GroupNone" transform="translate(225 138.33)" color="grey" ><rect id="bd186-icon" class="Icon" transform="matrix(.98734 0 0 .98305 .49367 .49153)" width="78" height="58" fill="#b4b464" fill-opacity=".1" stroke="grey" stroke-dasharray="5,3"/><a  id="b7a" class="GeneProduct P594_ENSMUSG00000024462 " transform="translate(9,9)"   name="Gabbr1"  ><rect id="b7a-icon" class="Icon" transform="matrix(.98361 0 0 .95238 .4918 .47619)" width="60" height="20" fill="#fff" stroke="#000"/><text id="b7a-text" class="Text" transform="translate(30,13)" fill="#000"  font-size="10px" stroke="white" stroke-width="0" text-anchor="middle"><tspan x="0" y="0">Gabbr1</tspan></text></a><a  id="a45" class="GeneProduct P594_ENSMUSG00000039809 " transform="translate(9,29)"   name="Gabbr2"  ><rect id="a45-icon" class="Icon" transform="matrix(.98361 0 0 .95238 .4918 .47619)" width="60" height="20" fill="#fff" stroke="#000"/><text id="a45-text" class="Text" transform="translate(30,13)" fill="#000"  font-size="10px" stroke="white" stroke-width="0" text-anchor="middle"><tspan x="0" y="0">Gabbr2</tspan></text></a></g><g id="e3517" class="GroupNone" transform="translate(225 226.33)" color="grey" ><rect id="e3517-icon" class="Icon" transform="matrix(.98734 0 0 .9899 .49367 .49495)" width="78" height="98" fill="#b4b464" fill-opacity=".1" stroke="grey" stroke-dasharray="5,3"/><a  id="da5" class="GeneProduct P594_ENSMUSG00000030205 " transform="translate(9,9)"   name="Gprc5d"  ><rect id="da5-icon" class="Icon" transform="matrix(.98361 0 0 .95238 .4918 .47619)" width="60" height="20" fill="#fff" stroke="#000"/><text id="da5-text" class="Text" transform="translate(30,13)" fill="#000"  font-size="10px" stroke="white" stroke-width="0" text-anchor="middle"><tspan x="0" y="0">Gprc5d</tspan></text></a><a  id="dd0" class="GeneProduct P594_ENSMUSG00000051043 " transform="translate(9 29)"   name="Gprc5c"  ><rect id="dd0-icon" class="Icon" transform="matrix(.98361 0 0 .95238 .4918 .47619)" width="60" height="20" fill="#fff" stroke="#000"/><text id="dd0-text" class="Text" transform="translate(30,13)" fill="#000"  font-size="10px" stroke="white" stroke-width="0" text-anchor="middle"><tspan x="0" y="0">Gprc5c</tspan></text></a><a  id="aa1" class="GeneProduct P594_ENSMUSG00000008734 " transform="translate(9 49)"   name="Gprc5b"  ><rect id="aa1-icon" class="Icon" transform="matrix(.98361 0 0 .95238 .4918 .47619)" width="60" height="20" fill="#fff" stroke="#000"/><text id="aa1-text" class="Text" transform="translate(30,13)" fill="#000"  font-size="10px" stroke="white" stroke-width="0" text-anchor="middle"><tspan x="0" y="0">Gprc5b</tspan></text></a><a  id="b98" class="GeneProduct P594_ENSMUSG00000046733 " transform="translate(9 69)"   name="Gprc5a"  ><rect id="b98-icon" class="Icon" transform="matrix(.98361 0 0 .95238 .4918 .47619)" width="60" height="20" fill="#fff" stroke="#000"/><text id="b98-text" class="Text" transform="translate(30,13)" fill="#000"  font-size="10px" stroke="white" stroke-width="0" text-anchor="middle"><tspan x="0" y="0">Gprc5a</tspan></text></a></g><text id="WP327-text" class="Text" transform="translate(5,27)" dominant-baseline="central" fill="black"  font-size="12px" font-weight="bold" overflow="visible" stroke="white" stroke-width="0"><tspan x="0" y="-9">Name: GPCRs, class C metabotropic glutamate, pheromone</tspan> <tspan x="0" y="9">Organism: Mus musculus</tspan></text></g></svg>
