<?xml version="1.0" encoding="UTF-8"?>
<svg xmlns="http://www.w3.org/2000/svg" id="-svg" class="Diagram"  baseProfile="full" prefix="schema:http://schema.org/" preserveAspectRatio="xMidYMid"  version="1.1"><defs><g id="filter-defs"><filter id="doubletrue0filter" x="-50%" y="-50%" width="200%" height="200%"><feMorphology in="SourceGraphic" operator="dilate" radius="1" result="in2Double"/><feMorphology in="SourceGraphic" radius="1" result="inDouble"/><feComposite in="inDouble" in2="in2Double" operator="atop" result="doubleResult"/></filter></g><g id="icon-defs"><symbol id="HexagonPathVisio" class=" Icon HexagonPathVisio" x="0" y="8" overflow="visible" preserveAspectRatio="none" viewBox="0 8 100 86"><desc>HexagonPathVisio</desc><g transform="scale(1 0.85)"><path d="m1.42 51.00 21.07-42.14h56.19l21.07 42.14-21.07 42.15h-56.19l-21.07-42.15z" stroke="currentColor" vector-effect="non-scaling-stroke"/></g></symbol><symbol id="Octagon" class=" Icon Octagon" x="0" y="0" overflow="visible" preserveAspectRatio="none" viewBox="0 0 100 100"><desc>Octagon</desc><path d="m0 25 25-25h50l25 25v50l-25 25h-50l-25-25z" vector-effect="non-scaling-stroke"/></symbol></g><g id="marker-defs"><marker id="mea" markerHeight="12" markerWidth="12" orient="auto" preserveAspectRatio="none" refX="12" refY="6" viewBox="0 0 12 12"><g id="g-mea" transform=""><g transform="rotate(180 6 6)"><rect y="5.4" width="2" height="1.2" style="stroke:#fff"/><polygon points="12 11 0 6 12 1" stroke-width="0"/></g></g></marker><marker id="memcatalysis000" markerHeight="12" markerWidth="12" orient="auto" preserveAspectRatio="none" refX="12" refY="6" viewBox="0 0 12 12"><g id="g-memcatalysis000" transform=""><g transform="rotate(180 6 6)"><circle cx="6" cy="6" r="5.3px" fill="#fff" stroke="#000"/></g></g></marker><marker id="markerendtbar000" markerHeight="20" markerWidth="10" orient="auto" preserveAspectRatio="none" refX="10" refY="10" viewBox="0 0 10 20"><g id="g-markerendtbar000" transform=""><g transform="rotate(180 5 10)"><rect y="9" width="8" height="2" style="stroke:none"/><line x="0" y="0" width="12" height="12" x1="7" x2="7" y2="20" stroke="#000" stroke-width="1.8"/></g></g></marker></g></defs><g id="viewport-20220102141729010" class="svg-pan-zoom_viewport" transform="matrix(0.41 0 0 0.41 289.17 0)" style="transform:matrix(0.41, 0, 0, 0.41, 289.17, 0)"><style>svg.Diagram {font-family: 'Liberation Sans', Arial, sans-serif; }.Diagram path {fill: transparent;stroke: #000;marker-end: url(#mea);}.Diagram symbol path {fill: inherit;stroke: inherit;stroke-width: inherit;marker-end: inherit;}.Diagram rect {fill: #fff;stroke: #000;}.Diagram text {dominant-baseline: central;overflow: hidden;text-anchor: middle;fill: #000;font-size: 10px;}</style><style type="text/css">.Viewport .textContent {
  pointer-events: none;
  stroke-width: 0px;
}

					.Viewport.Icon {
  fill: white;
}

/* Hide the InfoBox */
.Viewport.textContent {
  font-size: 0;
}

.textContent {
  stroke: none;
}

.DataNode {
  stroke-miterlimit: 1;
  pointer-events: auto;
}

.DataNode:hover {
  cursor: pointer;
}

/* TODO should this apply to things other than DataNodes? */
.DataNode.textContent {
  pointer-events: none;
}

.DataNode.Highlighted {
  opacity: 0.6;
  stroke-width: 0px;
}

marker {
  /* this is what should work per the spec
  stroke-dasharray: none; */
  /* but I need to add this to make it work in Safari */
  stroke-dasharray: 9999999999999999999999999;
}

.Citation.Icon {
  fill: none;
  stroke-width: 0px;
}

.Citation.textContent {
  text-align: center;
  vertical-align: top;
  font-size: 7px;
  fill: #999;
  fill-opacity: 1;
  stroke: none;
}</style><g id="WP3374" class="Pathway http___identifiers_org_pw_PW_0000003 Viewport"  name="Name: Signaling by leptin Organism: Homo sapiens" ><g class="Pathway http___identifiers_org_pw_PW_0000003 Viewport"><rect   width="1523" height="1639" style="stroke:none"/><g id="a17e0" class="Reactome_R-HSA-2671876"  ><path    d="m1246 236-18 87" style="marker-end:none"/><g id="dd61d" class="AB" transform="translate(1246,236)"  ><g class="AB"/></g><g id="b27d1" class="AB" transform="translate(1228.2 322.13)"  ><g class="AB"/></g></g><g id="a5d94" class="Reactome_R-HSA-2671876"  ><path    d="m1228 323-670-216"/></g><g id="aa641" class="Reactome_R-HSA-2586555"  ><path    d="m212 173 53 22" style="marker-end:none"/><g id="a9470" class="AB" transform="translate(212,173)"  ><g class="AB"/></g><g id="ba53b" class="AB" transform="translate(264.47,194.78)"  ><g class="AB"/></g><g id="b9d84" class="AB" transform="translate(238.5,184)"  ><g class="AB"/></g><g id="d4b0e" class="AB" transform="translate(238.5,184)"  ><g class="AB"/></g></g><g id="a2b73" class="Reactome_R-HSA-2586555"  ><path    d="m265 195 13 80"/></g><g id="a4de6" class="Reactome_R-HSA-2586555"  ><path    d="m265 195 19 6"/></g><g id="ab002" class="Reactome_R-HSA-2586559"  ><path    d="m258 70-65 53" style="marker-end:none"/><g id="a1c32" class="AB" transform="translate(258,70)"  ><g class="AB"/></g><g id="f6a32" class="AB" transform="translate(193.65 122.47)"  ><g class="AB"/></g></g><g id="a738d" class="Reactome_R-HSA-2586559"  ><path    d="m232 31 26 39" style="marker-end:none"/></g><g id="af81b" class="Reactome_R-HSA-2671876"  ><path    d="m1246 232v4" style="marker-end:none"/></g><g id="b1228" class="Reactome_R-HSA-2586553"  ><path    d="m428 205 50-3" style="marker-end:none"/><g id="a8ec7" class="AB" transform="translate(428,205)"  ><g class="AB"/></g><g id="cf615" class="AB" transform="translate(477.5,202.03)"  ><g class="AB"/></g><g id="c9282" class="AB" transform="translate(453,203.5)"  ><g class="AB"/></g></g><g id="a4283" class="Reactome_R-HSA-2586553"  ><path    d="m388 255 40-50" style="marker-end:none"/></g><g id="a7435" class="Reactome_R-HSA-2586553"  ><path    d="m404 201 24 4" style="marker-end:none"/></g><g id="a5626" class="Reactome_R-HSA-2586553"  ><path    d="m478 202-19 57"/></g><g id="ae537" class="Reactome_R-HSA-2586553"  ><path    d="m404 201 48 3" style="marker-end:url(#memcatalysis000)"/></g><g id="b1ea4" class="Reactome_R-HSA-2586555"  ><path    d="m82 347 159-157" style="marker-end:url(#markerendtbar000)"/></g><g id="b567e" class="Reactome_R-HSA-2671876"  ><path    d="m1228 323-150 52"/></g><g id="b5f01" class="Reactome_R-HSA-2586555"  ><path    d="m198 138 14 35" style="marker-end:none"/></g><g id="be30e" class="Reactome_R-HSA-2671829"  ><path    d="m1099 213 51-1" style="marker-end:none"/><g id="c7c7c" class="AB" transform="translate(1099,213)"  ><g class="AB"/></g><g id="f5d38" class="AB" transform="translate(1149.5 212.01)"  ><g class="AB"/></g><g id="e0c28" class="AB" transform="translate(1124.5,212.5)"  ><g class="AB"/></g></g><g id="bc7e8" class="Reactome_R-HSA-2671829"  ><path    d="m1069 252 30-39" style="marker-end:none"/></g><g id="be879" class="Reactome_R-HSA-2586553"  ><path    d="m478 202 5-82"/></g><g id="c0f94" class="Reactome_R-HSA-2671742"  ><path    d="m698 220 52-1" style="marker-end:none"/><g id="ce3d2" class="AB" transform="translate(698,220)"  ><g class="AB"/></g><g id="c4fd0" class="AB" transform="translate(749.48,219.01)"  ><g class="AB"/></g><g id="b1f2c" class="AB" transform="translate(724,219.5)"  ><g class="AB"/></g></g><g id="c0b75" class="Reactome_R-HSA-2671742"  ><path    d="m668 198 30 22" style="marker-end:none"/></g><g id="a5ada" class="Reactome_R-HSA-2671742"  ><path    d="m668 198 55 22" style="marker-end:url(#memcatalysis000)"/></g><g id="c22e2" class="Reactome_R-HSA-2671829"  ><path    d="m1150 212 26 49"/></g><g id="c544c" class="Reactome_R-HSA-2586559"  ><path    d="m193 123 5 15"/></g><g id="c879b" class="Reactome_R-HSA-2586555"  ><path    d="m162 264 50-91" style="marker-end:none"/></g><g id="c9b2e" class="Reactome_R-HSA-2671829"  ><path    d="m1150 212 33 2"/></g><g id="cae6a" class="Reactome_R-HSA-2671855"  ><path    d="m971 168 49-1" style="marker-end:none"/><g id="a25a9" class="AB" transform="translate(971,168)"  ><g class="AB"/></g><g id="e6dd8" class="AB" transform="translate(1019.5 167.01)"  ><g class="AB"/></g></g><g id="a5642" class="Reactome_R-HSA-2671855"  ><path    d="m558 107 413 61" style="marker-end:none"/></g><g id="ce116" class="Reactome_R-HSA-2672302"  ><path    d="m165 453-67-51" style="marker-end:none"/><g id="c4ba5" class="AB" transform="translate(165,453)"  ><g class="AB"/></g><g id="e22bf" class="AB" transform="translate(98.67 402.51)"  ><g class="AB"/></g></g><g id="a14e1" class="Reactome_R-HSA-2672302"  ><path    d="m98 402-16-3"/></g><g id="d250a" class="Reactome_R-HSA-2671872"  ><path    d="m1416 682-23 51" style="marker-end:none"/><g id="b0939" class="AB" transform="translate(1416,682)"  ><g class="AB"/></g><g id="fa418" class="AB" transform="translate(1393.2 732.49)"  ><g class="AB"/></g></g><g id="a780a" class="Reactome_R-HSA-2671872"  ><path    d="m1191 681 225 1" style="marker-end:none"/></g><g id="d2e96" class="Reactome_R-HSA-2671742"  ><path    d="m668 261 30-41" style="marker-end:none"/></g><g id="dcf9d" class="Reactome_R-HSA-2671855"  ><path    d="m974 230-3-62" style="marker-end:none"/></g><g id="e07c9" class="Reactome_R-HSA-2730595"  ><path    d="m1082 628-111 2" style="marker-end:none"/><g id="fe319" class="AB" transform="translate(1082,628)"  ><g class="AB"/></g><g id="a6045" class="AB" transform="translate(972.11,629.98)"  ><g class="AB"/></g></g><g id="d355f" class="Reactome_R-HSA-2730595"  ><path    d="m1085 627-3 1" style="marker-end:none"/></g><g id="e1118" class="Reactome_R-HSA-2586555"  ><path    d="m198 138 43 52" style="marker-end:url(#memcatalysis000)"/></g><g id="e2666" class="Reactome_R-HSA-2671747"  ><path    d="m552 186 43-2" style="marker-end:none"/><g id="ded77" class="AB" transform="translate(552,186)"  ><g class="AB"/></g><g id="c9b0c" class="AB" transform="translate(594.57 184.02)"  ><g class="AB"/></g></g><g id="a495f" class="Reactome_R-HSA-2671747"  ><path    d="m555 275-3-89" style="marker-end:none"/></g><g id="df346" class="Reactome_R-HSA-2671747"  ><path    d="m558 107-6 79" style="marker-end:none"/></g><g id="e407a" class="Reactome_R-HSA-2671873"  ><path    d="m1338 787v40" style="marker-end:none"/><g id="e534a" class="AB" transform="translate(1338,787)"  ><g class="AB"/></g><g id="a3fd6" class="AB" transform="translate(1338 826.6)"  ><g class="AB"/></g></g><g id="e2348" class="Reactome_R-HSA-2671873"  ><path    d="m1186 736 152 51" style="marker-end:none"/></g><g id="e2a37" class="Reactome_R-HSA-2671873"  ><path    d="m1377 772-39 15" style="marker-end:none"/></g><g id="d0895" class="Reactome_R-HSA-2671873"  ><path    d="m1338 827 1 3"/></g><g id="e4293" class="Reactome_R-HSA-2730599"  ><path    d="m858 616-163-31" style="marker-end:none"/><g id="d1060" class="AB" transform="translate(858,616)"  ><g class="AB"/></g><g id="e67de" class="AB" transform="translate(696.63,585.31)"  ><g class="AB"/></g></g><g id="de8ba" class="Reactome_R-HSA-2730599"  ><path    d="m894 619-36-3" style="marker-end:none"/></g><g id="e4eb2" class="Reactome_R-HSA-2671850"  ><path    d="m1229 467 11 55" style="marker-end:none"/><g id="c1c98" class="AB" transform="translate(1229,467)"  ><g class="AB"/></g><g id="d718a" class="AB" transform="translate(1239.9 521.45)"  ><g class="AB"/></g><g id="d92f4" class="AB" transform="translate(1234.5,494.5)"  ><g class="AB"/></g></g><g id="d89fa" class="Reactome_R-HSA-2671850"  ><path    d="m1250 456-21 11" style="marker-end:none"/></g><g id="e24d0" class="Reactome_R-HSA-2671850"  ><path    d="m1189 469 40-2" style="marker-end:none"/></g><g id="d05ad" class="Reactome_R-HSA-2671850"  ><path    d="m1240 522-50 12"/></g><g id="e60ef" class="Reactome_R-HSA-2671872"  ><path    d="m558 107 858 575" style="marker-end:none"/></g><g id="e7ed7" class="Reactome_R-HSA-2671742"  ><path    d="m750 219 30 5"/></g><g id="e92a8" class="Reactome_R-HSA-2671839"  ><path    d="m1258 583 3 42" style="marker-end:none"/><g id="d0437" class="AB" transform="translate(1258,583)"  ><g class="AB"/></g><g id="b6140" class="AB" transform="translate(1261 624.58)"  ><g class="AB"/></g></g><g id="dae74" class="Reactome_R-HSA-2671839"  ><path    d="m1258 580v3" style="marker-end:none"/></g><g id="c3cf8" class="Reactome_R-HSA-2671839"  ><path    d="m1261 625-703-518"/></g><g id="d3fa2" class="Reactome_R-HSA-2671839"  ><path    d="m1261 625-74 2"/></g><g id="ea527" class="Reactome_R-HSA-2672302"  ><path    d="m175 513-10-60" style="marker-end:none"/></g><g id="ebd69" class="Reactome_R-HSA-2586559"  ><path    d="m209 76 49-6" style="marker-end:none"/></g><g id="ee311" class="Reactome_R-HSA-2671829"  ><path    d="m1101 186 20 27" style="marker-end:url(#memcatalysis000)"/></g><g id="ef998" class="Reactome_R-HSA-2671872"  ><path    d="m1393 733-16 3"/></g><g id="efddf" class="Reactome_R-HSA-2671862"  ><path    d="m1154 846-68 1" style="marker-end:none"/><g id="ddddd" class="AB" transform="translate(1154,846)"  ><g class="AB"/></g><g id="c153a" class="AB" transform="translate(1086.7 846.99)"  ><g class="AB"/></g></g><g id="d018d" class="Reactome_R-HSA-2671862"  ><path    d="m1172 797-18 49" style="marker-end:none"/></g><g id="a66f5" class="Reactome_R-HSA-2671862"  ><path    d="m1086 847-59-65"/></g><g id="f015b" class="Reactome_R-HSA-2671742"  ><path    d="m750 219 24 43"/></g><g id="f186c" class="Reactome_R-HSA-2671862"  ><path    d="m1222 843-68 3" style="marker-end:none"/></g><g id="f44ce" class="Reactome_R-HSA-507937"  ><path    d="m809 466-146 42" style="marker-end:none"/><g id="e480f" class="AB" transform="translate(809,466)"  ><g class="AB"/></g><g id="e26a2" class="AB" transform="translate(664.46 507.58)"  ><g class="AB"/></g></g><g id="d14c7" class="Reactome_R-HSA-507937"  ><path    d="m803 450 6 16" style="marker-end:none"/></g><g id="a641b" class="Reactome_R-HSA-507937"  ><path    d="m663 508 30 16"/></g><g id="f73b8" class="Reactome_R-HSA-452102"  ><path    d="m979 397-95 38" style="marker-end:none"/><g id="a0b3d" class="AB" transform="translate(979,397)"  ><g class="AB"/></g><g id="a5bf3" class="AB" transform="translate(884.95,434.62)"  ><g class="AB"/></g></g><g id="cf0e8" class="Reactome_R-HSA-452102"  ><path    d="m958 375 21 22" style="marker-end:none"/></g><g id="e279c" class="Reactome_R-HSA-452102"  ><path    d="m884 435-20 3"/></g><g id="f82f6" class="Reactome_R-HSA-2730599"  ><path    d="m695 585-3 1"/></g><g id="f8a6f" class="Reactome_R-HSA-2671862"  ><path    d="m1086 847-69-18"/></g><g id="f9628" class="Reactome_R-HSA-2671747"  ><path    d="m595 184 3-2"/></g><g id="f9f29" class="Reactome_R-HSA-2671829"  ><path    d="m1101 186-2 27" style="marker-end:none"/></g><g id="fa078" class="Reactome_R-HSA-2671850"  ><path    d="m1240 522 18 22"/></g><g id="fb734" class="Reactome_R-HSA-2671850"  ><path    d="m1250 456-23 40" style="marker-end:url(#memcatalysis000)"/></g><g id="fbd8d" class="Reactome_R-HSA-2671868"  ><path    d="m1350 387-31 47" style="marker-end:none"/><g id="b92fe" class="AB" transform="translate(1350,387)"  ><g class="AB"/></g><g id="a5c79" class="AB" transform="translate(1319.3 433.53)"  ><g class="AB"/></g></g><g id="bdc2a" class="Reactome_R-HSA-2671868"  ><path    d="m558 107 792 280" style="marker-end:none"/></g><g id="e1d53" class="Reactome_R-HSA-2671868"  ><path    d="m1192 394 158-7" style="marker-end:none"/></g><g id="ec830" class="Reactome_R-HSA-2671868"  ><path    d="m1319 434-7 3"/></g><g id="fc661" class="Reactome_R-HSA-2671855"  ><path    d="m1020 167 3 2"/></g><g id="fcde5" class="Reactome_R-HSA-2730595"  ><path    d="m971 630h-4"/></g><g id="fff27" class="Reactome_R-HSA-2672302"  ><path    d="m408 107-243 346" style="marker-end:none"/></g><g id="a9669" class="GroupGroup" transform="translate(464,454)"  ><g class="GroupGroup"><g id="bc1c9" class="" transform="translate(8,8)"  ><g class=""><rect   transform="matrix(0.99 0 0 0.99 1.48 1.48)" width="289" height="243" rx="15" ry="15" stroke-width="3" style="fill:transparent;stroke:#c0c0c0"/></g></g><g id="a7b8a" class="Label" transform="translate(20,207)"  name="nucleoplasm" ><g class="Label"/><text   transform="translate(49.5,16.5)"    >nucleoplasm</text></g></g></g><g id="de85a" class="GroupGroup" transform="translate(25,48)"  ><g class="GroupGroup"><g id="d6306" class="" transform="translate(8,8)"  ><g class=""><rect   transform="matrix(1.00 0 0 1.00 1.50 1.49)" width="1460" height="815" rx="15" ry="15" stroke-width="3" style="fill:transparent;stroke:#c0c0c0"/></g></g><g id="e134f" class="Label" transform="translate(167,683)"  name="cytosol" ><g class="Label"/><text   transform="translate(32,16.5)"    >cytosol</text></g></g></g><g id="a4ccb" class="Complex Reactome_R-HSA-2671848" transform="translate(1308,736)"  name="LEP:p-LEPR:p-JAK2:SH2B1" ><g class="Complex Reactome_R-HSA-2671848"><use class="Complex Reactome_R-HSA-2671848 Node Icon" width="139" height="36" fill="#fff" stroke="#a52a2a" href="#HexagonPathVisio"/></g><g ><defs><clipPath ><rect x="-69.5" y="-18" width="139" height="36" style="stroke:none"/></clipPath></defs><text   transform="translate(69.5,18)"     style="fill:#a52a2a">LEP:p-LEPR:p-JAK2:SH2B1</text></g></g><g id="a68b3" class="Complex Reactome_R-HSA-2671835" transform="translate(1183,196)"  name="LEP:p-LEPR:p-JAK2:p-STAT5" ><g class="Complex Reactome_R-HSA-2671835"><use class="Complex Reactome_R-HSA-2671835 Node Icon" width="127" height="37" fill="#fff" stroke="#a52a2a" href="#HexagonPathVisio"/></g><g ><defs><clipPath ><rect x="-63.5" y="-18.5" width="127" height="37" style="stroke:none"/></clipPath></defs><text   transform="translate(63.5,18.5)"     style="fill:#a52a2a">LEP:p-LEPR:p-JAK2:p-STAT5</text></g></g><g id="a6a2a" class="Protein" transform="translate(1142,383)"  name="STAT3" ><rect   width="51" height="22"/><text   transform="translate(25.5,11)"    >STAT3</text></g><g id="a7fe3" class="Metabolite " transform="translate(985,767)"  name="ADP" ><rect   width="43" height="30" style="stroke:#00f"/><text   transform="translate(21.5,15)"     style="fill:#00f">ADP</text></g><g id="a854a" class="Complex Reactome_R-HSA-2671874" transform="translate(1207,544)"  name="LEP:p-LEPR:p-JAK2:p-STAT3" ><g class="Complex Reactome_R-HSA-2671874"><use class="Complex Reactome_R-HSA-2671874 Node Icon" width="103" height="36" fill="#fff" stroke="#a52a2a" href="#HexagonPathVisio"/></g><g ><defs><clipPath ><rect x="-51.5" y="-18" width="103" height="36" style="stroke:none"/></clipPath></defs><text   transform="translate(51.5,18)"     style="fill:#a52a2a">LEP:p-LEPR:p-JAK2:p-STAT3</text></g></g><g id="a8e81" class="Complex Reactome_R-HSA-2586523" transform="translate(117,64)"  name="LEPR:JAK2" ><g class="Complex Reactome_R-HSA-2586523"><use class="Complex Reactome_R-HSA-2586523 Node Icon" width="93" height="25" fill="#fff" stroke="#a52a2a" href="#HexagonPathVisio"/></g><g ><defs><clipPath ><rect x="-46.5" y="-12.5" width="93" height="25" style="stroke:none"/></clipPath></defs><text   transform="translate(46.5,12.5)"     style="fill:#a52a2a">LEPR:JAK2</text></g></g><g id="ab328" class="Complex Reactome_R-HSA-2671864" transform="translate(1250,437)"  name="LEP:p-LEPR:p-JAK2:STAT3" ><g class="Complex Reactome_R-HSA-2671864"><use class="Complex Reactome_R-HSA-2671864 Node Icon" width="125" height="39" fill="#fff" stroke="#a52a2a" href="#HexagonPathVisio"/></g><g ><defs><clipPath ><rect x="-62.5" y="-19.5" width="125" height="39" style="stroke:none"/></clipPath></defs><text   transform="translate(62.5,19.5)"     style="fill:#a52a2a">LEP:p-LEPR:p-JAK2:STAT3</text></g></g><g id="aed4c" class="Complex Reactome_R-HSA-2586512" transform="translate(92,126)"  name="LEP:LEPR:JAK2" ><g class="Complex Reactome_R-HSA-2586512"><use class="Complex Reactome_R-HSA-2586512 Node Icon" width="107" height="25" fill="#fff" stroke="#a52a2a" href="#HexagonPathVisio"/></g><g ><defs><clipPath ><rect x="-53.5" y="-12.5" width="107" height="25" style="stroke:none"/></clipPath></defs><text   transform="translate(53.5,12.5)"     style="fill:#a52a2a">LEP:LEPR:JAK2</text></g></g><g id="b628a" class="Complex Reactome_R-HSA-2671846" transform="translate(1222,830)"  name="LEP:p-LEPR:p-JAK2:SH2B1:IRS1,2" ><g class="Complex Reactome_R-HSA-2671846"><use class="Complex Reactome_R-HSA-2671846 Node Icon" width="235" height="27" fill="#fff" stroke="#a52a2a" href="#HexagonPathVisio"/></g><g ><defs><clipPath ><rect x="-117.5" y="-13.5" width="235" height="27" style="stroke:none"/></clipPath></defs><text   transform="translate(117.5,13.5)"     style="fill:#a52a2a">LEP:p-LEPR:p-JAK2:SH2B1:IRS1,2</text></g></g><g id="b6dc1" class="Metabolite " transform="translate(1151,767)"  name="ATP" ><rect   width="43" height="30" style="stroke:#00f"/><text   transform="translate(21.5,15)"     style="fill:#00f">ATP</text></g><g id="b92e0" class="Metabolite " transform="translate(1155,261)"  name="ADP" ><rect   width="42" height="30" style="stroke:#00f"/><text   transform="translate(21,15)"     style="fill:#00f">ADP</text></g><g id="ba577" class="Metabolite " transform="translate(369,255)"  name="ATP" ><rect   width="39" height="30" style="stroke:#00f"/><text   transform="translate(19.5,15)"     style="fill:#00f">ATP</text></g><g id="bd861" class="Protein-2" transform="translate(1103,670)"  name="SH2B1-2" ><rect   width="89" height="22"/><text   transform="translate(44.5,11)"    >SH2B1-2</text></g><g id="bda7c" class="Metabolite " transform="translate(753,262)"  name="ADP" ><rect   width="42" height="30" style="stroke:#00f"/><text   transform="translate(21,15)"     style="fill:#00f">ADP</text></g><g id="bf434" class="Metabolite " transform="translate(1147,454)"  name="ATP" ><rect   width="42" height="30" style="stroke:#00f"/><text   transform="translate(21,15)"     style="fill:#00f">ATP</text></g><g id="c1446" class="Complex Reactome_R-HSA-2586541" transform="translate(408,94)"  name="LEP:p-LEPR:p-JAK2" ><g class="Complex Reactome_R-HSA-2586541"><use class="Complex Reactome_R-HSA-2586541 Node Icon" width="151" height="26" fill="#fff" stroke="#a52a2a" href="#HexagonPathVisio"/></g><g ><defs><clipPath ><rect x="-75.5" y="-13" width="151" height="26" style="stroke:none"/></clipPath></defs><text   transform="translate(75.5,13)"     style="fill:#a52a2a">LEP:p-LEPR:p-JAK2</text></g></g><g id="c3ac0" class="Complex Reactome_R-HSA-507929" transform="translate(958,359)"  name="p-STAT5A, p-STAT5B" ><g class="Complex Reactome_R-HSA-507929"><rect   width="121" height="32" rx="15" ry="15" style="stroke:#a52a2a"/></g><g ><defs><clipPath ><rect x="-60.5" y="-16" width="121" height="32" style="stroke:none"/></clipPath></defs><text   transform="translate(60.5,16)"     style="fill:#a52a2a">p-STAT5A, p-STAT5B</text></g></g><g id="c5e58" class="Protein" transform="translate(1085,616)"  name="p-Y705-STAT3" ><rect   width="103" height="22"/><text   transform="translate(51.5,11)"    >p-Y705-STAT3</text></g><g id="c8591" class="Complex Reactome_R-HSA-2671844" transform="translate(769,815)"  name="LEP:p-LEPR:p-JAK2:SH2B1:p-IRS1,2" ><g class="Complex Reactome_R-HSA-2671844"><use class="Complex Reactome_R-HSA-2671844 Node Icon" width="248" height="28" fill="#fff" stroke="#a52a2a" href="#HexagonPathVisio"/></g><g ><defs><clipPath ><rect x="-124" y="-14" width="248" height="28" style="stroke:none"/></clipPath></defs><text   transform="translate(124,14)"     style="fill:#a52a2a">LEP:p-LEPR:p-JAK2:SH2B1:p-IRS1,2</text></g></g><g id="c950a" class="Metabolite " transform="translate(437,259)"  name="ADP" ><rect   width="45" height="30" style="stroke:#00f"/><text   transform="translate(22.5,15)"     style="fill:#00f">ADP</text></g><g id="cc8a5" class="Complex Reactome_R-HSA-508012" transform="translate(565,511)"  name="p-STAT5 dimer" ><g class="Complex Reactome_R-HSA-508012"><use class="Complex Reactome_R-HSA-508012 Node Icon" width="129" height="27" fill="#fff" stroke="#a52a2a" href="#HexagonPathVisio"/></g><g ><defs><clipPath ><rect x="-64.5" y="-13.5" width="129" height="27" style="stroke:none"/></clipPath></defs><text   transform="translate(64.5,13.5)"     style="fill:#a52a2a">p-STAT5 dimer</text></g></g><g id="ccdd7" class="Complex Reactome_R-HSA-452094" transform="translate(941,230)"  name="STAT5A,STAT5B" ><g class="Complex Reactome_R-HSA-452094"><rect   width="67" height="40" rx="15" ry="15" style="stroke:#a52a2a"/></g><g ><defs><clipPath ><rect x="-33.5" y="-20" width="67" height="40" style="stroke:none"/></clipPath></defs><text   transform="translate(33.5,20)"     style="fill:#a52a2a">STAT5A,STAT5B</text></g></g><g id="d42d9" class="Pathway Reactome_R-HSA-5673001" transform="translate(797,301)"  name="RAF/MAP kinase cascade" ><g class="Pathway Reactome_R-HSA-5673001" filter="url(#doubletrue0filter)"><g class="Pathway Reactome_R-HSA-5673001"><rect   width="146" height="64" style="stroke:none"/></g></g><g ><defs><clipPath ><rect x="-73" y="-32" width="146" height="64" style="stroke:none"/></clipPath></defs><text   transform="translate(73,32)"     style="fill:#14961e"><tspan   x="0" y="-5.5">RAF/MAP kinase</tspan><tspan   x="0" y="5.5">cascade</tspan></text></g></g><g id="d564a" class="Complex Reactome_R-HSA-2672301" transform="translate(40,347)"  name="LEP:p-LEPR:p-JAK2:SOCS3" ><g class="Complex Reactome_R-HSA-2672301"><use class="Complex Reactome_R-HSA-2672301 Node Icon" width="84" height="52" fill="#fff" stroke="#a52a2a" href="#HexagonPathVisio"/></g><g ><defs><clipPath ><rect x="-42" y="-26" width="84" height="52" style="stroke:none"/></clipPath></defs><text   transform="translate(42,26)"     style="fill:#a52a2a">LEP:p-LEPR:p-JAK2:SOCS3</text></g></g><g id="d95f7" class="Complex Reactome_R-HSA-2671758" transform="translate(598,166)"  name="LEP:p-LEPR:p-JAK2:SHP2" ><g class="Complex Reactome_R-HSA-2671758"><use class="Complex Reactome_R-HSA-2671758 Node Icon" width="141" height="33" fill="#fff" stroke="#a52a2a" href="#HexagonPathVisio"/></g><g ><defs><clipPath ><rect x="-70.5" y="-16.5" width="141" height="33" style="stroke:none"/></clipPath></defs><text   transform="translate(70.5,16.5)"     style="fill:#a52a2a">LEP:p-LEPR:p-JAK2:SHP2</text></g></g><g id="de5d1" class="Protein" transform="translate(175,500)"  name="SOCS3" ><rect   width="78" height="27"/><text   transform="translate(39,13.5)"    >SOCS3</text></g><g id="dec59" class="Complex Reactome_R-HSA-1112525" transform="translate(536,572)"  name="p-Y705-STAT3 dimer" ><g class="Complex Reactome_R-HSA-1112525"><use class="Complex Reactome_R-HSA-1112525 Node Icon" width="156" height="29" fill="#fff" stroke="#a52a2a" href="#HexagonPathVisio"/></g><g ><defs><clipPath ><rect x="-78" y="-14.5" width="156" height="29" style="stroke:none"/></clipPath></defs><text   transform="translate(78,14.5)"     style="fill:#a52a2a">p-Y705-STAT3 dimer</text></g></g><g id="df49f" class="Complex Reactome_R-HSA-2671867" transform="translate(1023,152)"  name="LEP:p-LEPR:p-JAK2:STAT5" ><g class="Complex Reactome_R-HSA-2671867"><use class="Complex Reactome_R-HSA-2671867 Node Icon" width="157" height="34" fill="#fff" stroke="#a52a2a" href="#HexagonPathVisio"/></g><g ><defs><clipPath ><rect x="-78.5" y="-17" width="157" height="34" style="stroke:none"/></clipPath></defs><text   transform="translate(78.5,17)"     style="fill:#a52a2a">LEP:p-LEPR:p-JAK2:STAT5</text></g></g><g id="e2399" class="Complex Reactome_R-HSA-507919" transform="translate(803,438)"  name="p-STAT5 dimer" ><g class="Complex Reactome_R-HSA-507919"><use class="Complex Reactome_R-HSA-507919 Node Icon" width="123" height="25" fill="#fff" stroke="#a52a2a" href="#HexagonPathVisio"/></g><g ><defs><clipPath ><rect x="-61.5" y="-12.5" width="123" height="25" style="stroke:none"/></clipPath></defs><text   transform="translate(61.5,12.5)"     style="fill:#a52a2a">p-STAT5 dimer</text></g></g><g id="e572e" class="Metabolite " transform="translate(647,261)"  name="ATP" ><rect   width="42" height="30" style="stroke:#00f"/><text   transform="translate(21,15)"     style="fill:#00f">ATP</text></g><g id="ea2ee" class="Metabolite " transform="translate(1048,252)"  name="ATP" ><rect   width="42" height="30" style="stroke:#00f"/><text   transform="translate(21,15)"     style="fill:#00f">ATP</text></g><g id="ea678" class="Metabolite " transform="translate(1148,519)"  name="ADP" ><rect   width="42" height="30" style="stroke:#00f"/><text   transform="translate(21,15)"     style="fill:#00f">ADP</text></g><g id="eea33" class="Complex Reactome_R-HSA-1112526" transform="translate(821,619)"  name="p-Y705-STAT3 dimer" ><g class="Complex Reactome_R-HSA-1112526"><use class="Complex Reactome_R-HSA-1112526 Node Icon" width="147" height="23" fill="#fff" stroke="#a52a2a" href="#HexagonPathVisio"/></g><g ><defs><clipPath ><rect x="-73.5" y="-11.5" width="147" height="23" style="stroke:none"/></clipPath></defs><text   transform="translate(73.5,11.5)"     style="fill:#a52a2a">p-Y705-STAT3 dimer</text></g></g><g id="f02ca" class="Complex Reactome_R-HSA-198273" transform="translate(1134,725)"  name="IRS1,2" ><g class="Complex Reactome_R-HSA-198273"><rect   width="53" height="22" rx="15" ry="15" style="stroke:#a52a2a"/></g><g ><defs><clipPath ><rect x="-26.5" y="-11" width="53" height="22" style="stroke:none"/></clipPath></defs><text   transform="translate(26.5,11)"     style="fill:#a52a2a">IRS1,2</text></g></g><g id="f1088" class="Complex Reactome_R-HSA-2671749" transform="translate(780,206)"  name="LEP:p-LEPR:p-JAK2:p-SHP2" ><g class="Complex Reactome_R-HSA-2671749"><use class="Complex Reactome_R-HSA-2671749 Node Icon" width="133" height="36" fill="#fff" stroke="#a52a2a" href="#HexagonPathVisio"/></g><g ><defs><clipPath ><rect x="-66.5" y="-18" width="133" height="36" style="stroke:none"/></clipPath></defs><text   transform="translate(66.5,18)"     style="fill:#a52a2a">LEP:p-LEPR:p-JAK2:p-SHP2</text></g></g><g id="f379a" class="Protein" transform="translate(519,275)"  name="PTPN11" ><rect   width="73" height="22"/><text   transform="translate(36.5,11)"    >PTPN11</text></g><g id="f448c" class="Complex Reactome_R-HSA-2586521" transform="translate(284,184)"  name="LEP:LEPR:p-JAK2" ><g class="Complex Reactome_R-HSA-2586521"><use class="Complex Reactome_R-HSA-2586521 Node Icon" width="120" height="34" fill="#fff" stroke="#a52a2a" href="#HexagonPathVisio"/></g><g ><defs><clipPath ><rect x="-60" y="-17" width="120" height="34" style="stroke:none"/></clipPath></defs><text   transform="translate(60,17)"     style="fill:#a52a2a">LEP:LEPR:p-JAK2</text></g></g><g id="f9b51" class="Metabolite " transform="translate(259,275)"  name="ADP" ><rect   width="39" height="30" style="stroke:#00f"/><text   transform="translate(19.5,15)"     style="fill:#00f">ADP</text></g><g id="f9db5" class="Metabolite " transform="translate(143,264)"  name="ATP" ><rect   width="38" height="30" style="stroke:#00f"/><text   transform="translate(19,15)"     style="fill:#00f">ATP</text></g><g id="fd60c" class="Protein" transform="translate(198,7)"  name="LEP" ><rect   width="68" height="25"/><text   transform="translate(34,12.5)"    >LEP</text></g><g id="a781c" class="GroupComplex" transform="translate(38,957)"  ><g class="GroupComplex"><use class="Icon" width="124" height="84" fill="#b4b464" fill-opacity=".1" stroke="grey" href="#Octagon"/><g id="b855a" class="Protein" transform="translate(12,52)"  name="JAK2" ><rect   width="100" height="20"/><text   transform="translate(50,10)"    >JAK2</text></g><g id="c54fb" class="Protein" transform="translate(12,12)"  name="LEP" ><rect   width="100" height="20"/><text   transform="translate(50,10)"    >LEP</text></g><g id="dad9f" class="Protein-1" transform="translate(12,32)"  name="LEPR-1" ><rect   width="100" height="20"/><text   transform="translate(50,10)"    >LEPR-1</text></g></g></g><g id="adb96" class="GroupComplex" transform="translate(458,1117)"  ><g class="GroupComplex"><use class="Icon" width="124" height="64" fill="#b4b464" fill-opacity=".1" stroke="grey" href="#Octagon"/><g id="d41eb" class="Protein" transform="translate(12,12)"  name="p-Y694-STAT5A" ><rect   width="100" height="20"/><text   transform="translate(50,10)"    >p-Y694-STAT5A</text></g><g id="e5362" class="Protein" transform="translate(12,32)"  name="p-Y699-STAT5B" ><rect   width="100" height="20"/><text   transform="translate(50,10)"    >p-Y699-STAT5B</text></g></g></g><g id="b2703" class="GroupComplex" transform="translate(458,977)"  ><g class="GroupComplex"><use class="Icon" width="124" height="44" fill="#b4b464" fill-opacity=".1" stroke="grey" href="#Octagon"/><g id="d585c" class="Protein" transform="translate(12,12)"  name="p-Y705-STAT3" ><rect   width="100" height="20"/><text   transform="translate(50,10)"    >p-Y705-STAT3</text></g></g></g><g id="b4726" class="GroupComplex" transform="translate(318,1137)"  ><g class="GroupComplex"><use class="Icon" width="124" height="174" fill="#b4b464" fill-opacity=".1" stroke="grey" href="#Octagon"/><g id="b5914" class="Protein" transform="translate(12,72)"  name="LEP" ><rect   width="100" height="20"/><text   transform="translate(50,10)"    >LEP</text></g><g id="c5b8b" class="Protein-2" transform="translate(12,12)"  name="SH2B1-2" ><rect   width="100" height="20"/><text   transform="translate(50,10)"    >SH2B1-2</text></g><g id="e4f7f" class="Protein-1" transform="translate(12,122)"  name="p-Y986,Y1079,Y1141-LEPR-1" ><rect   width="100" height="40"/><text   transform="translate(50,20)"    >p-Y986,Y1079,Y1141-LEPR-1</text></g><g id="ed1a3" class="Protein" transform="translate(12,92)"  name="p-12Y-JAK2" ><rect   width="100" height="20"/><text   transform="translate(50,10)"    >p-12Y-JAK2</text></g><g id="ed666" class="Protein" transform="translate(12,32)"  name="IRS2" ><rect   width="100" height="20"/><text   transform="translate(50,10)"    >IRS2</text></g><g id="f2dd1" class="Protein" transform="translate(12,52)"  name="IRS1" ><rect   width="100" height="20"/><text   transform="translate(50,10)"    >IRS1</text></g></g></g><g id="b72fc" class="GroupNone" transform="translate(321,1060)"  ><g class="GroupNone"><rect   width="118" height="58" fill-opacity=".1" stroke-dasharray="5,3" style="fill:#b4b464;stroke:grey"/><g id="d75e9" class="Protein" transform="translate(9,9)"  name="IRS2" ><rect   width="100" height="20"/><text   transform="translate(50,10)"    >IRS2</text></g><g id="d98ec" class="Protein" transform="translate(9,29)"  name="IRS1" ><rect   width="100" height="20"/><text   transform="translate(50,10)"    >IRS1</text></g></g></g><g id="bd8cc" class="GroupComplex" transform="translate(38,1277)"  ><g class="GroupComplex"><use class="Icon" width="124" height="124" fill="#b4b464" fill-opacity=".1" stroke="grey" href="#Octagon"/><g id="a728e" class="Protein" transform="translate(12,92)"  name="PTPN11" ><rect   width="100" height="20"/><text   transform="translate(50,10)"    >PTPN11</text></g><g id="aa804" class="Protein" transform="translate(12,12)"  name="LEP" ><rect   width="100" height="20"/><text   transform="translate(50,10)"    >LEP</text></g><g id="bc133" class="Protein-1" transform="translate(12,62)"  name="p-Y986,Y1079,Y1141-LEPR-1" ><rect   width="100" height="40"/><text   transform="translate(50,20)"    >p-Y986,Y1079,Y1141-LEPR-1</text></g><g id="d9091" class="Protein" transform="translate(12,32)"  name="p-12Y-JAK2" ><rect   width="100" height="20"/><text   transform="translate(50,10)"    >p-12Y-JAK2</text></g></g></g><g id="c5f95" class="GroupComplex" transform="translate(458,917)"  ><g class="GroupComplex"><use class="Icon" width="124" height="44" fill="#b4b464" fill-opacity=".1" stroke="grey" href="#Octagon"/><g id="f365b" class="Protein" transform="translate(12,12)"  name="p-Y705-STAT3" ><rect   width="100" height="20"/><text   transform="translate(50,10)"    >p-Y705-STAT3</text></g></g></g><g id="c8578" class="GroupComplex" transform="translate(38,1157)"  ><g class="GroupComplex"><use class="Icon" width="124" height="114" fill="#b4b464" fill-opacity=".1" stroke="grey" href="#Octagon"/><g id="c9fef" class="Protein" transform="translate(12,12)"  name="LEP" ><rect   width="100" height="20"/><text   transform="translate(50,10)"    >LEP</text></g><g id="f903b" class="Protein-1" transform="translate(12,62)"  name="p-Y986,Y1079,Y1141-LEPR-1" ><rect   width="100" height="40"/><text   transform="translate(50,20)"    >p-Y986,Y1079,Y1141-LEPR-1</text></g><g id="fd9c5" class="Protein" transform="translate(12,32)"  name="p-12Y-JAK2" ><rect   width="100" height="20"/><text   transform="translate(50,10)"    >p-12Y-JAK2</text></g></g></g><g id="c8e43" class="GroupComplex" transform="translate(178,1457)"  ><g class="GroupComplex"><use class="Icon" width="124" height="124" fill="#b4b464" fill-opacity=".1" stroke="grey" href="#Octagon"/><g id="a1fe4" class="Protein" transform="translate(12,12)"  name="LEP" ><rect   width="100" height="20"/><text   transform="translate(50,10)"    >LEP</text></g><g id="b22e2" class="Protein" transform="translate(12,92)"  name="p-Y705-STAT3" ><rect   width="100" height="20"/><text   transform="translate(50,10)"    >p-Y705-STAT3</text></g><g id="cdb36" class="Protein-1" transform="translate(12,62)"  name="p-Y986,Y1079,Y1141-LEPR-1" ><rect   width="100" height="40"/><text   transform="translate(50,20)"    >p-Y986,Y1079,Y1141-LEPR-1</text></g><g id="d670d" class="Protein" transform="translate(12,32)"  name="p-12Y-JAK2" ><rect   width="100" height="20"/><text   transform="translate(50,10)"    >p-12Y-JAK2</text></g></g></g><g id="d10e2" class="GroupNone" transform="translate(181,1240)"  ><g class="GroupNone"><rect   width="118" height="58" fill-opacity=".1" stroke-dasharray="5,3" style="fill:#b4b464;stroke:grey"/><g id="d2b90" class="Protein" transform="translate(9,29)"  name="p-Y699-STAT5B" ><rect   width="100" height="20"/><text   transform="translate(50,10)"    >p-Y699-STAT5B</text></g><g id="fb474" class="Protein" transform="translate(9,9)"  name="p-Y694-STAT5A" ><rect   width="100" height="20"/><text   transform="translate(50,10)"    >p-Y694-STAT5A</text></g></g></g><g id="d33bc" class="GroupComplex" transform="translate(38,1417)"  ><g class="GroupComplex"><use class="Icon" width="124" height="124" fill="#b4b464" fill-opacity=".1" stroke="grey" href="#Octagon"/><g id="d3987" class="Protein" transform="translate(12,32)"  name="p-12Y-JAK2" ><rect   width="100" height="20"/><text   transform="translate(50,10)"    >p-12Y-JAK2</text></g><g id="dc74b" class="Protein" transform="translate(12,92)"  name="p-Y546,Y584-PTPN11" ><rect   width="100" height="20"/><text   transform="translate(50,10)"    >p-Y546,Y584-PTPN11</text></g><g id="f76d5" class="Protein-1" transform="translate(12,62)"  name="p-Y986,Y1079,Y1141-LEPR-1" ><rect   width="100" height="40"/><text   transform="translate(50,20)"    >p-Y986,Y1079,Y1141-LEPR-1</text></g><g id="ff36c" class="Protein" transform="translate(12,12)"  name="LEP" ><rect   width="100" height="20"/><text   transform="translate(50,10)"    >LEP</text></g></g></g><g id="d8ce3" class="GroupComplex" transform="translate(38,877)"  ><g class="GroupComplex"><use class="Icon" width="124" height="64" fill="#b4b464" fill-opacity=".1" stroke="grey" href="#Octagon"/><g id="d0c3c" class="Protein" transform="translate(12,32)"  name="JAK2" ><rect   width="100" height="20"/><text   transform="translate(50,10)"    >JAK2</text></g><g id="da829" class="Protein-1" transform="translate(12,12)"  name="LEPR-1" ><rect   width="100" height="20"/><text   transform="translate(50,10)"    >LEPR-1</text></g></g></g><g id="d91db" class="GroupComplex" transform="translate(178,917)"  ><g class="GroupComplex"><use class="Icon" width="124" height="144" fill="#b4b464" fill-opacity=".1" stroke="grey" href="#Octagon"/><g id="a7ffa" class="Protein" transform="translate(12,92)"  name="STAT5A" ><rect   width="100" height="20"/><text   transform="translate(50,10)"    >STAT5A</text></g><g id="ba058" class="Protein" transform="translate(12,32)"  name="p-12Y-JAK2" ><rect   width="100" height="20"/><text   transform="translate(50,10)"    >p-12Y-JAK2</text></g><g id="d560d" class="Protein" transform="translate(12,12)"  name="LEP" ><rect   width="100" height="20"/><text   transform="translate(50,10)"    >LEP</text></g><g id="dee20" class="Protein-1" transform="translate(12,62)"  name="p-Y986,Y1079,Y1141-LEPR-1" ><rect   width="100" height="40"/><text   transform="translate(50,20)"    >p-Y986,Y1079,Y1141-LEPR-1</text></g><g id="ed64d" class="Protein" transform="translate(12,112)"  name="STAT5B" ><rect   width="100" height="20"/><text   transform="translate(50,10)"    >STAT5B</text></g></g></g><g id="d9469" class="GroupNone" transform="translate(41,1560)"  ><g class="GroupNone"><rect   width="118" height="58" fill-opacity=".1" stroke-dasharray="5,3" style="fill:#b4b464;stroke:grey"/><g id="c293d" class="Protein" transform="translate(9,29)"  name="STAT5B" ><rect   width="100" height="20"/><text   transform="translate(50,10)"    >STAT5B</text></g><g id="f9217" class="Protein" transform="translate(9,9)"  name="STAT5A" ><rect   width="100" height="20"/><text   transform="translate(50,10)"    >STAT5A</text></g></g></g><g id="db916" class="GroupComplex" transform="translate(318,1317)"  ><g class="GroupComplex"><use class="Icon" width="124" height="164" fill="#b4b464" fill-opacity=".1" stroke="grey" href="#Octagon"/><g id="a75d5" class="Protein-1" transform="translate(12,82)"  name="p-Y986,Y1079,Y1141-LEPR-1" ><rect   width="100" height="40"/><text   transform="translate(50,20)"    >p-Y986,Y1079,Y1141-LEPR-1</text></g><g id="b4ac4" class="Protein" transform="translate(12,112)"  name="p-Y-IRS1" ><rect   width="100" height="20"/><text   transform="translate(50,10)"    >p-Y-IRS1</text></g><g id="c72ba" class="Protein" transform="translate(12,132)"  name="p-Y-IRS2" ><rect   width="100" height="20"/><text   transform="translate(50,10)"    >p-Y-IRS2</text></g><g id="ce6b8" class="Protein" transform="translate(12,52)"  name="p-12Y-JAK2" ><rect   width="100" height="20"/><text   transform="translate(50,10)"    >p-12Y-JAK2</text></g><g id="d731e" class="Protein" transform="translate(12,32)"  name="LEP" ><rect   width="100" height="20"/><text   transform="translate(50,10)"    >LEP</text></g><g id="f2ff6" class="Protein-2" transform="translate(12,12)"  name="SH2B1-2" ><rect   width="100" height="20"/><text   transform="translate(50,10)"    >SH2B1-2</text></g></g></g><g id="dd2cd" class="GroupComplex" transform="translate(38,1057)"  ><g class="GroupComplex"><use class="Icon" width="124" height="84" fill="#b4b464" fill-opacity=".1" stroke="grey" href="#Octagon"/><g id="c39f0" class="Protein" transform="translate(12,52)"  name="p-12Y-JAK2" ><rect   width="100" height="20"/><text   transform="translate(50,10)"    >p-12Y-JAK2</text></g><g id="ed5fd" class="Protein" transform="translate(12,12)"  name="LEP" ><rect   width="100" height="20"/><text   transform="translate(50,10)"    >LEP</text></g><g id="ffea9" class="Protein-1" transform="translate(12,32)"  name="LEPR-1" ><rect   width="100" height="20"/><text   transform="translate(50,10)"    >LEPR-1</text></g></g></g><g id="e27a1" class="GroupComplex" transform="translate(318,1497)"  ><g class="GroupComplex"><use class="Icon" width="124" height="124" fill="#b4b464" fill-opacity=".1" stroke="grey" href="#Octagon"/><g id="bdd7d" class="Protein-1" transform="translate(12,62)"  name="p-Y986,Y1079,Y1141-LEPR-1" ><rect   width="100" height="40"/><text   transform="translate(50,20)"    >p-Y986,Y1079,Y1141-LEPR-1</text></g><g id="e77cf" class="Protein" transform="translate(12,92)"  name="SOCS3" ><rect   width="100" height="20"/><text   transform="translate(50,10)"    >SOCS3</text></g><g id="ec3ea" class="Protein" transform="translate(12,32)"  name="p-12Y-JAK2" ><rect   width="100" height="20"/><text   transform="translate(50,10)"    >p-12Y-JAK2</text></g><g id="ee86b" class="Protein" transform="translate(12,12)"  name="LEP" ><rect   width="100" height="20"/><text   transform="translate(50,10)"    >LEP</text></g></g></g><g id="e45b8" class="GroupComplex" transform="translate(458,1037)"  ><g class="GroupComplex"><use class="Icon" width="124" height="64" fill="#b4b464" fill-opacity=".1" stroke="grey" href="#Octagon"/><g id="a2bce" class="Protein" transform="translate(12,12)"  name="p-Y694-STAT5A" ><rect   width="100" height="20"/><text   transform="translate(50,10)"    >p-Y694-STAT5A</text></g><g id="b4eb1" class="Protein" transform="translate(12,32)"  name="p-Y699-STAT5B" ><rect   width="100" height="20"/><text   transform="translate(50,10)"    >p-Y699-STAT5B</text></g></g></g><g id="e6521" class="GroupComplex" transform="translate(178,1077)"  ><g class="GroupComplex"><use class="Icon" width="124" height="144" fill="#b4b464" fill-opacity=".1" stroke="grey" href="#Octagon"/><g id="a3850" class="Protein" transform="translate(12,32)"  name="p-12Y-JAK2" ><rect   width="100" height="20"/><text   transform="translate(50,10)"    >p-12Y-JAK2</text></g><g id="a6a1d" class="Protein" transform="translate(12,12)"  name="LEP" ><rect   width="100" height="20"/><text   transform="translate(50,10)"    >LEP</text></g><g id="ae87e" class="Protein" transform="translate(12,112)"  name="p-Y699-STAT5B" ><rect   width="100" height="20"/><text   transform="translate(50,10)"    >p-Y699-STAT5B</text></g><g id="d2a64" class="Protein" transform="translate(12,92)"  name="p-Y694-STAT5A" ><rect   width="100" height="20"/><text   transform="translate(50,10)"    >p-Y694-STAT5A</text></g><g id="ff3c2" class="Protein-1" transform="translate(12,62)"  name="p-Y986,Y1079,Y1141-LEPR-1" ><rect   width="100" height="40"/><text   transform="translate(50,20)"    >p-Y986,Y1079,Y1141-LEPR-1</text></g></g></g><g id="f835b" class="GroupComplex" transform="translate(318,917)"  ><g class="GroupComplex"><use class="Icon" width="124" height="124" fill="#b4b464" fill-opacity=".1" stroke="grey" href="#Octagon"/><g id="a024d" class="Protein" transform="translate(12,32)"  name="p-12Y-JAK2" ><rect   width="100" height="20"/><text   transform="translate(50,10)"    >p-12Y-JAK2</text></g><g id="c45b0" class="Protein-2" transform="translate(12,92)"  name="SH2B1-2" ><rect   width="100" height="20"/><text   transform="translate(50,10)"    >SH2B1-2</text></g><g id="c6daf" class="Protein-1" transform="translate(12,62)"  name="p-Y986,Y1079,Y1141-LEPR-1" ><rect   width="100" height="40"/><text   transform="translate(50,20)"    >p-Y986,Y1079,Y1141-LEPR-1</text></g><g id="ef849" class="Protein" transform="translate(12,12)"  name="LEP" ><rect   width="100" height="20"/><text   transform="translate(50,10)"    >LEP</text></g></g></g><g id="ff1d3" class="GroupComplex" transform="translate(178,1317)"  ><g class="GroupComplex"><use class="Icon" width="124" height="124" fill="#b4b464" fill-opacity=".1" stroke="grey" href="#Octagon"/><g id="a0e5f" class="Protein" transform="translate(12,12)"  name="LEP" ><rect   width="100" height="20"/><text   transform="translate(50,10)"    >LEP</text></g><g id="ac549" class="Protein-1" transform="translate(12,62)"  name="p-Y986,Y1079,Y1141-LEPR-1" ><rect   width="100" height="40"/><text   transform="translate(50,20)"    >p-Y986,Y1079,Y1141-LEPR-1</text></g><g id="f325a" class="Protein" transform="translate(12,32)"  name="p-12Y-JAK2" ><rect   width="100" height="20"/><text   transform="translate(50,10)"    >p-12Y-JAK2</text></g><g id="fab43" class="Protein" transform="translate(12,92)"  name="STAT3" ><rect   width="100" height="20"/><text   transform="translate(50,10)"    >STAT3</text></g></g></g></g></g></g></svg>