<?xml version="1.0" encoding="UTF-8"?>
<svg xmlns="http://www.w3.org/2000/svg" id="-svg" class="Diagram"  baseProfile="full" prefix="schema:http://schema.org/" preserveAspectRatio="xMidYMid"  version="1.1"><defs><g id="filter-defs"><filter id="doubletrue0filter" x="-50%" y="-50%" width="200%" height="200%"><feMorphology in="SourceGraphic" operator="dilate" radius="1" result="in2Double"/><feMorphology in="SourceGraphic" radius="1" result="inDouble"/><feComposite in="inDouble" in2="in2Double" operator="atop" result="doubleResult"/></filter></g><g id="icon-defs"><symbol id="HexagonPathVisio" class=" Icon HexagonPathVisio" x="0" y="8" overflow="visible" preserveAspectRatio="none" viewBox="0 8 100 86"><desc>HexagonPathVisio</desc><g transform="scale(1 0.85)"><path d="m1.42 51.00 21.07-42.14h56.19l21.07 42.14-21.07 42.15h-56.19l-21.07-42.15z" stroke="currentColor" vector-effect="non-scaling-stroke"/></g></symbol><symbol id="Octagon" class=" Icon Octagon" x="0" y="0" overflow="visible" preserveAspectRatio="none" viewBox="0 0 100 100"><desc>Octagon</desc><path d="m0 25 25-25h50l25 25v50l-25 25h-50l-25-25z" vector-effect="non-scaling-stroke"/></symbol></g><g id="marker-defs"><marker id="mea" markerHeight="12" markerWidth="12" orient="auto" preserveAspectRatio="none" refX="12" refY="6" viewBox="0 0 12 12"><g id="g-mea" transform=""><g transform="rotate(180 6 6)"><rect y="5.4" width="2" height="1.2" style="stroke:#fff"/><polygon points="12 11 0 6 12 1" stroke-width="0"/></g></g></marker><marker id="memcatalysis000" markerHeight="12" markerWidth="12" orient="auto" preserveAspectRatio="none" refX="12" refY="6" viewBox="0 0 12 12"><g id="g-memcatalysis000" transform=""><g transform="rotate(180 6 6)"><circle cx="6" cy="6" r="5.3px" fill="#fff" stroke="#000"/></g></g></marker><marker id="markerendtbar000" markerHeight="20" markerWidth="10" orient="auto" preserveAspectRatio="none" refX="10" refY="10" viewBox="0 0 10 20"><g id="g-markerendtbar000" transform=""><g transform="rotate(180 5 10)"><rect y="9" width="8" height="2" style="stroke:none"/><line x="0" y="0" width="12" height="12" x1="7" x2="7" y2="20" stroke="#000" stroke-width="1.8"/></g></g></marker></g></defs><g id="viewport-20220102141654115" class="svg-pan-zoom_viewport" transform="matrix(0.38 0 0 0.38 326.54 0)" style="transform:matrix(0.38, 0, 0, 0.38, 326.54, 0)"><style>svg.Diagram {font-family: 'Liberation Sans', Arial, sans-serif; }.Diagram path {fill: transparent;stroke: #000;marker-end: url(#mea);}.Diagram symbol path {fill: inherit;stroke: inherit;stroke-width: inherit;marker-end: inherit;}.Diagram rect {fill: #fff;stroke: #000;}.Diagram text {dominant-baseline: central;overflow: hidden;text-anchor: middle;fill: #000;font-size: 10px;}</style><style type="text/css">.Viewport .textContent {
  pointer-events: none;
  stroke-width: 0px;
}

					.Viewport.Icon {
  fill: white;
}

/* Hide the InfoBox */
.Viewport.textContent {
  font-size: 0;
}

.textContent {
  stroke: none;
}

.DataNode {
  stroke-miterlimit: 1;
  pointer-events: auto;
}

.DataNode:hover {
  cursor: pointer;
}

/* TODO should this apply to things other than DataNodes? */
.DataNode.textContent {
  pointer-events: none;
}

.DataNode.Highlighted {
  opacity: 0.6;
  stroke-width: 0px;
}

marker {
  /* this is what should work per the spec
  stroke-dasharray: none; */
  /* but I need to add this to make it work in Safari */
  stroke-dasharray: 9999999999999999999999999;
}

.Citation.Icon {
  fill: none;
  stroke-width: 0px;
}

.Citation.textContent {
  text-align: center;
  vertical-align: top;
  font-size: 7px;
  fill: #999;
  fill-opacity: 1;
  stroke: none;
}</style><g id="WP3351" class="Pathway http___identifiers_org_pw_PW_0000003 Viewport"  name="Name: RHO GTPases activate PAKs Organism: Homo sapiens" ><g class="Pathway http___identifiers_org_pw_PW_0000003 Viewport"><rect   width="1429" height="1748" style="stroke:none"/><g id="a286d" class="Reactome_R-HSA-8981926"  ><path    d="m243 147 71-3" style="marker-end:none"/><g id="fb026" class="AB" transform="translate(243,147)"  ><g class="AB"/></g><g id="c1927" class="AB" transform="translate(313.29,144.03)"  ><g class="AB"/></g></g><g id="a9bba" class="Reactome_R-HSA-442832"  ><path    d="m456 296-1 46" style="marker-end:none"/><g id="f8b99" class="AB" transform="translate(456,296)"  ><g class="AB"/></g><g id="d8413" class="AB" transform="translate(455.01 341.54)"  ><g class="AB"/></g><g id="ba49e" class="AB" transform="translate(455.5,319)"  ><g class="AB"/></g></g><g id="a6704" class="Reactome_R-HSA-442832"  ><path    d="m458 272-2 24" style="marker-end:none"/></g><g id="abbcc" class="Reactome_R-HSA-442832"  ><path    d="m423 282 33 14" style="marker-end:none"/></g><g id="aee3e" class="Reactome_R-HSA-442832"  ><path    d="m455 342 1 27"/></g><g id="b27d8" class="Reactome_R-HSA-5668984"  ><path    d="m1138 284v-55" style="marker-end:none"/><g id="eeb58" class="AB" transform="translate(1138,284)"  ><g class="AB"/></g><g id="c04ff" class="AB" transform="translate(1138,229.55)"  ><g class="AB"/></g><g id="bd8e0" class="AB" transform="translate(1138,256.5)"  ><g class="AB"/></g></g><g id="b2b0d" class="Reactome_R-HSA-5669158"  ><path    d="m131 290-45 44" style="marker-end:none"/><g id="b8f2a" class="AB" transform="translate(131,290)"  ><g class="AB"/></g><g id="dbde5" class="AB" transform="translate(86.45 333.56)"  ><g class="AB"/></g></g><g id="aace2" class="Reactome_R-HSA-5669158"  ><path    d="m81 262 50 28" style="marker-end:none"/></g><g id="b60bc" class="Reactome_R-HSA-5668984"  ><path    d="m1166 280-28 4" style="marker-end:none"/></g><g id="b6d8f" class="Reactome_R-HSA-8981926"  ><path    d="m314 144 94 47"/></g><g id="b74c6" class="Reactome_R-HSA-2029456"  ><path    d="m233 195 98 3" style="marker-end:none"/><g id="e3b42" class="AB" transform="translate(233,195)"  ><g class="AB"/></g><g id="ddf07" class="AB" transform="translate(330.02 197.97)"  ><g class="AB"/></g><g id="b441a" class="AB" transform="translate(282,196.5)"  ><g class="AB"/></g></g><g id="a5490" class="Reactome_R-HSA-2029456"  ><path    d="m169 156 64 39" style="marker-end:none"/></g><g id="aa8b9" class="Reactome_R-HSA-2029456"  ><path    d="m331 198 57-62"/></g><g id="bcb44" class="Reactome_R-HSA-2029456"  ><path    d="m81 262 203-61" style="marker-end:url(#markerendtbar000)"/></g><g id="c2609" class="Reactome_R-HSA-5669158"  ><path    d="m159 290h-28" style="marker-end:none"/></g><g id="c402b" class="Reactome_R-HSA-5627775"  ><path    d="m657 115-7 80" style="marker-end:none"/><g id="e867b" class="AB" transform="translate(657,115)"  ><g class="AB"/></g><g id="d4861" class="AB" transform="translate(650.07 194.2)"  ><g class="AB"/></g><g id="b2951" class="AB" transform="translate(653.5,155)"  ><g class="AB"/></g></g><g id="b5143" class="Reactome_R-HSA-5627775"  ><path    d="m652 83 5 32" style="marker-end:none"/></g><g id="ba98c" class="Reactome_R-HSA-5627775"  ><path    d="m650 195-481-39"/></g><g id="a234b" class="Reactome_R-HSA-5627775"  ><path    d="m652 83 3 76" style="marker-end:url(#memcatalysis000)"/></g><g id="c60f3" class="Reactome_R-HSA-442832"  ><path    d="m598 235-143 83" style="marker-end:url(#memcatalysis000)"/></g><g id="c695e" class="Reactome_R-HSA-8981926"  ><path    d="m169 156 74-9" style="marker-end:none"/></g><g id="c829d" class="Reactome_R-HSA-5627775"  ><path    d="m650 195 2 29"/></g><g id="ca93e" class="Reactome_R-HSA-5669158"  ><path    d="m86 334-11 3"/></g><g id="cb954" class="Reactome_R-HSA-5668984"  ><path    d="m1141 303-3-19" style="marker-end:none"/></g><g id="d173e" class="Reactome_R-HSA-8981931"  ><path    d="m228 171 98 2" style="marker-end:none"/><g id="ae1cf" class="AB" transform="translate(228,171)"  ><g class="AB"/></g><g id="a7554" class="AB" transform="translate(325.02,172.98)"  ><g class="AB"/></g></g><g id="ab916" class="Reactome_R-HSA-8981931"  ><path    d="m326 173 58-85"/></g><g id="c5b51" class="Reactome_R-HSA-8981931"  ><path    d="m326 173 51 52"/></g><g id="d2098" class="Reactome_R-HSA-5668947"  ><path    d="m897 662 1 49" style="marker-end:none"/><g id="bf2c5" class="AB" transform="translate(897,662)"  ><g class="AB"/></g><g id="d0e07" class="AB" transform="translate(897.99 710.51)"  ><g class="AB"/></g><g id="e1949" class="AB" transform="translate(897.5,686.5)"  ><g class="AB"/></g></g><g id="c87d5" class="Reactome_R-HSA-5668947"  ><path    d="m945 662h-48" style="marker-end:none"/></g><g id="ac05a" class="Reactome_R-HSA-5668947"  ><path    d="m898 711 40 1"/></g><g id="d284c" class="Reactome_R-HSA-5668978"  ><path    d="m944 419 104 44" style="marker-end:none"/><g id="a9cac" class="AB" transform="translate(944,419)"  ><g class="AB"/></g><g id="cf21f" class="AB" transform="translate(1047 462.56)"  ><g class="AB"/></g><g id="c1e0b" class="AB" transform="translate(996,441)"  ><g class="AB"/></g><g id="d4efa" class="AB" transform="translate(996,441)"  ><g class="AB"/></g></g><g id="ad844" class="Reactome_R-HSA-5668978"  ><path    d="m911 465 33-46" style="marker-end:none"/></g><g id="c3f4d" class="Reactome_R-HSA-5668978"  ><path    d="m1048 463-4 45"/></g><g id="ca388" class="Reactome_R-HSA-5668978"  ><path    d="m1048 463-45 20"/></g><g id="bdcf8" class="Reactome_R-HSA-5668978"  ><path    d="m1190 431-184-2" style="marker-end:url(#memcatalysis000)"/></g><g id="aabf9" class="Reactome_R-HSA-5668978"  ><path    d="m895 602 111-173" style="marker-end:url(#markerendtbar000)"/></g><g id="d345b" class="Reactome_R-HSA-5668984"  ><path    d="m926 222 212 38" style="marker-end:url(#memcatalysis000)"/></g><g id="d3834" class="Reactome_R-HSA-442832"  ><path    d="m455 342-35 3"/></g><g id="d38b2" class="Reactome_R-HSA-5669240"  ><path    d="m655 565 8 103" style="marker-end:none"/><g id="f0843" class="AB" transform="translate(655,565)"  ><g class="AB"/></g><g id="a044a" class="AB" transform="translate(662.92 666.97)"  ><g class="AB"/></g></g><g id="ba548" class="Reactome_R-HSA-5669240"  ><path    d="m624 559 31 6" style="marker-end:none"/></g><g id="d112d" class="Reactome_R-HSA-5669240"  ><path    d="m661 327-6 238" style="marker-end:none"/></g><g id="d4202" class="Reactome_R-HSA-5669240"  ><path    d="m663 668 2 3"/></g><g id="d5aeb" class="Reactome_R-HSA-5668932"  ><path    d="m935 380h52" style="marker-end:none"/><g id="d6654" class="AB" transform="translate(935,380)"  ><g class="AB"/></g><g id="c2615" class="AB" transform="translate(986.48,380)"  ><g class="AB"/></g><g id="f8583" class="AB" transform="translate(961,380)"  ><g class="AB"/></g></g><g id="a0073" class="Reactome_R-HSA-5668932"  ><path    d="m987 380 26-31"/></g><g id="cda51" class="Reactome_R-HSA-5668932"  ><path    d="m987 380 51 2"/></g><g id="d5f09" class="Reactome_R-HSA-5668932"  ><path    d="m906 384 29-4" style="marker-end:none"/></g><g id="d8279" class="Reactome_R-HSA-419232"  ><path    d="m933 536h-89" style="marker-end:none"/><g id="e381d" class="AB" transform="translate(933,536)"  ><g class="AB"/></g><g id="f38ec" class="AB" transform="translate(844.89,536)"  ><g class="AB"/></g><g id="b3de5" class="AB" transform="translate(888.5,536)"  ><g class="AB"/></g><g id="bbcdf" class="AB" transform="translate(888.5,536)"  ><g class="AB"/></g></g><g id="d7aa7" class="Reactome_R-HSA-419232"  ><path    d="m844 536-4-127"/></g><g id="daa6d" class="Reactome_R-HSA-5668932"  ><path    d="m922 347 13 33" style="marker-end:none"/></g><g id="dc2ee" class="Reactome_R-HSA-5668947"  ><path    d="m726 312 171 373" style="marker-end:url(#memcatalysis000)"/></g><g id="dd646" class="Reactome_R-HSA-5627775"  ><path    d="m650 195-47-31"/></g><g id="dddde" class="Reactome_R-HSA-419232"  ><path    d="m977 540-44-4" style="marker-end:none"/></g><g id="df4e3" class="Reactome_R-HSA-8981931"  ><path    d="m205 248 23-77" style="marker-end:none"/></g><g id="e01df" class="Reactome_R-HSA-2029460"  ><path    d="m561 398 2 63" style="marker-end:none"/><g id="e37e8" class="AB" transform="translate(561,398)"  ><g class="AB"/></g><g id="a3cb0" class="AB" transform="translate(562.98,460.37)"  ><g class="AB"/></g><g id="c3bae" class="AB" transform="translate(562,429.5)"  ><g class="AB"/></g></g><g id="b8529" class="Reactome_R-HSA-2029460"  ><path    d="m562 363-1 35" style="marker-end:none"/></g><g id="aac7c" class="Reactome_R-HSA-2029460"  ><path    d="m563 461 2 44"/></g><g id="b9581" class="Reactome_R-HSA-2029460"  ><path    d="m563 461 30 8"/></g><g id="c8e98" class="Reactome_R-HSA-2029460"  ><path    d="m596 312-34 115" style="marker-end:url(#memcatalysis000)"/></g><g id="e2eba" class="Reactome_R-HSA-8981926"  ><path    d="m179 211 64-64" style="marker-end:none"/></g><g id="e2f45" class="Reactome_R-HSA-5669250"  ><path    d="m671 741v50" style="marker-end:none"/><g id="d89db" class="AB" transform="translate(671,741)"  ><g class="AB"/></g><g id="b22e3" class="AB" transform="translate(671,790.5)"  ><g class="AB"/></g><g id="c6ba6" class="AB" transform="translate(671,766)"  ><g class="AB"/></g></g><g id="db2a6" class="Reactome_R-HSA-5669250"  ><path    d="m671 791-69-11"/></g><g id="e3a98" class="Reactome_R-HSA-5669250"  ><path    d="m671 791 1 29"/></g><g id="e52be" class="Reactome_R-HSA-419232"  ><path    d="m951 558-18-22" style="marker-end:none"/></g><g id="e6a67" class="Reactome_R-HSA-8981926"  ><path    d="m314 144 69-98"/></g><g id="e6da5" class="Reactome_R-HSA-419232"  ><path    d="m844 536-14 19"/></g><g id="ec69a" class="Reactome_R-HSA-5627775"  ><path    d="m618 119 39-4" style="marker-end:none"/></g><g id="ec80d" class="Reactome_R-HSA-5668932"  ><path    d="m963 296 3 84" style="marker-end:url(#memcatalysis000)"/></g><g id="ed0bd" class="Reactome_R-HSA-5669250"  ><path    d="m671 791-10-464"/></g><g id="ee834" class="Reactome_R-HSA-5669250"  ><path    d="m611 734 60 7" style="marker-end:none"/></g><g id="efb5a" class="Reactome_R-HSA-2029456"  ><path    d="m331 198 28 46"/></g><g id="f1b43" class="Reactome_R-HSA-419232"  ><path    d="m895 602v-64" style="marker-end:url(#memcatalysis000)"/></g><g id="f2ac9" class="Reactome_R-HSA-445797"  ><path    d="m1232 341 3 68" style="marker-end:none"/><g id="d12e9" class="AB" transform="translate(1232,341)"  ><g class="AB"/></g><g id="afcda" class="AB" transform="translate(1235 408.32)"  ><g class="AB"/></g><g id="d12f3" class="AB" transform="translate(1233.5,375)"  ><g class="AB"/></g></g><g id="acd8f" class="Reactome_R-HSA-445797"  ><path    d="m1190 314 42 27" style="marker-end:none"/></g><g id="a96b4" class="Reactome_R-HSA-445797"  ><path    d="m1235 409 2 3"/></g><g id="eaeda" class="Reactome_R-HSA-445797"  ><path    d="m926 222 307 146" style="marker-end:url(#markerendtbar000)"/></g><g id="f341b" class="Reactome_R-HSA-5669250"  ><path    d="m665 707 6 34" style="marker-end:none"/></g><g id="f55dd" class="Reactome_R-HSA-5668978"  ><path    d="m906 384 38 35" style="marker-end:none"/></g><g id="f5785" class="Reactome_R-HSA-445797"  ><path    d="m1217 299 15 42" style="marker-end:none"/></g><g id="f5c8a" class="Reactome_R-HSA-2029460"  ><path    d="m590 387-29 11" style="marker-end:none"/></g><g id="f6943" class="Reactome_R-HSA-419232"  ><path    d="m726 312 169 226" style="marker-end:url(#markerendtbar000)"/></g><g id="f9113" class="Reactome_R-HSA-5668947"  ><path    d="m895 636 2 26" style="marker-end:none"/></g><g id="fb5db" class="Reactome_R-HSA-5668947"  ><path    d="m898 711 1 38"/></g><g id="fd4a2" class="Reactome_R-HSA-5668984"  ><path    d="m1138 229-9-28"/></g><g id="fdb53" class="Reactome_R-HSA-2029456"  ><path    d="m198 279 35-84" style="marker-end:none"/></g><g id="fe2fe" class="Reactome_R-HSA-5668984"  ><path    d="m1138 229h47"/></g><g id="fe9bf" class="Reactome_R-HSA-5669250"  ><path    d="m665 707 7 59" style="marker-end:url(#memcatalysis000)"/></g><g id="ffdde" class="Reactome_R-HSA-8981931"  ><path    d="m169 156 59 15" style="marker-end:none"/></g><g id="e0917" class="GroupGroup" transform="translate(48,34)"  ><g class="GroupGroup"><g id="f3c55" class="" transform="translate(8,8)"  ><g class=""><rect   transform="matrix(1.00 0 0 1.00 1.50 1.49)" width="1343" height="838" rx="15" ry="15" stroke-width="3" style="fill:transparent;stroke:#c0c0c0"/></g></g><g id="cdcbd" class="Label" transform="translate(29,596)"  name="cytosol" ><g class="Label"/><text   transform="translate(32,16.5)"    >cytosol</text></g></g></g><g id="a467c" class="Complex Reactome_R-HSA-8981928" transform="translate(383,28)"  name="CDC42:GTP,RAC1:GTP:PAK3" ><g class="Complex Reactome_R-HSA-8981928"><use class="Complex Reactome_R-HSA-8981928 Node Icon" width="118" height="36" fill="#fff" stroke="#a52a2a" href="#HexagonPathVisio"/></g><g ><defs><clipPath ><rect x="-59" y="-18" width="118" height="36" style="stroke:none"/></clipPath></defs><text   transform="translate(59,18)"     style="fill:#a52a2a">CDC42:GTP,RAC1:GTP:PAK3</text></g></g><g id="a5be2" class="Metabolite " transform="translate(869,452)"  name="ATP" ><rect   width="42" height="26" style="stroke:#00f"/><text   transform="translate(21,13)"     style="fill:#00f">ATP</text></g><g id="a6d17" class="Complex Reactome_R-HSA-2685645" transform="translate(129,237)"  name="PAK2 dimer" ><g class="Complex Reactome_R-HSA-2685645"><use class="Complex Reactome_R-HSA-2685645 Node Icon" width="77" height="23" fill="#fff" stroke="#a52a2a" href="#HexagonPathVisio"/></g><g ><defs><clipPath ><rect x="-38.5" y="-11.5" width="77" height="23" style="stroke:none"/></clipPath></defs><text   transform="translate(38.5,11.5)"     style="fill:#a52a2a">PAK2 dimer</text></g></g><g id="a8d61" class="Protein" transform="translate(404,369)"  name="p-S113-CTTN" ><rect   width="104" height="29"/><text   transform="translate(52,14.5)"    >p-S113-CTTN</text></g><g id="aa181" class="Metabolite " transform="translate(945,647)"  name="ATP" ><rect   width="38" height="30" style="stroke:#00f"/><text   transform="translate(19,15)"     style="fill:#00f">ATP</text></g><g id="aa402" class="Complex Reactome_R-HSA-74294" transform="translate(1217,288)"  name="CALM1:4xCa2+" ><g class="Complex Reactome_R-HSA-74294"><use class="Complex Reactome_R-HSA-74294 Node Icon" width="101" height="22" fill="#fff" stroke="#a52a2a" href="#HexagonPathVisio"/></g><g ><defs><clipPath ><rect x="-50.5" y="-11" width="101" height="22" style="stroke:none"/></clipPath></defs><text   transform="translate(50.5,11)"     style="fill:#a52a2a">CALM1:4xCa2+</text></g></g><g id="abe1b" class="Metabolite " transform="translate(1166,268)"  name="ATP" ><rect   width="42" height="24" style="stroke:#00f"/><text   transform="translate(21,12)"     style="fill:#00f">ATP</text></g><g id="ac4a4" class="Metabolite " transform="translate(900,319)"  name="ATP" ><rect   width="44" height="29" style="stroke:#00f"/><text   transform="translate(22,14.5)"     style="fill:#00f">ATP</text></g><g id="ac4eb" class="Complex Reactome_R-HSA-5669252" transform="translate(586,548)"  name="FLNA" ><g class="Complex Reactome_R-HSA-5669252"><use class="Complex Reactome_R-HSA-5669252 Node Icon" width="38" height="22" fill="#fff" stroke="#a52a2a" href="#HexagonPathVisio"/></g><g ><defs><clipPath ><rect x="-19" y="-11" width="38" height="22" style="stroke:none"/></clipPath></defs><text   transform="translate(19,11)"     style="fill:#a52a2a">FLNA</text></g></g><g id="ae525" class="Metabolite " transform="translate(993,319)"  name="ADP" ><rect   width="41" height="30" style="stroke:#00f"/><text   transform="translate(20.5,15)"     style="fill:#00f">ADP</text></g><g id="af050" class="Complex Reactome_R-HSA-2029159" transform="translate(388,118)"  name="RAC1:GTP,CDC42:GTP:PAK1" ><g class="Complex Reactome_R-HSA-2029159"><use class="Complex Reactome_R-HSA-2029159 Node Icon" width="118" height="36" fill="#fff" stroke="#a52a2a" href="#HexagonPathVisio"/></g><g ><defs><clipPath ><rect x="-59" y="-18" width="118" height="36" style="stroke:none"/></clipPath></defs><text   transform="translate(59,18)"     style="fill:#a52a2a">RAC1:GTP,CDC42:GTP:PAK1</text></g></g><g id="b141a" class="Complex Reactome_R-HSA-5668976" transform="translate(834,211)"  name="p-S,T-PAK1,2" ><g class="Complex Reactome_R-HSA-5668976"><rect   width="92" height="22" rx="15" ry="15" style="stroke:#a52a2a"/></g><g ><defs><clipPath ><rect x="-46" y="-11" width="92" height="22" style="stroke:none"/></clipPath></defs><text   transform="translate(46,11)"     style="fill:#a52a2a">p-S,T-PAK1,2</text></g></g><g id="b249f" class="Metabolite " transform="translate(817,555)"  name="Pi" ><rect   width="26" height="30" style="stroke:#00f"/><text   transform="translate(13,15)"     style="fill:#00f">Pi</text></g><g id="ba033" class="Protein" transform="translate(408,180)"  name="PAK3" ><rect   width="40" height="22"/><text   transform="translate(20,11)"    >PAK3</text></g><g id="bccc2" class="Complex Reactome_R-HSA-5669239" transform="translate(617,671)"  name="p-S144,T423-PAK1:FLNA" ><g class="Complex Reactome_R-HSA-5669239"><use class="Complex Reactome_R-HSA-5669239 Node Icon" width="97" height="36" fill="#fff" stroke="#a52a2a" href="#HexagonPathVisio"/></g><g ><defs><clipPath ><rect x="-48.5" y="-18" width="97" height="36" style="stroke:none"/></clipPath></defs><text   transform="translate(48.5,18)"     style="fill:#a52a2a">p-S144,T423-PAK1:FLNA</text></g></g><g id="c1675" class="Metabolite " transform="translate(558,769)"  name="ADP" ><rect   width="44" height="23" style="stroke:#00f"/><text   transform="translate(22,11.5)"     style="fill:#00f">ADP</text></g><g id="c3b78" class="Complex Reactome_R-HSA-419194" transform="translate(774,359)"  name="Smooth muscle/non-muscle myosin II" ><g class="Complex Reactome_R-HSA-419194"><use class="Complex Reactome_R-HSA-419194 Node Icon" width="133" height="50" fill="#fff" stroke="#a52a2a" href="#HexagonPathVisio"/></g><g ><defs><clipPath ><rect x="-66.5" y="-25" width="133" height="50" style="stroke:none"/></clipPath></defs><text   transform="translate(66.5,25)"     style="fill:#a52a2a"><tspan   x="0" y="-11">Smooth</tspan><tspan   x="0" y="0">muscle/non-muscle</tspan><tspan   x="0" y="11">myosin II</tspan></text></g></g><g id="c45da" class="Metabolite " transform="translate(593,456)"  name="ADP" ><rect   width="44" height="26" style="stroke:#00f"/><text   transform="translate(22,13)"     style="fill:#00f">ADP</text></g><g id="c7cf2" class="Protein" transform="translate(596,297)"  name="p-S144,T423-PAK1" ><rect   width="130" height="30"/><text   transform="translate(65,15)"    >p-S144,T423-PAK1</text></g><g id="c7e53" class="Protein" transform="translate(339,244)"  name="PAK1" ><rect   width="40" height="22"/><text   transform="translate(20,11)"    >PAK1</text></g><g id="cbe76" class="Metabolite " transform="translate(938,698)"  name="ADP" ><rect   width="44" height="29" style="stroke:#00f"/><text   transform="translate(22,14.5)"     style="fill:#00f">ADP</text></g><g id="cccd1" class="Complex Reactome_R-HSA-8981927" transform="translate(384,70)"  name="CDC42:GTP,RAC1:GTP:PAK2" ><g class="Complex Reactome_R-HSA-8981927"><use class="Complex Reactome_R-HSA-8981927 Node Icon" width="118" height="36" fill="#fff" stroke="#a52a2a" href="#HexagonPathVisio"/></g><g ><defs><clipPath ><rect x="-59" y="-18" width="118" height="36" style="stroke:none"/></clipPath></defs><text   transform="translate(59,18)"     style="fill:#a52a2a">CDC42:GTP,RAC1:GTP:PAK2</text></g></g><g id="cdbbe" class="Complex Reactome_R-HSA-5669157" transform="translate(41,337)"  name="PAK1:NF2" ><g class="Complex Reactome_R-HSA-5669157"><use class="Complex Reactome_R-HSA-5669157 Node Icon" width="68" height="22" fill="#fff" stroke="#a52a2a" href="#HexagonPathVisio"/></g><g ><defs><clipPath ><rect x="-34" y="-11" width="68" height="22" style="stroke:none"/></clipPath></defs><text   transform="translate(34,11)"     style="fill:#a52a2a">PAK1:NF2</text></g></g><g id="ced61" class="Complex Reactome_R-HSA-5668948" transform="translate(836,749)"  name="p-T696-PPP1R12A-Myosin phosphatase" ><g class="Complex Reactome_R-HSA-5668948"><use class="Complex Reactome_R-HSA-5668948 Node Icon" width="126" height="50" fill="#fff" stroke="#a52a2a" href="#HexagonPathVisio"/></g><g ><defs><clipPath ><rect x="-63" y="-25" width="126" height="50" style="stroke:none"/></clipPath></defs><text   transform="translate(63,25)"     style="fill:#a52a2a">p-T696-PPP1R12A-Myosin phosphatase</text></g></g><g id="cfffc" class="Pathway Reactome_R-HSA-2029480" transform="translate(288,483)"  name="Fcgamma receptor (FCGR) dependent phagocytosis" ><g class="Pathway Reactome_R-HSA-2029480" filter="url(#doubletrue0filter)"><g class="Pathway Reactome_R-HSA-2029480"><rect   width="159" height="69" style="stroke:none"/></g></g><g ><defs><clipPath ><rect x="-79.5" y="-34.5" width="159" height="69" style="stroke:none"/></clipPath></defs><text   transform="translate(79.5,34.5)"     style="fill:#14961e"><tspan   x="0" y="-11">Fcgamma receptor</tspan><tspan   x="0" y="0">(FCGR) dependent</tspan><tspan   x="0" y="11">phagocytosis</tspan></text></g></g><g id="d17e5" class="Metabolite " transform="translate(578,104)"  name="ATP" ><rect   width="40" height="30" style="stroke:#00f"/><text   transform="translate(20,15)"     style="fill:#00f">ATP</text></g><g id="d3b14" class="Metabolite " transform="translate(1185,217)"  name="ADP" ><rect   width="42" height="25" style="stroke:#00f"/><text   transform="translate(21,12.5)"     style="fill:#00f">ADP</text></g><g id="d7955" class="Complex Reactome_R-HSA-5668934" transform="translate(1038,358)"  name="p-T19-MRLC-Smooth muscle/non-muscle myosin II" ><g class="Complex Reactome_R-HSA-5668934"><use class="Complex Reactome_R-HSA-5668934 Node Icon" width="136" height="49" fill="#fff" stroke="#a52a2a" href="#HexagonPathVisio"/></g><g ><defs><clipPath ><rect x="-68" y="-24.5" width="136" height="49" style="stroke:none"/></clipPath></defs><text   transform="translate(68,24.5)"     style="fill:#a52a2a"><tspan   x="0" y="-11">p-T19-MRLC-Smooth</tspan><tspan   x="0" y="0">muscle/non-muscle</tspan><tspan   x="0" y="11">myosin II</tspan></text></g></g><g id="d81cb" class="Complex Reactome_R-HSA-8981940" transform="translate(579,29)"  name="CDC42:GTP,RAC1:GTP:PAK1,PAK2,PAK3" ><g class="Complex Reactome_R-HSA-8981940"><rect   width="147" height="54" rx="15" ry="15" style="stroke:#a52a2a"/></g><g ><defs><clipPath ><rect x="-73.5" y="-27" width="147" height="54" style="stroke:none"/></clipPath></defs><text   transform="translate(73.5,27)"     style="fill:#a52a2a">CDC42:GTP,RAC1:GTP:PAK1,PAK2,PAK3</text></g></g><g id="d8459" class="Protein" transform="translate(896,268)"  name="p-S141,T402-PAK2" ><rect   width="134" height="29"/><text   transform="translate(67,14.5)"    >p-S141,T402-PAK2</text></g><g id="d9c75" class="Metabolite " transform="translate(963,470)"  name="ADP" ><rect   width="40" height="27" style="stroke:#00f"/><text   transform="translate(20,13.5)"     style="fill:#00f">ADP</text></g><g id="da004" class="Complex Reactome_R-HSA-389778" transform="translate(89,135)"  name="CDC42:GTP, RAC1:GTP" ><g class="Complex Reactome_R-HSA-389778"><rect   width="81" height="42" rx="15" ry="15" style="stroke:#a52a2a"/></g><g ><defs><clipPath ><rect x="-40.5" y="-21" width="81" height="42" style="stroke:none"/></clipPath></defs><text   transform="translate(40.5,21)"     style="fill:#a52a2a">CDC42:GTP, RAC1:GTP</text></g></g><g id="daef3" class="Protein" transform="translate(1063,161)"  name="p-S1208,S1759-MYLK(1-1914)" ><rect   width="132" height="41"/><text   transform="translate(66,20.5)"    >p-S1208,S1759-MYLK(1-1914)</text></g><g id="db2fe" class="Complex Reactome_R-HSA-5669251" transform="translate(623,820)"  name="p-S2152-FLNA" ><g class="Complex Reactome_R-HSA-5669251"><use class="Complex Reactome_R-HSA-5669251 Node Icon" width="98" height="22" fill="#fff" stroke="#a52a2a" href="#HexagonPathVisio"/></g><g ><defs><clipPath ><rect x="-49" y="-11" width="98" height="22" style="stroke:none"/></clipPath></defs><text   transform="translate(49,11)"     style="fill:#a52a2a">p-S2152-FLNA</text></g></g><g id="db598" class="Pathway Reactome_R-HSA-5627117" transform="translate(504,593)"  name="RHO GTPases Activate ROCKs" ><g class="Pathway Reactome_R-HSA-5627117" filter="url(#doubletrue0filter)"><g class="Pathway Reactome_R-HSA-5627117"><rect   width="123" height="57" style="stroke:none"/></g></g><g ><defs><clipPath ><rect x="-61.5" y="-28.5" width="123" height="57" style="stroke:none"/></clipPath></defs><text   transform="translate(61.5,28.5)"     style="fill:#14961e"><tspan   x="0" y="-5.5">RHO GTPases Activate</tspan><tspan   x="0" y="5.5">ROCKs</tspan></text></g></g><g id="dd2c8" class="Protein" transform="translate(377,214)"  name="PAK2" ><rect   width="42" height="22"/><text   transform="translate(21,11)"    >PAK2</text></g><g id="deb3e" class="Metabolite " transform="translate(381,269)"  name="ATP" ><rect   width="42" height="27" style="stroke:#00f"/><text   transform="translate(21,13.5)"     style="fill:#00f">ATP</text></g><g id="e0784" class="Protein" transform="translate(516,505)"  name="p-T508-LIMK1" ><rect   width="98" height="22"/><text   transform="translate(49,11)"    >p-T508-LIMK1</text></g><g id="e0f76" class="Metabolite " transform="translate(380,331)"  name="ADP" ><rect   width="41" height="28" style="stroke:#00f"/><text   transform="translate(20.5,14)"     style="fill:#00f">ADP</text></g><g id="e1009" class="Protein" transform="translate(1092,303)"  name="MYLK(1-1914)" ><rect   width="98" height="22"/><text   transform="translate(49,11)"    >MYLK(1-1914)</text></g><g id="e11c2" class="Complex Reactome_R-HSA-419080" transform="translate(848,602)"  name="Myosin phosphatase" ><g class="Complex Reactome_R-HSA-419080"><use class="Complex Reactome_R-HSA-419080 Node Icon" width="94" height="35" fill="#fff" stroke="#a52a2a" href="#HexagonPathVisio"/></g><g ><defs><clipPath ><rect x="-47" y="-17.5" width="94" height="35" style="stroke:none"/></clipPath></defs><text   transform="translate(47,17.5)"     style="fill:#a52a2a">Myosin phosphatase</text></g></g><g id="e2840" class="Metabolite " transform="translate(567,721)"  name="ATP" ><rect   width="45" height="26" style="stroke:#00f"/><text   transform="translate(22.5,13)"     style="fill:#00f">ATP</text></g><g id="e3949" class="Protein" transform="translate(540,341)"  name="LIMK1" ><rect   width="44" height="22"/><text   transform="translate(22,11)"    >LIMK1</text></g><g id="e5d2b" class="Metabolite " transform="translate(590,374)"  name="ATP" ><rect   width="43" height="26" style="stroke:#00f"/><text   transform="translate(21.5,13)"     style="fill:#00f">ATP</text></g><g id="eb523" class="Complex Reactome_R-HSA-445002" transform="translate(159,279)"  name="PAK1 dimer" ><g class="Complex Reactome_R-HSA-445002"><use class="Complex Reactome_R-HSA-445002 Node Icon" width="78" height="22" fill="#fff" stroke="#a52a2a" href="#HexagonPathVisio"/></g><g ><defs><clipPath ><rect x="-39" y="-11" width="78" height="22" style="stroke:none"/></clipPath></defs><text   transform="translate(39,11)"     style="fill:#a52a2a">PAK1 dimer</text></g></g><g id="ee4be" class="Complex Reactome_R-HSA-419195" transform="translate(977,508)"  name="p-T19,S20-MRLC-smooth muscle/non-muscle myosin II" ><g class="Complex Reactome_R-HSA-419195"><use class="Complex Reactome_R-HSA-419195 Node Icon" width="134" height="64" fill="#fff" stroke="#a52a2a" href="#HexagonPathVisio"/></g><g ><defs><clipPath ><rect x="-67" y="-32" width="134" height="64" style="stroke:none"/></clipPath></defs><text   transform="translate(67,32)"     style="fill:#a52a2a">p-T19,S20-MRLC-smooth muscle/non-muscle myosin II</text></g></g><g id="f29db" class="Complex Reactome_R-HSA-399836" transform="translate(598,224)"  name="p-S,T-PAK1,2,3" ><g class="Complex Reactome_R-HSA-399836"><rect   width="108" height="22" rx="15" ry="15" style="stroke:#a52a2a"/></g><g ><defs><clipPath ><rect x="-54" y="-11" width="108" height="22" style="stroke:none"/></clipPath></defs><text   transform="translate(54,11)"     style="fill:#a52a2a">p-S,T-PAK1,2,3</text></g></g><g id="f71e9" class="Metabolite " transform="translate(563,149)"  name="ADP" ><rect   width="40" height="30" style="stroke:#00f"/><text   transform="translate(20,15)"     style="fill:#00f">ADP</text></g><g id="f847d" class="Complex Reactome_R-HSA-445764" transform="translate(1190,412)"  name="MYLK:Ca2+:CALM1" ><g class="Complex Reactome_R-HSA-445764"><use class="Complex Reactome_R-HSA-445764 Node Icon" width="95" height="38" fill="#fff" stroke="#a52a2a" href="#HexagonPathVisio"/></g><g ><defs><clipPath ><rect x="-47.5" y="-19" width="95" height="38" style="stroke:none"/></clipPath></defs><text   transform="translate(47.5,19)"     style="fill:#a52a2a">MYLK:Ca2+:CALM1</text></g></g><g id="f9b7f" class="Complex Reactome_R-HSA-5669154" transform="translate(99,200)"  name="PAK3 dimer" ><g class="Complex Reactome_R-HSA-5669154"><use class="Complex Reactome_R-HSA-5669154 Node Icon" width="81" height="22" fill="#fff" stroke="#a52a2a" href="#HexagonPathVisio"/></g><g ><defs><clipPath ><rect x="-40.5" y="-11" width="81" height="22" style="stroke:none"/></clipPath></defs><text   transform="translate(40.5,11)"     style="fill:#a52a2a">PAK3 dimer</text></g></g><g id="fbf03" class="Metabolite " transform="translate(930,558)"  name="H2O" ><rect   width="43" height="30" style="stroke:#00f"/><text   transform="translate(21.5,15)"     style="fill:#00f">H2O</text></g><g id="fc1a3" class="Protein" transform="translate(437,250)"  name="CTTN" ><rect   width="42" height="22"/><text   transform="translate(21,11)"    >CTTN</text></g><g id="fcf82" class="Protein" transform="translate(49,251)"  name="NF2" ><rect   width="32" height="22"/><text   transform="translate(16,11)"    >NF2</text></g><g id="ab54f" class="GroupComplex" transform="translate(318,1626)"  ><g class="GroupComplex"><use class="Icon" width="124" height="104" fill="#b4b464" fill-opacity=".1" stroke="grey" href="#Octagon"/><g id="d427a" class="Metabolite " transform="translate(12,12)"  name="GTP" ><rect   width="100" height="20" style="stroke:#00f"/><text   transform="translate(50,10)"     style="fill:#00f">GTP</text></g><g id="df663" class="Protein" transform="translate(12,32)"  name="CDC42" ><rect   width="100" height="20"/><text   transform="translate(50,10)"    >CDC42</text></g><g id="f0d28" class="Protein" transform="translate(12,52)"  name="RAC1" ><rect   width="100" height="20"/><text   transform="translate(50,10)"    >RAC1</text></g><g id="f5caf" class="Protein" transform="translate(12,72)"  name="PAK3" ><rect   width="100" height="20"/><text   transform="translate(50,10)"    >PAK3</text></g></g></g><g id="ac9d1" class="GroupComplex" transform="translate(318,1066)"  ><g class="GroupComplex"><use class="Icon" width="124" height="64" fill="#b4b464" fill-opacity=".1" stroke="grey" href="#Octagon"/><g id="a6c89" class="Protein" transform="translate(12,32)"  name="FLNA" ><rect   width="100" height="20"/><text   transform="translate(50,10)"    >FLNA</text></g><g id="ac430" class="Protein" transform="translate(12,12)"  name="p-S144,T423-PAK1" ><rect   width="100" height="20"/><text   transform="translate(50,10)"    >p-S144,T423-PAK1</text></g></g></g><g id="b1881" class="GroupNone" transform="translate(41,889)"  ><g class="GroupNone"><rect   width="118" height="78" fill-opacity=".1" stroke-dasharray="5,3" style="fill:#b4b464;stroke:grey"/><g id="b3d4d" class="Metabolite " transform="translate(9,9)"  name="GTP" ><rect   width="100" height="20" style="stroke:#00f"/><text   transform="translate(50,10)"     style="fill:#00f">GTP</text></g><g id="e1b8c" class="Protein" transform="translate(9,49)"  name="RAC1" ><rect   width="100" height="20"/><text   transform="translate(50,10)"    >RAC1</text></g><g id="ee434" class="Protein" transform="translate(9,29)"  name="CDC42" ><rect   width="100" height="20"/><text   transform="translate(50,10)"    >CDC42</text></g></g></g><g id="b6d7c" class="GroupComplex" transform="translate(178,1206)"  ><g class="GroupComplex"><use class="Icon" width="124" height="84" fill="#b4b464" fill-opacity=".1" stroke="grey" href="#Octagon"/><g id="b4a43" class="Protein" transform="translate(12,12)"  name="PPP1CB" ><rect   width="100" height="20"/><text   transform="translate(50,10)"    >PPP1CB</text></g><g id="bc5ac" class="Protein" transform="translate(12,32)"  name="PPP1R12B" ><rect   width="100" height="20"/><text   transform="translate(50,10)"    >PPP1R12B</text></g><g id="ee38a" class="Protein" transform="translate(12,52)"  name="p-T696-PPP1R12A" ><rect   width="100" height="20"/><text   transform="translate(50,10)"    >p-T696-PPP1R12A</text></g></g></g><g id="b7cc7" class="GroupComplex" transform="translate(178,926)"  ><g class="GroupComplex"><use class="Icon" width="124" height="164" fill="#b4b464" fill-opacity=".1" stroke="grey" href="#Octagon"/><g id="ad476" class="Protein" transform="translate(12,72)"  name="MYH11" ><rect   width="100" height="20"/><text   transform="translate(50,10)"    >MYH11</text></g><g id="b7db1" class="Protein" transform="translate(12,52)"  name="MYH9" ><rect   width="100" height="20"/><text   transform="translate(50,10)"    >MYH9</text></g><g id="ccfa7" class="Protein" transform="translate(12,12)"  name="MYH10" ><rect   width="100" height="20"/><text   transform="translate(50,10)"    >MYH10</text></g><g id="da1ee" class="Protein" transform="translate(12,92)"  name="MYL6" ><rect   width="100" height="20"/><text   transform="translate(50,10)"    >MYL6</text></g><g id="f34e7" class="Protein" transform="translate(12,132)"  name="p-T19,S20-MYL9" ><rect   width="100" height="20"/><text   transform="translate(50,10)"    >p-T19,S20-MYL9</text></g><g id="f852c" class="Protein" transform="translate(12,32)"  name="MYH14" ><rect   width="100" height="20"/><text   transform="translate(50,10)"    >MYH14</text></g><g id="fac91" class="Protein" transform="translate(12,112)"  name="p-T19,S20-MYL12B" ><rect   width="100" height="20"/><text   transform="translate(50,10)"    >p-T19,S20-MYL12B</text></g></g></g><g id="baf4a" class="GroupComplex" transform="translate(38,1266)"  ><g class="GroupComplex"><use class="Icon" width="124" height="164" fill="#b4b464" fill-opacity=".1" stroke="grey" href="#Octagon"/><g id="abec3" class="Protein" transform="translate(12,112)"  name="p-T19-MYL12B" ><rect   width="100" height="20"/><text   transform="translate(50,10)"    >p-T19-MYL12B</text></g><g id="c2c88" class="Protein" transform="translate(12,52)"  name="MYH9" ><rect   width="100" height="20"/><text   transform="translate(50,10)"    >MYH9</text></g><g id="ce86f" class="Protein" transform="translate(12,132)"  name="p-T19-MYL9" ><rect   width="100" height="20"/><text   transform="translate(50,10)"    >p-T19-MYL9</text></g><g id="d5e99" class="Protein" transform="translate(12,12)"  name="MYH10" ><rect   width="100" height="20"/><text   transform="translate(50,10)"    >MYH10</text></g><g id="d65dd" class="Protein" transform="translate(12,32)"  name="MYH14" ><rect   width="100" height="20"/><text   transform="translate(50,10)"    >MYH14</text></g><g id="e2d44" class="Protein" transform="translate(12,72)"  name="MYH11" ><rect   width="100" height="20"/><text   transform="translate(50,10)"    >MYH11</text></g><g id="f1e5d" class="Protein" transform="translate(12,92)"  name="MYL6" ><rect   width="100" height="20"/><text   transform="translate(50,10)"    >MYL6</text></g></g></g><g id="bb01c" class="GroupComplex" transform="translate(178,1106)"  ><g class="GroupComplex"><use class="Icon" width="124" height="84" fill="#b4b464" fill-opacity=".1" stroke="grey" href="#Octagon"/><g id="ad803" class="Protein" transform="translate(12,32)"  name="PPP1R12A" ><rect   width="100" height="20"/><text   transform="translate(50,10)"    >PPP1R12A</text></g><g id="c498a" class="Protein" transform="translate(12,12)"  name="PPP1CB" ><rect   width="100" height="20"/><text   transform="translate(50,10)"    >PPP1CB</text></g><g id="d8ce2" class="Protein" transform="translate(12,52)"  name="PPP1R12B" ><rect   width="100" height="20"/><text   transform="translate(50,10)"    >PPP1R12B</text></g></g></g><g id="bc1a1" class="GroupComplex" transform="translate(318,1206)"  ><g class="GroupComplex"><use class="Icon" width="124" height="44" fill="#b4b464" fill-opacity=".1" stroke="grey" href="#Octagon"/><g id="cf15b" class="Protein" transform="translate(12,12)"  name="p-S2152-FLNA" ><rect   width="100" height="20"/><text   transform="translate(50,10)"    >p-S2152-FLNA</text></g></g></g><g id="c261a" class="GroupNone" transform="translate(461,929)"  ><g class="GroupNone"><rect   width="118" height="138" fill-opacity=".1" stroke-dasharray="5,3" style="fill:#b4b464;stroke:grey"/><g id="a99fc" class="Protein" transform="translate(9,69)"  name="PAK1" ><rect   width="100" height="20"/><text   transform="translate(50,10)"    >PAK1</text></g><g id="bceb2" class="Protein" transform="translate(9,109)"  name="PAK3" ><rect   width="100" height="20"/><text   transform="translate(50,10)"    >PAK3</text></g><g id="c70fd" class="Metabolite " transform="translate(9,9)"  name="GTP" ><rect   width="100" height="20" style="stroke:#00f"/><text   transform="translate(50,10)"     style="fill:#00f">GTP</text></g><g id="c86b2" class="Protein" transform="translate(9,29)"  name="CDC42" ><rect   width="100" height="20"/><text   transform="translate(50,10)"    >CDC42</text></g><g id="e1517" class="Protein" transform="translate(9,89)"  name="PAK2" ><rect   width="100" height="20"/><text   transform="translate(50,10)"    >PAK2</text></g><g id="e2983" class="Protein" transform="translate(9,49)"  name="RAC1" ><rect   width="100" height="20"/><text   transform="translate(50,10)"    >RAC1</text></g></g></g><g id="c7fc8" class="GroupComplex" transform="translate(318,1266)"  ><g class="GroupComplex"><use class="Icon" width="124" height="104" fill="#b4b464" fill-opacity=".1" stroke="grey" href="#Octagon"/><g id="a2b1f" class="Protein" transform="translate(12,72)"  name="PAK1" ><rect   width="100" height="20"/><text   transform="translate(50,10)"    >PAK1</text></g><g id="e7221" class="Protein" transform="translate(12,52)"  name="RAC1" ><rect   width="100" height="20"/><text   transform="translate(50,10)"    >RAC1</text></g><g id="ef094" class="Protein" transform="translate(12,32)"  name="CDC42" ><rect   width="100" height="20"/><text   transform="translate(50,10)"    >CDC42</text></g><g id="febdb" class="Metabolite " transform="translate(12,12)"  name="GTP" ><rect   width="100" height="20" style="stroke:#00f"/><text   transform="translate(50,10)"     style="fill:#00f">GTP</text></g></g></g><g id="c8584" class="GroupComplex" transform="translate(178,1306)"  ><g class="GroupComplex"><use class="Icon" width="124" height="64" fill="#b4b464" fill-opacity=".1" stroke="grey" href="#Octagon"/><g id="aabed" class="Metabolite " transform="translate(12,12)"  name="Ca2+" ><rect   width="100" height="20" style="stroke:#00f"/><text   transform="translate(50,10)"     style="fill:#00f">Ca2+</text></g><g id="c3aef" class="Protein" transform="translate(12,32)"  name="CALM1" ><rect   width="100" height="20"/><text   transform="translate(50,10)"    >CALM1</text></g></g></g><g id="d5ff5" class="GroupComplex" transform="translate(318,1566)"  ><g class="GroupComplex"><use class="Icon" width="124" height="44" fill="#b4b464" fill-opacity=".1" stroke="grey" href="#Octagon"/><g id="c1493" class="Protein" transform="translate(12,12)"  name="PAK3" ><rect   width="100" height="20"/><text   transform="translate(50,10)"    >PAK3</text></g></g></g><g id="d782b" class="GroupComplex" transform="translate(318,1386)"  ><g class="GroupComplex"><use class="Icon" width="124" height="44" fill="#b4b464" fill-opacity=".1" stroke="grey" href="#Octagon"/><g id="ce315" class="Protein" transform="translate(12,12)"  name="PAK2" ><rect   width="100" height="20"/><text   transform="translate(50,10)"    >PAK2</text></g></g></g><g id="e5de7" class="GroupNone" transform="translate(41,989)"  ><g class="GroupNone"><rect   width="118" height="78" fill-opacity=".1" stroke-dasharray="5,3" style="fill:#b4b464;stroke:grey"/><g id="adbe3" class="Protein" transform="translate(9,49)"  name="p-S154,T436-PAK3" ><rect   width="100" height="20"/><text   transform="translate(50,10)"    >p-S154,T436-PAK3</text></g><g id="c99d2" class="Protein" transform="translate(9,9)"  name="p-S144,T423-PAK1" ><rect   width="100" height="20"/><text   transform="translate(50,10)"    >p-S144,T423-PAK1</text></g><g id="cdc0a" class="Protein" transform="translate(9,29)"  name="p-S141,T402-PAK2" ><rect   width="100" height="20"/><text   transform="translate(50,10)"    >p-S141,T402-PAK2</text></g></g></g><g id="ea37e" class="GroupComplex" transform="translate(318,986)"  ><g class="GroupComplex"><use class="Icon" width="124" height="64" fill="#b4b464" fill-opacity=".1" stroke="grey" href="#Octagon"/><g id="b9f91" class="Protein" transform="translate(12,32)"  name="NF2" ><rect   width="100" height="20"/><text   transform="translate(50,10)"    >NF2</text></g><g id="d795b" class="Protein" transform="translate(12,12)"  name="PAK1" ><rect   width="100" height="20"/><text   transform="translate(50,10)"    >PAK1</text></g></g></g><g id="ec165" class="GroupComplex" transform="translate(38,1086)"  ><g class="GroupComplex"><use class="Icon" width="124" height="164" fill="#b4b464" fill-opacity=".1" stroke="grey" href="#Octagon"/><g id="a7592" class="Protein" transform="translate(12,132)"  name="MYL12B" ><rect   width="100" height="20"/><text   transform="translate(50,10)"    >MYL12B</text></g><g id="b7757" class="Protein" transform="translate(12,112)"  name="MYL9" ><rect   width="100" height="20"/><text   transform="translate(50,10)"    >MYL9</text></g><g id="b970e" class="Protein" transform="translate(12,92)"  name="MYL6" ><rect   width="100" height="20"/><text   transform="translate(50,10)"    >MYL6</text></g><g id="d46b2" class="Protein" transform="translate(12,12)"  name="MYH10" ><rect   width="100" height="20"/><text   transform="translate(50,10)"    >MYH10</text></g><g id="d588c" class="Protein" transform="translate(12,52)"  name="MYH9" ><rect   width="100" height="20"/><text   transform="translate(50,10)"    >MYH9</text></g><g id="e32db" class="Protein" transform="translate(12,32)"  name="MYH14" ><rect   width="100" height="20"/><text   transform="translate(50,10)"    >MYH14</text></g><g id="f54aa" class="Protein" transform="translate(12,72)"  name="MYH11" ><rect   width="100" height="20"/><text   transform="translate(50,10)"    >MYH11</text></g></g></g><g id="ed33f" class="GroupComplex" transform="translate(318,1446)"  ><g class="GroupComplex"><use class="Icon" width="124" height="104" fill="#b4b464" fill-opacity=".1" stroke="grey" href="#Octagon"/><g id="a2850" class="Metabolite " transform="translate(12,12)"  name="GTP" ><rect   width="100" height="20" style="stroke:#00f"/><text   transform="translate(50,10)"     style="fill:#00f">GTP</text></g><g id="c45a0" class="Protein" transform="translate(12,52)"  name="RAC1" ><rect   width="100" height="20"/><text   transform="translate(50,10)"    >RAC1</text></g><g id="d3064" class="Protein" transform="translate(12,72)"  name="PAK2" ><rect   width="100" height="20"/><text   transform="translate(50,10)"    >PAK2</text></g><g id="fd9ca" class="Protein" transform="translate(12,32)"  name="CDC42" ><rect   width="100" height="20"/><text   transform="translate(50,10)"    >CDC42</text></g></g></g><g id="f2977" class="GroupComplex" transform="translate(318,1146)"  ><g class="GroupComplex"><use class="Icon" width="124" height="44" fill="#b4b464" fill-opacity=".1" stroke="grey" href="#Octagon"/><g id="f8d3a" class="Protein" transform="translate(12,12)"  name="FLNA" ><rect   width="100" height="20"/><text   transform="translate(50,10)"    >FLNA</text></g></g></g><g id="f4996" class="GroupComplex" transform="translate(318,926)"  ><g class="GroupComplex"><use class="Icon" width="124" height="44" fill="#b4b464" fill-opacity=".1" stroke="grey" href="#Octagon"/><g id="dca36" class="Protein" transform="translate(12,12)"  name="PAK1" ><rect   width="100" height="20"/><text   transform="translate(50,10)"    >PAK1</text></g></g></g><g id="fdd89" class="GroupNone" transform="translate(181,1489)"  ><g class="GroupNone"><rect   width="118" height="58" fill-opacity=".1" stroke-dasharray="5,3" style="fill:#b4b464;stroke:grey"/><g id="a65a7" class="Protein" transform="translate(9,9)"  name="p-S141,T402-PAK2" ><rect   width="100" height="20"/><text   transform="translate(50,10)"    >p-S141,T402-PAK2</text></g><g id="c33ab" class="Protein" transform="translate(9,29)"  name="p-S144,T423-PAK1" ><rect   width="100" height="20"/><text   transform="translate(50,10)"    >p-S144,T423-PAK1</text></g></g></g><g id="ff55b" class="GroupComplex" transform="translate(178,1386)"  ><g class="GroupComplex"><use class="Icon" width="124" height="84" fill="#b4b464" fill-opacity=".1" stroke="grey" href="#Octagon"/><g id="c649a" class="Protein" transform="translate(12,52)"  name="CALM1" ><rect   width="100" height="20"/><text   transform="translate(50,10)"    >CALM1</text></g><g id="e83dd" class="Metabolite " transform="translate(12,32)"  name="Ca2+" ><rect   width="100" height="20" style="stroke:#00f"/><text   transform="translate(50,10)"     style="fill:#00f">Ca2+</text></g><g id="e85a1" class="Protein" transform="translate(12,12)"  name="MYLK(1-1914)" ><rect   width="100" height="20"/><text   transform="translate(50,10)"    >MYLK(1-1914)</text></g></g></g></g></g></g></svg>