<?xml version="1.0" encoding="UTF-8"?>
<svg xmlns="http://www.w3.org/2000/svg" id="-svg" class="Diagram"  baseProfile="full" prefix="schema:http://schema.org/" preserveAspectRatio="xMidYMid"  version="1.1"><defs><g id="filter-defs"><filter id="doubletrue0filter" x="-50%" y="-50%" width="200%" height="200%"><feMorphology in="SourceGraphic" operator="dilate" radius="1" result="in2Double"/><feMorphology in="SourceGraphic" radius="1" result="inDouble"/><feComposite in="inDouble" in2="in2Double" operator="atop" result="doubleResult"/></filter></g><g id="icon-defs"><symbol id="HexagonPathVisio" class=" Icon HexagonPathVisio" x="0" y="8" overflow="visible" preserveAspectRatio="none" viewBox="0 8 100 86"><desc>HexagonPathVisio</desc><g transform="scale(1 0.85)"><path d="m1.42 51.00 21.07-42.14h56.19l21.07 42.14-21.07 42.15h-56.19l-21.07-42.15z" stroke="currentColor" vector-effect="non-scaling-stroke"/></g></symbol><symbol id="Octagon" class=" Icon Octagon" x="0" y="0" overflow="visible" preserveAspectRatio="none" viewBox="0 0 100 100"><desc>Octagon</desc><path d="m0 25 25-25h50l25 25v50l-25 25h-50l-25-25z" vector-effect="non-scaling-stroke"/></symbol></g><g id="marker-defs"><marker id="mea" markerHeight="12" markerWidth="12" orient="auto" preserveAspectRatio="none" refX="12" refY="6" viewBox="0 0 12 12"><g id="g-mea" transform=""><g transform="rotate(180 6 6)"><rect y="5.4" width="2" height="1.2" style="stroke:#fff"/><polygon points="12 11 0 6 12 1" stroke-width="0"/></g></g></marker><marker id="markerendtbar000" markerHeight="20" markerWidth="10" orient="auto" preserveAspectRatio="none" refX="10" refY="10" viewBox="0 0 10 20"><g id="g-markerendtbar000" transform=""><g transform="rotate(180 5 10)"><rect y="9" width="8" height="2" style="stroke:none"/><line x="0" y="0" width="12" height="12" x1="7" x2="7" y2="20" stroke="#000" stroke-width="1.8"/></g></g></marker></g></defs><g id="viewport-20220102141820487" class="svg-pan-zoom_viewport" transform="matrix(0.52 0 0 0.52 268.2 0)" style="transform:matrix(0.52, 0, 0, 0.52, 268.20, 0)"><style>svg.Diagram {font-family: 'Liberation Sans', Arial, sans-serif; }.Diagram path {fill: transparent;stroke: #000;marker-end: url(#mea);}.Diagram symbol path {fill: inherit;stroke: inherit;stroke-width: inherit;marker-end: inherit;}.Diagram rect {fill: #fff;stroke: #000;}.Diagram text {dominant-baseline: central;overflow: hidden;text-anchor: middle;fill: #000;font-size: 10px;}</style><style type="text/css">.Viewport .textContent {
  pointer-events: none;
  stroke-width: 0px;
}

					.Viewport.Icon {
  fill: white;
}

/* Hide the InfoBox */
.Viewport.textContent {
  font-size: 0;
}

.textContent {
  stroke: none;
}

.DataNode {
  stroke-miterlimit: 1;
  pointer-events: auto;
}

.DataNode:hover {
  cursor: pointer;
}

/* TODO should this apply to things other than DataNodes? */
.DataNode.textContent {
  pointer-events: none;
}

.DataNode.Highlighted {
  opacity: 0.6;
  stroke-width: 0px;
}

marker {
  /* this is what should work per the spec
  stroke-dasharray: none; */
  /* but I need to add this to make it work in Safari */
  stroke-dasharray: 9999999999999999999999999;
}

.Citation.Icon {
  fill: none;
  stroke-width: 0px;
}

.Citation.textContent {
  text-align: center;
  vertical-align: top;
  font-size: 7px;
  fill: #999;
  fill-opacity: 1;
  stroke: none;
}</style><g id="WP3400" class="Pathway http___identifiers_org_pw_PW_0000003 Viewport"  name="Name: TRAIL  signaling Organism: Homo sapiens" ><g class="Pathway http___identifiers_org_pw_PW_0000003 Viewport"><rect   width="1277" height="1374" style="stroke:none"/><g id="abeef" class="Reactome_R-HSA-141139"  ><path    d="m412 76 114-1" style="marker-end:none"/><g id="eef62" class="AB" transform="translate(412,76)"  ><g class="AB"/></g><g id="fb24f" class="AB" transform="translate(524.86,75.01)"  ><g class="AB"/></g></g><g id="ad0d0" class="Reactome_R-HSA-141139"  ><path    d="m435 97-23-21" style="marker-end:none"/></g><g id="b8048" class="Reactome_R-HSA-75146"  ><path    d="m996 192 141 55" style="marker-end:none"/><g id="b129a" class="AB" transform="translate(996,192)"  ><g class="AB"/></g><g id="dc199" class="AB" transform="translate(1135.6 246.45)"  ><g class="AB"/></g></g><g id="af8ed" class="Reactome_R-HSA-75146"  ><path    d="m954 252 42-60" style="marker-end:none"/></g><g id="b2b97" class="Reactome_R-HSA-75146"  ><path    d="m1137 247-23 30"/></g><g id="b8c60" class="Reactome_R-HSA-75187"  ><path    d="m710 119 106-19" style="marker-end:none"/><g id="fd7e9" class="AB" transform="translate(710,119)"  ><g class="AB"/></g><g id="b9021" class="AB" transform="translate(814.94,100.19)"  ><g class="AB"/></g><g id="e0d3f" class="AB" transform="translate(763,109.5)"  ><g class="AB"/></g></g><g id="ad870" class="Reactome_R-HSA-75187"  ><path    d="m747 183-4-64" style="marker-end:url(#markerendtbar000)"/></g><g id="c1952" class="Reactome_R-HSA-141139"  ><path    d="m526 75 3 8"/></g><g id="c6242" class="Reactome_R-HSA-75146"  ><path    d="m947 85 49 107" style="marker-end:none"/></g><g id="c9dcf" class="Reactome_R-HSA-5635741"  ><path    d="m307 648 95 1" style="marker-end:none"/><g id="fc734" class="AB" transform="translate(307,648)"  ><g class="AB"/></g><g id="ecf4e" class="AB" transform="translate(401.05,648.99)"  ><g class="AB"/></g></g><g id="cf040" class="Reactome_R-HSA-75238"  ><path    d="m221 66 83 14" style="marker-end:none"/><g id="b67ee" class="AB" transform="translate(221,66)"  ><g class="AB"/></g><g id="c500d" class="AB" transform="translate(303.17,79.86)"  ><g class="AB"/></g></g><g id="c518d" class="Reactome_R-HSA-75238"  ><path    d="m93 42 128 24" style="marker-end:none"/></g><g id="c03c7" class="Reactome_R-HSA-75238"  ><path    d="m304 80 3 17"/></g><g id="cf4a3" class="Reactome_R-HSA-75187"  ><path    d="m637 159 73-40" style="marker-end:none"/></g><g id="d2df1" class="Reactome_R-HSA-75187"  ><path    d="m657 83 53 36" style="marker-end:none"/></g><g id="d3e4f" class="Reactome_R-HSA-5635741"  ><path    d="m166 115 141 533" style="marker-end:none"/></g><g id="e15dc" class="Reactome_R-HSA-141316"  ><path    d="m975 142 110-25" style="marker-end:none"/><g id="d254e" class="AB" transform="translate(975,142)"  ><g class="AB"/></g><g id="b33da" class="AB" transform="translate(1083.9 117.25)"  ><g class="AB"/></g></g><g id="b149c" class="Reactome_R-HSA-141316"  ><path    d="m941 198 34-56" style="marker-end:none"/></g><g id="d6bb2" class="Reactome_R-HSA-141316"  ><path    d="m947 85 28 57" style="marker-end:none"/></g><g id="a5261" class="Reactome_R-HSA-141316"  ><path    d="m1085 117-17-28"/></g><g id="e9104" class="Reactome_R-HSA-75187"  ><path    d="m816 100 3-15"/></g><g id="eaa78" class="Reactome_R-HSA-5635741"  ><path    d="m402 649 6 18"/></g><g id="eca55" class="Reactome_R-HSA-5635741"  ><path    d="m289 675 18-27" style="marker-end:none"/></g><g id="f2257" class="Reactome_R-HSA-75238"  ><path    d="m215 98 6-32" style="marker-end:none"/></g><g id="b8b24" class="GroupGroup" transform="translate(83,82)"  ><g class="GroupGroup"><g id="a9ec0" class="" transform="translate(8,8)"  ><g class=""><rect   transform="matrix(1.00 0 0 0.99 1.50 1.49)" width="1117" height="589" rx="15" ry="15" stroke-width="3" style="fill:transparent;stroke:#c0c0c0"/></g></g><g id="dd422" class="Label" transform="translate(57,495)"  name="cytosol" ><g class="Label"/><text   transform="translate(32,16.5)"    >cytosol</text></g></g></g><g id="a0a76" class="Complex Reactome_R-HSA-5637468" transform="translate(1114,250)"  name="TNFSF10:TNFRSF10A,B:FADD:CASP8(1-479)" ><g class="Complex Reactome_R-HSA-5637468"><use class="Complex Reactome_R-HSA-5637468 Node Icon" width="133" height="54" fill="#fff" stroke="#a52a2a" href="#HexagonPathVisio"/></g><g ><defs><clipPath ><rect x="-66.5" y="-27" width="133" height="54" style="stroke:none"/></clipPath></defs><text   transform="translate(66.5,27)"     style="fill:#a52a2a">TNFSF10:TNFRSF10A,B:FADD:CASP8(1-479)</text></g></g><g id="bb6b9" class="Complex Reactome_R-HSA-5637463" transform="translate(1068,64)"  name="TNFSF10:TNFRSF10A,B:FADD:CASP10(1-521)" ><g class="Complex Reactome_R-HSA-5637463"><use class="Complex Reactome_R-HSA-5637463 Node Icon" width="128" height="50" fill="#fff" stroke="#a52a2a" href="#HexagonPathVisio"/></g><g ><defs><clipPath ><rect x="-64" y="-25" width="128" height="50" style="stroke:none"/></clipPath></defs><text   transform="translate(64,25)"     style="fill:#a52a2a">TNFSF10:TNFRSF10A,B:FADD:CASP10(1-521)</text></g></g><g id="bfdca" class="Protein" transform="translate(25,30)"  name="TNFSF10" ><rect   width="69" height="24"/><text   transform="translate(34.5,12)"    >TNFSF10</text></g><g id="c6ad5" class="Protein" transform="translate(846,242)"  name="CASP8(1-479)" ><rect   width="108" height="20"/><text   transform="translate(54,10)"    >CASP8(1-479)</text></g><g id="ce7df" class="Protein" transform="translate(197,665)"  name="TNFRSF10D" ><rect   width="92" height="21"/><text   transform="translate(46,10.5)"    >TNFRSF10D</text></g><g id="ce898" class="Protein" transform="translate(827,188)"  name="CASP10(1-521)" ><rect   width="115" height="20"/><text   transform="translate(57.5,10)"    >CASP10(1-521)</text></g><g id="cfe79" class="Protein" transform="translate(585,148)"  name="FADD" ><rect   width="52" height="22"/><text   transform="translate(26,11)"    >FADD</text></g><g id="d50d5" class="Complex Reactome_R-HSA-5637469" transform="translate(529,60)"  name="TNFSF10:TNFRSF10A,B Trimer" ><g class="Complex Reactome_R-HSA-5637469"><use class="Complex Reactome_R-HSA-5637469 Node Icon" width="128" height="47" fill="#fff" stroke="#a52a2a" href="#HexagonPathVisio"/></g><g ><defs><clipPath ><rect x="-64" y="-23.5" width="128" height="47" style="stroke:none"/></clipPath></defs><text   transform="translate(64,23.5)"     style="fill:#a52a2a"><tspan   x="0" y="-5.5">TNFSF10:TNFRSF10A,B</tspan><tspan   x="0" y="5.5">Trimer</tspan></text></g></g><g id="db213" class="Complex Reactome_R-HSA-5635735" transform="translate(408,649)"  name="TNFRSF10A,B:TNFRSF10D" ><g class="Complex Reactome_R-HSA-5635735"><rect   width="114" height="37" rx="15" ry="15" style="stroke:#a52a2a"/></g><g ><defs><clipPath ><rect x="-57" y="-18.5" width="114" height="37" style="stroke:none"/></clipPath></defs><text   transform="translate(57,18.5)"     style="fill:#a52a2a">TNFRSF10A,B:TNFRSF10D</text></g></g><g id="e0725" class="Complex Reactome_R-HSA-5637464" transform="translate(819,67)"  name="TNFSF10:TNFRSF10A,B:FADD" ><g class="Complex Reactome_R-HSA-5637464"><use class="Complex Reactome_R-HSA-5637464 Node Icon" width="128" height="36" fill="#fff" stroke="#a52a2a" href="#HexagonPathVisio"/></g><g ><defs><clipPath ><rect x="-64" y="-18" width="128" height="36" style="stroke:none"/></clipPath></defs><text   transform="translate(64,18)"     style="fill:#a52a2a">TNFSF10:TNFRSF10A,B:FADD</text></g></g><g id="e5951" class="Complex Reactome_R-HSA-5637465" transform="translate(307,79)"  name="TNFSF10:TNFRSF10A,B" ><g class="Complex Reactome_R-HSA-5637465"><use class="Complex Reactome_R-HSA-5637465 Node Icon" width="128" height="36" fill="#fff" stroke="#a52a2a" href="#HexagonPathVisio"/></g><g ><defs><clipPath ><rect x="-64" y="-18" width="128" height="36" style="stroke:none"/></clipPath></defs><text   transform="translate(64,18)"     style="fill:#a52a2a">TNFSF10:TNFRSF10A,B</text></g></g><g id="f06bd" class="Protein" transform="translate(681,183)"  name="CFLAR(1-376)" ><rect   width="132" height="29"/><text   transform="translate(66,14.5)"    >CFLAR(1-376)</text></g><g id="f4457" class="Complex Reactome_R-HSA-5634815" transform="translate(117,81)"  name="TNFRSF10A,TNFRSF10B" ><g class="Complex Reactome_R-HSA-5634815"><rect   width="99" height="35" rx="15" ry="15" style="stroke:#a52a2a"/></g><g ><defs><clipPath ><rect x="-49.5" y="-17.5" width="99" height="35" style="stroke:none"/></clipPath></defs><text   transform="translate(49.5,17.5)"     style="fill:#a52a2a">TNFRSF10A,TNFRSF10B</text></g></g><g id="fc307" class="Pathway Reactome_R-HSA-140534" transform="translate(964,518)"  name="Caspase activation via Death Receptors in the presence of ligand" ><g class="Pathway Reactome_R-HSA-140534" filter="url(#doubletrue0filter)"><g class="Pathway Reactome_R-HSA-140534"><rect   width="166" height="79" style="stroke:none"/></g></g><g ><defs><clipPath ><rect x="-83" y="-39.5" width="166" height="79" style="stroke:none"/></clipPath></defs><text   transform="translate(83,39.5)"     style="fill:#14961e"><tspan   x="0" y="-16.5">Caspase activation</tspan><tspan   x="0" y="-5.5">via Death Receptors</tspan><tspan   x="0" y="5.5">in the presence of</tspan><tspan   x="0" y="16.5">ligand</tspan></text></g></g><g id="a2e82" class="GroupComplex" transform="translate(38,1132)"  ><g class="GroupComplex"><use class="Icon" width="124" height="124" fill="#b4b464" fill-opacity=".1" stroke="grey" href="#Octagon"/><g id="c8fa1" class="Protein" transform="translate(12,32)"  name="FADD" ><rect   width="100" height="20"/><text   transform="translate(50,10)"    >FADD</text></g><g id="cd7b3" class="Protein" transform="translate(12,52)"  name="TNFSF10" ><rect   width="100" height="20"/><text   transform="translate(50,10)"    >TNFSF10</text></g><g id="d770b" class="Protein" transform="translate(12,12)"  name="CASP8(1-479)" ><rect   width="100" height="20"/><text   transform="translate(50,10)"    >CASP8(1-479)</text></g><g id="dd133" class="Protein" transform="translate(12,72)"  name="TNFRSF10A" ><rect   width="100" height="20"/><text   transform="translate(50,10)"    >TNFRSF10A</text></g><g id="eef18" class="Protein" transform="translate(12,92)"  name="TNFRSF10B" ><rect   width="100" height="20"/><text   transform="translate(50,10)"    >TNFRSF10B</text></g></g></g><g id="b44a7" class="GroupComplex" transform="translate(38,872)"  ><g class="GroupComplex"><use class="Icon" width="124" height="104" fill="#b4b464" fill-opacity=".1" stroke="grey" href="#Octagon"/><g id="c883d" class="Protein" transform="translate(12,72)"  name="TNFRSF10B" ><rect   width="100" height="20"/><text   transform="translate(50,10)"    >TNFRSF10B</text></g><g id="d9376" class="Protein" transform="translate(12,52)"  name="TNFRSF10A" ><rect   width="100" height="20"/><text   transform="translate(50,10)"    >TNFRSF10A</text></g><g id="eb9c6" class="Protein" transform="translate(12,12)"  name="FADD" ><rect   width="100" height="20"/><text   transform="translate(50,10)"    >FADD</text></g><g id="fd873" class="Protein" transform="translate(12,32)"  name="TNFSF10" ><rect   width="100" height="20"/><text   transform="translate(50,10)"    >TNFSF10</text></g></g></g><g id="bbb02" class="GroupComplex" transform="translate(38,992)"  ><g class="GroupComplex"><use class="Icon" width="124" height="124" fill="#b4b464" fill-opacity=".1" stroke="grey" href="#Octagon"/><g id="a0fa2" class="Protein" transform="translate(12,92)"  name="TNFRSF10B" ><rect   width="100" height="20"/><text   transform="translate(50,10)"    >TNFRSF10B</text></g><g id="af215" class="Protein" transform="translate(12,52)"  name="TNFSF10" ><rect   width="100" height="20"/><text   transform="translate(50,10)"    >TNFSF10</text></g><g id="b4d50" class="Protein" transform="translate(12,12)"  name="CASP10(1-521)" ><rect   width="100" height="20"/><text   transform="translate(50,10)"    >CASP10(1-521)</text></g><g id="b95ac" class="Protein" transform="translate(12,72)"  name="TNFRSF10A" ><rect   width="100" height="20"/><text   transform="translate(50,10)"    >TNFRSF10A</text></g><g id="e50de" class="Protein" transform="translate(12,32)"  name="FADD" ><rect   width="100" height="20"/><text   transform="translate(50,10)"    >FADD</text></g></g></g><g id="c92ad" class="GroupNone" transform="translate(41,695)"  ><g class="GroupNone"><rect   width="118" height="58" fill-opacity=".1" stroke-dasharray="5,3" style="fill:#b4b464;stroke:grey"/><g id="c5d18" class="Protein" transform="translate(9,9)"  name="TNFRSF10A" ><rect   width="100" height="20"/><text   transform="translate(50,10)"    >TNFRSF10A</text></g><g id="fea32" class="Protein" transform="translate(9,29)"  name="TNFRSF10B" ><rect   width="100" height="20"/><text   transform="translate(50,10)"    >TNFRSF10B</text></g></g></g><g id="d81e4" class="GroupComplex" transform="translate(38,772)"  ><g class="GroupComplex"><use class="Icon" width="124" height="84" fill="#b4b464" fill-opacity=".1" stroke="grey" href="#Octagon"/><g id="c66ee" class="Protein" transform="translate(12,52)"  name="TNFRSF10B" ><rect   width="100" height="20"/><text   transform="translate(50,10)"    >TNFRSF10B</text></g><g id="eb16d" class="Protein" transform="translate(12,12)"  name="TNFSF10" ><rect   width="100" height="20"/><text   transform="translate(50,10)"    >TNFSF10</text></g><g id="fd42b" class="Protein" transform="translate(12,32)"  name="TNFRSF10A" ><rect   width="100" height="20"/><text   transform="translate(50,10)"    >TNFRSF10A</text></g></g></g><g id="dfa7e" class="GroupNone" transform="translate(181,735)"  ><g class="GroupNone"><rect   width="118" height="78" fill-opacity=".1" stroke-dasharray="5,3" style="fill:#b4b464;stroke:grey"/><g id="ae659" class="Protein" transform="translate(9,49)"  name="TNFRSF10B" ><rect   width="100" height="20"/><text   transform="translate(50,10)"    >TNFRSF10B</text></g><g id="d39b5" class="Protein" transform="translate(9,29)"  name="TNFRSF10A" ><rect   width="100" height="20"/><text   transform="translate(50,10)"    >TNFRSF10A</text></g><g id="e665d" class="Protein" transform="translate(9,9)"  name="TNFRSF10D" ><rect   width="100" height="20"/><text   transform="translate(50,10)"    >TNFRSF10D</text></g></g></g><g id="faa4f" class="GroupComplex" transform="translate(38,1272)"  ><g class="GroupComplex"><use class="Icon" width="124" height="84" fill="#b4b464" fill-opacity=".1" stroke="grey" href="#Octagon"/><g id="ac3fa" class="Protein" transform="translate(12,12)"  name="TNFSF10" ><rect   width="100" height="20"/><text   transform="translate(50,10)"    >TNFSF10</text></g><g id="ace45" class="Protein" transform="translate(12,52)"  name="TNFRSF10B" ><rect   width="100" height="20"/><text   transform="translate(50,10)"    >TNFRSF10B</text></g><g id="b498d" class="Protein" transform="translate(12,32)"  name="TNFRSF10A" ><rect   width="100" height="20"/><text   transform="translate(50,10)"    >TNFRSF10A</text></g></g></g></g></g></g></svg>