<?xml version="1.0" encoding="UTF-8"?>
<svg xmlns="http://www.w3.org/2000/svg" id="-svg" class="Diagram"  baseProfile="full" prefix="schema:http://schema.org/" preserveAspectRatio="xMidYMid"  version="1.1"><defs><g id="icon-defs"><symbol id="HexagonPathVisio" class=" Icon HexagonPathVisio" x="0" y="8" overflow="visible" preserveAspectRatio="none" viewBox="0 8 100 86"><desc>HexagonPathVisio</desc><g transform="scale(1 0.85)"><path d="m1.42 51.00 21.07-42.14h56.19l21.07 42.14-21.07 42.15h-56.19l-21.07-42.15z" stroke="currentColor" vector-effect="non-scaling-stroke"/></g></symbol><symbol id="Octagon" class=" Icon Octagon" x="0" y="0" overflow="visible" preserveAspectRatio="none" viewBox="0 0 100 100"><desc>Octagon</desc><path d="m0 25 25-25h50l25 25v50l-25 25h-50l-25-25z" vector-effect="non-scaling-stroke"/></symbol></g><g id="marker-defs"><marker id="memcatalysis000" markerHeight="12" markerWidth="12" orient="auto" preserveAspectRatio="none" refX="12" refY="6" viewBox="0 0 12 12"><g id="g-memcatalysis000" transform=""><g transform="rotate(180 6 6)"><circle cx="6" cy="6" r="5.3px" fill="#fff" stroke="#000"/></g></g></marker><marker id="mea" markerHeight="12" markerWidth="12" orient="auto" preserveAspectRatio="none" refX="12" refY="6" viewBox="0 0 12 12"><g id="g-mea" transform=""><g transform="rotate(180 6 6)"><rect y="5.4" width="2" height="1.2" style="stroke:#fff"/><polygon points="12 11 0 6 12 1" stroke-width="0"/></g></g></marker></g></defs><g id="viewport-20220102141912142" class="svg-pan-zoom_viewport" transform="matrix(0.36 0 0 0.36 429.61 0)" style="transform:matrix(0.36, 0, 0, 0.36, 429.61, 0)"><style>svg.Diagram {font-family: 'Liberation Sans', Arial, sans-serif; }.Diagram path {fill: transparent;stroke: #000;marker-end: url(#mea);}.Diagram symbol path {fill: inherit;stroke: inherit;stroke-width: inherit;marker-end: inherit;}.Diagram rect {fill: #fff;stroke: #000;}.Diagram text {dominant-baseline: central;overflow: hidden;text-anchor: middle;fill: #000;font-size: 10px;}</style><style type="text/css">.Viewport .textContent {
  pointer-events: none;
  stroke-width: 0px;
}

					.Viewport.Icon {
  fill: white;
}

/* Hide the InfoBox */
.Viewport.textContent {
  font-size: 0;
}

.textContent {
  stroke: none;
}

.DataNode {
  stroke-miterlimit: 1;
  pointer-events: auto;
}

.DataNode:hover {
  cursor: pointer;
}

/* TODO should this apply to things other than DataNodes? */
.DataNode.textContent {
  pointer-events: none;
}

.DataNode.Highlighted {
  opacity: 0.6;
  stroke-width: 0px;
}

marker {
  /* this is what should work per the spec
  stroke-dasharray: none; */
  /* but I need to add this to make it work in Safari */
  stroke-dasharray: 9999999999999999999999999;
}

.Citation.Icon {
  fill: none;
  stroke-width: 0px;
}

.Citation.textContent {
  text-align: center;
  vertical-align: top;
  font-size: 7px;
  fill: #999;
  fill-opacity: 1;
  stroke: none;
}</style><g id="WP3545" class="Pathway http___identifiers_org_pw_PW_0000003 http___identifiers_org_pw_PW_0000828 Viewport"  name="Name: NIK -&gt; non-canonical NF-kB signaling Organism: Homo sapiens" ><g class="Pathway http___identifiers_org_pw_PW_0000003 http___identifiers_org_pw_PW_0000828 Viewport"><rect   width="949" height="1863" style="stroke:none"/><g id="a245c" class="Reactome_R-HSA-5607720"  ><path    d="m445 359h60" style="marker-end:none"/><g id="da65d" class="AB" transform="translate(445,359)"  ><g class="AB"/></g><g id="bcf71" class="AB" transform="translate(504.4 359)"  ><g class="AB"/></g></g><g id="a4eec" class="Reactome_R-HSA-5607731"  ><path    d="m322 558h-66" style="marker-end:none"/><g id="ed0d4" class="AB" transform="translate(322,558)"  ><g class="AB"/></g><g id="bebcf" class="AB" transform="translate(256.66,558)"  ><g class="AB"/></g><g id="b3570" class="AB" transform="translate(289,558)"  ><g class="AB"/></g></g><g id="a64f4" class="Reactome_R-HSA-5607725"  ><path    d="m637 548-143-1" style="marker-end:none"/><g id="db276" class="AB" transform="translate(637,548)"  ><g class="AB"/></g><g id="f5507" class="AB" transform="translate(495.43 547.01)"  ><g class="AB"/></g><g id="a50ba" class="AB" transform="translate(565.5,547.5)"  ><g class="AB"/></g></g><g id="a62ba" class="Reactome_R-HSA-5607725"  ><path    d="m742 556-105-8" style="marker-end:none"/></g><g id="aa063" class="Reactome_R-HSA-5607725"  ><path    d="m742 556-168-8" style="marker-end:url(#memcatalysis000)"/></g><g id="aec58" class="Reactome_R-HSA-5607720"  ><path    d="m505 359 3 2"/></g><g id="b51c1" class="Reactome_R-HSA-5607731"  ><path    d="m256 558 33 68"/></g><g id="b9240" class="Reactome_R-HSA-5607725"  ><path    d="m584 478 53 70" style="marker-end:none"/></g><g id="bcf85" class="Reactome_R-HSA-5607723"  ><path    d="m763 438 37 83" style="marker-end:none"/><g id="b2a67" class="AB" transform="translate(763,438)"  ><g class="AB"/></g><g id="f8cf6" class="AB" transform="translate(799.63 520.17)"  ><g class="AB"/></g></g><g id="aa04a" class="Reactome_R-HSA-5607723"  ><path    d="m753 369 10 69" style="marker-end:none"/></g><g id="c2f33" class="Reactome_R-HSA-5607725"  ><path    d="m664 587-27-39" style="marker-end:none"/></g><g id="c4de0" class="Reactome_R-HSA-5607723"  ><path    d="m515 403 248 35" style="marker-end:none"/></g><g id="cdbf3" class="Reactome_R-HSA-5607725"  ><path    d="m494 547-47 13"/></g><g id="cf15f" class="Reactome_R-HSA-5607725"  ><path    d="m494 547 26-87"/></g><g id="cf4c1" class="Reactome_R-HSA-5607726"  ><path    d="m666 361 55 2" style="marker-end:none"/><g id="d73e9" class="AB" transform="translate(666,361)"  ><g class="AB"/></g><g id="f0dd2" class="AB" transform="translate(720.45 362.98)"  ><g class="AB"/></g><g id="a43d2" class="AB" transform="translate(693.5,362)"  ><g class="AB"/></g></g><g id="bcd5a" class="Reactome_R-HSA-5607726"  ><path    d="m721 363 32 6"/></g><g id="b9b36" class="Reactome_R-HSA-5607726"  ><path    d="m628 361 67 3" style="marker-end:url(#memcatalysis000)"/></g><g id="cf50d" class="Reactome_R-HSA-5607725"  ><path    d="m658 504-21 44" style="marker-end:none"/></g><g id="d5c02" class="Reactome_R-HSA-5607720"  ><path    d="m424 328 21 31" style="marker-end:none"/></g><g id="d7c87" class="Reactome_R-HSA-5607726"  ><path    d="m721 363 24-42"/></g><g id="ded4f" class="Reactome_R-HSA-5668545"  ><path    d="m333 99h61" style="marker-end:none"/><g id="e7b0f" class="AB" transform="translate(333,99)"  ><g class="AB"/></g><g id="b0677" class="AB" transform="translate(393.39,99)"  ><g class="AB"/></g><g id="b6db1" class="AB" transform="translate(363.5,99)"  ><g class="AB"/></g></g><g id="c2204" class="Reactome_R-HSA-5668545"  ><path    d="m294 99h39" style="marker-end:none"/></g><g id="d110a" class="Reactome_R-HSA-5668545"  ><path    d="m302 76 31 23" style="marker-end:none"/></g><g id="be91c" class="Reactome_R-HSA-5668545"  ><path    d="m394 99-29 105"/></g><g id="c3dab" class="Reactome_R-HSA-5668545"  ><path    d="m294 99h70" style="marker-end:url(#memcatalysis000)"/></g><g id="def21" class="Reactome_R-HSA-5607721"  ><path    d="m260 113v87" style="marker-end:none"/><g id="a83a9" class="AB" transform="translate(260,113)"  ><g class="AB"/></g><g id="b9c74" class="AB" transform="translate(260,199.13)"  ><g class="AB"/></g></g><g id="ddf77" class="Reactome_R-HSA-5607721"  ><path    d="m260 200 1 3"/></g><g id="e0fe0" class="Reactome_R-HSA-5607731"  ><path    d="m325 560-3-2" style="marker-end:none"/></g><g id="e1b97" class="Reactome_R-HSA-5607725"  ><path    d="m494 547-104-56"/></g><g id="e2bd3" class="Reactome_R-HSA-5607720"  ><path    d="m417 361 28-2" style="marker-end:none"/></g><g id="e64b1" class="Reactome_R-HSA-5668545"  ><path    d="m394 99 36 1"/></g><g id="e72ea" class="Reactome_R-HSA-5607726"  ><path    d="m628 361h38" style="marker-end:none"/></g><g id="e762f" class="Reactome_R-HSA-5607725"  ><path    d="m494 547-29-133"/></g><g id="ea61a" class="Reactome_R-HSA-5607722"  ><path    d="m225 313h71" style="marker-end:none"/><g id="bb817" class="AB" transform="translate(225,313)"  ><g class="AB"/></g><g id="c26d6" class="AB" transform="translate(295.29,313)"  ><g class="AB"/></g><g id="a3a73" class="AB" transform="translate(260.5,313)"  ><g class="AB"/></g></g><g id="be60f" class="Reactome_R-HSA-5607722"  ><path    d="m261 225-36 88" style="marker-end:none"/></g><g id="bfb40" class="Reactome_R-HSA-5607722"  ><path    d="m187 272 38 41" style="marker-end:none"/></g><g id="ac1fd" class="Reactome_R-HSA-5607722"  ><path    d="m296 313 1 48"/></g><g id="ea048" class="Reactome_R-HSA-5607722"  ><path    d="m261 225v88" style="marker-end:url(#memcatalysis000)"/></g><g id="ee69a" class="Reactome_R-HSA-5607722"  ><path    d="m296 313 40-38"/></g><g id="eef58" class="Reactome_R-HSA-5607721"  ><path    d="m261 110-1 3" style="marker-end:none"/></g><g id="ef765" class="Reactome_R-HSA-5607725"  ><path    d="m494 547-77-186"/></g><g id="f2618" class="Reactome_R-HSA-5607722"  ><path    d="m226 361-1-48" style="marker-end:none"/></g><g id="f300c" class="Reactome_R-HSA-5607741"  ><path    d="m359 635 171 52" style="marker-end:none"/><g id="a3fac" class="AB" transform="translate(359,635)"  ><g class="AB"/></g><g id="e36c0" class="AB" transform="translate(528.29 686.48)"  ><g class="AB"/></g></g><g id="b2395" class="Reactome_R-HSA-5607741"  ><path    d="m355 626 4 9" style="marker-end:none"/></g><g id="ba024" class="Reactome_R-HSA-5607741"  ><path    d="m530 687 3 10"/></g><g id="f7db6" class="Reactome_R-HSA-5607731"  ><path    d="m336 487-53 71" style="marker-end:url(#memcatalysis000)"/></g><g id="f81dd" class="Reactome_R-HSA-5607731"  ><path    d="m256 558h-52"/></g><g id="fb48e" class="Reactome_R-HSA-5607723"  ><path    d="m800 521 7 3"/></g><g id="fd4c2" class="Reactome_R-HSA-5607726"  ><path    d="m641 319 25 42" style="marker-end:none"/></g><g id="ec882" class="GroupGroup" transform="translate(96,12)"  ><g class="GroupGroup"><g id="fc7e0" class="" transform="translate(8,8)"  ><g class=""><rect   transform="matrix(1.00 0 0 1.00 1.49 1.49)" width="815" height="775" rx="15" ry="15" stroke-width="3" style="fill:transparent;stroke:#c0c0c0"/></g></g><g id="bb4ed" class="Label" transform="translate(407,262)"  name="cytosol" ><g class="Label"/><text   transform="translate(32,16.5)"    >cytosol</text></g></g></g><g id="f879b" class="GroupGroup" transform="translate(467,642)"  ><g class="GroupGroup"><g id="a3199" class="" transform="translate(8,8)"  ><g class=""><rect   transform="matrix(0.99 0 0 0.97 1.48 1.46)" width="244" height="105" rx="15" ry="15" stroke-width="3" style="fill:transparent;stroke:#c0c0c0"/></g></g><g id="c6ef8" class="Label" transform="translate(20,67)"  name="nucleoplasm" ><g class="Label"/><text   transform="translate(49.5,16.5)"    >nucleoplasm</text></g></g></g><g id="a4cf6" class="Protein" transform="translate(227,203)"  name="Active NIK" ><rect   width="69" height="22"/><text   transform="translate(34.5,11)"    >Active NIK</text></g><g id="a6d7c" class="Protein" transform="translate(348,480)"  name="UBA3" ><rect   width="42" height="22"/><text   transform="translate(21,11)"    >UBA3</text></g><g id="a78f9" class="Complex Reactome_R-HSA-68819" transform="translate(224,476)"  name="26S proteasome" ><g class="Complex Reactome_R-HSA-68819"><use class="Complex Reactome_R-HSA-68819 Node Icon" width="113" height="22" fill="#fff" stroke="#a52a2a" href="#HexagonPathVisio"/></g><g ><defs><clipPath ><rect x="-56.5" y="-11" width="113" height="22" style="stroke:none"/></clipPath></defs><text   transform="translate(56.5,11)"     style="fill:#a52a2a">26S proteasome</text></g></g><g id="afe39" class="Protein" transform="translate(520,442)"  name="G76-NEDD8-C111-AcM-UBE2M" ><rect   width="129" height="36"/><text   transform="translate(64.5,18)"    >G76-NEDD8-C111-AcM-UBE2M</text></g><g id="b0460" class="Complex Reactome_R-HSA-5607703" transform="translate(387,306)"  name="p100:RELB" ><g class="Complex Reactome_R-HSA-5607703"><use class="Complex Reactome_R-HSA-5607703 Node Icon" width="75" height="22" fill="#fff" stroke="#a52a2a" href="#HexagonPathVisio"/></g><g ><defs><clipPath ><rect x="-37.5" y="-11" width="75" height="22" style="stroke:none"/></clipPath></defs><text   transform="translate(37.5,11)"     style="fill:#a52a2a">p100:RELB</text></g></g><g id="b29fa" class="Complex Reactome_R-HSA-5607705" transform="translate(152,350)"  name="IKKA dimer" ><g class="Complex Reactome_R-HSA-5607705"><use class="Complex Reactome_R-HSA-5607705 Node Icon" width="74" height="22" fill="#fff" stroke="#a52a2a" href="#HexagonPathVisio"/></g><g ><defs><clipPath ><rect x="-37" y="-11" width="74" height="22" style="stroke:none"/></clipPath></defs><text   transform="translate(37,11)"     style="fill:#a52a2a">IKKA dimer</text></g></g><g id="b2e91" class="Metabolite " transform="translate(725,291)"  name="ADP" ><rect   width="41" height="30" style="stroke:#00f"/><text   transform="translate(20.5,15)"     style="fill:#00f">ADP</text></g><g id="bbb9b" class="Metabolite " transform="translate(282,46)"  name="ATP" ><rect   width="40" height="30" style="stroke:#00f"/><text   transform="translate(20,15)"     style="fill:#00f">ATP</text></g><g id="c1e8b" class="Complex Reactome_R-HSA-5607694" transform="translate(325,542)"  name="K48-polyUb-p-7S-p100:RELB" ><g class="Complex Reactome_R-HSA-5607694"><use class="Complex Reactome_R-HSA-5607694 Node Icon" width="123" height="36" fill="#fff" stroke="#a52a2a" href="#HexagonPathVisio"/></g><g ><defs><clipPath ><rect x="-61.5" y="-18" width="123" height="36" style="stroke:none"/></clipPath></defs><text   transform="translate(61.5,18)"     style="fill:#a52a2a">K48-polyUb-p-7S-p100:RELB</text></g></g><g id="c8897" class="Protein" transform="translate(305,204)"  name="p-T559-MAP3K14" ><rect   width="120" height="22"/><text   transform="translate(60,11)"    >p-T559-MAP3K14</text></g><g id="c8c18" class="Complex Reactome_R-HSA-5607693" transform="translate(742,524)"  name="Active NIK:p-176,S180-IKKA dimer:p-7S-p100:SCF-beta-TRCP" ><g class="Complex Reactome_R-HSA-5607693"><use class="Complex Reactome_R-HSA-5607693 Node Icon" width="130" height="64" fill="#fff" stroke="#a52a2a" href="#HexagonPathVisio"/></g><g ><defs><clipPath ><rect x="-65" y="-32" width="130" height="64" style="stroke:none"/></clipPath></defs><text   transform="translate(65,32)"     style="fill:#a52a2a"><tspan   x="0" y="-11">Active</tspan><tspan   x="0" y="0">NIK:p-176,S180-IKKA</tspan><tspan   x="0" y="11">dimer:p-7S-p100:SCF-beta-TRCP</tspan></text></g></g><g id="cbc21" class="Complex Reactome_R-HSA-113595" transform="translate(180,547)"  name="Ub" ><g class="Complex Reactome_R-HSA-113595"><rect   width="25" height="22" rx="15" ry="15" style="stroke:#a52a2a"/></g><g ><defs><clipPath ><rect x="-12.5" y="-11" width="25" height="22" style="stroke:none"/></clipPath></defs><text   transform="translate(12.5,11)"     style="fill:#a52a2a">Ub</text></g></g><g id="d35c0" class="Complex Reactome_R-HSA-5607698" transform="translate(753,346)"  name="Active NIK:p-S176,180-IKKA dimer:p-7S-p100:RELB" ><g class="Complex Reactome_R-HSA-5607698"><use class="Complex Reactome_R-HSA-5607698 Node Icon" width="127" height="47" fill="#fff" stroke="#a52a2a" href="#HexagonPathVisio"/></g><g ><defs><clipPath ><rect x="-63.5" y="-23.5" width="127" height="47" style="stroke:none"/></clipPath></defs><text   transform="translate(63.5,23.5)"     style="fill:#a52a2a"><tspan   x="0" y="-11">Active</tspan><tspan   x="0" y="0">NIK:p-S176,180-IKKA</tspan><tspan   x="0" y="11">dimer:p-7S-p100:RELB</tspan></text></g></g><g id="d5819" class="Metabolite " transform="translate(147,257)"  name="ATP" ><rect   width="40" height="30" style="stroke:#00f"/><text   transform="translate(20,15)"     style="fill:#00f">ATP</text></g><g id="d5c82" class="Complex Reactome_R-HSA-5607687" transform="translate(415,392)"  name="SCF-beta-TRCP" ><g class="Complex Reactome_R-HSA-5607687"><use class="Complex Reactome_R-HSA-5607687 Node Icon" width="100" height="22" fill="#fff" stroke="#a52a2a" href="#HexagonPathVisio"/></g><g ><defs><clipPath ><rect x="-50" y="-11" width="100" height="22" style="stroke:none"/></clipPath></defs><text   transform="translate(50,11)"     style="fill:#a52a2a">SCF-beta-TRCP</text></g></g><g id="d92b8" class="Protein" transform="translate(664,576)"  name="UBA3" ><rect   width="42" height="22"/><text   transform="translate(21,11)"    >UBA3</text></g><g id="e4762" class="Complex Reactome_R-HSA-912722" transform="translate(658,493)"  name="K48-Ub" ><g class="Complex Reactome_R-HSA-912722"><rect   width="90" height="22" rx="15" ry="15" style="stroke:#a52a2a"/></g><g ><defs><clipPath ><rect x="-45" y="-11" width="90" height="22" style="stroke:none"/></clipPath></defs><text   transform="translate(45,11)"     style="fill:#a52a2a">K48-Ub</text></g></g><g id="e4990" class="Metabolite " transform="translate(430,85)"  name="ADP" ><rect   width="41" height="30" style="stroke:#00f"/><text   transform="translate(20.5,15)"     style="fill:#00f">ADP</text></g><g id="ea51d" class="Complex Reactome_R-HSA-5607681" transform="translate(297,343)"  name="Active NIK:p-S176,180-IKKA dimer" ><g class="Complex Reactome_R-HSA-5607681"><use class="Complex Reactome_R-HSA-5607681 Node Icon" width="120" height="36" fill="#fff" stroke="#a52a2a" href="#HexagonPathVisio"/></g><g ><defs><clipPath ><rect x="-60" y="-18" width="120" height="36" style="stroke:none"/></clipPath></defs><text   transform="translate(60,18)"     style="fill:#a52a2a"><tspan   x="0" y="-11">Active</tspan><tspan   x="0" y="0">NIK:p-S176,180-IKKA</tspan><tspan   x="0" y="11">dimer</tspan></text></g></g><g id="eadd2" class="Complex Reactome_R-HSA-5607679" transform="translate(533,686)"  name="p52:RELB" ><g class="Complex Reactome_R-HSA-5607679"><use class="Complex Reactome_R-HSA-5607679 Node Icon" width="67" height="22" fill="#fff" stroke="#a52a2a" href="#HexagonPathVisio"/></g><g ><defs><clipPath ><rect x="-33.5" y="-11" width="67" height="22" style="stroke:none"/></clipPath></defs><text   transform="translate(33.5,11)"     style="fill:#a52a2a">p52:RELB</text></g></g><g id="eafde" class="Complex Reactome_R-HSA-5607690" transform="translate(508,336)"  name="Active NIK:p-S176,180-IKKA dimer:p100:RELB" ><g class="Complex Reactome_R-HSA-5607690"><use class="Complex Reactome_R-HSA-5607690 Node Icon" width="120" height="50" fill="#fff" stroke="#a52a2a" href="#HexagonPathVisio"/></g><g ><defs><clipPath ><rect x="-60" y="-25" width="120" height="50" style="stroke:none"/></clipPath></defs><text   transform="translate(60,25)"     style="fill:#a52a2a"><tspan   x="0" y="-11">Active</tspan><tspan   x="0" y="0">NIK:p-S176,180-IKKA</tspan><tspan   x="0" y="11">dimer:p100:RELB</tspan></text></g></g><g id="f1aff" class="Protein" transform="translate(228,88)"  name="MAP3K14" ><rect   width="66" height="22"/><text   transform="translate(33,11)"    >MAP3K14</text></g><g id="f3f4f" class="Metabolite " transform="translate(336,260)"  name="ADP" ><rect   width="41" height="30" style="stroke:#00f"/><text   transform="translate(20.5,15)"     style="fill:#00f">ADP</text></g><g id="f501c" class="Metabolite " transform="translate(621,289)"  name="ATP" ><rect   width="40" height="30" style="stroke:#00f"/><text   transform="translate(20,15)"     style="fill:#00f">ATP</text></g><g id="fd43c" class="Complex Reactome_R-HSA-5607699" transform="translate(289,615)"  name="p52:RELB" ><g class="Complex Reactome_R-HSA-5607699"><use class="Complex Reactome_R-HSA-5607699 Node Icon" width="67" height="22" fill="#fff" stroke="#a52a2a" href="#HexagonPathVisio"/></g><g ><defs><clipPath ><rect x="-33.5" y="-11" width="67" height="22" style="stroke:none"/></clipPath></defs><text   transform="translate(33.5,11)"     style="fill:#a52a2a">p52:RELB</text></g></g><g id="abc2f" class="GroupComplex" transform="translate(38,1261)"  ><g class="GroupComplex"><use class="Icon" width="124" height="104" fill="#b4b464" fill-opacity=".1" stroke="grey" href="#Octagon"/><g id="af2bb" class="Protein" transform="translate(12,12)"  name="SKP1" ><rect   width="100" height="20"/><text   transform="translate(50,10)"    >SKP1</text></g><g id="b12c7" class="Protein" transform="translate(12,32)"  name="CUL1" ><rect   width="100" height="20"/><text   transform="translate(50,10)"    >CUL1</text></g><g id="ba0f2" class="Protein" transform="translate(12,72)"  name="FBXW11" ><rect   width="100" height="20"/><text   transform="translate(50,10)"    >FBXW11</text></g><g id="d7403" class="Protein" transform="translate(12,52)"  name="BTRC" ><rect   width="100" height="20"/><text   transform="translate(50,10)"    >BTRC</text></g></g></g><g id="b6402" class="GroupComplex" transform="translate(38,801)"  ><g class="GroupComplex"><use class="Icon" width="124" height="44" fill="#b4b464" fill-opacity=".1" stroke="grey" href="#Octagon"/><g id="ec06d" class="Protein" transform="translate(12,12)"  name="CHUK" ><rect   width="100" height="20"/><text   transform="translate(50,10)"    >CHUK</text></g></g></g><g id="bd9ff" class="GroupComplex" transform="translate(38,1141)"  ><g class="GroupComplex"><use class="Icon" width="124" height="104" fill="#b4b464" fill-opacity=".1" stroke="grey" href="#Octagon"/><g id="aee8a" class="Protein" transform="translate(12,12)"  name="Active NIK" ><rect   width="100" height="20"/><text   transform="translate(50,10)"    >Active NIK</text></g><g id="be87f" class="Protein" transform="translate(12,72)"  name="p-7S-p100" ><rect   width="100" height="20"/><text   transform="translate(50,10)"    >p-7S-p100</text></g><g id="c679b" class="Protein" transform="translate(12,52)"  name="RELB" ><rect   width="100" height="20"/><text   transform="translate(50,10)"    >RELB</text></g><g id="e3569" class="Protein" transform="translate(12,32)"  name="p-S176,S180-CHUK" ><rect   width="100" height="20"/><text   transform="translate(50,10)"    >p-S176,S180-CHUK</text></g></g></g><g id="bffb4" class="GroupComplex" transform="translate(178,1161)"  ><g class="GroupComplex"><use class="Icon" width="124" height="94" fill="#b4b464" fill-opacity=".1" stroke="grey" href="#Octagon"/><g id="cb2ad" class="Protein" transform="translate(12,42)"  name="K48-polyUb-p-7S-p100" ><rect   width="100" height="40"/><text   transform="translate(50,20)"    >K48-polyUb-p-7S-p100</text></g><g id="d2235" class="Protein" transform="translate(12,12)"  name="RELB" ><rect   width="100" height="20"/><text   transform="translate(50,10)"    >RELB</text></g></g></g><g id="c0a38" class="GroupComplex" transform="translate(38,941)"  ><g class="GroupComplex"><use class="Icon" width="124" height="64" fill="#b4b464" fill-opacity=".1" stroke="grey" href="#Octagon"/><g id="dab47" class="Protein" transform="translate(12,12)"  name="NFKB2(1-900)" ><rect   width="100" height="20"/><text   transform="translate(50,10)"    >NFKB2(1-900)</text></g><g id="fdfe7" class="Protein" transform="translate(12,32)"  name="RELB" ><rect   width="100" height="20"/><text   transform="translate(50,10)"    >RELB</text></g></g></g><g id="c9b9d" class="GroupComplex" transform="translate(38,1381)"  ><g class="GroupComplex"><use class="Icon" width="124" height="184" fill="#b4b464" fill-opacity=".1" stroke="grey" href="#Octagon"/><g id="a527f" class="Protein" transform="translate(12,72)"  name="p-7S-p100" ><rect   width="100" height="20"/><text   transform="translate(50,10)"    >p-7S-p100</text></g><g id="bae0f" class="Protein" transform="translate(12,12)"  name="Active NIK" ><rect   width="100" height="20"/><text   transform="translate(50,10)"    >Active NIK</text></g><g id="bfb26" class="Protein" transform="translate(12,132)"  name="BTRC" ><rect   width="100" height="20"/><text   transform="translate(50,10)"    >BTRC</text></g><g id="c8a5c" class="Protein" transform="translate(12,92)"  name="SKP1" ><rect   width="100" height="20"/><text   transform="translate(50,10)"    >SKP1</text></g><g id="cb9a3" class="Protein" transform="translate(12,152)"  name="FBXW11" ><rect   width="100" height="20"/><text   transform="translate(50,10)"    >FBXW11</text></g><g id="d5e05" class="Protein" transform="translate(12,32)"  name="p-S176,S180-CHUK" ><rect   width="100" height="20"/><text   transform="translate(50,10)"    >p-S176,S180-CHUK</text></g><g id="e20cc" class="Protein" transform="translate(12,52)"  name="RELB" ><rect   width="100" height="20"/><text   transform="translate(50,10)"    >RELB</text></g><g id="fb014" class="Protein" transform="translate(12,112)"  name="CUL1" ><rect   width="100" height="20"/><text   transform="translate(50,10)"    >CUL1</text></g></g></g><g id="caf24" class="GroupComplex" transform="translate(38,1021)"  ><g class="GroupComplex"><use class="Icon" width="124" height="104" fill="#b4b464" fill-opacity=".1" stroke="grey" href="#Octagon"/><g id="af73f" class="Protein" transform="translate(12,72)"  name="RELB" ><rect   width="100" height="20"/><text   transform="translate(50,10)"    >RELB</text></g><g id="c9858" class="Protein" transform="translate(12,52)"  name="NFKB2(1-900)" ><rect   width="100" height="20"/><text   transform="translate(50,10)"    >NFKB2(1-900)</text></g><g id="cfc1a" class="Protein" transform="translate(12,32)"  name="p-S176,S180-CHUK" ><rect   width="100" height="20"/><text   transform="translate(50,10)"    >p-S176,S180-CHUK</text></g><g id="faf04" class="Protein" transform="translate(12,12)"  name="Active NIK" ><rect   width="100" height="20"/><text   transform="translate(50,10)"    >Active NIK</text></g></g></g><g id="d73e2" class="GroupComplex" transform="translate(318,921)"  ><g class="GroupComplex"><use class="Icon" width="124" height="924" fill="#b4b464" fill-opacity=".1" stroke="grey" href="#Octagon"/><g id="a3ac0" class="Protein" transform="translate(12,92)"  name="PSMA4" ><rect   width="100" height="20"/><text   transform="translate(50,10)"    >PSMA4</text></g><g id="a5948" class="Protein" transform="translate(12,552)"  name="PSMD12" ><rect   width="100" height="20"/><text   transform="translate(50,10)"    >PSMD12</text></g><g id="a6ce1" class="Protein" transform="translate(12,472)"  name="PSMC6" ><rect   width="100" height="20"/><text   transform="translate(50,10)"    >PSMC6</text></g><g id="a6f25" class="Protein" transform="translate(12,312)"  name="PSMB7" ><rect   width="100" height="20"/><text   transform="translate(50,10)"    >PSMB7</text></g><g id="a7fbc" class="Protein" transform="translate(12,412)"  name="PSMC3" ><rect   width="100" height="20"/><text   transform="translate(50,10)"    >PSMC3</text></g><g id="a8418" class="Protein" transform="translate(12,372)"  name="PSMC1" ><rect   width="100" height="20"/><text   transform="translate(50,10)"    >PSMC1</text></g><g id="a87d3" class="Protein" transform="translate(12,752)"  name="PSME1" ><rect   width="100" height="20"/><text   transform="translate(50,10)"    >PSME1</text></g><g id="add77" class="Protein" transform="translate(12,352)"  name="PSMB9" ><rect   width="100" height="20"/><text   transform="translate(50,10)"    >PSMB9</text></g><g id="b3f2a" class="Protein" transform="translate(12,232)"  name="PSMB3" ><rect   width="100" height="20"/><text   transform="translate(50,10)"    >PSMB3</text></g><g id="b7d97" class="Protein" transform="translate(12,892)"  name="SHFM1" ><rect   width="100" height="20"/><text   transform="translate(50,10)"    >SHFM1</text></g><g id="bc1e5" class="Protein" transform="translate(12,272)"  name="PSMB5" ><rect   width="100" height="20"/><text   transform="translate(50,10)"    >PSMB5</text></g><g id="bf2bf" class="Protein" transform="translate(12,12)"  name="PSMD14" ><rect   width="100" height="20"/><text   transform="translate(50,10)"    >PSMD14</text></g><g id="c062e" class="Protein" transform="translate(12,432)"  name="PSMC4" ><rect   width="100" height="20"/><text   transform="translate(50,10)"    >PSMC4</text></g><g id="c2555" class="Protein" transform="translate(12,392)"  name="PSMC2" ><rect   width="100" height="20"/><text   transform="translate(50,10)"    >PSMC2</text></g><g id="c336f" class="Protein" transform="translate(12,612)"  name="PSMD3" ><rect   width="100" height="20"/><text   transform="translate(50,10)"    >PSMD3</text></g><g id="c5dc3" class="Protein" transform="translate(12,712)"  name="PSMD8" ><rect   width="100" height="20"/><text   transform="translate(50,10)"    >PSMD8</text></g><g id="c63ef" class="Protein" transform="translate(12,852)"  name="PSMA8" ><rect   width="100" height="20"/><text   transform="translate(50,10)"    >PSMA8</text></g><g id="c65a3" class="Protein" transform="translate(12,132)"  name="PSMA6" ><rect   width="100" height="20"/><text   transform="translate(50,10)"    >PSMA6</text></g><g id="c72a9" class="Protein" transform="translate(12,492)"  name="PSMD1" ><rect   width="100" height="20"/><text   transform="translate(50,10)"    >PSMD1</text></g><g id="c8225" class="Protein" transform="translate(12,252)"  name="PSMB4" ><rect   width="100" height="20"/><text   transform="translate(50,10)"    >PSMB4</text></g><g id="d1252" class="Protein" transform="translate(12,732)"  name="PSMD9" ><rect   width="100" height="20"/><text   transform="translate(50,10)"    >PSMD9</text></g><g id="d19f7" class="Protein" transform="translate(12,672)"  name="PSMD6" ><rect   width="100" height="20"/><text   transform="translate(50,10)"    >PSMD6</text></g><g id="d2d8a" class="Protein" transform="translate(12,692)"  name="PSMD7" ><rect   width="100" height="20"/><text   transform="translate(50,10)"    >PSMD7</text></g><g id="d4d74" class="Protein" transform="translate(12,872)"  name="PSMB11" ><rect   width="100" height="20"/><text   transform="translate(50,10)"    >PSMB11</text></g><g id="d669d" class="Protein" transform="translate(12,32)"  name="PSMA1" ><rect   width="100" height="20"/><text   transform="translate(50,10)"    >PSMA1</text></g><g id="db3a9" class="Protein" transform="translate(12,632)"  name="PSMD4" ><rect   width="100" height="20"/><text   transform="translate(50,10)"    >PSMD4</text></g><g id="db582" class="Protein" transform="translate(12,332)"  name="PSMB8" ><rect   width="100" height="20"/><text   transform="translate(50,10)"    >PSMB8</text></g><g id="dbff5" class="Protein" transform="translate(12,452)"  name="PSMC5" ><rect   width="100" height="20"/><text   transform="translate(50,10)"    >PSMC5</text></g><g id="dc624" class="Protein" transform="translate(12,172)"  name="PSMB1" ><rect   width="100" height="20"/><text   transform="translate(50,10)"    >PSMB1</text></g><g id="ddbd7" class="Protein" transform="translate(12,292)"  name="PSMB6" ><rect   width="100" height="20"/><text   transform="translate(50,10)"    >PSMB6</text></g><g id="df9fe" class="Protein" transform="translate(12,592)"  name="PSMD2" ><rect   width="100" height="20"/><text   transform="translate(50,10)"    >PSMD2</text></g><g id="e0591" class="Protein" transform="translate(12,652)"  name="PSMD5" ><rect   width="100" height="20"/><text   transform="translate(50,10)"    >PSMD5</text></g><g id="e0c8d" class="Protein" transform="translate(12,112)"  name="PSMA5" ><rect   width="100" height="20"/><text   transform="translate(50,10)"    >PSMA5</text></g><g id="e1fe6" class="Protein" transform="translate(12,532)"  name="PSMD11" ><rect   width="100" height="20"/><text   transform="translate(50,10)"    >PSMD11</text></g><g id="e289e" class="Protein" transform="translate(12,212)"  name="PSMB2" ><rect   width="100" height="20"/><text   transform="translate(50,10)"    >PSMB2</text></g><g id="e3c0b" class="Protein" transform="translate(12,832)"  name="PSME4" ><rect   width="100" height="20"/><text   transform="translate(50,10)"    >PSME4</text></g><g id="e7c0c" class="Protein" transform="translate(12,152)"  name="PSMA7" ><rect   width="100" height="20"/><text   transform="translate(50,10)"    >PSMA7</text></g><g id="e9b2f" class="Protein" transform="translate(12,72)"  name="PSMA3" ><rect   width="100" height="20"/><text   transform="translate(50,10)"    >PSMA3</text></g><g id="ec2d8" class="Protein" transform="translate(12,772)"  name="PSME2" ><rect   width="100" height="20"/><text   transform="translate(50,10)"    >PSME2</text></g><g id="ed015" class="Protein" transform="translate(12,52)"  name="PSMA2" ><rect   width="100" height="20"/><text   transform="translate(50,10)"    >PSMA2</text></g><g id="f27da" class="Protein" transform="translate(12,512)"  name="PSMD10" ><rect   width="100" height="20"/><text   transform="translate(50,10)"    >PSMD10</text></g><g id="f37a2" class="Protein" transform="translate(12,792)"  name="PSME3" ><rect   width="100" height="20"/><text   transform="translate(50,10)"    >PSME3</text></g><g id="f48ab" class="Protein" transform="translate(12,812)"  name="PSMF1" ><rect   width="100" height="20"/><text   transform="translate(50,10)"    >PSMF1</text></g><g id="f8659" class="Protein" transform="translate(12,192)"  name="PSMB10" ><rect   width="100" height="20"/><text   transform="translate(50,10)"    >PSMB10</text></g><g id="ffa85" class="Protein" transform="translate(12,572)"  name="PSMD13" ><rect   width="100" height="20"/><text   transform="translate(50,10)"    >PSMD13</text></g></g></g><g id="e2008" class="GroupComplex" transform="translate(458,841)"  ><g class="GroupComplex"><use class="Icon" width="124" height="64" fill="#b4b464" fill-opacity=".1" stroke="grey" href="#Octagon"/><g id="a0aee" class="Protein" transform="translate(12,32)"  name="p52" ><rect   width="100" height="20"/><text   transform="translate(50,10)"    >p52</text></g><g id="afa4e" class="Protein" transform="translate(12,12)"  name="RELB" ><rect   width="100" height="20"/><text   transform="translate(50,10)"    >RELB</text></g></g></g><g id="ebd4d" class="GroupNone" transform="translate(181,844)"  ><g class="GroupNone"><rect   width="118" height="298" fill-opacity=".1" stroke-dasharray="5,3" style="fill:#b4b464;stroke:grey"/><g id="a1fbb" class="Protein" transform="translate(9,149)"  name="Ub-200-UBC(153-228)" ><rect   width="100" height="20"/><text   transform="translate(50,10)"    >Ub-200-UBC(153-228)</text></g><g id="a5dc8" class="Protein" transform="translate(9,49)"  name="Ub-48-UBB(1-76)" ><rect   width="100" height="20"/><text   transform="translate(50,10)"    >Ub-48-UBB(1-76)</text></g><g id="aa91d" class="Protein" transform="translate(9,249)"  name="Ub-580-UBC(533-608)" ><rect   width="100" height="20"/><text   transform="translate(50,10)"    >Ub-580-UBC(533-608)</text></g><g id="b2335" class="Protein" transform="translate(9,109)"  name="Ub-48-UBC(1-76)" ><rect   width="100" height="20"/><text   transform="translate(50,10)"    >Ub-48-UBC(1-76)</text></g><g id="b25d9" class="Protein" transform="translate(9,229)"  name="Ub-504-UBC(457-532)" ><rect   width="100" height="20"/><text   transform="translate(50,10)"    >Ub-504-UBC(457-532)</text></g><g id="c8d12" class="Protein" transform="translate(9,189)"  name="Ub-352-UBC(305-380)" ><rect   width="100" height="20"/><text   transform="translate(50,10)"    >Ub-352-UBC(305-380)</text></g><g id="ccc38" class="Protein" transform="translate(9,9)"  name="Ub-48-RPS27A(1-76)" ><rect   width="100" height="20"/><text   transform="translate(50,10)"    >Ub-48-RPS27A(1-76)</text></g><g id="d59de" class="Protein" transform="translate(9,169)"  name="Ub-276-UBC(229-304)" ><rect   width="100" height="20"/><text   transform="translate(50,10)"    >Ub-276-UBC(229-304)</text></g><g id="d90c6" class="Protein" transform="translate(9,269)"  name="Ub-656-UBC(609-684)" ><rect   width="100" height="20"/><text   transform="translate(50,10)"    >Ub-656-UBC(609-684)</text></g><g id="df1c5" class="Protein" transform="translate(9,209)"  name="Ub-428-UBC(381-456)" ><rect   width="100" height="20"/><text   transform="translate(50,10)"    >Ub-428-UBC(381-456)</text></g><g id="e1118" class="Protein" transform="translate(9,89)"  name="Ub-200-UBB(153-228)" ><rect   width="100" height="20"/><text   transform="translate(50,10)"    >Ub-200-UBB(153-228)</text></g><g id="e1b35" class="Protein" transform="translate(9,29)"  name="Ub-48-UBA52(1-76)" ><rect   width="100" height="20"/><text   transform="translate(50,10)"    >Ub-48-UBA52(1-76)</text></g><g id="e2152" class="Protein" transform="translate(9,129)"  name="Ub-124-UBC(77-152)" ><rect   width="100" height="20"/><text   transform="translate(50,10)"    >Ub-124-UBC(77-152)</text></g><g id="f48a0" class="Protein" transform="translate(9,69)"  name="Ub-124-UBB(77-152)" ><rect   width="100" height="20"/><text   transform="translate(50,10)"    >Ub-124-UBB(77-152)</text></g></g></g><g id="f260f" class="GroupComplex" transform="translate(318,841)"  ><g class="GroupComplex"><use class="Icon" width="124" height="64" fill="#b4b464" fill-opacity=".1" stroke="grey" href="#Octagon"/><g id="a3906" class="Protein" transform="translate(12,12)"  name="RELB" ><rect   width="100" height="20"/><text   transform="translate(50,10)"    >RELB</text></g><g id="eabdd" class="Protein" transform="translate(12,32)"  name="p52" ><rect   width="100" height="20"/><text   transform="translate(50,10)"    >p52</text></g></g></g><g id="f9080" class="GroupComplex" transform="translate(38,861)"  ><g class="GroupComplex"><use class="Icon" width="124" height="64" fill="#b4b464" fill-opacity=".1" stroke="grey" href="#Octagon"/><g id="cc359" class="Protein" transform="translate(12,12)"  name="Active NIK" ><rect   width="100" height="20"/><text   transform="translate(50,10)"    >Active NIK</text></g><g id="d3b8b" class="Protein" transform="translate(12,32)"  name="p-S176,S180-CHUK" ><rect   width="100" height="20"/><text   transform="translate(50,10)"    >p-S176,S180-CHUK</text></g></g></g><g id="fac1b" class="GroupNone" transform="translate(181,1264)"  ><g class="GroupNone"><rect   width="118" height="298" fill-opacity=".1" stroke-dasharray="5,3" style="fill:#b4b464;stroke:grey"/><g id="a9e5d" class="Protein" transform="translate(9,189)"  name="UBC(305-380)" ><rect   width="100" height="20"/><text   transform="translate(50,10)"    >UBC(305-380)</text></g><g id="aca18" class="Protein" transform="translate(9,69)"  name="UBB(77-152)" ><rect   width="100" height="20"/><text   transform="translate(50,10)"    >UBB(77-152)</text></g><g id="b7d07" class="Protein" transform="translate(9,249)"  name="UBC(533-608)" ><rect   width="100" height="20"/><text   transform="translate(50,10)"    >UBC(533-608)</text></g><g id="b8728" class="Protein" transform="translate(9,269)"  name="UBC(609-684)" ><rect   width="100" height="20"/><text   transform="translate(50,10)"    >UBC(609-684)</text></g><g id="c26a6" class="Protein" transform="translate(9,229)"  name="UBC(457-532)" ><rect   width="100" height="20"/><text   transform="translate(50,10)"    >UBC(457-532)</text></g><g id="c33dc" class="Protein" transform="translate(9,49)"  name="UBB(1-76)" ><rect   width="100" height="20"/><text   transform="translate(50,10)"    >UBB(1-76)</text></g><g id="c5d40" class="Protein" transform="translate(9,89)"  name="UBB(153-228)" ><rect   width="100" height="20"/><text   transform="translate(50,10)"    >UBB(153-228)</text></g><g id="cba81" class="Protein" transform="translate(9,109)"  name="UBC(1-76)" ><rect   width="100" height="20"/><text   transform="translate(50,10)"    >UBC(1-76)</text></g><g id="cc2b1" class="Protein" transform="translate(9,129)"  name="UBC(77-152)" ><rect   width="100" height="20"/><text   transform="translate(50,10)"    >UBC(77-152)</text></g><g id="d4599" class="Protein" transform="translate(9,209)"  name="UBC(381-456)" ><rect   width="100" height="20"/><text   transform="translate(50,10)"    >UBC(381-456)</text></g><g id="ed2d9" class="Protein" transform="translate(9,29)"  name="UBA52(1-76)" ><rect   width="100" height="20"/><text   transform="translate(50,10)"    >UBA52(1-76)</text></g><g id="f956a" class="Protein" transform="translate(9,149)"  name="UBC(153-228)" ><rect   width="100" height="20"/><text   transform="translate(50,10)"    >UBC(153-228)</text></g><g id="f9d00" class="Protein" transform="translate(9,169)"  name="UBC(229-304)" ><rect   width="100" height="20"/><text   transform="translate(50,10)"    >UBC(229-304)</text></g><g id="ff4d0" class="Protein" transform="translate(9,9)"  name="RPS27A(1-76)" ><rect   width="100" height="20"/><text   transform="translate(50,10)"    >RPS27A(1-76)</text></g></g></g></g></g></g></svg>