<?xml version="1.0" encoding="UTF-8"?>
<svg xmlns="http://www.w3.org/2000/svg" id="-svg" class="Diagram"  baseProfile="full" prefix="schema:http://schema.org/" preserveAspectRatio="xMidYMid"  version="1.1"><defs><g id="icon-defs"><symbol id="HexagonPathVisio" class=" Icon HexagonPathVisio" x="0" y="8" overflow="visible" preserveAspectRatio="none" viewBox="0 8 100 86"><desc>HexagonPathVisio</desc><g transform="scale(1 0.85)"><path d="m1.42 51.00 21.07-42.14h56.19l21.07 42.14-21.07 42.15h-56.19l-21.07-42.15z" stroke="currentColor" vector-effect="non-scaling-stroke"/></g></symbol><symbol id="Octagon" class=" Icon Octagon" x="0" y="0" overflow="visible" preserveAspectRatio="none" viewBox="0 0 100 100"><desc>Octagon</desc><path d="m0 25 25-25h50l25 25v50l-25 25h-50l-25-25z" vector-effect="non-scaling-stroke"/></symbol></g><g id="marker-defs"><marker id="mea" markerHeight="12" markerWidth="12" orient="auto" preserveAspectRatio="none" refX="12" refY="6" viewBox="0 0 12 12"><g id="g-mea" transform=""><g transform="rotate(180 6 6)"><rect y="5.4" width="2" height="1.2" style="stroke:#fff"/><polygon points="12 11 0 6 12 1" stroke-width="0"/></g></g></marker><marker id="memcatalysis000" markerHeight="12" markerWidth="12" orient="auto" preserveAspectRatio="none" refX="12" refY="6" viewBox="0 0 12 12"><g id="g-memcatalysis000" transform=""><g transform="rotate(180 6 6)"><circle cx="6" cy="6" r="5.3px" fill="#fff" stroke="#000"/></g></g></marker></g></defs><g id="viewport-20220102142014570" class="svg-pan-zoom_viewport" transform="matrix(0.49 0 0 0.49 314.49 0)" style="transform:matrix(0.49, 0, 0, 0.49, 314.49, 0)"><style>svg.Diagram {font-family: 'Liberation Sans', Arial, sans-serif; }.Diagram path {fill: transparent;stroke: #000;marker-end: url(#mea);}.Diagram symbol path {fill: inherit;stroke: inherit;stroke-width: inherit;marker-end: inherit;}.Diagram rect {fill: #fff;stroke: #000;}.Diagram text {dominant-baseline: central;overflow: hidden;text-anchor: middle;fill: #000;font-size: 10px;}</style><style type="text/css">.Viewport .textContent {
  pointer-events: none;
  stroke-width: 0px;
}

					.Viewport.Icon {
  fill: white;
}

/* Hide the InfoBox */
.Viewport.textContent {
  font-size: 0;
}

.textContent {
  stroke: none;
}

.DataNode {
  stroke-miterlimit: 1;
  pointer-events: auto;
}

.DataNode:hover {
  cursor: pointer;
}

/* TODO should this apply to things other than DataNodes? */
.DataNode.textContent {
  pointer-events: none;
}

.DataNode.Highlighted {
  opacity: 0.6;
  stroke-width: 0px;
}

marker {
  /* this is what should work per the spec
  stroke-dasharray: none; */
  /* but I need to add this to make it work in Safari */
  stroke-dasharray: 9999999999999999999999999;
}

.Citation.Icon {
  fill: none;
  stroke-width: 0px;
}

.Citation.textContent {
  text-align: center;
  vertical-align: top;
  font-size: 7px;
  fill: #999;
  fill-opacity: 1;
  stroke: none;
}</style><g id="WP3575" class="Pathway http___identifiers_org_pw_PW_0000103 Viewport"  name="Name: Endosomal sorting complex required for transport (ESCRT) Organism: Homo sapiens" ><g class="Pathway http___identifiers_org_pw_PW_0000103 Viewport"><rect   width="1154" height="1352" style="stroke:none"/><g id="a5abf" class="Reactome_R-HSA-917700"  ><path    d="m611 326 44-1" style="marker-end:none"/><g id="e129f" class="AB" transform="translate(611,326)"  ><g class="AB"/></g><g id="c5601" class="AB" transform="translate(654.56 325.01)"  ><g class="AB"/></g></g><g id="a3d61" class="Reactome_R-HSA-917700"  ><path    d="m655 325 17-216"/></g><g id="a930b" class="Reactome_R-HSA-917700"  ><path    d="m505 326h106" style="marker-end:none"/></g><g id="d2947" class="Reactome_R-HSA-917696"  ><path    d="m592 238-50 37" style="marker-end:none"/><g id="e23d1" class="AB" transform="translate(592,238)"  ><g class="AB"/></g><g id="b319a" class="AB" transform="translate(542.5,274.63)"  ><g class="AB"/></g></g><g id="ba114" class="Reactome_R-HSA-917696"  ><path    d="m643 98-51 140" style="marker-end:none"/></g><g id="b63f6" class="Reactome_R-HSA-917696"  ><path    d="m542 275h-75"/></g><g id="b83f7" class="Reactome_R-HSA-917696"  ><path    d="m542 275-37 51"/></g><g id="e1e47" class="Reactome_R-HSA-917693"  ><path    d="m730 355 40-51" style="marker-end:none"/><g id="f9915" class="AB" transform="translate(730,355)"  ><g class="AB"/></g><g id="dde74" class="AB" transform="translate(769.6 304.51)"  ><g class="AB"/></g><g id="fe765" class="AB" transform="translate(750,329.5)"  ><g class="AB"/></g></g><g id="b32e0" class="Reactome_R-HSA-917693"  ><path    d="m736 396-6-41" style="marker-end:none"/></g><g id="d773a" class="Reactome_R-HSA-917693"  ><path    d="m766 395-36-40" style="marker-end:none"/></g><g id="b05a8" class="Reactome_R-HSA-917693"  ><path    d="m770 304 128-95"/></g><g id="bdb9e" class="Reactome_R-HSA-917693"  ><path    d="m770 304 73-110"/></g><g id="d5680" class="Reactome_R-HSA-917693"  ><path    d="m770 304 138-128"/></g><g id="b5115" class="Reactome_R-HSA-917693"  ><path    d="m781 375-33-44" style="marker-end:url(#memcatalysis000)"/></g><g id="e233f" class="Reactome_R-HSA-917693"  ><path    d="m770 304 139-25"/></g><g id="e28ef" class="Reactome_R-HSA-917700"  ><path    d="m581 400 30-74" style="marker-end:none"/></g><g id="e55e9" class="Reactome_R-HSA-917693"  ><path    d="m770 304 131 11"/></g><g id="f0f56" class="Reactome_R-HSA-917693"  ><path    d="m770 304 135-61"/></g><g id="f22a2" class="Reactome_R-HSA-917696"  ><path    d="m588 148 4 90" style="marker-end:none"/></g><g id="f9640" class="Reactome_R-HSA-917693"  ><path    d="m770 304-34-79"/></g><g id="fb520" class="Reactome_R-HSA-917700"  ><path    d="m655 325 28 53"/></g><g id="fd18c" class="Reactome_R-HSA-917730"  ><path    d="m474 242 45-28" style="marker-end:none"/><g id="a8b96" class="AB" transform="translate(474,242)"  ><g class="AB"/></g><g id="eb9fb" class="AB" transform="translate(518.55,214.28)"  ><g class="AB"/></g></g><g id="ac042" class="Reactome_R-HSA-917730"  ><path    d="m435 212 39 30" style="marker-end:none"/></g><g id="b572a" class="Reactome_R-HSA-917730"  ><path    d="m467 275 7-33" style="marker-end:none"/></g><g id="ed841" class="Reactome_R-HSA-917730"  ><path    d="m519 214-3-109"/></g><g id="ef3bf" class="Reactome_R-HSA-917730"  ><path    d="m519 214 19-84"/></g><g id="fe654" class="Reactome_R-HSA-917693"  ><path    d="m770 304 67 38"/></g><g id="d08ad" class="GroupGroup" transform="translate(81,62)"  ><g class="GroupGroup"><g id="d3f18" class="" transform="translate(8,8)"  ><g class=""><rect   transform="matrix(1.00 0 0 0.99 1.50 1.49)" width="1035" height="534" rx="15" ry="15" stroke-width="3" style="fill:transparent;stroke:#c0c0c0"/></g></g><g id="bebf5" class="Label" transform="translate(26,471)"  name="cytosol" ><g class="Label"/><text   transform="translate(32,16.5)"    >cytosol</text></g></g></g><g id="df44f" class="GroupGroup" transform="translate(440,111)"  ><g class="GroupGroup"><g id="fa255" class="" transform="translate(8,8)"  ><g class=""><rect   transform="matrix(0.99 0 0 0.99 1.49 1.48)" width="299" height="270" rx="15" ry="15" stroke-width="3" style="fill:transparent;stroke:#c0c0c0"/></g></g><g id="d0950" class="Label" transform="translate(11,242)"  name="endosome membrane" ><g class="Label"/><text   transform="translate(78.5,16.5)"    >endosome membrane</text></g></g></g><g id="a41a9" class="Complex Reactome_R-HSA-917723" transform="translate(550,400)"  name="ESCRT-III" ><g class="Complex Reactome_R-HSA-917723"><use class="Complex Reactome_R-HSA-917723 Node Icon" width="62" height="22" fill="#fff" stroke="#a52a2a" href="#HexagonPathVisio"/></g><g ><defs><clipPath ><rect x="-31" y="-11" width="62" height="22" style="stroke:none"/></clipPath></defs><text   transform="translate(31,11)"     style="fill:#a52a2a">ESCRT-III</text></g></g><g id="a46e0" class="Protein" transform="translate(909,268)"  name="CHMP7" ><rect   width="51" height="22"/><text   transform="translate(25.5,11)"    >CHMP7</text></g><g id="b15b3" class="Complex Reactome_R-HSA-917726" transform="translate(486,83)"  name="ESCRT-0" ><g class="Complex Reactome_R-HSA-917726"><use class="Complex Reactome_R-HSA-917726 Node Icon" width="61" height="22" fill="#fff" stroke="#a52a2a" href="#HexagonPathVisio"/></g><g ><defs><clipPath ><rect x="-30.5" y="-11" width="61" height="22" style="stroke:none"/></clipPath></defs><text   transform="translate(30.5,11)"     style="fill:#a52a2a">ESCRT-0</text></g></g><g id="b3aa9" class="Complex Reactome_R-HSA-917712" transform="translate(679,161)"  name="Ubiquinated and PIP3 Endosmal Membrane Bound Cargo" ><g class="Complex Reactome_R-HSA-917712"><use class="Complex Reactome_R-HSA-917712 Node Icon" width="115" height="64" fill="#fff" stroke="#a52a2a" href="#HexagonPathVisio"/></g><g ><defs><clipPath ><rect x="-57.5" y="-32" width="115" height="64" style="stroke:none"/></clipPath></defs><text   transform="translate(57.5,32)"     style="fill:#a52a2a"><tspan   x="0" y="-11">Ubiquinated and PIP3</tspan><tspan   x="0" y="0">Endosmal Membrane</tspan><tspan   x="0" y="11">Bound Cargo</tspan></text></g></g><g id="b79ca" class="Complex Reactome_R-HSA-917724" transform="translate(781,364)"  name="Vps/Vta1" ><g class="Complex Reactome_R-HSA-917724"><use class="Complex Reactome_R-HSA-917724 Node Icon" width="64" height="22" fill="#fff" stroke="#a52a2a" href="#HexagonPathVisio"/></g><g ><defs><clipPath ><rect x="-32" y="-11" width="64" height="22" style="stroke:none"/></clipPath></defs><text   transform="translate(32,11)"     style="fill:#a52a2a">Vps/Vta1</text></g></g><g id="b8587" class="Complex Reactome_R-HSA-917699" transform="translate(630,378)"  name="ESCRT-III/Cargo Complex" ><g class="Complex Reactome_R-HSA-917699"><use class="Complex Reactome_R-HSA-917699 Node Icon" width="106" height="36" fill="#fff" stroke="#a52a2a" href="#HexagonPathVisio"/></g><g ><defs><clipPath ><rect x="-53" y="-18" width="106" height="36" style="stroke:none"/></clipPath></defs><text   transform="translate(53,18)"     style="fill:#a52a2a"><tspan   x="0" y="-5.5">ESCRT-III/Cargo</tspan><tspan   x="0" y="5.5">Complex</tspan></text></g></g><g id="b9351" class="Complex Reactome_R-HSA-917702" transform="translate(538,112)"  name="ESCRT-I/Cargo Complex" ><g class="Complex Reactome_R-HSA-917702"><use class="Complex Reactome_R-HSA-917702 Node Icon" width="100" height="36" fill="#fff" stroke="#a52a2a" href="#HexagonPathVisio"/></g><g ><defs><clipPath ><rect x="-50" y="-18" width="100" height="36" style="stroke:none"/></clipPath></defs><text   transform="translate(50,18)"     style="fill:#a52a2a"><tspan   x="0" y="-5.5">ESCRT-I/Cargo</tspan><tspan   x="0" y="5.5">Complex</tspan></text></g></g><g id="bf530" class="Protein" transform="translate(837,331)"  name="CHMP6" ><rect   width="51" height="22"/><text   transform="translate(25.5,11)"    >CHMP6</text></g><g id="cac05" class="Complex Reactome_R-HSA-917698" transform="translate(403,308)"  name="ESCRT-II/Cargo Complex" ><g class="Complex Reactome_R-HSA-917698"><use class="Complex Reactome_R-HSA-917698 Node Icon" width="103" height="36" fill="#fff" stroke="#a52a2a" href="#HexagonPathVisio"/></g><g ><defs><clipPath ><rect x="-51.5" y="-18" width="103" height="36" style="stroke:none"/></clipPath></defs><text   transform="translate(51.5,18)"     style="fill:#a52a2a"><tspan   x="0" y="-5.5">ESCRT-II/Cargo</tspan><tspan   x="0" y="5.5">Complex</tspan></text></g></g><g id="d7893" class="Complex Reactome_R-HSA-184398" transform="translate(411,264)"  name="ESCRT-I" ><g class="Complex Reactome_R-HSA-184398"><use class="Complex Reactome_R-HSA-184398 Node Icon" width="56" height="22" fill="#fff" stroke="#a52a2a" href="#HexagonPathVisio"/></g><g ><defs><clipPath ><rect x="-28" y="-11" width="56" height="22" style="stroke:none"/></clipPath></defs><text   transform="translate(28,11)"     style="fill:#a52a2a">ESCRT-I</text></g></g><g id="d7eeb" class="Complex Reactome_R-HSA-917707" transform="translate(643,87)"  name="ESCRT-II" ><g class="Complex Reactome_R-HSA-917707"><use class="Complex Reactome_R-HSA-917707 Node Icon" width="59" height="22" fill="#fff" stroke="#a52a2a" href="#HexagonPathVisio"/></g><g ><defs><clipPath ><rect x="-29.5" y="-11" width="59" height="22" style="stroke:none"/></clipPath></defs><text   transform="translate(29.5,11)"     style="fill:#a52a2a">ESCRT-II</text></g></g><g id="daff8" class="Metabolite " transform="translate(823,164)"  name="ADP" ><rect   width="41" height="30" style="stroke:#00f"/><text   transform="translate(20.5,15)"     style="fill:#00f">ADP</text></g><g id="dd565" class="Metabolite " transform="translate(895,146)"  name="Pi" ><rect   width="27" height="30" style="stroke:#00f"/><text   transform="translate(13.5,15)"     style="fill:#00f">Pi</text></g><g id="deaa3" class="Metabolite " transform="translate(746,395)"  name="ATP" ><rect   width="40" height="30" style="stroke:#00f"/><text   transform="translate(20,15)"     style="fill:#00f">ATP</text></g><g id="dfddc" class="Complex Reactome_R-HSA-917704" transform="translate(383,176)"  name="ESCRT-0/Cargo Complex" ><g class="Complex Reactome_R-HSA-917704"><use class="Complex Reactome_R-HSA-917704 Node Icon" width="105" height="36" fill="#fff" stroke="#a52a2a" href="#HexagonPathVisio"/></g><g ><defs><clipPath ><rect x="-52.5" y="-18" width="105" height="36" style="stroke:none"/></clipPath></defs><text   transform="translate(52.5,18)"     style="fill:#a52a2a"><tspan   x="0" y="-5.5">ESCRT-0/Cargo</tspan><tspan   x="0" y="5.5">Complex</tspan></text></g></g><g id="e1a17" class="Complex Reactome_R-HSA-917705" transform="translate(905,232)"  name="CHMP2" ><g class="Complex Reactome_R-HSA-917705"><rect   width="51" height="22" rx="15" ry="15" style="stroke:#a52a2a"/></g><g ><defs><clipPath ><rect x="-25.5" y="-11" width="51" height="22" style="stroke:none"/></clipPath></defs><text   transform="translate(25.5,11)"     style="fill:#a52a2a">CHMP2</text></g></g><g id="e498e" class="Complex Reactome_R-HSA-917714" transform="translate(898,198)"  name="CHMP4" ><g class="Complex Reactome_R-HSA-917714"><rect   width="51" height="22" rx="15" ry="15" style="stroke:#a52a2a"/></g><g ><defs><clipPath ><rect x="-25.5" y="-11" width="51" height="22" style="stroke:none"/></clipPath></defs><text   transform="translate(25.5,11)"     style="fill:#a52a2a">CHMP4</text></g></g><g id="fc048" class="Protein" transform="translate(901,304)"  name="CHMP3" ><rect   width="51" height="22"/><text   transform="translate(25.5,11)"    >CHMP3</text></g><g id="ad589" class="GroupNone" transform="translate(601,1073)"  ><g class="GroupNone"><rect   width="118" height="78" fill-opacity=".1" stroke-dasharray="5,3" style="fill:#b4b464;stroke:grey"/><g id="b9278" class="Protein" transform="translate(9,29)"  name="CHMP4B" ><rect   width="100" height="20"/><text   transform="translate(50,10)"    >CHMP4B</text></g><g id="ba631" class="Protein" transform="translate(9,49)"  name="CHMP4C" ><rect   width="100" height="20"/><text   transform="translate(50,10)"    >CHMP4C</text></g><g id="f08bf" class="Protein" transform="translate(9,9)"  name="CHMP4A" ><rect   width="100" height="20"/><text   transform="translate(50,10)"    >CHMP4A</text></g></g></g><g id="b0954" class="GroupComplex" transform="translate(178,750)"  ><g class="GroupComplex"><use class="Icon" width="124" height="484" fill="#b4b464" fill-opacity=".1" stroke="grey" href="#Octagon"/><g id="a4f40" class="Protein" transform="translate(12,352)"  name="UBC(305-380)" ><rect   width="100" height="20"/><text   transform="translate(50,10)"    >UBC(305-380)</text></g><g id="ad2a6" class="Protein" transform="translate(12,12)"  name="VPS28" ><rect   width="100" height="20"/><text   transform="translate(50,10)"    >VPS28</text></g><g id="ae0d3" class="Protein" transform="translate(12,432)"  name="UBC(609-684)" ><rect   width="100" height="20"/><text   transform="translate(50,10)"    >UBC(609-684)</text></g><g id="aea34" class="Protein" transform="translate(12,252)"  name="UBB(153-228)" ><rect   width="100" height="20"/><text   transform="translate(50,10)"    >UBB(153-228)</text></g><g id="bfb0a" class="Protein" transform="translate(12,112)"  name="VPS37D" ><rect   width="100" height="20"/><text   transform="translate(50,10)"    >VPS37D</text></g><g id="c32c0" class="Metabolite " transform="translate(12,452)"  name="PI(3,4,5)P3" ><rect   width="100" height="20" style="stroke:#00f"/><text   transform="translate(50,10)"     style="fill:#00f">PI(3,4,5)P3</text></g><g id="c4f8b" class="Protein" transform="translate(12,392)"  name="UBC(457-532)" ><rect   width="100" height="20"/><text   transform="translate(50,10)"    >UBC(457-532)</text></g><g id="c6826" class="Protein" transform="translate(12,232)"  name="UBB(77-152)" ><rect   width="100" height="20"/><text   transform="translate(50,10)"    >UBB(77-152)</text></g><g id="c85b3" class="Protein" transform="translate(12,32)"  name="TSG101" ><rect   width="100" height="20"/><text   transform="translate(50,10)"    >TSG101</text></g><g id="cb3bc" class="Protein" transform="translate(12,292)"  name="UBC(77-152)" ><rect   width="100" height="20"/><text   transform="translate(50,10)"    >UBC(77-152)</text></g><g id="d3793" class="Protein" transform="translate(12,412)"  name="UBC(533-608)" ><rect   width="100" height="20"/><text   transform="translate(50,10)"    >UBC(533-608)</text></g><g id="d456c" class="Protein" transform="translate(12,312)"  name="UBC(153-228)" ><rect   width="100" height="20"/><text   transform="translate(50,10)"    >UBC(153-228)</text></g><g id="d654e" class="Protein" transform="translate(12,152)"  name="UBAP1" ><rect   width="100" height="20"/><text   transform="translate(50,10)"    >UBAP1</text></g><g id="d6ac4" class="Protein" transform="translate(12,92)"  name="VPS37C" ><rect   width="100" height="20"/><text   transform="translate(50,10)"    >VPS37C</text></g><g id="dfad6" class="Protein" transform="translate(12,72)"  name="VPS37B" ><rect   width="100" height="20"/><text   transform="translate(50,10)"    >VPS37B</text></g><g id="e0d34" class="Protein" transform="translate(12,272)"  name="UBC(1-76)" ><rect   width="100" height="20"/><text   transform="translate(50,10)"    >UBC(1-76)</text></g><g id="e6cef" class="Protein" transform="translate(12,52)"  name="VPS37A" ><rect   width="100" height="20"/><text   transform="translate(50,10)"    >VPS37A</text></g><g id="e9b67" class="Protein" transform="translate(12,212)"  name="UBB(1-76)" ><rect   width="100" height="20"/><text   transform="translate(50,10)"    >UBB(1-76)</text></g><g id="ec14a" class="Unknown Reactome_R-HSA-8959998" transform="translate(12,132)"  name="MVB12" ><rect   width="100" height="20"/><text   transform="translate(50,10)"    >MVB12</text></g><g id="eec36" class="Protein" transform="translate(12,372)"  name="UBC(381-456)" ><rect   width="100" height="20"/><text   transform="translate(50,10)"    >UBC(381-456)</text></g><g id="f1959" class="Protein" transform="translate(12,332)"  name="UBC(229-304)" ><rect   width="100" height="20"/><text   transform="translate(50,10)"    >UBC(229-304)</text></g><g id="f2b6f" class="Protein" transform="translate(12,192)"  name="UBA52(1-76)" ><rect   width="100" height="20"/><text   transform="translate(50,10)"    >UBA52(1-76)</text></g><g id="ff6bc" class="Protein" transform="translate(12,172)"  name="RPS27A(1-76)" ><rect   width="100" height="20"/><text   transform="translate(50,10)"    >RPS27A(1-76)</text></g></g></g><g id="b8936" class="GroupComplex" transform="translate(598,650)"  ><g class="GroupComplex"><use class="Icon" width="124" height="324" fill="#b4b464" fill-opacity=".1" stroke="grey" href="#Octagon"/><g id="a057a" class="Protein" transform="translate(12,172)"  name="UBC(153-228)" ><rect   width="100" height="20"/><text   transform="translate(50,10)"    >UBC(153-228)</text></g><g id="a06a1" class="Protein" transform="translate(12,52)"  name="UBA52(1-76)" ><rect   width="100" height="20"/><text   transform="translate(50,10)"    >UBA52(1-76)</text></g><g id="a0f91" class="Protein" transform="translate(12,232)"  name="UBC(381-456)" ><rect   width="100" height="20"/><text   transform="translate(50,10)"    >UBC(381-456)</text></g><g id="a8ac5" class="Protein" transform="translate(12,72)"  name="UBB(1-76)" ><rect   width="100" height="20"/><text   transform="translate(50,10)"    >UBB(1-76)</text></g><g id="b749a" class="Protein" transform="translate(12,252)"  name="UBC(457-532)" ><rect   width="100" height="20"/><text   transform="translate(50,10)"    >UBC(457-532)</text></g><g id="c1a6e" class="Protein" transform="translate(12,92)"  name="UBB(77-152)" ><rect   width="100" height="20"/><text   transform="translate(50,10)"    >UBB(77-152)</text></g><g id="d1fc6" class="Protein" transform="translate(12,192)"  name="UBC(229-304)" ><rect   width="100" height="20"/><text   transform="translate(50,10)"    >UBC(229-304)</text></g><g id="d6195" class="Metabolite " transform="translate(12,12)"  name="PI(3,4,5)P3" ><rect   width="100" height="20" style="stroke:#00f"/><text   transform="translate(50,10)"     style="fill:#00f">PI(3,4,5)P3</text></g><g id="d70d6" class="Protein" transform="translate(12,272)"  name="UBC(533-608)" ><rect   width="100" height="20"/><text   transform="translate(50,10)"    >UBC(533-608)</text></g><g id="d8f18" class="Protein" transform="translate(12,132)"  name="UBC(1-76)" ><rect   width="100" height="20"/><text   transform="translate(50,10)"    >UBC(1-76)</text></g><g id="e1eb8" class="Protein" transform="translate(12,32)"  name="RPS27A(1-76)" ><rect   width="100" height="20"/><text   transform="translate(50,10)"    >RPS27A(1-76)</text></g><g id="e4028" class="Protein" transform="translate(12,292)"  name="UBC(609-684)" ><rect   width="100" height="20"/><text   transform="translate(50,10)"    >UBC(609-684)</text></g><g id="e85b0" class="Protein" transform="translate(12,152)"  name="UBC(77-152)" ><rect   width="100" height="20"/><text   transform="translate(50,10)"    >UBC(77-152)</text></g><g id="fdf3a" class="Protein" transform="translate(12,112)"  name="UBB(153-228)" ><rect   width="100" height="20"/><text   transform="translate(50,10)"    >UBB(153-228)</text></g><g id="fefbd" class="Protein" transform="translate(12,212)"  name="UBC(305-380)" ><rect   width="100" height="20"/><text   transform="translate(50,10)"    >UBC(305-380)</text></g></g></g><g id="bd3f0" class="GroupComplex" transform="translate(458,850)"  ><g class="GroupComplex"><use class="Icon" width="124" height="484" fill="#b4b464" fill-opacity=".1" stroke="grey" href="#Octagon"/><g id="a5650" class="Protein" transform="translate(12,92)"  name="CHMP4B" ><rect   width="100" height="20"/><text   transform="translate(50,10)"    >CHMP4B</text></g><g id="aaa0f" class="Protein" transform="translate(12,112)"  name="CHMP4C" ><rect   width="100" height="20"/><text   transform="translate(50,10)"    >CHMP4C</text></g><g id="aaf99" class="Protein" transform="translate(12,12)"  name="CHMP2A" ><rect   width="100" height="20"/><text   transform="translate(50,10)"    >CHMP2A</text></g><g id="aafc6" class="Protein" transform="translate(12,412)"  name="UBC(533-608)" ><rect   width="100" height="20"/><text   transform="translate(50,10)"    >UBC(533-608)</text></g><g id="b063c" class="Protein" transform="translate(12,32)"  name="CHMP2B" ><rect   width="100" height="20"/><text   transform="translate(50,10)"    >CHMP2B</text></g><g id="b4a8f" class="Metabolite " transform="translate(12,452)"  name="PI(3,4,5)P3" ><rect   width="100" height="20" style="stroke:#00f"/><text   transform="translate(50,10)"     style="fill:#00f">PI(3,4,5)P3</text></g><g id="ba27a" class="Protein" transform="translate(12,392)"  name="UBC(457-532)" ><rect   width="100" height="20"/><text   transform="translate(50,10)"    >UBC(457-532)</text></g><g id="bbcfb" class="Protein" transform="translate(12,352)"  name="UBC(305-380)" ><rect   width="100" height="20"/><text   transform="translate(50,10)"    >UBC(305-380)</text></g><g id="cb8a7" class="Protein" transform="translate(12,312)"  name="UBC(153-228)" ><rect   width="100" height="20"/><text   transform="translate(50,10)"    >UBC(153-228)</text></g><g id="cde58" class="Protein" transform="translate(12,232)"  name="UBB(77-152)" ><rect   width="100" height="20"/><text   transform="translate(50,10)"    >UBB(77-152)</text></g><g id="cfe55" class="Protein" transform="translate(12,332)"  name="UBC(229-304)" ><rect   width="100" height="20"/><text   transform="translate(50,10)"    >UBC(229-304)</text></g><g id="d5a75" class="Protein" transform="translate(12,272)"  name="UBC(1-76)" ><rect   width="100" height="20"/><text   transform="translate(50,10)"    >UBC(1-76)</text></g><g id="e3416" class="Protein" transform="translate(12,72)"  name="CHMP4A" ><rect   width="100" height="20"/><text   transform="translate(50,10)"    >CHMP4A</text></g><g id="eac0e" class="Protein" transform="translate(12,192)"  name="UBA52(1-76)" ><rect   width="100" height="20"/><text   transform="translate(50,10)"    >UBA52(1-76)</text></g><g id="eb1ab" class="Protein" transform="translate(12,172)"  name="RPS27A(1-76)" ><rect   width="100" height="20"/><text   transform="translate(50,10)"    >RPS27A(1-76)</text></g><g id="ed1f4" class="Protein" transform="translate(12,372)"  name="UBC(381-456)" ><rect   width="100" height="20"/><text   transform="translate(50,10)"    >UBC(381-456)</text></g><g id="ed473" class="Protein" transform="translate(12,132)"  name="CHMP6" ><rect   width="100" height="20"/><text   transform="translate(50,10)"    >CHMP6</text></g><g id="ef825" class="Protein" transform="translate(12,432)"  name="UBC(609-684)" ><rect   width="100" height="20"/><text   transform="translate(50,10)"    >UBC(609-684)</text></g><g id="eff24" class="Protein" transform="translate(12,292)"  name="UBC(77-152)" ><rect   width="100" height="20"/><text   transform="translate(50,10)"    >UBC(77-152)</text></g><g id="f3d32" class="Protein" transform="translate(12,152)"  name="CHMP7" ><rect   width="100" height="20"/><text   transform="translate(50,10)"    >CHMP7</text></g><g id="f9f73" class="Protein" transform="translate(12,212)"  name="UBB(1-76)" ><rect   width="100" height="20"/><text   transform="translate(50,10)"    >UBB(1-76)</text></g><g id="fb141" class="Protein" transform="translate(12,52)"  name="CHMP3" ><rect   width="100" height="20"/><text   transform="translate(50,10)"    >CHMP3</text></g><g id="fd329" class="Protein" transform="translate(12,252)"  name="UBB(153-228)" ><rect   width="100" height="20"/><text   transform="translate(50,10)"    >UBB(153-228)</text></g></g></g><g id="ca1dc" class="GroupComplex" transform="translate(178,650)"  ><g class="GroupComplex"><use class="Icon" width="124" height="84" fill="#b4b464" fill-opacity=".1" stroke="grey" href="#Octagon"/><g id="afdde" class="Protein" transform="translate(12,12)"  name="STAM" ><rect   width="100" height="20"/><text   transform="translate(50,10)"    >STAM</text></g><g id="dbd3c" class="Protein" transform="translate(12,52)"  name="HGS" ><rect   width="100" height="20"/><text   transform="translate(50,10)"    >HGS</text></g><g id="f7a89" class="Protein" transform="translate(12,32)"  name="STAM2" ><rect   width="100" height="20"/><text   transform="translate(50,10)"    >STAM2</text></g></g></g><g id="d1110" class="GroupComplex" transform="translate(318,750)"  ><g class="GroupComplex"><use class="Icon" width="124" height="384" fill="#b4b464" fill-opacity=".1" stroke="grey" href="#Octagon"/><g id="a910c" class="Protein" transform="translate(12,172)"  name="UBC(1-76)" ><rect   width="100" height="20"/><text   transform="translate(50,10)"    >UBC(1-76)</text></g><g id="aae84" class="Protein" transform="translate(12,112)"  name="UBB(1-76)" ><rect   width="100" height="20"/><text   transform="translate(50,10)"    >UBB(1-76)</text></g><g id="b2737" class="Protein" transform="translate(12,192)"  name="UBC(77-152)" ><rect   width="100" height="20"/><text   transform="translate(50,10)"    >UBC(77-152)</text></g><g id="bac71" class="Protein" transform="translate(12,72)"  name="RPS27A(1-76)" ><rect   width="100" height="20"/><text   transform="translate(50,10)"    >RPS27A(1-76)</text></g><g id="bb191" class="Protein" transform="translate(12,292)"  name="UBC(457-532)" ><rect   width="100" height="20"/><text   transform="translate(50,10)"    >UBC(457-532)</text></g><g id="c59d9" class="Protein" transform="translate(12,132)"  name="UBB(77-152)" ><rect   width="100" height="20"/><text   transform="translate(50,10)"    >UBB(77-152)</text></g><g id="c9fa4" class="Protein" transform="translate(12,252)"  name="UBC(305-380)" ><rect   width="100" height="20"/><text   transform="translate(50,10)"    >UBC(305-380)</text></g><g id="cad4a" class="Protein" transform="translate(12,92)"  name="UBA52(1-76)" ><rect   width="100" height="20"/><text   transform="translate(50,10)"    >UBA52(1-76)</text></g><g id="cc239" class="Protein" transform="translate(12,332)"  name="UBC(609-684)" ><rect   width="100" height="20"/><text   transform="translate(50,10)"    >UBC(609-684)</text></g><g id="d0672" class="Protein" transform="translate(12,232)"  name="UBC(229-304)" ><rect   width="100" height="20"/><text   transform="translate(50,10)"    >UBC(229-304)</text></g><g id="d3f7f" class="Protein" transform="translate(12,152)"  name="UBB(153-228)" ><rect   width="100" height="20"/><text   transform="translate(50,10)"    >UBB(153-228)</text></g><g id="d9b0c" class="Protein" transform="translate(12,212)"  name="UBC(153-228)" ><rect   width="100" height="20"/><text   transform="translate(50,10)"    >UBC(153-228)</text></g><g id="de305" class="Protein" transform="translate(12,32)"  name="VPS25" ><rect   width="100" height="20"/><text   transform="translate(50,10)"    >VPS25</text></g><g id="dfdbb" class="Protein" transform="translate(12,52)"  name="VPS36" ><rect   width="100" height="20"/><text   transform="translate(50,10)"    >VPS36</text></g><g id="e294c" class="Protein" transform="translate(12,272)"  name="UBC(381-456)" ><rect   width="100" height="20"/><text   transform="translate(50,10)"    >UBC(381-456)</text></g><g id="e7de4" class="Metabolite " transform="translate(12,352)"  name="PI(3,4,5)P3" ><rect   width="100" height="20" style="stroke:#00f"/><text   transform="translate(50,10)"     style="fill:#00f">PI(3,4,5)P3</text></g><g id="f7ab6" class="Protein" transform="translate(12,12)"  name="SNF8" ><rect   width="100" height="20"/><text   transform="translate(50,10)"    >SNF8</text></g><g id="fa239" class="Protein" transform="translate(12,312)"  name="UBC(533-608)" ><rect   width="100" height="20"/><text   transform="translate(50,10)"    >UBC(533-608)</text></g></g></g><g id="de5df" class="GroupNone" transform="translate(601,993)"  ><g class="GroupNone"><rect   width="118" height="58" fill-opacity=".1" stroke-dasharray="5,3" style="fill:#b4b464;stroke:grey"/><g id="c9c67" class="Protein" transform="translate(9,29)"  name="CHMP2B" ><rect   width="100" height="20"/><text   transform="translate(50,10)"    >CHMP2B</text></g><g id="f51e6" class="Protein" transform="translate(9,9)"  name="CHMP2A" ><rect   width="100" height="20"/><text   transform="translate(50,10)"    >CHMP2A</text></g></g></g><g id="df068" class="GroupComplex" transform="translate(458,650)"  ><g class="GroupComplex"><use class="Icon" width="124" height="184" fill="#b4b464" fill-opacity=".1" stroke="grey" href="#Octagon"/><g id="a2862" class="Protein" transform="translate(12,32)"  name="CHMP2B" ><rect   width="100" height="20"/><text   transform="translate(50,10)"    >CHMP2B</text></g><g id="ae161" class="Protein" transform="translate(12,12)"  name="CHMP2A" ><rect   width="100" height="20"/><text   transform="translate(50,10)"    >CHMP2A</text></g><g id="aeba1" class="Protein" transform="translate(12,52)"  name="CHMP3" ><rect   width="100" height="20"/><text   transform="translate(50,10)"    >CHMP3</text></g><g id="cd220" class="Protein" transform="translate(12,132)"  name="CHMP6" ><rect   width="100" height="20"/><text   transform="translate(50,10)"    >CHMP6</text></g><g id="cf0a9" class="Protein" transform="translate(12,152)"  name="CHMP7" ><rect   width="100" height="20"/><text   transform="translate(50,10)"    >CHMP7</text></g><g id="e6eac" class="Protein" transform="translate(12,72)"  name="CHMP4A" ><rect   width="100" height="20"/><text   transform="translate(50,10)"    >CHMP4A</text></g><g id="f1980" class="Protein" transform="translate(12,92)"  name="CHMP4B" ><rect   width="100" height="20"/><text   transform="translate(50,10)"    >CHMP4B</text></g><g id="f3ed3" class="Protein" transform="translate(12,112)"  name="CHMP4C" ><rect   width="100" height="20"/><text   transform="translate(50,10)"    >CHMP4C</text></g></g></g><g id="e15d3" class="GroupComplex" transform="translate(738,650)"  ><g class="GroupComplex"><use class="Icon" width="124" height="104" fill="#b4b464" fill-opacity=".1" stroke="grey" href="#Octagon"/><g id="becd4" class="Protein" transform="translate(12,32)"  name="VPS4B" ><rect   width="100" height="20"/><text   transform="translate(50,10)"    >VPS4B</text></g><g id="c8318" class="Protein" transform="translate(12,52)"  name="CHMP5" ><rect   width="100" height="20"/><text   transform="translate(50,10)"    >CHMP5</text></g><g id="f07d1" class="Protein" transform="translate(12,12)"  name="VPS4A" ><rect   width="100" height="20"/><text   transform="translate(50,10)"    >VPS4A</text></g><g id="f90f7" class="Protein" transform="translate(12,72)"  name="VTA1" ><rect   width="100" height="20"/><text   transform="translate(50,10)"    >VTA1</text></g></g></g><g id="e8bc6" class="GroupComplex" transform="translate(38,610)"  ><g class="GroupComplex"><use class="Icon" width="124" height="184" fill="#b4b464" fill-opacity=".1" stroke="grey" href="#Octagon"/><g id="aac2a" class="Protein" transform="translate(12,12)"  name="VPS28" ><rect   width="100" height="20"/><text   transform="translate(50,10)"    >VPS28</text></g><g id="b24a4" class="Unknown Reactome_R-HSA-8959998" transform="translate(12,132)"  name="MVB12" ><rect   width="100" height="20"/><text   transform="translate(50,10)"    >MVB12</text></g><g id="b3bc0" class="Protein" transform="translate(12,52)"  name="VPS37A" ><rect   width="100" height="20"/><text   transform="translate(50,10)"    >VPS37A</text></g><g id="d37a0" class="Protein" transform="translate(12,92)"  name="VPS37C" ><rect   width="100" height="20"/><text   transform="translate(50,10)"    >VPS37C</text></g><g id="d6d42" class="Protein" transform="translate(12,112)"  name="VPS37D" ><rect   width="100" height="20"/><text   transform="translate(50,10)"    >VPS37D</text></g><g id="ea376" class="Protein" transform="translate(12,72)"  name="VPS37B" ><rect   width="100" height="20"/><text   transform="translate(50,10)"    >VPS37B</text></g><g id="ee939" class="Protein" transform="translate(12,152)"  name="UBAP1" ><rect   width="100" height="20"/><text   transform="translate(50,10)"    >UBAP1</text></g><g id="ef45a" class="Protein" transform="translate(12,32)"  name="TSG101" ><rect   width="100" height="20"/><text   transform="translate(50,10)"    >TSG101</text></g></g></g><g id="facf1" class="GroupComplex" transform="translate(38,810)"  ><g class="GroupComplex"><use class="Icon" width="124" height="384" fill="#b4b464" fill-opacity=".1" stroke="grey" href="#Octagon"/><g id="b0f18" class="Protein" transform="translate(12,92)"  name="UBA52(1-76)" ><rect   width="100" height="20"/><text   transform="translate(50,10)"    >UBA52(1-76)</text></g><g id="bb21f" class="Protein" transform="translate(12,32)"  name="STAM2" ><rect   width="100" height="20"/><text   transform="translate(50,10)"    >STAM2</text></g><g id="bedc6" class="Protein" transform="translate(12,332)"  name="UBC(609-684)" ><rect   width="100" height="20"/><text   transform="translate(50,10)"    >UBC(609-684)</text></g><g id="bedd8" class="Protein" transform="translate(12,112)"  name="UBB(1-76)" ><rect   width="100" height="20"/><text   transform="translate(50,10)"    >UBB(1-76)</text></g><g id="beff5" class="Protein" transform="translate(12,252)"  name="UBC(305-380)" ><rect   width="100" height="20"/><text   transform="translate(50,10)"    >UBC(305-380)</text></g><g id="c4336" class="Protein" transform="translate(12,172)"  name="UBC(1-76)" ><rect   width="100" height="20"/><text   transform="translate(50,10)"    >UBC(1-76)</text></g><g id="c62a7" class="Protein" transform="translate(12,312)"  name="UBC(533-608)" ><rect   width="100" height="20"/><text   transform="translate(50,10)"    >UBC(533-608)</text></g><g id="c6f0a" class="Protein" transform="translate(12,152)"  name="UBB(153-228)" ><rect   width="100" height="20"/><text   transform="translate(50,10)"    >UBB(153-228)</text></g><g id="c883a" class="Protein" transform="translate(12,212)"  name="UBC(153-228)" ><rect   width="100" height="20"/><text   transform="translate(50,10)"    >UBC(153-228)</text></g><g id="d1490" class="Protein" transform="translate(12,232)"  name="UBC(229-304)" ><rect   width="100" height="20"/><text   transform="translate(50,10)"    >UBC(229-304)</text></g><g id="d1dfc" class="Protein" transform="translate(12,12)"  name="STAM" ><rect   width="100" height="20"/><text   transform="translate(50,10)"    >STAM</text></g><g id="d2acd" class="Protein" transform="translate(12,292)"  name="UBC(457-532)" ><rect   width="100" height="20"/><text   transform="translate(50,10)"    >UBC(457-532)</text></g><g id="d7588" class="Protein" transform="translate(12,52)"  name="HGS" ><rect   width="100" height="20"/><text   transform="translate(50,10)"    >HGS</text></g><g id="e227b" class="Protein" transform="translate(12,272)"  name="UBC(381-456)" ><rect   width="100" height="20"/><text   transform="translate(50,10)"    >UBC(381-456)</text></g><g id="e9dde" class="Protein" transform="translate(12,132)"  name="UBB(77-152)" ><rect   width="100" height="20"/><text   transform="translate(50,10)"    >UBB(77-152)</text></g><g id="e9f65" class="Protein" transform="translate(12,72)"  name="RPS27A(1-76)" ><rect   width="100" height="20"/><text   transform="translate(50,10)"    >RPS27A(1-76)</text></g><g id="f15b9" class="Protein" transform="translate(12,192)"  name="UBC(77-152)" ><rect   width="100" height="20"/><text   transform="translate(50,10)"    >UBC(77-152)</text></g><g id="f1f55" class="Metabolite " transform="translate(12,352)"  name="PI(3,4,5)P3" ><rect   width="100" height="20" style="stroke:#00f"/><text   transform="translate(50,10)"     style="fill:#00f">PI(3,4,5)P3</text></g></g></g><g id="feda6" class="GroupComplex" transform="translate(318,650)"  ><g class="GroupComplex"><use class="Icon" width="124" height="84" fill="#b4b464" fill-opacity=".1" stroke="grey" href="#Octagon"/><g id="e2d53" class="Protein" transform="translate(12,12)"  name="SNF8" ><rect   width="100" height="20"/><text   transform="translate(50,10)"    >SNF8</text></g><g id="ee712" class="Protein" transform="translate(12,32)"  name="VPS25" ><rect   width="100" height="20"/><text   transform="translate(50,10)"    >VPS25</text></g><g id="fdf87" class="Protein" transform="translate(12,52)"  name="VPS36" ><rect   width="100" height="20"/><text   transform="translate(50,10)"    >VPS36</text></g></g></g></g></g></g></svg>