<?xml version="1.0" encoding="UTF-8"?>
<svg xmlns="http://www.w3.org/2000/svg" id="-svg" class="Diagram"  baseProfile="full" prefix="schema:http://schema.org/" preserveAspectRatio="xMidYMid"  version="1.1"><defs><g id="filter-defs"><filter id="doubletrue0filter" x="-50%" y="-50%" width="200%" height="200%"><feMorphology in="SourceGraphic" operator="dilate" radius="1" result="in2Double"/><feMorphology in="SourceGraphic" radius="1" result="inDouble"/><feComposite in="inDouble" in2="in2Double" operator="atop" result="doubleResult"/></filter></g><g id="icon-defs"><symbol id="HexagonPathVisio" class=" Icon HexagonPathVisio" x="0" y="8" overflow="visible" preserveAspectRatio="none" viewBox="0 8 100 86"><desc>HexagonPathVisio</desc><g transform="scale(1 0.85)"><path d="m1.42 51.00 21.07-42.14h56.19l21.07 42.14-21.07 42.15h-56.19l-21.07-42.15z" stroke="currentColor" vector-effect="non-scaling-stroke"/></g></symbol><symbol id="Octagon" class=" Icon Octagon" x="0" y="0" overflow="visible" preserveAspectRatio="none" viewBox="0 0 100 100"><desc>Octagon</desc><path d="m0 25 25-25h50l25 25v50l-25 25h-50l-25-25z" vector-effect="non-scaling-stroke"/></symbol></g><g id="marker-defs"><marker id="mea" markerHeight="12" markerWidth="12" orient="auto" preserveAspectRatio="none" refX="12" refY="6" viewBox="0 0 12 12"><g id="g-mea" transform=""><g transform="rotate(180 6 6)"><rect y="5.4" width="2" height="1.2" style="stroke:#fff"/><polygon points="12 11 0 6 12 1" stroke-width="0"/></g></g></marker></g></defs><g id="viewport-20220102141957477" class="svg-pan-zoom_viewport" transform="matrix(0.67 0 0 0.67 194.41 0)" style="transform:matrix(0.67, 0, 0, 0.67, 194.41, 0)"><style>svg.Diagram {font-family: 'Liberation Sans', Arial, sans-serif; }.Diagram path {fill: transparent;stroke: #000;marker-end: url(#mea);}.Diagram symbol path {fill: inherit;stroke: inherit;stroke-width: inherit;marker-end: inherit;}.Diagram rect {fill: #fff;stroke: #000;}.Diagram text {dominant-baseline: central;overflow: hidden;text-anchor: middle;fill: #000;font-size: 10px;}</style><style type="text/css">.Viewport .textContent {
  pointer-events: none;
  stroke-width: 0px;
}

					.Viewport.Icon {
  fill: white;
}

/* Hide the InfoBox */
.Viewport.textContent {
  font-size: 0;
}

.textContent {
  stroke: none;
}

.DataNode {
  stroke-miterlimit: 1;
  pointer-events: auto;
}

.DataNode:hover {
  cursor: pointer;
}

/* TODO should this apply to things other than DataNodes? */
.DataNode.textContent {
  pointer-events: none;
}

.DataNode.Highlighted {
  opacity: 0.6;
  stroke-width: 0px;
}

marker {
  /* this is what should work per the spec
  stroke-dasharray: none; */
  /* but I need to add this to make it work in Safari */
  stroke-dasharray: 9999999999999999999999999;
}

.Citation.Icon {
  fill: none;
  stroke-width: 0px;
}

.Citation.textContent {
  text-align: center;
  vertical-align: top;
  font-size: 7px;
  fill: #999;
  fill-opacity: 1;
  stroke: none;
}</style><g id="WP3568" class="Pathway http___identifiers_org_pw_PW_0000681 Viewport"  name="Name: FasL/ CD95L signaling Organism: Homo sapiens" ><g class="Pathway http___identifiers_org_pw_PW_0000681 Viewport"><rect   width="1202" height="1058" style="stroke:none"/><g id="ac665" class="Reactome_R-HSA-83650"  ><path    d="m674 145 80-13" style="marker-end:none"/><g id="bc26c" class="AB" transform="translate(674,145)"  ><g class="AB"/></g><g id="f01d3" class="AB" transform="translate(753.2,132.13)"  ><g class="AB"/></g></g><g id="a1146" class="Reactome_R-HSA-83650"  ><path    d="m601 173 73-28" style="marker-end:none"/></g><g id="affdd" class="Reactome_R-HSA-141310"  ><path    d="m929 185 126 4" style="marker-end:none"/><g id="a1e8a" class="AB" transform="translate(929,185)"  ><g class="AB"/></g><g id="fcec4" class="AB" transform="translate(1053.7 188.96)"  ><g class="AB"/></g></g><g id="b17c8" class="Reactome_R-HSA-83650"  ><path    d="m754 132-8-21"/></g><g id="bdf35" class="Reactome_R-HSA-75244"  ><path    d="m240 84 83 23" style="marker-end:none"/><g id="efb03" class="AB" transform="translate(240,84)"  ><g class="AB"/></g><g id="efd4e" class="AB" transform="translate(322.17 106.77)"  ><g class="AB"/></g></g><g id="a3052" class="Reactome_R-HSA-75244"  ><path    d="m191 113 49-29" style="marker-end:none"/></g><g id="c1cc1" class="Reactome_R-HSA-75244"  ><path    d="m239 37 1 47" style="marker-end:none"/></g><g id="cdd36" class="Reactome_R-HSA-83586"  ><path    d="m918 153 75-14" style="marker-end:none"/><g id="c7352" class="AB" transform="translate(918,153)"  ><g class="AB"/></g><g id="bac63" class="AB" transform="translate(992.25 139.14)"  ><g class="AB"/></g></g><g id="aead7" class="Reactome_R-HSA-83586"  ><path    d="m856 178 62-25" style="marker-end:none"/></g><g id="b90f7" class="Reactome_R-HSA-83586"  ><path    d="m860 111 58 42" style="marker-end:none"/></g><g id="d2c93" class="Reactome_R-HSA-71050"  ><path    d="m419 110 81-7" style="marker-end:none"/><g id="ef02d" class="AB" transform="translate(419,110)"  ><g class="AB"/></g><g id="e8a63" class="AB" transform="translate(499.19 103.07)"  ><g class="AB"/></g></g><g id="cd5e6" class="Reactome_R-HSA-71050"  ><path    d="m500 103v21"/></g><g id="d421d" class="Reactome_R-HSA-141310"  ><path    d="m898 224 31-39" style="marker-end:none"/></g><g id="d495b" class="Reactome_R-HSA-141310"  ><path    d="m1055 189 3 4"/></g><g id="de83a" class="Reactome_R-HSA-71050"  ><path    d="m416 128 3-18" style="marker-end:none"/></g><g id="eb03f" class="Reactome_R-HSA-83586"  ><path    d="m993 139 3-16"/></g><g id="f1d06" class="Reactome_R-HSA-75244"  ><path    d="m323 107-21 21"/></g><g id="f45fb" class="Reactome_R-HSA-83650"  ><path    d="m614 124 60 21" style="marker-end:none"/></g><g id="f57d3" class="Reactome_R-HSA-141310"  ><path    d="m860 111 69 74" style="marker-end:none"/></g><g id="fc78d" class="GroupGroup" transform="translate(115,104)"  ><g class="GroupGroup"><g id="bccec" class="" transform="translate(8,8)"  ><g class=""><rect   transform="matrix(1.00 0 0 0.99 1.50 1.49)" width="1012" height="438" rx="15" ry="15" stroke-width="3" style="fill:transparent;stroke:#c0c0c0"/></g></g><g id="e63c6" class="Label" transform="translate(484,210)"  name="cytosol" ><g class="Label"/><text   transform="translate(32,16.5)"    >cytosol</text></g></g></g><g id="a7107" class="Complex Reactome_R-HSA-75114" transform="translate(996,98)"  name="FASL:FAS trimer:FADD:CASP8(1-479)" ><g class="Complex Reactome_R-HSA-75114"><use class="Complex Reactome_R-HSA-75114 Node Icon" width="114" height="50" fill="#fff" stroke="#a52a2a" href="#HexagonPathVisio"/></g><g ><defs><clipPath ><rect x="-57" y="-25" width="114" height="50" style="stroke:none"/></clipPath></defs><text   transform="translate(57,25)"     style="fill:#a52a2a"><tspan   x="0" y="-5.5">FASL:FAS</tspan><tspan   x="0" y="5.5">trimer:FADD:CASP8(1-479)</tspan></text></g></g><g id="b703f" class="Protein" transform="translate(153,26)"  name="FASLG(1-281)" ><rect   width="87" height="22"/><text   transform="translate(43.5,11)"    >FASLG(1-281)</text></g><g id="bbe35" class="Complex Reactome_R-HSA-43124" transform="translate(746,93)"  name="FASL:FAS Receptor Trimer:FADD" ><g class="Complex Reactome_R-HSA-43124"><use class="Complex Reactome_R-HSA-43124 Node Icon" width="114" height="36" fill="#fff" stroke="#a52a2a" href="#HexagonPathVisio"/></g><g ><defs><clipPath ><rect x="-57" y="-18" width="114" height="36" style="stroke:none"/></clipPath></defs><text   transform="translate(57,18)"     style="fill:#a52a2a"><tspan   x="0" y="-5.5">FASL:FAS Receptor</tspan><tspan   x="0" y="5.5">Trimer:FADD</tspan></text></g></g><g id="c089d" class="Complex Reactome_R-HSA-76564" transform="translate(302,110)"  name="FASL:FAS Receptor monomer" ><g class="Complex Reactome_R-HSA-76564"><use class="Complex Reactome_R-HSA-76564 Node Icon" width="114" height="36" fill="#fff" stroke="#a52a2a" href="#HexagonPathVisio"/></g><g ><defs><clipPath ><rect x="-57" y="-18" width="114" height="36" style="stroke:none"/></clipPath></defs><text   transform="translate(57,18)"     style="fill:#a52a2a"><tspan   x="0" y="-5.5">FASL:FAS Receptor</tspan><tspan   x="0" y="5.5">monomer</tspan></text></g></g><g id="c3a19" class="Protein" transform="translate(561,162)"  name="FADD" ><rect   width="40" height="22"/><text   transform="translate(20,11)"    >FADD</text></g><g id="cb6dc" class="Protein" transform="translate(163,102)"  name="FAS" ><rect   width="29" height="22"/><text   transform="translate(14.5,11)"    >FAS</text></g><g id="cc0ca" class="Protein" transform="translate(744,167)"  name="CASP8(1-479)" ><rect   width="112" height="22"/><text   transform="translate(56,11)"    >CASP8(1-479)</text></g><g id="d63fc" class="Complex Reactome_R-HSA-76195" transform="translate(500,106)"  name="FASL:FAS Receptor Trimer" ><g class="Complex Reactome_R-HSA-76195"><use class="Complex Reactome_R-HSA-76195 Node Icon" width="114" height="36" fill="#fff" stroke="#a52a2a" href="#HexagonPathVisio"/></g><g ><defs><clipPath ><rect x="-57" y="-18" width="114" height="36" style="stroke:none"/></clipPath></defs><text   transform="translate(57,18)"     style="fill:#a52a2a"><tspan   x="0" y="-5.5">FASL:FAS Receptor</tspan><tspan   x="0" y="5.5">Trimer</tspan></text></g></g><g id="d9944" class="Complex Reactome_R-HSA-141315" transform="translate(1058,168)"  name="FASL:FAS Receptor Trimer:FADD:pro-Caspase-10" ><g class="Complex Reactome_R-HSA-141315"><use class="Complex Reactome_R-HSA-141315 Node Icon" width="114" height="50" fill="#fff" stroke="#a52a2a" href="#HexagonPathVisio"/></g><g ><defs><clipPath ><rect x="-57" y="-25" width="114" height="50" style="stroke:none"/></clipPath></defs><text   transform="translate(57,25)"     style="fill:#a52a2a"><tspan   x="0" y="-11">FASL:FAS</tspan><tspan   x="0" y="0">Receptor</tspan><tspan   x="0" y="11">Trimer:FADD:pro-Caspase-10</tspan></text></g></g><g id="e1477" class="Pathway Reactome_R-HSA-140534" transform="translate(936,346)"  name="Caspase activation via Death Receptors in the presence of ligand" ><g class="Pathway Reactome_R-HSA-140534" filter="url(#doubletrue0filter)"><g class="Pathway Reactome_R-HSA-140534"><rect   width="134" height="83" style="stroke:none"/></g></g><g ><defs><clipPath ><rect x="-67" y="-41.5" width="134" height="83" style="stroke:none"/></clipPath></defs><text   transform="translate(67,41.5)"     style="fill:#14961e"><tspan   x="0" y="-16.5">Caspase activation</tspan><tspan   x="0" y="-5.5">via Death Receptors</tspan><tspan   x="0" y="5.5">in the presence of</tspan><tspan   x="0" y="16.5">ligand</tspan></text></g></g><g id="eb2b8" class="Protein" transform="translate(798,213)"  name="CASP10(1-521)" ><rect   width="101" height="22"/><text   transform="translate(50.5,11)"    >CASP10(1-521)</text></g><g id="a9e1f" class="GroupComplex" transform="translate(38,736)"  ><g class="GroupComplex"><use class="Icon" width="124" height="104" fill="#b4b464" fill-opacity=".1" stroke="grey" href="#Octagon"/><g id="a7d78" class="Protein" transform="translate(12,52)"  name="FADD" ><rect   width="100" height="20"/><text   transform="translate(50,10)"    >FADD</text></g><g id="b6997" class="Protein" transform="translate(12,32)"  name="FAS" ><rect   width="100" height="20"/><text   transform="translate(50,10)"    >FAS</text></g><g id="c8aec" class="Protein" transform="translate(12,12)"  name="FASLG(1-281)" ><rect   width="100" height="20"/><text   transform="translate(50,10)"    >FASLG(1-281)</text></g><g id="e7798" class="Protein" transform="translate(12,72)"  name="CASP10(1-521)" ><rect   width="100" height="20"/><text   transform="translate(50,10)"    >CASP10(1-521)</text></g></g></g><g id="c87b8" class="GroupComplex" transform="translate(38,976)"  ><g class="GroupComplex"><use class="Icon" width="124" height="64" fill="#b4b464" fill-opacity=".1" stroke="grey" href="#Octagon"/><g id="af4df" class="Protein" transform="translate(12,12)"  name="FASLG(1-281)" ><rect   width="100" height="20"/><text   transform="translate(50,10)"    >FASLG(1-281)</text></g><g id="e8417" class="Protein" transform="translate(12,32)"  name="FAS" ><rect   width="100" height="20"/><text   transform="translate(50,10)"    >FAS</text></g></g></g><g id="d36a8" class="GroupComplex" transform="translate(38,856)"  ><g class="GroupComplex"><use class="Icon" width="124" height="104" fill="#b4b464" fill-opacity=".1" stroke="grey" href="#Octagon"/><g id="adda7" class="Protein" transform="translate(12,32)"  name="FAS" ><rect   width="100" height="20"/><text   transform="translate(50,10)"    >FAS</text></g><g id="b3770" class="Protein" transform="translate(12,12)"  name="FASLG(1-281)" ><rect   width="100" height="20"/><text   transform="translate(50,10)"    >FASLG(1-281)</text></g><g id="bc3bf" class="Protein" transform="translate(12,52)"  name="FADD" ><rect   width="100" height="20"/><text   transform="translate(50,10)"    >FADD</text></g><g id="f2191" class="Protein" transform="translate(12,72)"  name="CASP8(1-479)" ><rect   width="100" height="20"/><text   transform="translate(50,10)"    >CASP8(1-479)</text></g></g></g><g id="dbd92" class="GroupComplex" transform="translate(38,656)"  ><g class="GroupComplex"><use class="Icon" width="124" height="64" fill="#b4b464" fill-opacity=".1" stroke="grey" href="#Octagon"/><g id="b96d4" class="Protein" transform="translate(12,32)"  name="FAS" ><rect   width="100" height="20"/><text   transform="translate(50,10)"    >FAS</text></g><g id="c4951" class="Protein" transform="translate(12,12)"  name="FASLG(1-281)" ><rect   width="100" height="20"/><text   transform="translate(50,10)"    >FASLG(1-281)</text></g></g></g><g id="faeac" class="GroupComplex" transform="translate(38,556)"  ><g class="GroupComplex"><use class="Icon" width="124" height="84" fill="#b4b464" fill-opacity=".1" stroke="grey" href="#Octagon"/><g id="a9e15" class="Protein" transform="translate(12,32)"  name="FAS" ><rect   width="100" height="20"/><text   transform="translate(50,10)"    >FAS</text></g><g id="bdd0e" class="Protein" transform="translate(12,12)"  name="FASLG(1-281)" ><rect   width="100" height="20"/><text   transform="translate(50,10)"    >FASLG(1-281)</text></g><g id="c558a" class="Protein" transform="translate(12,52)"  name="FADD" ><rect   width="100" height="20"/><text   transform="translate(50,10)"    >FADD</text></g></g></g></g></g></g></svg>