<?xml version="1.0" encoding="UTF-8"?>
<!--
  WikiPathways page: https://www.wikipathways.org/index.php/Pathway:WP3679
  URL for this compressed file: https://github.com/eweitz/cachome/tree/main/data/WP3679.svg
  Source code for compression: https://github.com/eweitz/cachome/tree/main/src/wikipathways.py
-->
<svg id="wp3679-svg" class="Diagram" width="800" height="600" color="black" baseProfile="full" prefix="schema:http://schema.org/" preserveAspectRatio="xMidYMid" version="1.1" viewBox="0 0 1491.4 782.63" vocab="http://vocabularies.wikipathways.org/wp#" xmlns="http://www.w3.org/2000/svg" xmlns:xlink="http://www.w3.org/1999/xlink"><style>svg {font-family: 'Liberation Sans', Arial, sans-serif; }</style><defs><g id="jit-defs"><filter id="kaaviodoublefalse3filter" x="-50%" y="-50%" width="200%" height="200%"><feComposite in="SourceGraphic" in2="SourceGraphic" result="doubleDark"/><feMorphology in="doubleDark" operator="dilate" radius="0.16666666666666666" result="in2Double"/><feMorphology in="SourceGraphic" operator="dilate" radius="3" result="inDouble"/><feComposite in="inDouble" in2="in2Double" operator="out" result="doubleResult"/></filter><filter id="kaavioblackto000000filter" x="0" y="0" width="1491.4" height="782.63" filterUnits="userSpaceOnUse"><feColorMatrix in="SourceGraphic" values="-1   0   0 0 0                   0  -1   0 0 0                   0   0  -1 0 0                   0   0   0 1 0"/></filter></g><g id="jic-defs"><marker id="markerEndArrow" stroke-dasharray="99999" markerHeight="12" markerUnits="userSpaceOnUse" markerWidth="12" orient="auto" preserveAspectRatio="none" refX="12" refY="6" viewBox="0 0 12 12"><path transform="rotate(180 6 6)" d="M12 11L0 6l12-5z" fill="currentColor" stroke-width="0"/></marker><marker id="markerEndMimCatalysis" stroke-dasharray="99999" markerHeight="12" markerUnits="userSpaceOnUse" markerWidth="12" orient="auto" preserveAspectRatio="none" refX="12" refY="6" viewBox="0 0 12 12"><circle transform="rotate(180 6 6)" cx="6" cy="6" r="5.3" fill="none" stroke="#000"/></marker><marker id="markerEndMimInhibition" stroke-dasharray="99999" markerHeight="20" markerUnits="userSpaceOnUse" markerWidth="10" orient="auto" preserveAspectRatio="none" refX="10" refY="10" viewBox="0 0 10 20"><path d="m3 0v20" fill="currentColor" stroke="currentColor"/></marker><marker id="markerEndTBar" stroke-dasharray="99999" markerHeight="20" markerUnits="userSpaceOnUse" markerWidth="10" orient="auto" preserveAspectRatio="none" refX="10" refY="10" viewBox="0 0 10 20"><path d="m3 0v20" fill="currentColor" stroke="currentColor"/></marker><symbol id="Ellipse" overflow="visible" preserveAspectRatio="none" viewBox="0 0 50 50"><ellipse cx="25" cy="25" rx="25" ry="25" stroke="currentColor" vector-effect="non-scaling-stroke"/></symbol><symbol id="EndoplasmicReticulum" overflow="visible" preserveAspectRatio="none" viewBox="0 0 100 100"><path d="M73.528 56.61c-5.625-18.607 23.514-32.434 23.401-45.066-.344-4.861-10.49-8.898-18.29-5.334C61.6 14.085 62.99 35.515 57.435 48.444c-.356 3.61-7.363 2.469-7.75-.487-5.85-11.39 17.136-24.487 5.961-29.426-19.634-8.17-28.752 21.153-22.068 28.818 7.496 14.176-2.18 24.406-6.747 15.496-2.442-5.306 6.066-11.084-.803-16.177-4.32-2.8-11.756-.646-16.155 3.094C-3.019 60.5 14.602 90.744 30.837 85.91c4.698-1.96-3.236-8.702 3.907-9.6 7.298-.812 5.176 6.19 7.687 9.227 2.307 4.051 4.833 8.355 10.763 11.624 4.786 2.537 15.294 2.112 16.771-1.958 2.032-9.263-26.11-28.359-10.689-31.282 18.556-2.714 4.749 23.846 24.31 29.695 9.502 2.028 15.64-.622 14.813-4.033-2.746-11.263-25.136-22.68-24.964-33.15" stroke="currentColor" vector-effect="non-scaling-stroke"/></symbol><symbol id="Octagon" overflow="visible" preserveAspectRatio="none" viewBox="0 0 100 100"><path d="M0 25L25 0h50l25 25v50l-25 25H25L0 75z" stroke="currentColor" vector-effect="non-scaling-stroke"/></symbol><symbol id="none" preserveAspectRatio="none" viewBox="0 0 100 100"/></g></defs><g id="WP3679" class="Viewport" color="black"  name="Name: Cell-type dependent selectivity of CCK2R signaling Organism: Homo sapiens"><rect id="WP3679-icon" class="Icon" width="1491.4" height="782.63" fill="#fff" stroke="#000" stroke-width="0"/><g id="f4656" class="SingleFreeNode Shape PhysicalEntity CellularComponent Cell" transform="translate(795.99 183.94)" color="#c0c0c0"  name="PV+ basket cell"><g fill="transparent"  filter="url(#kaaviodoublefalse3filter)" stroke="#c0c0c0" stroke-width="3"><rect id="f4656-icon" class="Icon" transform="matrix(.98186 0 0 .97294 5.8912 5.8377)" width="649.5" height="431.5" rx="15" ry="15"   /></g><text id="f4656-text" class="Text" transform="translate(8,419.7)" fill="#c0c0c0"  font-size="16px" font-weight="bold" stroke="black" stroke-width="0"><tspan x="0" y="0">PV+ basket cell</tspan></text></g><g id="e03ec" class="SingleFreeNode Shape PhysicalEntity CellularComponent EndoplasmicReticulum" transform="translate(179.19 530.69)" color="#c0c0c0" ><use id="e03ec-icon" class="Icon" transform="matrix(.99393 0 0 .98528 1.4909 1.4779)" width="490.8874002855355" height="200.7672634271098" fill="transparent"  stroke="#c0c0c0" stroke-width="3" xlink:href="#EndoplasmicReticulum"/></g><g id="bdd6b" class="SingleFreeNode Shape PhysicalEntity CellularComponent Cell" transform="translate(65.689 336.72)" color="#c0c0c0"  name="Pyramidal cell"><g fill="transparent"  filter="url(#kaaviodoublefalse3filter)" stroke="#c0c0c0" stroke-width="3"><rect id="bdd6b-icon" class="Icon" transform="matrix(.98221 0 0 .9707 5.8933 5.8242)" width="662.5" height="397.55" rx="15" ry="15"   /></g><text id="bdd6b-text" class="Text" transform="translate(8 385.75)" fill="#c0c0c0"  font-size="16px" font-weight="bold" stroke="black" stroke-width="0"><tspan x="0" y="0">Pyramidal cell</tspan></text></g><g id="id1abd0d9f" class="DirectedInteraction" color="#000" ><g color="#000" fill="transparent"  filter="url(#kaavioblackto000000filter)" stroke="#000" stroke-dasharray="91.41793688289675, 5.8"><path id="id1abd0d9f" class="EdgeBody" d="m489.28 438.56 77.388-58.842"   marker-end="url(#markerEndArrow)" /></g></g><g id="id32ed8cbf" class="Interaction" color="#000" ><g color="#000" fill="transparent"  filter="url(#kaavioblackto000000filter)" stroke="#000" stroke-dasharray="31.741837706707592, 7"><path id="id32ed8cbf" class="EdgeBody" d="m320.62 389.74-1.0536 38.728"   marker-end="url(#markerEndMimInhibition)" /></g></g><g id="id41e191b7" class="DirectedInteraction" color="#000" ><g color="#000" fill="transparent"  filter="url(#kaavioblackto000000filter)" stroke="#000" stroke-dasharray="40.1252061572282, 5.8"><path id="id41e191b7" class="EdgeBody" d="m414.67 196.93 0.64218 45.921"   marker-end="url(#markerEndArrow)" /></g></g><g id="id655e8be6" class="DirectedInteraction" color="#000" ><g color="#000" fill="transparent"  filter="url(#kaavioblackto000000filter)" stroke="#000" stroke-dasharray="200.9126721185483, 5.8"><path id="id655e8be6" class="EdgeBody" d="m1098.2 313.18 168.19-120.18"   marker-end="url(#markerEndArrow)" /></g></g><g id="id65c80b61" class="DirectedInteraction" color="#000" ><g color="#000" fill="transparent"  filter="url(#kaavioblackto000000filter)" stroke="#000" stroke-dasharray="85.74374837674802, 5.8"><path id="id65c80b61" class="EdgeBody" d="m238.55 356.62 41.015 81.841"   marker-end="url(#markerEndArrow)" /></g></g><g id="id6b0ab544" class="DirectedInteraction" color="#000" ><g color="#000" fill="transparent"  filter="url(#kaavioblackto000000filter)" stroke="#000" stroke-dasharray="38.273837660848365, 5.8"><path id="id6b0ab544" class="EdgeBody" d="m1326.4 183-44.006 2.4389"   marker-end="url(#markerEndArrow)" /></g></g><g id="id9071c85b" class="DirectedInteraction" color="#000" ><g color="#000" fill="transparent"  filter="url(#kaavioblackto000000filter)" stroke="#000" stroke-dasharray="142.8830426224845, 5.8"><path id="id9071c85b" class="EdgeBody" d="m392.24 650.72 0.23018-148.68"   marker-end="url(#markerEndArrow)" /></g><g id="c8fbf" class="Burr Anchor" transform="translate(392.34 591.25)" ><use id="c8fbf-icon" class="Icon" width="0" height="0" fill="#141414" stroke-width="0" xlink:href="#none"/></g></g><g id="id9a8ecce4" class="Interaction" color="#000" ><g color="#000" fill="transparent"  filter="url(#kaavioblackto000000filter)" stroke="#000" stroke-dasharray="5.59, 3.36, 5.59, 3.36, 5.59, 3.36, 5.59, 7"><path id="id9a8ecce4" class="EdgeBody" d="m566.67 206.44-1e-13 -39.437"   marker-end="url(#markerEndMimInhibition)" /></g></g><g id="id9f53f011" class="DirectedInteraction" color="#000" ><g color="#000" fill="transparent"  filter="url(#kaavioblackto000000filter)" stroke="#000" stroke-dasharray="43.91301448057294, 5.8"><path id="id9f53f011" class="EdgeBody" d="m359.57 438.47 49.713 0.092183"   marker-end="url(#markerEndArrow)" /></g></g><g id="ida36b9784" class="Interaction" color="#000" ><g color="#000" fill="transparent"  filter="url(#kaavioblackto000000filter)" stroke="#000" stroke-dasharray="65.80271993143614, 7"><path id="ida36b9784" class="EdgeBody" d="m1022 156.49-67.012 28.455"   marker-end="url(#markerEndMimInhibition)" /></g></g><g id="ida4f5458d" class="DirectedInteraction" color="#000" ><g color="#000" fill="transparent"  filter="url(#kaavioblackto000000filter)" stroke="#000" stroke-dasharray="112.36857622386711, 5.8"><path id="ida4f5458d" class="EdgeBody" d="m1098.1 456.35 0.053942-118.17"   marker-end="url(#markerEndArrow)" /></g><g id="d830b" class="Burr Anchor" transform="translate(1098.1 409.08)" ><use id="d830b-icon" class="Icon" width="0" height="0" fill="#141414" stroke-width="0" xlink:href="#none"/></g></g><g id="idbe4fea9a" class="DirectedInteraction" color="#000" ><g color="#000" fill="transparent"  filter="url(#kaavioblackto000000filter)" stroke="#000" stroke-dasharray="63.30997442455224, 5.8"><path id="idbe4fea9a" class="EdgeBody" d="m566.67 295.55 1e-13 -69.11"   marker-end="url(#markerEndArrow)" /></g></g><g id="iddcb9dd99" class="DirectedInteraction" color="#000" ><g color="#000" fill="transparent"  filter="url(#kaavioblackto000000filter)" stroke="#000" stroke-dasharray="70.34565986922067, 5.8"><path id="iddcb9dd99" class="EdgeBody" d="m565.11 569.46 0.23018-76.145"   marker-end="url(#markerEndArrow)" /></g><g id="a4f7a" class="Burr Anchor" transform="translate(565.2 539.01)" ><use id="a4f7a-icon" class="Icon" width="0" height="0" fill="#141414" stroke-width="0" xlink:href="#none"/></g></g><g id="iddda8a114" class="DirectedInteraction" color="#000" ><g color="#000" fill="transparent"  filter="url(#kaavioblackto000000filter)" stroke="#000" stroke-dasharray="38.368797953964375, 5.8"><path id="iddda8a114" class="EdgeBody" d="m566.67 359.72v-44.169"   marker-end="url(#markerEndArrow)" /></g></g><g id="ide0f0dcf0" class="DirectedInteraction" color="#000" ><g color="#000" fill="transparent"  filter="url(#kaavioblackto000000filter)" stroke="#000" stroke-dasharray="29.82508736038702, 5.8"><path id="ide0f0dcf0" class="EdgeBody" d="m449.69 392.93-0.41055 35.623"   marker-end="url(#markerEndArrow)" /></g></g><g id="idf65f9f23" class="Interaction" color="#000" ><g color="#000" fill="transparent"  filter="url(#kaavioblackto000000filter)" stroke="#000" stroke-dasharray="68.40676972260319, 7"><path id="idf65f9f23" class="EdgeBody" d="m295 310-70.516 26.715"   marker-end="url(#markerEndMimInhibition)" /></g></g><g id="idfc0cf358" class="DirectedInteraction" color="#000" ><g color="#000" fill="transparent"  filter="url(#kaavioblackto000000filter)" stroke="#000" stroke-dasharray="38.23840237596234, 5.8"><path id="idfc0cf358" class="EdgeBody" d="m609.09 542.59-43.892-3.5821"   marker-end="url(#markerEndArrow)" /></g></g><g id="id78943fe3" class="Interaction" color="#000" ><g color="#000" fill="transparent"  filter="url(#kaavioblackto000000filter)" stroke="#000" stroke-dasharray="55.223497749594294, 7"><path id="id78943fe3" class="EdgeBody" d="m1210.3 146.05 56.081 26.958"   marker-end="url(#markerEndMimInhibition)" /></g></g><g id="ida3f005a" class="DirectedInteraction" color="#000" ><g color="#000" fill="transparent"  filter="url(#kaavioblackto000000filter)" stroke="#000" stroke-dasharray="106.65292099809187, 5.8"><path id="ida3f005a" class="EdgeBody" d="m1284.9 135.13-0.23018 112.45"   marker-end="url(#markerEndArrow)" /></g><g id="pvjsgeneratedidffd9e" class="Burr Anchor" transform="translate(1282.9 178.11)" ><rect id="pvjsgeneratedidffd9e-icon" class="Icon" width="4" height="4" fill="#141414" stroke-width="0"/></g></g><g id="idbace4c4a" class="DirectedInteraction" color="#000" ><g color="#000" fill="transparent"  filter="url(#kaavioblackto000000filter)" stroke="#000" stroke-dasharray="37.99692340273311, 5.8"><path id="idbace4c4a" class="EdgeBody" d="m191.1 270.92 0.41803 43.795"   marker-end="url(#markerEndArrow)" /></g></g><g id="idc7a052ad" class="Interaction" color="#000" ><g color="#000" fill="transparent"  filter="url(#kaavioblackto000000filter)" stroke="#000" stroke-dasharray="40.954672991265774, 7"><path id="idc7a052ad" class="EdgeBody" d="m996.87 242.47-38.866-28.091"   marker-end="url(#markerEndMimInhibition)" /></g></g><g id="id7549ed51" class="DirectedInteraction" color="#000" ><g color="#000" fill="transparent"  filter="url(#kaavioblackto000000filter)" stroke="#000" stroke-dasharray="37.77043584432676, 5.8"><path id="id7549ed51" class="EdgeBody" d="m352.92 572.68 39.415 18.57"   marker-end="url(#markerEndArrow)" /></g></g><g id="id22cfa4be" class="DirectedInteraction" color="#000" ><g color="#000" fill="transparent"  filter="url(#kaavioblackto000000filter)" stroke="#000" stroke-dasharray="40.2, 5.8"><path id="id22cfa4be" class="EdgeBody" d="m926.5 116.94 2e-13 46"   marker-end="url(#markerEndArrow)" /></g></g><g id="id7f5a66ae" class="DirectedInteraction" color="#000" ><g color="#000" fill="transparent"  filter="url(#kaavioblackto000000filter)" stroke="#000" stroke-dasharray="138.53999605558744, 5.8"><path id="id7f5a66ae" class="EdgeBody" d="m926.5 226.38-0.32865 144.34"   marker-end="url(#markerEndArrow)" /></g><g id="a201a" class="Burr Anchor" transform="translate(926.37 284.12)" ><use id="a201a-icon" class="Icon" width="0" height="0" fill="#141414" stroke-width="0" xlink:href="#none"/></g></g><g id="id21f3c3e5" class="DirectedInteraction" color="#000" ><g color="#000" fill="transparent"  filter="url(#kaavioblackto000000filter)" stroke="#000" stroke-dasharray="88.85711666468569, 5.8"><path id="id21f3c3e5" class="EdgeBody" d="m966.17 380.72 94.655 0.66959"   marker-end="url(#markerEndArrow)" /></g></g><g id="id6aaf4812" class="DirectedInteraction" color="#000" ><g color="#000" fill="transparent"  filter="url(#kaavioblackto000000filter)" stroke="#000" stroke-dasharray="32.4939499831688, 5.8"><path id="id6aaf4812" class="EdgeBody" d="m1060.8 400.52 37.325 8.5614"   marker-end="url(#markerEndArrow)" /></g></g><g id="id9213e38e" class="Inhibition" color="#000" ><g color="#000" fill="transparent"  filter="url(#kaavioblackto000000filter)" stroke="#000" stroke-dasharray="79.49683920116861, 7"><path id="id9213e38e" class="EdgeBody" d="m1196.3 322.08-62.959 59.312"   marker-end="url(#markerEndTBar)" /></g></g><g id="idbfce5b97" class="Interaction" color="#000" ><g color="#000" fill="transparent"  filter="url(#kaavioblackto000000filter)" stroke="#000" stroke-dasharray="69.60120765710018, 7"><path id="idbfce5b97" class="EdgeBody" d="m1040.6 295.97 38.383 66.291"   marker-end="url(#markerEndMimInhibition)" /></g></g><g id="idd53c8fe2" class="Interaction" color="#000" ><g color="#000" fill="transparent"  filter="url(#kaavioblackto000000filter)" stroke="#000" stroke-dasharray="4.230357236888432, 11"><path id="idd53c8fe2" class="EdgeBody" d="m924.16 269.05 2.2015 15.07"   marker-end="url(#markerEndMimCatalysis)" /></g></g><g id="bcc6a" class="SingleFreeNode Shape" transform="translate(780.5 78.5)" color="#006633" ><rect id="bcc6a-icon" class="Icon" transform="matrix(.99707 0 0 .9964 .99707 .9964)" width="680.9" height="553.11" fill="transparent"  stroke="#063" stroke-width="2"/></g><g id="e5431" class="SingleFreeNode Shape PhysicalEntity CellularComponent EndoplasmicReticulum" transform="translate(888.91 363.38)" color="#c0c0c0" ><use id="e5431-icon" class="Icon" transform="matrix(.99376 0 0 .9863 1.4906 1.4794)" width="478.09354072849413" height="215.9061775918359" fill="transparent"  stroke="#c0c0c0" stroke-width="3" xlink:href="#EndoplasmicReticulum"/></g><g id="e6f3b" class="SingleFreeNode Shape PhysicalEntity CellularComponent Cell" transform="translate(65.689 95.427)" color="#c0c0c0"  name="CCK+ Basket Cell presynaptic terminal"><g fill="transparent"  filter="url(#kaaviodoublefalse3filter)" stroke="#c0c0c0" stroke-width="3"><rect id="e6f3b-icon" class="Icon" transform="matrix(.98221 0 0 .91298 5.8933 5.4779)" width="662.5" height="125.89" rx="15" ry="15"   /></g><text id="e6f3b-text" class="Text" transform="translate(8 114.09)" fill="#c0c0c0"  font-size="16px" font-weight="bold" stroke="black" stroke-width="0"><tspan x="0" y="0">CCK+ Basket Cell presynaptic terminal</tspan></text></g><g id="e7976" class="SingleFreeNode Shape" transform="translate(49.5,77.5)" color="#006633" ><rect id="e7976-icon" class="Icon" transform="matrix(.99718 0 0 .99705 .99718 .99705)" width="706.5" height="675.13" fill="transparent"  stroke="#063" stroke-width="2"/></g><g id="pvjsgeneratedidffd9f" class="GroupGroup" transform="translate(363.37 127.9)" color="grey" ><use id="pvjsgeneratedidffd9f-icon" class="Icon" width="102.61125319693082" height="77.03580562659846" fill="transparent"  stroke="grey" stroke-dasharray="5,3" stroke-width="0" xlink:href="#none"/><g id="ec5b2" class="SingleFreeNode Shape" transform="translate(8,8)" color="#000" ><use id="ec5b2-icon" class="Icon" transform="matrix(.98859 0 0 .98388 .49429 .49194)" width="86.61125319693083" height="61.03580562659846" fill="transparent"  stroke="#000" xlink:href="#Ellipse"/></g><a id="c1dbf" class="Chemspider_116 Metabolite ChEBI_CHEBI_16865 ChEBI_CHEBI_59888   " transform="translate(25.14 30.105)" color="#00f"  name="GABA"  ><rect id="c1dbf-icon" class="Icon" transform="matrix(.98098 0 0 .95 .49049 .475)" width="51.568" height="19" fill="#fff" stroke="#00f"/><text id="c1dbf-text" class="Text" transform="translate(25.784 12.5)" fill="#00f"  font-size="10px" stroke="white" stroke-width="0" text-anchor="middle"><tspan x="0" y="0">GABA</tspan></text></a></g><g id="a50e8" class="Label" transform="translate(502.33 359.72)" color="#000"  name="endocannabinoids"><use id="a50e8-icon" class="Icon" width="128.66616863268496" height="20" fill="transparent"  stroke="#000" stroke-width="0" xlink:href="#none"/><text id="a50e8-text" class="Text" transform="translate(64.333 14)" fill="#000"  font-size="12px" font-weight="bold" stroke="white" stroke-width="0" text-anchor="middle"><tspan x="0" y="0">endocannabinoids</tspan></text></g><g id="d2d7d" class="Label" transform="translate(297.71 124.33)" color="#000"  name="GABA vesicles"><use id="d2d7d-icon" class="Icon" width="90" height="25" fill="transparent"  stroke="#000" stroke-width="0" xlink:href="#none"/><text id="d2d7d-text" class="Text" transform="translate(45,16.5)" fill="#000"  font-size="12px" font-weight="bold" stroke="white" stroke-width="0" text-anchor="middle"><tspan x="0" y="0">GABA vesicles</tspan></text></g><g id="e9526" class="Label" transform="translate(425.59 628.16)" color="#000"  name="Calcium stores"><use id="e9526-icon" class="Icon" width="103.82352941176464" height="25" fill="transparent"  stroke="#000" stroke-width="0" xlink:href="#none"/><text id="e9526-text" class="Text" transform="translate(51.912 16.5)" fill="#000"  font-size="12px" font-weight="bold" stroke="white" stroke-width="0" text-anchor="middle"><tspan x="0" y="0">Calcium stores</tspan></text></g><g id="bd67c" class="GroupGroup" transform="translate(996.87 212.53)" color="grey" ><use id="bd67c-icon" class="Icon" width="106" height="59.891070305692836" fill="transparent"  stroke="grey" stroke-dasharray="5,3" stroke-width="0" xlink:href="#none"/><g id="ee1c0" class="Label" transform="translate(8 26.891)" color="#000"  name="Pertussis toxin"><use id="ee1c0-icon" class="Icon" width="90" height="25" fill="transparent"  stroke="#000" stroke-width="0" xlink:href="#none"/><text id="ee1c0-text" class="Text" transform="translate(45,15.5)" fill="#000"  font-size="10px" font-weight="bold" stroke="white" stroke-width="0" text-anchor="middle"><tspan x="0" y="0">Pertussis toxin</tspan></text></g><a id="c7e6a" class="Chemspider_4209 Metabolite ChEBI_CHEBI_44485  " transform="translate(13.061 8)" color="#00f"  name="NEM"  ><rect id="c7e6a-icon" class="Icon" transform="matrix(.98765 0 0 .95238 .49383 .47619)" width="80" height="20" fill="#fff" stroke="#00f"/><text id="c7e6a-text" class="Text" transform="translate(40,13)" fill="#00f"  font-size="10px" stroke="white" stroke-width="0" text-anchor="middle"><tspan x="0" y="0">NEM</tspan></text></a></g><a  id="a43e7" class="GeneProduct ITPR1 " transform="translate(532.38 532.59)"   name="IP3 receptor"  ><rect id="a43e7-icon" class="Icon" transform="matrix(.98713 0 0 .95238 .49357 .47619)" width="76.71" height="20" fill="#fff" stroke="#000"/><text id="a43e7-text" class="Text" transform="translate(38.355 13)" fill="#000"  font-size="10px" stroke="white" stroke-width="0" text-anchor="middle"><tspan x="0" y="0">IP3 receptor</tspan></text></a><a id="a767c" class="ChEBI_CHEBI_18035 Metabolite  " transform="translate(409.28 428.56)" color="#00f"  name="DAG"  ><rect id="a767c-icon" class="Icon" transform="matrix(.98765 0 0 .95238 .49383 .47619)" width="80" height="20" fill="#fff" stroke="#00f"/><text id="a767c-text" class="Text" transform="translate(40,13)" fill="#00f"  font-size="10px" stroke="white" stroke-width="0" text-anchor="middle"><tspan x="0" y="0">DAG</tspan></text></a><a id="a8817" class="PubChem-compound_122130 Metabolite " transform="translate(982 136.49)" color="#00f"  name="YM022"  ><rect id="a8817-icon" class="Icon" transform="matrix(.98765 0 0 .95238 .49383 .47619)" width="80" height="20" fill="#fff" stroke="#00f"/><text id="a8817-text" class="Text" transform="translate(40,13)" fill="#00f"  font-size="10px" stroke="white" stroke-width="0" text-anchor="middle"><tspan x="0" y="0">YM022</tspan></text></a><a id="aaded" class="PubChem-compound_123847 Metabolite ChEBI_CHEBI_31445  " transform="translate(886.17 370.72)" color="#00f"  name="cyclic ADPR"  ><rect id="aaded-icon" class="Icon" transform="matrix(.98765 0 0 .95238 .49383 .47619)" width="80" height="20" fill="#fff" stroke="#00f"/><text id="aaded-text" class="Text" transform="translate(40,13)" fill="#00f"  font-size="10px" stroke="white" stroke-width="0" text-anchor="middle"><tspan x="0" y="0">cyclic ADPR</tspan></text></a><a id="b9df2" class="PubChem-compound_3081323 Metabolite " transform="translate(1000.6 275.63)" color="#00f"  name="8-NH2-cADPR"  ><rect id="b9df2-icon" class="Icon" transform="matrix(.98765 0 0 .95314 .49383 .47657)" width="80" height="20.34" fill="#fff" stroke="#00f"/><text id="b9df2-text" class="Text" transform="translate(40 13.17)" fill="#00f"  font-size="10px" stroke="white" stroke-width="0" text-anchor="middle"><tspan x="0" y="0">8-NH2-cADPR</tspan></text></a><a id="c1e19" class="Chemspider_116 Metabolite ChEBI_CHEBI_16865 ChEBI_CHEBI_59888   " transform="translate(526.67 148)" color="#00f"  name="GABA"  ><rect id="c1e19-icon" class="Icon" transform="matrix(.98765 0 0 .95 .49383 .475)" width="80" height="19" fill="#fff" stroke="#00f"/><text id="c1e19-text" class="Text" transform="translate(40,12.5)" fill="#00f"  font-size="10px" stroke="white" stroke-width="0" text-anchor="middle"><tspan x="0" y="0">GABA</tspan></text></a><a  id="d1efb" class="GeneProduct TRPC1 " transform="translate(1246.4 173)"   name="TRPC1"  ><rect id="d1efb-icon" class="Icon" transform="matrix(.98765 0 0 .95238 .49383 .47619)" width="80" height="20" fill="#fff" stroke="#000"/><text id="d1efb-text" class="Text" transform="translate(40,13)" fill="#000"  font-size="10px" stroke="white" stroke-width="0" text-anchor="middle"><tspan x="0" y="0">TRPC1</tspan></text></a><a  id="d8ae1" class="GeneProduct DAGLA " transform="translate(409.69 372.93)"   name="DAG lipase"  ><rect id="d8ae1-icon" class="Icon" transform="matrix(.98765 0 0 .95238 .49383 .47619)" width="80" height="20" fill="#fff" stroke="#000"/><text id="d8ae1-text" class="Text" transform="translate(40,13)" fill="#000"  font-size="10px" stroke="white" stroke-width="0" text-anchor="middle"><tspan x="0" y="0">DAG lipase</tspan></text></a><a id="dcee2" class="ChEBI_CHEBI_29108 Metabolite  " transform="translate(538.36 468.32)" color="#00f"  name="Ca 2+"  ><rect id="dcee2-icon" class="Icon" transform="matrix(.9818 0 0 .96154 .4909 .48077)" width="53.951" height="25" fill="#fff" stroke="#00f"/><text id="dcee2-text" class="Text" transform="translate(26.976 16.5)" fill="#00f"  font-size="12px" stroke="white" stroke-width="0" text-anchor="middle"><tspan x="0" y="0">Ca 2+</tspan></text></a><a id="dcf80" class="Chemspider_16736002 Metabolite ChEBI_CHEBI_8925  " transform="translate(1156.3 302.08)" color="#00f"  name="Ryanodine"  ><rect id="dcf80-icon" class="Icon" transform="matrix(.98765 0 0 .95238 .49383 .47619)" width="80" height="20" fill="#fff" stroke="#00f"/><text id="dcf80-text" class="Text" transform="translate(40,13)" fill="#00f"  font-size="10px" stroke="white" stroke-width="0" text-anchor="middle"><tspan x="0" y="0">Ryanodine</tspan></text></a><a  id="e6f9a" class="GeneProduct CCK " transform="translate(151.1 250.92)"   name="CCK"  ><rect id="e6f9a-icon" class="Icon" transform="matrix(.98765 0 0 .95238 .49383 .47619)" width="80" height="20" fill="#fff" stroke="#000"/><text id="e6f9a-text" class="Text" transform="translate(40,13)" fill="#000"  font-size="10px" stroke="white" stroke-width="0" text-anchor="middle"><tspan x="0" y="0">CCK</tspan></text></a><a id="f34d7" class="Metabolite ChEBI_CHEBI_90690 " transform="translate(275.62 364.74)" color="#00f"  name="U-73122"  ><rect id="f34d7-icon" class="Icon" transform="matrix(.98901 0 0 .96154 .49451 .48077)" width="90" height="25" fill="#fff" stroke="#00f"/><text id="f34d7-text" class="Text" transform="translate(45,16.5)" fill="#00f"  font-size="12px" stroke="white" stroke-width="0" text-anchor="middle"><tspan x="0" y="0">U-73122</tspan></text></a><a  id="f5209" class="GeneProduct PLCB1 " transform="translate(279.57 428.47)"   name="PLCB1"  ><rect id="f5209-icon" class="Icon" transform="matrix(.98765 0 0 .95238 .49383 .47619)" width="80" height="20" fill="#fff" stroke="#000"/><text id="f5209-text" class="Text" transform="translate(40,13)" fill="#000"  font-size="10px" stroke="white" stroke-width="0" text-anchor="middle"><tspan x="0" y="0">PLCB1</tspan></text></a><a  id="fc303" class="GeneProduct CNR1 " transform="translate(526.67 206.44)"   name="CB1"  ><rect id="fc303-icon" class="Icon" transform="matrix(.98765 0 0 .95238 .49383 .47619)" width="80" height="20" fill="#fff" stroke="#000"/><text id="fc303-text" class="Text" transform="translate(40,13)" fill="#000"  font-size="10px" stroke="white" stroke-width="0" text-anchor="middle"><tspan x="0" y="0">CB1</tspan></text></a><a id="fd188" class="PubChem-compound_122130 Metabolite " transform="translate(255,290)" color="#00f"  name="YM022"  ><rect id="fd188-icon" class="Icon" transform="matrix(.98765 0 0 .95238 .49383 .47619)" width="80" height="20" fill="#fff" stroke="#00f"/><text id="fd188-text" class="Text" transform="translate(40,13)" fill="#00f"  font-size="10px" stroke="white" stroke-width="0" text-anchor="middle"><tspan x="0" y="0">YM022</tspan></text></a><a  id="fd9ba" class="GeneProduct CD38 " transform="translate(863.94 269.05)"   name="ADP-Ribose cyclase"  ><rect id="fd9ba-icon" class="Icon" transform="matrix(.99177 0 0 .96154 .49588 .48077)" width="120.45" height="25" fill="#fff" stroke="#000"/><text id="fd9ba-text" class="Text" transform="translate(60.224 15.5)" fill="#000"  font-size="10px" stroke="white" stroke-width="0" text-anchor="middle"><tspan x="0" y="0">ADP-Ribose cyclase</tspan></text></a><g id="a3602" class="GroupGroup" transform="translate(1104.3 113.77)" color="grey" ><use id="a3602-icon" class="Icon" width="106" height="64.54987212276214" fill="transparent"  stroke="grey" stroke-dasharray="5,3" stroke-width="0" xlink:href="#none"/><a id="a6c5e" class="Metabolite ChEBI_CHEBI_131184 " transform="translate(8 33)" color="#00f"  name="2-APB"  ><rect id="a6c5e-icon" class="Icon" transform="matrix(.98901 0 0 .95927 .49451 .47963)" width="90" height="23.55" fill="#fff" stroke="#00f"/><text id="a6c5e-text" class="Text" transform="translate(45 14.775)" fill="#00f"  font-size="10px" stroke="white" stroke-width="0" text-anchor="middle"><tspan x="0" y="0">2-APB</tspan></text></a><a id="ba201" class="ChEBI_CHEBI_42638 Metabolite  " transform="translate(8,8)" color="#00f"  name="Flufenamic acid"  ><rect id="ba201-icon" class="Icon" transform="matrix(.98901 0 0 .96154 .49451 .48077)" width="90" height="25" fill="#fff" stroke="#00f"/><text id="ba201-text" class="Text" transform="translate(45,15.5)" fill="#00f"  font-size="10px" stroke="white" stroke-width="0" text-anchor="middle"><tspan x="0" y="0">Flufenamic acid</tspan></text></a></g><g id="bcc43" class="GroupComplex" transform="translate(132.48 314.72)" color="grey" ><use id="bcc43-icon" class="Icon" transform="matrix(.9916 0 0 .98459 .4958 .4923)" width="118.06649616368304" height="63.90856777493599" fill="#b4b464" fill-opacity=".1" stroke="grey" xlink:href="#Octagon"/><a  id="b1304" class="GeneProduct GNAQ " transform="translate(26.066 31.909)"   name="Gq"  ><rect id="b1304-icon" class="Icon" transform="matrix(.98765 0 0 .95238 .49383 .47619)" width="80" height="20" fill="#fff" stroke="#000"/><text id="b1304-text" class="Text" transform="translate(40,13)" fill="#000"  font-size="10px" stroke="white" stroke-width="0" text-anchor="middle"><tspan x="0" y="0">Gq</tspan></text></a><a  id="b7013" class="GeneProduct CCKBR " transform="translate(12,12)"   name="CCK2R"  ><rect id="b7013-icon" class="Icon" transform="matrix(.98765 0 0 .95238 .49383 .47619)" width="80" height="20" fill="#fff" stroke="#000"/><text id="b7013-text" class="Text" transform="translate(40,13)" fill="#000"  font-size="10px" stroke="white" stroke-width="0" text-anchor="middle"><tspan x="0" y="0">CCK2R</tspan></text></a></g><g id="e200a" class="GroupGroup" transform="translate(352.92 534.42)" color="grey" ><use id="e200a-icon" class="Icon" width="72.5089514066496" height="76.51790281329943" fill="transparent"  stroke="grey" stroke-dasharray="5,3" stroke-width="0" xlink:href="#none"/><a  id="c32a7" class="GeneProduct RYR1 " transform="translate(8,8)"   name="RYR1"  ><rect id="c32a7-icon" class="Icon" transform="matrix(.98261 0 0 .95277 .49131 .47638)" width="56.509" height="20.173" fill="#fff" stroke="#000"/><text id="c32a7-text" class="Text" transform="translate(28.254 13.086)" fill="#000"  font-size="10px" stroke="white" stroke-width="0" text-anchor="middle"><tspan x="0" y="0">RYR1</tspan></text></a><a  id="f5bd2" class="GeneProduct RYR2 " transform="translate(8 28.173)"   name="RYR2"  ><rect id="f5bd2-icon" class="Icon" transform="matrix(.98261 0 0 .95277 .49131 .47638)" width="56.509" height="20.173" fill="#fff" stroke="#000"/><text id="f5bd2-text" class="Text" transform="translate(28.254 13.086)" fill="#000"  font-size="10px" stroke="white" stroke-width="0" text-anchor="middle"><tspan x="0" y="0">RYR2</tspan></text></a><a  id="a3822" class="GeneProduct RYR3 " transform="translate(8 48.345)"   name="RYR3"  ><rect id="a3822-icon" class="Icon" transform="matrix(.98261 0 0 .95277 .49131 .47638)" width="56.509" height="20.173" fill="#fff" stroke="#000"/><text id="a3822-text" class="Text" transform="translate(28.254 13.086)" fill="#000"  font-size="10px" stroke="white" stroke-width="0" text-anchor="middle"><tspan x="0" y="0">RYR3</tspan></text></a></g><g id="f4f1f" class="GroupComplex" transform="translate(862.99 162.94)" color="grey" ><use id="f4f1f-icon" class="Icon" transform="matrix(.99219 0 0 .98448 .49609 .49224)" width="127.01790281329886" height="63.4391829258756" fill="#b4b464" fill-opacity=".1" stroke="grey" xlink:href="#Octagon"/><a  id="b0440" class="GeneProduct GNAI1 " transform="translate(35.018 31.439)"   name="Gi/0"  ><rect id="b0440-icon" class="Icon" transform="matrix(.98765 0 0 .95238 .49383 .47619)" width="80" height="20" fill="#fff" stroke="#000"/><text id="b0440-text" class="Text" transform="translate(40,13)" fill="#000"  font-size="10px" stroke="white" stroke-width="0" text-anchor="middle"><tspan x="0" y="0">Gi/0</tspan></text></a><a  id="f0ee2" class="GeneProduct CCKBR " transform="translate(12,12)"   name="CCK2R"  ><rect id="f0ee2-icon" class="Icon" transform="matrix(.98765 0 0 .95238 .49383 .47619)" width="80" height="20" fill="#fff" stroke="#000"/><text id="f0ee2-text" class="Text" transform="translate(40,13)" fill="#000"  font-size="10px" stroke="white" stroke-width="0" text-anchor="middle"><tspan x="0" y="0">CCK2R</tspan></text></a></g><a  id="aea1d" class="GeneProduct CCK " transform="translate(886.5 96.942)"   name="CCK"  ><rect id="aea1d-icon" class="Icon" transform="matrix(.98765 0 0 .95238 .49383 .47619)" width="80" height="20" fill="#fff" stroke="#000"/><text id="aea1d-text" class="Text" transform="translate(40,13)" fill="#000"  font-size="10px" stroke="white" stroke-width="0" text-anchor="middle"><tspan x="0" y="0">CCK</tspan></text></a><g id="ffd9d" class="Label" transform="translate(1056.8 482.15)" color="#000"  name="Ca2+ stores"><use id="ffd9d-icon" class="Icon" width="80" height="20" fill="transparent"  stroke="#000" stroke-width="0" xlink:href="#none"/><text id="ffd9d-text" class="Text" transform="translate(40,14)" fill="#000"  font-size="12px" font-weight="bold" stroke="white" stroke-width="0" text-anchor="middle"><tspan x="0" y="0">Ca2+ stores</tspan></text></g><g id="f0fac" class="Label" transform="translate(502.33 295.55)" color="#000"  name="endocannabinoids"><use id="f0fac-icon" class="Icon" width="128.66616863268496" height="20" fill="transparent"  stroke="#000" stroke-width="0" xlink:href="#none"/><text id="f0fac-text" class="Text" transform="translate(64.333 14)" fill="#000"  font-size="12px" font-weight="bold" stroke="white" stroke-width="0" text-anchor="middle"><tspan x="0" y="0">endocannabinoids</tspan></text></g><a id="d18bd" class="ChEBI_CHEBI_29108 Metabolite  " transform="translate(538.13 569.46)" color="#00f"  name="Ca 2+"  ><rect id="d18bd-icon" class="Icon" transform="matrix(.9818 0 0 .96154 .4909 .48077)" width="53.951" height="25" fill="#fff" stroke="#00f"/><text id="d18bd-text" class="Text" transform="translate(26.976 16.5)" fill="#00f"  font-size="12px" stroke="white" stroke-width="0" text-anchor="middle"><tspan x="0" y="0">Ca 2+</tspan></text></a><a id="deec8" class="ChEBI_CHEBI_29108 Metabolite  " transform="translate(365.5 477.04)" color="#00f"  name="Ca 2+"  ><rect id="deec8-icon" class="Icon" transform="matrix(.9818 0 0 .96154 .4909 .48077)" width="53.951" height="25" fill="#fff" stroke="#00f"/><text id="deec8-text" class="Text" transform="translate(26.976 16.5)" fill="#00f"  font-size="12px" stroke="white" stroke-width="0" text-anchor="middle"><tspan x="0" y="0">Ca 2+</tspan></text></a><a id="c0e2d" class="ChEBI_CHEBI_29108 Metabolite  " transform="translate(365.27 650.72)" color="#00f"  name="Ca 2+"  ><rect id="c0e2d-icon" class="Icon" transform="matrix(.9818 0 0 .96154 .4909 .48077)" width="53.951" height="25" fill="#fff" stroke="#00f"/><text id="c0e2d-text" class="Text" transform="translate(26.976 16.5)" fill="#00f"  font-size="12px" stroke="white" stroke-width="0" text-anchor="middle"><tspan x="0" y="0">Ca 2+</tspan></text></a><g id="pvjsgeneratedidffda0" class="GroupGroup" transform="translate(199.28 113.6)" color="grey" ><use id="pvjsgeneratedidffda0-icon" class="Icon" width="102.61125319693082" height="77.03580562659846" fill="transparent"  stroke="grey" stroke-dasharray="5,3" stroke-width="0" xlink:href="#none"/><g id="d73b2" class="SingleFreeNode Shape" transform="translate(8,8)" color="#000" ><use id="d73b2-icon" class="Icon" transform="matrix(.98859 0 0 .98388 .49429 .49194)" width="86.61125319693083" height="61.03580562659846" fill="transparent"  stroke="#000" xlink:href="#Ellipse"/></g><a id="c84de" class="Chemspider_116 Metabolite ChEBI_CHEBI_16865 ChEBI_CHEBI_59888   " transform="translate(25.14 30.105)" color="#00f"  name="GABA"  ><rect id="c84de-icon" class="Icon" transform="matrix(.98098 0 0 .95 .49049 .475)" width="51.568" height="19" fill="#fff" stroke="#00f"/><text id="c84de-text" class="Text" transform="translate(25.784 12.5)" fill="#00f"  font-size="10px" stroke="white" stroke-width="0" text-anchor="middle"><tspan x="0" y="0">GABA</tspan></text></a></g><g id="ec137" class="GroupGroup" transform="translate(364.01 234.85)" color="grey" ><use id="ec137-icon" class="Icon" width="102.61125319693082" height="77.03580562659849" fill="transparent"  stroke="grey" stroke-dasharray="5,3" stroke-width="0" xlink:href="#none"/><g id="fb95a" class="SingleFreeNode Shape" transform="translate(8,8)" color="#000" ><use id="fb95a-icon" class="Icon" transform="matrix(.98859 0 0 .98388 .49429 .49194)" width="86.61125319693083" height="61.03580562659846" fill="transparent"  stroke="#000" xlink:href="#Ellipse"/></g><a id="cdcb5" class="Chemspider_116 Metabolite ChEBI_CHEBI_16865 ChEBI_CHEBI_59888   " transform="translate(25.14 30.105)" color="#00f"  name="GABA"  ><rect id="cdcb5-icon" class="Icon" transform="matrix(.98098 0 0 .95 .49049 .475)" width="51.568" height="19" fill="#fff" stroke="#00f"/><text id="cdcb5-text" class="Text" transform="translate(25.784 12.5)" fill="#00f"  font-size="10px" stroke="white" stroke-width="0" text-anchor="middle"><tspan x="0" y="0">GABA</tspan></text></a></g><g id="ad481" class="GroupGroup" transform="translate(1216.6 94.129)" color="grey" ><use id="ad481-icon" class="Icon" width="136.67774936061323" height="41" fill="transparent"  stroke="grey" stroke-dasharray="5,3" stroke-width="0" xlink:href="#none"/><a id="d4aa9" class="ChEBI_CHEBI_29108 Metabolite  " transform="translate(74.726 8)" color="#00f"  name="Ca 2+"  ><rect id="d4aa9-icon" class="Icon" transform="matrix(.9818 0 0 .96154 .4909 .48077)" width="53.951" height="25" fill="#fff" stroke="#00f"/><text id="d4aa9-text" class="Text" transform="translate(26.976 16.5)" fill="#00f"  font-size="12px" stroke="white" stroke-width="0" text-anchor="middle"><tspan x="0" y="0">Ca 2+</tspan></text></a><a id="d22c6" class="ChEBI_CHEBI_29101 Metabolite  " transform="translate(8,8)" color="#00f"  name="Na +"  ><rect id="d22c6-icon" class="Icon" transform="matrix(.9818 0 0 .96154 .4909 .48077)" width="53.951" height="25" fill="#fff" stroke="#00f"/><text id="d22c6-text" class="Text" transform="translate(26.976 16.5)" fill="#00f"  font-size="12px" stroke="white" stroke-width="0" text-anchor="middle"><tspan x="0" y="0">Na +</tspan></text></a></g><g id="abf33" class="GroupGroup" transform="translate(1217.7 247.58)" color="grey" ><use id="abf33-icon" class="Icon" width="134.12020460357894" height="41.00000000000006" fill="transparent"  stroke="grey" stroke-dasharray="5,3" stroke-width="0" xlink:href="#none"/><a id="d722d" class="ChEBI_CHEBI_29108 Metabolite  " transform="translate(72.169 8)" color="#00f"  name="Ca 2+"  ><rect id="d722d-icon" class="Icon" transform="matrix(.9818 0 0 .96154 .4909 .48077)" width="53.951" height="25" fill="#fff" stroke="#00f"/><text id="d722d-text" class="Text" transform="translate(26.976 16.5)" fill="#00f"  font-size="12px" stroke="white" stroke-width="0" text-anchor="middle"><tspan x="0" y="0">Ca 2+</tspan></text></a><a id="de925" class="ChEBI_CHEBI_29101 Metabolite  " transform="translate(8 8)" color="#00f"  name="Na +"  ><rect id="de925-icon" class="Icon" transform="matrix(.9818 0 0 .96154 .4909 .48077)" width="53.951" height="25" fill="#fff" stroke="#00f"/><text id="de925-text" class="Text" transform="translate(26.976 16.5)" fill="#00f"  font-size="12px" stroke="white" stroke-width="0" text-anchor="middle"><tspan x="0" y="0">Na +</tspan></text></a></g><a id="c4321" class="ChEBI_CHEBI_29108 Metabolite  " transform="translate(1071.2 313.18)" color="#00f"  name="Ca 2+"  ><rect id="c4321-icon" class="Icon" transform="matrix(.9818 0 0 .96154 .4909 .48077)" width="53.951" height="25" fill="#fff" stroke="#00f"/><text id="c4321-text" class="Text" transform="translate(26.976 16.5)" fill="#00f"  font-size="12px" stroke="white" stroke-width="0" text-anchor="middle"><tspan x="0" y="0">Ca 2+</tspan></text></a><a id="e8003" class="ChEBI_CHEBI_29108 Metabolite  " transform="translate(1071.2 456.35)" color="#00f"  name="Ca 2+"  ><rect id="e8003-icon" class="Icon" transform="matrix(.9818 0 0 .96154 .4909 .48077)" width="53.951" height="25" fill="#fff" stroke="#00f"/><text id="e8003-text" class="Text" transform="translate(26.976 16.5)" fill="#00f"  font-size="12px" stroke="white" stroke-width="0" text-anchor="middle"><tspan x="0" y="0">Ca 2+</tspan></text></a><g id="f91d2" class="GroupGroup" transform="translate(1060.8 362.26)" color="grey" ><use id="f91d2-icon" class="Icon" width="72.50895140664966" height="76.51790281329932" fill="transparent"  stroke="grey" stroke-dasharray="5,3" stroke-width="0" xlink:href="#none"/><a  id="a3bb7" class="GeneProduct RYR1 " transform="translate(8,8)"   name="RYR1"  ><rect id="a3bb7-icon" class="Icon" transform="matrix(.98261 0 0 .95277 .49131 .47638)" width="56.509" height="20.173" fill="#fff" stroke="#000"/><text id="a3bb7-text" class="Text" transform="translate(28.254 13.086)" fill="#000"  font-size="10px" stroke="white" stroke-width="0" text-anchor="middle"><tspan x="0" y="0">RYR1</tspan></text></a><a  id="d7e98" class="GeneProduct RYR2 " transform="translate(8 28.173)"   name="RYR2"  ><rect id="d7e98-icon" class="Icon" transform="matrix(.98261 0 0 .95277 .49131 .47638)" width="56.509" height="20.173" fill="#fff" stroke="#000"/><text id="d7e98-text" class="Text" transform="translate(28.254 13.086)" fill="#000"  font-size="10px" stroke="white" stroke-width="0" text-anchor="middle"><tspan x="0" y="0">RYR2</tspan></text></a><a  id="ddb48" class="GeneProduct RYR3 " transform="translate(8 48.345)"   name="RYR3"  ><rect id="ddb48-icon" class="Icon" transform="matrix(.98261 0 0 .95277 .49131 .47638)" width="56.509" height="20.173" fill="#fff" stroke="#000"/><text id="ddb48-text" class="Text" transform="translate(28.254 13.086)" fill="#000"  font-size="10px" stroke="white" stroke-width="0" text-anchor="middle"><tspan x="0" y="0">RYR3</tspan></text></a></g><text id="WP3679-text" class="Text" transform="translate(5,27)" dominant-baseline="central" fill="black"  font-size="12px" font-weight="bold" overflow="visible" stroke="white" stroke-width="0"><tspan x="0" y="-9">Name: Cell-type dependent selectivity of CCK2R signaling</tspan> <tspan x="0" y="9">Organism: Homo sapiens</tspan></text></g></svg>
