<?xml version="1.0" encoding="UTF-8"?>
<svg xmlns="http://www.w3.org/2000/svg" id="-svg" class="Diagram"  baseProfile="full" prefix="schema:http://schema.org/" preserveAspectRatio="xMidYMid"  version="1.1"><defs><g id="filter-defs"><filter id="doublefalse3filter" x="-50%" y="-50%" width="200%" height="200%"><feComposite in="SourceGraphic" in2="SourceGraphic" result="doubleDark"/><feMorphology in="doubleDark" operator="dilate" radius="0.17" result="in2Double"/><feMorphology in="SourceGraphic" operator="dilate" radius="3" result="inDouble"/><feComposite in="inDouble" in2="in2Double" operator="out" result="doubleResult"/></filter><filter id="doubletrue3filter" x="-50%" y="-50%" width="200%" height="200%"><feMorphology in="SourceGraphic" operator="dilate" radius="3" result="in2Double"/><feMorphology in="SourceGraphic" radius="3" result="inDouble"/><feComposite in="inDouble" in2="in2Double" operator="atop" result="doubleResult"/></filter></g><g id="icon-defs"><symbol id="Ellipse" class=" Icon Ellipse" x="0" y="0" overflow="visible" preserveAspectRatio="none" viewBox="0 0 50 50"><desc>Ellipse</desc><ellipse cx="25" cy="25" rx="25" ry="25" vector-effect="non-scaling-stroke"/></symbol></g><g id="marker-defs"><marker id="mea" markerHeight="12" markerWidth="12" orient="auto" preserveAspectRatio="none" refX="12" refY="6" viewBox="0 0 12 12"><g id="g-mea" transform=""><g transform="rotate(180 6 6)"><rect y="5.4" width="2" height="1.2" style="stroke:#fff"/><polygon points="12 11 0 6 12 1" stroke-width="0"/></g></g></marker><marker id="markerendtbar000" markerHeight="20" markerWidth="10" orient="auto" preserveAspectRatio="none" refX="10" refY="10" viewBox="0 0 10 20"><g id="g-markerendtbar000" transform=""><g transform="rotate(180 5 10)"><rect y="9" width="8" height="2" style="stroke:none"/><line x="0" y="0" width="12" height="12" x1="7" x2="7" y2="20" stroke="#000" stroke-width="1.8"/></g></g></marker></g></defs><g id="viewport-20220102142112101" class="svg-pan-zoom_viewport" transform="matrix(0.98 0 0 0.98 178.43 0)" style="transform:matrix(0.98, 0, 0, 0.98, 178.44, 0)"><style>svg.Diagram {font-family: 'Liberation Sans', Arial, sans-serif; }.Diagram path {fill: transparent;stroke: #000;marker-end: url(#mea);}.Diagram symbol path {fill: inherit;stroke: inherit;stroke-width: inherit;marker-end: inherit;}.Diagram rect {fill: #fff;stroke: #000;}.Diagram text {dominant-baseline: central;overflow: hidden;text-anchor: middle;fill: #000;font-size: 10px;}</style><style type="text/css">.Viewport .textContent {
  pointer-events: none;
  stroke-width: 0px;
}

					.Viewport.Icon {
  fill: white;
}

/* Hide the InfoBox */
.Viewport.textContent {
  font-size: 0;
}

.textContent {
  stroke: none;
}

.DataNode {
  stroke-miterlimit: 1;
  pointer-events: auto;
}

.DataNode:hover {
  cursor: pointer;
}

/* TODO should this apply to things other than DataNodes? */
.DataNode.textContent {
  pointer-events: none;
}

.DataNode.Highlighted {
  opacity: 0.6;
  stroke-width: 0px;
}

marker {
  /* this is what should work per the spec
  stroke-dasharray: none; */
  /* but I need to add this to make it work in Safari */
  stroke-dasharray: 9999999999999999999999999;
}

.Citation.Icon {
  fill: none;
  stroke-width: 0px;
}

.Citation.textContent {
  text-align: center;
  vertical-align: top;
  font-size: 7px;
  fill: #999;
  fill-opacity: 1;
  stroke: none;
}</style><g id="WP3611" class="Pathway http___identifiers_org_pw_PW_0000263 Viewport"  name="Name: Photodynamic therapy-induced AP-1 survival signaling Organism: Homo sapiens" ><g class="Pathway http___identifiers_org_pw_PW_0000263 Viewport"><rect   width="856.09" height="724.98" style="stroke:none"/><g id="iddd861058" class="Edge"  ><path    d="m481.91 305.91-30.61 0.05"/></g><g id="id4eecf2d7" class="Edge"  ><path    d="m610.86 179.97 89.38 49.80"/></g><g id="idfe575521" class="Edge"  ><path    d="m768.83 114.59v17.12"/></g><g id="idbf8d396e" class="Edge"  ><path    d="m720.83 169.23-69.97 0.74"/></g><g id="idc849df2e" class="Edge"  ><path    d="m610.86 179.97-89.08 49.80"/></g><g id="id22560633" class="Edge"  ><path    d="m611.03 128.97-0.16 31.00"/></g><g id="b0ff7" class=" PhysicalEntity CellularComponent Cell" transform="translate(73.18 95.5)"  ><g class=" PhysicalEntity CellularComponent Cell" filter="url(#doublefalse3filter)"><g class=" PhysicalEntity CellularComponent Cell"><rect   transform="matrix(0.98 0 0 0.97 5.91 5.85)" width="754.41" height="468" rx="15" ry="15" stroke-width="3" style="fill:transparent;stroke:#066"/></g></g></g><g id="a8e81" class="Label" transform="translate(571.03 108.97)"  name="ROS" ><g class="Label"/><text   transform="translate(40,10)"    font-weight="bold"  style="font-size:12px">ROS</text></g><g id="d5097" class="Label" transform="translate(78,160)"  name="Proliferation and inflammation" ><g class="Label"/><text   transform="translate(97.5,10)"     style="font-size:12px">Proliferation and inflammation</text></g><g id="e01b7" class="GroupGroup" transform="translate(720.83 131.71)"  ><g class="GroupGroup"><g id="f78da" class="GeneProduct " transform="translate(8 47.05)"  name="TRAF6" ><rect   width="80" height="20"/><text   transform="translate(40,10)"    >TRAF6</text></g><g id="cb3a9" class="GeneProduct " transform="translate(8 27.63)"  name="TRAF5" ><rect   width="80" height="20"/><text   transform="translate(40,10)"    >TRAF5</text></g><g id="db7d7" class="GeneProduct " transform="translate(8,8)"  name="TRAF2" ><rect   width="80" height="20"/><text   transform="translate(40,10)"    >TRAF2</text></g></g></g><g id="e78aa" class="GroupGroup" transform="translate(85.41 344.85)"  ><g class="GroupGroup"><g id="e77d4" class="GeneProduct " transform="translate(8 66.66)"  name="PDGFRA" ><rect   width="80" height="20"/><text   transform="translate(40,10)"    >PDGFRA</text></g><g id="a770e" class="GeneProduct " transform="translate(88 47.11)"  name="IL6" ><rect   width="80" height="20"/><text   transform="translate(40,10)"    >IL6</text></g><g id="a91b9" class="GeneProduct " transform="translate(88 66.60)"  name="HSP90AA1" ><rect   width="80" height="20"/><text   transform="translate(40,10)"    >HSP90AA1</text></g><g id="b8cdf" class="GeneProduct " transform="translate(88 27.55)"  name="IL2" ><rect   width="80" height="20"/><text   transform="translate(40,10)"    >IL2</text></g><g id="f4c07" class="GeneProduct " transform="translate(88 8)"  name="IFNG" ><rect   width="80" height="20"/><text   transform="translate(40,10)"    >IFNG</text></g><g id="a8199" class="GeneProduct " transform="translate(8 27.55)"  name="TNFSF10" ><rect   width="80" height="20"/><text   transform="translate(40,10)"    >TNFSF10</text></g><g id="f8f61" class="GeneProduct " transform="translate(8 47.11)"  name="MMP2" ><rect   width="80" height="20"/><text   transform="translate(40,10)"    >MMP2</text></g><g id="c3b33" class="GeneProduct " transform="translate(8 8)"  name="FOS" ><rect   width="80" height="20"/><text   transform="translate(40,10)"    >FOS</text></g><g id="e87ec" class="GeneProduct " transform="translate(8 86.59)"  name="TNF" ><rect   width="80" height="20"/><text   transform="translate(40,10)"    >TNF</text></g></g></g><g id="e4a7f" class="GroupGroup" transform="translate(624.16 287.44)"  ><g class="GroupGroup"><g id="f12a6" class="GeneProduct " transform="translate(35.74 37.79)"  name="MAPK11" ><rect   width="80" height="20"/><text   transform="translate(40,10)"    >MAPK11</text></g><g id="ab74a" class="GeneProduct " transform="translate(35.74 77.02)"  name="MAPK13" ><rect   width="80" height="20"/><text   transform="translate(40,10)"    >MAPK13</text></g><g id="e1a55" class="GeneProduct " transform="translate(35.74 57.45)"  name="MAPK12" ><rect   width="80" height="20"/><text   transform="translate(40,10)"    >MAPK12</text></g><g id="cd779" class="GeneProduct " transform="translate(35.74 96.62)"  name="MAPK14" ><rect   width="80" height="20"/><text   transform="translate(40,10)"    >MAPK14</text></g><g id="a4427" class="Label" transform="translate(8,8)"  name="Apoptosis, inflammation, differentiation" ><g class="Label"/><text   transform="translate(67.67 14.43)"     style="font-size:12px"><tspan   x="0" y="-6.60">Apoptosis, inflammation,</tspan><tspan   x="0" y="6.60">differentiation</tspan></text></g></g></g><g id="d7417" class="GroupGroup" transform="translate(165.16 458.84)"  ><g class="GroupGroup"><g id="ed2e7" class="GeneProduct " transform="translate(8,8)"  name="JUNB" ><rect   width="80" height="20"/><text   transform="translate(40,10)"    >JUNB</text></g><g id="fe671" class="GeneProduct " transform="translate(8 27.65)"  name="FOS" ><rect   width="80" height="20"/><text   transform="translate(40,10)"    >FOS</text></g><g id="bbed4" class="GeneProduct " transform="translate(8 47.12)"  name="TNF" ><rect   width="80" height="20"/><text   transform="translate(40,10)"    >TNF</text></g></g></g><g id="ddb0d" class="GroupGroup" transform="translate(720.83 58.41)"  ><g class="GroupGroup"><g id="ac880" class="GeneProduct " transform="translate(8,8)"  name="TNF" ><rect   width="80" height="20"/><text   transform="translate(40,10)"    >TNF</text></g><g id="da522" class="GeneProduct " transform="translate(8 28.19)"  name="TNFRSF1A" ><rect   width="80" height="20"/><text   transform="translate(40,10)"    >TNFRSF1A</text></g></g></g><g id="f9b55" class="GroupGroup" transform="translate(85.41 172.66)"  ><g class="GroupGroup"><g id="ea7d5" class="GeneProduct " transform="translate(8,8)"  name="CCND1" ><rect   width="80" height="20"/><text   transform="translate(40,10)"    >CCND1</text></g><g id="a4fce" class="GeneProduct " transform="translate(8 27.6)"  name="CCNA2" ><rect   width="80" height="20"/><text   transform="translate(40,10)"    >CCNA2</text></g><g id="d6ba3" class="GeneProduct " transform="translate(8 47.13)"  name="CCNE1" ><rect   width="80" height="20"/><text   transform="translate(40,10)"    >CCNE1</text></g><g id="be71d" class="GeneProduct " transform="translate(8 66.61)"  name="EGFR" ><rect   width="80" height="20"/><text   transform="translate(40,10)"    >EGFR</text></g><g id="f02b2" class="GeneProduct " transform="translate(8 86.14)"  name="HBEGF" ><rect   width="80" height="20"/><text   transform="translate(40,10)"    >HBEGF</text></g><g id="fda66" class="GeneProduct " transform="translate(8 105.75)"  name="FGF7" ><rect   width="80" height="20"/><text   transform="translate(40,10)"    >FGF7</text></g><g id="bc98e" class="GeneProduct " transform="translate(8 144.89)"  name="FASLG" ><rect   width="80" height="20"/><text   transform="translate(40,10)"    >FASLG</text></g><g id="b1a01" class="GeneProduct " transform="translate(8 125.35)"  name="FAS" ><rect   width="80" height="20"/><text   transform="translate(40,10)"    >FAS</text></g><g id="f0f6f" class="GeneProduct " transform="translate(88 27.6)"  name="RB1" ><rect   width="80" height="20"/><text   transform="translate(40,10)"    >RB1</text></g><g id="c3f9e" class="GeneProduct " transform="translate(88 47.13)"  name="TP53" ><rect   width="80" height="20"/><text   transform="translate(40,10)"    >TP53</text></g><g id="abef4" class="GeneProduct " transform="translate(88 66.61)"  name="CDKN1A" ><rect   width="80" height="20"/><text   transform="translate(40,10)"    >CDKN1A</text></g><g id="a755a" class="GeneProduct " transform="translate(88 86.14)"  name="BCL2" ><rect   width="80" height="20"/><text   transform="translate(40,10)"    >BCL2</text></g><g id="fbcf2" class="GeneProduct " transform="translate(88 105.75)"  name="BCL2L1" ><rect   width="80" height="20"/><text   transform="translate(40,10)"    >BCL2L1</text></g><g id="df949" class="GeneProduct " transform="translate(88 144.89)"  name="BCL2L11" ><rect   width="80" height="20"/><text   transform="translate(40,10)"    >BCL2L11</text></g><g id="f133e" class="GeneProduct " transform="translate(88 125.35)"  name="BCL3" ><rect   width="80" height="20"/><text   transform="translate(40,10)"    >BCL3</text></g><g id="a9da0" class="GeneProduct " transform="translate(88 8)"  name="CDKN2A" ><rect   width="80" height="20"/><text   transform="translate(40,10)"    >CDKN2A</text></g></g></g><g id="ffb45" class="GroupGroup" transform="translate(433.98 229.77)"  ><g class="GroupGroup"><g id="af344" class="GeneProduct " transform="translate(87.61 8)"  name="MAP2K7" ><rect   width="80" height="20"/><text   transform="translate(40,10)"    >MAP2K7</text></g><g id="a1180" class="GeneProduct " transform="translate(8,8)"  name="MAP2K4" ><rect   width="80" height="20"/><text   transform="translate(40,10)"    >MAP2K4</text></g></g></g><g id="e8aca" class="GroupGroup" transform="translate(612.48 229.77)"  ><g class="GroupGroup"><g id="f413c" class="GeneProduct " transform="translate(8,8)"  name="MAP2K3" ><rect   width="80" height="20"/><text   transform="translate(40,10)"    >MAP2K3</text></g><g id="b3c3f" class="GeneProduct " transform="translate(87.5 8)"  name="MAP2K6" ><rect   width="80" height="20"/><text   transform="translate(40,10)"    >MAP2K6</text></g></g></g><g id="d55db" class="GeneProduct " transform="translate(570.86 159.97)"  name="MAP3K5" ><rect   width="80" height="20"/><text   transform="translate(40,10)"    >MAP3K5</text></g><g id="e96da" class="Edge"  ><path    d="m700.23 265.77-0.40 21.66"/></g><g id="d088a" class=" PhysicalEntity CellularComponent Nucleus" transform="translate(309.94 322.5)"  ><g class=" PhysicalEntity CellularComponent Nucleus" filter="url(#doubletrue3filter)"><g class=" PhysicalEntity CellularComponent Nucleus"><use class=" PhysicalEntity CellularComponent Nucleus Node Icon" transform="matrix(0.96 0 0 0.91 5.77 5.45)" width="302.67" height="119.98" fill="#ccffff" stroke="#009999" stroke-width="3" href="#Ellipse"/></g></g></g><g id="id8b18027d" class="Edge"  ><path    d="m501.91 315.91v76.31h-36.30"/></g><g id="dc37f" class="GroupGroup" transform="translate(382.48 457.87)"  ><g class="GroupGroup"><g id="dfadd" class="GeneProduct " transform="translate(88.23 25.82)"  name="BID" ><rect   width="80" height="20"/><text   transform="translate(40,10)"    >BID</text></g><g id="ae005" class="GeneProduct " transform="translate(8 45.43)"  name="BAK1" ><rect   width="80" height="20"/><text   transform="translate(40,10)"    >BAK1</text></g><g id="d7f1a" class="GeneProduct " transform="translate(8 65.07)"  name="BCL2L11" ><rect   width="80" height="20"/><text   transform="translate(40,10)"    >BCL2L11</text></g><g id="f750f" class="GeneProduct " transform="translate(88.23 65.07)"  name="TP53" ><rect   width="80" height="20"/><text   transform="translate(40,10)"    >TP53</text></g><g id="e5851" class="GeneProduct " transform="translate(8 25.82)"  name="BAX" ><rect   width="80" height="20"/><text   transform="translate(40,10)"    >BAX</text></g><g id="f3aa0" class="GeneProduct " transform="translate(88.23 45.43)"  name="BMF" ><rect   width="80" height="20"/><text   transform="translate(40,10)"    >BMF</text></g><g id="b1b3b" class="Label" transform="translate(47.40 8)"  name="Pro-apoptosis" ><g class="Label"/><text   transform="translate(40,10)"     style="font-size:12px">Pro-apoptosis</text></g></g></g><g id="ef27b" class="GroupGroup" transform="translate(551.31 442.22)"  ><g class="GroupGroup"><g id="cf9a7" class="GeneProduct " transform="translate(8.34 86.43)"  name="CFLAR" ><rect   width="80" height="20"/><text   transform="translate(40,10)"    >CFLAR</text></g><g id="aed13" class="GeneProduct " transform="translate(8.34 46.25)"  name="BCL2L1" ><rect   width="80" height="20"/><text   transform="translate(40,10)"    >BCL2L1</text></g><g id="f79e0" class="GeneProduct " transform="translate(8.34 66.34)"  name="MCL1" ><rect   width="80" height="20"/><text   transform="translate(40,10)"    >MCL1</text></g><g id="e4434" class="GeneProduct " transform="translate(8.34 26.13)"  name="BCL2" ><rect   width="80" height="20"/><text   transform="translate(40,10)"    >BCL2</text></g><g id="c3801" class="Label" transform="translate(8,8)"  name="Anti-apoptosis" ><g class="Label"/><text   transform="translate(40,10)"     style="font-size:12px">Anti-apoptosis</text></g></g></g><g id="eff36" class="GeneProduct " transform="translate(371.29 295.96)"  name="NFE2L2" ><rect   width="80" height="20"/><text   transform="translate(40,10)"    >NFE2L2</text></g><g id="fdd78" class="GroupGroup" transform="translate(369.61 354.59)"  ><g class="GroupGroup"><g id="d5bf9" class="GeneProduct " transform="translate(8 47.26)"  name="ELK1" ><rect   width="80" height="20"/><text   transform="translate(40,10)"    >ELK1</text></g><g id="eb871" class="GeneProduct " transform="translate(8,8)"  name="JUN" ><rect   width="80" height="20"/><text   transform="translate(40,10)"    >JUN</text></g><g id="a51e9" class="GeneProduct " transform="translate(8 27.63)"  name="ATF2" ><rect   width="80" height="20"/><text   transform="translate(40,10)"    >ATF2</text></g></g></g><g id="c7db7" class="GeneProduct " transform="translate(481.91 295.91)"  name="MAPK8" ><rect   width="80" height="20"/><text   transform="translate(40,10)"    >MAPK8</text></g><g id="ca2a4" class="Label" transform="translate(356.33 328.88)"  name="Gene  transcription" ><g class="Label"/><text   transform="translate(60.82 17.25)"    font-weight="bold"  style="font-size:12px"><tspan   x="0" y="-6.60">Gene </tspan><tspan   x="0" y="6.60">transcription</tspan></text></g><g id="idaae4bac0" class="Edge"  ><path    d="m369.61 411.04h-20v85.35h-88.45"/></g><g id="id3bea6df4" class="Edge"  ><path    d="m369.61 392.23-108.2 9.92"/></g><g id="idac7a382" class="Edge"  ><path    d="m521.78 265.77 0.13 30.14"/></g><g id="id3e23e651" class="Edge"  ><path    d="m369.61 373.41h-20v-114.3h-88.20"/></g><g id="a8d55" class="Label" transform="translate(371.66 267.4)"  name="Antioxidant  response" ><g class="Label"/><text   transform="translate(40 14.43)"     style="font-size:12px"><tspan   x="0" y="-6.60">Antioxidant </tspan><tspan   x="0" y="6.60">response</tspan></text></g><g id="idb4bae59a" class="Edge"  ><path    d="m521.91 315.91v96.69h-51.32v45.27"/></g><g id="id4eabb2a1" class="Edge"  ><path    d="m541.91 315.91v76.18h57.57v50.13" style="marker-end:url(#markerendtbar000)"/></g></g></g></g></svg>