<?xml version="1.0" encoding="UTF-8"?>
<svg xmlns="http://www.w3.org/2000/svg" id="-svg" class="Diagram"  baseProfile="full" prefix="schema:http://schema.org/" preserveAspectRatio="xMidYMid"  version="1.1"><defs><g id="icon-defs"><symbol id="HexagonPathVisio" class=" Icon HexagonPathVisio" x="0" y="8" overflow="visible" preserveAspectRatio="none" viewBox="0 8 100 86"><desc>HexagonPathVisio</desc><g transform="scale(1 0.85)"><path d="m1.42 51.00 21.07-42.14h56.19l21.07 42.14-21.07 42.15h-56.19l-21.07-42.15z" stroke="currentColor" vector-effect="non-scaling-stroke"/></g></symbol><symbol id="Octagon" class=" Icon Octagon" x="0" y="0" overflow="visible" preserveAspectRatio="none" viewBox="0 0 100 100"><desc>Octagon</desc><path d="m0 25 25-25h50l25 25v50l-25 25h-50l-25-25z" vector-effect="non-scaling-stroke"/></symbol></g><g id="marker-defs"><marker id="mea" markerHeight="12" markerWidth="12" orient="auto" preserveAspectRatio="none" refX="12" refY="6" viewBox="0 0 12 12"><g id="g-mea" transform=""><g transform="rotate(180 6 6)"><rect y="5.4" width="2" height="1.2" style="stroke:#fff"/><polygon points="12 11 0 6 12 1" stroke-width="0"/></g></g></marker><marker id="memcatalysis000" markerHeight="12" markerWidth="12" orient="auto" preserveAspectRatio="none" refX="12" refY="6" viewBox="0 0 12 12"><g id="g-memcatalysis000" transform=""><g transform="rotate(180 6 6)"><circle cx="6" cy="6" r="5.3px" fill="#fff" stroke="#000"/></g></g></marker></g></defs><g id="viewport-20220102142243252" class="svg-pan-zoom_viewport" transform="matrix(0.88 0 0 0.88 166.15 0)" style="transform:matrix(0.88, 0, 0, 0.88, 166.16, 0)"><style>svg.Diagram {font-family: 'Liberation Sans', Arial, sans-serif; }.Diagram path {fill: transparent;stroke: #000;marker-end: url(#mea);}.Diagram symbol path {fill: inherit;stroke: inherit;stroke-width: inherit;marker-end: inherit;}.Diagram rect {fill: #fff;stroke: #000;}.Diagram text {dominant-baseline: central;overflow: hidden;text-anchor: middle;fill: #000;font-size: 10px;}</style><style type="text/css">.Viewport .textContent {
  pointer-events: none;
  stroke-width: 0px;
}

					.Viewport.Icon {
  fill: white;
}

/* Hide the InfoBox */
.Viewport.textContent {
  font-size: 0;
}

.textContent {
  stroke: none;
}

.DataNode {
  stroke-miterlimit: 1;
  pointer-events: auto;
}

.DataNode:hover {
  cursor: pointer;
}

/* TODO should this apply to things other than DataNodes? */
.DataNode.textContent {
  pointer-events: none;
}

.DataNode.Highlighted {
  opacity: 0.6;
  stroke-width: 0px;
}

marker {
  /* this is what should work per the spec
  stroke-dasharray: none; */
  /* but I need to add this to make it work in Safari */
  stroke-dasharray: 9999999999999999999999999;
}

.Citation.Icon {
  fill: none;
  stroke-width: 0px;
}

.Citation.textContent {
  text-align: center;
  vertical-align: top;
  font-size: 7px;
  fill: #999;
  fill-opacity: 1;
  stroke: none;
}</style><g id="WP3790" class="Pathway http___identifiers_org_pw_PW_0000002 Viewport"  name="Name: Wax and plasmalogen biosynthesis Organism: Homo sapiens" ><g class="Pathway http___identifiers_org_pw_PW_0000002 Viewport"><rect   width="988" height="813" style="stroke:none"/><g id="a08fa" class="Reactome_R-HSA-75883"  ><path    d="m793 194-1 48" style="marker-end:none"/><g id="def33" class="AB" transform="translate(793,194)"  ><g class="AB"/></g><g id="a8605" class="AB" transform="translate(792.01 241.52)"  ><g class="AB"/></g><g id="b7695" class="AB" transform="translate(792.5,218)"  ><g class="AB"/></g></g><g id="a25bf" class="Reactome_R-HSA-75879"  ><path    d="m315 162 59 1" style="marker-end:none"/><g id="c6c82" class="AB" transform="translate(315,162)"  ><g class="AB"/></g><g id="a667c" class="AB" transform="translate(373.41,162.99)"  ><g class="AB"/></g><g id="e9ceb" class="AB" transform="translate(344.5,162.5)"  ><g class="AB"/></g></g><g id="ac639" class="Reactome_R-HSA-75883"  ><path    d="m792 242 1 35"/></g><g id="b04f9" class="Reactome_R-HSA-390425"  ><path    d="m219 384 99 1" style="marker-end:none"/><g id="fc3bf" class="AB" transform="translate(219,384)"  ><g class="AB"/></g><g id="cc47a" class="AB" transform="translate(317.01 384.99)"  ><g class="AB"/></g><g id="c01ec" class="AB" transform="translate(268.5,384.5)"  ><g class="AB"/></g></g><g id="a1795" class="Reactome_R-HSA-390425"  ><path    d="m201 459 18-75" style="marker-end:none"/></g><g id="a9a65" class="Reactome_R-HSA-390425"  ><path    d="m137 430 82-46" style="marker-end:none"/></g><g id="a4912" class="Reactome_R-HSA-390425"  ><path    d="m318 385 81-10"/></g><g id="bc69d" class="Reactome_R-HSA-390425"  ><path    d="m248 335 21 48" style="marker-end:url(#memcatalysis000)"/></g><g id="c22a1" class="Reactome_R-HSA-75883"  ><path    d="m793 162v32" style="marker-end:none"/></g><g id="c6f35" class="Reactome_R-HSA-390425"  ><path    d="m318 385 81 46"/></g><g id="c84ff" class="Reactome_R-HSA-5696424"  ><path    d="m521 614 82 2" style="marker-end:none"/><g id="a7533" class="AB" transform="translate(521,614)"  ><g class="AB"/></g><g id="d419c" class="AB" transform="translate(602.18 615.98)"  ><g class="AB"/></g><g id="e6ec7" class="AB" transform="translate(562,615)"  ><g class="AB"/></g></g><g id="a77cb" class="Reactome_R-HSA-5696424"  ><path    d="m449 590 72 24" style="marker-end:none"/></g><g id="accb5" class="Reactome_R-HSA-5696424"  ><path    d="m603 616 75-27"/></g><g id="cc70a" class="Reactome_R-HSA-75879"  ><path    d="m374 163 46-13"/></g><g id="cde5c" class="Reactome_R-HSA-8848585"  ><path    d="m594 444h105" style="marker-end:none"/><g id="fd805" class="AB" transform="translate(594,444)"  ><g class="AB"/></g><g id="d6819" class="AB" transform="translate(697.95 444)"  ><g class="AB"/></g><g id="eb68a" class="AB" transform="translate(646.5,444)"  ><g class="AB"/></g></g><g id="b1cbd" class="Reactome_R-HSA-8848585"  ><path    d="m556 400 38 44" style="marker-end:none"/></g><g id="a31d0" class="Reactome_R-HSA-8848585"  ><path    d="m699 444 39 57"/></g><g id="ce056" class="Reactome_R-HSA-5696424"  ><path    d="m535 554 31 61" style="marker-end:url(#memcatalysis000)"/></g><g id="cfa7b" class="Reactome_R-HSA-390425"  ><path    d="m156 381 63 3" style="marker-end:none"/></g><g id="d89ed" class="Reactome_R-HSA-5696424"  ><path    d="m603 616 56 22"/></g><g id="da3cc" class="Reactome_R-HSA-390427"  ><path    d="m553 264 59-1" style="marker-end:none"/><g id="c09ae" class="AB" transform="translate(553,264)"  ><g class="AB"/></g><g id="fad0f" class="AB" transform="translate(611.41 263.01)"  ><g class="AB"/></g><g id="c9b25" class="AB" transform="translate(582.5,263.5)"  ><g class="AB"/></g></g><g id="aff56" class="Reactome_R-HSA-390427"  ><path    d="m534 282 19-18" style="marker-end:none"/></g><g id="cf1e0" class="Reactome_R-HSA-390427"  ><path    d="m530 213 23 51" style="marker-end:none"/></g><g id="d8cd0" class="Reactome_R-HSA-390427"  ><path    d="m612 263 50-102"/></g><g id="d6a34" class="Reactome_R-HSA-390427"  ><path    d="m486 94 94 169" style="marker-end:url(#memcatalysis000)"/></g><g id="dc4d1" class="Reactome_R-HSA-75879"  ><path    d="m443 76-95 87" style="marker-end:url(#memcatalysis000)"/></g><g id="dd7ce" class="Reactome_R-HSA-8848582"  ><path    d="m595 468 101 1" style="marker-end:none"/><g id="e6625" class="AB" transform="translate(595,468)"  ><g class="AB"/></g><g id="db628" class="AB" transform="translate(694.99,468.99)"  ><g class="AB"/></g><g id="e6b99" class="AB" transform="translate(645.5,468.5)"  ><g class="AB"/></g></g><g id="bfb61" class="Reactome_R-HSA-8848582"  ><path    d="m447 375 148 93" style="marker-end:none"/></g><g id="b71e8" class="Reactome_R-HSA-8848582"  ><path    d="m696 469 42 32"/></g><g id="bbd63" class="Reactome_R-HSA-8848582"  ><path    d="m641 542 7-73" style="marker-end:url(#memcatalysis000)"/></g><g id="e2631" class="Reactome_R-HSA-75883"  ><path    d="m792 242 50 15"/></g><g id="e5212" class="Reactome_R-HSA-75883"  ><path    d="m851 193-58 1" style="marker-end:none"/></g><g id="e760d" class="Reactome_R-HSA-8848582"  ><path    d="m696 469 53-27"/></g><g id="e93bc" class="Reactome_R-HSA-75879"  ><path    d="m374 163 32 50"/></g><g id="e99c1" class="Reactome_R-HSA-75883"  ><path    d="m746 216 47-1" style="marker-end:url(#memcatalysis000)"/></g><g id="e9a4d" class="Reactome_R-HSA-75879"  ><path    d="m286 128 29 34" style="marker-end:none"/></g><g id="eb0a7" class="Reactome_R-HSA-8848585"  ><path    d="m699 444 26-50"/></g><g id="ec519" class="Reactome_R-HSA-390438"  ><path    d="m240 412 54-1" style="marker-end:none"/><g id="cfed7" class="AB" transform="translate(240,412)"  ><g class="AB"/></g><g id="e6429" class="AB" transform="translate(293.46,411.01)"  ><g class="AB"/></g><g id="db47b" class="AB" transform="translate(267,411.5)"  ><g class="AB"/></g></g><g id="b0e00" class="Reactome_R-HSA-390438"  ><path    d="m156 381 84 31" style="marker-end:none"/></g><g id="c07dd" class="Reactome_R-HSA-390438"  ><path    d="m137 430 103-18" style="marker-end:none"/></g><g id="da4f6" class="Reactome_R-HSA-390438"  ><path    d="m201 459 39-47" style="marker-end:none"/></g><g id="cb369" class="Reactome_R-HSA-390438"  ><path    d="m294 411 105-36"/></g><g id="d4981" class="Reactome_R-HSA-390438"  ><path    d="m289 324-19 87" style="marker-end:url(#memcatalysis000)"/></g><g id="ecef4" class="Reactome_R-HSA-390425"  ><path    d="m318 385 16 64"/></g><g id="edb71" class="Reactome_R-HSA-8848582"  ><path    d="m565 486 30-18" style="marker-end:none"/></g><g id="efc78" class="Reactome_R-HSA-8848585"  ><path    d="m565 486 29-42" style="marker-end:none"/></g><g id="efd4b" class="Reactome_R-HSA-390402"  ><path    d="m690 146 76 1" style="marker-end:none"/><g id="c4827" class="AB" transform="translate(690,146)"  ><g class="AB"/></g><g id="afdff" class="AB" transform="translate(765.24 146.99)"  ><g class="AB"/></g></g><g id="c5ff5" class="Reactome_R-HSA-390402"  ><path    d="m686 146h4" style="marker-end:none"/></g><g id="f15e7" class="Reactome_R-HSA-8848585"  ><path    d="m641 542-11-96" style="marker-end:url(#memcatalysis000)"/></g><g id="f214b" class="Reactome_R-HSA-390438"  ><path    d="m294 411 8 53"/></g><g id="f315a" class="Reactome_R-HSA-390402"  ><path    d="m766 147h3"/></g><g id="f3302" class="Reactome_R-HSA-75879"  ><path    d="m299 200 16-38" style="marker-end:none"/></g><g id="f9639" class="Reactome_R-HSA-5696424"  ><path    d="m447 638 74-24" style="marker-end:none"/></g><g id="f9a13" class="Reactome_R-HSA-390427"  ><path    d="m612 263 30 20"/></g><g id="fb1fa" class="Reactome_R-HSA-8848586"  ><path    d="m437 357 59-57" style="marker-end:none"/><g id="b9dbb" class="AB" transform="translate(437,357)"  ><g class="AB"/></g><g id="f70b2" class="AB" transform="translate(495.41,300.57)"  ><g class="AB"/></g></g><g id="c5e16" class="Reactome_R-HSA-8848586"  ><path    d="m423 360 14-3" style="marker-end:none"/></g><g id="c9697" class="Reactome_R-HSA-8848586"  ><path    d="m496 300 14-3"/></g><g id="fbd85" class="Reactome_R-HSA-390438"  ><path    d="m294 411 105 20"/></g><g id="fbec9" class="Reactome_R-HSA-75883"  ><path    d="m834 151-41 43" style="marker-end:none"/></g><g id="a0749" class="GroupGroup" transform="translate(175,21)"  ><g class="GroupGroup"><g id="f1a6e" class="" transform="translate(8,8)"  ><g class=""><rect   transform="matrix(0.99 0 0 0.99 1.49 1.49)" width="541" height="303" rx="15" ry="15" stroke-width="3" style="fill:transparent;stroke:#c0c0c0"/></g></g><g id="cdc78" class="Label" transform="translate(26,245)"  name="peroxisomal matrix" ><g class="Label"/><text   transform="translate(68.5,16.5)"    >peroxisomal matrix</text></g></g></g><g id="caac6" class="GroupGroup" transform="translate(0,5)"  ><g class="GroupGroup"><g id="b4a34" class="" transform="translate(8,8)"  ><g class=""><rect   transform="matrix(1.00 0 0 1.00 1.50 1.49)" width="950" height="692" rx="15" ry="15" stroke-width="3" style="fill:transparent;stroke:#c0c0c0"/></g></g><g id="d4846" class="Label" transform="translate(27,654)"  name="cytosol" ><g class="Label"/><text   transform="translate(32,16.5)"    >cytosol</text></g></g></g><g id="f1917" class="GroupGroup" transform="translate(294,540)"  ><g class="GroupGroup"><g id="bbbe4" class="" transform="translate(8,8)"  ><g class=""><rect   transform="matrix(0.99 0 0 0.98 1.49 1.47)" width="569" height="137" rx="15" ry="15" stroke-width="3" style="fill:transparent;stroke:#c0c0c0"/></g></g><g id="aaf7d" class="Label" transform="translate(168,100)"  name="endoplasmic reticulum lumen" ><g class="Label"/><text   transform="translate(101.5,16.5)"    >endoplasmic reticulum lumen</text></g></g></g><g id="a3719" class="Metabolite " transform="translate(485,471)"  name="PALM-CoA" ><rect   width="80" height="30" style="stroke:#00f"/><text   transform="translate(40,15)"     style="fill:#00f">PALM-CoA</text></g><g id="ac349" class="Metabolite " transform="translate(769,132)"  name="GO3P" ><rect   width="49" height="30" style="stroke:#00f"/><text   transform="translate(24.5,15)"     style="fill:#00f">GO3P</text></g><g id="b563d" class="Metabolite " transform="translate(725,379)"  name="atR-PALM" ><rect   width="74" height="30" style="stroke:#00f"/><text   transform="translate(37,15)"     style="fill:#00f">atR-PALM</text></g><g id="b5ee0" class="Metabolite " transform="translate(486,267)"  name="HXOL" ><rect   width="49" height="30" style="stroke:#00f"/><text   transform="translate(24.5,15)"     style="fill:#00f">HXOL</text></g><g id="b6259" class="Metabolite " transform="translate(642,268)"  name="PALM" ><rect   width="49" height="30" style="stroke:#00f"/><text   transform="translate(24.5,15)"     style="fill:#00f">PALM</text></g><g id="b7a03" class="Protein" transform="translate(229,313)"  name="FAR1" ><rect   width="39" height="22"/><text   transform="translate(19.5,11)"    >FAR1</text></g><g id="b89d2" class="Metabolite " transform="translate(834,136)"  name="NADPH" ><rect   width="59" height="30" style="stroke:#00f"/><text   transform="translate(29.5,15)"     style="fill:#00f">NADPH</text></g><g id="b9027" class="Metabolite " transform="translate(738,486)"  name="CoA-SH" ><rect   width="64" height="30" style="stroke:#00f"/><text   transform="translate(32,15)"     style="fill:#00f">CoA-SH</text></g><g id="bcde3" class="Metabolite " transform="translate(302,449)"  name="CoA-SH" ><rect   width="64" height="30" style="stroke:#00f"/><text   transform="translate(32,15)"     style="fill:#00f">CoA-SH</text></g><g id="c304b" class="Metabolite " transform="translate(761,277)"  name="HXDG3P" ><rect   width="65" height="30" style="stroke:#00f"/><text   transform="translate(32.5,15)"     style="fill:#00f">HXDG3P</text></g><g id="c598b" class="Protein" transform="translate(616,542)"  name="AWAT2" ><rect   width="51" height="22"/><text   transform="translate(25.5,11)"    >AWAT2</text></g><g id="c6f8e" class="Metabolite " transform="translate(638,131)"  name="GO3P" ><rect   width="49" height="30" style="stroke:#00f"/><text   transform="translate(24.5,15)"     style="fill:#00f">GO3P</text></g><g id="c7fcd" class="Metabolite " transform="translate(79,415)"  name="NADPH" ><rect   width="59" height="30" style="stroke:#00f"/><text   transform="translate(29.5,15)"     style="fill:#00f">NADPH</text></g><g id="cadf8" class="Metabolite " transform="translate(236,113)"  name="DHAP" ><rect   width="50" height="30" style="stroke:#00f"/><text   transform="translate(25,15)"     style="fill:#00f">DHAP</text></g><g id="cd30d" class="Metabolite " transform="translate(506,385)"  name="atROL" ><rect   width="51" height="30" style="stroke:#00f"/><text   transform="translate(25.5,15)"     style="fill:#00f">atROL</text></g><g id="cfd99" class="Protein" transform="translate(535,543)"  name="AWAT1" ><rect   width="51" height="22"/><text   transform="translate(25.5,11)"    >AWAT1</text></g><g id="d16d8" class="Metabolite " transform="translate(659,623)"  name="arachidyl ester" ><rect   width="102" height="30" style="stroke:#00f"/><text   transform="translate(51,15)"     style="fill:#00f">arachidyl ester</text></g><g id="d3c7b" class="Metabolite " transform="translate(184,459)"  name="H+" ><rect   width="35" height="30" style="stroke:#00f"/><text   transform="translate(17.5,15)"     style="fill:#00f">H+</text></g><g id="d48de" class="Metabolite " transform="translate(377,575)"  name="Acyl-CoA" ><rect   width="73" height="30" style="stroke:#00f"/><text   transform="translate(36.5,15)"     style="fill:#00f">Acyl-CoA</text></g><g id="d4f37" class="Metabolite " transform="translate(851,178)"  name="H+" ><rect   width="35" height="30" style="stroke:#00f"/><text   transform="translate(17.5,15)"     style="fill:#00f">H+</text></g><g id="d855c" class="Metabolite " transform="translate(678,574)"  name="CoA-SH" ><rect   width="64" height="30" style="stroke:#00f"/><text   transform="translate(32,15)"     style="fill:#00f">CoA-SH</text></g><g id="d9281" class="Metabolite " transform="translate(842,242)"  name="NADP+" ><rect   width="59" height="30" style="stroke:#00f"/><text   transform="translate(29.5,15)"     style="fill:#00f">NADP+</text></g><g id="db7da" class="Metabolite " transform="translate(420,135)"  name="CoA-SH" ><rect   width="64" height="30" style="stroke:#00f"/><text   transform="translate(32,15)"     style="fill:#00f">CoA-SH</text></g><g id="db9ec" class="Metabolite " transform="translate(406,184)"  name="1-Palmitoyl dihydroxyacetone phosphate" ><rect   width="125" height="58" style="stroke:#00f"/><text   transform="translate(62.5,29)"     style="fill:#00f"><tspan   x="0" y="-11">1-Palmitoyl</tspan><tspan   x="0" y="0">dihydroxyacetone</tspan><tspan   x="0" y="11">phosphate</tspan></text></g><g id="e00cb" class="Protein" transform="translate(289,313)"  name="FAR2" ><rect   width="39" height="22"/><text   transform="translate(19.5,11)"    >FAR2</text></g><g id="e10fa" class="Metabolite " transform="translate(399,360)"  name="HXOL" ><rect   width="49" height="30" style="stroke:#00f"/><text   transform="translate(24.5,15)"     style="fill:#00f">HXOL</text></g><g id="e3d41" class="Metabolite " transform="translate(76,366)"  name="PALM-CoA" ><rect   width="80" height="30" style="stroke:#00f"/><text   transform="translate(40,15)"     style="fill:#00f">PALM-CoA</text></g><g id="e60af" class="Complex Reactome_R-HSA-76165" transform="translate(443,58)"  name="GNPAT:AGPS complex" ><g class="Complex Reactome_R-HSA-76165"><use class="Complex Reactome_R-HSA-76165 Node Icon" width="87" height="36" fill="#fff" stroke="#a52a2a" href="#HexagonPathVisio"/></g><g ><defs><clipPath ><rect x="-43.5" y="-18" width="87" height="36" style="stroke:none"/></clipPath></defs><text   transform="translate(43.5,18)"     style="fill:#a52a2a">GNPAT:AGPS complex</text></g></g><g id="ebfba" class="Metabolite " transform="translate(749,427)"  name="PALM-PALM" ><rect   width="88" height="30" style="stroke:#00f"/><text   transform="translate(44,15)"     style="fill:#00f">PALM-PALM</text></g><g id="ebff5" class="Metabolite " transform="translate(399,416)"  name="NADP+" ><rect   width="59" height="30" style="stroke:#00f"/><text   transform="translate(29.5,15)"     style="fill:#00f">NADP+</text></g><g id="f2614" class="Metabolite " transform="translate(379,623)"  name="ARACOH" ><rect   width="68" height="30" style="stroke:#00f"/><text   transform="translate(34,15)"     style="fill:#00f">ARACOH</text></g><g id="f4dd0" class="Metabolite " transform="translate(231,185)"  name="PalmCoA" ><rect   width="69" height="30" style="stroke:#00f"/><text   transform="translate(34.5,15)"     style="fill:#00f">PalmCoA</text></g><g id="f6d27" class="Protein" transform="translate(692,205)"  name="DHRS7B" ><rect   width="55" height="22"/><text   transform="translate(27.5,11)"    >DHRS7B</text></g><g id="e2fb5" class="GroupComplex" transform="translate(38,711)"  ><g class="GroupComplex"><use class="Icon" width="124" height="84" fill="#b4b464" fill-opacity=".1" stroke="grey" href="#Octagon"/><g id="ea4a8" class="Protein" transform="translate(12,32)"  name="AGPS" ><rect   width="100" height="20"/><text   transform="translate(50,10)"    >AGPS</text></g><g id="f40a0" class="Metabolite " transform="translate(12,52)"  name="FAD" ><rect   width="100" height="20" style="stroke:#00f"/><text   transform="translate(50,10)"     style="fill:#00f">FAD</text></g><g id="f5c82" class="Protein" transform="translate(12,12)"  name="GNPAT" ><rect   width="100" height="20"/><text   transform="translate(50,10)"    >GNPAT</text></g></g></g></g></g></g></svg>