<?xml version="1.0" encoding="UTF-8"?>
<!--
  WikiPathways page: https://www.wikipathways.org/index.php/Pathway:WP3851
  URL for this compressed file: https://github.com/eweitz/cachome/tree/main/data/WP3851.svg
  Source code for compression: https://github.com/eweitz/cachome/tree/main/src/wikipathways.py
-->
<svg id="wp3851-svg" class="Diagram" width="800" height="600" color="black" baseProfile="full" prefix="schema:http://schema.org/" preserveAspectRatio="xMidYMid" version="1.1" viewBox="0 0 1139 746" vocab="http://vocabularies.wikipathways.org/wp#" xmlns="http://www.w3.org/2000/svg" xmlns:xlink="http://www.w3.org/1999/xlink"><style>svg {font-family: 'Liberation Sans', Arial, sans-serif; }</style><defs><g id="jit-defs"><filter id="kaaviodoublefalse3filter" x="-50%" y="-50%" width="200%" height="200%"><feComposite in="SourceGraphic" in2="SourceGraphic" result="doubleDark"/><feMorphology in="doubleDark" operator="dilate" radius="0.16666666666666666" result="in2Double"/><feMorphology in="SourceGraphic" operator="dilate" radius="3" result="inDouble"/><feComposite in="inDouble" in2="in2Double" operator="out" result="doubleResult"/></filter><filter id="kaavioblackto000000filter" x="0" y="0" width="1139" height="746" filterUnits="userSpaceOnUse"><feColorMatrix in="SourceGraphic" values="-1   0   0 0 0                   0  -1   0 0 0                   0   0  -1 0 0                   0   0   0 1 0"/></filter><filter id="kaavioblacktoff0000filter" x="0" y="0" width="1139" height="746" filterUnits="userSpaceOnUse"><feColorMatrix in="SourceGraphic" values="-1   0   0 0 1                   0  -1   0 0 0                   0   0  -1 0 0                   0   0   0 1 0"/></filter></g><g id="jic-defs"><marker id="markerEndArrow" stroke-dasharray="99999" markerHeight="12" markerUnits="userSpaceOnUse" markerWidth="12" orient="auto" preserveAspectRatio="none" refX="12" refY="6" viewBox="0 0 12 12"><path transform="rotate(180 6 6)" d="M12 11L0 6l12-5z" fill="currentColor" stroke-width="0"/></marker><marker id="markerEndMimInhibition" stroke-dasharray="99999" markerHeight="20" markerUnits="userSpaceOnUse" markerWidth="10" orient="auto" preserveAspectRatio="none" refX="10" refY="10" viewBox="0 0 10 20"><path d="m3 0v20" fill="currentColor" stroke="currentColor"/></marker><marker id="markerEndMimTranscriptionTranslation" stroke-dasharray="99999" markerHeight="24" markerUnits="userSpaceOnUse" markerWidth="20" orient="auto" preserveAspectRatio="none" refX="20" refY="12" viewBox="0 0 20 24"><g transform="rotate(180 10 12)" fill="none" stroke="#000"><path d="M15 12V5M15.5 5H8M0 5l8-4v8z"/></g></marker><symbol id="Ellipse" overflow="visible" preserveAspectRatio="none" viewBox="0 0 50 50"><ellipse cx="25" cy="25" rx="25" ry="25" stroke="currentColor" vector-effect="non-scaling-stroke"/></symbol><symbol id="Octagon" overflow="visible" preserveAspectRatio="none" viewBox="0 0 100 100"><path d="M0 25L25 0h50l25 25v50l-25 25H25L0 75z" stroke="currentColor" vector-effect="non-scaling-stroke"/></symbol><symbol id="none" preserveAspectRatio="none" viewBox="0 0 100 100"/></g></defs><g id="WP3851" class="Viewport" color="black"  name="Name: TLR4 signaling and tolerance Organism: Homo sapiens"><rect id="WP3851-icon" class="Icon" width="1139" height="746" fill="#fff" stroke="#000" stroke-width="0"/><g id="id13e3c0be" class="DirectedInteraction" color="#000" ><g color="#000" fill="transparent"  filter="url(#kaavioblackto000000filter)" stroke="#000" stroke-dasharray="82.2, 5.8"><path id="id13e3c0be" class="EdgeBody" d="m311 519v88"   marker-end="url(#markerEndArrow)" /></g></g><g id="idf537954b" class="Edge GraphicalLine DirectedInteraction" color="#f00" ><g color="#f00" fill="transparent"  filter="url(#kaavioblacktoff0000filter)" stroke="#000" stroke-dasharray="89.2, 5.8"><path id="idf537954b" class="EdgeBody" d="m736 40h95"   marker-end="url(#markerEndArrow)" /></g></g><g id="id4315cdaa" class="DirectedInteraction" color="#000" ><g color="#000" fill="transparent"  filter="url(#kaavioblackto000000filter)" stroke="#000" stroke-dasharray="108.53722053644648, 5.8"><path id="id4315cdaa" class="EdgeBody" d="m692 236-73 88"   marker-end="url(#markerEndArrow)" /></g></g><g id="idf3cb0063" class="DirectedInteraction" color="#f00" ><g color="#f00" fill="transparent"  filter="url(#kaavioblacktoff0000filter)" stroke="#000" stroke-dasharray="136.2, 5.8"><path id="idf3cb0063" class="EdgeBody" d="m692 461v142"   marker-end="url(#markerEndArrow)" /></g></g><g id="idfa77519d" class="DirectedInteraction" color="#000" ><g color="#000" fill="transparent"  filter="url(#kaavioblackto000000filter)" stroke="#000" stroke-dasharray="108.26138698087097, 5.8"><path id="idfa77519d" class="EdgeBody" d="m672 226-101 53"   marker-end="url(#markerEndArrow)" /></g></g><g id="id67e4ef44" class="DirectedInteraction" color="#000" ><g color="#000" fill="transparent"  filter="url(#kaavioblackto000000filter)" stroke="#000" stroke-dasharray="36.92001872658766, 5.8"><path id="id67e4ef44" class="EdgeBody" d="m296 427 15 40"   marker-end="url(#markerEndArrow)" /></g></g><g id="id9ff93af7" class="DirectedInteraction" color="#000" ><g color="#000" fill="transparent"  filter="url(#kaavioblackto000000filter)" stroke="#000" stroke-dasharray="158.39706004515443, 5.8"><path id="id9ff93af7" class="EdgeBody" d="m426 501.5v20.833c0 20.833 0 62.5-10.167 83.333-10.167 20.833-30.5 20.833-40.667 20.833l-10.167 1e-13"   marker-end="url(#markerEndArrow)" /></g></g><g id="idca6b2525" class="DirectedInteraction" color="#000" ><g color="#000" fill="transparent"  filter="url(#kaavioblackto000000filter)" stroke="#000" stroke-dasharray="64.41395872616783, 5.8"><path id="idca6b2525" class="EdgeBody" d="m434 238 57 41"   marker-end="url(#markerEndArrow)" /></g></g><g id="idbaa4d358" class="DirectedInteraction" color="#f00" ><g color="#f00" fill="transparent"  filter="url(#kaavioblacktoff0000filter)" stroke="#000" stroke-dasharray="50.6003546088143, 5.8"><path id="idbaa4d358" class="EdgeBody" d="m712 236 45 34"   marker-end="url(#markerEndArrow)" /></g></g><g id="idf977b18d" class="DirectedInteraction" color="#f00" ><g color="#f00" fill="transparent"  filter="url(#kaavioblacktoff0000filter)" stroke="#000" stroke-dasharray="103.60292500660117, 5.8"><path id="idf977b18d" class="EdgeBody" d="m757 353-65 88"   marker-end="url(#markerEndArrow)" /></g></g><g id="id841e7a0b" class="Interaction" color="#f00" ><g color="#f00" fill="transparent"  filter="url(#kaavioblacktoff0000filter)" stroke="#000" stroke-dasharray="226, 7"><path id="id841e7a0b" class="EdgeBody" d="m145 286v-48h185"   marker-end="url(#markerEndMimInhibition)" /></g></g><g id="ida2dd3341" class="Interaction" color="#f00" ><g color="#f00" fill="transparent"  filter="url(#kaavioblacktoff0000filter)" stroke="#000" stroke-dasharray="270.2508888874842, 11"><path id="ida2dd3341" class="EdgeBody" d="M259.25,599L145,342"   marker-end="url(#markerEndMimTranscriptionTranslation)" /></g></g><g id="idc6d90fb6" class="DirectedInteraction" color="#f00" ><g color="#f00" fill="transparent"  filter="url(#kaavioblacktoff0000filter)" stroke="#000" stroke-dasharray="119.00785231707178, 5.8"><path id="idc6d90fb6" class="EdgeBody" d="m608 147 104 69"   marker-end="url(#markerEndArrow)" /></g></g><g id="idd451da8f" class="DirectedInteraction" color="#000" ><g color="#000" fill="transparent"  filter="url(#kaavioblackto000000filter)" stroke="#000" stroke-dasharray="131.25838172107532, 5.8"><path id="idd451da8f" class="EdgeBody" d="m510 147-128 49"   marker-end="url(#markerEndArrow)" /></g></g><g id="f411c" class="GroupGroup" transform="translate(624,595)" color="grey" ><use id="f411c-icon" class="Icon" width="157.5" height="55" fill="transparent"  stroke="grey" stroke-dasharray="5,3" stroke-width="0" xlink:href="#none"/><g id="id5a3f92c9" class="Edge GraphicalLine" color="#000" ><g color="#000" fill="transparent"  filter="url(#kaavioblackto000000filter)" stroke="#000" stroke-dasharray="80, 0" stroke-width="2"><path id="id5a3f92c9" class="EdgeBody" d="m52 33h80"   /></g></g><g id="c9424" class="Label" transform="translate(8,27)" color="#000"  name="DNA"><use id="c9424-icon" class="Icon" width="48" height="20" fill="transparent"  stroke="#000" stroke-width="0" xlink:href="#none"/><text id="c9424-text" class="Text" transform="translate(24,14)" fill="#000"  font-size="12px" font-weight="bold" stroke="white" stroke-width="0" text-anchor="middle"><tspan x="0" y="0">DNA</tspan></text></g><a  id="d20a5" class="GeneProduct IRF3 " transform="translate(44,8)"   name="IRF3"  ><rect id="d20a5-icon" class="Icon" transform="matrix(.97959 0 0 .95238 .4898 .47619)" width="48" height="20" fill="#fff" stroke="#000"/><text id="d20a5-text" class="Text" transform="translate(24,13)" fill="#000"  font-size="10px" stroke="white" stroke-width="0" text-anchor="middle"><tspan x="0" y="0">IRF3</tspan></text></a><g id="e75b3" class="Edge GraphicalLine" color="#000" ><g color="#000" fill="transparent"  filter="url(#kaavioblackto000000filter)" stroke="#000" stroke-dasharray="80, 0" stroke-width="2"><path id="e75b3" class="EdgeBody" d="m53 42h80"   /></g></g><a  id="fb440" class="GeneProduct IRF7 " transform="translate(100.5,8)"   name="IRF7"  ><rect id="fb440-icon" class="Icon" transform="matrix(.98 0 0 .95238 .49 .47619)" width="49" height="20" fill="#fff" stroke="#000"/><text id="fb440-text" class="Text" transform="translate(24.5,13)" fill="#000"  font-size="10px" stroke="white" stroke-width="0" text-anchor="middle"><tspan x="0" y="0">IRF7</tspan></text></a></g><g id="id246d5a8f" class="Interaction" color="#f00" ><g color="#f00" fill="transparent"  filter="url(#kaavioblacktoff0000filter)" stroke="#000" stroke-dasharray="117.95687522121139, 11"><path id="id246d5a8f" class="EdgeBody" d="m781.5 622.5 128.96-0.14815"   marker-end="url(#markerEndMimTranscriptionTranslation)" /></g></g><g id="id73296997" class="Interaction" color="#000" ><g color="#000" fill="transparent"  filter="url(#kaavioblackto000000filter)" stroke="#000" stroke-dasharray="141, 11"><path id="id73296997" class="EdgeBody" d="m224 626.5h-20v-78.5h-53.5"   marker-end="url(#markerEndMimTranscriptionTranslation)" /></g></g><g id="id1683352c" class="DirectedInteraction" color="#000" ><g color="#000" fill="transparent"  filter="url(#kaavioblackto000000filter)" stroke="#000" stroke-dasharray="28.258772731852805, 5.8"><path id="id1683352c" class="EdgeBody" d="m374 342-26 22"   marker-end="url(#markerEndArrow)" /></g></g><g id="id4b125990" class="DirectedInteraction" color="#000" ><g color="#000" fill="transparent"  filter="url(#kaavioblackto000000filter)" stroke="#000" stroke-dasharray="86.7, 5.8"><path id="id4b125990" class="EdgeBody" d="m426 384v92.5"   marker-end="url(#markerEndArrow)" /></g></g><g id="idfad388c" class="DirectedInteraction" color="#000" ><g color="#000" fill="transparent"  filter="url(#kaavioblackto000000filter)" stroke="#000" stroke-dasharray="40.16737973824482, 5.8"><path id="idfad388c" class="EdgeBody" d="m511 289-33 32"   marker-end="url(#markerEndArrow)" /></g></g><g id="d36f5" class="SingleFreeNode Shape PhysicalEntity CellularComponent Nucleus" transform="translate(132.5,548.5)" color="#c0c0c0" ><g fill="transparent"  filter="url(#kaaviodoublefalse3filter)" stroke="#c0c0c0" stroke-width="3"><use id="d36f5-icon" class="Icon" transform="matrix(.98415 0 0 .92683 5.9049 5.561)" width="745" height="152"    xlink:href="#Ellipse"/></g></g><g id="da6a5" class="SingleFreeNode Shape PhysicalEntity CellularComponent Cell" transform="translate(50.5,86.5)" color="#c0c0c0" ><g fill="transparent"  filter="url(#kaaviodoublefalse3filter)" stroke="#c0c0c0" stroke-width="3"><rect id="da6a5-icon" class="Icon" transform="matrix(.98726 0 0 .98134 5.9236 5.888)" width="930" height="631" rx="15" ry="15"   /></g></g><g id="ece6e" class="SingleFreeNode Shape" transform="translate(730,2)" color="#000" ><rect id="ece6e-icon" class="Icon" transform="matrix(.99737 0 0 .98413 .49868 .49206)" width="379" height="62" fill="transparent"  stroke="#000"/></g><g id="a6722" class="Label" transform="translate(452,555)" color="#000"  name="Nucleus"><use id="a6722-icon" class="Icon" width="80" height="20" fill="transparent"  stroke="#000" stroke-width="0" xlink:href="#none"/><text id="a6722-text" class="Text" transform="translate(40,14)" fill="#000"  font-size="12px" font-weight="bold" stroke="white" stroke-width="0" text-anchor="middle"><tspan x="0" y="0">Nucleus</tspan></text></g><g id="b263d" class="Label" transform="translate(846,29)" color="#000"  name="Enhanced signaling upon subsequent TLR4 activation"><use id="b263d-icon" class="Icon" width="252" height="20" fill="transparent"  stroke="#000" stroke-width="0" xlink:href="#none"/><text id="b263d-text" class="Text" transform="translate(126,13)" fill="#000"  font-size="10px" font-weight="bold" stroke="white" stroke-width="0" text-anchor="middle"><tspan x="0" y="0">Enhanced signaling upon subsequent TLR4 activation</tspan></text></g><g id="b474f" class="Label" transform="translate(278,652)" color="#000"  name="MyD88 Dependent"><use id="b474f-icon" class="Icon" width="126" height="20" fill="transparent"  stroke="#000" stroke-width="0" xlink:href="#none"/><text id="b474f-text" class="Text" transform="translate(63,14)" fill="#000"  font-size="12px" font-weight="bold" stroke="white" stroke-width="0" text-anchor="middle"><tspan x="0" y="0">MyD88 Dependent</tspan></text></g><g id="e32e8" class="Label" transform="translate(603,653)" color="#000"  name="MyD88 independent"><use id="e32e8-icon" class="Icon" width="136" height="20" fill="transparent"  stroke="#000" stroke-width="0" xlink:href="#none"/><text id="e32e8-text" class="Text" transform="translate(68,14)" fill="#000"  font-size="12px" font-weight="bold" stroke="white" stroke-width="0" text-anchor="middle"><tspan x="0" y="0">MyD88 independent</tspan></text></g><g id="f1d3f" class="Label" transform="translate(381,476.5)" color="#000"  name="MAP Kinases"><use id="f1d3f-icon" class="Icon" width="90" height="25" fill="transparent"  stroke="#000" stroke-width="0" xlink:href="#none"/><text id="f1d3f-text" class="Text" transform="translate(45,16.5)" fill="#000"  font-size="12px" font-weight="bold" stroke="white" stroke-width="0" text-anchor="middle"><tspan x="0" y="0">MAP Kinases</tspan></text></g><a  id="a61ef" class="GeneProduct IRF3 " transform="translate(667.5,441)"   name="IRF3"  ><rect id="a61ef-icon" class="Icon" transform="matrix(.98 0 0 .95238 .49 .47619)" width="49" height="20" fill="#fff" stroke="#000"/><text id="a61ef-text" class="Text" transform="translate(24.5,13)" fill="#000"  font-size="10px" stroke="white" stroke-width="0" text-anchor="middle"><tspan x="0" y="0">IRF3</tspan></text></a><a  id="b03d0" class="GeneProduct TRAF6 " transform="translate(491,269)"   name="TRAF6"  ><rect id="b03d0-icon" class="Icon" transform="matrix(.98765 0 0 .95238 .49383 .47619)" width="80" height="20" fill="#fff" stroke="#000"/><text id="b03d0-text" class="Text" transform="translate(40,13)" fill="#000"  font-size="10px" stroke="white" stroke-width="0" text-anchor="middle"><tspan x="0" y="0">TRAF6</tspan></text></a><g id="b39af" class="Uniprot-TrEMBL_Q8IUC6 GeneProduct TICAM1 " transform="translate(672,216)" color="#000"  name="TRIF"><rect id="b39af-icon" class="Icon" transform="matrix(.98765 0 0 .95238 .49383 .47619)" width="80" height="20" fill="#fff" stroke="#000"/><text id="b39af-text" class="Text" transform="translate(40,13)" fill="#000"  font-size="10px" stroke="white" stroke-width="0" text-anchor="middle"><tspan x="0" y="0">TRIF</tspan></text></g><g id="d39f4" class="Uniprot-TrEMBL_Q13546 GeneProduct RIPK1 " transform="translate(539,314)" color="#000"  name="RIP1"><rect id="d39f4-icon" class="Icon" transform="matrix(.98765 0 0 .95238 .49383 .47619)" width="80" height="20" fill="#fff" stroke="#000"/><text id="d39f4-text" class="Text" transform="translate(40,13)" fill="#000"  font-size="10px" stroke="white" stroke-width="0" text-anchor="middle"><tspan x="0" y="0">RIP1</tspan></text></g><a  id="db475" class="GeneProduct IFNB1 " transform="translate(910.46 612.85)"   name="IFNB"  ><rect id="db475-icon" class="Icon" transform="matrix(.98 0 0 .95 .49 .475)" width="49" height="19" fill="#fff" stroke="#000"/><text id="db475-text" class="Text" transform="translate(24.5,12.5)" fill="#000"  font-size="10px" stroke="white" stroke-width="0" text-anchor="middle"><tspan x="0" y="0">IFNB</tspan></text></a><g id="a80ab" class="GroupComplex" transform="translate(244,343)" color="grey" ><use id="a80ab-icon" class="Icon" transform="matrix(.99048 0 0 .98824 .49524 .49412)" width="104" height="84" fill="#b4b464" fill-opacity=".1" stroke="grey" xlink:href="#Octagon"/><a  id="b2df5" class="Uniprot-TrEMBL_O15111 GeneProduct CHUK " transform="translate(12,32)"   name="IKKa"  ><rect id="b2df5-icon" class="Icon" transform="matrix(.98765 0 0 .95238 .49383 .47619)" width="80" height="20" fill="#fff" stroke="#000"/><text id="b2df5-text" class="Text" transform="translate(40,13)" fill="#000"  font-size="10px" stroke="white" stroke-width="0" text-anchor="middle"><tspan x="0" y="0">IKKa</tspan></text></a><a  id="bfbbd" class="Uniprot-TrEMBL_O14920 GeneProduct IKBKB " transform="translate(12,52)"   name="IKKb"  ><rect id="bfbbd-icon" class="Icon" transform="matrix(.98765 0 0 .95238 .49383 .47619)" width="80" height="20" fill="#fff" stroke="#000"/><text id="bfbbd-text" class="Text" transform="translate(40,13)" fill="#000"  font-size="10px" stroke="white" stroke-width="0" text-anchor="middle"><tspan x="0" y="0">IKKb</tspan></text></a><g id="f7438" class="Uniprot-TrEMBL_Q9Y6K9 GeneProduct IKBKG " transform="translate(12,12)" color="#000"  name="NEMO"><rect id="f7438-icon" class="Icon" transform="matrix(.98765 0 0 .95238 .49383 .47619)" width="80" height="20" fill="#fff" stroke="#000"/><text id="f7438-text" class="Text" transform="translate(40,13)" fill="#000"  font-size="10px" stroke="white" stroke-width="0" text-anchor="middle"><tspan x="0" y="0">NEMO</tspan></text></g></g><g id="ab818" class="GroupComplex" transform="translate(259,467)" color="grey" ><use id="ab818-icon" class="Icon" transform="matrix(.99048 0 0 .98462 .49524 .49231)" width="104" height="64" fill="#b4b464" fill-opacity=".1" stroke="grey" xlink:href="#Octagon"/><a  id="c3663" class="GeneProduct NFKB1 " transform="translate(12,32)"   name="NFKB"  ><rect id="c3663-icon" class="Icon" transform="matrix(.98765 0 0 .95238 .49383 .47619)" width="80" height="20" fill="#fff" stroke="#000"/><text id="c3663-text" class="Text" transform="translate(40,13)" fill="#000"  font-size="10px" stroke="white" stroke-width="0" text-anchor="middle"><tspan x="0" y="0">NFKB</tspan></text></a><g id="ffc05" class="Uniprot-TrEMBL_P25963 GeneProduct NFKBIA " transform="translate(12,12)" color="#000"  name="IkBa"><rect id="ffc05-icon" class="Icon" transform="matrix(.98765 0 0 .95238 .49383 .47619)" width="80" height="20" fill="#fff" stroke="#000"/><text id="ffc05-text" class="Text" transform="translate(40,13)" fill="#000"  font-size="10px" stroke="white" stroke-width="0" text-anchor="middle"><tspan x="0" y="0">IkBa</tspan></text></g></g><g id="ce36d" class="GroupComplex" transform="translate(330,196)" color="grey" ><use id="ce36d-icon" class="Icon" transform="matrix(.99048 0 0 .98824 .49524 .49412)" width="104" height="84" fill="#b4b464" fill-opacity=".1" stroke="grey" xlink:href="#Octagon"/><a  id="a6a9d" class="GeneProduct IRAK1 " transform="translate(12,32)"   name="IRAK1"  ><rect id="a6a9d-icon" class="Icon" transform="matrix(.98765 0 0 .95238 .49383 .47619)" width="80" height="20" fill="#fff" stroke="#000"/><text id="a6a9d-text" class="Text" transform="translate(40,13)" fill="#000"  font-size="10px" stroke="white" stroke-width="0" text-anchor="middle"><tspan x="0" y="0">IRAK1</tspan></text></a><a  id="bf608" class="GeneProduct MYD88 " transform="translate(12,12)"   name="MYD88"  ><rect id="bf608-icon" class="Icon" transform="matrix(.98765 0 0 .95238 .49383 .47619)" width="80" height="20" fill="#fff" stroke="#000"/><text id="bf608-text" class="Text" transform="translate(40,13)" fill="#000"  font-size="10px" stroke="white" stroke-width="0" text-anchor="middle"><tspan x="0" y="0">MYD88</tspan></text></a><a  id="fbfe5" class="GeneProduct IRAK4 " transform="translate(12,52)"   name="IRAK4"  ><rect id="fbfe5-icon" class="Icon" transform="matrix(.98765 0 0 .95238 .49383 .47619)" width="80" height="20" fill="#fff" stroke="#000"/><text id="fbfe5-text" class="Text" transform="translate(40,13)" fill="#000"  font-size="10px" stroke="white" stroke-width="0" text-anchor="middle"><tspan x="0" y="0">IRAK4</tspan></text></a></g><g id="db385" class="GroupComplex" transform="translate(665,270)" color="grey" ><use id="db385-icon" class="Icon" transform="matrix(.99459 0 0 .9881 .4973 .49405)" width="184" height="83" fill="#b4b464" fill-opacity=".1" stroke="grey" xlink:href="#Octagon"/><g id="a0b06" class="Uniprot-TrEMBL_Q14164 GeneProduct IKBKE " transform="translate(12,32)" color="#000"  name="Ikki"><rect id="a0b06-icon" class="Icon" transform="matrix(.98765 0 0 .95238 .49383 .47619)" width="80" height="20" fill="#fff" stroke="#000"/><text id="a0b06-text" class="Text" transform="translate(40,13)" fill="#000"  font-size="10px" stroke="white" stroke-width="0" text-anchor="middle"><tspan x="0" y="0">Ikki</tspan></text></g><a  id="c15d0" class="GeneProduct TRAF3 " transform="translate(52,51)"   name="TRAF3"  ><rect id="c15d0-icon" class="Icon" transform="matrix(.98765 0 0 .95238 .49383 .47619)" width="80" height="20" fill="#fff" stroke="#000"/><text id="c15d0-text" class="Text" transform="translate(40,13)" fill="#000"  font-size="10px" stroke="white" stroke-width="0" text-anchor="middle"><tspan x="0" y="0">TRAF3</tspan></text></a><a  id="c450b" class="GeneProduct TBK1 " transform="translate(92,32)"   name="TBK1"  ><rect id="c450b-icon" class="Icon" transform="matrix(.98765 0 0 .95238 .49383 .47619)" width="80" height="20" fill="#fff" stroke="#000"/><text id="c450b-text" class="Text" transform="translate(40,13)" fill="#000"  font-size="10px" stroke="white" stroke-width="0" text-anchor="middle"><tspan x="0" y="0">TBK1</tspan></text></a><g id="c994a" class="Uniprot-TrEMBL_P10145 GeneProduct CXCL8 " transform="translate(51,12)" color="#000"  name="NAP1"><rect id="c994a-icon" class="Icon" transform="matrix(.98765 0 0 .95238 .49383 .47619)" width="80" height="20" fill="#fff" stroke="#000"/><text id="c994a-text" class="Text" transform="translate(40,13)" fill="#000"  font-size="10px" stroke="white" stroke-width="0" text-anchor="middle"><tspan x="0" y="0">NAP1</tspan></text></g></g><g id="e1284" class="GroupGroup" transform="translate(97,286)" color="grey" ><use id="e1284-icon" class="Icon" width="96" height="56" fill="transparent"  stroke="grey" stroke-dasharray="5,3" stroke-width="0" xlink:href="#none"/><g id="aff65" class="Uniprot-TrEMBL_Q9Y616 GeneProduct IRAK3 " transform="translate(8,28)" color="#000"  name="IRAK-M"><rect id="aff65-icon" class="Icon" transform="matrix(.98765 0 0 .95238 .49383 .47619)" width="80" height="20" fill="#fff" stroke="#000"/><text id="aff65-text" class="Text" transform="translate(40,13)" fill="#000"  font-size="10px" stroke="white" stroke-width="0" text-anchor="middle"><tspan x="0" y="0">IRAK-M</tspan></text></g><g id="fb80d" class="Uniprot-TrEMBL_Q92835 GeneProduct INPP5D " transform="translate(8,8)" color="#000"  name="SHIP1"><rect id="fb80d-icon" class="Icon" transform="matrix(.98765 0 0 .95238 .49383 .47619)" width="80" height="20" fill="#fff" stroke="#000"/><text id="fb80d-text" class="Text" transform="translate(40,13)" fill="#000"  font-size="10px" stroke="white" stroke-width="0" text-anchor="middle"><tspan x="0" y="0">SHIP1</tspan></text></g></g><g id="e3bf1" class="GroupComplex" transform="translate(461,62)" color="grey" ><use id="e3bf1-icon" class="Icon" transform="matrix(.99492 0 0 .98837 .49746 .49419)" width="196" height="85" fill="#b4b464" fill-opacity=".1" stroke="grey" xlink:href="#Octagon"/><a  id="a4368" class="GeneProduct TIRAP " transform="translate(12,33)"   name="TIRAP"  ><rect id="a4368-icon" class="Icon" transform="matrix(.98765 0 0 .95238 .49383 .47619)" width="80" height="20" fill="#fff" stroke="#000"/><text id="a4368-text" class="Text" transform="translate(40,13)" fill="#000"  font-size="10px" stroke="white" stroke-width="0" text-anchor="middle"><tspan x="0" y="0">TIRAP</tspan></text></a><g id="abfb9" class="Uniprot-TrEMBL_P58753 GeneProduct TIRAP " transform="translate(12,53)" color="#000"  name="MAL"><rect id="abfb9-icon" class="Icon" transform="matrix(.98765 0 0 .95238 .49383 .47619)" width="80" height="20" fill="#fff" stroke="#000"/><text id="abfb9-text" class="Text" transform="translate(40,13)" fill="#000"  font-size="10px" stroke="white" stroke-width="0" text-anchor="middle"><tspan x="0" y="0">MAL</tspan></text></g><a  id="ea0a5" class="GeneProduct TRAM1 " transform="translate(104,33)"   name="TRAM"  ><rect id="ea0a5-icon" class="Icon" transform="matrix(.98765 0 0 .95238 .49383 .47619)" width="80" height="20" fill="#fff" stroke="#000"/><text id="ea0a5-text" class="Text" transform="translate(40,13)" fill="#000"  font-size="10px" stroke="white" stroke-width="0" text-anchor="middle"><tspan x="0" y="0">TRAM</tspan></text></a><a  id="f4c59" class="GeneProduct TLR4 " transform="translate(55,12)"   name="TLR4"  ><rect id="f4c59-icon" class="Icon" transform="matrix(.98765 0 0 .95238 .49383 .47619)" width="80" height="20" fill="#fff" stroke="#000"/><text id="f4c59-text" class="Text" transform="translate(40,13)" fill="#000"  font-size="10px" stroke="white" stroke-width="0" text-anchor="middle"><tspan x="0" y="0">TLR4</tspan></text></a></g><g id="fd682" class="GroupGroup" transform="translate(87,520)" color="grey" ><use id="fd682-icon" class="Icon" width="63.5" height="56" fill="transparent"  stroke="grey" stroke-dasharray="5,3" stroke-width="0" xlink:href="#none"/><g id="a30a7" class="Uniprot-TrEMBL_P01375 GeneProduct TNF " transform="translate(8,8)" color="#000"  name="TNFa"><rect id="a30a7-icon" class="Icon" transform="matrix(.97917 0 0 .95238 .48958 .47619)" width="47" height="20" fill="#fff" stroke="#000"/><text id="a30a7-text" class="Text" transform="translate(23.5,13)" fill="#000"  font-size="10px" stroke="white" stroke-width="0" text-anchor="middle"><tspan x="0" y="0">TNFa</tspan></text></g><a  id="fb0b1" class="GeneProduct IL6 " transform="translate(8.5,28)"   name="IL6"  ><rect id="fb0b1-icon" class="Icon" transform="matrix(.97917 0 0 .95238 .48958 .47619)" width="47" height="20" fill="#fff" stroke="#000"/><text id="fb0b1-text" class="Text" transform="translate(23.5,13)" fill="#000"  font-size="10px" stroke="white" stroke-width="0" text-anchor="middle"><tspan x="0" y="0">IL6</tspan></text></a></g><g id="fe415" class="GroupComplex" transform="translate(374,300)" color="grey" ><use id="fe415-icon" class="Icon" transform="matrix(.99048 0 0 .98824 .49524 .49412)" width="104" height="84" fill="#b4b464" fill-opacity=".1" stroke="grey" xlink:href="#Octagon"/><a  id="b4cdb" class="Uniprot-TrEMBL_O43318 GeneProduct MAP3K7 " transform="translate(12,12)"   name="TAK1"  ><rect id="b4cdb-icon" class="Icon" transform="matrix(.98765 0 0 .95238 .49383 .47619)" width="80" height="20" fill="#fff" stroke="#000"/><text id="b4cdb-text" class="Text" transform="translate(40,13)" fill="#000"  font-size="10px" stroke="white" stroke-width="0" text-anchor="middle"><tspan x="0" y="0">TAK1</tspan></text></a><a  id="e9204" class="GeneProduct TAB2 " transform="translate(12,52)"   name="TAB2"  ><rect id="e9204-icon" class="Icon" transform="matrix(.98765 0 0 .95238 .49383 .47619)" width="80" height="20" fill="#fff" stroke="#000"/><text id="e9204-text" class="Text" transform="translate(40,13)" fill="#000"  font-size="10px" stroke="white" stroke-width="0" text-anchor="middle"><tspan x="0" y="0">TAB2</tspan></text></a><a  id="f7627" class="GeneProduct TAB1 " transform="translate(12,32)"   name="TAB1"  ><rect id="f7627-icon" class="Icon" transform="matrix(.98765 0 0 .95238 .49383 .47619)" width="80" height="20" fill="#fff" stroke="#000"/><text id="f7627-text" class="Text" transform="translate(40,13)" fill="#000"  font-size="10px" stroke="white" stroke-width="0" text-anchor="middle"><tspan x="0" y="0">TAB1</tspan></text></a></g><g id="bccef" class="GroupGroup" transform="translate(224,599)" color="grey" ><use id="bccef-icon" class="Icon" width="141" height="55" fill="transparent"  stroke="grey" stroke-dasharray="5,3" stroke-width="0" xlink:href="#none"/><a  id="c6225" class="GeneProduct NFKB1 " transform="translate(60,8)"   name="NFKB"  ><rect id="c6225-icon" class="Icon" transform="matrix(.98182 0 0 .95238 .49091 .47619)" width="54" height="20" fill="#fff" stroke="#000"/><text id="c6225-text" class="Text" transform="translate(27,13)" fill="#000"  font-size="10px" stroke="white" stroke-width="0" text-anchor="middle"><tspan x="0" y="0">NFKB</tspan></text></a><g id="c7611" class="Edge GraphicalLine" color="#000" ><g color="#000" fill="transparent"  filter="url(#kaavioblackto000000filter)" stroke="#000" stroke-dasharray="80, 0" stroke-width="2"><path id="c7611" class="EdgeBody" d="m52 33h80"   /></g></g><g id="d47a3" class="Label" transform="translate(8,27)" color="#000"  name="DNA"><use id="d47a3-icon" class="Icon" width="48" height="20" fill="transparent"  stroke="#000" stroke-width="0" xlink:href="#none"/><text id="d47a3-text" class="Text" transform="translate(24,14)" fill="#000"  font-size="12px" font-weight="bold" stroke="white" stroke-width="0" text-anchor="middle"><tspan x="0" y="0">DNA</tspan></text></g><g id="b3761" class="Edge GraphicalLine" color="#000" ><g color="#000" fill="transparent"  filter="url(#kaavioblackto000000filter)" stroke="#000" stroke-dasharray="80, 0" stroke-width="2"><path id="b3761" class="EdgeBody" d="m53 42h80"   /></g></g></g><g id="f47be" class="Label" transform="translate(725,4)" color="#000"  name="Legend"><use id="f47be-icon" class="Icon" width="73" height="20" fill="transparent"  stroke="#000" stroke-width="0" xlink:href="#none"/><text id="f47be-text" class="Text" transform="translate(36.5,13)" fill="#000"  font-size="10px" font-weight="bold" stroke="white" stroke-width="0" text-anchor="middle"><tspan x="0" y="0">Legend</tspan></text></g><a  id="f71c5" class="GeneProduct IRF7 " transform="translate(724.5,440)"   name="IRF7"  ><rect id="f71c5-icon" class="Icon" transform="matrix(.98 0 0 .95238 .49 .47619)" width="49" height="20" fill="#fff" stroke="#000"/><text id="f71c5-text" class="Text" transform="translate(24.5,13)" fill="#000"  font-size="10px" stroke="white" stroke-width="0" text-anchor="middle"><tspan x="0" y="0">IRF7</tspan></text></a><g id="af8f3" class="DirectedInteraction" color="#000" ><g color="#000" fill="transparent"  filter="url(#kaavioblackto000000filter)" stroke="#000" stroke-dasharray="81.56704184073077, 5.8"><path id="af8f3" class="EdgeBody" d="m757 353-8 87"   marker-end="url(#markerEndArrow)" /></g></g><g id="ac4e5" class="DirectedInteraction" color="#000" ><g color="#000" fill="transparent"  filter="url(#kaavioblackto000000filter)" stroke="#000" stroke-dasharray="137.2, 5.8"><path id="ac4e5" class="EdgeBody" d="m749 460v143"   marker-end="url(#markerEndArrow)" /></g></g><text id="WP3851-text" class="Text" transform="translate(5,27)" dominant-baseline="central" fill="black"  font-size="12px" font-weight="bold" overflow="visible" stroke="white" stroke-width="0"><tspan x="0" y="-9">Name: TLR4 signaling and tolerance</tspan> <tspan x="0" y="9">Organism: Homo sapiens</tspan></text></g></svg>
