<?xml version="1.0" encoding="UTF-8"?>
<svg xmlns="http://www.w3.org/2000/svg" id="-svg" class="Diagram"  baseProfile="full" prefix="schema:http://schema.org/" preserveAspectRatio="xMidYMid"  version="1.1"><defs><g id="filter-defs"><filter id="doublefalse3filter" x="-50%" y="-50%" width="200%" height="200%"><feComposite in="SourceGraphic" in2="SourceGraphic" result="doubleDark"/><feMorphology in="doubleDark" operator="dilate" radius="0.17" result="in2Double"/><feMorphology in="SourceGraphic" operator="dilate" radius="3" result="inDouble"/><feComposite in="inDouble" in2="in2Double" operator="out" result="doubleResult"/></filter></g><g id="icon-defs"><symbol id="Ellipse" class=" Icon Ellipse" x="0" y="0" overflow="visible" preserveAspectRatio="none" viewBox="0 0 50 50"><desc>Ellipse</desc><ellipse cx="25" cy="25" rx="25" ry="25" vector-effect="non-scaling-stroke"/></symbol></g><g id="marker-defs"><marker id="memconversion000" markerHeight="12" markerWidth="12" orient="auto" preserveAspectRatio="none" refX="12" refY="6" viewBox="0 0 12 12"><g id="g-memconversion000" transform=""><g transform="rotate(180 6 6)"><rect y="5.4" width="2" height="1.2" style="stroke:#fff"/><polygon points="12 11 0 6 12 1" stroke-width="0"/></g></g></marker><marker id="membinding000" markerHeight="12" markerWidth="12" orient="auto" preserveAspectRatio="none" refX="12" refY="6" viewBox="0 0 12 12"><g id="g-membinding000" transform=""><g transform="rotate(180 6 6)"><rect y="5.4" width="2" height="1.2" style="stroke:#fff"/><polygon points="12 12 0 6 12 0 5 6" stroke-width="0"/></g></g></marker><marker id="meminhibition000" markerHeight="20" markerWidth="10" orient="auto" preserveAspectRatio="none" refX="10" refY="10" viewBox="0 0 10 20"><g id="g-meminhibition000" transform=""><g transform="rotate(180 5 10)"><rect y="9" width="8" height="2" style="stroke:none"/><line x="0" y="0" width="12" height="12" x1="7" x2="7" y2="20" stroke="#000" stroke-width="1.8"/></g></g></marker><marker id="mea" markerHeight="12" markerWidth="12" orient="auto" preserveAspectRatio="none" refX="12" refY="6" viewBox="0 0 12 12"><g id="g-mea" transform=""><g transform="rotate(180 6 6)"><rect y="5.4" width="2" height="1.2" style="stroke:#fff"/><polygon points="12 11 0 6 12 1" stroke-width="0"/></g></g></marker><marker id="memtranscriptiontranslation000" markerHeight="24" markerWidth="20" orient="auto" preserveAspectRatio="none" refX="20" refY="12" viewBox="0 0 20 24"><g id="g-memtranscriptiontranslation000" transform=""><g transform="rotate(180 10 12)"><rect y="11" width="12" height="2" style="stroke:#fff"/><line x1="15" x2="15" y1="12" y2="5" fill="none" stroke="#000"/><line x1="15.5" x2="8" y1="5" y2="5" fill="none" stroke="#000"/><polygon points="0 5 8 1 8 9" fill="#fff" stroke="#000"/></g></g></marker></g></defs><g id="viewport-20220102142629479" class="svg-pan-zoom_viewport" transform="matrix(1.04 0 0 1.04 190.07 0)" style="transform:matrix(1.04, 0, 0, 1.04, 190.07, 0)"><style>svg.Diagram {font-family: 'Liberation Sans', Arial, sans-serif; }.Diagram path {fill: transparent;stroke: #000;marker-end: url(#mea);}.Diagram symbol path {fill: inherit;stroke: inherit;stroke-width: inherit;marker-end: inherit;}.Diagram rect {fill: #fff;stroke: #000;}.Diagram text {dominant-baseline: central;overflow: hidden;text-anchor: middle;fill: #000;font-size: 10px;}</style><style type="text/css">.Viewport .textContent {
  pointer-events: none;
  stroke-width: 0px;
}

					.Viewport.Icon {
  fill: white;
}

/* Hide the InfoBox */
.Viewport.textContent {
  font-size: 0;
}

.textContent {
  stroke: none;
}

.DataNode {
  stroke-miterlimit: 1;
  pointer-events: auto;
}

.DataNode:hover {
  cursor: pointer;
}

/* TODO should this apply to things other than DataNodes? */
.DataNode.textContent {
  pointer-events: none;
}

.DataNode.Highlighted {
  opacity: 0.6;
  stroke-width: 0px;
}

marker {
  /* this is what should work per the spec
  stroke-dasharray: none; */
  /* but I need to add this to make it work in Safari */
  stroke-dasharray: 9999999999999999999999999;
}

.Citation.Icon {
  fill: none;
  stroke-width: 0px;
}

.Citation.textContent {
  text-align: center;
  vertical-align: top;
  font-size: 7px;
  fill: #999;
  fill-opacity: 1;
  stroke: none;
}</style><g id="WP3926" class="Pathway http___identifiers_org_pw_PW_0000013 http___identifiers_org_pw_PW_0000013 Viewport"  name="Name: ApoE and miR-146 in inflammation and atherosclerosis Organism: Homo sapiens" ><g class="Pathway http___identifiers_org_pw_PW_0000013 http___identifiers_org_pw_PW_0000013 Viewport"><rect   width="790" height="688" style="stroke:none"/><g id="id3b137d88" class="Edge"  ><path    d="m141 468v60.5h49"/></g><g id="id79dfb402" class="Edge"  ><path    d="m275.5 60 0.33 53.83" style="marker-end:url(#membinding000)"/></g><g id="idb607b62c" class="Edge"  ><path    d="m375.5 61v54" style="marker-end:url(#membinding000)"/></g><g id="idbe323268" class="Edge"  ><path    d="m479.5 378v-89" style="marker-end:url(#memconversion000)"/></g><g id="idca3b4aea" class="Edge"  ><path    d="m693.83 195.5v-110.33"/><g id="f10a1" class="AB" transform="translate(693.83 141.32)"  ><g class="AB"/></g></g><g id="id5bd82ddb" class="Edge"  ><path    d="m626.07 275.86v-134.53h67.76"/></g><g id="id3169426f" class="Edge"  ><path    d="m479.5 440v-42" style="marker-end:url(#memconversion000)"/></g><g id="id29f19bad" class="Edge"  ><path    d="m275.83 133.83 42.83 61.10" style="marker-end:url(#membinding000)"/></g><g id="id39896e46" class="Edge"  ><path    d="m447 222-93.32 0.93" style="marker-end:url(#meminhibition000)"/></g><g id="idf64f1c51" class="Edge"  ><path    d="m375.5 135-56.83 59.93" style="marker-end:url(#membinding000)"/></g><g id="idf6b9813b" class="Edge"  ><path    d="m318.67 250.93 1e-13 41.45"/></g><g id="id23731ff3" class="Edge"  ><path    d="m318.67 340.38v90" style="marker-end:url(#memconversion000)"/></g><g id="id5fc40f62" class="Edge"  ><path    d="m282.17 458.38-93.17-0.38" style="marker-end:url(#memtranscriptiontranslation000)"/></g><g id="idc1efcbcf" class="Edge"  ><path    d="m355.17 458.38 71.83-0.38" style="marker-end:url(#memtranscriptiontranslation000)"/></g><g id="id75364118" class="Edge"  ><path    d="m626.07 295.86 0.43 144.14"/></g><g id="d3f3c" class=" PhysicalEntity CellularComponent Cell" transform="translate(44.5,122.5)"  ><g class=" PhysicalEntity CellularComponent Cell" filter="url(#doublefalse3filter)"><g class=" PhysicalEntity CellularComponent Cell"><rect   transform="matrix(0.98 0 0 0.98 5.90 5.87)" width="717" height="537" rx="15" ry="15" stroke-width="3" style="fill:transparent;stroke:#c0c0c0"/></g></g></g><g id="ded5d" class=" PhysicalEntity CellularComponent Nucleus" transform="translate(52.5,344.5)"  ><g class=" PhysicalEntity CellularComponent Nucleus" filter="url(#doublefalse3filter)"><g class=" PhysicalEntity CellularComponent Nucleus"><use class=" PhysicalEntity CellularComponent Nucleus Node Icon" transform="matrix(0.98 0 0 0.96 5.90 5.76)" width="690" height="290" fill="transparent" stroke="#c0c0c0" stroke-width="3" href="#Ellipse"/></g></g></g><g id="e6c3d" class="Metabolite " transform="translate(213,40)"  name="Lipopolysaccharide" ><g class="Metabolite "/><text   transform="translate(62.5,10)"    font-weight="bold"  style="font-size:12px">Lipopolysaccharide</text></g><g id="bfc4d" class="GeneProduct " transform="translate(594 275.86)"  name="APOE" ><rect   width="64.14" height="20"/><text   transform="translate(32.07 10)"    >APOE</text></g><g id="da74b" class="GeneProduct " transform="translate(447,212)"  name="MIR146A" ><rect   width="66" height="20" style="stroke:#909"/><text   transform="translate(33,10)"     style="fill:#990099">MIR146A</text></g><g id="e41d0" class="Metabolite " transform="translate(664 195.5)"  name="HDL" ><rect   width="59.67" height="25" style="stroke:#00f"/><text   transform="translate(29.83 12.5)"     style="fill:#00f;font-size:12px">HDL</text></g><g id="fa33a" class="GeneProduct " transform="translate(247 113.83)"  name="TLR4" ><rect   width="57.67" height="20"/><text   transform="translate(28.83 10)"    >TLR4</text></g><g id="ffe69" class="GeneProduct " transform="translate(344,115)"  name="TLR2" ><rect   width="63" height="20"/><text   transform="translate(31.5,10)"    >TLR2</text></g><g id="c85f5" class="GroupGroup" transform="translate(283.65 194.93)"  ><g class="GroupGroup"><g id="ed792" class="GeneProduct " transform="translate(8,8)"  name="IRAK1" ><rect   width="54.03" height="20"/><text   transform="translate(27.02 10)"    >IRAK1</text></g><g id="fc1b1" class="GeneProduct " transform="translate(8,28)"  name="TRAF6" ><rect   width="54.03" height="20"/><text   transform="translate(27.02 10)"    >TRAF6</text></g></g></g><g id="ed453" class="GroupGroup" transform="translate(282.17 284.38)"  ><g class="GroupGroup"><g id="b2151" class="GeneProduct " transform="translate(8,28)"  name="NFKB2" ><rect   width="57" height="20"/><text   transform="translate(28.5,10)"    >NFKB2</text></g><g id="cc3aa" class="GeneProduct " transform="translate(8,8)"  name="RELA" ><rect   width="57" height="20"/><g id="e285b" class="State Burr" transform="translate(48.5,-7.5)"  name="P" ><g class="State Burr"><use class="State Burr Node Icon" width="15" height="15" fill="#fff" stroke="#000" href="#Ellipse"/></g><g ><defs><clipPath ><rect x="-7.5" y="-7.5" width="15" height="15" style="stroke:none"/></clipPath></defs><text   transform="translate(7.5,7.5)"  font-family="arial" overflow="visible">P</text></g></g><text   transform="translate(28.5,10)"    >RELA</text></g></g></g><g id="faf3d" class="GroupGroup" transform="translate(593,440)"  ><g class="GroupGroup"><g id="e6e69" class="GeneProduct " transform="translate(8,8)"  name="SPI1" ><rect   width="51" height="20"/><text   transform="translate(25.5,10)"    >SPI1</text></g></g></g><g id="ba110" class="Metabolite " transform="translate(343,41)"  name="ox-LDL" ><g class="Metabolite "/><text   transform="translate(32.5,10)"    font-weight="bold"  style="font-size:12px">ox-LDL</text></g><g id="eeded" class="GroupGroup" transform="translate(282.17 430.38)"  ><g class="GroupGroup"><g id="c87cb" class="GeneProduct " transform="translate(8,8)"  name="RELA" ><rect   width="57" height="20"/><g id="af2b2" class="State Burr" transform="translate(46.5,-7.5)"  name="P" ><g class="State Burr"><use class="State Burr Node Icon" width="15" height="15" fill="#fff" stroke="#000" href="#Ellipse"/></g><g ><defs><clipPath ><rect x="-7.5" y="-7.5" width="15" height="15" style="stroke:none"/></clipPath></defs><text   transform="translate(7.5,7.5)"  font-family="arial" overflow="visible">P</text></g></g><text   transform="translate(28.5,10)"    >RELA</text></g><g id="c2fa9" class="GeneProduct " transform="translate(8,28)"  name="NFKB2" ><rect   width="57" height="20"/><text   transform="translate(28.5,10)"    >NFKB2</text></g></g></g><g id="deee3" class="Label" transform="translate(190,508)"  name="Monocyte and macrophage  activation" ><g class="Label"/><text   transform="translate(97.5,20.5)"    font-weight="bold"  style="font-size:12px"><tspan   x="0" y="-6.60">Monocyte and macrophage </tspan><tspan   x="0" y="6.60">activation</tspan></text></g><g id="aab86" class="GroupGroup" transform="translate(427,440)"  ><g class="GroupGroup"><g id="ac979" class="Label" transform="translate(8,8)"  name="pri-miR-146a" ><g class="Label"/><text   transform="translate(44.5,10)"    font-weight="bold"  style="font-size:12px">pri-miR-146a</text></g></g></g><g id="a84e6" class="Label" transform="translate(435,378)"  name="pre-miR-146a" ><g class="Label"/><text   transform="translate(44.5,10)"    font-weight="bold"  style="font-size:12px">pre-miR-146a</text></g><g id="eb278" class="Label" transform="translate(435,269)"  name="pre-miR-146a" ><g class="Label"/><text   transform="translate(44.5,10)"    font-weight="bold"  style="font-size:12px">pre-miR-146a</text></g><g id="a295e" class="Edge"  ><path    d="m479.5 269 0.5-37" style="marker-end:url(#memconversion000)"/></g><g id="f3315" class="Edge"  ><path    d="m593 458h-61" style="marker-end:url(#memtranscriptiontranslation000)"/></g><g id="d4c80" class="Label" transform="translate(93,448)"  name="cytokine genes" ><g class="Label"/><text   transform="translate(48,10)"    font-weight="bold"  style="font-size:12px">cytokine genes</text></g><g id="d64c3" class="Metabolite " transform="translate(664 60.17)"  name="HDL" ><rect   width="59.67" height="25" style="stroke:#00f"/><text   transform="translate(29.83 12.5)"     style="fill:#00f;font-size:12px">HDL</text></g></g></g></g></svg>