<?xml version="1.0" encoding="UTF-8"?>
<svg xmlns="http://www.w3.org/2000/svg" id="-svg" class="Diagram"  baseProfile="full" prefix="schema:http://schema.org/" preserveAspectRatio="xMidYMid"  version="1.1"><defs><g id="filter-defs"><filter id="doublefalse3filter" x="-50%" y="-50%" width="200%" height="200%"><feComposite in="SourceGraphic" in2="SourceGraphic" result="doubleDark"/><feMorphology in="doubleDark" operator="dilate" radius="0.17" result="in2Double"/><feMorphology in="SourceGraphic" operator="dilate" radius="3" result="inDouble"/><feComposite in="inDouble" in2="in2Double" operator="out" result="doubleResult"/></filter></g><g id="icon-defs"><symbol id="Ellipse" class=" Icon Ellipse" x="0" y="0" overflow="visible" preserveAspectRatio="none" viewBox="0 0 50 50"><desc>Ellipse</desc><ellipse cx="25" cy="25" rx="25" ry="25" vector-effect="non-scaling-stroke"/></symbol></g><g id="marker-defs"><marker id="mea" markerHeight="12" markerWidth="12" orient="auto" preserveAspectRatio="none" refX="12" refY="6" viewBox="0 0 12 12"><g id="g-mea" transform=""><g transform="rotate(180 6 6)"><rect y="5.4" width="2" height="1.2" style="stroke:#fff"/><polygon points="12 11 0 6 12 1" stroke-width="0"/></g></g></marker><marker id="meminhibition000" markerHeight="20" markerWidth="10" orient="auto" preserveAspectRatio="none" refX="10" refY="10" viewBox="0 0 10 20"><g id="g-meminhibition000" transform=""><g transform="rotate(180 5 10)"><rect y="9" width="8" height="2" style="stroke:none"/><line x="0" y="0" width="12" height="12" x1="7" x2="7" y2="20" stroke="#000" stroke-width="1.8"/></g></g></marker><marker id="memtranscriptiontranslation000" markerHeight="24" markerWidth="20" orient="auto" preserveAspectRatio="none" refX="20" refY="12" viewBox="0 0 20 24"><g id="g-memtranscriptiontranslation000" transform=""><g transform="rotate(180 10 12)"><rect y="11" width="12" height="2" style="stroke:#fff"/><line x1="15" x2="15" y1="12" y2="5" fill="none" stroke="#000"/><line x1="15.5" x2="8" y1="5" y2="5" fill="none" stroke="#000"/><polygon points="0 5 8 1 8 9" fill="#fff" stroke="#000"/></g></g></marker><marker id="membinding000" markerHeight="12" markerWidth="12" orient="auto" preserveAspectRatio="none" refX="12" refY="6" viewBox="0 0 12 12"><g id="g-membinding000" transform=""><g transform="rotate(180 6 6)"><rect y="5.4" width="2" height="1.2" style="stroke:#fff"/><polygon points="12 12 0 6 12 0 5 6" stroke-width="0"/></g></g></marker><marker id="meaf00" markerHeight="12" markerWidth="12" orient="auto" preserveAspectRatio="none" refX="12" refY="6" viewBox="0 0 12 12"><g id="g-meaf00" transform=""><g transform="rotate(180 6 6)"><rect y="5.4" width="2" height="1.2" style="stroke:#fff"/><polygon points="12 11 0 6 12 1" fill="#f00" stroke-width="0"/></g></g></marker></g></defs><g id="viewport-20220102142749689" class="svg-pan-zoom_viewport" transform="matrix(0.80 0 0 0.80 0 93.95)" style="transform:matrix(0.80, 0, 0, 0.80, 0, 93.95)"><style>svg.Diagram {font-family: 'Liberation Sans', Arial, sans-serif; }.Diagram path {fill: transparent;stroke: #000;marker-end: url(#mea);}.Diagram symbol path {fill: inherit;stroke: inherit;stroke-width: inherit;marker-end: inherit;}.Diagram rect {fill: #fff;stroke: #000;}.Diagram text {dominant-baseline: central;overflow: hidden;text-anchor: middle;fill: #000;font-size: 12px;}</style><style type="text/css">.Viewport .textContent {
  pointer-events: none;
  stroke-width: 0px;
}

					.Viewport.Icon {
  fill: white;
}

/* Hide the InfoBox */
.Viewport.textContent {
  font-size: 0;
}

.textContent {
  stroke: none;
}

.DataNode {
  stroke-miterlimit: 1;
  pointer-events: auto;
}

.DataNode:hover {
  cursor: pointer;
}

/* TODO should this apply to things other than DataNodes? */
.DataNode.textContent {
  pointer-events: none;
}

.DataNode.Highlighted {
  opacity: 0.6;
  stroke-width: 0px;
}

marker {
  /* this is what should work per the spec
  stroke-dasharray: none; */
  /* but I need to add this to make it work in Safari */
  stroke-dasharray: 9999999999999999999999999;
}

.Citation.Icon {
  fill: none;
  stroke-width: 0px;
}

.Citation.textContent {
  text-align: center;
  vertical-align: top;
  font-size: 7px;
  fill: #999;
  fill-opacity: 1;
  stroke: none;
}</style><g id="WP3981" class="Pathway http___identifiers_org_pw_PW_0000605 Viewport"  name="Name: miRNA regulation of prostate cancer signaling pathways Organism: Homo sapiens" ><g class="Pathway http___identifiers_org_pw_PW_0000605 Viewport"><rect   width="1494" height="655" style="stroke:none"/><g id="id215a2eaf" class="Edge"  ><path    d="m1073 306h52" style="stroke:#f00;marker-end:url(#meaf00)"/></g><g id="id280a20f5" class="Edge"  ><path    d="m1069 453h41" style="marker-end:url(#memtranscriptiontranslation000)"/></g><g id="id31f8f5fe" class="Edge"  ><path    d="m804 336 59-30" style="marker-end:url(#meminhibition000)"/></g><g id="id3a2a7237" class="Edge"  ><path    d="m1167 359h43" style="marker-end:url(#memtranscriptiontranslation000)"/></g><g id="id3db3014f" class="Edge"  ><path    d="m928 359h86.5"/></g><g id="id3e8b267d" class="Edge"  ><path    d="m667 282 70-178" style="marker-end:url(#meminhibition000)"/></g><g id="id3e8b6ed9" class="Edge"  ><path    d="m667 282 70-105" style="marker-end:url(#meminhibition000)"/></g><g id="id3f18ed48" class="Edge"  ><path    d="m362 282h34"/></g><g id="id40126c34" class="Edge"  ><path    d="m667 282 71 3"/></g><g id="id40d6a2e9" class="Edge"  ><path    d="m667 282 70 217"/></g><g id="id4cb3f588" class="Edge"  ><path    d="m919 453h95"/></g><g id="id4d37f165" class="Edge"  ><path    d="m667 282 71 130"/></g><g id="id4e85335d" class="Edge"  ><path    d="m667 282 70-141" style="marker-end:url(#meminhibition000)"/></g><g id="id587d9a0f" class="Edge"  ><path    d="m802 104h20v28.81h48" stroke-dasharray="5,3"/></g><g id="id58eae10e" class="Edge"  ><path    d="m234.83 282h62.17" style="marker-end:url(#membinding000)"/></g><g id="id5c3b584c" class="Edge"  ><path    d="m556 282h46"/></g><g id="id620393fe" class="Edge"  ><path    d="m362 288.25 50.25 43.25"/></g><g id="id6f4a34e3" class="Edge"  ><path    d="m1067.5 359h44.5"/></g><g id="id7f377b7d" class="Edge"  ><path    d="m928 359 80-53" style="marker-end:url(#meminhibition000)"/></g><g id="id848575fc" class="Edge"  ><path    d="m667 282 70-30" style="marker-end:url(#meminhibition000)"/></g><g id="id853fd6d7" class="Edge"  ><path    d="m428.5 356.5v66"/></g><g id="id864f4b72" class="Edge"  ><path    d="m802 499h54" stroke-dasharray="5,3"/></g><g id="id8f316ef0" class="Edge"  ><path    d="m461 498 57 1"/></g><g id="ida049ebcc" class="Edge"  ><path    d="m461 282h38"/></g><g id="idadce90fe" class="Edge"  ><path    d="m803 412h56.5"/></g><g id="idaecc752" class="Edge"  ><path    d="m887.5 424.5v16" style="stroke:#f00;marker-end:none"/></g><g id="idb2b3083c" class="Edge"  ><path    d="m1068 570h37" style="marker-end:url(#memtranscriptiontranslation000)"/></g><g id="idbe8429bc" class="Edge"  ><path    d="m667 282 72 54" style="marker-end:url(#meminhibition000)"/></g><g id="idbfa84637" class="Edge"  ><path    d="m428.5 447.5v38"/></g><g id="idd7e74223" class="Edge"  ><path    d="m1153 570h29" stroke-dasharray="5,3"/></g><g id="idedc9633a" class="Edge"  ><path    d="m802 177h20v-28.44h48" stroke-dasharray="5,3"/></g><g id="idfc1d96dd" class="Edge"  ><path    d="m667 282 70-62" style="marker-end:url(#meminhibition000)"/></g><g id="idfe468ec4" class="Edge"  ><path    d="m802 141 68-0.32" stroke-dasharray="5,3"/></g><g id="idecb29b35" class="Edge"  ><path    d="m220.09 434.5 175.91 0.5" style="marker-end:url(#meminhibition000)"/></g><g id="id5288e351" class="Edge"  ><path    d="m810 236 58 0.25" stroke-dasharray="5,3"/></g><g id="id28b58c84" class="Edge"  ><path    d="m116.5 232.61 53.33 43.14" style="marker-end:url(#meminhibition000)"/></g><g id="id14dbd9ea" class="Edge"  ><path    d="m550 552.5 0.5-41" style="marker-end:url(#meminhibition000)"/></g><g id="id29dd3937" class="Edge"  ><path    d="m197.29 154.69 115.96 114.81" style="marker-end:url(#meminhibition000)"/></g><g id="id78fd510d" class="Edge"  ><path    d="m583 499 38.16 0.14"/></g><g id="idd9c36166" class="Edge"  ><path    d="m659.88 532.14 0.93 25.36"/></g><g id="id5b69240a" class="Edge"  ><path    d="m174 343.5 222 0.5" style="marker-end:url(#meminhibition000)"/></g><g id="id135a6d17" class="Edge"  ><path    d="m807 568.5 206 1.5"/></g><g id="id2d9f79c9" class="Edge"  ><path    d="m693.31 570 43.69-1.5" stroke-dasharray="5,3"/></g><g id="idfdae01e9" class="Edge"  ><path    d="m667 282 70 286.5" stroke-dasharray="5,3"/></g><g id="id66a15bdd" class="Edge"  ><path    d="M268,578.5L396,498" style="marker-end:url(#meminhibition000)"/></g><g id="be249" class=" PhysicalEntity CellularComponent Nucleus" transform="translate(950.41 118.45) rotate(-89.80 252.66 246.38)"  ><g class=" PhysicalEntity CellularComponent Nucleus" filter="url(#doublefalse3filter)"><g class=" PhysicalEntity CellularComponent Nucleus"><rect   transform="matrix(0.98 0 0 0.98 5.86 5.86)" width="505.32" height="492.76" rx="15" ry="15" stroke-width="3" style="fill:transparent;stroke:#c0c0c0"/></g></g></g><g id="e1147" class=" PhysicalEntity CellularComponent Cell" transform="translate(332.5,66.5)"  ><g class=" PhysicalEntity CellularComponent Cell" filter="url(#doublefalse3filter)"><g class=" PhysicalEntity CellularComponent Cell"><rect   transform="matrix(0.99 0 0 0.98 5.94 5.87)" width="1133" height="560" rx="15" ry="15" stroke-width="3" style="fill:transparent;stroke:#c0c0c0"/></g></g></g><g id="b5278" class="Label" transform="translate(993,222.5)"  name="Cell Cycle" ><rect   width="90" height="25" rx="15" ry="15" stroke-width="2"/><text   transform="translate(45,12.5)"    font-weight="bold" >Cell Cycle</text></g><g id="b6067" class="Label" transform="translate(1182,557.5)"  name="Cell proliferation Survival" ><g class="Label"/><text   transform="translate(52,12.5)"    font-weight="bold" ><tspan   x="0" y="-6.60">Cell proliferation</tspan><tspan   x="0" y="6.60">Survival</tspan></text></g><g id="ea074" class="Label" transform="translate(1199,116.5)"  name="Nucleus" ><g class="Label"/><text   transform="translate(45,12.5)"    font-weight="bold" >Nucleus</text></g><g id="fde7a" class="Label" transform="translate(870 124.93)"  name="Apoptosis inhibition" ><g class="Label"/><text   transform="translate(36.5,15.75)"    font-weight="bold" ><tspan   x="0" y="-6.60">Apoptosis</tspan><tspan   x="0" y="6.60">inhibition</tspan></text></g><g id="ae3c5" class="Metabolite " transform="translate(1013,557.5)"  name="DNA" ><rect   width="55" height="25" style="stroke:#00f"/><text   transform="translate(27.5,12.5)"     style="fill:#00f">DNA</text></g><g id="c9eaa" class="GeneProduct " transform="translate(1008,293.5)"  name="CREBBP" ><rect   width="65" height="25"/><text   transform="translate(32.5,12.5)"    >CREBBP</text></g><g id="cfca0" class="GeneProduct " transform="translate(856,440.5)"  name="NFKB1" ><rect   width="63" height="25"/><text   transform="translate(31.5,12.5)"    >NFKB1</text></g><g id="d2da2" class="GeneProduct " transform="translate(169.83 269.5)"  name="PDGFA" ><rect   width="65" height="25"/><text   transform="translate(32.5,12.5)"    >PDGFA</text></g><g id="df82f" class="Metabolite " transform="translate(499,269.5)"  name="PIP3" ><rect   width="57" height="25" style="stroke:#00f"/><text   transform="translate(28.5,12.5)"     style="fill:#00f">PIP3</text></g><g id="ec968" class="GeneProduct " transform="translate(1125,293.5)"  name="TP53" ><rect   width="49" height="25"/><text   transform="translate(24.5,12.5)"    >TP53</text></g><g id="ec9f3" class="GeneProduct " transform="translate(859.5,399.5)"  name="NFKBIA" ><rect   width="56" height="25"/><text   transform="translate(28,12.5)"    >NFKBIA</text></g><g id="f9283" class="GeneProduct " transform="translate(1110,440.5)"  name="BCL2" ><rect   width="52" height="25"/><text   transform="translate(26,12.5)"    >BCL2</text></g><g id="fbfe8" class="GeneProduct " transform="translate(1105,557.5)"  name="PSA" ><rect   width="48" height="25"/><text   transform="translate(24,12.5)"    >PSA</text></g><g id="ff371" class="GeneProduct " transform="translate(1210,346.5)"  name="CCND1" ><rect   width="52" height="25"/><text   transform="translate(26,12.5)"    >CCND1</text></g><g id="ad9e3" class="GroupGroup" transform="translate(509,552.5)"  ><g class="GroupGroup"><g id="ff1f4" class="Rna " transform="translate(8,8)"  name="MIR589" ><rect   width="66" height="25" style="stroke:#909"/><text   transform="translate(33,12.5)"     style="fill:#990099">MIR589</text></g><g id="ed82b" class="Rna miRBase_Sequence_MI0016135" transform="translate(8,33)"  name="MIR3714" ><rect   width="66" height="25" style="stroke:#909"/><text   transform="translate(33,12.5)"     style="fill:#990099">MIR3714</text></g></g></g><g id="c7137" class="GroupGroup" transform="translate(90.21 63.93)"  ><g class="GroupGroup"><g id="e4db2" class="Rna " transform="translate(8,8)"  name="MIR3682" ><rect   width="66" height="25" style="stroke:#909"/><text   transform="translate(33,12.5)"     style="fill:#990099">MIR3682</text></g><g id="bb9cf" class="Rna " transform="translate(8,33)"  name="MIR1299" ><rect   width="66" height="25" style="stroke:#909"/><text   transform="translate(33,12.5)"     style="fill:#990099">MIR1299</text></g><g id="c858c" class="Rna " transform="translate(74 33)"  name="MIR4325" ><rect   width="66" height="25" style="stroke:#909"/><text   transform="translate(33,12.5)"     style="fill:#990099">MIR4325</text></g><g id="a1833" class="Rna miRBase_Sequence_MI0017404" transform="translate(140.16 8.00)"  name="MIR4763" ><rect   width="66" height="25" style="stroke:#909"/><text   transform="translate(33,12.5)"     style="fill:#990099">MIR4763</text></g><g id="a0adb" class="Rna" transform="translate(140.16 33)"  name="MIR548" ><rect   width="66" height="25" style="stroke:#909"/><text   transform="translate(33 12.5)"     style="fill:#990099">MIR548</text></g><g id="a9457" class="Rna " transform="translate(74 8)"  name="MIR3120" ><rect   width="66" height="25" style="stroke:#909"/><text   transform="translate(33,12.5)"     style="fill:#990099">MIR3120</text></g><g id="b4483" class="Rna " transform="translate(8.21 57.77)"  name="MIR3664" ><rect   width="66" height="25" style="stroke:#909"/><text   transform="translate(33,12.5)"     style="fill:#990099">MIR3664</text></g><g id="a5df4" class="Rna " transform="translate(73.21 57.77)"  name="MIR4311" ><rect   width="66" height="25" style="stroke:#909"/><text   transform="translate(33,12.5)"     style="fill:#990099">MIR4311</text></g><g id="b2574" class="Rna miRBase_Sequence_MI0000764" transform="translate(140.16 57.77)"  name="MIR363" ><rect   width="66" height="25" style="stroke:#909"/><text   transform="translate(33 12.5)"     style="fill:#990099">MIR363</text></g></g></g><g id="d2f20" class="GroupGroup" transform="translate(621.16 466.14)"  ><g class="GroupGroup"><g id="bb73a" class="GeneProduct " transform="translate(8 8)"  name="MAP2K1" ><rect   width="61.44" height="25" style="fill:transparent"/><text   transform="translate(30.72 12.5)"    >MAP2K1</text></g><g id="fd9c9" class="GeneProduct " transform="translate(8,33)"  name="MAP2K2" ><rect   width="61.44" height="25" style="fill:transparent"/><text   transform="translate(30.72 12.5)"    >MAP2K2</text></g></g></g><g id="e127d" class="GroupGroup" transform="translate(737,535.5)"  ><g class="GroupGroup"><g id="e6249" class="GeneProduct " transform="translate(8,8)"  name="AR" ><rect   width="54" height="25"/><text   transform="translate(27,12.5)"    >AR</text></g><g id="c5b4c" class="GeneProduct " transform="translate(8,33)"  name="AR" ><rect   width="54" height="25"/><text   transform="translate(27,12.5)"    >AR</text></g></g></g><g id="e8551" class="GeneProduct " transform="translate(297,269.5)"  name="PDGFRB" ><rect   width="65" height="25"/><text   transform="translate(32.5,12.5)"    >PDGFRB</text></g><g id="ad99a" class="GroupGroup" transform="translate(42.5 166.61)"  ><g class="GroupGroup"><g id="ff413" class="Rna " transform="translate(8,8)"  name="MIR200A" ><rect   width="66" height="25" style="stroke:#909"/><text   transform="translate(33,12.5)"     style="fill:#990099">MIR200A</text></g><g id="b9a76" class="Rna " transform="translate(8,33)"  name="MIR30D" ><rect   width="66" height="25" style="stroke:#909"/><text   transform="translate(33,12.5)"     style="fill:#990099">MIR30D</text></g><g id="e4e69" class="Rna " transform="translate(74 8)"  name="MIR4664" ><rect   width="66" height="25" style="stroke:#909"/><text   transform="translate(33,12.5)"     style="fill:#990099">MIR4664</text></g><g id="de866" class="Rna " transform="translate(74 33)"  name="MIR603" ><rect   width="66" height="25" style="stroke:#909"/><text   transform="translate(33,12.5)"     style="fill:#990099">MIR603</text></g></g></g><g id="da390" class="GroupGroup" transform="translate(27,310.5)"  ><g class="GroupGroup"><g id="ac3c9" class="Rna " transform="translate(8,8)"  name="MIR3149" ><rect   width="66" height="25" style="stroke:#909"/><text   transform="translate(33,12.5)"     style="fill:#990099">MIR3149</text></g><g id="be8db" class="Rna " transform="translate(8,33)"  name="MIR466" ><rect   width="66" height="25" style="stroke:#909"/><text   transform="translate(33,12.5)"     style="fill:#990099">MIR466</text></g><g id="c17ab" class="Rna " transform="translate(73,33)"  name="MIR603" ><rect   width="66" height="25" style="stroke:#909"/><text   transform="translate(33,12.5)"     style="fill:#990099">MIR603</text></g><g id="c0c56" class="Rna " transform="translate(73,8)"  name="MIR3664" ><rect   width="66" height="25" style="stroke:#909"/><text   transform="translate(33,12.5)"     style="fill:#990099">MIR3664</text></g></g></g><g id="a06c9" class="GroupGroup" transform="translate(72.93 401.5)"  ><g class="GroupGroup"><g id="c6628" class="Rna miRBase_mature_sequence_MIMAT0018165" transform="translate(8,33)"  name="MIR3714" ><rect   width="66" height="25" style="stroke:#909"/><text   transform="translate(33,12.5)"     style="fill:#990099">MIR3714</text></g><g id="ec3c0" class="Rna " transform="translate(8,8)"  name="MIR30D" ><rect   width="66" height="25" style="stroke:#909"/><text   transform="translate(33,12.5)"     style="fill:#990099">MIR30D</text></g><g id="e1851" class="Rna " transform="translate(73 33)"  name="MIR466" ><rect   width="66" height="25" style="stroke:#909"/><text   transform="translate(33,12.5)"     style="fill:#990099">MIR466</text></g><g id="e9278" class="Rna " transform="translate(73.16 8)"  name="MIR4311" ><rect   width="66" height="25" style="stroke:#909"/><text   transform="translate(33,12.5)"     style="fill:#990099">MIR4311</text></g></g></g><g id="f83d8" class="GroupGroup" transform="translate(120,545.5)"  ><g class="GroupGroup"><g id="e6287" class="Rna " transform="translate(74,8)"  name="MIR337" ><rect   width="66" height="25" style="stroke:#909"/><text   transform="translate(33,12.5)"     style="fill:#990099">MIR337</text></g><g id="eab35" class="Rna " transform="translate(8,33)"  name="MIR30D" ><rect   width="66" height="25" style="stroke:#909"/><text   transform="translate(33,12.5)"     style="fill:#990099">MIR30D</text></g><g id="fd2cf" class="Rna miRBase_Sequence_MI0016883" transform="translate(74,33)"  name="MIR4517" ><rect   width="66" height="25" style="stroke:#909"/><text   transform="translate(33,12.5)"     style="fill:#990099">MIR4517</text></g></g></g><g id="cb5bc" class="GeneProduct " transform="translate(396,269.5)"  name="PIK3CA" ><rect   width="65" height="25"/><text   transform="translate(32.5,12.5)"    >PIK3CA</text></g><g id="cf3a0" class="GeneProduct " transform="translate(396,331.5)"  name="GRB2" ><rect   width="65" height="25"/><text   transform="translate(32.5,12.5)"    >GRB2</text></g><g id="e3926" class="GeneProduct " transform="translate(396,422.5)"  name="SOS1" ><rect   width="65" height="25"/><text   transform="translate(32.5,12.5)"    >SOS1</text></g><g id="f00d9" class="GeneProduct " transform="translate(396,485.5)"  name="KRAS" ><rect   width="65" height="25"/><text   transform="translate(32.5,12.5)"    >KRAS</text></g><g id="bfd7e" class="GeneProduct " transform="translate(518,486.5)"  name="RAF1" ><rect   width="65" height="25"/><g id="b544a" class="State Burr" transform="translate(57.5,-7.5)"  name="P" ><g class="State Burr"><use class="State Burr Node Icon" width="15" height="15" fill="#fff" stroke="#000" href="#Ellipse"/></g><g ><defs><clipPath ><rect x="-7.5" y="-7.5" width="15" height="15" style="stroke:none"/></clipPath></defs><text   transform="translate(7.5,7.5)"  font-family="arial" overflow="visible" style="font-size:10px">P</text></g></g><text   transform="translate(32.5,12.5)"    >RAF1</text></g><g id="cc51b" class="GeneProduct " transform="translate(628.31 557.5)"  name="MAPK1" ><rect   width="65" height="25"/><g id="b2432" class="State Burr" transform="translate(57.5,-6.5)"  name="P" ><g class="State Burr"><use class="State Burr Node Icon" width="15" height="15" fill="#fff" stroke="#000" href="#Ellipse"/></g><g ><defs><clipPath ><rect x="-7.5" y="-7.5" width="15" height="15" style="stroke:none"/></clipPath></defs><text   transform="translate(7.5,7.5)"  font-family="arial" overflow="visible" style="font-size:10px">P</text></g></g><text   transform="translate(32.5,12.5)"    >MAPK1</text></g><g id="ac4ce" class="GeneProduct " transform="translate(602,269.5)"  name="AKT3" ><rect   width="65" height="25"/><text   transform="translate(32.5,12.5)"    >AKT3</text></g><g id="b49d8" class="GeneProduct " transform="translate(737,91.5)"  name="CASP9" ><rect   width="65" height="25"/><g id="d7581" class="State Burr" transform="translate(57.5,-4.5)"  name="P" ><g class="State Burr"><use class="State Burr Node Icon" width="15" height="15" fill="#fff" stroke="#000" href="#Ellipse"/></g><g ><defs><clipPath ><rect x="-7.5" y="-7.5" width="15" height="15" style="stroke:none"/></clipPath></defs><text   transform="translate(7.5,7.5)"  font-family="arial" overflow="visible" style="font-size:10px">P</text></g></g><text   transform="translate(32.5,12.5)"    >CASP9</text></g><g id="a90d0" class="GeneProduct " transform="translate(737,128.5)"  name="BAD" ><rect   width="65" height="25"/><text   transform="translate(32.5,12.5)"    >BAD</text></g><g id="ee5b0" class="GeneProduct " transform="translate(737,164.5)"  name="FOXO1" ><rect   width="65" height="25"/><g id="ac536" class="State Burr" transform="translate(57.5,-7.5)"  name="P" ><g class="State Burr"><use class="State Burr Node Icon" width="15" height="15" fill="#fff" stroke="#000" href="#Ellipse"/></g><g ><defs><clipPath ><rect x="-7.5" y="-7.5" width="15" height="15" style="stroke:none"/></clipPath></defs><text   transform="translate(7.5,7.5)"  font-family="arial" overflow="visible" style="font-size:10px">P</text></g></g><text   transform="translate(32.5,12.5)"    >FOXO1</text></g><g id="ab006" class="GroupGroup" transform="translate(729,199.5)"  ><g class="GroupGroup"><g id="c6ac4" class="GeneProduct " transform="translate(8,8)"  name="CDKN1A" ><rect   width="65" height="25"/><g id="b8d08" class="State Burr" transform="translate(23.5 -6.5)"  name="P" ><g class="State Burr"><use class="State Burr Node Icon" width="15" height="15" fill="#fff" stroke="#000" href="#Ellipse"/></g><g ><defs><clipPath ><rect x="-7.5" y="-7.5" width="15" height="15" style="stroke:none"/></clipPath></defs><text   transform="translate(7.5,7.5)"  font-family="arial" overflow="visible" style="font-size:10px">P</text></g></g><text   transform="translate(32.5,12.5)"    >CDKN1A</text></g><g id="ecebd" class="GeneProduct " transform="translate(8,40)"  name="CDKN1B" ><rect   width="65" height="25"/><g id="e75e6" class="State Burr" transform="translate(23.5 -6.5)"  name="P" ><g class="State Burr"><use class="State Burr Node Icon" width="15" height="15" fill="#fff" stroke="#000" href="#Ellipse"/></g><g ><defs><clipPath ><rect x="-7.5" y="-7.5" width="15" height="15" style="stroke:none"/></clipPath></defs><text   transform="translate(7.5,7.5)"  font-family="arial" overflow="visible" style="font-size:10px">P</text></g></g><text   transform="translate(32.5,12.5)"    >CDKN1B</text></g></g></g><g id="a95a6" class="GeneProduct " transform="translate(738,272.5)"  name="MDM2" ><rect   width="65" height="25"/><g id="f5be2" class="State Burr" transform="translate(57.5,-5.5)"  name="P" ><g class="State Burr"><use class="State Burr Node Icon" width="15" height="15" fill="#fff" stroke="#000" href="#Ellipse"/></g><g ><defs><clipPath ><rect x="-7.5" y="-7.5" width="15" height="15" style="stroke:none"/></clipPath></defs><text   transform="translate(7.5,7.5)"  font-family="arial" overflow="visible" style="font-size:10px">P</text></g></g><text   transform="translate(32.5,12.5)"    >MDM2</text></g><g id="ff34a" class="GeneProduct " transform="translate(739,323.5)"  name="GSK3B" ><rect   width="65" height="25"/><g id="c4fff" class="State Burr" transform="translate(57.5,-2.5)"  name="P" ><g class="State Burr"><use class="State Burr Node Icon" width="15" height="15" fill="#fff" stroke="#000" href="#Ellipse"/></g><g ><defs><clipPath ><rect x="-7.5" y="-7.5" width="15" height="15" style="stroke:none"/></clipPath></defs><text   transform="translate(7.5,7.5)"  font-family="arial" overflow="visible" style="font-size:10px">P</text></g></g><text   transform="translate(32.5,12.5)"    >GSK3B</text></g><g id="e6491" class="GeneProduct " transform="translate(738,399.5)"  name="IKBKG" ><rect   width="65" height="25"/><g id="f2df3" class="State Burr" transform="translate(57.5,-2.5)"  name="P" ><g class="State Burr"><use class="State Burr Node Icon" width="15" height="15" fill="#fff" stroke="#000" href="#Ellipse"/></g><g ><defs><clipPath ><rect x="-7.5" y="-7.5" width="15" height="15" style="stroke:none"/></clipPath></defs><text   transform="translate(7.5,7.5)"  font-family="arial" overflow="visible" style="font-size:10px">P</text></g></g><text   transform="translate(32.5,12.5)"    >IKBKG</text></g><g id="ac9f8" class="GeneProduct " transform="translate(737,486.5)"  name="MTOR" ><rect   width="65" height="25"/><g id="d4ffd" class="State Burr" transform="translate(57.5,-5.5)"  name="P" ><g class="State Burr"><use class="State Burr Node Icon" width="15" height="15" fill="#fff" stroke="#000" href="#Ellipse"/></g><g ><defs><clipPath ><rect x="-7.5" y="-7.5" width="15" height="15" style="stroke:none"/></clipPath></defs><text   transform="translate(7.5,7.5)"  font-family="arial" overflow="visible" style="font-size:10px">P</text></g></g><text   transform="translate(32.5,12.5)"    >MTOR</text></g><g id="ea116" class="Label" transform="translate(868,220.5)"  name="Cell cycle progression" ><g class="Label"/><text   transform="translate(43,15.75)"    font-weight="bold" ><tspan   x="0" y="-6.60">Cell cycle</tspan><tspan   x="0" y="6.60">progression</tspan></text></g><g id="bd49b" class="GeneProduct " transform="translate(863,293.5)"  name="CREB3L1" ><rect   width="65" height="25"/><g id="f95b9" class="State Burr" transform="translate(57.5,-7.5)"  name="P" ><g class="State Burr"><use class="State Burr Node Icon" width="15" height="15" fill="#fff" stroke="#000" href="#Ellipse"/></g><g ><defs><clipPath ><rect x="-7.5" y="-7.5" width="15" height="15" style="stroke:none"/></clipPath></defs><text   transform="translate(7.5,7.5)"  font-family="arial" overflow="visible" style="font-size:10px">P</text></g></g><text   transform="translate(32.5,12.5)"    >CREB3L1</text></g><g id="fa9e4" class="GeneProduct " transform="translate(863,346.5)"  name="CTNNB1" ><rect   width="65" height="25"/><g id="c4e06" class="State Burr" transform="translate(57.5,-7.5)"  name="P" ><g class="State Burr"><use class="State Burr Node Icon" width="15" height="15" fill="#fff" stroke="#000" href="#Ellipse"/></g><g ><defs><clipPath ><rect x="-7.5" y="-7.5" width="15" height="15" style="stroke:none"/></clipPath></defs><text   transform="translate(7.5,7.5)"  font-family="arial" overflow="visible" style="font-size:10px">P</text></g></g><text   transform="translate(32.5,12.5)"    >CTNNB1</text></g><g id="c271a" class="Edge"  ><path    d="m804 336 59 23" style="marker-end:url(#meminhibition000)"/></g><g id="f192c" class="Label" transform="translate(1090,588.5)"  name="Other target  events" ><g class="Label"/><text   transform="translate(42,12.5)"    font-weight="bold" ><tspan   x="0" y="-6.60">Other target </tspan><tspan   x="0" y="6.60">events</tspan></text></g><g id="b5a44" class="Label" transform="translate(856,486.5)"  name="Tumor  growth" ><g class="Label"/><text   transform="translate(33,12.5)"    font-weight="bold" ><tspan   x="0" y="-6.60">Tumor </tspan><tspan   x="0" y="6.60">growth</tspan></text></g><g id="d4540" class="Metabolite " transform="translate(1014,440.5)"  name="DNA" ><rect   width="55" height="25" style="stroke:#00f"/><text   transform="translate(27.5,12.5)"     style="fill:#00f">DNA</text></g><g id="dab91" class="Edge"  ><path    d="m1162 453h38" stroke-dasharray="5,3"/></g><g id="c401b" class="Edge"  ><path    d="m1262 359h25" stroke-dasharray="5,3"/></g><g id="bb113" class="Label" transform="translate(1200,440.5)"  name="Cell survival" ><g class="Label"/><text   transform="translate(42,12.5)"    font-weight="bold" >Cell survival</text></g><g id="c9d59" class="GeneProduct " transform="translate(1014.5,346.5)"  name="TCF7" ><rect   width="53" height="25"/><text   transform="translate(26.5,12.5)"    >TCF7</text></g><g id="d57d1" class="Edge"  ><path    d="m928 306h80" style="marker-end:url(#meminhibition000)"/></g><g id="ed2c8" class="Metabolite " transform="translate(1112,346.5)"  name="DNA" ><rect   width="55" height="25" style="stroke:#00f"/><text   transform="translate(27.5,12.5)"     style="fill:#00f">DNA</text></g><g id="a026b" class="Label" transform="translate(1287,346.5)"  name="Cell proliferation" ><g class="Label"/><text   transform="translate(51.5,12.5)"    font-weight="bold" >Cell proliferation</text></g><g id="d08fa" class="Metabolite " transform="translate(1205,293.5)"  name="DNA" ><rect   width="55" height="25" style="stroke:#00f"/><text   transform="translate(27.5,12.5)"     style="fill:#00f">DNA</text></g><g id="d4d4b" class="Edge"  ><path    d="m1174 306h31" style="stroke:#f00;marker-end:url(#meaf00)"/></g><g id="b09ee" class="Label" transform="translate(1288,281.5)"  name="Impaired G1 and G2 arrest Reduced apoptosis Genomic instabillity" ><g class="Label"/><text   transform="translate(79.5,24.75)"    font-weight="bold" ><tspan   x="0" y="-13.20">Impaired G1 and G2 arrest</tspan><tspan   x="0" y="0">Reduced apoptosis</tspan><tspan   x="0" y="13.20">Genomic instabillity</tspan></text></g><g id="adaae" class="Edge"  ><path    d="m1260 306 28 0.25" stroke-dasharray="5,3"/></g><g id="a7f3b" class="Label" transform="translate(1106,219.5)"  name="p53 signaling pathway" ><rect   width="90" height="31.5" rx="15" ry="15" stroke-width="2"/><text   transform="translate(45,15.75)"    font-weight="bold" ><tspan   x="0" y="-6.60">p53 signaling</tspan><tspan   x="0" y="6.60">pathway</tspan></text></g><g id="f9388" class="Label" transform="translate(852,92.5)"  name="Apoptosis" ><rect   width="90" height="25" rx="15" ry="15" stroke-width="2"/><text   transform="translate(45,12.5)"    font-weight="bold" >Apoptosis</text></g><g id="a04dd" class="Label" transform="translate(482,203)"  name="PI3K-Akt signaling pathway" ><rect   width="111" height="33.5" rx="15" ry="15" stroke-width="2"/><text   transform="translate(55.5,16.75)"    font-weight="bold" ><tspan   x="0" y="-6.60">PI3K-Akt</tspan><tspan   x="0" y="6.60">signaling pathway</tspan></text></g><g id="b0424" class="Label" transform="translate(498,422)"  name="MAPK signaling pathway" ><rect   width="111" height="33.5" rx="15" ry="15" stroke-width="2"/><text   transform="translate(55.5,16.75)"    font-weight="bold" ><tspan   x="0" y="-6.60">MAPK</tspan><tspan   x="0" y="6.60">signaling pathway</tspan></text></g><g id="c82c6" class="Label" transform="translate(10.78 264.37)"  name="Cytokine-Cytokine receptor interaction" ><rect   width="121" height="33.5" rx="15" ry="15" stroke-width="2"/><text   transform="translate(60.5,16.75)"    font-weight="bold" ><tspan   x="0" y="-6.60">Cytokine-Cytokine</tspan><tspan   x="0" y="6.60">receptor interaction</tspan></text></g></g></g></g></svg>