<?xml version="1.0" encoding="UTF-8"?>
<svg xmlns="http://www.w3.org/2000/svg" id="-svg" class="Diagram"  baseProfile="full" prefix="schema:http://schema.org/" preserveAspectRatio="xMidYMid"  version="1.1"><defs><g id="icon-defs"><symbol id="HexagonPathVisio" class=" Icon HexagonPathVisio" x="0" y="8" overflow="visible" preserveAspectRatio="none" viewBox="0 8 100 86"><desc>HexagonPathVisio</desc><g transform="scale(1 0.85)"><path d="m1.42 51.00 21.07-42.14h56.19l21.07 42.14-21.07 42.15h-56.19l-21.07-42.15z" stroke="currentColor" vector-effect="non-scaling-stroke"/></g></symbol><symbol id="Octagon" class=" Icon Octagon" x="0" y="0" overflow="visible" preserveAspectRatio="none" viewBox="0 0 100 100"><desc>Octagon</desc><path d="m0 25 25-25h50l25 25v50l-25 25h-50l-25-25z" vector-effect="non-scaling-stroke"/></symbol></g><g id="marker-defs"><marker id="mea" markerHeight="12" markerWidth="12" orient="auto" preserveAspectRatio="none" refX="12" refY="6" viewBox="0 0 12 12"><g id="g-mea" transform=""><g transform="rotate(180 6 6)"><rect y="5.4" width="2" height="1.2" style="stroke:#fff"/><polygon points="12 11 0 6 12 1" stroke-width="0"/></g></g></marker></g></defs><g id="viewport-20220102143050005" class="svg-pan-zoom_viewport" transform="matrix(0.49 0 0 0.49 317.15 0)" style="transform:matrix(0.49, 0, 0, 0.49, 317.15, 0)"><style>svg.Diagram {font-family: 'Liberation Sans', Arial, sans-serif; }.Diagram path {fill: transparent;stroke: #000;marker-end: url(#mea);}.Diagram symbol path {fill: inherit;stroke: inherit;stroke-width: inherit;marker-end: inherit;}.Diagram rect {fill: #fff;stroke: #000;}.Diagram text {dominant-baseline: central;overflow: hidden;text-anchor: middle;fill: #000;font-size: 10px;}</style><style type="text/css">.Viewport .textContent {
  pointer-events: none;
  stroke-width: 0px;
}

					.Viewport.Icon {
  fill: white;
}

/* Hide the InfoBox */
.Viewport.textContent {
  font-size: 0;
}

.textContent {
  stroke: none;
}

.DataNode {
  stroke-miterlimit: 1;
  pointer-events: auto;
}

.DataNode:hover {
  cursor: pointer;
}

/* TODO should this apply to things other than DataNodes? */
.DataNode.textContent {
  pointer-events: none;
}

.DataNode.Highlighted {
  opacity: 0.6;
  stroke-width: 0px;
}

marker {
  /* this is what should work per the spec
  stroke-dasharray: none; */
  /* but I need to add this to make it work in Safari */
  stroke-dasharray: 9999999999999999999999999;
}

.Citation.Icon {
  fill: none;
  stroke-width: 0px;
}

.Citation.textContent {
  text-align: center;
  vertical-align: top;
  font-size: 7px;
  fill: #999;
  fill-opacity: 1;
  stroke: none;
}</style><g id="WP4091" class="Pathway Viewport"  name="Name: Butyrophilin (BTN) family interactions Organism: Homo sapiens" ><g class="Pathway Viewport"><rect   width="1152" height="1454" style="stroke:none"/><g id="a383b" class="Reactome_R-HSA-8938431"  ><path    d="m514 528h53" style="marker-end:none"/><g id="e2f97" class="AB" transform="translate(514,528)"  ><g class="AB"/></g><g id="bf070" class="AB" transform="translate(566.47,528)"  ><g class="AB"/></g></g><g id="b74bd" class="Reactome_R-HSA-8938431"  ><path    d="m480 530 34-2" style="marker-end:none"/></g><g id="ba974" class="Reactome_R-HSA-8938431"  ><path    d="m492 496 22 32" style="marker-end:none"/></g><g id="c233b" class="Reactome_R-HSA-8851018"  ><path    d="m157 208h65" style="marker-end:none"/><g id="e4f99" class="AB" transform="translate(157,208)"  ><g class="AB"/></g><g id="dd715" class="AB" transform="translate(221.35,208)"  ><g class="AB"/></g></g><g id="ae635" class="Reactome_R-HSA-8851018"  ><path    d="m113 208h44" style="marker-end:none"/></g><g id="c6e5d" class="Reactome_R-HSA-8852013"  ><path    d="m760 358h62" style="marker-end:none"/><g id="d9000" class="AB" transform="translate(760,358)"  ><g class="AB"/></g><g id="a749b" class="AB" transform="translate(821.38,358)"  ><g class="AB"/></g></g><g id="b4b98" class="Reactome_R-HSA-8852013"  ><path    d="m730 359 30-1" style="marker-end:none"/></g><g id="bac01" class="Reactome_R-HSA-8852013"  ><path    d="m822 358 3 2"/></g><g id="cb3a8" class="Reactome_R-HSA-8852010"  ><path    d="m449 359h64" style="marker-end:none"/><g id="c7b86" class="AB" transform="translate(449,359)"  ><g class="AB"/></g><g id="ed92e" class="AB" transform="translate(512.36,359)"  ><g class="AB"/></g></g><g id="aedcf" class="Reactome_R-HSA-8852010"  ><path    d="m513 359 3 2"/></g><g id="d017c" class="Reactome_R-HSA-8938431"  ><path    d="m567 528h3"/></g><g id="d7ead" class="Reactome_R-HSA-8851979"  ><path    d="m1059 364v-88" style="marker-end:none"/><g id="cbab3" class="AB" transform="translate(1059,364)"  ><g class="AB"/></g><g id="ae367" class="AB" transform="translate(1059,276.88)"  ><g class="AB"/></g></g><g id="b4264" class="Reactome_R-HSA-8851979"  ><path    d="m1064 441-5-77" style="marker-end:none"/></g><g id="d6784" class="Reactome_R-HSA-8851979"  ><path    d="m1034 364h25" style="marker-end:none"/></g><g id="da072" class="Reactome_R-HSA-8852010"  ><path    d="m351 436 98-77" style="marker-end:none"/></g><g id="dd825" class="Reactome_R-HSA-8852013"  ><path    d="m747 418 13-60" style="marker-end:none"/></g><g id="e34b1" class="Reactome_R-HSA-8851018"  ><path    d="m222 208 3 2"/></g><g id="e7925" class="Reactome_R-HSA-8852010"  ><path    d="m411 359h38" style="marker-end:none"/></g><g id="ebeeb" class="Reactome_R-HSA-8851979"  ><path    d="m1059 276 1-3"/></g><g id="efded" class="Reactome_R-HSA-8851988"  ><path    d="m142 361h61" style="marker-end:none"/><g id="e4d1c" class="AB" transform="translate(142,361)"  ><g class="AB"/></g><g id="fd351" class="AB" transform="translate(202.39,361)"  ><g class="AB"/></g></g><g id="a366d" class="Reactome_R-HSA-8851988"  ><path    d="m108 361h34" style="marker-end:none"/></g><g id="de5f1" class="Reactome_R-HSA-8851988"  ><path    d="m249 436-107-75" style="marker-end:none"/></g><g id="f22d4" class="Reactome_R-HSA-8851044"  ><path    d="m771 207h55" style="marker-end:none"/><g id="c57d1" class="AB" transform="translate(771,207)"  ><g class="AB"/></g><g id="d8ebd" class="AB" transform="translate(825.45 207)"  ><g class="AB"/></g></g><g id="a3dac" class="Reactome_R-HSA-8851044"  ><path    d="m739 291 32-84" style="marker-end:none"/></g><g id="f04eb" class="Reactome_R-HSA-8851044"  ><path    d="m826 207 3 2"/></g><g id="f430e" class="Reactome_R-HSA-8851988"  ><path    d="m203 361h3"/></g><g id="f5ef5" class="Reactome_R-HSA-8851044"  ><path    d="m743 207h28" style="marker-end:none"/></g><g id="fa09a" class="Reactome_R-HSA-8851018"  ><path    d="m132 129 25 79" style="marker-end:none"/></g><g id="fb81b" class="Reactome_R-HSA-8851038"  ><path    d="m489 209h66" style="marker-end:none"/><g id="c9664" class="AB" transform="translate(489,209)"  ><g class="AB"/></g><g id="b4f61" class="AB" transform="translate(554.34,209)"  ><g class="AB"/></g></g><g id="d71a8" class="Reactome_R-HSA-8851038"  ><path    d="m447 209h42" style="marker-end:none"/></g><g id="e1362" class="Reactome_R-HSA-8851038"  ><path    d="m555 209h3"/></g><g id="fbd21" class="Reactome_R-HSA-8851038"  ><path    d="m472 153 17 56" style="marker-end:none"/></g><g id="cd1df" class="GroupGroup" transform="translate(23,194)"  ><g class="GroupGroup"><g id="f4634" class="" transform="translate(8,8)"  ><g class=""><rect   transform="matrix(1.00 0 0 0.98 1.50 1.47)" width="1033" height="163" rx="15" ry="15" stroke-width="3" style="fill:transparent;stroke:#c0c0c0"/></g></g><g id="fa9f0" class="Label" transform="translate(386,64)"  name="cytosol" ><g class="Label"/><text   transform="translate(32,16.5)"    >cytosol</text></g></g></g><g id="d31c7" class="GroupGroup" transform="translate(21,6)"  ><g class="GroupGroup"><g id="e2345" class="" transform="translate(8,8)"  ><g class=""><rect   transform="matrix(0.99 0 0 0.97 1.48 1.46)" width="229" height="110" rx="15" ry="15" stroke-width="3" style="fill:transparent;stroke:#c0c0c0"/></g></g><g id="de082" class="Label" transform="translate(93,46)"  name="cytosol" ><g class="Label"/><text   transform="translate(32,16.5)"    >cytosol</text></g></g></g><g id="e8f60" class="GroupGroup" transform="translate(40,426)"  ><g class="GroupGroup"><g id="b84d0" class="" transform="translate(8,8)"  ><g class=""><rect   transform="matrix(1.00 0 0 0.97 1.50 1.46)" width="1024" height="98" rx="15" ry="15" stroke-width="3" style="fill:transparent;stroke:#c0c0c0"/></g></g><g id="fa653" class="Label" transform="translate(490,40)"  name="cytosol" ><g class="Label"/><text   transform="translate(32,16.5)"    >cytosol</text></g></g></g><g id="a02cf" class="Protein" transform="translate(684,348)"  name="BTNL8" ><rect   width="47" height="22"/><text   transform="translate(23.5,11)"    >BTNL8</text></g><g id="a38b4" class="Complex Reactome_R-HSA-8851983" transform="translate(825,342)"  name="BTNL8: resting T cell surface" ><g class="Complex Reactome_R-HSA-8851983"><use class="Complex Reactome_R-HSA-8851983 Node Icon" width="133" height="36" fill="#fff" stroke="#a52a2a" href="#HexagonPathVisio"/></g><g ><defs><clipPath ><rect x="-66.5" y="-18" width="133" height="36" style="stroke:none"/></clipPath></defs><text   transform="translate(66.5,18)"     style="fill:#a52a2a"><tspan   x="0" y="-5.5">BTNL8: resting T</tspan><tspan   x="0" y="5.5">cell surface</tspan></text></g></g><g id="a68e3" class="Protein" transform="translate(107,107)"  name="CD209" ><rect   width="50" height="22"/><text   transform="translate(25,11)"    >CD209</text></g><g id="afe51" class="Protein" transform="translate(722,291)"  name="XDH" ><rect   width="35" height="22"/><text   transform="translate(17.5,11)"    >XDH</text></g><g id="b88fc" class="Unknown Reactome_R-ALL-8851976" transform="translate(701,418)"  name="Resting T Cell surface" ><rect   width="92" height="36"/><text   transform="translate(46,18)"    ><tspan   x="0" y="-5.5">Resting T Cell</tspan><tspan   x="0" y="5.5">surface</tspan></text></g><g id="b8c6b" class="Complex Reactome_R-HSA-8851051" transform="translate(225,192)"  name="BTN2A1:CD209" ><g class="Complex Reactome_R-HSA-8851051"><use class="Complex Reactome_R-HSA-8851051 Node Icon" width="81" height="36" fill="#fff" stroke="#a52a2a" href="#HexagonPathVisio"/></g><g ><defs><clipPath ><rect x="-40.5" y="-18" width="81" height="36" style="stroke:none"/></clipPath></defs><text   transform="translate(40.5,18)"     style="fill:#a52a2a">BTN2A1:CD209</text></g></g><g id="b8cc1" class="Protein" transform="translate(52,350)"  name="BTN2A2" ><rect   width="57" height="22"/><text   transform="translate(28.5,11)"    >BTN2A2</text></g><g id="b91e3" class="Protein" transform="translate(365,348)"  name="BTNL2" ><rect   width="47" height="22"/><text   transform="translate(23.5,11)"    >BTNL2</text></g><g id="b94ab" class="Complex Reactome_R-HSA-8938432" transform="translate(372,519)"  name="BTN3A1,BTN1A1" ><g class="Complex Reactome_R-HSA-8938432"><rect   width="109" height="22" rx="15" ry="15" style="stroke:#a52a2a"/></g><g ><defs><clipPath ><rect x="-54.5" y="-11" width="109" height="22" style="stroke:none"/></clipPath></defs><text   transform="translate(54.5,11)"     style="fill:#a52a2a">BTN3A1,BTN1A1</text></g></g><g id="bd3d5" class="Protein" transform="translate(478,474)"  name="PPL" ><rect   width="29" height="22"/><text   transform="translate(14.5,11)"    >PPL</text></g><g id="c4849" class="Complex Reactome_R-HSA-8851039" transform="translate(558,191)"  name="BTN3A1(BTN3A2,BTN3A3):pAgs" ><g class="Complex Reactome_R-HSA-8851039"><use class="Complex Reactome_R-HSA-8851039 Node Icon" width="113" height="36" fill="#fff" stroke="#a52a2a" href="#HexagonPathVisio"/></g><g ><defs><clipPath ><rect x="-56.5" y="-18" width="113" height="36" style="stroke:none"/></clipPath></defs><text   transform="translate(56.5,18)"     style="fill:#a52a2a">BTN3A1(BTN3A2,BTN3A3):pAgs</text></g></g><g id="cdeb5" class="Complex Reactome_R-HSA-8851977" transform="translate(516,343)"  name="BTNL2: activated T Cell surface" ><g class="Complex Reactome_R-HSA-8851977"><use class="Complex Reactome_R-HSA-8851977 Node Icon" width="123" height="36" fill="#fff" stroke="#a52a2a" href="#HexagonPathVisio"/></g><g ><defs><clipPath ><rect x="-61.5" y="-18" width="123" height="36" style="stroke:none"/></clipPath></defs><text   transform="translate(61.5,18)"     style="fill:#a52a2a"><tspan   x="0" y="-5.5">BTNL2: activated T</tspan><tspan   x="0" y="5.5">Cell surface</tspan></text></g></g><g id="cf28a" class="Unknown Reactome_R-ALL-8851032" transform="translate(417,117)"  name="phosphoantigens (pAgs)" ><rect   width="111" height="36"/><text   transform="translate(55.5,18)"    ><tspan   x="0" y="-5.5">phosphoantigens</tspan><tspan   x="0" y="5.5">(pAgs)</tspan></text></g><g id="d3259" class="Protein" transform="translate(988,353)"  name="BTNL9" ><rect   width="47" height="22"/><text   transform="translate(23.5,11)"    >BTNL9</text></g><g id="d4593" class="Protein" transform="translate(57,197)"  name="BTN2A1" ><rect   width="57" height="22"/><text   transform="translate(28.5,11)"    >BTN2A1</text></g><g id="d825a" class="Unknown Reactome_R-ALL-8851998" transform="translate(938,430)"  name="Immune Cell surface" ><rect   width="126" height="22"/><text   transform="translate(63,11)"    >Immune Cell surface</text></g><g id="e68e8" class="Complex Reactome_R-HSA-8851053" transform="translate(829,198)"  name="BTN1A1:XDH" ><g class="Complex Reactome_R-HSA-8851053"><use class="Complex Reactome_R-HSA-8851053 Node Icon" width="87" height="22" fill="#fff" stroke="#a52a2a" href="#HexagonPathVisio"/></g><g ><defs><clipPath ><rect x="-43.5" y="-11" width="87" height="22" style="stroke:none"/></clipPath></defs><text   transform="translate(43.5,11)"     style="fill:#a52a2a">BTN1A1:XDH</text></g></g><g id="ea995" class="Complex Reactome_R-HSA-8851035" transform="translate(335,191)"  name="BTN3A1(BTN3A2,BTN3A3)" ><g class="Complex Reactome_R-HSA-8851035"><rect   width="113" height="36" rx="15" ry="15" style="stroke:#a52a2a"/></g><g ><defs><clipPath ><rect x="-56.5" y="-18" width="113" height="36" style="stroke:none"/></clipPath></defs><text   transform="translate(56.5,18)"     style="fill:#a52a2a">BTN3A1(BTN3A2,BTN3A3)</text></g></g><g id="ec9fd" class="Protein" transform="translate(687,196)"  name="BTN1A1" ><rect   width="57" height="22"/><text   transform="translate(28.5,11)"    >BTN1A1</text></g><g id="ee2fa" class="Complex Reactome_R-HSA-8851986" transform="translate(998,237)"  name="BTNL9:Immune cell surface" ><g class="Complex Reactome_R-HSA-8851986"><use class="Complex Reactome_R-HSA-8851986 Node Icon" width="124" height="36" fill="#fff" stroke="#a52a2a" href="#HexagonPathVisio"/></g><g ><defs><clipPath ><rect x="-62" y="-18" width="124" height="36" style="stroke:none"/></clipPath></defs><text   transform="translate(62,18)"     style="fill:#a52a2a"><tspan   x="0" y="-5.5">BTNL9:Immune cell</tspan><tspan   x="0" y="5.5">surface</tspan></text></g></g><g id="efa20" class="Complex Reactome_R-HSA-8938411" transform="translate(570,510)"  name="BTN3A1,BTN1A1:PPL" ><g class="Complex Reactome_R-HSA-8938411"><use class="Complex Reactome_R-HSA-8938411 Node Icon" width="113" height="36" fill="#fff" stroke="#a52a2a" href="#HexagonPathVisio"/></g><g ><defs><clipPath ><rect x="-56.5" y="-18" width="113" height="36" style="stroke:none"/></clipPath></defs><text   transform="translate(56.5,18)"     style="fill:#a52a2a">BTN3A1,BTN1A1:PPL</text></g></g><g id="f5306" class="Complex Reactome_R-HSA-8851970" transform="translate(206,343)"  name="BTN2A2:activated T Cell surface" ><g class="Complex Reactome_R-HSA-8851970"><use class="Complex Reactome_R-HSA-8851970 Node Icon" width="129" height="36" fill="#fff" stroke="#a52a2a" href="#HexagonPathVisio"/></g><g ><defs><clipPath ><rect x="-64.5" y="-18" width="129" height="36" style="stroke:none"/></clipPath></defs><text   transform="translate(64.5,18)"     style="fill:#a52a2a"><tspan   x="0" y="-5.5">BTN2A2:activated T</tspan><tspan   x="0" y="5.5">Cell surface</tspan></text></g></g><g id="fc518" class="Unknown Reactome_R-ALL-8851965" transform="translate(249,418)"  name="Activated T Cell surface" ><rect   width="103" height="36"/><text   transform="translate(51.5,18)"    ><tspan   x="0" y="-5.5">Activated T Cell</tspan><tspan   x="0" y="5.5">surface</tspan></text></g><g id="a6d73" class="GroupComplex" transform="translate(38,1092)"  ><g class="GroupComplex"><use class="Icon" width="124" height="94" fill="#b4b464" fill-opacity=".1" stroke="grey" href="#Octagon"/><g id="b3e66" class="Protein" transform="translate(12,12)"  name="BTNL2" ><rect   width="100" height="20"/><text   transform="translate(50,10)"    >BTNL2</text></g><g id="f8d28" class="Unknown Reactome_R-ALL-8851965" transform="translate(12,42)"  name="Activated T Cell surface" ><rect   width="100" height="40"/><text   transform="translate(50,20)"    >Activated T Cell surface</text></g></g></g><g id="a8d1e" class="GroupComplex" transform="translate(178,592)"  ><g class="GroupComplex"><use class="Icon" width="124" height="84" fill="#b4b464" fill-opacity=".1" stroke="grey" href="#Octagon"/><g id="a55c7" class="Protein" transform="translate(12,12)"  name="BTN1A1" ><rect   width="100" height="20"/><text   transform="translate(50,10)"    >BTN1A1</text></g><g id="cd575" class="Protein" transform="translate(12,52)"  name="PPL" ><rect   width="100" height="20"/><text   transform="translate(50,10)"    >PPL</text></g><g id="e374e" class="Protein" transform="translate(12,32)"  name="BTN3A1" ><rect   width="100" height="20"/><text   transform="translate(50,10)"    >BTN3A1</text></g></g></g><g id="b009e" class="GroupNone" transform="translate(41,595)"  ><g class="GroupNone"><rect   width="118" height="78" fill-opacity=".1" stroke-dasharray="5,3" style="fill:#b4b464;stroke:grey"/><g id="c898a" class="Protein" transform="translate(9,9)"  name="BTN3A2" ><rect   width="100" height="20"/><text   transform="translate(50,10)"    >BTN3A2</text></g><g id="d1103" class="Protein" transform="translate(9,49)"  name="BTN3A1" ><rect   width="100" height="20"/><text   transform="translate(50,10)"    >BTN3A1</text></g><g id="ff0d7" class="Protein" transform="translate(9,29)"  name="BTN3A3" ><rect   width="100" height="20"/><text   transform="translate(50,10)"    >BTN3A3</text></g></g></g><g id="b83d5" class="GroupComplex" transform="translate(38,1192)"  ><g class="GroupComplex"><use class="Icon" width="124" height="94" fill="#b4b464" fill-opacity=".1" stroke="grey" href="#Octagon"/><g id="ad9d4" class="Unknown Reactome_R-ALL-8851976" transform="translate(12,42)"  name="Resting T Cell surface" ><rect   width="100" height="40"/><text   transform="translate(50,20)"    >Resting T Cell surface</text></g><g id="aea3d" class="Protein" transform="translate(12,12)"  name="BTNL8" ><rect   width="100" height="20"/><text   transform="translate(50,10)"    >BTNL8</text></g></g></g><g id="c37da" class="GroupComplex" transform="translate(38,782)"  ><g class="GroupComplex"><use class="Icon" width="124" height="114" fill="#b4b464" fill-opacity=".1" stroke="grey" href="#Octagon"/><g id="a7dc8" class="Protein" transform="translate(12,82)"  name="BTN3A1" ><rect   width="100" height="20"/><text   transform="translate(50,10)"    >BTN3A1</text></g><g id="c3042" class="Unknown Reactome_R-ALL-8851032" transform="translate(12,12)"  name="phosphoantigens (pAgs)" ><rect   width="100" height="40"/><text   transform="translate(50,20)"    >phosphoantigens (pAgs)</text></g><g id="dc625" class="Protein" transform="translate(12,62)"  name="BTN3A3" ><rect   width="100" height="20"/><text   transform="translate(50,10)"    >BTN3A3</text></g><g id="f9984" class="Protein" transform="translate(12,42)"  name="BTN3A2" ><rect   width="100" height="20"/><text   transform="translate(50,10)"    >BTN3A2</text></g></g></g><g id="c491a" class="GroupNone" transform="translate(41,1375)"  ><g class="GroupNone"><rect   width="118" height="58" fill-opacity=".1" stroke-dasharray="5,3" style="fill:#b4b464;stroke:grey"/><g id="d75c1" class="Protein" transform="translate(9,29)"  name="BTN3A1" ><rect   width="100" height="20"/><text   transform="translate(50,10)"    >BTN3A1</text></g><g id="edba0" class="Protein" transform="translate(9,9)"  name="BTN1A1" ><rect   width="100" height="20"/><text   transform="translate(50,10)"    >BTN1A1</text></g></g></g><g id="e4dd0" class="GroupComplex" transform="translate(38,992)"  ><g class="GroupComplex"><use class="Icon" width="124" height="94" fill="#b4b464" fill-opacity=".1" stroke="grey" href="#Octagon"/><g id="a3c6e" class="Unknown Reactome_R-ALL-8851965" transform="translate(12,42)"  name="Activated T Cell surface" ><rect   width="100" height="40"/><text   transform="translate(50,20)"    >Activated T Cell surface</text></g><g id="b68b9" class="Protein" transform="translate(12,12)"  name="BTN2A2" ><rect   width="100" height="20"/><text   transform="translate(50,10)"    >BTN2A2</text></g></g></g><g id="ebab9" class="GroupComplex" transform="translate(38,912)"  ><g class="GroupComplex"><use class="Icon" width="124" height="64" fill="#b4b464" fill-opacity=".1" stroke="grey" href="#Octagon"/><g id="d3c07" class="Protein" transform="translate(12,32)"  name="XDH" ><rect   width="100" height="20"/><text   transform="translate(50,10)"    >XDH</text></g><g id="e93b0" class="Protein" transform="translate(12,12)"  name="BTN1A1" ><rect   width="100" height="20"/><text   transform="translate(50,10)"    >BTN1A1</text></g></g></g><g id="f1cb7" class="GroupComplex" transform="translate(38,692)"  ><g class="GroupComplex"><use class="Icon" width="124" height="64" fill="#b4b464" fill-opacity=".1" stroke="grey" href="#Octagon"/><g id="e2652" class="Protein" transform="translate(12,32)"  name="BTN2A1" ><rect   width="100" height="20"/><text   transform="translate(50,10)"    >BTN2A1</text></g><g id="fa0d7" class="Protein" transform="translate(12,12)"  name="CD209" ><rect   width="100" height="20"/><text   transform="translate(50,10)"    >CD209</text></g></g></g><g id="f20ae" class="GroupComplex" transform="translate(38,1292)"  ><g class="GroupComplex"><use class="Icon" width="124" height="64" fill="#b4b464" fill-opacity=".1" stroke="grey" href="#Octagon"/><g id="eb6f2" class="Protein" transform="translate(12,12)"  name="BTNL9" ><rect   width="100" height="20"/><text   transform="translate(50,10)"    >BTNL9</text></g><g id="fe2a8" class="Unknown Reactome_R-ALL-8851998" transform="translate(12,32)"  name="Immune Cell surface" ><rect   width="100" height="20"/><text   transform="translate(50,10)"    >Immune Cell surface</text></g></g></g></g></g></g></svg>