<?xml version="1.0" encoding="UTF-8"?>
<svg xmlns="http://www.w3.org/2000/svg" id="-svg" class="Diagram"  baseProfile="full" prefix="schema:http://schema.org/" preserveAspectRatio="xMidYMid"  version="1.1"><defs><g id="icon-defs"><symbol id="HexagonPathVisio" class=" Icon HexagonPathVisio" x="0" y="8" overflow="visible" preserveAspectRatio="none" viewBox="0 8 100 86"><desc>HexagonPathVisio</desc><g transform="scale(1 0.85)"><path d="m1.42 51.00 21.07-42.14h56.19l21.07 42.14-21.07 42.15h-56.19l-21.07-42.15z" stroke="currentColor" vector-effect="non-scaling-stroke"/></g></symbol><symbol id="Octagon" class=" Icon Octagon" x="0" y="0" overflow="visible" preserveAspectRatio="none" viewBox="0 0 100 100"><desc>Octagon</desc><path d="m0 25 25-25h50l25 25v50l-25 25h-50l-25-25z" vector-effect="non-scaling-stroke"/></symbol></g><g id="marker-defs"><marker id="mea" markerHeight="12" markerWidth="12" orient="auto" preserveAspectRatio="none" refX="12" refY="6" viewBox="0 0 12 12"><g id="g-mea" transform=""><g transform="rotate(180 6 6)"><rect y="5.4" width="2" height="1.2" style="stroke:#fff"/><polygon points="12 11 0 6 12 1" stroke-width="0"/></g></g></marker></g></defs><g id="viewport-20220102142850123" class="svg-pan-zoom_viewport" transform="matrix(0.84 0 0 0.84 348.3 0)" style="transform:matrix(0.84, 0, 0, 0.84, 348.30, 0)"><style>svg.Diagram {font-family: 'Liberation Sans', Arial, sans-serif; }.Diagram path {fill: transparent;stroke: #000;marker-end: url(#mea);}.Diagram symbol path {fill: inherit;stroke: inherit;stroke-width: inherit;marker-end: inherit;}.Diagram rect {fill: #fff;stroke: #000;}.Diagram text {dominant-baseline: central;overflow: hidden;text-anchor: middle;fill: #000;font-size: 10px;}</style><style type="text/css">.Viewport .textContent {
  pointer-events: none;
  stroke-width: 0px;
}

					.Viewport.Icon {
  fill: white;
}

/* Hide the InfoBox */
.Viewport.textContent {
  font-size: 0;
}

.textContent {
  stroke: none;
}

.DataNode {
  stroke-miterlimit: 1;
  pointer-events: auto;
}

.DataNode:hover {
  cursor: pointer;
}

/* TODO should this apply to things other than DataNodes? */
.DataNode.textContent {
  pointer-events: none;
}

.DataNode.Highlighted {
  opacity: 0.6;
  stroke-width: 0px;
}

marker {
  /* this is what should work per the spec
  stroke-dasharray: none; */
  /* but I need to add this to make it work in Safari */
  stroke-dasharray: 9999999999999999999999999;
}

.Citation.Icon {
  fill: none;
  stroke-width: 0px;
}

.Citation.textContent {
  text-align: center;
  vertical-align: top;
  font-size: 7px;
  fill: #999;
  fill-opacity: 1;
  stroke: none;
}</style><g id="WP4038" class="Pathway Viewport"  name="Name: Transcription from mitochondrial promoters Organism: Homo sapiens" ><g class="Pathway Viewport"><rect   width="600" height="851" style="stroke:none"/><g id="a8980" class="Reactome_R-HSA-163296"  ><path    d="m188 239 3 60" style="marker-end:none"/><g id="e9bc0" class="AB" transform="translate(188,239)"  ><g class="AB"/></g><g id="d1e05" class="AB" transform="translate(190.97,298.4)"  ><g class="AB"/></g></g><g id="a266a" class="Reactome_R-HSA-163296"  ><path    d="m182 198 6 41" style="marker-end:none"/></g><g id="ab695" class="Reactome_R-HSA-163320"  ><path    d="m221 471v65" style="marker-end:none"/><g id="a89ff" class="AB" transform="translate(221,471)"  ><g class="AB"/></g><g id="e8403" class="AB" transform="translate(221 535.35)"  ><g class="AB"/></g></g><g id="ad078" class="Reactome_R-HSA-163320"  ><path    d="m187 433 34 38" style="marker-end:none"/></g><g id="adba8" class="Reactome_R-HSA-163310"  ><path    d="m263 129 2 52" style="marker-end:none"/><g id="ea320" class="AB" transform="translate(263,129)"  ><g class="AB"/></g><g id="e6f92" class="AB" transform="translate(264.98,180.48)"  ><g class="AB"/></g></g><g id="afdf2" class="Reactome_R-HSA-163320"  ><path    d="m221 536v3"/></g><g id="c7ff8" class="Reactome_R-HSA-163320"  ><path    d="m227 433-6 38" style="marker-end:none"/></g><g id="d8456" class="Reactome_R-HSA-163296"  ><path    d="m205 202-17 37" style="marker-end:none"/></g><g id="e0fc0" class="Reactome_R-HSA-163296"  ><path    d="m191 299 3 3"/></g><g id="e1dc2" class="Reactome_R-HSA-163310"  ><path    d="m264 65-1 64" style="marker-end:none"/></g><g id="f5b02" class="Reactome_R-HSA-163310"  ><path    d="m265 181 3 3"/></g><g id="ff654" class="Reactome_R-HSA-163310"  ><path    d="m230 99 33 30" style="marker-end:none"/></g><g id="d9133" class="GroupGroup" transform="translate(16,5)"  ><g class="GroupGroup"><g id="fb5f5" class="" transform="translate(8,8)"  ><g class=""><rect   transform="matrix(0.99 0 0 1.00 1.49 1.49)" width="334" height="650" rx="15" ry="15" stroke-width="3" style="fill:transparent;stroke:#c0c0c0"/></g></g><g id="b5c07" class="Label" transform="translate(25,602)"  name="mitochondrial matrix" ><g class="Label"/><text   transform="translate(73.5,16.5)"    >mitochondrial matrix</text></g></g></g><g id="a7888" class="Unknown Reactome_R-ALL-164569" transform="translate(97,401)"  name="mitochondrial transcription termination sequence" ><rect   width="90" height="64"/><text   transform="translate(45,32)"    ><tspan   x="0" y="-16.5">mitochondrial</tspan><tspan   x="0" y="-5.5">transcription</tspan><tspan   x="0" y="5.5">termination</tspan><tspan   x="0" y="16.5">sequence</tspan></text></g><g id="ade59" class="Protein" transform="translate(218,43)"  name="TFAM" ><rect   width="92" height="22"/><text   transform="translate(46,11)"    >TFAM</text></g><g id="b3251" class="Complex Reactome_R-HSA-163321" transform="translate(154,539)"  name="mTERF:mitochondrial transcription termination sequence" ><g class="Complex Reactome_R-HSA-163321"><use class="Complex Reactome_R-HSA-163321 Node Icon" width="134" height="64" fill="#fff" stroke="#a52a2a" href="#HexagonPathVisio"/></g><g ><defs><clipPath ><rect x="-67" y="-32" width="134" height="64" style="stroke:none"/></clipPath></defs><text   transform="translate(67,32)"     style="fill:#a52a2a"><tspan   x="0" y="-16.5">mTERF:mitochondrial</tspan><tspan   x="0" y="-5.5">transcription</tspan><tspan   x="0" y="5.5">termination</tspan><tspan   x="0" y="16.5">sequence</tspan></text></g></g><g id="be244" class="Protein" transform="translate(227,422)"  name="MTERF" ><rect   width="48" height="22"/><text   transform="translate(24,11)"    >MTERF</text></g><g id="d30bc" class="Unknown Reactome_R-ALL-163305" transform="translate(110,81)"  name="mitochondrial DNA promoter" ><rect   width="120" height="36"/><text   transform="translate(60,18)"    ><tspan   x="0" y="-5.5">mitochondrial DNA</tspan><tspan   x="0" y="5.5">promoter</tspan></text></g><g id="ddbd5" class="Complex Reactome_R-HSA-163306" transform="translate(80,180)"  name="POLRMT:TFB2M complex" ><g class="Complex Reactome_R-HSA-163306"><use class="Complex Reactome_R-HSA-163306 Node Icon" width="103" height="36" fill="#fff" stroke="#a52a2a" href="#HexagonPathVisio"/></g><g ><defs><clipPath ><rect x="-51.5" y="-18" width="103" height="36" style="stroke:none"/></clipPath></defs><text   transform="translate(51.5,18)"     style="fill:#a52a2a">POLRMT:TFB2M complex</text></g></g><g id="dfb22" class="Complex Reactome_R-HSA-163298" transform="translate(205,184)"  name="TFAM:mitochondrial promoter complex" ><g class="Complex Reactome_R-HSA-163298"><use class="Complex Reactome_R-HSA-163298 Node Icon" width="126" height="36" fill="#fff" stroke="#a52a2a" href="#HexagonPathVisio"/></g><g ><defs><clipPath ><rect x="-63" y="-18" width="126" height="36" style="stroke:none"/></clipPath></defs><text   transform="translate(63,18)"     style="fill:#a52a2a"><tspan   x="0" y="-5.5">TFAM:mitochondrial</tspan><tspan   x="0" y="5.5">promoter complex</tspan></text></g></g><g id="eb3e0" class="Complex Reactome_R-HSA-163307" transform="translate(131,302)"  name="POLRMT:TFB2M:TFAM:mitochondrial promoter complex" ><g class="Complex Reactome_R-HSA-163307"><use class="Complex Reactome_R-HSA-163307 Node Icon" width="126" height="50" fill="#fff" stroke="#a52a2a" href="#HexagonPathVisio"/></g><g ><defs><clipPath ><rect x="-63" y="-25" width="126" height="50" style="stroke:none"/></clipPath></defs><text   transform="translate(63,25)"     style="fill:#a52a2a">POLRMT:TFB2M:TFAM:mitochondrial promoter complex</text></g></g><g id="be342" class="GroupComplex" transform="translate(318,709)"  ><g class="GroupComplex"><use class="Icon" width="124" height="124" fill="#b4b464" fill-opacity=".1" stroke="grey" href="#Octagon"/><g id="d832a" class="Protein" transform="translate(12,92)"  name="TFB2M" ><rect   width="100" height="20"/><text   transform="translate(50,10)"    >TFB2M</text></g><g id="ebf18" class="Unknown Reactome_R-ALL-163305" transform="translate(12,42)"  name="mitochondrial DNA promoter" ><rect   width="100" height="40"/><text   transform="translate(50,20)"    >mitochondrial DNA promoter</text></g><g id="f9af9" class="Protein" transform="translate(12,72)"  name="POLRMT" ><rect   width="100" height="20"/><text   transform="translate(50,10)"    >POLRMT</text></g><g id="ffa7b" class="Protein" transform="translate(12,12)"  name="TFAM" ><rect   width="100" height="20"/><text   transform="translate(50,10)"    >TFAM</text></g></g></g><g id="c49c6" class="GroupComplex" transform="translate(458,709)"  ><g class="GroupComplex"><use class="Icon" width="124" height="94" fill="#b4b464" fill-opacity=".1" stroke="grey" href="#Octagon"/><g id="a7e7a" class="Protein" transform="translate(12,12)"  name="MTERF" ><rect   width="100" height="20"/><text   transform="translate(50,10)"    >MTERF</text></g><g id="aff0f" class="Unknown Reactome_R-ALL-164569" transform="translate(12,42)"  name="mitochondrial transcription termination sequence" ><rect   width="100" height="40"/><text   transform="translate(50,20)"    >mitochondrial transcription termination sequence</text></g></g></g><g id="d636e" class="GroupComplex" transform="translate(178,709)"  ><g class="GroupComplex"><use class="Icon" width="124" height="64" fill="#b4b464" fill-opacity=".1" stroke="grey" href="#Octagon"/><g id="ceb56" class="Protein" transform="translate(12,12)"  name="POLRMT" ><rect   width="100" height="20"/><text   transform="translate(50,10)"    >POLRMT</text></g><g id="e307e" class="Protein" transform="translate(12,32)"  name="TFB2M" ><rect   width="100" height="20"/><text   transform="translate(50,10)"    >TFB2M</text></g></g></g><g id="f423e" class="GroupComplex" transform="translate(38,669)"  ><g class="GroupComplex"><use class="Icon" width="124" height="94" fill="#b4b464" fill-opacity=".1" stroke="grey" href="#Octagon"/><g id="a0388" class="Unknown Reactome_R-ALL-163305" transform="translate(12,42)"  name="mitochondrial DNA promoter" ><rect   width="100" height="40"/><text   transform="translate(50,20)"    >mitochondrial DNA promoter</text></g><g id="ef6ab" class="Protein" transform="translate(12,12)"  name="TFAM" ><rect   width="100" height="20"/><text   transform="translate(50,10)"    >TFAM</text></g></g></g></g></g></g></svg>