<?xml version="1.0" encoding="UTF-8"?>
<svg xmlns="http://www.w3.org/2000/svg" id="-svg" class="Diagram"  baseProfile="full" prefix="schema:http://schema.org/" preserveAspectRatio="xMidYMid"  version="1.1"><defs><g id="filter-defs"><filter id="doublefalse3filter" x="-50%" y="-50%" width="200%" height="200%"><feComposite in="SourceGraphic" in2="SourceGraphic" result="doubleDark"/><feMorphology in="doubleDark" operator="dilate" radius="0.17" result="in2Double"/><feMorphology in="SourceGraphic" operator="dilate" radius="3" result="inDouble"/><feComposite in="inDouble" in2="in2Double" operator="out" result="doubleResult"/></filter></g><g id="icon-defs"><symbol id="Ellipse" class=" Icon Ellipse" x="0" y="0" overflow="visible" preserveAspectRatio="none" viewBox="0 0 50 50"><desc>Ellipse</desc><ellipse cx="25" cy="25" rx="25" ry="25" vector-effect="non-scaling-stroke"/></symbol><symbol id="Octagon" class=" Icon Octagon" x="0" y="0" overflow="visible" preserveAspectRatio="none" viewBox="0 0 100 100"><desc>Octagon</desc><path d="m0 25 25-25h50l25 25v50l-25 25h-50l-25-25z" vector-effect="non-scaling-stroke"/></symbol></g><g id="marker-defs"><marker id="mea" markerHeight="12" markerWidth="12" orient="auto" preserveAspectRatio="none" refX="12" refY="6" viewBox="0 0 12 12"><g id="g-mea" transform=""><g transform="rotate(180 6 6)"><rect y="5.4" width="2" height="1.2" style="stroke:#fff"/><polygon points="12 11 0 6 12 1" stroke-width="0"/></g></g></marker><marker id="markerendtbar000" markerHeight="20" markerWidth="10" orient="auto" preserveAspectRatio="none" refX="10" refY="10" viewBox="0 0 10 20"><g id="g-markerendtbar000" transform=""><g transform="rotate(180 5 10)"><rect y="9" width="8" height="2" style="stroke:none"/><line x="0" y="0" width="12" height="12" x1="7" x2="7" y2="20" stroke="#000" stroke-width="1.8"/></g></g></marker><marker id="meminhibition000" markerHeight="20" markerWidth="10" orient="auto" preserveAspectRatio="none" refX="10" refY="10" viewBox="0 0 10 20"><g id="g-meminhibition000" transform=""><g transform="rotate(180 5 10)"><rect y="9" width="8" height="2" style="stroke:none"/><line x="0" y="0" width="12" height="12" x1="7" x2="7" y2="20" stroke="#000" stroke-width="1.8"/></g></g></marker></g></defs><g id="viewport-20220102143314170" class="svg-pan-zoom_viewport" transform="matrix(1.02 0 0 1.02 247.42 -5.68e-14)" style="transform:matrix(1.02, 0, 0, 1.02, 247.41, -5.68e-14)"><style>svg.Diagram {font-family: 'Liberation Sans', Arial, sans-serif; }.Diagram path {fill: transparent;stroke: #000;marker-end: url(#mea);}.Diagram symbol path {fill: inherit;stroke: inherit;stroke-width: inherit;marker-end: inherit;}.Diagram rect {fill: #fff;stroke: #000;}.Diagram text {dominant-baseline: central;overflow: hidden;text-anchor: middle;fill: #000;font-size: 10px;}</style><style type="text/css">.Viewport .textContent {
  pointer-events: none;
  stroke-width: 0px;
}

					.Viewport.Icon {
  fill: white;
}

/* Hide the InfoBox */
.Viewport.textContent {
  font-size: 0;
}

.textContent {
  stroke: none;
}

.DataNode {
  stroke-miterlimit: 1;
  pointer-events: auto;
}

.DataNode:hover {
  cursor: pointer;
}

/* TODO should this apply to things other than DataNodes? */
.DataNode.textContent {
  pointer-events: none;
}

.DataNode.Highlighted {
  opacity: 0.6;
  stroke-width: 0px;
}

marker {
  /* this is what should work per the spec
  stroke-dasharray: none; */
  /* but I need to add this to make it work in Safari */
  stroke-dasharray: 9999999999999999999999999;
}

.Citation.Icon {
  fill: none;
  stroke-width: 0px;
}

.Citation.textContent {
  text-align: center;
  vertical-align: top;
  font-size: 7px;
  fill: #999;
  fill-opacity: 1;
  stroke: none;
}</style><g id="WP4150" class="Pathway http___identifiers_org_pw_PW_0000003 http___identifiers_org_pw_PW_0000008 http___identifiers_org_pw_PW_0000200 Viewport"  name="Name: Wnt signaling in kidney disease Organism: Homo sapiens" ><g class="Pathway http___identifiers_org_pw_PW_0000003 http___identifiers_org_pw_PW_0000008 http___identifiers_org_pw_PW_0000200 Viewport"><rect   width="693.19" height="701.88" style="stroke:none"/><g id="id22cf2961" class="Edge"  ><path    d="m169.43 459.64v92.87"/></g><g id="id5fda9164" class="Edge"  ><path    d="m401.89 532.9 12.15 65.35"/></g><g id="ide02a4644" class="Edge"  ><path    d="m339.85 502.25 22.19 96"/></g><g id="idc2ee2143" class="Edge"  ><path    d="m169.45 401.56-0.02 38.08"/></g><g id="id9ea887c7" class="Edge"  ><path    d="m483.24 551.85-17.20 46.40"/></g><g id="idcc9548b6" class="Edge"  ><path    d="m275.96 337.06-68.51 26.50" style="marker-end:url(#meminhibition000)"/></g><g id="id274739c0" class="Edge"  ><path    d="m479.86 405.45-140.01 76.81"/></g><g id="id3a353084" class="Edge"  ><path    d="m517.86 405.45-34.62 70.40"/></g><g id="id900c5112" class="Edge"  ><path    d="m379.96 337.06 80.90 30.39" stroke-dasharray="5,3" style="marker-end:url(#markerendtbar000)"/></g><g id="idc5063081" class="Edge"  ><path    d="m498.86 405.45-96.97 107.45"/></g><g id="id76225631" class="Edge"  ><path    d="m420.44 243.3 78.42 86.15"/></g><g id="idd9140609" class="Edge"  ><path    d="m340.44 123.85 31.05 42.95"/></g><g id="id92b055c2" class="Edge"  ><path    d="m170.09 245.31-0.65 80.25"/></g><g id="idf66e1f24" class="Edge"  ><path    d="m211.21 123.85-41.12 44.96"/></g><g id="add5a" class=" PhysicalEntity CellularComponent Nucleus" transform="translate(41.40 512.76)"  ><g class=" PhysicalEntity CellularComponent Nucleus" filter="url(#doublefalse3filter)"><g class=" PhysicalEntity CellularComponent Nucleus"><use class=" PhysicalEntity CellularComponent Nucleus Node Icon" transform="matrix(0.95 0 0 0.92 5.72 5.51)" width="243.08" height="136.31" fill="transparent" stroke="#c0c0c0" stroke-width="3" href="#Ellipse"/></g></g></g><g id="fcf7f" class=" PhysicalEntity CellularComponent Cell" transform="translate(20.20 203.36)"  ><g class=" PhysicalEntity CellularComponent Cell" filter="url(#doublefalse3filter)"><g class=" PhysicalEntity CellularComponent Cell"><rect   transform="matrix(0.98 0 0 0.98 5.86 5.85)" width="512.55" height="470.01" rx="15" ry="15" stroke-width="3" style="fill:transparent;stroke:#c0c0c0"/></g></g></g><g id="a6d22" class="Label" transform="translate(112.56 140.14)"  name="Canonical" ><g class="Label"/><text   transform="translate(40,10)"    font-weight="bold"  style="font-size:12px">Canonical</text></g><g id="d2569" class="Label" transform="translate(310.04 598.25)"  name="Cytoskeleton/planar cell Polarity" ><g class="Label"/><text   transform="translate(104,10)"    font-weight="bold"  style="font-size:12px">Cytoskeleton/planar cell Polarity</text></g><g id="e855a" class="Label" transform="translate(405.77 140.14)"  name="Non-Canonical" ><g class="Label"/><text   transform="translate(51,10)"    font-weight="bold"  style="font-size:12px">Non-Canonical</text></g><g id="f52d7" class="Label" transform="translate(129.43 552.51)"  name="Transcription" ><g class="Label"/><text   transform="translate(40,10)"    font-weight="bold"  style="font-size:12px">Transcription</text></g><g id="a79e8" class="Metabolite " transform="translate(299.85 482.25)"  name="Calcium" ><rect   width="80" height="20" style="stroke:#00f"/><text   transform="translate(40,10)"     style="fill:#00f">Calcium</text></g><g id="d79be" class="GeneProduct " transform="translate(361.89 512.9)"  name="RHOA" ><rect   width="80" height="20"/><text   transform="translate(40,10)"    >RHOA</text></g><g id="e260b" class="GeneProduct " transform="translate(129.43 439.64)"  name="CTNNB1" ><rect   width="80" height="20"/><text   transform="translate(40,10)"    >CTNNB1</text></g><g id="c7d85" class="GroupComplex" transform="translate(275.96 289.06)"  ><g class="GroupComplex"><use class="Icon" width="104" height="64.00" fill="#b4b464" fill-opacity=".1" stroke="grey" href="#Octagon"/><g id="c1b2f" class="GeneProduct " transform="translate(12 32)"  name="NPHP3-ACAD11" ><rect   width="80" height="20"/><text   transform="translate(40,10)"    >NPHP3-ACAD11</text></g><g id="f5b5a" class="GeneProduct " transform="translate(12,12)"  name="INVS" ><rect   width="80" height="20"/><text   transform="translate(40,10)"    >INVS</text></g></g></g><g id="fc2af" class="GroupGroup" transform="translate(32.89 168.81)"  ><g class="GroupGroup"><g id="bed20" class="GeneProduct " transform="translate(8 20.42)"  name="LRP5" ><rect   width="80" height="20"/><text   transform="translate(40,10)"    >LRP5</text></g><g id="a5781" class="GeneProduct " transform="translate(8 40.34)"  name="LRP6" ><rect   width="80" height="20"/><text   transform="translate(40,10)"    >LRP6</text></g><g id="d85b7" class="GeneProduct " transform="translate(86.58 8.33)"  name="FZD1" ><rect   width="60" height="20"/><text   transform="translate(30,10)"    >FZD1</text></g><g id="e7137" class="GeneProduct " transform="translate(206.41 28.50)"  name="FZD8" ><rect   width="60" height="20"/><text   transform="translate(30,10)"    >FZD8</text></g><g id="f98ab" class="GeneProduct " transform="translate(146.91 8)"  name="FZD4" ><rect   width="60" height="20"/><text   transform="translate(30,10)"    >FZD4</text></g><g id="d0aea" class="GeneProduct " transform="translate(86.58 28.33)"  name="FZD2" ><rect   width="60" height="20"/><text   transform="translate(30,10)"    >FZD2</text></g><g id="b4545" class="GeneProduct " transform="translate(206.41 8.50)"  name="FZD7" ><rect   width="60" height="20"/><text   transform="translate(30,10)"    >FZD7</text></g><g id="a02b4" class="GeneProduct " transform="translate(206.41 48.50)"  name="FZD9" ><rect   width="60" height="20"/><text   transform="translate(30,10)"    >FZD9</text></g><g id="df6aa" class="GeneProduct " transform="translate(146.91 28)"  name="FZD5" ><rect   width="60" height="20"/><text   transform="translate(30,10)"    >FZD5</text></g><g id="e461a" class="GeneProduct " transform="translate(146.91 48)"  name="FZD6" ><rect   width="60" height="20"/><text   transform="translate(30,10)"    >FZD6</text></g><g id="f8a11" class="GeneProduct " transform="translate(86.58 48.33)"  name="FZD3" ><rect   width="60" height="20"/><text   transform="translate(30,10)"    >FZD3</text></g></g></g><g id="dba99" class="GroupGroup" transform="translate(146.6 27.69)"  ><g class="GroupGroup"><g id="c8741" class="GeneProduct " transform="translate(8 8.17)"  name="WNT1" ><rect   width="61.6" height="20"/><text   transform="translate(30.8 10)"    >WNT1</text></g><g id="e82c7" class="GeneProduct " transform="translate(129.9 68.17)"  name="WNT10A" ><rect   width="61.6" height="20"/><text   transform="translate(30.8 10)"    >WNT10A</text></g><g id="b90fc" class="GeneProduct " transform="translate(188.85 8)"  name="WNT10B" ><rect   width="61.6" height="20"/><text   transform="translate(30.8 10)"    >WNT10B</text></g><g id="c28ba" class="GeneProduct " transform="translate(129.9 28.16)"  name="WNT7A" ><rect   width="61.6" height="20"/><text   transform="translate(30.8 10)"    >WNT7A</text></g><g id="e8067" class="GeneProduct " transform="translate(188.85 68)"  name="WNT16" ><rect   width="61.6" height="20"/><text   transform="translate(30.8 10)"    >WNT16</text></g><g id="eef62" class="GeneProduct " transform="translate(127.7 8.17)"  name="WNT6" ><rect   width="61.6" height="20"/><text   transform="translate(30.8 10)"    >WNT6</text></g><g id="f16d2" class="GeneProduct " transform="translate(68.88 48.04)"  name="WNT5A" ><rect   width="61.6" height="20"/><text   transform="translate(30.8 10)"    >WNT5A</text></g><g id="d6d64" class="GeneProduct " transform="translate(8 48.16)"  name="WNT2B" ><rect   width="61.6" height="20"/><text   transform="translate(30.8 10)"    >WNT2B</text></g><g id="d8115" class="GeneProduct " transform="translate(188.85 28)"  name="WNT11" ><rect   width="61.6" height="20"/><text   transform="translate(30.8 10)"    >WNT11</text></g><g id="de75e" class="GeneProduct " transform="translate(68.88 28)"  name="WNT4" ><rect   width="61.6" height="20"/><text   transform="translate(30.8 10)"    >WNT4</text></g><g id="bb0cc" class="GeneProduct " transform="translate(69.98 8)"  name="WNT3A" ><rect   width="61.6" height="20"/><text   transform="translate(30.8 10)"    >WNT3A</text></g><g id="f68e9" class="GeneProduct " transform="translate(67.78 68.04)"  name="WNT5B" ><rect   width="61.6" height="20"/><text   transform="translate(30.8 10)"    >WNT5B</text></g><g id="ad343" class="GeneProduct " transform="translate(188.85 48)"  name="WNT9B" ><rect   width="61.6" height="20"/><text   transform="translate(30.8 10)"    >WNT9B</text></g><g id="a9c73" class="GeneProduct " transform="translate(8 28.16)"  name="WNT2" ><rect   width="61.6" height="20"/><text   transform="translate(30.8 10)"    >WNT2</text></g><g id="a6c0a" class="GeneProduct " transform="translate(8 68.17)"  name="WNT3" ><rect   width="61.6" height="20"/><text   transform="translate(30.8 10)"    >WNT3</text></g><g id="abf91" class="GeneProduct " transform="translate(129.9 48.16)"  name="WNT7B" ><rect   width="61.6" height="20"/><text   transform="translate(30.8 10)"    >WNT7B</text></g></g></g><g id="e6a97" class="GroupGroup" transform="translate(322.52 166.8)"  ><g class="GroupGroup"><g id="eddb6" class="GeneProduct " transform="translate(8 8.33)"  name="FZD1" ><rect   width="60" height="20"/><text   transform="translate(30,10)"    >FZD1</text></g><g id="d807c" class="GeneProduct " transform="translate(127.83 28.50)"  name="FZD8" ><rect   width="60" height="20"/><text   transform="translate(30,10)"    >FZD8</text></g><g id="f4e2e" class="GeneProduct " transform="translate(68.33 8)"  name="FZD4" ><rect   width="60" height="20"/><text   transform="translate(30,10)"    >FZD4</text></g><g id="ebb8e" class="GeneProduct " transform="translate(8 28.33)"  name="FZD2" ><rect   width="60" height="20"/><text   transform="translate(30,10)"    >FZD2</text></g><g id="b01b5" class="GeneProduct " transform="translate(127.83 8.50)"  name="FZD7" ><rect   width="60" height="20"/><text   transform="translate(30,10)"    >FZD7</text></g><g id="f8c46" class="GeneProduct " transform="translate(127.83 48.50)"  name="FZD9" ><rect   width="60" height="20"/><text   transform="translate(30,10)"    >FZD9</text></g><g id="aa653" class="GeneProduct " transform="translate(68.33 28)"  name="FZD5" ><rect   width="60" height="20"/><text   transform="translate(30,10)"    >FZD5</text></g><g id="d84fc" class="GeneProduct " transform="translate(68.33 48)"  name="FZD6" ><rect   width="60" height="20"/><text   transform="translate(30,10)"    >FZD6</text></g><g id="c23f4" class="GeneProduct " transform="translate(8 48.33)"  name="FZD3" ><rect   width="60" height="20"/><text   transform="translate(30,10)"    >FZD3</text></g></g></g><g id="db3fa" class="GroupGroup" transform="translate(460.86 329.45)"  ><g class="GroupGroup"><g id="e927b" class="GeneProduct " transform="translate(8,28)"  name="DVL2" ><rect   width="60" height="20"/><text   transform="translate(30,10)"    >DVL2</text></g><g id="b3ca8" class="GeneProduct " transform="translate(8 48)"  name="DVL3" ><rect   width="60" height="20"/><text   transform="translate(30,10)"    >DVL3</text></g><g id="e8e3b" class="GeneProduct " transform="translate(8,8)"  name="DVL1" ><rect   width="60" height="20"/><text   transform="translate(30,10)"    >DVL1</text></g></g></g><g id="c2e10" class="GroupGroup" transform="translate(444.44 475.85)"  ><g class="GroupGroup"><g id="d4b7c" class="GeneProduct " transform="translate(8 28)"  name="MAPK9" ><rect   width="61.6" height="20"/><text   transform="translate(30.8,10)"    >MAPK9</text></g><g id="fbdaf" class="GeneProduct " transform="translate(8 48)"  name="MAPK10" ><rect   width="61.6" height="20"/><text   transform="translate(30.8,10)"    >MAPK10</text></g><g id="ba0a5" class="GeneProduct " transform="translate(8,8)"  name="MAPK8" ><rect   width="61.6" height="20"/><text   transform="translate(30.8,10)"    >MAPK8</text></g></g></g><g id="a562c" class="GroupGroup" transform="translate(131.45 325.56)"  ><g class="GroupGroup"><g id="efafa" class="GeneProduct " transform="translate(8 28)"  name="DVL2" ><rect   width="60" height="20"/><text   transform="translate(30,10)"    >DVL2</text></g><g id="a00e0" class="GeneProduct " transform="translate(8 48)"  name="DVL3" ><rect   width="60" height="20"/><text   transform="translate(30,10)"    >DVL3</text></g><g id="a351e" class="GeneProduct " transform="translate(8,8)"  name="DVL1" ><rect   width="60" height="20"/><text   transform="translate(30,10)"    >DVL1</text></g></g></g><g id="eca2f" class="Label" transform="translate(52.25 348.05)"  name="cytoplasmic disheveled" ><g class="Label"/><text   transform="translate(45.92 16.95)"    font-weight="bold"  style="font-size:12px"><tspan   x="0" y="-6.60">cytoplasmic</tspan><tspan   x="0" y="6.60">disheveled</tspan></text></g><g id="f6223" class="Label" transform="translate(526.66 346.77)"  name="membrane-bound disheveled" ><g class="Label"/><text   transform="translate(68.27 21.93)"    font-weight="bold"  style="font-size:12px"><tspan   x="0" y="-6.60">membrane-bound</tspan><tspan   x="0" y="6.60">disheveled</tspan></text></g></g></g></g></svg>