<?xml version="1.0" encoding="UTF-8"?>
<svg xmlns="http://www.w3.org/2000/svg" id="-svg" class="Diagram"  baseProfile="full" prefix="schema:http://schema.org/" preserveAspectRatio="xMidYMid"  version="1.1"><defs><g id="icon-defs"><symbol id="HexagonPathVisio" class=" Icon HexagonPathVisio" x="0" y="8" overflow="visible" preserveAspectRatio="none" viewBox="0 8 100 86"><desc>HexagonPathVisio</desc><g transform="scale(1 0.85)"><path d="m1.42 51.00 21.07-42.14h56.19l21.07 42.14-21.07 42.15h-56.19l-21.07-42.15z" stroke="currentColor" vector-effect="non-scaling-stroke"/></g></symbol><symbol id="Octagon" class=" Icon Octagon" x="0" y="0" overflow="visible" preserveAspectRatio="none" viewBox="0 0 100 100"><desc>Octagon</desc><path d="m0 25 25-25h50l25 25v50l-25 25h-50l-25-25z" vector-effect="non-scaling-stroke"/></symbol></g><g id="marker-defs"><marker id="mea" markerHeight="12" markerWidth="12" orient="auto" preserveAspectRatio="none" refX="12" refY="6" viewBox="0 0 12 12"><g id="g-mea" transform=""><g transform="rotate(180 6 6)"><rect y="5.4" width="2" height="1.2" style="stroke:#fff"/><polygon points="12 11 0 6 12 1" stroke-width="0"/></g></g></marker><marker id="markerendtbar000" markerHeight="20" markerWidth="10" orient="auto" preserveAspectRatio="none" refX="10" refY="10" viewBox="0 0 10 20"><g id="g-markerendtbar000" transform=""><g transform="rotate(180 5 10)"><rect y="9" width="8" height="2" style="stroke:none"/><line x="0" y="0" width="12" height="12" x1="7" x2="7" y2="20" stroke="#000" stroke-width="1.8"/></g></g></marker></g></defs><g id="viewport-20220102143118393" class="svg-pan-zoom_viewport" transform="matrix(0.33 0 0 0.33 279.44 0)" style="transform:matrix(0.33, 0, 0, 0.33, 279.44, 0)"><style>svg.Diagram {font-family: 'Liberation Sans', Arial, sans-serif; }.Diagram path {fill: transparent;stroke: #000;marker-end: url(#mea);}.Diagram symbol path {fill: inherit;stroke: inherit;stroke-width: inherit;marker-end: inherit;}.Diagram rect {fill: #fff;stroke: #000;}.Diagram text {dominant-baseline: central;overflow: hidden;text-anchor: middle;fill: #000;font-size: 10px;}</style><style type="text/css">.Viewport .textContent {
  pointer-events: none;
  stroke-width: 0px;
}

					.Viewport.Icon {
  fill: white;
}

/* Hide the InfoBox */
.Viewport.textContent {
  font-size: 0;
}

.textContent {
  stroke: none;
}

.DataNode {
  stroke-miterlimit: 1;
  pointer-events: auto;
}

.DataNode:hover {
  cursor: pointer;
}

/* TODO should this apply to things other than DataNodes? */
.DataNode.textContent {
  pointer-events: none;
}

.DataNode.Highlighted {
  opacity: 0.6;
  stroke-width: 0px;
}

marker {
  /* this is what should work per the spec
  stroke-dasharray: none; */
  /* but I need to add this to make it work in Safari */
  stroke-dasharray: 9999999999999999999999999;
}

.Citation.Icon {
  fill: none;
  stroke-width: 0px;
}

.Citation.textContent {
  text-align: center;
  vertical-align: top;
  font-size: 7px;
  fill: #999;
  fill-opacity: 1;
  stroke: none;
}</style><g id="WP4100" class="Pathway Viewport"  name="Name: Gene and protein expression by JAK-STAT signaling after Interleukin-12 stimulation Organism: Homo sapiens" ><g class="Pathway Viewport"><rect   width="1931" height="2015" style="stroke:none"/><g id="a08e0" class="Reactome_R-HSA-8950389"  ><path    d="m1177 1606 1 183" style="marker-end:none"/><g id="c34a5" class="AB" transform="translate(1177,1606)"  ><g class="AB"/></g><g id="e232f" class="AB" transform="translate(1178 1787.2)"  ><g class="AB"/></g><g id="d4769" class="AB" transform="translate(1177.5,1697.5)"  ><g class="AB"/></g></g><g id="a803a" class="Reactome_R-HSA-8950732"  ><path    d="m1517 1406h215" style="marker-end:none"/><g id="f3bb8" class="AB" transform="translate(1517,1406)"  ><g class="AB"/></g><g id="d8c49" class="AB" transform="translate(1729.9 1406)"  ><g class="AB"/></g><g id="e81dc" class="AB" transform="translate(1624.5,1406)"  ><g class="AB"/></g></g><g id="aa69c" class="Reactome_R-HSA-8950314"  ><path    d="m1132 631 165-398" style="marker-end:none"/><g id="b7831" class="AB" transform="translate(1132,631)"  ><g class="AB"/></g><g id="c2fe4" class="AB" transform="translate(1295.4 236.98)"  ><g class="AB"/></g><g id="ebb66" class="AB" transform="translate(1214.5,432)"  ><g class="AB"/></g></g><g id="adbdc" class="Reactome_R-HSA-8950367"  ><path    d="m723 1056-259-45" style="marker-end:none"/><g id="b8bd3" class="AB" transform="translate(723,1056)"  ><g class="AB"/></g><g id="e9e3d" class="AB" transform="translate(466.59 1011.4)"  ><g class="AB"/></g><g id="c3dab" class="AB" transform="translate(593.5,1033.5)"  ><g class="AB"/></g></g><g id="a122b" class="Reactome_R-HSA-8950367"  ><path    d="m464 1011-4-3"/></g><g id="ae69b" class="Reactome_R-HSA-8950567"  ><path    d="m873 588-7-122" style="marker-end:none"/><g id="e4fb1" class="AB" transform="translate(873,588)"  ><g class="AB"/></g><g id="ea245" class="AB" transform="translate(866.07 467.22)"  ><g class="AB"/></g><g id="d4227" class="AB" transform="translate(869.5,527)"  ><g class="AB"/></g></g><g id="b040b" class="Reactome_R-HSA-8950322"  ><path    d="m719 1183-264-16" style="marker-end:none"/><g id="beacf" class="AB" transform="translate(719,1183)"  ><g class="AB"/></g><g id="a8a3b" class="AB" transform="translate(457.64 1167.2)"  ><g class="AB"/></g><g id="ed397" class="AB" transform="translate(587,1175)"  ><g class="AB"/></g></g><g id="afd1a" class="Reactome_R-HSA-8950322"  ><path    d="m709 1213 10-30" style="marker-end:none"/></g><g id="b1ae3" class="Reactome_R-HSA-8950314"  ><path    d="m1297 233-2-3"/></g><g id="b3350" class="Reactome_R-HSA-8950426"  ><path    d="m680 695-288-486" style="marker-end:none"/><g id="a04f2" class="AB" transform="translate(680,695)"  ><g class="AB"/></g><g id="f95f3" class="AB" transform="translate(394.88 213.86)"  ><g class="AB"/></g><g id="b3439" class="AB" transform="translate(536,452)"  ><g class="AB"/></g></g><g id="b30e8" class="Reactome_R-HSA-8950426"  ><path    d="m1066 968-424-311" style="marker-end:url(#markerendtbar000)"/></g><g id="b583b" class="Reactome_R-HSA-8950260"  ><path    d="m1348 1570 100 2" style="marker-end:none"/><g id="f2010" class="AB" transform="translate(1348,1570)"  ><g class="AB"/></g><g id="aaf79" class="AB" transform="translate(1447 1572)"  ><g class="AB"/></g><g id="b4a6f" class="AB" transform="translate(1398,1571)"  ><g class="AB"/></g></g><g id="b5319" class="Reactome_R-HSA-8950260"  ><path    d="m1338 1600 10-30" style="marker-end:none"/></g><g id="aa4e8" class="Reactome_R-HSA-8950260"  ><path    d="m1448 1572 3 2"/></g><g id="b73b6" class="Reactome_R-HSA-8950367"  ><path    d="m713 1086 10-30" style="marker-end:none"/></g><g id="b9405" class="Reactome_R-HSA-8950567"  ><path    d="m1066 968-194-414" style="marker-end:url(#markerendtbar000)"/></g><g id="bdbbf" class="Reactome_R-HSA-8950218"  ><path    d="m704 1117-249-18" style="marker-end:none"/><g id="fa329" class="AB" transform="translate(704,1117)"  ><g class="AB"/></g><g id="f58d2" class="AB" transform="translate(457.49 1099.2)"  ><g class="AB"/></g><g id="e4730" class="AB" transform="translate(579.5,1108)"  ><g class="AB"/></g></g><g id="bf4db" class="Reactome_R-HSA-8950732"  ><path    d="m1178 968 368 438"/></g><g id="c0c9e" class="Reactome_R-HSA-8950623"  ><path    d="m1310 921 390 372" style="marker-end:none"/><g id="da5d4" class="AB" transform="translate(1310,921)"  ><g class="AB"/></g><g id="ac716" class="AB" transform="translate(1696.1 1289.3)"  ><g class="AB"/></g><g id="d068c" class="AB" transform="translate(1505,1107)"  ><g class="AB"/></g></g><g id="c0e7b" class="Reactome_R-HSA-8950218"  ><path    d="m694 1147 10-30" style="marker-end:none"/></g><g id="c12d9" class="Reactome_R-HSA-8950314"  ><path    d="m1122 945 228-314"/></g><g id="c1ec6" class="Reactome_R-HSA-8950718"  ><path    d="m1466 733 233 423" style="marker-end:none"/><g id="cf308" class="AB" transform="translate(1466,733)"  ><g class="AB"/></g><g id="ff602" class="AB" transform="translate(1696.7 1151.8)"  ><g class="AB"/></g><g id="c7eb5" class="AB" transform="translate(1582.5,944.5)"  ><g class="AB"/></g></g><g id="c4b06" class="Reactome_R-HSA-8950389"  ><path    d="m1167 1636 10-30" style="marker-end:none"/></g><g id="c6421" class="Reactome_R-HSA-8950732"  ><path    d="m1732 1406 3 1"/></g><g id="ca520" class="Reactome_R-HSA-8950322"  ><path    d="m1066 968-341 199" style="marker-end:url(#markerendtbar000)"/></g><g id="cb565" class="Reactome_R-HSA-8950732"  ><path    d="m1507 1436 10-30" style="marker-end:none"/></g><g id="cb60c" class="Reactome_R-HSA-8950389"  ><path    d="m1122 991 56 705" style="marker-end:url(#markerendtbar000)"/></g><g id="ccac4" class="Reactome_R-HSA-8950623"  ><path    d="m1300 951 10-30" style="marker-end:none"/></g><g id="ce3d4" class="Reactome_R-HSA-8950213"  ><path    d="m714 1354-255-38" style="marker-end:none"/><g id="b1378" class="AB" transform="translate(714,1354)"  ><g class="AB"/></g><g id="f42cb" class="AB" transform="translate(461.55 1316.4)"  ><g class="AB"/></g><g id="bba9e" class="AB" transform="translate(586.5,1335)"  ><g class="AB"/></g></g><g id="bcba0" class="Reactome_R-HSA-8950213"  ><path    d="m704 1384 10-30" style="marker-end:none"/></g><g id="a4e26" class="Reactome_R-HSA-8950213"  ><path    d="m459 1316-4-2"/></g><g id="ce827" class="Reactome_R-HSA-8950718"  ><path    d="m1178 968 332 214"/></g><g id="cf4a8" class="Reactome_R-HSA-8950623"  ><path    d="m1178 968 226 321"/></g><g id="cf8cf" class="Reactome_R-HSA-8950175"  ><path    d="m703 1273-240-33" style="marker-end:none"/><g id="e4688" class="AB" transform="translate(703,1273)"  ><g class="AB"/></g><g id="b0074" class="AB" transform="translate(465.4 1240.3)"  ><g class="AB"/></g><g id="a9ab8" class="AB" transform="translate(583,1256.5)"  ><g class="AB"/></g></g><g id="a846c" class="Reactome_R-HSA-8950175"  ><path    d="m693 1303 10-30" style="marker-end:none"/></g><g id="ce0bb" class="Reactome_R-HSA-8950175"  ><path    d="m463 1240-4-1"/></g><g id="d557d" class="Reactome_R-HSA-8950426"  ><path    d="m392 209-8-3"/></g><g id="d56ba" class="Reactome_R-HSA-8950581"  ><path    d="m1564 587 135 498" style="marker-end:none"/><g id="dd387" class="AB" transform="translate(1564,587)"  ><g class="AB"/></g><g id="c729d" class="AB" transform="translate(1697.6 1080)"  ><g class="AB"/></g><g id="cdd0b" class="AB" transform="translate(1631.5,836)"  ><g class="AB"/></g></g><g id="c41bb" class="Reactome_R-HSA-8950581"  ><path    d="m1554 617 10-30" style="marker-end:none"/></g><g id="b4d22" class="Reactome_R-HSA-8950581"  ><path    d="m1699 1085 3-7"/></g><g id="d66e0" class="Reactome_R-HSA-9617941"  ><path    d="m888 1616 87 168" style="marker-end:none"/><g id="acc6c" class="AB" transform="translate(888,1616)"  ><g class="AB"/></g><g id="b5fbf" class="AB" transform="translate(974.13 1782.3)"  ><g class="AB"/></g><g id="a3ae6" class="AB" transform="translate(931.5,1700)"  ><g class="AB"/></g></g><g id="d6ff5" class="Reactome_R-HSA-8950218"  ><path    d="m1066 968-347 138" style="marker-end:url(#markerendtbar000)"/></g><g id="d800d" class="Reactome_R-HSA-8950586"  ><path    d="m1149 704 418-574" style="marker-end:none"/><g id="c175b" class="AB" transform="translate(1149,704)"  ><g class="AB"/></g><g id="b63e5" class="AB" transform="translate(1562.8 135.74)"  ><g class="AB"/></g><g id="c5a0f" class="AB" transform="translate(1358,417)"  ><g class="AB"/></g></g><g id="b3c12" class="Reactome_R-HSA-8950586"  ><path    d="m1139 734 10-30" style="marker-end:none"/></g><g id="cbef1" class="Reactome_R-HSA-8950586"  ><path    d="m1567 130 9-3"/></g><g id="d9f5f" class="Reactome_R-HSA-8950389"  ><path    d="m1178 1789v3"/></g><g id="db886" class="Reactome_R-HSA-8950344"  ><path    d="m1431 931 269 330" style="marker-end:none"/><g id="c0a38" class="AB" transform="translate(1431,931)"  ><g class="AB"/></g><g id="b283b" class="AB" transform="translate(1697.3 1257.7)"  ><g class="AB"/></g><g id="b7247" class="AB" transform="translate(1565.5,1096)"  ><g class="AB"/></g></g><g id="b1b9a" class="Reactome_R-HSA-8950344"  ><path    d="m1178 968 253 298"/></g><g id="dbdcc" class="Reactome_R-HSA-8950344"  ><path    d="m1422 961 9-30" style="marker-end:none"/></g><g id="dc378" class="Reactome_R-HSA-8950637"  ><path    d="m733 961-431-36" style="marker-end:none"/><g id="bf40b" class="AB" transform="translate(733,961)"  ><g class="AB"/></g><g id="c9567" class="AB" transform="translate(306.31,925.36)"  ><g class="AB"/></g><g id="bb22a" class="AB" transform="translate(517.5,943)"  ><g class="AB"/></g></g><g id="d321a" class="Reactome_R-HSA-8950637"  ><path    d="m1066 968-335-37" style="marker-end:url(#markerendtbar000)"/></g><g id="dc861" class="Reactome_R-HSA-8950426"  ><path    d="m670 725 10-30" style="marker-end:none"/></g><g id="dd9e1" class="Reactome_R-HSA-8950175"  ><path    d="m1066 968-363 282" style="marker-end:url(#markerendtbar000)"/></g><g id="de2bd" class="Reactome_R-HSA-8950718"  ><path    d="m1456 763 10-30" style="marker-end:none"/></g><g id="de54e" class="Reactome_R-HSA-8950292"  ><path    d="m1164 770 514-640" style="marker-end:none"/><g id="af250" class="AB" transform="translate(1164,770)"  ><g class="AB"/></g><g id="fd051" class="AB" transform="translate(1672.9 136.4)"  ><g class="AB"/></g><g id="a13d0" class="AB" transform="translate(1421,450)"  ><g class="AB"/></g></g><g id="c99b3" class="Reactome_R-HSA-8950292"  ><path    d="m1155 800 9-30" style="marker-end:none"/></g><g id="ade49" class="Reactome_R-HSA-8950292"  ><path    d="m1678 130 13-3"/></g><g id="def57" class="Reactome_R-HSA-8950173"  ><path    d="m743 1535-287-41" style="marker-end:none"/><g id="e2d0f" class="AB" transform="translate(743,1535)"  ><g class="AB"/></g><g id="cdc29" class="AB" transform="translate(458.87 1494.4)"  ><g class="AB"/></g><g id="c5e3a" class="AB" transform="translate(599.5,1514.5)"  ><g class="AB"/></g></g><g id="d7514" class="Reactome_R-HSA-8950173"  ><path    d="m456 1494-4-1"/></g><g id="cc77a" class="Reactome_R-HSA-8950173"  ><path    d="m1066 968-323 539" style="marker-end:url(#markerendtbar000)"/></g><g id="df330" class="Reactome_R-HSA-8950721"  ><path    d="m1346 834 355 394" style="marker-end:none"/><g id="d76f7" class="AB" transform="translate(1346,834)"  ><g class="AB"/></g><g id="e8fa3" class="AB" transform="translate(1697.4 1224.1)"  ><g class="AB"/></g><g id="ea5ce" class="AB" transform="translate(1523.5,1031)"  ><g class="AB"/></g></g><g id="c7e4c" class="Reactome_R-HSA-8950721"  ><path    d="m1336 864 10-30" style="marker-end:none"/></g><g id="aeefe" class="Reactome_R-HSA-8950721"  ><path    d="m1701 1228 3-2"/></g><g id="c6c17" class="Reactome_R-HSA-8950721"  ><path    d="m1178 968 283 272"/></g><g id="df718" class="Reactome_R-HSA-9006431"  ><path    d="m1215 554-9-326" style="marker-end:none"/><g id="ee7bb" class="AB" transform="translate(1215,554)"  ><g class="AB"/></g><g id="ed185" class="AB" transform="translate(1206.1 231.26)"  ><g class="AB"/></g><g id="dc9b4" class="AB" transform="translate(1210.5,391)"  ><g class="AB"/></g></g><g id="bcfcd" class="Reactome_R-HSA-9006431"  ><path    d="m1206 584 9-30" style="marker-end:none"/></g><g id="c6e2c" class="Reactome_R-HSA-9006431"  ><path    d="m1206 228-4-4"/></g><g id="dc26a" class="Reactome_R-HSA-9006431"  ><path    d="m1122 945 209-341"/></g><g id="e1850" class="Reactome_R-HSA-8950173"  ><path    d="m733 1565 10-30" style="marker-end:none"/></g><g id="e3275" class="Reactome_R-HSA-8981073"  ><path    d="m975 581-2-119" style="marker-end:none"/><g id="c8f6b" class="AB" transform="translate(975,581)"  ><g class="AB"/></g><g id="e94d6" class="AB" transform="translate(973.02,463.19)"  ><g class="AB"/></g><g id="f88e8" class="AB" transform="translate(974,521.5)"  ><g class="AB"/></g></g><g id="cb946" class="Reactome_R-HSA-8981073"  ><path    d="m966 604 9-23" style="marker-end:none"/></g><g id="d06f0" class="Reactome_R-HSA-8981073"  ><path    d="m973 462v-3"/></g><g id="e393c" class="Reactome_R-HSA-8950328"  ><path    d="m1228 639 224-515" style="marker-end:none"/><g id="ac644" class="AB" transform="translate(1228,639)"  ><g class="AB"/></g><g id="aa8fc" class="AB" transform="translate(1449.8 129.15)"  ><g class="AB"/></g><g id="dc026" class="AB" transform="translate(1340,381.5)"  ><g class="AB"/></g></g><g id="ae9ee" class="Reactome_R-HSA-8950328"  ><path    d="m1452 124 3-3"/></g><g id="a71f0" class="Reactome_R-HSA-8950328"  ><path    d="m1122 945 241-289"/></g><g id="e497e" class="Reactome_R-HSA-8950292"  ><path    d="m1122 945 274-252" style="marker-end:url(#markerendtbar000)"/></g><g id="e521f" class="Reactome_R-HSA-8950608"  ><path    d="m1370 1647 70 1" style="marker-end:none"/><g id="d616e" class="AB" transform="translate(1370,1647)"  ><g class="AB"/></g><g id="ad2be" class="AB" transform="translate(1439.3 1648)"  ><g class="AB"/></g><g id="c34da" class="AB" transform="translate(1405,1647.5)"  ><g class="AB"/></g></g><g id="c69a8" class="Reactome_R-HSA-8950608"  ><path    d="m1360 1677 10-30" style="marker-end:none"/></g><g id="a5110" class="Reactome_R-HSA-8950608"  ><path    d="m1440 1648 3 1"/></g><g id="c0cba" class="Reactome_R-HSA-8950608"  ><path    d="m1122 991 281 657" style="marker-end:url(#markerendtbar000)"/></g><g id="e5b0f" class="Reactome_R-HSA-8950681"  ><path    d="m1322 1494 123 3" style="marker-end:none"/><g id="cea14" class="AB" transform="translate(1322,1494)"  ><g class="AB"/></g><g id="b168d" class="AB" transform="translate(1443.8 1497)"  ><g class="AB"/></g><g id="bc320" class="AB" transform="translate(1383.5,1495.5)"  ><g class="AB"/></g></g><g id="dc192" class="Reactome_R-HSA-8950681"  ><path    d="m1312 1524 10-30" style="marker-end:none"/></g><g id="c2a93" class="Reactome_R-HSA-8950681"  ><path    d="m1445 1497 3 2"/></g><g id="e63d6" class="Reactome_R-HSA-8950637"  ><path    d="m723 991 10-30" style="marker-end:none"/></g><g id="e6826" class="Reactome_R-HSA-8950567"  ><path    d="m863 611 10-23" style="marker-end:none"/></g><g id="e7012" class="Reactome_R-HSA-8950718"  ><path    d="m1699 1156 3-3"/></g><g id="e9326" class="Reactome_R-HSA-8950637"  ><path    d="m302 925h-4"/></g><g id="e9917" class="Reactome_R-HSA-8950322"  ><path    d="m455 1167-4 1"/></g><g id="e9ee6" class="Reactome_R-HSA-8950314"  ><path    d="m1122 661 10-30" style="marker-end:none"/></g><g id="eb724" class="Reactome_R-HSA-8950684"  ><path    d="m1511 804 186 389" style="marker-end:none"/><g id="cc39f" class="AB" transform="translate(1511,804)"  ><g class="AB"/></g><g id="afdda" class="AB" transform="translate(1695.1 1189.1)"  ><g class="AB"/></g><g id="bde84" class="AB" transform="translate(1604,998.5)"  ><g class="AB"/></g></g><g id="d369f" class="Reactome_R-HSA-8950684"  ><path    d="m1501 834 10-30" style="marker-end:none"/></g><g id="e00f2" class="Reactome_R-HSA-8950684"  ><path    d="m1697 1193 3-4"/></g><g id="a1947" class="Reactome_R-HSA-8950684"  ><path    d="m1178 968 306 244"/></g><g id="ebbe8" class="Reactome_R-HSA-8950213"  ><path    d="m1066 968-354 362" style="marker-end:url(#markerendtbar000)"/></g><g id="ed944" class="Reactome_R-HSA-8950533"  ><path    d="m1113 525 23-151" style="marker-end:none"/><g id="e2bdb" class="AB" transform="translate(1113,525)"  ><g class="AB"/></g><g id="dc9e5" class="AB" transform="translate(1135.8 375.51)"  ><g class="AB"/></g><g id="a41f3" class="AB" transform="translate(1124.5,449.5)"  ><g class="AB"/></g></g><g id="e0326" class="Reactome_R-HSA-8950533"  ><path    d="m1103 555 10-30" style="marker-end:none"/></g><g id="dcd2b" class="Reactome_R-HSA-8950533"  ><path    d="m1136 374-14-4"/></g><g id="ee878" class="Reactome_R-HSA-8950201"  ><path    d="m1598 526 101 524" style="marker-end:none"/><g id="f45cb" class="AB" transform="translate(1598,526)"  ><g class="AB"/></g><g id="b35d6" class="AB" transform="translate(1698 1044.8)"  ><g class="AB"/></g><g id="dbc04" class="AB" transform="translate(1648.5,788)"  ><g class="AB"/></g></g><g id="bf438" class="Reactome_R-HSA-8950201"  ><path    d="m1588 556 10-30" style="marker-end:none"/></g><g id="ac264" class="Reactome_R-HSA-8950201"  ><path    d="m1178 968 412 124"/></g><g id="eebe3" class="Reactome_R-HSA-9617941"  ><path    d="m878 1646 10-30" style="marker-end:none"/></g><g id="ef0ba" class="Reactome_R-HSA-9617941"  ><path    d="m1122 991-198 589" style="marker-end:url(#markerendtbar000)"/></g><g id="ef2c0" class="Reactome_R-HSA-8950328"  ><path    d="m1218 669 10-30" style="marker-end:none"/></g><g id="ef80a" class="Reactome_R-HSA-8950190"  ><path    d="m731 1438-268-37" style="marker-end:none"/><g id="fc7bc" class="AB" transform="translate(731,1438)"  ><g class="AB"/></g><g id="b86ab" class="AB" transform="translate(465.68 1401.4)"  ><g class="AB"/></g><g id="d2ca3" class="AB" transform="translate(597,1419.5)"  ><g class="AB"/></g></g><g id="d554d" class="Reactome_R-HSA-8950190"  ><path    d="m721 1468 10-30" style="marker-end:none"/></g><g id="ba122" class="Reactome_R-HSA-8950190"  ><path    d="m463 1401-4-2"/></g><g id="e1890" class="Reactome_R-HSA-8950190"  ><path    d="m1066 968-334 445" style="marker-end:url(#markerendtbar000)"/></g><g id="f1e98" class="Reactome_R-HSA-8950533"  ><path    d="m1122 945 168-384"/></g><g id="f2fe2" class="Reactome_R-HSA-8950480"  ><path    d="m739 596-10-359" style="marker-end:none"/><g id="afb74" class="AB" transform="translate(739,596)"  ><g class="AB"/></g><g id="b54ca" class="AB" transform="translate(729.1 240.59)"  ><g class="AB"/></g><g id="fa1e5" class="AB" transform="translate(734,416.5)"  ><g class="AB"/></g></g><g id="d7fd1" class="Reactome_R-HSA-8950480"  ><path    d="m729 237v-3"/></g><g id="ac5e3" class="Reactome_R-HSA-8950480"  ><path    d="m1066 968-331-423" style="marker-end:url(#markerendtbar000)"/></g><g id="f39b5" class="Reactome_R-HSA-8950365"  ><path    d="m1533 652 169 470" style="marker-end:none"/><g id="f3abb" class="AB" transform="translate(1533,652)"  ><g class="AB"/></g><g id="e206e" class="AB" transform="translate(1700.3 1117.3)"  ><g class="AB"/></g><g id="e6590" class="AB" transform="translate(1617.5,887)"  ><g class="AB"/></g></g><g id="d417e" class="Reactome_R-HSA-8950365"  ><path    d="m1523 682 10-30" style="marker-end:none"/></g><g id="d9fff" class="Reactome_R-HSA-8950365"  ><path    d="m1702 1122 3-5"/></g><g id="d15f3" class="Reactome_R-HSA-8950365"  ><path    d="m1178 968 361 185"/></g><g id="f420d" class="Reactome_R-HSA-8950586"  ><path    d="m1122 945 249-260"/></g><g id="f439b" class="Reactome_R-HSA-9617941"  ><path    d="m975 1784 4 3"/></g><g id="f45dd" class="Reactome_R-HSA-8950567"  ><path    d="m866 466v-3"/></g><g id="f5095" class="Reactome_R-HSA-8950623"  ><path    d="m1700 1293 3 1"/></g><g id="f5b31" class="Reactome_R-HSA-8950225"  ><path    d="m727 862-425-71" style="marker-end:none"/><g id="b2a85" class="AB" transform="translate(727,862)"  ><g class="AB"/></g><g id="f5125" class="AB" transform="translate(306.25,791.71)"  ><g class="AB"/></g><g id="d1248" class="AB" transform="translate(514.5,826.5)"  ><g class="AB"/></g></g><g id="cac5c" class="Reactome_R-HSA-8950225"  ><path    d="m717 892 10-30" style="marker-end:none"/></g><g id="b9fe5" class="Reactome_R-HSA-8950225"  ><path    d="m302 791-4-7"/></g><g id="f0b31" class="Reactome_R-HSA-8950225"  ><path    d="m1066 968-343-126" style="marker-end:url(#markerendtbar000)"/></g><g id="f60ad" class="Reactome_R-HSA-8981073"  ><path    d="m1122 945-145-413"/></g><g id="f67d7" class="Reactome_R-HSA-8950771"  ><path    d="m1062 1496-1 284" style="marker-end:none"/><g id="c0328" class="AB" transform="translate(1062,1496)"  ><g class="AB"/></g><g id="f91bc" class="AB" transform="translate(1061 1777.2)"  ><g class="AB"/></g><g id="e966d" class="AB" transform="translate(1061.5,1638)"  ><g class="AB"/></g></g><g id="a1433" class="Reactome_R-HSA-8950771"  ><path    d="m1052 1526 10-30" style="marker-end:none"/></g><g id="bc5ba" class="Reactome_R-HSA-8950771"  ><path    d="m1061 1780v3"/></g><g id="c8ae1" class="Reactome_R-HSA-8950771"  ><path    d="m1122 991-61 691"/></g><g id="f6cda" class="Reactome_R-HSA-8950415"  ><path    d="m737 783-596-103" style="marker-end:none"/><g id="b3fb9" class="AB" transform="translate(737,783)"  ><g class="AB"/></g><g id="f49f9" class="AB" transform="translate(146.96 681.03)"  ><g class="AB"/></g><g id="ff013" class="AB" transform="translate(439,731.5)"  ><g class="AB"/></g></g><g id="c062e" class="Reactome_R-HSA-8950415"  ><path    d="m727 813 10-30" style="marker-end:none"/></g><g id="ec9a0" class="Reactome_R-HSA-8950415"  ><path    d="m141 680-4-7"/></g><g id="db1a9" class="Reactome_R-HSA-8950415"  ><path    d="m1066 968-341-211" style="marker-end:url(#markerendtbar000)"/></g><g id="f8563" class="Reactome_R-HSA-8950681"  ><path    d="m1122 991 287 504" style="marker-end:url(#markerendtbar000)"/></g><g id="f947a" class="Reactome_R-HSA-8950480"  ><path    d="m729 626 10-30" style="marker-end:none"/></g><g id="fad03" class="Reactome_R-HSA-8950201"  ><path    d="m1699 1050 3-5"/></g><g id="faded" class="Reactome_R-HSA-8950581"  ><path    d="m1178 968 388 156"/></g><g id="faff8" class="Reactome_R-HSA-8950260"  ><path    d="m1122 991 279 580"/></g><g id="fd0a9" class="Reactome_R-HSA-8950634"  ><path    d="m759 1628-299-38" style="marker-end:none"/><g id="aa13b" class="AB" transform="translate(759,1628)"  ><g class="AB"/></g><g id="d65f6" class="AB" transform="translate(462.99 1590.4)"  ><g class="AB"/></g><g id="b0817" class="AB" transform="translate(609.5,1609)"  ><g class="AB"/></g></g><g id="a1b9b" class="Reactome_R-HSA-8950634"  ><path    d="m749 1658 10-30" style="marker-end:none"/></g><g id="b061e" class="Reactome_R-HSA-8950634"  ><path    d="m460 1590-4-2"/></g><g id="ddf40" class="Reactome_R-HSA-8950634"  ><path    d="m1066 968-305 639" style="marker-end:url(#markerendtbar000)"/></g><g id="fdad3" class="Reactome_R-HSA-8950367"  ><path    d="m1066 968-346 59" style="marker-end:url(#markerendtbar000)"/></g><g id="fdd45" class="Reactome_R-HSA-8950218"  ><path    d="m455 1099-4-1"/></g><g id="fe409" class="Reactome_R-HSA-8950344"  ><path    d="m1700 1261h3"/></g><g id="a5309" class="GroupGroup" transform="translate(142,743)"  ><g class="GroupGroup"><g id="c4cc2" class="" transform="translate(8,8)"  ><g class=""><rect   transform="matrix(0.98 0 0 0.97 1.48 1.46)" width="185" height="115" rx="15" ry="15" stroke-width="3" style="fill:transparent;stroke:#c0c0c0"/></g></g><g id="d8790" class="Label" transform="translate(11,73)"  name="azurophil granule membrane" ><g class="Label"/><text   transform="translate(66,23.5)"    >azurophil granule membrane</text></g></g></g><g id="aec8c" class="GroupGroup" transform="translate(1011,314)"  ><g class="GroupGroup"><g id="a7392" class="" transform="translate(8,8)"  ><g class=""><rect   transform="matrix(0.98 0 0 0.97 1.48 1.46)" width="192" height="100" rx="15" ry="15" stroke-width="3" style="fill:transparent;stroke:#c0c0c0"/></g></g><g id="c4aa7" class="Label" transform="translate(11,58)"  name="cytoplasmic vesicle membrane" ><g class="Label"/><text   transform="translate(71.5,23.5)"    >cytoplasmic vesicle membrane</text></g></g></g><g id="bcedd" class="GroupGroup" transform="translate(132,881)"  ><g class="GroupGroup"><g id="baad6" class="" transform="translate(8,8)"  ><g class=""><rect   transform="matrix(0.98 0 0 0.98 1.48 1.46)" width="182" height="120" rx="15" ry="15" stroke-width="3" style="fill:transparent;stroke:#c0c0c0"/></g></g><g id="ea7a1" class="Label" transform="translate(11,78)"  name="endoplasmic reticulum membrane" ><g class="Label"/><text   transform="translate(82.5,23.5)"    >endoplasmic reticulum membrane</text></g></g></g><g id="bd337" class="GroupGroup" transform="translate(888,1754)"  ><g class="GroupGroup"><g id="af791" class="" transform="translate(8,8)"  ><g class=""><rect   transform="matrix(0.99 0 0 0.98 1.49 1.47)" width="373" height="139" rx="15" ry="15" stroke-width="3" style="fill:transparent;stroke:#c0c0c0"/></g></g><g id="fb569" class="Label" transform="translate(56,95)"  name="mitochondrial matrix" ><g class="Label"/><text   transform="translate(73.5,16.5)"    >mitochondrial matrix</text></g></g></g><g id="cdbb9" class="GroupGroup" transform="translate(1682,1329)"  ><g class="GroupGroup"><g id="c5015" class="" transform="translate(8,8)"  ><g class=""><rect   transform="matrix(0.98 0 0 0.98 1.48 1.47)" width="177" height="142" rx="15" ry="15" stroke-width="3" style="fill:transparent;stroke:#c0c0c0"/></g></g><g id="ac3d2" class="Label" transform="translate(13,103)"  name="secretory granule lumen" ><g class="Label"/><text   transform="translate(86.5,16.5)"    >secretory granule lumen</text></g></g></g><g id="e311a" class="GroupGroup" transform="translate(563,479)"  ><g class="GroupGroup"><g id="c5292" class="" transform="translate(8,8)"  ><g class=""><rect   transform="matrix(1.00 0 0 1.00 1.50 1.50)" width="1059" height="1242" rx="15" ry="15" stroke-width="3" style="fill:transparent;stroke:#c0c0c0"/></g></g><g id="fa699" class="Label" transform="translate(20,1204)"  name="nucleoplasm" ><g class="Label"/><text   transform="translate(49.5,16.5)"    >nucleoplasm</text></g></g></g><g id="ee0ba" class="GroupGroup" transform="translate(923,30)"  ><g class="GroupGroup"><g id="ef31c" class="" transform="translate(8,8)"  ><g class=""><rect   transform="matrix(1.00 0 0 0.98 1.50 1.47)" width="915" height="144" rx="15" ry="15" stroke-width="3" style="fill:transparent;stroke:#c0c0c0"/></g></g><g id="a9589" class="Label" transform="translate(27,104)"  name="extracellular exosome" ><g class="Label"/><text   transform="translate(78.5,16.5)"    >extracellular exosome</text></g></g></g><g id="f5d45" class="GroupGroup" transform="translate(123,84)"  ><g class="GroupGroup"><g id="a1f16" class="" transform="translate(8,8)"  ><g class=""><rect   transform="matrix(0.99 0 0 0.98 1.49 1.47)" width="407" height="148" rx="15" ry="15" stroke-width="3" style="fill:transparent;stroke:#c0c0c0"/></g></g><g id="fab65" class="Label" transform="translate(41,101)"  name="cell junction" ><g class="Label"/><text   transform="translate(47.5,16.5)"    >cell junction</text></g></g></g><g id="f65ce" class="GroupGroup" transform="translate(65,244)"  ><g class="GroupGroup"><g id="c990a" class="" transform="translate(8,8)"  ><g class=""><rect   transform="matrix(1.00 0 0 1.00 1.50 1.50)" width="1828" height="1695" rx="15" ry="15" stroke-width="3" style="fill:transparent;stroke:#c0c0c0"/></g></g><g id="b3cf8" class="Label" transform="translate(44,1654)"  name="cytosol" ><g class="Label"/><text   transform="translate(32,16.5)"    >cytosol</text></g></g></g><g id="a03dc" class="Protein" transform="translate(27,655)"  name="HNRNPF" ><rect   width="111" height="36"/><text   transform="translate(55.5,18)"    >HNRNPF</text></g><g id="a22ef" class="GeneProduct " transform="translate(621,1181)"  name="RPLP0 gene" ><rect   width="89" height="65"/><text   transform="translate(44.5,32.5)"    >RPLP0 gene</text></g><g id="a30e4" class="GeneProduct " transform="translate(641,594)"  name="ANXA2 gene" ><rect   width="89" height="65"/><text   transform="translate(44.5,32.5)"    >ANXA2 gene</text></g><g id="a34dc" class="Protein" transform="translate(1448,1485)"  name="LMNB1" ><rect   width="74" height="29"/><text   transform="translate(37,14.5)"    >LMNB1</text></g><g id="a3602" class="Protein" transform="translate(1700,1176)"  name="HNRNPDL" ><rect   width="94" height="27"/><text   transform="translate(47,13.5)"    >HNRNPDL</text></g><g id="a405d" class="GeneProduct " transform="translate(1401,802)"  name="HNRNPDL gene" ><rect   width="101" height="65"/><text   transform="translate(50.5,32.5)"    >HNRNPDL gene</text></g><g id="a5f15" class="Complex Reactome_R-HSA-8950759" transform="translate(1066,945)"  name="Y963-STAT4 dimer" ><g class="Complex Reactome_R-HSA-8950759"><use class="Complex Reactome_R-HSA-8950759 Node Icon" width="113" height="46" fill="#fff" stroke="#a52a2a" href="#HexagonPathVisio"/></g><g ><defs><clipPath ><rect x="-56.5" y="-23" width="113" height="46" style="stroke:none"/></clipPath></defs><text   transform="translate(56.5,23)"     style="fill:#a52a2a">Y963-STAT4 dimer</text></g></g><g id="a6105" class="Protein" transform="translate(358,997)"  name="TALDO1" ><rect   width="103" height="22"/><text   transform="translate(51.5,11)"    >TALDO1</text></g><g id="a83c0" class="GeneProduct " transform="translate(606,1115)"  name="MSN gene" ><rect   width="89" height="65"/><text   transform="translate(44.5,32.5)"    >MSN gene</text></g><g id="a94c5" class="Protein" transform="translate(1258,194)"  name="CNN2" ><rect   width="74" height="36"/><text   transform="translate(37,18)"    >CNN2</text></g><g id="aae2a" class="Protein" transform="translate(1735,1389)"  name="MIF" ><rect   width="97" height="36"/><text   transform="translate(48.5,18)"    >MIF</text></g><g id="ab179" class="GeneProduct " transform="translate(616,1352)"  name="PITPNA gene" ><rect   width="89" height="65"/><text   transform="translate(44.5,32.5)"    >PITPNA gene</text></g><g id="ad3d6" class="Protein" transform="translate(365,1087)"  name="MSN" ><rect   width="87" height="22"/><text   transform="translate(43.5,11)"    >MSN</text></g><g id="adace" class="Protein" transform="translate(1054,334)"  name="GGC-RALA" ><rect   width="136" height="37"/><text   transform="translate(68,18.5)"    >GGC-RALA</text></g><g id="aef60" class="GeneProduct " transform="translate(1061,768)"  name="HNRNPA2B1 gene" ><rect   width="94" height="65"/><text   transform="translate(47,32.5)"    >HNRNPA2B1 gene</text></g><g id="af278" class="Protein" transform="translate(350,1577)"  name="CAPZA1" ><rect   width="107" height="22"/><text   transform="translate(53.5,11)"    >CAPZA1</text></g><g id="b0b40" class="Protein" transform="translate(1705,1103)"  name="MTAP" ><rect   width="59" height="28"/><text   transform="translate(29.5,14)"    >MTAP</text></g><g id="b30e2" class="GeneProduct " transform="translate(900,579)"  name="IL10 gene" ><rect   width="66" height="51"/><text   transform="translate(33,25.5)"    >IL10 gene</text></g><g id="b3f09" class="GeneProduct " transform="translate(633,1436)"  name="PAK2 gene" ><rect   width="89" height="65"/><text   transform="translate(44.5,32.5)"    >PAK2 gene</text></g><g id="b42bc" class="GeneProduct " transform="translate(767,586)"  name="SERPINB2 gene" ><rect   width="97" height="51"/><text   transform="translate(48.5,25.5)"    >SERPINB2 gene</text></g><g id="b4973" class="GeneProduct " transform="translate(582,693)"  name="LCP1 gene" ><rect   width="89" height="65"/><text   transform="translate(44.5,32.5)"    >LCP1 gene</text></g><g id="b4dfd" class="Protein" transform="translate(1702,1142)"  name="TCP1" ><rect   width="57" height="23"/><text   transform="translate(28.5,11.5)"    >TCP1</text></g><g id="b90f5" class="Protein" transform="translate(369,1388)"  name="PAK2" ><rect   width="91" height="22"/><text   transform="translate(45.5,11)"    >PAK2</text></g><g id="bf540" class="Protein" transform="translate(1703,1247)"  name="BOLA2" ><rect   width="83" height="28"/><text   transform="translate(41.5,14)"    >BOLA2</text></g><g id="c0685" class="Protein" transform="translate(364,1482)"  name="ARF1" ><rect   width="89" height="22"/><text   transform="translate(44.5,11)"    >ARF1</text></g><g id="c4695" class="Protein" transform="translate(359,1303)"  name="PITPNA" ><rect   width="97" height="22"/><text   transform="translate(48.5,11)"    >PITPNA</text></g><g id="c599b" class="GeneProduct " transform="translate(655,1626)"  name="CAPZA1 gene" ><rect   width="95" height="65"/><text   transform="translate(47.5,32.5)"    >CAPZA1 gene</text></g><g id="c5d56" class="GeneProduct " transform="translate(964,1494)"  name="SOD1 gene" ><rect   width="89" height="65"/><text   transform="translate(44.5,32.5)"    >SOD1 gene</text></g><g id="c675b" class="GeneProduct " transform="translate(1266,1645)"  name="SNRPA1 gene" ><rect   width="95" height="65"/><text   transform="translate(47.5,32.5)"    >SNRPA1 gene</text></g><g id="c6cac" class="Protein" transform="translate(956,437)"  name="IL10" ><rect   width="34" height="22"/><text   transform="translate(17,11)"    >IL10</text></g><g id="c7e35" class="GeneProduct " transform="translate(1368,731)"  name="TCP1 gene" ><rect   width="89" height="65"/><text   transform="translate(44.5,32.5)"    >TCP1 gene</text></g><g id="c9174" class="Protein" transform="translate(1395,85)"  name="PPIA" ><rect   width="121" height="36"/><text   transform="translate(60.5,18)"    >PPIA</text></g><g id="c9bba" class="GeneProduct " transform="translate(1034,629)"  name="CNN2 gene" ><rect   width="89" height="65"/><text   transform="translate(44.5,32.5)"    >CNN2 gene</text></g><g id="c9d63" class="Protein" transform="translate(951,1787)"  name="SOD2" ><rect   width="57" height="25"/><text   transform="translate(28.5,12.5)"    >SOD2</text></g><g id="ca733" class="GeneProduct " transform="translate(629,860)"  name="RAPB1 gene" ><rect   width="89" height="65"/><text   transform="translate(44.5,32.5)"    >RAPB1 gene</text></g><g id="cc137" class="GeneProduct " transform="translate(1435,650)"  name="MTAP gene" ><rect   width="89" height="65"/><text   transform="translate(44.5,32.5)"    >MTAP gene</text></g><g id="cca61" class="Protein" transform="translate(334,174)"  name="LCP1" ><rect   width="100" height="32"/><text   transform="translate(50,16)"    >LCP1</text></g><g id="d1685" class="GeneProduct " transform="translate(1112,552)"  name="IFNG gene" ><rect   width="94" height="65"/><text   transform="translate(47,32.5)"    >IFNG gene</text></g><g id="d1a7a" class="GeneProduct " transform="translate(635,781)"  name="HNRNPF gene" ><rect   width="93" height="65"/><text   transform="translate(46.5,32.5)"    >HNRNPF gene</text></g><g id="d269b" class="Protein" transform="translate(1702,1067)"  name="CFL1" ><rect   width="52" height="22"/><text   transform="translate(26,11)"    >CFL1</text></g><g id="d287c" class="GeneProduct " transform="translate(635,959)"  name="CDC42 gene" ><rect   width="89" height="65"/><text   transform="translate(44.5,32.5)"    >CDC42 gene</text></g><g id="d2bc6" class="GeneProduct " transform="translate(1079,1604)"  name="HSP9 gene" ><rect   width="89" height="65"/><text   transform="translate(44.5,32.5)"    >HSP9 gene</text></g><g id="d37b9" class="Protein" transform="translate(172,766)"  name="RAP1B" ><rect   width="127" height="36"/><text   transform="translate(63.5,18)"    >RAP1B</text></g><g id="d383c" class="GeneProduct " transform="translate(1336,929)"  name="BOLA2 gene" ><rect   width="86" height="65"/><text   transform="translate(43,32.5)"    >BOLA2 gene</text></g><g id="d47fb" class="GeneProduct " transform="translate(1500,524)"  name="AIP gene" ><rect   width="89" height="65"/><text   transform="translate(44.5,32.5)"    >AIP gene</text></g><g id="d5080" class="Protein" transform="translate(359,1157)"  name="RPLP0" ><rect   width="93" height="22"/><text   transform="translate(46.5,11)"    >RPLP0</text></g><g id="d6557" class="Protein" transform="translate(1529,77)"  name="GSTA2" ><rect   width="95" height="50"/><text   transform="translate(47.5,25)"    >GSTA2</text></g><g id="d7fdd" class="Protein" transform="translate(1155,1792)"  name="HSPA9" ><rect   width="46" height="22"/><text   transform="translate(23,11)"    >HSPA9</text></g><g id="dac2c" class="GeneProduct " transform="translate(1224,1492)"  name="LMNB1 gene" ><rect   width="89" height="65"/><text   transform="translate(44.5,32.5)"    >LMNB1 gene</text></g><g id="db591" class="GeneProduct " transform="translate(623,1054)"  name="TALDO1 gene" ><rect   width="91" height="65"/><text   transform="translate(45.5,32.5)"    >TALDO1 gene</text></g><g id="dbea1" class="GeneProduct " transform="translate(1250,1568)"  name="PSME2 gene" ><rect   width="89" height="65"/><text   transform="translate(44.5,32.5)"    >PSME2 gene</text></g><g id="dcbba" class="GeneProduct " transform="translate(605,1271)"  name="GSTO1 gene" ><rect   width="89" height="65"/><text   transform="translate(44.5,32.5)"    >GSTO1 gene</text></g><g id="df488" class="GeneProduct " transform="translate(645,1533)"  name="ARF1 gene" ><rect   width="89" height="65"/><text   transform="translate(44.5,32.5)"    >ARF1 gene</text></g><g id="e0bf7" class="Protein" transform="translate(1702,1034)"  name="AIP" ><rect   width="29" height="22"/><text   transform="translate(14.5,11)"    >AIP</text></g><g id="e6ed7" class="Protein" transform="translate(361,1228)"  name="GSTO1" ><rect   width="99" height="22"/><text   transform="translate(49.5,11)"    >GSTO1</text></g><g id="e73d2" class="GeneProduct " transform="translate(1419,1404)"  name="MIF gene" ><rect   width="89" height="65"/><text   transform="translate(44.5,32.5)"    >MIF gene</text></g><g id="e8919" class="Protein" transform="translate(1704,1214)"  name="PDCD4" ><rect   width="84" height="24"/><text   transform="translate(42,12)"    >PDCD4</text></g><g id="e8fd1" class="GeneProduct " transform="translate(1015,523)"  name="RALA gene" ><rect   width="89" height="65"/><text   transform="translate(44.5,32.5)"    >RALA gene</text></g><g id="e95c0" class="Protein" transform="translate(835,441)"  name="SERPINB2" ><rect   width="63" height="22"/><text   transform="translate(31.5,11)"    >SERPINB2</text></g><g id="ebf29" class="Protein" transform="translate(1164,198)"  name="IFNG" ><rect   width="77" height="27"/><text   transform="translate(38.5,13.5)"    >IFNG</text></g><g id="ed442" class="Protein" transform="translate(166,900)"  name="CDC42" ><rect   width="133" height="50"/><text   transform="translate(66.5,25)"    >CDC42</text></g><g id="edb29" class="Protein" transform="translate(1703,1283)"  name="CA1" ><rect   width="83" height="22"/><text   transform="translate(41.5,11)"    >CA1</text></g><g id="f1064" class="Protein" transform="translate(1443,1631)"  name="SNRPA1" ><rect   width="89" height="36"/><text   transform="translate(44.5,18)"    >SNRPA1</text></g><g id="f15d3" class="GeneProduct " transform="translate(1222,919)"  name="CA1 gene" ><rect   width="79" height="65"/><text   transform="translate(39.5,32.5)"    >CA1 gene</text></g><g id="f1b57" class="GeneProduct " transform="translate(790,1614)"  name="SOD2 gene" ><rect   width="89" height="65"/><text   transform="translate(44.5,32.5)"    >SOD2 gene</text></g><g id="f42a0" class="Protein" transform="translate(1644,77)"  name="HNRNPA2B1" ><rect   width="95" height="50"/><text   transform="translate(47.5,25)"    >HNRNPA2B1</text></g><g id="f489f" class="Protein" transform="translate(682,184)"  name="ANXA2" ><rect   width="95" height="50"/><text   transform="translate(47.5,25)"    >ANXA2</text></g><g id="f4c62" class="GeneProduct " transform="translate(1130,637)"  name="PPIA gene" ><rect   width="89" height="65"/><text   transform="translate(44.5,32.5)"    >PPIA gene</text></g><g id="f5b5a" class="GeneProduct " transform="translate(1055,702)"  name="GSTA2 gene" ><rect   width="85" height="65"/><text   transform="translate(42.5,32.5)"    >GSTA2 gene</text></g><g id="fa98f" class="Protein" transform="translate(1451,1558)"  name="PSME2" ><rect   width="75" height="33"/><text   transform="translate(37.5,16.5)"    >PSME2</text></g><g id="fc9ab" class="Protein" transform="translate(1036,1783)"  name="SOD1" ><rect   width="50" height="40"/><text   transform="translate(25,20)"    >SOD1</text></g><g id="fd089" class="GeneProduct " transform="translate(1466,585)"  name="CFL1 gene" ><rect   width="89" height="65"/><text   transform="translate(44.5,32.5)"    >CFL1 gene</text></g><g id="fd8b9" class="GeneProduct " transform="translate(1248,832)"  name="PDCD4 gene" ><rect   width="89" height="65"/><text   transform="translate(44.5,32.5)"    >PDCD4 gene</text></g><g id="e37af" class="GroupComplex" transform="translate(38,1953)"  ><g class="GroupComplex"><use class="Icon" width="124" height="44" fill="#b4b464" fill-opacity=".1" stroke="grey" href="#Octagon"/><g id="aab6c" class="Protein" transform="translate(12,12)"  name="p-Y693-STAT4" ><rect   width="100" height="20"/><text   transform="translate(50,10)"    >p-Y693-STAT4</text></g></g></g></g></g></g></svg>