<?xml version="1.0" encoding="UTF-8"?>
<svg xmlns="http://www.w3.org/2000/svg" id="-svg" class="Diagram"  baseProfile="full" prefix="schema:http://schema.org/" preserveAspectRatio="xMidYMid"  version="1.1"><defs><g id="icon-defs"/><g id="marker-defs"><marker id="memcatalysis000" markerHeight="12" markerWidth="12" orient="auto" preserveAspectRatio="none" refX="12" refY="6" viewBox="0 0 12 12"><g id="g-memcatalysis000" transform=""><g transform="rotate(180 6 6)"><circle cx="6" cy="6" r="5.3px" fill="#fff" stroke="#000"/></g></g></marker><marker id="mea" markerHeight="12" markerWidth="12" orient="auto" preserveAspectRatio="none" refX="12" refY="6" viewBox="0 0 12 12"><g id="g-mea" transform=""><g transform="rotate(180 6 6)"><rect y="5.4" width="2" height="1.2" style="stroke:#fff"/><polygon points="12 11 0 6 12 1" stroke-width="0"/></g></g></marker><marker id="memconversion000" markerHeight="12" markerWidth="12" orient="auto" preserveAspectRatio="none" refX="12" refY="6" viewBox="0 0 12 12"><g id="g-memconversion000" transform=""><g transform="rotate(180 6 6)"><rect y="5.4" width="2" height="1.2" style="stroke:#fff"/><polygon points="12 11 0 6 12 1" stroke-width="0"/></g></g></marker><marker id="memstimulation000" markerHeight="12" markerWidth="12" orient="auto" preserveAspectRatio="none" refX="12" refY="6" viewBox="0 0 12 12"><g id="g-memstimulation000" transform=""><g transform="rotate(180 6 6)"><rect y="5.4" width="2" height="1.2" style="stroke:none"/><line x1="12" x2="12" y1="6" y2="6" fill="none"/><polygon points="0 6 11 11 11 1" fill="#fff" stroke="#000"/></g></g></marker><marker id="meac0c" markerHeight="12" markerWidth="12" orient="auto" preserveAspectRatio="none" refX="12" refY="6" viewBox="0 0 12 12"><g id="g-meac0c" transform=""><g transform="rotate(180 6 6)"><rect y="5.4" width="2" height="1.2" style="stroke:#fff"/><polygon points="12 11 0 6 12 1" fill="#c0c" stroke-width="0"/></g></g></marker></g></defs><g id="viewport-20220102143339269" class="svg-pan-zoom_viewport" transform="matrix(0.62 0 0 0.62 228.27 0)" style="transform:matrix(0.62, 0, 0, 0.62, 228.27, 0)"><style>svg.Diagram {font-family: 'Liberation Sans', Arial, sans-serif; }.Diagram path {fill: transparent;stroke: #000;marker-end: url(#mea);}.Diagram symbol path {fill: inherit;stroke: inherit;stroke-width: inherit;marker-end: inherit;}.Diagram rect {fill: #fff;stroke: #000;}.Diagram text {dominant-baseline: central;overflow: hidden;text-anchor: middle;fill: #000;font-size: 12px;}</style><style type="text/css">.Viewport .textContent {
  pointer-events: none;
  stroke-width: 0px;
}

					.Viewport.Icon {
  fill: white;
}

/* Hide the InfoBox */
.Viewport.textContent {
  font-size: 0;
}

.textContent {
  stroke: none;
}

.DataNode {
  stroke-miterlimit: 1;
  pointer-events: auto;
}

.DataNode:hover {
  cursor: pointer;
}

/* TODO should this apply to things other than DataNodes? */
.DataNode.textContent {
  pointer-events: none;
}

.DataNode.Highlighted {
  opacity: 0.6;
  stroke-width: 0px;
}

marker {
  /* this is what should work per the spec
  stroke-dasharray: none; */
  /* but I need to add this to make it work in Safari */
  stroke-dasharray: 9999999999999999999999999;
}

.Citation.Icon {
  fill: none;
  stroke-width: 0px;
}

.Citation.textContent {
  text-align: center;
  vertical-align: top;
  font-size: 7px;
  fill: #999;
  fill-opacity: 1;
  stroke: none;
}</style><g id="WP4190" class="Pathway http___identifiers_org_pw_PW_0000454 http___identifiers_org_pw_PW_0000752 http___identifiers_org_pw_PW_0002061 http___identifiers_org_pw_PW_0000454 Viewport"  name="Name: Mevalonate arm of cholesterol biosynthesis pathway Organism: Homo sapiens" ><g class="Pathway http___identifiers_org_pw_PW_0000454 http___identifiers_org_pw_PW_0000752 http___identifiers_org_pw_PW_0002061 http___identifiers_org_pw_PW_0000454 Viewport"><rect   width="1191" height="1071.7" style="stroke:none"/><g id="f283a" class="" transform="translate(22.81 242.21)"  ><g class=""><rect   width="552.65" height="797.89" rx="15" ry="15" style="fill:#9cf"/></g></g><g id="cfe78" class="" transform="translate(22 60.48)"  ><g class=""><rect   width="544.96" height="177.13" rx="15" ry="15" style="fill:#cfc"/></g></g><g id="ec3e7" class="" transform="translate(582.2 330.61)"  ><g class=""><rect   width="270.47" height="711.06" rx="15" ry="15" style="fill:#fcc"/></g></g><g id="id591e2a10" class="Edge"  ><path    d="m410.07 779.86h-266.89l-4e-14 48.62" stroke-dasharray="5,3" style="marker-end:none"/></g><g id="id1a382e3" class="Rhea_23285"  ><path    d="m305.2 684.12h45" style="marker-end:url(#memconversion000)"/><g id="d0b94" class="AB" transform="translate(323.2 684.12)"  ><g class="AB"/></g></g><g id="id152d20d3" class="Edge"  ><path    d="m434.96 572.21-111.76 111.91" style="marker-end:url(#memcatalysis000)"/></g><g id="id1f37771b" class="Edge"  ><path    d="m800.01 264.54v20h-106.83v86.67" style="marker-end:url(#memconversion000)"/><g id="c09a0" class="AB" transform="translate(693.18 306.72)"  ><g class="AB"/></g></g><g id="id20d894e2" class="Edge"  ><path    d="m143.18 959.55 3e-14 36.07"/></g><g id="id27d2726c" class="Rhea_15991"  ><path    d="m693.18 396.2-1e-13 112.23" style="marker-end:url(#memconversion000)"/><g id="a01fe" class="AB" transform="translate(693.18 448.53)"  ><g class="AB"/></g></g><g id="id28e0714e" class="Rhea_22409"  ><path    d="m402.2 696.62v20h-83v100.93" style="marker-end:url(#memconversion000)"/><g id="c9b89" class="AB" transform="translate(319.2 758.06)"  ><g class="AB"/></g><g id="c84b4" class="AB" transform="translate(319.2 737.43)"  ><g class="AB"/></g></g><g id="id2c6adaec" class="Edge"  ><path    d="m455.07 767.36v-9.30h-135.87" style="marker-end:url(#memcatalysis000)"/></g><g id="id3003d34b" class="Edge"  ><path    d="m617.1 448.12 76.07 0.41" style="marker-end:url(#memcatalysis000)"/></g><g id="id33cbd290" class="Rhea_21037"  ><path    d="m194.41 299.42h125.74" style="marker-end:url(#memconversion000)"/><g id="e2cbc" class="AB" transform="translate(260.5 299.42)"  ><g class="AB"/></g></g><g id="id399bd725" class="Edge"  ><path    d="m632.79 264.54v20h60.39v86.67" style="marker-end:url(#memconversion000)"/><g id="b0f4c" class="AB" transform="translate(693.18 307.54)"  ><g class="AB"/></g></g><g id="id3ffb3bdb" class="Rhea_10190"  ><path    d="m149.41 158.14v20h112.5v27.69" style="marker-end:url(#memconversion000)"/></g><g id="id40ac1464" class="Edge"  ><path    d="m261.61 275.75-1.11 23.67" style="marker-end:url(#memcatalysis000)"/></g><g id="id4cb00282" class="Rhea_24405"  ><path    d="m158.61 218.33h-31.7v-60.19" style="marker-end:url(#memconversion000)"/><g id="aa324" class="AB" transform="translate(126.91 200.75)"  ><g class="AB"/></g></g><g id="id5925e1c" class="Edge"  ><path    d="m149.41 133.14-46.76-21.16"/></g><g id="id5b657570" class="Rhea_22233"  ><path    d="m699.27 947.62v47.99" style="marker-end:url(#memconversion000)"/><g id="e790f" class="AB" transform="translate(699.27 982.89)"  ><g class="AB"/></g></g><g id="id63ad2963" class="Rhea_17654"  ><path    d="m274.2 947.05h-67.52" style="marker-end:url(#memconversion000)"/><g id="e4e4f" class="AB" transform="translate(238.08 947.05)"  ><g class="AB"/></g><g id="d1756" class="AB" transform="translate(224.51 947.05)"  ><g class="AB"/></g></g><g id="id15efa0e0" class="Edge"  ><path    d="m188.18 840.99h20v106.06h16.32" style="marker-end:url(#memcatalysis000)"/></g><g id="id6515dbf8" class="Rhea_22233"  ><path    d="m716.33 962.13-17.06 20.76" style="marker-end:url(#memconversion000)"/></g><g id="id751bfde7" class="Edge"  ><path    d="m260.2 396.2v22.54" style="marker-end:url(#memconversion000)"/><g id="d2d60" class="AB" transform="translate(260.2 405.22)"  ><g class="AB"/></g></g><g id="id3147d3b5" class="Edge"  ><path    d="m327.38 407.02-67.17-1.80" style="marker-end:url(#memconversion000)"/></g><g id="id815a65a9" class="Edge"  ><path    d="m468.58 715.35h18.34v22.09h-167.72" style="marker-end:url(#memcatalysis000)"/></g><g id="id84fcabc8" class="Rhea_22409"  ><path    d="m282.7 696.62v20h36.5v100.93" style="marker-end:url(#memconversion000)"/><g id="de2c0" class="AB" transform="translate(319.2 758.06)"  ><g class="AB"/></g><g id="c4d14" class="AB" transform="translate(319.2 737.43)"  ><g class="AB"/></g></g><g id="id815a65a8" class="Edge"  ><path    d="m468.58 715.35h18.34v22.09h-167.72" style="marker-end:url(#memcatalysis000)"/></g><g id="id89b291b5" class="Rhea_10189"  ><path    d="m375.14 158.14v20h-113.24v27.69" style="marker-end:url(#memconversion000)"/></g><g id="id8f3f314e" class="Rhea_17066"  ><path    d="m260.2 533.43v33" style="marker-end:url(#memconversion000)"/><g id="d59cd" class="AB" transform="translate(260.2 546.63)"  ><g class="AB"/></g></g><g id="id5363c00" class="Edge"  ><path    d="m188.18 547.04 72.02-0.40" style="marker-end:url(#memcatalysis000)"/></g><g id="id928ee42a" class="Rhea_24405"  ><path    d="m126.91 200.75-47.23-10.79" style="marker-end:url(#memconversion000)"/></g><g id="id9678638b" class="Rhea_16342"  ><path    d="m260.2 591.43v35" style="marker-end:url(#memconversion000)"/><g id="f3905" class="AB" transform="translate(260.2 605.43)"  ><g class="AB"/></g></g><g id="id9bf97ba3" class="Rhea_22673"  ><path    d="m672.77 872.16v50.46" style="marker-end:url(#memconversion000)"/><g id="a710c" class="AB" transform="translate(672.77 886.57)"  ><g class="AB"/></g></g><g id="id85ef981f" class="Edge"  ><path    d="m777.51 926.45-104.74-39.88" style="marker-end:url(#memcatalysis000)"/></g><g id="ida18c5874" class="Rhea_17654"  ><path    d="m237.7 696.62 0.37 250.43" style="marker-end:url(#memconversion000)"/></g><g id="ida5419557" class="Edge"  ><path    d="m109.32 219.69 17.58-18.93" style="marker-end:url(#memcatalysis000)"/></g><g id="idaf640fd8" class="Edge"  ><path    d="m455.07 767.36v-9.30h-135.87" style="marker-end:url(#memcatalysis000)"/></g><g id="idb17a03b4" class="Rhea_21037"  ><path    d="m194.41 145.64h125.74" style="marker-end:url(#memconversion000)"/><g id="bdff1" class="AB" transform="translate(259.98 145.64)"  ><g class="AB"/></g></g><g id="id2c7e3f1e" class="Edge"  ><path    d="m261.61 121.13-1.63 24.51" style="marker-end:url(#memcatalysis000)"/></g><g id="idb30ee13d" class="Edge"  ><path    d="m725.77 1008.1 23.96-1e-13"/></g><g id="idc4eed353" class="Edge"  ><path    d="m260.2 486.34v22.09" style="marker-end:url(#memconversion000)"/><g id="d8590" class="AB" transform="translate(260.2 495.18)"  ><g class="AB"/></g></g><g id="id65dfef4a" class="Edge"  ><path    d="m527.1 454.37-266.9 40.81" style="marker-end:url(#memcatalysis000)"/></g><g id="idc573adf0" class="Edge"  ><path    d="m149.41 286.92v-13.79h-114.3v-161.15"/></g><g id="idcb754a6f" class="Edge"  ><path    d="m364.2 947.05h186.05v-87.39h77.52" style="stroke:#c0c;marker-end:url(#memtranslocationcc00ccwhite)"/></g><g id="idcc5fc71f" class="Rhea_19362"  ><path    d="m319.2 842.55-1e-13 92.00" style="marker-end:url(#memconversion000)"/><g id="bf6d8" class="AB" transform="translate(319.2 866.67)"  ><g class="AB"/></g><g id="d77a3" class="AB" transform="translate(319.2 884.46)"  ><g class="AB"/></g><g id="e0fcd" class="AB" transform="translate(319.2 904.8)"  ><g class="AB"/></g></g><g id="id6b056337" class="Edge"  ><path    d="m455.07 792.36v92.09h-135.87" style="marker-end:url(#memcatalysis000)"/></g><g id="id93e40410" class="Edge"  ><path    d="m513.58 727.85v176.96h-194.38" style="marker-end:url(#memcatalysis000)"/></g><g id="iddd770f4c" class="Rhea_19362"  ><path    d="m260.2 696.62v20h0.27v150.05h58.73" style="marker-end:url(#memconversion000)"/></g><g id="ide2bf76f9" class="Rhea_21037"  ><path    d="m677.79 252.04h67.22" style="marker-end:url(#memconversion000)"/><g id="c9198" class="AB" transform="translate(696.9 252.04)"  ><g class="AB"/></g></g><g id="id40fb1754" class="Edge"  ><path    d="m693.18 220.73 3.72 31.31" style="marker-end:url(#memcatalysis000)"/></g><g id="ide829d69f" class="Edge"  ><path    d="m755.01 306.28-61.83 1.26" style="marker-end:url(#memcatalysis000)"/></g><g id="idf0db6c0a" class="Rhea_23733"  ><path    d="m260.2 651.43v20.18" style="marker-end:url(#memconversion000)"/><g id="b8a99" class="AB" transform="translate(260.2 659.51)"  ><g class="AB"/></g></g><g id="idf2adae01" class="Rhea_24405"  ><path    d="m153.62 383.7h-4.22v-71.78" style="marker-end:url(#memconversion000)"/><g id="e5d7b" class="AB" transform="translate(149.41 357.52)"  ><g class="AB"/></g></g><g id="id827c785c" class="Edge"  ><path    d="m103.54 364.3 45.87-6.78" style="marker-end:url(#memcatalysis000)"/></g><g id="id9fa83493" class="Rhea_24405"  ><path    d="m149.41 357.52-52.76-17.28" style="marker-end:url(#memconversion000)"/></g><g id="idf9c676ff" class="Rhea_10189"  ><path    d="m347.64 311.92v20h-87.44v39.28" style="marker-end:url(#memconversion000)"/><g id="b1280" class="AB" transform="translate(260.2 352.97)"  ><g class="AB"/></g><g id="a6f39" class="AB" transform="translate(260.2 331.92)"  ><g class="AB"/></g></g><g id="idf4d8950a" class="Edge"  ><path    d="m374.2 353.28-114-0.30" style="marker-end:url(#memcatalysis000)"/></g><g id="idf4d8e4c1" class="Rhea_10189"  ><path    d="m171.91 311.92v20h57.39 30.91" style="marker-end:url(#memconversion000)"/></g><g id="idb9d2ca59" class="Edge"  ><path    d="m260.2 450.78 67.17 2.51" style="marker-end:url(#memconversion000)"/></g><g id="id1939250d" class="Edge"  ><path    d="m225.39 409.73-25.88 4.8" style="marker-end:url(#memconversion000)"/></g><g id="idb832bf" class="Edge"  ><path    d="m630.49 958.97 15.78 7.85" style="marker-end:url(#memconversion000)"/></g><g id="d5eba" class="Label" transform="translate(1070.1 221.27)"  name="Transport" ><g class="Label"/><text   transform="translate(45,12.5)"    >Transport</text></g><g id="e387c" class="Label" transform="translate(465.94 267.68)"  name="Peroxisome" ><g class="Label"/><text   transform="translate(45,12.5)"    font-weight="bold" >Peroxisome</text></g><g id="e8589" class="Label" transform="translate(748.97 341.35)"  name="Endoplasmic  reticulum" ><g class="Label"/><text   transform="translate(49.56 14.92)"    font-weight="bold" ><tspan   x="0" y="-6.60">Endoplasmic </tspan><tspan   x="0" y="6.60">reticulum</tspan></text></g><g id="eee22" class="Label" transform="translate(728.62 75.45)"  name="Cytosol" ><g class="Label"/><text   transform="translate(45,12.5)"    font-weight="bold" >Cytosol</text></g><g id="fb950" class="Label" transform="translate(457.73 60.99)"  name="Mitochondria" ><g class="Label"/><text   transform="translate(45,12.5)"    font-weight="bold" >Mitochondria</text></g><g id="aaf7c" class="Metabolite " transform="translate(350.2 671.62)"  name="dimethylallyl-PP" ><rect   width="104" height="25" rx="15" ry="15" style="stroke:#00f"/><text   transform="translate(52,12.5)"     style="fill:#00f">dimethylallyl-PP</text></g><g id="adc87" class="Metabolite " transform="translate(327.38 400.24)"  name="NAD(P)H" ><rect   width="41.53" height="13.55" rx="15" ry="15" style="stroke:#00f"/><text   transform="translate(20.77 6.78)"     style="fill:#00f;font-size:8px">NAD(P)H</text></g><g id="bed41" class="Metabolite " transform="translate(36.14 164.97)"  name="acetoacetate" ><rect   width="87.07" height="25" rx="15" ry="15" style="stroke:#00f"/><text   transform="translate(43.54 12.5)"     style="fill:#00f">acetoacetate</text></g><g id="bf9be" class="Protein" transform="translate(755.01 926.45)"  name="FDFT1" ><rect   width="90" height="25"/><text   transform="translate(45,12.5)"    >FDFT1</text></g><g id="c0a0e" class="Protein" transform="translate(216.61 96.13)"  name="ACAT1" ><rect   width="90" height="25"/><text   transform="translate(45,12.5)"    >ACAT1</text></g><g id="cce14" class="Metabolite " transform="translate(329.45 267.43)"  name="HS-CoA" ><rect   width="41.53" height="13.55" rx="15" ry="15" style="stroke:#00f"/><text   transform="translate(20.77 6.78)"     style="fill:#00f;font-size:8px">HS-CoA</text></g><g id="d08e4" class="Metabolite " transform="translate(104.41 286.92)"  name="Acetyl-CoA" ><rect   width="90" height="25" rx="15" ry="15" style="stroke:#00f"/><text   transform="translate(45,12.5)"     style="fill:#00f">Acetyl-CoA</text></g><g id="d8013" class="Metabolite " transform="translate(588.96 952.19)"  name="NADH" ><rect   width="41.53" height="13.55" rx="15" ry="15" style="stroke:#00f"/><text   transform="translate(20.77 6.78)"     style="fill:#00f">NADH</text></g><g id="e0598" class="Protein" transform="translate(43.49 207.19)"  name="HMGCL" ><rect   width="65.83" height="25"/><text   transform="translate(32.92 12.5)"    >HMGCL</text></g><g id="e47cb" class="Pathway" transform="translate(1.33 49.45)"  name="Mitochondrial  beta-oxidation of  fatty acids" ><g class="Pathway"><rect   width="135.09" height="62.53" rx="15" ry="15" style="stroke:#14961e"/></g><g ><defs><clipPath ><rect x="-67.55" y="-31.27" width="135.09" height="62.53" style="stroke:none"/></clipPath></defs><text   transform="translate(67.55 31.27)"    font-weight="bold"  style="fill:#14961e"><tspan   x="0" y="-13.20">Mitochondrial </tspan><tspan   x="0" y="0">beta-oxidation of </tspan><tspan   x="0" y="13.20">fatty acids</tspan></text></g></g><g id="ed3ae" class="Protein" transform="translate(374.2 340.78)"  name="HMGCS1" ><rect   width="90" height="25"/><text   transform="translate(45,12.5)"    >HMGCS1</text></g><g id="f1c29" class="Protein" transform="translate(434.96 559.71)"  name="IDI1" ><rect   width="90" height="25"/><text   transform="translate(45,12.5)"    >IDI1</text></g><g id="f537e" class="Protein" transform="translate(98.18 534.54)"  name="MVK" ><rect   width="90" height="25"/><text   transform="translate(45,12.5)"    >MVK</text></g><g id="f718f" class="Pathway" transform="translate(749.73 991.78)"  name="cholesterol  synthesis" ><g class="Pathway"><rect   width="100.56" height="32.67" rx="15" ry="15" style="stroke:#14961e"/></g><g ><defs><clipPath ><rect x="-50.28" y="-16.33" width="100.56" height="32.67" style="stroke:none"/></clipPath></defs><text   transform="translate(50.28 16.33)"    font-weight="bold"  style="fill:#14961e"><tspan   x="0" y="-6.60">cholesterol </tspan><tspan   x="0" y="6.60">synthesis</tspan></text></g></g><g id="f9983" class="Metabolite " transform="translate(153.62 371.2)"  name="3-hydroxy-3-methylglutaryl-CoA" ><rect   width="213.16" height="25" rx="15" ry="15" style="stroke:#00f"/><text   transform="translate(106.58 12.5)"     style="fill:#00f">3-hydroxy-3-methylglutaryl-CoA</text></g><g id="f9d3e" class="Protein" transform="translate(468.58 702.85)"  name="FDPS" ><rect   width="90" height="25"/><text   transform="translate(45,12.5)"    >FDPS</text></g><g id="fb00b" class="Metabolite " transform="translate(320.14 286.92)"  name="acetoacetyl-CoA" ><rect   width="110" height="25" rx="15" ry="15" style="stroke:#00f"/><text   transform="translate(55,12.5)"     style="fill:#00f">acetoacetyl-CoA</text></g><g id="dfef9" class="Metabolite InChIKey_RGCJQGNQJYHPPZ-FMMSQWOCSA-I" transform="translate(215.2 418.74)"  name="mevaldyl-CoA" ><rect   width="90" height="25" rx="15" ry="15" style="stroke:#00f"/><text   transform="translate(45,12.5)"     style="fill:#00f">mevaldyl-CoA</text></g><g id="b7977" class="Metabolite " transform="translate(215.2 508.43)"  name="mevalonate" ><rect   width="90" height="25" rx="15" ry="15" style="stroke:#00f"/><text   transform="translate(45,12.5)"     style="fill:#00f">mevalonate</text></g><g id="df3ad" class="Metabolite " transform="translate(215.2 566.43)"  name="mevalonate-P" ><rect   width="90" height="25" rx="15" ry="15" style="stroke:#00f"/><text   transform="translate(45,12.5)"     style="fill:#00f">mevalonate-P</text></g><g id="f89b9" class="Metabolite " transform="translate(215.2 626.43)"  name="mevalonate-PP" ><rect   width="90" height="25" rx="15" ry="15" style="stroke:#00f"/><text   transform="translate(45,12.5)"     style="fill:#00f">mevalonate-PP</text></g><g id="aa64f" class="Metabolite " transform="translate(215.2 671.62)"  name="isopenthyl-PP" ><rect   width="90" height="25" rx="15" ry="15" style="stroke:#00f"/><text   transform="translate(45,12.5)"     style="fill:#00f">isopenthyl-PP</text></g><g id="a7f6b" class="Edge"  ><path    d="m527.1 441.87-266.9-36.65" style="marker-end:url(#memcatalysis000)"/></g><g id="bd1ff" class="Protein" transform="translate(98.18 593.47)"  name="PMVK" ><rect   width="90" height="25"/><text   transform="translate(45,12.5)"    >PMVK</text></g><g id="ed464" class="Protein" transform="translate(98.18 646.64)"  name="MVD" ><rect   width="90" height="25"/><text   transform="translate(45,12.5)"    >MVD</text></g><g id="dff75" class="Edge"  ><path    d="m188.18 605.97 72.02-0.53" style="marker-end:url(#memcatalysis000)"/></g><g id="b9cf0" class="Edge"  ><path    d="m188.18 659.14 72.02 0.36" style="marker-end:url(#memcatalysis000)"/></g><g id="f2c6d" class="Metabolite " transform="translate(274.2 817.55)"  name="geranyl-PP" ><rect   width="90" height="25" rx="15" ry="15" style="stroke:#00f"/><text   transform="translate(45,12.5)"     style="fill:#00f">geranyl-PP</text></g><g id="dc94f" class="Metabolite " transform="translate(274.2 934.55)"  name="famesyl-PP" ><rect   width="90" height="25" rx="15" ry="15" style="stroke:#00f"/><text   transform="translate(45,12.5)"     style="fill:#00f">famesyl-PP</text></g><g id="bb9d6" class="Metabolite " transform="translate(79.68 934.55)"  name="geranylgeranyl-PP" ><rect   width="127" height="25" rx="15" ry="15" style="stroke:#00f"/><text   transform="translate(63.5,12.5)"     style="fill:#00f">geranylgeranyl-PP</text></g><g id="aaecf" class="Metabolite " transform="translate(619.77 922.62)"  name="presqualene-PP" ><rect   width="106" height="25" rx="15" ry="15" style="stroke:#00f"/><text   transform="translate(53,12.5)"     style="fill:#00f">presqualene-PP</text></g><g id="f9414" class="Metabolite " transform="translate(619.77 995.62)"  name="squalene" ><rect   width="106" height="25" rx="15" ry="15" style="stroke:#00f"/><text   transform="translate(53 12.5)"     style="fill:#00f">squalene</text></g><g id="c8400" class="Pathway" transform="translate(75.14 995.62)"  name="protein prenylation" ><g class="Pathway"><rect   width="136.08" height="25" rx="15" ry="15" style="stroke:#14961e"/></g><g ><defs><clipPath ><rect x="-68.04" y="-12.5" width="136.08" height="25" style="stroke:none"/></clipPath></defs><text   transform="translate(68.04 12.5)"    font-weight="bold"  style="fill:#14961e">protein prenylation</text></g></g><g id="cb5cc" class="Protein" transform="translate(98.18 828.49)"  name="GGPS1" ><rect   width="90" height="25"/><text   transform="translate(45,12.5)"    >GGPS1</text></g><g id="c128e" class="Protein" transform="translate(434.96 584.71)"  name="IDI2" ><rect   width="90" height="25"/><text   transform="translate(45,12.5)"    >IDI2</text></g><g id="b1566" class="Protein" transform="translate(410.07 767.36)"  name="GGPS1" ><rect   width="90" height="25"/><text   transform="translate(45,12.5)"    >GGPS1</text></g><g id="b0c1e" class="Edge"  ><path    d="m777.51 951.45-78.24 31.43" style="marker-end:url(#memcatalysis000)"/></g><g id="f02af" class="Metabolite " transform="translate(627.77 847.16)"  name="famesyl-PP" ><rect   width="90" height="25" rx="15" ry="15" style="stroke:#00f"/><text   transform="translate(45,12.5)"     style="fill:#00f">famesyl-PP</text></g><g id="bebc2" class="Edge"  ><path    d="m956.44 237.46h74" style="stroke:#c0c;marker-end:url(#meac0c)"/></g><g id="be8d7" class="Label" transform="translate(346.9 15.77)"  ><g class="Label"/></g><g id="ca836" class="Edge"  ><path    d="m319.2 959.55v48.57h-107.98"/></g><g id="ded89" class="Metabolite " transform="translate(590.1 371.2)"  name="3-hydroxy-3-methylglutaryl-CoA" ><rect   width="206.15" height="25" rx="15" ry="15" style="stroke:#00f"/><text   transform="translate(103.08 12.5)"     style="fill:#00f">3-hydroxy-3-methylglutaryl-CoA</text></g><g id="d84dc" class="Metabolite " transform="translate(648.18 508.43)"  name="mevalonate" ><rect   width="90" height="25" rx="15" ry="15" style="stroke:#00f"/><text   transform="translate(45,12.5)"     style="fill:#00f">mevalonate</text></g><g id="c24ca" class="Edge"  ><path    d="m305.2 520.93 342.97 1e-13" style="stroke:#c0c;marker-end:url(#memtranslocationcc00ccwhite)"/></g><g id="c77b5" class="Metabolite " transform="translate(104.41 133.14)"  name="Acetyl-CoA" ><rect   width="90" height="25" rx="15" ry="15" style="stroke:#00f"/><text   transform="translate(45,12.5)"     style="fill:#00f">Acetyl-CoA</text></g><g id="ccc2a" class="Metabolite " transform="translate(320.14 133.14)"  name="acetoacetyl-CoA" ><rect   width="110" height="25" rx="15" ry="15" style="stroke:#00f"/><text   transform="translate(55,12.5)"     style="fill:#00f">acetoacetyl-CoA</text></g><g id="c9642" class="Metabolite " transform="translate(158.61 205.83)"  name="3-hydroxy-3-methylglutaryl-CoA" ><rect   width="206.6" height="25" rx="15" ry="15" style="stroke:#00f"/><text   transform="translate(103.3 12.5)"     style="fill:#00f">3-hydroxy-3-methylglutaryl-CoA</text></g><g id="caf19" class="Metabolite " transform="translate(587.79 239.54)"  name="Acetyl-CoA" ><rect   width="90" height="25" rx="15" ry="15" style="stroke:#00f"/><text   transform="translate(45,12.5)"     style="fill:#00f">Acetyl-CoA</text></g><g id="edf01" class="Metabolite " transform="translate(745.01 239.54)"  name="acetoacetyl-CoA" ><rect   width="110" height="25" rx="15" ry="15" style="stroke:#00f"/><text   transform="translate(55,12.5)"     style="fill:#00f">acetoacetyl-CoA</text></g><g id="e7795" class="Protein" transform="translate(216.61 250.75)"  name="ACAT1" ><rect   width="90" height="25"/><text   transform="translate(45,12.5)"    >ACAT1</text></g><g id="ccf9e" class="Metabolite " transform="translate(31.34 315.24)"  name="acetoacetate" ><rect   width="87.07" height="25" rx="15" ry="15" style="stroke:#00f"/><text   transform="translate(43.54 12.5)"     style="fill:#00f">acetoacetate</text></g><g id="b37d5" class="Protein" transform="translate(37.70 351.8)"  name="HMGCL" ><rect   width="65.83" height="25"/><text   transform="translate(32.92 12.5)"    >HMGCL</text></g><g id="d3c8b" class="Edge"  ><path    d="m171.91 133.14v-45.17h460.88v151.56" style="stroke:#c0c;marker-end:url(#memtranslocationcc00ccwhite)"/></g><g id="a42f5" class="Protein" transform="translate(648.18 195.73)"  name="ACAT2" ><rect   width="90" height="25"/><text   transform="translate(45,12.5)"    >ACAT2</text></g><g id="d4d61" class="Protein" transform="translate(755.01 293.78)"  name="HMGCS1" ><rect   width="90" height="25"/><text   transform="translate(45,12.5)"    >HMGCS1</text></g><g id="dd39d" class="Edge"  ><path    d="m755.01 306.28-61.83 0.45" style="marker-end:url(#memcatalysis000)"/></g><g id="f6e5d" class="Edge"  ><path    d="m956.44 264.75h74" style="marker-end:url(#memconversion000)"/></g><g id="b91f1" class="Edge"  ><path    d="m957.96 337.75h74" style="marker-end:url(#memcatalysis000)"/></g><g id="c9f6d" class="Edge"  ><path    d="m955.94 301.75h75" style="marker-end:url(#memstimulation000)"/></g><g id="c94a1" class=" PhysicalEntity CellularComponent Extracellular_region" transform="translate(936.46 88.29)"  ><g class=" PhysicalEntity CellularComponent Extracellular_region"><rect   width="224.5" height="263.8" rx="15" ry="15" stroke-dasharray="5,3" style="fill:transparent;stroke:#c0c0c0"/></g></g><g id="bc804" class="Label" transform="translate(1070.1 325.25)"  name="Catalysis" ><g class="Label"/><text   transform="translate(45,12.5)"    >Catalysis</text></g><g id="b06f8" class="Label" transform="translate(946.34 192.79)"  name="Pathway" ><rect   width="90" height="25" rx="15" ry="15" style="stroke:#093"/><text   transform="translate(45,12.5)"    font-weight="bold"  style="fill:#009933">Pathway</text></g><g id="df4ae" class="Label" transform="translate(1070.1 289.25)"  name="Stimulation" ><g class="Label"/><text   transform="translate(45,12.5)"    >Stimulation</text></g><g id="decf0" class="Label" transform="translate(946.34 159.39)"  name="Protein" ><rect   width="90" height="25"/><text   transform="translate(45,12.5)"    >Protein</text></g><g id="ab60a" class="Label" transform="translate(946.34 125.99)"  name="Metabolite" ><rect   width="90" height="25" rx="15" ry="15" style="stroke:#00f"/><text   transform="translate(45,12.5)"     style="fill:#00f">Metabolite</text></g><g id="a7977" class="Label" transform="translate(1070.1 252.25)"  name="Conversion" ><g class="Label"/><text   transform="translate(45,12.5)"    >Conversion</text></g><g id="f7705" class="Label" transform="translate(1003 94.48)"  name="Legend" ><g class="Label"/><text   transform="translate(45,12.5)"    font-weight="bold"  style="font-size:16px">Legend</text></g><g id="cc384" class="Protein" transform="translate(527.1 435.62)"  name="HMGCR" ><rect   width="90" height="25"/><text   transform="translate(45,12.5)"    >HMGCR</text></g><g id="d250a" class="Rhea_21037"  ><path    d="m260.5 299.42 89.71-18.44" style="marker-end:url(#memconversion000)"/></g><g id="f394b" class="Metabolite InChIKey_CWCYSIIDJAVQSK-ZCFIWIBFSA-M" transform="translate(215.2 461.34)"  name="mevaldyl" ><rect   width="90" height="25" rx="15" ry="15" style="stroke:#00f"/><text   transform="translate(45,12.5)"     style="fill:#00f">mevaldyl</text></g><g id="b8b6d" class="Edge"  ><path    d="m260.2 443.74v17.60" style="marker-end:url(#memconversion000)"/><g id="e9f4a" class="AB" transform="translate(260.2 450.78)"  ><g class="AB"/></g></g><g id="b4598" class="Edge"  ><path    d="m527.1 448.12-266.9 2.66" style="marker-end:url(#memcatalysis000)"/></g><g id="fc3ed" class="Metabolite " transform="translate(327.38 418.21)"  name="NAD(P)+" ><rect   width="41.53" height="13.55" rx="15" ry="15" style="stroke:#00f"/><text   transform="translate(20.77 6.78)"     style="fill:#00f;font-size:8px">NAD(P)+</text></g><g id="b678c" class="Edge"  ><path    d="m260.2 405.22 67.17 19.77" style="marker-end:url(#memconversion000)"/></g><g id="c3b11" class="Metabolite " transform="translate(327.38 446.52)"  name="HS-CoA" ><rect   width="41.53" height="13.55" rx="15" ry="15" style="stroke:#00f"/><text   transform="translate(20.77 6.78)"     style="fill:#00f;font-size:8px">HS-CoA</text></g><g id="bfee7" class="Edge"  ><path    d="m237.7 418.74-30.79-22.54" style="marker-end:url(#memconversion000)"/><g id="f865a" class="AB" transform="translate(225.39 409.73)"  ><g class="AB"/></g></g><g id="b85ea" class="Edge"  ><path    d="m237.7 443.74v64.69" style="marker-end:url(#memconversion000)"/><g id="b2f72" class="AB" transform="translate(237.7 454.57)"  ><g class="AB"/></g></g><g id="ad474" class="Edge"  ><path    d="m527.1 448.12-289.4 6.45" style="marker-end:url(#memcatalysis000)"/></g><g id="fb647" class="Metabolite " transform="translate(327.38 463.39)"  name="H+" ><rect   width="41.53" height="13.55" rx="15" ry="15" style="stroke:#00f"/><text   transform="translate(20.77 6.78)"     style="fill:#00f;font-size:8px">H+</text></g><g id="c6bf8" class="Edge"  ><path    d="m260.2 450.78 67.17 19.38" style="marker-end:url(#memconversion000)"/></g><g id="f615c" class="Metabolite " transform="translate(327.38 485.11)"  name="NAD(P)H" ><rect   width="41.53" height="13.55" rx="15" ry="15" style="stroke:#00f"/><text   transform="translate(20.77 6.78)"     style="fill:#00f;font-size:8px">NAD(P)H</text></g><g id="f45af" class="Metabolite " transform="translate(327.38 503.09)"  name="NAD(P)+" ><rect   width="41.53" height="13.55" rx="15" ry="15" style="stroke:#00f"/><text   transform="translate(20.77 6.78)"     style="fill:#00f;font-size:8px">NAD(P)+</text></g><g id="d0be3" class="Edge"  ><path    d="m327.38 491.89-67.17 3.29" style="marker-end:url(#memconversion000)"/></g><g id="ddbfe" class="Edge"  ><path    d="m260.2 495.18 67.17 14.68" style="marker-end:url(#memconversion000)"/></g><g id="d6755" class="Metabolite " transform="translate(157.98 407.75)"  name="H+" ><rect   width="41.53" height="13.55" rx="15" ry="15" style="stroke:#00f"/><text   transform="translate(20.77 6.78)"     style="fill:#00f;font-size:8px">H+</text></g><g id="d1a79" class="Edge"  ><path    d="m215.2 467.59v-30.10" style="marker-end:url(#memconversion000)"/><g id="a1f12" class="AB" transform="translate(215.2 455.55)"  ><g class="AB"/></g></g><g id="fcffd" class="Edge"  ><path    d="m215.2 514.68v-34.59" style="marker-end:url(#memconversion000)"/><g id="b2895" class="AB" transform="translate(215.2 500.85)"  ><g class="AB"/></g></g><g id="ed46c" class="Metabolite " transform="translate(157.98 491.94)"  name="H+" ><rect   width="41.53" height="13.55" rx="15" ry="15" style="stroke:#00f"/><text   transform="translate(20.77 6.78)"     style="fill:#00f;font-size:8px">H+</text></g><g id="c293f" class="Edge"  ><path    d="m215.2 500.85-15.69-2.13" style="marker-end:url(#memconversion000)"/></g><g id="c2732" class="Edge"  ><path    d="m434.96 597.21-111.76 86.91" style="marker-end:url(#memcatalysis000)"/></g><g id="dba95" class="Edge"  ><path    d="m646.27 947.62v47.99" style="marker-end:url(#memconversion000)"/><g id="b9087" class="AB" transform="translate(646.27 982.89)"  ><g class="AB"/></g><g id="ca99e" class="AB" transform="translate(646.27 966.82)"  ><g class="AB"/></g></g><g id="d73c1" class="Edge"  ><path    d="m755.01 945.2-108.74 21.62" style="marker-end:url(#memcatalysis000)"/></g><g id="f11bc" class="Metabolite " transform="translate(716.33 955.35)"  name="NAD(P)H" ><rect   width="41.53" height="13.55" rx="15" ry="15" style="stroke:#00f"/><text   transform="translate(20.77 6.78)"     style="fill:#00f;font-size:8px">NAD(P)H</text></g><g id="b1959" class="Metabolite " transform="translate(716.33 973.33)"  name="NAD(P)+" ><rect   width="41.53" height="13.55" rx="15" ry="15" style="stroke:#00f"/><text   transform="translate(20.77 6.78)"     style="fill:#00f;font-size:8px">NAD(P)+</text></g><g id="de91e" class="Rhea_22233"  ><path    d="m699.27 982.89 17.06-2.78" style="marker-end:url(#memconversion000)"/></g><g id="a9ec1" class="Metabolite " transform="translate(588.96 974.19)"  name="NAD+" ><rect   width="41.53" height="13.55" rx="15" ry="15" style="stroke:#00f"/><text   transform="translate(20.77 6.78)"     style="fill:#00f">NAD+</text></g><g id="f2e92" class="Edge"  ><path    d="m646.27 966.82-15.78 14.14" style="marker-end:url(#memconversion000)"/></g></g></g></g></svg>