<?xml version="1.0" encoding="UTF-8"?>
<!--
  WikiPathways page: https://www.wikipathways.org/index.php/Pathway:WP4269
  URL for this compressed file: https://github.com/eweitz/cachome/tree/main/data/WP4269.svg
  Source code for compression: https://github.com/eweitz/cachome/tree/main/src/wikipathways.py
-->
<svg id="wp4269-svg" class="Diagram" width="800" height="600" color="black" baseProfile="full" prefix="schema:http://schema.org/" preserveAspectRatio="xMidYMid" version="1.1" viewBox="0 0 1132.8 718.34" vocab="http://vocabularies.wikipathways.org/wp#" xmlns="http://www.w3.org/2000/svg" xmlns:xlink="http://www.w3.org/1999/xlink"><style>svg {font-family: 'Liberation Sans', Arial, sans-serif; }</style><defs><g id="jit-defs"><filter id="kaaviodoublefalse3filter" x="-50%" y="-50%" width="200%" height="200%"><feComposite in="SourceGraphic" in2="SourceGraphic" result="doubleDark"/><feMorphology in="doubleDark" operator="dilate" radius="0.16666666666666666" result="in2Double"/><feMorphology in="SourceGraphic" operator="dilate" radius="3" result="inDouble"/><feComposite in="inDouble" in2="in2Double" operator="out" result="doubleResult"/></filter><filter id="kaavioblackto000000filter" x="0" y="0" width="1132.8" height="718.34" filterUnits="userSpaceOnUse"><feColorMatrix in="SourceGraphic" values="-1   0   0 0 0                   0  -1   0 0 0                   0   0  -1 0 0                   0   0   0 1 0"/></filter></g><g id="jic-defs"><marker id="markerEndArrow" stroke-dasharray="99999" markerHeight="12" markerUnits="userSpaceOnUse" markerWidth="12" orient="auto" preserveAspectRatio="none" refX="12" refY="6" viewBox="0 0 12 12"><path transform="rotate(180 6 6)" d="M12 11L0 6l12-5z" fill="currentColor" stroke-width="0"/></marker><marker id="markerEndMimCatalysis" stroke-dasharray="99999" markerHeight="12" markerUnits="userSpaceOnUse" markerWidth="12" orient="auto" preserveAspectRatio="none" refX="12" refY="6" viewBox="0 0 12 12"><circle transform="rotate(180 6 6)" cx="6" cy="6" r="5.3" fill="none" stroke="#000"/></marker><marker id="markerEndMimConversion" stroke-dasharray="99999" markerHeight="12" markerUnits="userSpaceOnUse" markerWidth="12" orient="auto" preserveAspectRatio="none" refX="12" refY="6" viewBox="0 0 12 12"><path transform="rotate(180 6 6)" d="M12 11L0 6l12-5z" fill="currentColor" stroke-width="0"/></marker><marker id="markerEndMimInhibition" stroke-dasharray="99999" markerHeight="20" markerUnits="userSpaceOnUse" markerWidth="10" orient="auto" preserveAspectRatio="none" refX="10" refY="10" viewBox="0 0 10 20"><path d="m3 0v20" fill="currentColor" stroke="currentColor"/></marker><symbol id="Ellipse" overflow="visible" preserveAspectRatio="none" viewBox="0 0 50 50"><ellipse cx="25" cy="25" rx="25" ry="25" stroke="currentColor" vector-effect="non-scaling-stroke"/></symbol><symbol id="none" preserveAspectRatio="none" viewBox="0 0 100 100"/></g></defs><g id="WP4269" class="Viewport" color="black"  name="Name: Ethanol metabolism production of ROS by CYP2E1 Organism: Homo sapiens"><rect id="WP4269-icon" class="Icon" width="1132.8" height="718.34" fill="#fff" stroke="#000" stroke-width="0"/><g id="id2ee38568" class="Interaction" color="#000" ><g color="#000" fill="transparent"  filter="url(#kaavioblackto000000filter)" stroke="#000" stroke-dasharray="206.82247463604335, 5.8"><path id="id2ee38568" class="EdgeBody" d="m384.59 223.08 212.62 0.65537"   marker-end="url(#markerEndMimConversion)" /></g><g id="f411c" class="Burr Anchor" transform="translate(492.76 223.41)" ><use id="f411c-icon" class="Icon" width="0" height="0" fill="#141414" stroke-width="0" xlink:href="#none"/></g></g><g id="id12b892e9" class="Interaction" color="#000" ><g color="#000" fill="transparent"  filter="url(#kaavioblackto000000filter)" stroke="#000" stroke-dasharray="97.92848697378034, 11"><path id="id12b892e9" class="EdgeBody" d="m492.93 114.48-0.16909 108.93"   marker-end="url(#markerEndMimCatalysis)" /></g><g id="a4905" class="Burr Anchor" transform="translate(492.89 137.71)" ><use id="a4905-icon" class="Icon" width="0" height="0" fill="#141414" stroke-width="0" xlink:href="#none"/></g><g id="c3f3c" class="Burr Anchor" transform="translate(492.85 164.46)" ><use id="c3f3c-icon" class="Icon" width="0" height="0" fill="#141414" stroke-width="0" xlink:href="#none"/></g></g><g id="id414e31f8" class="DirectedInteraction" color="#000" ><g color="#000" fill="transparent"  filter="url(#kaavioblackto000000filter)" stroke="#000" stroke-dasharray="77.21532383395568, 5.8"><path id="id414e31f8" class="EdgeBody" d="m627.22 622.18h83.015"   marker-end="url(#markerEndArrow)" /></g></g><g id="id5caec415" class="DirectedInteraction" color="#000" ><g color="#000" fill="transparent"  filter="url(#kaavioblackto000000filter)" stroke="#000" stroke-dasharray="40.4173737115038, 5.8"><path id="id5caec415" class="EdgeBody" d="m492.58 310.24-1.2e-13 46.217"   marker-end="url(#markerEndArrow)" /></g><g id="ce0c2" class="Burr Anchor" transform="translate(492.58 331.1)" ><use id="ce0c2-icon" class="Icon" width="0" height="0" fill="#141414" stroke-width="0" xlink:href="#none"/></g></g><g id="id27bb48bb" class="Interaction" color="#000" ><g color="#000" fill="transparent"  filter="url(#kaavioblackto000000filter)" stroke="#000" stroke-dasharray="97.63689012571896, 7"><path id="id27bb48bb" class="EdgeBody" d="m597.21 332.2-104.63-1.0992"   marker-end="url(#markerEndMimInhibition)" /></g></g><g id="id776544f3" class="DirectedInteraction" color="#000" ><g color="#000" fill="transparent"  filter="url(#kaavioblackto000000filter)" stroke="#000" stroke-dasharray="46.53813360648544, 5.8"><path id="id776544f3" class="EdgeBody" d="m493.3 532.06-0.8866 52.331"   marker-end="url(#markerEndArrow)" /></g></g><g id="id7e4ce422" class="DirectedInteraction" color="#000" ><g color="#000" fill="transparent"  filter="url(#kaavioblackto000000filter)" stroke="#000" stroke-dasharray="518.625355636143, 5.8"><path id="id7e4ce422" class="EdgeBody" d="m755.23 609.68v-316.68h-207.74"   marker-end="url(#markerEndArrow)" /></g></g><g id="id80de374b" class="DirectedInteraction" color="#000" ><g color="#000" fill="transparent"  filter="url(#kaavioblackto000000filter)" stroke="#000" stroke-dasharray="46.53898341327132, 5.8"><path id="id80de374b" class="EdgeBody" d="m492.76 223.41-0.18246 52.339"   marker-end="url(#markerEndArrow)" /></g></g><g id="id878cd052" class="DirectedInteraction" color="#000" ><g color="#000" fill="transparent"  filter="url(#kaavioblackto000000filter)" stroke="#000" stroke-dasharray="51.872150000000104, 5.8"><path id="id878cd052" class="EdgeBody" d="m492.58 381.96v57.672"   marker-end="url(#markerEndArrow)" /></g><g id="dc4e0" class="Burr Anchor" transform="translate(492.58 408.77)" ><use id="dc4e0-icon" class="Icon" width="0" height="0" fill="#141414" stroke-width="0" xlink:href="#none"/></g></g><g id="idfa21067f" class="DirectedInteraction" color="#000" ><g color="#000" fill="transparent"  filter="url(#kaavioblackto000000filter)" stroke="#000" stroke-dasharray="36.63715103160424, 5.8"><path id="idfa21067f" class="EdgeBody" d="m492.58 464.63 0.72178 42.431"   marker-end="url(#markerEndArrow)" /></g><g id="a0fc3" class="Burr Anchor" transform="translate(492.87 481.61)" ><use id="a0fc3-icon" class="Icon" width="0" height="0" fill="#141414" stroke-width="0" xlink:href="#none"/></g></g><g id="ide66fd914" class="Interaction" color="#000" ><g color="#000" fill="transparent"  filter="url(#kaavioblackto000000filter)" stroke="#000" stroke-dasharray="97.3688352390885, 7"><path id="ide66fd914" class="EdgeBody" d="m597.21 479.26-104.34 2.3487"   marker-end="url(#markerEndMimInhibition)" /></g></g><g id="id913a690c" class="Interaction" color="#000" ><g color="#000" fill="transparent"  filter="url(#kaavioblackto000000filter)" stroke="#000" stroke-dasharray="89.34061265307345, 7"><path id="id913a690c" class="EdgeBody" d="m589.19 164.19-96.34 0.26194"   marker-end="url(#markerEndMimInhibition)" /></g></g><g id="idf0a0abbd" class="DirectedInteraction" color="#000" ><g color="#000" fill="transparent"  filter="url(#kaavioblackto000000filter)" stroke="#000" stroke-dasharray="42.65306306488287, 5.8"><path id="idf0a0abbd" class="EdgeBody" d="m333.09 540.39 0.80445 48.446"   marker-end="url(#markerEndArrow)" /></g></g><g id="iddf9c1449" class="DirectedInteraction" color="#000" ><g color="#000" fill="transparent"  filter="url(#kaavioblackto000000filter)" stroke="#000" stroke-dasharray="5.67, 3.4, 5.67, 3.4, 5.67, 3.4, 5.67, 3.4, 0, 5.8"><path id="iddf9c1449" class="EdgeBody" d="m333.09 476.68v38.715"   marker-end="url(#markerEndArrow)" /></g><g id="b0086" class="Burr Anchor" transform="translate(333.09 492.16)" ><use id="b0086-icon" class="Icon" width="0" height="0" fill="#141414" stroke-width="0" xlink:href="#none"/></g></g><g id="idfcaf8cd8" class="DirectedInteraction" color="#000" ><g color="#000" fill="transparent"  filter="url(#kaavioblackto000000filter)" stroke="#000" stroke-dasharray="5.13, 3.08, 5.13, 3.08, 5.13, 3.08, 5.13, 3.08, 5.13, 3.08, 5.13, 3.08, 5.13, 3.08, 5.13, 3.08, 5.13, 3.08, 5.13, 3.08, 5.13, 3.08, 5.13, 3.08, 5.13, 3.08, 5.13, 3.08, 5.13, 3.08, 5.13, 3.08, 5.13, 3.08, 5.13, 3.08, 5.13, 3.08, 5.13, 3.08, 5.13, 3.08, 5.13, 3.08, 5.13, 3.08, 5.13, 3.08, 5.13, 3.08, 5.13, 3.08, 5.13, 5.8"><path id="idfcaf8cd8" class="EdgeBody" d="m437.66 293h-104.58v119.59"   marker-end="url(#markerEndArrow)" /></g></g><g id="idbbf60a39" class="Interaction" color="#000" ><g color="#000" fill="transparent"  filter="url(#kaavioblackto000000filter)" stroke="#000" stroke-dasharray="89.6325464456723, 7"><path id="idbbf60a39" class="EdgeBody" d="m589.21 408.25-96.631 0.52563"   marker-end="url(#markerEndMimInhibition)" /></g></g><g id="idcd4d4dc8" class="Interaction" color="#000" ><g color="#000" fill="transparent"  filter="url(#kaavioblackto000000filter)" stroke="#000" stroke-dasharray="57.39734575794982, 7"><path id="idcd4d4dc8" class="EdgeBody" d="m268.69 492.64 64.396-0.47924"   marker-end="url(#markerEndMimInhibition)" /></g></g><g id="eeff6" class="SingleFreeNode Shape PhysicalEntity CellularComponent Nucleus" transform="translate(145.29 554.79)" color="#c0c0c0" ><g fill="transparent"  filter="url(#kaaviodoublefalse3filter)" stroke="#c0c0c0" stroke-width="3"><use id="eeff6-icon" class="Icon" transform="matrix(.97703 0 0 .91839 5.8622 5.5104)" width="510.4105302441027" height="135.04518830621146"    xlink:href="#Ellipse"/></g></g><g id="ad123" class="Label" transform="translate(447.41 609.68)" color="#000"  name="Promoter"><rect id="ad123-icon" class="Icon" transform="matrix(.98901 0 0 .96154 .49451 .48077)" width="90" height="25" fill="#fff" stroke="#000"/><text id="ad123-text" class="Text" transform="translate(45,16.5)" fill="#000"  font-size="12px" stroke="white" stroke-width="0" text-anchor="middle"><tspan x="0" y="0">Promoter</tspan></text></g><g id="b2378" class="Label" transform="translate(597.21 466.76)" color="#00c"  name="SP600125"><rect id="b2378-icon" class="Icon" transform="matrix(.98901 0 0 .96154 .49451 .48077)" width="90" height="25" fill="#fff" stroke="#00c"/><text id="b2378-text" class="Text" transform="translate(45,16.5)" fill="#00c"  font-size="12px" stroke="white" stroke-width="0" text-anchor="middle"><tspan x="0" y="0">SP600125</tspan></text></g><g id="fa192" class="Label" transform="translate(150.34 608.99)" color="#000"  name="Nucleus"><use id="fa192-icon" class="Icon" width="90" height="25" fill="transparent"  stroke="#000" stroke-width="0" xlink:href="#none"/><text id="fa192-text" class="Text" transform="translate(45,16.5)" fill="#000"  font-size="12px" stroke="white" stroke-width="0" text-anchor="middle"><tspan x="0" y="0">Nucleus</tspan></text></g><g id="fdc7e" class="Label" transform="translate(437.66 275.75)" color="#00c"  name="ROS"><rect id="fdc7e-icon" class="Icon" transform="matrix(.99098 0 0 .97183 .49549 .48591)" width="109.83" height="34.495" fill="#fff" stroke="#00c"/><text id="fdc7e-text" class="Text" transform="translate(54.914 21.247)" fill="#00c"  font-size="12px" stroke="white" stroke-width="0" text-anchor="middle"><tspan x="0" y="0">ROS</tspan></text></g><g id="cf8c1" class="GroupGroup" transform="translate(589.19 130.59)" color="grey" ><use id="cf8c1-icon" class="Icon" width="106.03377787511147" height="67.21514001474893" fill="transparent"  stroke="grey" stroke-dasharray="5,3" stroke-width="0" xlink:href="#none"/><g id="f69cd" class="Label" transform="translate(8 33.332)" color="#00c"  name="siRNA"><rect id="f69cd-icon" class="Icon" transform="matrix(.98902 0 0 .9628 .49451 .4814)" width="90.034" height="25.883" fill="#fff" stroke="#00c"/><text id="f69cd-text" class="Text" transform="translate(45.017 16.942)" fill="#00c"  font-size="12px" stroke="white" stroke-width="0" text-anchor="middle"><tspan x="0" y="0">siRNA</tspan></text></g><a id="c403d" class="ChEBI_CHEBI_4489 Metabolite  " transform="translate(8.0169 8)" color="#00f"  name="Diallyl sulfide"  ><rect id="c403d-icon" class="Icon" transform="matrix(.98901 0 0 .96154 .49451 .48077)" width="90" height="25" fill="#fff" stroke="#00f"/><text id="c403d-text" class="Text" transform="translate(45,16.5)" fill="#00f"  font-size="12px" stroke="white" stroke-width="0" text-anchor="middle"><tspan x="0" y="0">Diallyl sulfide</tspan></text></a></g><g id="d9a1e" class="GroupGroup" transform="translate(233.27 588.84)" color="grey" ><use id="d9a1e-icon" class="Icon" width="201.24362645354154" height="91" fill="transparent"  stroke="grey" stroke-dasharray="5,3" stroke-width="0" xlink:href="#none"/><g id="c6699" class="Label" transform="translate(8,33)" color="#000"  name="ARE"><rect id="c6699-icon" class="Icon" transform="matrix(.98901 0 0 .96154 .49451 .48077)" width="90" height="25" fill="#fff" stroke="#000"/><text id="c6699-text" class="Text" transform="translate(45,16.5)" fill="#000"  font-size="12px" stroke="white" stroke-width="0" text-anchor="middle"><tspan x="0" y="0">ARE</tspan></text></g><a  id="d5e7e" class="GeneProduct MAFF " transform="translate(103.24 58)"   name="MAFF"  ><rect id="d5e7e-icon" class="Icon" transform="matrix(.98901 0 0 .96154 .49451 .48077)" width="90" height="25" fill="#fff" stroke="#000"/><text id="d5e7e-text" class="Text" transform="translate(45,16.5)" fill="#000"  font-size="12px" stroke="white" stroke-width="0" text-anchor="middle"><tspan x="0" y="0">MAFF</tspan></text></a><a  id="daf7a" class="GeneProduct MAFG " transform="translate(103.24 8)"   name="MAFG"  ><rect id="daf7a-icon" class="Icon" transform="matrix(.98901 0 0 .96154 .49451 .48077)" width="90" height="25" fill="#fff" stroke="#000"/><text id="daf7a-text" class="Text" transform="translate(45,16.5)" fill="#000"  font-size="12px" stroke="white" stroke-width="0" text-anchor="middle"><tspan x="0" y="0">MAFG</tspan></text></a><a  id="f90d5" class="GeneProduct MAFK " transform="translate(103.24 33)"   name="MAFK"  ><rect id="f90d5-icon" class="Icon" transform="matrix(.98901 0 0 .96154 .49451 .48077)" width="90" height="25" fill="#fff" stroke="#000"/><text id="f90d5-text" class="Text" transform="translate(45,16.5)" fill="#000"  font-size="12px" stroke="white" stroke-width="0" text-anchor="middle"><tspan x="0" y="0">MAFK</tspan></text></a><a  id="f82e0" class="GeneProduct NFE2L2 " transform="translate(8,8)"   name="NFE2L2"  ><rect id="f82e0-icon" class="Icon" transform="matrix(.98901 0 0 .96154 .49451 .48077)" width="90" height="25" fill="#fff" stroke="#000"/><text id="f82e0-text" class="Text" transform="translate(45,16.5)" fill="#000"  font-size="12px" stroke="white" stroke-width="0" text-anchor="middle"><tspan x="0" y="0">NFE2L2</tspan></text></a></g><g id="ec3d0" class="GroupGroup" transform="translate(589.21 362.75)" color="grey" ><use id="ec3d0-icon" class="Icon" width="106" height="91" fill="transparent"  stroke="grey" stroke-dasharray="5,3" stroke-width="0" xlink:href="#none"/><g id="e4ea1" class="Label" transform="translate(8,33)" color="#00c"  name="PKCζ siRNA"><rect id="e4ea1-icon" class="Icon" transform="matrix(.98901 0 0 .96154 .49451 .48077)" width="90" height="25" fill="#fff" stroke="#00c"/><text id="e4ea1-text" class="Text" transform="translate(45,16.5)" fill="#00c"  font-size="12px" stroke="white" stroke-width="0" text-anchor="middle"><tspan x="0" y="0">PKCζ siRNA</tspan></text></g><g id="fdd8e" class="Label" transform="translate(8,58)" color="#00c"  name="PPSI"><rect id="fdd8e-icon" class="Icon" transform="matrix(.98901 0 0 .96154 .49451 .48077)" width="90" height="25" fill="#fff" stroke="#00c"/><text id="fdd8e-text" class="Text" transform="translate(45,16.5)" fill="#00c"  font-size="12px" stroke="white" stroke-width="0" text-anchor="middle"><tspan x="0" y="0">PPSI</tspan></text></g><a id="a17b6" class="ChEBI_CHEBI_57491 Metabolite  " transform="translate(8,8)" color="#00f"  name="Staurosporine"  ><rect id="a17b6-icon" class="Icon" transform="matrix(.98901 0 0 .96154 .49451 .48077)" width="90" height="25" fill="#fff" stroke="#00f"/><text id="a17b6-text" class="Text" transform="translate(45,16.5)" fill="#00f"  font-size="12px" stroke="white" stroke-width="0" text-anchor="middle"><tspan x="0" y="0">Staurosporine</tspan></text></a></g><a  id="a7834" class="GeneProduct MAPK8 " transform="translate(447.58 439.63)"   name="MAPK8"  ><rect id="a7834-icon" class="Icon" transform="matrix(.98901 0 0 .96154 .49451 .48077)" width="90" height="25" fill="#fff" stroke="#000"/><text id="a7834-text" class="Text" transform="translate(45,16.5)" fill="#000"  font-size="12px" stroke="white" stroke-width="0" text-anchor="middle"><tspan x="0" y="0">MAPK8</tspan></text></a><a  id="ac004" class="GeneProduct CYP2E1 " transform="translate(447.93 89.482)"   name="CYP2E1"  ><rect id="ac004-icon" class="Icon" transform="matrix(.98901 0 0 .96154 .49451 .48077)" width="90" height="25" fill="#fff" stroke="#000"/><text id="ac004-text" class="Text" transform="translate(45,16.5)" fill="#000"  font-size="12px" stroke="white" stroke-width="0" text-anchor="middle"><tspan x="0" y="0">CYP2E1</tspan></text></a><a id="ad039" class="ChEBI_CHEBI_15343 Metabolite  " transform="translate(597.21 211.23)" color="#00f"  name="Acetaldehyde"  ><rect id="ad039-icon" class="Icon" transform="matrix(.98901 0 0 .96154 .49451 .48077)" width="90" height="25" fill="#fff" stroke="#00f"/><text id="ad039-text" class="Text" transform="translate(45,16.5)" fill="#00f"  font-size="12px" stroke="white" stroke-width="0" text-anchor="middle"><tspan x="0" y="0">Acetaldehyde</tspan></text></a><a id="afeb5" class="ChEBI_CHEBI_16236 Metabolite  " transform="translate(294.59 210.58)" color="#00f"  name="Ethanol"  ><rect id="afeb5-icon" class="Icon" transform="matrix(.98901 0 0 .96154 .49451 .48077)" width="90" height="25" fill="#fff" stroke="#00f"/><text id="afeb5-text" class="Text" transform="translate(45,16.5)" fill="#00f"  font-size="12px" stroke="white" stroke-width="0" text-anchor="middle"><tspan x="0" y="0">Ethanol</tspan></text></a><a  id="b1495" class="GeneProduct CYP2E1 " transform="translate(710.23 609.68)"   name="CYP2E1"  ><rect id="b1495-icon" class="Icon" transform="matrix(.98901 0 0 .96154 .49451 .48077)" width="90" height="25" fill="#fff" stroke="#000"/><text id="b1495-text" class="Text" transform="translate(45,16.5)" fill="#000"  font-size="12px" stroke="white" stroke-width="0" text-anchor="middle"><tspan x="0" y="0">CYP2E1</tspan></text></a><a  id="b8192" class="GeneProduct SP1 " transform="translate(448.3 507.06)"   name="SP1"  ><rect id="b8192-icon" class="Icon" transform="matrix(.98901 0 0 .96154 .49451 .48077)" width="90" height="25" fill="#fff" stroke="#000"/><g id="db292" class="Burr State" transform="translate(77.978 12.792)" color="#000"  name="P"><use id="db292-icon" class="Icon" transform="matrix(.96007 0 0 .96066 .48004 .48033)" width="24.04421739695315" height="24.416989586406203" fill="#fff" stroke="#000" xlink:href="#Ellipse"/><text id="db292-text" class="Text" transform="translate(12.022 15.208)" fill="#000"  font-size="10px" stroke="white" stroke-width="0" text-anchor="middle"><tspan x="0" y="0">P</tspan></text></g><text id="b8192-text" class="Text" transform="translate(45,16.5)" fill="#000"  font-size="12px" stroke="white" stroke-width="0" text-anchor="middle"><tspan x="0" y="0">SP1</tspan></text></a><a id="c389b" class="ChEBI_CHEBI_38290 Metabolite  " transform="translate(597.21 319.7)" color="#00f"  name="Vitamin C"  ><rect id="c389b-icon" class="Icon" transform="matrix(.98901 0 0 .96154 .49451 .48077)" width="90" height="25" fill="#fff" stroke="#00f"/><text id="c389b-text" class="Text" transform="translate(45,16.5)" fill="#00f"  font-size="12px" stroke="white" stroke-width="0" text-anchor="middle"><tspan x="0" y="0">Vitamin C</tspan></text></a><g id="dcecc" class="Uniprot-TrEMBL_A0A087X0I9 Protein PRKCQ " transform="translate(441.08 356.46)" color="#000"  name="Protein kinase C"><rect id="dcecc-icon" class="Icon" transform="matrix(.99038 0 0 .96226 .49519 .48113)" width="103" height="25.5" fill="#fff" stroke="#000"/><text id="dcecc-text" class="Text" transform="translate(51.5,16.75)" fill="#000"  font-size="12px" stroke="white" stroke-width="0" text-anchor="middle"><tspan x="0" y="0">Protein kinase C</tspan></text></g><a id="f8955" class="ChEBI_CHEBI_90693 Metabolite  " transform="translate(178.69 480.14)" color="#00f"  name="U0126"  ><rect id="f8955-icon" class="Icon" transform="matrix(.98901 0 0 .96154 .49451 .48077)" width="90" height="25" fill="#fff" stroke="#00f"/><text id="f8955-text" class="Text" transform="translate(45,16.5)" fill="#00f"  font-size="12px" stroke="white" stroke-width="0" text-anchor="middle"><tspan x="0" y="0">U0126</tspan></text></a><a  id="fb70a" class="GeneProduct NFE2L2 " transform="translate(288.09 515.39)"   name="NFE2L2"  ><rect id="fb70a-icon" class="Icon" transform="matrix(.98901 0 0 .96154 .49451 .48077)" width="90" height="25" fill="#fff" stroke="#000"/><text id="fb70a-text" class="Text" transform="translate(45,16.5)" fill="#000"  font-size="12px" stroke="white" stroke-width="0" text-anchor="middle"><tspan x="0" y="0">NFE2L2</tspan></text></a><g id="e10d9" class="GroupGroup" transform="translate(280.09 412.58)" color="grey" ><use id="e10d9-icon" class="Icon" width="106" height="64.09461875" fill="transparent"  stroke="grey" stroke-dasharray="5,3" stroke-width="0" xlink:href="#none"/><a  id="b8398" class="GeneProduct MAP2K2 " transform="translate(8 31.095)"   name="MAP2K2"  ><rect id="b8398-icon" class="Icon" transform="matrix(.98901 0 0 .96154 .49451 .48077)" width="90" height="25" fill="#fff" stroke="#000"/><text id="b8398-text" class="Text" transform="translate(45,16.5)" fill="#000"  font-size="12px" stroke="white" stroke-width="0" text-anchor="middle"><tspan x="0" y="0">MAP2K2</tspan></text></a><a  id="e48c6" class="GeneProduct MAP2K1 " transform="translate(8,8)"   name="MAP2K1"  ><rect id="e48c6-icon" class="Icon" transform="matrix(.98901 0 0 .96154 .49451 .48077)" width="90" height="25" fill="#fff" stroke="#000"/><text id="e48c6-text" class="Text" transform="translate(45,16.5)" fill="#000"  font-size="12px" stroke="white" stroke-width="0" text-anchor="middle"><tspan x="0" y="0">MAP2K1</tspan></text></a></g><a  id="a6120" class="GeneProduct SP1 " transform="translate(447.41 584.39)"   name="SP1"  ><rect id="a6120-icon" class="Icon" transform="matrix(.98901 0 0 .96154 .49451 .48077)" width="90" height="25" fill="#fff" stroke="#000"/><text id="a6120-text" class="Text" transform="translate(45,16.5)" fill="#000"  font-size="12px" stroke="white" stroke-width="0" text-anchor="middle"><tspan x="0" y="0">SP1</tspan></text></a><a  id="df7dc" class="GeneProduct CYP2E1 " transform="translate(537.22 609.68)"   name="CYP2E1"  ><rect id="df7dc-icon" class="Icon" transform="matrix(.98901 0 0 .96154 .49451 .48077)" width="90" height="25" fill="#fff" stroke="#000"/><text id="df7dc-text" class="Text" transform="translate(45,16.5)" fill="#000"  font-size="12px" stroke="white" stroke-width="0" text-anchor="middle"><tspan x="0" y="0">CYP2E1</tspan></text></a><g id="e2654" class="Label" transform="translate(802.84 222)" color="#000"  name="Stressors converted by CYP2E1"><rect id="e2654-icon" class="Icon" transform="matrix(.99668 0 0 .96774 .49834 .48387)" width="300" height="30" fill="#fff" stroke="#000"/><text id="e2654-text" class="Text" transform="translate(150,19)" fill="#000"  font-size="12px" stroke="white" stroke-width="0" text-anchor="middle"><tspan x="0" y="0">Stressors converted by CYP2E1</tspan></text></g><g id="ebcb1" class="Label" transform="translate(952.76 321.18)" color="#00c"  name="2-Difluoromethoxy-2,2 -difluoroacetic acid"><rect id="ebcb1-icon" class="Icon" transform="matrix(.99338 0 0 .97222 .49669 .48611)" width="150" height="35" fill="#fff" stroke="#00c"/><text id="ebcb1-text" class="Text" transform="translate(75,21.5)" fill="#00c"  font-size="12px" stroke="white" stroke-width="0" text-anchor="middle"><tspan x="0" y="-6.6000000000000005">2-Difluoromethoxy-2,2</tspan> <tspan x="0" y="6.6000000000000005">-difluoroacetic acid</tspan></text></g><a id="b37e6" class="ChEBI_CHEBI_17051 Metabolite  " transform="translate(952.76 426.18)" color="#00f"  name="Fluoride"  ><rect id="b37e6-icon" class="Icon" transform="matrix(.99338 0 0 .97222 .49669 .48611)" width="150" height="35" fill="#fff" stroke="#00f"/><text id="b37e6-text" class="Text" transform="translate(75,21.5)" fill="#00f"  font-size="12px" stroke="white" stroke-width="0" text-anchor="middle"><tspan x="0" y="0">Fluoride</tspan></text></a><a id="b61ef" class="Metabolite ChEBI_CHEBI_4792  " transform="translate(802 321.18)" color="#00f"  name="Enflurane"  ><rect id="b61ef-icon" class="Icon" transform="matrix(.99338 0 0 .97222 .49669 .48611)" width="150" height="35" fill="#fff" stroke="#00f"/><text id="b61ef-text" class="Text" transform="translate(75,21.5)" fill="#00f"  font-size="12px" stroke="white" stroke-width="0" text-anchor="middle"><tspan x="0" y="0">Enflurane</tspan></text></a><a id="d94f5" class="ChEBI_CHEBI_5615 Metabolite  " transform="translate(802 391.18)" color="#00f"  name="Halothane"  ><rect id="d94f5-icon" class="Icon" transform="matrix(.99338 0 0 .97222 .49669 .48611)" width="150" height="35" fill="#fff" stroke="#00f"/><text id="d94f5-text" class="Text" transform="translate(75,21.5)" fill="#00f"  font-size="12px" stroke="white" stroke-width="0" text-anchor="middle"><tspan x="0" y="0">Halothane</tspan></text></a><a id="c4f11" class="ChEBI_CHEBI_9130 Metabolite  " transform="translate(802 426.18)" color="#00f"  name="Sevoflurane"  ><rect id="c4f11-icon" class="Icon" transform="matrix(.99338 0 0 .97222 .49669 .48611)" width="150" height="35" fill="#fff" stroke="#00f"/><text id="c4f11-text" class="Text" transform="translate(75,21.5)" fill="#00f"  font-size="12px" stroke="white" stroke-width="0" text-anchor="middle"><tspan x="0" y="0">Sevoflurane</tspan></text></a><a id="aa9a3" class="Metabolite " transform="translate(952.76 496.18)" color="#00f"  name="6-Hydroxychlorzoxazone"  ><rect id="aa9a3-icon" class="Icon" transform="matrix(.99338 0 0 .97222 .49669 .48611)" width="150" height="35" fill="#fff" stroke="#00f"/><text id="aa9a3-text" class="Text" transform="translate(75,21.5)" fill="#00f"  font-size="12px" stroke="white" stroke-width="0" text-anchor="middle"><tspan x="0" y="0">6-Hydroxychlorzoxazone</tspan></text></a><a id="cc454" class="ChEBI_CHEBI_6015 Metabolite  " transform="translate(802 356.18)" color="#00f"  name="Isoflurane"  ><rect id="cc454-icon" class="Icon" transform="matrix(.99338 0 0 .97222 .49669 .48611)" width="150" height="35" fill="#fff" stroke="#00f"/><text id="cc454-text" class="Text" transform="translate(75,21.5)" fill="#00f"  font-size="12px" stroke="white" stroke-width="0" text-anchor="middle"><tspan x="0" y="0">Isoflurane</tspan></text></a><a id="f6e8d" class="ChEBI_CHEBI_29132 Metabolite  " transform="translate(952.76 286.18)" color="#00f"  name="NAPQI"  ><rect id="f6e8d-icon" class="Icon" transform="matrix(.99338 0 0 .97222 .49669 .48611)" width="150" height="35" fill="#fff" stroke="#00f"/><text id="f6e8d-text" class="Text" transform="translate(75,21.5)" fill="#00f"  font-size="12px" stroke="white" stroke-width="0" text-anchor="middle"><tspan x="0" y="0">NAPQI</tspan></text></a><a id="c5f96" class="ChEBI_CHEBI_6843 Metabolite  " transform="translate(802 461.18)" color="#00f"  name="Methoxyflurane"  ><rect id="c5f96-icon" class="Icon" transform="matrix(.99338 0 0 .97222 .49669 .48611)" width="150" height="35" fill="#fff" stroke="#00f"/><text id="c5f96-text" class="Text" transform="translate(75,21.5)" fill="#00f"  font-size="12px" stroke="white" stroke-width="0" text-anchor="middle"><tspan x="0" y="0">Methoxyflurane</tspan></text></a><a id="f67fc" class="ChEBI_CHEBI_46195 Metabolite  " transform="translate(802 286.18)" color="#00f"  name="Acetaminophen"  ><rect id="f67fc-icon" class="Icon" transform="matrix(.99338 0 0 .97222 .49669 .48611)" width="150" height="35" fill="#fff" stroke="#00f"/><text id="f67fc-text" class="Text" transform="translate(75,21.5)" fill="#00f"  font-size="12px" stroke="white" stroke-width="0" text-anchor="middle"><tspan x="0" y="0">Acetaminophen</tspan></text></a><a id="b08fa" class="ChEBI_CHEBI_3655 Metabolite  " transform="translate(802 496.18)" color="#00f"  name="Chlorzoxazone"  ><rect id="b08fa-icon" class="Icon" transform="matrix(.99338 0 0 .97222 .49669 .48611)" width="150" height="35" fill="#fff" stroke="#00f"/><text id="b08fa-text" class="Text" transform="translate(75,21.5)" fill="#00f"  font-size="12px" stroke="white" stroke-width="0" text-anchor="middle"><tspan x="0" y="0">Chlorzoxazone</tspan></text></a><a id="ae832" class="ChEBI_CHEBI_45892 Metabolite  " transform="translate(952.76 356.18)" color="#00f"  name="Trifluoroacetic acid"  ><rect id="ae832-icon" class="Icon" transform="matrix(.99338 0 0 .97222 .49669 .48611)" width="150" height="35" fill="#fff" stroke="#00f"/><text id="ae832-text" class="Text" transform="translate(75,21.5)" fill="#00f"  font-size="12px" stroke="white" stroke-width="0" text-anchor="middle"><tspan x="0" y="0">Trifluoroacetic acid</tspan></text></a><g id="f9e05" class="Label" transform="translate(802 251.18)" color="#000"  name="Substrate"><rect id="f9e05-icon" class="Icon" transform="matrix(.99338 0 0 .97222 .49669 .48611)" width="150" height="35" fill="#fff" stroke="#000"/><text id="f9e05-text" class="Text" transform="translate(75,21.5)" fill="#000"  font-size="12px" stroke="white" stroke-width="0" text-anchor="middle"><tspan x="0" y="0">Substrate</tspan></text></g><g id="e89f4" class="Label" transform="translate(952.76 251.18)" color="#000"  name="Outcome metabolite"><rect id="e89f4-icon" class="Icon" transform="matrix(.99338 0 0 .97222 .49669 .48611)" width="150" height="35" fill="#fff" stroke="#000"/><text id="e89f4-text" class="Text" transform="translate(75,21.5)" fill="#000"  font-size="12px" stroke="white" stroke-width="0" text-anchor="middle"><tspan x="0" y="0">Outcome metabolite</tspan></text></g><a id="b32be" class="ChEBI_CHEBI_17051 Metabolite  " transform="translate(952.76 391.18)" color="#00f"  name="Fluoride"  ><rect id="b32be-icon" class="Icon" transform="matrix(.99338 0 0 .97222 .49669 .48611)" width="150" height="35" fill="#fff" stroke="#00f"/><text id="b32be-text" class="Text" transform="translate(75,21.5)" fill="#00f"  font-size="12px" stroke="white" stroke-width="0" text-anchor="middle"><tspan x="0" y="0">Fluoride</tspan></text></a><a id="f1afe" class="ChEBI_CHEBI_17051 Metabolite  " transform="translate(952.76 461.18)" color="#00f"  name="Fluoride"  ><rect id="f1afe-icon" class="Icon" transform="matrix(.99338 0 0 .97222 .49669 .48611)" width="150" height="35" fill="#fff" stroke="#00f"/><text id="f1afe-text" class="Text" transform="translate(75,21.5)" fill="#00f"  font-size="12px" stroke="white" stroke-width="0" text-anchor="middle"><tspan x="0" y="0">Fluoride</tspan></text></a><text id="WP4269-text" class="Text" transform="translate(5,27)" dominant-baseline="central" fill="black"  font-size="12px" font-weight="bold" overflow="visible" stroke="white" stroke-width="0"><tspan x="0" y="-9">Name: Ethanol metabolism production of ROS by CYP2E1</tspan> <tspan x="0" y="9">Organism: Homo sapiens</tspan></text></g></svg>
