<?xml version="1.0" encoding="UTF-8"?>
<!--
  WikiPathways page: https://www.wikipathways.org/index.php/Pathway:WP4204
  URL for this compressed file: https://github.com/eweitz/cachome/tree/main/data/WP4204.svg
  Source code for compression: https://github.com/eweitz/cachome/tree/main/src/wikipathways.py
-->
<svg id="wp4204-svg" class="Diagram" width="800" height="600" color="black" baseProfile="full" prefix="schema:http://schema.org/" preserveAspectRatio="xMidYMid" version="1.1" viewBox="0 0 1017.8 721.24" vocab="http://vocabularies.wikipathways.org/wp#" xmlns="http://www.w3.org/2000/svg" xmlns:xlink="http://www.w3.org/1999/xlink"><style>svg {font-family: 'Liberation Sans', Arial, sans-serif; }</style><defs><g id="jit-defs"><filter id="kaavioblackto000000filter" x="0" y="0" width="1017.8" height="721.24" filterUnits="userSpaceOnUse"><feColorMatrix in="SourceGraphic" values="-1   0   0 0 0                   0  -1   0 0 0                   0   0  -1 0 0                   0   0   0 1 0"/></filter></g><g id="jic-defs"><marker id="markerEndArrow" stroke-dasharray="99999" markerHeight="12" markerUnits="userSpaceOnUse" markerWidth="12" orient="auto" preserveAspectRatio="none" refX="12" refY="6" viewBox="0 0 12 12"><path transform="rotate(180 6 6)" d="M12 11L0 6l12-5z" fill="currentColor" stroke-width="0"/></marker><marker id="markerEndMimInhibition" stroke-dasharray="99999" markerHeight="20" markerUnits="userSpaceOnUse" markerWidth="10" orient="auto" preserveAspectRatio="none" refX="10" refY="10" viewBox="0 0 10 20"><path d="m3 0v20" fill="currentColor" stroke="currentColor"/></marker><marker id="markerEndMimTranscriptionTranslation" stroke-dasharray="99999" markerHeight="24" markerUnits="userSpaceOnUse" markerWidth="20" orient="auto" preserveAspectRatio="none" refX="20" refY="12" viewBox="0 0 20 24"><g transform="rotate(180 10 12)" fill="none" stroke="#000"><path d="M15 12V5M15.5 5H8M0 5l8-4v8z"/></g></marker><symbol id="Ellipse" overflow="visible" preserveAspectRatio="none" viewBox="0 0 50 50"><ellipse cx="25" cy="25" rx="25" ry="25" stroke="currentColor" vector-effect="non-scaling-stroke"/></symbol><symbol id="HexagonPathVisio" overflow="visible" preserveAspectRatio="none" viewBox="0 8 100 86"><path transform="scale(1 .85)" d="M1.42 50.996l21.073-42.14h56.191l21.067 42.14-21.067 42.145H22.493L1.42 50.996z" stroke="currentColor" vector-effect="non-scaling-stroke"/></symbol><symbol id="Octagon" overflow="visible" preserveAspectRatio="none" viewBox="0 0 100 100"><path d="M0 25L25 0h50l25 25v50l-25 25H25L0 75z" stroke="currentColor" vector-effect="non-scaling-stroke"/></symbol><symbol id="none" preserveAspectRatio="none" viewBox="0 0 100 100"/></g></defs><g id="WP4204" class="Viewport" color="black"  name="Name: Tumor suppressor activity of SMARCB1 Organism: Homo sapiens"><rect id="WP4204-icon" class="Icon" width="1017.8" height="721.24" fill="#fff" stroke="#000" stroke-width="0"/><g id="idd8c2a240" class="Interaction" color="#000" ><g color="#000" fill="transparent"  filter="url(#kaavioblackto000000filter)" stroke="#000" stroke-dasharray="43.00000000000017, 7"><path id="idd8c2a240" class="EdgeBody" d="m263.03 324.92h50"   marker-end="url(#markerEndMimInhibition)" /></g></g><g id="id438afac3" class="Interaction" color="#000" ><g color="#000" fill="transparent"  filter="url(#kaavioblackto000000filter)" stroke="#000" stroke-dasharray="5.04, 3.02, 5.04, 3.02, 5.04, 3.02, 5.04, 3.02, 5.04, 3.02, 5.04, 3.02, 5.04, 3.02, 5.04, 3.02, 5.04, 3.02, 5.04, 3.02, 5.04, 3.02, 5.04, 3.02, 5.04, 3.02, 5.04, 3.02, 5.04, 3.02, 5.04, 3.02, 5.04, 3.02, 5.04, 3.02, 5.04, 3.02, 5.04, 3.02, 5.04, 3.02, 5.04, 3.02, 5.04, 3.02, 5.04, 3.02, 5.04, 3.02, 5.04, 3.02, 5.04, 3.02, 5.04, 3.02, 5.04, 3.02, 5.04, 3.02, 5.04, 3.02, 5.04, 3.02, 5.04, 3.02, 5.04, 3.02, 5.04, 3.02, 5.04, 3.02, 5.04, 3.02, 5.04, 3.02, 5.04, 3.02, 5.04, 3.02, 5.04, 3.02, 5.04, 3.02, 0, 7"><path id="id438afac3" class="EdgeBody" d="m456.03 245.02v20h273.5v49.198"   marker-end="url(#markerEndMimInhibition)" /></g></g><g id="idf8ef186a" class="Interaction" color="#000" ><g color="#000" fill="transparent"  filter="url(#kaavioblackto000000filter)" stroke="#000" stroke-dasharray="156.55497557467697, 7"><path id="idf8ef186a" class="EdgeBody" d="m456.03 245.02v117.55h46"   marker-end="url(#markerEndMimInhibition)" /></g></g><g id="id2ead859a" class="Interaction" color="#000" ><g color="#000" fill="transparent"  filter="url(#kaavioblackto000000filter)" stroke="#000" stroke-dasharray="43.21506682867562, 7"><path id="id2ead859a" class="EdgeBody" d="m729.53 507 1e-13 50.215"   marker-end="url(#markerEndMimInhibition)" /></g></g><g id="ida9d68641" class="Interaction" color="#000" ><g color="#000" fill="transparent"  filter="url(#kaavioblackto000000filter)" stroke="#000" stroke-dasharray="285.40191435018744, 7"><path id="ida9d68641" class="EdgeBody" d="m456.03 245.02v20h-225v47.402"   marker-end="url(#markerEndMimInhibition)" /></g></g><g id="idad68cdbf" class="DirectedInteraction" color="#000" ><g color="#000" fill="transparent"  filter="url(#kaavioblackto000000filter)" stroke="#000" stroke-dasharray="64.19999999999995, 5.8"><path id="idad68cdbf" class="EdgeBody" d="m345.03 337.42v70"   marker-end="url(#markerEndArrow)" /></g></g><g id="id3da40787" class="Interaction" color="#000" ><g color="#000" fill="transparent"  filter="url(#kaavioblackto000000filter)" stroke="#000" stroke-dasharray="23.78493317132444, 7"><path id="id3da40787" class="EdgeBody" d="m729.53 451.21v30.785"   marker-end="url(#markerEndMimInhibition)" /></g></g><g id="idd833e9d4" class="DirectedInteraction" color="#000" ><g color="#000" fill="transparent"  filter="url(#kaavioblackto000000filter)" stroke="#000" stroke-dasharray="46.220029207452306, 5.8"><path id="idd833e9d4" class="EdgeBody" d="m79.618 345.07-0.24737 52.019"   marker-end="url(#markerEndArrow)" /></g></g><g id="idea47b908" class="Interaction" color="#000" ><g color="#000" fill="transparent"  filter="url(#kaavioblackto000000filter)" stroke="#000" stroke-dasharray="161.50000000000017, 11"><path id="idea47b908" class="EdgeBody" d="m313.03 427.92h-82v-90.5"   marker-end="url(#markerEndMimTranscriptionTranslation)" /></g></g><g id="ide0a01666" class="DirectedInteraction" color="#000" ><g color="#000" fill="transparent"  filter="url(#kaavioblackto000000filter)" stroke="#000" stroke-dasharray="36.77377263109328, 5.8"><path id="ide0a01666" class="EdgeBody" d="m345.03 523.42-0.77096 42.567"   marker-end="url(#markerEndArrow)" /></g></g><g id="id54ecea7d" class="Interaction" color="#000" ><g color="#000" fill="transparent"  filter="url(#kaavioblackto000000filter)" stroke="#000" stroke-dasharray="81.05183979777581, 7"><path id="id54ecea7d" class="EdgeBody" d="m534.03 375.07-0.5 88.05"   marker-end="url(#markerEndMimInhibition)" /></g></g><g id="ida4f0518b" class="Interaction" color="#000" ><g color="#000" fill="transparent"  filter="url(#kaavioblackto000000filter)" stroke="#000" stroke-dasharray="39, 7"><path id="ida4f0518b" class="EdgeBody" d="m729.53 339.21v46"   marker-end="url(#markerEndMimInhibition)" /></g></g><g id="id34f5c301" class="Interaction" color="#000" ><g color="#000" fill="transparent"  filter="url(#kaavioblackto000000filter)" stroke="#000" stroke-dasharray="444.46313883998323, 7"><path id="id34f5c301" class="EdgeBody" d="m456.03 245.02v20h-376.41l-2e-14 55.055"   marker-end="url(#markerEndMimInhibition)" /></g></g><g id="idb53f91d2" class="Interaction" color="#000" ><g color="#000" fill="transparent"  filter="url(#kaavioblackto000000filter)" stroke="#000" stroke-dasharray="44.000000000000114, 7"><path id="idb53f91d2" class="EdgeBody" d="m533.53 529.12v51"   marker-end="url(#markerEndMimInhibition)" /></g></g><g id="id13f2fe27" class="Interaction" color="#000" ><g color="#000" fill="transparent"  filter="url(#kaavioblackto000000filter)" stroke="#000" stroke-dasharray="24.72092954536565, 0"><path id="id13f2fe27" class="EdgeBody" d="m455.89 195.3 0.13973 24.721"   /></g></g><g id="id971733dd" class="Interaction" color="#000" ><g color="#000" fill="transparent"  filter="url(#kaavioblackto000000filter)" stroke="#000" stroke-dasharray="171.40191435018727, 7"><path id="id971733dd" class="EdgeBody" d="m456.03 245.02v20h-111v47.402"   marker-end="url(#markerEndMimInhibition)" /></g></g><g id="c6795" class="Label" transform="translate(488.53 580.12)" color="#000"  name="Transcription"><use id="c6795-icon" class="Icon" width="90" height="25" fill="transparent"  stroke="#000" stroke-width="0" xlink:href="#none"/><text id="c6795-text" class="Text" transform="translate(45,16.5)" fill="#000"  font-size="12px" font-weight="bold" stroke="white" stroke-width="0" text-anchor="middle"><tspan x="0" y="0">Transcription</tspan></text></g><g id="a4ebe" class="Label" transform="translate(304.53 220.02)" color="#000"  name="Chromatin remodeling / transctiptional regulation"><use id="a4ebe-icon" class="Icon" width="303" height="25" fill="transparent"  stroke="#000" stroke-width="0" xlink:href="#none"/><text id="a4ebe-text" class="Text" transform="translate(151.5,16.5)" fill="#000"  font-size="12px" font-weight="bold" stroke="white" stroke-width="0" text-anchor="middle"><tspan x="0" y="0">Chromatin remodeling / transctiptional regulation</tspan></text></g><g id="c21dc" class="Label" transform="translate(273.53 627.31)" color="#000"  name="Proliferation Apoptosis suppression"><use id="c21dc-icon" class="Icon" width="142" height="25" fill="transparent"  stroke="#000" stroke-width="0" xlink:href="#none"/><text id="c21dc-text" class="Text" transform="translate(71,16.5)" fill="#000"  font-size="12px" font-weight="bold" stroke="white" stroke-width="0" text-anchor="middle"><tspan x="0" y="-6.6000000000000005">Proliferation</tspan> <tspan x="0" y="6.6000000000000005">Apoptosis suppression</tspan></text></g><g id="fe007" class="GroupComplex" transform="translate(464.53 288.07)" color="grey" ><use id="fe007-icon" class="Icon" transform="matrix(.99342 0 0 .99 .49671 .495)" width="150.99999999999983" height="99" fill="#b4b464" fill-opacity=".1" stroke="grey" xlink:href="#Octagon"/><a  id="e2f0d" class="GeneProduct RBBP4 " transform="translate(12,37)"   name="RBBP4"  ><rect id="e2f0d-icon" class="Icon" transform="matrix(.98438 0 0 .96154 .49219 .48077)" width="63" height="25" fill="#fff" stroke="#000"/><text id="e2f0d-text" class="Text" transform="translate(31.5,16.5)" fill="#000"  font-size="12px" stroke="white" stroke-width="0" text-anchor="middle"><tspan x="0" y="0">RBBP4</tspan></text></a><a  id="c3682" class="GeneProduct SUZ12 " transform="translate(42.5 12)"   name="SUZ12"  ><rect id="c3682-icon" class="Icon" transform="matrix(.98462 0 0 .96154 .49231 .48077)" width="64" height="25" fill="#fff" stroke="#000"/><text id="c3682-text" class="Text" transform="translate(32,16.5)" fill="#000"  font-size="12px" stroke="white" stroke-width="0" text-anchor="middle"><tspan x="0" y="0">SUZ12</tspan></text></a><a  id="d3ff7" class="GeneProduct EED " transform="translate(75 37)"   name="EED"  ><rect id="d3ff7-icon" class="Icon" transform="matrix(.98462 0 0 .96154 .49231 .48077)" width="64" height="25" fill="#fff" stroke="#000"/><text id="d3ff7-text" class="Text" transform="translate(32,16.5)" fill="#000"  font-size="12px" stroke="white" stroke-width="0" text-anchor="middle"><tspan x="0" y="0">EED</tspan></text></a><a  id="ad272" class="GeneProduct EZH2 " transform="translate(37.5 62)"   name="EZH2"  ><rect id="ad272-icon" class="Icon" transform="matrix(.98462 0 0 .96154 .49231 .48077)" width="64" height="25" fill="#fff" stroke="#000"/><text id="ad272-text" class="Text" transform="translate(32,16.5)" fill="#000"  font-size="12px" stroke="white" stroke-width="0" text-anchor="middle"><tspan x="0" y="0">EZH2</tspan></text></a></g><a id="e262d" class="WikiPathways_WP428 Pathway " transform="translate(34.618 320.07)" color="#14961e"  name="Canonical  Wnt Signaling"  ><use id="e262d-icon" class="Icon" width="90" height="25" fill="transparent"  stroke="#14961e" stroke-width="0" xlink:href="#none"/><text id="e262d-text" class="Text" transform="translate(45,16.5)" fill="#14961e"  font-size="12px" font-weight="bold" stroke="black" stroke-width="0" text-anchor="middle"><tspan x="0" y="-6.6000000000000005">Canonical </tspan> <tspan x="0" y="6.6000000000000005">Wnt Signaling</tspan></text></a><g id="c3081" class="GroupComplex" transform="translate(299.39 14.296)" color="grey" ><use id="c3081-icon" class="Icon" transform="matrix(.99682 0 0 .99451 .49841 .49725)" width="312.9999999999996" height="181" fill="#b4b464" fill-opacity=".1" stroke="grey" xlink:href="#Octagon"/><a  id="d9b52" class="GeneProduct DPF1 " transform="translate(252 52)"   name="DPF1"  ><rect id="d9b52-icon" class="Icon" transform="matrix(.98 0 0 .96154 .49 .48077)" width="49" height="25" fill="#fff" stroke="#000"/><text id="d9b52-text" class="Text" transform="translate(24.5,16.5)" fill="#000"  font-size="12px" stroke="white" stroke-width="0" text-anchor="middle"><tspan x="0" y="0">DPF1</tspan></text></a><a  id="a3b88" class="GeneProduct SMARCC2 " transform="translate(72,59)"   name="SMARCC2"  ><rect id="a3b88-icon" class="Icon" transform="matrix(.98901 0 0 .96154 .49451 .48077)" width="90" height="25" fill="#fff" stroke="#000"/><text id="a3b88-text" class="Text" transform="translate(45,16.5)" fill="#000"  font-size="12px" stroke="white" stroke-width="0" text-anchor="middle"><tspan x="0" y="0">SMARCC2</tspan></text></a><a  id="d8f15" class="GeneProduct SMARCB1 " transform="translate(116 84)"   name="SMARCB1"  ><rect id="d8f15-icon" class="Icon" transform="matrix(.98901 0 0 .96154 .49451 .48077)" width="90" height="25" fill="#fff" stroke="#000"/><g id="f1ce0" class="Burr State" transform="translate(-2.8333 -5.1667)" color="#000" ><use id="f1ce0-icon" class="Icon" transform="matrix(.9375 0 0 .9375 .46875 .46875)" width="15" height="15" fill="#fff" stroke="#000" xlink:href="#HexagonPathVisio"/></g><text id="d8f15-text" class="Text" transform="translate(45,16.5)" fill="#000"  font-size="12px" stroke="white" stroke-width="0" text-anchor="middle"><tspan x="0" y="0">SMARCB1</tspan></text></a><a  id="f3a9a" class="GeneProduct ARID1A " transform="translate(207 12)"   name="ARID1A"  ><rect id="f3a9a-icon" class="Icon" transform="matrix(.98 0 0 .96154 .49 .48077)" width="49" height="25" fill="#fff" stroke="#000"/><text id="f3a9a-text" class="Text" transform="translate(24.5,16.5)" fill="#000"  font-size="12px" stroke="white" stroke-width="0" text-anchor="middle"><tspan x="0" y="0">ARID1A</tspan></text></a><a  id="dcabd" class="GeneProduct SMARCA4 " transform="translate(117 34)"   name="SMARCA4"  ><rect id="dcabd-icon" class="Icon" transform="matrix(.98901 0 0 .96154 .49451 .48077)" width="90" height="25" fill="#fff" stroke="#000"/><text id="dcabd-text" class="Text" transform="translate(45,16.5)" fill="#000"  font-size="12px" stroke="white" stroke-width="0" text-anchor="middle"><tspan x="0" y="0">SMARCA4</tspan></text></a><a  id="a715f" class="GeneProduct SMARCC1 " transform="translate(162 59)"   name="SMARCC1"  ><rect id="a715f-icon" class="Icon" transform="matrix(.98901 0 0 .96154 .49451 .48077)" width="90" height="25" fill="#fff" stroke="#000"/><text id="a715f-text" class="Text" transform="translate(45,16.5)" fill="#000"  font-size="12px" stroke="white" stroke-width="0" text-anchor="middle"><tspan x="0" y="0">SMARCC1</tspan></text></a><a  id="ff8f9" class="GeneProduct ACTL6A " transform="translate(12 44)"   name="ACTL6A"  ><rect id="ff8f9-icon" class="Icon" transform="matrix(.98361 0 0 .96154 .4918 .48077)" width="60" height="25" fill="#fff" stroke="#000"/><text id="ff8f9-text" class="Text" transform="translate(30,16.5)" fill="#000"  font-size="12px" stroke="white" stroke-width="0" text-anchor="middle"><tspan x="0" y="0">ACTL6A</tspan></text></a><a  id="d2dd0" class="GeneProduct ACTL6B " transform="translate(12,69)"   name="ACTL6B"  ><rect id="d2dd0-icon" class="Icon" transform="matrix(.98361 0 0 .96154 .4918 .48077)" width="60" height="25" fill="#fff" stroke="#000"/><text id="d2dd0-text" class="Text" transform="translate(30,16.5)" fill="#000"  font-size="12px" stroke="white" stroke-width="0" text-anchor="middle"><tspan x="0" y="0">ACTL6B</tspan></text></a><a  id="ba4be" class="GeneProduct DPF2 " transform="translate(252 77)"   name="DPF2"  ><rect id="ba4be-icon" class="Icon" transform="matrix(.98 0 0 .96154 .49 .48077)" width="49" height="25" fill="#fff" stroke="#000"/><text id="ba4be-text" class="Text" transform="translate(24.5,16.5)" fill="#000"  font-size="12px" stroke="white" stroke-width="0" text-anchor="middle"><tspan x="0" y="0">DPF2</tspan></text></a><a  id="c1619" class="GeneProduct DPF3 " transform="translate(252 102)"   name="DPF3"  ><rect id="c1619-icon" class="Icon" transform="matrix(.98 0 0 .96154 .49 .48077)" width="49" height="25" fill="#fff" stroke="#000"/><text id="c1619-text" class="Text" transform="translate(24.5,16.5)" fill="#000"  font-size="12px" stroke="white" stroke-width="0" text-anchor="middle"><tspan x="0" y="0">DPF3</tspan></text></a><a  id="ebb0e" class="GeneProduct SMARCE1 " transform="translate(186 108)"   name="SMARCE1"  ><rect id="ebb0e-icon" class="Icon" transform="matrix(.98485 0 0 .96154 .49242 .48077)" width="65" height="25" fill="#fff" stroke="#000"/><text id="ebb0e-text" class="Text" transform="translate(32.5,16.5)" fill="#000"  font-size="12px" stroke="white" stroke-width="0" text-anchor="middle"><tspan x="0" y="0">SMARCE1</tspan></text></a><a  id="b2b03" class="GeneProduct SMARCD1 " transform="translate(54,94)"   name="SMARCD1"  ><rect id="b2b03-icon" class="Icon" transform="matrix(.98485 0 0 .96154 .49242 .48077)" width="65" height="25" fill="#fff" stroke="#000"/><text id="b2b03-text" class="Text" transform="translate(32.5,16.5)" fill="#000"  font-size="12px" stroke="white" stroke-width="0" text-anchor="middle"><tspan x="0" y="0">SMARCD1</tspan></text></a><a  id="f8ca9" class="GeneProduct SMARCD2 " transform="translate(54 119)"   name="SMARCD2"  ><rect id="f8ca9-icon" class="Icon" transform="matrix(.98485 0 0 .96154 .49242 .48077)" width="65" height="25" fill="#fff" stroke="#000"/><text id="f8ca9-text" class="Text" transform="translate(32.5,16.5)" fill="#000"  font-size="12px" stroke="white" stroke-width="0" text-anchor="middle"><tspan x="0" y="0">SMARCD2</tspan></text></a><a  id="b7144" class="GeneProduct SMARCD3 " transform="translate(54,144)"   name="SMARCD3"  ><rect id="b7144-icon" class="Icon" transform="matrix(.98485 0 0 .96154 .49242 .48077)" width="65" height="25" fill="#fff" stroke="#000"/><text id="b7144-text" class="Text" transform="translate(32.5,16.5)" fill="#000"  font-size="12px" stroke="white" stroke-width="0" text-anchor="middle"><tspan x="0" y="0">SMARCD3</tspan></text></a><a  id="f89b2" class="GeneProduct ARID1B " transform="translate(208 37)"   name="ARID1B"  ><rect id="f89b2-icon" class="Icon" transform="matrix(.98 0 0 .96154 .49 .48077)" width="49" height="25" fill="#fff" stroke="#000"/><text id="f89b2-text" class="Text" transform="translate(24.5,16.5)" fill="#000"  font-size="12px" stroke="white" stroke-width="0" text-anchor="middle"><tspan x="0" y="0">ARID1B</tspan></text></a></g><a  id="efc7d" class="GeneProduct PTCH1 " transform="translate(199.03 312.42)"   name="PTCH1"  ><rect id="efc7d-icon" class="Icon" transform="matrix(.98462 0 0 .96154 .49231 .48077)" width="64" height="25" fill="#fff" stroke="#000"/><text id="efc7d-text" class="Text" transform="translate(32,16.5)" fill="#000"  font-size="12px" stroke="white" stroke-width="0" text-anchor="middle"><tspan x="0" y="0">PTCH1</tspan></text></a><a  id="a636e" class="GeneProduct RB1 " transform="translate(704.03 482)"   name="RB1"  ><rect id="a636e-icon" class="Icon" transform="matrix(.98077 0 0 .96154 .49038 .48077)" width="51" height="25" fill="#fff" stroke="#000"/><text id="a636e-text" class="Text" transform="translate(25.5,16.5)" fill="#000"  font-size="12px" stroke="white" stroke-width="0" text-anchor="middle"><tspan x="0" y="0">RB1</tspan></text></a><a  id="f9b8c" class="GeneProduct SMO " transform="translate(313.03 312.42)"   name="SMO"  ><rect id="f9b8c-icon" class="Icon" transform="matrix(.98462 0 0 .96154 .49231 .48077)" width="64" height="25" fill="#fff" stroke="#000"/><text id="f9b8c-text" class="Text" transform="translate(32,16.5)" fill="#000"  font-size="12px" stroke="white" stroke-width="0" text-anchor="middle"><tspan x="0" y="0">SMO</tspan></text></a><g id="b46bd" class="GroupGroup" transform="translate(305.03 407.42)" color="grey" ><use id="b46bd-icon" class="Icon" width="80" height="115.99999999999994" fill="transparent"  stroke="grey" stroke-dasharray="5,3" stroke-width="0" xlink:href="#none"/><a  id="c582c" class="GeneProduct GLI1 " transform="translate(8,8)"   name="GLI1"  ><rect id="c582c-icon" class="Icon" transform="matrix(.98462 0 0 .96154 .49231 .48077)" width="64" height="25" fill="#fff" stroke="#000"/><text id="c582c-text" class="Text" transform="translate(32,16.5)" fill="#000"  font-size="12px" stroke="white" stroke-width="0" text-anchor="middle"><tspan x="0" y="0">GLI1</tspan></text></a><a  id="e3b42" class="GeneProduct GLI2 " transform="translate(8,33)"   name="GLI2"  ><rect id="e3b42-icon" class="Icon" transform="matrix(.98462 0 0 .96154 .49231 .48077)" width="64" height="25" fill="#fff" stroke="#000"/><text id="e3b42-text" class="Text" transform="translate(32,16.5)" fill="#000"  font-size="12px" stroke="white" stroke-width="0" text-anchor="middle"><tspan x="0" y="0">GLI2</tspan></text></a><a  id="d8b22" class="GeneProduct GLI3 " transform="translate(8,58)"   name="GLI3"  ><rect id="d8b22-icon" class="Icon" transform="matrix(.98462 0 0 .96154 .49231 .48077)" width="64" height="25" fill="#fff" stroke="#000"/><text id="d8b22-text" class="Text" transform="translate(32,16.5)" fill="#000"  font-size="12px" stroke="white" stroke-width="0" text-anchor="middle"><tspan x="0" y="0">GLI3</tspan></text></a><a  id="cbfac" class="GeneProduct GLI4 " transform="translate(8,83)"   name="GLI4"  ><rect id="cbfac-icon" class="Icon" transform="matrix(.98462 0 0 .96154 .49231 .48077)" width="64" height="25" fill="#fff" stroke="#000"/><text id="cbfac-text" class="Text" transform="translate(32,16.5)" fill="#000"  font-size="12px" stroke="white" stroke-width="0" text-anchor="middle"><tspan x="0" y="0">GLI4</tspan></text></a></g><a id="c4a7f" class="WikiPathways_WP4249 Pathway " transform="translate(259.75 666.24)" color="#14961e"  name="Hedgehog Signaling"  ><use id="c4a7f-icon" class="Icon" width="176" height="25" fill="transparent"  stroke="#14961e" stroke-width="0" xlink:href="#none"/><text id="c4a7f-text" class="Text" transform="translate(88,16.5)" fill="#14961e"  font-size="12px" font-weight="bold" stroke="black" stroke-width="0" text-anchor="middle"><tspan x="0" y="0">Hedgehog Signaling</tspan></text></a><g id="e0a18" class="Pathway" transform="translate(466.53 615.62)" color="#14961e"  name="Polycomb pathway"><use id="e0a18-icon" class="Icon" width="134" height="25" fill="transparent"  stroke="#14961e" stroke-width="0" xlink:href="#none"/><text id="e0a18-text" class="Text" transform="translate(67,16.5)" fill="#14961e"  font-size="12px" font-weight="bold" stroke="black" stroke-width="0" text-anchor="middle"><tspan x="0" y="0">Polycomb pathway</tspan></text></g><g id="f361a" class="GroupGroup" transform="translate(493.53 463.12)" color="grey" ><use id="f361a-icon" class="Icon" width="80" height="66" fill="transparent"  stroke="grey" stroke-dasharray="5,3" stroke-width="0" xlink:href="#none"/><a  id="ff45a" class="GeneProduct H3F3B " transform="translate(8,33)"   name="H3F3B"  ><rect id="ff45a-icon" class="Icon" transform="matrix(.98462 0 0 .96154 .49231 .48077)" width="64" height="25" fill="#fff" stroke="#000"/><g id="c2179" class="Burr State" transform="translate(52.95 8.0614)" color="#000"  name="Me"><use id="c2179-icon" class="Icon" transform="matrix(.95238 0 0 .95238 .47619 .47619)" width="20" height="20" fill="#fff" stroke="#000" xlink:href="#Ellipse"/><text id="c2179-text" class="Text" transform="translate(10,13)" fill="#000"  font-size="10px" stroke="white" stroke-width="0" text-anchor="middle"><tspan x="0" y="0">Me</tspan></text></g><text id="ff45a-text" class="Text" transform="translate(32,16.5)" fill="#000"  font-size="12px" stroke="white" stroke-width="0" text-anchor="middle"><tspan x="0" y="0">H3F3B</tspan></text></a><a  id="eba37" class="GeneProduct H3F3A " transform="translate(8,8)"   name="H3F3A"  ><rect id="eba37-icon" class="Icon" transform="matrix(.98462 0 0 .96154 .49231 .48077)" width="64" height="25" fill="#fff" stroke="#000"/><g id="d7505" class="Burr State" transform="translate(52.785 -5.3044)" color="#000"  name="Me"><use id="d7505-icon" class="Icon" transform="matrix(.95238 0 0 .95238 .47619 .47619)" width="20" height="20" fill="#fff" stroke="#000" xlink:href="#Ellipse"/><text id="d7505-text" class="Text" transform="translate(10,13)" fill="#000"  font-size="10px" stroke="white" stroke-width="0" text-anchor="middle"><tspan x="0" y="0">Me</tspan></text></g><text id="eba37-text" class="Text" transform="translate(32,16.5)" fill="#000"  font-size="12px" stroke="white" stroke-width="0" text-anchor="middle"><tspan x="0" y="0">H3F3A</tspan></text></a></g><a id="f75a5" class="WikiPathways_WP179 Pathway " transform="translate(662.53 596.14)" color="#14961e"  name="Cell Cycle"  ><use id="f75a5-icon" class="Icon" width="134" height="25" fill="transparent"  stroke="#14961e" stroke-width="0" xlink:href="#none"/><text id="f75a5-text" class="Text" transform="translate(67,16.5)" fill="#14961e"  font-size="12px" font-weight="bold" stroke="black" stroke-width="0" text-anchor="middle"><tspan x="0" y="0">Cell Cycle</tspan></text></a><a  id="d3d30" class="GeneProduct CDKN2A " transform="translate(697.53 314.21)"   name="CDKN2A"  ><rect id="d3d30-icon" class="Icon" transform="matrix(.98462 0 0 .96154 .49231 .48077)" width="64" height="25" fill="#fff" stroke="#000"/><text id="d3d30-text" class="Text" transform="translate(32,16.5)" fill="#000"  font-size="12px" stroke="white" stroke-width="0" text-anchor="middle"><tspan x="0" y="0">CDKN2A</tspan></text></a><g id="f5682" class="GroupGroup" transform="translate(689.53 385.21)" color="grey" ><use id="f5682-icon" class="Icon" width="80" height="66" fill="transparent"  stroke="grey" stroke-dasharray="5,3" stroke-width="0" xlink:href="#none"/><a  id="ebf8b" class="GeneProduct CDK4 " transform="translate(8,8)"   name="CDK4"  ><rect id="ebf8b-icon" class="Icon" transform="matrix(.98462 0 0 .96154 .49231 .48077)" width="64" height="25" fill="#fff" stroke="#000"/><text id="ebf8b-text" class="Text" transform="translate(32,16.5)" fill="#000"  font-size="12px" stroke="white" stroke-width="0" text-anchor="middle"><tspan x="0" y="0">CDK4</tspan></text></a><a  id="bd873" class="GeneProduct CDK6 " transform="translate(8,33)"   name="CDK6"  ><rect id="bd873-icon" class="Icon" transform="matrix(.98462 0 0 .96154 .49231 .48077)" width="64" height="25" fill="#fff" stroke="#000"/><text id="bd873-text" class="Text" transform="translate(32,16.5)" fill="#000"  font-size="12px" stroke="white" stroke-width="0" text-anchor="middle"><tspan x="0" y="0">CDK6</tspan></text></a></g><g id="e28db" class="Label" transform="translate(674.53 557.21)" color="#000"  name="G0/G1 transition"><use id="e28db-icon" class="Icon" width="110" height="25" fill="transparent"  stroke="#000" stroke-width="0" xlink:href="#none"/><text id="e28db-text" class="Text" transform="translate(55,16.5)" fill="#000"  font-size="12px" font-weight="bold" stroke="white" stroke-width="0" text-anchor="middle"><tspan x="0" y="0">G0/G1 transition</tspan></text></g><g id="a9540" class="Label" transform="translate(34.371 397.09)" color="#000"  name="Transcription"><use id="a9540-icon" class="Icon" width="90" height="25" fill="transparent"  stroke="#000" stroke-width="0" xlink:href="#none"/><text id="a9540-text" class="Text" transform="translate(45,16.5)" fill="#000"  font-size="12px" font-weight="bold" stroke="white" stroke-width="0" text-anchor="middle"><tspan x="0" y="0">Transcription</tspan></text></g><g id="a7f3c" class="Label" transform="translate(299.26 565.99)" color="#000"  name="Transcription"><use id="a7f3c-icon" class="Icon" width="90" height="25" fill="transparent"  stroke="#000" stroke-width="0" xlink:href="#none"/><text id="a7f3c-text" class="Text" transform="translate(45,16.5)" fill="#000"  font-size="12px" font-weight="bold" stroke="white" stroke-width="0" text-anchor="middle"><tspan x="0" y="0">Transcription</tspan></text></g><g id="f9982" class="DirectedInteraction" color="#000" ><g color="#000" fill="transparent"  filter="url(#kaavioblackto000000filter)" stroke="#000" stroke-dasharray="30.527293178382973, 5.8"><path id="f9982" class="EdgeBody" d="m344.26 590.99 0.27096 36.326"   marker-end="url(#markerEndArrow)" /></g></g><g id="bcbb4" class="SingleFreeNode Shape" transform="translate(741.53 67.075)" color="#000" ><use id="bcbb4-icon" class="Icon" transform="matrix(.95746 0 0 .95746 .47873 .47873)" width="22.504690431519705" height="22.50469043151969" fill="transparent"  stroke="#000" xlink:href="#HexagonPathVisio"/></g><g id="d748d" class="SingleFreeNode Shape" transform="translate(719.01 38.238)" color="#000"  name="Legend"><rect id="d748d-icon" class="Icon" transform="matrix(.99521 0 0 .98531 .4976 .49266)" width="207.66" height="67.096" fill="transparent"  stroke="#000"/><text id="d748d-text" class="Text" transform="translate(8 18.6)" fill="#000"  font-size="12px" font-weight="bold" stroke="white" stroke-width="0"><tspan x="0" y="0">Legend</tspan></text></g><g id="b7536" class="Label" transform="translate(774.07 64.566)" color="#000"  name="Inactivating mutation"><use id="b7536-icon" class="Icon" width="142.56097560975616" height="25" fill="transparent"  stroke="#000" stroke-width="0" xlink:href="#none"/><text id="b7536-text" class="Text" transform="translate(71.28 16.5)" fill="#000"  font-size="12px" font-weight="bold" stroke="white" stroke-width="0" text-anchor="middle"><tspan x="0" y="0">Inactivating mutation</tspan></text></g><text id="WP4204-text" class="Text" transform="translate(5,27)" dominant-baseline="central" fill="black"  font-size="12px" font-weight="bold" overflow="visible" stroke="white" stroke-width="0"><tspan x="0" y="-9">Name: Tumor suppressor activity of SMARCB1</tspan> <tspan x="0" y="9">Organism: Homo sapiens</tspan></text></g></svg>
