<?xml version="1.0" encoding="UTF-8"?>
<svg xmlns="http://www.w3.org/2000/svg" id="-svg" class="Diagram"  baseProfile="full" prefix="schema:http://schema.org/" preserveAspectRatio="xMidYMid"  version="1.1"><defs><g id="icon-defs"><symbol id="Ellipse" class=" Icon Ellipse" x="0" y="0" overflow="visible" preserveAspectRatio="none" viewBox="0 0 50 50"><desc>Ellipse</desc><ellipse cx="25" cy="25" rx="25" ry="25" vector-effect="non-scaling-stroke"/></symbol><symbol id="Octagon" class=" Icon Octagon" x="0" y="0" overflow="visible" preserveAspectRatio="none" viewBox="0 0 100 100"><desc>Octagon</desc><path d="m0 25 25-25h50l25 25v50l-25 25h-50l-25-25z" vector-effect="non-scaling-stroke"/></symbol></g><g id="marker-defs"><marker id="memmodification000" markerHeight="12" markerWidth="12" orient="auto" preserveAspectRatio="none" refX="12" refY="6" viewBox="0 0 12 12"><g id="g-memmodification000" transform=""><g transform="rotate(180 6 6)"><rect y="5.4" width="2" height="1.2" style="stroke:#fff"/><polygon points="0 6 11 11 11 1" stroke-width="0"/></g></g></marker><marker id="mea" markerHeight="12" markerWidth="12" orient="auto" preserveAspectRatio="none" refX="12" refY="6" viewBox="0 0 12 12"><g id="g-mea" transform=""><g transform="rotate(180 6 6)"><rect y="5.4" width="2" height="1.2" style="stroke:#fff"/><polygon points="12 11 0 6 12 1" stroke-width="0"/></g></g></marker><marker id="memcatalysis000" markerHeight="12" markerWidth="12" orient="auto" preserveAspectRatio="none" refX="12" refY="6" viewBox="0 0 12 12"><g id="g-memcatalysis000" transform=""><g transform="rotate(180 6 6)"><circle cx="6" cy="6" r="5.3px" fill="#fff" stroke="#000"/></g></g></marker><marker id="meminhibition000" markerHeight="20" markerWidth="10" orient="auto" preserveAspectRatio="none" refX="10" refY="10" viewBox="0 0 10 20"><g id="g-meminhibition000" transform=""><g transform="rotate(180 5 10)"><rect y="9" width="8" height="2" style="stroke:none"/><line x="0" y="0" width="12" height="12" x1="7" x2="7" y2="20" stroke="#000" stroke-width="1.8"/></g></g></marker></g></defs><g id="viewport-20220102143440590" class="svg-pan-zoom_viewport" transform="matrix(1.24 0 0 1.24 106.26 0)" style="transform:matrix(1.24, 0, 0, 1.24, 106.26, 0)"><style>svg.Diagram {font-family: 'Liberation Sans', Arial, sans-serif; }.Diagram path {fill: transparent;stroke: #000;marker-end: url(#mea);}.Diagram symbol path {fill: inherit;stroke: inherit;stroke-width: inherit;marker-end: inherit;}.Diagram rect {fill: #fff;stroke: #000;}.Diagram text {dominant-baseline: central;overflow: hidden;text-anchor: middle;fill: #000;font-size: 12px;}</style><style type="text/css">.Viewport .textContent {
  pointer-events: none;
  stroke-width: 0px;
}

					.Viewport.Icon {
  fill: white;
}

/* Hide the InfoBox */
.Viewport.textContent {
  font-size: 0;
}

.textContent {
  stroke: none;
}

.DataNode {
  stroke-miterlimit: 1;
  pointer-events: auto;
}

.DataNode:hover {
  cursor: pointer;
}

/* TODO should this apply to things other than DataNodes? */
.DataNode.textContent {
  pointer-events: none;
}

.DataNode.Highlighted {
  opacity: 0.6;
  stroke-width: 0px;
}

marker {
  /* this is what should work per the spec
  stroke-dasharray: none; */
  /* but I need to add this to make it work in Safari */
  stroke-dasharray: 9999999999999999999999999;
}

.Citation.Icon {
  fill: none;
  stroke-width: 0px;
}

.Citation.textContent {
  text-align: center;
  vertical-align: top;
  font-size: 7px;
  fill: #999;
  fill-opacity: 1;
  stroke: none;
}</style><g id="WP4240" class="Pathway http___identifiers_org_pw_PW_0000086 Viewport"  name="Name: Regulation of sister chromatid separation at the metaphase-anaphase transition Organism: Homo sapiens" ><g class="Pathway http___identifiers_org_pw_PW_0000086 Viewport"><rect   width="798" height="577" style="stroke:none"/><g id="id399c0f7f" class="Edge"  ><path    d="m703 403h34v-84.5" style="marker-end:url(#memmodification000)"/></g><g id="id43df681c" class="Edge"  ><path    d="m434 453.5v62"/></g><g id="idf0666743" class="Edge"  ><path    d="m525 403h115"/><g id="e2540" class="AB" transform="translate(568.57 403)"  ><g class="AB"/></g></g><g id="idf95bd9a0" class="Edge"  ><path    d="m238 358-2 205h333l-0.43-160" style="marker-end:url(#memcatalysis000)"/></g><g id="id7b1ab357" class="Edge"  ><path    d="m706 256.5v-45.5"/></g><g id="idcbcc0cf5" class="Edge"  ><path    d="m417.5 311.5 0.75 117"/><g id="f3f25" class="AB" transform="translate(417.8 358.3)"  ><g class="AB"/></g></g><g id="idfa797d66" class="Edge"  ><path    d="m182.26 265.84-0.26 42.66" style="marker-end:url(#meminhibition000)"/></g><g id="id73072d11" class="Edge"  ><path    d="m238 358 179.8 0.3" style="marker-end:url(#memcatalysis000)"/></g><g id="a36d6" class="Label" transform="translate(374,515.5)"  name="Ubiquitin-mediated degradation" ><g class="Label"/><text   transform="translate(60,15.75)"    font-weight="bold" ><tspan   x="0" y="-6.60">Ubiquitin-mediated</tspan><tspan   x="0" y="6.60">degradation</tspan></text></g><g id="e3d9f" class="Label" transform="translate(112,133)"  name="Spindle checkpoint ON" ><g class="Label"/><text   transform="translate(64,10)"    font-weight="bold"  style="font-size:10px">Spindle checkpoint ON</text></g><g id="pvjsgeneratedidfece9" class="GroupGroup" transform="translate(89,68.5)"  ><g class="GroupGroup"><g id="d7172" class="Label" transform="translate(8,23.5)"  name="Chromosomes attach to spindle" ><g class="Label"/><text   transform="translate(84.5,10)"    font-weight="bold"  style="font-size:10px">Chromosomes attach to spindle</text></g><g id="c002d" class="Label" transform="translate(27,8)"  name="Prometaphase" ><g class="Label"/><text   transform="translate(60,12.25)"    font-weight="bold" >Prometaphase</text></g></g></g><g id="pvjsgeneratedidfecea" class="GroupGroup" transform="translate(349,67.5)"  ><g class="GroupGroup"><g id="d0449" class="Label" transform="translate(11,22.5)"  name="Chromosomes align" ><g class="Label"/><text   transform="translate(56.5,10)"    font-weight="bold"  style="font-size:10px">Chromosomes align</text></g><g id="ede63" class="Label" transform="translate(8,8)"  name="Metaphase" ><g class="Label"/><text   transform="translate(60,12.25)"    font-weight="bold" >Metaphase</text></g></g></g><g id="b18ae" class="GroupComplex" transform="translate(126,308.5)"  ><g class="GroupComplex"><use class="Icon" width="112" height="99" fill="#b4b464" fill-opacity=".1" stroke="grey" href="#Octagon"/><g id="e552f" class="GeneProduct " transform="translate(40,12)"  name="CDC20" ><rect   width="60" height="25"/><text   transform="translate(30,12.5)"    >CDC20</text></g><g id="b3e8b" class="GeneProduct " transform="translate(12,37)"  name="ANAPC2" ><rect   width="60" height="25"/><text   transform="translate(30,12.5)"    >ANAPC2</text></g><g id="f743f" class="GeneProduct " transform="translate(12,62)"  name="ANAPC11" ><rect   width="60" height="25"/><text   transform="translate(30,12.5)"    >ANAPC11</text></g></g></g><g id="be752" class="GroupComplex" transform="translate(632,256.5)"  ><g class="GroupComplex"><use class="Icon" width="148" height="74" fill="#b4b464" fill-opacity=".1" stroke="grey" href="#Octagon"/><g id="ea8de" class="GeneProduct " transform="translate(12,12)"  name="SMC1A" ><rect   width="62" height="25"/><text   transform="translate(31,12.5)"    >SMC1A</text></g><g id="d2924" class="GeneProduct " transform="translate(12,37)"  name="SMC3" ><rect   width="62" height="25"/><text   transform="translate(31,12.5)"    >SMC3</text></g><g id="fcb47" class="GeneProduct " transform="translate(74,37)"  name="RAD21" ><rect   width="62" height="25"/><text   transform="translate(31,12.5)"    >RAD21</text></g><g id="a83ee" class="GeneProduct " transform="translate(74,12)"  name="STAG1" ><rect   width="62" height="25"/><text   transform="translate(31,12.5)"    >STAG1</text></g></g></g><g id="c70e8" class="GroupComplex" transform="translate(374,237.5)"  ><g class="GroupComplex"><use class="Icon" width="87" height="74" fill="#b4b464" fill-opacity=".1" stroke="grey" href="#Octagon"/><g id="c4e29" class="GeneProduct " transform="translate(12,12)"  name="ESPL1" ><rect   width="63" height="25"/><g id="f5d99" class="State Burr" transform="translate(55.5,-5.5)"  name="P" ><g class="State Burr"><use class="State Burr Node Icon" width="15" height="15" fill="#fff" stroke="#000" href="#Ellipse"/></g><g ><defs><clipPath ><rect x="-7.5" y="-7.5" width="15" height="15" style="stroke:none"/></clipPath></defs><text   transform="translate(7.5,7.5)"  font-family="arial" overflow="visible" style="font-size:10px">P</text></g></g><text   transform="translate(31.5,12.5)"    >ESPL1</text></g><g id="f4452" class="GeneProduct " transform="translate(12,37)"  name="PTTG1" ><rect   width="63" height="25"/><text   transform="translate(31.5,12.5)"    >PTTG1</text></g></g></g><g id="ed2e2" class="GroupGroup" transform="translate(110 174.84)"  ><g class="GroupGroup"><g id="a6d12" class="GeneProduct " transform="translate(8,8)"  name="MAD1L1" ><rect   width="64.26" height="25"/><text   transform="translate(32.13 12.5)"    >MAD1L1</text></g><g id="d5230" class="GeneProduct " transform="translate(8,33)"  name="MAD2L1" ><rect   width="64.26" height="25"/><text   transform="translate(32.13 12.5)"    >MAD2L1</text></g><g id="eb9e2" class="GeneProduct " transform="translate(72.26 8)"  name="BUB1" ><rect   width="64.26" height="25"/><text   transform="translate(32.13 12.5)"    >BUB1</text></g><g id="e8e62" class="GeneProduct " transform="translate(72.26 33)"  name="BUB1B" ><rect   width="64.26" height="25"/><text   transform="translate(32.13 12.5)"    >BUB1B</text></g><g id="e4f22" class="GeneProduct " transform="translate(72.26 58)"  name="BUB3" ><rect   width="64.26" height="25"/><text   transform="translate(32.13 12.5)"    >BUB3</text></g><g id="faec9" class="GeneProduct " transform="translate(8,58)"  name="CENPE" ><rect   width="64.26" height="25"/><text   transform="translate(32.13 12.5)"    >CENPE</text></g></g></g><g id="d2042" class="GeneProduct " transform="translate(640,390.5)"  name="ESPL1" ><rect   width="63" height="25"/><text   transform="translate(31.5,12.5)"    >ESPL1</text></g><g id="cc4a3" class="GeneProduct " transform="translate(402.5,428.5)"  name="PTTG1" ><rect   width="63" height="25"/><g id="cb304" class="State Burr" transform="translate(54.5,16.5)"  name="Ub" ><g class="State Burr"><use class="State Burr Node Icon" width="17" height="17" fill="#fff" stroke="#000" href="#Ellipse"/></g><g ><defs><clipPath ><rect x="-8.5" y="-8.5" width="17" height="17" style="stroke:none"/></clipPath></defs><text   transform="translate(8.5,8.5)"  font-family="arial" overflow="visible" style="font-size:10px">Ub</text></g></g><text   transform="translate(31.5,12.5)"    >PTTG1</text></g><g id="f01fc" class="Label" transform="translate(639,75.5)"  name="Anaphase" ><g class="Label"/><text   transform="translate(60,12.25)"    font-weight="bold" >Anaphase</text></g><g id="fece8" class="Label" transform="translate(646,186.5)"  name="Separation of  sister chromatids" ><g class="Label"/><text   transform="translate(60,12.25)"    font-weight="bold" ><tspan   x="0" y="-6.60">Separation of </tspan><tspan   x="0" y="6.60">sister chromatids</tspan></text></g><g id="d3a9c" class="GeneProduct " transform="translate(462,390.5)"  name="ESPL1" ><rect   width="63" height="25"/><g id="f5bec" class="State Burr" transform="translate(55.5,-5.5)"  name="P" ><g class="State Burr"><use class="State Burr Node Icon" width="15" height="15" fill="#fff" stroke="#000" href="#Ellipse"/></g><g ><defs><clipPath ><rect x="-7.5" y="-7.5" width="15" height="15" style="stroke:none"/></clipPath></defs><text   transform="translate(7.5,7.5)"  font-family="arial" overflow="visible" style="font-size:10px">P</text></g></g><text   transform="translate(31.5,12.5)"    >ESPL1</text></g><g id="de1eb" class="Label" transform="translate(648,91)"  name="Chromosomes separate" ><g class="Label"/><text   transform="translate(56.5,10)"    font-weight="bold"  style="font-size:10px">Chromosomes separate</text></g><g id="ab7d0" class="Label" transform="translate(355,133)"  name="Spindle checkpoint OFF" ><g class="Label"/><text   transform="translate(64,10)"    font-weight="bold"  style="font-size:10px">Spindle checkpoint OFF</text></g></g></g></g></svg>