<?xml version="1.0" encoding="UTF-8"?>
<svg xmlns="http://www.w3.org/2000/svg" id="-svg" class="Diagram"  baseProfile="full" prefix="schema:http://schema.org/" preserveAspectRatio="xMidYMid"  version="1.1"><defs><g id="icon-defs"><symbol id="Ellipse" class=" Icon Ellipse" x="0" y="0" overflow="visible" preserveAspectRatio="none" viewBox="0 0 50 50"><desc>Ellipse</desc><ellipse cx="25" cy="25" rx="25" ry="25" vector-effect="non-scaling-stroke"/></symbol><symbol id="Octagon" class=" Icon Octagon" x="0" y="0" overflow="visible" preserveAspectRatio="none" viewBox="0 0 100 100"><desc>Octagon</desc><path d="m0 25 25-25h50l25 25v50l-25 25h-50l-25-25z" vector-effect="non-scaling-stroke"/></symbol></g><g id="marker-defs"><marker id="memcatalysis000" markerHeight="12" markerWidth="12" orient="auto" preserveAspectRatio="none" refX="12" refY="6" viewBox="0 0 12 12"><g id="g-memcatalysis000" transform=""><g transform="rotate(180 6 6)"><circle cx="6" cy="6" r="5.3px" fill="#fff" stroke="#000"/></g></g></marker><marker id="mea" markerHeight="12" markerWidth="12" orient="auto" preserveAspectRatio="none" refX="12" refY="6" viewBox="0 0 12 12"><g id="g-mea" transform=""><g transform="rotate(180 6 6)"><rect y="5.4" width="2" height="1.2" style="stroke:#fff"/><polygon points="12 11 0 6 12 1" stroke-width="0"/></g></g></marker></g></defs><g id="viewport-20220102143641262" class="svg-pan-zoom_viewport" transform="matrix(0.89 0 0 0.89 138.68 0)" style="transform:matrix(0.89, 0, 0, 0.89, 138.68, 0)"><style>svg.Diagram {font-family: 'Liberation Sans', Arial, sans-serif; }.Diagram path {fill: transparent;stroke: #000;marker-end: url(#mea);}.Diagram symbol path {fill: inherit;stroke: inherit;stroke-width: inherit;marker-end: inherit;}.Diagram rect {fill: #fff;stroke: #000;}.Diagram text {dominant-baseline: central;overflow: hidden;text-anchor: middle;fill: #000;font-size: 12px;}</style><style type="text/css">.Viewport .textContent {
  pointer-events: none;
  stroke-width: 0px;
}

					.Viewport.Icon {
  fill: white;
}

/* Hide the InfoBox */
.Viewport.textContent {
  font-size: 0;
}

.textContent {
  stroke: none;
}

.DataNode {
  stroke-miterlimit: 1;
  pointer-events: auto;
}

.DataNode:hover {
  cursor: pointer;
}

/* TODO should this apply to things other than DataNodes? */
.DataNode.textContent {
  pointer-events: none;
}

.DataNode.Highlighted {
  opacity: 0.6;
  stroke-width: 0px;
}

marker {
  /* this is what should work per the spec
  stroke-dasharray: none; */
  /* but I need to add this to make it work in Safari */
  stroke-dasharray: 9999999999999999999999999;
}

.Citation.Icon {
  fill: none;
  stroke-width: 0px;
}

.Citation.textContent {
  text-align: center;
  vertical-align: top;
  font-size: 7px;
  fill: #999;
  fill-opacity: 1;
  stroke: none;
}</style><g id="WP438" class="Pathway http___identifiers_org_pw_PW_0000203 http___identifiers_org_pw_PW_0000099 Viewport"  name="Name: Non-homologous end joining Organism: Homo sapiens" ><g class="Pathway http___identifiers_org_pw_PW_0000203 http___identifiers_org_pw_PW_0000099 Viewport"><rect   width="1040" height="804.81" style="stroke:none"/><g id="id67bf32af" class="Edge"  ><path    d="m661.1 358.63 80.89 69.37v99l-80.89 63"/><g id="c7785" class="AB" transform="translate(742 475.28)"  ><g class="AB"/></g></g><g id="id1b994020" class="Edge"  ><path    d="m398.39 466.77 17.61-0.07" style="marker-end:url(#memcatalysis000)"/></g><g id="id7615c33b" class="Edge"  ><path    d="m577.16 477.77 18.24 0.23" style="marker-end:url(#memcatalysis000)"/></g><g id="idd12af403" class="Edge"  ><path    d="m648.91 275.07-53.51 0.00" style="marker-end:url(#memcatalysis000)"/></g><g id="idd57d83f3" class="Edge"  ><path    d="m761.97 475.02-19.97 0.26" style="marker-end:url(#memcatalysis000)"/></g><g id="idf00b430" class="Edge"  ><path    d="m595.4 619.63-0.28 134.07"/><g id="a0a3a" class="AB" transform="translate(595.28 681.47)"  ><g class="AB"/></g><g id="f7d26" class="AB" transform="translate(595.23 704)"  ><g class="AB"/></g></g><g id="e69c7" class="GroupGroup" transform="translate(464,41)"  ><g class="GroupGroup"><g id="f0c11" class="Edge"  ><path    d="m8 8h40.05" stroke-width="2" style="stroke:#00f;marker-end:none"/></g><g id="f25eb" class="Edge"  ><path    d="m8 21.63h50.05" stroke-width="2" style="marker-end:none"/></g><g id="c1834" class="Edge"  ><path    d="m67.72 8h187.09" stroke-width="2" style="stroke:#00f;marker-end:none"/></g><g id="ba950" class="Edge"  ><path    d="m78.22 21.63 176.58 2.19e-4" stroke-width="2" style="marker-end:none"/></g></g></g><g id="id54a6df9a" class="Edge"  ><path    d="m595.4 70.63v109.37"/><g id="fd2e8" class="AB" transform="translate(595.4 128)"  ><g class="AB"/></g></g><g id="pvjsgeneratedidfc1e8" class="Edge"  ><path    d="m564 703.95 31.23 0.05" style="marker-end:url(#memcatalysis000)"/></g><g id="idee1ed205" class="Edge"  ><path    d="m637 681.33-41.73 0.13" style="marker-end:url(#memcatalysis000)"/></g><g id="id142d0868" class="Edge"  ><path    d="m632.95 128h-37.55" style="marker-end:url(#memcatalysis000)"/></g><g id="e14e1" class="Label" transform="translate(216,374.5)"  name="Alt 1: Processing with Artemis" ><g class="Label"/><text   transform="translate(97,12.5)"    font-weight="bold" >Alt 1: Processing with Artemis</text></g><g id="ea8aa" class="Label" transform="translate(320.7 126.26)"  name="End binding" ><g class="Label"/><text   transform="translate(45,12.5)"    font-weight="bold" >End binding</text></g><g id="aadf6" class="GroupComplex" transform="translate(632.95 78.5)"  ><g class="GroupComplex"><use class="Icon" width="85.27" height="99" fill="#b4b464" fill-opacity=".1" stroke="grey" href="#Octagon"/><g id="fa36d" class="GeneProduct " transform="translate(12,62)"  name="WRN" ><rect   width="61.27" height="25"/><text   transform="translate(30.63 12.5)"    >WRN</text></g><g id="b29" class="GeneProduct " transform="translate(12,12)"  name="XRCC5" ><rect   width="61.27" height="25"/><text   transform="translate(30.63 12.5)"    >XRCC5</text></g><g id="be0" class="GeneProduct " transform="translate(12,37)"  name="XRCC6" ><rect   width="61.27" height="25"/><text   transform="translate(30.63 12.5)"    >XRCC6</text></g></g></g><g id="cc5d0" class="GroupComplex" transform="translate(648.91 225.57)"  ><g class="GroupComplex"><use class="Icon" width="150.31" height="99.00" fill="#b4b464" fill-opacity=".1" stroke="grey" href="#Octagon"/><g id="b50" class="GeneProduct " transform="translate(12,12)"  name="PRKDC" ><rect   width="64.94" height="25"/><g id="b646c" class="State Burr" transform="translate(52.44 -4.5)"  name="P" ><g class="State Burr"><use class="State Burr Node Icon" width="15" height="15" fill="#fff" stroke="#000" href="#Ellipse"/></g><g ><defs><clipPath ><rect x="-7.5" y="-7.5" width="15" height="15" style="stroke:none"/></clipPath></defs><text   transform="translate(7.5,7.5)"  font-family="arial" overflow="visible" style="font-size:10px">P</text></g></g><text   transform="translate(32.47 12.5)"    >PRKDC</text></g><g id="b73bd" class="GeneProduct " transform="translate(12,37)"  name="XRCC5" ><rect   width="64.94" height="25"/><text   transform="translate(32.47 12.5)"    >XRCC5</text></g><g id="a311c" class="GeneProduct " transform="translate(12 62)"  name="XRCC6" ><rect   width="64.94" height="25"/><text   transform="translate(32.47 12.5)"    >XRCC6</text></g><g id="e1e91" class="GeneProduct " transform="translate(77.04 36.93)"  name="WRN" ><rect   width="61.27" height="25"/><text   transform="translate(30.63 12.5)"    >WRN</text></g></g></g><g id="db9ad" class="Edge"  ><path    d="m595.4 209.63v119.37"/><g id="aca8f" class="AB" transform="translate(595.4 275.07)"  ><g class="AB"/></g></g><g id="cc583" class="Label" transform="translate(292 260.42)"  name="Auto-phosphorylation and  end processing" ><g class="Label"/><text   transform="translate(81.85 12.5)"    font-weight="bold" ><tspan   x="0" y="-6.60">Auto-phosphorylation and </tspan><tspan   x="0" y="6.60">end processing</tspan></text></g><g id="e2cf4" class="Label" transform="translate(92.70 446.89)"  name="Gap filling" ><g class="Label"/><text   transform="translate(45,12.5)"    font-weight="bold" >Gap filling</text></g><g id="d6d26" class="GroupComplex" transform="translate(761.97 425.52)"  ><g class="GroupComplex"><use class="Icon" width="140.16" height="99" fill="#b4b464" fill-opacity=".1" stroke="grey" href="#Octagon"/><g id="fc1e7" class="GeneProduct " transform="translate(12,37)"  name="XRCC5" ><rect   width="54.03" height="25"/><text   transform="translate(27.02 12.5)"    >XRCC5</text></g><g id="e423f" class="GeneProduct " transform="translate(12,62)"  name="XRCC6" ><rect   width="54.03" height="25"/><text   transform="translate(27.02 12.5)"    >XRCC6</text></g><g id="dae05" class="GeneProduct " transform="translate(12,12)"  name="PRKDC" ><rect   width="54.03" height="25"/><g id="dd51e" class="State Burr" transform="translate(46.53 -6.5)"  name="P" ><g class="State Burr"><use class="State Burr Node Icon" width="15" height="15" fill="#fff" stroke="#000" href="#Ellipse"/></g><g ><defs><clipPath ><rect x="-7.5" y="-7.5" width="15" height="15" style="stroke:none"/></clipPath></defs><text   transform="translate(7.5,7.5)"  font-family="arial" overflow="visible" style="font-size:10px">P</text></g></g><text   transform="translate(27.02 12.5)"    >PRKDC</text></g><g id="dd2e5" class="GeneProduct " transform="translate(66.90 29.03)"  name="POLL" ><rect   width="61.27" height="25"/><text   transform="translate(30.63 12.5)"    >POLL</text></g><g id="cf98b" class="GeneProduct " transform="translate(66.90 54.03)"  name="WRN" ><rect   width="61.27" height="25"/><text   transform="translate(30.63 12.5)"    >WRN</text></g></g></g><g id="de9b5" class="GroupGroup" transform="translate(466.83 753.7)"  ><g class="GroupGroup"><g id="a1e03" class="Edge"  ><path    d="m8 8.00 51.21 1.11e-4" stroke-width="2" style="stroke:#00f;marker-end:none"/></g><g id="a2dcb" class="Edge"  ><path    d="m8.5 21.11h50.71" stroke-width="2" style="marker-end:none"/></g><g id="f38a1" class="Edge"  ><path    d="m61.5 8.00 187.09-1.93e-4" stroke-width="2" style="stroke:#00f;marker-end:none"/></g><g id="f39c1" class="Edge"  ><path    d="m61 21.11 186.59-3.04e-4" stroke-width="2" style="marker-end:none"/></g></g></g><g id="cf86c" class="GroupComplex" transform="translate(637 634.58)"  ><g class="GroupComplex"><use class="Icon" width="140.95" height="99" fill="#b4b464" fill-opacity=".1" stroke="grey" href="#Octagon"/><g id="e2be1" class="GeneProduct " transform="translate(12,37)"  name="XRCC5" ><rect   width="55.46" height="25"/><text   transform="translate(27.73 12.5)"    >XRCC5</text></g><g id="dd6b0" class="GeneProduct " transform="translate(12,62)"  name="XRCC6" ><rect   width="55.46" height="25"/><text   transform="translate(27.73 12.5)"    >XRCC6</text></g><g id="ef576" class="GeneProduct " transform="translate(12,12)"  name="PRKDC" ><rect   width="55.46" height="25"/><g id="fbd3f" class="State Burr" transform="translate(47.96 -5.5)"  name="P" ><g class="State Burr"><use class="State Burr Node Icon" width="15" height="15" fill="#fff" stroke="#000" href="#Ellipse"/></g><g ><defs><clipPath ><rect x="-7.5" y="-7.5" width="15" height="15" style="stroke:none"/></clipPath></defs><text   transform="translate(7.5,7.5)"  font-family="arial" overflow="visible" style="font-size:10px">P</text></g></g><text   transform="translate(27.73 12.5)"    >PRKDC</text></g><g id="f94" class="GeneProduct " transform="translate(67.68 24.37)"  name="NHEJ1" ><rect   width="61.27" height="25"/><text   transform="translate(30.63 12.5)"    >NHEJ1</text></g><g id="a267d" class="GeneProduct " transform="translate(67.68 49.37)"  name="WRN" ><rect   width="61.27" height="25"/><text   transform="translate(30.63 12.5)"    >WRN</text></g></g></g><g id="d29ab" class="GroupComplex" transform="translate(484.63 666.95)"  ><g class="GroupComplex"><use class="Icon" width="79.37" height="74" fill="#b4b464" fill-opacity=".1" stroke="grey" href="#Octagon"/><g id="aae3e" class="GeneProduct " transform="translate(12,12)"  name="LIG4" ><rect   width="55.37" height="25"/><text   transform="translate(27.68 12.5)"    >LIG4</text></g><g id="ba5" class="GeneProduct " transform="translate(12,37)"  name="XRCC4" ><rect   width="55.37" height="25"/><text   transform="translate(27.68 12.5)"    >XRCC4</text></g></g></g><g id="df7e1" class="Label" transform="translate(290.32 671.97)"  name="Ligation" ><g class="Label"/><text   transform="translate(45,12.5)"    font-weight="bold"  style="fill:#404040">Ligation</text></g><g id="a84ea" class="GroupComplex" transform="translate(436.97 431.52)"  ><g class="GroupComplex"><use class="Icon" width="140.19" height="99" fill="#b4b464" fill-opacity=".1" stroke="grey" href="#Octagon"/><g id="d2a2e" class="GeneProduct " transform="translate(66.92 30.03)"  name="POLM" ><rect   width="61.27" height="25"/><text   transform="translate(30.63 12.5)"    >POLM</text></g><g id="bacd4" class="GeneProduct " transform="translate(12,37)"  name="XRCC5" ><rect   width="54.03" height="25"/><text   transform="translate(27.02 12.5)"    >XRCC5</text></g><g id="c19f1" class="GeneProduct " transform="translate(12,62)"  name="XRCC6" ><rect   width="54.03" height="25"/><text   transform="translate(27.02 12.5)"    >XRCC6</text></g><g id="da79d" class="GeneProduct " transform="translate(12,12)"  name="PRKDC" ><rect   width="54.03" height="25"/><g id="d006f" class="State Burr" transform="translate(46.53 -6.5)"  name="P" ><g class="State Burr"><use class="State Burr Node Icon" width="15" height="15" fill="#fff" stroke="#000" href="#Ellipse"/></g><g ><defs><clipPath ><rect x="-7.5" y="-7.5" width="15" height="15" style="stroke:none"/></clipPath></defs><text   transform="translate(7.5,7.5)"  font-family="arial" overflow="visible" style="font-size:10px">P</text></g></g><text   transform="translate(27.02 12.5)"    >PRKDC</text></g><g id="cba14" class="GeneProduct " transform="translate(66.92 55.03)"  name="WRN" ><rect   width="61.27" height="25"/><text   transform="translate(30.63 12.5)"    >WRN</text></g></g></g><g id="c2179" class="GroupComplex" transform="translate(251.97 420.52)"  ><g class="GroupComplex"><use class="Icon" width="146.42" height="99" fill="#b4b464" fill-opacity=".1" stroke="grey" href="#Octagon"/><g id="c9da9" class="GeneProduct " transform="translate(65.89 24.51)"  name="DCLRE1C" ><rect   width="68.53" height="25"/><text   transform="translate(34.27 12.5)"    >DCLRE1C</text></g><g id="e9ad3" class="GeneProduct " transform="translate(12,37)"  name="XRCC5" ><rect   width="54.03" height="25"/><text   transform="translate(27.02 12.5)"    >XRCC5</text></g><g id="c6583" class="GeneProduct " transform="translate(12,62)"  name="XRCC6" ><rect   width="54.03" height="25"/><text   transform="translate(27.02 12.5)"    >XRCC6</text></g><g id="a1efb" class="GeneProduct " transform="translate(12,12)"  name="PRKDC" ><rect   width="54.03" height="25"/><g id="b7542" class="State Burr" transform="translate(46.53 -6.5)"  name="P" ><g class="State Burr"><use class="State Burr Node Icon" width="15" height="15" fill="#fff" stroke="#000" href="#Ellipse"/></g><g ><defs><clipPath ><rect x="-7.5" y="-7.5" width="15" height="15" style="stroke:none"/></clipPath></defs><text   transform="translate(7.5,7.5)"  font-family="arial" overflow="visible" style="font-size:10px">P</text></g></g><text   transform="translate(27.02 12.5)"    >PRKDC</text></g><g id="a86f4" class="GeneProduct " transform="translate(65.89 49.51)"  name="WRN" ><rect   width="68.53" height="25"/><text   transform="translate(34.27 12.5)"    >WRN</text></g></g></g><g id="c3f1b" class="Label" transform="translate(308 57.26)"  name="Double-strand break" ><g class="Label"/><text   transform="translate(64.85 12.87)"    font-weight="bold" >Double-strand break</text></g><g id="b07c6" class="GroupGroup" transform="translate(464,180)"  ><g class="GroupGroup"><g id="d3927" class="Edge"  ><path    d="m8 8h40.05" stroke-width="2" style="stroke:#00f;marker-end:none"/></g><g id="f44e2" class="Edge"  ><path    d="m8 21.63h50.05" stroke-width="2" style="marker-end:none"/></g><g id="f361d" class="Edge"  ><path    d="m67.72 8h187.09" stroke-width="2" style="stroke:#00f;marker-end:none"/></g><g id="f6c0b" class="Edge"  ><path    d="m78.22 21.63 176.58 2.19e-4" stroke-width="2" style="marker-end:none"/></g></g></g><g id="bfb3f" class="GroupGroup" transform="translate(464,329)"  ><g class="GroupGroup"><g id="e0eb3" class="Edge"  ><path    d="m8 8h40.05" stroke-width="2" style="stroke:#00f;marker-end:none"/></g><g id="f4607" class="Edge"  ><path    d="m8 21.63h50.05" stroke-width="2" style="marker-end:none"/></g><g id="f967f" class="Edge"  ><path    d="m67.72 8h187.09" stroke-width="2" style="stroke:#00f;marker-end:none"/></g><g id="bc2ef" class="Edge"  ><path    d="m78.22 21.63 176.58 2.19e-4" stroke-width="2" style="marker-end:none"/></g></g></g><g id="ad728" class="GroupGroup" transform="translate(464,590)"  ><g class="GroupGroup"><g id="afe0e" class="Edge"  ><path    d="m8 8h40.05" stroke-width="2" style="stroke:#00f;marker-end:none"/></g><g id="f9aab" class="Edge"  ><path    d="m8 21.63h50.05" stroke-width="2" style="marker-end:none"/></g><g id="e0964" class="Edge"  ><path    d="m67.72 8h187.09" stroke-width="2" style="stroke:#00f;marker-end:none"/></g><g id="b3140" class="Edge"  ><path    d="m78.22 21.63 176.58 2.19e-4" stroke-width="2" style="marker-end:none"/></g></g></g><g id="cdceb" class="Edge"  ><path    d="m529.7 358.63-113.7 58.37v106l113.7 67"/><g id="fcbff" class="AB" transform="translate(416 466.7)"  ><g class="AB"/></g></g><g id="e6e1c" class="Edge"  ><path    d="m595.4 358.63v231.37"/><g id="b3080" class="AB" transform="translate(595.4 471.73)"  ><g class="AB"/></g><g id="e43cc" class="AB" transform="translate(595.4 478)"  ><g class="AB"/></g></g><g id="c9934" class="Label" transform="translate(471,390.5)"  name="Alt 2: Processing with polymerase mu" ><g class="Label"/><text   transform="translate(117,12.5)"    font-weight="bold" >Alt 2: Processing with polymerase mu</text></g><g id="c0db1" class="Label" transform="translate(743,377.5)"  name="Alt 3: Processing with polymerase lambda" ><g class="Label"/><text   transform="translate(133.5,12.5)"    font-weight="bold" >Alt 3: Processing with polymerase lambda</text></g></g></g></g></svg>