<?xml version="1.0" encoding="UTF-8"?>
<svg xmlns="http://www.w3.org/2000/svg" id="-svg" class="Diagram"  baseProfile="full" prefix="schema:http://schema.org/" preserveAspectRatio="xMidYMid"  version="1.1"><defs><g id="icon-defs"><symbol id="HexagonPathVisio" class=" Icon HexagonPathVisio" x="0" y="8" overflow="visible" preserveAspectRatio="none" viewBox="0 8 100 86"><desc>HexagonPathVisio</desc><g transform="scale(1 0.85)"><path d="m1.42 51.00 21.07-42.14h56.19l21.07 42.14-21.07 42.15h-56.19l-21.07-42.15z" stroke="currentColor" vector-effect="non-scaling-stroke"/></g></symbol><symbol id="Octagon" class=" Icon Octagon" x="0" y="0" overflow="visible" preserveAspectRatio="none" viewBox="0 0 100 100"><desc>Octagon</desc><path d="m0 25 25-25h50l25 25v50l-25 25h-50l-25-25z" vector-effect="non-scaling-stroke"/></symbol></g><g id="marker-defs"><marker id="mea" markerHeight="12" markerWidth="12" orient="auto" preserveAspectRatio="none" refX="12" refY="6" viewBox="0 0 12 12"><g id="g-mea" transform=""><g transform="rotate(180 6 6)"><rect y="5.4" width="2" height="1.2" style="stroke:#fff"/><polygon points="12 11 0 6 12 1" stroke-width="0"/></g></g></marker><marker id="markerendtbar000" markerHeight="20" markerWidth="10" orient="auto" preserveAspectRatio="none" refX="10" refY="10" viewBox="0 0 10 20"><g id="g-markerendtbar000" transform=""><g transform="rotate(180 5 10)"><rect y="9" width="8" height="2" style="stroke:none"/><line x="0" y="0" width="12" height="12" x1="7" x2="7" y2="20" stroke="#000" stroke-width="1.8"/></g></g></marker></g></defs><g id="viewport-20220102143658858" class="svg-pan-zoom_viewport" transform="matrix(0.48 0 0 0.48 258.47 0)" style="transform:matrix(0.48, 0, 0, 0.48, 258.47, 0)"><style>svg.Diagram {font-family: 'Liberation Sans', Arial, sans-serif; }.Diagram path {fill: transparent;stroke: #000;marker-end: url(#mea);}.Diagram symbol path {fill: inherit;stroke: inherit;stroke-width: inherit;marker-end: inherit;}.Diagram rect {fill: #fff;stroke: #000;}.Diagram text {dominant-baseline: central;overflow: hidden;text-anchor: middle;fill: #000;font-size: 10px;}</style><style type="text/css">.Viewport .textContent {
  pointer-events: none;
  stroke-width: 0px;
}

					.Viewport.Icon {
  fill: white;
}

/* Hide the InfoBox */
.Viewport.textContent {
  font-size: 0;
}

.textContent {
  stroke: none;
}

.DataNode {
  stroke-miterlimit: 1;
  pointer-events: auto;
}

.DataNode:hover {
  cursor: pointer;
}

/* TODO should this apply to things other than DataNodes? */
.DataNode.textContent {
  pointer-events: none;
}

.DataNode.Highlighted {
  opacity: 0.6;
  stroke-width: 0px;
}

marker {
  /* this is what should work per the spec
  stroke-dasharray: none; */
  /* but I need to add this to make it work in Safari */
  stroke-dasharray: 9999999999999999999999999;
}

.Citation.Icon {
  fill: none;
  stroke-width: 0px;
}

.Citation.textContent {
  text-align: center;
  vertical-align: top;
  font-size: 7px;
  fill: #999;
  fill-opacity: 1;
  stroke: none;
}</style><g id="WP4409" class="Pathway http___identifiers_org_pw_PW_0000909 Viewport"  name="Name: Interleukin-9 signaling Organism: Homo sapiens" ><g class="Pathway http___identifiers_org_pw_PW_0000909 Viewport"><rect   width="1409" height="1380" style="stroke:none"/><g id="a4a9e" class="Reactome_R-HSA-8985929"  ><path    d="m907 156 67-9" style="marker-end:none"/><g id="a8fb0" class="AB" transform="translate(907,156)"  ><g class="AB"/></g><g id="f3f51" class="AB" transform="translate(973.33 147.09)"  ><g class="AB"/></g></g><g id="a4f51" class="Reactome_R-HSA-8985950"  ><path    d="m302 456v65" style="marker-end:none"/><g id="a5354" class="AB" transform="translate(302,456)"  ><g class="AB"/></g><g id="a9baa" class="AB" transform="translate(302,520.35)"  ><g class="AB"/></g></g><g id="a7f30" class="Reactome_R-HSA-8985966"  ><path    d="m660 452h48" style="marker-end:none"/><g id="f1be3" class="AB" transform="translate(660,452)"  ><g class="AB"/></g><g id="a987d" class="AB" transform="translate(707.52,452)"  ><g class="AB"/></g></g><g id="ab87c" class="Reactome_R-HSA-9011748"  ><path    d="m286 190-38-33" style="marker-end:none"/><g id="b8899" class="AB" transform="translate(286,190)"  ><g class="AB"/></g><g id="cfefa" class="AB" transform="translate(248.38 157.33)"  ><g class="AB"/></g></g><g id="b08b4" class="Reactome_R-HSA-8985914"  ><path    d="m440 185 57 1" style="marker-end:none"/><g id="ca4f1" class="AB" transform="translate(440,185)"  ><g class="AB"/></g><g id="bd196" class="AB" transform="translate(496.43,185.99)"  ><g class="AB"/></g></g><g id="a0d46" class="Reactome_R-HSA-8985914"  ><path    d="m497 186 21 39"/></g><g id="b0f21" class="Reactome_R-HSA-8985914"  ><path    d="m407 154 33 31" style="marker-end:none"/></g><g id="b2d43" class="Reactome_R-HSA-8985914"  ><path    d="m497 186 1-47"/></g><g id="b34ae" class="Reactome_R-HSA-8985914"  ><path    d="m418 225 22-40" style="marker-end:none"/></g><g id="b57a2" class="Reactome_R-HSA-9011748"  ><path    d="m311 240-25-50" style="marker-end:none"/></g><g id="bd013" class="Reactome_R-HSA-8985966"  ><path    d="m541 453 119-1" style="marker-end:none"/></g><g id="bdffc" class="Reactome_R-HSA-9011748"  ><path    d="m248 157 1-3"/></g><g id="be9b1" class="Reactome_R-HSA-8963734"  ><path    d="m251 88 124 27" style="marker-end:none"/><g id="ed0a3" class="AB" transform="translate(251,88)"  ><g class="AB"/></g><g id="e6430" class="AB" transform="translate(373.76 114.73)"  ><g class="AB"/></g></g><g id="c106c" class="Reactome_R-HSA-8985966"  ><path    d="m636 408 24 44" style="marker-end:none"/></g><g id="c1f6f" class="Reactome_R-HSA-9679028"  ><path    d="m75 252 37-2" style="marker-end:none"/><g id="a4775" class="AB" transform="translate(75,252)"  ><g class="AB"/></g><g id="f3384" class="AB" transform="translate(111.63,250.02)"  ><g class="AB"/></g></g><g id="b0d50" class="Reactome_R-HSA-9679028"  ><path    d="m75 297v-45" style="marker-end:none"/></g><g id="c29fa" class="Reactome_R-HSA-8963734"  ><path    d="m249 132 2-44" style="marker-end:none"/></g><g id="c323d" class="Reactome_R-HSA-8985900"  ><path    d="m1240 189-488 105" style="marker-end:none"/><g id="bbeb4" class="AB" transform="translate(1240,189)"  ><g class="AB"/></g><g id="ee0c8" class="AB" transform="translate(756.88,292.95)"  ><g class="AB"/></g></g><g id="c3ecd" class="Reactome_R-HSA-8985900"  ><path    d="m752 294-202 81"/></g><g id="c4993" class="Reactome_R-HSA-9679028"  ><path    d="m112 250 3-1"/></g><g id="c8473" class="Reactome_R-HSA-8985981"  ><path    d="m824 452h107" style="marker-end:none"/><g id="bfca2" class="AB" transform="translate(824,452)"  ><g class="AB"/></g><g id="c7831" class="AB" transform="translate(929.93,452)"  ><g class="AB"/></g></g><g id="c8b60" class="Reactome_R-HSA-8985929"  ><path    d="m834 206 73-50" style="marker-end:none"/></g><g id="c8d34" class="Reactome_R-HSA-8985950"  ><path    d="m302 521 1 3"/></g><g id="c936c" class="Reactome_R-HSA-8985929"  ><path    d="m974 147 3-6"/></g><g id="ca340" class="Reactome_R-HSA-8985973"  ><path    d="m603 182h80" style="marker-end:none"/><g id="e7619" class="AB" transform="translate(603,182)"  ><g class="AB"/></g><g id="d6bac" class="AB" transform="translate(682.2 182)"  ><g class="AB"/></g></g><g id="a08f0" class="Reactome_R-HSA-8985973"  ><path    d="m562 164 41 18" style="marker-end:none"/></g><g id="ca7f5" class="Reactome_R-HSA-8985981"  ><path    d="m821 453 3-1" style="marker-end:none"/></g><g id="cc300" class="Reactome_R-HSA-8963734"  ><path    d="m192 140 59-52" style="marker-end:none"/></g><g id="cc64e" class="Reactome_R-HSA-8985973"  ><path    d="m588 198 15-16" style="marker-end:none"/></g><g id="db350" class="Reactome_R-HSA-8985966"  ><path    d="m708 452 3 1"/></g><g id="dc6e1" class="Reactome_R-HSA-451895"  ><path    d="m90 172 57-18" style="marker-end:none"/><g id="ad790" class="AB" transform="translate(90,172)"  ><g class="AB"/></g><g id="dded8" class="AB" transform="translate(146.43,154.18)"  ><g class="AB"/></g><g id="e020d" class="AB" transform="translate(118.5,163)"  ><g class="AB"/></g></g><g id="d262c" class="Reactome_R-HSA-451895"  ><path    d="m75 185 15-13" style="marker-end:none"/></g><g id="d8403" class="Reactome_R-HSA-451895"  ><path    d="m75 155 15 17" style="marker-end:none"/></g><g id="db168" class="Reactome_R-HSA-451895"  ><path    d="m147 154 8-3"/></g><g id="ddae1" class="Reactome_R-HSA-8985981"  ><path    d="m931 452h3"/></g><g id="e1196" class="Reactome_R-HSA-451895"  ><path    d="m115 249 19-77" style="marker-end:url(#markerendtbar000)"/></g><g id="e6ad3" class="Reactome_R-HSA-8985900"  ><path    d="m1246 186-6 3" style="marker-end:none"/></g><g id="e788c" class="Reactome_R-HSA-8985988"  ><path    d="m1107 195h47" style="marker-end:none"/><g id="b3d54" class="AB" transform="translate(1107,195)"  ><g class="AB"/></g><g id="b59bb" class="AB" transform="translate(1153.5 195)"  ><g class="AB"/></g></g><g id="d042f" class="Reactome_R-HSA-8985988"  ><path    d="m1103 141 4 54" style="marker-end:none"/></g><g id="e4f9a" class="Reactome_R-HSA-8985988"  ><path    d="m1083 214 24-19" style="marker-end:none"/></g><g id="a2e71" class="Reactome_R-HSA-8985988"  ><path    d="m1154 195 29-55"/></g><g id="a7613" class="Reactome_R-HSA-8985988"  ><path    d="m1154 195 29 35"/></g><g id="e8a7f" class="Reactome_R-HSA-8963734"  ><path    d="m229 54 22 34" style="marker-end:none"/></g><g id="ef3e9" class="Reactome_R-HSA-8963734"  ><path    d="m375 115 32 3"/></g><g id="efeda" class="Reactome_R-HSA-8985929"  ><path    d="m791 140 116 16" style="marker-end:none"/></g><g id="f0d3c" class="Reactome_R-HSA-9679028"  ><path    d="m75 207v45" style="marker-end:none"/></g><g id="f437a" class="Reactome_R-HSA-8985943"  ><path    d="m491 467v72" style="marker-end:none"/><g id="c16fe" class="AB" transform="translate(491,467)"  ><g class="AB"/></g><g id="cd50f" class="AB" transform="translate(491 538.28)"  ><g class="AB"/></g></g><g id="f304f" class="Reactome_R-HSA-8985943"  ><path    d="m491 464v3" style="marker-end:none"/></g><g id="b06da" class="Reactome_R-HSA-8985943"  ><path    d="m491 539v3"/></g><g id="f976b" class="Reactome_R-HSA-8985900"  ><path    d="m752 294-24-129"/></g><g id="f9ec5" class="Reactome_R-HSA-8985973"  ><path    d="m683 182 20 16"/></g><g id="fb331" class="Reactome_R-HSA-8985950"  ><path    d="m303 450-1 6" style="marker-end:none"/></g><g id="fbb4f" class="Reactome_R-HSA-8985973"  ><path    d="m683 182-18-42"/></g><g id="ffda3" class="Reactome_R-HSA-9011748"  ><path    d="m309 150-23 40" style="marker-end:none"/></g><g id="c6915" class="GroupGroup" transform="translate(0,133)"  ><g class="GroupGroup"><g id="dd8d2" class="" transform="translate(8,8)"  ><g class=""><rect   transform="matrix(1.00 0 0 0.99 1.50 1.49)" width="1371" height="471" rx="15" ry="15" stroke-width="3" style="fill:transparent;stroke:#c0c0c0"/></g></g><g id="a9342" class="Label" transform="translate(21,373)"  name="cytosol" ><g class="Label"/><text   transform="translate(32,16.5)"    >cytosol</text></g></g></g><g id="eebf4" class="GroupGroup" transform="translate(868,339)"  ><g class="GroupGroup"><g id="d5d99" class="" transform="translate(8,8)"  ><g class=""><rect   transform="matrix(0.99 0 0 0.98 1.48 1.48)" width="274" height="184" rx="15" ry="15" stroke-width="3" style="fill:transparent;stroke:#c0c0c0"/></g></g><g id="b67e1" class="Label" transform="translate(172,25)"  name="nucleoplasm" ><g class="Label"/><text   transform="translate(49.5,16.5)"    >nucleoplasm</text></g></g></g><g id="a3f1c" class="Metabolite " transform="translate(1063,214)"  name="ATP" ><rect   width="40" height="30" style="stroke:#00f"/><text   transform="translate(20,15)"     style="fill:#00f">ATP</text></g><g id="a6300" class="Complex Reactome_R-HSA-8985982" transform="translate(1183,94)"  name="IL9:p-Y116-IL9R:JAK1:IL2RG:p-904,939-JAK3:p-Y701-STAT1,p-Y705-STAT3,p-Y649-STAT5" ><g class="Complex Reactome_R-HSA-8985982"><use class="Complex Reactome_R-HSA-8985982 Node Icon" width="127" height="92" fill="#fff" stroke="#a52a2a" href="#HexagonPathVisio"/></g><g ><defs><clipPath ><rect x="-63.5" y="-46" width="127" height="92" style="stroke:none"/></clipPath></defs><text   transform="translate(63.5,46)"     style="fill:#a52a2a">IL9:p-Y116-IL9R:JAK1:IL2RG:p-904,939-JAK3:p-Y701-STAT1,p-Y705-STAT3,p-Y649-STAT5</text></g></g><g id="b22e5" class="Protein" transform="translate(292,128)"  name="IL9R" ><rect   width="34" height="22"/><text   transform="translate(17,11)"    >IL9R</text></g><g id="b34a5" class="Protein" transform="translate(293,240)"  name="JAK1" ><rect   width="37" height="22"/><text   transform="translate(18.5,11)"    >JAK1</text></g><g id="b46b1" class="Complex Reactome_R-HSA-451911" transform="translate(118,129)"  name="IL2RG:JAK3" ><g class="Complex Reactome_R-HSA-451911"><use class="Complex Reactome_R-HSA-451911 Node Icon" width="75" height="22" fill="#fff" stroke="#a52a2a" href="#HexagonPathVisio"/></g><g ><defs><clipPath ><rect x="-37.5" y="-11" width="75" height="22" style="stroke:none"/></clipPath></defs><text   transform="translate(37.5,11)"     style="fill:#a52a2a">IL2RG:JAK3</text></g></g><g id="b61d9" class="Complex Reactome_R-HSA-9678869" transform="translate(115,238)"  name="JAK3:JAK3 inhibitors" ><g class="Complex Reactome_R-HSA-9678869"><use class="Complex Reactome_R-HSA-9678869 Node Icon" width="126" height="22" fill="#fff" stroke="#a52a2a" href="#HexagonPathVisio"/></g><g ><defs><clipPath ><rect x="-63" y="-11" width="126" height="22" style="stroke:none"/></clipPath></defs><text   transform="translate(63,11)"     style="fill:#a52a2a">JAK3:JAK3 inhibitors</text></g></g><g id="b7ed3" class="Metabolite " transform="translate(378,210)"  name="ATP" ><rect   width="40" height="30" style="stroke:#00f"/><text   transform="translate(20,15)"     style="fill:#00f">ATP</text></g><g id="bdf08" class="Complex Reactome_R-HSA-8985962" transform="translate(216,132)"  name="IL9R:JAK1" ><g class="Complex Reactome_R-HSA-8985962"><use class="Complex Reactome_R-HSA-8985962 Node Icon" width="66" height="22" fill="#fff" stroke="#a52a2a" href="#HexagonPathVisio"/></g><g ><defs><clipPath ><rect x="-33" y="-11" width="66" height="22" style="stroke:none"/></clipPath></defs><text   transform="translate(33,11)"     style="fill:#a52a2a">IL9R:JAK1</text></g></g><g id="c1e81" class="Protein" transform="translate(586,386)"  name="p-Y705-STAT3" ><rect   width="100" height="22"/><text   transform="translate(50,11)"    >p-Y705-STAT3</text></g><g id="c83b5" class="Complex Reactome_R-ALL-9678772" transform="translate(28,297)"  name="JAK3 inhibitors" ><g class="Complex Reactome_R-ALL-9678772"><rect   width="94" height="22" rx="15" ry="15" style="stroke:#a52a2a"/></g><g ><defs><clipPath ><rect x="-47" y="-11" width="94" height="22" style="stroke:none"/></clipPath></defs><text   transform="translate(47,11)"     style="fill:#a52a2a">JAK3 inhibitors</text></g></g><g id="caf44" class="Protein" transform="translate(57,185)"  name="JAK3" ><rect   width="37" height="22"/><text   transform="translate(18.5,11)"    >JAK3</text></g><g id="d007f" class="Complex Reactome_R-HSA-8985997" transform="translate(665,115)"  name="IL9:p-Y116-IL9R:JAK1:IL2RG:p-904,939-JAK3" ><g class="Complex Reactome_R-HSA-8985997"><use class="Complex Reactome_R-HSA-8985997 Node Icon" width="127" height="50" fill="#fff" stroke="#a52a2a" href="#HexagonPathVisio"/></g><g ><defs><clipPath ><rect x="-63.5" y="-25" width="127" height="50" style="stroke:none"/></clipPath></defs><text   transform="translate(63.5,25)"     style="fill:#a52a2a">IL9:p-Y116-IL9R:JAK1:IL2RG:p-904,939-JAK3</text></g></g><g id="d0897" class="Protein" transform="translate(216,32)"  name="IL9" ><rect   width="26" height="22"/><text   transform="translate(13,11)"    >IL9</text></g><g id="d2e2f" class="Complex Reactome_R-HSA-9010175" transform="translate(432,343)"  name="p-Y701-STAT1,p-Y705-STAT3,p-Y649-STAT5A,p-STAT5B" ><g class="Complex Reactome_R-HSA-9010175"><rect   width="119" height="64" rx="15" ry="15" style="stroke:#a52a2a"/></g><g ><defs><clipPath ><rect x="-59.5" y="-32" width="119" height="64" style="stroke:none"/></clipPath></defs><text   transform="translate(59.5,32)"     style="fill:#a52a2a">p-Y701-STAT1,p-Y705-STAT3,p-Y649-STAT5A,p-STAT5B</text></g></g><g id="d72ea" class="Metabolite " transform="translate(498,225)"  name="ADP" ><rect   width="41" height="30" style="stroke:#00f"/><text   transform="translate(20.5,15)"     style="fill:#00f">ADP</text></g><g id="dd702" class="Complex Reactome_R-HSA-1433551" transform="translate(790,195)"  name="STATs" ><g class="Complex Reactome_R-HSA-1433551"><rect   width="45" height="22" rx="15" ry="15" style="stroke:#a52a2a"/></g><g ><defs><clipPath ><rect x="-22.5" y="-11" width="45" height="22" style="stroke:none"/></clipPath></defs><text   transform="translate(22.5,11)"     style="fill:#a52a2a">STATs</text></g></g><g id="df00a" class="Complex Reactome_R-HSA-8985942" transform="translate(934,434)"  name="p-Y701-STAT1:p-Y705-STAT3" ><g class="Complex Reactome_R-HSA-8985942"><use class="Complex Reactome_R-HSA-8985942 Node Icon" width="109" height="37" fill="#fff" stroke="#a52a2a" href="#HexagonPathVisio"/></g><g ><defs><clipPath ><rect x="-54.5" y="-18.5" width="109" height="37" style="stroke:none"/></clipPath></defs><text   transform="translate(54.5,18.5)"     style="fill:#a52a2a">p-Y701-STAT1:p-Y705-STAT3</text></g></g><g id="df451" class="Metabolite " transform="translate(683,198)"  name="ADP" ><rect   width="41" height="30" style="stroke:#00f"/><text   transform="translate(20.5,15)"     style="fill:#00f">ADP</text></g><g id="dfc10" class="Complex Reactome_R-HSA-8985941" transform="translate(257,524)"  name="p-STAT5A,p-STAT5B dimer" ><g class="Complex Reactome_R-HSA-8985941"><use class="Complex Reactome_R-HSA-8985941 Node Icon" width="92" height="36" fill="#fff" stroke="#a52a2a" href="#HexagonPathVisio"/></g><g ><defs><clipPath ><rect x="-46" y="-18" width="92" height="36" style="stroke:none"/></clipPath></defs><text   transform="translate(46,18)"     style="fill:#a52a2a"><tspan   x="0" y="-5.5">p-STAT5A,p-STAT5B</tspan><tspan   x="0" y="5.5">dimer</tspan></text></g></g><g id="e12a9" class="Complex Reactome_R-HSA-8985893" transform="translate(977,102)"  name="IL9:p-Y116-IL9R:JAK1:IL2RG:p-904,939-JAK3:STAT1,STAT3,STAT5A,STAT5B" ><g class="Complex Reactome_R-HSA-8985893"><use class="Complex Reactome_R-HSA-8985893 Node Icon" width="127" height="78" fill="#fff" stroke="#a52a2a" href="#HexagonPathVisio"/></g><g ><defs><clipPath ><rect x="-63.5" y="-39" width="127" height="78" style="stroke:none"/></clipPath></defs><text   transform="translate(63.5,39)"     style="fill:#a52a2a">IL9:p-Y116-IL9R:JAK1:IL2RG:p-904,939-JAK3:STAT1,STAT3,STAT5A,STAT5B</text></g></g><g id="ec002" class="Complex Reactome_R-HSA-8985949" transform="translate(711,435)"  name="p-Y701-STAT1:p-Y705-STAT3" ><g class="Complex Reactome_R-HSA-8985949"><use class="Complex Reactome_R-HSA-8985949 Node Icon" width="110" height="36" fill="#fff" stroke="#a52a2a" href="#HexagonPathVisio"/></g><g ><defs><clipPath ><rect x="-55" y="-18" width="110" height="36" style="stroke:none"/></clipPath></defs><text   transform="translate(55,18)"     style="fill:#a52a2a">p-Y701-STAT1:p-Y705-STAT3</text></g></g><g id="ec419" class="Complex Reactome_R-HSA-449785" transform="translate(343,118)"  name="IL9:IL9R:JAK1:IL2RG:JAK3" ><g class="Complex Reactome_R-HSA-449785"><use class="Complex Reactome_R-HSA-449785 Node Icon" width="129" height="36" fill="#fff" stroke="#a52a2a" href="#HexagonPathVisio"/></g><g ><defs><clipPath ><rect x="-64.5" y="-18" width="129" height="36" style="stroke:none"/></clipPath></defs><text   transform="translate(64.5,18)"     style="fill:#a52a2a">IL9:IL9R:JAK1:IL2RG:JAK3</text></g></g><g id="ed74f" class="Protein" transform="translate(54,133)"  name="IL2RG" ><rect   width="43" height="22"/><text   transform="translate(21.5,11)"    >IL2RG</text></g><g id="ef4fb" class="Complex Reactome_R-HSA-8985970" transform="translate(434,542)"  name="p-Y-STAT1 dimer" ><g class="Complex Reactome_R-HSA-8985970"><use class="Complex Reactome_R-HSA-8985970 Node Icon" width="114" height="22" fill="#fff" stroke="#a52a2a" href="#HexagonPathVisio"/></g><g ><defs><clipPath ><rect x="-57" y="-11" width="114" height="22" style="stroke:none"/></clipPath></defs><text   transform="translate(57,11)"     style="fill:#a52a2a">p-Y-STAT1 dimer</text></g></g><g id="f241e" class="Protein" transform="translate(441,442)"  name="p-Y701-STAT1" ><rect   width="100" height="22"/><text   transform="translate(50,11)"    >p-Y701-STAT1</text></g><g id="f32ae" class="Metabolite " transform="translate(1183,215)"  name="ADP" ><rect   width="41" height="30" style="stroke:#00f"/><text   transform="translate(20.5,15)"     style="fill:#00f">ADP</text></g><g id="f6941" class="Complex Reactome_R-HSA-8985938" transform="translate(498,114)"  name="IL9:IL9R:JAK1:IL2RG:p-Y904,939-JAK3" ><g class="Complex Reactome_R-HSA-8985938"><use class="Complex Reactome_R-HSA-8985938 Node Icon" width="128" height="50" fill="#fff" stroke="#a52a2a" href="#HexagonPathVisio"/></g><g ><defs><clipPath ><rect x="-64" y="-25" width="128" height="50" style="stroke:none"/></clipPath></defs><text   transform="translate(64,25)"     style="fill:#a52a2a">IL9:IL9R:JAK1:IL2RG:p-Y904,939-JAK3</text></g></g><g id="fa47c" class="Metabolite " transform="translate(568,198)"  name="ATP" ><rect   width="40" height="30" style="stroke:#00f"/><text   transform="translate(20,15)"     style="fill:#00f">ATP</text></g><g id="fd42d" class="Complex Reactome_R-HSA-8983121" transform="translate(238,414)"  name="p-Y649-STAT5A, p-STAT5B" ><g class="Complex Reactome_R-HSA-8983121"><rect   width="131" height="36" rx="15" ry="15" style="stroke:#a52a2a"/></g><g ><defs><clipPath ><rect x="-65.5" y="-18" width="131" height="36" style="stroke:none"/></clipPath></defs><text   transform="translate(65.5,18)"     style="fill:#a52a2a"><tspan   x="0" y="-5.5">p-Y649-STAT5A,</tspan><tspan   x="0" y="5.5">p-STAT5B</tspan></text></g></g><g id="a4c37" class="GroupNone" transform="translate(321,821)"  ><g class="GroupNone"><rect   width="118" height="98" fill-opacity=".1" stroke-dasharray="5,3" style="fill:#b4b464;stroke:grey"/><g id="a4be1" class="Protein" transform="translate(9,29)"  name="STAT5A" ><rect   width="100" height="20"/><text   transform="translate(50,10)"    >STAT5A</text></g><g id="b0a75" class="Protein" transform="translate(9,9)"  name="STAT1" ><rect   width="100" height="20"/><text   transform="translate(50,10)"    >STAT1</text></g><g id="f321e" class="Protein" transform="translate(9,69)"  name="STAT3" ><rect   width="100" height="20"/><text   transform="translate(50,10)"    >STAT3</text></g><g id="f5967" class="Protein" transform="translate(9,49)"  name="STAT5B" ><rect   width="100" height="20"/><text   transform="translate(50,10)"    >STAT5B</text></g></g></g><g id="aa6ab" class="GroupComplex" transform="translate(38,898)"  ><g class="GroupComplex"><use class="Icon" width="124" height="204" fill="#b4b464" fill-opacity=".1" stroke="grey" href="#Octagon"/><g id="a0473" class="Protein" transform="translate(12,72)"  name="p-Y116-IL9R" ><rect   width="100" height="20"/><text   transform="translate(50,10)"    >p-Y116-IL9R</text></g><g id="a538c" class="Protein" transform="translate(12,12)"  name="IL9" ><rect   width="100" height="20"/><text   transform="translate(50,10)"    >IL9</text></g><g id="c3917" class="Protein" transform="translate(12,52)"  name="p-Y904,939-JAK3" ><rect   width="100" height="20"/><text   transform="translate(50,10)"    >p-Y904,939-JAK3</text></g><g id="c4e39" class="Protein" transform="translate(12,32)"  name="IL2RG" ><rect   width="100" height="20"/><text   transform="translate(50,10)"    >IL2RG</text></g><g id="c5f53" class="Protein" transform="translate(12,132)"  name="STAT5A" ><rect   width="100" height="20"/><text   transform="translate(50,10)"    >STAT5A</text></g><g id="d7c70" class="Protein" transform="translate(12,172)"  name="STAT3" ><rect   width="100" height="20"/><text   transform="translate(50,10)"    >STAT3</text></g><g id="ed232" class="Protein" transform="translate(12,92)"  name="JAK1" ><rect   width="100" height="20"/><text   transform="translate(50,10)"    >JAK1</text></g><g id="eea28" class="Protein" transform="translate(12,152)"  name="STAT5B" ><rect   width="100" height="20"/><text   transform="translate(50,10)"    >STAT5B</text></g><g id="fe8e8" class="Protein" transform="translate(12,112)"  name="STAT1" ><rect   width="100" height="20"/><text   transform="translate(50,10)"    >STAT1</text></g></g></g><g id="af450" class="GroupComplex" transform="translate(178,658)"  ><g class="GroupComplex"><use class="Icon" width="124" height="214" fill="#b4b464" fill-opacity=".1" stroke="grey" href="#Octagon"/><g id="bef74" class="Protein" transform="translate(12,92)"  name="JAK1" ><rect   width="100" height="20"/><text   transform="translate(50,10)"    >JAK1</text></g><g id="c2875" class="Protein" transform="translate(12,132)"  name="p-Y705-STAT3" ><rect   width="100" height="20"/><text   transform="translate(50,10)"    >p-Y705-STAT3</text></g><g id="c5884" class="Protein" transform="translate(12,52)"  name="p-Y904,939-JAK3" ><rect   width="100" height="20"/><text   transform="translate(50,10)"    >p-Y904,939-JAK3</text></g><g id="d2386" class="Protein" transform="translate(12,12)"  name="IL9" ><rect   width="100" height="20"/><text   transform="translate(50,10)"    >IL9</text></g><g id="e83f2" class="Protein" transform="translate(12,32)"  name="IL2RG" ><rect   width="100" height="20"/><text   transform="translate(50,10)"    >IL2RG</text></g><g id="eb7b0" class="Unknown Reactome_R-HSA-8983121" transform="translate(12,162)"  name="p-Y649-STAT5A, p-STAT5B" ><rect   width="100" height="40"/><text   transform="translate(50,20)"    >p-Y649-STAT5A, p-STAT5B</text></g><g id="ed210" class="Protein" transform="translate(12,112)"  name="p-Y701-STAT1" ><rect   width="100" height="20"/><text   transform="translate(50,10)"    >p-Y701-STAT1</text></g><g id="fa156" class="Protein" transform="translate(12,72)"  name="p-Y116-IL9R" ><rect   width="100" height="20"/><text   transform="translate(50,10)"    >p-Y116-IL9R</text></g></g></g><g id="badd0" class="GroupComplex" transform="translate(318,738)"  ><g class="GroupComplex"><use class="Icon" width="124" height="64" fill="#b4b464" fill-opacity=".1" stroke="grey" href="#Octagon"/><g id="a422c" class="Protein" transform="translate(12,12)"  name="p-Y701-STAT1" ><rect   width="100" height="20"/><text   transform="translate(50,10)"    >p-Y701-STAT1</text></g><g id="ac1eb" class="Protein" transform="translate(12,32)"  name="p-Y705-STAT3" ><rect   width="100" height="20"/><text   transform="translate(50,10)"    >p-Y705-STAT3</text></g></g></g><g id="bb43f" class="GroupComplex" transform="translate(178,878)"  ><g class="GroupComplex"><use class="Icon" width="124" height="64" fill="#b4b464" fill-opacity=".1" stroke="grey" href="#Octagon"/><g id="a2cee" class="Protein" transform="translate(12,12)"  name="IL9R" ><rect   width="100" height="20"/><text   transform="translate(50,10)"    >IL9R</text></g><g id="c77d9" class="Protein" transform="translate(12,32)"  name="JAK1" ><rect   width="100" height="20"/><text   transform="translate(50,10)"    >JAK1</text></g></g></g><g id="c173a" class="GroupComplex" transform="translate(318,658)"  ><g class="GroupComplex"><use class="Icon" width="124" height="64" fill="#b4b464" fill-opacity=".1" stroke="grey" href="#Octagon"/><g id="d1911" class="Protein" transform="translate(12,12)"  name="p-Y649-STAT5A" ><rect   width="100" height="20"/><text   transform="translate(50,10)"    >p-Y649-STAT5A</text></g><g id="e5c89" class="Protein" transform="translate(12,32)"  name="p-STAT5B" ><rect   width="100" height="20"/><text   transform="translate(50,10)"    >p-STAT5B</text></g></g></g><g id="c5100" class="GroupComplex" transform="translate(38,618)"  ><g class="GroupComplex"><use class="Icon" width="124" height="124" fill="#b4b464" fill-opacity=".1" stroke="grey" href="#Octagon"/><g id="cc4ce" class="Protein" transform="translate(12,72)"  name="IL2RG" ><rect   width="100" height="20"/><text   transform="translate(50,10)"    >IL2RG</text></g><g id="ce668" class="Protein" transform="translate(12,32)"  name="IL9R" ><rect   width="100" height="20"/><text   transform="translate(50,10)"    >IL9R</text></g><g id="e8f00" class="Protein" transform="translate(12,52)"  name="JAK1" ><rect   width="100" height="20"/><text   transform="translate(50,10)"    >JAK1</text></g><g id="e9138" class="Protein" transform="translate(12,12)"  name="IL9" ><rect   width="100" height="20"/><text   transform="translate(50,10)"    >IL9</text></g><g id="fc6d1" class="Protein" transform="translate(12,92)"  name="JAK3" ><rect   width="100" height="20"/><text   transform="translate(50,10)"    >JAK3</text></g></g></g><g id="c757c" class="GroupNone" transform="translate(181,1301)"  ><g class="GroupNone"><rect   width="118" height="58" fill-opacity=".1" stroke-dasharray="5,3" style="fill:#b4b464;stroke:grey"/><g id="da6e4" class="Protein" transform="translate(9,29)"  name="p-STAT5B" ><rect   width="100" height="20"/><text   transform="translate(50,10)"    >p-STAT5B</text></g><g id="f404f" class="Protein" transform="translate(9,9)"  name="p-Y649-STAT5A" ><rect   width="100" height="20"/><text   transform="translate(50,10)"    >p-Y649-STAT5A</text></g></g></g><g id="cbe68" class="GroupComplex" transform="translate(178,1158)"  ><g class="GroupComplex"><use class="Icon" width="124" height="64" fill="#b4b464" fill-opacity=".1" stroke="grey" href="#Octagon"/><g id="ab40f" class="Protein" transform="translate(12,32)"  name="p-Y705-STAT3" ><rect   width="100" height="20"/><text   transform="translate(50,10)"    >p-Y705-STAT3</text></g><g id="bc0ef" class="Protein" transform="translate(12,12)"  name="p-Y701-STAT1" ><rect   width="100" height="20"/><text   transform="translate(50,10)"    >p-Y701-STAT1</text></g></g></g><g id="d99cc" class="GroupComplex" transform="translate(38,758)"  ><g class="GroupComplex"><use class="Icon" width="124" height="124" fill="#b4b464" fill-opacity=".1" stroke="grey" href="#Octagon"/><g id="abefb" class="Protein" transform="translate(12,52)"  name="p-Y904,939-JAK3" ><rect   width="100" height="20"/><text   transform="translate(50,10)"    >p-Y904,939-JAK3</text></g><g id="d05b7" class="Protein" transform="translate(12,72)"  name="IL9R" ><rect   width="100" height="20"/><text   transform="translate(50,10)"    >IL9R</text></g><g id="d7bd8" class="Protein" transform="translate(12,92)"  name="JAK1" ><rect   width="100" height="20"/><text   transform="translate(50,10)"    >JAK1</text></g><g id="f1e5b" class="Protein" transform="translate(12,32)"  name="IL2RG" ><rect   width="100" height="20"/><text   transform="translate(50,10)"    >IL2RG</text></g><g id="f7a13" class="Protein" transform="translate(12,12)"  name="IL9" ><rect   width="100" height="20"/><text   transform="translate(50,10)"    >IL9</text></g></g></g><g id="dba18" class="GroupNone" transform="translate(181,1041)"  ><g class="GroupNone"><rect   width="118" height="108" fill-opacity=".1" stroke-dasharray="5,3" style="fill:#b4b464;stroke:grey"/><g id="db59d" class="Protein" transform="translate(9,29)"  name="p-Y705-STAT3" ><rect   width="100" height="20"/><text   transform="translate(50,10)"    >p-Y705-STAT3</text></g><g id="e0907" class="Unknown Reactome_R-HSA-8983121" transform="translate(9,59)"  name="p-Y649-STAT5A, p-STAT5B" ><rect   width="100" height="40"/><text   transform="translate(50,20)"    >p-Y649-STAT5A, p-STAT5B</text></g><g id="e5a36" class="Protein" transform="translate(9,9)"  name="p-Y701-STAT1" ><rect   width="100" height="20"/><text   transform="translate(50,10)"    >p-Y701-STAT1</text></g></g></g><g id="dc471" class="GroupComplex" transform="translate(178,1238)"  ><g class="GroupComplex"><use class="Icon" width="124" height="44" fill="#b4b464" fill-opacity=".1" stroke="grey" href="#Octagon"/><g id="e1492" class="Protein" transform="translate(12,12)"  name="p-Y701-STAT1" ><rect   width="100" height="20"/><text   transform="translate(50,10)"    >p-Y701-STAT1</text></g></g></g><g id="e0188" class="GroupComplex" transform="translate(-12,-12)"  ><g class="GroupComplex"><use class="Icon" width="454" height="994" fill="#b4b464" fill-opacity=".1" stroke="grey" href="#Octagon"/><g id="cb635" class="Protein" transform="translate(342,962)"  name="JAK3" ><rect   width="100" height="20"/><text   transform="translate(50,10)"    >JAK3</text></g><g id="dd03c" class="Unknown" transform="translate(12,12)"  name="baricitinib" ><rect   transform="scale(0)" width="0" height="0"/><text   transform="translate(0)"    >baricitinib</text></g></g></g><g id="f4fa2" class="GroupNone" transform="translate(-9,-9)"  ><g class="GroupNone"><rect   width="18" height="18" fill-opacity=".1" stroke-dasharray="5,3" style="fill:#b4b464;stroke:grey"/><g id="ae24d" class="Unknown" transform="translate(9,9)"  name="baricitinib" ><rect   transform="scale(0)" width="0" height="0"/><text   transform="translate(0)"    >baricitinib</text></g></g></g><g id="f5576" class="GroupComplex" transform="translate(178,958)"  ><g class="GroupComplex"><use class="Icon" width="124" height="64" fill="#b4b464" fill-opacity=".1" stroke="grey" href="#Octagon"/><g id="c8099" class="Protein" transform="translate(12,32)"  name="JAK3" ><rect   width="100" height="20"/><text   transform="translate(50,10)"    >JAK3</text></g><g id="e5b79" class="Protein" transform="translate(12,12)"  name="IL2RG" ><rect   width="100" height="20"/><text   transform="translate(50,10)"    >IL2RG</text></g></g></g><g id="fd0f9" class="GroupComplex" transform="translate(38,1118)"  ><g class="GroupComplex"><use class="Icon" width="124" height="124" fill="#b4b464" fill-opacity=".1" stroke="grey" href="#Octagon"/><g id="ca672" class="Protein" transform="translate(12,72)"  name="p-Y116-IL9R" ><rect   width="100" height="20"/><text   transform="translate(50,10)"    >p-Y116-IL9R</text></g><g id="ccca5" class="Protein" transform="translate(12,12)"  name="IL9" ><rect   width="100" height="20"/><text   transform="translate(50,10)"    >IL9</text></g><g id="d7dc8" class="Protein" transform="translate(12,32)"  name="IL2RG" ><rect   width="100" height="20"/><text   transform="translate(50,10)"    >IL2RG</text></g><g id="d8bfd" class="Protein" transform="translate(12,92)"  name="JAK1" ><rect   width="100" height="20"/><text   transform="translate(50,10)"    >JAK1</text></g><g id="f7b90" class="Protein" transform="translate(12,52)"  name="p-Y904,939-JAK3" ><rect   width="100" height="20"/><text   transform="translate(50,10)"    >p-Y904,939-JAK3</text></g></g></g></g></g></g></svg>