<?xml version="1.0" encoding="UTF-8"?>
<!--
  WikiPathways page: https://www.wikipathways.org/index.php/Pathway:WP4481
  URL for this compressed file: https://github.com/eweitz/cachome/tree/main/data/WP4481.svg
  Source code for compression: https://github.com/eweitz/cachome/tree/main/src/wikipathways.py
-->
<svg id="wp4481-svg" class="Diagram" width="800" height="600" color="black" baseProfile="full" prefix="schema:http://schema.org/" preserveAspectRatio="xMidYMid" version="1.1" viewBox="0 0 1623.7 1016.3" vocab="http://vocabularies.wikipathways.org/wp#" xmlns="http://www.w3.org/2000/svg" xmlns:xlink="http://www.w3.org/1999/xlink"><style>svg {font-family: 'Liberation Sans', Arial, sans-serif; }</style><defs><g id="jit-defs"><filter id="kaaviodoublefalse3filter" x="-50%" y="-50%" width="200%" height="200%"><feComposite in="SourceGraphic" in2="SourceGraphic" result="doubleDark"/><feMorphology in="doubleDark" operator="dilate" radius="0.16666666666666666" result="in2Double"/><feMorphology in="SourceGraphic" operator="dilate" radius="3" result="inDouble"/><feComposite in="inDouble" in2="in2Double" operator="out" result="doubleResult"/></filter><filter id="kaavioblackto000000filter" x="0" y="0" width="1623.7" height="1016.3" filterUnits="userSpaceOnUse"><feColorMatrix in="SourceGraphic" values="-1   0   0 0 0                   0  -1   0 0 0                   0   0  -1 0 0                   0   0   0 1 0"/></filter></g><g id="jic-defs"><marker id="markerEndArrow" stroke-dasharray="99999" markerHeight="12" markerUnits="userSpaceOnUse" markerWidth="12" orient="auto" preserveAspectRatio="none" refX="12" refY="6" viewBox="0 0 12 12"><path transform="rotate(180 6 6)" d="M12 11L0 6l12-5z" fill="currentColor" stroke-width="0"/></marker><symbol id="Ellipse" overflow="visible" preserveAspectRatio="none" viewBox="0 0 50 50"><ellipse cx="25" cy="25" rx="25" ry="25" stroke="currentColor" vector-effect="non-scaling-stroke"/></symbol><symbol id="EndoplasmicReticulum" overflow="visible" preserveAspectRatio="none" viewBox="0 0 100 100"><path d="M73.528 56.61c-5.625-18.607 23.514-32.434 23.401-45.066-.344-4.861-10.49-8.898-18.29-5.334C61.6 14.085 62.99 35.515 57.435 48.444c-.356 3.61-7.363 2.469-7.75-.487-5.85-11.39 17.136-24.487 5.961-29.426-19.634-8.17-28.752 21.153-22.068 28.818 7.496 14.176-2.18 24.406-6.747 15.496-2.442-5.306 6.066-11.084-.803-16.177-4.32-2.8-11.756-.646-16.155 3.094C-3.019 60.5 14.602 90.744 30.837 85.91c4.698-1.96-3.236-8.702 3.907-9.6 7.298-.812 5.176 6.19 7.687 9.227 2.307 4.051 4.833 8.355 10.763 11.624 4.786 2.537 15.294 2.112 16.771-1.958 2.032-9.263-26.11-28.359-10.689-31.282 18.556-2.714 4.749 23.846 24.31 29.695 9.502 2.028 15.64-.622 14.813-4.033-2.746-11.263-25.136-22.68-24.964-33.15" stroke="currentColor" vector-effect="non-scaling-stroke"/></symbol><symbol id="Octagon" overflow="visible" preserveAspectRatio="none" viewBox="0 0 100 100"><path d="M0 25L25 0h50l25 25v50l-25 25H25L0 75z" stroke="currentColor" vector-effect="non-scaling-stroke"/></symbol><symbol id="TrianglePathVisio" overflow="visible" preserveAspectRatio="none" viewBox="0 0 50 50"><path d="M14.5 3.3v43.4L61 25z" stroke="currentColor" vector-effect="non-scaling-stroke"/></symbol><symbol id="none" preserveAspectRatio="none" viewBox="0 0 100 100"/></g></defs><g id="WP4481" class="Viewport" color="black"  name="Name: Resistin as a regulator of inflammation Organism: Homo sapiens"><rect id="WP4481-icon" class="Icon" width="1623.7" height="1016.3" fill="#fff" stroke="#000" stroke-width="0"/><g id="d2eae" class="Edge GraphicalLine" color="#000" ><g color="#000" fill="transparent"  filter="url(#kaavioblackto000000filter)" stroke="#000" stroke-dasharray="115.18656716417911, 0" stroke-width="2"><path id="d2eae" class="EdgeBody" d="m868.84 707.57h115.19"   /></g></g><g id="id1dfd233a" class="DirectedInteraction" color="#000" ><g color="#000" fill="transparent"  filter="url(#kaavioblackto000000filter)" stroke="#000" stroke-dasharray="35.31367015341699, 5.8"><path id="id1dfd233a" class="EdgeBody" d="m941.6 269.3 0.25918 41.113"   marker-end="url(#markerEndArrow)" /></g></g><g id="id609955ad" class="DirectedInteraction" color="#000" ><g color="#000" fill="transparent"  filter="url(#kaavioblackto000000filter)" stroke="#000" stroke-dasharray="122.23962017558337, 5.8"><path id="id609955ad" class="EdgeBody" d="m941.86 340.43 55.882 115.2"   marker-end="url(#markerEndArrow)" /></g></g><g id="id9a8fd1fb" class="DirectedInteraction" color="#000" ><g color="#000" fill="transparent"  filter="url(#kaavioblackto000000filter)" stroke="#000" stroke-dasharray="208.29362682275234, 5.8"><path id="id9a8fd1fb" class="EdgeBody" d="m1105.4 504.97-136.98-164.53"   marker-end="url(#markerEndArrow)" /></g></g><g id="ida7481621" class="DirectedInteraction" color="#000" ><g color="#000" fill="transparent"  filter="url(#kaavioblackto000000filter)" stroke="#000" stroke-dasharray="72.16243340973635, 5.8"><path id="ida7481621" class="EdgeBody" d="m1419.6 583.84 65.39 42.453"   marker-end="url(#markerEndArrow)" /></g></g><g id="idd054aaf9" class="DirectedInteraction" color="#000" ><g color="#000" fill="transparent"  filter="url(#kaavioblackto000000filter)" stroke="#000" stroke-dasharray="233.38299882832942, 5.8"><path id="idd054aaf9" class="EdgeBody" d="m1088 266.42 17.39 238.55"   marker-end="url(#markerEndArrow)" /></g></g><g id="iddadd2a35" class="Interaction" color="#000" ><g color="#000" fill="transparent"  filter="url(#kaavioblackto000000filter)" stroke="#000" stroke-dasharray="28.44196088573474, 0"><path id="iddadd2a35" class="EdgeBody" d="m941.69 202.35 0.071436 28.442"   /></g></g><g id="id1c903e6f" class="DirectedInteraction" color="#000" ><g color="#000" fill="transparent"  filter="url(#kaavioblackto000000filter)" stroke="#000" stroke-dasharray="60.826983717310426, 5.8"><path id="id1c903e6f" class="EdgeBody" d="m941.86 340.43-40.711 52.742"   marker-end="url(#markerEndArrow)" /></g></g><g id="id689b1c09" class="DirectedInteraction" color="#000" ><g color="#000" fill="transparent"  filter="url(#kaavioblackto000000filter)" stroke="#000" stroke-dasharray="261.6156118451084, 5.8"><path id="id689b1c09" class="EdgeBody" d="m977.67 256.09 259.75 63.586"   marker-end="url(#markerEndArrow)" /></g></g><g id="ide1afa9d9" class="DirectedInteraction" color="#000" ><g color="#000" fill="transparent"  filter="url(#kaavioblackto000000filter)" stroke="#000" stroke-dasharray="85.77525818577007, 5.8"><path id="ide1afa9d9" class="EdgeBody" d="m1289.4 543.68 90.084 16.459"   marker-end="url(#markerEndArrow)" /></g></g><g id="id28673455" class="DirectedInteraction" color="#000" ><g color="#000" fill="transparent"  filter="url(#kaavioblackto000000filter)" stroke="#000" stroke-dasharray="121.6730682914091, 5.8"><path id="id28673455" class="EdgeBody" d="m923.56 269.3-109 66.087"   marker-end="url(#markerEndArrow)" /></g></g><g id="id171218f0" class="DirectedInteraction" color="#000" ><g color="#000" fill="transparent"  filter="url(#kaavioblackto000000filter)" stroke="#000" stroke-dasharray="93.93459344614641, 5.8"><path id="id171218f0" class="EdgeBody" d="m628.42 504.7-85.825 50.805"   marker-end="url(#markerEndArrow)" /></g></g><g id="idd461862d" class="DirectedInteraction" color="#000" ><g color="#000" fill="transparent"  filter="url(#kaavioblackto000000filter)" stroke="#000" stroke-dasharray="66.4737362340535, 5.8"><path id="idd461862d" class="EdgeBody" d="m710.56 377.38-36.139 62.59"   marker-end="url(#markerEndArrow)" /></g></g><g id="ida1785b49" class="DirectedInteraction" color="#000" ><g color="#000" fill="transparent"  filter="url(#kaavioblackto000000filter)" stroke="#000" stroke-dasharray="133.93938211619775, 5.8"><path id="ida1785b49" class="EdgeBody" d="m437.61 467.23-1.2633 139.73"   marker-end="url(#markerEndArrow)" /></g></g><g id="idacca70a6" class="DirectedInteraction" color="#000" ><g color="#000" fill="transparent"  filter="url(#kaavioblackto000000filter)" stroke="#000" stroke-dasharray="448.9122902700163, 5.8"><path id="idacca70a6" class="EdgeBody" d="m905.52 256.09-441.91 107.14"   marker-end="url(#markerEndArrow)" /></g></g><g id="id8b5a2b72" class="DirectedInteraction" color="#000" ><g color="#000" fill="transparent"  filter="url(#kaavioblackto000000filter)" stroke="#000" stroke-dasharray="104.65197122620383, 5.8"><path id="id8b5a2b72" class="EdgeBody" d="m628.42 504.7 107.64 24.75"   marker-end="url(#markerEndArrow)" /></g></g><g id="id3d87ad82" class="DirectedInteraction" color="#000" ><g color="#000" fill="transparent"  filter="url(#kaavioblackto000000filter)" stroke="#000" stroke-dasharray="88.59942748990748, 5.8"><path id="id3d87ad82" class="EdgeBody" d="m1498.3 645.33-54.367 77.171"   marker-end="url(#markerEndArrow)" /></g></g><g id="a2350" class="SingleFreeNode Shape" transform="translate(888.75 310.41)" color="#000" ><use id="a2350-icon" class="Icon" transform="matrix(.99067 0 0 .96777 .49534 .48388)" width="106.21428571428595" height="30.02380952380952" fill="transparent"  stroke="#000" xlink:href="#Ellipse"/></g><g id="aa8db" class="SingleFreeNode Shape" transform="translate(1379.5 548.28)" color="#000" ><use id="aa8db-icon" class="Icon" transform="matrix(.97568 0 0 .97934 .48784 .48967)" width="40.111706250000125" height="47.40474375000005" fill="transparent"  stroke="#000" xlink:href="#Ellipse"/></g><g id="bf95d" class="SingleFreeNode Shape PhysicalEntity CellularComponent Nucleus" transform="translate(688.66 589.44)" color="#c0c0c0" ><g fill="transparent"  filter="url(#kaaviodoublefalse3filter)" stroke="#c0c0c0" stroke-width="3"><use id="bf95d-icon" class="Icon" transform="matrix(.96605 0 0 .94517 5.7963 5.671)" width="341.4675000000002" height="206.84731343283596"    xlink:href="#Ellipse"/></g></g><g id="c5949" class="SingleFreeNode Shape" transform="translate(832.54 877.48)" color="#000" ><rect id="c5949-icon" class="Icon" transform="matrix(.99509 0 0 .99089 .49754 .49545)" width="202.58" height="108.82" fill="transparent"  stroke="#000"/></g><g id="f1a78" class="SingleFreeNode Shape PhysicalEntity CellularComponent Cell" transform="translate(337.65 243.24)" color="#c0c0c0" ><g fill="transparent"  filter="url(#kaaviodoublefalse3filter)" stroke="#c0c0c0" stroke-width="3"><rect id="f1a78-icon" class="Icon" transform="matrix(.99052 0 0 .9804 5.9431 5.8824)" width="1253.5" height="600.26" rx="15" ry="15"   /></g></g><g id="f2fba" class="SingleFreeNode Shape PhysicalEntity CellularComponent EndoplasmicReticulum" transform="translate(1309.4 626.29)" color="#c0c0c0" ><use id="f2fba-icon" class="Icon" transform="matrix(.98735 0 0 .98412 1.481 1.4762)" width="234.16417910447794" height="185.94402985074456" fill="transparent"  stroke="#c0c0c0" stroke-width="3" xlink:href="#EndoplasmicReticulum"/></g><g id="f61d4" class="GroupGroup" transform="translate(1395.2 710.76)" color="grey" ><use id="f61d4-icon" class="Icon" width="48.647159823904985" height="46.950000000000045" fill="transparent"  stroke="grey" stroke-dasharray="5,3" stroke-width="0" xlink:href="#none"/><g id="f9a9c" class="SingleFreeNode Shape" transform="translate(8,8)" color="#000" ><use id="f9a9c-icon" class="Icon" transform="matrix(.9697 0 0 .9687 .48485 .48435)" width="32.0000000000002" height="30.950000000000045" fill="transparent"  stroke="#000" xlink:href="#Ellipse"/></g><g id="b3116" class="Label" transform="translate(9.0687 12.588)" color="#000"  name="Ca2+"><use id="b3116-icon" class="Icon" width="31.578478830395678" height="21.641138608798606" fill="transparent"  stroke="#000" stroke-width="0" xlink:href="#none"/><text id="b3116-text" class="Text" transform="translate(15.789 13.821)" fill="#000"  font-size="9px" stroke="white" stroke-width="0" text-anchor="middle"><tspan x="0" y="0">Ca2+</tspan></text></g></g><g id="a2ba5" class="Label" transform="translate(817.04 765.83)" color="#000"  name="Nucleus"><use id="a2ba5-icon" class="Icon" width="90" height="25" fill="transparent"  stroke="#000" stroke-width="0" xlink:href="#none"/><text id="a2ba5-text" class="Text" transform="translate(45,15.5)" fill="#000"  font-size="9px" stroke="white" stroke-width="0" text-anchor="middle"><tspan x="0" y="0">Nucleus</tspan></text></g><g id="aa50c" class="Label" transform="translate(796.9 215.52)" color="#000"  name="Unknown receptor"><use id="aa50c-icon" class="Icon" width="111.60447761194028" height="25" fill="transparent"  stroke="#000" stroke-width="0" xlink:href="#none"/><text id="aa50c-text" class="Text" transform="translate(55.802 16.5)" fill="#000"  font-size="12px" stroke="white" stroke-width="0" text-anchor="middle"><tspan x="0" y="0">Unknown receptor</tspan></text></g><g id="abc93" class="Label" transform="translate(888.83 721.4)" color="#000"  name="DNA"><use id="abc93-icon" class="Icon" width="90" height="25" fill="transparent"  stroke="#000" stroke-width="0" xlink:href="#none"/><text id="abc93-text" class="Text" transform="translate(45,16.5)" fill="#000"  font-size="12px" font-weight="bold" stroke="white" stroke-width="0" text-anchor="middle"><tspan x="0" y="0">DNA</tspan></text></g><g id="cf7bd" class="Label" transform="translate(1503.7 250)" color="#000"  name="Cytosol"><use id="cf7bd-icon" class="Icon" width="90" height="25" fill="transparent"  stroke="#000" stroke-width="0" xlink:href="#none"/><text id="cf7bd-text" class="Text" transform="translate(45,16.5)" fill="#000"  font-size="12px" stroke="white" stroke-width="0" text-anchor="middle"><tspan x="0" y="0">Cytosol</tspan></text></g><g id="e13aa" class="Label" transform="translate(1352.7 555.58)" color="#000"  name="IP3"><use id="e13aa-icon" class="Icon" width="93.62025000000006" height="33.16360625000014" fill="transparent"  stroke="#000" stroke-width="0" xlink:href="#none"/><text id="e13aa-text" class="Text" transform="translate(46.81 20.582)" fill="#000"  font-size="12px" stroke="white" stroke-width="0" text-anchor="middle"><tspan x="0" y="0">IP3</tspan></text></g><g id="e7dc9" class="Label" transform="translate(1108.4 206.12)" color="#000"  name="Calcium channel"><use id="e7dc9-icon" class="Icon" width="90" height="25" fill="transparent"  stroke="#000" stroke-width="0" xlink:href="#none"/><text id="e7dc9-text" class="Text" transform="translate(45,16.5)" fill="#000"  font-size="12px" stroke="white" stroke-width="0" text-anchor="middle"><tspan x="0" y="0">Calcium channel</tspan></text></g><g id="eb4d7" class="Label" transform="translate(892.21 312.46)" color="#000"  name="MAPK Cascade"><use id="eb4d7-icon" class="Icon" width="99.28571428571422" height="25" fill="transparent"  stroke="#000" stroke-width="0" xlink:href="#none"/><text id="eb4d7-text" class="Text" transform="translate(49.643 15.5)" fill="#000"  font-size="10px" stroke="white" stroke-width="0" text-anchor="middle"><tspan x="0" y="0">MAPK Cascade</tspan></text></g><g id="f61d1" class="Label" transform="translate(1378.6 805.45)" color="#000"  name="Endoplasmic reticulum"><use id="f61d1-icon" class="Icon" width="141.74999999999991" height="25" fill="transparent"  stroke="#000" stroke-width="0" xlink:href="#none"/><text id="f61d1-text" class="Text" transform="translate(70.875 16.5)" fill="#000"  font-size="12px" stroke="white" stroke-width="0" text-anchor="middle"><tspan x="0" y="0">Endoplasmic reticulum</tspan></text></g><a  id="pvjsgeneratedidf9aab" class="GeneProduct IL6 " transform="translate(844.97 895.62)"   name="IL6"  ><rect id="pvjsgeneratedidf9aab-icon" class="Icon" transform="matrix(.98765 0 0 .95238 .49383 .47619)" width="80" height="20" fill="#fff" stroke="#000"/><text id="pvjsgeneratedidf9aab-text" class="Text" transform="translate(40,14)" fill="#000"  font-size="12px" stroke="white" stroke-width="0" text-anchor="middle"><tspan x="0" y="0">IL6</tspan></text></a><a  id="pvjsgeneratedidf9aac" class="GeneProduct CXCL8 " transform="translate(844.97 915.62)"   name="IL8"  ><rect id="pvjsgeneratedidf9aac-icon" class="Icon" transform="matrix(.98765 0 0 .95238 .49383 .47619)" width="80" height="20" fill="#fff" stroke="#000"/><text id="pvjsgeneratedidf9aac-text" class="Text" transform="translate(40,14)" fill="#000"  font-size="12px" stroke="white" stroke-width="0" text-anchor="middle"><tspan x="0" y="0">IL8</tspan></text></a><a  id="pvjsgeneratedidf9aad" class="GeneProduct TNF " transform="translate(895.53 951.82)"   name="TNF"  ><rect id="pvjsgeneratedidf9aad-icon" class="Icon" transform="matrix(.98765 0 0 .95238 .49383 .47619)" width="80" height="20" fill="#fff" stroke="#000"/><text id="pvjsgeneratedidf9aad-text" class="Text" transform="translate(40,14)" fill="#000"  font-size="12px" stroke="white" stroke-width="0" text-anchor="middle"><tspan x="0" y="0">TNF</tspan></text></a><a  id="pvjsgeneratedidf9aae" class="GeneProduct IL12B " transform="translate(940.93 915.62)"   name="IL12B"  ><rect id="pvjsgeneratedidf9aae-icon" class="Icon" transform="matrix(.98765 0 0 .95238 .49383 .47619)" width="80" height="20" fill="#fff" stroke="#000"/><text id="pvjsgeneratedidf9aae-text" class="Text" transform="translate(40,14)" fill="#000"  font-size="12px" stroke="white" stroke-width="0" text-anchor="middle"><tspan x="0" y="0">IL12B</tspan></text></a><a  id="pvjsgeneratedidf9aaf" class="GeneProduct IL12A " transform="translate(940.93 895.62)"   name="IL12A"  ><rect id="pvjsgeneratedidf9aaf-icon" class="Icon" transform="matrix(.98765 0 0 .95238 .49383 .47619)" width="80" height="20" fill="#fff" stroke="#000"/><text id="pvjsgeneratedidf9aaf-text" class="Text" transform="translate(40,14)" fill="#000"  font-size="12px" stroke="white" stroke-width="0" text-anchor="middle"><tspan x="0" y="0">IL12A</tspan></text></a><a  id="da64e" class="GeneProduct ITPR1 " transform="translate(1458.3 625.33)"   name="ITP3R"  ><rect id="da64e-icon" class="Icon" transform="matrix(.98765 0 0 .95238 .49383 .47619)" width="80" height="20" fill="#fff" stroke="#000"/><text id="da64e-text" class="Text" transform="translate(40,14)" fill="#000"  font-size="12px" stroke="white" stroke-width="0" text-anchor="middle"><tspan x="0" y="0">ITP3R</tspan></text></a><a  id="e848f" class="GeneProduct MAPK14 " transform="translate(957.74 455.64)"   name="p38"  ><rect id="e848f-icon" class="Icon" transform="matrix(.98765 0 0 .95238 .49383 .47619)" width="80" height="20" fill="#fff" stroke="#000"/><text id="e848f-text" class="Text" transform="translate(40,14)" fill="#000"  font-size="12px" stroke="white" stroke-width="0" text-anchor="middle"><tspan x="0" y="0">p38</tspan></text></a><a  id="fa46c" class="GeneProduct RETN " transform="translate(901.69 182.35)"   name="RETN"  ><rect id="fa46c-icon" class="Icon" transform="matrix(.98765 0 0 .95238 .49383 .47619)" width="80" height="20" fill="#fff" stroke="#000"/><text id="fa46c-text" class="Text" transform="translate(40,14)" fill="#000"  font-size="12px" stroke="white" stroke-width="0" text-anchor="middle"><tspan x="0" y="0">RETN</tspan></text></a><g id="a162f" class="GroupComplex" transform="translate(384.35 606.97)" color="grey" ><use id="a162f-icon" class="Icon" transform="matrix(.99048 0 0 .98824 .49524 .49412)" width="104" height="83.99999999999977" fill="#b4b464" fill-opacity=".1" stroke="grey" xlink:href="#Octagon"/><a  id="pvjsgeneratedidf2fbb" class="GeneProduct AKT1 " transform="translate(12,12)"   name="AKT1"  ><rect id="pvjsgeneratedidf2fbb-icon" class="Icon" transform="matrix(.98765 0 0 .95238 .49383 .47619)" width="80" height="20" fill="#fff" stroke="#000"/><text id="pvjsgeneratedidf2fbb-text" class="Text" transform="translate(40,14)" fill="#000"  font-size="12px" stroke="white" stroke-width="0" text-anchor="middle"><tspan x="0" y="0">AKT1</tspan></text></a><a  id="pvjsgeneratedidf9a9d" class="GeneProduct AKT2 " transform="translate(12 32)"   name="AKT2"  ><rect id="pvjsgeneratedidf9a9d-icon" class="Icon" transform="matrix(.98765 0 0 .95238 .49383 .47619)" width="80" height="20" fill="#fff" stroke="#000"/><text id="pvjsgeneratedidf9a9d-text" class="Text" transform="translate(40,14)" fill="#000"  font-size="12px" stroke="white" stroke-width="0" text-anchor="middle"><tspan x="0" y="0">AKT2</tspan></text></a><a  id="pvjsgeneratedidf9a9e" class="GeneProduct AKT3 " transform="translate(12 52)"   name="AKT3"  ><rect id="pvjsgeneratedidf9a9e-icon" class="Icon" transform="matrix(.98765 0 0 .95238 .49383 .47619)" width="80" height="20" fill="#fff" stroke="#000"/><text id="pvjsgeneratedidf9a9e-text" class="Text" transform="translate(40,14)" fill="#000"  font-size="12px" stroke="white" stroke-width="0" text-anchor="middle"><tspan x="0" y="0">AKT3</tspan></text></a></g><g id="ca257" class="GroupComplex" transform="translate(823.14 393.18)" color="grey" ><use id="ca257-icon" class="Icon" transform="matrix(.99048 0 0 .98462 .49524 .49231)" width="104.00000000000011" height="64" fill="#b4b464" fill-opacity=".1" stroke="grey" xlink:href="#Octagon"/><a  id="pvjsgeneratedida01" class="GeneProduct MAPK3 " transform="translate(12 32)"   name="ERK1"  ><rect id="pvjsgeneratedida01-icon" class="Icon" transform="matrix(.98765 0 0 .95238 .49383 .47619)" width="80" height="20" fill="#fff" stroke="#000"/><text id="pvjsgeneratedida01-text" class="Text" transform="translate(40,14)" fill="#000"  font-size="12px" stroke="white" stroke-width="0" text-anchor="middle"><tspan x="0" y="0">ERK1</tspan></text></a><a  id="pvjsgeneratedida2ba6" class="GeneProduct MAPK1 " transform="translate(12,12)"   name="ERK2"  ><rect id="pvjsgeneratedida2ba6-icon" class="Icon" transform="matrix(.98765 0 0 .95238 .49383 .47619)" width="80" height="20" fill="#fff" stroke="#000"/><text id="pvjsgeneratedida2ba6-text" class="Text" transform="translate(40,14)" fill="#000"  font-size="12px" stroke="white" stroke-width="0" text-anchor="middle"><tspan x="0" y="0">ERK2</tspan></text></a></g><g id="cd8bd" class="GroupComplex" transform="translate(1211.4 319.67)" color="grey" ><use id="cd8bd-icon" class="Icon" transform="matrix(.99048 0 0 .99556 .49524 .49778)" width="104" height="224.0000000000009" fill="#b4b464" fill-opacity=".1" stroke="grey" xlink:href="#Octagon"/><a  id="pvjsgeneratedidf9aa1" class="GeneProduct PLCB1 " transform="translate(12,12)"   name="PLCB1"  ><rect id="pvjsgeneratedidf9aa1-icon" class="Icon" transform="matrix(.98765 0 0 .95238 .49383 .47619)" width="80" height="20" fill="#fff" stroke="#000"/><text id="pvjsgeneratedidf9aa1-text" class="Text" transform="translate(40,14)" fill="#000"  font-size="12px" stroke="white" stroke-width="0" text-anchor="middle"><tspan x="0" y="0">PLCB1</tspan></text></a><a  id="pvjsgeneratedidf9aa2" class="GeneProduct PLCB2 " transform="translate(12,32)"   name="PLCB2"  ><rect id="pvjsgeneratedidf9aa2-icon" class="Icon" transform="matrix(.98765 0 0 .95238 .49383 .47619)" width="80" height="20" fill="#fff" stroke="#000"/><text id="pvjsgeneratedidf9aa2-text" class="Text" transform="translate(40,14)" fill="#000"  font-size="12px" stroke="white" stroke-width="0" text-anchor="middle"><tspan x="0" y="0">PLCB2</tspan></text></a><a  id="pvjsgeneratedidf9aa3" class="GeneProduct PLCB3 " transform="translate(12 52)"   name="PLCB3"  ><rect id="pvjsgeneratedidf9aa3-icon" class="Icon" transform="matrix(.98765 0 0 .95238 .49383 .47619)" width="80" height="20" fill="#fff" stroke="#000"/><text id="pvjsgeneratedidf9aa3-text" class="Text" transform="translate(40,14)" fill="#000"  font-size="12px" stroke="white" stroke-width="0" text-anchor="middle"><tspan x="0" y="0">PLCB3</tspan></text></a><a  id="pvjsgeneratedidf9aa4" class="GeneProduct PLCB4 " transform="translate(12 72)"   name="PLCB4"  ><rect id="pvjsgeneratedidf9aa4-icon" class="Icon" transform="matrix(.98765 0 0 .95238 .49383 .47619)" width="80" height="20" fill="#fff" stroke="#000"/><text id="pvjsgeneratedidf9aa4-text" class="Text" transform="translate(40,14)" fill="#000"  font-size="12px" stroke="white" stroke-width="0" text-anchor="middle"><tspan x="0" y="0">PLCB4</tspan></text></a><a  id="pvjsgeneratedidf9aa5" class="GeneProduct PLCG1 " transform="translate(12 92)"   name="PLCG1"  ><rect id="pvjsgeneratedidf9aa5-icon" class="Icon" transform="matrix(.98765 0 0 .95238 .49383 .47619)" width="80" height="20" fill="#fff" stroke="#000"/><text id="pvjsgeneratedidf9aa5-text" class="Text" transform="translate(40,14)" fill="#000"  font-size="12px" stroke="white" stroke-width="0" text-anchor="middle"><tspan x="0" y="0">PLCG1</tspan></text></a><a  id="pvjsgeneratedidf9aa6" class="GeneProduct PLCG2 " transform="translate(12 112)"   name="PLCG2"  ><rect id="pvjsgeneratedidf9aa6-icon" class="Icon" transform="matrix(.98765 0 0 .95238 .49383 .47619)" width="80" height="20" fill="#fff" stroke="#000"/><text id="pvjsgeneratedidf9aa6-text" class="Text" transform="translate(40,14)" fill="#000"  font-size="12px" stroke="white" stroke-width="0" text-anchor="middle"><tspan x="0" y="0">PLCG2</tspan></text></a><a  id="pvjsgeneratedidf9aa7" class="GeneProduct PLCD1 " transform="translate(12 132)"   name="PLCD1"  ><rect id="pvjsgeneratedidf9aa7-icon" class="Icon" transform="matrix(.98765 0 0 .95238 .49383 .47619)" width="80" height="20" fill="#fff" stroke="#000"/><text id="pvjsgeneratedidf9aa7-text" class="Text" transform="translate(40,14)" fill="#000"  font-size="12px" stroke="white" stroke-width="0" text-anchor="middle"><tspan x="0" y="0">PLCD1</tspan></text></a><a  id="pvjsgeneratedidf9aa8" class="GeneProduct PLCD4 " transform="translate(12 152)"   name="PLCD4"  ><rect id="pvjsgeneratedidf9aa8-icon" class="Icon" transform="matrix(.98765 0 0 .95238 .49383 .47619)" width="80" height="20" fill="#fff" stroke="#000"/><text id="pvjsgeneratedidf9aa8-text" class="Text" transform="translate(40,14)" fill="#000"  font-size="12px" stroke="white" stroke-width="0" text-anchor="middle"><tspan x="0" y="0">PLCD4</tspan></text></a><a  id="pvjsgeneratedidf9aa9" class="GeneProduct PLCD3 " transform="translate(12 172)"   name="PLCD3"  ><rect id="pvjsgeneratedidf9aa9-icon" class="Icon" transform="matrix(.98765 0 0 .95238 .49383 .47619)" width="80" height="20" fill="#fff" stroke="#000"/><text id="pvjsgeneratedidf9aa9-text" class="Text" transform="translate(40,14)" fill="#000"  font-size="12px" stroke="white" stroke-width="0" text-anchor="middle"><tspan x="0" y="0">PLCD3</tspan></text></a><a  id="pvjsgeneratedidf9aaa" class="GeneProduct PLCE1 " transform="translate(12 192)"   name="PLCE1"  ><rect id="pvjsgeneratedidf9aaa-icon" class="Icon" transform="matrix(.98765 0 0 .95238 .49383 .47619)" width="80" height="20" fill="#fff" stroke="#000"/><text id="pvjsgeneratedidf9aaa-text" class="Text" transform="translate(40,14)" fill="#000"  font-size="12px" stroke="white" stroke-width="0" text-anchor="middle"><tspan x="0" y="0">PLCE1</tspan></text></a></g><g id="d1694" class="GroupComplex" transform="translate(710.56 314.38)" color="grey" ><use id="d1694-icon" class="Icon" transform="matrix(.99048 0 0 .98824 .49524 .49412)" width="104" height="84.00000000000034" fill="#b4b464" fill-opacity=".1" stroke="grey" xlink:href="#Octagon"/><a  id="pvjsgeneratedidf9ab0" class="GeneProduct CHUK " transform="translate(12,12)"   name="IkKA"  ><rect id="pvjsgeneratedidf9ab0-icon" class="Icon" transform="matrix(.98765 0 0 .95238 .49383 .47619)" width="80" height="20" fill="#fff" stroke="#000"/><text id="pvjsgeneratedidf9ab0-text" class="Text" transform="translate(40,14)" fill="#000"  font-size="12px" stroke="white" stroke-width="0" text-anchor="middle"><tspan x="0" y="0">IkKA</tspan></text></a><a  id="pvjsgeneratedidf9ab1" class="GeneProduct IKBKB " transform="translate(12 32)"   name="IkKB"  ><rect id="pvjsgeneratedidf9ab1-icon" class="Icon" transform="matrix(.98765 0 0 .95238 .49383 .47619)" width="80" height="20" fill="#fff" stroke="#000"/><text id="pvjsgeneratedidf9ab1-text" class="Text" transform="translate(40,14)" fill="#000"  font-size="12px" stroke="white" stroke-width="0" text-anchor="middle"><tspan x="0" y="0">IkKB</tspan></text></a><a  id="pvjsgeneratedidf9ab2" class="GeneProduct IKBKG " transform="translate(12 52)"   name="IkKG"  ><rect id="pvjsgeneratedidf9ab2-icon" class="Icon" transform="matrix(.98765 0 0 .95238 .49383 .47619)" width="80" height="20" fill="#fff" stroke="#000"/><text id="pvjsgeneratedidf9ab2-text" class="Text" transform="translate(40,14)" fill="#000"  font-size="12px" stroke="white" stroke-width="0" text-anchor="middle"><tspan x="0" y="0">IkKG</tspan></text></a></g><g id="d5364" class="GroupComplex" transform="translate(536.42 439.97)" color="grey" ><use id="d5364-icon" class="Icon" transform="matrix(.99459 0 0 .98479 .4973 .49239)" width="183.9999999999999" height="64.72767954508896" fill="#b4b464" fill-opacity=".1" stroke="grey" xlink:href="#Octagon"/><a  id="pvjsgeneratedidf9aa0" class="GeneProduct NFKBIA " transform="translate(51.945 12)"   name="IkBA"  ><rect id="pvjsgeneratedidf9aa0-icon" class="Icon" transform="matrix(.98765 0 0 .95238 .49383 .47619)" width="80" height="20" fill="#fff" stroke="#000"/><text id="pvjsgeneratedidf9aa0-text" class="Text" transform="translate(40,14)" fill="#000"  font-size="12px" stroke="white" stroke-width="0" text-anchor="middle"><tspan x="0" y="0">IkBA</tspan></text></a><a  id="pvjsgeneratedidf9ab3" class="GeneProduct RELA " transform="translate(12 32.728)"   name="RELA"  ><rect id="pvjsgeneratedidf9ab3-icon" class="Icon" transform="matrix(.98765 0 0 .95238 .49383 .47619)" width="80" height="20" fill="#fff" stroke="#000"/><text id="pvjsgeneratedidf9ab3-text" class="Text" transform="translate(40,14)" fill="#000"  font-size="12px" stroke="white" stroke-width="0" text-anchor="middle"><tspan x="0" y="0">RELA</tspan></text></a><a  id="pvjsgeneratedidfa46d" class="GeneProduct NFKB1 " transform="translate(92 32.728)"   name="NFkB"  ><rect id="pvjsgeneratedidfa46d-icon" class="Icon" transform="matrix(.98765 0 0 .95238 .49383 .47619)" width="80" height="20" fill="#fff" stroke="#000"/><text id="pvjsgeneratedidfa46d-text" class="Text" transform="translate(40,14)" fill="#000"  font-size="12px" stroke="white" stroke-width="0" text-anchor="middle"><tspan x="0" y="0">NFkB</tspan></text></a></g><g id="e5938" class="GroupComplex" transform="translate(385.61 363.23)" color="grey" ><use id="e5938-icon" class="Icon" transform="matrix(.99048 0 0 .99048 .49524 .49524)" width="104" height="103.99999999999977" fill="#b4b464" fill-opacity=".1" stroke="grey" xlink:href="#Octagon"/><a  id="pvjsgeneratedidaa8dc" class="GeneProduct PIK3CA " transform="translate(12,12)"   name="PI3KA"  ><rect id="pvjsgeneratedidaa8dc-icon" class="Icon" transform="matrix(.98765 0 0 .95238 .49383 .47619)" width="80" height="20" fill="#fff" stroke="#000"/><text id="pvjsgeneratedidaa8dc-text" class="Text" transform="translate(40,14)" fill="#000"  font-size="12px" stroke="white" stroke-width="0" text-anchor="middle"><tspan x="0" y="0">PI3KA</tspan></text></a><a  id="pvjsgeneratedidbf95e" class="GeneProduct PIK3CB " transform="translate(12,32)"   name="PI3KB"  ><rect id="pvjsgeneratedidbf95e-icon" class="Icon" transform="matrix(.98765 0 0 .95238 .49383 .47619)" width="80" height="20" fill="#fff" stroke="#000"/><text id="pvjsgeneratedidbf95e-text" class="Text" transform="translate(40,14)" fill="#000"  font-size="12px" stroke="white" stroke-width="0" text-anchor="middle"><tspan x="0" y="0">PI3KB</tspan></text></a><a  id="pvjsgeneratedidc594a" class="GeneProduct PIK3CD " transform="translate(12 52)"   name="PI3KD"  ><rect id="pvjsgeneratedidc594a-icon" class="Icon" transform="matrix(.98765 0 0 .95238 .49383 .47619)" width="80" height="20" fill="#fff" stroke="#000"/><text id="pvjsgeneratedidc594a-text" class="Text" transform="translate(40,14)" fill="#000"  font-size="12px" stroke="white" stroke-width="0" text-anchor="middle"><tspan x="0" y="0">PI3KD</tspan></text></a><a  id="pvjsgeneratedidf1a79" class="GeneProduct PIK3CG " transform="translate(12 72)"   name="PI3KG"  ><rect id="pvjsgeneratedidf1a79-icon" class="Icon" transform="matrix(.98765 0 0 .95238 .49383 .47619)" width="80" height="20" fill="#fff" stroke="#000"/><text id="pvjsgeneratedidf1a79-text" class="Text" transform="translate(40,14)" fill="#000"  font-size="12px" stroke="white" stroke-width="0" text-anchor="middle"><tspan x="0" y="0">PI3KG</tspan></text></a></g><g id="efc5c" class="GroupComplex" transform="translate(644.06 529.45)" color="grey" ><use id="efc5c-icon" class="Icon" transform="matrix(.99459 0 0 .97778 .4973 .48889)" width="184" height="44" fill="#b4b464" fill-opacity=".1" stroke="grey" xlink:href="#Octagon"/><a  id="pvjsgeneratedidf9a9f" class="GeneProduct NFKB1 " transform="translate(92,12)"   name="NFkB"  ><rect id="pvjsgeneratedidf9a9f-icon" class="Icon" transform="matrix(.98765 0 0 .95238 .49383 .47619)" width="80" height="20" fill="#fff" stroke="#000"/><text id="pvjsgeneratedidf9a9f-text" class="Text" transform="translate(40,14)" fill="#000"  font-size="12px" stroke="white" stroke-width="0" text-anchor="middle"><tspan x="0" y="0">NFkB</tspan></text></a><a  id="pvjsgeneratedidfa46e" class="GeneProduct RELA " transform="translate(12,12)"   name="RELA"  ><rect id="pvjsgeneratedidfa46e-icon" class="Icon" transform="matrix(.98765 0 0 .95238 .49383 .47619)" width="80" height="20" fill="#fff" stroke="#000"/><text id="pvjsgeneratedidfa46e-text" class="Text" transform="translate(40,14)" fill="#000"  font-size="12px" stroke="white" stroke-width="0" text-anchor="middle"><tspan x="0" y="0">RELA</tspan></text></a></g><g id="ba7e7" class="SingleFreeNode Shape" transform="translate(915.54 207.06) rotate(89.427 26.06 35.816)" color="#000" ><use id="ba7e7-icon" class="Icon" transform="matrix(.98117 0 0 .98623 .49059 .49312)" width="52.12026546971845" height="71.6318016235804" fill="transparent"  stroke="#000" xlink:href="#TrianglePathVisio"/></g><a  id="e4b89" class="GeneProduct NFKBIA " transform="translate(502.59 555.51)"   name="IkBA"  ><rect id="e4b89-icon" class="Icon" transform="matrix(.98765 0 0 .95238 .49383 .47619)" width="80" height="20" fill="#fff" stroke="#000"/><text id="e4b89-text" class="Text" transform="translate(40,14)" fill="#000"  font-size="12px" stroke="white" stroke-width="0" text-anchor="middle"><tspan x="0" y="0">IkBA</tspan></text></a><g id="d4cef" class="GroupComplex" transform="translate(727.9 638.65)" color="grey" ><use id="d4cef-icon" class="Icon" transform="matrix(.99459 0 0 .97778 .4973 .48889)" width="184" height="44" fill="#b4b464" fill-opacity=".1" stroke="grey" xlink:href="#Octagon"/><a  id="pvjsgeneratedidfa46f" class="GeneProduct NFKB1 " transform="translate(92,12)"   name="NFkB"  ><rect id="pvjsgeneratedidfa46f-icon" class="Icon" transform="matrix(.98765 0 0 .95238 .49383 .47619)" width="80" height="20" fill="#fff" stroke="#000"/><text id="pvjsgeneratedidfa46f-text" class="Text" transform="translate(40,14)" fill="#000"  font-size="12px" stroke="white" stroke-width="0" text-anchor="middle"><tspan x="0" y="0">NFkB</tspan></text></a><a  id="pvjsgeneratedidfa470" class="GeneProduct RELA " transform="translate(12,12)"   name="RELA"  ><rect id="pvjsgeneratedidfa470-icon" class="Icon" transform="matrix(.98765 0 0 .95238 .49383 .47619)" width="80" height="20" fill="#fff" stroke="#000"/><text id="pvjsgeneratedidfa470-text" class="Text" transform="translate(40,14)" fill="#000"  font-size="12px" stroke="white" stroke-width="0" text-anchor="middle"><tspan x="0" y="0">RELA</tspan></text></a></g><g id="afa35" class="SingleFreeNode Shape" transform="translate(560.8 542.67)" color="#000" ><use id="afa35-icon" class="Icon" transform="matrix(.95402 0 0 .95349 .47701 .47674)" width="20.74772430343451" height="20.5" fill="transparent"  stroke="#000" xlink:href="#Ellipse"/></g><g id="a0b23" class="Label" transform="translate(527.02 540.99)" color="#000"  name="P"><use id="a0b23-icon" class="Icon" width="90" height="25" fill="transparent"  stroke="#000" stroke-width="0" xlink:href="#none"/><text id="a0b23-text" class="Text" transform="translate(45,16.5)" fill="#000"  font-size="12px" stroke="white" stroke-width="0" text-anchor="middle"><tspan x="0" y="0">P</tspan></text></g><g id="d9654" class="Edge GraphicalLine" color="#000" ><g color="#000" fill="transparent"  filter="url(#kaavioblackto000000filter)" stroke="#000" stroke-dasharray="115.18656716417911, 0" stroke-width="2"><path id="d9654" class="EdgeBody" d="m878.84 717.57h115.19"   /></g></g><g id="id5c10f2b9" class="DirectedInteraction" color="#000" ><g color="#000" fill="transparent"  filter="url(#kaavioblackto000000filter)" stroke="#000" stroke-dasharray="398.8172444547749, 5.8"><path id="id5c10f2b9" class="EdgeBody" d="m488.35 669.97 400.48 57.688"   marker-end="url(#markerEndArrow)" /></g></g><g id="idfa26a319" class="DirectedInteraction" color="#000" ><g color="#000" fill="transparent"  filter="url(#kaavioblackto000000filter)" stroke="#000" stroke-dasharray="264.8663563033186, 5.8"><path id="idfa26a319" class="EdgeBody" d="m875.14 457.18 58.689 264.23"   marker-end="url(#markerEndArrow)" /></g></g><g id="idab40e375" class="DirectedInteraction" color="#000" ><g color="#000" fill="transparent"  filter="url(#kaavioblackto000000filter)" stroke="#000" stroke-dasharray="248.14012792415477, 5.8"><path id="idab40e375" class="EdgeBody" d="m997.74 475.64-63.904 245.77"   marker-end="url(#markerEndArrow)" /></g></g><g id="idc5ac28c9" class="DirectedInteraction" color="#000" ><g color="#000" fill="transparent"  filter="url(#kaavioblackto000000filter)" stroke="#000" stroke-dasharray="69.58547342538475, 5.8"><path id="idc5ac28c9" class="EdgeBody" d="m782.06 573.45 37.836 65.203"   marker-end="url(#markerEndArrow)" /></g></g><g id="dc614" class="SingleFreeNode Shape" transform="translate(1097.4 504.97)" color="#000" ><use id="dc614-icon" class="Icon" transform="matrix(.9697 0 0 .9687 .48485 .48435)" width="32.0000000000002" height="30.950000000000045" fill="transparent"  stroke="#000" xlink:href="#Ellipse"/></g><g id="cdf0a" class="Label" transform="translate(1099 507.17)" color="#000"  name="Ca2+"><use id="cdf0a-icon" class="Icon" width="29.42707485961955" height="21.641138608798606" fill="transparent"  stroke="#000" stroke-width="0" xlink:href="#none"/><text id="cdf0a-text" class="Text" transform="translate(14.714 13.821)" fill="#000"  font-size="9px" stroke="white" stroke-width="0" text-anchor="middle"><tspan x="0" y="0">Ca2+</tspan></text></g><g id="eca57" class="SingleFreeNode Shape" transform="translate(1072.4 155.53)" color="#000" ><use id="eca57-icon" class="Icon" transform="matrix(.9697 0 0 .9687 .48485 .48435)" width="32.0000000000002" height="30.950000000000045" fill="transparent"  stroke="#000" xlink:href="#Ellipse"/></g><g id="d47e0" class="Label" transform="translate(1072.9 160.73)" color="#000"  name="Ca2+"><use id="d47e0-icon" class="Icon" width="31.578478830395678" height="21.641138608798606" fill="transparent"  stroke="#000" stroke-width="0" xlink:href="#none"/><text id="d47e0-text" class="Text" transform="translate(15.789 13.821)" fill="#000"  font-size="9px" stroke="white" stroke-width="0" text-anchor="middle"><tspan x="0" y="0">Ca2+</tspan></text></g><g id="id745033f1" class="DirectedInteraction" color="#000" ><g color="#000" fill="transparent"  filter="url(#kaavioblackto000000filter)" stroke="#000" stroke-dasharray="325.57547676497376, 5.8"><path id="id745033f1" class="EdgeBody" d="m1395.2 722.5-273.86-186.58"   marker-end="url(#markerEndArrow)" /></g></g><g id="d0dc4" class="SingleFreeNode Shape" transform="translate(1077.4 199.31)" color="#000" ><rect id="d0dc4-icon" class="Icon" transform="matrix(.95487 0 0 .98532 .47743 .49266)" width="21.157" height="67.104" fill="transparent"  stroke="#000"/></g><g id="id544f7a62" class="DirectedInteraction" color="#000" ><g color="#000" fill="transparent"  filter="url(#kaavioblackto000000filter)" stroke="#000" stroke-dasharray="125.2767649253728, 5.8"><path id="id544f7a62" class="EdgeBody" d="m933.83 746.4 1e-13 131.08"   marker-end="url(#markerEndArrow)" /></g></g><text id="WP4481-text" class="Text" transform="translate(5,27)" dominant-baseline="central" fill="black"  font-size="12px" font-weight="bold" overflow="visible" stroke="white" stroke-width="0"><tspan x="0" y="-9">Name: Resistin as a regulator of inflammation</tspan> <tspan x="0" y="9">Organism: Homo sapiens</tspan></text></g></svg>
