<?xml version="1.0" encoding="UTF-8"?>
<svg xmlns="http://www.w3.org/2000/svg" id="-svg" class="Diagram"  baseProfile="full" prefix="schema:http://schema.org/" preserveAspectRatio="xMidYMid"  version="1.1"><defs><g id="filter-defs"><filter id="doublefalse3filter" x="-50%" y="-50%" width="200%" height="200%"><feComposite in="SourceGraphic" in2="SourceGraphic" result="doubleDark"/><feMorphology in="doubleDark" operator="dilate" radius="0.17" result="in2Double"/><feMorphology in="SourceGraphic" operator="dilate" radius="3" result="inDouble"/><feComposite in="inDouble" in2="in2Double" operator="out" result="doubleResult"/></filter></g><g id="icon-defs"><symbol id="Ellipse" class=" Icon Ellipse" x="0" y="0" overflow="visible" preserveAspectRatio="none" viewBox="0 0 50 50"><desc>Ellipse</desc><ellipse cx="25" cy="25" rx="25" ry="25" vector-effect="non-scaling-stroke"/></symbol></g><g id="marker-defs"><marker id="membinding000" markerHeight="12" markerWidth="12" orient="auto" preserveAspectRatio="none" refX="12" refY="6" viewBox="0 0 12 12"><g id="g-membinding000" transform=""><g transform="rotate(180 6 6)"><rect y="5.4" width="2" height="1.2" style="stroke:#fff"/><polygon points="12 12 0 6 12 0 5 6" stroke-width="0"/></g></g></marker><marker id="memcatalysis000" markerHeight="12" markerWidth="12" orient="auto" preserveAspectRatio="none" refX="12" refY="6" viewBox="0 0 12 12"><g id="g-memcatalysis000" transform=""><g transform="rotate(180 6 6)"><circle cx="6" cy="6" r="5.3px" fill="#fff" stroke="#000"/></g></g></marker><marker id="memconversion000" markerHeight="12" markerWidth="12" orient="auto" preserveAspectRatio="none" refX="12" refY="6" viewBox="0 0 12 12"><g id="g-memconversion000" transform=""><g transform="rotate(180 6 6)"><rect y="5.4" width="2" height="1.2" style="stroke:#fff"/><polygon points="12 11 0 6 12 1" stroke-width="0"/></g></g></marker><marker id="mea" markerHeight="12" markerWidth="12" orient="auto" preserveAspectRatio="none" refX="12" refY="6" viewBox="0 0 12 12"><g id="g-mea" transform=""><g transform="rotate(180 6 6)"><rect y="5.4" width="2" height="1.2" style="stroke:#fff"/><polygon points="12 11 0 6 12 1" stroke-width="0"/></g></g></marker><marker id="membinding000000e6e6e6" markerHeight="12" markerWidth="12" orient="auto" preserveAspectRatio="none" refX="12" refY="6" viewBox="0 0 12 12"><g id="g-membinding000000e6e6e6" transform=""><g transform="rotate(180 6 6)"><rect y="5.4" width="2" height="1.2" style="fill:#e6e6e6;stroke:#e6e6e6"/><polygon points="12 12 0 6 12 0 5 6" stroke-width="0"/></g></g></marker><marker id="memcatalysis000000e6e6e6" markerHeight="12" markerWidth="12" orient="auto" preserveAspectRatio="none" refX="12" refY="6" viewBox="0 0 12 12"><g id="g-memcatalysis000000e6e6e6" transform=""><g transform="rotate(180 6 6)"><circle cx="6" cy="6" r="5.3px" fill="#e6e6e6" stroke="#000"/></g></g></marker><marker id="memconversion000000e6e6e6" markerHeight="12" markerWidth="12" orient="auto" preserveAspectRatio="none" refX="12" refY="6" viewBox="0 0 12 12"><g id="g-memconversion000000e6e6e6" transform=""><g transform="rotate(180 6 6)"><rect y="5.4" width="2" height="1.2" style="fill:#e6e6e6;stroke:#e6e6e6"/><polygon points="12 11 0 6 12 1" stroke-width="0"/></g></g></marker><marker id="mea009999" markerHeight="12" markerWidth="12" orient="auto" preserveAspectRatio="none" refX="12" refY="6" viewBox="0 0 12 12"><g id="g-mea009999" transform=""><g transform="rotate(180 6 6)"><rect y="5.4" width="2" height="1.2" style="stroke:#fff"/><polygon points="12 11 0 6 12 1" fill="#099" stroke-width="0"/></g></g></marker><marker id="mea009999e6e6e6" markerHeight="12" markerWidth="12" orient="auto" preserveAspectRatio="none" refX="12" refY="6" viewBox="0 0 12 12"><g id="g-mea009999e6e6e6" transform=""><g transform="rotate(180 6 6)"><rect y="5.4" width="2" height="1.2" style="fill:#e6e6e6;stroke:#e6e6e6"/><polygon points="12 11 0 6 12 1" fill="#099" stroke-width="0"/></g></g></marker></g></defs><g id="viewport-20220102143923406" class="svg-pan-zoom_viewport" transform="matrix(0.85 0 0 0.85 0 72.25)" style="transform:matrix(0.85, 0, 0, 0.85, 0, 72.25)"><style>svg.Diagram {font-family: 'Liberation Sans', Arial, sans-serif; }.Diagram path {fill: transparent;stroke: #000;marker-end: url(#mea);}.Diagram symbol path {fill: inherit;stroke: inherit;stroke-width: inherit;marker-end: inherit;}.Diagram rect {fill: #fff;stroke: #000;}.Diagram text {dominant-baseline: central;overflow: hidden;text-anchor: middle;fill: #000;font-size: 12px;}</style><style type="text/css">.Viewport .textContent {
  pointer-events: none;
  stroke-width: 0px;
}

					.Viewport.Icon {
  fill: white;
}

/* Hide the InfoBox */
.Viewport.textContent {
  font-size: 0;
}

.textContent {
  stroke: none;
}

.DataNode {
  stroke-miterlimit: 1;
  pointer-events: auto;
}

.DataNode:hover {
  cursor: pointer;
}

/* TODO should this apply to things other than DataNodes? */
.DataNode.textContent {
  pointer-events: none;
}

.DataNode.Highlighted {
  opacity: 0.6;
  stroke-width: 0px;
}

marker {
  /* this is what should work per the spec
  stroke-dasharray: none; */
  /* but I need to add this to make it work in Safari */
  stroke-dasharray: 9999999999999999999999999;
}

.Citation.Icon {
  fill: none;
  stroke-width: 0px;
}

.Citation.textContent {
  text-align: center;
  vertical-align: top;
  font-size: 7px;
  fill: #999;
  fill-opacity: 1;
  stroke: none;
}</style><g id="WP4463" class="Pathway http___identifiers_org_pw_PW_0000781 Viewport"  name="Name: Steroidogenic pathway Organism: Homo sapiens" ><g class="Pathway http___identifiers_org_pw_PW_0000781 Viewport"><rect   width="1404.6" height="666.57" style="stroke:none"/><g id="id12257354" class="Edge"  ><path    d="m581.67 64.58-26.11 36.34" style="marker-end:url(#membinding000)"/></g><g id="id14997dca" class="Edge"  ><path    d="m358.22 141.9-39.22 32.45" style="marker-end:url(#memconversion000)"/><g id="b6347" class="AB" transform="translate(348.93 149.59)"  ><g class="AB"/></g></g><g id="id1ecfa960" class="Edge"  ><path    d="m1205.4 445.41 0.95-45.64"/></g><g id="id2221509b" class="Edge"  ><path    d="m787 171.5v38" style="marker-end:url(#memconversion000)"/><g id="e02b9" class="AB" transform="translate(787 191.25)"  ><g class="AB"/></g></g><g id="id81a7e9fa" class="Edge"  ><path    d="m1161.3 387.27-47.35 0.32" style="marker-end:url(#membinding000)"/></g><g id="id8a3eebc4" class="Edge"  ><path    d="m144.05 159h225.95" style="stroke:#099;marker-end:url(#mea009999)"/><g id="f4649" class="AB" transform="translate(201.76 159)"  ><g class="AB"/></g></g><g id="id9b149c05" class="Edge"  ><path    d="m812.93 191.3-25.93-0.05" style="marker-end:url(#memcatalysis000)"/></g><g id="id9d1a074b" class="Edge"  ><path    d="m200.66 134.88 1.10 24.12" style="marker-end:url(#memcatalysis000)"/></g><g id="id9f4124e1" class="Edge"  ><path    d="m603.01 583.56 1e-13 -45.37"/></g><g id="ida23ac453" class="Edge"  ><path    d="m311.34 133.1 37.59 16.49" style="marker-end:url(#memcatalysis000)"/></g><g id="idd803f438" class="Edge"  ><path    d="m415 171.5v38" style="marker-end:url(#memconversion000)"/><g id="b90da" class="AB" transform="translate(415,186.7)"  ><g class="AB"/></g></g><g id="id3a4181fc" class="Edge"  ><path    d="m342.08 186.86 72.92-0.16" style="marker-end:url(#memconversion000)"/></g><g id="id90dc6512" class="Edge"  ><path    d="m485.63 186.41-70.63 0.29" style="marker-end:url(#memcatalysis000)"/></g><g id="idd8e764b1" class="Edge"  ><path    d="m253.06 64.58 45.46 34.35" style="marker-end:url(#membinding000)"/></g><g id="idf023da22" class="Edge"  ><path    d="m961.99 345.33 28.27 63.09" style="marker-end:url(#memconversion000)"/><g id="b7579" class="AB" transform="translate(973.93 371.98)"  ><g class="AB"/></g></g><g id="id3b46d393" class="Edge"  ><path    d="m995.95 368.46-22.02 3.52" style="marker-end:url(#memcatalysis000)"/></g><g id="idf4fbde59" class="Edge"  ><path    d="m468 394h178" style="stroke:#099;marker-end:url(#mea009999)"/></g><g id="id58bd52df" class="Edge"  ><path    d="m967.18 420.92-116.18 17.89" style="marker-end:url(#memconversion000)"/></g><g id="pvjsgeneratedidfec78" class="GroupGroup" transform="translate(1072 152.06)"  ><g class="GroupGroup"><g id="cd852" class="Edge"  ><path    d="m18.84 126.24 47.99 0.14" style="marker-end:url(#memcatalysis000000e6e6e6)"/></g><g id="fd1ab" class="" transform="translate(8,8)"  ><g class=""><rect   width="294.55" height="183.32" rx="15" ry="15" style="fill:transparent"/></g></g><g id="a515c" class="Label" transform="translate(8.09 15.08)"  name="Interactions legend:" ><g class="Label"/><text   transform="translate(66,12.5)"    >Interactions legend:</text></g><g id="a94fa" class="Label" transform="translate(82.81 53.03)"  name="Transport into or between cell(s)." ><g class="Label"/><text   transform="translate(97.11 12.5)"    >Transport into or between cell(s).</text></g><g id="dd19a" class="Edge"  ><path    d="m18.40 66.46 50.41 0.07" style="stroke:#099;marker-end:url(#mea009999e6e6e6)"/></g><g id="aabdd" class="Edge"  ><path    d="m18.40 92.36h47.21" style="marker-end:url(#memconversion000000e6e6e6)"/></g><g id="eda82" class="Label" transform="translate(82.81 81.26)"  name="Molecular conversion." ><g class="Label"/><text   transform="translate(97.11 12.5)"    >Molecular conversion.</text></g><g id="d2c94" class="Label" transform="translate(78.84 114.34)"  name="Conversion is catalysed by protein." ><g class="Label"/><text   transform="translate(101.08 12.5)"    >Conversion is catalysed by protein.</text></g><g id="ef426" class="Edge"  ><path    d="m16.25 155.45h50.93" style="marker-end:url(#membinding000000e6e6e6)"/></g><g id="c5fc4" class="Label" transform="translate(78.84 144.02)"  name="Binding interaction." ><g class="Label"/><text   transform="translate(101.08 12.5)"    >Binding interaction.</text></g></g></g><g id="cd93e" class=" PhysicalEntity CellularComponent Cell" transform="translate(616.5,110)"  ><g class=" PhysicalEntity CellularComponent Cell" filter="url(#doublefalse3filter)"><g class=" PhysicalEntity CellularComponent Cell"><rect   transform="matrix(0.97 0 0 0.97 5.85 5.84)" width="454.61" height="451.59" rx="15" ry="15" stroke-width="3" style="fill:transparent;stroke:#c0c0c0"/></g></g></g><g id="efbf5" class=" PhysicalEntity CellularComponent Cell" transform="translate(250.98 109)"  ><g class=" PhysicalEntity CellularComponent Cell" filter="url(#doublefalse3filter)"><g class=" PhysicalEntity CellularComponent Cell"><rect   transform="matrix(0.97 0 0 0.97 5.80 5.84)" width="341.52" height="451.49" rx="15" ry="15" stroke-width="3" style="fill:transparent;stroke:#c0c0c0"/></g></g></g><g id="aab1e" class="Label" transform="translate(558.01 583.56)"  name="Capillaries/ Extracellular fluid" ><g class="Label"/><text   transform="translate(45 26.50)"    ><tspan   x="0" y="-13.20">Capillaries/</tspan><tspan   x="0" y="0">Extracellular</tspan><tspan   x="0" y="13.20">fluid</tspan></text></g><g id="f1a21" class="Label" transform="translate(339.33 72.01)"  name="Theca Cell" ><g class="Label"/><text   transform="translate(76.75 12.5)"     style="font-size:22px">Theca Cell</text></g><g id="ce266" class="Label" transform="translate(692.39 75.70)"  name="Granulosa Cell" ><g class="Label"/><text   transform="translate(91.10 12.5)"     style="font-size:22px">Granulosa Cell</text></g><g id="ab82b" class="Pathway" transform="translate(1160.4 445.41)"  name="FSH  siganlling  pathway" ><g class="Pathway"/><g ><defs><clipPath ><rect x="-45" y="-32.40" width="90" height="64.80" style="stroke:none"/></clipPath></defs><text   transform="translate(45 32.40)"    font-weight="bold"  style="fill:#14961e"><tspan   x="0" y="-13.20">FSH </tspan><tspan   x="0" y="0">siganlling </tspan><tspan   x="0" y="13.20">pathway</tspan></text></g></g><g id="ad743" class="Protein" transform="translate(948.07 42.26)"  name="LH" ><rect   width="90" height="25"/><text   transform="translate(45,12.5)"    >LH</text></g><g id="b2e9c" class="Protein" transform="translate(559.17 39.58)"  name="LDL" ><rect   width="90" height="25"/><text   transform="translate(45,12.5)"    >LDL</text></g><g id="c0e0e" class="Protein" transform="translate(938.94 453.36)"  name="Aromatase" ><rect   width="90" height="25" style="stroke:#00f"/><text   transform="translate(45,12.5)"     style="fill:#00f">Aromatase</text></g><g id="d49bb" class="Protein" transform="translate(510.56 100.93)"  name="Receptor?" ><rect   width="90" height="25"/><text   transform="translate(45,12.5)"    >Receptor?</text></g><g id="df628" class="Metabolite" transform="translate(54.05 146.5)"  name="Cholesterol" ><rect   width="90" height="25" style="stroke:#00f"/><text   transform="translate(45,12.5)"     style="fill:#00f">Cholesterol</text></g><g id="e8086" class="Metabolite " transform="translate(1161.3 374.77)"  name="FSH" ><rect   width="90" height="25"/><text   transform="translate(45,12.5)"    >FSH</text></g><g id="eb0d1" class="Protein" transform="translate(155.66 109.88)"  name="STAR" ><rect   width="90" height="25"/><text   transform="translate(45,12.5)"    >STAR</text></g><g id="feb08" class="Metabolite" transform="translate(938.91 320.33)"  name="ATP" ><rect   width="46.16" height="25" style="stroke:#00f"/><text   transform="translate(23.08 12.5)"     style="fill:#00f">ATP</text></g><g id="d1160" class="Metabolite" transform="translate(370,146.5)"  name="Cholesterol" ><rect   width="90" height="25" style="stroke:#00f"/><text   transform="translate(45,12.5)"     style="fill:#00f">Cholesterol</text></g><g id="ae01c" class="Metabolite" transform="translate(370,209.5)"  name="Pregnenolone" ><rect   width="90" height="25" style="stroke:#00f"/><text   transform="translate(45,12.5)"     style="fill:#00f">Pregnenolone</text></g><g id="c3838" class="Metabolite" transform="translate(292,287.5)"  name="DHEA" ><rect   width="90" height="25" style="stroke:#00f"/><text   transform="translate(45,12.5)"     style="fill:#00f">DHEA</text></g><g id="b8f7b" class="Metabolite" transform="translate(435 287.5)"  name="Progesterone" ><rect   width="90" height="25" style="stroke:#00f"/><text   transform="translate(45,12.5)"     style="fill:#00f">Progesterone</text></g><g id="da5c4" class="Metabolite" transform="translate(742,287.5)"  name="Progesterone" ><rect   width="90" height="25" style="stroke:#00f"/><text   transform="translate(45,12.5)"     style="fill:#00f">Progesterone</text></g><g id="c2f03" class="Metabolite" transform="translate(742 146.5)"  name="Cholesterol" ><rect   width="90" height="25" style="stroke:#00f"/><text   transform="translate(45,12.5)"     style="fill:#00f">Cholesterol</text></g><g id="a785c" class="Metabolite" transform="translate(742 209.5)"  name="Pregnenolone" ><rect   width="90" height="25" style="stroke:#00f"/><text   transform="translate(45,12.5)"     style="fill:#00f">Pregnenolone</text></g><g id="bca29" class="Metabolite" transform="translate(362,381.5)"  name="Androstenedione" ><rect   width="106" height="25" style="stroke:#00f"/><text   transform="translate(53,12.5)"     style="fill:#00f">Androstenedione</text></g><g id="a411e" class="Metabolite " transform="translate(646,381.5)"  name="Androstenedione" ><rect   width="106" height="25" style="stroke:#00f"/><text   transform="translate(53,12.5)"     style="fill:#00f">Androstenedione</text></g><g id="be365" class="Metabolite" transform="translate(362 505.4)"  name="Testosterone" ><rect   width="106" height="25" style="stroke:#00f"/><text   transform="translate(53,12.5)"     style="fill:#00f">Testosterone</text></g><g id="c0c89" class="Metabolite" transform="translate(641 505.4)"  name="Testosterone" ><rect   width="106" height="25" style="stroke:#00f"/><text   transform="translate(53,12.5)"     style="fill:#00f">Testosterone</text></g><g id="d0924" class="Metabolite" transform="translate(798,381.5)"  name="Estrone" ><rect   width="106" height="25" style="stroke:#00f"/><text   transform="translate(53,12.5)"     style="fill:#00f">Estrone</text></g><g id="a4a31" class="Metabolite" transform="translate(798 505.4)"  name="Estradiol" ><rect   width="106" height="25" style="stroke:#00f"/><text   transform="translate(53,12.5)"     style="fill:#00f">Estradiol</text></g><g id="aafb7" class="Edge"  ><path    d="m392.5 234.5-55.5 53" style="marker-end:url(#memconversion000)"/><g id="fec77" class="AB" transform="translate(377.1 249.21)"  ><g class="AB"/></g></g><g id="c13a5" class="Edge"  ><path    d="m437.5 234.5 42.5 53" style="marker-end:url(#memconversion000)"/><g id="d7e8b" class="AB" transform="translate(449.59 249.57)"  ><g class="AB"/></g></g><g id="e4858" class="Edge"  ><path    d="m480 312.5-38.5 69" style="marker-end:url(#memconversion000)"/><g id="a99a9" class="AB" transform="translate(457.1 353.54)"  ><g class="AB"/></g></g><g id="d6d33" class="Edge"  ><path    d="m337 312.5 51.5 69" style="marker-end:url(#memconversion000)"/><g id="d667b" class="AB" transform="translate(369.08 355.48)"  ><g class="AB"/></g></g><g id="e52fd" class="Edge"  ><path    d="m415 406.5v98.90" style="marker-end:url(#memconversion000)"/><g id="b4c68" class="AB" transform="translate(415 446.06)"  ><g class="AB"/></g></g><g id="ec8b8" class="Edge"  ><path    d="m787 234.5v53" style="marker-end:url(#memconversion000)"/><g id="b1ad7" class="AB" transform="translate(787 260.35)"  ><g class="AB"/></g></g><g id="c2803" class="Edge"  ><path    d="m752 394h46" style="marker-end:url(#memconversion000)"/><g id="d0f4b" class="AB" transform="translate(767.36 394)"  ><g class="AB"/></g></g><g id="ab457" class="Edge"  ><path    d="m851 406.5v98.90" style="marker-end:url(#memconversion000)"/><g id="fd56a" class="AB" transform="translate(851 438.81)"  ><g class="AB"/></g></g><g id="f7bd2" class="Edge"  ><path    d="m747 517.9h51" style="marker-end:url(#memconversion000)"/><g id="d33f3" class="AB" transform="translate(767.36 517.9)"  ><g class="AB"/></g></g><g id="cc022" class="Edge"  ><path    d="m468 517.9h173" style="stroke:#099;marker-end:url(#mea009999)"/></g><g id="eeed8" class="GeneProduct " transform="translate(485.63 173.91)"  name="CYP11A1" ><rect   width="90" height="25"/><text   transform="translate(45,12.5)"    >CYP11A1</text></g><g id="d156d" class="GeneProduct " transform="translate(485.63 237.9)"  name="HSD3B1" ><rect   width="90" height="25"/><text   transform="translate(45,12.5)"    >HSD3B1</text></g><g id="bd243" class="GeneProduct " transform="translate(261.74 236.9)"  name="CYP17A1" ><rect   width="90" height="25"/><text   transform="translate(45,12.5)"    >CYP17A1</text></g><g id="c6675" class="GeneProduct " transform="translate(485.63 341.72)"  name="CYP17A1" ><rect   width="90" height="25"/><text   transform="translate(45,12.5)"    >CYP17A1</text></g><g id="fea7e" class="GeneProduct " transform="translate(261.74 341.72)"  name="HSD3B1" ><rect   width="90" height="25"/><text   transform="translate(45,12.5)"    >HSD3B1</text></g><g id="fb757" class="Protein" transform="translate(485.63 433.23)"  name="HSD17B1" ><rect   width="90" height="25"/><text   transform="translate(45,12.5)"    >HSD17B1</text></g><g id="fe7d5" class="GeneProduct " transform="translate(812.93 178.8)"  name="CYP11A1" ><rect   width="90" height="25"/><text   transform="translate(45,12.5)"    >CYP11A1</text></g><g id="e6c05" class="GeneProduct " transform="translate(812.93 246.89)"  name="HSD3B1" ><rect   width="90" height="25"/><text   transform="translate(45,12.5)"    >HSD3B1</text></g><g id="e36cf" class="GeneProduct " transform="translate(721.65 426.59)"  name="HSD17B1" ><rect   width="90" height="25"/><text   transform="translate(45,12.5)"    >HSD17B1</text></g><g id="de5c2" class="GeneProduct " transform="translate(721.65 346.29)"  name="CYP19A1" ><rect   width="90" height="25"/><text   transform="translate(45,12.5)"    >CYP19A1</text></g><g id="c024d" class="GeneProduct " transform="translate(721.65 467.64)"  name="CYP19A1" ><rect   width="90" height="25"/><text   transform="translate(45,12.5)"    >CYP19A1</text></g><g id="f3f31" class="Edge"  ><path    d="m485.63 250.4-36.04-0.83" style="marker-end:url(#memcatalysis000)"/></g><g id="e2c6b" class="Edge"  ><path    d="m351.74 249.4 25.36-0.20" style="marker-end:url(#memcatalysis000)"/></g><g id="cabd9" class="Edge"  ><path    d="m485.63 354.22-28.53-0.68" style="marker-end:url(#memcatalysis000)"/></g><g id="a6bfe" class="Edge"  ><path    d="m351.74 354.22 17.34 1.26" style="marker-end:url(#memcatalysis000)"/></g><g id="addc9" class="Edge"  ><path    d="m485.63 445.73-70.63 0.33" style="marker-end:url(#memcatalysis000)"/></g><g id="ef97d" class="Edge"  ><path    d="m812.93 259.39-25.93 0.96" style="marker-end:url(#memcatalysis000)"/></g><g id="ab2a7" class="Edge"  ><path    d="m766.65 371.29 0.72 22.71" style="marker-end:url(#memcatalysis000)"/></g><g id="f8ec5" class="Edge"  ><path    d="m811.65 439.09 39.35-0.28" style="marker-end:url(#memcatalysis000)"/></g><g id="e4780" class="Edge"  ><path    d="m766.65 492.64 0.72 25.25" style="marker-end:url(#memcatalysis000)"/></g><g id="c8981" class="Protein" transform="translate(610.83 100.93)"  name="Receptor?" ><rect   width="90" height="25"/><text   transform="translate(45,12.5)"    >Receptor?</text></g><g id="dd638" class="Edge"  ><path    d="m626.67 64.58 29.17 36.34" style="marker-end:url(#membinding000)"/></g><g id="d7415" class="GeneProduct " transform="translate(208.06 39.58)"  name="HSD17B1" ><rect   width="90" height="25"/><text   transform="translate(45,12.5)"    >HSD17B1</text></g><g id="d8aef" class="Protein" transform="translate(907.02 103.98)"  name="Receptor?" ><rect   width="90" height="25"/><text   transform="translate(45,12.5)"    >Receptor?</text></g><g id="e8fa2" class="Protein" transform="translate(253.52 98.94)"  name="Receptor?" ><rect   width="90" height="25"/><text   transform="translate(45,12.5)"    >Receptor?</text></g><g id="e2490" class="Edge"  ><path    d="m993.07 67.26-41.05 36.72" style="marker-end:url(#membinding000)"/></g><g id="e62f2" class="Protein" transform="translate(268.66 120.6)"  name="AC" ><use class="Protein Node Icon" width="42.69" height="25" fill="#fff" stroke="#000" href="#Ellipse"/><text   transform="translate(21.34 12.5)"    >AC</text></g><g id="aabe0" class="Protein" transform="translate(1024 375.1)"  name="Receptor?" ><rect   width="90" height="25"/><text   transform="translate(45,12.5)"    >Receptor?</text></g><g id="d86c4" class="Protein" transform="translate(995.95 355.96)"  name="AC" ><use class="Protein Node Icon" width="42.69" height="25" fill="#fff" stroke="#000" href="#Ellipse"/><text   transform="translate(21.34 12.5)"    >AC</text></g><g id="ddcd9" class="Metabolite" transform="translate(967.18 408.42)"  name="cAMP" ><rect   width="46.16" height="25" style="stroke:#00f"/><text   transform="translate(23.08 12.5)"     style="fill:#00f">cAMP</text></g><g id="a284c" class="Edge"  ><path    d="m938.94 465.86-87.94-27.05" style="marker-end:url(#memconversion000)"/></g><g id="fdfa6" class="Metabolite" transform="translate(346.68 116.9)"  name="ATP" ><rect   width="46.16" height="25" style="stroke:#00f"/><text   transform="translate(23.08 12.5)"     style="fill:#00f">ATP</text></g><g id="b3baa" class="Metabolite" transform="translate(295.92 174.36)"  name="cAMP" ><rect   width="46.16" height="25" style="stroke:#00f"/><text   transform="translate(23.08 12.5)"     style="fill:#00f">cAMP</text></g><g id="cedc1" class="Edge"  ><path    d="m742 300-217-6e-14" style="stroke:#099;marker-end:url(#mea009999)"/><g id="a9ede" class="AB" transform="translate(686.57 300)"  ><g class="AB"/></g></g></g></g></g></svg>