<?xml version="1.0" encoding="UTF-8"?>
<svg xmlns="http://www.w3.org/2000/svg" id="-svg" class="Diagram"  baseProfile="full" prefix="schema:http://schema.org/" preserveAspectRatio="xMidYMid"  version="1.1"><defs><g id="filter-defs"><filter id="doublefalse3filter" x="-50%" y="-50%" width="200%" height="200%"><feComposite in="SourceGraphic" in2="SourceGraphic" result="doubleDark"/><feMorphology in="doubleDark" operator="dilate" radius="0.17" result="in2Double"/><feMorphology in="SourceGraphic" operator="dilate" radius="3" result="inDouble"/><feComposite in="inDouble" in2="in2Double" operator="out" result="doubleResult"/></filter></g><g id="icon-defs"><symbol id="Ellipse" class=" Icon Ellipse" x="0" y="0" overflow="visible" preserveAspectRatio="none" viewBox="0 0 50 50"><desc>Ellipse</desc><ellipse cx="25" cy="25" rx="25" ry="25" vector-effect="non-scaling-stroke"/></symbol><symbol id="Octagon" class=" Icon Octagon" x="0" y="0" overflow="visible" preserveAspectRatio="none" viewBox="0 0 100 100"><desc>Octagon</desc><path d="m0 25 25-25h50l25 25v50l-25 25h-50l-25-25z" vector-effect="non-scaling-stroke"/></symbol></g><g id="marker-defs"><marker id="mea" markerHeight="12" markerWidth="12" orient="auto" preserveAspectRatio="none" refX="12" refY="6" viewBox="0 0 12 12"><g id="g-mea" transform=""><g transform="rotate(180 6 6)"><rect y="5.4" width="2" height="1.2" style="stroke:#fff"/><polygon points="12 11 0 6 12 1" stroke-width="0"/></g></g></marker><marker id="meminhibition000" markerHeight="20" markerWidth="10" orient="auto" preserveAspectRatio="none" refX="10" refY="10" viewBox="0 0 10 20"><g id="g-meminhibition000" transform=""><g transform="rotate(180 5 10)"><rect y="9" width="8" height="2" style="stroke:none"/><line x="0" y="0" width="12" height="12" x1="7" x2="7" y2="20" stroke="#000" stroke-width="1.8"/></g></g></marker></g></defs><g id="viewport-20220102143930383" class="svg-pan-zoom_viewport" transform="matrix(0.79 0 0 0.79 292.78 0)" style="transform:matrix(0.79, 0, 0, 0.79, 292.78, 0)"><style>svg.Diagram {font-family: 'Liberation Sans', Arial, sans-serif; }.Diagram path {fill: transparent;stroke: #000;marker-end: url(#mea);}.Diagram symbol path {fill: inherit;stroke: inherit;stroke-width: inherit;marker-end: inherit;}.Diagram rect {fill: #fff;stroke: #000;}.Diagram text {dominant-baseline: central;overflow: hidden;text-anchor: middle;fill: #000;font-size: 12px;}</style><style type="text/css">.Viewport .textContent {
  pointer-events: none;
  stroke-width: 0px;
}

					.Viewport.Icon {
  fill: white;
}

/* Hide the InfoBox */
.Viewport.textContent {
  font-size: 0;
}

.textContent {
  stroke: none;
}

.DataNode {
  stroke-miterlimit: 1;
  pointer-events: auto;
}

.DataNode:hover {
  cursor: pointer;
}

/* TODO should this apply to things other than DataNodes? */
.DataNode.textContent {
  pointer-events: none;
}

.DataNode.Highlighted {
  opacity: 0.6;
  stroke-width: 0px;
}

marker {
  /* this is what should work per the spec
  stroke-dasharray: none; */
  /* but I need to add this to make it work in Safari */
  stroke-dasharray: 9999999999999999999999999;
}

.Citation.Icon {
  fill: none;
  stroke-width: 0px;
}

.Citation.textContent {
  text-align: center;
  vertical-align: top;
  font-size: 7px;
  fill: #999;
  fill-opacity: 1;
  stroke: none;
}</style><g id="WP4479" class="Pathway Viewport"  name="Name: Supression of HMGB1 mediated inflammation by THBD Organism: Homo sapiens" ><g class="Pathway Viewport"><rect   width="779.52" height="905.82" style="stroke:none"/><g id="id27bbe552" class="Edge"  ><path    d="m618.07 684.17h81" stroke-width="2" style="marker-end:none"/></g><g id="id4d20087a" class="Edge"  ><path    d="m491.59 173.78-47.71 107.23"/></g><g id="id7facb13d" class="Edge"  ><path    d="m598.91 675.75 90.84-0.40" stroke-width="2" style="marker-end:none"/></g><g id="idbb546658" class="Edge"  ><path    d="m238.76 126.13 50.15 73.50"/></g><g id="ideb1e6096" class="Edge"  ><path    d="m561.23 227.27-84.23-0.27" style="marker-end:url(#meminhibition000)"/></g><g id="id2e3f1cf4" class="Edge"  ><path    d="m443.87 301.01v42.26"/></g><g id="id72f8083f" class="Edge"  ><path    d="m443.87 529.45-1.3e-13 2.26c3e-14 2.26 3e-14 6.78-11.84 9.05-11.84 2.26-35.52 2.26-47.35 10.10-11.84 7.84-11.84 23.52-11.84 31.37v7.84"/></g><g id="iddd935b8b" class="Edge"  ><path    d="m443.87 427.28v37.95"/></g><g id="bfe20" class="" transform="translate(561.15 836.32)"  ><g class=""><rect   width="151.5" height="39.5" style="fill:transparent"/></g></g><g id="e770f" class=" PhysicalEntity CellularComponent Nucleus" transform="translate(476.1 585.62)"  ><g class=" PhysicalEntity CellularComponent Nucleus" filter="url(#doublefalse3filter)"><g class=" PhysicalEntity CellularComponent Nucleus"><use class=" PhysicalEntity CellularComponent Nucleus Node Icon" transform="matrix(0.95 0 0 0.93 5.71 5.57)" width="239.69" height="154.93" fill="transparent" stroke="#c0c0c0" stroke-width="3" href="#Ellipse"/></g></g></g><g id="eae4e" class=" PhysicalEntity CellularComponent Cell" transform="translate(291.83 290.88)"  ><g class=" PhysicalEntity CellularComponent Cell" filter="url(#doublefalse3filter)"><g class=" PhysicalEntity CellularComponent Cell"><rect   transform="matrix(0.97 0 0 0.98 5.85 5.85)" width="459.19" height="480.14" rx="15" ry="15" stroke-width="3" style="fill:transparent;stroke:#c0c0c0"/></g></g></g><g id="f4e99" class="" transform="translate(136,87)"  ><g class=""><rect   width="214" height="161" style="fill:transparent"/></g></g><g id="e511a" class="Label" transform="translate(604.92 684.31)"  name="DNA" ><g class="Label"/><text   transform="translate(45,12.5)"    font-weight="bold" >DNA</text></g><g id="eb7cb" class="Label" transform="translate(572.63 836.95)"  name="Inflammation" ><g class="Label"/><text   transform="translate(64.27 19.02)"    font-weight="bold"  style="font-size:16px">Inflammation</text></g><g id="ec85e" class="Label" transform="translate(650.5 298.22)"  name="Cytosol" ><g class="Label"/><text   transform="translate(45,12.5)"    >Cytosol</text></g><g id="f8725" class="Label" transform="translate(503.87 703.71)"  name="Nucleus" ><g class="Label"/><text   transform="translate(45,12.5)"     style="font-size:9px">Nucleus</text></g><g id="fa50f" class="Label" transform="translate(147.97 166.37)"  name="Proteolytic cleavage" ><g class="Label"/><text   transform="translate(57.5 12.5)"    >Proteolytic cleavage</text></g><g id="b00d8" class="GeneProduct " transform="translate(561.23 217.27)"  name="THBD" ><rect   width="80" height="20"/><text   transform="translate(40,10)"    >THBD</text></g><g id="e3639" class="GeneProduct " transform="translate(451.59 153.78)"  name="HMGB1" ><rect   width="80" height="20"/><text   transform="translate(40,10)"    >HMGB1</text></g><g id="f026f" class="GeneProduct " transform="translate(403.87 281.01)"  name="RAGE" ><rect   width="80" height="20"/><text   transform="translate(40,10)"    >RAGE</text></g><g id="bdd92" class="GroupComplex" transform="translate(391.87 343.28)"  ><g class="GroupComplex"><use class="Icon" width="104" height="84" fill="#b4b464" fill-opacity=".1" stroke="grey" href="#Octagon"/><g id="pvjsgeneratedida01" class="GeneProduct " transform="translate(12,52)"  name="IkKA" ><rect   width="80" height="20"/><text   transform="translate(40,10)"    >IkKA</text></g><g id="pvjsgeneratedide511b" class="GeneProduct " transform="translate(12,32)"  name="IkKB" ><rect   width="80" height="20"/><text   transform="translate(40,10)"    >IkKB</text></g><g id="pvjsgeneratedideb7cc" class="GeneProduct " transform="translate(12,12)"  name="IkKG" ><rect   width="80" height="20"/><text   transform="translate(40,10)"    >IkKG</text></g></g></g><g id="c7770" class="GroupComplex" transform="translate(391.87 465.23)"  ><g class="GroupComplex"><use class="Icon" width="104" height="64.23" fill="#b4b464" fill-opacity=".1" stroke="grey" href="#Octagon"/><g id="pvjsgeneratedidec85f" class="GeneProduct " transform="translate(12,12)"  name="IkBA" ><rect   width="80" height="20"/><text   transform="translate(40,10)"    >IkBA</text></g><g id="pvjsgeneratedidf8726" class="GeneProduct " transform="translate(12 32.23)"  name="RELA" ><rect   width="80" height="20"/><text   transform="translate(40,10)"    >RELA</text></g><g id="f9148" class="GeneProduct " transform="translate(12,32)"  name="NFkB" ><rect   width="80" height="20"/><text   transform="translate(40,10)"    >NFkB</text></g></g></g><g id="e8044" class="GeneProduct " transform="translate(181.24 103.01)"  name="HMGB1" ><rect   width="80" height="20"/><text   transform="translate(40,10)"    >HMGB1</text></g><g id="ebff9" class="GeneProduct " transform="translate(163.08 148.23)"  name="THBD" ><rect   width="80" height="20"/><text   transform="translate(40,10)"    >THBD</text></g><g id="fafbd" class="GeneProduct " transform="translate(254.36 208.99)"  name="HMGB1" ><rect   width="80" height="20"/><text   transform="translate(40,10)"    >HMGB1</text></g><g id="idfea15a3" class="Edge"  ><path    d="m265.84 240.4 59.66-40.64" style="marker-end:none"/></g><g id="idf4d39c06" class="Edge"  ><path    d="m636.19 711.43 0.71 124.89"/></g><g id="d904b" class="GeneProduct " transform="translate(332.84 590.07)"  name="IkBA" ><rect   width="80" height="20"/><text   transform="translate(40,10)"    >IkBA</text></g><g id="fec66" class="" transform="translate(391.13 575.93)"  ><g class=""><use class=" Node Icon" width="21.89" height="22.21" fill="transparent" stroke="#000" href="#Ellipse"/></g></g><g id="ba74a" class="Label" transform="translate(357.39 575.14)"  name="P" ><g class="Label"/><text   transform="translate(45,12.5)"    >P</text></g><g id="pvjsgeneratedidfec67" class="GeneProduct " transform="translate(519.87 644.01)"  name="RELA" ><rect   width="80" height="20"/><text   transform="translate(40,10)"    >RELA</text></g><g id="fb0cd" class="GeneProduct " transform="translate(519.87 624.01)"  name="NFkB" ><rect   width="80" height="20"/><text   transform="translate(40,10)"    >NFkB</text></g><g id="ide89c7fe1" class="Edge"  ><path    d="m469.87 529.45 90.00 94.56"/></g></g></g></g></svg>