<?xml version="1.0" encoding="UTF-8"?>
<!--
  WikiPathways page: https://www.wikipathways.org/index.php/Pathway:WP441
  URL for this compressed file: https://github.com/eweitz/cachome/tree/main/data/WP441.svg
  Source code for compression: https://github.com/eweitz/cachome/tree/main/src/wikipathways.py
-->
<svg id="wp441-svg" class="Diagram" width="800" height="600" color="black" baseProfile="full" prefix="schema:http://schema.org/" preserveAspectRatio="xMidYMid" version="1.1" viewBox="0 0 897.5 581.33" vocab="http://vocabularies.wikipathways.org/wp#" xmlns="http://www.w3.org/2000/svg" xmlns:xlink="http://www.w3.org/1999/xlink"><style>svg {font-family: 'Liberation Sans', Arial, sans-serif; }</style><defs><g id="jic-defs"><symbol id="none" preserveAspectRatio="none" viewBox="0 0 100 100"/></g></defs><g id="WP441" class="Viewport" color="black"  name="Name: Matrix metalloproteinases Organism: Mus musculus"><rect id="WP441-icon" class="Icon" width="897.5" height="581.33" fill="#fff" stroke="#000" stroke-width="0"/><g id="e28" class="Label" transform="translate(618.5 485.33)" color="#000"  name="Based on Vu &amp; Werb (2000)"><use id="e28-icon" class="Icon" width="176.33333333333334" height="16" fill="transparent"  stroke="#000" stroke-width="0" xlink:href="#none"/><text id="e28-text" class="Text" transform="translate(88.167 11)" fill="#000"  font-size="10px" font-weight="bold" stroke="white" stroke-width="0" text-anchor="middle"><tspan x="0" y="0">Based on Vu &amp; Werb (2000)</tspan></text></g><g id="cf0" class="Label" transform="translate(619.17 502)" color="#000"  name="Matrix metalloproteinases: effectors of"><use id="cf0-icon" class="Icon" width="248.33333333333334" height="16" fill="transparent"  stroke="#000" stroke-width="0" xlink:href="#none"/><text id="cf0-text" class="Text" transform="translate(124.17 11)" fill="#000"  font-size="10px" font-weight="bold" stroke="white" stroke-width="0" text-anchor="middle"><tspan x="0" y="0">Matrix metalloproteinases: effectors of</tspan></text></g><g id="f1c" class="Label" transform="translate(619.33 518.67)" color="#000"  name="development and normal physiology."><use id="f1c-icon" class="Icon" width="241.33333333333334" height="16" fill="transparent"  stroke="#000" stroke-width="0" xlink:href="#none"/><text id="f1c-text" class="Text" transform="translate(120.67 11)" fill="#000"  font-size="10px" font-weight="bold" stroke="white" stroke-width="0" text-anchor="middle"><tspan x="0" y="0">development and normal physiology.</tspan></text></g><g id="db4" class="Label" transform="translate(619 535.33)" color="#000"  name="Genes Dev 14:2123-2133"><use id="db4-icon" class="Icon" width="155.33333333333334" height="16" fill="transparent"  stroke="#000" stroke-width="0" xlink:href="#none"/><text id="db4-text" class="Text" transform="translate(77.667 11)" fill="#000"  font-size="10px" font-weight="bold" stroke="white" stroke-width="0" text-anchor="middle"><tspan x="0" y="0">Genes Dev 14:2123-2133</tspan></text></g><g id="c93f1" class="GroupNone" transform="translate(37 107.83)" color="grey" ><rect id="c93f1-icon" class="Icon" transform="matrix(.99221 0 0 .99049 .4961 .49525)" width="127.33" height="104.17" fill="#b4b464" fill-opacity=".1" stroke="grey" stroke-dasharray="5,3"/><g id="b2a" class="Label" transform="translate(9,9)" color="#000"  name="Collagenases"><use id="b2a-icon" class="Icon" width="109.33333333333333" height="19" fill="transparent"  stroke="#000" stroke-width="0" xlink:href="#none"/><text id="b2a-text" class="Text" transform="translate(54.667 13.5)" fill="#000"  font-size="12px" font-weight="bold" stroke="white" stroke-width="0" text-anchor="middle"><tspan x="0" y="0">Collagenases</tspan></text></g><a  id="ee0" class="GeneProduct P594_ENSMUSG00000043089 " transform="translate(33.667 35.167)"   name="Mmp1a"  ><rect id="ee0-icon" class="Icon" transform="matrix(.98361 0 0 .95238 .4918 .47619)" width="60" height="20" fill="#fff" stroke="#000"/><text id="ee0-text" class="Text" transform="translate(30,13)" fill="#000"  font-size="10px" stroke="white" stroke-width="0" text-anchor="middle"><tspan x="0" y="0">Mmp1a</tspan></text></a><a  id="dca" class="GeneProduct P594_ENSMUSG00000005800 " transform="translate(33.667 55.167)"   name="Mmp8"  ><rect id="dca-icon" class="Icon" transform="matrix(.98361 0 0 .95238 .4918 .47619)" width="60" height="20" fill="#fff" stroke="#000"/><text id="dca-text" class="Text" transform="translate(30,13)" fill="#000"  font-size="10px" stroke="white" stroke-width="0" text-anchor="middle"><tspan x="0" y="0">Mmp8</tspan></text></a><a  id="de9" class="GeneProduct P594_ENSMUSG00000050578 " transform="translate(33.667 75.167)"   name="Mmp13"  ><rect id="de9-icon" class="Icon" transform="matrix(.98361 0 0 .95238 .4918 .47619)" width="60" height="20" fill="#fff" stroke="#000"/><text id="de9-text" class="Text" transform="translate(30,13)" fill="#000"  font-size="10px" stroke="white" stroke-width="0" text-anchor="middle"><tspan x="0" y="0">Mmp13</tspan></text></a></g><g id="b1384" class="GroupNone" transform="translate(207.17 74.833)" color="grey" ><rect id="b1384-icon" class="Icon" transform="matrix(.99118 0 0 .98826 .49559 .49413)" width="112.33" height="84.167" fill="#b4b464" fill-opacity=".1" stroke="grey" stroke-dasharray="5,3"/><g id="b07" class="Label" transform="translate(9,9)" color="#000"  name="Gelatinases"><use id="b07-icon" class="Icon" width="94.33333333333333" height="19" fill="transparent"  stroke="#000" stroke-width="0" xlink:href="#none"/><text id="b07-text" class="Text" transform="translate(47.167 13.5)" fill="#000"  font-size="12px" font-weight="bold" stroke="white" stroke-width="0" text-anchor="middle"><tspan x="0" y="0">Gelatinases</tspan></text></g><a  id="a14" class="GeneProduct P594_ENSMUSG00000031740 " transform="translate(26.167 35.167)"   name="Mmp2"  ><rect id="a14-icon" class="Icon" transform="matrix(.98361 0 0 .95238 .4918 .47619)" width="60" height="20" fill="#fff" stroke="#000"/><text id="a14-text" class="Text" transform="translate(30,13)" fill="#000"  font-size="10px" stroke="white" stroke-width="0" text-anchor="middle"><tspan x="0" y="0">Mmp2</tspan></text></a><a  id="b03" class="GeneProduct P594_ENSMUSG00000017737 " transform="translate(26.167 55.167)"   name="Mmp9"  ><rect id="b03-icon" class="Icon" transform="matrix(.98361 0 0 .95238 .4918 .47619)" width="60" height="20" fill="#fff" stroke="#000"/><text id="b03-text" class="Text" transform="translate(30,13)" fill="#000"  font-size="10px" stroke="white" stroke-width="0" text-anchor="middle"><tspan x="0" y="0">Mmp9</tspan></text></a></g><g id="f9b7a" class="GroupNone" transform="translate(358.33 74.833)" color="grey" ><rect id="f9b7a-icon" class="Icon" transform="matrix(.99196 0 0 .99049 .49598 .49525)" width="123.33" height="104.17" fill="#b4b464" fill-opacity=".1" stroke="grey" stroke-dasharray="5,3"/><g id="c64" class="Label" transform="translate(9,9)" color="#000"  name="Stromelysins"><use id="c64-icon" class="Icon" width="105.33333333333333" height="19" fill="transparent"  stroke="#000" stroke-width="0" xlink:href="#none"/><text id="c64-text" class="Text" transform="translate(52.667 13.5)" fill="#000"  font-size="12px" font-weight="bold" stroke="white" stroke-width="0" text-anchor="middle"><tspan x="0" y="0">Stromelysins</tspan></text></g><a  id="bbe" class="GeneProduct P594_ENSMUSG00000047562 " transform="translate(31.667 55.167)"   name="Mmp10"  ><rect id="bbe-icon" class="Icon" transform="matrix(.98361 0 0 .95238 .4918 .47619)" width="60" height="20" fill="#fff" stroke="#000"/><text id="bbe-text" class="Text" transform="translate(30,13)" fill="#000"  font-size="10px" stroke="white" stroke-width="0" text-anchor="middle"><tspan x="0" y="0">Mmp10</tspan></text></a><a  id="b11" class="GeneProduct P594_ENSMUSG00000043613 " transform="translate(31.667 35.167)"   name="Mmp3"  ><rect id="b11-icon" class="Icon" transform="matrix(.98361 0 0 .95238 .4918 .47619)" width="60" height="20" fill="#fff" stroke="#000"/><text id="b11-text" class="Text" transform="translate(30,13)" fill="#000"  font-size="10px" stroke="white" stroke-width="0" text-anchor="middle"><tspan x="0" y="0">Mmp3</tspan></text></a><a  id="a4e" class="GeneProduct P594_ENSMUSG00000000901 " transform="translate(31.667 75.167)"   name="Mmp11"  ><rect id="a4e-icon" class="Icon" transform="matrix(.98361 0 0 .95238 .4918 .47619)" width="60" height="20" fill="#fff" stroke="#000"/><text id="a4e-text" class="Text" transform="translate(30,13)" fill="#000"  font-size="10px" stroke="white" stroke-width="0" text-anchor="middle"><tspan x="0" y="0">Mmp11</tspan></text></a></g><g id="dfa3b" class="GroupNone" transform="translate(521 74.833)" color="grey" ><rect id="dfa3b-icon" class="Icon" transform="matrix(.9948 0 0 .99395 .4974 .49697)" width="191.33" height="164.17" fill="#b4b464" fill-opacity=".1" stroke="grey" stroke-dasharray="5,3"/><g id="e5c" class="Label" transform="translate(9,9)" color="#000"  name="Membrane-type MMPs"><use id="e5c-icon" class="Icon" width="173.33333333333334" height="19" fill="transparent"  stroke="#000" stroke-width="0" xlink:href="#none"/><text id="e5c-text" class="Text" transform="translate(86.667 13.5)" fill="#000"  font-size="12px" font-weight="bold" stroke="white" stroke-width="0" text-anchor="middle"><tspan x="0" y="0">Membrane-type MMPs</tspan></text></g><a  id="d30" class="GeneProduct P594_ENSMUSG00000000957 " transform="translate(65.667 35.167)"   name="Mmp14"  ><rect id="d30-icon" class="Icon" transform="matrix(.98361 0 0 .95238 .4918 .47619)" width="60" height="20" fill="#fff" stroke="#000"/><text id="d30-text" class="Text" transform="translate(30,13)" fill="#000"  font-size="10px" stroke="white" stroke-width="0" text-anchor="middle"><tspan x="0" y="0">Mmp14</tspan></text></a><a  id="a77" class="GeneProduct P594_ENSMUSG00000031790 " transform="translate(65.667 55.167)"   name="Mmp15"  ><rect id="a77-icon" class="Icon" transform="matrix(.98361 0 0 .95238 .4918 .47619)" width="60" height="20" fill="#fff" stroke="#000"/><text id="a77-text" class="Text" transform="translate(30,13)" fill="#000"  font-size="10px" stroke="white" stroke-width="0" text-anchor="middle"><tspan x="0" y="0">Mmp15</tspan></text></a><a  id="d25" class="GeneProduct P594_ENSMUSG00000028226 " transform="translate(65.667 75.167)"   name="Mmp16"  ><rect id="d25-icon" class="Icon" transform="matrix(.98361 0 0 .95238 .4918 .47619)" width="60" height="20" fill="#fff" stroke="#000"/><text id="d25-text" class="Text" transform="translate(30,13)" fill="#000"  font-size="10px" stroke="white" stroke-width="0" text-anchor="middle"><tspan x="0" y="0">Mmp16</tspan></text></a><a  id="be5" class="GeneProduct P594_ENSMUSG00000029436 " transform="translate(65.667 95.167)"   name="Mmp17"  ><rect id="be5-icon" class="Icon" transform="matrix(.98361 0 0 .95238 .4918 .47619)" width="60" height="20" fill="#fff" stroke="#000"/><text id="be5-text" class="Text" transform="translate(30,13)" fill="#000"  font-size="10px" stroke="white" stroke-width="0" text-anchor="middle"><tspan x="0" y="0">Mmp17</tspan></text></a><a  id="e85" class="GeneProduct P594_ENSMUSG00000027612 " transform="translate(65.667 115.17)"   name="Mmp24"  ><rect id="e85-icon" class="Icon" transform="matrix(.98361 0 0 .95238 .4918 .47619)" width="60" height="20" fill="#fff" stroke="#000"/><text id="e85-text" class="Text" transform="translate(30,13)" fill="#000"  font-size="10px" stroke="white" stroke-width="0" text-anchor="middle"><tspan x="0" y="0">Mmp24</tspan></text></a><a  id="b00" class="GeneProduct P594_ENSMUSG00000023903 " transform="translate(65.667 135.17)"   name="Mmp25"  ><rect id="b00-icon" class="Icon" transform="matrix(.98361 0 0 .95238 .4918 .47619)" width="60" height="20" fill="#fff" stroke="#000"/><text id="b00-text" class="Text" transform="translate(30,13)" fill="#000"  font-size="10px" stroke="white" stroke-width="0" text-anchor="middle"><tspan x="0" y="0">Mmp25</tspan></text></a></g><g id="c8615" class="GroupNone" transform="translate(381 188.17)" color="grey" ><rect id="c8615-icon" class="Icon" transform="matrix(.98734 0 0 .99395 .49367 .49697)" width="78" height="164.17" fill="#b4b464" fill-opacity=".1" stroke="grey" stroke-dasharray="5,3"/><g id="f8b" class="Label" transform="translate(15.333 9)" color="#000"  name="Other"><use id="f8b-icon" class="Icon" width="47.333333333333336" height="19" fill="transparent"  stroke="#000" stroke-width="0" xlink:href="#none"/><text id="f8b-text" class="Text" transform="translate(23.667 13.5)" fill="#000"  font-size="12px" font-weight="bold" stroke="white" stroke-width="0" text-anchor="middle"><tspan x="0" y="0">Other</tspan></text></g><a  id="c23" class="GeneProduct P594_ENSMUSG00000025355 " transform="translate(9 35.167)"   name="Mmp19"  ><rect id="c23-icon" class="Icon" transform="matrix(.98361 0 0 .95238 .4918 .47619)" width="60" height="20" fill="#fff" stroke="#000"/><text id="c23-text" class="Text" transform="translate(30,13)" fill="#000"  font-size="10px" stroke="white" stroke-width="0" text-anchor="middle"><tspan x="0" y="0">Mmp19</tspan></text></a><a  id="b8a" class="GeneProduct P594_ENSMUSG00000020682 " transform="translate(9 135.17)"   name="Mmp28"  ><rect id="b8a-icon" class="Icon" transform="matrix(.98361 0 0 .95238 .4918 .47619)" width="60" height="20" fill="#fff" stroke="#000"/><text id="b8a-text" class="Text" transform="translate(30,13)" fill="#000"  font-size="10px" stroke="white" stroke-width="0" text-anchor="middle"><tspan x="0" y="0">Mmp28</tspan></text></a><g id="efd" class="GeneProduct" transform="translate(9 75.167)" color="#000"  name="MMP23A"><rect id="efd-icon" class="Icon" transform="matrix(.98361 0 0 .95238 .4918 .47619)" width="60" height="20" fill="#fff" stroke="#000"/><text id="efd-text" class="Text" transform="translate(30,13)" fill="#000"  font-size="10px" stroke="white" stroke-width="0" text-anchor="middle"><tspan x="0" y="0">MMP23A</tspan></text></g><a  id="a12" class="GeneProduct P594_ENSMUSG00000070323 " transform="translate(9 115.17)"   name="Mmp27"  ><rect id="a12-icon" class="Icon" transform="matrix(.98361 0 0 .95238 .4918 .47619)" width="60" height="20" fill="#fff" stroke="#000"/><text id="a12-text" class="Text" transform="translate(30,13)" fill="#000"  font-size="10px" stroke="white" stroke-width="0" text-anchor="middle"><tspan x="0" y="0">Mmp27</tspan></text></a><a  id="d77" class="GeneProduct P594_ENSMUSG00000030981 " transform="translate(9 55.167)"   name="Mmp21"  ><rect id="d77-icon" class="Icon" transform="matrix(.98361 0 0 .95238 .4918 .47619)" width="60" height="20" fill="#fff" stroke="#000"/><text id="d77-text" class="Text" transform="translate(30,13)" fill="#000"  font-size="10px" stroke="white" stroke-width="0" text-anchor="middle"><tspan x="0" y="0">Mmp21</tspan></text></a><a  id="a11" class="GeneProduct P594_ENSMUSG00000029061 " transform="translate(9 95.167)"   name="Mmp23"  ><rect id="a11-icon" class="Icon" transform="matrix(.98361 0 0 .95238 .4918 .47619)" width="60" height="20" fill="#fff" stroke="#000"/><text id="a11-text" class="Text" transform="translate(30,13)" fill="#000"  font-size="10px" stroke="white" stroke-width="0" text-anchor="middle"><tspan x="0" y="0">Mmp23</tspan></text></a></g><g id="a21e5" class="GroupNone" transform="translate(207.17 178.17)" color="grey" ><rect id="a21e5-icon" class="Icon" transform="matrix(.99118 0 0 .98465 .49559 .49233)" width="112.33" height="64.167" fill="#b4b464" fill-opacity=".1" stroke="grey" stroke-dasharray="5,3"/><g id="ee4" class="Label" transform="translate(9,9)" color="#000"  name="Enamelysin"><use id="ee4-icon" class="Icon" width="94.33333333333333" height="19" fill="transparent"  stroke="#000" stroke-width="0" xlink:href="#none"/><text id="ee4-text" class="Text" transform="translate(47.167 13.5)" fill="#000"  font-size="12px" font-weight="bold" stroke="white" stroke-width="0" text-anchor="middle"><tspan x="0" y="0">Enamelysin</tspan></text></g><a  id="d7e" class="GeneProduct P594_ENSMUSG00000018620 " transform="translate(26.167 35.167)"   name="Mmp20"  ><rect id="d7e-icon" class="Icon" transform="matrix(.98361 0 0 .95238 .4918 .47619)" width="60" height="20" fill="#fff" stroke="#000"/><text id="d7e-text" class="Text" transform="translate(30,13)" fill="#000"  font-size="10px" stroke="white" stroke-width="0" text-anchor="middle"><tspan x="0" y="0">Mmp20</tspan></text></a></g><g id="b33dc" class="GroupNone" transform="translate(52.5 221.17)" color="grey" ><rect id="b33dc-icon" class="Icon" transform="matrix(.98973 0 0 .98826 .49486 .49413)" width="96.333" height="84.167" fill="#b4b464" fill-opacity=".1" stroke="grey" stroke-dasharray="5,3"/><g id="eb5" class="Label" transform="translate(9,9)" color="#000"  name="Matrilysin"><use id="eb5-icon" class="Icon" width="78.33333333333333" height="19" fill="transparent"  stroke="#000" stroke-width="0" xlink:href="#none"/><text id="eb5-text" class="Text" transform="translate(39.167 13.5)" fill="#000"  font-size="12px" font-weight="bold" stroke="white" stroke-width="0" text-anchor="middle"><tspan x="0" y="0">Matrilysin</tspan></text></g><a  id="bb1" class="GeneProduct P594_ENSMUSG00000018623 " transform="translate(18.167 35.167)"   name="Mmp7"  ><rect id="bb1-icon" class="Icon" transform="matrix(.98361 0 0 .95238 .4918 .47619)" width="60" height="20" fill="#fff" stroke="#000"/><text id="bb1-text" class="Text" transform="translate(30,13)" fill="#000"  font-size="10px" stroke="white" stroke-width="0" text-anchor="middle"><tspan x="0" y="0">Mmp7</tspan></text></a><g id="fc8" class="GeneProduct" transform="translate(18.167 55.167)" color="#000"  name="MMP26"><rect id="fc8-icon" class="Icon" transform="matrix(.98361 0 0 .95238 .4918 .47619)" width="60" height="20" fill="#fff" stroke="#000"/><text id="fc8-text" class="Text" transform="translate(30,13)" fill="#000"  font-size="10px" stroke="white" stroke-width="0" text-anchor="middle"><tspan x="0" y="0">MMP26</tspan></text></g></g><g id="aae53" class="GroupNone" transform="translate(30.5 312.5)" color="grey" ><rect id="aae53-icon" class="Icon" transform="matrix(.99292 0 0 .98465 .49646 .49233)" width="140.33" height="64.167" fill="#b4b464" fill-opacity=".1" stroke="grey" stroke-dasharray="5,3"/><g id="d0f" class="Label" transform="translate(9,9)" color="#000"  name="Metalloelastase"><use id="d0f-icon" class="Icon" width="122.33333333333333" height="19" fill="transparent"  stroke="#000" stroke-width="0" xlink:href="#none"/><text id="d0f-text" class="Text" transform="translate(61.167 13.5)" fill="#000"  font-size="12px" font-weight="bold" stroke="white" stroke-width="0" text-anchor="middle"><tspan x="0" y="0">Metalloelastase</tspan></text></g><a  id="d23" class="GeneProduct P594_ENSMUSG00000049723 " transform="translate(40.167 35.167)"   name="Mmp12"  ><rect id="d23-icon" class="Icon" transform="matrix(.98361 0 0 .95238 .4918 .47619)" width="60" height="20" fill="#fff" stroke="#000"/><text id="d23-text" class="Text" transform="translate(30,13)" fill="#000"  font-size="10px" stroke="white" stroke-width="0" text-anchor="middle"><tspan x="0" y="0">Mmp12</tspan></text></a></g><g id="cc3e8" class="GroupNone" transform="translate(211.67 269.17)" color="grey" ><rect id="cc3e8-icon" class="Icon" transform="matrix(.98962 0 0 .99179 .49481 .4959)" width="95.333" height="120.83" fill="#b4b464" fill-opacity=".1" stroke="grey" stroke-dasharray="5,3"/><g id="ca7" class="Label" transform="translate(9,9)" color="#000"  name="Inhibitors"><use id="ca7-icon" class="Icon" width="77.33333333333333" height="19" fill="transparent"  stroke="#000" stroke-width="0" xlink:href="#none"/><text id="ca7-text" class="Text" transform="translate(38.667 13.5)" fill="#000"  font-size="12px" font-weight="bold" stroke="white" stroke-width="0" text-anchor="middle"><tspan x="0" y="0">Inhibitors</tspan></text></g><a  id="b9e" class="GeneProduct P594_ENSMUSG00000017466 " transform="translate(17.667 51.833)"   name="Timp2"  ><rect id="b9e-icon" class="Icon" transform="matrix(.98361 0 0 .95238 .4918 .47619)" width="60" height="20" fill="#fff" stroke="#000"/><text id="b9e-text" class="Text" transform="translate(30,13)" fill="#000"  font-size="10px" stroke="white" stroke-width="0" text-anchor="middle"><tspan x="0" y="0">Timp2</tspan></text></a><a  id="e00" class="GeneProduct P594_ENSMUSG00000020044 " transform="translate(17.667 71.833)"   name="Timp3"  ><rect id="e00-icon" class="Icon" transform="matrix(.98361 0 0 .95238 .4918 .47619)" width="60" height="20" fill="#fff" stroke="#000"/><text id="e00-text" class="Text" transform="translate(30,13)" fill="#000"  font-size="10px" stroke="white" stroke-width="0" text-anchor="middle"><tspan x="0" y="0">Timp3</tspan></text></a><a  id="ff7" class="GeneProduct P594_ENSMUSG00000030317 " transform="translate(17.667 91.833)"   name="Timp4"  ><rect id="ff7-icon" class="Icon" transform="matrix(.98361 0 0 .95238 .4918 .47619)" width="60" height="20" fill="#fff" stroke="#000"/><text id="ff7-text" class="Text" transform="translate(30,13)" fill="#000"  font-size="10px" stroke="white" stroke-width="0" text-anchor="middle"><tspan x="0" y="0">Timp4</tspan></text></a><a  id="dbd" class="GeneProduct P594_ENSMUSG00000001131 " transform="translate(17.667 31.833)"   name="Timp1"  ><rect id="dbd-icon" class="Icon" transform="matrix(.98361 0 0 .95238 .4918 .47619)" width="60" height="20" fill="#fff" stroke="#000"/><text id="dbd-text" class="Text" transform="translate(30,13)" fill="#000"  font-size="10px" stroke="white" stroke-width="0" text-anchor="middle"><tspan x="0" y="0">Timp1</tspan></text></a></g><g id="cf251" class="GroupNone" transform="translate(396 359.67)" color="grey" ><rect id="cf251-icon" class="Icon" transform="matrix(.99587 0 0 .99065 .49794 .49533)" width="241.33" height="106" fill="#b4b464" fill-opacity=".1" stroke="grey" stroke-dasharray="5,3"/><g id="ecd" class="Label" transform="translate(9,9)" color="#000"  name="Potential Inducers of Transcription"><use id="ecd-icon" class="Icon" width="223.33333333333334" height="16" fill="transparent"  stroke="#000" stroke-width="0" xlink:href="#none"/><text id="ecd-text" class="Text" transform="translate(111.67 11)" fill="#000"  font-size="10px" font-weight="bold" stroke="white" stroke-width="0" text-anchor="middle"><tspan x="0" y="0">Potential Inducers of Transcription</tspan></text></g><a  id="c49" class="GeneProduct P594_ENSMUSG00000023175 " transform="translate(90.667 30.333)"   name="Bsg"  ><rect id="c49-icon" class="Icon" transform="matrix(.98361 0 0 .95238 .4918 .47619)" width="60" height="20" fill="#fff" stroke="#000"/><text id="c49-text" class="Text" transform="translate(30,13)" fill="#000"  font-size="10px" stroke="white" stroke-width="0" text-anchor="middle"><tspan x="0" y="0">Bsg</tspan></text></a><a  id="eb0" class="GeneProduct P594_ENSMUSG00000024401 " transform="translate(90.667 77)"   name="Tnf"  ><rect id="eb0-icon" class="Icon" transform="matrix(.98361 0 0 .95238 .4918 .47619)" width="60" height="20" fill="#fff" stroke="#000"/><text id="eb0-text" class="Text" transform="translate(30,13)" fill="#000"  font-size="10px" stroke="white" stroke-width="0" text-anchor="middle"><tspan x="0" y="0">Tnf</tspan></text></a><a  id="d26" class="GeneProduct P594_ENSMUSG00000041852 " transform="translate(90.667 53.667)"   name="Tcf20"  ><rect id="d26-icon" class="Icon" transform="matrix(.98361 0 0 .95238 .4918 .47619)" width="60" height="20" fill="#fff" stroke="#000"/><text id="d26-text" class="Text" transform="translate(30,13)" fill="#000"  font-size="10px" stroke="white" stroke-width="0" text-anchor="middle"><tspan x="0" y="0">Tcf20</tspan></text></a></g><text id="WP441-text" class="Text" transform="translate(5,27)" dominant-baseline="central" fill="black"  font-size="12px" font-weight="bold" overflow="visible" stroke="white" stroke-width="0"><tspan x="0" y="-9">Name: Matrix metalloproteinases</tspan> <tspan x="0" y="9">Organism: Mus musculus</tspan></text></g></svg>
