<?xml version="1.0" encoding="UTF-8"?>
<svg xmlns="http://www.w3.org/2000/svg" id="-svg" class="Diagram"  baseProfile="full" prefix="schema:http://schema.org/" preserveAspectRatio="xMidYMid"  version="1.1"><defs><g id="icon-defs"><symbol id="HexagonPathVisio" class=" Icon HexagonPathVisio" x="0" y="8" overflow="visible" preserveAspectRatio="none" viewBox="0 8 100 86"><desc>HexagonPathVisio</desc><g transform="scale(1 0.85)"><path d="m1.42 51.00 21.07-42.14h56.19l21.07 42.14-21.07 42.15h-56.19l-21.07-42.15z" stroke="currentColor" vector-effect="non-scaling-stroke"/></g></symbol><symbol id="Octagon" class=" Icon Octagon" x="0" y="0" overflow="visible" preserveAspectRatio="none" viewBox="0 0 100 100"><desc>Octagon</desc><path d="m0 25 25-25h50l25 25v50l-25 25h-50l-25-25z" vector-effect="non-scaling-stroke"/></symbol></g><g id="marker-defs"><marker id="mea" markerHeight="12" markerWidth="12" orient="auto" preserveAspectRatio="none" refX="12" refY="6" viewBox="0 0 12 12"><g id="g-mea" transform=""><g transform="rotate(180 6 6)"><rect y="5.4" width="2" height="1.2" style="stroke:#fff"/><polygon points="12 11 0 6 12 1" stroke-width="0"/></g></g></marker><marker id="memcatalysis000" markerHeight="12" markerWidth="12" orient="auto" preserveAspectRatio="none" refX="12" refY="6" viewBox="0 0 12 12"><g id="g-memcatalysis000" transform=""><g transform="rotate(180 6 6)"><circle cx="6" cy="6" r="5.3px" fill="#fff" stroke="#000"/></g></g></marker></g></defs><g id="viewport-20220102143851340" class="svg-pan-zoom_viewport" transform="matrix(0.51 0 0 0.51 426.94 0)" style="transform:matrix(0.51, 0, 0, 0.51, 426.94, 0)"><style>svg.Diagram {font-family: 'Liberation Sans', Arial, sans-serif; }.Diagram path {fill: transparent;stroke: #000;marker-end: url(#mea);}.Diagram symbol path {fill: inherit;stroke: inherit;stroke-width: inherit;marker-end: inherit;}.Diagram rect {fill: #fff;stroke: #000;}.Diagram text {dominant-baseline: central;overflow: hidden;text-anchor: middle;fill: #000;font-size: 10px;}</style><style type="text/css">.Viewport .textContent {
  pointer-events: none;
  stroke-width: 0px;
}

					.Viewport.Icon {
  fill: white;
}

/* Hide the InfoBox */
.Viewport.textContent {
  font-size: 0;
}

.textContent {
  stroke: none;
}

.DataNode {
  stroke-miterlimit: 1;
  pointer-events: auto;
}

.DataNode:hover {
  cursor: pointer;
}

/* TODO should this apply to things other than DataNodes? */
.DataNode.textContent {
  pointer-events: none;
}

.DataNode.Highlighted {
  opacity: 0.6;
  stroke-width: 0px;
}

marker {
  /* this is what should work per the spec
  stroke-dasharray: none; */
  /* but I need to add this to make it work in Safari */
  stroke-dasharray: 9999999999999999999999999;
}

.Citation.Icon {
  fill: none;
  stroke-width: 0px;
}

.Citation.textContent {
  text-align: center;
  vertical-align: top;
  font-size: 7px;
  fill: #999;
  fill-opacity: 1;
  stroke: none;
}</style><g id="WP4450" class="Pathway http___identifiers_org_pw_PW_0000416 Viewport"  name="Name: SUMOylation of ubiquitinylation proteins Organism: Homo sapiens" ><g class="Pathway http___identifiers_org_pw_PW_0000416 Viewport"><rect   width="685" height="1324" style="stroke:none"/><g id="b6210" class="Reactome_R-HSA-4551721"  ><path    d="m473 109-2 87" style="marker-end:none"/><g id="dad90" class="AB" transform="translate(473,109)"  ><g class="AB"/></g><g id="ebbf0" class="AB" transform="translate(471.02 195.13)"  ><g class="AB"/></g><g id="dfc09" class="AB" transform="translate(472,152.5)"  ><g class="AB"/></g></g><g id="a7f3b" class="Reactome_R-HSA-4551721"  ><path    d="m471 196 4 43"/></g><g id="c70d3" class="Reactome_R-HSA-3000434"  ><path    d="m207 99-1 81" style="marker-end:none"/><g id="e0434" class="AB" transform="translate(207,99)"  ><g class="AB"/></g><g id="d20fd" class="AB" transform="translate(206.01,179.19)"  ><g class="AB"/></g><g id="fd056" class="AB" transform="translate(206.5,139.5)"  ><g class="AB"/></g></g><g id="b886a" class="Reactome_R-HSA-3000434"  ><path    d="m170 50 37 49" style="marker-end:none"/></g><g id="ba2bd" class="Reactome_R-HSA-3000434"  ><path    d="m185 51 22 48" style="marker-end:none"/></g><g id="a8cff" class="Reactome_R-HSA-3000434"  ><path    d="m206 180 33 62"/></g><g id="decc1" class="Reactome_R-HSA-3000434"  ><path    d="m232 148-25 1" style="marker-end:url(#memcatalysis000)"/></g><g id="e8a46" class="Reactome_R-HSA-4551721"  ><path    d="m439 56 34 53" style="marker-end:none"/></g><g id="f0b27" class="Reactome_R-HSA-4551721"  ><path    d="m498 160-26-1" style="marker-end:url(#memcatalysis000)"/></g><g id="f1c23" class="Reactome_R-HSA-5228523"  ><path    d="m184 99v80" style="marker-end:none"/><g id="bd342" class="AB" transform="translate(184,99)"  ><g class="AB"/></g><g id="f6dcd" class="AB" transform="translate(184 178.2)"  ><g class="AB"/></g><g id="e8619" class="AB" transform="translate(184,139)"  ><g class="AB"/></g></g><g id="e3cee" class="Reactome_R-HSA-5228523"  ><path    d="m185 51-1 48" style="marker-end:none"/></g><g id="b8a9f" class="Reactome_R-HSA-5228523"  ><path    d="m184 179 14 63"/></g><g id="c7174" class="Reactome_R-HSA-5228523"  ><path    d="m184 179 55 63"/></g><g id="f4365" class="Reactome_R-HSA-5228523"  ><path    d="m170 50 14 49" style="marker-end:none"/></g><g id="f7d4c" class="Reactome_R-HSA-3000434"  ><path    d="m206 180-8 62"/></g><g id="f8099" class="Reactome_R-HSA-4551721"  ><path    d="m458 56 15 53" style="marker-end:none"/></g><g id="fdff3" class="Reactome_R-HSA-5228523"  ><path    d="m100 135 84 7" style="marker-end:url(#memcatalysis000)"/></g><g id="ff6bd" class="Reactome_R-HSA-4551721"  ><path    d="m471 196 34 44"/></g><g id="f7b6c" class="GroupGroup" transform="translate(0,-4)"  ><g class="GroupGroup"><g id="db2d8" class="" transform="translate(8,8)"  ><g class=""><rect   transform="matrix(1.00 0 0 0.99 1.49 1.49)" width="647" height="312" rx="15" ry="15" stroke-width="3" style="fill:transparent;stroke:#c0c0c0"/></g></g><g id="b3101" class="Label" transform="translate(54,276)"  name="nucleoplasm" ><g class="Label"/><text   transform="translate(49.5,16.5)"    >nucleoplasm</text></g></g></g><g id="a0643" class="Complex Reactome_R-HSA-3730855" transform="translate(90,231)"  name="SUMO1:MDM2" ><g class="Complex Reactome_R-HSA-3730855"><use class="Complex Reactome_R-HSA-3730855 Node Icon" width="108" height="23" fill="#fff" stroke="#a52a2a" href="#HexagonPathVisio"/></g><g ><defs><clipPath ><rect x="-54" y="-11.5" width="108" height="23" style="stroke:none"/></clipPath></defs><text   transform="translate(54,11.5)"     style="fill:#a52a2a">SUMO1:MDM2</text></g></g><g id="a4d23" class="Protein" transform="translate(505,226)"  name="UBE2I" ><rect   width="68" height="28"/><text   transform="translate(34,14)"    >UBE2I</text></g><g id="a97db" class="Complex Reactome_R-HSA-157689" transform="translate(4,110)"  name="Nuclear Pore Complex (NPC)" ><g class="Complex Reactome_R-HSA-157689"><use class="Complex Reactome_R-HSA-157689 Node Icon" width="96" height="51" fill="#fff" stroke="#a52a2a" href="#HexagonPathVisio"/></g><g ><defs><clipPath ><rect x="-48" y="-25.5" width="96" height="51" style="stroke:none"/></clipPath></defs><text   transform="translate(48,25.5)"     style="fill:#a52a2a"><tspan   x="0" y="-5.5">Nuclear Pore Complex</tspan><tspan   x="0" y="5.5">(NPC)</tspan></text></g></g><g id="ac6f3" class="Protein" transform="translate(98,39)"  name="MDM2" ><rect   width="72" height="23"/><text   transform="translate(36,11.5)"    >MDM2</text></g><g id="ba5c7" class="Complex Reactome_R-HSA-2993783" transform="translate(458,43)"  name="SUMO1:C93-UBE2I" ><g class="Complex Reactome_R-HSA-2993783"><use class="Complex Reactome_R-HSA-2993783 Node Icon" width="131" height="27" fill="#fff" stroke="#a52a2a" href="#HexagonPathVisio"/></g><g ><defs><clipPath ><rect x="-65.5" y="-13.5" width="131" height="27" style="stroke:none"/></clipPath></defs><text   transform="translate(65.5,13.5)"     style="fill:#a52a2a">SUMO1:C93-UBE2I</text></g></g><g id="bae95" class="Complex Reactome_R-HSA-2993783" transform="translate(185,37)"  name="SUMO1:C93-UBE2I" ><g class="Complex Reactome_R-HSA-2993783"><use class="Complex Reactome_R-HSA-2993783 Node Icon" width="142" height="28" fill="#fff" stroke="#a52a2a" href="#HexagonPathVisio"/></g><g ><defs><clipPath ><rect x="-71" y="-14" width="142" height="28" style="stroke:none"/></clipPath></defs><text   transform="translate(71,14)"     style="fill:#a52a2a">SUMO1:C93-UBE2I</text></g></g><g id="bca83" class="Complex Reactome_R-HSA-3000441" transform="translate(232,135)"  name="PML,TRIM27,PIAS1,2-1" ><g class="Complex Reactome_R-HSA-3000441"><rect   width="165" height="26" rx="15" ry="15" style="stroke:#a52a2a"/></g><g ><defs><clipPath ><rect x="-82.5" y="-13" width="165" height="26" style="stroke:none"/></clipPath></defs><text   transform="translate(82.5,13)"     style="fill:#a52a2a">PML,TRIM27,PIAS1,2-1</text></g></g><g id="c3151" class="Protein" transform="translate(498,145)"  name="PIAS4" ><rect   width="61" height="30"/><text   transform="translate(30.5,15)"    >PIAS4</text></g><g id="e879f" class="Complex Reactome_R-HSA-4551704" transform="translate(367,227)"  name="3SUMO1:VHL" ><g class="Complex Reactome_R-HSA-4551704"><use class="Complex Reactome_R-HSA-4551704 Node Icon" width="108" height="24" fill="#fff" stroke="#a52a2a" href="#HexagonPathVisio"/></g><g ><defs><clipPath ><rect x="-54" y="-12" width="108" height="24" style="stroke:none"/></clipPath></defs><text   transform="translate(54,12)"     style="fill:#a52a2a">3SUMO1:VHL</text></g></g><g id="f3b3f" class="Protein" transform="translate(391,44)"  name="VHL" ><rect   width="49" height="25"/><text   transform="translate(24.5,12.5)"    >VHL</text></g><g id="fa40b" class="Protein" transform="translate(239,229)"  name="UBE2I" ><rect   width="75" height="27"/><text   transform="translate(37.5,13.5)"    >UBE2I</text></g><g id="ade6a" class="GroupComplex" transform="translate(38,602)"  ><g class="GroupComplex"><use class="Icon" width="124" height="704" fill="#b4b464" fill-opacity=".1" stroke="grey" href="#Octagon"/><g id="a39fb" class="Protein" transform="translate(12,32)"  name="NUP54" ><rect   width="100" height="20"/><text   transform="translate(50,10)"    >NUP54</text></g><g id="a53b4" class="Protein" transform="translate(12,632)"  name="NUP93" ><rect   width="100" height="20"/><text   transform="translate(50,10)"    >NUP93</text></g><g id="a60f7" class="Protein" transform="translate(12,672)"  name="NUP205" ><rect   width="100" height="20"/><text   transform="translate(50,10)"    >NUP205</text></g><g id="b2a42" class="Protein-3" transform="translate(12,352)"  name="NUP98-3" ><rect   width="100" height="20"/><text   transform="translate(50,10)"    >NUP98-3</text></g><g id="b2e2d" class="Protein" transform="translate(12,532)"  name="NUP37" ><rect   width="100" height="20"/><text   transform="translate(50,10)"    >NUP37</text></g><g id="b3cf6" class="Protein" transform="translate(12,232)"  name="NUP50" ><rect   width="100" height="20"/><text   transform="translate(50,10)"    >NUP50</text></g><g id="b431f" class="Protein" transform="translate(12,372)"  name="POM121" ><rect   width="100" height="20"/><text   transform="translate(50,10)"    >POM121</text></g><g id="b66ab" class="Protein" transform="translate(12,652)"  name="NUP35" ><rect   width="100" height="20"/><text   transform="translate(50,10)"    >NUP35</text></g><g id="b684f" class="Protein" transform="translate(12,612)"  name="NUP155" ><rect   width="100" height="20"/><text   transform="translate(50,10)"    >NUP155</text></g><g id="b7018" class="Protein" transform="translate(12,452)"  name="NUP133" ><rect   width="100" height="20"/><text   transform="translate(50,10)"    >NUP133</text></g><g id="b71da" class="Protein" transform="translate(12,112)"  name="NUP210" ><rect   width="100" height="20"/><text   transform="translate(50,10)"    >NUP210</text></g><g id="bd889" class="Protein" transform="translate(12,252)"  name="NUP88" ><rect   width="100" height="20"/><text   transform="translate(50,10)"    >NUP88</text></g><g id="c3404" class="Protein" transform="translate(12,292)"  name="TPR" ><rect   width="100" height="20"/><text   transform="translate(50,10)"    >TPR</text></g><g id="c8238" class="Protein" transform="translate(12,472)"  name="NUP160" ><rect   width="100" height="20"/><text   transform="translate(50,10)"    >NUP160</text></g><g id="cd360" class="Protein" transform="translate(12,552)"  name="NUP43" ><rect   width="100" height="20"/><text   transform="translate(50,10)"    >NUP43</text></g><g id="d46d3" class="Protein" transform="translate(12,12)"  name="NUP62" ><rect   width="100" height="20"/><text   transform="translate(50,10)"    >NUP62</text></g><g id="da773" class="Protein" transform="translate(12,192)"  name="NUP214" ><rect   width="100" height="20"/><text   transform="translate(50,10)"    >NUP214</text></g><g id="dcb84" class="Protein" transform="translate(12,412)"  name="NDC1" ><rect   width="100" height="20"/><text   transform="translate(50,10)"    >NDC1</text></g><g id="dcfa5" class="Protein" transform="translate(12,92)"  name="AAAS" ><rect   width="100" height="20"/><text   transform="translate(50,10)"    >AAAS</text></g><g id="e144b" class="Protein" transform="translate(12,392)"  name="POM121C" ><rect   width="100" height="20"/><text   transform="translate(50,10)"    >POM121C</text></g><g id="e1c7a" class="Protein" transform="translate(12,212)"  name="RANBP2" ><rect   width="100" height="20"/><text   transform="translate(50,10)"    >RANBP2</text></g><g id="e5a84" class="Protein-2" transform="translate(12,72)"  name="NUP58-2" ><rect   width="100" height="20"/><text   transform="translate(50,10)"    >NUP58-2</text></g><g id="e5c82" class="Protein" transform="translate(12,172)"  name="NUP188" ><rect   width="100" height="20"/><text   transform="translate(50,10)"    >NUP188</text></g><g id="e92ae" class="Protein-5" transform="translate(12,512)"  name="NUP98-5" ><rect   width="100" height="20"/><text   transform="translate(50,10)"    >NUP98-5</text></g><g id="eb225" class="Protein" transform="translate(12,152)"  name="NUP153" ><rect   width="100" height="20"/><text   transform="translate(50,10)"    >NUP153</text></g><g id="eb71b" class="Protein" transform="translate(12,272)"  name="RAE1" ><rect   width="100" height="20"/><text   transform="translate(50,10)"    >RAE1</text></g><g id="ec084" class="Protein-1" transform="translate(12,52)"  name="NUP58-1" ><rect   width="100" height="20"/><text   transform="translate(50,10)"    >NUP58-1</text></g><g id="ec607" class="Protein" transform="translate(12,432)"  name="NUP107" ><rect   width="100" height="20"/><text   transform="translate(50,10)"    >NUP107</text></g><g id="f00a9" class="Protein-2" transform="translate(12,312)"  name="SEH1L-2" ><rect   width="100" height="20"/><text   transform="translate(50,10)"    >SEH1L-2</text></g><g id="f52e0" class="Protein" transform="translate(12,492)"  name="NUP85" ><rect   width="100" height="20"/><text   transform="translate(50,10)"    >NUP85</text></g><g id="f56aa" class="Protein-1" transform="translate(12,592)"  name="SEH1L-1" ><rect   width="100" height="20"/><text   transform="translate(50,10)"    >SEH1L-1</text></g><g id="f725b" class="Protein-4" transform="translate(12,332)"  name="NUP98-4" ><rect   width="100" height="20"/><text   transform="translate(50,10)"    >NUP98-4</text></g><g id="fc2db" class="Protein" transform="translate(12,132)"  name="NUPL2" ><rect   width="100" height="20"/><text   transform="translate(50,10)"    >NUPL2</text></g><g id="ff761" class="Protein" transform="translate(12,572)"  name="SEC13" ><rect   width="100" height="20"/><text   transform="translate(50,10)"    >SEC13</text></g></g></g><g id="c86ee" class="GroupComplex" transform="translate(178,362)"  ><g class="GroupComplex"><use class="Icon" width="124" height="134" fill="#b4b464" fill-opacity=".1" stroke="grey" href="#Octagon"/><g id="b0199" class="Protein" transform="translate(12,52)"  name="K196-VHL-G97-SUMO1" ><rect   width="100" height="20"/><text   transform="translate(50,10)"    >K196-VHL-G97-SUMO1</text></g><g id="b0e2d" class="Protein" transform="translate(12,32)"  name="K171-VHL-G97-SUMO1" ><rect   width="100" height="20"/><text   transform="translate(50,10)"    >K171-VHL-G97-SUMO1</text></g><g id="e2e9c" class="Protein" transform="translate(12,82)"  name="SUMO1-K159,171,196-VHL" ><rect   width="100" height="40"/><text   transform="translate(50,20)"    >SUMO1-K159,171,196-VHL</text></g><g id="f9fae" class="Protein" transform="translate(12,12)"  name="K159-VHL-G97-SUMO1" ><rect   width="100" height="20"/><text   transform="translate(50,10)"    >K159-VHL-G97-SUMO1</text></g></g></g><g id="cc906" class="GroupComplex" transform="translate(38,322)"  ><g class="GroupComplex"><use class="Icon" width="124" height="64" fill="#b4b464" fill-opacity=".1" stroke="grey" href="#Octagon"/><g id="a8aa6" class="Protein" transform="translate(12,32)"  name="UBE2I-G97-SUMO1" ><rect   width="100" height="20"/><text   transform="translate(50,10)"    >UBE2I-G97-SUMO1</text></g><g id="e9246" class="Protein" transform="translate(12,12)"  name="SUMO1-C93-UBE2I" ><rect   width="100" height="20"/><text   transform="translate(50,10)"    >SUMO1-C93-UBE2I</text></g></g></g><g id="ce0bd" class="GroupComplex" transform="translate(38,402)"  ><g class="GroupComplex"><use class="Icon" width="124" height="64" fill="#b4b464" fill-opacity=".1" stroke="grey" href="#Octagon"/><g id="a4c9e" class="Protein" transform="translate(12,12)"  name="SUMO1-K182-MDM2" ><rect   width="100" height="20"/><text   transform="translate(50,10)"    >SUMO1-K182-MDM2</text></g><g id="e1588" class="Protein" transform="translate(12,32)"  name="MDM-G97-SUMO1" ><rect   width="100" height="20"/><text   transform="translate(50,10)"    >MDM-G97-SUMO1</text></g></g></g><g id="dc54b" class="GroupComplex" transform="translate(178,502)"  ><g class="GroupComplex"><use class="Icon" width="124" height="64" fill="#b4b464" fill-opacity=".1" stroke="grey" href="#Octagon"/><g id="d0e94" class="Protein" transform="translate(12,12)"  name="SUMO1-C93-UBE2I" ><rect   width="100" height="20"/><text   transform="translate(50,10)"    >SUMO1-C93-UBE2I</text></g><g id="e6b13" class="Protein" transform="translate(12,32)"  name="UBE2I-G97-SUMO1" ><rect   width="100" height="20"/><text   transform="translate(50,10)"    >UBE2I-G97-SUMO1</text></g></g></g><g id="e6e38" class="GroupNone" transform="translate(41,485)"  ><g class="GroupNone"><rect   width="118" height="98" fill-opacity=".1" stroke-dasharray="5,3" style="fill:#b4b464;stroke:grey"/><g id="a13ec" class="Protein" transform="translate(9,49)"  name="PML" ><rect   width="100" height="20"/><text   transform="translate(50,10)"    >PML</text></g><g id="c422a" class="Protein" transform="translate(9,9)"  name="PIAS1" ><rect   width="100" height="20"/><text   transform="translate(50,10)"    >PIAS1</text></g><g id="d768c" class="Protein-1" transform="translate(9,29)"  name="PIAS2-1" ><rect   width="100" height="20"/><text   transform="translate(50,10)"    >PIAS2-1</text></g><g id="f1cf2" class="Protein" transform="translate(9,69)"  name="TRIM27" ><rect   width="100" height="20"/><text   transform="translate(50,10)"    >TRIM27</text></g></g></g></g></g></g></svg>