<?xml version="1.0" encoding="UTF-8"?>
<!--
  WikiPathways page: https://www.wikipathways.org/index.php/Pathway:WP4553
  URL for this compressed file: https://github.com/eweitz/cachome/tree/main/data/WP4553.svg
  Source code for compression: https://github.com/eweitz/cachome/tree/main/src/wikipathways.py
-->
<svg id="wp4553-svg" class="Diagram" width="800" height="600" color="black" baseProfile="full" prefix="schema:http://schema.org/" preserveAspectRatio="xMidYMid" version="1.1" viewBox="0 0 905.67 862.44" vocab="http://vocabularies.wikipathways.org/wp#" xmlns="http://www.w3.org/2000/svg" xmlns:xlink="http://www.w3.org/1999/xlink"><style>svg {font-family: 'Liberation Sans', Arial, sans-serif; }</style><defs><g id="jit-defs"><filter id="kaaviodoublefalse3filter" x="-50%" y="-50%" width="200%" height="200%"><feComposite in="SourceGraphic" in2="SourceGraphic" result="doubleDark"/><feMorphology in="doubleDark" operator="dilate" radius="0.16666666666666666" result="in2Double"/><feMorphology in="SourceGraphic" operator="dilate" radius="3" result="inDouble"/><feComposite in="inDouble" in2="in2Double" operator="out" result="doubleResult"/></filter><filter id="kaavioblackto000000filter" x="0" y="0" width="905.67" height="862.44" filterUnits="userSpaceOnUse"><feColorMatrix in="SourceGraphic" values="-1   0   0 0 0                   0  -1   0 0 0                   0   0  -1 0 0                   0   0   0 1 0"/></filter></g><g id="jic-defs"><marker id="markerEndArrow" stroke-dasharray="99999" markerHeight="12" markerUnits="userSpaceOnUse" markerWidth="12" orient="auto" preserveAspectRatio="none" refX="12" refY="6" viewBox="0 0 12 12"><path transform="rotate(180 6 6)" d="M12 11L0 6l12-5z" fill="currentColor" stroke-width="0"/></marker><marker id="markerEndMimInhibition" stroke-dasharray="99999" markerHeight="20" markerUnits="userSpaceOnUse" markerWidth="10" orient="auto" preserveAspectRatio="none" refX="10" refY="10" viewBox="0 0 10 20"><path d="m3 0v20" fill="currentColor" stroke="currentColor"/></marker><marker id="markerEndTBar" stroke-dasharray="99999" markerHeight="20" markerUnits="userSpaceOnUse" markerWidth="10" orient="auto" preserveAspectRatio="none" refX="10" refY="10" viewBox="0 0 10 20"><path d="m3 0v20" fill="currentColor" stroke="currentColor"/></marker><symbol id="Ellipse" overflow="visible" preserveAspectRatio="none" viewBox="0 0 50 50"><ellipse cx="25" cy="25" rx="25" ry="25" stroke="currentColor" vector-effect="non-scaling-stroke"/></symbol><symbol id="Octagon" overflow="visible" preserveAspectRatio="none" viewBox="0 0 100 100"><path d="M0 25L25 0h50l25 25v50l-25 25H25L0 75z" stroke="currentColor" vector-effect="non-scaling-stroke"/></symbol><symbol id="none" preserveAspectRatio="none" viewBox="0 0 100 100"/></g></defs><g id="WP4553" class="Viewport" color="black"  name="Name: FBXL10 enhancement of MAP/ERK signaling in diffuse large B-cell lymphoma Organism: Homo sapiens"><rect id="WP4553-icon" class="Icon" width="905.67" height="862.44" fill="#fff" stroke="#000" stroke-width="0"/><g id="pvjsgeneratedidfeb0c" class="Inhibition" color="#000" ><g color="#000" fill="transparent"  filter="url(#kaavioblackto000000filter)" stroke="#000" stroke-dasharray="5.05, 3.03, 5.05, 3.03, 5.05, 3.03, 5.05, 3.03, 5.05, 3.03, 5.05, 3.03, 5.05, 3.03, 5.05, 3.03, 5.05, 3.03, 5.05, 3.03, 5.05, 3.03, 5.05, 3.03, 5.05, 3.03, 5.05, 3.03, 5.05, 3.03, 5.05, 3.03, 5.05, 3.03, 5.05, 3.03, 5.05, 3.03, 5.05, 3.03, 5.05, 3.03, 5.05, 3.03, 5.05, 3.03, 5.05, 3.03, 5.05, 3.03, 5.05, 3.03, 5.05, 3.03, 5.05, 3.03, 5.05, 3.03, 5.05, 3.03, 5.05, 3.03, 5.05, 3.03, 5.05, 3.03, 5.05, 3.03, 5.05, 3.03, 5.05, 3.03, 5.05, 3.03, 0, 7"><path id="pvjsgeneratedidfeb0c" class="EdgeBody" d="m354 364.5v73.229h229.8"   marker-end="url(#markerEndTBar)" /></g></g><g id="pvjsgeneratedidfeb0d" class="DirectedInteraction" color="#000" ><g color="#000" fill="transparent"  filter="url(#kaavioblackto000000filter)" stroke="#000" stroke-dasharray="161.33744535813796, 5.8"><path id="pvjsgeneratedidfeb0d" class="EdgeBody" d="m640.67 437.73 167.13-1"   marker-end="url(#markerEndArrow)" /></g></g><g id="pvjsgeneratedidfeb0f" class="DirectedInteraction" color="#000" ><g color="#000" fill="transparent"  filter="url(#kaavioblackto000000filter)" stroke="#000" stroke-dasharray="23.2, 5.8"><path id="pvjsgeneratedidfeb0f" class="EdgeBody" d="m570.5 278.5v-29"   marker-end="url(#markerEndArrow)" /></g></g><g id="pvjsgeneratedidfeb10" class="Interaction" color="#000" ><g color="#000" fill="transparent"  filter="url(#kaavioblackto000000filter)" stroke="#000" stroke-dasharray="130.27126608861988, 7"><path id="pvjsgeneratedidfeb10" class="EdgeBody" d="m354 202.23v137.27"   marker-end="url(#markerEndMimInhibition)" /></g></g><g id="pvjsgeneratedidfeb0a" class="Interaction" color="#000" ><g color="#000" fill="transparent"  filter="url(#kaavioblackto000000filter)" stroke="#000" stroke-dasharray="93, 7"><path id="pvjsgeneratedidfeb0a" class="EdgeBody" d="m836.23 424.23 1e-13 -100"   marker-end="url(#markerEndMimInhibition)" /></g></g><g id="pvjsgeneratedidfeb11" class="Interaction" color="#000" ><g color="#000" fill="transparent"  filter="url(#kaavioblackto000000filter)" stroke="#000" stroke-dasharray="20.517076148000058, 7"><path id="pvjsgeneratedidfeb11" class="EdgeBody" d="m160.4 360.23 4.3978e-4 27.517"   marker-end="url(#markerEndMimInhibition)" /></g></g><g id="pvjsgeneratedidfeb0b" class="DirectedInteraction" color="#000" ><g color="#000" fill="transparent"  filter="url(#kaavioblackto000000filter)" stroke="#000" stroke-dasharray="5.48, 3.29, 5.48, 3.29, 5.48, 3.29, 5.48, 3.29, 5.48, 3.29, 5.48, 5.8"><path id="pvjsgeneratedidfeb0b" class="EdgeBody" d="m799.8 291.23h-55.134"   marker-end="url(#markerEndArrow)" /></g></g><g id="pvjsgeneratedidfeb0e" class="DirectedInteraction" color="#000" ><g color="#000" fill="transparent"  filter="url(#kaavioblackto000000filter)" stroke="#000" stroke-dasharray="30.00185113296865, 5.8"><path id="pvjsgeneratedidfeb0e" class="EdgeBody" d="m671.8 291.23-35.801-0.22873"   marker-end="url(#markerEndArrow)" /></g></g><g id="ad3e3" class="SingleFreeNode Shape PhysicalEntity CellularComponent Cell" transform="translate(62.5,82.5)" color="#c0c0c0"  name="Diffuse large B-cell lymphoma"><g fill="transparent"  filter="url(#kaaviodoublefalse3filter)" stroke="#c0c0c0" stroke-width="3"><use id="ad3e3-icon" class="Icon" transform="matrix(.98343 0 0 .975 5.9006 5.85)" width="712" height="468"    xlink:href="#Ellipse"/></g><text id="ad3e3-text" class="Text" transform="translate(356,457.4)" fill="#c0c0c0"  font-size="12px" stroke="black" stroke-width="0" text-anchor="middle"><tspan x="0" y="0">Diffuse large B-cell lymphoma</tspan></text></g><g id="a7c16" class="Label" transform="translate(114,264.5)" color="#000"  name="PRC2 complex"><use id="a7c16-icon" class="Icon" width="94" height="25" fill="transparent"  stroke="#000" stroke-width="0" xlink:href="#none"/><text id="a7c16-text" class="Text" transform="translate(47,16.5)" fill="#000"  font-size="12px" font-weight="bold" stroke="white" stroke-width="0" text-anchor="middle"><tspan x="0" y="0">PRC2 complex</tspan></text></g><g id="b2d90" class="Label" transform="translate(517.5,224.5)" color="#000"  name="Cell proliferation"><use id="b2d90-icon" class="Icon" width="106" height="25" fill="transparent"  stroke="#000" stroke-width="0" xlink:href="#none"/><text id="b2d90-text" class="Text" transform="translate(53,16.5)" fill="#000"  font-size="12px" font-weight="bold" stroke="white" stroke-width="0" text-anchor="middle"><tspan x="0" y="0">Cell proliferation</tspan></text></g><g id="pvjsgeneratedidfeb12" class="GroupNone" transform="translate(48.673 623.5)" color="grey" ><rect id="pvjsgeneratedidfeb12-icon" class="Icon" transform="matrix(.99624 0 0 .99418 .49812 .49709)" width="264.72" height="170.78" fill="#b4b464" fill-opacity=".1" stroke="grey" stroke-dasharray="5,3"/><g id="cd31b" class="Label" transform="translate(83.327 9)" color="#000"  name="Histone H3"><use id="cd31b-icon" class="Icon" width="90" height="25" fill="transparent"  stroke="#000" stroke-width="0" xlink:href="#none"/><text id="cd31b-text" class="Text" transform="translate(45,16.5)" fill="#000"  font-size="12px" font-weight="bold" stroke="white" stroke-width="0" text-anchor="middle"><tspan x="0" y="0">Histone H3</tspan></text></g><a  id="d9ec5" class="GeneProduct H3F3A " transform="translate(194.04 36.779)"   name="H3F3A"  ><rect id="d9ec5-icon" class="Icon" transform="matrix(.98405 0 0 .96154 .49202 .48077)" width="61.68" height="25" fill="#fff" stroke="#000"/><text id="d9ec5-text" class="Text" transform="translate(30.84 16.5)" fill="#000"  font-size="12px" stroke="white" stroke-width="0" text-anchor="middle"><tspan x="0" y="0">H3F3A</tspan></text></a><a  id="c401a" class="GeneProduct H3F3B " transform="translate(194.04 61.779)"   name="H3F3B"  ><rect id="c401a-icon" class="Icon" transform="matrix(.98405 0 0 .96154 .49202 .48077)" width="61.68" height="25" fill="#fff" stroke="#000"/><text id="c401a-text" class="Text" transform="translate(30.84 16.5)" fill="#000"  font-size="12px" stroke="white" stroke-width="0" text-anchor="middle"><tspan x="0" y="0">H3F3B</tspan></text></a><a  id="f2f1e" class="GeneProduct HIST1H3D " transform="translate(9 111.78)"   name="HIST1H3D"  ><rect id="f2f1e-icon" class="Icon" transform="matrix(.98405 0 0 .96154 .49202 .48077)" width="61.68" height="25" fill="#fff" stroke="#000"/><text id="f2f1e-text" class="Text" transform="translate(30.84 16.5)" fill="#000"  font-size="12px" stroke="white" stroke-width="0" text-anchor="middle"><tspan x="0" y="0">HIST1H3D</tspan></text></a><a  id="da064" class="GeneProduct HIST1H3J " transform="translate(70.68 136.78)"   name="HIST1H3J"  ><rect id="da064-icon" class="Icon" transform="matrix(.98405 0 0 .96154 .49202 .48077)" width="61.68" height="25" fill="#fff" stroke="#000"/><text id="da064-text" class="Text" transform="translate(30.84 16.5)" fill="#000"  font-size="12px" stroke="white" stroke-width="0" text-anchor="middle"><tspan x="0" y="0">HIST1H3J</tspan></text></a><a  id="dba20" class="GeneProduct HIST2H3A " transform="translate(132.36 36.779)"   name="HIST2H3A"  ><rect id="dba20-icon" class="Icon" transform="matrix(.98405 0 0 .96154 .49202 .48077)" width="61.68" height="25" fill="#fff" stroke="#000"/><text id="dba20-text" class="Text" transform="translate(30.84 16.5)" fill="#000"  font-size="12px" stroke="white" stroke-width="0" text-anchor="middle"><tspan x="0" y="0">HIST2H3A</tspan></text></a><a  id="feb09" class="GeneProduct HIST2H3C " transform="translate(132.36 61.779)"   name="HIST2H3C"  ><rect id="feb09-icon" class="Icon" transform="matrix(.98405 0 0 .96154 .49202 .48077)" width="61.68" height="25" fill="#fff" stroke="#000"/><text id="feb09-text" class="Text" transform="translate(30.84 16.5)" fill="#000"  font-size="12px" stroke="white" stroke-width="0" text-anchor="middle"><tspan x="0" y="0">HIST2H3C</tspan></text></a><a  id="f54a9" class="GeneProduct HIST2H3D " transform="translate(132.36 86.779)"   name="HIST2H3D"  ><rect id="f54a9-icon" class="Icon" transform="matrix(.98405 0 0 .96154 .49202 .48077)" width="61.68" height="25" fill="#fff" stroke="#000"/><text id="f54a9-text" class="Text" transform="translate(30.84 16.5)" fill="#000"  font-size="12px" stroke="white" stroke-width="0" text-anchor="middle"><tspan x="0" y="0">HIST2H3D</tspan></text></a><a  id="e295c" class="GeneProduct HIST1H3C " transform="translate(9 86.779)"   name="HIST1H3C"  ><rect id="e295c-icon" class="Icon" transform="matrix(.98405 0 0 .96154 .49202 .48077)" width="61.68" height="25" fill="#fff" stroke="#000"/><text id="e295c-text" class="Text" transform="translate(30.84 16.5)" fill="#000"  font-size="12px" stroke="white" stroke-width="0" text-anchor="middle"><tspan x="0" y="0">HIST1H3C</tspan></text></a><a  id="d8080" class="GeneProduct HIST1H3G " transform="translate(70.68 61.779)"   name="HIST1H3G"  ><rect id="d8080-icon" class="Icon" transform="matrix(.98405 0 0 .96154 .49202 .48077)" width="61.68" height="25" fill="#fff" stroke="#000"/><text id="d8080-text" class="Text" transform="translate(30.84 16.5)" fill="#000"  font-size="12px" stroke="white" stroke-width="0" text-anchor="middle"><tspan x="0" y="0">HIST1H3G</tspan></text></a><a  id="c4f34" class="GeneProduct HIST1H3H " transform="translate(70.68 86.779)"   name="HIST1H3H"  ><rect id="c4f34-icon" class="Icon" transform="matrix(.98405 0 0 .96154 .49202 .48077)" width="61.68" height="25" fill="#fff" stroke="#000"/><text id="c4f34-text" class="Text" transform="translate(30.84 16.5)" fill="#000"  font-size="12px" stroke="white" stroke-width="0" text-anchor="middle"><tspan x="0" y="0">HIST1H3H</tspan></text></a><a  id="b022d" class="GeneProduct HIST1H3A " transform="translate(9 36.779)"   name="HIST1H3A"  ><rect id="b022d-icon" class="Icon" transform="matrix(.98405 0 0 .96154 .49202 .48077)" width="61.68" height="25" fill="#fff" stroke="#000"/><text id="b022d-text" class="Text" transform="translate(30.84 16.5)" fill="#000"  font-size="12px" stroke="white" stroke-width="0" text-anchor="middle"><tspan x="0" y="0">HIST1H3A</tspan></text></a><a  id="ed664" class="GeneProduct HIST1H3F " transform="translate(70.68 36.779)"   name="HIST1H3F"  ><rect id="ed664-icon" class="Icon" transform="matrix(.98405 0 0 .96154 .49202 .48077)" width="61.68" height="25" fill="#fff" stroke="#000"/><text id="ed664-text" class="Text" transform="translate(30.84 16.5)" fill="#000"  font-size="12px" stroke="white" stroke-width="0" text-anchor="middle"><tspan x="0" y="0">HIST1H3F</tspan></text></a><a  id="d1522" class="GeneProduct HIST1H3B " transform="translate(9 61.779)"   name="HIST1H3B"  ><rect id="d1522-icon" class="Icon" transform="matrix(.98405 0 0 .96154 .49202 .48077)" width="61.68" height="25" fill="#fff" stroke="#000"/><text id="d1522-text" class="Text" transform="translate(30.84 16.5)" fill="#000"  font-size="12px" stroke="white" stroke-width="0" text-anchor="middle"><tspan x="0" y="0">HIST1H3B</tspan></text></a><a  id="d86b6" class="GeneProduct HIST1H3I " transform="translate(70.68 111.78)"   name="HIST1H3I"  ><rect id="d86b6-icon" class="Icon" transform="matrix(.98405 0 0 .96154 .49202 .48077)" width="61.68" height="25" fill="#fff" stroke="#000"/><text id="d86b6-text" class="Text" transform="translate(30.84 16.5)" fill="#000"  font-size="12px" stroke="white" stroke-width="0" text-anchor="middle"><tspan x="0" y="0">HIST1H3I</tspan></text></a><a  id="f78cd" class="GeneProduct HIST1H3E " transform="translate(9 136.78)"   name="HIST1H3E"  ><rect id="f78cd-icon" class="Icon" transform="matrix(.98405 0 0 .96154 .49202 .48077)" width="61.68" height="25" fill="#fff" stroke="#000"/><text id="f78cd-text" class="Text" transform="translate(30.84 16.5)" fill="#000"  font-size="12px" stroke="white" stroke-width="0" text-anchor="middle"><tspan x="0" y="0">HIST1H3E</tspan></text></a></g><g id="pvjsgeneratedidfeb13" class="GroupNone" transform="translate(349,622.5)" color="grey" ><rect id="pvjsgeneratedidfeb13-icon" class="Icon" transform="matrix(.9931 0 0 .99419 .49655 .49709)" width="144" height="171" fill="#b4b464" fill-opacity=".1" stroke="grey" stroke-dasharray="5,3"/><g id="ed2b3" class="Label" transform="translate(26,9)" color="#000"  name="Histone 2A"><use id="ed2b3-icon" class="Icon" width="94" height="25" fill="transparent"  stroke="#000" stroke-width="0" xlink:href="#none"/><text id="ed2b3-text" class="Text" transform="translate(47,16.5)" fill="#000"  font-size="12px" font-weight="bold" stroke="white" stroke-width="0" text-anchor="middle"><tspan x="0" y="0">Histone 2A</tspan></text></g><a  id="c52b6" class="GeneProduct H2AFB1 " transform="translate(9,37)"   name="H2AFB1"  ><rect id="c52b6-icon" class="Icon" transform="matrix(.98485 0 0 .96154 .49242 .48077)" width="65" height="25" fill="#fff" stroke="#000"/><text id="c52b6-text" class="Text" transform="translate(32.5,16.5)" fill="#000"  font-size="12px" stroke="white" stroke-width="0" text-anchor="middle"><tspan x="0" y="0">H2AFB1</tspan></text></a><a  id="f74e4" class="GeneProduct H2AFB2 " transform="translate(9,62)"   name="H2AFB2"  ><rect id="f74e4-icon" class="Icon" transform="matrix(.98485 0 0 .96154 .49242 .48077)" width="65" height="25" fill="#fff" stroke="#000"/><text id="f74e4-text" class="Text" transform="translate(32.5,16.5)" fill="#000"  font-size="12px" stroke="white" stroke-width="0" text-anchor="middle"><tspan x="0" y="0">H2AFB2</tspan></text></a><a  id="ab563" class="GeneProduct H2AFB3 " transform="translate(9,87)"   name="H2AFB3"  ><rect id="ab563-icon" class="Icon" transform="matrix(.98485 0 0 .96154 .49242 .48077)" width="65" height="25" fill="#fff" stroke="#000"/><text id="ab563-text" class="Text" transform="translate(32.5,16.5)" fill="#000"  font-size="12px" stroke="white" stroke-width="0" text-anchor="middle"><tspan x="0" y="0">H2AFB3</tspan></text></a><a  id="aeea4" class="GeneProduct H2AFJ " transform="translate(9,112)"   name="H2AFJ"  ><rect id="aeea4-icon" class="Icon" transform="matrix(.98485 0 0 .96154 .49242 .48077)" width="65" height="25" fill="#fff" stroke="#000"/><text id="aeea4-text" class="Text" transform="translate(32.5,16.5)" fill="#000"  font-size="12px" stroke="white" stroke-width="0" text-anchor="middle"><tspan x="0" y="0">H2AFJ</tspan></text></a><a  id="af60a" class="GeneProduct H2AFV " transform="translate(9,137)"   name="H2AFV"  ><rect id="af60a-icon" class="Icon" transform="matrix(.98485 0 0 .96154 .49242 .48077)" width="65" height="25" fill="#fff" stroke="#000"/><text id="af60a-text" class="Text" transform="translate(32.5,16.5)" fill="#000"  font-size="12px" stroke="white" stroke-width="0" text-anchor="middle"><tspan x="0" y="0">H2AFV</tspan></text></a><a  id="db070" class="GeneProduct H2AFX " transform="translate(74,37)"   name="H2AFX"  ><rect id="db070-icon" class="Icon" transform="matrix(.98387 0 0 .96154 .49194 .48077)" width="61" height="25" fill="#fff" stroke="#000"/><text id="db070-text" class="Text" transform="translate(30.5,16.5)" fill="#000"  font-size="12px" stroke="white" stroke-width="0" text-anchor="middle"><tspan x="0" y="0">H2AFX</tspan></text></a><a  id="b5e87" class="GeneProduct H2AFY " transform="translate(74,62)"   name="H2AFY"  ><rect id="b5e87-icon" class="Icon" transform="matrix(.98387 0 0 .96154 .49194 .48077)" width="61" height="25" fill="#fff" stroke="#000"/><text id="b5e87-text" class="Text" transform="translate(30.5,16.5)" fill="#000"  font-size="12px" stroke="white" stroke-width="0" text-anchor="middle"><tspan x="0" y="0">H2AFY</tspan></text></a><a  id="dae2b" class="GeneProduct H2AFY2 " transform="translate(74,87)"   name="H2AFY2"  ><rect id="dae2b-icon" class="Icon" transform="matrix(.98387 0 0 .96154 .49194 .48077)" width="61" height="25" fill="#fff" stroke="#000"/><text id="dae2b-text" class="Text" transform="translate(30.5,16.5)" fill="#000"  font-size="12px" stroke="white" stroke-width="0" text-anchor="middle"><tspan x="0" y="0">H2AFY2</tspan></text></a><a  id="e81ae" class="GeneProduct H2AFZ " transform="translate(74,112)"   name="H2AFZ"  ><rect id="e81ae-icon" class="Icon" transform="matrix(.98387 0 0 .96154 .49194 .48077)" width="61" height="25" fill="#fff" stroke="#000"/><text id="e81ae-text" class="Text" transform="translate(30.5,16.5)" fill="#000"  font-size="12px" stroke="white" stroke-width="0" text-anchor="middle"><tspan x="0" y="0">H2AFZ</tspan></text></a></g><g id="bff2b" class="Pathway" transform="translate(505,278.5)" color="#14961e"  name="MAP/ERK Signaling"><use id="bff2b-icon" class="Icon" width="131" height="25" fill="transparent"  stroke="#14961e" stroke-width="0" xlink:href="#none"/><text id="bff2b-text" class="Text" transform="translate(65.5,16.5)" fill="#14961e"  font-size="12px" font-weight="bold" stroke="black" stroke-width="0" text-anchor="middle"><tspan x="0" y="0">MAP/ERK Signaling</tspan></text></g><g id="c1121" class="GeneProduct" transform="translate(321,339.5)" color="#000"  name="H2A"><rect id="c1121-icon" class="Icon" transform="matrix(.98507 0 0 .96154 .49254 .48077)" width="66" height="25" fill="#fff" stroke="#000"/><g id="aedff" class="Burr State" transform="translate(57.5,-7.5)" color="#000"  name="Ub"><use id="aedff-icon" class="Icon" transform="matrix(.94444 0 0 .94444 .47222 .47222)" width="17" height="17" fill="#fff" stroke="#000" xlink:href="#Ellipse"/><text id="aedff-text" class="Text" transform="translate(8.5,11.5)" fill="#000"  font-size="10px" stroke="white" stroke-width="0" text-anchor="middle"><tspan x="0" y="0">Ub</tspan></text></g><text id="c1121-text" class="Text" transform="translate(33,16.5)" fill="#000"  font-size="12px" stroke="white" stroke-width="0" text-anchor="middle"><tspan x="0" y="0">H2A</tspan></text></g><g id="d5da7" class="GeneProduct" transform="translate(134.73 387.75)" color="#000"  name="H3"><rect id="d5da7-icon" class="Icon" transform="matrix(.98089 0 0 .96154 .49045 .48077)" width="51.335" height="25" fill="#fff" stroke="#000"/><g id="f9725" class="Burr State" transform="translate(42.835 -6)" color="#000"  name="Me"><use id="f9725-icon" class="Icon" transform="matrix(.94444 0 0 .94444 .47222 .47222)" width="17" height="17" fill="#fff" stroke="#000" xlink:href="#Ellipse"/><text id="f9725-text" class="Text" transform="translate(8.5,11.5)" fill="#000"  font-size="10px" stroke="white" stroke-width="0" text-anchor="middle"><tspan x="0" y="0">Me</tspan></text></g><text id="d5da7-text" class="Text" transform="translate(25.668 16.5)" fill="#000"  font-size="12px" stroke="white" stroke-width="0" text-anchor="middle"><tspan x="0" y="0">H3</tspan></text></g><g id="aaf07" class="GroupGroup" transform="translate(799.8 258.23)" color="grey" ><use id="aaf07-icon" class="Icon" width="72.86554621848745" height="66" fill="transparent"  stroke="grey" stroke-dasharray="5,3" stroke-width="0" xlink:href="#none"/><a  id="f18bc" class="GeneProduct MAPK1 " transform="translate(8,8)"   name="MAPK1"  ><rect id="f18bc-icon" class="Icon" transform="matrix(.98272 0 0 .96154 .49136 .48077)" width="56.866" height="25" fill="#fff" stroke="#000"/><text id="f18bc-text" class="Text" transform="translate(28.433 16.5)" fill="#000"  font-size="12px" stroke="white" stroke-width="0" text-anchor="middle"><tspan x="0" y="0">MAPK1</tspan></text></a><a  id="a404d" class="GeneProduct MAPK3 " transform="translate(8 33)"   name="MAPK3"  ><rect id="a404d-icon" class="Icon" transform="matrix(.98272 0 0 .96154 .49136 .48077)" width="56.866" height="25" fill="#fff" stroke="#000"/><text id="a404d-text" class="Text" transform="translate(28.433 16.5)" fill="#000"  font-size="12px" stroke="white" stroke-width="0" text-anchor="middle"><tspan x="0" y="0">MAPK3</tspan></text></a></g><a  id="dbd9e" class="GeneProduct DUSP6 " transform="translate(807.8 424.23)"   name="DUSP6"  ><rect id="dbd9e-icon" class="Icon" transform="matrix(.98272 0 0 .96154 .49136 .48077)" width="56.866" height="25" fill="#fff" stroke="#000"/><text id="dbd9e-text" class="Text" transform="translate(28.433 16.5)" fill="#000"  font-size="12px" stroke="white" stroke-width="0" text-anchor="middle"><tspan x="0" y="0">DUSP6</tspan></text></a><g id="e3a99" class="GroupGroup" transform="translate(671.8 258.23)" color="grey" ><use id="e3a99-icon" class="Icon" width="72.86554621848745" height="66" fill="transparent"  stroke="grey" stroke-dasharray="5,3" stroke-width="0" xlink:href="#none"/><a  id="e0f58" class="GeneProduct MAPK1 " transform="translate(8,8)"   name="MAPK1"  ><rect id="e0f58-icon" class="Icon" transform="matrix(.98272 0 0 .96154 .49136 .48077)" width="56.866" height="25" fill="#fff" stroke="#000"/><text id="e0f58-text" class="Text" transform="translate(28.433 16.5)" fill="#000"  font-size="12px" stroke="white" stroke-width="0" text-anchor="middle"><tspan x="0" y="0">MAPK1</tspan></text></a><a  id="e347e" class="GeneProduct MAPK3 " transform="translate(8 33)"   name="MAPK3"  ><rect id="e347e-icon" class="Icon" transform="matrix(.98272 0 0 .96154 .49136 .48077)" width="56.866" height="25" fill="#fff" stroke="#000"/><text id="e347e-text" class="Text" transform="translate(28.433 16.5)" fill="#000"  font-size="12px" stroke="white" stroke-width="0" text-anchor="middle"><tspan x="0" y="0">MAPK3</tspan></text></a></g><g id="d4559" class="GroupComplex" transform="translate(95.801 286.23)" color="grey"  name="PRC2"><use id="d4559-icon" class="Icon" transform="matrix(.99232 0 0 .98667 .49616 .49333)" width="129.19887955182077" height="74" fill="#b4b464" fill-opacity=".1" stroke="grey" xlink:href="#Octagon"/><a  id="b0940" class="GeneProduct EED " transform="translate(12,12)"   name="EED"  ><rect id="b0940-icon" class="Icon" transform="matrix(.98272 0 0 .96154 .49136 .48077)" width="56.866" height="25" fill="#fff" stroke="#000"/><text id="b0940-text" class="Text" transform="translate(28.433 16.5)" fill="#000"  font-size="12px" stroke="white" stroke-width="0" text-anchor="middle"><tspan x="0" y="0">EED</tspan></text></a><a  id="a7bd9" class="GeneProduct EZH2 " transform="translate(21,37)"   name="EZH2"  ><rect id="a7bd9-icon" class="Icon" transform="matrix(.98272 0 0 .96154 .49136 .48077)" width="56.866" height="25" fill="#fff" stroke="#000"/><text id="a7bd9-text" class="Text" transform="translate(28.433 16.5)" fill="#000"  font-size="12px" stroke="white" stroke-width="0" text-anchor="middle"><tspan x="0" y="0">EZH2</tspan></text></a><a  id="d33f9" class="GeneProduct SUZ12 " transform="translate(69 25)"   name="SUZ12"  ><rect id="d33f9-icon" class="Icon" transform="matrix(.97967 0 0 .96154 .48984 .48077)" width="48.199" height="25" fill="#fff" stroke="#000"/><text id="d33f9-text" class="Text" transform="translate(24.099 16.5)" fill="#000"  font-size="12px" stroke="white" stroke-width="0" text-anchor="middle"><tspan x="0" y="0">SUZ12</tspan></text></a><text id="d4559-text" class="Text" transform="translate(64.599 37)" fill="grey"  font-size="1px" font-weight="bold" stroke="black" stroke-width="0" text-anchor="middle"><tspan x="0" y="0">PRC2</tspan></text></g><g id="f21d6" class="GroupComplex" transform="translate(317.9 165.23)" color="grey" ><use id="f21d6-icon" class="Icon" transform="matrix(.99355 0 0 .99115 .49678 .49558)" width="154.09943977591035" height="112" fill="#b4b464" fill-opacity=".1" stroke="grey" xlink:href="#Octagon"/><a  id="b9808" class="GeneProduct PCGF1 " transform="translate(60.901 25)"   name="PCGF1"  ><rect id="b9808-icon" class="Icon" transform="matrix(.97967 0 0 .96154 .48984 .48077)" width="48.199" height="25" fill="#fff" stroke="#000"/><text id="b9808-text" class="Text" transform="translate(24.099 16.5)" fill="#000"  font-size="12px" stroke="white" stroke-width="0" text-anchor="middle"><tspan x="0" y="0">PCGF1</tspan></text></a><a  id="e4aba" class="GeneProduct BCOR " transform="translate(93.901 50)"   name="BCOR"  ><rect id="e4aba-icon" class="Icon" transform="matrix(.97967 0 0 .96154 .48984 .48077)" width="48.199" height="25" fill="#fff" stroke="#000"/><text id="e4aba-text" class="Text" transform="translate(24.099 16.5)" fill="#000"  font-size="12px" stroke="white" stroke-width="0" text-anchor="middle"><tspan x="0" y="0">BCOR</tspan></text></a><a  id="b5841" class="GeneProduct KDM2B " transform="translate(45.901 50.136)"   name="FBXL10"  ><rect id="b5841-icon" class="Icon" transform="matrix(.97967 0 0 .96154 .48984 .48077)" width="48.199" height="25" fill="#fff" stroke="#000"/><text id="b5841-text" class="Text" transform="translate(24.099 16.5)" fill="#000"  font-size="12px" stroke="white" stroke-width="0" text-anchor="middle"><tspan x="0" y="0">FBXL10</tspan></text></a><a  id="eada6" class="GeneProduct BCL6 " transform="translate(93.901 75)"   name="BCL6"  ><rect id="eada6-icon" class="Icon" transform="matrix(.97967 0 0 .96154 .48984 .48077)" width="48.199" height="25" fill="#fff" stroke="#000"/><text id="eada6-text" class="Text" transform="translate(24.099 16.5)" fill="#000"  font-size="12px" stroke="white" stroke-width="0" text-anchor="middle"><tspan x="0" y="0">BCL6</tspan></text></a><a  id="a3bad" class="GeneProduct RNF2 " transform="translate(12,12)"   name="RNF2"  ><rect id="a3bad-icon" class="Icon" transform="matrix(.97967 0 0 .96154 .48984 .48077)" width="48.199" height="25" fill="#fff" stroke="#000"/><text id="a3bad-text" class="Text" transform="translate(24.099 16.5)" fill="#000"  font-size="12px" stroke="white" stroke-width="0" text-anchor="middle"><tspan x="0" y="0">RNF2</tspan></text></a></g><a  id="d79b1" class="GeneProduct DUSP6 " transform="translate(583.8 425.23)"   name="DUSP6"  ><rect id="d79b1-icon" class="Icon" transform="matrix(.98272 0 0 .96154 .49136 .48077)" width="56.866" height="25" fill="#fff" stroke="#000"/><text id="d79b1-text" class="Text" transform="translate(28.433 16.5)" fill="#000"  font-size="12px" stroke="white" stroke-width="0" text-anchor="middle"><tspan x="0" y="0">DUSP6</tspan></text></a><g id="f4748" class="Label" transform="translate(348,138.5)" color="#000"  name="Non-canonical  PRC1 complex"><use id="f4748-icon" class="Icon" width="99" height="25" fill="transparent"  stroke="#000" stroke-width="0" xlink:href="#none"/><text id="f4748-text" class="Text" transform="translate(49.5,16.5)" fill="#000"  font-size="12px" font-weight="bold" stroke="white" stroke-width="0" text-anchor="middle"><tspan x="0" y="-6.6000000000000005">Non-canonical </tspan> <tspan x="0" y="6.6000000000000005">PRC1 complex</tspan></text></g><g id="f6dc2" class="Inhibition" color="#000" ><g color="#000" fill="transparent"  filter="url(#kaavioblackto000000filter)" stroke="#000" stroke-dasharray="5.05, 3.03, 5.05, 3.03, 5.05, 3.03, 5.05, 3.03, 5.05, 3.03, 5.05, 3.03, 5.05, 3.03, 5.05, 3.03, 5.05, 3.03, 5.05, 3.03, 5.05, 3.03, 5.05, 3.03, 5.05, 3.03, 5.05, 3.03, 5.05, 3.03, 5.05, 3.03, 5.05, 3.03, 5.05, 3.03, 5.05, 3.03, 5.05, 3.03, 5.05, 3.03, 5.05, 3.03, 5.05, 3.03, 5.05, 3.03, 5.05, 3.03, 5.05, 3.03, 5.05, 3.03, 5.05, 3.03, 5.05, 3.03, 5.05, 3.03, 5.05, 3.03, 5.05, 3.03, 5.05, 3.03, 5.05, 3.03, 5.05, 3.03, 5.05, 3.03, 5.05, 3.03, 5.05, 3.03, 5.05, 3.03, 5.05, 3.03, 5.05, 3.03, 5.05, 3.03, 5.05, 3.03, 5.05, 3.03, 5.05, 3.03, 5.05, 3.03, 5.05, 3.03, 5.05, 3.03, 5.05, 3.03, 5.05, 3.03, 5.05, 3.03, 5.05, 3.03, 5.05, 3.03, 5.05, 3.03, 5.05, 3.03, 0, 7"><path id="f6dc2" class="EdgeBody" d="m160.4 412.75v24.983h423.4"   marker-end="url(#markerEndTBar)" /></g></g><text id="WP4553-text" class="Text" transform="translate(5,27)" dominant-baseline="central" fill="black"  font-size="12px" font-weight="bold" overflow="visible" stroke="white" stroke-width="0"><tspan x="0" y="-9">Name: FBXL10 enhancement of MAP/ERK signaling in diffuse large B-cell lymphoma</tspan> <tspan x="0" y="9">Organism: Homo sapiens</tspan></text></g></svg>
