<?xml version="1.0" encoding="UTF-8"?>
<svg xmlns="http://www.w3.org/2000/svg" id="-svg" class="Diagram"  baseProfile="full" prefix="schema:http://schema.org/" preserveAspectRatio="xMidYMid"  version="1.1"><defs><g id="icon-defs"><symbol id="Ellipse" class=" Icon Ellipse" x="0" y="0" overflow="visible" preserveAspectRatio="none" viewBox="0 0 50 50"><desc>Ellipse</desc><ellipse cx="25" cy="25" rx="25" ry="25" vector-effect="non-scaling-stroke"/></symbol></g><g id="marker-defs"><marker id="markerstartmimconversion000" markerHeight="12" markerWidth="12" orient="auto" preserveAspectRatio="none" refY="6" viewBox="0 0 12 12"><g id="g-markerstartmimconversion000" transform="rotate(180 6 6)"><g transform="rotate(180 6 6)"><rect y="5.4" width="2" height="1.2" style="stroke:#fff"/><polygon points="12 11 0 6 12 1" stroke-width="0"/></g></g></marker><marker id="memmodification000" markerHeight="12" markerWidth="12" orient="auto" preserveAspectRatio="none" refX="12" refY="6" viewBox="0 0 12 12"><g id="g-memmodification000" transform=""><g transform="rotate(180 6 6)"><rect y="5.4" width="2" height="1.2" style="stroke:#fff"/><polygon points="0 6 11 11 11 1" stroke-width="0"/></g></g></marker><marker id="memcatalysis000" markerHeight="12" markerWidth="12" orient="auto" preserveAspectRatio="none" refX="12" refY="6" viewBox="0 0 12 12"><g id="g-memcatalysis000" transform=""><g transform="rotate(180 6 6)"><circle cx="6" cy="6" r="5.3px" fill="#fff" stroke="#000"/></g></g></marker><marker id="memconversion000" markerHeight="12" markerWidth="12" orient="auto" preserveAspectRatio="none" refX="12" refY="6" viewBox="0 0 12 12"><g id="g-memconversion000" transform=""><g transform="rotate(180 6 6)"><rect y="5.4" width="2" height="1.2" style="stroke:#fff"/><polygon points="12 11 0 6 12 1" stroke-width="0"/></g></g></marker></g></defs><g id="viewport-20220102144225192" class="svg-pan-zoom_viewport" transform="matrix(1.16 0 0 1.16 32.04 5.68e-14)" style="transform:matrix(1.16, 0, 0, 1.16, 32.04, 5.68e-14)"><style>svg.Diagram {font-family: 'Liberation Sans', Arial, sans-serif; }.Diagram path {fill: transparent;stroke: #000;marker-end: url(#mea);}.Diagram symbol path {fill: inherit;stroke: inherit;stroke-width: inherit;marker-end: inherit;}.Diagram rect {fill: #fff;stroke: #000;}.Diagram text {dominant-baseline: central;overflow: hidden;text-anchor: middle;fill: #000;font-size: 10px;}</style><style type="text/css">.Viewport .textContent {
  pointer-events: none;
  stroke-width: 0px;
}

					.Viewport.Icon {
  fill: white;
}

/* Hide the InfoBox */
.Viewport.textContent {
  font-size: 0;
}

.textContent {
  stroke: none;
}

.DataNode {
  stroke-miterlimit: 1;
  pointer-events: auto;
}

.DataNode:hover {
  cursor: pointer;
}

/* TODO should this apply to things other than DataNodes? */
.DataNode.textContent {
  pointer-events: none;
}

.DataNode.Highlighted {
  opacity: 0.6;
  stroke-width: 0px;
}

marker {
  /* this is what should work per the spec
  stroke-dasharray: none; */
  /* but I need to add this to make it work in Safari */
  stroke-dasharray: 9999999999999999999999999;
}

.Citation.Icon {
  fill: none;
  stroke-width: 0px;
}

.Citation.textContent {
  text-align: center;
  vertical-align: top;
  font-size: 7px;
  fill: #999;
  fill-opacity: 1;
  stroke: none;
}</style><g id="WP4661" class="Pathway http___identifiers_org_pw_PW_0001267 Viewport"  name="Name: Amino acid metabolism pathway excerpt: histidine catabolism extension Organism: Homo sapiens" ><g class="Pathway http___identifiers_org_pw_PW_0001267 Viewport"><rect   width="979.33" height="615.57" style="stroke:none"/><g id="id25a0d83f" class="Edge"  ><path    d="m681.55 425.77-135.4 37.90" style="marker-end:url(#memmodification000)"/></g><g id="iddf3437a3" class="Edge"  ><path    d="m721.3 425.77 115.3 36.77" style="marker-end:url(#memmodification000)"/></g><g id="id59bafb8" class="Edge"  ><path    d="m702.43 565.57-0.97-40.57" style="marker-end:url(#memcatalysis000)"/></g><g id="idb93fd5c3" class="Edge"  ><path    d="m546.14 491 0.55 34" style="marker-end:url(#memcatalysis000)"/></g><g id="d2478" class="" transform="translate(661.67 398.43)"  name="rs7487781" ><g class=""><use class=" Node Icon" width="79.5" height="27.33" fill="transparent" stroke="#ff3333" href="#Ellipse"/></g><g ><defs><clipPath ><rect x="-39.75" y="-13.67" width="79.5" height="27.33" style="stroke:none"/></clipPath></defs><text   transform="translate(39.75 13.67)"     style="fill:#ff3333;font-size:12px">rs7487781</text></g></g><g id="ef527" class="Edge"  ><path    d="m371.97 428.2 45.18-1.61" style="marker-end:url(#memconversion000)"/></g><g id="c8239" class="Edge"  ><path    d="m419.98 328.11 46.69-0.64" style="marker-end:url(#memconversion000)"/></g><g id="b8916" class="Edge"  ><path    d="m449.25 267.07-118.92 247.93" marker-start="url(#markerstartmimconversion000)" style="marker-end:url(#memconversion000)"/><g id="c299b" class="AB" transform="translate(371.97 428.2)"  ><g class="AB"/></g><g id="f2ee5" class="AB" transform="translate(419.98 328.11)"  ><g class="AB"/></g><g id="c4655" class="AB" transform="translate(389.99 390.63)"  ><g class="AB"/></g></g><g id="a3851" class="Edge"  ><path    d="m812.33 525h57" marker-start="url(#markerstartmimconversion000)" stroke-dasharray="5,3" style="marker-end:url(#memconversion000)"/><g id="d846b" class="AB" transform="translate(837.55 525)"  ><g class="AB"/></g></g><g id="bfa52" class="Edge"  ><path    d="m358.17 417.6-43.37-1.30" style="marker-end:url(#memconversion000)"/></g><g id="a4cfa" class="Edge"  ><path    d="m312.17 515 117.09-247.93" marker-start="url(#markerstartmimconversion000)" style="marker-end:url(#memconversion000)"/><g id="a0e5e" class="AB" transform="translate(358.17 417.6)"  ><g class="AB"/></g><g id="b5e8b" class="AB" transform="translate(379.88 371.62)"  ><g class="AB"/></g></g><g id="b5cbe" class="Edge"  ><path    d="m201.67 101-31.21 20.71-18.79 22.29" style="marker-end:none"/><g id="pvjsgeneratedidfcbeb" class="AB" transform="translate(174.57 115.66)"  ><g class="AB"><rect   width="4" height="4" style="stroke:none"/></g></g></g><g id="ac94c" class="Edge"  ><path    d="m150.57 295.59 12.37 17.33 25.16 22.24" style="marker-end:none"/><g id="pvjsgeneratedidfcbec" class="AB" transform="translate(164.7 314.24)"  ><g class="AB"><rect   width="4" height="4" style="stroke:none"/></g></g></g><g id="c03f3" class="Edge"  ><path    d="m836.59 493 0.96 32" style="marker-end:url(#memcatalysis000)"/></g><g id="ce1d2" class="Edge"  ><path    d="m353.67 319 36.66-20.62 18.93-31.31" style="marker-end:none"/><g id="pvjsgeneratedidfcbed" class="AB" transform="translate(379.09 301.58)"  ><g class="AB"><rect   width="4" height="4" style="stroke:none"/></g></g></g><g id="eb56f" class="Edge"  ><path    d="m348.34 372.34 31.54-0.72" style="marker-end:url(#memcatalysis000)"/></g><g id="f7ccc" class="Edge"  ><path    d="m423.83 389.72-33.84 0.91" style="marker-end:url(#memcatalysis000)"/></g><g id="c5ffb" class="Edge"  ><path    d="m409.99 564.43 1.33-39.43" style="marker-end:url(#memcatalysis000)"/></g><g id="d18d0" class="Edge"  ><path    d="m409.25 247.07-2.32-27.19-8.85-39.12" style="marker-end:none"/><g id="pvjsgeneratedidfcbee" class="AB" transform="translate(403.28 210.58)"  ><g class="AB"><rect   width="4" height="4" style="stroke:none"/></g></g></g><g id="bc15f" class="Edge"  ><path    d="m110.67 231.67 3.08 26.61 16.83 17.32" style="marker-end:none"/><g id="pvjsgeneratedidfcbef" class="AB" transform="translate(111.01 249.91)"  ><g class="AB"><rect   width="4" height="4" style="stroke:none"/></g></g></g><g id="c317f" class="Edge"  ><path    d="m228.11 345.17 42.69 1.89 42.87-8.06" style="marker-end:none"/><g id="pvjsgeneratedidfcbf0" class="AB" transform="translate(260.61 344.69)"  ><g class="AB"><rect   width="4" height="4" style="stroke:none"/></g></g></g><g id="c8dbf" class="Edge"  ><path    d="m336.67 104 44.53 29.49 16.89 27.26" style="marker-end:none"/><g id="pvjsgeneratedidfcbf1" class="AB" transform="translate(363.17 120.88)"  ><g class="AB"><rect   width="4" height="4" style="stroke:none"/></g></g></g><g id="a4269" class="Edge"  ><path    d="m221.67 91 38.67-5.07 36.33 8.07" style="marker-end:none"/><g id="pvjsgeneratedidfcbf2" class="AB" transform="translate(249.89 85.04)"  ><g class="AB"><rect   width="4" height="4" style="stroke:none"/></g></g></g><g id="f2590" class="Edge"  ><path    d="m131.67 164-15.74 23.16-5.26 24.51" style="marker-end:none"/></g><g id="ea181" class="Label" transform="translate(217.33 201)"  name="TCA cycle" ><g class="Label"/><text   transform="translate(40.67 9)"    font-style="italic" font-weight="bold"  style="font-size:12px">TCA cycle</text></g><g id="d5a3f" class="Label" transform="translate(112.67 516.33)"  name="glutamate metabolism" ><g class="Label"/><text   transform="translate(85.67 9)"    font-style="italic" font-weight="bold"  style="font-size:12px">glutamate metabolism</text></g><g id="d40ac" class="Metabolite " transform="translate(148.11 335.17)"  name="Aconitate" ><rect   width="80" height="20" style="stroke:#00f"/><text   transform="translate(40,10)"     style="fill:#00f">Aconitate</text></g><g id="e468e" class="GeneProduct " transform="translate(288.34 362.34)"  name="GLUD1" ><rect   width="60" height="20"/><text   transform="translate(30,10)"    >GLUD1</text></g><g id="c3712" class="Metabolite " transform="translate(234.79 406.29)"  name="Oxaloacetate" ><rect   width="80" height="20" style="stroke:#00f"/><text   transform="translate(40,10)"     style="fill:#00f">Oxaloacetate</text></g><g id="d4804" class="GeneProduct " transform="translate(806.59 462.53)"  name="HAL" ><rect   width="60" height="30.47"/><text   transform="translate(30 15.23)"    >HAL</text></g><g id="e2c11" class="Metabolite " transform="translate(293.67 319)"  name="isocitrate" ><rect   width="80" height="20" style="stroke:#00f"/><text   transform="translate(40,10)"     style="fill:#00f">isocitrate</text></g><g id="fcbea" class="Metabolite " transform="translate(110.57 275.59)"  name="Citrate" ><rect   width="80" height="20" style="stroke:#00f"/><text   transform="translate(40,10)"     style="fill:#00f">Citrate</text></g><g id="a4099" class="Metabolite " transform="translate(869.33 515)"  name="Histidine" ><rect   width="80" height="20" style="stroke:#00f"/><text   transform="translate(40,10)"     style="fill:#00f">Histidine</text></g><g id="dcf4f" class="Metabolite " transform="translate(417.14 416.58)"  name="Pyruvate" ><rect   width="80" height="20" style="stroke:#00f"/><text   transform="translate(40,10)"     style="fill:#00f">Pyruvate</text></g><g id="d3922" class="Metabolite " transform="translate(466.67 316.26)"  name="Alanine" ><rect   width="62.83" height="22.40" style="stroke:#00f"/><text   transform="translate(31.42 11.20)"     style="fill:#00f">Alanine</text></g><g id="c9d9e" class="GeneProduct " transform="translate(423.83 379.72)"  name="GPT2" ><rect   width="60" height="20"/><text   transform="translate(30,10)"    >GPT2</text></g><g id="a4975" class="Metabolite " transform="translate(70.67 211.67)"  name="Oxaloacetate" ><rect   width="80" height="20" style="stroke:#00f"/><text   transform="translate(40,10)"     style="fill:#00f">Oxaloacetate</text></g><g id="a5c85" class="Metabolite " transform="translate(358.08 160.75)"  name="Succinyl-CoA" ><rect   width="80" height="20" style="stroke:#00f"/><text   transform="translate(40,10)"     style="fill:#00f">Succinyl-CoA</text></g><g id="af14a" class="GeneProduct " transform="translate(379.99 564.43)"  name="FTCD" ><rect   width="60" height="20"/><text   transform="translate(30,10)"    >FTCD</text></g><g id="d49f0" class="Metabolite " transform="translate(296.67 84)"  name="Succinate" ><rect   width="80" height="20" style="stroke:#00f"/><text   transform="translate(40,10)"     style="fill:#00f">Succinate</text></g><g id="f40dc" class="Metabolite " transform="translate(141.67 81)"  name="Fumarate" ><rect   width="80" height="20" style="stroke:#00f"/><text   transform="translate(40,10)"     style="fill:#00f">Fumarate</text></g><g id="dab10" class="Metabolite " transform="translate(294 515)"  name="Glutamate" ><rect   width="72.67" height="20" style="stroke:#00f"/><text   transform="translate(36.33 10)"     style="fill:#00f">Glutamate</text></g><g id="e5dc1" class="Metabolite " transform="translate(111.67 144)"  name="Malate" ><rect   width="80" height="20" style="stroke:#00f"/><text   transform="translate(40,10)"     style="fill:#00f">Malate</text></g><g id="cc058" class="Metabolite " transform="translate(389.25 247.07)"  name="2-oxo-glutarate" ><rect   width="80" height="20" style="stroke:#00f"/><text   transform="translate(40,10)"     style="fill:#00f">2-oxo-glutarate</text></g><g id="de8d0" class="GeneProduct" transform="translate(662.43 565.57)"  name="UROC1" ><rect   width="80" height="20"/><text   transform="translate(40,10)"     style="font-size:12px">UROC1</text></g><g id="d1463" class="GeneProduct" transform="translate(506.14 463.67)"  name="AMDHD1" ><rect   width="80" height="27.33"/><text   transform="translate(40 13.67)"     style="font-size:12px">AMDHD1</text></g><g id="ebe3c" class="Metabolite " transform="translate(732.33 515)"  name="UCA" ><rect   width="80" height="20" style="stroke:#00f"/><text   transform="translate(40,10)"     style="fill:#00f">UCA</text></g><g id="f5f0d" class="Edge"  ><path    d="m663 525h69.33" marker-start="url(#markerstartmimconversion000)" stroke-dasharray="5,3" style="marker-end:url(#memconversion000)"/><g id="a8a87" class="AB" transform="translate(701.45 525)"  ><g class="AB"/></g></g><g id="b7308" class="Metabolite " transform="translate(573.33 515)"  name="4I-5PROA" ><rect   width="89.67" height="20" style="stroke:#00f"/><text   transform="translate(44.83 10)"     style="fill:#00f">4I-5PROA</text></g><g id="e3caf" class="Metabolite " transform="translate(440.33 515)"  name="NF-Glu" ><rect   width="80" height="20" style="stroke:#00f"/><text   transform="translate(40,10)"     style="fill:#00f">NF-Glu</text></g><g id="ebdd3" class="Edge"  ><path    d="m573.33 525h-53" marker-start="url(#markerstartmimconversion000)" stroke-dasharray="5,3" style="marker-end:url(#memconversion000)"/><g id="cc383" class="AB" transform="translate(546.7 525)"  ><g class="AB"/></g></g><g id="d120f" class="Edge"  ><path    d="m366.67 525h73.67" marker-start="url(#markerstartmimconversion000)" stroke-dasharray="5,3" style="marker-end:url(#memconversion000)"/><g id="d8126" class="AB" transform="translate(411.32 525)"  ><g class="AB"/></g></g></g></g></g></svg>