<?xml version="1.0" encoding="UTF-8"?>
<svg xmlns="http://www.w3.org/2000/svg" id="-svg" class="Diagram"  baseProfile="full" prefix="schema:http://schema.org/" preserveAspectRatio="xMidYMid"  version="1.1"><defs><g id="icon-defs"/><g id="marker-defs"><marker id="markerstartarrow000" markerHeight="12" markerWidth="12" orient="auto" preserveAspectRatio="none" refY="6" viewBox="0 0 12 12"><g id="g-markerstartarrow000" transform="rotate(180 6 6)"><g transform="rotate(180 6 6)"><rect y="5.4" width="2" height="1.2" style="stroke:#fff"/><polygon points="12 11 0 6 12 1" stroke-width="0"/></g></g></marker><marker id="memcatalysis000" markerHeight="12" markerWidth="12" orient="auto" preserveAspectRatio="none" refX="12" refY="6" viewBox="0 0 12 12"><g id="g-memcatalysis000" transform=""><g transform="rotate(180 6 6)"><circle cx="6" cy="6" r="5.3px" fill="#fff" stroke="#000"/></g></g></marker><marker id="mea" markerHeight="12" markerWidth="12" orient="auto" preserveAspectRatio="none" refX="12" refY="6" viewBox="0 0 12 12"><g id="g-mea" transform=""><g transform="rotate(180 6 6)"><rect y="5.4" width="2" height="1.2" style="stroke:#fff"/><polygon points="12 11 0 6 12 1" stroke-width="0"/></g></g></marker><marker id="memconversion000" markerHeight="12" markerWidth="12" orient="auto" preserveAspectRatio="none" refX="12" refY="6" viewBox="0 0 12 12"><g id="g-memconversion000" transform=""><g transform="rotate(180 6 6)"><rect y="5.4" width="2" height="1.2" style="stroke:#fff"/><polygon points="12 11 0 6 12 1" stroke-width="0"/></g></g></marker><marker id="memstimulation000" markerHeight="12" markerWidth="12" orient="auto" preserveAspectRatio="none" refX="12" refY="6" viewBox="0 0 12 12"><g id="g-memstimulation000" transform=""><g transform="rotate(180 6 6)"><rect y="5.4" width="2" height="1.2" style="stroke:none"/><line x1="12" x2="12" y1="6" y2="6" fill="none"/><polygon points="0 6 11 11 11 1" fill="#fff" stroke="#000"/></g></g></marker></g></defs><g id="viewport-20220102144241317" class="svg-pan-zoom_viewport" transform="matrix(0.78 0 0 0.78 149.3 0)" style="transform:matrix(0.78, 0, 0, 0.78, 149.30, 0)"><style>svg.Diagram {font-family: 'Liberation Sans', Arial, sans-serif; }.Diagram path {fill: transparent;stroke: #000;marker-end: url(#mea);}.Diagram symbol path {fill: inherit;stroke: inherit;stroke-width: inherit;marker-end: inherit;}.Diagram rect {fill: #fff;stroke: #000;}.Diagram text {dominant-baseline: central;overflow: hidden;text-anchor: middle;fill: #000;font-size: 12px;}</style><style type="text/css">.Viewport .textContent {
  pointer-events: none;
  stroke-width: 0px;
}

					.Viewport.Icon {
  fill: white;
}

/* Hide the InfoBox */
.Viewport.textContent {
  font-size: 0;
}

.textContent {
  stroke: none;
}

.DataNode {
  stroke-miterlimit: 1;
  pointer-events: auto;
}

.DataNode:hover {
  cursor: pointer;
}

/* TODO should this apply to things other than DataNodes? */
.DataNode.textContent {
  pointer-events: none;
}

.DataNode.Highlighted {
  opacity: 0.6;
  stroke-width: 0px;
}

marker {
  /* this is what should work per the spec
  stroke-dasharray: none; */
  /* but I need to add this to make it work in Safari */
  stroke-dasharray: 9999999999999999999999999;
}

.Citation.Icon {
  fill: none;
  stroke-width: 0px;
}

.Citation.textContent {
  text-align: center;
  vertical-align: top;
  font-size: 7px;
  fill: #999;
  fill-opacity: 1;
  stroke: none;
}</style><g id="WP4688" class="Pathway http___identifiers_org_pw_PW_0001084 Viewport"  name="Name: Serine metabolism Organism: Homo sapiens" ><g class="Pathway http___identifiers_org_pw_PW_0001084 Viewport"><rect   width="1156.7" height="916.19" style="stroke:none"/><g id="id14d9d510" class="Rhea_10981"  ><path    d="m610.01 580.44 241.27-0.27" style="marker-end:url(#memconversion000)"/><g id="f5f38" class="AB" transform="translate(758 580.28)"  ><g class="AB"/></g></g><g id="id22d8d37b" class="Rhea_14331"  ><path    d="m561.12 244.94v100" style="marker-end:url(#memconversion000)"/><g id="ecfbd" class="AB" transform="translate(561.12 284.94)"  ><g class="AB"/></g></g><g id="e5ce0" class="Edge"  ><path    d="m561.12 284.94-69.86 24.86" stroke-dasharray="5,3"/></g><g id="id27325dce" class="Edge"  ><path    d="m507.46 63.94v156" style="marker-end:url(#memconversion000)"/><g id="bb65a" class="AB" transform="translate(507.46 170.71)"  ><g class="AB"/></g></g><g id="e2f11" class="Edge"  ><path    d="m456.04 176.97 51.42-6.27" marker-start="url(#markerstartarrow000)" stroke-dasharray="5,3" style="marker-end:none"/></g><g id="id2c0a3d6e" class="Rhea_15483"  ><path    d="m514.01 580.44-264.28-0.27" style="marker-end:url(#memconversion000)"/><g id="a100a" class="AB" transform="translate(351 580.28)"  ><g class="AB"/></g></g><g id="id3a624d16" class="Rhea_15483"  ><path    d="m470.23 626.94-119.23-46.66" style="marker-end:url(#memconversion000)"/></g><g id="id3dd7e102" class="Edge"  ><path    d="m668.42 51.44 43.81-1.4e-14" stroke-dasharray="5,3" style="marker-end:none"/></g><g id="id3de9d993" class="Rhea_15011"  ><path    d="m484.73 727.94v-76" style="marker-end:url(#memconversion000)"/><g id="c2c96" class="AB" transform="translate(484.73 697.54)"  ><g class="AB"/></g></g><g id="id44d72574" class="Rhea_14331"  ><path    d="m706.73 268.44-145.61 16.5" style="marker-end:url(#memconversion000)"/></g><g id="id4acd55cd" class="Edge"  ><path    d="m375.98 390.44h76.75" style="marker-end:url(#memstimulation000)"/></g><g id="id5450df7d" class="Edge"  ><path    d="m530.12 697.44-45.38 0.1" style="marker-end:url(#memcatalysis000)"/></g><g id="id5fdf0f2d" class="Rhea_12105"  ><path    d="m249.73 816.59h202" style="marker-end:url(#memconversion000)"/><g id="dae8c" class="AB" transform="translate(351 816.59)"  ><g class="AB"/></g></g><g id="id141b83f4" class="Edge"  ><path    d="m350.48 861.19 0.53-44.6" style="marker-end:url(#memcatalysis000)"/></g><g id="id67ddf5b5" class="Edge"  ><path    d="m372.48 265.44h81.25" style="marker-end:url(#memstimulation000)"/></g><g id="id961f8aa" class="Edge"  ><path    d="m396.48 550.94-45.48 29.34" style="marker-end:url(#memcatalysis000)"/></g><g id="ida1208bbb" class="Edge"  ><path    d="m515.73 265.44 45.38 19.5" style="marker-end:url(#memcatalysis000)"/></g><g id="idb1467976" class="Rhea_14331"  ><path    d="m561.12 284.94 145.61 31.5" style="marker-end:url(#memconversion000)"/></g><g id="idb2212a31" class="Edge"  ><path    d="m395.48 51.44h58.34" stroke-dasharray="5,3" style="marker-end:none"/></g><g id="idba12b200" class="Rhea_12105"  ><path    d="m351 816.59 119.48-63.65" style="marker-end:url(#memconversion000)"/></g><g id="idbd0d925a" class="Edge"  ><path    d="m556.24 140.17-48.77 30.54" style="marker-end:url(#memcatalysis000)"/></g><g id="idc945aee8" class="Edge"  ><path    d="m249.73 51.44h55.74" stroke-dasharray="5,3" style="marker-end:none"/></g><g id="idcd02feeb" class="Edge"  ><path    d="m313.48 550.94 37.52 29.34" style="marker-end:url(#memcatalysis000)"/></g><g id="idd33c7ab3" class="Rhea_12105"  ><path    d="m225.23 716.94 125.77 99.65" style="marker-end:url(#memconversion000)"/></g><g id="ide47028d" class="Edge"  ><path    d="m757.23 557.94 0.77 22.34" style="marker-end:url(#memcatalysis000)"/></g><g id="ide610e820" class="Edge"  ><path    d="m802.23 51.44 80.5 1.4e-14" stroke-dasharray="5,3" style="marker-end:none"/></g><g id="idf5e79830" class="Rhea_15483"  ><path    d="m351 580.28-125.77 111.67" style="marker-end:url(#memconversion000)"/></g><g id="ec62a" class="Edge"  ><path    d="m561.3 408.96-66.35 29.44" stroke-dasharray="5,3"/></g><g id="id51d174b5" class="Edge"  ><path    d="m516.73 390.44 44.57 18.52" style="marker-end:url(#memcatalysis000)"/></g><g id="id70198a06" class="Rhea_21209"  ><path    d="m561.3 408.96 145.43 23.48" style="marker-end:url(#memconversion000)"/></g><g id="idcb5033aa" class="Rhea_21209"  ><path    d="m706.73 385.44-145.43 23.52" style="marker-end:url(#memconversion000)"/></g><g id="id60590c85" class="Edge"  ><path    d="m706.73 143.44-91.92 26.76" style="marker-end:url(#memconversion000)"/></g><g id="id1c910ae" class="Edge"  ><path    d="m610.01 580.44 233.27 206.16" style="marker-end:url(#memconversion000)"/></g><g id="idfb8b94d0" class="Edge"  ><path    d="m614.82 170.21 83.92 29.74" style="marker-end:url(#memconversion000)"/></g><g id="de312" class="" transform="translate(510.09 557.6)"  ><g class=""><rect   width="106.05" height="45.15" style="fill:#f33;stroke:#f33"/></g></g><g id="b15d1" class="Label" transform="translate(146.13 170.72)"  name="3-Phosphoglycerate dehydrogenase deficiency" ><rect   width="309.91" height="25" rx="15" ry="15" style="fill:#fcc;stroke:#03c"/><text   transform="translate(154.96 12.5)"     style="fill:#0033cc">3-Phosphoglycerate dehydrogenase deficiency</text></g><g id="a1d48" class="Metabolite " transform="translate(851.28 567.68)"  name="D-serine" ><rect   width="126.9" height="25" style="stroke:#00f"/><text   transform="translate(63.45 12.5)"     style="fill:#00f">D-serine</text></g><g id="a38c4" class="Metabolite " transform="translate(505.62 344.94)"  name="3-Phosphoserine" ><rect   width="111" height="25" style="stroke:#00f"/><text   transform="translate(55.5,12.5)"     style="fill:#00f">3-Phosphoserine</text></g><g id="a4368" class="Protein" transform="translate(519.74 115.17)"  name="PHGDH" ><rect   width="73" height="25"/><text   transform="translate(36.5,12.5)"    >PHGDH</text></g><g id="b4bc0" class="Metabolite " transform="translate(324.98 377.94)"  name="Mg2+" ><rect   width="51" height="25" style="stroke:#00f"/><text   transform="translate(25.5,12.5)"     style="fill:#00f">Mg2+</text></g><g id="b5a33" class="Metabolite " transform="translate(706.73 130.94)"  name="NAD+" ><rect   width="101" height="25" style="stroke:#00f"/><text   transform="translate(50.5,12.5)"     style="fill:#00f">NAD+</text></g><g id="ba119" class="Metabolite " transform="translate(531.26 82.95)"  name="(2R)-3-phosphoglycerate" ><rect   width="167.22" height="25" rx="15" ry="15" style="stroke:#00f"/><text   transform="translate(83.61 12.5)"     style="fill:#00f">(2R)-3-phosphoglycerate</text></g><g id="c0cc4" class="Protein" transform="translate(313.35 861.19)"  name="TYMS" ><rect   width="74.25" height="25"/><text   transform="translate(37.12,12.5)"    >TYMS</text></g><g id="c5ff3" class="Protein" transform="translate(281.48 525.94)"  name="SHMT1" ><rect   width="64" height="25"/><text   transform="translate(32,12.5)"    >SHMT1</text></g><g id="c6705" class="Metabolite " transform="translate(328.48 252.94)"  name="PLP" ><rect   width="44" height="25" style="stroke:#00f"/><text   transform="translate(22,12.5)"     style="fill:#00f">PLP</text></g><g id="cbf29" class="Protein" transform="translate(735.73 532.94)"  name="SR" ><rect   width="43" height="25"/><text   transform="translate(21.5,12.5)"    >SR</text></g><g id="cc5ef" class="Metabolite " transform="translate(151.73 567.68)"  name="Glycine" ><rect   width="98" height="25" style="stroke:#00f"/><text   transform="translate(49,12.5)"     style="fill:#00f">Glycine</text></g><g id="d1e10" class="Protein" transform="translate(453.73 254.19)"  name="PSAT1" ><rect   width="62" height="22.5"/><text   transform="translate(31,11.25)"    >PSAT1</text></g><g id="d20bb" class="Metabolite " transform="translate(151.73 691.94)"  name="Methylene-THF" ><rect   width="98" height="25" style="stroke:#00f"/><text   transform="translate(49,12.5)"     style="fill:#00f">Methylene-THF</text></g><g id="e0710" class="Metabolite " transform="translate(882.73 38.94)"  name="pyruvate" ><rect   width="90" height="25" style="stroke:#00f"/><text   transform="translate(45,12.5)"     style="fill:#00f">pyruvate</text></g><g id="e1c8c" class="Metabolite " transform="translate(151.73 38.94)"  name="glucose" ><rect   width="98" height="25" style="stroke:#00f"/><text   transform="translate(49,12.5)"     style="fill:#00f">glucose</text></g><g id="e2f2f" class="Pathway" transform="translate(305.48 38.94)"  name="glycolysis" ><g class="Pathway"><rect   width="90" height="25" rx="15" ry="15" style="stroke:#14961e"/></g><g ><defs><clipPath ><rect x="-45" y="-12.5" width="90" height="25" style="stroke:none"/></clipPath></defs><text   transform="translate(45,12.5)"    font-weight="bold"  style="fill:#14961e">glycolysis</text></g></g><g id="eefd7" class="Protein" transform="translate(364.48 525.94)"  name="SHMT2" ><rect   width="64" height="25"/><text   transform="translate(32,12.5)"    >SHMT2</text></g><g id="f0f1e" class="Metabolite " transform="translate(453.81 38.94)"  name="D-Glyceraldehyde 3-phosphate" ><rect   width="214.61" height="25" style="stroke:#00f"/><text   transform="translate(107.31 12.5)"     style="fill:#00f">D-Glyceraldehyde 3-phosphate</text></g><g id="f321e" class="Protein" transform="translate(530.12 684.94)"  name="DHFR" ><rect   width="62" height="25"/><text   transform="translate(31,12.5)"    >DHFR</text></g><g id="ffcac" class="Protein" transform="translate(452.73 377.94)"  name="PSPH" ><rect   width="64" height="25"/><text   transform="translate(32,12.5)"    >PSPH</text></g><g id="d5410" class="GroupGroup" transform="translate(843.28 763.85)"  ><g class="GroupGroup"><g id="c0566" class="Metabolite " transform="translate(8,8)"  name="Phosphatidylserine" ><rect   width="126.9" height="25" style="stroke:#00f"/><text   transform="translate(63.45 12.5)"     style="fill:#00f">Phosphatidylserine</text></g><g id="d1e71" class="Metabolite " transform="translate(8 33)"  name="sphingolipids" ><rect   width="126.9" height="25" style="stroke:#00f"/><text   transform="translate(63.45 12.5)"     style="fill:#00f">sphingolipids</text></g><g id="ca9fa" class="Metabolite " transform="translate(8 58)"  name="ceramides" ><rect   width="126.9" height="25" style="stroke:#00f"/><text   transform="translate(63.45 12.5)"     style="fill:#00f">ceramides</text></g></g></g><g id="eba20" class="GroupGroup" transform="translate(698.73 166.94)"  ><g class="GroupGroup"><g id="e60f0" class="Metabolite " transform="translate(8,33)"  name="H+" ><rect   width="101" height="25" style="stroke:#00f"/><text   transform="translate(50.5,12.5)"     style="fill:#00f">H+</text></g><g id="e163b" class="Metabolite " transform="translate(8,8)"  name="NADH" ><rect   width="101" height="25" style="stroke:#00f"/><text   transform="translate(50.5,12.5)"     style="fill:#00f">NADH</text></g></g></g><g id="af1d1" class="Metabolite " transform="translate(453.81 219.94)"  name="3-Phosphohydroxypyruvate" ><rect   width="214.61" height="25" style="stroke:#00f"/><text   transform="translate(107.31 12.5)"     style="fill:#00f">3-Phosphohydroxypyruvate</text></g><g id="e3ab4" class="Metabolite " transform="translate(514.01 564.44)"  name="L-serine" ><rect   width="96" height="32" stroke-width="2" style="fill:transparent"/><text   transform="translate(48,16)"     style="font-size:14px">L-serine</text></g><g id="cb63e" class="Metabolite " transform="translate(706.73 255.94)"  name="glutamate" ><rect   width="101" height="25" style="stroke:#00f"/><text   transform="translate(50.5,12.5)"     style="fill:#00f">glutamate</text></g><g id="d9dfb" class="Metabolite " transform="translate(706.73 303.94)"  name="2-Ketoglutarate" ><rect   width="101" height="25" style="stroke:#00f"/><text   transform="translate(50.5,12.5)"     style="fill:#00f">2-Ketoglutarate</text></g><g id="d3415" class="Metabolite " transform="translate(706.73 372.94)"  name="H2O" ><rect   width="101" height="25" style="stroke:#00f"/><text   transform="translate(50.5,12.5)"     style="fill:#00f">H2O</text></g><g id="faa35" class="Metabolite " transform="translate(706.73 419.94)"  name="Pi" ><rect   width="101" height="25" style="stroke:#00f"/><text   transform="translate(50.5,12.5)"     style="fill:#00f">Pi</text></g><g id="beaba" class="Metabolite " transform="translate(451.73 804.09)"  name="dTMP" ><rect   width="66" height="25" style="stroke:#00f"/><text   transform="translate(33,12.5)"     style="fill:#00f">dTMP</text></g><g id="da4fa" class="Metabolite " transform="translate(151.73 804.09)"  name="dUMP" ><rect   width="98" height="25" style="stroke:#00f"/><text   transform="translate(49,12.5)"     style="fill:#00f">dUMP</text></g><g id="a92cb" class="Metabolite " transform="translate(456.23 727.94)"  name="DHF" ><rect   width="57" height="25" style="stroke:#00f"/><text   transform="translate(28.5,12.5)"     style="fill:#00f">DHF</text></g><g id="bcf5c" class="Metabolite " transform="translate(455.73 626.94)"  name="THF" ><rect   width="58" height="25" style="stroke:#00f"/><text   transform="translate(29,12.5)"     style="fill:#00f">THF</text></g><g id="c6b43" class="Pathway" transform="translate(712.23 38.94)"  name="glycolysis" ><g class="Pathway"><rect   width="90" height="25" rx="15" ry="15" style="stroke:#14961e"/></g><g ><defs><clipPath ><rect x="-45" y="-12.5" width="90" height="25" style="stroke:none"/></clipPath></defs><text   transform="translate(45,12.5)"    font-weight="bold"  style="fill:#14961e">glycolysis</text></g></g><g id="idfd1c93ba" class="Rhea_21209"  ><path    d="m561.12 369.94 0.90 194.5" style="marker-end:url(#memconversion000)"/><g id="c1d28" class="AB" transform="translate(561.3 408.96)"  ><g class="AB"/></g></g><g id="e70bc" class="Label" transform="translate(206 425.9)"  name="Phosphoserine phosphatase deficiency" ><rect   width="288.95" height="25" rx="15" ry="15" style="fill:#fcc;stroke:#03c"/><text   transform="translate(144.48 12.5)"     style="fill:#0033cc">Phosphoserine phosphatase deficiency</text></g><g id="f2361" class="Label" transform="translate(209.69 297.3)"  name="Phosphoserube aminotransferase deficiency" ><rect   width="281.57" height="25" rx="15" ry="15" style="fill:#fcc;stroke:#03c"/><text   transform="translate(140.79 12.5)"     style="fill:#0033cc">Phosphoserube aminotransferase deficiency</text></g><g id="ba363" class="Edge"  ><path    d="m921.15 316.96h74" style="marker-end:url(#memconversion000)"/></g><g id="b8599" class="Edge"  ><path    d="m922.5 429.96h74" stroke-dasharray="5,3"/></g><g id="d44be" class="Edge"  ><path    d="m922.67 389.96h74" style="marker-end:url(#memcatalysis000)"/></g><g id="fbec2" class="Edge"  ><path    d="m920.65 353.96h75" style="marker-end:url(#memstimulation000)"/></g><g id="b032a" class=" PhysicalEntity CellularComponent Extracellular_region" transform="translate(901.17 152.96)"  ><g class=" PhysicalEntity CellularComponent Extracellular_region"><rect   width="224.5" height="295" rx="15" ry="15" stroke-dasharray="5,3" style="fill:transparent;stroke:#c0c0c0"/></g></g><g id="e6af6" class="Label" transform="translate(914.87 180.46)"  name="Disease" ><rect   width="90" height="25" rx="15" ry="15" style="fill:#fcc;stroke:#03c"/><text   transform="translate(45,12.5)"     style="fill:#0033cc">Disease</text></g><g id="fa8b5" class="Label" transform="translate(1036.7 377.46)"  name="Catalysis" ><g class="Label"/><text   transform="translate(45,12.5)"    >Catalysis</text></g><g id="fe2bd" class="Label" transform="translate(914.87 274.46)"  name="Pathway" ><rect   width="90" height="25" rx="15" ry="15" style="stroke:#093"/><text   transform="translate(45,12.5)"    font-weight="bold"  style="fill:#009933">Pathway</text></g><g id="ce446" class="Label" transform="translate(1036.7 341.46)"  name="Stimulation" ><g class="Label"/><text   transform="translate(45,12.5)"    >Stimulation</text></g><g id="b22a9" class="Label" transform="translate(914.87 240.46)"  name="Protein" ><rect   width="90" height="25"/><text   transform="translate(45,12.5)"    >Protein</text></g><g id="fe1fe" class="Label" transform="translate(914.87 209.46)"  name="Metabolite" ><rect   width="90" height="25" rx="15" ry="15" style="stroke:#00f"/><text   transform="translate(45,12.5)"     style="fill:#00f">Metabolite</text></g><g id="f534e" class="Label" transform="translate(1036.7 304.46)"  name="Conversion" ><g class="Label"/><text   transform="translate(45,12.5)"    >Conversion</text></g><g id="a6550" class="Label" transform="translate(1036.7 417.46)"  name="Connection  to disease" ><g class="Label"/><text   transform="translate(45,12.5)"    ><tspan   x="0" y="-6.60">Connection </tspan><tspan   x="0" y="6.60">to disease</tspan></text></g><g id="f570b" class="Label" transform="translate(967.67 154.46)"  name="Legend" ><g class="Label"/><text   transform="translate(45,12.5)"    >Legend</text></g><g id="c437d" class="Rhea_12642"  ><path    d="m614.87 107.95-0.11 111.99" style="marker-end:url(#memconversion000)"/><g id="b1f1a" class="AB" transform="translate(614.82 165.58)"  ><g class="AB"/></g><g id="fb68c" class="AB" transform="translate(614.82 170.21)"  ><g class="AB"/></g></g><g id="c9112" class="Edge"  ><path    d="m556.24 140.17 58.58 30.04" style="marker-end:url(#memcatalysis000)"/></g><g id="ca7ec" class="Edge"  ><path    d="m456.04 189.47 158.77-19.27" marker-start="url(#markerstartarrow000)" stroke-dasharray="5,3" style="marker-end:none"/></g></g></g></g></svg>