<?xml version="1.0" encoding="UTF-8"?>
<svg xmlns="http://www.w3.org/2000/svg" id="-svg" class="Diagram"  baseProfile="full" prefix="schema:http://schema.org/" preserveAspectRatio="xMidYMid"  version="1.1"><defs><g id="filter-defs"><filter id="doublefalse3filter" x="-50%" y="-50%" width="200%" height="200%"><feComposite in="SourceGraphic" in2="SourceGraphic" result="doubleDark"/><feMorphology in="doubleDark" operator="dilate" radius="0.17" result="in2Double"/><feMorphology in="SourceGraphic" operator="dilate" radius="3" result="inDouble"/><feComposite in="inDouble" in2="in2Double" operator="out" result="doubleResult"/></filter></g><g id="icon-defs"><symbol id="Ellipse" class=" Icon Ellipse" x="0" y="0" overflow="visible" preserveAspectRatio="none" viewBox="0 0 50 50"><desc>Ellipse</desc><ellipse cx="25" cy="25" rx="25" ry="25" vector-effect="non-scaling-stroke"/></symbol><symbol id="EndoplasmicReticulum" class=" Icon EndoplasmicReticulum" x="0" y="0" overflow="visible" preserveAspectRatio="none" viewBox="0 0 100 100"><desc>EndoplasmicReticulum</desc><path d="m73.53 56.61c-5.62-18.61 23.52-32.43 23.40-45.07-0.34-4.86-10.49-8.90-18.29-5.33-17.04 7.88-15.65 29.30-21.20 42.23-0.36 3.61-7.36 2.47-7.75-0.49-5.85-11.39 17.14-24.49 5.96-29.43-19.64-8.17-28.75 21.15-22.07 28.82 7.50 14.18-2.18 24.41-6.75 15.50-2.44-5.31 6.07-11.08-0.80-16.18-4.32-2.80-11.76-0.65-16.16 3.09-12.89 10.74 4.73 40.98 20.96 36.15 4.70-1.96-3.24-8.70 3.91-9.60 7.30-0.81 5.18 6.19 7.69 9.23 2.31 4.05 4.83 8.36 10.76 11.62 4.79 2.54 15.29 2.11 16.77-1.96 2.03-9.26-26.11-28.36-10.69-31.28 18.55-2.71 4.75 23.85 24.31 29.69 9.50 2.03 15.64-0.62 14.81-4.03-2.75-11.26-25.14-22.68-24.96-33.15" vector-effect="non-scaling-stroke"/></symbol><symbol id="Mitochondria" class=" Icon Mitochondria" x="0" y="0" overflow="visible" preserveAspectRatio="none" viewBox="0 0 100 100"><desc>Mitochondria</desc><ellipse cx="50" cy="50" rx="50" ry="50"/><path d="m14.89 26.35c4.36-0.74 3.83 17.04 8.18 16.18 8.27 0.03 2.98-28.15 9.90-28.34 6.97-0.19 2.25 29.95 9.21 29.44 7.63-0.56 0.51-32.94 8.14-33.62 7.70-0.69 2.92 32.04 10.63 32.23 6.55 0.16 3.03-27.64 9.56-26.92 7.19 0.79 0.66 29.84 7.78 31.67 4.75 1.22 4.42-18.26 9.20-17.44 11.13 7.58 8.63 37.70-2.18 44.65-3.14 0.70-3.97-10.50-7.11-9.91-5.59 1.06-3.98 22.28-9.60 21.80-5.24-0.46-2.23-21.64-7.47-21.73-6.96-0.12-3.36 28.92-10.32 28.50-6.14-0.38-1.73-24.95-7.83-26.19-5.68-1.16-5.38 22.17-11.03 20.68-6.25-1.64-0.47-26.67-6.76-27.87-3.73-0.71-2.65 14.40-6.40 14.54-14.02-5.94-15.75-39.71-3.9-47.67z" vector-effect="non-scaling-stroke"/></symbol><symbol id="Octagon" class=" Icon Octagon" x="0" y="0" overflow="visible" preserveAspectRatio="none" viewBox="0 0 100 100"><desc>Octagon</desc><path d="m0 25 25-25h50l25 25v50l-25 25h-50l-25-25z" vector-effect="non-scaling-stroke"/></symbol></g><g id="marker-defs"><marker id="markerstartarrow000" markerHeight="12" markerWidth="12" orient="auto" preserveAspectRatio="none" refY="6" viewBox="0 0 12 12"><g id="g-markerstartarrow000" transform="rotate(180 6 6)"><g transform="rotate(180 6 6)"><rect y="5.4" width="2" height="1.2" style="stroke:#fff"/><polygon points="12 11 0 6 12 1" stroke-width="0"/></g></g></marker><marker id="mea" markerHeight="12" markerWidth="12" orient="auto" preserveAspectRatio="none" refX="12" refY="6" viewBox="0 0 12 12"><g id="g-mea" transform=""><g transform="rotate(180 6 6)"><rect y="5.4" width="2" height="1.2" style="stroke:#fff"/><polygon points="12 11 0 6 12 1" stroke-width="0"/></g></g></marker><marker id="meminhibition000" markerHeight="20" markerWidth="10" orient="auto" preserveAspectRatio="none" refX="10" refY="10" viewBox="0 0 10 20"><g id="g-meminhibition000" transform=""><g transform="rotate(180 5 10)"><rect y="9" width="8" height="2" style="stroke:none"/><line x="0" y="0" width="12" height="12" x1="7" x2="7" y2="20" stroke="#000" stroke-width="1.8"/></g></g></marker><marker id="memconversion000" markerHeight="12" markerWidth="12" orient="auto" preserveAspectRatio="none" refX="12" refY="6" viewBox="0 0 12 12"><g id="g-memconversion000" transform=""><g transform="rotate(180 6 6)"><rect y="5.4" width="2" height="1.2" style="stroke:#fff"/><polygon points="12 11 0 6 12 1" stroke-width="0"/></g></g></marker><marker id="memcatalysis000" markerHeight="12" markerWidth="12" orient="auto" preserveAspectRatio="none" refX="12" refY="6" viewBox="0 0 12 12"><g id="g-memcatalysis000" transform=""><g transform="rotate(180 6 6)"><circle cx="6" cy="6" r="5.3px" fill="#fff" stroke="#000"/></g></g></marker><marker id="memtranscriptiontranslation000" markerHeight="24" markerWidth="20" orient="auto" preserveAspectRatio="none" refX="20" refY="12" viewBox="0 0 20 24"><g id="g-memtranscriptiontranslation000" transform=""><g transform="rotate(180 10 12)"><rect y="11" width="12" height="2" style="stroke:#fff"/><line x1="15" x2="15" y1="12" y2="5" fill="none" stroke="#000"/><line x1="15.5" x2="8" y1="5" y2="5" fill="none" stroke="#000"/><polygon points="0 5 8 1 8 9" fill="#fff" stroke="#000"/></g></g></marker><marker id="membinding000" markerHeight="12" markerWidth="12" orient="auto" preserveAspectRatio="none" refX="12" refY="6" viewBox="0 0 12 12"><g id="g-membinding000" transform=""><g transform="rotate(180 6 6)"><rect y="5.4" width="2" height="1.2" style="stroke:#fff"/><polygon points="12 12 0 6 12 0 5 6" stroke-width="0"/></g></g></marker></g></defs><g id="viewport-20220102144205540" class="svg-pan-zoom_viewport" transform="matrix(0.52 0 0 0.52 183.15 0)" style="transform:matrix(0.52, 0, 0, 0.52, 183.15, 0)"><style>svg.Diagram {font-family: 'Liberation Sans', Arial, sans-serif; }.Diagram path {fill: transparent;stroke: #000;marker-end: url(#mea);}.Diagram symbol path {fill: inherit;stroke: inherit;stroke-width: inherit;marker-end: inherit;}.Diagram rect {fill: #fff;stroke: #000;}.Diagram text {dominant-baseline: central;overflow: hidden;text-anchor: middle;fill: #000;font-size: 12px;}</style><style type="text/css">.Viewport .textContent {
  pointer-events: none;
  stroke-width: 0px;
}

					.Viewport.Icon {
  fill: white;
}

/* Hide the InfoBox */
.Viewport.textContent {
  font-size: 0;
}

.textContent {
  stroke: none;
}

.DataNode {
  stroke-miterlimit: 1;
  pointer-events: auto;
}

.DataNode:hover {
  cursor: pointer;
}

/* TODO should this apply to things other than DataNodes? */
.DataNode.textContent {
  pointer-events: none;
}

.DataNode.Highlighted {
  opacity: 0.6;
  stroke-width: 0px;
}

marker {
  /* this is what should work per the spec
  stroke-dasharray: none; */
  /* but I need to add this to make it work in Safari */
  stroke-dasharray: 9999999999999999999999999;
}

.Citation.Icon {
  fill: none;
  stroke-width: 0px;
}

.Citation.textContent {
  text-align: center;
  vertical-align: top;
  font-size: 7px;
  fill: #999;
  fill-opacity: 1;
  stroke: none;
}</style><g id="WP4655" class="Pathway http___identifiers_org_pw_PW_0000925 http___identifiers_org_pw_PW_0000003 Viewport"  name="Name: Cytosolic DNA-sensing pathway Organism: Homo sapiens" ><g class="Pathway http___identifiers_org_pw_PW_0000925 http___identifiers_org_pw_PW_0000003 Viewport"><rect   width="1602" height="1372" style="stroke:none"/><g id="id10383f37" class="Edge"  ><path    d="m999.96 260.56v20h135.37v60.66"/><g id="a0332" class="AB" transform="translate(1135.3 302.56)"  ><g class="AB"/></g></g><g id="id12b5f7db" class="Edge"  ><path    d="m569.83 253.83v180.33"/><g id="e5d23" class="AB" transform="translate(569.83 372)"  ><g class="AB"/></g><g id="b72c9" class="AB" transform="translate(569.83 293.33)"  ><g class="AB"/></g></g><g id="id2266a34d" class="Edge"  ><path    d="m919.05 432.89 74.22 81.28"/></g><g id="id6ddb6c62" class="Edge"  ><path    d="m999.96 260.56v20h-81.63v46.96"/></g><g id="id73b2698" class="Edge"  ><path    d="m1038.3 572.34v-14.34h-44.97v-18.83" style="marker-end:url(#meminhibition000)"/></g><g id="id9e17b2ca" class="Edge"  ><path    d="m501 293.33 68.83-7e-14" style="marker-end:url(#meminhibition000)"/></g><g id="idd7182fa7" class="Edge"  ><path    d="m963.28 526.67-106.89 0.45"/></g><g id="id48e3950c" class="Edge"  ><path    d="m220.43 619.24 1.54 84.76" stroke-dasharray="5,3"/></g><g id="id84fc7f0b" class="Edge"  ><path    d="m568.29 124.9 1.54 103.94" stroke-dasharray="5,3"/></g><g id="id19564d1e" class="Edge"  ><path    d="m599 446.67 196.23 67.95"/></g><g id="idd163b956" class="Edge"  ><path    d="m569.83 459.17-185.16 165.67" style="marker-end:none"/></g><g id="id30bb5b12" class="Edge"  ><path    d="m569.83 459.17 139.76 141.22" style="marker-end:none"/></g><g id="idb4261e7f" class="Edge"  ><path    d="m795.23 514.62-85.64 85.78" style="marker-end:none"/></g><g id="id8b6e92e2" class="Edge"  ><path    d="m1342.6 302.27-207.26 0.29" style="marker-end:url(#memcatalysis000)"/></g><g id="id41310b1a" class="Edge"  ><path    d="m384.68 690.83-0.26 46"/></g><g id="id8406211c" class="Edge"  ><path    d="m221.07 474.21-0.64 45.21" style="marker-end:url(#memconversion000)"/></g><g id="idf200a30c" class="Edge"  ><path    d="m538.67 241.33h-317.6v108.88" style="marker-end:url(#memconversion000)"/></g><g id="id6ab48856" class="Edge"  ><path    d="m998.42 118.44 1.54 117.12" stroke-dasharray="5,3"/></g><g id="id6d8d74b8" class="Edge"  ><path    d="m429.24 1020.7-0.67 81.19"/></g><g id="idb1c1fa2c" class="Edge"  ><path    d="m384.42 835.83 1.61 55.13" style="marker-end:url(#memcatalysis000)"/></g><g id="aeeb7" class=" PhysicalEntity CellularComponent Nucleus" transform="translate(238.5,1036.5)"  name="Nucleus" ><g class=" PhysicalEntity CellularComponent Nucleus" filter="url(#doublefalse3filter)"><g class=" PhysicalEntity CellularComponent Nucleus"><rect   transform="matrix(0.99 0 0 0.96 5.92 5.75)" width="895" height="277" rx="15" ry="15" stroke-width="3" style="fill:transparent;stroke:#c0c0c0"/></g></g><g ><defs><clipPath ><rect x="-447.5" y="-262.4" width="895" height="277" style="stroke:none"/></clipPath></defs><text   transform="translate(447.5,262.4)"     style="fill:#c0c0c0">Nucleus</text></g></g><g id="bab6e" class=" PhysicalEntity CellularComponent Cell" transform="translate(26.5,138.5)"  ><g class=" PhysicalEntity CellularComponent Cell" filter="url(#doublefalse3filter)"><g class=" PhysicalEntity CellularComponent Cell"><rect   transform="matrix(0.99 0 0 0.99 5.95 5.94)" width="1547" height="1205" rx="15" ry="15" stroke-width="3" style="fill:transparent;stroke:#c0c0c0"/></g></g></g><g id="c3325" class="Pathway" transform="translate(176.97 704)"  name="Pyroptosis" ><g class="Pathway"/><g ><defs><clipPath ><rect x="-45" y="-12.5" width="90" height="25" style="stroke:none"/></clipPath></defs><text   transform="translate(45,12.5)"    font-weight="bold"  style="fill:#14961e">Pyroptosis</text></g></g><g id="a51af" class="Label" transform="translate(443,434.5)"  name="Oligomerization" ><g class="Label"/><text   transform="translate(47.5,12.5)"    font-weight="bold" >Oligomerization</text></g><g id="b1dc5" class="Label" transform="translate(43.56 549.64)"  name="Proinflammatory cytokine processing" ><g class="Label"/><text   transform="translate(65.50 12.5)"    font-weight="bold" ><tspan   x="0" y="-6.60">Proinflammatory</tspan><tspan   x="0" y="6.60">cytokine processing</tspan></text></g><g id="b644e" class="GroupGroup" transform="translate(490.35 3.47)"  ><g class="GroupGroup"><g id="fe460" class="Label" transform="translate(32.95 8)"  name="Vaccinia virus" ><g class="Label"/><text   transform="translate(45,12.5)"    font-weight="bold" >Vaccinia virus</text></g><g id="e6582" class="Label" transform="translate(8 20.20)"  name="Listeria monocytogenes" ><g class="Label"/><text   transform="translate(69.95 14.48)"    font-weight="bold" >Listeria monocytogenes</text></g><g id="b568a" class="Label" transform="translate(8 36.82)"  name="Legionella pneumophila" ><g class="Label"/><text   transform="translate(69.95 14.48)"    font-weight="bold" >Legionella pneumophila</text></g><g id="b9477" class="Label" transform="translate(8 53.44)"  name="Shigella Flexneri" ><g class="Label"/><text   transform="translate(69.95 14.48)"    font-weight="bold" >Shigella Flexneri</text></g><g id="dcadc" class="Label" transform="translate(8 70.05)"  name="Enteropathic E.coli" ><g class="Label"/><text   transform="translate(69.95 14.48)"    font-weight="bold" >Enteropathic E.coli</text></g><g id="aa5c6" class="Label" transform="translate(8 84.46)"  name="Host cells" ><g class="Label"/><text   transform="translate(69.95 14.48)"    font-weight="bold" >Host cells</text></g></g></g><g id="d2767" class="GroupComplex" transform="translate(1342.6 160.68)"  ><g class="GroupComplex"><use class="Icon" width="165.07" height="283.18" fill="#b4b464" fill-opacity=".1" stroke="grey" href="#Octagon"/><g id="e90fb" class="Label" transform="translate(17.54 12)"  name="DNA polymerase III" ><g class="Label"/><text   transform="translate(62.81 12.5)"    font-weight="bold" >DNA polymerase III</text></g><g id="bb4e4" class="GeneProduct " transform="translate(12 237.71)"  name="POLR2E" ><rect   width="70" height="25"/><text   transform="translate(35,12.5)"    >POLR2E</text></g><g id="bf5fb" class="GeneProduct " transform="translate(83.07 171.18)"  name="POLR3GL" ><rect   width="70" height="25"/><text   transform="translate(35,12.5)"    >POLR3GL</text></g><g id="c7d61" class="GeneProduct " transform="translate(12 62.71)"  name="POLR3F" ><rect   width="70" height="25"/><text   transform="translate(35,12.5)"    >POLR3F</text></g><g id="cacee" class="GeneProduct " transform="translate(12 87.71)"  name="POLR3G" ><rect   width="70" height="25"/><text   transform="translate(35,12.5)"    >POLR3G</text></g><g id="cf30a" class="GeneProduct " transform="translate(12 162.71)"  name="POLR3H" ><rect   width="70" height="25"/><text   transform="translate(35,12.5)"    >POLR3H</text></g><g id="d61d1" class="GeneProduct " transform="translate(83.07 46.18)"  name="POLR2K" ><rect   width="70" height="25"/><text   transform="translate(35,12.5)"    >POLR2K</text></g><g id="dd2d0" class="GeneProduct " transform="translate(83.07 246.18)"  name="POLR2H" ><rect   width="70" height="25"/><text   transform="translate(35,12.5)"    >POLR2H</text></g><g id="de582" class="GeneProduct " transform="translate(83.07 121.18)"  name="POLR3E" ><rect   width="70" height="25"/><text   transform="translate(35,12.5)"    >POLR3E</text></g><g id="dfab1" class="GeneProduct " transform="translate(12 212.71)"  name="POLR3K" ><rect   width="70" height="25"/><text   transform="translate(35,12.5)"    >POLR3K</text></g><g id="e2b9a" class="GeneProduct " transform="translate(83.07 221.18)"  name="POLR2F" ><rect   width="70" height="25"/><text   transform="translate(35,12.5)"    >POLR2F</text></g><g id="e6c94" class="GeneProduct " transform="translate(83.07 71.18)"  name="POLR2L" ><rect   width="70" height="25"/><text   transform="translate(35,12.5)"    >POLR2L</text></g><g id="f158a" class="GeneProduct " transform="translate(12 137.71)"  name="POLR3A" ><rect   width="70" height="25"/><text   transform="translate(35,12.5)"    >POLR3A</text></g><g id="f4f72" class="GeneProduct " transform="translate(83.07 196.18)"  name="POLR1C" ><rect   width="70" height="25"/><text   transform="translate(35,12.5)"    >POLR1C</text></g><g id="f6f1d" class="GeneProduct " transform="translate(12 112.71)"  name="POLR3C" ><rect   width="70" height="25"/><text   transform="translate(35,12.5)"    >POLR3C</text></g><g id="f8c14" class="GeneProduct " transform="translate(83.07 146.18)"  name="POLR3D" ><rect   width="70" height="25"/><text   transform="translate(35,12.5)"    >POLR3D</text></g><g id="fafae" class="GeneProduct " transform="translate(83.07 96.18)"  name="POLR3B" ><rect   width="70" height="25"/><text   transform="translate(35,12.5)"    >POLR3B</text></g><g id="fd56d" class="GeneProduct " transform="translate(12 187.71)"  name="POLR1D" ><rect   width="70" height="25"/><text   transform="translate(35,12.5)"    >POLR1D</text></g></g></g><g id="da574" class="GroupComplex" transform="translate(164.07 350.21)"  ><g class="GroupComplex"><use class="Icon" width="114" height="124.00" fill="#b4b464" fill-opacity=".1" stroke="grey" href="#Octagon"/><g id="e9c4d" class="Label" transform="translate(12,12)"  name="Inflammasome" ><g class="Label"/><text   transform="translate(45,12.5)"    font-weight="bold" >Inflammasome</text></g><g id="b6732" class="GeneProduct " transform="translate(27.83 37)"  name="AIM2" ><rect   width="58.33" height="25"/><text   transform="translate(29.17 12.5)"    >AIM2</text></g><g id="d9c15" class="GeneProduct " transform="translate(27.83 87)"  name="CASP1" ><rect   width="58.33" height="25"/><text   transform="translate(29.17 12.5)"    >CASP1</text></g><g id="a0149" class="GeneProduct " transform="translate(27.83 62)"  name="PYCARD" ><rect   width="58.33" height="25"/><text   transform="translate(29.17 12.5)"    >PYCARD</text></g></g></g><g id="ad3ba" class="GeneProduct" transform="translate(1090.3 341.22)"  name="5'-ppp-dsRNA" ><rect   width="90" height="25" style="stroke:#909"/><text   transform="translate(45,12.5)"     style="fill:#990099">5'-ppp-dsRNA</text></g><g id="df85f" class="Metabolite " transform="translate(881.07 407.89)"  name="cGAMP" ><rect   width="75.97" height="25" style="stroke:#00f"/><text   transform="translate(37.98 12.5)"     style="fill:#00f">cGAMP</text></g><g id="e76e5" class="Metabolite " transform="translate(538.67 228.83)"  name="dsDNA" ><rect   width="62.33" height="25"/><text   transform="translate(31.17 12.5)"    >dsDNA</text></g><g id="f4dcc" class="GeneProduct " transform="translate(442.67 280.83)"  name="TREX1" ><rect   width="58.33" height="25"/><text   transform="translate(29.17 12.5)"    >TREX1</text></g><g id="d5350" class="GeneProduct " transform="translate(439.33 358.83)"  name="ADAR" ><rect   width="58.33" height="25"/><text   transform="translate(29.17 12.5)"    >ADAR</text></g><g id="e8bff" class="GeneProduct " transform="translate(540.67 434.17)"  name="ZBP1" ><rect   width="58.33" height="25"/><text   transform="translate(29.17 12.5)"    >ZBP1</text></g><g id="c668a" class="GroupGroup" transform="translate(347.51 624.83)"  ><g class="GroupGroup"><g id="bdbb1" class="GeneProduct " transform="translate(8,8)"  name="RIPK1" ><rect   width="58.33" height="25"/><text   transform="translate(29.17 12.5)"    >RIPK1</text></g><g id="b1eaf" class="GeneProduct " transform="translate(8 33)"  name="RIPK3" ><rect   width="58.33" height="25"/><text   transform="translate(29.17 12.5)"    >RIPK3</text></g></g></g><g id="a01ec" class="Edge"  ><path    d="m497.67 371.33 72.17 0.67" style="marker-end:url(#meminhibition000)"/></g><g id="d2c65" class="GroupComplex" transform="translate(341 736.83)"  ><g class="GroupComplex"><use class="Icon" width="86.85" height="99.00" fill="#b4b464" fill-opacity=".1" stroke="grey" href="#Octagon"/><g id="d20b1" class="GeneProduct " transform="translate(12 62)"  name="IKBKG" ><rect   width="62.85" height="25"/><text   transform="translate(31.42 12.5)"    >IKBKG</text></g><g id="ec6ce" class="GeneProduct " transform="translate(12,12)"  name="IKBKB" ><rect   width="62.85" height="25"/><text   transform="translate(31.42 12.5)"    >IKBKB</text></g><g id="c3b33" class="GeneProduct " transform="translate(12,37)"  name="CHUK" ><rect   width="62.85" height="25"/><text   transform="translate(31.42 12.5)"    >CHUK</text></g></g></g><g id="f05b5" class="Edge"  ><path    d="m339.32 890.47 94.52 1"/><g id="bd1e7" class="AB" transform="translate(386.03 890.96)"  ><g class="AB"/></g></g><g id="e6d77" class="Edge"  ><path    d="m386.03 890.96v0.08c0 0.08 0 0.24 7.20 0.32 7.20 0.08 21.60 0.08 28.80 9.28 7.20 9.20 7.20 27.61 7.20 36.81l4e-14 9.20"/></g><g id="f85e5" class="GroupComplex" transform="translate(214.32 853.47)"  ><g class="GroupComplex"><use class="Icon" width="125.00" height="74" fill="#b4b464" fill-opacity=".1" stroke="grey" href="#Octagon"/><g id="b1909" class="GeneProduct " transform="translate(12,12)"  name="NFKB1" ><rect   width="50" height="25"/><text   transform="translate(25,12.5)"    >NFKB1</text></g><g id="c2c51" class="GeneProduct " transform="translate(12,37)"  name="RELA" ><rect   width="50" height="25"/><text   transform="translate(25,12.5)"    >RELA</text></g><g id="c5bd9" class="GeneProduct " transform="translate(63 12)"  name="NFKBIA" ><rect   width="50" height="25"/><text   transform="translate(25,12.5)"    >NFKBIA</text></g><g id="b799d" class="GeneProduct " transform="translate(63 37)"  name="NFKBIB" ><rect   width="50" height="25"/><text   transform="translate(25,12.5)"    >NFKBIB</text></g></g></g><g id="b652a" class="Edge"  ><path    d="m540.44 983.51h-20v-92.04h-15.6" marker-start="url(#markerstartarrow000)" stroke-dasharray="5,3" style="marker-end:none"/></g><g id="ff0d8" class="GroupComplex" transform="translate(392.24 946.66)"  ><g class="GroupComplex"><use class="Icon" width="74" height="74" fill="#b4b464" fill-opacity=".1" stroke="grey" href="#Octagon"/><g id="fb387" class="GeneProduct " transform="translate(12,12)"  name="NFKB1" ><rect   width="50" height="25"/><text   transform="translate(25,12.5)"    >NFKB1</text></g><g id="d66e6" class="GeneProduct " transform="translate(12,37)"  name="RELA" ><rect   width="50" height="25"/><text   transform="translate(25,12.5)"    >RELA</text></g></g></g><g id="c09c3" class="GroupGroup" transform="translate(433.84 858.47)"  ><g class="GroupGroup"><g id="eced9" class="GeneProduct " transform="translate(8,8)"  name="NFKBIA" ><rect   width="55" height="25"/><g id="a8434" class="State Burr" transform="translate(46.40 17.5)"  name="P" ><g class="State Burr"><use class="State Burr Node Icon" width="15" height="15" fill="#fff" stroke="#000" href="#Ellipse"/></g><g ><defs><clipPath ><rect x="-7.5" y="-7.5" width="15" height="15" style="stroke:none"/></clipPath></defs><text   transform="translate(7.5,7.5)"  font-family="arial" overflow="visible" style="font-size:10px">P</text></g></g><text   transform="translate(27.5,12.5)"    >NFKBIA</text></g><g id="f6ba3" class="GeneProduct " transform="translate(8,33)"  name="NFKBIB" ><rect   width="55" height="25"/><g id="d3987" class="State Burr" transform="translate(47.5,17.5)"  name="P" ><g class="State Burr"><use class="State Burr Node Icon" width="15" height="15" fill="#fff" stroke="#000" href="#Ellipse"/></g><g ><defs><clipPath ><rect x="-7.5" y="-7.5" width="15" height="15" style="stroke:none"/></clipPath></defs><text   transform="translate(7.5,7.5)"  font-family="arial" overflow="visible" style="font-size:10px">P</text></g></g><text   transform="translate(27.5,12.5)"    >NFKBIB</text></g></g></g><g id="eb60d" class="Pathway" transform="translate(540.44 968.76)"  name="Ubiquitin-mediated  proteolysis" ><g class="Pathway"/><g ><defs><clipPath ><rect x="-56.83" y="-14.75" width="113.67" height="29.5" style="stroke:none"/></clipPath></defs><text   transform="translate(56.83 14.75)"    font-weight="bold"  style="fill:#14961e"><tspan   x="0" y="-6.60">Ubiquitin-mediated </tspan><tspan   x="0" y="6.60">proteolysis</tspan></text></g></g><g id="c3a3d" class="Edge"  ><path    d="m465.57 1138.9 36-0.13" style="marker-end:url(#memtranscriptiontranslation000)"/></g><g id="ae775" class="GroupGroup" transform="translate(501.57 1054.2)"  ><g class="GroupGroup"><g id="c337a" class="Label" transform="translate(8,8)"  name="Pro-inflammatory  cytokines / chemokines" ><g class="Label"/><text   transform="translate(72.22 12.5)"    font-weight="bold" ><tspan   x="0" y="-6.60">Pro-inflammatory </tspan><tspan   x="0" y="6.60">cytokines / chemokines</tspan></text></g><g id="a1710" class="GeneProduct " transform="translate(55.22 36)"  name="IL6" ><rect   width="50" height="25"/><text   transform="translate(25,12.5)"    >IL6</text></g><g id="aeed6" class="GeneProduct " transform="translate(55.22 61)"  name="CCL4L2" ><rect   width="50" height="25"/><text   transform="translate(25,12.5)"    >CCL4L2</text></g><g id="befb6" class="GeneProduct " transform="translate(55.22 111)"  name="CCL5" ><rect   width="50" height="25"/><text   transform="translate(25,12.5)"    >CCL5</text></g><g id="d20bc" class="GeneProduct " transform="translate(55.22 136)"  name="CXCL10" ><rect   width="50" height="25"/><text   transform="translate(25,12.5)"    >CXCL10</text></g><g id="c1b17" class="GeneProduct " transform="translate(55.22 86)"  name="CCL4" ><rect   width="50" height="25"/><text   transform="translate(25,12.5)"    >CCL4</text></g></g></g><g id="fcb1f" class="GroupComplex" transform="translate(391.57 1101.9)"  ><g class="GroupComplex"><use class="Icon" width="74" height="74.00" fill="#b4b464" fill-opacity=".1" stroke="grey" href="#Octagon"/><g id="dea5e" class="GeneProduct " transform="translate(12,12)"  name="NFKB1" ><rect   width="50" height="25"/><text   transform="translate(25,12.5)"    >NFKB1</text></g><g id="d5840" class="GeneProduct " transform="translate(12 37)"  name="RELA" ><rect   width="50" height="25"/><text   transform="translate(25,12.5)"    >RELA</text></g></g></g><g id="a79a2" class="GroupGroup" transform="translate(183.26 519.42)"  ><g class="GroupGroup"><g id="b5c4a" class="GeneProduct " transform="translate(8 8)"  name="IL1B" ><rect   width="58.33" height="25"/><text   transform="translate(29.17 12.5)"    >IL1B</text></g><g id="b6b0b" class="GeneProduct " transform="translate(8 37.41)"  name="IL18" ><rect   width="58.33" height="25"/><text   transform="translate(29.17 12.5)"    >IL18</text></g><g id="a3a84" class="GeneProduct " transform="translate(8 66.82)"  name="IL33" ><rect   width="58.33" height="25"/><text   transform="translate(29.17 12.5)"    >IL33</text></g></g></g><g id="f6171" class="GroupGroup" transform="translate(920.48 20.48)"  ><g class="GroupGroup"><g id="d6dbd" class="Label" transform="translate(8,8)"  name="Adenovirus" ><g class="Label"/><text   transform="translate(69.95 14.48)"    font-weight="bold" >Adenovirus</text></g><g id="e7e1c" class="Label" transform="translate(8 24.61)"  name="Herpes simplex virus 1" ><g class="Label"/><text   transform="translate(69.95 14.48)"    font-weight="bold" >Herpes simplex virus 1</text></g><g id="da65c" class="Label" transform="translate(8 43.44)"  name="Epstein-Barr virus" ><g class="Label"/><text   transform="translate(69.95 14.48)"    font-weight="bold" >Epstein-Barr virus</text></g><g id="f55d8" class="Label" transform="translate(8 61.00)"  name="Legionella pneumophila" ><g class="Label"/><text   transform="translate(69.95 14.48)"    font-weight="bold" >Legionella pneumophila</text></g></g></g><g id="aacf3" class="Metabolite " transform="translate(968.8 235.56)"  name="dsDNA" ><rect   width="62.33" height="25"/><text   transform="translate(31.17 12.5)"    >dsDNA</text></g><g id="c8557" class="GroupGroup" transform="translate(677.02 600.39)"  ><g class="GroupGroup"><g id="f8acc" class="GeneProduct " transform="translate(8,8)"  name="IRF3" ><rect   width="49.15" height="25"/><text   transform="translate(24.58 12.5)"    >IRF3</text></g><g id="f1411" class="GeneProduct " transform="translate(8,33)"  name="IRF7" ><rect   width="49.15" height="25"/><text   transform="translate(24.58 12.5)"    >IRF7</text></g></g></g><g id="b691c" class="Edge"  ><path    d="m709.59 666.39v458.95"/></g><g id="ed5fe" class="Edge"  ><path    d="m746.17 1162.3 66.73-0.39" style="marker-end:url(#memtranscriptiontranslation000)"/></g><g id="e3cb9" class="GroupComplex" transform="translate(673.02 1125.3)"  ><g class="GroupComplex"><use class="Icon" width="73.15" height="74.00" fill="#b4b464" fill-opacity=".1" stroke="grey" href="#Octagon"/><g id="c341e" class="GeneProduct " transform="translate(12,12)"  name="IRF3" ><rect   width="49.15" height="25"/><text   transform="translate(24.58 12.5)"    >IRF3</text></g><g id="ffe7f" class="GeneProduct " transform="translate(12 37)"  name="IRF7" ><rect   width="49.15" height="25"/><text   transform="translate(24.58 12.5)"    >IRF7</text></g></g></g><g id="a9c46" class="GroupGroup" transform="translate(812.9 1053.6)"  ><g class="GroupGroup"><g id="eba4c" class="Label" transform="translate(8,8)"  name="Type I interferons" ><g class="Label"/><text   transform="translate(55.70 12.5)"    font-weight="bold" >Type I interferons</text></g><g id="a3c05" class="GeneProduct " transform="translate(63 58.66)"  name="IFNA10" ><rect   width="54.27" height="25"/><text   transform="translate(27.13 12.5)"    >IFNA10</text></g><g id="ece1e" class="GeneProduct " transform="translate(63 33.66)"  name="IFNA8" ><rect   width="54.27" height="25"/><text   transform="translate(27.13 12.5)"    >IFNA8</text></g><g id="b4775" class="GeneProduct " transform="translate(63 133.66)"  name="IFNA16" ><rect   width="54.27" height="25"/><text   transform="translate(27.13 12.5)"    >IFNA16</text></g><g id="b25f7" class="GeneProduct " transform="translate(8.5 58.66)"  name="IFNA2" ><rect   width="54.27" height="25"/><text   transform="translate(27.13 12.5)"    >IFNA2</text></g><g id="f6490" class="GeneProduct " transform="translate(8.5 158.66)"  name="IFNA7" ><rect   width="54.27" height="25"/><text   transform="translate(27.13 12.5)"    >IFNA7</text></g><g id="d23f9" class="GeneProduct " transform="translate(63 183.66)"  name="IFNA21" ><rect   width="54.27" height="25"/><text   transform="translate(27.13 12.5)"    >IFNA21</text></g><g id="d5e34" class="GeneProduct " transform="translate(63 158.66)"  name="IFNA17" ><rect   width="54.27" height="25"/><text   transform="translate(27.13 12.5)"    >IFNA17</text></g><g id="ed2fe" class="GeneProduct " transform="translate(63 108.66)"  name="IFNA14" ><rect   width="54.27" height="25"/><text   transform="translate(27.13 12.5)"    >IFNA14</text></g><g id="b8b51" class="GeneProduct " transform="translate(8.5 83.66)"  name="IFNA4" ><rect   width="54.27" height="25"/><text   transform="translate(27.13 12.5)"    >IFNA4</text></g><g id="d84df" class="GeneProduct " transform="translate(8.5 33.66)"  name="IFNA1" ><rect   width="54.27" height="25"/><text   transform="translate(27.13 12.5)"    >IFNA1</text></g><g id="b496c" class="GeneProduct " transform="translate(63 83.66)"  name="IFNA13" ><rect   width="54.27" height="25"/><text   transform="translate(27.13 12.5)"    >IFNA13</text></g><g id="ab9c3" class="GeneProduct " transform="translate(8.5 108.66)"  name="IFNA5" ><rect   width="54.27" height="25"/><text   transform="translate(27.13 12.5)"    >IFNA5</text></g><g id="d43ad" class="GeneProduct " transform="translate(8.5 133.66)"  name="IFNA6" ><rect   width="54.27" height="25"/><text   transform="translate(27.13 12.5)"    >IFNA6</text></g><g id="e0ecc" class="GeneProduct " transform="translate(8.5 183.66)"  name="IFNB1" ><rect   width="54.27" height="25"/><text   transform="translate(27.13 12.5)"    >IFNB1</text></g></g></g><g id="d91e1" class="Label" transform="translate(752.66 617.06)"  name="Oligomerization" ><g class="Label"/><text   transform="translate(47.5,12.5)"    font-weight="bold" >Oligomerization</text></g><g id="bcd75" class="GroupComplex" transform="translate(795.23 477.62)"  ><g class="GroupComplex"><use class="Icon" width="73.15" height="74.00" fill="#b4b464" fill-opacity=".1" stroke="grey" href="#Octagon"/><g id="b331c" class="GeneProduct " transform="translate(12 37)"  name="TBK1" ><rect   width="49.15" height="25"/><text   transform="translate(24.58 12.5)"    >TBK1</text></g><g id="b21d3" class="GeneProduct " transform="translate(12,12)"  name="IKBKE" ><rect   width="49.15" height="25"/><text   transform="translate(24.58 12.5)"    >IKBKE</text></g></g></g><g id="e96ca" class="GeneProduct " transform="translate(893.76 327.52)"  name="CGAS" ><rect   width="49.15" height="25"/><text   transform="translate(24.58 12.5)"    >CGAS</text></g><g id="eed0a" class=" PhysicalEntity CellularComponent EndoplasmicReticulum" transform="translate(841.34 534.64) rotate(-8.54 91.5 72.5)"  ><g class=" PhysicalEntity CellularComponent EndoplasmicReticulum"><use class=" PhysicalEntity CellularComponent EndoplasmicReticulum Node Icon" transform="matrix(0.98 0 0 0.98 1.48 1.47)" width="183" height="145" fill="transparent" stroke="#c0c0c0" stroke-width="3" href="#EndoplasmicReticulum"/></g></g><g id="ffa04" class="Edge"  ><path    d="m918.34 352.52 0.72 55.36"/></g><g id="e8267" class="Edge"  ><path    d="m1230.7 526.41-107.49-70.05" style="marker-end:url(#meminhibition000)"/></g><g id="cca0e" class="Edge"  ><path    d="m1230.7 526.41-207.43 0.26" style="marker-end:none"/></g><g id="bf2fc" class="Edge"  ><path    d="m1255 391.36-90.99 20.94" style="marker-end:url(#meminhibition000)"/></g><g id="e6dcd" class="Edge"  ><path    d="m1135.3 366.22-1.33 39.83" style="marker-end:url(#membinding000)"/></g><g id="f5e2a" class="Edge"  ><path    d="m1149 431.05 51.30 26.90" style="marker-end:none"/></g><g id="fccd5" class="Edge"  ><path    d="m1149 431.05 81.70 95.36" style="marker-end:none"/></g><g id="b7e04" class="Edge"  ><path    d="m1195 367.82-45.95 38.23"/></g><g id="da3cb" class="GeneProduct " transform="translate(1104 406.05)"  name="DDX58" ><rect   width="60" height="25"/><text   transform="translate(30,12.5)"    >DDX58</text></g><g id="e2356" class="GeneProduct " transform="translate(1195 357.1)"  name="TRIM25" ><rect   width="60" height="21.42"/><text   transform="translate(30 10.71)"    >TRIM25</text></g><g id="c9eff" class="GeneProduct " transform="translate(1255 378.86)"  name="CYLD" ><rect   width="60" height="25"/><text   transform="translate(30,12.5)"    >CYLD</text></g><g id="efda5" class="GeneProduct " transform="translate(1231.3 412.1)"  name="RNF125" ><rect   width="60" height="25"/><text   transform="translate(30,12.5)"    >RNF125</text></g><g id="d9fca" class="GeneProduct " transform="translate(1200.3 445.45)"  name="ISG15" ><rect   width="60" height="25"/><text   transform="translate(30,12.5)"    >ISG15</text></g><g id="c525e" class="Edge"  ><path    d="m1231.3 424.6-67.34 0.20" style="marker-end:url(#meminhibition000)"/></g><g id="bb4ed" class="Edge"  ><path    d="m1134 431.05-25.40 59.58"/><g id="c9ab6" class="AB" transform="translate(1123.2 456.36)"  ><g class="AB"/></g></g><g id="e9179" class="GroupComplex" transform="translate(1230.7 489.41)"  ><g class="GroupComplex"><use class="Icon" width="84" height="74" fill="#b4b464" fill-opacity=".1" stroke="grey" href="#Octagon"/><g id="f5482" class="GeneProduct " transform="translate(12,12)"  name="ATG5" ><rect   width="60" height="25"/><text   transform="translate(30,12.5)"    >ATG5</text></g><g id="a530e" class="GeneProduct " transform="translate(12,37)"  name="ATG12" ><rect   width="60" height="25"/><text   transform="translate(30,12.5)"    >ATG12</text></g></g></g><g id="b6bed" class=" PhysicalEntity CellularComponent Mitochondria" transform="translate(966.06 525.78) rotate(75.78 100 56.97)"  ><g class=" PhysicalEntity CellularComponent Mitochondria"><use class=" PhysicalEntity CellularComponent Mitochondria Node Icon" transform="matrix(0.99 0 0 0.97 1.48 1.46)" width="200" height="113.94" fill="transparent" stroke="#ccc" stroke-width="3" href="#Mitochondria"/></g></g><g id="bed28" class="GeneProduct " transform="translate(1011.8 572.34)"  name="NLRX1" ><rect   width="53" height="25"/><text   transform="translate(26.5,12.5)"    >NLRX1</text></g><g id="f166e" class="GeneProduct " transform="translate(1048.6 478.13)"  name="MAVS" ><rect   width="60" height="25"/><text   transform="translate(30,12.5)"    >MAVS</text></g><g id="ba30f" class="GeneProduct " transform="translate(963.28 514.17)"  name="TMEM173" ><rect   width="60" height="25"/><text   transform="translate(30,12.5)"    >TMEM173</text></g><g id="b5bbf" class="Edge"  ><path    d="m1078.1 829.23v16.15"/></g><g id="d0230" class="Edge"  ><path    d="m1078.1 919.38v12.62h-541.17v-170.67h-121.04" stroke-dasharray="5,3"/></g><g id="c0bdf" class="Edge"  ><path    d="m1078.1 732.63 5e-13 22.60" style="marker-end:none"/></g><g id="a870d" class="GeneProduct " transform="translate(1048.6 707.63)"  name="TRADD" ><rect   width="59" height="25"/><text   transform="translate(29.5,12.5)"    >TRADD</text></g><g id="e5282" class="GroupComplex" transform="translate(1036.6 755.23)"  ><g class="GroupComplex"><use class="Icon" width="83" height="74" fill="#b4b464" fill-opacity=".1" stroke="grey" href="#Octagon"/><g id="bf3e3" class="GeneProduct " transform="translate(12,12)"  name="FADD" ><rect   width="59" height="25"/><text   transform="translate(29.5,12.5)"    >FADD</text></g><g id="b8107" class="GeneProduct " transform="translate(12,37)"  name="RIPK1" ><rect   width="59" height="25"/><text   transform="translate(29.5,12.5)"    >RIPK1</text></g></g></g><g id="e9be3" class="Edge"  ><path    d="m1078.6 503.13-0.55 204.5" style="marker-end:none"/></g><g id="e3919" class="GroupComplex" transform="translate(1036.6 845.38)"  ><g class="GroupComplex"><use class="Icon" width="83" height="74" fill="#b4b464" fill-opacity=".1" stroke="grey" href="#Octagon"/><g id="fb390" class="GeneProduct " transform="translate(12,12)"  name="CASP8" ><rect   width="59" height="25"/><text   transform="translate(29.5,12.5)"    >CASP8</text></g><g id="b84cb" class="GeneProduct " transform="translate(12,37)"  name="CASP10" ><rect   width="59" height="25"/><text   transform="translate(29.5,12.5)"    >CASP10</text></g></g></g></g></g></g></svg>