<?xml version="1.0" encoding="UTF-8"?>
<svg xmlns="http://www.w3.org/2000/svg" id="-svg" class="Diagram"  baseProfile="full" prefix="schema:http://schema.org/" preserveAspectRatio="xMidYMid"  version="1.1"><defs><g id="icon-defs"/><g id="marker-defs"><marker id="mea" markerHeight="12" markerWidth="12" orient="auto" preserveAspectRatio="none" refX="12" refY="6" viewBox="0 0 12 12"><g id="g-mea" transform=""><g transform="rotate(180 6 6)"><rect y="5.4" width="2" height="1.2" style="stroke:#fff"/><polygon points="12 11 0 6 12 1" stroke-width="0"/></g></g></marker><marker id="memcatalysis000" markerHeight="12" markerWidth="12" orient="auto" preserveAspectRatio="none" refX="12" refY="6" viewBox="0 0 12 12"><g id="g-memcatalysis000" transform=""><g transform="rotate(180 6 6)"><circle cx="6" cy="6" r="5.3px" fill="#fff" stroke="#000"/></g></g></marker><marker id="memconversion000" markerHeight="12" markerWidth="12" orient="auto" preserveAspectRatio="none" refX="12" refY="6" viewBox="0 0 12 12"><g id="g-memconversion000" transform=""><g transform="rotate(180 6 6)"><rect y="5.4" width="2" height="1.2" style="stroke:#fff"/><polygon points="12 11 0 6 12 1" stroke-width="0"/></g></g></marker><marker id="memstimulation000" markerHeight="12" markerWidth="12" orient="auto" preserveAspectRatio="none" refX="12" refY="6" viewBox="0 0 12 12"><g id="g-memstimulation000" transform=""><g transform="rotate(180 6 6)"><rect y="5.4" width="2" height="1.2" style="stroke:none"/><line x1="12" x2="12" y1="6" y2="6" fill="none"/><polygon points="0 6 11 11 11 1" fill="#fff" stroke="#000"/></g></g></marker><marker id="memcatalysisff00ffwhite" markerHeight="12" markerWidth="12" orient="auto" preserveAspectRatio="none" refX="12" refY="6" viewBox="0 0 12 12"><g id="g-memcatalysisff00ffwhite" transform=""><g transform="rotate(180 6 6)"><circle cx="6" cy="6" r="5.3px" fill="#fff" stroke="#f0f"/></g></g></marker><marker id="memcatalysis6600ccwhite" markerHeight="12" markerWidth="12" orient="auto" preserveAspectRatio="none" refX="12" refY="6" viewBox="0 0 12 12"><g id="g-memcatalysis6600ccwhite" transform=""><g transform="rotate(180 6 6)"><circle cx="6" cy="6" r="5.3px" fill="#fff" stroke="#60c"/></g></g></marker><marker id="memcatalysisff0033white" markerHeight="12" markerWidth="12" orient="auto" preserveAspectRatio="none" refX="12" refY="6" viewBox="0 0 12 12"><g id="g-memcatalysisff0033white" transform=""><g transform="rotate(180 6 6)"><circle cx="6" cy="6" r="5.3px" fill="#fff" stroke="#f03"/></g></g></marker></g></defs><g id="viewport-20220102144256438" class="svg-pan-zoom_viewport" transform="matrix(0.66 0 0 0.66 89.03 0)" style="transform:matrix(0.66, 0, 0, 0.66, 89.03, 0)"><style>svg.Diagram {font-family: 'Liberation Sans', Arial, sans-serif; }.Diagram path {fill: transparent;stroke: #000;marker-end: url(#mea);}.Diagram symbol path {fill: inherit;stroke: inherit;stroke-width: inherit;marker-end: inherit;}.Diagram rect {fill: #fff;stroke: #000;}.Diagram text {dominant-baseline: central;overflow: hidden;text-anchor: middle;fill: #000;font-size: 12px;}</style><style type="text/css">.Viewport .textContent {
  pointer-events: none;
  stroke-width: 0px;
}

					.Viewport.Icon {
  fill: white;
}

/* Hide the InfoBox */
.Viewport.textContent {
  font-size: 0;
}

.textContent {
  stroke: none;
}

.DataNode {
  stroke-miterlimit: 1;
  pointer-events: auto;
}

.DataNode:hover {
  cursor: pointer;
}

/* TODO should this apply to things other than DataNodes? */
.DataNode.textContent {
  pointer-events: none;
}

.DataNode.Highlighted {
  opacity: 0.6;
  stroke-width: 0px;
}

marker {
  /* this is what should work per the spec
  stroke-dasharray: none; */
  /* but I need to add this to make it work in Safari */
  stroke-dasharray: 9999999999999999999999999;
}

.Citation.Icon {
  fill: none;
  stroke-width: 0px;
}

.Citation.textContent {
  text-align: center;
  vertical-align: top;
  font-size: 7px;
  fill: #999;
  fill-opacity: 1;
  stroke: none;
}</style><g id="WP4719" class="Pathway http___identifiers_org_pw_PW_0000460 http___identifiers_org_pw_PW_0000485 http___identifiers_org_pw_PW_0000565 http___identifiers_org_pw_PW_0000024 http___identifiers_org_pw_PW_0000461 http___identifiers_org_pw_PW_0001239 http___identifiers_org_pw_PW_0001239 http___identifiers_org_pw_PW_0001147 Viewport"  name="Name: Eicosanoid metabolism via cyclooxygenases (COX) Organism: Homo sapiens" ><g class="Pathway http___identifiers_org_pw_PW_0000460 http___identifiers_org_pw_PW_0000485 http___identifiers_org_pw_PW_0000565 http___identifiers_org_pw_PW_0000024 http___identifiers_org_pw_PW_0000461 http___identifiers_org_pw_PW_0001239 http___identifiers_org_pw_PW_0001239 http___identifiers_org_pw_PW_0001147 Viewport"><rect   width="1553.1" height="1016.7" style="stroke:none"/><g id="id9de1618e" class="Edge"  ><path    d="m378.67 578.04h93.79v375.33"/><g id="d9fa5" class="AB" transform="translate(472.46 740.06)"  ><g class="AB"/></g></g><g id="ae8cf" class="Edge"  ><path    d="m674.54 268.59-91.99-0.87" style="marker-end:url(#memcatalysis000)"/></g><g id="id17493fc8" class="Edge"  ><path    d="m347.13 596.79-4.5e-13 213.18"/><g id="a57dd" class="AB" transform="translate(347.13 748.72)"  ><g class="AB"/></g></g><g id="id183c3ff1" class="Edge"  ><path    d="m331.36 596.79v76.68h-161.18v136.5"/><g id="b2624" class="AB" transform="translate(244.44 673.47)"  ><g class="AB"/></g></g><g id="id1fb88c8e" class="Edge"  ><path    d="m827.75 834.97-1e-13 118.41"/><g id="e323b" class="AB" transform="translate(827.75 882.33)"  ><g class="AB"/></g></g><g id="id2084a0d4" class="Edge"  ><path    d="m189.33 438.68-29.91-6e-14"/></g><g id="id20f92f02" class="Edge"  ><path    d="m1143.6 587.17h99.44v222.8"/><g id="e59a1" class="AB" transform="translate(1243.1 693.25)"  ><g class="AB"/></g></g><g id="id22efb23a" class="Edge"  ><path    d="m602.46 426.18 152.18-70.95"/><g id="d1e8a" class="AB" transform="translate(663.33 397.81)"  ><g class="AB"/></g></g><g id="id23e28d87" class="Edge"  ><path    d="m539.46 438.68-133.88 4e-14"/><g id="bfa6e" class="AB" transform="translate(445.79 438.68)"  ><g class="AB"/></g></g><g id="id33eb68b2" class="Edge"  ><path    d="m808.04 397.76-144.71 0.05" style="marker-end:url(#memcatalysis000)"/></g><g id="id3d54aa11" class="Edge"  ><path    d="m750.81 583.86h76.94v226.1"/><g id="e2113" class="AB" transform="translate(827.75 750.2)"  ><g class="AB"/></g></g><g id="id4ae4043f" class="Edge"  ><path    d="m623.45 432.43h220.03v-22.85h63.63"/><g id="ba1f5" class="AB" transform="translate(778.36 432.43)"  ><g class="AB"/></g></g><g id="id52bb3434" class="Edge"  ><path    d="m347.13 834.97 5e-13 118.41"/><g id="ee389" class="AB" transform="translate(347.13 882.33)"  ><g class="AB"/></g></g><g id="id5346b361" class="Edge"  ><path    d="m1329.7 692.78h20v378.17h-1105.3v-397.48" style="stroke:#f03;marker-end:url(#memcatalysisff0033white)"/></g><g id="id5ccd254" class="Edge"  ><path    d="m1270 692.78-26.92 0.47" style="marker-end:url(#memcatalysis000)"/></g><g id="id5d8d94ec" class="Edge"  ><path    d="m581.46 451.18v44.13h119.31v76.05" style="marker-end:url(#memconversion000)"/><g id="c24b3" class="AB" transform="translate(633.12 495.31)"  ><g class="AB"/></g></g><g id="id6d6fe4f2" class="Edge"  ><path    d="m546.42 533.79h58.41" style="marker-end:url(#memstimulation000)"/></g><g id="id78fe73b6" class="Edge"  ><path    d="m1143.6 580.92h116.47" style="marker-end:url(#memconversion000)"/></g><g id="id79e71df4" class="Edge"  ><path    d="m623.45 444.93h483.72v123.48" style="marker-end:url(#memconversion000)"/><g id="bf7e7" class="AB" transform="translate(1107.2 533.59)"  ><g class="AB"/></g></g><g id="id7dfb4eb4" class="Edge"  ><path    d="m527.45 183.18-86.96-40.01" style="marker-end:url(#memconversion000)"/><g id="eb37f" class="AB" transform="translate(492.67 167.18)"  ><g class="AB"/></g></g><g id="id895d4a9b" class="Edge"  ><path    d="m445.84 488.42-0.05-49.73" style="marker-end:url(#memcatalysis000)"/></g><g id="id963d96f2" class="Edge"  ><path    d="m717.45 834.97-1e-13 116.81"/></g><g id="id9cb068ea" class="Edge"  ><path    d="m315.6 584.29h-37.74"/></g><g id="ida9533e87" class="Edge"  ><path    d="m1243.1 834.97v113.4"/><g id="db24f" class="AB" transform="translate(1243.1 880.33)"  ><g class="AB"/></g></g><g id="idae2687e4" class="Edge"  ><path    d="m1107.2 593.42v359.96"/><g id="a41d4" class="AB" transform="translate(1107.2 787.48)"  ><g class="AB"/></g></g><g id="idb351a4f6" class="Edge"  ><path    d="m331.93 438.68-28.63-4e-14"/></g><g id="idb5178a6" class="Edge"  ><path    d="m1070.7 580.92h-72.08v229.05"/><g id="a3232" class="AB" transform="translate(998.64 748.83)"  ><g class="AB"/></g></g><g id="idbc642d05" class="Edge"  ><path    d="m368.76 451.18-77.44 33.42" style="marker-end:url(#memstimulation000)"/></g><g id="idc1c7cc55" class="Edge"  ><path    d="m632.91 521.29 0.21-25.97" style="marker-end:url(#memcatalysis000)"/></g><g id="idc277cf5a" class="Edge"  ><path    d="m1445.4 593.42-2e-13 59.06"/></g><g id="idc3b35599" class="Edge"  ><path    d="m684.09 583.86h-84.36v369.51"/><g id="beca1" class="AB" transform="translate(599.73 731.3)"  ><g class="AB"/></g></g><g id="idc61b67cd" class="Edge"  ><path    d="m980.78 409.59h62.73"/></g><g id="idd015d400" class="Edge"  ><path    d="m1117.2 409.59 59.36 6e-14"/><g id="dc9ba" class="AB" transform="translate(1147.1 409.59)"  ><g class="AB"/></g></g><g id="id12a328f4" class="Edge"  ><path    d="m1146.6 355.24 0.41 54.35" style="marker-end:url(#memcatalysis000)"/></g><g id="idd10f2fb0" class="Edge"  ><path    d="m214.78 584.29h-55.83"/></g><g id="idd5c83238" class="Edge"  ><path    d="m246.32 596.79v39.68"/></g><g id="idd6637579" class="Edge"  ><path    d="m582.48 85.12 0.28 91.81" style="marker-end:url(#memconversion000)"/><g id="d0323" class="AB" transform="translate(582.59 121.84)"  ><g class="AB"/></g></g><g id="iddc51d1f6" class="Edge"  ><path    d="m717.45 596.36 1e-13 213.6"/><g id="f93eb" class="AB" transform="translate(717.45 687.3)"  ><g class="AB"/></g></g><g id="id1cd994a9" class="Edge"  ><path    d="m741.41 685.57-23.96 1.73" style="marker-end:url(#memcatalysis000)"/></g><g id="iddd37785f" class="Edge"  ><path    d="m998.64 834.97 1.18 118.41"/><g id="f7405" class="AB" transform="translate(999.11 882.33)"  ><g class="AB"/></g></g><g id="idf7c49bb7" class="Edge"  ><path    d="m170.18 834.97v116.93"/><g id="f7c2e" class="AB" transform="translate(170.18 890.63)"  ><g class="AB"/></g></g><g id="idff72c870" class="Edge"  ><path    d="m778.19 404.01 0.17 28.42" style="marker-end:url(#memcatalysis000)"/></g><g id="id8a02e96a" class="Edge"  ><path    d="m774.15 480.07-56.70 1.21" style="marker-end:url(#memcatalysis000)"/></g><g id="id8d87964f" class="Edge"  ><path    d="m440.02 188.11 52.65 25.68" style="marker-end:url(#memcatalysis000)"/></g><g id="idaf72f3be" class="Edge"  ><path    d="m733.56 252.09 0.04-62.97" style="marker-end:url(#memcatalysis000)"/></g><g id="idfb1f1889" class="Edge"  ><path    d="m704.05 318.09v50.72h-122.01" style="marker-end:url(#memcatalysis000)"/></g><g id="id328590a1" class="Edge"  ><path    d="m108.94 921.97v131.58h1202.2v-173.22h-68.04" style="stroke:#60c;marker-end:url(#memcatalysis6600ccwhite)"/></g><g id="id544d2d2" class="Edge"  ><path    d="m139.38 888.97 30.81 1.66" style="stroke:#f03;marker-end:url(#memcatalysisff0033white)"/></g><g id="id5ed5f452" class="Edge"  ><path    d="m668.99 122.22-86.40-0.38" style="marker-end:url(#memcatalysis000)"/></g><g id="id25dfa82" class="Edge"  ><path    d="m579.26 745.87 20.46-14.58" style="stroke:#f0f;marker-end:url(#memcatalysisff00ffwhite)"/></g><g id="id48db50ab" class="Edge"  ><path    d="m535.48 816.37v178.27h641.78v-207.17h-70.08" style="stroke:#60c;marker-end:url(#memcatalysis6600ccwhite)"/></g><g id="id71a1de97" class="Edge"  ><path    d="m491.69 745.87-19.23-5.81" style="stroke:#f03;marker-end:url(#memcatalysisff0033white)"/></g><g id="id3a0d96de" class="Edge"  ><path    d="m872.87 789.61-45.12-39.41" style="stroke:#f0f;marker-end:url(#memcatalysisff00ffwhite)"/></g><g id="id6cc56995" class="Edge"  ><path    d="m953.89 789.61 44.75-40.77" style="stroke:#60c;marker-end:url(#memcatalysis6600ccwhite)"/></g><g id="id6d000517" class="Edge"  ><path    d="m953.89 860.11 45.22 22.22" style="stroke:#60c;marker-end:url(#memcatalysis6600ccwhite)"/></g><g id="id8f535732" class="Edge"  ><path    d="m872.87 860.11-45.12 22.22" style="stroke:#f0f;marker-end:url(#memcatalysisff00ffwhite)"/></g><g id="idef047417" class="Edge"  ><path    d="m893.12 895.36v122.05h-596.71v-135.07h50.72" style="stroke:#f03;marker-end:url(#memcatalysisff0033white)"/></g><g id="idff069017" class="Edge"  ><path    d="m933.64 895.36v142.13h-661.65v-288.77h75.15" style="stroke:#f03;marker-end:url(#memcatalysisff0033white)"/></g><g id="e1f83" class="GeneProduct " transform="translate(415.99 463.42)"  name="PTGIS" ><rect   width="59.71" height="25"/><text   transform="translate(29.85 12.5)"    >PTGIS</text></g><g id="f947a" class="Metabolite " transform="translate(508.98 60.12)"  name="Glycerophospholipids" ><rect   width="147" height="25" style="stroke:#33f"/><text   transform="translate(73.5,12.5)"     style="fill:#3333ff">Glycerophospholipids</text></g><g id="faf5b" class="Protein " transform="translate(201.32 472.11)"  name="PPARD" ><rect   width="90" height="25" style="stroke:#f90"/><text   transform="translate(45,12.5)"     style="fill:#ff9900">PPARD</text></g><g id="cf809" class="GroupGroup" transform="translate(668.99 64.22)"  ><g class="GroupGroup"><g id="ead9e" class="Protein " transform="translate(8,8)"  name="PLA2G5" ><rect   width="102.03" height="25"/><text   transform="translate(51.01 12.5)"    >PLA2G5</text></g><g id="f5256" class="Protein " transform="translate(8,33)"  name="PLA2G6" ><rect   width="102.03" height="25"/><text   transform="translate(51.01 12.5)"    >PLA2G6</text></g><g id="c8c88" class="Protein " transform="translate(8 58)"  name="PLA2G4A" ><rect   width="102.03" height="25"/><text   transform="translate(51.01 12.5)"    >PLA2G4A</text></g><g id="b5aec" class="Protein " transform="translate(8 83)"  name="PLA2G4B" ><rect   width="102.03" height="25"/><text   transform="translate(51.01 12.5)"    >PLA2G4B</text></g></g></g><g id="ca499" class="Metabolite LIPID_MAPS_LMFA01030001" transform="translate(527.45 176.93)"  name="Arachidonic acid" ><rect   width="110.62" height="25" style="stroke:#33f"/><text   transform="translate(55.31 12.5)"     style="fill:#3333ff">Arachidonic acid</text></g><g id="cb047" class="GroupGroup" transform="translate(674.54 252.09)"  ><g class="GroupGroup"><g id="f78bf" class="Protein " transform="translate(8,8)"  name="PTGS1" ><rect   width="102.03" height="25"/><text   transform="translate(51.01 12.5)"    >PTGS1</text></g><g id="c6172" class="Protein " transform="translate(8 33)"  name="PTGS2" ><rect   width="102.03" height="25"/><text   transform="translate(51.01 12.5)"    >PTGS2</text></g></g></g><g id="bdd19" class="Edge"  ><path    d="m582.76 201.93-0.33 103.64" style="marker-end:url(#memconversion000)"/><g id="ffd66" class="AB" transform="translate(582.55 267.73)"  ><g class="AB"/></g></g><g id="e2028" class="Edge"  ><path    d="m582.43 330.57-0.97 95.62" style="marker-end:url(#memconversion000)"/><g id="c8e1d" class="AB" transform="translate(582.04 368.81)"  ><g class="AB"/></g></g><g id="aad9b" class="Metabolite LIPID_MAPS_LMFA03010009" transform="translate(543.81 305.57)"  name="PGG2" ><rect   width="77.25" height="25" style="stroke:#33f"/><text   transform="translate(38.62 12.5)"     style="fill:#3333ff">PGG2</text></g><g id="fd80c" class="Metabolite LIPID_MAPS_LMFA03010010" transform="translate(539.46 426.18)"  name="PGH2" ><rect   width="83.99" height="25" style="stroke:#33f"/><text   transform="translate(41.99 12.5)"     style="fill:#3333ff">PGH2</text></g><g id="c03ab" class="Metabolite LIPID_MAPS_LMFA03010003" transform="translate(315.6 571.79)"  name="PGE2" ><rect   width="63.07" height="25" style="stroke:#f00"/><text   transform="translate(31.54 12.5)"     style="fill:#f00">PGE2</text></g><g id="eef65" class="Edge"  ><path    d="m481.72 533.79-34.23-18.74" style="marker-end:url(#memcatalysis000)"/></g><g id="dcea1" class="Edge"  ><path    d="m560.46 451.18-213.33 120.6" style="marker-end:url(#memconversion000)"/><g id="bba02" class="AB" transform="translate(447.5 515.05)"  ><g class="AB"/></g></g><g id="bd354" class="Protein " transform="translate(481.72 521.29)"  name="PTGES" ><rect   width="64.70" height="25"/><text   transform="translate(32.35 12.5)"    >PTGES</text></g><g id="bec49" class="Metabolite LIPID_MAPS_LMFA03010002" transform="translate(684.09 571.36)"  name="PGF2a" ><rect   width="66.72" height="25" style="stroke:#c0c"/><text   transform="translate(33.36 12.5)"     style="fill:#c0c">PGF2a</text></g><g id="c9007" class="Edge"  ><path    d="m602.46 451.18v20h114.99v100.18" style="marker-end:url(#memconversion000)"/><g id="ee698" class="AB" transform="translate(717.45 481.27)"  ><g class="AB"/></g></g><g id="fa4c6" class="Metabolite LIPID_MAPS_LMFA03010004" transform="translate(1070.7 568.42)"  name="PGD2" ><rect   width="72.91" height="25" style="stroke:#60c"/><text   transform="translate(36.45 12.5)"     style="fill:#6600cc">PGD2</text></g><g id="a4609" class="Metabolite LIPID_MAPS_LMFA03010019" transform="translate(1260.1 568.42)"  name="PGJ2" ><rect   width="102.03" height="25" style="stroke:#33f"/><text   transform="translate(51.01 12.5)"     style="fill:#3333ff">PGJ2</text></g><g id="b0655" class="Metabolite LIPID_MAPS_LMFA03010020" transform="translate(1394.4 568.42)"  name="delta-12-PGJ2" ><rect   width="102.03" height="25" style="stroke:#33f"/><text   transform="translate(51.01 12.5)"     style="fill:#3333ff">delta-12-PGJ2</text></g><g id="b856b" class="Metabolite LIPID_MAPS_LMFA03010021" transform="translate(1134.5 492.87)"  name="15-deoxy-delta-12-PGD2" ><rect   width="181.78" height="25" style="stroke:#60c"/><text   transform="translate(90.89 12.5)"     style="fill:#6600cc">15-deoxy-delta-12-PGD2</text></g><g id="ce8f6" class="Edge"  ><path    d="m1362.1 580.92h32.29" style="marker-end:url(#memconversion000)"/></g><g id="b37b6" class="Edge"  ><path    d="m1143.6 574.67h81.80v-56.80" style="marker-end:url(#memconversion000)"/></g><g id="c8f6f" class="Protein " transform="translate(954.03 521.29)"  name="PTGDS" ><rect   width="56.17" height="25"/><text   transform="translate(28.09 12.5)"    >PTGDS</text></g><g id="e00b5" class="Edge"  ><path    d="m1010.2 533.79 96.98-0.20" style="marker-end:url(#memcatalysis000)"/></g><g id="b9a9a" class="Metabolite LIPID_MAPS_LMFA03060085" transform="translate(855.56 176.24)"  name="11-HETE" ><rect   width="102.03" height="25" style="stroke:#33f"/><text   transform="translate(51.01 12.5)"     style="fill:#3333ff">11-HETE</text></g><g id="c6ec2" class="Edge"  ><path    d="m638.07 189.43 217.49-0.69" style="marker-end:url(#memconversion000)"/><g id="dcc16" class="AB" transform="translate(733.6 189.13)"  ><g class="AB"/></g><g id="aa87c" class="AB" transform="translate(821.28 188.85)"  ><g class="AB"/></g></g><g id="ae894" class="Metabolite LIPID_MAPS_LMFA03010087" transform="translate(331.93 426.18)"  name="PGI2" ><rect   width="73.65" height="25" style="stroke:#33f"/><text   transform="translate(36.83 12.5)"     style="fill:#3333ff">PGI2</text></g><g id="ef143" class="Metabolite LIPID_MAPS_LMFA03010001" transform="translate(189.33 426.18)"  name="6-keto-PGF1alpha" ><rect   width="113.97" height="25" style="stroke:#33f"/><text   transform="translate(56.99 12.5)"     style="fill:#3333ff">6-keto-PGF1alpha</text></g><g id="e5700" class="Metabolite LIPID_MAPS_LMFA03010012" transform="translate(57.64 426.18)"  name="6-keto-PGE1" ><rect   width="101.78" height="25" style="stroke:#33f"/><text   transform="translate(50.89 12.5)"     style="fill:#3333ff">6-keto-PGE1</text></g><g id="ba69d" class="Metabolite LIPID_MAPS_LMFA03010035" transform="translate(214.78 571.79)"  name="PGA2" ><rect   width="63.07" height="25" style="stroke:#f33"/><text   transform="translate(31.54 12.5)"     style="fill:#ff3333">PGA2</text></g><g id="f0f1a" class="Metabolite LIPID_MAPS_LMFA03010018" transform="translate(214.78 636.47)"  name="PGB2" ><rect   width="63.07" height="25" style="stroke:#f33"/><text   transform="translate(31.54 12.5)"     style="fill:#ff3333">PGB2</text></g><g id="a6fbc" class="Metabolite LIPID_MAPS_LMFA03010172" transform="translate(58.10 571.79)"  name="15-deoxy-PGA2" ><rect   width="100.85" height="25" style="stroke:#f33"/><text   transform="translate(50.43 12.5)"     style="fill:#ff3333">15-deoxy-PGA2</text></g><g id="e526c" class="Protein " transform="translate(774.15 467.57)"  name="AKR1B1" ><rect   width="56.17" height="25"/><text   transform="translate(28.09 12.5)"    >AKR1B1</text></g><g id="a2374" class="Metabolite LIPID_MAPS_LMFA03010210" transform="translate(301.87 809.97)"  name="Dinor-PGE2" ><rect   width="90.52" height="25" style="stroke:#f00"/><text   transform="translate(45.26 12.5)"     style="fill:#f00">Dinor-PGE2</text></g><g id="dec7a" class="Metabolite LIPID_MAPS_LMFA03010211" transform="translate(301.34 953.37)"  name="Tetranor-PGE2" ><rect   width="91.58" height="25" style="stroke:#f00"/><text   transform="translate(45.79 12.5)"     style="fill:#f00">Tetranor-PGE2</text></g><g id="ee6a5" class="Metabolite LIPID_MAPS_LMFA03010212" transform="translate(782.49 809.97)"  name="Dinor-PGF2a" ><rect   width="90.52" height="25" style="stroke:#c0c"/><text   transform="translate(45.26 12.5)"     style="fill:#c0c">Dinor-PGF2a</text></g><g id="c5ac3" class="Metabolite LIPID_MAPS_LMFA03010213" transform="translate(781.96 953.37)"  name="Tetranor-PGF2a" ><rect   width="91.58" height="25" style="stroke:#c0c"/><text   transform="translate(45.79 12.5)"     style="fill:#c0c">Tetranor-PGF2a</text></g><g id="f89fd" class="Metabolite LIPID_MAPS_LMFA03010214" transform="translate(953.38 809.97)"  name="Dinor-PGD2" ><rect   width="90.52" height="25" style="stroke:#60c"/><text   transform="translate(45.26 12.5)"     style="fill:#6600cc">Dinor-PGD2</text></g><g id="e85f9" class="Metabolite LIPID_MAPS_LMFA03010215" transform="translate(954.03 953.37)"  name="Tetranor-PGD2" ><rect   width="91.58" height="25" style="stroke:#60c"/><text   transform="translate(45.79 12.5)"     style="fill:#6600cc">Tetranor-PGD2</text></g><g id="fae6b" class="Metabolite LIPID_MAPS_LMFA03010014" transform="translate(415.54 953.37)"  name="20-hydroxy-PGE2" ><rect   width="113.83" height="25" style="stroke:#f00"/><text   transform="translate(56.91 12.5)"     style="fill:#f00">20-hydroxy-PGE2</text></g><g id="e4429" class="Metabolite LIPID_MAPS_LMFA03010029" transform="translate(542.81 953.37)"  name="20-hydroxy-PGF2a" ><rect   width="113.83" height="25" style="stroke:#c0c"/><text   transform="translate(56.91 12.5)"     style="fill:#c0c">20-hydroxy-PGF2a</text></g><g id="cd6d3" class="Metabolite LIPID_MAPS_LMFA03010216" transform="translate(1050.3 953.37)"  name="20-hydroxy-PGD2" ><rect   width="113.83" height="25" style="stroke:#60c"/><text   transform="translate(56.91 12.5)"     style="fill:#6600cc">20-hydroxy-PGD2</text></g><g id="dc6b3" class="Metabolite LIPID_MAPS_LMFA03010021" transform="translate(1367.8 652.48)"  name="15-deoxy-delta-12-PGJ2" ><rect   width="155.29" height="25" style="stroke:#33f"/><text   transform="translate(77.64 12.5)"     style="fill:#3333ff">15-deoxy-delta-12-PGJ2</text></g><g id="ec230" class="Metabolite LIPID_MAPS_LMFA03030001" transform="translate(907.12 397.09)"  name="TXA2" ><rect   width="73.65" height="25" style="stroke:#33f"/><text   transform="translate(36.83 12.5)"     style="fill:#3333ff">TXA2</text></g><g id="b6392" class="Metabolite LIPID_MAPS_LMFA03030002" transform="translate(1043.5 397.09)"  name="TXB2" ><rect   width="73.65" height="25" style="stroke:#33f"/><text   transform="translate(36.83 12.5)"     style="fill:#3333ff">TXB2</text></g><g id="e7139" class="Metabolite LIPID_MAPS_LMFA03030004" transform="translate(1176.5 397.09)"  name="11-dehydro-TXB2" ><rect   width="116.13" height="25" style="stroke:#33f"/><text   transform="translate(58.06 12.5)"     style="fill:#3333ff">11-dehydro-TXB2</text></g><g id="cbf32" class="Metabolite LIPID_MAPS_LMFA03050002" transform="translate(717.81 330.24)"  name="12S-HHTrE" ><rect   width="73.65" height="25" style="stroke:#33f"/><text   transform="translate(36.83 12.5)"     style="fill:#3333ff">12S-HHTrE</text></g><g id="dcaf7" class="GeneProduct " transform="translate(748.33 379.01)"  name="TBXAS1" ><rect   width="59.71" height="25"/><text   transform="translate(29.85 12.5)"    >TBXAS1</text></g><g id="c69e4" class="GeneProduct" transform="translate(1116.8 330.24)"  name="Txdh" ><rect   width="59.71" height="25"/><text   transform="translate(29.85 12.5)"    >Txdh</text></g><g id="d6852" class="Metabolite LIPID_MAPS_LMFA03010030" transform="translate(119.76 809.97)"  name="15-keto-PGE2" ><rect   width="100.85" height="25" style="stroke:#f00"/><text   transform="translate(50.43 12.5)"     style="fill:#f00">15-keto-PGE2</text></g><g id="a3d27" class="Metabolite LIPID_MAPS_LMFA03010026" transform="translate(667.02 809.97)"  name="15-keto-PGF2a" ><rect   width="100.85" height="25" style="stroke:#c0c"/><text   transform="translate(50.43 12.5)"     style="fill:#c0c">15-keto-PGF2a</text></g><g id="c104b" class="Metabolite LIPID_MAPS_LMFA03010022" transform="translate(1192.6 809.97)"  name="15-keto-PGD2" ><rect   width="100.85" height="25" style="stroke:#60c"/><text   transform="translate(50.43 12.5)"     style="fill:#6600cc">15-keto-PGD2</text></g><g id="f5b83" class="Metabolite LIPID_MAPS_LMFA03010031" transform="translate(120.37 951.9)"  name="13,14-dihydro- 15-keto-PGE2" ><rect   width="99.63" height="34.81" style="stroke:#f00"/><text   transform="translate(49.82 17.41)"     style="fill:#f00"><tspan   x="0" y="-6.60">13,14-dihydro-</tspan><tspan   x="0" y="6.60">15-keto-PGE2</tspan></text></g><g id="c3fe5" class="Metabolite LIPID_MAPS_LMFA03010027" transform="translate(663.8 951.78)"  name="13,14-dihydro- 15-keto-PGF2a" ><rect   width="107.3" height="28.18" style="stroke:#c0c"/><text   transform="translate(53.65 14.09)"     style="fill:#c0c"><tspan   x="0" y="-6.60">13,14-dihydro-</tspan><tspan   x="0" y="6.60">15-keto-PGF2a</tspan></text></g><g id="b59f8" class="Metabolite LIPID_MAPS_LMFA03010022" transform="translate(1192.5 948.37)"  name="13,14-dihydro- 15-keto-PGD2" ><rect   width="101.08" height="35.01" style="stroke:#60c"/><text   transform="translate(50.54 17.50)"     style="fill:#6600cc"><tspan   x="0" y="-6.60">13,14-dihydro-</tspan><tspan   x="0" y="6.60">15-keto-PGD2</tspan></text></g><g id="cb0c8" class="GroupGroup" transform="translate(78.50 855.97)"  ><g class="GroupGroup"><g id="bfb70" class="Protein " transform="translate(8 8)"  name="PTGR1" ><rect   width="44.88" height="25"/><text   transform="translate(22.44 12.5)"    >PTGR1</text></g><g id="d4452" class="Protein " transform="translate(8 33)"  name="PTGR2" ><rect   width="44.88" height="25"/><text   transform="translate(22.44 12.5)"    >PTGR2</text></g></g></g><g id="f7082" class="GeneProduct " transform="translate(741.41 673.07)"  name="HPGD" ><rect   width="59.71" height="25"/><text   transform="translate(29.85 12.5)"    >HPGD</text></g><g id="f5f4f" class="GroupGroup" transform="translate(491.69 675.37)"  ><g class="GroupGroup"><g id="f007f" class="Protein " transform="translate(8 8)"  name="CYP4A11" ><rect   width="71.58" height="25"/><text   transform="translate(35.79 12.5)"    >CYP4A11</text></g><g id="cdbf8" class="Protein " transform="translate(8,33)"  name="CYP4A22" ><rect   width="71.58" height="25"/><text   transform="translate(35.79 12.5)"    >CYP4A22</text></g><g id="b6dd2" class="Protein " transform="translate(8 58)"  name="CYP4A22" ><rect   width="71.58" height="25"/><text   transform="translate(35.79 12.5)"    >CYP4A22</text></g><g id="a5849" class="Protein " transform="translate(8 83)"  name="CYP4F12" ><rect   width="71.58" height="25"/><text   transform="translate(35.79 12.5)"    >CYP4F12</text></g><g id="ba642" class="Protein " transform="translate(8 108)"  name="CYP4F2" ><rect   width="71.58" height="25"/><text   transform="translate(35.79 12.5)"    >CYP4F2</text></g></g></g><g id="afc08" class="GeneProduct " transform="translate(1270 680.28)"  name="HPGD" ><rect   width="59.71" height="25"/><text   transform="translate(29.85 12.5)"    >HPGD</text></g><g id="f76c0" class="GroupGroup" transform="translate(872.87 754.36)"  ><g class="GroupGroup"><g id="f9c45" class="Protein " transform="translate(8 8)"  name="ACOX1" ><rect   width="65.03" height="25"/><text   transform="translate(32.51 12.5)"    >ACOX1</text></g><g id="f0ca7" class="Protein " transform="translate(8 33)"  name="ACOX2" ><rect   width="65.03" height="25"/><text   transform="translate(32.51 12.5)"    >ACOX2</text></g><g id="fb61f" class="Protein " transform="translate(8 58)"  name="ACOX3" ><rect   width="65.03" height="25"/><text   transform="translate(32.51 12.5)"    >ACOX3</text></g><g id="b3e81" class="Protein " transform="translate(8 83)"  name="ACAA1" ><rect   width="65.03" height="25"/><text   transform="translate(32.51 12.5)"    >ACAA1</text></g><g id="eb8b6" class="Protein " transform="translate(8 108)"  name="EHHADH" ><rect   width="65.03" height="25"/><text   transform="translate(32.51 12.5)"    >EHHADH</text></g></g></g><g id="d4f38" class="Protein " transform="translate(201.32 512.89)"  name="PTGIR" ><rect   width="90" height="25" style="stroke:#063"/><text   transform="translate(45,12.5)"     style="fill:#006633">PTGIR</text></g><g id="e8231" class="Edge"  ><path    d="m368.76 451.18-77.44 74.21" style="marker-end:url(#memstimulation000)"/></g><g id="b929d" class="Protein" transform="translate(30.60 763.23)"  name="PPAR gamma" ><rect   width="90" height="25" style="stroke:#f90"/><text   transform="translate(45,12.5)"     style="fill:#ff9900">PPAR gamma</text></g><g id="d64e5" class="Edge"  ><path    d="m119.76 822.47h-44.16v-34.24" style="marker-end:url(#memstimulation000)"/></g><g id="b68f7" class="Protein " transform="translate(604.83 521.29)"  name="PRXL2B" ><rect   width="56.17" height="25"/><text   transform="translate(28.09 12.5)"    >PRXL2B</text></g><g id="fcbe1" class="Protein " transform="translate(617.52 613)"  name="PTGFR" ><rect   width="90" height="25" style="stroke:#063"/><text   transform="translate(45,12.5)"     style="fill:#006633">PTGFR</text></g><g id="ca4ec" class="Edge"  ><path    d="m700.77 596.36-38.24 16.64" style="marker-end:url(#memstimulation000)"/></g><g id="b0079" class="Edge"  ><path    d="m954.03 533.79h-293.03" style="marker-end:url(#memstimulation000)"/></g><g id="da7fc" class="Protein" transform="translate(1180.4 431.39)"  name="PPAR gamma" ><rect   width="90" height="25" style="stroke:#f90"/><text   transform="translate(45,12.5)"     style="fill:#ff9900">PPAR gamma</text></g><g id="b32aa" class="Edge"  ><path    d="m1225.4 492.87v-36.47" style="marker-end:url(#memstimulation000)"/></g><g id="f4d1c" class="Protein " transform="translate(1008.5 613)"  name="PTGDR" ><rect   width="60.37" height="25" style="stroke:#063"/><text   transform="translate(30.18 12.5)"     style="fill:#006633">PTGDR</text></g><g id="c30cb" class="Protein " transform="translate(1141 613)"  name="PTGDR2" ><rect   width="60.37" height="25" style="stroke:#063"/><text   transform="translate(30.18 12.5)"     style="fill:#006633">PTGDR2</text></g><g id="a9c10" class="Edge"  ><path    d="m1088.9 593.42-50.25 19.58" style="marker-end:url(#memstimulation000)"/></g><g id="ff048" class="Edge"  ><path    d="m1125.4 593.42 45.74 19.58" style="marker-end:url(#memstimulation000)"/></g><g id="eed61" class="Protein " transform="translate(898.95 330.24)"  name="TBXA2R" ><rect   width="90" height="25" style="stroke:#063"/><text   transform="translate(45,12.5)"     style="fill:#006633">TBXA2R</text></g><g id="a6af9" class="Edge"  ><path    d="m943.95 397.09v-41.85" style="marker-end:url(#memstimulation000)"/></g><g id="c2d3a" class="GroupGroup" transform="translate(366.97 155.11)"  ><g class="GroupGroup"><g id="d7c43" class="Protein " transform="translate(8,8)"  name="PTGS1" ><rect   width="57.05" height="25"/><text   transform="translate(28.52 12.5)"    >PTGS1</text></g><g id="ba8b1" class="Protein" transform="translate(8,33)"  name="AAS" ><rect   width="57.05" height="25"/><text   transform="translate(28.52 12.5)"    >AAS</text></g></g></g><g id="d4421" class="Metabolite LIPID_MAPS_LMFA03060001" transform="translate(350.5 234.69)"  name="15(S)-HETE" ><rect   width="90" height="25" style="stroke:#00f"/><text   transform="translate(45,12.5)"     style="fill:#00f">15(S)-HETE</text></g><g id="c3a76" class="Metabolite LIPID_MAPS_LMFA03060030" transform="translate(350.5 124.42)"  name="15(R)-HETE" ><rect   width="90" height="25" style="stroke:#00f"/><text   transform="translate(45,12.5)"     style="fill:#00f">15(R)-HETE</text></g><g id="c5e68" class="Edge"  ><path    d="m527.45 195.68-86.96 45.26" style="marker-end:url(#memconversion000)"/><g id="f08f0" class="AB" transform="translate(492.67 213.78)"  ><g class="AB"/></g></g><g id="f3be6" class="Edge"  ><path    d="m440.02 188.11 52.65-20.93" style="marker-end:url(#memcatalysis000)"/></g><g id="aafa2" class="GroupGroup" transform="translate(785.9 90.58)"  ><g class="GroupGroup"><g id="f2dce" class="Protein " transform="translate(8 8)"  name="PTGS1" ><rect   width="57.05" height="25"/><text   transform="translate(28.52 12.5)"    >PTGS1</text></g><g id="ae1ca" class="Protein" transform="translate(8 33)"  name="AAS" ><rect   width="57.05" height="25"/><text   transform="translate(28.52 12.5)"    >AAS</text></g></g></g><g id="b0dab" class="Edge"  ><path    d="m822.42 156.58-1.15 32.27" style="marker-end:url(#memcatalysis000)"/></g></g></g></g></svg>