<?xml version="1.0" encoding="UTF-8"?>
<svg xmlns="http://www.w3.org/2000/svg" id="-svg" class="Diagram"  baseProfile="full" prefix="schema:http://schema.org/" preserveAspectRatio="xMidYMid"  version="1.1"><defs><g id="icon-defs"><symbol id="Octagon" class=" Icon Octagon" x="0" y="0" overflow="visible" preserveAspectRatio="none" viewBox="0 0 100 100"><desc>Octagon</desc><path d="m0 25 25-25h50l25 25v50l-25 25h-50l-25-25z" vector-effect="non-scaling-stroke"/></symbol></g><g id="marker-defs"><marker id="mea000f8f8f0" markerHeight="12" markerWidth="12" orient="auto" preserveAspectRatio="none" refX="12" refY="6" viewBox="0 0 12 12"><g id="g-mea000f8f8f0" transform=""><g transform="rotate(180 6 6)"><rect y="5.4" width="2" height="1.2" style="fill:#f8f8f0;stroke:#f8f8f0"/><polygon points="12 11 0 6 12 1" stroke-width="0"/></g></g></marker></g></defs><g id="viewport-20220102144351527" class="svg-pan-zoom_viewport" transform="matrix(0.99 0 0 0.99 243 0)" style="transform:matrix(0.99, 0, 0, 0.99, 243, 0)"><style>svg.Diagram {font-family: 'Liberation Sans', Arial, sans-serif; }.Diagram path {fill: transparent;stroke: #000;marker-end: url(#mea);}.Diagram symbol path {fill: inherit;stroke: inherit;stroke-width: inherit;marker-end: inherit;}.Diagram rect {fill: #fff;stroke: #000;}.Diagram text {dominant-baseline: central;overflow: hidden;text-anchor: middle;fill: #000;font-size: 10px;}</style><style type="text/css">.Viewport .textContent {
  pointer-events: none;
  stroke-width: 0px;
}

					.Viewport.Icon {
  fill: white;
}

/* Hide the InfoBox */
.Viewport.textContent {
  font-size: 0;
}

.textContent {
  stroke: none;
}

.DataNode {
  stroke-miterlimit: 1;
  pointer-events: auto;
}

.DataNode:hover {
  cursor: pointer;
}

/* TODO should this apply to things other than DataNodes? */
.DataNode.textContent {
  pointer-events: none;
}

.DataNode.Highlighted {
  opacity: 0.6;
  stroke-width: 0px;
}

marker {
  /* this is what should work per the spec
  stroke-dasharray: none; */
  /* but I need to add this to make it work in Safari */
  stroke-dasharray: 9999999999999999999999999;
}

.Citation.Icon {
  fill: none;
  stroke-width: 0px;
}

.Citation.textContent {
  text-align: center;
  vertical-align: top;
  font-size: 7px;
  fill: #999;
  fill-opacity: 1;
  stroke: none;
}</style><g id="WP477" class="Pathway http___identifiers_org_pw_PW_0001066 Viewport"  name="Name: Cytoplasmic ribosomal proteins Organism: Homo sapiens" ><g class="Pathway http___identifiers_org_pw_PW_0001066 Viewport"><rect   width="721.33" height="721.33" style="stroke:none"/><g id="f820f" class="GroupComplex" transform="translate(328 222.67)"  ><g class="GroupComplex"><use class="Icon" width="157.33" height="144.00" fill="#b4b464" fill-opacity=".1" stroke="grey" href="#Octagon"/><g id="b86bd" class="Edge"  ><path    d="m95.33 68.67 50-5e-14" style="marker-end:url(#mea000f8f8f0)"/></g><g id="cb5" class="GeneProduct " transform="translate(12 72)"  name="RPS6KA2" ><rect   width="66.67" height="20"/><text   transform="translate(33.33 10)"    >RPS6KA2</text></g><g id="cdf" class="GeneProduct " transform="translate(12 52)"  name="RPS6KA1" ><rect   width="66.67" height="20"/><text   transform="translate(33.33 10)"    >RPS6KA1</text></g><g id="d70" class="GeneProduct " transform="translate(12 92)"  name="RPS6KA3" ><rect   width="66.67" height="20"/><text   transform="translate(33.33 10)"    >RPS6KA3</text></g><g id="c8e" class="GeneProduct " transform="translate(12 112)"  name="RPS6KA6" ><rect   width="66.67" height="20"/><text   transform="translate(33.33 10)"    >RPS6KA6</text></g><g id="ff3" class="GeneProduct " transform="translate(12,12)"  name="RPS6KB1" ><rect   width="66.67" height="20"/><text   transform="translate(33.33 10)"    >RPS6KB1</text></g><g id="ff0" class="GeneProduct " transform="translate(12 32)"  name="RPS6KB2" ><rect   width="66.67" height="20"/><text   transform="translate(33.33 10)"    >RPS6KB2</text></g></g></g><g id="c6783" class="GroupComplex" transform="translate(491.33 103.17)"  ><g class="GroupComplex"><use class="Icon" width="204" height="390.17" fill="#b4b464" fill-opacity=".1" stroke="grey" href="#Octagon"/><g id="db7" class="Label" transform="translate(14.83 12)"  name="Small (40S) Subunit" ><g class="Label"/><text   transform="translate(77.17 9.5)"    font-weight="bold"  style="font-size:12px">Small (40S) Subunit</text></g><g id="b42" class="GeneProduct " transform="translate(12 38.17)"  name="RPSA" ><rect   width="60" height="20"/><text   transform="translate(30,10)"    >RPSA</text></g><g id="c9c" class="GeneProduct " transform="translate(12 78.17)"  name="RPS3" ><rect   width="60" height="20"/><text   transform="translate(30,10)"    >RPS3</text></g><g id="ab2" class="GeneProduct " transform="translate(12 238.17)"  name="RPS9" ><rect   width="60" height="20"/><text   transform="translate(30,10)"    >RPS9</text></g><g id="f91" class="GeneProduct " transform="translate(12 158.17)"  name="RPS5" ><rect   width="60" height="20"/><text   transform="translate(30,10)"    >RPS5</text></g><g id="c67" class="GeneProduct " transform="translate(132 58.17)"  name="RPS15A" ><rect   width="60" height="20"/><text   transform="translate(30,10)"    >RPS15A</text></g><g id="cc0" class="GeneProduct " transform="translate(132 78.17)"  name="RPS16" ><rect   width="60" height="20"/><text   transform="translate(30,10)"    >RPS16</text></g><g id="f82" class="GeneProduct " transform="translate(132 158.17)"  name="RPS20" ><rect   width="60" height="20"/><text   transform="translate(30,10)"    >RPS20</text></g><g id="a79" class="GeneProduct " transform="translate(12 338.17)"  name="RPS14" ><rect   width="60" height="20"/><text   transform="translate(30,10)"    >RPS14</text></g><g id="b91" class="GeneProduct " transform="translate(132 198.17)"  name="RPS23" ><rect   width="60" height="20"/><text   transform="translate(30,10)"    >RPS23</text></g><g id="e6a" class="GeneProduct " transform="translate(132 338.17)"  name="RPS29" ><rect   width="60" height="20"/><text   transform="translate(30,10)"    >RPS29</text></g><g id="aa2" class="GeneProduct " transform="translate(12 318.17)"  name="RPS13" ><rect   width="60" height="20"/><text   transform="translate(30,10)"    >RPS13</text></g><g id="feb" class="GeneProduct " transform="translate(12 278.17)"  name="RPS11" ><rect   width="60" height="20"/><text   transform="translate(30,10)"    >RPS11</text></g><g id="c0e" class="GeneProduct " transform="translate(132 38.17)"  name="RPS15" ><rect   width="60" height="20"/><text   transform="translate(30,10)"    >RPS15</text></g><g id="b39" class="GeneProduct " transform="translate(12 98.17)"  name="RPS3A" ><rect   width="60" height="20"/><text   transform="translate(30,10)"    >RPS3A</text></g><g id="f7a" class="GeneProduct " transform="translate(12 118.17)"  name="RPS4X" ><rect   width="60" height="20"/><text   transform="translate(30,10)"    >RPS4X</text></g><g id="ac3" class="GeneProduct " transform="translate(12 138.17)"  name="RPS4Y1" ><rect   width="60" height="20"/><text   transform="translate(30,10)"    >RPS4Y1</text></g><g id="db8" class="GeneProduct " transform="translate(12 178.17)"  name="RPS6" ><rect   width="60" height="20"/><text   transform="translate(30,10)"    >RPS6</text></g><g id="b8f" class="GeneProduct " transform="translate(12 198.17)"  name="RPS7" ><rect   width="60" height="20"/><text   transform="translate(30,10)"    >RPS7</text></g><g id="dab" class="GeneProduct " transform="translate(12 218.17)"  name="RPS8" ><rect   width="60" height="20"/><text   transform="translate(30,10)"    >RPS8</text></g><g id="ae1" class="GeneProduct " transform="translate(12 258.17)"  name="RPS10" ><rect   width="60" height="20"/><text   transform="translate(30,10)"    >RPS10</text></g><g id="eae" class="GeneProduct " transform="translate(12 298.17)"  name="RPS12" ><rect   width="60" height="20"/><text   transform="translate(30,10)"    >RPS12</text></g><g id="fa9" class="GeneProduct " transform="translate(132 98.17)"  name="RPS17" ><rect   width="60" height="20"/><text   transform="translate(30,10)"    >RPS17</text></g><g id="f1f" class="GeneProduct " transform="translate(132 138.17)"  name="RPS19" ><rect   width="60" height="20"/><text   transform="translate(30,10)"    >RPS19</text></g><g id="de3" class="GeneProduct " transform="translate(132 178.17)"  name="RPS21" ><rect   width="60" height="20"/><text   transform="translate(30,10)"    >RPS21</text></g><g id="f16" class="GeneProduct " transform="translate(132 218.17)"  name="RPS24" ><rect   width="60" height="20"/><text   transform="translate(30,10)"    >RPS24</text></g><g id="c27" class="GeneProduct " transform="translate(132 238.17)"  name="RPS25" ><rect   width="60" height="20"/><text   transform="translate(30,10)"    >RPS25</text></g><g id="bff" class="GeneProduct " transform="translate(132 258.17)"  name="RPS26" ><rect   width="60" height="20"/><text   transform="translate(30,10)"    >RPS26</text></g><g id="c5f" class="GeneProduct " transform="translate(132 278.17)"  name="RPS27" ><rect   width="60" height="20"/><text   transform="translate(30,10)"    >RPS27</text></g><g id="f94" class="GeneProduct " transform="translate(132 298.17)"  name="RPS27A" ><rect   width="60" height="20"/><text   transform="translate(30,10)"    >RPS27A</text></g><g id="e51" class="GeneProduct " transform="translate(132 318.17)"  name="RPS28" ><rect   width="60" height="20"/><text   transform="translate(30,10)"    >RPS28</text></g><g id="ae9" class="GeneProduct " transform="translate(132 358.17)"  name="FAU" ><rect   width="60" height="20"/><text   transform="translate(30,10)"    >FAU</text></g><g id="cdd" class="GeneProduct " transform="translate(12 58.17)"  name="RPS2" ><rect   width="60" height="20"/><text   transform="translate(30,10)"    >RPS2</text></g><g id="ed0" class="GeneProduct " transform="translate(132 118.17)"  name="RPS18" ><rect   width="60" height="20"/><text   transform="translate(30,10)"    >RPS18</text></g></g></g><g id="f54f3" class="GroupComplex" transform="translate(1.33 103.17)"  ><g class="GroupComplex"><use class="Icon" width="197.33" height="600.17" fill="#b4b464" fill-opacity=".1" stroke="grey" href="#Octagon"/><g id="fb5" class="Label" transform="translate(23.83 12)"  name="Large (60S) Subunit" ><g class="Label"/><text   transform="translate(78.17 9.5)"    font-weight="bold"  style="font-size:12px">Large (60S) Subunit</text></g><g id="adc" class="GeneProduct " transform="translate(125.33 378.17)"  name="RPL37A" ><rect   width="60" height="20"/><text   transform="translate(30,10)"    >RPL37A</text></g><g id="ac5" class="GeneProduct " transform="translate(12 238.17)"  name="RPL10A" ><rect   width="60" height="20"/><text   transform="translate(30,10)"    >RPL10A</text></g><g id="b2a" class="GeneProduct " transform="translate(12 178.17)"  name="RPL8" ><rect   width="60" height="20"/><text   transform="translate(30,10)"    >RPL8</text></g><g id="b46" class="GeneProduct " transform="translate(12 38.17)"  name="RPL3" ><rect   width="60" height="20"/><text   transform="translate(30,10)"    >RPL3</text></g><g id="fe2" class="GeneProduct " transform="translate(12 58.17)"  name="RPL3L" ><rect   width="60" height="20"/><text   transform="translate(30,10)"    >RPL3L</text></g><g id="e61" class="GeneProduct " transform="translate(12 198.17)"  name="RPL9" ><rect   width="60" height="20"/><text   transform="translate(30,10)"    >RPL9</text></g><g id="f81" class="GeneProduct " transform="translate(12 278.17)"  name="RPL12" ><rect   width="60" height="20"/><text   transform="translate(30,10)"    >RPL12</text></g><g id="fe8" class="GeneProduct " transform="translate(72 548.17)"  name="RPLP2" ><rect   width="60" height="20"/><text   transform="translate(30,10)"    >RPLP2</text></g><g id="fca" class="GeneProduct " transform="translate(72 528.17)"  name="RPLP1" ><rect   width="60" height="20"/><text   transform="translate(30,10)"    >RPLP1</text></g><g id="fd8" class="GeneProduct " transform="translate(12 318.17)"  name="RPL13A" ><rect   width="60" height="20"/><text   transform="translate(30,10)"    >RPL13A</text></g><g id="ba2" class="GeneProduct " transform="translate(125.33 58.17)"  name="RPL23" ><rect   width="60" height="20"/><text   transform="translate(30,10)"    >RPL23</text></g><g id="fb9" class="GeneProduct " transform="translate(125.33 158.17)"  name="RPL27A" ><rect   width="60" height="20"/><text   transform="translate(30,10)"    >RPL27A</text></g><g id="e68" class="GeneProduct " transform="translate(72 568.17)"  name="MRPL19" ><rect   width="60" height="20"/><text   transform="translate(30,10)"    >MRPL19</text></g><g id="b0a" class="GeneProduct " transform="translate(12 378.17)"  name="RPL17" ><rect   width="60" height="20"/><text   transform="translate(30,10)"    >RPL17</text></g><g id="b98" class="GeneProduct " transform="translate(125.33 78.17)"  name="RPL23A" ><rect   width="60" height="20"/><text   transform="translate(30,10)"    >RPL23A</text></g><g id="f6b" class="GeneProduct " transform="translate(125.33 118.17)"  name="RPL26" ><rect   width="60" height="20"/><text   transform="translate(30,10)"    >RPL26</text></g><g id="d58" class="GeneProduct " transform="translate(125.33 298.17)"  name="RPL35" ><rect   width="60" height="20"/><text   transform="translate(30,10)"    >RPL35</text></g><g id="b2c" class="GeneProduct " transform="translate(12 138.17)"  name="RPL7" ><rect   width="60" height="20"/><text   transform="translate(30,10)"    >RPL7</text></g><g id="a12" class="GeneProduct " transform="translate(12 78.17)"  name="RPL4" ><rect   width="60" height="20"/><text   transform="translate(30,10)"    >RPL4</text></g><g id="c5c" class="GeneProduct " transform="translate(12 118.17)"  name="RPL6" ><rect   width="60" height="20"/><text   transform="translate(30,10)"    >RPL6</text></g><g id="aa3" class="GeneProduct " transform="translate(12 158.17)"  name="RPL7A" ><rect   width="60" height="20"/><text   transform="translate(30,10)"    >RPL7A</text></g><g id="c39" class="GeneProduct " transform="translate(12 298.17)"  name="RPL13" ><rect   width="60" height="20"/><text   transform="translate(30,10)"    >RPL13</text></g><g id="c74" class="GeneProduct " transform="translate(12 338.17)"  name="RPL14" ><rect   width="60" height="20"/><text   transform="translate(30,10)"    >RPL14</text></g><g id="a93" class="GeneProduct " transform="translate(12 358.17)"  name="RPL15" ><rect   width="60" height="20"/><text   transform="translate(30,10)"    >RPL15</text></g><g id="bf1" class="GeneProduct " transform="translate(12 418.17)"  name="RPL18A" ><rect   width="60" height="20"/><text   transform="translate(30,10)"    >RPL18A</text></g><g id="e05" class="GeneProduct " transform="translate(12 398.17)"  name="RPL18" ><rect   width="60" height="20"/><text   transform="translate(30,10)"    >RPL18</text></g><g id="c34" class="GeneProduct " transform="translate(12 438.17)"  name="RPL19" ><rect   width="60" height="20"/><text   transform="translate(30,10)"    >RPL19</text></g><g id="afa" class="GeneProduct " transform="translate(12 458.17)"  name="RPL21" ><rect   width="60" height="20"/><text   transform="translate(30,10)"    >RPL21</text></g><g id="c9f" class="GeneProduct " transform="translate(125.33 38.17)"  name="RPL22" ><rect   width="60" height="20"/><text   transform="translate(30,10)"    >RPL22</text></g><g id="ce9" class="GeneProduct " transform="translate(125.33 98.17)"  name="RPL24" ><rect   width="60" height="20"/><text   transform="translate(30,10)"    >RPL24</text></g><g id="e48" class="GeneProduct " transform="translate(125.33 138.17)"  name="RPL27" ><rect   width="60" height="20"/><text   transform="translate(30,10)"    >RPL27</text></g><g id="e93" class="GeneProduct " transform="translate(125.33 178.17)"  name="RPL28" ><rect   width="60" height="20"/><text   transform="translate(30,10)"    >RPL28</text></g><g id="b24" class="GeneProduct " transform="translate(125.33 198.17)"  name="RPL29" ><rect   width="60" height="20"/><text   transform="translate(30,10)"    >RPL29</text></g><g id="f25" class="GeneProduct " transform="translate(125.33 238.17)"  name="RPL31" ><rect   width="60" height="20"/><text   transform="translate(30,10)"    >RPL31</text></g><g id="ad8" class="GeneProduct " transform="translate(125.33 258.17)"  name="RPL32" ><rect   width="60" height="20"/><text   transform="translate(30,10)"    >RPL32</text></g><g id="a09" class="GeneProduct " transform="translate(125.33 278.17)"  name="RPL34" ><rect   width="60" height="20"/><text   transform="translate(30,10)"    >RPL34</text></g><g id="a96" class="GeneProduct " transform="translate(125.33 318.17)"  name="RPL35A" ><rect   width="60" height="20"/><text   transform="translate(30,10)"    >RPL35A</text></g><g id="dbc" class="GeneProduct " transform="translate(125.33 338.17)"  name="RPL36" ><rect   width="60" height="20"/><text   transform="translate(30,10)"    >RPL36</text></g><g id="d85" class="GeneProduct " transform="translate(125.33 358.17)"  name="RPL37" ><rect   width="60" height="20"/><text   transform="translate(30,10)"    >RPL37</text></g><g id="be2" class="GeneProduct " transform="translate(125.33 398.17)"  name="RPL38" ><rect   width="60" height="20"/><text   transform="translate(30,10)"    >RPL38</text></g><g id="f39" class="GeneProduct " transform="translate(125.33 418.17)"  name="RPL39" ><rect   width="60" height="20"/><text   transform="translate(30,10)"    >RPL39</text></g><g id="e14" class="GeneProduct " transform="translate(125.33 438.17)"  name="UBA52" ><rect   width="60" height="20"/><text   transform="translate(30,10)"    >UBA52</text></g><g id="e30" class="GeneProduct " transform="translate(125.33 458.17)"  name="RPL41" ><rect   width="60" height="20"/><text   transform="translate(30,10)"    >RPL41</text></g><g id="d68" class="GeneProduct " transform="translate(125.33 478.17)"  name="RPL36A" ><rect   width="60" height="20"/><text   transform="translate(30,10)"    >RPL36A</text></g><g id="f6c" class="GeneProduct " transform="translate(72 508.17)"  name="RPLP0" ><rect   width="60" height="20"/><text   transform="translate(30,10)"    >RPLP0</text></g><g id="bc5" class="GeneProduct " transform="translate(12 258.17)"  name="RPL11" ><rect   width="60" height="20"/><text   transform="translate(30,10)"    >RPL11</text></g><g id="ddc" class="GeneProduct " transform="translate(12 98.17)"  name="RPL5" ><rect   width="60" height="20"/><text   transform="translate(30,10)"    >RPL5</text></g><g id="f76" class="GeneProduct " transform="translate(12 218.17)"  name="RPL10" ><rect   width="60" height="20"/><text   transform="translate(30,10)"    >RPL10</text></g><g id="f2a" class="GeneProduct " transform="translate(125.33 218.17)"  name="RPL30" ><rect   width="60" height="20"/><text   transform="translate(30,10)"    >RPL30</text></g></g></g></g></g></g></svg>