<?xml version="1.0" encoding="UTF-8"?>
<svg xmlns="http://www.w3.org/2000/svg" id="-svg" class="Diagram"  baseProfile="full" prefix="schema:http://schema.org/" preserveAspectRatio="xMidYMid"  version="1.1"><defs><g id="filter-defs"><filter id="doublefalse3filter" x="-50%" y="-50%" width="200%" height="200%"><feComposite in="SourceGraphic" in2="SourceGraphic" result="doubleDark"/><feMorphology in="doubleDark" operator="dilate" radius="0.17" result="in2Double"/><feMorphology in="SourceGraphic" operator="dilate" radius="3" result="inDouble"/><feComposite in="inDouble" in2="in2Double" operator="out" result="doubleResult"/></filter></g><g id="icon-defs"><symbol id="Octagon" class=" Icon Octagon" x="0" y="0" overflow="visible" preserveAspectRatio="none" viewBox="0 0 100 100"><desc>Octagon</desc><path d="m0 25 25-25h50l25 25v50l-25 25h-50l-25-25z" vector-effect="non-scaling-stroke"/></symbol></g><g id="marker-defs"><marker id="markerstartarrow000" markerHeight="12" markerWidth="12" orient="auto" preserveAspectRatio="none" refY="6" viewBox="0 0 12 12"><g id="g-markerstartarrow000" transform="rotate(180 6 6)"><g transform="rotate(180 6 6)"><rect y="5.4" width="2" height="1.2" style="stroke:#fff"/><polygon points="12 11 0 6 12 1" stroke-width="0"/></g></g></marker><marker id="mea" markerHeight="12" markerWidth="12" orient="auto" preserveAspectRatio="none" refX="12" refY="6" viewBox="0 0 12 12"><g id="g-mea" transform=""><g transform="rotate(180 6 6)"><rect y="5.4" width="2" height="1.2" style="stroke:#fff"/><polygon points="12 11 0 6 12 1" stroke-width="0"/></g></g></marker><marker id="memstimulation000" markerHeight="12" markerWidth="12" orient="auto" preserveAspectRatio="none" refX="12" refY="6" viewBox="0 0 12 12"><g id="g-memstimulation000" transform=""><g transform="rotate(180 6 6)"><rect y="5.4" width="2" height="1.2" style="stroke:none"/><line x1="12" x2="12" y1="6" y2="6" fill="none"/><polygon points="0 6 11 11 11 1" fill="#fff" stroke="#000"/></g></g></marker><marker id="meminhibition000" markerHeight="20" markerWidth="10" orient="auto" preserveAspectRatio="none" refX="10" refY="10" viewBox="0 0 10 20"><g id="g-meminhibition000" transform=""><g transform="rotate(180 5 10)"><rect y="9" width="8" height="2" style="stroke:none"/><line x="0" y="0" width="12" height="12" x1="7" x2="7" y2="20" stroke="#000" stroke-width="1.8"/></g></g></marker><marker id="membinding000" markerHeight="12" markerWidth="12" orient="auto" preserveAspectRatio="none" refX="12" refY="6" viewBox="0 0 12 12"><g id="g-membinding000" transform=""><g transform="rotate(180 6 6)"><rect y="5.4" width="2" height="1.2" style="stroke:#fff"/><polygon points="12 12 0 6 12 0 5 6" stroke-width="0"/></g></g></marker><marker id="markerendtbar000" markerHeight="20" markerWidth="10" orient="auto" preserveAspectRatio="none" refX="10" refY="10" viewBox="0 0 10 20"><g id="g-markerendtbar000" transform=""><g transform="rotate(180 5 10)"><rect y="9" width="8" height="2" style="stroke:none"/><line x="0" y="0" width="12" height="12" x1="7" x2="7" y2="20" stroke="#000" stroke-width="1.8"/></g></g></marker><marker id="memstimulation000000f8f8f0" markerHeight="12" markerWidth="12" orient="auto" preserveAspectRatio="none" refX="12" refY="6" viewBox="0 0 12 12"><g id="g-memstimulation000000f8f8f0" transform=""><g transform="rotate(180 6 6)"><rect y="5.4" width="2" height="1.2" style="fill:#f8f8f0;stroke:none"/><line x1="12" x2="12" y1="6" y2="6" fill="none"/><polygon points="0 6 11 11 11 1" fill="#f8f8f0" stroke="#000"/></g></g></marker><marker id="membinding000000f8f8f0" markerHeight="12" markerWidth="12" orient="auto" preserveAspectRatio="none" refX="12" refY="6" viewBox="0 0 12 12"><g id="g-membinding000000f8f8f0" transform=""><g transform="rotate(180 6 6)"><rect y="5.4" width="2" height="1.2" style="fill:#f8f8f0;stroke:#f8f8f0"/><polygon points="12 12 0 6 12 0 5 6" stroke-width="0"/></g></g></marker></g></defs><g id="viewport-20220102144444269" class="svg-pan-zoom_viewport" transform="matrix(1.06 0 0 1.06 101.98 0)" style="transform:matrix(1.06, 0, 0, 1.06, 101.98, 0)"><style>svg.Diagram {font-family: 'Liberation Sans', Arial, sans-serif; }.Diagram path {fill: transparent;stroke: #000;marker-end: url(#mea);}.Diagram symbol path {fill: inherit;stroke: inherit;stroke-width: inherit;marker-end: inherit;}.Diagram rect {fill: #fff;stroke: #000;}.Diagram text {dominant-baseline: central;overflow: hidden;text-anchor: middle;fill: #000;font-size: 12px;}</style><style type="text/css">.Viewport .textContent {
  pointer-events: none;
  stroke-width: 0px;
}

					.Viewport.Icon {
  fill: white;
}

/* Hide the InfoBox */
.Viewport.textContent {
  font-size: 0;
}

.textContent {
  stroke: none;
}

.DataNode {
  stroke-miterlimit: 1;
  pointer-events: auto;
}

.DataNode:hover {
  cursor: pointer;
}

/* TODO should this apply to things other than DataNodes? */
.DataNode.textContent {
  pointer-events: none;
}

.DataNode.Highlighted {
  opacity: 0.6;
  stroke-width: 0px;
}

marker {
  /* this is what should work per the spec
  stroke-dasharray: none; */
  /* but I need to add this to make it work in Safari */
  stroke-dasharray: 9999999999999999999999999;
}

.Citation.Icon {
  fill: none;
  stroke-width: 0px;
}

.Citation.textContent {
  text-align: center;
  vertical-align: top;
  font-size: 7px;
  fill: #999;
  fill-opacity: 1;
  stroke: none;
}</style><g id="WP4830" class="Pathway http___identifiers_org_pw_PW_0000004 Viewport"  name="Name: GDNF/RET signaling axis Organism: Homo sapiens" ><g class="Pathway http___identifiers_org_pw_PW_0000004 Viewport"><rect   width="936.86" height="671.57" style="stroke:none"/><g id="e6726" class="Edge"  ><path    d="m338.1 583.57h272"/></g><g id="fcc07" class="GroupComplex" transform="translate(237.9 303.02)"  ><g class="GroupComplex"><use class="Icon" width="406.29" height="89" fill="#b4b464" fill-opacity=".1" stroke="grey" href="#Octagon"/><g id="e5632" class="Edge"  ><path    d="m212.14 37 0.38 27.01" style="marker-end:url(#memstimulation000000f8f8f0)"/></g><g id="b2857" class="Edge"  ><path    d="m304.29 63.59-202.29 0.90" style="marker-end:url(#membinding000000f8f8f0)"/><g id="c4e34" class="AB" transform="translate(212.52 64.01)"  ><g class="AB"/></g></g><g id="d7ab3" class="Protein " transform="translate(12,52)"  name="RET" ><rect   width="90" height="25"/><text   transform="translate(45,12.5)"    >RET</text></g><g id="b2b40" class="Protein " transform="translate(167.14 12)"  name="GFRA1" ><rect   width="90" height="25"/><text   transform="translate(45,12.5)"    >GFRA1</text></g><g id="ebdda" class="GeneProduct " transform="translate(304.29 51.09)"  name="GDNF" ><rect   width="90" height="25"/><text   transform="translate(45,12.5)"    >GDNF</text></g></g></g><g id="a5481" class="Edge"  ><path    d="m294.94 292.2-0.04 62.82" style="marker-end:url(#meminhibition000)"/></g><g id="ed1c1" class="Edge"  ><path    d="m294.46 428.15 0.44-48.13" style="marker-end:url(#memstimulation000)"/></g><g id="eb2a0" class="Edge"  ><path    d="m674.14 366.33-41.95 0.29" style="marker-end:url(#memstimulation000)"/></g><g id="c5040" class="Edge"  ><path    d="m540.42 277.32-53.69 0.14" style="marker-end:url(#markerendtbar000)"/></g><g id="fff50" class="Edge"  ><path    d="m294.24 519.36v-20.71" style="marker-end:url(#memstimulation000)"/></g><g id="e15e1" class="Edge"  ><path    d="m816.86 275.67-186.44 1.65" style="marker-end:url(#meminhibition000)"/></g><g id="fc58b" class="Edge"  ><path    d="m296.6 134.71v-20h-67.13v54.04h20" marker-start="url(#markerstartarrow000)" style="marker-end:none"/></g><g id="f920c" class="Edge"  ><path    d="m682.14 391.33-342.68 49.32" style="marker-end:url(#memstimulation000)"/></g><g id="c661b" class="Edge"  ><path    d="m141.14 367.1 96.76-19.57" style="marker-end:url(#meminhibition000)"/></g><g id="e58d1" class="Edge"  ><path    d="m294.24 245.31 0.70 21.89" style="marker-end:url(#meminhibition000)"/></g><g id="c7da1" class="Edge"  ><path    d="m141.14 367.1 108.76 0.43" style="marker-end:url(#membinding000)"/></g><g id="c18cf" class="Edge"  ><path    d="m294.24 473.64 0.23-20.49" style="marker-end:url(#memstimulation000)"/></g><g id="f848f" class="Edge"  ><path    d="m441.73 264.96-101.82 96.31" style="marker-end:url(#meminhibition000)"/></g><g id="fa065" class="Edge"  ><path    d="m655.1 488.07v-34" style="marker-end:url(#meminhibition000)"/></g><g id="d68c7" class="Edge"  ><path    d="m861.86 235.45 4e-13 27.71" style="marker-end:url(#memstimulation000)"/></g><g id="ef111" class=" PhysicalEntity CellularComponent Cell" transform="translate(207.6 133.21)"  ><g class=" PhysicalEntity CellularComponent Cell" filter="url(#doublefalse3filter)"><g class=" PhysicalEntity CellularComponent Cell"><rect   transform="matrix(0.94 0 0 0.98 5.62 5.86)" width="178" height="509.86" rx="15" ry="15" stroke-width="3" style="fill:transparent;stroke:#c0c0c0"/></g></g></g><g id="b3887" class=" PhysicalEntity CellularComponent Cell" transform="translate(409.44 252.29) rotate(89.86 243.71 141.51)"  ><g class=" PhysicalEntity CellularComponent Cell" filter="url(#doublefalse3filter)"><g class=" PhysicalEntity CellularComponent Cell"><rect   transform="matrix(0.98 0 0 0.96 5.86 5.76)" width="487.41" height="283.01" rx="15" ry="15" stroke-width="3" style="fill:transparent;stroke:#c0c0c0"/></g></g></g><g id="add1d" class="" transform="translate(542.6 414.07)"  ><g class=""><rect   width="229.5" height="211.5" style="fill:transparent"/></g></g><g id="f40f6" class="Label" transform="translate(410.19 562.21)"  name="Repulsion" ><g class="Label"/><text   transform="translate(45,12.5)"     style="font-size:11px">Repulsion</text></g><g id="fda3a" class="Label" transform="translate(624.1 159.07)"  name="Metanephric mesenchyme" ><g class="Label"/><text   transform="translate(77.5,12.5)"     style="font-size:11px">Metanephric mesenchyme</text></g><g id="bc086" class="Label" transform="translate(216.86 87.93)"  name="Maintenance" ><g class="Label"/><text   transform="translate(40.07 17.04)"     style="font-size:11px">Maintenance</text></g><g id="d3b97" class="Label" transform="translate(660.1 604.07)"  name="Nephrogenic cord" ><g class="Label"/><text   transform="translate(61,12.5)"     style="font-size:11px">Nephrogenic cord</text></g><g id="ab6a7" class="Label" transform="translate(290.19 610.79)"  name="Nephric duct" ><g class="Label"/><text   transform="translate(45,12.5)"     style="font-size:11px">Nephric duct</text></g><g id="b70ff" class="GeneProduct " transform="translate(249.94 267.2)"  name="SPRY1" ><rect   width="90" height="25"/><text   transform="translate(45,12.5)"    >SPRY1</text></g><g id="a6a62" class="GroupGroup" transform="translate(602.1 488.07)"  ><g class="GroupGroup"><g id="d624d" class="GeneProduct " transform="translate(8,33)"  name="FOXC1" ><rect   width="90" height="25"/><text   transform="translate(45,12.5)"    >FOXC1</text></g><g id="aef0b" class="GeneProduct " transform="translate(8,8)"  name="SOX11" ><rect   width="90" height="25"/><text   transform="translate(45,12.5)"    >SOX11</text></g><g id="fe3da" class="GeneProduct " transform="translate(8 58)"  name="FOXC2" ><rect   width="90" height="25"/><text   transform="translate(45,12.5)"    >FOXC2</text></g><g id="e84e8" class="GeneProduct " transform="translate(8 83)"  name="ROBO2" ><rect   width="90" height="25"/><text   transform="translate(45,12.5)"    >ROBO2</text></g></g></g><g id="ef705" class="GeneProduct " transform="translate(249.24 519.36)"  name="SOX17" ><rect   width="90" height="25"/><text   transform="translate(45,12.5)"    >SOX17</text></g><g id="c5819" class="GroupGroup" transform="translate(674.14 320.83)"  ><g class="GroupGroup"><g id="e8ca1" class="GeneProduct " transform="translate(8,33)"  name="EYA1" ><rect   width="90" height="25"/><text   transform="translate(45,12.5)"    >EYA1</text></g><g id="b58cb" class="GeneProduct " transform="translate(8,58)"  name="PAX2" ><rect   width="90" height="25"/><text   transform="translate(45,12.5)"    >PAX2</text></g><g id="f5707" class="GeneProduct " transform="translate(8 8)"  name="SALL1" ><rect   width="90" height="25"/><text   transform="translate(45,12.5)"    >SALL1</text></g></g></g><g id="e506f" class="GeneProduct " transform="translate(249.24 220.31)"  name="AGTR2" ><rect   width="90" height="25"/><text   transform="translate(45,12.5)"    >AGTR2</text></g><g id="b0be3" class="GeneProduct " transform="translate(249.46 428.15)"  name="GATA3" ><rect   width="90" height="25"/><text   transform="translate(45,12.5)"    >GATA3</text></g><g id="adf2d" class="GeneProduct " transform="translate(51.14 354.6)"  name="FAT4" ><rect   width="90" height="25"/><text   transform="translate(45,12.5)"    >FAT4</text></g><g id="d7033" class="Protein " transform="translate(816.86 263.17)"  name="GLI3" ><rect   width="90" height="25"/><text   transform="translate(45,12.5)"    >GLI3</text></g><g id="ab560" class="GeneProduct " transform="translate(396.73 264.96)"  name="BMP4" ><rect   width="90" height="25"/><text   transform="translate(45,12.5)"    >BMP4</text></g><g id="cf7c8" class="GroupGroup" transform="translate(808.86 169.45)"  ><g class="GroupGroup"><g id="a1af2" class="Protein " transform="translate(8 33)"  name="IFT27" ><rect   width="90" height="25"/><text   transform="translate(45,12.5)"    >IFT27</text></g><g id="b93b7" class="Protein " transform="translate(8,8)"  name="HSPB11" ><rect   width="90" height="25"/><text   transform="translate(45,12.5)"    >HSPB11</text></g></g></g><g id="d29f8" class="GeneProduct " transform="translate(249.46 156.25)"  name="LHX1" ><rect   width="90" height="25"/><text   transform="translate(45,12.5)"    >LHX1</text></g><g id="a7900" class="GeneProduct " transform="translate(248.1 571.07)"  name="SLIT2" ><rect   width="90" height="25"/><text   transform="translate(45,12.5)"    >SLIT2</text></g><g id="aea6c" class="Protein " transform="translate(249.24 473.64)"  name="CTNNB1" ><rect   width="90" height="25"/><text   transform="translate(45,12.5)"    >CTNNB1</text></g><g id="de67e" class="GeneProduct " transform="translate(540.42 264.82)"  name="GREM1" ><rect   width="90" height="25"/><text   transform="translate(45,12.5)"    >GREM1</text></g><g id="bfad6" class="GeneProduct " transform="translate(610.1 429.07)"  name="GDNF" ><rect   width="90" height="25"/><text   transform="translate(45,12.5)"    >GDNF</text></g></g></g></g></svg>