<?xml version="1.0" encoding="UTF-8"?>
<!--
  WikiPathways page: https://www.wikipathways.org/index.php/Pathway:WP4963
  URL for this compressed file: https://github.com/eweitz/cachome/tree/main/data/WP4963.svg
  Source code for compression: https://github.com/eweitz/cachome/tree/main/src/wikipathways.py
-->
<svg id="wp4963-svg" class="Diagram" width="800" height="600" color="black" baseProfile="full" prefix="schema:http://schema.org/" preserveAspectRatio="xMidYMid" version="1.1" viewBox="0 0 1062.8 781.33" vocab="http://vocabularies.wikipathways.org/wp#" xmlns="http://www.w3.org/2000/svg" xmlns:xlink="http://www.w3.org/1999/xlink"><style>svg {font-family: 'Liberation Sans', Arial, sans-serif; }</style><defs><g id="jit-defs"><filter id="kaaviodoublefalse3filter" x="-50%" y="-50%" width="200%" height="200%"><feComposite in="SourceGraphic" in2="SourceGraphic" result="doubleDark"/><feMorphology in="doubleDark" operator="dilate" radius="0.16666666666666666" result="in2Double"/><feMorphology in="SourceGraphic" operator="dilate" radius="3" result="inDouble"/><feComposite in="inDouble" in2="in2Double" operator="out" result="doubleResult"/></filter><filter id="kaavioblackto000000filter" x="0" y="0" width="1062.8" height="781.33" filterUnits="userSpaceOnUse"><feColorMatrix in="SourceGraphic" values="-1   0   0 0 0                   0  -1   0 0 0                   0   0  -1 0 0                   0   0   0 1 0"/></filter></g><g id="jic-defs"><marker id="markerEndArrow" stroke-dasharray="99999" markerHeight="12" markerUnits="userSpaceOnUse" markerWidth="12" orient="auto" preserveAspectRatio="none" refX="12" refY="6" viewBox="0 0 12 12"><path transform="rotate(180 6 6)" d="M12 11L0 6l12-5z" fill="currentColor" stroke-width="0"/></marker><marker id="markerEndMimConversion" stroke-dasharray="99999" markerHeight="12" markerUnits="userSpaceOnUse" markerWidth="12" orient="auto" preserveAspectRatio="none" refX="12" refY="6" viewBox="0 0 12 12"><path transform="rotate(180 6 6)" d="M12 11L0 6l12-5z" fill="currentColor" stroke-width="0"/></marker><symbol id="Octagon" overflow="visible" preserveAspectRatio="none" viewBox="0 0 100 100"><path d="M0 25L25 0h50l25 25v50l-25 25H25L0 75z" stroke="currentColor" vector-effect="non-scaling-stroke"/></symbol><symbol id="none" preserveAspectRatio="none" viewBox="0 0 100 100"/></g></defs><g id="WP4963" class="Viewport" color="black"  name="Name: p53 transcriptional gene network Organism: Homo sapiens"><rect id="WP4963-icon" class="Icon" width="1062.8" height="781.33" fill="#fff" stroke="#000" stroke-width="0"/><g id="b2029" class="Edge GraphicalLine DirectedInteraction" color="#000" ><g color="#000" fill="transparent"  filter="url(#kaavioblackto000000filter)" stroke="#000" stroke-dasharray="100.9379969832674, 5.8"><path id="b2029" class="EdgeBody" d="m324 381-103-28"   marker-end="url(#markerEndArrow)" /></g></g><g id="bd1a7" class="Edge GraphicalLine" color="#000" ><g color="#000" fill="transparent"  filter="url(#kaavioblackto000000filter)" stroke="#000" stroke-dasharray="102.18548094373867, 5.8"><path id="bd1a7" class="EdgeBody" d="m332.12 427.4-95.281 50.817"   marker-end="url(#markerEndMimConversion)" /></g></g><g id="bef71" class="Edge GraphicalLine" color="#000" ><g color="#000" fill="transparent"  filter="url(#kaavioblackto000000filter)" stroke="#000" stroke-dasharray="65.18949987516504, 5.8"><path id="bef71" class="EdgeBody" d="m425.59 344.83-38.113-59.891"   marker-end="url(#markerEndMimConversion)" /></g></g><g id="c49fb" class="Edge GraphicalLine" color="#000" ><g color="#000" fill="transparent"  filter="url(#kaavioblackto000000filter)" stroke="#000" stroke-dasharray="74.59947888688461, 5.8"><path id="c49fb" class="EdgeBody" d="m567.15 461.89 48.094 64.428"   marker-end="url(#markerEndMimConversion)" /></g></g><g id="cc914" class="Edge GraphicalLine DirectedInteraction" color="#000" ><g color="#000" fill="transparent"  filter="url(#kaavioblackto000000filter)" stroke="#000" stroke-dasharray="94.14217714888129, 5.8"><path id="cc914" class="EdgeBody" d="m647.01 366.61 93.466-35.39"   marker-end="url(#markerEndArrow)" /></g></g><g id="d3f07" class="Edge GraphicalLine DirectedInteraction" color="#000" ><g color="#000" fill="transparent"  filter="url(#kaavioblackto000000filter)" stroke="#000" stroke-dasharray="99.439686975891, 5.8"><path id="d3f07" class="EdgeBody" d="m649.73 442.83 91.652 51.724"   marker-end="url(#markerEndArrow)" /></g></g><g id="eabfe" class="Edge GraphicalLine DirectedInteraction" color="#000" ><g color="#000" fill="transparent"  filter="url(#kaavioblackto000000filter)" stroke="#000" stroke-dasharray="117.73202232480332, 5.8"><path id="eabfe" class="EdgeBody" d="m655.17 404.72 123.41 5.4446"   marker-end="url(#markerEndArrow)" /></g></g><g id="f8674" class="Edge GraphicalLine" color="#000" ><g color="#000" fill="transparent"  filter="url(#kaavioblackto000000filter)" stroke="#000" stroke-dasharray="76.97135572407535, 5.8"><path id="f8674" class="EdgeBody" d="m591.65 347.55 50.817-65.336"   marker-end="url(#markerEndMimConversion)" /></g></g><g id="fddb6" class="Edge GraphicalLine" color="#000" ><g color="#000" fill="transparent"  filter="url(#kaavioblackto000000filter)" stroke="#000" stroke-dasharray="78.55785660030556, 5.8"><path id="fddb6" class="EdgeBody" d="m422.87 469.15-44.465 71.688"   marker-end="url(#markerEndMimConversion)" /></g></g><g id="c8004" class="SingleFreeNode Shape PhysicalEntity CellularComponent Organelle" transform="translate(357,366)" color="#c0c0c0" ><g fill="transparent"  filter="url(#kaaviodoublefalse3filter)" stroke="#c0c0c0" stroke-width="3"><rect id="c8004-icon" class="Icon" transform="matrix(.95797 0 0 .85965 5.7478 5.1579)" width="273.5" height="73.5" rx="15" ry="15"   /></g></g><g id="a497c" class="Pathway" transform="translate(396,384.5)" color="#14961e"  name="p53 transcriptional regulation"><use id="a497c-icon" class="Icon" width="195" height="29.5" fill="transparent"  stroke="#14961e" stroke-width="0" xlink:href="#none"/><text id="a497c-text" class="Text" transform="translate(97.5,18.75)" fill="#14961e"  font-size="12px" font-weight="bold" stroke="black" stroke-width="0" text-anchor="middle"><tspan x="0" y="0">p53 transcriptional regulation</tspan></text></g><a  id="b1519" class="GeneProduct APAF1 " transform="translate(23,185.5)"   name="APAF1"  ><rect id="b1519-icon" class="Icon" transform="matrix(.98485 0 0 .96226 .49242 .48113)" width="65" height="25.5" fill="#fff" stroke="#000"/><text id="b1519-text" class="Text" transform="translate(32.5,16.75)" fill="#000"  font-size="12px" stroke="white" stroke-width="0" text-anchor="middle"><tspan x="0" y="0">APAF1</tspan></text></a><a id="d0595" class="WikiPathways_WP254 Pathway " transform="translate(93,310.5)" color="#14961e"  name="Apoptosis"  ><rect id="d0595-icon" class="Icon" transform="matrix(.9875 0 0 .9661 .49375 .48305)" width="79" height="28.5" fill="#fff" stroke="#14961e"/><text id="d0595-text" class="Text" transform="translate(39.5,18.25)" fill="#14961e"  font-size="12px" stroke="black" stroke-width="0" text-anchor="middle"><tspan x="0" y="0">Apoptosis</tspan></text></a><g id="e4db1" class="Pathway" transform="translate(308.77 242.38)" color="#14961e"  name="Cell Cycle Arrest"><rect id="e4db1-icon" class="Icon" transform="matrix(.99123 0 0 .96923 .49561 .48462)" width="113" height="31.5" fill="#fff" stroke="#14961e"/><text id="e4db1-text" class="Text" transform="translate(56.5,19.75)" fill="#14961e"  font-size="12px" stroke="black" stroke-width="0" text-anchor="middle"><tspan x="0" y="0">Cell Cycle Arrest</tspan></text></g><g id="baf5d" class="Pathway" transform="translate(758.41 312.96)" color="#14961e"  name="Senescence"><rect id="baf5d-icon" class="Icon" transform="matrix(.9898 0 0 .96721 .4949 .48361)" width="97" height="29.5" fill="#fff" stroke="#14961e"/><text id="baf5d-text" class="Text" transform="translate(48.5,18.75)" fill="#14961e"  font-size="12px" stroke="black" stroke-width="0" text-anchor="middle"><tspan x="0" y="0">Senescence</tspan></text></g><a id="f88c8" class="WikiPathways_WP4946 Pathway " transform="translate(325.84 562.01)" color="#14961e"  name="DNA Repair"  ><rect id="f88c8-icon" class="Icon" transform="matrix(.98985 0 0 .96721 .49493 .48361)" width="97.558" height="29.5" fill="#fff" stroke="#14961e"/><text id="f88c8-text" class="Text" transform="translate(48.779 18.75)" fill="#14961e"  font-size="12px" stroke="black" stroke-width="0" text-anchor="middle"><tspan x="0" y="0">DNA Repair</tspan></text></a><a id="b53dd" class="WikiPathways_WP4313 Pathway " transform="translate(813.88 393.62)" color="#14961e"  name="Ferroptosis"  ><rect id="b53dd-icon" class="Icon" transform="matrix(.98914 0 0 .96721 .49457 .48361)" width="91.109" height="29.5" fill="#fff" stroke="#14961e"/><text id="b53dd-text" class="Text" transform="translate(45.554 18.75)" fill="#14961e"  font-size="12px" stroke="black" stroke-width="0" text-anchor="middle"><tspan x="0" y="0">Ferroptosis</tspan></text></a><g id="c5a08" class="Pathway" transform="translate(605.93 230.66)" color="#14961e"  name="Metabolism/Autophagy"><rect id="c5a08-icon" class="Icon" transform="matrix(.99437 0 0 .96919 .49718 .48459)" width="176.61" height="31.457" fill="#fff" stroke="#14961e"/><text id="c5a08-text" class="Text" transform="translate(88.307 19.728)" fill="#14961e"  font-size="12px" stroke="black" stroke-width="0" text-anchor="middle"><tspan x="0" y="0">Metabolism/Autophagy</tspan></text></g><g id="bc303" class="Pathway" transform="translate(95.504 471.12)" color="#14961e"  name="Stem Cell Function"><rect id="bc303-icon" class="Icon" transform="matrix(.99219 0 0 .96667 .49609 .48333)" width="127.02" height="29" fill="#fff" stroke="#14961e"/><text id="bc303-text" class="Text" transform="translate(63.508 18.5)" fill="#14961e"  font-size="12px" stroke="black" stroke-width="0" text-anchor="middle"><tspan x="0" y="0">Stem Cell Function</tspan></text></g><g id="d0310" class="Pathway" transform="translate(591.51 541.93)" color="#14961e"  name="TME"><rect id="d0310-icon" class="Icon" transform="matrix(.98611 0 0 .9661 .49306 .48305)" width="71" height="28.5" fill="#fff" stroke="#14961e"/><text id="d0310-text" class="Text" transform="translate(35.5,18.25)" fill="#14961e"  font-size="12px" stroke="black" stroke-width="0" text-anchor="middle"><tspan x="0" y="0">TME</tspan></text></g><g id="e581f" class="Pathway" transform="translate(766.94 496.85)" color="#14961e"  name="Invasion/Metastasis"><rect id="e581f-icon" class="Icon" transform="matrix(.99277 0 0 .96814 .49639 .48407)" width="137.37" height="30.384" fill="#fff" stroke="#14961e"/><text id="e581f-text" class="Text" transform="translate(68.686 19.192)" fill="#14961e"  font-size="12px" stroke="black" stroke-width="0" text-anchor="middle"><tspan x="0" y="0">Invasion/Metastasis</tspan></text></g><a  id="ff7fb" class="GeneProduct BAX " transform="translate(23,215)"   name="BAX"  ><rect id="ff7fb-icon" class="Icon" transform="matrix(.98485 0 0 .96226 .49242 .48113)" width="65" height="25.5" fill="#fff" stroke="#000"/><text id="ff7fb-text" class="Text" transform="translate(32.5,16.75)" fill="#000"  font-size="12px" stroke="white" stroke-width="0" text-anchor="middle"><tspan x="0" y="0">BAX</tspan></text></a><a  id="d98fd" class="GeneProduct FAS " transform="translate(23,244.5)"   name="FAS"  ><rect id="d98fd-icon" class="Icon" transform="matrix(.98485 0 0 .96226 .49242 .48113)" width="65" height="25.5" fill="#fff" stroke="#000"/><text id="d98fd-text" class="Text" transform="translate(32.5,16.75)" fill="#000"  font-size="12px" stroke="white" stroke-width="0" text-anchor="middle"><tspan x="0" y="0">FAS</tspan></text></a><a  id="a7c2b" class="GeneProduct MIR34A " transform="translate(23,155.5)"   name="MIR34A"  ><rect id="a7c2b-icon" class="Icon" transform="matrix(.98485 0 0 .96226 .49242 .48113)" width="65" height="25.5" fill="#fff" stroke="#000"/><text id="a7c2b-text" class="Text" transform="translate(32.5,16.75)" fill="#000"  font-size="12px" stroke="white" stroke-width="0" text-anchor="middle"><tspan x="0" y="0">MIR34A</tspan></text></a><a  id="a78f5" class="GeneProduct PMAIP1 " transform="translate(100,244)"   name="PMAIP1"  ><rect id="a78f5-icon" class="Icon" transform="matrix(.98485 0 0 .96226 .49242 .48113)" width="65" height="25.5" fill="#fff" stroke="#000"/><text id="a78f5-text" class="Text" transform="translate(32.5,16.75)" fill="#000"  font-size="12px" stroke="white" stroke-width="0" text-anchor="middle"><tspan x="0" y="0">PMAIP1</tspan></text></a><a  id="a5098" class="GeneProduct TP53AIP1 " transform="translate(95,184)"   name="TP53AIP1"  ><rect id="a5098-icon" class="Icon" transform="matrix(.98718 0 0 .96226 .49359 .48113)" width="77" height="25.5" fill="#fff" stroke="#000"/><text id="a5098-text" class="Text" transform="translate(38.5,16.75)" fill="#000"  font-size="12px" stroke="white" stroke-width="0" text-anchor="middle"><tspan x="0" y="0">TP53AIP1</tspan></text></a><a  id="d9ac1" class="GeneProduct TRAF4 " transform="translate(100,214.5)"   name="TRAF4"  ><rect id="d9ac1-icon" class="Icon" transform="matrix(.98485 0 0 .96226 .49242 .48113)" width="65" height="25.5" fill="#fff" stroke="#000"/><text id="d9ac1-text" class="Text" transform="translate(32.5,16.75)" fill="#000"  font-size="12px" stroke="white" stroke-width="0" text-anchor="middle"><tspan x="0" y="0">TRAF4</tspan></text></a><a  id="bbff7" class="GeneProduct PERP " transform="translate(171,213.5)"   name="PERP"  ><rect id="bbff7-icon" class="Icon" transform="matrix(.98485 0 0 .96226 .49242 .48113)" width="65" height="25.5" fill="#fff" stroke="#000"/><text id="bbff7-text" class="Text" transform="translate(32.5,16.75)" fill="#000"  font-size="12px" stroke="white" stroke-width="0" text-anchor="middle"><tspan x="0" y="0">PERP</tspan></text></a><a  id="b71c7" class="GeneProduct PIDD1 " transform="translate(171,245)"   name="PIDD1"  ><rect id="b71c7-icon" class="Icon" transform="matrix(.98485 0 0 .96226 .49242 .48113)" width="65" height="25.5" fill="#fff" stroke="#000"/><text id="b71c7-text" class="Text" transform="translate(32.5,16.75)" fill="#000"  font-size="12px" stroke="white" stroke-width="0" text-anchor="middle"><tspan x="0" y="0">PIDD1</tspan></text></a><a  id="c72bf" class="GeneProduct TP53I3 " transform="translate(23,274)"   name="TP53I3"  ><rect id="c72bf-icon" class="Icon" transform="matrix(.98485 0 0 .96226 .49242 .48113)" width="65" height="25.5" fill="#fff" stroke="#000"/><text id="c72bf-text" class="Text" transform="translate(32.5,16.75)" fill="#000"  font-size="12px" stroke="white" stroke-width="0" text-anchor="middle"><tspan x="0" y="0">TP53I3</tspan></text></a><a  id="cf989" class="GeneProduct BBC3 " transform="translate(100,273.5)"   name="BBC3"  ><rect id="cf989-icon" class="Icon" transform="matrix(.98485 0 0 .96226 .49242 .48113)" width="65" height="25.5" fill="#fff" stroke="#000"/><text id="cf989-text" class="Text" transform="translate(32.5,16.75)" fill="#000"  font-size="12px" stroke="white" stroke-width="0" text-anchor="middle"><tspan x="0" y="0">BBC3</tspan></text></a><a  id="af0c8" class="GeneProduct SIVA1 " transform="translate(171,272.5)"   name="SIVA1"  ><rect id="af0c8-icon" class="Icon" transform="matrix(.98485 0 0 .96226 .49242 .48113)" width="65" height="25.5" fill="#fff" stroke="#000"/><text id="af0c8-text" class="Text" transform="translate(32.5,16.75)" fill="#000"  font-size="12px" stroke="white" stroke-width="0" text-anchor="middle"><tspan x="0" y="0">SIVA1</tspan></text></a><a  id="d2955" class="GeneProduct TNFRSF10D " transform="translate(95,154.5)"   name="TNFRSF10D"  ><rect id="d2955-icon" class="Icon" transform="matrix(.98718 0 0 .96226 .49359 .48113)" width="77" height="25.5" fill="#fff" stroke="#000"/><text id="d2955-text" class="Text" transform="translate(38.5,16.75)" fill="#000"  font-size="12px" stroke="white" stroke-width="0" text-anchor="middle"><tspan x="0" y="0">TNFRSF10D</tspan></text></a><g id="c20c8" class="GeneProduct" transform="translate(281.86 107.62)" color="#000"  name="YWHAB-208"><rect id="c20c8-icon" class="Icon" transform="matrix(.98876 0 0 .96226 .49438 .48113)" width="88" height="25.5" fill="#fff" stroke="#000"/><text id="c20c8-text" class="Text" transform="translate(44,16.75)" fill="#000"  font-size="12px" stroke="white" stroke-width="0" text-anchor="middle"><tspan x="0" y="0">YWHAB-208</tspan></text></g><a  id="a946d" class="GeneProduct BTG2 " transform="translate(281.12 139.62)"   name="BTG2"  ><rect id="a946d-icon" class="Icon" transform="matrix(.98485 0 0 .96226 .49242 .48113)" width="65" height="25.5" fill="#fff" stroke="#000"/><text id="a946d-text" class="Text" transform="translate(32.5,16.75)" fill="#000"  font-size="12px" stroke="white" stroke-width="0" text-anchor="middle"><tspan x="0" y="0">BTG2</tspan></text></a><a  id="d2130" class="GeneProduct CCNG1 " transform="translate(281.12 171.12)"   name="CCNG1"  ><rect id="d2130-icon" class="Icon" transform="matrix(.98485 0 0 .96226 .49242 .48113)" width="65" height="25.5" fill="#fff" stroke="#000"/><text id="d2130-text" class="Text" transform="translate(32.5,16.75)" fill="#000"  font-size="12px" stroke="white" stroke-width="0" text-anchor="middle"><tspan x="0" y="0">CCNG1</tspan></text></a><a  id="fd656" class="GeneProduct CDKN1A " transform="translate(281.12 202.62)"   name="CDKN1A"  ><rect id="fd656-icon" class="Icon" transform="matrix(.98485 0 0 .96226 .49242 .48113)" width="65" height="25.5" fill="#fff" stroke="#000"/><text id="fd656-text" class="Text" transform="translate(32.5,16.75)" fill="#000"  font-size="12px" stroke="white" stroke-width="0" text-anchor="middle"><tspan x="0" y="0">CDKN1A</tspan></text></a><a  id="db00e" class="GeneProduct GADD45A " transform="translate(375.86 107.62)"   name="GADD45A"  ><rect id="db00e-icon" class="Icon" transform="matrix(.98765 0 0 .96226 .49383 .48113)" width="80" height="25.5" fill="#fff" stroke="#000"/><text id="db00e-text" class="Text" transform="translate(40,16.75)" fill="#000"  font-size="12px" stroke="white" stroke-width="0" text-anchor="middle"><tspan x="0" y="0">GADD45A</tspan></text></a><g id="pvjsgeneratedidff803" class="GroupComplex" transform="translate(423.61 170.15)" color="grey" ><use id="pvjsgeneratedidff803-icon" class="Icon" transform="matrix(.98889 0 0 .99015 .49444 .49507)" width="89.00000000000006" height="100.5" fill="#b4b464" fill-opacity=".1" stroke="grey" xlink:href="#Octagon"/><a  id="e95e6" class="GeneProduct MIR34A " transform="translate(12,12)"   name="MIR34A"  ><rect id="e95e6-icon" class="Icon" transform="matrix(.98485 0 0 .96226 .49242 .48113)" width="65" height="25.5" fill="#fff" stroke="#000"/><text id="e95e6-text" class="Text" transform="translate(32.5,16.75)" fill="#000"  font-size="12px" stroke="white" stroke-width="0" text-anchor="middle"><tspan x="0" y="0">MIR34A</tspan></text></a><a  id="bde7b" class="GeneProduct MIR34B " transform="translate(12,37.5)"   name="MIR34B"  ><rect id="bde7b-icon" class="Icon" transform="matrix(.98485 0 0 .96226 .49242 .48113)" width="65" height="25.5" fill="#fff" stroke="#000"/><text id="bde7b-text" class="Text" transform="translate(32.5,16.75)" fill="#000"  font-size="12px" stroke="white" stroke-width="0" text-anchor="middle"><tspan x="0" y="0">MIR34B</tspan></text></a><a  id="c2546" class="GeneProduct MIR34C " transform="translate(12 63)"   name="MIR34C"  ><rect id="c2546-icon" class="Icon" transform="matrix(.98485 0 0 .96226 .49242 .48113)" width="65" height="25.5" fill="#fff" stroke="#000"/><text id="c2546-text" class="Text" transform="translate(32.5,16.75)" fill="#000"  font-size="12px" stroke="white" stroke-width="0" text-anchor="middle"><tspan x="0" y="0">MIR34C</tspan></text></a></g><a  id="f0142" class="GeneProduct SMR3B " transform="translate(352.85 202.62)"   name="SMR3B"  ><rect id="f0142-icon" class="Icon" transform="matrix(.98485 0 0 .96226 .49242 .48113)" width="65" height="25.5" fill="#fff" stroke="#000"/><text id="f0142-text" class="Text" transform="translate(32.5,16.75)" fill="#000"  font-size="12px" stroke="white" stroke-width="0" text-anchor="middle"><tspan x="0" y="0">SMR3B</tspan></text></a><a  id="f45a1" class="GeneProduct RPRM " transform="translate(352.68 171.12)"   name="RPRM"  ><rect id="f45a1-icon" class="Icon" transform="matrix(.98485 0 0 .96226 .49242 .48113)" width="65" height="25.5" fill="#fff" stroke="#000"/><text id="f45a1-text" class="Text" transform="translate(32.5,16.75)" fill="#000"  font-size="12px" stroke="white" stroke-width="0" text-anchor="middle"><tspan x="0" y="0">RPRM</tspan></text></a><a  id="e1358" class="GeneProduct ZMAT3 " transform="translate(353.28 139.62)"   name="ZMAT3"  ><rect id="e1358-icon" class="Icon" transform="matrix(.98485 0 0 .96226 .49242 .48113)" width="65" height="25.5" fill="#fff" stroke="#000"/><text id="e1358-text" class="Text" transform="translate(32.5,16.75)" fill="#000"  font-size="12px" stroke="white" stroke-width="0" text-anchor="middle"><tspan x="0" y="0">ZMAT3</tspan></text></a><a  id="eadf2" class="GeneProduct CDKN1A " transform="translate(926.39 290.01)"   name="CDKN1A"  ><rect id="eadf2-icon" class="Icon" transform="matrix(.98485 0 0 .96226 .49242 .48113)" width="65" height="25.5" fill="#fff" stroke="#000"/><text id="eadf2-text" class="Text" transform="translate(32.5,16.75)" fill="#000"  font-size="12px" stroke="white" stroke-width="0" text-anchor="middle"><tspan x="0" y="0">CDKN1A</tspan></text></a><a  id="ed442" class="GeneProduct SERPINE1 " transform="translate(883.97 321.01)"   name="SERPINE1"  ><rect id="ed442-icon" class="Icon" transform="matrix(.98666 0 0 .96226 .49333 .48113)" width="73.975" height="25.5" fill="#fff" stroke="#000"/><text id="ed442-text" class="Text" transform="translate(36.988 16.75)" fill="#000"  font-size="12px" stroke="white" stroke-width="0" text-anchor="middle"><tspan x="0" y="0">SERPINE1</tspan></text></a><a  id="d2629" class="GeneProduct PML " transform="translate(868.4 290.01)"   name="PML"  ><rect id="d2629-icon" class="Icon" transform="matrix(.98147 0 0 .96226 .49074 .48113)" width="52.975" height="25.5" fill="#fff" stroke="#000"/><text id="d2629-text" class="Text" transform="translate(26.488 16.75)" fill="#000"  font-size="12px" stroke="white" stroke-width="0" text-anchor="middle"><tspan x="0" y="0">PML</tspan></text></a><a  id="afc55" class="GeneProduct DDB2 " transform="translate(272.43 606.64)"   name="DDB2"  ><rect id="afc55-icon" class="Icon" transform="matrix(.98485 0 0 .96226 .49242 .48113)" width="65" height="25.5" fill="#fff" stroke="#000"/><text id="afc55-text" class="Text" transform="translate(32.5,16.75)" fill="#000"  font-size="12px" stroke="white" stroke-width="0" text-anchor="middle"><tspan x="0" y="0">DDB2</tspan></text></a><a  id="e6efb" class="GeneProduct ERCC5 " transform="translate(272.43 636.14)"   name="ERCC5"  ><rect id="e6efb-icon" class="Icon" transform="matrix(.98485 0 0 .96226 .49242 .48113)" width="65" height="25.5" fill="#fff" stroke="#000"/><text id="e6efb-text" class="Text" transform="translate(32.5,16.75)" fill="#000"  font-size="12px" stroke="white" stroke-width="0" text-anchor="middle"><tspan x="0" y="0">ERCC5</tspan></text></a><a  id="d1407" class="GeneProduct FANCC " transform="translate(272.43 664.31)"   name="FANCC"  ><rect id="d1407-icon" class="Icon" transform="matrix(.98485 0 0 .96226 .49242 .48113)" width="65" height="25.5" fill="#fff" stroke="#000"/><text id="d1407-text" class="Text" transform="translate(32.5,16.75)" fill="#000"  font-size="12px" stroke="white" stroke-width="0" text-anchor="middle"><tspan x="0" y="0">FANCC</tspan></text></a><a  id="abaa7" class="GeneProduct GADD45A " transform="translate(343.76 606.64)"   name="GADD45A"  ><rect id="abaa7-icon" class="Icon" transform="matrix(.98485 0 0 .96226 .49242 .48113)" width="65" height="25.5" fill="#fff" stroke="#000"/><text id="abaa7-text" class="Text" transform="translate(32.5,16.75)" fill="#000"  font-size="12px" stroke="white" stroke-width="0" text-anchor="middle"><tspan x="0" y="0">GADD45A</tspan></text></a><a  id="a04e6" class="GeneProduct XRCC5 " transform="translate(343.76 636.14)"   name="XRCC5"  ><rect id="a04e6-icon" class="Icon" transform="matrix(.98485 0 0 .96226 .49242 .48113)" width="65" height="25.5" fill="#fff" stroke="#000"/><text id="a04e6-text" class="Text" transform="translate(32.5,16.75)" fill="#000"  font-size="12px" stroke="white" stroke-width="0" text-anchor="middle"><tspan x="0" y="0">XRCC5</tspan></text></a><a  id="f523a" class="GeneProduct MGMT " transform="translate(343.76 664.31)"   name="MGMT"  ><rect id="f523a-icon" class="Icon" transform="matrix(.98485 0 0 .96226 .49242 .48113)" width="65" height="25.5" fill="#fff" stroke="#000"/><text id="f523a-text" class="Text" transform="translate(32.5,16.75)" fill="#000"  font-size="12px" stroke="white" stroke-width="0" text-anchor="middle"><tspan x="0" y="0">MGMT</tspan></text></a><a  id="ee1e7" class="GeneProduct MLH1 " transform="translate(343.76 692.47)"   name="MLH1"  ><rect id="ee1e7-icon" class="Icon" transform="matrix(.98485 0 0 .96226 .49242 .48113)" width="65" height="25.5" fill="#fff" stroke="#000"/><text id="ee1e7-text" class="Text" transform="translate(32.5,16.75)" fill="#000"  font-size="12px" stroke="white" stroke-width="0" text-anchor="middle"><tspan x="0" y="0">MLH1</tspan></text></a><a  id="fbe16" class="GeneProduct MSH2 " transform="translate(413.09 606.64)"   name="MSH2"  ><rect id="fbe16-icon" class="Icon" transform="matrix(.98485 0 0 .96226 .49242 .48113)" width="65" height="25.5" fill="#fff" stroke="#000"/><text id="fbe16-text" class="Text" transform="translate(32.5,16.75)" fill="#000"  font-size="12px" stroke="white" stroke-width="0" text-anchor="middle"><tspan x="0" y="0">MSH2</tspan></text></a><a  id="c0620" class="GeneProduct POLH " transform="translate(413.09 636.14)"   name="POLH"  ><rect id="c0620-icon" class="Icon" transform="matrix(.98485 0 0 .96226 .49242 .48113)" width="65" height="25.5" fill="#fff" stroke="#000"/><text id="c0620-text" class="Text" transform="translate(32.5,16.75)" fill="#000"  font-size="12px" stroke="white" stroke-width="0" text-anchor="middle"><tspan x="0" y="0">POLH</tspan></text></a><a  id="af1ab" class="GeneProduct POLK " transform="translate(413.09 664.31)"   name="POLK"  ><rect id="af1ab-icon" class="Icon" transform="matrix(.98485 0 0 .96226 .49242 .48113)" width="65" height="25.5" fill="#fff" stroke="#000"/><text id="af1ab-text" class="Text" transform="translate(32.5,16.75)" fill="#000"  font-size="12px" stroke="white" stroke-width="0" text-anchor="middle"><tspan x="0" y="0">POLK</tspan></text></a><a  id="a8b43" class="GeneProduct RRM2B " transform="translate(413.09 692.47)"   name="RRM2B"  ><rect id="a8b43-icon" class="Icon" transform="matrix(.98485 0 0 .96226 .49242 .48113)" width="65" height="25.5" fill="#fff" stroke="#000"/><text id="a8b43-text" class="Text" transform="translate(32.5,16.75)" fill="#000"  font-size="12px" stroke="white" stroke-width="0" text-anchor="middle"><tspan x="0" y="0">RRM2B</tspan></text></a><a  id="e779d" class="GeneProduct XPC " transform="translate(272.43 692.47)"   name="XPC"  ><rect id="e779d-icon" class="Icon" transform="matrix(.98485 0 0 .96226 .49242 .48113)" width="65" height="25.5" fill="#fff" stroke="#000"/><text id="e779d-text" class="Text" transform="translate(32.5,16.75)" fill="#000"  font-size="12px" stroke="white" stroke-width="0" text-anchor="middle"><tspan x="0" y="0">XPC</tspan></text></a><a  id="f5ecc" class="GeneProduct SAT1 " transform="translate(979.85 381.35)"   name="SAT1"  ><rect id="f5ecc-icon" class="Icon" transform="matrix(.98147 0 0 .96226 .49074 .48113)" width="52.975" height="25.5" fill="#fff" stroke="#000"/><text id="f5ecc-text" class="Text" transform="translate(26.488 16.75)" fill="#000"  font-size="12px" stroke="white" stroke-width="0" text-anchor="middle"><tspan x="0" y="0">SAT1</tspan></text></a><a  id="e3953" class="GeneProduct SLC7A11 " transform="translate(936.07 411.41)"   name="SLC7A11"  ><rect id="e3953-icon" class="Icon" transform="matrix(.98666 0 0 .96226 .49333 .48113)" width="73.975" height="25.5" fill="#fff" stroke="#000"/><text id="e3953-text" class="Text" transform="translate(36.988 16.75)" fill="#000"  font-size="12px" stroke="white" stroke-width="0" text-anchor="middle"><tspan x="0" y="0">SLC7A11</tspan></text></a><a  id="d03a3" class="GeneProduct GLS2 " transform="translate(921.44 381.35)"   name="GLS2"  ><rect id="d03a3-icon" class="Icon" transform="matrix(.98147 0 0 .96226 .49074 .48113)" width="52.975" height="25.5" fill="#fff" stroke="#000"/><text id="d03a3-text" class="Text" transform="translate(26.488 16.75)" fill="#000"  font-size="12px" stroke="white" stroke-width="0" text-anchor="middle"><tspan x="0" y="0">GLS2</tspan></text></a><a  id="abd34" class="GeneProduct CDKN1A " transform="translate(786.07 550.09)"   name="CDKN1A"  ><rect id="abd34-icon" class="Icon" transform="matrix(.98666 0 0 .96226 .49333 .48113)" width="73.975" height="25.5" fill="#fff" stroke="#000"/><text id="abd34-text" class="Text" transform="translate(36.988 16.75)" fill="#000"  font-size="12px" stroke="white" stroke-width="0" text-anchor="middle"><tspan x="0" y="0">CDKN1A</tspan></text></a><g id="pvjsgeneratedidff800" class="GroupComplex" transform="translate(873.43 537.43)" color="grey" ><use id="pvjsgeneratedidff800-icon" class="Icon" transform="matrix(.98874 0 0 .98684 .49437 .49342)" width="87.82125572441691" height="75" fill="#b4b464" fill-opacity=".1" stroke="grey" xlink:href="#Octagon"/><a  id="be17d" class="GeneProduct MIR34A " transform="translate(12,12)"   name="MIR34A"  ><rect id="be17d-icon" class="Icon" transform="matrix(.98457 0 0 .96226 .49229 .48113)" width="63.821" height="25.5" fill="#fff" stroke="#000"/><text id="be17d-text" class="Text" transform="translate(31.911 16.75)" fill="#000"  font-size="12px" stroke="white" stroke-width="0" text-anchor="middle"><tspan x="0" y="0">MIR34A</tspan></text></a><a  id="b370c" class="GeneProduct MIR200C " transform="translate(12 37.5)"   name="MIR200C"  ><rect id="b370c-icon" class="Icon" transform="matrix(.98457 0 0 .96226 .49229 .48113)" width="63.821" height="25.5" fill="#fff" stroke="#000"/><text id="b370c-text" class="Text" transform="translate(31.911 16.75)" fill="#000"  font-size="12px" stroke="white" stroke-width="0" text-anchor="middle"><tspan x="0" y="0">MIR200C</tspan></text></a></g><a  id="d2dca" class="GeneProduct SERPINB5 " transform="translate(786.07 579.17)"   name="SERPINB5"  ><rect id="d2dca-icon" class="Icon" transform="matrix(.98666 0 0 .96226 .49333 .48113)" width="73.975" height="25.5" fill="#fff" stroke="#000"/><text id="d2dca-text" class="Text" transform="translate(36.988 16.75)" fill="#000"  font-size="12px" stroke="white" stroke-width="0" text-anchor="middle"><tspan x="0" y="0">SERPINB5</tspan></text></a><a  id="b44cd" class="GeneProduct CDKN1A " transform="translate(67.942 512.92)"   name="CDKN1A"  ><rect id="b44cd-icon" class="Icon" transform="matrix(.98485 0 0 .96226 .49242 .48113)" width="65" height="25.5" fill="#fff" stroke="#000"/><text id="b44cd-text" class="Text" transform="translate(32.5 16.75)" fill="#000"  font-size="12px" stroke="white" stroke-width="0" text-anchor="middle"><tspan x="0" y="0">CDKN1A</tspan></text></a><a  id="cf73c" class="GeneProduct LIF " transform="translate(138.29 512.92)"   name="LIF"  ><rect id="cf73c-icon" class="Icon" transform="matrix(.98485 0 0 .96226 .49242 .48113)" width="65" height="25.5" fill="#fff" stroke="#000"/><text id="cf73c-text" class="Text" transform="translate(32.5 16.75)" fill="#000"  font-size="12px" stroke="white" stroke-width="0" text-anchor="middle"><tspan x="0" y="0">LIF</tspan></text></a><g id="pvjsgeneratedidff7ff" class="GroupComplex" transform="translate(139.02 544.64)" color="grey" ><use id="pvjsgeneratedidff7ff-icon" class="Icon" transform="matrix(.98889 0 0 .98684 .49444 .49342)" width="89" height="74.99999999999989" fill="#b4b464" fill-opacity=".1" stroke="grey" xlink:href="#Octagon"/><a  id="c1334" class="GeneProduct MIR34A " transform="translate(12,12)"   name="MIR34A"  ><rect id="c1334-icon" class="Icon" transform="matrix(.98485 0 0 .96226 .49242 .48113)" width="65" height="25.5" fill="#fff" stroke="#000"/><text id="c1334-text" class="Text" transform="translate(32.5 16.75)" fill="#000"  font-size="12px" stroke="white" stroke-width="0" text-anchor="middle"><tspan x="0" y="0">MIR34A</tspan></text></a><g id="b7b1f" class="GeneProduct" transform="translate(12 37.5)" color="#000"  name="MIR34B/C"><rect id="b7b1f-icon" class="Icon" transform="matrix(.98485 0 0 .96226 .49242 .48113)" width="65" height="25.5" fill="#fff" stroke="#000"/><text id="b7b1f-text" class="Text" transform="translate(32.5 16.75)" fill="#000"  font-size="12px" stroke="white" stroke-width="0" text-anchor="middle"><tspan x="0" y="0">MIR34B/C</tspan></text></g></g><a  id="cd83b" class="GeneProduct MIR145 " transform="translate(67.539 602.99)"   name="MIR145"  ><rect id="cd83b-icon" class="Icon" transform="matrix(.98485 0 0 .96226 .49242 .48113)" width="65" height="25.5" fill="#fff" stroke="#000"/><text id="cd83b-text" class="Text" transform="translate(32.5,16.75)" fill="#000"  font-size="12px" stroke="white" stroke-width="0" text-anchor="middle"><tspan x="0" y="0">MIR145</tspan></text></a><a  id="a9150" class="GeneProduct NANOG " transform="translate(67.502 542.85)"   name="NANOG"  ><rect id="a9150-icon" class="Icon" transform="matrix(.98485 0 0 .96226 .49242 .48113)" width="65" height="25.5" fill="#fff" stroke="#000"/><text id="a9150-text" class="Text" transform="translate(32.5 16.75)" fill="#000"  font-size="12px" stroke="white" stroke-width="0" text-anchor="middle"><tspan x="0" y="0">NANOG</tspan></text></a><a  id="c3ad0" class="GeneProduct NOTCH1 " transform="translate(66.581 572.82)"   name="NOTCH1"  ><rect id="c3ad0-icon" class="Icon" transform="matrix(.98485 0 0 .96226 .49242 .48113)" width="65" height="25.5" fill="#fff" stroke="#000"/><text id="c3ad0-text" class="Text" transform="translate(32.5 16.75)" fill="#000"  font-size="12px" stroke="white" stroke-width="0" text-anchor="middle"><tspan x="0" y="0">NOTCH1</tspan></text></a><a  id="d2e32" class="GeneProduct ACAD11 " transform="translate(576.79 158.2)"   name="ACAD11"  ><rect id="d2e32-icon" class="Icon" transform="matrix(.98485 0 0 .96226 .49242 .48113)" width="65" height="25.5" fill="#fff" stroke="#000"/><text id="d2e32-text" class="Text" transform="translate(32.5 16.75)" fill="#000"  font-size="12px" stroke="white" stroke-width="0" text-anchor="middle"><tspan x="0" y="0">ACAD11</tspan></text></a><a  id="b9b82" class="GeneProduct ADORA2B " transform="translate(719.71 190.96)"   name="ADORA2B"  ><rect id="b9b82-icon" class="Icon" transform="matrix(.98849 0 0 .96226 .49424 .48113)" width="85.877" height="25.5" fill="#fff" stroke="#000"/><text id="b9b82-text" class="Text" transform="translate(42.938 16.75)" fill="#000"  font-size="12px" stroke="white" stroke-width="0" text-anchor="middle"><tspan x="0" y="0">ADORA2B</tspan></text></a><a  id="a356d" class="GeneProduct ALDH4A1 " transform="translate(576.79 190.96)"   name="ALDH4A1"  ><rect id="a356d-icon" class="Icon" transform="matrix(.98485 0 0 .96226 .49242 .48113)" width="65" height="25.5" fill="#fff" stroke="#000"/><text id="a356d-text" class="Text" transform="translate(32.5 16.75)" fill="#000"  font-size="12px" stroke="white" stroke-width="0" text-anchor="middle"><tspan x="0" y="0">ALDH4A1</tspan></text></a><a  id="bb106" class="GeneProduct CPT1C " transform="translate(646.82 125.81)"   name="CPT1C"  ><rect id="bb106-icon" class="Icon" transform="matrix(.98485 0 0 .96226 .49242 .48113)" width="65" height="25.5" fill="#fff" stroke="#000"/><text id="bb106-text" class="Text" transform="translate(32.5,16.75)" fill="#000"  font-size="12px" stroke="white" stroke-width="0" text-anchor="middle"><tspan x="0" y="0">CPT1C</tspan></text></a><a  id="eb1e9" class="GeneProduct DRAM1 " transform="translate(646.82 191.33)"   name="DRAM1"  ><rect id="eb1e9-icon" class="Icon" transform="matrix(.98485 0 0 .96226 .49242 .48113)" width="65" height="25.5" fill="#fff" stroke="#000"/><text id="eb1e9-text" class="Text" transform="translate(32.5 16.75)" fill="#000"  font-size="12px" stroke="white" stroke-width="0" text-anchor="middle"><tspan x="0" y="0">DRAM1</tspan></text></a><a  id="de737" class="GeneProduct FUCA1 " transform="translate(646.82 92.641)"   name="FUCA1"  ><rect id="de737-icon" class="Icon" transform="matrix(.98485 0 0 .96226 .49242 .48113)" width="65" height="25.5" fill="#fff" stroke="#000"/><text id="de737-text" class="Text" transform="translate(32.5,16.75)" fill="#000"  font-size="12px" stroke="white" stroke-width="0" text-anchor="middle"><tspan x="0" y="0">FUCA1</tspan></text></a><a  id="ab5dc" class="GeneProduct GLS2 " transform="translate(576.79 92.732)"   name="GLS2"  ><rect id="ab5dc-icon" class="Icon" transform="matrix(.98485 0 0 .96226 .49242 .48113)" width="65" height="25.5" fill="#fff" stroke="#000"/><text id="ab5dc-text" class="Text" transform="translate(32.5 16.75)" fill="#000"  font-size="12px" stroke="white" stroke-width="0" text-anchor="middle"><tspan x="0" y="0">GLS2</tspan></text></a><a  id="f8931" class="GeneProduct SLC2A1 " transform="translate(576.79 62.878)"   name="SLC2A1"  ><rect id="f8931-icon" class="Icon" transform="matrix(.98485 0 0 .96226 .49242 .48113)" width="65" height="25.5" fill="#fff" stroke="#000"/><text id="f8931-text" class="Text" transform="translate(32.5 16.75)" fill="#000"  font-size="12px" stroke="white" stroke-width="0" text-anchor="middle"><tspan x="0" y="0">SLC2A1</tspan></text></a><a  id="e7fcc" class="GeneProduct GPX1 " transform="translate(646.82 62.97)"   name="GPX1"  ><rect id="e7fcc-icon" class="Icon" transform="matrix(.98485 0 0 .96226 .49242 .48113)" width="65" height="25.5" fill="#fff" stroke="#000"/><text id="e7fcc-text" class="Text" transform="translate(32.5 16.75)" fill="#000"  font-size="12px" stroke="white" stroke-width="0" text-anchor="middle"><tspan x="0" y="0">GPX1</tspan></text></a><g id="pvjsgeneratedidff7fe" class="GroupComplex" transform="translate(724.1 37.314)" color="grey" ><use id="pvjsgeneratedidff7fe-icon" class="Icon" transform="matrix(.98889 0 0 .98576 .49444 .49288)" width="89" height="69.24691358024694" fill="#b4b464" fill-opacity=".1" stroke="grey" xlink:href="#Octagon"/><a  id="e9e2d" class="GeneProduct PRKAB1 " transform="translate(12,12)"   name="PRKAB1"  ><rect id="e9e2d-icon" class="Icon" transform="matrix(.98485 0 0 .95767 .49242 .47883)" width="65" height="22.623" fill="#fff" stroke="#000"/><text id="e9e2d-text" class="Text" transform="translate(32.5 15.312)" fill="#000"  font-size="12px" stroke="white" stroke-width="0" text-anchor="middle"><tspan x="0" y="0">PRKAB1</tspan></text></a><a  id="a8500" class="GeneProduct PRKAB2 " transform="translate(12 34.623)"   name="PRKAB2"  ><rect id="a8500-icon" class="Icon" transform="matrix(.98485 0 0 .95767 .49242 .47883)" width="65" height="22.623" fill="#fff" stroke="#000"/><text id="a8500-text" class="Text" transform="translate(32.5 15.312)" fill="#000"  font-size="12px" stroke="white" stroke-width="0" text-anchor="middle"><tspan x="0" y="0">PRKAB2</tspan></text></a></g><a  id="ee177" class="GeneProduct PTEN " transform="translate(646.82 158.57)"   name="PTEN"  ><rect id="ee177-icon" class="Icon" transform="matrix(.98485 0 0 .96226 .49242 .48113)" width="65" height="25.5" fill="#fff" stroke="#000"/><text id="ee177-text" class="Text" transform="translate(32.5 16.75)" fill="#000"  font-size="12px" stroke="white" stroke-width="0" text-anchor="middle"><tspan x="0" y="0">PTEN</tspan></text></a><g id="pvjsgeneratedidff7fd" class="GroupComplex" transform="translate(722.71 112.85)" color="grey" ><use id="pvjsgeneratedidff7fd-icon" class="Icon" transform="matrix(.98889 0 0 .98576 .49444 .49288)" width="89" height="69.24691358024666" fill="#b4b464" fill-opacity=".1" stroke="grey" xlink:href="#Octagon"/><a  id="a6f9b" class="GeneProduct SESN1 " transform="translate(12,12)"   name="SESN1"  ><rect id="a6f9b-icon" class="Icon" transform="matrix(.98485 0 0 .95767 .49242 .47883)" width="65" height="22.623" fill="#fff" stroke="#000"/><text id="a6f9b-text" class="Text" transform="translate(32.5 15.312)" fill="#000"  font-size="12px" stroke="white" stroke-width="0" text-anchor="middle"><tspan x="0" y="0">SESN1</tspan></text></a><a  id="e6bd9" class="GeneProduct SESN2 " transform="translate(12 34.623)"   name="SESN2"  ><rect id="e6bd9-icon" class="Icon" transform="matrix(.98485 0 0 .95767 .49242 .47883)" width="65" height="22.623" fill="#fff" stroke="#000"/><text id="e6bd9-text" class="Text" transform="translate(32.5 15.312)" fill="#000"  font-size="12px" stroke="white" stroke-width="0" text-anchor="middle"><tspan x="0" y="0">SESN2</tspan></text></a></g><a  id="f01fd" class="GeneProduct TIGAR " transform="translate(576.79 125.44)"   name="TIGAR"  ><rect id="f01fd-icon" class="Icon" transform="matrix(.98485 0 0 .96226 .49242 .48113)" width="65" height="25.5" fill="#fff" stroke="#000"/><text id="f01fd-text" class="Text" transform="translate(32.5 16.75)" fill="#000"  font-size="12px" stroke="white" stroke-width="0" text-anchor="middle"><tspan x="0" y="0">TIGAR</tspan></text></a><a  id="fefea" class="GeneProduct TP53INP1 " transform="translate(812.28 191.96)"   name="TP53INP1"  ><rect id="fefea-icon" class="Icon" transform="matrix(.98836 0 0 .96226 .49418 .48113)" width="84.877" height="25.5" fill="#fff" stroke="#000"/><text id="fefea-text" class="Text" transform="translate(42.438 16.75)" fill="#000"  font-size="12px" stroke="white" stroke-width="0" text-anchor="middle"><tspan x="0" y="0">TP53INP1</tspan></text></a><g id="pvjsgeneratedidff7fc" class="GroupComplex" transform="translate(816.22 111.36)" color="grey" ><use id="pvjsgeneratedidff7fc-icon" class="Icon" transform="matrix(.98731 0 0 .98684 .49366 .49342)" width="77.813106361049" height="74.99999999999991" fill="#b4b464" fill-opacity=".1" stroke="grey" xlink:href="#Octagon"/><a  id="b1459" class="GeneProduct ULK1 " transform="translate(12,12)"   name="ULK1"  ><rect id="b1459-icon" class="Icon" transform="matrix(.98176 0 0 .96226 .49088 .48113)" width="53.813" height="25.5" fill="#fff" stroke="#000"/><text id="b1459-text" class="Text" transform="translate(26.907 16.75)" fill="#000"  font-size="12px" stroke="white" stroke-width="0" text-anchor="middle"><tspan x="0" y="0">ULK1</tspan></text></a><a  id="aac25" class="GeneProduct ULK2 " transform="translate(12 37.5)"   name="ULK2"  ><rect id="aac25-icon" class="Icon" transform="matrix(.98176 0 0 .96226 .49088 .48113)" width="53.813" height="25.5" fill="#fff" stroke="#000"/><text id="aac25-text" class="Text" transform="translate(26.907 16.75)" fill="#000"  font-size="12px" stroke="white" stroke-width="0" text-anchor="middle"><tspan x="0" y="0">ULK2</tspan></text></a></g><a  id="e3489" class="GeneProduct ADGRB1 " transform="translate(539.73 666.23)"   name="ADGRB1"  ><rect id="e3489-icon" class="Icon" transform="matrix(.98485 0 0 .96226 .49242 .48113)" width="65" height="25.5" fill="#fff" stroke="#000"/><text id="e3489-text" class="Text" transform="translate(32.5,16.75)" fill="#000"  font-size="12px" stroke="white" stroke-width="0" text-anchor="middle"><tspan x="0" y="0">ADGRB1</tspan></text></a><a  id="c7b79" class="GeneProduct CX3CL1 " transform="translate(539.73 695.36)"   name="CX3CL1"  ><rect id="c7b79-icon" class="Icon" transform="matrix(.98485 0 0 .96226 .49242 .48113)" width="65" height="25.5" fill="#fff" stroke="#000"/><text id="c7b79-text" class="Text" transform="translate(32.5 16.75)" fill="#000"  font-size="12px" stroke="white" stroke-width="0" text-anchor="middle"><tspan x="0" y="0">CX3CL1</tspan></text></a><a  id="c94b9" class="GeneProduct ICAM1 " transform="translate(613.16 666.53)"   name="ICAM1"  ><rect id="c94b9-icon" class="Icon" transform="matrix(.98485 0 0 .96226 .49242 .48113)" width="65" height="25.5" fill="#fff" stroke="#000"/><text id="c94b9-text" class="Text" transform="translate(32.5,16.75)" fill="#000"  font-size="12px" stroke="white" stroke-width="0" text-anchor="middle"><tspan x="0" y="0">ICAM1</tspan></text></a><g id="pvjsgeneratedidff802" class="GroupComplex" transform="translate(638.22 582.64)" color="grey" ><use id="pvjsgeneratedidff802-icon" class="Icon" transform="matrix(.98889 0 0 .98684 .49444 .49342)" width="89.00000000000011" height="75" fill="#b4b464" fill-opacity=".1" stroke="grey" xlink:href="#Octagon"/><a  id="d8922" class="GeneProduct IRF5 " transform="translate(12,12)"   name="IRF5"  ><rect id="d8922-icon" class="Icon" transform="matrix(.98485 0 0 .96226 .49242 .48113)" width="65" height="25.5" fill="#fff" stroke="#000"/><text id="d8922-text" class="Text" transform="translate(32.5,16.75)" fill="#000"  font-size="12px" stroke="white" stroke-width="0" text-anchor="middle"><tspan x="0" y="0">IRF5</tspan></text></a><a  id="ebd89" class="GeneProduct IRF9 " transform="translate(12 37.5)"   name="IRF9"  ><rect id="ebd89-icon" class="Icon" transform="matrix(.98485 0 0 .96226 .49242 .48113)" width="65" height="25.5" fill="#fff" stroke="#000"/><text id="ebd89-text" class="Text" transform="translate(32.5,16.75)" fill="#000"  font-size="12px" stroke="white" stroke-width="0" text-anchor="middle"><tspan x="0" y="0">IRF9</tspan></text></a></g><a  id="cc583" class="GeneProduct ISG15 " transform="translate(539.73 724.49)"   name="ISG15"  ><rect id="cc583-icon" class="Icon" transform="matrix(.98485 0 0 .96226 .49242 .48113)" width="65" height="25.5" fill="#fff" stroke="#000"/><text id="cc583-text" class="Text" transform="translate(32.5 16.75)" fill="#000"  font-size="12px" stroke="white" stroke-width="0" text-anchor="middle"><tspan x="0" y="0">ISG15</tspan></text></a><a  id="f4ead" class="GeneProduct SERPINB5 " transform="translate(686.28 725.83)"   name="SERPINB5"  ><rect id="f4ead-icon" class="Icon" transform="matrix(.98636 0 0 .96226 .49318 .48113)" width="72.306" height="25.5" fill="#fff" stroke="#000"/><text id="f4ead-text" class="Text" transform="translate(36.153 16.75)" fill="#000"  font-size="12px" stroke="white" stroke-width="0" text-anchor="middle"><tspan x="0" y="0">SERPINB5</tspan></text></a><a  id="d5d1b" class="GeneProduct CCL2 " transform="translate(689.94 667.57)"   name="CCL2"  ><rect id="d5d1b-icon" class="Icon" transform="matrix(.98485 0 0 .96226 .49242 .48113)" width="65" height="25.5" fill="#fff" stroke="#000"/><text id="d5d1b-text" class="Text" transform="translate(32.5,16.75)" fill="#000"  font-size="12px" stroke="white" stroke-width="0" text-anchor="middle"><tspan x="0" y="0">CCL2</tspan></text></a><a  id="fce48" class="GeneProduct NCF2 " transform="translate(613.16 724.79)"   name="NCF2"  ><rect id="fce48-icon" class="Icon" transform="matrix(.98485 0 0 .96226 .49242 .48113)" width="65" height="25.5" fill="#fff" stroke="#000"/><text id="fce48-text" class="Text" transform="translate(32.5 16.75)" fill="#000"  font-size="12px" stroke="white" stroke-width="0" text-anchor="middle"><tspan x="0" y="0">NCF2</tspan></text></a><a  id="c92a3" class="GeneProduct SERPINE1 " transform="translate(686.39 696.7)"   name="SERPINE1"  ><rect id="c92a3-icon" class="Icon" transform="matrix(.98632 0 0 .96226 .49316 .48113)" width="72.096" height="25.5" fill="#fff" stroke="#000"/><text id="c92a3-text" class="Text" transform="translate(36.048 16.75)" fill="#000"  font-size="12px" stroke="white" stroke-width="0" text-anchor="middle"><tspan x="0" y="0">SERPINE1</tspan></text></a><a  id="b655d" class="GeneProduct THBS1 " transform="translate(613.16 695.66)"   name="THBS1"  ><rect id="b655d-icon" class="Icon" transform="matrix(.98485 0 0 .96226 .49242 .48113)" width="65" height="25.5" fill="#fff" stroke="#000"/><text id="b655d-text" class="Text" transform="translate(32.5 16.75)" fill="#000"  font-size="12px" stroke="white" stroke-width="0" text-anchor="middle"><tspan x="0" y="0">THBS1</tspan></text></a><g id="pvjsgeneratedidff801" class="GroupComplex" transform="translate(543.05 581.4)" color="grey" ><use id="pvjsgeneratedidff801-icon" class="Icon" transform="matrix(.98889 0 0 .98684 .49444 .49342)" width="89" height="75.00000000000011" fill="#b4b464" fill-opacity=".1" stroke="grey" xlink:href="#Octagon"/><a  id="c3ff6" class="GeneProduct ULBP1 " transform="translate(12,12)"   name="ULBP1"  ><rect id="c3ff6-icon" class="Icon" transform="matrix(.98485 0 0 .96226 .49242 .48113)" width="65" height="25.5" fill="#fff" stroke="#000"/><text id="c3ff6-text" class="Text" transform="translate(32.5,16.75)" fill="#000"  font-size="12px" stroke="white" stroke-width="0" text-anchor="middle"><tspan x="0" y="0">ULBP1</tspan></text></a><a  id="d73cc" class="GeneProduct ULBP2 " transform="translate(12 37.5)"   name="ULBP2"  ><rect id="d73cc-icon" class="Icon" transform="matrix(.98485 0 0 .96226 .49242 .48113)" width="65" height="25.5" fill="#fff" stroke="#000"/><text id="d73cc-text" class="Text" transform="translate(32.5,16.75)" fill="#000"  font-size="12px" stroke="white" stroke-width="0" text-anchor="middle"><tspan x="0" y="0">ULBP2</tspan></text></a></g><text id="WP4963-text" class="Text" transform="translate(5,27)" dominant-baseline="central" fill="black"  font-size="12px" font-weight="bold" overflow="visible" stroke="white" stroke-width="0"><tspan x="0" y="-9">Name: p53 transcriptional gene network</tspan> <tspan x="0" y="9">Organism: Homo sapiens</tspan></text></g></svg>
