<?xml version="1.0" encoding="UTF-8"?>
<!--
  WikiPathways page: https://www.wikipathways.org/index.php/Pathway:WP4921
  URL for this compressed file: https://github.com/eweitz/cachome/tree/main/data/WP4921.svg
  Source code for compression: https://github.com/eweitz/cachome/tree/main/src/wikipathways.py
-->
<svg id="wp4921-svg" class="Diagram" width="800" height="600" color="black" baseProfile="full" prefix="schema:http://schema.org/" preserveAspectRatio="xMidYMid" version="1.1" viewBox="0 0 1700.7 739.03" vocab="http://vocabularies.wikipathways.org/wp#" xmlns="http://www.w3.org/2000/svg" xmlns:xlink="http://www.w3.org/1999/xlink"><style>svg {font-family: 'Liberation Sans', Arial, sans-serif; }</style><defs><g id="jit-defs"><filter id="kaavioblackto000000filter" x="0" y="0" width="1700.7" height="739.03" filterUnits="userSpaceOnUse"><feColorMatrix in="SourceGraphic" values="-1   0   0 0 0                   0  -1   0 0 0                   0   0  -1 0 0                   0   0   0 1 0"/></filter></g><g id="jic-defs"><marker id="markerEndArrow" stroke-dasharray="99999" markerHeight="12" markerUnits="userSpaceOnUse" markerWidth="12" orient="auto" preserveAspectRatio="none" refX="12" refY="6" viewBox="0 0 12 12"><path transform="rotate(180 6 6)" d="M12 11L0 6l12-5z" fill="currentColor" stroke-width="0"/></marker><symbol id="none" preserveAspectRatio="none" viewBox="0 0 100 100"/></g></defs><g id="WP4921" class="Viewport" color="black"  name="Name: Mitochondrial complex III assembly Organism: Homo sapiens"><rect id="WP4921-icon" class="Icon" width="1700.7" height="739.03" fill="#fff" stroke="#000" stroke-width="0"/><g id="idb384818a" class="DirectedInteraction" color="#000" ><g color="#000" fill="transparent"  filter="url(#kaavioblackto000000filter)" stroke="#000" stroke-dasharray="211.16669241482484, 5.8"><path id="idb384818a" class="EdgeBody" d="m881.3 598.84 19.919-216.05"   marker-end="url(#markerEndArrow)" /></g></g><g id="idcd1b8b86" class="Interaction" color="#000" ><g color="#000" fill="transparent"  filter="url(#kaavioblackto000000filter)" stroke="#000" stroke-dasharray="221.0487574690773, 0"><path id="idcd1b8b86" class="EdgeBody" d="m519.45 408.02-212.9 59.468"   /></g></g><g id="id1cbc5d6d" class="DirectedInteraction" color="#000" ><g color="#000" fill="transparent"  filter="url(#kaavioblackto000000filter)" stroke="#000" stroke-dasharray="100.94241397814815, 5.8"><path id="id1cbc5d6d" class="EdgeBody" d="m382.83 186.66 106.73-1.5546"   marker-end="url(#markerEndArrow)" /></g><g id="b1ca6" class="Burr Anchor" transform="translate(401.25 186.39)" ><use id="b1ca6-icon" class="Icon" width="0" height="0" fill="#141414" stroke-width="0" xlink:href="#none"/></g><g id="d1c9d" class="Burr Anchor" transform="translate(425.52 186.04)" ><use id="d1c9d-icon" class="Icon" width="0" height="0" fill="#141414" stroke-width="0" xlink:href="#none"/></g><g id="eba36" class="Burr Anchor" transform="translate(450.5 185.67)" ><use id="eba36-icon" class="Icon" width="0" height="0" fill="#141414" stroke-width="0" xlink:href="#none"/></g></g><g id="id3ad29135" class="DirectedInteraction" color="#000" ><g color="#000" fill="transparent"  filter="url(#kaavioblackto000000filter)" stroke="#000" stroke-dasharray="48.79808926192414, 5.8"><path id="id3ad29135" class="EdgeBody" d="m401.09 131.79 0.16641 54.598"   marker-end="url(#markerEndArrow)" /></g></g><g id="id41e734c" class="DirectedInteraction" color="#000" ><g color="#000" fill="transparent"  filter="url(#kaavioblackto000000filter)" stroke="#000" stroke-dasharray="56.56983494442381, 5.8"><path id="id41e734c" class="EdgeBody" d="m425.42 248.41 0.1042-62.37"   marker-end="url(#markerEndArrow)" /></g></g><g id="id9a697809" class="DirectedInteraction" color="#000" ><g color="#000" fill="transparent"  filter="url(#kaavioblackto000000filter)" stroke="#000" stroke-dasharray="165.07551768204763, 5.8"><path id="id9a697809" class="EdgeBody" d="m450.5 185.67 68.95 156.35"   marker-end="url(#markerEndArrow)" /></g></g><g id="idbed4c814" class="DirectedInteraction" color="#000" ><g color="#000" fill="transparent"  filter="url(#kaavioblackto000000filter)" stroke="#000" stroke-dasharray="136.64537970046746, 5.8"><path id="idbed4c814" class="EdgeBody" d="m595.56 185.11 142.45 0.021008"   marker-end="url(#markerEndArrow)" /></g><g id="ba839" class="Burr Anchor" transform="translate(615.55 185.11)" ><use id="ba839-icon" class="Icon" width="0" height="0" fill="#141414" stroke-width="0" xlink:href="#none"/></g><g id="c9e0b" class="Burr Anchor" transform="translate(652.54 185.11)" ><use id="c9e0b-icon" class="Icon" width="0" height="0" fill="#141414" stroke-width="0" xlink:href="#none"/></g><g id="f1657" class="Burr Anchor" transform="translate(695.38 185.12)" ><use id="f1657-icon" class="Icon" width="0" height="0" fill="#141414" stroke-width="0" xlink:href="#none"/></g></g><g id="idf472bcb7" class="DirectedInteraction" color="#000" ><g color="#000" fill="transparent"  filter="url(#kaavioblackto000000filter)" stroke="#000" stroke-dasharray="268.99832013077673, 5.8"><path id="idf472bcb7" class="EdgeBody" d="m844.01 185.13 274.8 0.021008"   marker-end="url(#markerEndArrow)" /></g><g id="a9e73" class="Burr Anchor" transform="translate(997.71 185.14)" ><use id="a9e73-icon" class="Icon" width="0" height="0" fill="#141414" stroke-width="0" xlink:href="#none"/></g><g id="ee560" class="Burr Anchor" transform="translate(1058.9 185.14)" ><use id="ee560-icon" class="Icon" width="0" height="0" fill="#141414" stroke-width="0" xlink:href="#none"/></g><g id="f28cd" class="Burr Anchor" transform="translate(908.54 185.13)" ><use id="f28cd-icon" class="Icon" width="0" height="0" fill="#141414" stroke-width="0" xlink:href="#none"/></g><g id="ffa8c" class="Burr Anchor" transform="translate(984.4 185.14)" ><use id="ffa8c-icon" class="Icon" width="0" height="0" fill="#141414" stroke-width="0" xlink:href="#none"/></g></g><g id="id4e33d665" class="DirectedInteraction" color="#000" ><g color="#000" fill="transparent"  filter="url(#kaavioblackto000000filter)" stroke="#000" stroke-dasharray="130.85032903352152, 5.8"><path id="id4e33d665" class="EdgeBody" d="m140.18 185.71 136.65 0.94538"   marker-end="url(#markerEndArrow)" /></g><g id="e9144" class="Burr Anchor" transform="translate(166.74 185.9)" ><use id="e9144-icon" class="Icon" width="0" height="0" fill="#141414" stroke-width="0" xlink:href="#none"/></g><g id="cfe0e" class="Burr Anchor" transform="translate(223.63 186.29)" ><use id="cfe0e-icon" class="Icon" width="0" height="0" fill="#141414" stroke-width="0" xlink:href="#none"/></g></g><g id="id13f5352d" class="DirectedInteraction" color="#000" ><g color="#000" fill="transparent"  filter="url(#kaavioblackto000000filter)" stroke="#000" stroke-dasharray="47.549045032378594, 5.8"><path id="id13f5352d" class="EdgeBody" d="m1058.8 131.79 0.09793 53.349"   marker-end="url(#markerEndArrow)" /></g></g><g id="id38c4758a" class="DirectedInteraction" color="#000" ><g color="#000" fill="transparent"  filter="url(#kaavioblackto000000filter)" stroke="#000" stroke-dasharray="177.58045048665792, 5.8"><path id="id38c4758a" class="EdgeBody" d="m1065.1 355.69-67.374-170.56"   marker-end="url(#markerEndArrow)" /></g></g><g id="id5517e523" class="DirectedInteraction" color="#000" ><g color="#000" fill="transparent"  filter="url(#kaavioblackto000000filter)" stroke="#000" stroke-dasharray="47.52622749620549, 5.8"><path id="id5517e523" class="EdgeBody" d="m653.36 131.79-0.82017 53.32"   marker-end="url(#markerEndArrow)" /></g></g><g id="id815fcdb" class="DirectedInteraction" color="#000" ><g color="#000" fill="transparent"  filter="url(#kaavioblackto000000filter)" stroke="#000" stroke-dasharray="173.01418986658828, 5.8"><path id="id815fcdb" class="EdgeBody" d="m695.38 185.12 29.453 176.37"   marker-end="url(#markerEndArrow)" /></g></g><g id="idc41e4999" class="DirectedInteraction" color="#000" ><g color="#000" fill="transparent"  filter="url(#kaavioblackto000000filter)" stroke="#000" stroke-dasharray="47.54645947027725, 5.8"><path id="idc41e4999" class="EdgeBody" d="m907.56 131.79 0.97992 53.337"   marker-end="url(#markerEndArrow)" /></g></g><g id="idc656143d" class="DirectedInteraction" color="#000" ><g color="#000" fill="transparent"  filter="url(#kaavioblackto000000filter)" stroke="#000" stroke-dasharray="142.94827895065893, 5.8"><path id="idc656143d" class="EdgeBody" d="m1320.4 185.15 148.75-0.33613"   marker-end="url(#markerEndArrow)" /></g><g id="c1616" class="Burr Anchor" transform="translate(1379.9 185.01)" ><use id="c1616-icon" class="Icon" width="0" height="0" fill="#141414" stroke-width="0" xlink:href="#none"/></g></g><g id="idf818647d" class="DirectedInteraction" color="#000" ><g color="#000" fill="transparent"  filter="url(#kaavioblackto000000filter)" stroke="#000" stroke-dasharray="185.85001866128667, 5.8"><path id="idf818647d" class="EdgeBody" d="m901.22 357.79 83.182-172.66"   marker-end="url(#markerEndArrow)" /></g></g><g id="id9c64cca6" class="DirectedInteraction" color="#000" ><g color="#000" fill="transparent"  filter="url(#kaavioblackto000000filter)" stroke="#000" stroke-dasharray="57.77982878492817, 5.8"><path id="id9c64cca6" class="EdgeBody" d="m616.35 248.68-0.80092-63.575"   marker-end="url(#markerEndArrow)" /></g></g><g id="idd16e46e6" class="DirectedInteraction" color="#000" ><g color="#000" fill="transparent"  filter="url(#kaavioblackto000000filter)" stroke="#000" stroke-dasharray="48.305195799854815, 5.8"><path id="idd16e46e6" class="EdgeBody" d="m167.02 131.79-0.27214 54.105"   marker-end="url(#markerEndArrow)" /></g></g><g id="idfaa9dd93" class="DirectedInteraction" color="#000" ><g color="#000" fill="transparent"  filter="url(#kaavioblackto000000filter)" stroke="#000" stroke-dasharray="71.16747374614697, 5.8"><path id="idfaa9dd93" class="EdgeBody" d="m224.29 263.26-0.65377-76.965"   marker-end="url(#markerEndArrow)" /></g></g><g id="id5b7cb2b" class="DirectedInteraction" color="#000" ><g color="#000" fill="transparent"  filter="url(#kaavioblackto000000filter)" stroke="#000" stroke-dasharray="85.0532390652901, 5.8"><path id="id5b7cb2b" class="EdgeBody" d="m1380.8 275.86-0.9042-90.849"   marker-end="url(#markerEndArrow)" /></g></g><g id="a492f" class="Label" transform="translate(611.58 71.015)" color="#000"  name="Dimerisation"><use id="a492f-icon" class="Icon" width="90" height="25" fill="transparent"  stroke="#000" stroke-width="0" xlink:href="#none"/><text id="a492f-text" class="Text" transform="translate(45,16.5)" fill="#000"  font-size="14px" font-weight="bold" stroke="white" stroke-width="0" text-anchor="middle"><tspan x="0" y="0">Dimerisation</tspan></text></g><g id="b86f4" class="Label" transform="translate(216.55 442.33)" color="#000"  name="MT-CYB  Translational  activity"><use id="b86f4-icon" class="Icon" width="90" height="50.31512605042017" fill="transparent"  stroke="#000" stroke-width="0" xlink:href="#none"/><text id="b86f4-text" class="Text" transform="translate(45 29.158)" fill="#000"  font-size="12px" stroke="white" stroke-width="0" text-anchor="middle"><tspan x="0" y="-13.200000000000001">MT-CYB </tspan> <tspan x="0" y="0">Translational </tspan> <tspan x="0" y="13.200000000000001">activity</tspan></text></g><g id="c2cb5" class="Label" transform="translate(1507.9 61.029)" color="#000"  name="Complex III"><use id="c2cb5-icon" class="Icon" width="122.06101881821922" height="25" fill="transparent"  stroke="#000" stroke-width="0" xlink:href="#none"/><text id="c2cb5-text" class="Text" transform="translate(61.031 18.5)" fill="#000"  font-size="18px" font-weight="bold" stroke="white" stroke-width="0" text-anchor="middle"><tspan x="0" y="0">Complex III</tspan></text></g><g id="d065b" class="Label" transform="translate(745.25 66.815)" color="#000"  name="Pre-cIII(2)"><use id="d065b-icon" class="Icon" width="90" height="25" fill="transparent"  stroke="#000" stroke-width="0" xlink:href="#none"/><text id="d065b-text" class="Text" transform="translate(45,18.5)" fill="#000"  font-size="18px" font-weight="bold" stroke="white" stroke-width="0" text-anchor="middle"><tspan x="0" y="0">Pre-cIII(2)</tspan></text></g><g id="f67a3" class="Label" transform="translate(913.87 666.07)" color="#000"  name="Fe-S Transfer Complex"><use id="f67a3-icon" class="Icon" width="156.34453781512607" height="42.96218487394967" fill="transparent"  stroke="#000" stroke-width="0" xlink:href="#none"/><text id="f67a3-text" class="Text" transform="translate(78.172 25.481)" fill="#000"  font-size="12px" stroke="white" stroke-width="0" text-anchor="middle"><tspan x="0" y="0">Fe-S Transfer Complex</tspan></text></g><a id="a7ee9" class="ChEBI_CHEBI_60344 Metabolite  " transform="translate(122.02 106.79)" color="#00f"  name="heme b"  ><rect id="a7ee9-icon" class="Icon" transform="matrix(.98901 0 0 .96154 .49451 .48077)" width="90" height="25" fill="#fff" stroke="#00f"/><text id="a7ee9-text" class="Text" transform="translate(45,16.5)" fill="#00f"  font-size="12px" stroke="white" stroke-width="0" text-anchor="middle"><tspan x="0" y="0">heme b</tspan></text></a><a  id="aee2a" class="GeneProduct UQCRH " transform="translate(608.36 106.79)"   name="UQCRH"  ><rect id="aee2a-icon" class="Icon" transform="matrix(.98901 0 0 .96154 .49451 .48077)" width="90" height="25" fill="#fff" stroke="#000"/><text id="aee2a-text" class="Text" transform="translate(45,16.5)" fill="#000"  font-size="12px" stroke="white" stroke-width="0" text-anchor="middle"><tspan x="0" y="0">UQCRH</tspan></text></a><a  id="b54d8" class="GeneProduct LYRM7 " transform="translate(794.29 471.74)"   name="LYRM7"  ><rect id="b54d8-icon" class="Icon" transform="matrix(.98901 0 0 .96154 .49451 .48077)" width="90" height="25" fill="#fff" stroke="#000"/><text id="b54d8-text" class="Text" transform="translate(45,16.5)" fill="#000"  font-size="12px" stroke="white" stroke-width="0" text-anchor="middle"><tspan x="0" y="0">LYRM7</tspan></text></a><a  id="bcadb" class="GeneProduct UQCR11 " transform="translate(1013.8 106.79)"   name="UQCR11"  ><rect id="bcadb-icon" class="Icon" transform="matrix(.98901 0 0 .96154 .49451 .48077)" width="90" height="25" fill="#fff" stroke="#000"/><text id="bcadb-text" class="Text" transform="translate(45,16.5)" fill="#000"  font-size="12px" stroke="white" stroke-width="0" text-anchor="middle"><tspan x="0" y="0">UQCR11</tspan></text></a><a  id="d9c79" class="GeneProduct UQCRFS1 " transform="translate(856.22 357.79)"   name="UQCRFS1"  ><rect id="d9c79-icon" class="Icon" transform="matrix(.98901 0 0 .96154 .49451 .48077)" width="90" height="25" fill="#fff" stroke="#000"/><text id="d9c79-text" class="Text" transform="translate(45,16.5)" fill="#000"  font-size="12px" stroke="white" stroke-width="0" text-anchor="middle"><tspan x="0" y="0">UQCRFS1</tspan></text></a><a  id="e65ee" class="GeneProduct BCS1L " transform="translate(927.69 227)"   name="BCS1L"  ><rect id="e65ee-icon" class="Icon" transform="matrix(.98901 0 0 .96154 .49451 .48077)" width="90" height="25" fill="#fff" stroke="#000"/><text id="e65ee-text" class="Text" transform="translate(45,16.5)" fill="#000"  font-size="12px" stroke="white" stroke-width="0" text-anchor="middle"><tspan x="0" y="0">BCS1L</tspan></text></a><a id="f7bc5" class="ChEBI_CHEBI_30408 Metabolite  " transform="translate(836.3 598.84)" color="#00f"  name="2Fe-2S"  ><rect id="f7bc5-icon" class="Icon" transform="matrix(.98901 0 0 .96154 .49451 .48077)" width="90" height="25" fill="#fff" stroke="#00f"/><text id="f7bc5-text" class="Text" transform="translate(45,16.5)" fill="#00f"  font-size="12px" stroke="white" stroke-width="0" text-anchor="middle"><tspan x="0" y="0">2Fe-2S</tspan></text></a><a  id="fbc7f" class="GeneProduct UQCR10 " transform="translate(862.56 106.79)"   name="UQCR10"  ><rect id="fbc7f-icon" class="Icon" transform="matrix(.98901 0 0 .96154 .49451 .48077)" width="90" height="25" fill="#fff" stroke="#000"/><text id="fbc7f-text" class="Text" transform="translate(45,16.5)" fill="#000"  font-size="12px" stroke="white" stroke-width="0" text-anchor="middle"><tspan x="0" y="0">UQCR10</tspan></text></a><g id="c038c" class="GroupGroup" transform="translate(276.83 128.66)" color="grey" ><use id="c038c-icon" class="Icon" width="106" height="116.00000000000003" fill="transparent"  stroke="grey" stroke-dasharray="5,3" stroke-width="0" xlink:href="#none"/><a  id="a227c" class="GeneProduct UQCC3 " transform="translate(8,8)"   name="UQCC3"  ><rect id="a227c-icon" class="Icon" transform="matrix(.98901 0 0 .96154 .49451 .48077)" width="90" height="25" fill="#fff" stroke="#000"/><text id="a227c-text" class="Text" transform="translate(45,16.5)" fill="#000"  font-size="12px" stroke="white" stroke-width="0" text-anchor="middle"><tspan x="0" y="0">UQCC3</tspan></text></a><a  id="b5347" class="GeneProduct UQCC2 " transform="translate(8 83)"   name="UQCC2"  ><rect id="b5347-icon" class="Icon" transform="matrix(.98901 0 0 .96154 .49451 .48077)" width="90" height="25" fill="#fff" stroke="#000"/><text id="b5347-text" class="Text" transform="translate(45,16.5)" fill="#000"  font-size="12px" stroke="white" stroke-width="0" text-anchor="middle"><tspan x="0" y="0">UQCC2</tspan></text></a><a  id="ca714" class="GeneProduct -CYB MT-CYB -CYB " transform="translate(8,33)"   name="MT-CYB"  ><rect id="ca714-icon" class="Icon" transform="matrix(.98901 0 0 .96154 .49451 .48077)" width="90" height="25" fill="#fff" stroke="#000"/><text id="ca714-text" class="Text" transform="translate(45,16.5)" fill="#000"  font-size="12px" stroke="white" stroke-width="0" text-anchor="middle"><tspan x="0" y="0">MT-CYB</tspan></text></a><a  id="ea5c1" class="GeneProduct UQCC1 " transform="translate(8 58)"   name="UQCC1"  ><rect id="ea5c1-icon" class="Icon" transform="matrix(.98901 0 0 .96154 .49451 .48077)" width="90" height="25" fill="#fff" stroke="#000"/><text id="ea5c1-text" class="Text" transform="translate(45,16.5)" fill="#000"  font-size="12px" stroke="white" stroke-width="0" text-anchor="middle"><tspan x="0" y="0">UQCC1</tspan></text></a></g><g id="c0415" class="GroupGroup" transform="translate(372.42 248.41)" color="grey" ><use id="c0415-icon" class="Icon" width="106" height="65.99999999999994" fill="transparent"  stroke="grey" stroke-dasharray="5,3" stroke-width="0" xlink:href="#none"/><a  id="c70b5" class="GeneProduct UQCRB " transform="translate(8,8)"   name="UQCRB"  ><rect id="c70b5-icon" class="Icon" transform="matrix(.98901 0 0 .96154 .49451 .48077)" width="90" height="25" fill="#fff" stroke="#000"/><text id="c70b5-text" class="Text" transform="translate(45,16.5)" fill="#000"  font-size="12px" stroke="white" stroke-width="0" text-anchor="middle"><tspan x="0" y="0">UQCRB</tspan></text></a><a  id="d21b5" class="GeneProduct UQCRQ " transform="translate(8 33)"   name="UQCRQ"  ><rect id="d21b5-icon" class="Icon" transform="matrix(.98901 0 0 .96154 .49451 .48077)" width="90" height="25" fill="#fff" stroke="#000"/><text id="d21b5-text" class="Text" transform="translate(45,16.5)" fill="#000"  font-size="12px" stroke="white" stroke-width="0" text-anchor="middle"><tspan x="0" y="0">UQCRQ</tspan></text></a></g><g id="dcbde" class="GroupGroup" transform="translate(34.185 140.21)" color="grey" ><use id="dcbde-icon" class="Icon" width="106" height="91" fill="transparent"  stroke="grey" stroke-dasharray="5,3" stroke-width="0" xlink:href="#none"/><a  id="acfff" class="GeneProduct UQCC2 " transform="translate(8,58)"   name="UQCC2"  ><rect id="acfff-icon" class="Icon" transform="matrix(.98901 0 0 .96154 .49451 .48077)" width="90" height="25" fill="#fff" stroke="#000"/><text id="acfff-text" class="Text" transform="translate(45,16.5)" fill="#000"  font-size="12px" stroke="white" stroke-width="0" text-anchor="middle"><tspan x="0" y="0">UQCC2</tspan></text></a><a  id="ce593" class="GeneProduct -CYB MT-CYB -CYB " transform="translate(8,8)"   name="MT-CYB"  ><rect id="ce593-icon" class="Icon" transform="matrix(.98901 0 0 .96154 .49451 .48077)" width="90" height="25" fill="#fff" stroke="#000"/><text id="ce593-text" class="Text" transform="translate(45,16.5)" fill="#000"  font-size="12px" stroke="white" stroke-width="0" text-anchor="middle"><tspan x="0" y="0">MT-CYB</tspan></text></a><a  id="e7199" class="GeneProduct UQCC1 " transform="translate(8,33)"   name="UQCC1"  ><rect id="e7199-icon" class="Icon" transform="matrix(.98901 0 0 .96154 .49451 .48077)" width="90" height="25" fill="#fff" stroke="#000"/><text id="e7199-text" class="Text" transform="translate(45,16.5)" fill="#000"  font-size="12px" stroke="white" stroke-width="0" text-anchor="middle"><tspan x="0" y="0">UQCC1</tspan></text></a></g><g id="e7871" class="GroupGroup" transform="translate(1469.1 87.567)" color="grey" ><use id="e7871-icon" class="Icon" width="201.58823529411984" height="194.487394957983" fill="transparent"  stroke="grey" stroke-dasharray="5,3" stroke-width="0" xlink:href="#none"/><a  id="fb287" class="GeneProduct TTC19 " transform="translate(57.286 161.49)"   name="TTC19"  ><rect id="fb287-icon" class="Icon" transform="matrix(.98901 0 0 .96154 .49451 .48077)" width="90" height="25" fill="#fff" stroke="#000"/><text id="fb287-text" class="Text" transform="translate(45,16.5)" fill="#000"  font-size="12px" stroke="white" stroke-width="0" text-anchor="middle"><tspan x="0" y="0">TTC19</tspan></text></a><a  id="fd786" class="GeneProduct -CYB MT-CYB -CYB " transform="translate(8,8)"   name="MT-CYB"  ><rect id="fd786-icon" class="Icon" transform="matrix(.98901 0 0 .96154 .49451 .48077)" width="90" height="25" fill="#fff" stroke="#000"/><text id="fd786-text" class="Text" transform="translate(45,16.5)" fill="#000"  font-size="12px" stroke="white" stroke-width="0" text-anchor="middle"><tspan x="0" y="0">MT-CYB</tspan></text></a><a  id="ae158" class="GeneProduct UQCRB " transform="translate(8 33)"   name="UQCRB"  ><rect id="ae158-icon" class="Icon" transform="matrix(.98901 0 0 .96154 .49451 .48077)" width="90" height="25" fill="#fff" stroke="#000"/><text id="ae158-text" class="Text" transform="translate(45,16.5)" fill="#000"  font-size="12px" stroke="white" stroke-width="0" text-anchor="middle"><tspan x="0" y="0">UQCRB</tspan></text></a><a  id="b9daa" class="GeneProduct UQCRQ " transform="translate(8 58)"   name="UQCRQ"  ><rect id="b9daa-icon" class="Icon" transform="matrix(.98901 0 0 .96154 .49451 .48077)" width="90" height="25" fill="#fff" stroke="#000"/><text id="b9daa-text" class="Text" transform="translate(45,16.5)" fill="#000"  font-size="12px" stroke="white" stroke-width="0" text-anchor="middle"><tspan x="0" y="0">UQCRQ</tspan></text></a><a  id="b3cf5" class="GeneProduct UQCRH " transform="translate(8 83)"   name="UQCRH"  ><rect id="b3cf5-icon" class="Icon" transform="matrix(.98901 0 0 .96154 .49451 .48077)" width="90" height="25" fill="#fff" stroke="#000"/><text id="b3cf5-text" class="Text" transform="translate(45,16.5)" fill="#000"  font-size="12px" stroke="white" stroke-width="0" text-anchor="middle"><tspan x="0" y="0">UQCRH</tspan></text></a><a  id="e271e" class="GeneProduct UQCRC2 " transform="translate(8 133)"   name="UQCRC2"  ><rect id="e271e-icon" class="Icon" transform="matrix(.98901 0 0 .96154 .49451 .48077)" width="90" height="25" fill="#fff" stroke="#000"/><text id="e271e-text" class="Text" transform="translate(45,16.5)" fill="#000"  font-size="12px" stroke="white" stroke-width="0" text-anchor="middle"><tspan x="0" y="0">UQCRC2</tspan></text></a><a  id="ad29c" class="GeneProduct UQCRC1 " transform="translate(8 108)"   name="UQCRC1"  ><rect id="ad29c-icon" class="Icon" transform="matrix(.98901 0 0 .96154 .49451 .48077)" width="90" height="25" fill="#fff" stroke="#000"/><text id="ad29c-text" class="Text" transform="translate(45,16.5)" fill="#000"  font-size="12px" stroke="white" stroke-width="0" text-anchor="middle"><tspan x="0" y="0">UQCRC1</tspan></text></a><a  id="f7a27" class="GeneProduct CYC1 " transform="translate(103.59 8.8403)"   name="CYC1"  ><rect id="f7a27-icon" class="Icon" transform="matrix(.98901 0 0 .96154 .49451 .48077)" width="90" height="25" fill="#fff" stroke="#000"/><text id="f7a27-text" class="Text" transform="translate(45,16.5)" fill="#000"  font-size="12px" stroke="white" stroke-width="0" text-anchor="middle"><tspan x="0" y="0">CYC1</tspan></text></a><a  id="a4ba5" class="GeneProduct UQCR11 " transform="translate(103.59 33.84)"   name="UQCR11"  ><rect id="a4ba5-icon" class="Icon" transform="matrix(.98901 0 0 .96154 .49451 .48077)" width="90" height="25" fill="#fff" stroke="#000"/><text id="a4ba5-text" class="Text" transform="translate(45,16.5)" fill="#000"  font-size="12px" stroke="white" stroke-width="0" text-anchor="middle"><tspan x="0" y="0">UQCR11</tspan></text></a><a  id="bf418" class="GeneProduct UQCR10 " transform="translate(103.59 58.84)"   name="UQCR10"  ><rect id="bf418-icon" class="Icon" transform="matrix(.98901 0 0 .96154 .49451 .48077)" width="90" height="25" fill="#fff" stroke="#000"/><text id="bf418-text" class="Text" transform="translate(45,16.5)" fill="#000"  font-size="12px" stroke="white" stroke-width="0" text-anchor="middle"><tspan x="0" y="0">UQCR10</tspan></text></a><a  id="d89d4" class="GeneProduct LYRM7 " transform="translate(103.59 133.84)"   name="LYRM7"  ><rect id="d89d4-icon" class="Icon" transform="matrix(.98901 0 0 .96154 .49451 .48077)" width="90" height="25" fill="#fff" stroke="#000"/><text id="d89d4-text" class="Text" transform="translate(45,16.5)" fill="#000"  font-size="12px" stroke="white" stroke-width="0" text-anchor="middle"><tspan x="0" y="0">LYRM7</tspan></text></a><a  id="c604e" class="GeneProduct UQCRFS1 " transform="translate(103.59 108.84)"   name="UQCRFS1"  ><rect id="c604e-icon" class="Icon" transform="matrix(.98901 0 0 .96154 .49451 .48077)" width="90" height="25" fill="#fff" stroke="#000"/><text id="c604e-text" class="Text" transform="translate(45,16.5)" fill="#000"  font-size="12px" stroke="white" stroke-width="0" text-anchor="middle"><tspan x="0" y="0">UQCRFS1</tspan></text></a><a  id="aa2ce" class="GeneProduct BCS1L " transform="translate(103.59 83.84)"   name="BCS1L"  ><rect id="aa2ce-icon" class="Icon" transform="matrix(.98901 0 0 .96154 .49451 .48077)" width="90" height="25" fill="#fff" stroke="#000"/><text id="aa2ce-text" class="Text" transform="translate(45,16.5)" fill="#000"  font-size="12px" stroke="white" stroke-width="0" text-anchor="middle"><tspan x="0" y="0">BCS1L</tspan></text></a></g><g id="ea17b" class="GroupGroup" transform="translate(563.35 248.68)" color="grey" ><use id="ea17b-icon" class="Icon" width="106.00000000000011" height="91.00000000000006" fill="transparent"  stroke="grey" stroke-dasharray="5,3" stroke-width="0" xlink:href="#none"/><a  id="b4236" class="GeneProduct UQCRC2 " transform="translate(8 33)"   name="UQCRC2"  ><rect id="b4236-icon" class="Icon" transform="matrix(.98901 0 0 .96154 .49451 .48077)" width="90" height="25" fill="#fff" stroke="#000"/><text id="b4236-text" class="Text" transform="translate(45,16.5)" fill="#000"  font-size="12px" stroke="white" stroke-width="0" text-anchor="middle"><tspan x="0" y="0">UQCRC2</tspan></text></a><a  id="c8efe" class="GeneProduct UQCRC1 " transform="translate(8 8)"   name="UQCRC1"  ><rect id="c8efe-icon" class="Icon" transform="matrix(.98901 0 0 .96154 .49451 .48077)" width="90" height="25" fill="#fff" stroke="#000"/><text id="c8efe-text" class="Text" transform="translate(45,16.5)" fill="#000"  font-size="12px" stroke="white" stroke-width="0" text-anchor="middle"><tspan x="0" y="0">UQCRC1</tspan></text></a><a  id="e08f3" class="GeneProduct CYC1 " transform="translate(8 58)"   name="CYC1"  ><rect id="e08f3-icon" class="Icon" transform="matrix(.98901 0 0 .96154 .49451 .48077)" width="90" height="25" fill="#fff" stroke="#000"/><text id="e08f3-text" class="Text" transform="translate(45,16.5)" fill="#000"  font-size="12px" stroke="white" stroke-width="0" text-anchor="middle"><tspan x="0" y="0">CYC1</tspan></text></a></g><a  id="f49fe" class="GeneProduct UQCC3 " transform="translate(179.29 263.26)"   name="UQCC3"  ><rect id="f49fe-icon" class="Icon" transform="matrix(.98901 0 0 .96154 .49451 .48077)" width="90" height="25" fill="#fff" stroke="#000"/><text id="f49fe-text" class="Text" transform="translate(45,16.5)" fill="#000"  font-size="12px" stroke="white" stroke-width="0" text-anchor="middle"><tspan x="0" y="0">UQCC3</tspan></text></a><a id="f81b6" class="ChEBI_CHEBI_60344 Metabolite  " transform="translate(356.09 106.79)" color="#00f"  name="heme b"  ><rect id="f81b6-icon" class="Icon" transform="matrix(.98901 0 0 .96154 .49451 .48077)" width="90" height="25" fill="#fff" stroke="#00f"/><text id="f81b6-text" class="Text" transform="translate(45,16.5)" fill="#00f"  font-size="12px" stroke="white" stroke-width="0" text-anchor="middle"><tspan x="0" y="0">heme b</tspan></text></a><g id="b6f0d" class="GroupGroup" transform="translate(466.45 342.02)" color="grey" ><use id="b6f0d-icon" class="Icon" width="106" height="65.99999999999943" fill="transparent"  stroke="grey" stroke-dasharray="5,3" stroke-width="0" xlink:href="#none"/><a  id="af29a" class="GeneProduct UQCC2 " transform="translate(8 33)"   name="UQCC2"  ><rect id="af29a-icon" class="Icon" transform="matrix(.98901 0 0 .96154 .49451 .48077)" width="90" height="25" fill="#fff" stroke="#000"/><text id="af29a-text" class="Text" transform="translate(45,16.5)" fill="#000"  font-size="12px" stroke="white" stroke-width="0" text-anchor="middle"><tspan x="0" y="0">UQCC2</tspan></text></a><a  id="b749c" class="GeneProduct UQCC1 " transform="translate(8,8)"   name="UQCC1"  ><rect id="b749c-icon" class="Icon" transform="matrix(.98901 0 0 .96154 .49451 .48077)" width="90" height="25" fill="#fff" stroke="#000"/><text id="b749c-text" class="Text" transform="translate(45,16.5)" fill="#000"  font-size="12px" stroke="white" stroke-width="0" text-anchor="middle"><tspan x="0" y="0">UQCC1</tspan></text></a></g><g id="ce71b" class="GroupGroup" transform="translate(489.56 127.11)" color="grey" ><use id="ce71b-icon" class="Icon" width="106" height="116.0000000000008" fill="transparent"  stroke="grey" stroke-dasharray="5,3" stroke-width="0" xlink:href="#none"/><a  id="a069c" class="GeneProduct UQCC3 " transform="translate(8,8)"   name="UQCC3"  ><rect id="a069c-icon" class="Icon" transform="matrix(.98901 0 0 .96154 .49451 .48077)" width="90" height="25" fill="#fff" stroke="#000"/><text id="a069c-text" class="Text" transform="translate(45,16.5)" fill="#000"  font-size="12px" stroke="white" stroke-width="0" text-anchor="middle"><tspan x="0" y="0">UQCC3</tspan></text></a><a  id="d5279" class="GeneProduct -CYB MT-CYB -CYB " transform="translate(8 33)"   name="MT-CYB"  ><rect id="d5279-icon" class="Icon" transform="matrix(.98901 0 0 .96154 .49451 .48077)" width="90" height="25" fill="#fff" stroke="#000"/><text id="d5279-text" class="Text" transform="translate(45,16.5)" fill="#000"  font-size="12px" stroke="white" stroke-width="0" text-anchor="middle"><tspan x="0" y="0">MT-CYB</tspan></text></a><a  id="e8f8b" class="GeneProduct UQCRB " transform="translate(8 58)"   name="UQCRB"  ><rect id="e8f8b-icon" class="Icon" transform="matrix(.98901 0 0 .96154 .49451 .48077)" width="90" height="25" fill="#fff" stroke="#000"/><text id="e8f8b-text" class="Text" transform="translate(45,16.5)" fill="#000"  font-size="12px" stroke="white" stroke-width="0" text-anchor="middle"><tspan x="0" y="0">UQCRB</tspan></text></a><a  id="cf14b" class="GeneProduct UQCRQ " transform="translate(8 83)"   name="UQCRQ"  ><rect id="cf14b-icon" class="Icon" transform="matrix(.98901 0 0 .96154 .49451 .48077)" width="90" height="25" fill="#fff" stroke="#000"/><text id="cf14b-text" class="Text" transform="translate(45,16.5)" fill="#000"  font-size="12px" stroke="white" stroke-width="0" text-anchor="middle"><tspan x="0" y="0">UQCRQ</tspan></text></a></g><a  id="e25d0" class="GeneProduct UQCC3 " transform="translate(679.83 361.49)"   name="UQCC3"  ><rect id="e25d0-icon" class="Icon" transform="matrix(.98901 0 0 .96154 .49451 .48077)" width="90" height="25" fill="#fff" stroke="#000"/><text id="e25d0-text" class="Text" transform="translate(45,16.5)" fill="#000"  font-size="12px" stroke="white" stroke-width="0" text-anchor="middle"><tspan x="0" y="0">UQCC3</tspan></text></a><g id="dc2f0" class="GroupGroup" transform="translate(738.01 89.626)" color="grey" ><use id="dc2f0-icon" class="Icon" width="106" height="191.00000000000077" fill="transparent"  stroke="grey" stroke-dasharray="5,3" stroke-width="0" xlink:href="#none"/><a  id="d7f07" class="GeneProduct -CYB MT-CYB -CYB " transform="translate(8,8)"   name="MT-CYB"  ><rect id="d7f07-icon" class="Icon" transform="matrix(.98901 0 0 .96154 .49451 .48077)" width="90" height="25" fill="#fff" stroke="#000"/><text id="d7f07-text" class="Text" transform="translate(45,16.5)" fill="#000"  font-size="12px" stroke="white" stroke-width="0" text-anchor="middle"><tspan x="0" y="0">MT-CYB</tspan></text></a><a  id="ee6a3" class="GeneProduct UQCRB " transform="translate(8 33)"   name="UQCRB"  ><rect id="ee6a3-icon" class="Icon" transform="matrix(.98901 0 0 .96154 .49451 .48077)" width="90" height="25" fill="#fff" stroke="#000"/><text id="ee6a3-text" class="Text" transform="translate(45,16.5)" fill="#000"  font-size="12px" stroke="white" stroke-width="0" text-anchor="middle"><tspan x="0" y="0">UQCRB</tspan></text></a><a  id="fa778" class="GeneProduct UQCRQ " transform="translate(8 58)"   name="UQCRQ"  ><rect id="fa778-icon" class="Icon" transform="matrix(.98901 0 0 .96154 .49451 .48077)" width="90" height="25" fill="#fff" stroke="#000"/><text id="fa778-text" class="Text" transform="translate(45,16.5)" fill="#000"  font-size="12px" stroke="white" stroke-width="0" text-anchor="middle"><tspan x="0" y="0">UQCRQ</tspan></text></a><a  id="afa6f" class="GeneProduct UQCRH " transform="translate(8 83)"   name="UQCRH"  ><rect id="afa6f-icon" class="Icon" transform="matrix(.98901 0 0 .96154 .49451 .48077)" width="90" height="25" fill="#fff" stroke="#000"/><text id="afa6f-text" class="Text" transform="translate(45,16.5)" fill="#000"  font-size="12px" stroke="white" stroke-width="0" text-anchor="middle"><tspan x="0" y="0">UQCRH</tspan></text></a><a  id="db74f" class="GeneProduct UQCRC2 " transform="translate(8 133)"   name="UQCRC2"  ><rect id="db74f-icon" class="Icon" transform="matrix(.98901 0 0 .96154 .49451 .48077)" width="90" height="25" fill="#fff" stroke="#000"/><text id="db74f-text" class="Text" transform="translate(45,16.5)" fill="#000"  font-size="12px" stroke="white" stroke-width="0" text-anchor="middle"><tspan x="0" y="0">UQCRC2</tspan></text></a><a  id="cb5fb" class="GeneProduct UQCRC1 " transform="translate(8 108)"   name="UQCRC1"  ><rect id="cb5fb-icon" class="Icon" transform="matrix(.98901 0 0 .96154 .49451 .48077)" width="90" height="25" fill="#fff" stroke="#000"/><text id="cb5fb-text" class="Text" transform="translate(45,16.5)" fill="#000"  font-size="12px" stroke="white" stroke-width="0" text-anchor="middle"><tspan x="0" y="0">UQCRC1</tspan></text></a><a  id="caa1d" class="GeneProduct CYC1 " transform="translate(8 158)"   name="CYC1"  ><rect id="caa1d-icon" class="Icon" transform="matrix(.98901 0 0 .96154 .49451 .48077)" width="90" height="25" fill="#fff" stroke="#000"/><text id="caa1d-text" class="Text" transform="translate(45,16.5)" fill="#000"  font-size="12px" stroke="white" stroke-width="0" text-anchor="middle"><tspan x="0" y="0">CYC1</tspan></text></a></g><g id="bc35b" class="Interaction" color="#000" ><g color="#000" fill="transparent"  filter="url(#kaavioblackto000000filter)" stroke="#000" stroke-dasharray="269.37428713918933, 0"><path id="bc35b" class="EdgeBody" d="m87.185 231.21 129.37 236.28"   /></g></g><a  id="d05f9" class="GeneProduct LYRM7 " transform="translate(1084.7 467.04)"   name="LYRM7"  ><rect id="d05f9-icon" class="Icon" transform="matrix(.98901 0 0 .96154 .49451 .48077)" width="90" height="25" fill="#fff" stroke="#000"/><text id="d05f9-text" class="Text" transform="translate(45,16.5)" fill="#000"  font-size="12px" stroke="white" stroke-width="0" text-anchor="middle"><tspan x="0" y="0">LYRM7</tspan></text></a><a  id="c8d4b" class="GeneProduct UQCRFS1 " transform="translate(1020.1 355.69)"   name="UQCRFS1"  ><rect id="c8d4b-icon" class="Icon" transform="matrix(.98901 0 0 .96154 .49451 .48077)" width="90" height="25" fill="#fff" stroke="#000"/><text id="c8d4b-text" class="Text" transform="translate(45,16.5)" fill="#000"  font-size="12px" stroke="white" stroke-width="0" text-anchor="middle"><tspan x="0" y="0">UQCRFS1</tspan></text></a><a id="d4af4" class="ChEBI_CHEBI_30408 Metabolite  " transform="translate(1043.8 605.69)" color="#00f"  name="2Fe-2S"  ><rect id="d4af4-icon" class="Icon" transform="matrix(.98901 0 0 .96154 .49451 .48077)" width="90" height="25" fill="#fff" stroke="#00f"/><text id="d4af4-text" class="Text" transform="translate(45,16.5)" fill="#00f"  font-size="12px" stroke="white" stroke-width="0" text-anchor="middle"><tspan x="0" y="0">2Fe-2S</tspan></text></a><g id="c03d4" class="DirectedInteraction" color="#000" ><g color="#000" fill="transparent"  filter="url(#kaavioblackto000000filter)" stroke="#000" stroke-dasharray="220.44418818518108, 5.8"><path id="c03d4" class="EdgeBody" d="m1088.8 605.69-23.695-225"   marker-end="url(#markerEndArrow)" /></g></g><g id="db228" class="GroupGroup" transform="translate(1118.8 101.73)" color="grey" ><use id="db228-icon" class="Icon" width="201.58823529411984" height="166.84033613445388" fill="transparent"  stroke="grey" stroke-dasharray="5,3" stroke-width="0" xlink:href="#none"/><a  id="e7578" class="GeneProduct -CYB MT-CYB -CYB " transform="translate(8,8)"   name="MT-CYB"  ><rect id="e7578-icon" class="Icon" transform="matrix(.98901 0 0 .96154 .49451 .48077)" width="90" height="25" fill="#fff" stroke="#000"/><text id="e7578-text" class="Text" transform="translate(45,16.5)" fill="#000"  font-size="12px" stroke="white" stroke-width="0" text-anchor="middle"><tspan x="0" y="0">MT-CYB</tspan></text></a><a  id="dabb2" class="GeneProduct UQCRB " transform="translate(8,33)"   name="UQCRB"  ><rect id="dabb2-icon" class="Icon" transform="matrix(.98901 0 0 .96154 .49451 .48077)" width="90" height="25" fill="#fff" stroke="#000"/><text id="dabb2-text" class="Text" transform="translate(45,16.5)" fill="#000"  font-size="12px" stroke="white" stroke-width="0" text-anchor="middle"><tspan x="0" y="0">UQCRB</tspan></text></a><a  id="d3a7d" class="GeneProduct UQCRQ " transform="translate(8,58)"   name="UQCRQ"  ><rect id="d3a7d-icon" class="Icon" transform="matrix(.98901 0 0 .96154 .49451 .48077)" width="90" height="25" fill="#fff" stroke="#000"/><text id="d3a7d-text" class="Text" transform="translate(45,16.5)" fill="#000"  font-size="12px" stroke="white" stroke-width="0" text-anchor="middle"><tspan x="0" y="0">UQCRQ</tspan></text></a><a  id="dd6fc" class="GeneProduct UQCRH " transform="translate(8,83)"   name="UQCRH"  ><rect id="dd6fc-icon" class="Icon" transform="matrix(.98901 0 0 .96154 .49451 .48077)" width="90" height="25" fill="#fff" stroke="#000"/><text id="dd6fc-text" class="Text" transform="translate(45,16.5)" fill="#000"  font-size="12px" stroke="white" stroke-width="0" text-anchor="middle"><tspan x="0" y="0">UQCRH</tspan></text></a><a  id="e9354" class="GeneProduct UQCRC2 " transform="translate(8,133)"   name="UQCRC2"  ><rect id="e9354-icon" class="Icon" transform="matrix(.98901 0 0 .96154 .49451 .48077)" width="90" height="25" fill="#fff" stroke="#000"/><text id="e9354-text" class="Text" transform="translate(45,16.5)" fill="#000"  font-size="12px" stroke="white" stroke-width="0" text-anchor="middle"><tspan x="0" y="0">UQCRC2</tspan></text></a><a  id="a3dab" class="GeneProduct UQCRC1 " transform="translate(8,108)"   name="UQCRC1"  ><rect id="a3dab-icon" class="Icon" transform="matrix(.98901 0 0 .96154 .49451 .48077)" width="90" height="25" fill="#fff" stroke="#000"/><text id="a3dab-text" class="Text" transform="translate(45,16.5)" fill="#000"  font-size="12px" stroke="white" stroke-width="0" text-anchor="middle"><tspan x="0" y="0">UQCRC1</tspan></text></a><a  id="e0622" class="GeneProduct CYC1 " transform="translate(103.59 8.8403)"   name="CYC1"  ><rect id="e0622-icon" class="Icon" transform="matrix(.98901 0 0 .96154 .49451 .48077)" width="90" height="25" fill="#fff" stroke="#000"/><text id="e0622-text" class="Text" transform="translate(45,16.5)" fill="#000"  font-size="12px" stroke="white" stroke-width="0" text-anchor="middle"><tspan x="0" y="0">CYC1</tspan></text></a><a  id="c7c8a" class="GeneProduct UQCR11 " transform="translate(103.59 33.84)"   name="UQCR11"  ><rect id="c7c8a-icon" class="Icon" transform="matrix(.98901 0 0 .96154 .49451 .48077)" width="90" height="25" fill="#fff" stroke="#000"/><text id="c7c8a-text" class="Text" transform="translate(45,16.5)" fill="#000"  font-size="12px" stroke="white" stroke-width="0" text-anchor="middle"><tspan x="0" y="0">UQCR11</tspan></text></a><a  id="ba211" class="GeneProduct UQCR10 " transform="translate(103.59 58.84)"   name="UQCR10"  ><rect id="ba211-icon" class="Icon" transform="matrix(.98901 0 0 .96154 .49451 .48077)" width="90" height="25" fill="#fff" stroke="#000"/><text id="ba211-text" class="Text" transform="translate(45,16.5)" fill="#000"  font-size="12px" stroke="white" stroke-width="0" text-anchor="middle"><tspan x="0" y="0">UQCR10</tspan></text></a><a  id="cbe73" class="GeneProduct LYRM7 " transform="translate(103.59 133.84)"   name="LYRM7"  ><rect id="cbe73-icon" class="Icon" transform="matrix(.98901 0 0 .96154 .49451 .48077)" width="90" height="25" fill="#fff" stroke="#000"/><text id="cbe73-text" class="Text" transform="translate(45,16.5)" fill="#000"  font-size="12px" stroke="white" stroke-width="0" text-anchor="middle"><tspan x="0" y="0">LYRM7</tspan></text></a><a  id="bd649" class="GeneProduct UQCRFS1 " transform="translate(103.59 108.84)"   name="UQCRFS1"  ><rect id="bd649-icon" class="Icon" transform="matrix(.98901 0 0 .96154 .49451 .48077)" width="90" height="25" fill="#fff" stroke="#000"/><text id="bd649-text" class="Text" transform="translate(45,16.5)" fill="#000"  font-size="12px" stroke="white" stroke-width="0" text-anchor="middle"><tspan x="0" y="0">UQCRFS1</tspan></text></a><a  id="f8e56" class="GeneProduct BCS1L " transform="translate(103.59 83.84)"   name="BCS1L"  ><rect id="f8e56-icon" class="Icon" transform="matrix(.98901 0 0 .96154 .49451 .48077)" width="90" height="25" fill="#fff" stroke="#000"/><text id="f8e56-text" class="Text" transform="translate(45,16.5)" fill="#000"  font-size="12px" stroke="white" stroke-width="0" text-anchor="middle"><tspan x="0" y="0">BCS1L</tspan></text></a></g><a  id="f906a" class="GeneProduct TTC19 " transform="translate(1335.8 275.86)"   name="TTC19"  ><rect id="f906a-icon" class="Icon" transform="matrix(.98901 0 0 .96154 .49451 .48077)" width="90" height="25" fill="#fff" stroke="#000"/><text id="f906a-text" class="Text" transform="translate(45,16.5)" fill="#000"  font-size="12px" stroke="white" stroke-width="0" text-anchor="middle"><tspan x="0" y="0">TTC19</tspan></text></a><text id="WP4921-text" class="Text" transform="translate(5,27)" dominant-baseline="central" fill="black"  font-size="12px" font-weight="bold" overflow="visible" stroke="white" stroke-width="0"><tspan x="0" y="-9">Name: Mitochondrial complex III assembly</tspan> <tspan x="0" y="9">Organism: Homo sapiens</tspan></text></g></svg>
