<?xml version="1.0" encoding="UTF-8"?>
<svg xmlns="http://www.w3.org/2000/svg" id="-svg" class="Diagram"  baseProfile="full" prefix="schema:http://schema.org/" preserveAspectRatio="xMidYMid"  version="1.1"><defs><g id="filter-defs"><filter id="doublefalse3filter" x="-50%" y="-50%" width="200%" height="200%"><feComposite in="SourceGraphic" in2="SourceGraphic" result="doubleDark"/><feMorphology in="doubleDark" operator="dilate" radius="0.17" result="in2Double"/><feMorphology in="SourceGraphic" operator="dilate" radius="3" result="inDouble"/><feComposite in="inDouble" in2="in2Double" operator="out" result="doubleResult"/></filter></g><g id="icon-defs"><symbol id="Ellipse" class=" Icon Ellipse" x="0" y="0" overflow="visible" preserveAspectRatio="none" viewBox="0 0 50 50"><desc>Ellipse</desc><ellipse cx="25" cy="25" rx="25" ry="25" vector-effect="non-scaling-stroke"/></symbol><symbol id="Mitochondria" class=" Icon Mitochondria" x="0" y="0" overflow="visible" preserveAspectRatio="none" viewBox="0 0 100 100"><desc>Mitochondria</desc><ellipse cx="50" cy="50" rx="50" ry="50"/><path d="m14.89 26.35c4.36-0.74 3.83 17.04 8.18 16.18 8.27 0.03 2.98-28.15 9.90-28.34 6.97-0.19 2.25 29.95 9.21 29.44 7.63-0.56 0.51-32.94 8.14-33.62 7.70-0.69 2.92 32.04 10.63 32.23 6.55 0.16 3.03-27.64 9.56-26.92 7.19 0.79 0.66 29.84 7.78 31.67 4.75 1.22 4.42-18.26 9.20-17.44 11.13 7.58 8.63 37.70-2.18 44.65-3.14 0.70-3.97-10.50-7.11-9.91-5.59 1.06-3.98 22.28-9.60 21.80-5.24-0.46-2.23-21.64-7.47-21.73-6.96-0.12-3.36 28.92-10.32 28.50-6.14-0.38-1.73-24.95-7.83-26.19-5.68-1.16-5.38 22.17-11.03 20.68-6.25-1.64-0.47-26.67-6.76-27.87-3.73-0.71-2.65 14.40-6.40 14.54-14.02-5.94-15.75-39.71-3.9-47.67z" vector-effect="non-scaling-stroke"/></symbol><symbol id="Octagon" class=" Icon Octagon" x="0" y="0" overflow="visible" preserveAspectRatio="none" viewBox="0 0 100 100"><desc>Octagon</desc><path d="m0 25 25-25h50l25 25v50l-25 25h-50l-25-25z" vector-effect="non-scaling-stroke"/></symbol></g><g id="marker-defs"><marker id="memconversion000" markerHeight="12" markerWidth="12" orient="auto" preserveAspectRatio="none" refX="12" refY="6" viewBox="0 0 12 12"><g id="g-memconversion000" transform=""><g transform="rotate(180 6 6)"><rect y="5.4" width="2" height="1.2" style="stroke:#fff"/><polygon points="12 11 0 6 12 1" stroke-width="0"/></g></g></marker><marker id="mea" markerHeight="12" markerWidth="12" orient="auto" preserveAspectRatio="none" refX="12" refY="6" viewBox="0 0 12 12"><g id="g-mea" transform=""><g transform="rotate(180 6 6)"><rect y="5.4" width="2" height="1.2" style="stroke:#fff"/><polygon points="12 11 0 6 12 1" stroke-width="0"/></g></g></marker><marker id="memtranscriptiontranslation000" markerHeight="24" markerWidth="20" orient="auto" preserveAspectRatio="none" refX="20" refY="12" viewBox="0 0 20 24"><g id="g-memtranscriptiontranslation000" transform=""><g transform="rotate(180 10 12)"><rect y="11" width="12" height="2" style="stroke:#fff"/><line x1="15" x2="15" y1="12" y2="5" fill="none" stroke="#000"/><line x1="15.5" x2="8" y1="5" y2="5" fill="none" stroke="#000"/><polygon points="0 5 8 1 8 9" fill="#fff" stroke="#000"/></g></g></marker><marker id="memcatalysis000" markerHeight="12" markerWidth="12" orient="auto" preserveAspectRatio="none" refX="12" refY="6" viewBox="0 0 12 12"><g id="g-memcatalysis000" transform=""><g transform="rotate(180 6 6)"><circle cx="6" cy="6" r="5.3px" fill="#fff" stroke="#000"/></g></g></marker><marker id="membinding000" markerHeight="12" markerWidth="12" orient="auto" preserveAspectRatio="none" refX="12" refY="6" viewBox="0 0 12 12"><g id="g-membinding000" transform=""><g transform="rotate(180 6 6)"><rect y="5.4" width="2" height="1.2" style="stroke:#fff"/><polygon points="12 12 0 6 12 0 5 6" stroke-width="0"/></g></g></marker><marker id="memmodification000" markerHeight="12" markerWidth="12" orient="auto" preserveAspectRatio="none" refX="12" refY="6" viewBox="0 0 12 12"><g id="g-memmodification000" transform=""><g transform="rotate(180 6 6)"><rect y="5.4" width="2" height="1.2" style="stroke:#fff"/><polygon points="0 6 11 11 11 1" stroke-width="0"/></g></g></marker></g></defs><g id="viewport-20220102144614737" class="svg-pan-zoom_viewport" transform="matrix(0.73 0 0 0.73 213.17 9.30e-6)" style="transform:matrix(0.73, 0, 0, 0.73, 213.17, 9.30e-06)"><style>svg.Diagram {font-family: 'Liberation Sans', Arial, sans-serif; }.Diagram path {fill: transparent;stroke: #000;marker-end: url(#mea);}.Diagram symbol path {fill: inherit;stroke: inherit;stroke-width: inherit;marker-end: inherit;}.Diagram rect {fill: #fff;stroke: #000;}.Diagram text {dominant-baseline: central;overflow: hidden;text-anchor: middle;fill: #000;font-size: 12px;}</style><style type="text/css">.Viewport .textContent {
  pointer-events: none;
  stroke-width: 0px;
}

					.Viewport.Icon {
  fill: white;
}

/* Hide the InfoBox */
.Viewport.textContent {
  font-size: 0;
}

.textContent {
  stroke: none;
}

.DataNode {
  stroke-miterlimit: 1;
  pointer-events: auto;
}

.DataNode:hover {
  cursor: pointer;
}

/* TODO should this apply to things other than DataNodes? */
.DataNode.textContent {
  pointer-events: none;
}

.DataNode.Highlighted {
  opacity: 0.6;
  stroke-width: 0px;
}

marker {
  /* this is what should work per the spec
  stroke-dasharray: none; */
  /* but I need to add this to make it work in Safari */
  stroke-dasharray: 9999999999999999999999999;
}

.Citation.Icon {
  fill: none;
  stroke-width: 0px;
}

.Citation.textContent {
  text-align: center;
  vertical-align: top;
  font-size: 7px;
  fill: #999;
  fill-opacity: 1;
  stroke: none;
}</style><g id="WP4919" class="Pathway http___identifiers_org_pw_PW_0001251 http___identifiers_org_pw_PW_0000237 Viewport"  name="Name: Neuroinflammation Organism: Homo sapiens" ><g class="Pathway http___identifiers_org_pw_PW_0001251 http___identifiers_org_pw_PW_0000237 Viewport"><rect   width="1057" height="914" style="stroke:none"/><g id="id31ec123d" class="Edge"  ><path    d="m382 168.5-113.5 28" style="marker-end:url(#memconversion000)"/></g><g id="id3f672228" class="Edge"  ><path    d="m382 168.5 329.5 669" style="marker-end:url(#memtranscriptiontranslation000)"/></g><g id="id5b909bf1" class="Edge"  ><path    d="m583.76 264 0.01 42.81"/></g><g id="id62e9aeab" class="Edge"  ><path    d="m512.87 95.5v41"/></g><g id="id7743c6c2" class="Edge"  ><path    d="m777 579.5-110-148"/><g id="ecd01" class="AB" transform="translate(742.28 532.79)"  ><g class="AB"/></g><g id="cd3ee" class="AB" transform="translate(706.49 484.63)"  ><g class="AB"/></g></g><g id="id2f9a0bd0" class="Edge"  ><path    d="m742.28 532.79-73.28-0.79"/></g><g id="id18d738b2" class="Edge"  ><path    d="m644 484 62.49 0.63"/></g><g id="id78b1dd1c" class="Edge"  ><path    d="m244 34.09 2 101.41"/></g><g id="id7dcbe1cb" class="Edge"  ><path    d="m511.4 34.09 1.46 36.41"/></g><g id="id7eed551e" class="Edge"  ><path    d="m246 221.5-29.5 38"/></g><g id="id92efa4bc" class="Edge"  ><path    d="m246 160.5v36"/></g><g id="id97c0df21" class="Edge"  ><path    d="m512.87 161.5-150.87 170"/></g><g id="ida993d556" class="Edge"  ><path    d="M809.25,767.25L777,604.5"/><g id="e6cf5" class="AB" transform="translate(791.5 677.69)"  ><g class="AB"/></g><g id="cd499" class="AB" transform="translate(803.6 738.74)"  ><g class="AB"/></g></g><g id="id87181edb" class="Edge"  ><path    d="m870 716-78.50-38.30" style="marker-end:url(#memconversion000)"/></g><g id="id9b118782" class="Edge"  ><path    d="m791.5 677.69-123.5-31.20"/></g><g id="ida69a0552" class="Edge"  ><path    d="m791.5 677.69 78.50-3.69" style="marker-end:url(#memconversion000)"/></g><g id="id9e76bec3" class="Edge"  ><path    d="m914 795.5-110.4-56.76"/></g><g id="idb0300e21" class="Edge"  ><path    d="m377.7 42.02 4.30 101.48"/></g><g id="idc4dcb1f4" class="Edge"  ><path    d="m130 221.5 41.5 38"/></g><g id="idcf712c1e" class="Edge"  ><path    d="m246 160.5-116 36"/></g><g id="idec4de500" class="Edge"  ><path    d="m712 419h166"/><g id="c0877" class="AB" transform="translate(818.99 419)"  ><g class="AB"/></g></g><g id="id1302d3fe" class="Edge"  ><path    d="m772 457.5 46.99-38.5" style="marker-end:url(#memconversion000)"/></g><g id="id75dcaa74" class="Edge"  ><path    d="m816.5 377.5 2.49 41.5" style="marker-end:url(#memcatalysis000)"/></g><g id="id7c348c77" class="Edge"  ><path    d="m818.99 419 48.01 38.5" style="marker-end:url(#memconversion000)"/></g><g id="idffe2fc51" class="Edge"  ><path    d="m444.55 42.02 45.81 94.48"/></g><g id="ide3e49c84" class="Edge"  ><path    d="m362 356.5-29.5 24" style="marker-end:url(#membinding000)"/></g><g id="id44ce66f9" class="Edge"  ><path    d="m734 837.5-2-83"/></g><g id="id5c699f31" class="Edge"  ><path    d="m583.77 331.81-158.77 48.69" style="marker-end:url(#memconversion000)"/></g><g id="iddb587c47" class="Edge"  ><path    d="m425 454.5 24.72 283" style="marker-end:url(#memtranscriptiontranslation000)"/></g><g id="id8dbca577" class="Edge"  ><path    d="m194 284.5-61 40" style="marker-end:url(#membinding000)"/></g><g id="id8a1d1b56" class="Edge"  ><path    d="m186 499.66 27 0.34"/></g><g id="idab767c16" class="Edge"  ><path    d="m133 545.16 0.20 64.34"/></g><g id="idf57f952c" class="Edge"  ><path    d="m133 415.5v38.66" style="marker-end:url(#memmodification000)"/></g><g id="b308d" class=" PhysicalEntity CellularComponent Cell" transform="translate(11,83)"  ><g class=" PhysicalEntity CellularComponent Cell" filter="url(#doublefalse3filter)"><g class=" PhysicalEntity CellularComponent Cell"><rect   transform="matrix(0.99 0 0 0.99 5.93 5.91)" width="1017.5" height="802.5" rx="15" ry="15" stroke-width="3" style="fill:transparent;stroke:#c0c0c0"/></g></g></g><g id="dd406" class=" PhysicalEntity CellularComponent Mitochondria" transform="translate(542.26 213)"  ><g class=" PhysicalEntity CellularComponent Mitochondria"><use class=" PhysicalEntity CellularComponent Mitochondria Node Icon" transform="matrix(0.97 0 0 0.94 1.45 1.42)" width="83" height="51" fill="transparent" stroke="#c0c0c0" stroke-width="3" href="#Mitochondria"/></g></g><g id="e88bb" class=" PhysicalEntity CellularComponent Nucleus" transform="translate(211.5,310.5)"  ><g class=" PhysicalEntity CellularComponent Nucleus" filter="url(#doublefalse3filter)"><g class=" PhysicalEntity CellularComponent Nucleus"><use class=" PhysicalEntity CellularComponent Nucleus Node Icon" transform="matrix(0.96 0 0 0.97 5.77 5.82)" width="302" height="379" fill="transparent" stroke="#c0c0c0" stroke-width="3" href="#Ellipse"/></g></g></g><g id="ae5fd" class="Label" transform="translate(257,353.5)"  name="AP-1" ><g class="Label"/><text   transform="translate(45,12.5)"    >AP-1</text></g><g id="bf2f6" class="Label" transform="translate(45.70 609.5)"  name="Proteolysis and IkB Degradation" ><g class="Label"/><text   transform="translate(87.5,12.5)"    >Proteolysis and IkB Degradation</text></g><g id="db6ec" class="Label" transform="translate(137.76 784.5)"  name="Proteins" ><g class="Label"/><text   transform="translate(45,12.5)"    >Proteins</text></g><g id="dde0a" class="Label" transform="translate(244 10.30)"  name="Oxidative Stress, Inflammatory Cytokines, UV" ><g class="Label"/><text   transform="translate(133.7 15.86)"    font-weight="bold" >Oxidative Stress, Inflammatory Cytokines, UV</text></g><g id="df29d" class="Label" transform="translate(13.60 409.3)"  name="Ubiquination  and  Phosphorylation" ><g class="Label"/><text   transform="translate(55.18 28.54)"    ><tspan   x="0" y="-13.20">Ubiquination </tspan><tspan   x="0" y="0">and </tspan><tspan   x="0" y="13.20">Phosphorylation</tspan></text></g><g id="f9e2e" class="Label" transform="translate(375,353.5)"  name="NF-&#954;B" ><g class="Label"/><text   transform="translate(45,12.5)"    >NF-&#954;B</text></g><g id="ffc71" class="Label" transform="translate(404.72 737.5)"  name="Cytokines" ><g class="Label"/><text   transform="translate(45,12.5)"    >Cytokines</text></g><g id="a6222" class="GeneProduct " transform="translate(467.87 136.5)"  name="JNK" ><rect   width="90" height="25"/><text   transform="translate(45,12.5)"    >JNK</text></g><g id="a9f44" class="Pathway" transform="translate(561.77 306.81)"  name="ROS" ><g class="Pathway"/><g ><defs><clipPath ><rect x="-22" y="-12.5" width="44" height="25" style="stroke:none"/></clipPath></defs><text   transform="translate(22,12.5)"    font-weight="bold"  style="fill:#14961e">ROS</text></g></g><g id="abe6a" class="GeneProduct HomoloGene_481" transform="translate(404.72 800.12)"  name="IL-1B" ><rect   width="90" height="25"/><text   transform="translate(45,12.5)"    >IL-1B</text></g><g id="b518e" class="Metabolite " transform="translate(764.25,767.25)"  name="L-arginine" ><rect   width="90" height="25" style="stroke:#00f"/><text   transform="translate(45,12.5)"     style="fill:#00f">L-arginine</text></g><g id="b8d87" class="GeneProduct BRENDA_1_7_99_4" transform="translate(758,352.5)"  name="Nitrate reductase" ><rect   width="117" height="25"/><text   transform="translate(58.5,12.5)"    >Nitrate reductase</text></g><g id="bd54a" class="Metabolite " transform="translate(870,703.5)"  name="NADPH" ><rect   width="90" height="25" style="stroke:#00f"/><text   transform="translate(45,12.5)"     style="fill:#00f">NADPH</text></g><g id="c4d1d" class="GeneProduct " transform="translate(317,331.5)"  name="JUN" ><rect   width="90" height="25"/><text   transform="translate(45,12.5)"    >JUN</text></g><g id="cb9ac" class="GeneProduct " transform="translate(201,196.5)"  name="AKT" ><rect   width="90" height="25"/><text   transform="translate(45,12.5)"    >AKT</text></g><g id="cc14c" class="GeneProduct " transform="translate(149,259.5)"  name="IKK&#945;" ><rect   width="90" height="25"/><text   transform="translate(45,12.5)"    >IKK&#945;</text></g><g id="ccafd" class="GeneProduct " transform="translate(337,143.5)"  name="MAPK14" ><rect   width="90" height="25"/><text   transform="translate(45,12.5)"    >MAPK14</text></g><g id="d22ee" class="Metabolite " transform="translate(622,406.5)"  name="Nitrate" ><rect   width="90" height="25" style="stroke:#00f"/><text   transform="translate(45,12.5)"     style="fill:#00f">Nitrate</text></g><g id="d7441" class="GeneProduct InterPro_IPR000403" transform="translate(201,135.5)"  name="PI3K" ><rect   width="90" height="25"/><text   transform="translate(45,12.5)"    >PI3K</text></g><g id="d9d7d" class="GeneProduct " transform="translate(689,837.5)"  name="iNOS" ><rect   width="90" height="25"/><text   transform="translate(45,12.5)"    >iNOS</text></g><g id="e23ab" class="Metabolite " transform="translate(878,406.5)"  name="Nitrite" ><rect   width="90" height="25" style="stroke:#00f"/><text   transform="translate(45,12.5)"     style="fill:#00f">Nitrite</text></g><g id="ea57c" class="GeneProduct HomoloGene_496" transform="translate(404.72 763.36)"  name="TNF-&#945;" ><rect   width="90" height="25"/><text   transform="translate(45,12.5)"    >TNF-&#945;</text></g><g id="eb396" class="Metabolite " transform="translate(732,579.5)"  name="NO" ><rect   width="90" height="25" style="stroke:#00f"/><text   transform="translate(45,12.5)"     style="fill:#00f">NO</text></g><g id="edb5a" class="Metabolite " transform="translate(869,795.5)"  name="O2" ><rect   width="90" height="25" style="stroke:#00f"/><text   transform="translate(45,12.5)"     style="fill:#00f">O2</text></g><g id="f3b20" class="Metabolite " transform="translate(623,621.5)"  name="L-citrulline" ><rect   width="90" height="25" style="stroke:#00f"/><text   transform="translate(45,12.5)"     style="fill:#00f">L-citrulline</text></g><g id="f8698" class="GeneProduct " transform="translate(85,196.5)"  name="MTOR" ><rect   width="90" height="25"/><text   transform="translate(45,12.5)"    >MTOR</text></g><g id="fbe45" class="Metabolite " transform="translate(870,661.5)"  name="NADP+" ><rect   width="90" height="25" style="stroke:#00f"/><text   transform="translate(45,12.5)"     style="fill:#00f">NADP+</text></g><g id="fc494" class="GeneProduct " transform="translate(483.79 70.5)"  name="TLR4" ><rect   width="58.15" height="25"/><text   transform="translate(29.08 12.5)"    >TLR4</text></g><g id="fd31f" class="Metabolite " transform="translate(554,471.5)"  name="H2O" ><rect   width="90" height="25" style="stroke:#00f"/><text   transform="translate(45,12.5)"     style="fill:#00f">H2O</text></g><g id="ac2fe" class="GroupComplex" transform="translate(247,380.5)"  ><g class="GroupComplex"><use class="Icon" width="114" height="74" fill="#b4b464" fill-opacity=".1" stroke="grey" href="#Octagon"/><g id="cae3a" class="GeneProduct " transform="translate(12,37)"  name="FOS" ><rect   width="90" height="25"/><text   transform="translate(45,12.5)"    >FOS</text></g><g id="d5d34" class="GeneProduct " transform="translate(12,12)"  name="JUN" ><rect   width="90" height="25"/><text   transform="translate(45,12.5)"    >JUN</text></g></g></g><g id="ba914" class="GroupGroup" transform="translate(679,688.5)"  ><g class="GroupGroup"><g id="a1a3c" class="Metabolite " transform="translate(8,8)"  name="Calmodulin" ><rect   width="90" height="25" style="stroke:#00f"/><text   transform="translate(45,12.5)"     style="fill:#00f">Calmodulin</text></g><g id="d923a" class="Metabolite " transform="translate(8,33)"  name="Ca2+" ><rect   width="90" height="25" style="stroke:#00f"/><text   transform="translate(45,12.5)"     style="fill:#00f">Ca2+</text></g></g></g><g id="f5df7" class="GroupGroup" transform="translate(222.76 756.36)"  ><g class="GroupGroup"><g id="a97c5" class="GeneProduct " transform="translate(8 44.77)"  name="COX2" ><rect   width="90" height="25"/><text   transform="translate(45,12.5)"    >COX2</text></g><g id="b736f" class="GeneProduct " transform="translate(8 8)"  name="COX1" ><rect   width="90" height="25"/><text   transform="translate(45,12.5)"    >COX1</text></g></g></g><g id="f8b17" class="GroupGroup" transform="translate(80,324.5)"  ><g class="GroupGroup"><g id="b4c0f" class="GeneProduct " transform="translate(8,33)"  name="p50" ><rect   width="90" height="25"/><text   transform="translate(45,12.5)"    >p50</text></g><g id="b501c" class="GeneProduct " transform="translate(8,58)"  name="p65" ><rect   width="90" height="25"/><text   transform="translate(45,12.5)"    >p65</text></g><g id="fb590" class="GeneProduct " transform="translate(8,8)"  name="I&#954;B&#945;" ><rect   width="90" height="25"/><text   transform="translate(45,12.5)"    >I&#954;B&#945;</text></g></g></g><g id="bbad3" class="Metabolite " transform="translate(727,457.5)"  name="NADPH" ><rect   width="90" height="25" style="stroke:#00f"/><text   transform="translate(45,12.5)"     style="fill:#00f">NADPH</text></g><g id="cbe8a" class="Metabolite " transform="translate(822,457.5)"  name="NADP+" ><rect   width="90" height="25" style="stroke:#00f"/><text   transform="translate(45,12.5)"     style="fill:#00f">NADP+</text></g><g id="bf8f0" class="Metabolite " transform="translate(579,519.5)"  name="O2" ><rect   width="90" height="25" style="stroke:#00f"/><text   transform="translate(45,12.5)"     style="fill:#00f">O2</text></g><g id="d7b37" class="GroupComplex" transform="translate(368,380.5)"  ><g class="GroupComplex"><use class="Icon" width="114" height="74" fill="#b4b464" fill-opacity=".1" stroke="grey" href="#Octagon"/><g id="e9b3b" class="GeneProduct " transform="translate(12,37)"  name="p50" ><rect   width="90" height="25"/><text   transform="translate(45,12.5)"    >p50</text></g><g id="d8666" class="GeneProduct " transform="translate(12,12)"  name="p65" ><rect   width="90" height="25"/><text   transform="translate(45,12.5)"    >p65</text></g></g></g><g id="ff146" class="GroupGroup" transform="translate(80 454.16)"  ><g class="GroupGroup"><g id="ecdaf" class="GeneProduct " transform="translate(8,33)"  name="p50" ><rect   width="90" height="25"/><text   transform="translate(45,12.5)"    >p50</text></g><g id="f8b71" class="GeneProduct " transform="translate(8 58)"  name="p65" ><rect   width="90" height="25"/><text   transform="translate(45,12.5)"    >p65</text></g><g id="b1b6d" class="GeneProduct " transform="translate(8,8)"  name="I&#954;B&#945;" ><rect   width="90" height="25"/><text   transform="translate(45,12.5)"    >I&#954;B&#945;</text></g></g></g><g id="fc511" class="GeneProduct " transform="translate(26.19 559.7)"  name="I&#954;B&#945;" ><rect   width="90" height="25"/><text   transform="translate(45,12.5)"    >I&#954;B&#945;</text></g><g id="d3224" class="Edge"  ><path    d="m304 454.5-28.23 301.86" style="marker-end:url(#memtranscriptiontranslation000)"/></g><g id="a8ff1" class="GroupComplex" transform="translate(370,544.5)"  ><g class="GroupComplex"><use class="Icon" width="114" height="74" fill="#b4b464" fill-opacity=".1" stroke="grey" href="#Octagon"/><g id="fae64" class="GeneProduct " transform="translate(12,37)"  name="p50" ><rect   width="90" height="25"/><text   transform="translate(45,12.5)"    >p50</text></g><g id="bf769" class="GeneProduct " transform="translate(12,12)"  name="p50" ><rect   width="90" height="25"/><text   transform="translate(45,12.5)"    >p50</text></g></g></g><g id="b244b" class="GroupComplex" transform="translate(368,462.5)"  ><g class="GroupComplex"><use class="Icon" width="114" height="74" fill="#b4b464" fill-opacity=".1" stroke="grey" href="#Octagon"/><g id="af4a8" class="GeneProduct " transform="translate(12,12)"  name="p65" ><rect   width="90" height="25"/><text   transform="translate(45,12.5)"    >p65</text></g><g id="f6d9f" class="GeneProduct " transform="translate(12,37)"  name="p65" ><rect   width="90" height="25"/><text   transform="translate(45,12.5)"    >p65</text></g></g></g><g id="da20d" class="Edge"  ><path    d="m425 454.5-104.24 359.12" style="marker-end:url(#memtranscriptiontranslation000)"/></g></g></g></g></svg>