<?xml version="1.0" encoding="UTF-8"?>
<svg xmlns="http://www.w3.org/2000/svg" id="-svg" class="Diagram"  baseProfile="full" prefix="schema:http://schema.org/" preserveAspectRatio="xMidYMid"  version="1.1"><defs><g id="filter-defs"><filter id="doublefalse3filter" x="-50%" y="-50%" width="200%" height="200%"><feComposite in="SourceGraphic" in2="SourceGraphic" result="doubleDark"/><feMorphology in="doubleDark" operator="dilate" radius="0.17" result="in2Double"/><feMorphology in="SourceGraphic" operator="dilate" radius="3" result="inDouble"/><feComposite in="inDouble" in2="in2Double" operator="out" result="doubleResult"/></filter></g><g id="icon-defs"/><g id="marker-defs"><marker id="markerstartarrow000" markerHeight="12" markerWidth="12" orient="auto" preserveAspectRatio="none" refY="6" viewBox="0 0 12 12"><g id="g-markerstartarrow000" transform="rotate(180 6 6)"><g transform="rotate(180 6 6)"><rect y="5.4" width="2" height="1.2" style="stroke:#fff"/><polygon points="12 11 0 6 12 1" stroke-width="0"/></g></g></marker><marker id="mea" markerHeight="12" markerWidth="12" orient="auto" preserveAspectRatio="none" refX="12" refY="6" viewBox="0 0 12 12"><g id="g-mea" transform=""><g transform="rotate(180 6 6)"><rect y="5.4" width="2" height="1.2" style="stroke:#fff"/><polygon points="12 11 0 6 12 1" stroke-width="0"/></g></g></marker><marker id="meminhibition000" markerHeight="20" markerWidth="10" orient="auto" preserveAspectRatio="none" refX="10" refY="10" viewBox="0 0 10 20"><g id="g-meminhibition000" transform=""><g transform="rotate(180 5 10)"><rect y="9" width="8" height="2" style="stroke:none"/><line x="0" y="0" width="12" height="12" x1="7" x2="7" y2="20" stroke="#000" stroke-width="1.8"/></g></g></marker><marker id="memcatalysis000" markerHeight="12" markerWidth="12" orient="auto" preserveAspectRatio="none" refX="12" refY="6" viewBox="0 0 12 12"><g id="g-memcatalysis000" transform=""><g transform="rotate(180 6 6)"><circle cx="6" cy="6" r="5.3px" fill="#fff" stroke="#000"/></g></g></marker><marker id="memconversion000" markerHeight="12" markerWidth="12" orient="auto" preserveAspectRatio="none" refX="12" refY="6" viewBox="0 0 12 12"><g id="g-memconversion000" transform=""><g transform="rotate(180 6 6)"><rect y="5.4" width="2" height="1.2" style="stroke:#fff"/><polygon points="12 11 0 6 12 1" stroke-width="0"/></g></g></marker><marker id="membinding000" markerHeight="12" markerWidth="12" orient="auto" preserveAspectRatio="none" refX="12" refY="6" viewBox="0 0 12 12"><g id="g-membinding000" transform=""><g transform="rotate(180 6 6)"><rect y="5.4" width="2" height="1.2" style="stroke:#fff"/><polygon points="12 12 0 6 12 0 5 6" stroke-width="0"/></g></g></marker><marker id="memstimulation000" markerHeight="12" markerWidth="12" orient="auto" preserveAspectRatio="none" refX="12" refY="6" viewBox="0 0 12 12"><g id="g-memstimulation000" transform=""><g transform="rotate(180 6 6)"><rect y="5.4" width="2" height="1.2" style="stroke:none"/><line x1="12" x2="12" y1="6" y2="6" fill="none"/><polygon points="0 6 11 11 11 1" fill="#fff" stroke="#000"/></g></g></marker></g></defs><g id="viewport-20220102144721860" class="svg-pan-zoom_viewport" transform="matrix(0.65 0 0 0.65 163.83 0)" style="transform:matrix(0.65, 0, 0, 0.65, 163.83, 0)"><style>svg.Diagram {font-family: 'Liberation Sans', Arial, sans-serif; }.Diagram path {fill: transparent;stroke: #000;marker-end: url(#mea);}.Diagram symbol path {fill: inherit;stroke: inherit;stroke-width: inherit;marker-end: inherit;}.Diagram rect {fill: #fff;stroke: #000;}.Diagram text {dominant-baseline: central;overflow: hidden;text-anchor: middle;fill: #000;font-size: 12px;}</style><style type="text/css">.Viewport .textContent {
  pointer-events: none;
  stroke-width: 0px;
}

					.Viewport.Icon {
  fill: white;
}

/* Hide the InfoBox */
.Viewport.textContent {
  font-size: 0;
}

.textContent {
  stroke: none;
}

.DataNode {
  stroke-miterlimit: 1;
  pointer-events: auto;
}

.DataNode:hover {
  cursor: pointer;
}

/* TODO should this apply to things other than DataNodes? */
.DataNode.textContent {
  pointer-events: none;
}

.DataNode.Highlighted {
  opacity: 0.6;
  stroke-width: 0px;
}

marker {
  /* this is what should work per the spec
  stroke-dasharray: none; */
  /* but I need to add this to make it work in Safari */
  stroke-dasharray: 9999999999999999999999999;
}

.Citation.Icon {
  fill: none;
  stroke-width: 0px;
}

.Citation.textContent {
  text-align: center;
  vertical-align: top;
  font-size: 7px;
  fill: #999;
  fill-opacity: 1;
  stroke: none;
}</style><g id="WP4969" class="Pathway http___identifiers_org_pw_PW_0000013 Viewport"  name="Name: RAS and bradykinin pathways in COVID-19 Organism: Homo sapiens" ><g class="Pathway http___identifiers_org_pw_PW_0000013 Viewport"><rect   width="1343" height="1029.9" style="stroke:none"/><g id="id11c88b0d" class="Edge"  ><path    d="m718.32 152.84h-92.62"/></g><g id="id11cf8705" class="Edge"  ><path    d="m250.82 433.84-0.17 49.99"/></g><g id="id4ceb9356" class="Edge"  ><path    d="m1220.7 281.51h-93.66"/></g><g id="id501f9be8" class="Edge"  ><path    d="m956.32 345.52 101.68-0.47" marker-start="url(#markerstartarrow000)"/></g><g id="id54a8211b" class="Edge"  ><path    d="m575.32 305.48v27.54"/></g><g id="id54c92813" class="Edge"  ><path    d="m1151.3 737.47h109.33v-443.45"/></g><g id="id63c55d3" class="Edge"  ><path    d="m615.32 345.52h212"/><g id="bd101" class="AB" transform="translate(700.12 345.52)"  ><g class="AB"/></g></g><g id="id65de959d" class="Edge"  ><path    d="m411 292.75h23.5"/></g><g id="id672631f5" class="Edge"  ><path    d="m427 343.25-96 0.42"/></g><g id="id6c85e882" class="Edge"  ><path    d="m1103 357.55-2e-13 204.83"/></g><g id="id73c52fb1" class="Edge"  ><path    d="m891.82 333.02-0.17-39.01"/></g><g id="id7951d7ac" class="Edge"  ><path    d="m832.32 152.84h-48"/></g><g id="id8956bc93" class="Edge"  ><path    d="m700.82 319.02-0.7 26.5" style="marker-end:url(#memcatalysis000)"/></g><g id="id99222b0a" class="Edge"  ><path    d="m462.25 305.5 0.25 28"/></g><g id="ida74e8c" class="Edge"  ><path    d="m367.5 280.25 0.25-35.25"/></g><g id="ida91dd59d" class="Edge"  ><path    d="m899.32 152.84h51.18"/></g><g id="idb55155be" class="Edge"  ><path    d="m991.82 737.47h79.5"/></g><g id="idbbb881c9" class="Edge"  ><path    d="m806.57 554.47-1.25 79.5"/></g><g id="idbcf919df" class="Edge"  ><path    d="m88 109h60"/><g id="dd237" class="AB" transform="translate(112,109)"  ><g class="AB"/></g></g><g id="id5f119cca" class="Edge"  ><path    d="m112 74.5v34.5"/></g><g id="idc8e789dd" class="Edge"  ><path    d="m931.66 281.51h105.34"/></g><g id="ide42ad8d5" class="Edge"  ><path    d="m805.32 658.97v42.26"/></g><g id="ide64f6ad9" class="Edge"  ><path    d="m367.75 222.5v-153.5h654.5v57.59"/></g><g id="idfbb4ef92" class="Edge"  ><path    d="m575.32 170.47-1e-13 51.83"/></g><g id="idfbc3672" class="Edge"  ><path    d="m318.5 356.17v21.85h236.82v-20" style="marker-end:url(#meminhibition000)"/></g><g id="idfe038846" class="Edge"  ><path    d="m865.32 102.97 0.5 37.38" style="marker-end:url(#meminhibition000)"/></g><g id="id1454daff" class="Edge"  ><path    d="m188 154.5-0.26 57.95" style="marker-end:url(#meminhibition000)"/></g><g id="d82c1" class=" PhysicalEntity CellularComponent Cell" transform="translate(439.5,504.5)"  name="Blood vessel" ><g class=" PhysicalEntity CellularComponent Cell" filter="url(#doublefalse3filter)"><g class=" PhysicalEntity CellularComponent Cell"><rect   transform="matrix(0.99 0 0 0.96 5.92 5.75)" width="875" height="276" rx="15" ry="15" stroke-width="3" style="fill:transparent;stroke:#c0c0c0"/></g></g><g ><defs><clipPath ><rect x="-437.5" y="-261.4" width="875" height="276" style="stroke:none"/></clipPath></defs><text   transform="translate(437.5,261.4)"     style="fill:#c0c0c0">Blood vessel</text></g></g><g id="e5292" class="Pathway" transform="translate(1037 269.01)"  name="Degradation" ><g class="Pathway"><rect   width="90" height="25" rx="15" ry="15" style="stroke:#14961e"/></g><g ><defs><clipPath ><rect x="-45" y="-12.5" width="90" height="25" style="stroke:none"/></clipPath></defs><text   transform="translate(45,12.5)"    font-weight="bold"  style="fill:#14961e">Degradation</text></g></g><g id="b24e1" class="Label" transform="translate(420.71 443.52)"  name="Sensitization" ><g class="Label"/><text   transform="translate(45,12.5)"    font-weight="bold" >Sensitization</text></g><g id="a8cb6" class="Metabolite " transform="translate(765.32 701.22)"  name="20-HETE" ><rect   width="80" height="25" style="stroke:#00f"/><text   transform="translate(40,12.5)"     style="fill:#00f">20-HETE</text></g><g id="aac02" class="GeneProduct " transform="translate(332.5,222.5)"  name="SERPINE1" ><rect   width="70.5" height="22.5"/><text   transform="translate(35.25,11.25)"    >SERPINE1</text></g><g id="ae038" class="GeneProduct " transform="translate(1071.3 724.97)"  name="NFKB1" ><rect   width="80" height="25"/><text   transform="translate(40,12.5)"    >NFKB1</text></g><g id="aea90" class="Metabolite " transform="translate(827.32 333.02)"  name="bradykinin, des-arg(9)" ><rect   width="129" height="25" style="stroke:#00f"/><text   transform="translate(64.5,12.5)"     style="fill:#00f">bradykinin, des-arg(9)</text></g><g id="b4cad" class="Pathway" transform="translate(524.95 135.22)"  name="Kallikrein-Kinin System" ><g class="Pathway"><rect   width="100.75" height="35.25" rx="15" ry="15" style="stroke:#14961e"/></g><g ><defs><clipPath ><rect x="-50.38" y="-17.62" width="100.75" height="35.25" style="stroke:none"/></clipPath></defs><text   transform="translate(50.38,17.62)"    font-weight="bold"  style="fill:#14961e"><tspan   x="0" y="-6.60">Kallikrein-Kinin</tspan><tspan   x="0" y="6.60">System</tspan></text></g></g><g id="c0de8" class="GeneProduct " transform="translate(911.82 724.97)"  name="MAPK1" ><rect   width="80" height="25"/><text   transform="translate(40,12.5)"    >MAPK1</text></g><g id="c32b7" class="GeneProduct " transform="translate(820.32 77.97)"  name="SERPING1" ><rect   width="90" height="25"/><text   transform="translate(45,12.5)"    >SERPING1</text></g><g id="cf2a0" class="GeneProduct " transform="translate(8,96.5)"  name="CYP24A1" ><rect   width="80" height="25"/><text   transform="translate(40,12.5)"    >CYP24A1</text></g><g id="d20d8" class="Pathway" transform="translate(950.5 126.59)"  name="Complement and Coagulation Cascades" ><g class="Pathway"><rect   width="143.5" height="52.5" rx="15" ry="15" style="stroke:#14961e"/></g><g ><defs><clipPath ><rect x="-71.75" y="-26.25" width="143.5" height="52.5" style="stroke:none"/></clipPath></defs><text   transform="translate(71.75,26.25)"    font-weight="bold"  style="fill:#14961e"><tspan   x="0" y="-6.60">Complement and</tspan><tspan   x="0" y="6.60">Coagulation Cascades</tspan></text></g></g><g id="d996c" class="Metabolite " transform="translate(1058 332.55)"  name="L-arginine" ><rect   width="90" height="25" style="stroke:#00f"/><text   transform="translate(45,12.5)"     style="fill:#00f">L-arginine</text></g><g id="ddce0" class="GeneProduct " transform="translate(718.32 140.34)"  name="KLK1" ><rect   width="66" height="25"/><text   transform="translate(33,12.5)"    >KLK1</text></g><g id="e3c20" class="Metabolite" transform="translate(427,333.5)"  name="Aldosterone" ><rect   width="71" height="19.5" style="stroke:#00f"/><text   transform="translate(35.5,9.75)"     style="fill:#00f">Aldosterone</text></g><g id="f0b03" class="GeneProduct " transform="translate(832.32 140.34)"  name="F12" ><rect   width="67" height="25"/><text   transform="translate(33.5,12.5)"    >F12</text></g><g id="f7722" class="GeneProduct " transform="translate(536.32 280.48)"  name="KLKB1" ><rect   width="78" height="25"/><text   transform="translate(39,12.5)"    >KLKB1</text></g><g id="f99b1" class="GeneProduct " transform="translate(434.5,280)"  name="AGTR1" ><rect   width="55.5" height="25.5"/><text   transform="translate(27.75,12.75)"    >AGTR1</text></g><g id="fe018" class="GeneProduct " transform="translate(670.32 294.02)"  name="CPN1" ><rect   width="61" height="25"/><text   transform="translate(30.5,12.5)"    >CPN1</text></g><g id="c2c3d" class="GroupGroup" transform="translate(140,88.5)"  ><g class="GroupGroup"><g id="ac941" class="Metabolite " transform="translate(8,8)"  name="Vitamin D3" ><rect   width="80" height="25" style="stroke:#00f"/><text   transform="translate(40,12.5)"     style="fill:#00f">Vitamin D3</text></g><g id="aee67" class="GeneProduct " transform="translate(8,33)"  name="VDR" ><rect   width="80" height="25"/><text   transform="translate(40,12.5)"    >VDR</text></g></g></g><g id="b31de" class="Edge"  ><path    d="m251.66 305.25-0.84 103.59" style="marker-end:url(#memconversion000)"/><g id="cb549" class="AB" transform="translate(251.38 339.92)"  ><g class="AB"/></g></g><g id="e5729" class="Edge"  ><path    d="m250.99 190.84 0.67 89.41"/><g id="cc94f" class="AB" transform="translate(251.25 225.71)"  ><g class="AB"/></g></g><g id="bdeb1" class="Edge"  ><path    d="m306 331.17 0.29-38.42" style="marker-end:url(#memcatalysis000)"/></g><g id="ec428" class="Edge"  ><path    d="m575.32 247.3 1e-13 33.18" style="marker-end:url(#memconversion000)"/></g><g id="b7518" class="Edge"  ><path    d="m575.32 358.02v132.95" style="marker-end:url(#membinding000)"/></g><g id="fae04" class="Edge"  ><path    d="m211.66 292.75h199.34" style="marker-end:url(#memconversion000)"/><g id="c8420" class="AB" transform="translate(306.29 292.75)"  ><g class="AB"/></g></g><g id="da2ac" class="Edge"  ><path    d="m306 356.17 0.62 65.17" style="marker-end:url(#memcatalysis000)"/></g><g id="c8cd6" class="Edge"  ><path    d="m227.74 224.95 23.51 0.76" style="marker-end:url(#memcatalysis000)"/></g><g id="b1ef8" class="Edge"  ><path    d="m290.82 421.34 39.48 4e-14" style="marker-end:url(#memconversion000)"/><g id="a2bb9" class="AB" transform="translate(306.62 421.34)"  ><g class="AB"/></g></g><g id="be87e" class="Edge"  ><path    d="m143 339 108.38 0.92" style="marker-end:url(#memcatalysis000)"/></g><g id="f2fd8" class="GeneProduct " transform="translate(210.66 483.83)"  name="AGTR2" ><rect   width="80" height="25"/><text   transform="translate(40,12.5)"    >AGTR2</text></g><g id="b029e" class="GeneProduct " transform="translate(851.82 488.97)"  name="BDKRB1" ><rect   width="80" height="25"/><text   transform="translate(40,12.5)"    >BDKRB1</text></g><g id="bc2f2" class="Metabolite " transform="translate(535.32 333.02)"  name="Bradykinin" ><rect   width="80" height="25" style="stroke:#00f"/><text   transform="translate(40,12.5)"     style="fill:#00f">Bradykinin</text></g><g id="f080e" class="Metabolite " transform="translate(324,280.25)"  name="Angiotensin II" ><rect   width="87" height="25" style="stroke:#00f"/><text   transform="translate(43.5,12.5)"     style="fill:#00f">Angiotensin II</text></g><g id="b76f8" class="GeneProduct " transform="translate(535.32 222.3)"  name="KNG1" ><rect   width="80" height="25"/><text   transform="translate(40,12.5)"    >KNG1</text></g><g id="c3eaf" class="Metabolite" transform="translate(211.66 280.25)"  name="Angiotensin I" ><rect   width="80" height="25" style="stroke:#00f"/><text   transform="translate(40,12.5)"     style="fill:#00f">Angiotensin I</text></g><g id="ed520" class="GeneProduct " transform="translate(851.66 269.01)"  name="ACE" ><rect   width="80" height="25"/><text   transform="translate(40,12.5)"    >ACE</text></g><g id="d4174" class="Metabolite" transform="translate(330.31 408.84)"  name="Ang 1-7" ><rect   width="63.5" height="25" style="stroke:#00f"/><text   transform="translate(31.75,12.5)"     style="fill:#00f">Ang 1-7</text></g><g id="f2946" class="GeneProduct " transform="translate(147.74 212.45)"  name="REN" ><rect   width="80" height="25"/><text   transform="translate(40,12.5)"    >REN</text></g><g id="aa820" class="GeneProduct " transform="translate(143,326.5)"  name="ACE2" ><rect   width="58.5" height="25"/><text   transform="translate(29.25,12.5)"    >ACE2</text></g><g id="cfd56" class="GeneProduct " transform="translate(210.99 165.84)"  name="AGT" ><rect   width="80" height="25"/><text   transform="translate(40,12.5)"    >AGT</text></g><g id="ab666" class="GeneProduct " transform="translate(281 331.17)"  name="ACE" ><rect   width="50" height="25"/><text   transform="translate(25,12.5)"    >ACE</text></g><g id="f5820" class="GeneProduct " transform="translate(535.32 490.97)"  name="BDKRB2" ><rect   width="80" height="25"/><text   transform="translate(40,12.5)"    >BDKRB2</text></g><g id="b1bb7" class="Metabolite KEGG_Compound_C15851" transform="translate(210.82 408.84)"  name="Ang 1-9" ><rect   width="80" height="25" style="stroke:#00f"/><text   transform="translate(40,12.5)"     style="fill:#00f">Ang 1-9</text></g><g id="b63af" class="Edge"  ><path    d="m891.82 358.02v130.95" style="marker-end:url(#membinding000)"/></g><g id="a5ea4" class="Metabolite " transform="translate(758.32 522.97)"  name="Arachidonic  acid" ><rect   width="96.5" height="31.5" style="stroke:#00f"/><text   transform="translate(48.25,15.75)"     style="fill:#00f"><tspan   x="0" y="-6.60">Arachidonic </tspan><tspan   x="0" y="6.60">acid</tspan></text></g><g id="cc565" class="Metabolite " transform="translate(1076.5 562.38)"  name="Ca++" ><rect   width="53" height="25" style="stroke:#00f"/><text   transform="translate(26.5,12.5)"     style="fill:#00f">Ca++</text></g><g id="f4d43" class="GeneProduct " transform="translate(72,49.5)"  name="CYP3A4" ><rect   width="80" height="25"/><text   transform="translate(40,12.5)"    >CYP3A4</text></g><g id="fee50" class="GeneProduct " transform="translate(765.32 633.97)"  name="CYP3A4" ><rect   width="80" height="25"/><text   transform="translate(40,12.5)"    >CYP3A4</text></g><g id="e130d" class="GeneProduct " transform="translate(1220.7 269.01)"  name="ACE" ><rect   width="80" height="25"/><text   transform="translate(40,12.5)"    >ACE</text></g><g id="d69af" class="Edge"  ><path    d="m620.26 952.49h134.35" style="marker-end:url(#membinding000)"/><g id="c99b0" class="AB" transform="translate(674 952.49)"  ><g class="AB"/></g></g><g id="d9883" class="Edge"  ><path    d="m1055.7 826.33 63.94 1e-13" stroke-dasharray="5,3"/></g><g id="c4399" class="Edge"  ><path    d="m906.37 882.58h20v-56.25h39.31" style="marker-end:url(#memstimulation000)"/></g><g id="e5c48" class="Edge"  ><path    d="m1010.7 908.37v-17.68" style="marker-end:url(#membinding000)"/></g><g id="d283c" class="Edge"  ><path    d="m673.39 908.28 0.61 44.21" style="marker-end:url(#memcatalysis000)"/></g><g id="bd07a" class="Edge"  ><path    d="m673.39 844.25v39.02" style="marker-end:url(#memstimulation000)"/></g><g id="b3d21" class="Edge"  ><path    d="m861.23 939.99 0.14-38.66" style="marker-end:url(#memstimulation000)"/></g><g id="d96ba" class="Edge"  ><path    d="m906.37 895.08h20v25.79h39.31" style="marker-end:url(#meminhibition000)"/></g><g id="b06b4" class="Edge"  ><path    d="m1010.7 865.68v-26.85" style="marker-end:url(#meminhibition000)"/></g><g id="c3988" class="Pathway" transform="translate(1119.6 813.83)"  name="Relaxation" ><g class="Pathway"><rect   width="90" height="25" rx="15" ry="15" style="stroke:#14961e"/></g><g ><defs><clipPath ><rect x="-45" y="-12.5" width="90" height="25" style="stroke:none"/></clipPath></defs><text   transform="translate(45,12.5)"    font-weight="bold"  style="fill:#14961e">Relaxation</text></g></g><g id="cdaee" class="GeneProduct " transform="translate(816.37 876.33)"  name="PRKG1" ><rect   width="90" height="25"/><text   transform="translate(45,12.5)"    >PRKG1</text></g><g id="feb86" class="Complex BRENDA_3_1_3_53" transform="translate(965.67 813.83)"  name="MLCP" ><g class="Complex BRENDA_3_1_3_53"><rect   width="90" height="25"/></g><g ><defs><clipPath ><rect x="-45" y="-12.5" width="90" height="25" style="stroke:none"/></clipPath></defs><text   transform="translate(45,12.5)"    >MLCP</text></g></g><g id="e5e16" class="Protein" transform="translate(612.69 883.28)"  name="Guanylate cyclase" ><rect   width="121.39" height="25"/><text   transform="translate(60.69 12.5)"    >Guanylate cyclase</text></g><g id="e0505" class="GeneProduct " transform="translate(965.67 908.37)"  name="RHOA" ><rect   width="90" height="25"/><text   transform="translate(45,12.5)"    >RHOA</text></g><g id="a8b46" class="GeneProduct " transform="translate(965.67 865.68)"  name="ROCK1" ><rect   width="90" height="25"/><text   transform="translate(45,12.5)"    >ROCK1</text></g><g id="e3d3f" class="Metabolite " transform="translate(471.09 939.99)"  name="Guanosine triphosphate" ><rect   width="149.17" height="25" style="stroke:#00f"/><text   transform="translate(74.58 12.5)"     style="fill:#00f">Guanosine triphosphate</text></g><g id="e5fdd" class="Metabolite " transform="translate(633.39 819.25)"  name="nitric oxide" ><rect   width="80" height="25" style="stroke:#00f"/><text   transform="translate(40,12.5)"     style="fill:#00f">nitric oxide</text></g><g id="c6c0b" class=" PhysicalEntity CellularComponent Cell" transform="translate(448.99 800.53)"  name="Vascular smooth muscle cell" ><g class=" PhysicalEntity CellularComponent Cell" filter="url(#doublefalse3filter)"><g class=" PhysicalEntity CellularComponent Cell"><rect   transform="matrix(0.99 0 0 0.94 5.91 5.66)" width="814.34" height="200.92" rx="15" ry="15" stroke-width="3" style="fill:transparent;stroke:#c0c0c0"/></g></g><g ><defs><clipPath ><rect x="-407.17" y="-186.32" width="814.34" height="200.92" style="stroke:none"/></clipPath></defs><text   transform="translate(407.17 186.32)"     style="fill:#c0c0c0">Vascular smooth muscle cell</text></g></g><g id="ec563" class="Metabolite " transform="translate(754.61 939.99)"  name="Cyclic guanosine monophosphate" ><rect   width="213.24" height="25" style="stroke:#00f"/><text   transform="translate(106.62 12.5)"     style="fill:#00f">Cyclic guanosine monophosphate</text></g><g id="e0e49" class="Edge"  ><path    d="m614.74 618.49-36.13 68.51" style="marker-end:url(#memcatalysis000)"/></g><g id="f390a" class="Edge"  ><path    d="m575.32 515.97-34.08 77.25"/></g><g id="d28a2" class="Edge"  ><path    d="m575.32 515.97 39.42 77.52"/></g><g id="c1e80" class="Edge"  ><path    d="m673.39 699.5-1e-13 119.75" stroke-dasharray="5,3" style="marker-end:none"/></g><g id="a7811" class="Edge"  ><path    d="m542.08 687h91.30" style="marker-end:url(#memconversion000)"/><g id="a2072" class="AB" transform="translate(578.61 687)"  ><g class="AB"/></g></g><g id="e8911" class="Edge"  ><path    d="m541.24 618.22 37.37 68.78" style="marker-end:url(#memcatalysis000)"/></g><g id="c57f1" class="Metabolite " transform="translate(633.39 674.5)"  name="nitric oxide" ><rect   width="80" height="25" style="stroke:#00f"/><text   transform="translate(40,12.5)"     style="fill:#00f">nitric oxide</text></g><g id="cf49a" class="GeneProduct " transform="translate(511.24 593.22)"  name="NOS1" ><rect   width="60" height="25"/><text   transform="translate(30,12.5)"    >NOS1</text></g><g id="fc11d" class="GeneProduct " transform="translate(584.74 593.49)"  name="NOS3" ><rect   width="60" height="25"/><text   transform="translate(30,12.5)"    >NOS3</text></g><g id="d555e" class="Metabolite " transform="translate(452.08 674.5)"  name="L-arginine" ><rect   width="90" height="25" style="stroke:#00f"/><text   transform="translate(45,12.5)"     style="fill:#00f">L-arginine</text></g><g id="ef0da" class="Edge"  ><path    d="m1066.7 631.58h131v-108.42" stroke-dasharray="5,3"/></g><g id="b1f87" class="Edge"  ><path    d="m800.39 424.75h59.19v-66.73" style="marker-end:url(#meminhibition000)"/></g><g id="a2920" class="Edge"  ><path    d="m952.43 467.93-40.60 21.04" style="marker-end:url(#memstimulation000)"/></g><g id="ff4e0" class="GroupGroup" transform="translate(900.95 561.08)"  ><g class="GroupGroup"><g id="dad9d" class="Label" transform="translate(8,8)"  name="Inflammatory mediators" ><g class="Label"/><text   transform="translate(74.87 12.5)"    >Inflammatory mediators</text></g><g id="b2d4f" class="Metabolite" transform="translate(30.05 58)"  name="Prostaglandin E2" ><rect   width="105.64" height="25" style="stroke:#00f"/><text   transform="translate(52.82 12.5)"     style="fill:#00f">Prostaglandin E2</text></g><g id="e65c9" class="Metabolite" transform="translate(27.29 33)"  name="Prostaglandin I2" ><rect   width="111.15" height="25" style="stroke:#00f"/><text   transform="translate(55.58 12.5)"     style="fill:#00f">Prostaglandin I2</text></g><g id="c10e5" class="GeneProduct " transform="translate(37.87 83)"  name="IL1A" ><rect   width="90" height="25"/><text   transform="translate(45,12.5)"    >IL1A</text></g><g id="e0a3c" class="GeneProduct " transform="translate(37.87 108)"  name="IL1B" ><rect   width="90" height="25"/><text   transform="translate(45,12.5)"    >IL1B</text></g></g></g><g id="dc981" class="GeneProduct " transform="translate(710.39 412.25)"  name="ACE2" ><rect   width="90" height="25"/><text   transform="translate(45,12.5)"    >ACE2</text></g><g id="f6746" class="GroupGroup" transform="translate(952.43 380.93)"  ><g class="GroupGroup"><g id="e582c" class="GeneProduct " transform="translate(8 83)"  name="TNF" ><rect   width="90" height="25"/><text   transform="translate(45,12.5)"    >TNF</text></g><g id="c58bb" class="GeneProduct " transform="translate(8 33)"  name="IL1A" ><rect   width="90" height="25"/><text   transform="translate(45,12.5)"    >IL1A</text></g><g id="d33da" class="GeneProduct " transform="translate(8,8)"  name="NFKB1" ><rect   width="90" height="25"/><text   transform="translate(45,12.5)"    >NFKB1</text></g><g id="a37dc" class="GeneProduct " transform="translate(8 58)"  name="IL1B" ><rect   width="90" height="25"/><text   transform="translate(45,12.5)"    >IL1B</text></g></g></g><g id="b1b8e" class="Edge"  ><path    d="m891.82 513.97 50.56 47.11"/></g><g id="f66e8" class="GroupGroup" transform="translate(1134.1 407.16)"  ><g class="GroupGroup"><g id="a4c79" class="Metabolite" transform="translate(10.76 33)"  name="Prostaglandin E2" ><rect   width="105.64" height="25" style="stroke:#00f"/><text   transform="translate(52.82 12.5)"     style="fill:#00f">Prostaglandin E2</text></g><g id="d9260" class="Metabolite" transform="translate(8,8)"  name="Prostaglandin I2" ><rect   width="111.15" height="25" style="stroke:#00f"/><text   transform="translate(55.58 12.5)"     style="fill:#00f">Prostaglandin I2</text></g><g id="c2d6a" class="GeneProduct " transform="translate(18.58 58)"  name="IL1A" ><rect   width="90" height="25"/><text   transform="translate(45,12.5)"    >IL1A</text></g><g id="d71b0" class="GeneProduct " transform="translate(18.58 83)"  name="IL1B" ><rect   width="90" height="25"/><text   transform="translate(45,12.5)"    >IL1B</text></g></g></g><g id="ida315d709" class="Edge"  ><path    d="m270.66 483.83v-20h284.67v27.13"/></g><g id="a9d6e" class="Label" transform="translate(343.95 25.08)"  name="Increased plasminogen activator inhibitor-1 (PAI-1 coded by SERPINE1) to tissue/urokinase plasminogen activator (tPA/uPA) ratio leading to hypofibrinolysis" ><g class="Label"/><text   transform="translate(232.52 12.5)"    ><tspan   x="0" y="-6.60">Increased plasminogen activator inhibitor-1 (PAI-1 coded by SERPINE1) to</tspan><tspan   x="0" y="6.60">tissue/urokinase plasminogen activator (tPA/uPA) ratio leading to hypofibrinolysis</tspan></text></g></g></g></g></svg>