<?xml version="1.0" encoding="UTF-8"?>
<svg xmlns="http://www.w3.org/2000/svg" id="-svg" class="Diagram"  baseProfile="full" prefix="schema:http://schema.org/" preserveAspectRatio="xMidYMid"  version="1.1"><defs><g id="icon-defs"><symbol id="Octagon" class=" Icon Octagon" x="0" y="0" overflow="visible" preserveAspectRatio="none" viewBox="0 0 100 100"><desc>Octagon</desc><path d="m0 25 25-25h50l25 25v50l-25 25h-50l-25-25z" vector-effect="non-scaling-stroke"/></symbol></g><g id="marker-defs"><marker id="membinding000" markerHeight="12" markerWidth="12" orient="auto" preserveAspectRatio="none" refX="12" refY="6" viewBox="0 0 12 12"><g id="g-membinding000" transform=""><g transform="rotate(180 6 6)"><rect y="5.4" width="2" height="1.2" style="stroke:#fff"/><polygon points="12 12 0 6 12 0 5 6" stroke-width="0"/></g></g></marker><marker id="memcleavage000" markerHeight="30" markerWidth="20" orient="auto" preserveAspectRatio="none" refX="20" refY="15" viewBox="0 0 20 30"><g id="g-memcleavage000" transform=""><g transform="rotate(180 10 15)"><rect y="14.3" width="18.4" height="1.4" style="stroke:#fff"/><line x1="18" x2="18" y1="14.5" y2="30" stroke="#000"/><line x1="18" y1="30" stroke="#000"/></g></g></marker><marker id="memcatalysis000" markerHeight="12" markerWidth="12" orient="auto" preserveAspectRatio="none" refX="12" refY="6" viewBox="0 0 12 12"><g id="g-memcatalysis000" transform=""><g transform="rotate(180 6 6)"><circle cx="6" cy="6" r="5.3px" fill="#fff" stroke="#000"/></g></g></marker><marker id="memconversion000" markerHeight="12" markerWidth="12" orient="auto" preserveAspectRatio="none" refX="12" refY="6" viewBox="0 0 12 12"><g id="g-memconversion000" transform=""><g transform="rotate(180 6 6)"><rect y="5.4" width="2" height="1.2" style="stroke:#fff"/><polygon points="12 11 0 6 12 1" stroke-width="0"/></g></g></marker></g></defs><g id="viewport-20220102144622444" class="svg-pan-zoom_viewport" transform="matrix(0.52 0 0 0.52 0 72.97)" style="transform:matrix(0.52, 0, 0, 0.52, 0, 72.97)"><style>svg.Diagram {font-family: 'Liberation Sans', Arial, sans-serif; }.Diagram path {fill: transparent;stroke: #000;marker-end: url(#mea);}.Diagram symbol path {fill: inherit;stroke: inherit;stroke-width: inherit;marker-end: inherit;}.Diagram rect {fill: #fff;stroke: #000;}.Diagram text {dominant-baseline: central;overflow: hidden;text-anchor: middle;fill: #000;font-size: 12px;}</style><style type="text/css">.Viewport .textContent {
  pointer-events: none;
  stroke-width: 0px;
}

					.Viewport.Icon {
  fill: white;
}

/* Hide the InfoBox */
.Viewport.textContent {
  font-size: 0;
}

.textContent {
  stroke: none;
}

.DataNode {
  stroke-miterlimit: 1;
  pointer-events: auto;
}

.DataNode:hover {
  cursor: pointer;
}

/* TODO should this apply to things other than DataNodes? */
.DataNode.textContent {
  pointer-events: none;
}

.DataNode.Highlighted {
  opacity: 0.6;
  stroke-width: 0px;
}

marker {
  /* this is what should work per the spec
  stroke-dasharray: none; */
  /* but I need to add this to make it work in Safari */
  stroke-dasharray: 9999999999999999999999999;
}

.Citation.Icon {
  fill: none;
  stroke-width: 0px;
}

.Citation.textContent {
  text-align: center;
  vertical-align: top;
  font-size: 7px;
  fill: #999;
  fill-opacity: 1;
  stroke: none;
}</style><g id="WP4922" class="Pathway http___identifiers_org_pw_PW_0000034 http___identifiers_org_pw_PW_0001059 Viewport"  name="Name: Mitochondrial complex IV assembly Organism: Homo sapiens" ><g class="Pathway http___identifiers_org_pw_PW_0000034 http___identifiers_org_pw_PW_0001059 Viewport"><rect   width="2303" height="1003.8" style="stroke:none"/><g id="id7b03efdc" class="Edge"  ><path    d="m313.91 390.76h99.08" style="marker-end:url(#memconversion000)"/><g id="df78b" class="AB" transform="translate(353.54 390.76)"  ><g class="AB"/></g></g><g id="id89e8ed4f" class="Edge"  ><path    d="m353.54 390.76 0.45 64.18" style="marker-end:url(#memcatalysis000)"/></g><g id="idae9f10fb" class="Edge"  ><path    d="m133.24 390.76 90.67-4e-14" style="marker-end:url(#memconversion000)"/><g id="fee94" class="AB" transform="translate(169.5 390.76)"  ><g class="AB"/></g></g><g id="id4c77c81b" class="Edge"  ><path    d="m169.5 390.76 0.66 57.88" style="marker-end:url(#memcatalysis000)"/></g><g id="id155e39e6" class="Edge"  ><path    d="m922.44 50.42-185.57 86.12" style="marker-end:url(#membinding000)"/><g id="e210f" class="AB" transform="translate(890.12 65.42)"  ><g class="AB"/></g><g id="be936" class="AB" transform="translate(802.39 106.13)"  ><g class="AB"/></g></g><g id="idb7673c93" class="Edge"  ><path    d="m502.98 390.76 127.88-158.72" style="marker-end:url(#membinding000)"/></g><g id="id711b052a" class="Edge"  ><path    d="m117.48 185.35 39.60-0.79" style="marker-end:url(#membinding000)"/></g><g id="idfc818c23" class="Edge"  ><path    d="m890.12 65.42 36.35 39.73" style="marker-end:url(#memcatalysis000)"/></g><g id="id654e1754" class="Edge"  ><path    d="m263.08 184.56 130.89-0.61" style="marker-end:url(#membinding000)"/><g id="e6543" class="AB" transform="translate(315.44 184.32)"  ><g class="AB"/></g></g><g id="idc6563a4a" class="Edge"  ><path    d="m499.97 183.95 130.89 0.34" style="marker-end:url(#membinding000)"/><g id="c85c8" class="AB" transform="translate(552.33 184.08)"  ><g class="AB"/></g></g><g id="id4446fe2d" class="Edge"  ><path    d="m552.33 184.08 0.74 49.76" style="marker-end:url(#memcleavage000)"/></g><g id="id713e3072" class="Edge"  ><path    d="m802.39 106.13 32.70 35.13" style="marker-end:url(#memcatalysis000)"/></g><g id="idcfb211a9" class="Edge"  ><path    d="m314.08 244.85 1.36-60.54" style="marker-end:url(#membinding000)"/></g><g id="id12e9bf46" class="Edge"  ><path    d="m1744.7 552.75 144.29-0.50" style="marker-end:url(#membinding000)"/><g id="bbf31" class="AB" transform="translate(1802.4 552.55)"  ><g class="AB"/></g></g><g id="id729f1047" class="Edge"  ><path    d="m1190.6 553.26 166.1-0.50" style="marker-end:url(#membinding000)"/><g id="b7910" class="AB" transform="translate(1257.1 553.05)"  ><g class="AB"/></g></g><g id="id505af4e0" class="Edge"  ><path    d="m414.34 552.61 481.77 0.65" style="marker-end:url(#membinding000)"/><g id="b271f" class="AB" transform="translate(818 553.15)"  ><g class="AB"/></g><g id="eb6af" class="AB" transform="translate(572.29 552.82)"  ><g class="AB"/></g><g id="dceab" class="AB" transform="translate(748.58 553.06)"  ><g class="AB"/></g></g><g id="idcfc908bb" class="Edge"  ><path    d="m1256.3 652.82 0.78-99.77" style="marker-end:url(#membinding000)"/></g><g id="idfd55b3a6" class="Edge"  ><path    d="m1802.5 656.62-0.08-104.07" style="marker-end:url(#membinding000)"/></g><g id="id50a1dfd" class="Edge"  ><path    d="m303 766.6 175.51-0.32" style="marker-end:url(#membinding000)"/><g id="f614e" class="AB" transform="translate(373.21 766.47)"  ><g class="AB"/></g></g><g id="idf6665851" class="Edge"  ><path    d="m597.18 639.1-65.67 44.19" style="marker-end:url(#membinding000)"/><g id="b4e22" class="AB" transform="translate(570.92 656.77)"  ><g class="AB"/></g></g><g id="ida7f65032" class="Edge"  ><path    d="m683.87 279.79-111.57 273.04" style="marker-end:url(#membinding000)"/></g><g id="id494fb373" class="Edge"  ><path    d="m570.92 656.77 42.19 26.55" style="marker-end:url(#memcatalysis000)"/></g><g id="id64c73795" class="Edge"  ><path    d="m809.89 682.78 8.11-129.63" style="marker-end:url(#membinding000)"/></g><g id="idd34e6970" class="Edge"  ><path    d="m584.51 766.28 125.64-0.50" style="marker-end:url(#membinding000)"/><g id="b2a3a" class="AB" transform="translate(634.77 766.08)"  ><g class="AB"/></g></g><g id="idf99c4734" class="Edge"  ><path    d="m373.21 766.47 1.29 78.30" style="marker-end:url(#memcleavage000)"/></g><g id="id99849837" class="Edge"  ><path    d="m635.5 840.84-0.74-74.77" style="marker-end:url(#membinding000)"/></g><g id="f5ede" class="Label" transform="translate(2042.2 406.62)"  name="Complex IV" ><g class="Label"/><text   transform="translate(45,12.5)"    font-weight="bold"  style="font-size:14px">Complex IV</text></g><g id="ffc02" class="Label" transform="translate(33.78 767.96)"  name="MT-CO2 module" ><g class="Label"/><text   transform="translate(52.96 12.5)"    font-weight="bold" >MT-CO2 module</text></g><g id="ae078" class="Metabolite " transform="translate(922.44 37.92)"  name="Copper" ><rect   width="90" height="25" style="stroke:#00f"/><text   transform="translate(45,12.5)"     style="fill:#00f">Copper</text></g><g id="aed7e" class="GeneProduct " transform="translate(269.08 244.85)"  name="CMC1" ><rect   width="90" height="25"/><text   transform="translate(45,12.5)"    >CMC1</text></g><g id="b9309" class="Metabolite " transform="translate(223.91 378.26)"  name="Heme O" ><rect   width="90" height="25" style="stroke:#00f"/><text   transform="translate(45,12.5)"     style="fill:#00f">Heme O</text></g><g id="d0833" class="Metabolite " transform="translate(412.98 378.26)"  name="Heme A" ><rect   width="90" height="25" style="stroke:#00f"/><text   transform="translate(45,12.5)"     style="fill:#00f">Heme A</text></g><g id="d6ac9" class="GeneProduct " transform="translate(308.99 454.94)"  name="COX15" ><rect   width="90" height="25"/><text   transform="translate(45,12.5)"    >COX15</text></g><g id="d8848" class="GeneProduct " transform="translate(27.48 172.85)"  name="TACO1" ><rect   width="90" height="25"/><text   transform="translate(45,12.5)"    >TACO1</text></g><g id="e17d9" class="Metabolite " transform="translate(43.23 378.26)"  name="Heme B" ><rect   width="90" height="25" style="stroke:#00f"/><text   transform="translate(45,12.5)"     style="fill:#00f">Heme B</text></g><g id="eb3fc" class="GeneProduct " transform="translate(1757.5 656.62)"  name="NDUFA4" ><rect   width="90" height="25"/><text   transform="translate(45,12.5)"    >NDUFA4</text></g><g id="f2c48" class="GeneProduct " transform="translate(881.47 105.15)"  name="COX17" ><rect   width="90" height="25"/><text   transform="translate(45,12.5)"    >COX17</text></g><g id="f46be" class="GeneProduct " transform="translate(125.17 448.63)"  name="COX10" ><rect   width="90" height="25"/><text   transform="translate(45,12.5)"    >COX10</text></g><g id="a40e0" class="GroupGroup" transform="translate(630.87 88.79)"  ><g class="GroupGroup"><g id="b6bff" class="GeneProduct " transform="translate(8 133)"  name="SURF1" ><rect   width="90" height="25"/><text   transform="translate(45,12.5)"    >SURF1</text></g><g id="bcf5b" class="GeneProduct " transform="translate(8 158)"  name="SMIM20" ><rect   width="90" height="25"/><text   transform="translate(45,12.5)"    >SMIM20</text></g><g id="d58f8" class="GeneProduct " transform="translate(8 108)"  name="CMC1" ><rect   width="90" height="25"/><text   transform="translate(45,12.5)"    >CMC1</text></g><g id="ad5ee" class="GeneProduct " transform="translate(8 83)"  name="COA3" ><rect   width="90" height="25"/><text   transform="translate(45,12.5)"    >COA3</text></g><g id="ef38c" class="GeneProduct " transform="translate(8 58)"  name="COX14" ><rect   width="90" height="25"/><text   transform="translate(45,12.5)"    >COX14</text></g><g id="b4d70" class="GeneProduct " transform="translate(8,8)"  name="MT-CO1" ><rect   width="90" height="25"/><text   transform="translate(45,12.5)"    >MT-CO1</text></g><g id="cd060" class="GeneProduct " transform="translate(8 33)"  name="TACO1" ><rect   width="90" height="25"/><text   transform="translate(45,12.5)"    >TACO1</text></g></g></g><g id="a66a9" class="GroupGroup" transform="translate(157.08 126.56)"  ><g class="GroupGroup"><g id="c1165" class="GeneProduct " transform="translate(8 83)"  name="COA3" ><rect   width="90" height="25"/><text   transform="translate(45,12.5)"    >COA3</text></g><g id="ed9da" class="GeneProduct " transform="translate(8 58)"  name="COX14" ><rect   width="90" height="25"/><text   transform="translate(45,12.5)"    >COX14</text></g><g id="f20b8" class="GeneProduct " transform="translate(8,8)"  name="MT-CO1" ><rect   width="90" height="25"/><text   transform="translate(45,12.5)"    >MT-CO1</text></g><g id="ab7f1" class="GeneProduct " transform="translate(8,33)"  name="TACO1" ><rect   width="90" height="25"/><text   transform="translate(45,12.5)"    >TACO1</text></g></g></g><g id="bf476" class="GroupGroup" transform="translate(197 721.1)"  ><g class="GroupGroup"><g id="aeaca" class="GeneProduct " transform="translate(8 8)"  name="MT-CO2" ><rect   width="90" height="25"/><text   transform="translate(45,12.5)"    >MT-CO2</text></g><g id="cb6ae" class="GeneProduct " transform="translate(8,58)"  name="COX18" ><rect   width="90" height="25"/><text   transform="translate(45,12.5)"    >COX18</text></g><g id="f5cbb" class="GeneProduct " transform="translate(8 33)"  name="COX20" ><rect   width="90" height="25"/><text   transform="translate(45,12.5)"    >COX20</text></g></g></g><g id="ceaf9" class="GroupGroup" transform="translate(782.08 141.26)"  ><g class="GroupGroup"><g id="c48e6" class="GeneProduct " transform="translate(8,33)"  name="COX19" ><rect   width="90" height="25"/><text   transform="translate(45,12.5)"    >COX19</text></g><g id="d82fb" class="GeneProduct " transform="translate(8,8)"  name="COX11" ><rect   width="90" height="25"/><text   transform="translate(45,12.5)"    >COX11</text></g></g></g><g id="d056f" class="GroupGroup" transform="translate(1203.3 652.82)"  ><g class="GroupGroup"><g id="ba341" class="GeneProduct " transform="translate(8 58)"  name="COX6B1" ><rect   width="90" height="25"/><text   transform="translate(45,12.5)"    >COX6B1</text></g><g id="bd9e4" class="GeneProduct " transform="translate(8 83)"  name="COX7A2" ><rect   width="90" height="25"/><text   transform="translate(45,12.5)"    >COX7A2</text></g><g id="d3d2e" class="GeneProduct " transform="translate(8 33)"  name="COX6A1" ><rect   width="90" height="25"/><text   transform="translate(45,12.5)"    >COX6A1</text></g><g id="f391e" class="GeneProduct " transform="translate(8 8)"  name="MT-CO3" ><rect   width="90" height="25"/><text   transform="translate(45,12.5)"    >MT-CO3</text></g></g></g><g id="e235d" class="GroupGroup" transform="translate(308.34 507.11)"  ><g class="GroupGroup"><g id="ac76b" class="GeneProduct " transform="translate(8 58)"  name="HIGD1A" ><rect   width="90" height="25"/><text   transform="translate(45,12.5)"    >HIGD1A</text></g><g id="dd50f" class="GeneProduct " transform="translate(8,33)"  name="COX5A" ><rect   width="90" height="25"/><text   transform="translate(45,12.5)"    >COX5A</text></g><g id="f3a1a" class="GeneProduct " transform="translate(8,8)"  name="COX4I1" ><rect   width="90" height="25"/><text   transform="translate(45,12.5)"    >COX4I1</text></g></g></g><g id="e4503" class="GroupGroup" transform="translate(478.51 683.28)"  ><g class="GroupGroup"><g id="bc229" class="GeneProduct " transform="translate(8,8)"  name="COX16" ><rect   width="90" height="25"/><text   transform="translate(45,12.5)"    >COX16</text></g><g id="c5455" class="GeneProduct " transform="translate(8,33)"  name="COA6" ><rect   width="90" height="25"/><text   transform="translate(45,12.5)"    >COA6</text></g><g id="d4c2f" class="GeneProduct " transform="translate(8 58)"  name="SCO2" ><rect   width="90" height="25"/><text   transform="translate(45,12.5)"    >SCO2</text></g><g id="ed21d" class="GeneProduct " transform="translate(8 133)"  name="TMEM177" ><rect   width="90" height="25"/><text   transform="translate(45,12.5)"    >TMEM177</text></g><g id="f7f0e" class="GeneProduct " transform="translate(8 83)"  name="MT-CO2" ><rect   width="90" height="25"/><text   transform="translate(45,12.5)"    >MT-CO2</text></g><g id="d28bc" class="GeneProduct " transform="translate(8 108)"  name="COX20" ><rect   width="90" height="25"/><text   transform="translate(45,12.5)"    >COX20</text></g></g></g><g id="f4acc" class="GroupGroup" transform="translate(689.65 428.03)"  ><g class="GroupGroup"><g id="a3862" class="GeneProduct " transform="translate(8,8)"  name="PET100" ><rect   width="90" height="25"/><text   transform="translate(45,12.5)"    >PET100</text></g><g id="d71c2" class="GeneProduct " transform="translate(8 33)"  name="PET117" ><rect   width="90" height="25"/><text   transform="translate(45,12.5)"    >PET117</text></g><g id="f7425" class="GeneProduct " transform="translate(8 58)"  name="PNKD" ><rect   width="90" height="25"/><text   transform="translate(45,12.5)"    >PNKD</text></g></g></g><g id="fefbf" class="GroupGroup" transform="translate(582.5 840.84)"  ><g class="GroupGroup"><g id="a7a1b" class="GeneProduct " transform="translate(8,33)"  name="COX6C" ><rect   width="90" height="25"/><text   transform="translate(45,12.5)"    >COX6C</text></g><g id="a9996" class="GeneProduct " transform="translate(8,8)"  name="COX5B" ><rect   width="90" height="25"/><text   transform="translate(45,12.5)"    >COX5B</text></g><g id="b7945" class="GeneProduct " transform="translate(8 58)"  name="COX7B" ><rect   width="90" height="25"/><text   transform="translate(45,12.5)"    >COX7B</text></g><g id="ddcb5" class="GeneProduct " transform="translate(8 108)"  name="COX8A" ><rect   width="90" height="25"/><text   transform="translate(45,12.5)"    >COX8A</text></g><g id="dfca7" class="GeneProduct " transform="translate(8 83)"  name="COX7C" ><rect   width="90" height="25"/><text   transform="translate(45,12.5)"    >COX7C</text></g></g></g><g id="b29f7" class="GroupGroup" transform="translate(393.97 113.45)"  ><g class="GroupGroup"><g id="c8810" class="GeneProduct " transform="translate(8 108)"  name="CMC1" ><rect   width="90" height="25"/><text   transform="translate(45,12.5)"    >CMC1</text></g><g id="a5e87" class="GeneProduct " transform="translate(8 83)"  name="COA3" ><rect   width="90" height="25"/><text   transform="translate(45,12.5)"    >COA3</text></g><g id="ce567" class="GeneProduct " transform="translate(8,58)"  name="COX14" ><rect   width="90" height="25"/><text   transform="translate(45,12.5)"    >COX14</text></g><g id="f30c6" class="GeneProduct " transform="translate(8,8)"  name="MT-CO1" ><rect   width="90" height="25"/><text   transform="translate(45,12.5)"    >MT-CO1</text></g><g id="ff637" class="GeneProduct " transform="translate(8,33)"  name="TACO1" ><rect   width="90" height="25"/><text   transform="translate(45,12.5)"    >TACO1</text></g></g></g><g id="ceaeb" class="GeneProduct " transform="translate(508.07 233.84)"  name="CMC1" ><rect   width="90" height="25"/><text   transform="translate(45,12.5)"    >CMC1</text></g><g id="a7fd6" class="Metabolite " transform="translate(552.18 614.1)"  name="Copper" ><rect   width="90" height="25" style="stroke:#00f"/><text   transform="translate(45,12.5)"     style="fill:#00f">Copper</text></g><g id="c082b" class="GeneProduct " transform="translate(613.11 670.82)"  name="COX17" ><rect   width="90" height="25"/><text   transform="translate(45,12.5)"    >COX17</text></g><g id="b5d4a" class="GeneProduct " transform="translate(329.5 844.77)"  name="COX18" ><rect   width="90" height="25"/><text   transform="translate(45,12.5)"    >COX18</text></g><g id="f6130" class="GroupGroup" transform="translate(710.15 682.78)"  ><g class="GroupGroup"><g id="a3ec4" class="GeneProduct " transform="translate(8,8)"  name="COX16" ><rect   width="90" height="25"/><text   transform="translate(45,12.5)"    >COX16</text></g><g id="d9e8f" class="GeneProduct " transform="translate(8,33)"  name="COA6" ><rect   width="90" height="25"/><text   transform="translate(45,12.5)"    >COA6</text></g><g id="ac2ea" class="GeneProduct " transform="translate(8 58)"  name="SCO2" ><rect   width="90" height="25"/><text   transform="translate(45,12.5)"    >SCO2</text></g><g id="e79b6" class="GeneProduct " transform="translate(8 133)"  name="TMEM177" ><rect   width="90" height="25"/><text   transform="translate(45,12.5)"    >TMEM177</text></g><g id="e46b0" class="GeneProduct " transform="translate(8 83)"  name="MT-CO2" ><rect   width="90" height="25"/><text   transform="translate(45,12.5)"    >MT-CO2</text></g><g id="c0e6a" class="GeneProduct " transform="translate(8 108)"  name="COX20" ><rect   width="90" height="25"/><text   transform="translate(45,12.5)"    >COX20</text></g><g id="c230f" class="GeneProduct " transform="translate(101.49 34.05)"  name="COX6C" ><rect   width="90" height="25"/><text   transform="translate(45,12.5)"    >COX6C</text></g><g id="d9522" class="GeneProduct " transform="translate(101.49 9.05)"  name="COX5B" ><rect   width="90" height="25"/><text   transform="translate(45,12.5)"    >COX5B</text></g><g id="f9ee1" class="GeneProduct " transform="translate(101.49 59.05)"  name="COX7B" ><rect   width="90" height="25"/><text   transform="translate(45,12.5)"    >COX7B</text></g><g id="b5285" class="GeneProduct " transform="translate(101.49 109.05)"  name="COX8A" ><rect   width="90" height="25"/><text   transform="translate(45,12.5)"    >COX8A</text></g><g id="a3597" class="GeneProduct " transform="translate(101.49 84.05)"  name="COX7C" ><rect   width="90" height="25"/><text   transform="translate(45,12.5)"    >COX7C</text></g></g></g><g id="b3efd" class="Edge"  ><path    d="m742.65 519.03 5.93 34.03" style="marker-end:url(#membinding000)"/></g><g id="cec93" class="GroupGroup" transform="translate(896.12 456.98)"  ><g class="GroupGroup"><g id="b0b1f" class="GeneProduct " transform="translate(8 133)"  name="SURF1" ><rect   width="90" height="25"/><text   transform="translate(45,12.5)"    >SURF1</text></g><g id="cbf8d" class="GeneProduct " transform="translate(8 158)"  name="SMIM20" ><rect   width="90" height="25"/><text   transform="translate(45,12.5)"    >SMIM20</text></g><g id="c4a63" class="GeneProduct " transform="translate(8 108)"  name="CMC1" ><rect   width="90" height="25"/><text   transform="translate(45,12.5)"    >CMC1</text></g><g id="c5faa" class="GeneProduct " transform="translate(8 83)"  name="COA3" ><rect   width="90" height="25"/><text   transform="translate(45,12.5)"    >COA3</text></g><g id="dd4c0" class="GeneProduct " transform="translate(8 58)"  name="COX14" ><rect   width="90" height="25"/><text   transform="translate(45,12.5)"    >COX14</text></g><g id="d645f" class="GeneProduct " transform="translate(8,8)"  name="MT-CO1" ><rect   width="90" height="25"/><text   transform="translate(45,12.5)"    >MT-CO1</text></g><g id="bfc16" class="GeneProduct " transform="translate(8 33)"  name="TACO1" ><rect   width="90" height="25"/><text   transform="translate(45,12.5)"    >TACO1</text></g><g id="c33a1" class="GeneProduct " transform="translate(103.04 8.50)"  name="COX16" ><rect   width="90" height="25"/><text   transform="translate(45,12.5)"    >COX16</text></g><g id="b9030" class="GeneProduct " transform="translate(103.04 33.50)"  name="COA6" ><rect   width="90" height="25"/><text   transform="translate(45,12.5)"    >COA6</text></g><g id="f9daf" class="GeneProduct " transform="translate(103.04 58.50)"  name="SCO2" ><rect   width="90" height="25"/><text   transform="translate(45,12.5)"    >SCO2</text></g><g id="eb318" class="GeneProduct " transform="translate(103.04 133.5)"  name="TMEM177" ><rect   width="90" height="25"/><text   transform="translate(45,12.5)"    >TMEM177</text></g><g id="b7da9" class="GeneProduct " transform="translate(103.04 83.50)"  name="MT-CO2" ><rect   width="90" height="25"/><text   transform="translate(45,12.5)"    >MT-CO2</text></g><g id="a8cb8" class="GeneProduct " transform="translate(103.04 108.5)"  name="COX20" ><rect   width="90" height="25"/><text   transform="translate(45,12.5)"    >COX20</text></g><g id="d9784" class="GeneProduct " transform="translate(196.53 34.55)"  name="COX6C" ><rect   width="90" height="25"/><text   transform="translate(45,12.5)"    >COX6C</text></g><g id="d5fe3" class="GeneProduct " transform="translate(196.53 9.55)"  name="COX5B" ><rect   width="90" height="25"/><text   transform="translate(45,12.5)"    >COX5B</text></g><g id="c28f3" class="GeneProduct " transform="translate(196.53 59.55)"  name="COX7B" ><rect   width="90" height="25"/><text   transform="translate(45,12.5)"    >COX7B</text></g><g id="ce99b" class="GeneProduct " transform="translate(196.53 109.55)"  name="COX8A" ><rect   width="90" height="25"/><text   transform="translate(45,12.5)"    >COX8A</text></g><g id="b7a4c" class="GeneProduct " transform="translate(196.53 84.56)"  name="COX7C" ><rect   width="90" height="25"/><text   transform="translate(45,12.5)"    >COX7C</text></g><g id="aa8e4" class="GeneProduct " transform="translate(196.53 134.55)"  name="PET100" ><rect   width="90" height="25"/><text   transform="translate(45,12.5)"    >PET100</text></g><g id="a1677" class="GeneProduct " transform="translate(196.53 159.55)"  name="PET117" ><rect   width="90" height="25"/><text   transform="translate(45,12.5)"    >PET117</text></g><g id="a8ae5" class="GeneProduct " transform="translate(103.04 158.5)"  name="PNKD" ><rect   width="90" height="25"/><text   transform="translate(45,12.5)"    >PNKD</text></g></g></g><g id="d4262" class="Label" transform="translate(12.27 67.88)"  name="MT-CO1 module 'MITRAC'" ><g class="Label"/><text   transform="translate(52.96 12.5)"    font-weight="bold" ><tspan   x="0" y="-6.60">MT-CO1 module</tspan><tspan   x="0" y="6.60">'MITRAC'</tspan></text></g><g id="f7e98" class="Label" transform="translate(1267.6 840.6)"  name="MT-CO3 module" ><g class="Label"/><text   transform="translate(52.96 12.5)"    font-weight="bold" >MT-CO3 module</text></g><g id="cf448" class="GroupGroup" transform="translate(1356.7 456.47)"  ><g class="GroupGroup"><g id="c85f9" class="GeneProduct " transform="translate(8 133)"  name="SURF1" ><rect   width="90" height="25"/><text   transform="translate(45,12.5)"    >SURF1</text></g><g id="ce053" class="GeneProduct " transform="translate(8 158)"  name="SMIM20" ><rect   width="90" height="25"/><text   transform="translate(45,12.5)"    >SMIM20</text></g><g id="ac494" class="GeneProduct " transform="translate(8 108)"  name="CMC1" ><rect   width="90" height="25"/><text   transform="translate(45,12.5)"    >CMC1</text></g><g id="c9b45" class="GeneProduct " transform="translate(8 83)"  name="COA3" ><rect   width="90" height="25"/><text   transform="translate(45,12.5)"    >COA3</text></g><g id="d7a30" class="GeneProduct " transform="translate(8 58)"  name="COX14" ><rect   width="90" height="25"/><text   transform="translate(45,12.5)"    >COX14</text></g><g id="af7d8" class="GeneProduct " transform="translate(8,8)"  name="MT-CO1" ><rect   width="90" height="25"/><text   transform="translate(45,12.5)"    >MT-CO1</text></g><g id="a896f" class="GeneProduct " transform="translate(8 33)"  name="TACO1" ><rect   width="90" height="25"/><text   transform="translate(45,12.5)"    >TACO1</text></g><g id="f32df" class="GeneProduct " transform="translate(103.04 8.50)"  name="COX16" ><rect   width="90" height="25"/><text   transform="translate(45,12.5)"    >COX16</text></g><g id="b8bbc" class="GeneProduct " transform="translate(103.04 33.50)"  name="COA6" ><rect   width="90" height="25"/><text   transform="translate(45,12.5)"    >COA6</text></g><g id="ad6fd" class="GeneProduct " transform="translate(103.04 58.50)"  name="SCO2" ><rect   width="90" height="25"/><text   transform="translate(45,12.5)"    >SCO2</text></g><g id="c208b" class="GeneProduct " transform="translate(103.04 133.5)"  name="TMEM177" ><rect   width="90" height="25"/><text   transform="translate(45,12.5)"    >TMEM177</text></g><g id="f0ace" class="GeneProduct " transform="translate(103.04 83.50)"  name="MT-CO2" ><rect   width="90" height="25"/><text   transform="translate(45,12.5)"    >MT-CO2</text></g><g id="f3f5f" class="GeneProduct " transform="translate(103.04 108.5)"  name="COX20" ><rect   width="90" height="25"/><text   transform="translate(45,12.5)"    >COX20</text></g><g id="fd0c6" class="GeneProduct " transform="translate(196.53 34.55)"  name="COX6C" ><rect   width="90" height="25"/><text   transform="translate(45,12.5)"    >COX6C</text></g><g id="de801" class="GeneProduct " transform="translate(196.53 9.55)"  name="COX5B" ><rect   width="90" height="25"/><text   transform="translate(45,12.5)"    >COX5B</text></g><g id="cd285" class="GeneProduct " transform="translate(196.53 59.55)"  name="COX7B" ><rect   width="90" height="25"/><text   transform="translate(45,12.5)"    >COX7B</text></g><g id="a4b7f" class="GeneProduct " transform="translate(196.53 109.55)"  name="COX8A" ><rect   width="90" height="25"/><text   transform="translate(45,12.5)"    >COX8A</text></g><g id="cd60e" class="GeneProduct " transform="translate(196.53 84.56)"  name="COX7C" ><rect   width="90" height="25"/><text   transform="translate(45,12.5)"    >COX7C</text></g><g id="f5711" class="GeneProduct " transform="translate(196.53 134.55)"  name="PET100" ><rect   width="90" height="25"/><text   transform="translate(45,12.5)"    >PET100</text></g><g id="fbe4e" class="GeneProduct " transform="translate(196.53 159.55)"  name="PET117" ><rect   width="90" height="25"/><text   transform="translate(45,12.5)"    >PET117</text></g><g id="e9098" class="GeneProduct " transform="translate(103.04 158.5)"  name="PNKD" ><rect   width="90" height="25"/><text   transform="translate(45,12.5)"    >PNKD</text></g><g id="e6933" class="GeneProduct " transform="translate(289.97 60.56)"  name="COX6B1" ><rect   width="90" height="25"/><text   transform="translate(45,12.5)"    >COX6B1</text></g><g id="fb35c" class="GeneProduct " transform="translate(289.97 85.56)"  name="COX7A2" ><rect   width="90" height="25"/><text   transform="translate(45,12.5)"    >COX7A2</text></g><g id="fe1a2" class="GeneProduct " transform="translate(289.97 35.56)"  name="COX6A1" ><rect   width="90" height="25"/><text   transform="translate(45,12.5)"    >COX6A1</text></g><g id="e3685" class="GeneProduct " transform="translate(289.97 10.56)"  name="MT-CO3" ><rect   width="90" height="25"/><text   transform="translate(45,12.5)"    >MT-CO3</text></g></g></g><g id="a7ff8" class="GroupComplex" transform="translate(1889 451.97)"  ><g class="GroupComplex"><use class="Icon" width="395.97" height="200.55" fill="#b4b464" fill-opacity=".1" stroke="grey" href="#Octagon"/><g id="b6961" class="GeneProduct " transform="translate(12 137)"  name="SURF1" ><rect   width="90" height="25"/><text   transform="translate(45,12.5)"    >SURF1</text></g><g id="b8505" class="GeneProduct " transform="translate(12 162)"  name="SMIM20" ><rect   width="90" height="25"/><text   transform="translate(45,12.5)"    >SMIM20</text></g><g id="cb5be" class="GeneProduct " transform="translate(12 112)"  name="CMC1" ><rect   width="90" height="25"/><text   transform="translate(45,12.5)"    >CMC1</text></g><g id="d0214" class="GeneProduct " transform="translate(12 87)"  name="COA3" ><rect   width="90" height="25"/><text   transform="translate(45,12.5)"    >COA3</text></g><g id="d77ff" class="GeneProduct " transform="translate(12 62)"  name="COX14" ><rect   width="90" height="25"/><text   transform="translate(45,12.5)"    >COX14</text></g><g id="ee5c0" class="GeneProduct " transform="translate(12,12)"  name="MT-CO1" ><rect   width="90" height="25"/><text   transform="translate(45,12.5)"    >MT-CO1</text></g><g id="d5233" class="GeneProduct " transform="translate(12 37)"  name="TACO1" ><rect   width="90" height="25"/><text   transform="translate(45,12.5)"    >TACO1</text></g><g id="b29bf" class="GeneProduct " transform="translate(107.04 12.50)"  name="COX16" ><rect   width="90" height="25"/><text   transform="translate(45,12.5)"    >COX16</text></g><g id="ded98" class="GeneProduct " transform="translate(107.04 37.50)"  name="COA6" ><rect   width="90" height="25"/><text   transform="translate(45,12.5)"    >COA6</text></g><g id="a0234" class="GeneProduct " transform="translate(107.04 62.50)"  name="SCO2" ><rect   width="90" height="25"/><text   transform="translate(45,12.5)"    >SCO2</text></g><g id="ef2ef" class="GeneProduct " transform="translate(107.04 137.5)"  name="TMEM177" ><rect   width="90" height="25"/><text   transform="translate(45,12.5)"    >TMEM177</text></g><g id="a434e" class="GeneProduct " transform="translate(107.04 87.50)"  name="MT-CO2" ><rect   width="90" height="25"/><text   transform="translate(45,12.5)"    >MT-CO2</text></g><g id="fb4eb" class="GeneProduct " transform="translate(107.04 112.5)"  name="COX20" ><rect   width="90" height="25"/><text   transform="translate(45,12.5)"    >COX20</text></g><g id="a8f15" class="GeneProduct " transform="translate(200.53 38.55)"  name="COX6C" ><rect   width="90" height="25"/><text   transform="translate(45,12.5)"    >COX6C</text></g><g id="f2911" class="GeneProduct " transform="translate(200.53 13.55)"  name="COX5B" ><rect   width="90" height="25"/><text   transform="translate(45,12.5)"    >COX5B</text></g><g id="fe745" class="GeneProduct " transform="translate(200.53 63.55)"  name="COX7B" ><rect   width="90" height="25"/><text   transform="translate(45,12.5)"    >COX7B</text></g><g id="aae84" class="GeneProduct " transform="translate(200.53 113.55)"  name="COX8A" ><rect   width="90" height="25"/><text   transform="translate(45,12.5)"    >COX8A</text></g><g id="c5071" class="GeneProduct " transform="translate(200.53 88.56)"  name="COX7C" ><rect   width="90" height="25"/><text   transform="translate(45,12.5)"    >COX7C</text></g><g id="bd093" class="GeneProduct " transform="translate(200.53 138.55)"  name="PET100" ><rect   width="90" height="25"/><text   transform="translate(45,12.5)"    >PET100</text></g><g id="aa43a" class="GeneProduct " transform="translate(200.53 163.55)"  name="PET117" ><rect   width="90" height="25"/><text   transform="translate(45,12.5)"    >PET117</text></g><g id="cd0c4" class="GeneProduct " transform="translate(107.04 162.5)"  name="PNKD" ><rect   width="90" height="25"/><text   transform="translate(45,12.5)"    >PNKD</text></g><g id="faccd" class="GeneProduct " transform="translate(293.97 64.56)"  name="COX6B1" ><rect   width="90" height="25"/><text   transform="translate(45,12.5)"    >COX6B1</text></g><g id="c7977" class="GeneProduct " transform="translate(293.97 89.56)"  name="COX7A2" ><rect   width="90" height="25"/><text   transform="translate(45,12.5)"    >COX7A2</text></g><g id="afb11" class="GeneProduct " transform="translate(293.97 39.56)"  name="COX6A1" ><rect   width="90" height="25"/><text   transform="translate(45,12.5)"    >COX6A1</text></g><g id="bbd24" class="GeneProduct " transform="translate(293.97 14.56)"  name="MT-CO3" ><rect   width="90" height="25"/><text   transform="translate(45,12.5)"    >MT-CO3</text></g><g id="ae18e" class="GeneProduct " transform="translate(293.97 114.56)"  name="NDUFA4" ><rect   width="90" height="25"/><text   transform="translate(45,12.5)"    >NDUFA4</text></g></g></g></g></g></g></svg>