<?xml version="1.0" encoding="UTF-8"?>
<svg xmlns="http://www.w3.org/2000/svg" id="-svg" class="Diagram"  baseProfile="full" prefix="schema:http://schema.org/" preserveAspectRatio="xMidYMid"  version="1.1"><defs><g id="filter-defs"><filter id="doublefalse3filter" x="-50%" y="-50%" width="200%" height="200%"><feComposite in="SourceGraphic" in2="SourceGraphic" result="doubleDark"/><feMorphology in="doubleDark" operator="dilate" radius="0.17" result="in2Double"/><feMorphology in="SourceGraphic" operator="dilate" radius="3" result="inDouble"/><feComposite in="inDouble" in2="in2Double" operator="out" result="doubleResult"/></filter></g><g id="icon-defs"><symbol id="Octagon" class=" Icon Octagon" x="0" y="0" overflow="visible" preserveAspectRatio="none" viewBox="0 0 100 100"><desc>Octagon</desc><path d="m0 25 25-25h50l25 25v50l-25 25h-50l-25-25z" vector-effect="non-scaling-stroke"/></symbol></g><g id="marker-defs"><marker id="mea" markerHeight="12" markerWidth="12" orient="auto" preserveAspectRatio="none" refX="12" refY="6" viewBox="0 0 12 12"><g id="g-mea" transform=""><g transform="rotate(180 6 6)"><rect y="5.4" width="2" height="1.2" style="stroke:#fff"/><polygon points="12 11 0 6 12 1" stroke-width="0"/></g></g></marker><marker id="memconversion000" markerHeight="12" markerWidth="12" orient="auto" preserveAspectRatio="none" refX="12" refY="6" viewBox="0 0 12 12"><g id="g-memconversion000" transform=""><g transform="rotate(180 6 6)"><rect y="5.4" width="2" height="1.2" style="stroke:#fff"/><polygon points="12 11 0 6 12 1" stroke-width="0"/></g></g></marker></g></defs><g id="viewport-20220102144717036" class="svg-pan-zoom_viewport" transform="matrix(0.91 0 0 0.91 114.38 0)" style="transform:matrix(0.91, 0, 0, 0.91, 114.38, 0)"><style>svg.Diagram {font-family: 'Liberation Sans', Arial, sans-serif; }.Diagram path {fill: transparent;stroke: #000;marker-end: url(#mea);}.Diagram symbol path {fill: inherit;stroke: inherit;stroke-width: inherit;marker-end: inherit;}.Diagram rect {fill: #fff;stroke: #000;}.Diagram text {dominant-baseline: central;overflow: hidden;text-anchor: middle;fill: #000;font-size: 12px;}</style><style type="text/css">.Viewport .textContent {
  pointer-events: none;
  stroke-width: 0px;
}

					.Viewport.Icon {
  fill: white;
}

/* Hide the InfoBox */
.Viewport.textContent {
  font-size: 0;
}

.textContent {
  stroke: none;
}

.DataNode {
  stroke-miterlimit: 1;
  pointer-events: auto;
}

.DataNode:hover {
  cursor: pointer;
}

/* TODO should this apply to things other than DataNodes? */
.DataNode.textContent {
  pointer-events: none;
}

.DataNode.Highlighted {
  opacity: 0.6;
  stroke-width: 0px;
}

marker {
  /* this is what should work per the spec
  stroke-dasharray: none; */
  /* but I need to add this to make it work in Safari */
  stroke-dasharray: 9999999999999999999999999;
}

.Citation.Icon {
  fill: none;
  stroke-width: 0px;
}

.Citation.textContent {
  text-align: center;
  vertical-align: top;
  font-size: 7px;
  fill: #999;
  fill-opacity: 1;
  stroke: none;
}</style><g id="WP4963" class="Pathway http___identifiers_org_pw_PW_0000718 Viewport"  name="Name: p53 transcriptional gene network Organism: Homo sapiens" ><g class="Pathway http___identifiers_org_pw_PW_0000718 Viewport"><rect   width="1062.8" height="781.33" style="stroke:none"/><g id="b2029" class="Edge"  ><path    d="m324 381-103-28"/></g><g id="bd1a7" class="Edge"  ><path    d="m332.12 427.4-95.28 50.82" style="marker-end:url(#memconversion000)"/></g><g id="bef71" class="Edge"  ><path    d="m425.59 344.83-38.11-59.89" style="marker-end:url(#memconversion000)"/></g><g id="c49fb" class="Edge"  ><path    d="m567.15 461.89 48.09 64.43" style="marker-end:url(#memconversion000)"/></g><g id="cc914" class="Edge"  ><path    d="m647.01 366.61 93.47-35.39"/></g><g id="d3f07" class="Edge"  ><path    d="m649.73 442.83 91.65 51.72"/></g><g id="eabfe" class="Edge"  ><path    d="m655.17 404.72 123.41 5.44"/></g><g id="f8674" class="Edge"  ><path    d="m591.65 347.55 50.82-65.34" style="marker-end:url(#memconversion000)"/></g><g id="fddb6" class="Edge"  ><path    d="m422.87 469.15-44.47 71.69" style="marker-end:url(#memconversion000)"/></g><g id="c8004" class=" PhysicalEntity CellularComponent Organelle" transform="translate(357,366)"  ><g class=" PhysicalEntity CellularComponent Organelle" filter="url(#doublefalse3filter)"><g class=" PhysicalEntity CellularComponent Organelle"><rect   transform="matrix(0.96 0 0 0.86 5.75 5.16)" width="273.5" height="73.5" rx="15" ry="15" stroke-width="3" style="fill:transparent;stroke:#c0c0c0"/></g></g></g><g id="a497c" class="Pathway" transform="translate(396,384.5)"  name="p53 transcriptional regulation" ><g class="Pathway"/><g ><defs><clipPath ><rect x="-97.5" y="-14.75" width="195" height="29.5" style="stroke:none"/></clipPath></defs><text   transform="translate(97.5,14.75)"    font-weight="bold"  style="fill:#14961e">p53 transcriptional regulation</text></g></g><g id="b1519" class="GeneProduct " transform="translate(23,185.5)"  name="APAF1" ><rect   width="65" height="25.5"/><text   transform="translate(32.5,12.75)"    >APAF1</text></g><g id="d0595" class="Pathway" transform="translate(93,310.5)"  name="Apoptosis" ><g class="Pathway"><rect   width="79" height="28.5" style="stroke:#14961e"/></g><g ><defs><clipPath ><rect x="-39.5" y="-14.25" width="79" height="28.5" style="stroke:none"/></clipPath></defs><text   transform="translate(39.5,14.25)"     style="fill:#14961e">Apoptosis</text></g></g><g id="e4db1" class="Pathway" transform="translate(308.77 242.38)"  name="Cell Cycle Arrest" ><g class="Pathway"><rect   width="113" height="31.5" style="stroke:#14961e"/></g><g ><defs><clipPath ><rect x="-56.5" y="-15.75" width="113" height="31.5" style="stroke:none"/></clipPath></defs><text   transform="translate(56.5,15.75)"     style="fill:#14961e">Cell Cycle Arrest</text></g></g><g id="baf5d" class="Pathway" transform="translate(758.41 312.96)"  name="Senescence" ><g class="Pathway"><rect   width="97" height="29.5" style="stroke:#14961e"/></g><g ><defs><clipPath ><rect x="-48.5" y="-14.75" width="97" height="29.5" style="stroke:none"/></clipPath></defs><text   transform="translate(48.5,14.75)"     style="fill:#14961e">Senescence</text></g></g><g id="f88c8" class="Pathway" transform="translate(325.84 562.01)"  name="DNA Repair" ><g class="Pathway"><rect   width="97.56" height="29.5" style="stroke:#14961e"/></g><g ><defs><clipPath ><rect x="-48.78" y="-14.75" width="97.56" height="29.5" style="stroke:none"/></clipPath></defs><text   transform="translate(48.78 14.75)"     style="fill:#14961e">DNA Repair</text></g></g><g id="b53dd" class="Pathway" transform="translate(813.88 393.62)"  name="Ferroptosis" ><g class="Pathway"><rect   width="91.11" height="29.5" style="stroke:#14961e"/></g><g ><defs><clipPath ><rect x="-45.55" y="-14.75" width="91.11" height="29.5" style="stroke:none"/></clipPath></defs><text   transform="translate(45.55 14.75)"     style="fill:#14961e">Ferroptosis</text></g></g><g id="c5a08" class="Pathway" transform="translate(605.93 230.66)"  name="Metabolism/Autophagy" ><g class="Pathway"><rect   width="176.61" height="31.46" style="stroke:#14961e"/></g><g ><defs><clipPath ><rect x="-88.31" y="-15.73" width="176.61" height="31.46" style="stroke:none"/></clipPath></defs><text   transform="translate(88.31 15.73)"     style="fill:#14961e">Metabolism/Autophagy</text></g></g><g id="bc303" class="Pathway" transform="translate(95.50 471.12)"  name="Stem Cell Function" ><g class="Pathway"><rect   width="127.02" height="29" style="stroke:#14961e"/></g><g ><defs><clipPath ><rect x="-63.51" y="-14.5" width="127.02" height="29" style="stroke:none"/></clipPath></defs><text   transform="translate(63.51 14.5)"     style="fill:#14961e">Stem Cell Function</text></g></g><g id="d0310" class="Pathway" transform="translate(591.51 541.93)"  name="TME" ><g class="Pathway"><rect   width="71" height="28.5" style="stroke:#14961e"/></g><g ><defs><clipPath ><rect x="-35.5" y="-14.25" width="71" height="28.5" style="stroke:none"/></clipPath></defs><text   transform="translate(35.5,14.25)"     style="fill:#14961e">TME</text></g></g><g id="e581f" class="Pathway" transform="translate(766.94 496.85)"  name="Invasion/Metastasis" ><g class="Pathway"><rect   width="137.37" height="30.38" style="stroke:#14961e"/></g><g ><defs><clipPath ><rect x="-68.69" y="-15.19" width="137.37" height="30.38" style="stroke:none"/></clipPath></defs><text   transform="translate(68.69 15.19)"     style="fill:#14961e">Invasion/Metastasis</text></g></g><g id="ff7fb" class="GeneProduct " transform="translate(23,215)"  name="BAX" ><rect   width="65" height="25.5"/><text   transform="translate(32.5,12.75)"    >BAX</text></g><g id="d98fd" class="GeneProduct " transform="translate(23,244.5)"  name="FAS" ><rect   width="65" height="25.5"/><text   transform="translate(32.5,12.75)"    >FAS</text></g><g id="a7c2b" class="GeneProduct " transform="translate(23,155.5)"  name="MIR34A" ><rect   width="65" height="25.5"/><text   transform="translate(32.5,12.75)"    >MIR34A</text></g><g id="a78f5" class="GeneProduct " transform="translate(100,244)"  name="PMAIP1" ><rect   width="65" height="25.5"/><text   transform="translate(32.5,12.75)"    >PMAIP1</text></g><g id="a5098" class="GeneProduct " transform="translate(95,184)"  name="TP53AIP1" ><rect   width="77" height="25.5"/><text   transform="translate(38.5,12.75)"    >TP53AIP1</text></g><g id="d9ac1" class="GeneProduct " transform="translate(100,214.5)"  name="TRAF4" ><rect   width="65" height="25.5"/><text   transform="translate(32.5,12.75)"    >TRAF4</text></g><g id="bbff7" class="GeneProduct " transform="translate(171,213.5)"  name="PERP" ><rect   width="65" height="25.5"/><text   transform="translate(32.5,12.75)"    >PERP</text></g><g id="b71c7" class="GeneProduct " transform="translate(171,245)"  name="PIDD1" ><rect   width="65" height="25.5"/><text   transform="translate(32.5,12.75)"    >PIDD1</text></g><g id="c72bf" class="GeneProduct " transform="translate(23,274)"  name="TP53I3" ><rect   width="65" height="25.5"/><text   transform="translate(32.5,12.75)"    >TP53I3</text></g><g id="cf989" class="GeneProduct " transform="translate(100,273.5)"  name="BBC3" ><rect   width="65" height="25.5"/><text   transform="translate(32.5,12.75)"    >BBC3</text></g><g id="af0c8" class="GeneProduct " transform="translate(171,272.5)"  name="SIVA1" ><rect   width="65" height="25.5"/><text   transform="translate(32.5,12.75)"    >SIVA1</text></g><g id="d2955" class="GeneProduct " transform="translate(95,154.5)"  name="TNFRSF10D" ><rect   width="77" height="25.5"/><text   transform="translate(38.5,12.75)"    >TNFRSF10D</text></g><g id="c20c8" class="GeneProduct " transform="translate(281.86 107.62)"  name="YWHAB-208" ><rect   width="88" height="25.5"/><text   transform="translate(44,12.75)"    >YWHAB-208</text></g><g id="a946d" class="GeneProduct " transform="translate(281.12 139.62)"  name="BTG2" ><rect   width="65" height="25.5"/><text   transform="translate(32.5,12.75)"    >BTG2</text></g><g id="d2130" class="GeneProduct " transform="translate(281.12 171.12)"  name="CCNG1" ><rect   width="65" height="25.5"/><text   transform="translate(32.5,12.75)"    >CCNG1</text></g><g id="fd656" class="GeneProduct " transform="translate(281.12 202.62)"  name="CDKN1A" ><rect   width="65" height="25.5"/><text   transform="translate(32.5,12.75)"    >CDKN1A</text></g><g id="db00e" class="GeneProduct " transform="translate(375.86 107.62)"  name="GADD45A" ><rect   width="80" height="25.5"/><text   transform="translate(40,12.75)"    >GADD45A</text></g><g id="pvjsgeneratedidff803" class="GroupComplex" transform="translate(423.61 170.15)"  ><g class="GroupComplex"><use class="Icon" width="89.00" height="100.5" fill="#b4b464" fill-opacity=".1" stroke="grey" href="#Octagon"/><g id="e95e6" class="GeneProduct " transform="translate(12,12)"  name="MIR34A" ><rect   width="65" height="25.5"/><text   transform="translate(32.5,12.75)"    >MIR34A</text></g><g id="bde7b" class="GeneProduct " transform="translate(12,37.5)"  name="MIR34B" ><rect   width="65" height="25.5"/><text   transform="translate(32.5,12.75)"    >MIR34B</text></g><g id="c2546" class="GeneProduct " transform="translate(12 63)"  name="MIR34C" ><rect   width="65" height="25.5"/><text   transform="translate(32.5,12.75)"    >MIR34C</text></g></g></g><g id="f0142" class="GeneProduct " transform="translate(352.85 202.62)"  name="SMR3B" ><rect   width="65" height="25.5"/><text   transform="translate(32.5,12.75)"    >SMR3B</text></g><g id="f45a1" class="GeneProduct " transform="translate(352.68 171.12)"  name="RPRM" ><rect   width="65" height="25.5"/><text   transform="translate(32.5,12.75)"    >RPRM</text></g><g id="e1358" class="GeneProduct " transform="translate(353.28 139.62)"  name="ZMAT3" ><rect   width="65" height="25.5"/><text   transform="translate(32.5,12.75)"    >ZMAT3</text></g><g id="eadf2" class="GeneProduct " transform="translate(926.39 290.01)"  name="CDKN1A" ><rect   width="65" height="25.5"/><text   transform="translate(32.5,12.75)"    >CDKN1A</text></g><g id="ed442" class="GeneProduct " transform="translate(883.97 321.01)"  name="SERPINE1" ><rect   width="73.97" height="25.5"/><text   transform="translate(36.99 12.75)"    >SERPINE1</text></g><g id="d2629" class="GeneProduct " transform="translate(868.4 290.01)"  name="PML" ><rect   width="52.98" height="25.5"/><text   transform="translate(26.49 12.75)"    >PML</text></g><g id="afc55" class="GeneProduct " transform="translate(272.43 606.64)"  name="DDB2" ><rect   width="65" height="25.5"/><text   transform="translate(32.5,12.75)"    >DDB2</text></g><g id="e6efb" class="GeneProduct " transform="translate(272.43 636.14)"  name="ERCC5" ><rect   width="65" height="25.5"/><text   transform="translate(32.5,12.75)"    >ERCC5</text></g><g id="d1407" class="GeneProduct " transform="translate(272.43 664.31)"  name="FANCC" ><rect   width="65" height="25.5"/><text   transform="translate(32.5,12.75)"    >FANCC</text></g><g id="abaa7" class="GeneProduct " transform="translate(343.76 606.64)"  name="GADD45A" ><rect   width="65" height="25.5"/><text   transform="translate(32.5,12.75)"    >GADD45A</text></g><g id="a04e6" class="GeneProduct " transform="translate(343.76 636.14)"  name="XRCC5" ><rect   width="65" height="25.5"/><text   transform="translate(32.5,12.75)"    >XRCC5</text></g><g id="f523a" class="GeneProduct " transform="translate(343.76 664.31)"  name="MGMT" ><rect   width="65" height="25.5"/><text   transform="translate(32.5,12.75)"    >MGMT</text></g><g id="ee1e7" class="GeneProduct " transform="translate(343.76 692.47)"  name="MLH1" ><rect   width="65" height="25.5"/><text   transform="translate(32.5,12.75)"    >MLH1</text></g><g id="fbe16" class="GeneProduct " transform="translate(413.09 606.64)"  name="MSH2" ><rect   width="65" height="25.5"/><text   transform="translate(32.5,12.75)"    >MSH2</text></g><g id="c0620" class="GeneProduct " transform="translate(413.09 636.14)"  name="POLH" ><rect   width="65" height="25.5"/><text   transform="translate(32.5,12.75)"    >POLH</text></g><g id="af1ab" class="GeneProduct " transform="translate(413.09 664.31)"  name="POLK" ><rect   width="65" height="25.5"/><text   transform="translate(32.5,12.75)"    >POLK</text></g><g id="a8b43" class="GeneProduct " transform="translate(413.09 692.47)"  name="RRM2B" ><rect   width="65" height="25.5"/><text   transform="translate(32.5,12.75)"    >RRM2B</text></g><g id="e779d" class="GeneProduct " transform="translate(272.43 692.47)"  name="XPC" ><rect   width="65" height="25.5"/><text   transform="translate(32.5,12.75)"    >XPC</text></g><g id="f5ecc" class="GeneProduct " transform="translate(979.85 381.35)"  name="SAT1" ><rect   width="52.98" height="25.5"/><text   transform="translate(26.49 12.75)"    >SAT1</text></g><g id="e3953" class="GeneProduct " transform="translate(936.07 411.41)"  name="SLC7A11" ><rect   width="73.97" height="25.5"/><text   transform="translate(36.99 12.75)"    >SLC7A11</text></g><g id="d03a3" class="GeneProduct " transform="translate(921.44 381.35)"  name="GLS2" ><rect   width="52.98" height="25.5"/><text   transform="translate(26.49 12.75)"    >GLS2</text></g><g id="abd34" class="GeneProduct " transform="translate(786.07 550.09)"  name="CDKN1A" ><rect   width="73.97" height="25.5"/><text   transform="translate(36.99 12.75)"    >CDKN1A</text></g><g id="pvjsgeneratedidff800" class="GroupComplex" transform="translate(873.43 537.43)"  ><g class="GroupComplex"><use class="Icon" width="87.82" height="75" fill="#b4b464" fill-opacity=".1" stroke="grey" href="#Octagon"/><g id="be17d" class="GeneProduct " transform="translate(12,12)"  name="MIR34A" ><rect   width="63.82" height="25.5"/><text   transform="translate(31.91 12.75)"    >MIR34A</text></g><g id="b370c" class="GeneProduct " transform="translate(12 37.5)"  name="MIR200C" ><rect   width="63.82" height="25.5"/><text   transform="translate(31.91 12.75)"    >MIR200C</text></g></g></g><g id="d2dca" class="GeneProduct " transform="translate(786.07 579.17)"  name="SERPINB5" ><rect   width="73.97" height="25.5"/><text   transform="translate(36.99 12.75)"    >SERPINB5</text></g><g id="b44cd" class="GeneProduct " transform="translate(67.94 512.92)"  name="CDKN1A" ><rect   width="65" height="25.5"/><text   transform="translate(32.5 12.75)"    >CDKN1A</text></g><g id="cf73c" class="GeneProduct " transform="translate(138.29 512.92)"  name="LIF" ><rect   width="65" height="25.5"/><text   transform="translate(32.5 12.75)"    >LIF</text></g><g id="pvjsgeneratedidff7ff" class="GroupComplex" transform="translate(139.02 544.64)"  ><g class="GroupComplex"><use class="Icon" width="89" height="75.00" fill="#b4b464" fill-opacity=".1" stroke="grey" href="#Octagon"/><g id="c1334" class="GeneProduct " transform="translate(12,12)"  name="MIR34A" ><rect   width="65" height="25.5"/><text   transform="translate(32.5 12.75)"    >MIR34A</text></g><g id="b7b1f" class="GeneProduct " transform="translate(12 37.5)"  name="MIR34B/C" ><rect   width="65" height="25.5"/><text   transform="translate(32.5 12.75)"    >MIR34B/C</text></g></g></g><g id="cd83b" class="GeneProduct " transform="translate(67.54 602.99)"  name="MIR145" ><rect   width="65" height="25.5"/><text   transform="translate(32.5,12.75)"    >MIR145</text></g><g id="a9150" class="GeneProduct " transform="translate(67.50 542.85)"  name="NANOG" ><rect   width="65" height="25.5"/><text   transform="translate(32.5 12.75)"    >NANOG</text></g><g id="c3ad0" class="GeneProduct " transform="translate(66.58 572.82)"  name="NOTCH1" ><rect   width="65" height="25.5"/><text   transform="translate(32.5 12.75)"    >NOTCH1</text></g><g id="d2e32" class="GeneProduct " transform="translate(576.79 158.2)"  name="ACAD11" ><rect   width="65" height="25.5"/><text   transform="translate(32.5 12.75)"    >ACAD11</text></g><g id="b9b82" class="GeneProduct " transform="translate(719.71 190.96)"  name="ADORA2B" ><rect   width="85.88" height="25.5"/><text   transform="translate(42.94 12.75)"    >ADORA2B</text></g><g id="a356d" class="GeneProduct " transform="translate(576.79 190.96)"  name="ALDH4A1" ><rect   width="65" height="25.5"/><text   transform="translate(32.5 12.75)"    >ALDH4A1</text></g><g id="bb106" class="GeneProduct " transform="translate(646.82 125.81)"  name="CPT1C" ><rect   width="65" height="25.5"/><text   transform="translate(32.5,12.75)"    >CPT1C</text></g><g id="eb1e9" class="GeneProduct " transform="translate(646.82 191.33)"  name="DRAM1" ><rect   width="65" height="25.5"/><text   transform="translate(32.5 12.75)"    >DRAM1</text></g><g id="de737" class="GeneProduct " transform="translate(646.82 92.64)"  name="FUCA1" ><rect   width="65" height="25.5"/><text   transform="translate(32.5,12.75)"    >FUCA1</text></g><g id="ab5dc" class="GeneProduct " transform="translate(576.79 92.73)"  name="GLS2" ><rect   width="65" height="25.5"/><text   transform="translate(32.5 12.75)"    >GLS2</text></g><g id="f8931" class="GeneProduct " transform="translate(576.79 62.88)"  name="SLC2A1" ><rect   width="65" height="25.5"/><text   transform="translate(32.5 12.75)"    >SLC2A1</text></g><g id="e7fcc" class="GeneProduct " transform="translate(646.82 62.97)"  name="GPX1" ><rect   width="65" height="25.5"/><text   transform="translate(32.5 12.75)"    >GPX1</text></g><g id="pvjsgeneratedidff7fe" class="GroupComplex" transform="translate(724.1 37.31)"  ><g class="GroupComplex"><use class="Icon" width="89" height="69.25" fill="#b4b464" fill-opacity=".1" stroke="grey" href="#Octagon"/><g id="e9e2d" class="GeneProduct " transform="translate(12,12)"  name="PRKAB1" ><rect   width="65" height="22.62"/><text   transform="translate(32.5 11.31)"    >PRKAB1</text></g><g id="a8500" class="GeneProduct " transform="translate(12 34.62)"  name="PRKAB2" ><rect   width="65" height="22.62"/><text   transform="translate(32.5 11.31)"    >PRKAB2</text></g></g></g><g id="ee177" class="GeneProduct " transform="translate(646.82 158.57)"  name="PTEN" ><rect   width="65" height="25.5"/><text   transform="translate(32.5 12.75)"    >PTEN</text></g><g id="pvjsgeneratedidff7fd" class="GroupComplex" transform="translate(722.71 112.85)"  ><g class="GroupComplex"><use class="Icon" width="89" height="69.25" fill="#b4b464" fill-opacity=".1" stroke="grey" href="#Octagon"/><g id="a6f9b" class="GeneProduct " transform="translate(12,12)"  name="SESN1" ><rect   width="65" height="22.62"/><text   transform="translate(32.5 11.31)"    >SESN1</text></g><g id="e6bd9" class="GeneProduct " transform="translate(12 34.62)"  name="SESN2" ><rect   width="65" height="22.62"/><text   transform="translate(32.5 11.31)"    >SESN2</text></g></g></g><g id="f01fd" class="GeneProduct " transform="translate(576.79 125.44)"  name="TIGAR" ><rect   width="65" height="25.5"/><text   transform="translate(32.5 12.75)"    >TIGAR</text></g><g id="fefea" class="GeneProduct " transform="translate(812.28 191.96)"  name="TP53INP1" ><rect   width="84.88" height="25.5"/><text   transform="translate(42.44 12.75)"    >TP53INP1</text></g><g id="pvjsgeneratedidff7fc" class="GroupComplex" transform="translate(816.22 111.36)"  ><g class="GroupComplex"><use class="Icon" width="77.81" height="75.00" fill="#b4b464" fill-opacity=".1" stroke="grey" href="#Octagon"/><g id="b1459" class="GeneProduct " transform="translate(12,12)"  name="ULK1" ><rect   width="53.81" height="25.5"/><text   transform="translate(26.91 12.75)"    >ULK1</text></g><g id="aac25" class="GeneProduct " transform="translate(12 37.5)"  name="ULK2" ><rect   width="53.81" height="25.5"/><text   transform="translate(26.91 12.75)"    >ULK2</text></g></g></g><g id="e3489" class="GeneProduct " transform="translate(539.73 666.23)"  name="ADGRB1" ><rect   width="65" height="25.5"/><text   transform="translate(32.5,12.75)"    >ADGRB1</text></g><g id="c7b79" class="GeneProduct " transform="translate(539.73 695.36)"  name="CX3CL1" ><rect   width="65" height="25.5"/><text   transform="translate(32.5 12.75)"    >CX3CL1</text></g><g id="c94b9" class="GeneProduct " transform="translate(613.16 666.53)"  name="ICAM1" ><rect   width="65" height="25.5"/><text   transform="translate(32.5,12.75)"    >ICAM1</text></g><g id="pvjsgeneratedidff802" class="GroupComplex" transform="translate(638.22 582.64)"  ><g class="GroupComplex"><use class="Icon" width="89.00" height="75" fill="#b4b464" fill-opacity=".1" stroke="grey" href="#Octagon"/><g id="d8922" class="GeneProduct " transform="translate(12,12)"  name="IRF5" ><rect   width="65" height="25.5"/><text   transform="translate(32.5,12.75)"    >IRF5</text></g><g id="ebd89" class="GeneProduct " transform="translate(12 37.5)"  name="IRF9" ><rect   width="65" height="25.5"/><text   transform="translate(32.5,12.75)"    >IRF9</text></g></g></g><g id="cc583" class="GeneProduct " transform="translate(539.73 724.49)"  name="ISG15" ><rect   width="65" height="25.5"/><text   transform="translate(32.5 12.75)"    >ISG15</text></g><g id="f4ead" class="GeneProduct " transform="translate(686.28 725.83)"  name="SERPINB5" ><rect   width="72.31" height="25.5"/><text   transform="translate(36.15 12.75)"    >SERPINB5</text></g><g id="d5d1b" class="GeneProduct " transform="translate(689.94 667.57)"  name="CCL2" ><rect   width="65" height="25.5"/><text   transform="translate(32.5,12.75)"    >CCL2</text></g><g id="fce48" class="GeneProduct " transform="translate(613.16 724.79)"  name="NCF2" ><rect   width="65" height="25.5"/><text   transform="translate(32.5 12.75)"    >NCF2</text></g><g id="c92a3" class="GeneProduct " transform="translate(686.39 696.7)"  name="SERPINE1" ><rect   width="72.10" height="25.5"/><text   transform="translate(36.05 12.75)"    >SERPINE1</text></g><g id="b655d" class="GeneProduct " transform="translate(613.16 695.66)"  name="THBS1" ><rect   width="65" height="25.5"/><text   transform="translate(32.5 12.75)"    >THBS1</text></g><g id="pvjsgeneratedidff801" class="GroupComplex" transform="translate(543.05 581.4)"  ><g class="GroupComplex"><use class="Icon" width="89" height="75.00" fill="#b4b464" fill-opacity=".1" stroke="grey" href="#Octagon"/><g id="c3ff6" class="GeneProduct " transform="translate(12,12)"  name="ULBP1" ><rect   width="65" height="25.5"/><text   transform="translate(32.5,12.75)"    >ULBP1</text></g><g id="d73cc" class="GeneProduct " transform="translate(12 37.5)"  name="ULBP2" ><rect   width="65" height="25.5"/><text   transform="translate(32.5,12.75)"    >ULBP2</text></g></g></g></g></g></g></svg>