<?xml version="1.0" encoding="UTF-8"?>
<svg xmlns="http://www.w3.org/2000/svg" id="-svg" class="Diagram"  baseProfile="full" prefix="schema:http://schema.org/" preserveAspectRatio="xMidYMid"  version="1.1"><defs><g id="icon-defs"><symbol id="HexagonPathVisio" class=" Icon HexagonPathVisio" x="0" y="8" overflow="visible" preserveAspectRatio="none" viewBox="0 8 100 86"><desc>HexagonPathVisio</desc><g transform="scale(1 0.85)"><path d="m1.42 51.00 21.07-42.14h56.19l21.07 42.14-21.07 42.15h-56.19l-21.07-42.15z" stroke="currentColor" vector-effect="non-scaling-stroke"/></g></symbol><symbol id="Octagon" class=" Icon Octagon" x="0" y="0" overflow="visible" preserveAspectRatio="none" viewBox="0 0 100 100"><desc>Octagon</desc><path d="m0 25 25-25h50l25 25v50l-25 25h-50l-25-25z" vector-effect="non-scaling-stroke"/></symbol></g><g id="marker-defs"><marker id="memcatalysis000" markerHeight="12" markerWidth="12" orient="auto" preserveAspectRatio="none" refX="12" refY="6" viewBox="0 0 12 12"><g id="g-memcatalysis000" transform=""><g transform="rotate(180 6 6)"><circle cx="6" cy="6" r="5.3px" fill="#fff" stroke="#000"/></g></g></marker><marker id="mea" markerHeight="12" markerWidth="12" orient="auto" preserveAspectRatio="none" refX="12" refY="6" viewBox="0 0 12 12"><g id="g-mea" transform=""><g transform="rotate(180 6 6)"><rect y="5.4" width="2" height="1.2" style="stroke:#fff"/><polygon points="12 11 0 6 12 1" stroke-width="0"/></g></g></marker></g></defs><g id="viewport-20220102144756739" class="svg-pan-zoom_viewport" transform="matrix(0.50 0 0 0.50 125.08 0)" style="transform:matrix(0.50, 0, 0, 0.50, 125.08, 0)"><style>svg.Diagram {font-family: 'Liberation Sans', Arial, sans-serif; }.Diagram path {fill: transparent;stroke: #000;marker-end: url(#mea);}.Diagram symbol path {fill: inherit;stroke: inherit;stroke-width: inherit;marker-end: inherit;}.Diagram rect {fill: #fff;stroke: #000;}.Diagram text {dominant-baseline: central;overflow: hidden;text-anchor: middle;fill: #000;font-size: 10px;}</style><style type="text/css">.Viewport .textContent {
  pointer-events: none;
  stroke-width: 0px;
}

					.Viewport.Icon {
  fill: white;
}

/* Hide the InfoBox */
.Viewport.textContent {
  font-size: 0;
}

.textContent {
  stroke: none;
}

.DataNode {
  stroke-miterlimit: 1;
  pointer-events: auto;
}

.DataNode:hover {
  cursor: pointer;
}

/* TODO should this apply to things other than DataNodes? */
.DataNode.textContent {
  pointer-events: none;
}

.DataNode.Highlighted {
  opacity: 0.6;
  stroke-width: 0px;
}

marker {
  /* this is what should work per the spec
  stroke-dasharray: none; */
  /* but I need to add this to make it work in Safari */
  stroke-dasharray: 9999999999999999999999999;
}

.Citation.Icon {
  fill: none;
  stroke-width: 0px;
}

.Citation.textContent {
  text-align: center;
  vertical-align: top;
  font-size: 7px;
  fill: #999;
  fill-opacity: 1;
  stroke: none;
}</style><g id="WP4981" class="Pathway http___identifiers_org_pw_PW_0000052 http___identifiers_org_pw_PW_0000053 Viewport"  name="Name: Phenylalanine and tyrosine metabolism Organism: Homo sapiens" ><g class="Pathway http___identifiers_org_pw_PW_0000052 http___identifiers_org_pw_PW_0000053 Viewport"><rect   width="1905" height="1432" style="stroke:none"/><g id="b33b0" class="Reactome_R-HSA-893593"  ><path    d="m409 309v-68" style="marker-end:none"/><g id="c7fc8" class="AB" transform="translate(409,309)"  ><g class="AB"/></g><g id="b9a14" class="AB" transform="translate(409,241.68)"  ><g class="AB"/></g><g id="f04c1" class="AB" transform="translate(409,275)"  ><g class="AB"/></g></g><g id="ae30d" class="Reactome_R-HSA-893593"  ><path    d="m409 241v-40"/></g><g id="b4d13" class="Reactome_R-HSA-71146"  ><path    d="m369 557h-181" style="marker-end:none"/><g id="bf323" class="AB" transform="translate(369,557)"  ><g class="AB"/></g><g id="ba43d" class="AB" transform="translate(189.81,557)"  ><g class="AB"/></g><g id="cf2d1" class="AB" transform="translate(278.5,557)"  ><g class="AB"/></g></g><g id="b4edc" class="Reactome_R-HSA-2160492"  ><path    d="m132 78h141" style="marker-end:none"/><g id="fb6ce" class="AB" transform="translate(132,78)"  ><g class="AB"/></g><g id="ff798" class="AB" transform="translate(271.59,78)"  ><g class="AB"/></g><g id="dba6c" class="AB" transform="translate(202.5,78)"  ><g class="AB"/></g></g><g id="a624a" class="Reactome_R-HSA-2160492"  ><path    d="m115 58 17 20" style="marker-end:none"/></g><g id="b0780" class="Reactome_R-HSA-2160492"  ><path    d="m93 78h39" style="marker-end:none"/></g><g id="b80cb" class="Reactome_R-HSA-2160492"  ><path    d="m273 78 17-33"/></g><g id="b8d14" class="Reactome_R-HSA-71130"  ><path    d="m114 373h104" style="marker-end:none"/><g id="d95ed" class="AB" transform="translate(114,373)"  ><g class="AB"/></g><g id="ca702" class="AB" transform="translate(216.96,373)"  ><g class="AB"/></g><g id="e5b2f" class="AB" transform="translate(166,373)"  ><g class="AB"/></g></g><g id="a2d62" class="Reactome_R-HSA-71130"  ><path    d="m129 299 37 74" style="marker-end:url(#memcatalysis000)"/></g><g id="bbde4" class="Reactome_R-HSA-893593"  ><path    d="m389 318 20-9" style="marker-end:none"/></g><g id="bd2d6" class="Reactome_R-HSA-71146"  ><path    d="m188 557-34 24"/></g><g id="bec6b" class="Reactome_R-HSA-2160492"  ><path    d="m273 78 18 39"/></g><g id="c12da" class="Reactome_R-HSA-71130"  ><path    d="m79 331 35 42" style="marker-end:none"/></g><g id="c4f98" class="Reactome_R-HSA-71163"  ><path    d="m1001 500h104" style="marker-end:none"/><g id="af03c" class="AB" transform="translate(1001,500)"  ><g class="AB"/></g><g id="c67b7" class="AB" transform="translate(1104 500)"  ><g class="AB"/></g><g id="d9ef5" class="AB" transform="translate(1053,500)"  ><g class="AB"/></g></g><g id="bf060" class="Reactome_R-HSA-71163"  ><path    d="m1105 500 12-33"/></g><g id="c3f5d" class="Reactome_R-HSA-71163"  ><path    d="m1105 500 75 1"/></g><g id="c6ce3" class="Reactome_R-HSA-71146"  ><path    d="m281 494-37 63" style="marker-end:url(#memcatalysis000)"/></g><g id="c8cda" class="Reactome_R-HSA-2160492"  ><path    d="m167 31 30 47" style="marker-end:url(#memcatalysis000)"/></g><g id="cb577" class="Reactome_R-HSA-71163"  ><path    d="m982 479 19 21" style="marker-end:none"/></g><g id="cc818" class="Reactome_R-HSA-71155"  ><path    d="m751 516h68" style="marker-end:none"/><g id="d98fe" class="AB" transform="translate(751,516)"  ><g class="AB"/></g><g id="e02d5" class="AB" transform="translate(818.32,516)"  ><g class="AB"/></g><g id="e1be1" class="AB" transform="translate(785,516)"  ><g class="AB"/></g></g><g id="c0329" class="Reactome_R-HSA-71155"  ><path    d="m719 462 32 54" style="marker-end:none"/></g><g id="bcc14" class="Reactome_R-HSA-71155"  ><path    d="m819 516 77-16"/></g><g id="a2437" class="Reactome_R-HSA-71155"  ><path    d="m805 436-22 80" style="marker-end:url(#memcatalysis000)"/></g><g id="cdee5" class="Reactome_R-HSA-2160492"  ><path    d="m273 78h80"/></g><g id="cf763" class="Reactome_R-HSA-71130"  ><path    d="m218 373 10-35"/></g><g id="d04bd" class="Reactome_R-HSA-2160492"  ><path    d="m113 93 19-15" style="marker-end:none"/></g><g id="d36e4" class="Reactome_R-HSA-71173"  ><path    d="m1432 500h106" style="marker-end:none"/><g id="e68ce" class="AB" transform="translate(1432,500)"  ><g class="AB"/></g><g id="a3a9a" class="AB" transform="translate(1536.9 500)"  ><g class="AB"/></g><g id="df928" class="AB" transform="translate(1485,500)"  ><g class="AB"/></g></g><g id="aa17b" class="Reactome_R-HSA-71173"  ><path    d="m1429 500h3" style="marker-end:none"/></g><g id="d5fb2" class="Reactome_R-HSA-71118"  ><path    d="m409 396v97" style="marker-end:none"/><g id="a2c49" class="AB" transform="translate(409,396)"  ><g class="AB"/></g><g id="d2713" class="AB" transform="translate(409 492.03)"  ><g class="AB"/></g><g id="af910" class="AB" transform="translate(409,444.5)"  ><g class="AB"/></g></g><g id="af610" class="Reactome_R-HSA-71118"  ><path    d="m345 374 64 22" style="marker-end:none"/></g><g id="bd631" class="Reactome_R-HSA-71118"  ><path    d="m369 403 40-7" style="marker-end:none"/></g><g id="c1ee8" class="Reactome_R-HSA-71118"  ><path    d="m409 374v22" style="marker-end:none"/></g><g id="db432" class="Reactome_R-HSA-71146"  ><path    d="m188 557-82-99"/></g><g id="dda65" class="Reactome_R-HSA-5696365"  ><path    d="m608 358h-76" style="marker-end:none"/><g id="c69a5" class="AB" transform="translate(608,358)"  ><g class="AB"/></g><g id="e7538" class="AB" transform="translate(532.76,358)"  ><g class="AB"/></g><g id="c3ed0" class="AB" transform="translate(570,358)"  ><g class="AB"/></g></g><g id="c183e" class="Reactome_R-HSA-5696365"  ><path    d="m647 358h-39" style="marker-end:none"/></g><g id="cc592" class="Reactome_R-HSA-5696365"  ><path    d="m619 327-11 31" style="marker-end:none"/></g><g id="ca82c" class="Reactome_R-HSA-5696365"  ><path    d="m532 358-18 34"/></g><g id="cb7fe" class="Reactome_R-HSA-5696365"  ><path    d="m532 358-17-41"/></g><g id="af734" class="Reactome_R-HSA-5696365"  ><path    d="m571 299 1 59" style="marker-end:url(#memcatalysis000)"/></g><g id="def9a" class="Reactome_R-HSA-71130"  ><path    d="m218 373 89 1"/></g><g id="e2a02" class="Reactome_R-HSA-71118"  ><path    d="m474 443h-65" style="marker-end:url(#memcatalysis000)"/></g><g id="e334b" class="Reactome_R-HSA-71181"  ><path    d="m1633 500h102" style="marker-end:none"/><g id="a467e" class="AB" transform="translate(1633,500)"  ><g class="AB"/></g><g id="da346" class="AB" transform="translate(1734 500)"  ><g class="AB"/></g><g id="faf7e" class="AB" transform="translate(1684,500)"  ><g class="AB"/></g></g><g id="bedc1" class="Reactome_R-HSA-71181"  ><path    d="m1585 500h48" style="marker-end:none"/></g><g id="c542f" class="Reactome_R-HSA-71181"  ><path    d="m1735 500 27-36"/></g><g id="e1ab4" class="Reactome_R-HSA-71181"  ><path    d="m1684 449 1 51" style="marker-end:url(#memcatalysis000)"/></g><g id="e4ad2" class="Reactome_R-HSA-71173"  ><path    d="m1453 446 33 54" style="marker-end:url(#memcatalysis000)"/></g><g id="e5cad" class="Reactome_R-HSA-71164"  ><path    d="m1276 500h104" style="marker-end:none"/><g id="c1e73" class="AB" transform="translate(1276,500)"  ><g class="AB"/></g><g id="cc891" class="AB" transform="translate(1379 500)"  ><g class="AB"/></g><g id="e878a" class="AB" transform="translate(1328,500)"  ><g class="AB"/></g></g><g id="ab827" class="Reactome_R-HSA-71164"  ><path    d="m1228 501 48-1" style="marker-end:none"/></g><g id="e3e5d" class="Reactome_R-HSA-71164"  ><path    d="m1245 474 31 26" style="marker-end:none"/></g><g id="b9fc0" class="Reactome_R-HSA-71164"  ><path    d="m1380 500h3"/></g><g id="e353e" class="Reactome_R-HSA-71164"  ><path    d="m1277 454 45 46" style="marker-end:url(#memcatalysis000)"/></g><g id="e6e81" class="Reactome_R-HSA-71163"  ><path    d="m954 500h47" style="marker-end:none"/></g><g id="e84cf" class="Reactome_R-HSA-893593"  ><path    d="m409 241-24-20"/></g><g id="eadf0" class="Reactome_R-HSA-71146"  ><path    d="m372 557h-3" style="marker-end:none"/></g><g id="eb753" class="Reactome_R-HSA-893593"  ><path    d="m409 344v-35" style="marker-end:none"/></g><g id="ebda2" class="Reactome_R-HSA-71155"  ><path    d="m819 516 44 33"/></g><g id="ec1f1" class="Reactome_R-HSA-71155"  ><path    d="m717 494 34 22" style="marker-end:none"/></g><g id="efe1d" class="Reactome_R-HSA-71118"  ><path    d="m409 493 1 49"/></g><g id="f0295" class="Reactome_R-HSA-71118"  ><path    d="m409 493 260 1"/></g><g id="f4bec" class="Reactome_R-HSA-71130"  ><path    d="m86 393 28-20" style="marker-end:none"/></g><g id="f4dfc" class="Reactome_R-HSA-71181"  ><path    d="m1607 483 26 17" style="marker-end:none"/></g><g id="f6a29" class="Reactome_R-HSA-5696365"  ><path    d="m532 358-98 1"/></g><g id="f757b" class="Reactome_R-HSA-517444"  ><path    d="m806 499v-4" style="marker-end:none"/><g id="c54b9" class="AB" transform="translate(806,499)"  ><g class="AB"/></g><g id="a237f" class="AB" transform="translate(806,495.04)"  ><g class="AB"/></g><g id="a6267" class="AB" transform="translate(806,497)"  ><g class="AB"/></g></g><g id="abc03" class="Reactome_R-HSA-517444"  ><path    d="m863 549-57-50" style="marker-end:none"/></g><g id="cfa13" class="Reactome_R-HSA-517444"  ><path    d="m896 500-90-1" style="marker-end:none"/></g><g id="afb52" class="Reactome_R-HSA-517444"  ><path    d="m806 495-67-48"/></g><g id="eb886" class="Reactome_R-HSA-517444"  ><path    d="m806 495-89-1"/></g><g id="e997b" class="Reactome_R-HSA-517444"  ><path    d="m805 436 1 61" style="marker-end:url(#memcatalysis000)"/></g><g id="f9334" class="Reactome_R-HSA-71163"  ><path    d="m1002 445 56 55" style="marker-end:url(#memcatalysis000)"/></g><g id="fbedc" class="Reactome_R-HSA-71181"  ><path    d="m1735 500 69 1"/></g><g id="fd182" class="Reactome_R-HSA-71173"  ><path    d="m1538 500h3"/></g><g id="fdcfb" class="Reactome_R-HSA-893593"  ><path    d="m346 277 63 4" style="marker-end:url(#memcatalysis000)"/></g><g id="ff586" class="Reactome_R-HSA-71130"  ><path    d="m82 443 32-70" style="marker-end:none"/></g><g id="de37b" class="GroupGroup" transform="translate(3,142)"  ><g class="GroupGroup"><g id="a1e69" class="" transform="translate(8,8)"  ><g class=""><rect   transform="matrix(1.00 0 0 0.99 1.50 1.49)" width="1864" height="474" rx="15" ry="15" stroke-width="3" style="fill:transparent;stroke:#c0c0c0"/></g></g><g id="bd9df" class="Label" transform="translate(580,33)"  name="cytosol" ><g class="Label"/><text   transform="translate(32,16.5)"    >cytosol</text></g></g></g><g id="a0fcb" class="Metabolite " transform="translate(114,566)"  name="H2O" ><rect   width="41" height="30" style="stroke:#00f"/><text   transform="translate(20.5,15)"     style="fill:#00f">H2O</text></g><g id="a4f5e" class="Complex Reactome_R-HSA-71120" transform="translate(129,282)"  name="QDPR dimer" ><g class="Complex Reactome_R-HSA-71120"><use class="Complex Reactome_R-HSA-71120 Node Icon" width="76" height="34" fill="#fff" stroke="#a52a2a" href="#HexagonPathVisio"/></g><g ><defs><clipPath ><rect x="-38" y="-17" width="76" height="34" style="stroke:none"/></clipPath></defs><text   transform="translate(38,17)"     style="fill:#a52a2a">QDPR dimer</text></g></g><g id="a6123" class="Complex Reactome_R-HSA-71132" transform="translate(207,477)"  name="PCBD1 tetramer" ><g class="Complex Reactome_R-HSA-71132"><use class="Complex Reactome_R-HSA-71132 Node Icon" width="74" height="34" fill="#fff" stroke="#a52a2a" href="#HexagonPathVisio"/></g><g ><defs><clipPath ><rect x="-37" y="-17" width="74" height="34" style="stroke:none"/></clipPath></defs><text   transform="translate(37,17)"     style="fill:#a52a2a">PCBD1 tetramer</text></g></g><g id="ab65f" class="Metabolite " transform="translate(1762,449)"  name="ACA" ><rect   width="37" height="30" style="stroke:#00f"/><text   transform="translate(18.5,15)"     style="fill:#00f">ACA</text></g><g id="afb6e" class="Metabolite " transform="translate(1117,452)"  name="CO2" ><rect   width="39" height="30" style="stroke:#00f"/><text   transform="translate(19.5,15)"     style="fill:#00f">CO2</text></g><g id="b03bd" class="Metabolite " transform="translate(464,377)"  name="MeOH" ><rect   width="50" height="30" style="stroke:#00f"/><text   transform="translate(25,15)"     style="fill:#00f">MeOH</text></g><g id="b3813" class="Metabolite " transform="translate(307,359)"  name="BH4" ><rect   width="39" height="30" style="stroke:#00f"/><text   transform="translate(19.5,15)"     style="fill:#00f">BH4</text></g><g id="b578e" class="Complex Reactome_R-HSA-893603" transform="translate(252,261)"  name="PXLP-KYAT1 dimer" ><g class="Complex Reactome_R-HSA-893603"><use class="Complex Reactome_R-HSA-893603 Node Icon" width="95" height="33" fill="#fff" stroke="#a52a2a" href="#HexagonPathVisio"/></g><g ><defs><clipPath ><rect x="-47.5" y="-16.5" width="95" height="33" style="stroke:none"/></clipPath></defs><text   transform="translate(47.5,16.5)"     style="fill:#a52a2a">PXLP-KYAT1 dimer</text></g></g><g id="b5d36" class="Metabolite " transform="translate(1587,453)"  name="H2O" ><rect   width="41" height="30" style="stroke:#00f"/><text   transform="translate(20.5,15)"     style="fill:#00f">H2O</text></g><g id="ba24a" class="Metabolite " transform="translate(465,302)"  name="L-Asp" ><rect   width="50" height="30" style="stroke:#00f"/><text   transform="translate(25,15)"     style="fill:#00f">L-Asp</text></g><g id="c750b" class="Metabolite " transform="translate(647,343)"  name="aspartame" ><rect   width="77" height="30" style="stroke:#00f"/><text   transform="translate(38.5,15)"     style="fill:#00f">aspartame</text></g><g id="c777e" class="Metabolite " transform="translate(337,388)"  name="O2" ><rect   width="32" height="30" style="stroke:#00f"/><text   transform="translate(16,15)"     style="fill:#00f">O2</text></g><g id="c7a94" class="Complex Reactome_R-HSA-71161" transform="translate(1002,427)"  name="HPD:AscH-:Fe2+ dimer" ><g class="Complex Reactome_R-HSA-71161"><use class="Complex Reactome_R-HSA-71161 Node Icon" width="112" height="36" fill="#fff" stroke="#a52a2a" href="#HexagonPathVisio"/></g><g ><defs><clipPath ><rect x="-56" y="-18" width="112" height="36" style="stroke:none"/></clipPath></defs><text   transform="translate(56,18)"     style="fill:#a52a2a">HPD:AscH-:Fe2+ dimer</text></g></g><g id="c8a39" class="Metabolite " transform="translate(45,316)"  name="H+" ><rect   width="35" height="30" style="stroke:#00f"/><text   transform="translate(17.5,15)"     style="fill:#00f">H+</text></g><g id="ca706" class="Metabolite " transform="translate(291,102)"  name="NH3" ><rect   width="41" height="30" style="stroke:#00f"/><text   transform="translate(20.5,15)"     style="fill:#00f">NH3</text></g><g id="cbee2" class="Metabolite " transform="translate(966,449)"  name="O2" ><rect   width="32" height="30" style="stroke:#00f"/><text   transform="translate(16,15)"     style="fill:#00f">O2</text></g><g id="cc189" class="Complex Reactome_R-HSA-5696373" transform="translate(523,265)"  name="ASRGL1 heterodimer" ><g class="Complex Reactome_R-HSA-5696373"><use class="Complex Reactome_R-HSA-5696373 Node Icon" width="96" height="34" fill="#fff" stroke="#a52a2a" href="#HexagonPathVisio"/></g><g ><defs><clipPath ><rect x="-48" y="-17" width="96" height="34" style="stroke:none"/></clipPath></defs><text   transform="translate(48,17)"     style="fill:#a52a2a">ASRGL1 heterodimer</text></g></g><g id="cd772" class="Metabolite " transform="translate(1383,485)"  name="4MAA" ><rect   width="46" height="30" style="stroke:#00f"/><text   transform="translate(23,15)"     style="fill:#00f">4MAA</text></g><g id="cdc13" class="Metabolite " transform="translate(375,171)"  name="3IN-PYRA" ><rect   width="68" height="30" style="stroke:#00f"/><text   transform="translate(34,15)"     style="fill:#00f">3IN-PYRA</text></g><g id="cf592" class="Metabolite " transform="translate(619,312)"  name="H2O" ><rect   width="41" height="30" style="stroke:#00f"/><text   transform="translate(20.5,15)"     style="fill:#00f">H2O</text></g><g id="d063c" class="Metabolite " transform="translate(863,534)"  name="L-Glu" ><rect   width="48" height="30" style="stroke:#00f"/><text   transform="translate(24,15)"     style="fill:#00f">L-Glu</text></g><g id="d0684" class="Metabolite " transform="translate(58,443)"  name="qDHB" ><rect   width="48" height="30" style="stroke:#00f"/><text   transform="translate(24,15)"     style="fill:#00f">qDHB</text></g><g id="d0718" class="Metabolite " transform="translate(339,206)"  name="L-Ala" ><rect   width="46" height="30" style="stroke:#00f"/><text   transform="translate(23,15)"     style="fill:#00f">L-Ala</text></g><g id="d0d1e" class="Metabolite " transform="translate(353,303)"  name="PYR" ><rect   width="37" height="30" style="stroke:#00f"/><text   transform="translate(18.5,15)"     style="fill:#00f">PYR</text></g><g id="d1610" class="Complex Reactome_R-HSA-71166" transform="translate(1453,429)"  name="GSTZ1 dimer" ><g class="Complex Reactome_R-HSA-71166"><use class="Complex Reactome_R-HSA-71166 Node Icon" width="61" height="34" fill="#fff" stroke="#a52a2a" href="#HexagonPathVisio"/></g><g ><defs><clipPath ><rect x="-30.5" y="-17" width="61" height="34" style="stroke:none"/></clipPath></defs><text   transform="translate(30.5,17)"     style="fill:#a52a2a">GSTZ1 dimer</text></g></g><g id="d1d5b" class="Metabolite " transform="translate(228,323)"  name="NAD+" ><rect   width="50" height="30" style="stroke:#00f"/><text   transform="translate(25,15)"     style="fill:#00f">NAD+</text></g><g id="d4513" class="Metabolite " transform="translate(1804,486)"  name="FUMA" ><rect   width="46" height="30" style="stroke:#00f"/><text   transform="translate(23,15)"     style="fill:#00f">FUMA</text></g><g id="d49b5" class="Metabolite " transform="translate(43,63)"  name="L-Phe" ><rect   width="50" height="30" style="stroke:#00f"/><text   transform="translate(25,15)"     style="fill:#00f">L-Phe</text></g><g id="d946a" class="Metabolite " transform="translate(93,93)"  name="H2O" ><rect   width="41" height="30" style="stroke:#00f"/><text   transform="translate(20.5,15)"     style="fill:#00f">H2O</text></g><g id="d9ca0" class="Metabolite " transform="translate(384,344)"  name="L-Phe" ><rect   width="50" height="30" style="stroke:#00f"/><text   transform="translate(25,15)"     style="fill:#00f">L-Phe</text></g><g id="dd739" class="Metabolite " transform="translate(1229,444)"  name="O2" ><rect   width="32" height="30" style="stroke:#00f"/><text   transform="translate(16,15)"     style="fill:#00f">O2</text></g><g id="de062" class="Metabolite " transform="translate(1180,486)"  name="HGTA" ><rect   width="48" height="30" style="stroke:#00f"/><text   transform="translate(24,15)"     style="fill:#00f">HGTA</text></g><g id="e3d68" class="Metabolite " transform="translate(290,30)"  name="H2O2" ><rect   width="48" height="30" style="stroke:#00f"/><text   transform="translate(24,15)"     style="fill:#00f">H2O2</text></g><g id="e6bcb" class="Metabolite " transform="translate(36,378)"  name="NADH" ><rect   width="50" height="30" style="stroke:#00f"/><text   transform="translate(25,15)"     style="fill:#00f">NADH</text></g><g id="ecc08" class="Metabolite " transform="translate(1541,485)"  name="4FAA" ><rect   width="44" height="30" style="stroke:#00f"/><text   transform="translate(22,15)"     style="fill:#00f">4FAA</text></g><g id="ed6a8" class="Complex Reactome_R-HSA-71175" transform="translate(1659,413)"  name="FAH dimer" ><g class="Complex Reactome_R-HSA-71175"><use class="Complex Reactome_R-HSA-71175 Node Icon" width="50" height="37" fill="#fff" stroke="#a52a2a" href="#HexagonPathVisio"/></g><g ><defs><clipPath ><rect x="-25" y="-18.5" width="50" height="37" style="stroke:none"/></clipPath></defs><text   transform="translate(25,18.5)"     style="fill:#a52a2a">FAH dimer</text></g></g><g id="ee8b8" class="Metabolite " transform="translate(99,28)"  name="O2" ><rect   width="32" height="30" style="stroke:#00f"/><text   transform="translate(16,15)"     style="fill:#00f">O2</text></g><g id="ef1ac" class="Metabolite " transform="translate(896,485)"  name="HPPYRA" ><rect   width="59" height="30" style="stroke:#00f"/><text   transform="translate(29.5,15)"     style="fill:#00f">HPPYRA</text></g><g id="f15d6" class="Metabolite " transform="translate(669,479)"  name="L-Tyr" ><rect   width="48" height="30" style="stroke:#00f"/><text   transform="translate(24,15)"     style="fill:#00f">L-Tyr</text></g><g id="f1751" class="Metabolite " transform="translate(353,63)"  name="kPPV" ><rect   width="44" height="30" style="stroke:#00f"/><text   transform="translate(22,15)"     style="fill:#00f">kPPV</text></g><g id="f63f1" class="Metabolite " transform="translate(699,432)"  name="2OG" ><rect   width="41" height="30" style="stroke:#00f"/><text   transform="translate(20.5,15)"     style="fill:#00f">2OG</text></g><g id="f72f2" class="Complex Reactome_R-HSA-71076" transform="translate(1277,443)"  name="HGD hexamer" ><g class="Complex Reactome_R-HSA-71076"><use class="Complex Reactome_R-HSA-71076 Node Icon" width="90" height="22" fill="#fff" stroke="#a52a2a" href="#HexagonPathVisio"/></g><g ><defs><clipPath ><rect x="-45" y="-11" width="90" height="22" style="stroke:none"/></clipPath></defs><text   transform="translate(45,11)"     style="fill:#a52a2a">HGD hexamer</text></g></g><g id="f7943" class="Metabolite " transform="translate(372,542)"  name="4aOH-BH4" ><rect   width="77" height="30" style="stroke:#00f"/><text   transform="translate(38.5,15)"     style="fill:#00f">4aOH-BH4</text></g><g id="f93b4" class="Complex Reactome_R-HSA-71068" transform="translate(474,432)"  name="PAH:Fe2+ tetramer" ><g class="Complex Reactome_R-HSA-71068"><use class="Complex Reactome_R-HSA-71068 Node Icon" width="85" height="22" fill="#fff" stroke="#a52a2a" href="#HexagonPathVisio"/></g><g ><defs><clipPath ><rect x="-42.5" y="-11" width="85" height="22" style="stroke:none"/></clipPath></defs><text   transform="translate(42.5,11)"     style="fill:#a52a2a">PAH:Fe2+ tetramer</text></g></g><g id="fcd47" class="Complex Reactome_R-HSA-71153" transform="translate(773,402)"  name="TAT dimer" ><g class="Complex Reactome_R-HSA-71153"><use class="Complex Reactome_R-HSA-71153 Node Icon" width="64" height="34" fill="#fff" stroke="#a52a2a" href="#HexagonPathVisio"/></g><g ><defs><clipPath ><rect x="-32" y="-17" width="64" height="34" style="stroke:none"/></clipPath></defs><text   transform="translate(32,17)"     style="fill:#a52a2a">TAT dimer</text></g></g><g id="ff9b8" class="Complex Reactome_R-HSA-2160485" transform="translate(167,20)"  name="IL4I1:FAD" ><g class="Complex Reactome_R-HSA-2160485"><use class="Complex Reactome_R-HSA-2160485 Node Icon" width="60" height="22" fill="#fff" stroke="#a52a2a" href="#HexagonPathVisio"/></g><g ><defs><clipPath ><rect x="-30" y="-11" width="60" height="22" style="stroke:none"/></clipPath></defs><text   transform="translate(30,11)"     style="fill:#a52a2a">IL4I1:FAD</text></g></g><g id="a2c2f" class="GroupComplex" transform="translate(38,790)"  ><g class="GroupComplex"><use class="Icon" width="124" height="64" fill="#b4b464" fill-opacity=".1" stroke="grey" href="#Octagon"/><g id="d6bc2" class="Protein" transform="translate(12,12)"  name="HGD" ><rect   width="100" height="20"/><text   transform="translate(50,10)"    >HGD</text></g><g id="fd713" class="Metabolite " transform="translate(12,32)"  name="Fe2+" ><rect   width="100" height="20" style="stroke:#00f"/><text   transform="translate(50,10)"     style="fill:#00f">Fe2+</text></g></g></g><g id="a3bcd" class="GroupComplex" transform="translate(38,1010)"  ><g class="GroupComplex"><use class="Icon" width="124" height="64" fill="#b4b464" fill-opacity=".1" stroke="grey" href="#Octagon"/><g id="db7cb" class="Protein" transform="translate(12,32)"  name="ASRGL1(168-308)" ><rect   width="100" height="20"/><text   transform="translate(50,10)"    >ASRGL1(168-308)</text></g><g id="dee95" class="Protein" transform="translate(12,12)"  name="ASRGL1(1-167)" ><rect   width="100" height="20"/><text   transform="translate(50,10)"    >ASRGL1(1-167)</text></g></g></g><g id="a5db8" class="GroupComplex" transform="translate(38,870)"  ><g class="GroupComplex"><use class="Icon" width="124" height="64" fill="#b4b464" fill-opacity=".1" stroke="grey" href="#Octagon"/><g id="c9764" class="Protein" transform="translate(12,12)"  name="GSTZ1" ><rect   width="100" height="20"/><text   transform="translate(50,10)"    >GSTZ1</text></g><g id="f6013" class="Metabolite " transform="translate(12,32)"  name="GSH" ><rect   width="100" height="20" style="stroke:#00f"/><text   transform="translate(50,10)"     style="fill:#00f">GSH</text></g></g></g><g id="aaa66" class="GroupComplex" transform="translate(38,950)"  ><g class="GroupComplex"><use class="Icon" width="124" height="44" fill="#b4b464" fill-opacity=".1" stroke="grey" href="#Octagon"/><g id="b7623" class="Protein" transform="translate(12,12)"  name="FAH" ><rect   width="100" height="20"/><text   transform="translate(50,10)"    >FAH</text></g></g></g><g id="ad222" class="GroupComplex" transform="translate(38,1350)"  ><g class="GroupComplex"><use class="Icon" width="124" height="64" fill="#b4b464" fill-opacity=".1" stroke="grey" href="#Octagon"/><g id="d6724" class="Metabolite " transform="translate(12,32)"  name="FAD" ><rect   width="100" height="20" style="stroke:#00f"/><text   transform="translate(50,10)"     style="fill:#00f">FAD</text></g><g id="dfa75" class="Protein" transform="translate(12,12)"  name="IL4I1" ><rect   width="100" height="20"/><text   transform="translate(50,10)"    >IL4I1</text></g></g></g><g id="ae74e" class="GroupComplex" transform="translate(38,1290)"  ><g class="GroupComplex"><use class="Icon" width="124" height="44" fill="#b4b464" fill-opacity=".1" stroke="grey" href="#Octagon"/><g id="ed271" class="Protein" transform="translate(12,12)"  name="QDPR" ><rect   width="100" height="20"/><text   transform="translate(50,10)"    >QDPR</text></g></g></g><g id="b696e" class="GroupComplex" transform="translate(38,1090)"  ><g class="GroupComplex"><use class="Icon" width="124" height="44" fill="#b4b464" fill-opacity=".1" stroke="grey" href="#Octagon"/><g id="fe713" class="Protein" transform="translate(12,12)"  name="PXLP-K247-KYAT1" ><rect   width="100" height="20"/><text   transform="translate(50,10)"    >PXLP-K247-KYAT1</text></g></g></g><g id="bb87b" class="GroupComplex" transform="translate(38,630)"  ><g class="GroupComplex"><use class="Icon" width="124" height="44" fill="#b4b464" fill-opacity=".1" stroke="grey" href="#Octagon"/><g id="c2972" class="Protein" transform="translate(12,12)"  name="PXLP-K280-TAT" ><rect   width="100" height="20"/><text   transform="translate(50,10)"    >PXLP-K280-TAT</text></g></g></g><g id="bbc96" class="GroupComplex" transform="translate(38,1230)"  ><g class="GroupComplex"><use class="Icon" width="124" height="44" fill="#b4b464" fill-opacity=".1" stroke="grey" href="#Octagon"/><g id="d6261" class="Protein" transform="translate(12,12)"  name="PCBD1" ><rect   width="100" height="20"/><text   transform="translate(50,10)"    >PCBD1</text></g></g></g><g id="cd8ae" class="GroupComplex" transform="translate(38,1150)"  ><g class="GroupComplex"><use class="Icon" width="124" height="64" fill="#b4b464" fill-opacity=".1" stroke="grey" href="#Octagon"/><g id="fc8ce" class="Protein" transform="translate(12,12)"  name="PAH" ><rect   width="100" height="20"/><text   transform="translate(50,10)"    >PAH</text></g><g id="fd14d" class="Metabolite " transform="translate(12,32)"  name="Fe2+" ><rect   width="100" height="20" style="stroke:#00f"/><text   transform="translate(50,10)"     style="fill:#00f">Fe2+</text></g></g></g><g id="dc467" class="GroupComplex" transform="translate(38,690)"  ><g class="GroupComplex"><use class="Icon" width="124" height="84" fill="#b4b464" fill-opacity=".1" stroke="grey" href="#Octagon"/><g id="a8588" class="Metabolite " transform="translate(12,52)"  name="AscH-" ><rect   width="100" height="20" style="stroke:#00f"/><text   transform="translate(50,10)"     style="fill:#00f">AscH-</text></g><g id="b7903" class="Metabolite " transform="translate(12,32)"  name="Fe2+" ><rect   width="100" height="20" style="stroke:#00f"/><text   transform="translate(50,10)"     style="fill:#00f">Fe2+</text></g><g id="fc9da" class="Protein" transform="translate(12,12)"  name="HPD" ><rect   width="100" height="20"/><text   transform="translate(50,10)"    >HPD</text></g></g></g></g></g></g></svg>