<?xml version="1.0" encoding="UTF-8"?>
<svg xmlns="http://www.w3.org/2000/svg" id="-svg" class="Diagram"  baseProfile="full" prefix="schema:http://schema.org/" preserveAspectRatio="xMidYMid"  version="1.1"><defs><g id="icon-defs"><symbol id="HexagonPathVisio" class=" Icon HexagonPathVisio" x="0" y="8" overflow="visible" preserveAspectRatio="none" viewBox="0 8 100 86"><desc>HexagonPathVisio</desc><g transform="scale(1 0.85)"><path d="m1.42 51.00 21.07-42.14h56.19l21.07 42.14-21.07 42.15h-56.19l-21.07-42.15z" stroke="currentColor" vector-effect="non-scaling-stroke"/></g></symbol><symbol id="Octagon" class=" Icon Octagon" x="0" y="0" overflow="visible" preserveAspectRatio="none" viewBox="0 0 100 100"><desc>Octagon</desc><path d="m0 25 25-25h50l25 25v50l-25 25h-50l-25-25z" vector-effect="non-scaling-stroke"/></symbol></g><g id="marker-defs"><marker id="memcatalysis000" markerHeight="12" markerWidth="12" orient="auto" preserveAspectRatio="none" refX="12" refY="6" viewBox="0 0 12 12"><g id="g-memcatalysis000" transform=""><g transform="rotate(180 6 6)"><circle cx="6" cy="6" r="5.3px" fill="#fff" stroke="#000"/></g></g></marker><marker id="mea" markerHeight="12" markerWidth="12" orient="auto" preserveAspectRatio="none" refX="12" refY="6" viewBox="0 0 12 12"><g id="g-mea" transform=""><g transform="rotate(180 6 6)"><rect y="5.4" width="2" height="1.2" style="stroke:#fff"/><polygon points="12 11 0 6 12 1" stroke-width="0"/></g></g></marker></g></defs><g id="viewport-20220102144845162" class="svg-pan-zoom_viewport" transform="matrix(0.40 0 0 0.40 201 0)" style="transform:matrix(0.40, 0, 0, 0.40, 201, 0)"><style>svg.Diagram {font-family: 'Liberation Sans', Arial, sans-serif; }.Diagram path {fill: transparent;stroke: #000;marker-end: url(#mea);}.Diagram symbol path {fill: inherit;stroke: inherit;stroke-width: inherit;marker-end: inherit;}.Diagram rect {fill: #fff;stroke: #000;}.Diagram text {dominant-baseline: central;overflow: hidden;text-anchor: middle;fill: #000;font-size: 10px;}</style><style type="text/css">.Viewport .textContent {
  pointer-events: none;
  stroke-width: 0px;
}

					.Viewport.Icon {
  fill: white;
}

/* Hide the InfoBox */
.Viewport.textContent {
  font-size: 0;
}

.textContent {
  stroke: none;
}

.DataNode {
  stroke-miterlimit: 1;
  pointer-events: auto;
}

.DataNode:hover {
  cursor: pointer;
}

/* TODO should this apply to things other than DataNodes? */
.DataNode.textContent {
  pointer-events: none;
}

.DataNode.Highlighted {
  opacity: 0.6;
  stroke-width: 0px;
}

marker {
  /* this is what should work per the spec
  stroke-dasharray: none; */
  /* but I need to add this to make it work in Safari */
  stroke-dasharray: 9999999999999999999999999;
}

.Citation.Icon {
  fill: none;
  stroke-width: 0px;
}

.Citation.textContent {
  text-align: center;
  vertical-align: top;
  font-size: 7px;
  fill: #999;
  fill-opacity: 1;
  stroke: none;
}</style><g id="WP4997" class="Pathway http___identifiers_org_pw_PW_0000355 Viewport"  name="Name: Blood group systems biosynthesis Organism: Homo sapiens" ><g class="Pathway http___identifiers_org_pw_PW_0000355 Viewport"><rect   width="2014" height="1802" style="stroke:none"/><g id="a3d83" class="Reactome_R-HSA-9605700"  ><path    d="m640 755v93" style="marker-end:none"/><g id="f5b02" class="AB" transform="translate(640,755)"  ><g class="AB"/></g><g id="a2f99" class="AB" transform="translate(640 847.07)"  ><g class="AB"/></g><g id="c690f" class="AB" transform="translate(640,801.5)"  ><g class="AB"/></g></g><g id="a478a" class="Reactome_R-HSA-9603991"  ><path    d="m404 566v76" style="marker-end:none"/><g id="e5954" class="AB" transform="translate(404,566)"  ><g class="AB"/></g><g id="b2f0d" class="AB" transform="translate(404,641.24)"  ><g class="AB"/></g><g id="cb6f0" class="AB" transform="translate(404,604)"  ><g class="AB"/></g></g><g id="a4da6" class="Reactome_R-HSA-9606392"  ><path    d="m831 980v109" style="marker-end:none"/><g id="e1eae" class="AB" transform="translate(831,980)"  ><g class="AB"/></g><g id="ccd42" class="AB" transform="translate(831 1087.9)"  ><g class="AB"/></g></g><g id="a565f" class="Reactome_R-HSA-9606392"  ><path    d="m831 974v6" style="marker-end:none"/></g><g id="a5951" class="Reactome_R-HSA-9603983"  ><path    d="m1132 763v91" style="marker-end:none"/><g id="fa2f7" class="AB" transform="translate(1132,763)"  ><g class="AB"/></g><g id="e76d9" class="AB" transform="translate(1132,853.09)"  ><g class="AB"/></g><g id="f14e2" class="AB" transform="translate(1132,808.5)"  ><g class="AB"/></g></g><g id="a8958" class="Reactome_R-HSA-9603983"  ><path    d="m1047 988 85-177" style="marker-end:url(#memcatalysis000)"/></g><g id="aebf6" class="Reactome_R-HSA-9603991"  ><path    d="m139 562 265 43" style="marker-end:url(#memcatalysis000)"/></g><g id="b3693" class="Reactome_R-HSA-9037612"  ><path    d="m1078 448h655" style="marker-end:none"/><g id="e190b" class="AB" transform="translate(1078,448)"  ><g class="AB"/></g><g id="c7457" class="AB" transform="translate(1726.4 448)"  ><g class="AB"/></g></g><g id="b8495" class="Reactome_R-HSA-9603984"  ><path    d="m1131 587v61" style="marker-end:none"/><g id="ed918" class="AB" transform="translate(1131,587)"  ><g class="AB"/></g><g id="aeb36" class="AB" transform="translate(1131,647.39)"  ><g class="AB"/></g><g id="b024a" class="AB" transform="translate(1131,617.5)"  ><g class="AB"/></g></g><g id="b3c88" class="Reactome_R-HSA-9603984"  ><path    d="m1131 648-82 23"/></g><g id="bd550" class="Reactome_R-HSA-9603983"  ><path    d="m1132 854-82 28"/></g><g id="bdc40" class="Reactome_R-HSA-9603991"  ><path    d="m404 642 1 40"/></g><g id="bec3a" class="Reactome_R-HSA-9603989"  ><path    d="m291 390h78" style="marker-end:none"/><g id="d079a" class="AB" transform="translate(291,390)"  ><g class="AB"/></g><g id="f208a" class="AB" transform="translate(368.22,390)"  ><g class="AB"/></g><g id="d99e1" class="AB" transform="translate(330,390)"  ><g class="AB"/></g></g><g id="ba595" class="Reactome_R-HSA-9603989"  ><path    d="m369 390 19-26"/></g><g id="a7100" class="Reactome_R-HSA-9603989"  ><path    d="m330 90-1 300" style="marker-end:url(#memcatalysis000)"/></g><g id="bf49e" class="Reactome_R-HSA-9603989"  ><path    d="m258 313 33 77" style="marker-end:none"/></g><g id="c082f" class="Reactome_R-HSA-9606392"  ><path    d="m831 1089v6"/></g><g id="c093c" class="Reactome_R-HSA-9603984"  ><path    d="m605 314 526 273" style="marker-end:none"/></g><g id="c14fa" class="Reactome_R-HSA-9605609"  ><path    d="m285 725v129" style="marker-end:none"/><g id="da180" class="AB" transform="translate(285,725)"  ><g class="AB"/></g><g id="e1ff9" class="AB" transform="translate(285,852.71)"  ><g class="AB"/></g><g id="e711f" class="AB" transform="translate(285,789.5)"  ><g class="AB"/></g></g><g id="bb004" class="Reactome_R-HSA-9605609"  ><path    d="m285 854 36 30"/></g><g id="a3194" class="Reactome_R-HSA-9605609"  ><path    d="m107 766 178 1" style="marker-end:url(#memcatalysis000)"/></g><g id="c372d" class="Reactome_R-HSA-9603991"  ><path    d="m404 504v62" style="marker-end:none"/></g><g id="c4324" class="Reactome_R-HSA-9605609"  ><path    d="m285 681v44" style="marker-end:none"/></g><g id="c949e" class="Reactome_R-HSA-9605700"  ><path    d="m710 1e3 -70-189" style="marker-end:url(#memcatalysis000)"/></g><g id="c96cc" class="Reactome_R-HSA-9605700"  ><path    d="m640 848-15 26"/></g><g id="cd624" class="Reactome_R-HSA-9605644"  ><path    d="m404 771v56" style="marker-end:none"/><g id="a6480" class="AB" transform="translate(404,771)"  ><g class="AB"/></g><g id="c0a09" class="AB" transform="translate(404,826.44)"  ><g class="AB"/></g><g id="fb951" class="AB" transform="translate(404,799)"  ><g class="AB"/></g></g><g id="aa8f2" class="Reactome_R-HSA-9605644"  ><path    d="m383 741 21 30" style="marker-end:none"/></g><g id="cf5d6" class="Reactome_R-HSA-9033959"  ><path    d="m956 285v-100" style="marker-end:none"/><g id="c02e9" class="AB" transform="translate(956,285)"  ><g class="AB"/></g><g id="d9d65" class="AB" transform="translate(956 186)"  ><g class="AB"/></g><g id="e1ed2" class="AB" transform="translate(956,235)"  ><g class="AB"/></g></g><g id="a4914" class="Reactome_R-HSA-9033959"  ><path    d="m956 185 28-23"/></g><g id="ab29f" class="Reactome_R-HSA-9033959"  ><path    d="m956 185-18-73"/></g><g id="d35d4" class="Reactome_R-HSA-9605700"  ><path    d="m640 661v94" style="marker-end:none"/></g><g id="d491b" class="Reactome_R-HSA-9605644"  ><path    d="m404 827-41 57"/></g><g id="da211" class="Reactome_R-HSA-9036987"  ><path    d="m719 448h110" style="marker-end:none"/><g id="d61bc" class="AB" transform="translate(719,448)"  ><g class="AB"/></g><g id="e745e" class="AB" transform="translate(827.9,448)"  ><g class="AB"/></g><g id="d1b4e" class="AB" transform="translate(774,448)"  ><g class="AB"/></g></g><g id="ac3e5" class="Reactome_R-HSA-9036987"  ><path    d="m473 392 246 56" style="marker-end:none"/></g><g id="d43a3" class="Reactome_R-HSA-9036987"  ><path    d="m829 448 16-47"/></g><g id="da0c8" class="Reactome_R-HSA-9036987"  ><path    d="m568 86 210 362" style="marker-end:url(#memcatalysis000)"/></g><g id="dba97" class="Reactome_R-HSA-9605644"  ><path    d="m404 827v41"/></g><g id="dcb3f" class="Reactome_R-HSA-9603983"  ><path    d="m1132 724v39" style="marker-end:none"/></g><g id="de3ac" class="Reactome_R-HSA-9605644"  ><path    d="m107 766 297 33" style="marker-end:url(#memcatalysis000)"/></g><g id="df1bf" class="Reactome_R-HSA-9605609"  ><path    d="m285 854v37"/></g><g id="df3c2" class="Reactome_R-HSA-9605644"  ><path    d="m405 712-1 59" style="marker-end:none"/></g><g id="df985" class="Reactome_R-HSA-9603991"  ><path    d="m404 642 70 19"/></g><g id="e012d" class="Reactome_R-HSA-9037612"  ><path    d="m1733 448h3"/></g><g id="e1272" class="Reactome_R-HSA-9605700"  ><path    d="m640 848 1 43"/></g><g id="e1a4a" class="Reactome_R-HSA-9603986"  ><path    d="m930 604v60" style="marker-end:none"/><g id="df826" class="AB" transform="translate(930,604)"  ><g class="AB"/></g><g id="f3943" class="AB" transform="translate(930 663.4)"  ><g class="AB"/></g><g id="c20c8" class="AB" transform="translate(930,634)"  ><g class="AB"/></g></g><g id="c0eed" class="Reactome_R-HSA-9603986"  ><path    d="m930 664 1 38"/></g><g id="e24d9" class="Reactome_R-HSA-9603991"  ><path    d="m331 666 73-100" style="marker-end:none"/></g><g id="e26f1" class="Reactome_R-HSA-9603986"  ><path    d="m473 392 457 212" style="marker-end:none"/></g><g id="e2e72" class="Reactome_R-HSA-9038658"  ><path    d="m1416 160h129" style="marker-end:none"/><g id="a096e" class="AB" transform="translate(1416,160)"  ><g class="AB"/></g><g id="b94b1" class="AB" transform="translate(1543.7 160)"  ><g class="AB"/></g></g><g id="d7823" class="Reactome_R-HSA-9038658"  ><path    d="m1407 183 9-23" style="marker-end:none"/></g><g id="e3700" class="Reactome_R-HSA-9603983"  ><path    d="m1058 725 74 38" style="marker-end:none"/></g><g id="e37b0" class="Reactome_R-HSA-9603986"  ><path    d="m892 587 38 17" style="marker-end:none"/></g><g id="e3b2d" class="Reactome_R-HSA-9603984"  ><path    d="m1140 554-9 33" style="marker-end:none"/></g><g id="e61a6" class="Reactome_R-HSA-9033959"  ><path    d="m941 316 15-31" style="marker-end:none"/></g><g id="e9554" class="Reactome_R-HSA-9037612"  ><path    d="m1075 449 3-1" style="marker-end:none"/></g><g id="eb2f4" class="Reactome_R-HSA-9038653"  ><path    d="m1424 241h126" style="marker-end:none"/><g id="a3d1a" class="AB" transform="translate(1424,241)"  ><g class="AB"/></g><g id="a0380" class="AB" transform="translate(1548.7 241)"  ><g class="AB"/></g></g><g id="b4d0b" class="Reactome_R-HSA-9038653"  ><path    d="m1550 241 3 1"/></g><g id="ebbc1" class="Reactome_R-HSA-9036987"  ><path    d="m829 448 144 1"/></g><g id="ec5a9" class="Reactome_R-HSA-9033961"  ><path    d="m1015 288v-98" style="marker-end:none"/><g id="a7524" class="AB" transform="translate(1015,288)"  ><g class="AB"/></g><g id="efd24" class="AB" transform="translate(1015 190.98)"  ><g class="AB"/></g><g id="a6066" class="AB" transform="translate(1015,239)"  ><g class="AB"/></g></g><g id="e1240" class="Reactome_R-HSA-9033961"  ><path    d="m1015 190-31-28"/></g><g id="e5713" class="Reactome_R-HSA-9033961"  ><path    d="m1215 237-200 2" style="marker-end:url(#memcatalysis000)"/></g><g id="ed190" class="Reactome_R-HSA-9033961"  ><path    d="m1046 317-31-29" style="marker-end:none"/></g><g id="ef001" class="Reactome_R-HSA-9603983"  ><path    d="m1132 854v59"/></g><g id="ef8e1" class="Reactome_R-HSA-9605682"  ><path    d="m513 771-1 100" style="marker-end:none"/><g id="cabf1" class="AB" transform="translate(513,771)"  ><g class="AB"/></g><g id="b0516" class="AB" transform="translate(512.01,870)"  ><g class="AB"/></g><g id="e1c4c" class="AB" transform="translate(512.5,821)"  ><g class="AB"/></g></g><g id="ccea6" class="Reactome_R-HSA-9605682"  ><path    d="m383 741 130 30" style="marker-end:none"/></g><g id="d1164" class="Reactome_R-HSA-9605682"  ><path    d="m530 706-17 65" style="marker-end:none"/></g><g id="da10e" class="Reactome_R-HSA-9605682"  ><path    d="m512 871v71"/></g><g id="db3e0" class="Reactome_R-HSA-9605682"  ><path    d="m512 871 22 16"/></g><g id="cbff1" class="Reactome_R-HSA-9605682"  ><path    d="m434 1e3 78-183" style="marker-end:url(#memcatalysis000)"/></g><g id="efac2" class="Reactome_R-HSA-9603989"  ><path    d="m369 390 46 2"/></g><g id="f05f5" class="Reactome_R-HSA-9603986"  ><path    d="m1254 416-324 224" style="marker-end:url(#memcatalysis000)"/></g><g id="f0710" class="Reactome_R-HSA-9603982"  ><path    d="m930 761v82" style="marker-end:none"/><g id="dd1ad" class="AB" transform="translate(930,761)"  ><g class="AB"/></g><g id="af90f" class="AB" transform="translate(930,842.18)"  ><g class="AB"/></g><g id="be6c8" class="AB" transform="translate(930,802)"  ><g class="AB"/></g></g><g id="ce2ec" class="Reactome_R-HSA-9603982"  ><path    d="m931 732-1 29" style="marker-end:none"/></g><g id="e85bc" class="Reactome_R-HSA-9603982"  ><path    d="m996 725-66 36" style="marker-end:none"/></g><g id="b55ab" class="Reactome_R-HSA-9603982"  ><path    d="m930 843 78 39"/></g><g id="cb3f3" class="Reactome_R-HSA-9603982"  ><path    d="m1047 988-117-184" style="marker-end:url(#memcatalysis000)"/></g><g id="f0d95" class="Reactome_R-HSA-9603984"  ><path    d="m1131 648 1 46"/></g><g id="f27f9" class="Reactome_R-HSA-9033959"  ><path    d="m980 371-24-86" style="marker-end:none"/></g><g id="f33b2" class="Reactome_R-HSA-9605609"  ><path    d="m321 741-36-16" style="marker-end:none"/></g><g id="f3f51" class="Reactome_R-HSA-9033949"  ><path    d="m652 314h134" style="marker-end:none"/><g id="a23d9" class="AB" transform="translate(652,314)"  ><g class="AB"/></g><g id="eca00" class="AB" transform="translate(784.66,314)"  ><g class="AB"/></g><g id="ccf0b" class="AB" transform="translate(719,314)"  ><g class="AB"/></g></g><g id="b5887" class="Reactome_R-HSA-9033949"  ><path    d="m696 369-44-55" style="marker-end:none"/></g><g id="d128b" class="Reactome_R-HSA-9033949"  ><path    d="m605 314h47" style="marker-end:none"/></g><g id="cd4f6" class="Reactome_R-HSA-9033949"  ><path    d="m786 314 140 72"/></g><g id="d1e4d" class="Reactome_R-HSA-9033949"  ><path    d="m786 314 38 72"/></g><g id="c065e" class="Reactome_R-HSA-9033949"  ><path    d="m640 87 105 227" style="marker-end:url(#memcatalysis000)"/></g><g id="f4fe9" class="Reactome_R-HSA-9605600"  ><path    d="m576 551v85" style="marker-end:none"/><g id="f4279" class="AB" transform="translate(576,551)"  ><g class="AB"/></g><g id="e6149" class="AB" transform="translate(576 635.15)"  ><g class="AB"/></g><g id="bac28" class="AB" transform="translate(576,593.5)"  ><g class="AB"/></g></g><g id="e9279" class="Reactome_R-HSA-9605600"  ><path    d="m576 336v215" style="marker-end:none"/></g><g id="cf346" class="Reactome_R-HSA-9605600"  ><path    d="m576 636-62 25"/></g><g id="f2130" class="Reactome_R-HSA-9605600"  ><path    d="m576 636 1 55"/></g><g id="acad4" class="Reactome_R-HSA-9605600"  ><path    d="m137 474 439 111" style="marker-end:url(#memcatalysis000)"/></g><g id="f5364" class="Reactome_R-HSA-9603982"  ><path    d="m930 843 1 58"/></g><g id="f5658" class="Reactome_R-HSA-9605600"  ><path    d="m448 489 128 62" style="marker-end:none"/></g><g id="f5d15" class="Reactome_R-HSA-9038658"  ><path    d="m1545 160h3"/></g><g id="f63ab" class="Reactome_R-HSA-9033961"  ><path    d="m1015 190-4-81"/></g><g id="f6b11" class="Reactome_R-HSA-9603986"  ><path    d="m930 664 77 7"/></g><g id="f7362" class="Reactome_R-HSA-9603987"  ><path    d="m285 493v106" style="marker-end:none"/><g id="efe71" class="AB" transform="translate(285,493)"  ><g class="AB"/></g><g id="c6925" class="AB" transform="translate(285,597.94)"  ><g class="AB"/></g><g id="c522a" class="AB" transform="translate(285,546)"  ><g class="AB"/></g></g><g id="ce008" class="Reactome_R-HSA-9603987"  ><path    d="m360 489-75 4" style="marker-end:none"/></g><g id="d5ebb" class="Reactome_R-HSA-9603987"  ><path    d="m415 392-130 101" style="marker-end:none"/></g><g id="b5be0" class="Reactome_R-HSA-9603987"  ><path    d="m285 599-35 33"/></g><g id="efeb8" class="Reactome_R-HSA-9603987"  ><path    d="m285 599v52"/></g><g id="e288b" class="Reactome_R-HSA-9603987"  ><path    d="m119 518 166 23" style="marker-end:url(#memcatalysis000)"/></g><g id="f7cb4" class="Reactome_R-HSA-9033959"  ><path    d="m783 76 173 159" style="marker-end:url(#memcatalysis000)"/></g><g id="f825f" class="Reactome_R-HSA-9034053"  ><path    d="m1857 501v93" style="marker-end:none"/><g id="eed92" class="AB" transform="translate(1857,501)"  ><g class="AB"/></g><g id="d5e10" class="AB" transform="translate(1857 593.07)"  ><g class="AB"/></g><g id="eca2c" class="AB" transform="translate(1857,547.5)"  ><g class="AB"/></g></g><g id="ad17f" class="Reactome_R-HSA-9034053"  ><path    d="m1838 448 19 53" style="marker-end:none"/></g><g id="e46c1" class="Reactome_R-HSA-9034053"  ><path    d="m1891 478-34 23" style="marker-end:none"/></g><g id="a4e53" class="Reactome_R-HSA-9034053"  ><path    d="m1857 594-50 25"/></g><g id="c9de2" class="Reactome_R-HSA-9034053"  ><path    d="m1857 594 1 60"/></g><g id="f88d1" class="Reactome_R-HSA-9038653"  ><path    d="m1415 264 9-23" style="marker-end:none"/></g><g id="fcadf" class="Reactome_R-HSA-9605700"  ><path    d="m624 706 16 49" style="marker-end:none"/></g><g id="fd354" class="Reactome_R-HSA-9603984"  ><path    d="m1239 616h-108" style="marker-end:url(#memcatalysis000)"/></g><g id="fd5a0" class="Reactome_R-HSA-9033961"  ><path    d="m980 371 35-83" style="marker-end:none"/></g><g id="fde13" class="Reactome_R-HSA-9036987"  ><path    d="m696 403 23 45" style="marker-end:none"/></g><g id="fe64f" class="Reactome_R-HSA-9034053"  ><path    d="m1890 548-33 2" style="marker-end:url(#memcatalysis000)"/></g><g id="ff35d" class="Reactome_R-HSA-9034042"  ><path    d="m1718 498v94" style="marker-end:none"/><g id="a09ca" class="AB" transform="translate(1718,498)"  ><g class="AB"/></g><g id="aaf0c" class="AB" transform="translate(1718 591.06)"  ><g class="AB"/></g><g id="ce65b" class="AB" transform="translate(1718,545)"  ><g class="AB"/></g></g><g id="affb9" class="Reactome_R-HSA-9034042"  ><path    d="m1681 480 37 18" style="marker-end:none"/></g><g id="fb0ee" class="Reactome_R-HSA-9034042"  ><path    d="m1736 448-18 50" style="marker-end:none"/></g><g id="f3587" class="Reactome_R-HSA-9034042"  ><path    d="m1718 592 47 27"/></g><g id="f6f22" class="Reactome_R-HSA-9034042"  ><path    d="m1718 592 1 61"/></g><g id="e384b" class="Reactome_R-HSA-9034042"  ><path    d="m1683 549 35 2" style="marker-end:url(#memcatalysis000)"/></g><g id="ff627" class="Reactome_R-HSA-9603989"  ><path    d="m232 388 59 2" style="marker-end:none"/></g><g id="ca08d" class="GroupGroup" transform="translate(16,15)"  ><g class="GroupGroup"><g id="ce7eb" class="" transform="translate(8,8)"  ><g class=""><rect   transform="matrix(1.00 0 0 1.00 1.50 1.50)" width="1542" height="1026" rx="15" ry="15" stroke-width="3" style="fill:transparent;stroke:#c0c0c0"/></g></g><g id="dd3c8" class="Label" transform="translate(46,23)"  name="cytosol" ><g class="Label"/><text   transform="translate(32,16.5)"    >cytosol</text></g></g></g><g id="d45c7" class="GroupGroup" transform="translate(70,61)"  ><g class="GroupGroup"><g id="e1a3a" class="" transform="translate(8,8)"  ><g class=""><rect   transform="matrix(1.00 0 0 1.00 1.50 1.50)" width="1199" height="938" rx="15" ry="15" stroke-width="3" style="fill:transparent;stroke:#c0c0c0"/></g></g><g id="dc4a2" class="Label" transform="translate(35,100)"  name="Golgi lumen" ><g class="Label"/><text   transform="translate(46.5,16.5)"    >Golgi lumen</text></g></g></g><g id="eb05d" class="GroupGroup" transform="translate(1313,69)"  ><g class="GroupGroup"><g id="c3f90" class="" transform="translate(8,8)"  ><g class=""><rect   transform="matrix(0.99 0 0 0.99 1.48 1.49)" width="203" height="299" rx="15" ry="15" stroke-width="3" style="fill:transparent;stroke:#c0c0c0"/></g></g><g id="f8b73" class="Label" transform="translate(21,20)"  name="nucleolus" ><g class="Label"/><text   transform="translate(40,16.5)"    >nucleolus</text></g></g></g><g id="a2ae4" class="Metabolite " transform="translate(926,371)"  name="H antigen-RBC" ><rect   width="109" height="30" style="stroke:#00f"/><text   transform="translate(54.5,15)"     style="fill:#00f">H antigen-RBC</text></g><g id="a48f7" class="GeneProduct " transform="translate(1341,158)"  name="RHD gene" ><rect   width="66" height="51"/><text   transform="translate(33,25.5)"    >RHD gene</text></g><g id="a6f12" class="Metabolite " transform="translate(474,646)"  name="CMP" ><rect   width="40" height="30" style="stroke:#00f"/><text   transform="translate(20,15)"     style="fill:#00f">CMP</text></g><g id="a9d94" class="Complex Reactome_R-HSA-9605640" transform="translate(51,463)"  name="ST3GAL3,4,6" ><g class="Complex Reactome_R-HSA-9605640"><rect   width="87" height="22" rx="15" ry="15" style="stroke:#a52a2a"/></g><g ><defs><clipPath ><rect x="-43.5" y="-11" width="87" height="22" style="stroke:none"/></clipPath></defs><text   transform="translate(43.5,11)"     style="fill:#a52a2a">ST3GAL3,4,6</text></g></g><g id="ab20b" class="Complex Reactome_R-HSA-9034067" transform="translate(693,65)"  name="ABO-A:Mn2+" ><g class="Complex Reactome_R-HSA-9034067"><use class="Complex Reactome_R-HSA-9034067 Node Icon" width="91" height="22" fill="#fff" stroke="#a52a2a" href="#HexagonPathVisio"/></g><g ><defs><clipPath ><rect x="-45.5" y="-11" width="91" height="22" style="stroke:none"/></clipPath></defs><text   transform="translate(45.5,11)"     style="fill:#a52a2a">ABO-A:Mn2+</text></g></g><g id="ac38e" class="Metabolite " transform="translate(264,891)"  name="sLeA" ><rect   width="43" height="30" style="stroke:#00f"/><text   transform="translate(21.5,15)"     style="fill:#00f">sLeA</text></g><g id="ad6b2" class="Metabolite " transform="translate(963,132)"  name="UDP" ><rect   width="43" height="30" style="stroke:#00f"/><text   transform="translate(21.5,15)"     style="fill:#00f">UDP</text></g><g id="add27" class="Metabolite " transform="translate(210,617)"  name="CMP" ><rect   width="40" height="30" style="stroke:#00f"/><text   transform="translate(20,15)"     style="fill:#00f">CMP</text></g><g id="ae29c" class="Metabolite " transform="translate(239,651)"  name="Type 1 MSGG" ><rect   width="93" height="31" style="stroke:#00f"/><text   transform="translate(46.5,15.5)"     style="fill:#00f">Type 1 MSGG</text></g><g id="af618" class="Metabolite " transform="translate(1809,654)"  name="B antigen-sec" ><rect   width="99" height="30" style="stroke:#00f"/><text   transform="translate(49.5,15)"     style="fill:#00f">B antigen-sec</text></g><g id="af83c" class="Metabolite " transform="translate(321,724)"  name="GDP-Fuc" ><rect   width="63" height="35" style="stroke:#00f"/><text   transform="translate(31.5,17.5)"     style="fill:#00f">GDP-Fuc</text></g><g id="b0674" class="Metabolite " transform="translate(379,868)"  name="dsLeA" ><rect   width="51" height="30" style="stroke:#00f"/><text   transform="translate(25.5,15)"     style="fill:#00f">dsLeA</text></g><g id="b2d9d" class="Protein" transform="translate(1025,988)"  name="FUT2" ><rect   width="45" height="22"/><text   transform="translate(22.5,11)"    >FUT2</text></g><g id="b4cd7" class="Metabolite " transform="translate(367,334)"  name="UDP" ><rect   width="43" height="30" style="stroke:#00f"/><text   transform="translate(21.5,15)"     style="fill:#00f">UDP</text></g><g id="b5fff" class="Metabolite " transform="translate(547,292)"  name="Type 2 chain" ><rect   width="58" height="45" style="stroke:#00f"/><text   transform="translate(29,22.5)"     style="fill:#00f">Type 2 chain</text></g><g id="b6a5e" class="Metabolite " transform="translate(830,570)"  name="GDP-Fuc" ><rect   width="63" height="35" style="stroke:#00f"/><text   transform="translate(31.5,17.5)"     style="fill:#00f">GDP-Fuc</text></g><g id="bb15a" class="Metabolite " transform="translate(996,708)"  name="GDP-Fuc" ><rect   width="63" height="35" style="stroke:#00f"/><text   transform="translate(31.5,17.5)"     style="fill:#00f">GDP-Fuc</text></g><g id="bb8c6" class="Protein" transform="translate(1548,142)"  name="PALM-C-Rhesus D protein" ><rect   width="121" height="36"/><text   transform="translate(60.5,18)"    ><tspan   x="0" y="-5.5">PALM-C-Rhesus D</tspan><tspan   x="0" y="5.5">protein</tspan></text></g><g id="bd9e1" class="Complex Reactome_R-HSA-9604002" transform="translate(1239,601)"  name="FUT4,5,9(10,11)" ><g class="Complex Reactome_R-HSA-9604002"><rect   width="66" height="31" rx="15" ry="15" style="stroke:#a52a2a"/></g><g ><defs><clipPath ><rect x="-33" y="-15.5" width="66" height="31" style="stroke:none"/></clipPath></defs><text   transform="translate(33,15.5)"     style="fill:#a52a2a">FUT4,5,9(10,11)</text></g></g><g id="bda47" class="Complex Reactome_R-ALL-9606394" transform="translate(775,952)"  name="Lewis antigens" ><g class="Complex Reactome_R-ALL-9606394"><rect   width="113" height="22" rx="15" ry="15" style="stroke:#a52a2a"/></g><g ><defs><clipPath ><rect x="-56.5" y="-11" width="113" height="22" style="stroke:none"/></clipPath></defs><text   transform="translate(56.5,11)"     style="fill:#a52a2a">Lewis antigens</text></g></g><g id="bfbc4" class="Complex Reactome_R-HSA-9034031" transform="translate(1890,537)"  name="sABO-B:Mn2+" ><g class="Complex Reactome_R-HSA-9034031"><use class="Complex Reactome_R-HSA-9034031 Node Icon" width="94" height="22" fill="#fff" stroke="#a52a2a" href="#HexagonPathVisio"/></g><g ><defs><clipPath ><rect x="-47" y="-11" width="94" height="22" style="stroke:none"/></clipPath></defs><text   transform="translate(47,11)"     style="fill:#a52a2a">sABO-B:Mn2+</text></g></g><g id="c084c" class="Metabolite " transform="translate(1891,463)"  name="UDP-Gal" ><rect   width="69" height="30" style="stroke:#00f"/><text   transform="translate(34.5,15)"     style="fill:#00f">UDP-Gal</text></g><g id="c0eb7" class="Metabolite " transform="translate(1114,694)"  name="LeX" ><rect   width="36" height="30" style="stroke:#00f"/><text   transform="translate(18,15)"     style="fill:#00f">LeX</text></g><g id="c1999" class="Metabolite " transform="translate(1736,433)"  name="H antigen-sec" ><rect   width="102" height="30" style="stroke:#00f"/><text   transform="translate(51,15)"     style="fill:#00f">H antigen-sec</text></g><g id="c1ef8" class="Metabolite " transform="translate(360,474)"  name="CMP-Neu5Ac" ><rect   width="89" height="30" style="stroke:#00f"/><text   transform="translate(44.5,15)"     style="fill:#00f">CMP-Neu5Ac</text></g><g id="c5296" class="Protein" transform="translate(1254,405)"  name="FUT3" ><rect   width="46" height="23"/><text   transform="translate(23,11.5)"    >FUT3</text></g><g id="c7690" class="Metabolite " transform="translate(530,691)"  name="Type 2 MSGG" ><rect   width="94" height="30" style="stroke:#00f"/><text   transform="translate(47,15)"     style="fill:#00f">Type 2 MSGG</text></g><g id="c76f2" class="Complex Reactome_R-HSA-913717" transform="translate(300,68)"  name="B3GALTs" ><g class="Complex Reactome_R-HSA-913717"><rect   width="60" height="23" rx="15" ry="15" style="stroke:#a52a2a"/></g><g ><defs><clipPath ><rect x="-30" y="-11.5" width="60" height="23" style="stroke:none"/></clipPath></defs><text   transform="translate(30,11.5)"     style="fill:#a52a2a">B3GALTs</text></g></g><g id="c7794" class="Complex Reactome_R-HSA-9034047" transform="translate(1585,538)"  name="sABO-A:Mn2+" ><g class="Complex Reactome_R-HSA-9034047"><use class="Complex Reactome_R-HSA-9034047 Node Icon" width="98" height="22" fill="#fff" stroke="#a52a2a" href="#HexagonPathVisio"/></g><g ><defs><clipPath ><rect x="-49" y="-11" width="98" height="22" style="stroke:none"/></clipPath></defs><text   transform="translate(49,11)"     style="fill:#a52a2a">sABO-A:Mn2+</text></g></g><g id="cc00d" class="Metabolite " transform="translate(491,942)"  name="sLeX" ><rect   width="43" height="30" style="stroke:#00f"/><text   transform="translate(21.5,15)"     style="fill:#00f">sLeX</text></g><g id="cc1de" class="Metabolite " transform="translate(110,373)"  name="GlcNAc-&#206;&#178;1,3-Gal-R" ><rect   width="123" height="30" style="stroke:#00f"/><text   transform="translate(61.5,15)"     style="fill:#00f">GlcNAc-&#206;&#178;1,3-Gal-R</text></g><g id="ccfb9" class="Metabolite " transform="translate(534,872)"  name="GDP" ><rect   width="43" height="30" style="stroke:#00f"/><text   transform="translate(21.5,15)"     style="fill:#00f">GDP</text></g><g id="cd3e3" class="GeneProduct " transform="translate(1343,239)"  name="RHCE gene" ><rect   width="72" height="51"/><text   transform="translate(36,25.5)"    >RHCE gene</text></g><g id="d4667" class="Metabolite " transform="translate(830,97)"  name="A antigen-RBC" ><rect   width="109" height="30" style="stroke:#00f"/><text   transform="translate(54.5,15)"     style="fill:#00f">A antigen-RBC</text></g><g id="d5851" class="Protein" transform="translate(1553,225)"  name="Rhesus C/E protein" ><rect   width="81" height="35"/><text   transform="translate(40.5,17.5)"    >Rhesus C/E protein</text></g><g id="d59b1" class="Metabolite " transform="translate(824,371)"  name="GDP" ><rect   width="43" height="30" style="stroke:#00f"/><text   transform="translate(21.5,15)"     style="fill:#00f">GDP</text></g><g id="d5c12" class="Metabolite " transform="translate(1140,535)"  name="GDP-Fuc" ><rect   width="63" height="38" style="stroke:#00f"/><text   transform="translate(31.5,19)"     style="fill:#00f">GDP-Fuc</text></g><g id="d8b42" class="Protein" transform="translate(51,551)"  name="ST6GALNAC6" ><rect   width="89" height="22"/><text   transform="translate(44.5,11)"    >ST6GALNAC6</text></g><g id="d9fae" class="Metabolite " transform="translate(1114,913)"  name="LeY" ><rect   width="36" height="30" style="stroke:#00f"/><text   transform="translate(18,15)"     style="fill:#00f">LeY</text></g><g id="daf97" class="Metabolite " transform="translate(359,682)"  name="Type 1 DSGG" ><rect   width="92" height="30" style="stroke:#00f"/><text   transform="translate(46,15)"     style="fill:#00f">Type 1 DSGG</text></g><g id="dc4e0" class="Metabolite " transform="translate(1585,465)"  name="UDP-GalNAc" ><rect   width="96" height="30" style="stroke:#00f"/><text   transform="translate(48,15)"     style="fill:#00f">UDP-GalNAc</text></g><g id="dff0d" class="Metabolite " transform="translate(913,702)"  name="LeA" ><rect   width="36" height="30" style="stroke:#00f"/><text   transform="translate(18,15)"     style="fill:#00f">LeA</text></g><g id="e1f5a" class="Metabolite " transform="translate(845,301)"  name="UDP-GalNAc" ><rect   width="96" height="30" style="stroke:#00f"/><text   transform="translate(48,15)"     style="fill:#00f">UDP-GalNAc</text></g><g id="e36b6" class="Metabolite " transform="translate(1007,656)"  name="GDP" ><rect   width="43" height="30" style="stroke:#00f"/><text   transform="translate(21.5,15)"     style="fill:#00f">GDP</text></g><g id="e43c8" class="Metabolite " transform="translate(1046,302)"  name="UDP-Gal" ><rect   width="69" height="30" style="stroke:#00f"/><text   transform="translate(34.5,15)"     style="fill:#00f">UDP-Gal</text></g><g id="e5616" class="Protein" transform="translate(57,507)"  name="ST3GAL3" ><rect   width="63" height="22"/><text   transform="translate(31.5,11)"    >ST3GAL3</text></g><g id="e74d3" class="Metabolite " transform="translate(1011,94)"  name="B antigen-RBC" ><rect   width="106" height="30" style="stroke:#00f"/><text   transform="translate(53,15)"     style="fill:#00f">B antigen-RBC</text></g><g id="e95e4" class="Metabolite " transform="translate(1765,604)"  name="UDP" ><rect   width="43" height="30" style="stroke:#00f"/><text   transform="translate(21.5,15)"     style="fill:#00f">UDP</text></g><g id="e9df9" class="Protein" transform="translate(546,64)"  name="FUT2" ><rect   width="45" height="22"/><text   transform="translate(22.5,11)"    >FUT2</text></g><g id="ec7ef" class="Metabolite " transform="translate(321,869)"  name="GDP" ><rect   width="43" height="30" style="stroke:#00f"/><text   transform="translate(21.5,15)"     style="fill:#00f">GDP</text></g><g id="ef599" class="Metabolite " transform="translate(415,369)"  name="Type 1 chain" ><rect   width="58" height="46" style="stroke:#00f"/><text   transform="translate(29,23)"     style="fill:#00f">Type 1 chain</text></g><g id="f047c" class="Complex Reactome_R-HSA-9605686" transform="translate(360,989)"  name="FUT3,5,6,7" ><g class="Complex Reactome_R-HSA-9605686"><rect   width="75" height="22" rx="15" ry="15" style="stroke:#a52a2a"/></g><g ><defs><clipPath ><rect x="-37.5" y="-11" width="75" height="22" style="stroke:none"/></clipPath></defs><text   transform="translate(37.5,11)"     style="fill:#a52a2a">FUT3,5,6,7</text></g></g><g id="f160a" class="Metabolite " transform="translate(1668,653)"  name="A antigen-sec" ><rect   width="102" height="30" style="stroke:#00f"/><text   transform="translate(51,15)"     style="fill:#00f">A antigen-sec</text></g><g id="f61b0" class="Protein" transform="translate(618,65)"  name="FUT1" ><rect   width="45" height="22"/><text   transform="translate(22.5,11)"    >FUT1</text></g><g id="f7cf9" class="Metabolite " transform="translate(592,631)"  name="UDP-GalNAc" ><rect   width="96" height="30" style="stroke:#00f"/><text   transform="translate(48,15)"     style="fill:#00f">UDP-GalNAc</text></g><g id="f7f27" class="Metabolite " transform="translate(190,298)"  name="UDP-Gal" ><rect   width="69" height="30" style="stroke:#00f"/><text   transform="translate(34.5,15)"     style="fill:#00f">UDP-Gal</text></g><g id="f81f3" class="Complex Reactome_R-ALL-9606400" transform="translate(772,1095)"  name="Lewis antigens" ><g class="Complex Reactome_R-ALL-9606400"><rect   width="119" height="19" rx="15" ry="15" style="stroke:#a52a2a"/></g><g ><defs><clipPath ><rect x="-59.5" y="-9.5" width="119" height="19" style="stroke:none"/></clipPath></defs><text   transform="translate(59.5,9.5)"     style="fill:#a52a2a">Lewis antigens</text></g></g><g id="f8369" class="Protein" transform="translate(710,989)"  name="B4GALNT2" ><rect   width="72" height="22"/><text   transform="translate(36,11)"    >B4GALNT2</text></g><g id="f86eb" class="Metabolite " transform="translate(665,369)"  name="GDP-Fuc" ><rect   width="63" height="35" style="stroke:#00f"/><text   transform="translate(31.5,17.5)"     style="fill:#00f">GDP-Fuc</text></g><g id="f8d81" class="Metabolite " transform="translate(623,891)"  name="Sda" ><rect   width="37" height="31" style="stroke:#00f"/><text   transform="translate(18.5,15.5)"     style="fill:#00f">Sda</text></g><g id="f8ee8" class="Complex Reactome_R-HSA-9034077" transform="translate(1215,226)"  name="ABO-B:Mn2+" ><g class="Complex Reactome_R-HSA-9034077"><use class="Complex Reactome_R-HSA-9034077 Node Icon" width="88" height="22" fill="#fff" stroke="#a52a2a" href="#HexagonPathVisio"/></g><g ><defs><clipPath ><rect x="-44" y="-11" width="88" height="22" style="stroke:none"/></clipPath></defs><text   transform="translate(44,11)"     style="fill:#a52a2a">ABO-B:Mn2+</text></g></g><g id="fa8cb" class="Protein" transform="translate(61,755)"  name="FUT3" ><rect   width="46" height="23"/><text   transform="translate(23,11.5)"    >FUT3</text></g><g id="fc918" class="Metabolite " transform="translate(583,859)"  name="UDP" ><rect   width="43" height="30" style="stroke:#00f"/><text   transform="translate(21.5,15)"     style="fill:#00f">UDP</text></g><g id="fd837" class="Metabolite " transform="translate(1008,867)"  name="GDP" ><rect   width="43" height="30" style="stroke:#00f"/><text   transform="translate(21.5,15)"     style="fill:#00f">GDP</text></g><g id="ff1bc" class="Metabolite " transform="translate(913,901)"  name="LeB" ><rect   width="36" height="30" style="stroke:#00f"/><text   transform="translate(18,15)"     style="fill:#00f">LeB</text></g><g id="ff7d8" class="Metabolite " transform="translate(973,434)"  name="H antigen-sec" ><rect   width="102" height="30" style="stroke:#00f"/><text   transform="translate(51,15)"     style="fill:#00f">H antigen-sec</text></g><g id="aeab1" class="GroupNone" transform="translate(181,1483)"  ><g class="GroupNone"><rect   width="118" height="178" fill-opacity=".1" stroke-dasharray="5,3" style="fill:#b4b464;stroke:grey"/><g id="bdae6" class="Metabolite " transform="translate(9,29)"  name="LeA" ><rect   width="100" height="20" style="stroke:#00f"/><text   transform="translate(50,10)"     style="fill:#00f">LeA</text></g><g id="d351f" class="Metabolite " transform="translate(9,9)"  name="LeB" ><rect   width="100" height="20" style="stroke:#00f"/><text   transform="translate(50,10)"     style="fill:#00f">LeB</text></g><g id="d86a7" class="Metabolite " transform="translate(9,109)"  name="dsLeA" ><rect   width="100" height="20" style="stroke:#00f"/><text   transform="translate(50,10)"     style="fill:#00f">dsLeA</text></g><g id="e7fc6" class="Metabolite " transform="translate(9,129)"  name="Sda" ><rect   width="100" height="20" style="stroke:#00f"/><text   transform="translate(50,10)"     style="fill:#00f">Sda</text></g><g id="f1d0c" class="Metabolite " transform="translate(9,69)"  name="LeY" ><rect   width="100" height="20" style="stroke:#00f"/><text   transform="translate(50,10)"     style="fill:#00f">LeY</text></g><g id="f5cb4" class="Metabolite " transform="translate(9,49)"  name="LeX" ><rect   width="100" height="20" style="stroke:#00f"/><text   transform="translate(50,10)"     style="fill:#00f">LeX</text></g><g id="f8016" class="Metabolite " transform="translate(9,89)"  name="sLeA" ><rect   width="100" height="20" style="stroke:#00f"/><text   transform="translate(50,10)"     style="fill:#00f">sLeA</text></g><g id="f9f53" class="Metabolite " transform="translate(9,149)"  name="sLeX" ><rect   width="100" height="20" style="stroke:#00f"/><text   transform="translate(50,10)"     style="fill:#00f">sLeX</text></g></g></g><g id="b600e" class="GroupComplex" transform="translate(38,1280)"  ><g class="GroupComplex"><use class="Icon" width="124" height="64" fill="#b4b464" fill-opacity=".1" stroke="grey" href="#Octagon"/><g id="b0cfd" class="Protein" transform="translate(12,12)"  name="sABO-A" ><rect   width="100" height="20"/><text   transform="translate(50,10)"    >sABO-A</text></g><g id="c642d" class="Metabolite " transform="translate(12,32)"  name="Mn2+" ><rect   width="100" height="20" style="stroke:#00f"/><text   transform="translate(50,10)"     style="fill:#00f">Mn2+</text></g></g></g><g id="c0fa1" class="GroupNone" transform="translate(41,1703)"  ><g class="GroupNone"><rect   width="118" height="78" fill-opacity=".1" stroke-dasharray="5,3" style="fill:#b4b464;stroke:grey"/><g id="a0706" class="Protein" transform="translate(9,9)"  name="ST3GAL3" ><rect   width="100" height="20"/><text   transform="translate(50,10)"    >ST3GAL3</text></g><g id="b675d" class="Protein" transform="translate(9,29)"  name="ST3GAL4" ><rect   width="100" height="20"/><text   transform="translate(50,10)"    >ST3GAL4</text></g><g id="d40c3" class="Protein" transform="translate(9,49)"  name="ST3GAL6" ><rect   width="100" height="20"/><text   transform="translate(50,10)"    >ST3GAL6</text></g></g></g><g id="c653b" class="GroupNone" transform="translate(181,1163)"  ><g class="GroupNone"><rect   width="118" height="98" fill-opacity=".1" stroke-dasharray="5,3" style="fill:#b4b464;stroke:grey"/><g id="b74f0" class="Protein" transform="translate(9,29)"  name="FUT5" ><rect   width="100" height="20"/><text   transform="translate(50,10)"    >FUT5</text></g><g id="d62b1" class="Protein" transform="translate(9,9)"  name="FUT3" ><rect   width="100" height="20"/><text   transform="translate(50,10)"    >FUT3</text></g><g id="e27b0" class="Protein" transform="translate(9,69)"  name="FUT7" ><rect   width="100" height="20"/><text   transform="translate(50,10)"    >FUT7</text></g><g id="f2876" class="Protein" transform="translate(9,49)"  name="FUT6" ><rect   width="100" height="20"/><text   transform="translate(50,10)"    >FUT6</text></g></g></g><g id="c9172" class="GroupNone" transform="translate(41,1443)"  ><g class="GroupNone"><rect   width="118" height="98" fill-opacity=".1" stroke-dasharray="5,3" style="fill:#b4b464;stroke:grey"/><g id="c06fb" class="Protein" transform="translate(9,29)"  name="B3GALT2" ><rect   width="100" height="20"/><text   transform="translate(50,10)"    >B3GALT2</text></g><g id="cc6a6" class="Protein" transform="translate(9,69)"  name="B3GALT5" ><rect   width="100" height="20"/><text   transform="translate(50,10)"    >B3GALT5</text></g><g id="cd7cb" class="Protein" transform="translate(9,9)"  name="B3GALT1" ><rect   width="100" height="20"/><text   transform="translate(50,10)"    >B3GALT1</text></g><g id="fd6ff" class="Protein" transform="translate(9,49)"  name="B3GALT4" ><rect   width="100" height="20"/><text   transform="translate(50,10)"    >B3GALT4</text></g></g></g><g id="d3c81" class="GroupComplex" transform="translate(38,1360)"  ><g class="GroupComplex"><use class="Icon" width="124" height="64" fill="#b4b464" fill-opacity=".1" stroke="grey" href="#Octagon"/><g id="b5e0e" class="Metabolite " transform="translate(12,32)"  name="Mn2+" ><rect   width="100" height="20" style="stroke:#00f"/><text   transform="translate(50,10)"     style="fill:#00f">Mn2+</text></g><g id="c0207" class="Protein" transform="translate(12,12)"  name="sABO-B" ><rect   width="100" height="20"/><text   transform="translate(50,10)"    >sABO-B</text></g></g></g><g id="e069b" class="GroupComplex" transform="translate(38,1200)"  ><g class="GroupComplex"><use class="Icon" width="124" height="64" fill="#b4b464" fill-opacity=".1" stroke="grey" href="#Octagon"/><g id="b3750" class="Protein" transform="translate(12,32)"  name="ABO-B" ><rect   width="100" height="20"/><text   transform="translate(50,10)"    >ABO-B</text></g><g id="ba92e" class="Metabolite " transform="translate(12,12)"  name="Mn2+" ><rect   width="100" height="20" style="stroke:#00f"/><text   transform="translate(50,10)"     style="fill:#00f">Mn2+</text></g></g></g><g id="e25e1" class="GroupNone" transform="translate(181,1283)"  ><g class="GroupNone"><rect   width="118" height="178" fill-opacity=".1" stroke-dasharray="5,3" style="fill:#b4b464;stroke:grey"/><g id="abc53" class="Metabolite " transform="translate(9,149)"  name="sLeX" ><rect   width="100" height="20" style="stroke:#00f"/><text   transform="translate(50,10)"     style="fill:#00f">sLeX</text></g><g id="b2b18" class="Metabolite " transform="translate(9,109)"  name="dsLeA" ><rect   width="100" height="20" style="stroke:#00f"/><text   transform="translate(50,10)"     style="fill:#00f">dsLeA</text></g><g id="b8e8a" class="Metabolite " transform="translate(9,89)"  name="Sda" ><rect   width="100" height="20" style="stroke:#00f"/><text   transform="translate(50,10)"     style="fill:#00f">Sda</text></g><g id="bbad5" class="Metabolite " transform="translate(9,129)"  name="sLeA" ><rect   width="100" height="20" style="stroke:#00f"/><text   transform="translate(50,10)"     style="fill:#00f">sLeA</text></g><g id="c4992" class="Metabolite " transform="translate(9,9)"  name="LeA" ><rect   width="100" height="20" style="stroke:#00f"/><text   transform="translate(50,10)"     style="fill:#00f">LeA</text></g><g id="d5598" class="Metabolite " transform="translate(9,69)"  name="LeY" ><rect   width="100" height="20" style="stroke:#00f"/><text   transform="translate(50,10)"     style="fill:#00f">LeY</text></g><g id="f56bb" class="Metabolite " transform="translate(9,29)"  name="LeB" ><rect   width="100" height="20" style="stroke:#00f"/><text   transform="translate(50,10)"     style="fill:#00f">LeB</text></g><g id="fdc3f" class="Metabolite " transform="translate(9,49)"  name="LeX" ><rect   width="100" height="20" style="stroke:#00f"/><text   transform="translate(50,10)"     style="fill:#00f">LeX</text></g></g></g><g id="e95e6" class="GroupComplex" transform="translate(38,1120)"  ><g class="GroupComplex"><use class="Icon" width="124" height="64" fill="#b4b464" fill-opacity=".1" stroke="grey" href="#Octagon"/><g id="bc088" class="Metabolite " transform="translate(12,32)"  name="Mn2+" ><rect   width="100" height="20" style="stroke:#00f"/><text   transform="translate(50,10)"     style="fill:#00f">Mn2+</text></g><g id="d12d0" class="Protein" transform="translate(12,12)"  name="ABO-A" ><rect   width="100" height="20"/><text   transform="translate(50,10)"    >ABO-A</text></g></g></g><g id="f4ae2" class="GroupNone" transform="translate(41,1563)"  ><g class="GroupNone"><rect   width="118" height="118" fill-opacity=".1" stroke-dasharray="5,3" style="fill:#b4b464;stroke:grey"/><g id="a4331" class="Protein" transform="translate(9,89)"  name="FUT11" ><rect   width="100" height="20"/><text   transform="translate(50,10)"    >FUT11</text></g><g id="a53ed" class="Protein" transform="translate(9,49)"  name="FUT9" ><rect   width="100" height="20"/><text   transform="translate(50,10)"    >FUT9</text></g><g id="e1308" class="Protein" transform="translate(9,29)"  name="FUT5" ><rect   width="100" height="20"/><text   transform="translate(50,10)"    >FUT5</text></g><g id="efab7" class="Protein" transform="translate(9,9)"  name="FUT4" ><rect   width="100" height="20"/><text   transform="translate(50,10)"    >FUT4</text></g><g id="f305d" class="Protein" transform="translate(9,69)"  name="FUT10" ><rect   width="100" height="20"/><text   transform="translate(50,10)"    >FUT10</text></g></g></g></g></g></g></svg>