<?xml version="1.0" encoding="UTF-8"?>
<svg xmlns="http://www.w3.org/2000/svg" id="-svg" class="Diagram"  baseProfile="full" prefix="schema:http://schema.org/" preserveAspectRatio="xMidYMid"  version="1.1"><defs><g id="icon-defs"><symbol id="Ellipse" class=" Icon Ellipse" x="0" y="0" overflow="visible" preserveAspectRatio="none" viewBox="0 0 50 50"><desc>Ellipse</desc><ellipse cx="25" cy="25" rx="25" ry="25" vector-effect="non-scaling-stroke"/></symbol><symbol id="Octagon" class=" Icon Octagon" x="0" y="0" overflow="visible" preserveAspectRatio="none" viewBox="0 0 100 100"><desc>Octagon</desc><path d="m0 25 25-25h50l25 25v50l-25 25h-50l-25-25z" vector-effect="non-scaling-stroke"/></symbol></g><g id="marker-defs"><marker id="memcatalysis000" markerHeight="12" markerWidth="12" orient="auto" preserveAspectRatio="none" refX="12" refY="6" viewBox="0 0 12 12"><g id="g-memcatalysis000" transform=""><g transform="rotate(180 6 6)"><circle cx="6" cy="6" r="5.3px" fill="#fff" stroke="#000"/></g></g></marker><marker id="mea" markerHeight="12" markerWidth="12" orient="auto" preserveAspectRatio="none" refX="12" refY="6" viewBox="0 0 12 12"><g id="g-mea" transform=""><g transform="rotate(180 6 6)"><rect y="5.4" width="2" height="1.2" style="stroke:#fff"/><polygon points="12 11 0 6 12 1" stroke-width="0"/></g></g></marker><marker id="memconversion000" markerHeight="12" markerWidth="12" orient="auto" preserveAspectRatio="none" refX="12" refY="6" viewBox="0 0 12 12"><g id="g-memconversion000" transform=""><g transform="rotate(180 6 6)"><rect y="5.4" width="2" height="1.2" style="stroke:#fff"/><polygon points="12 11 0 6 12 1" stroke-width="0"/></g></g></marker></g></defs><g id="viewport-20220102144730329" class="svg-pan-zoom_viewport" transform="matrix(0.61 0 0 0.61 0 108.2)" style="transform:matrix(0.61, 0, 0, 0.61, 0, 108.20)"><style>svg.Diagram {font-family: 'Liberation Sans', Arial, sans-serif; }.Diagram path {fill: transparent;stroke: #000;marker-end: url(#mea);}.Diagram symbol path {fill: inherit;stroke: inherit;stroke-width: inherit;marker-end: inherit;}.Diagram rect {fill: #fff;stroke: #000;}.Diagram text {dominant-baseline: central;overflow: hidden;text-anchor: middle;fill: #000;font-size: 12px;}</style><style type="text/css">.Viewport .textContent {
  pointer-events: none;
  stroke-width: 0px;
}

					.Viewport.Icon {
  fill: white;
}

/* Hide the InfoBox */
.Viewport.textContent {
  font-size: 0;
}

.textContent {
  stroke: none;
}

.DataNode {
  stroke-miterlimit: 1;
  pointer-events: auto;
}

.DataNode:hover {
  cursor: pointer;
}

/* TODO should this apply to things other than DataNodes? */
.DataNode.textContent {
  pointer-events: none;
}

.DataNode.Highlighted {
  opacity: 0.6;
  stroke-width: 0px;
}

marker {
  /* this is what should work per the spec
  stroke-dasharray: none; */
  /* but I need to add this to make it work in Safari */
  stroke-dasharray: 9999999999999999999999999;
}

.Citation.Icon {
  fill: none;
  stroke-width: 0px;
}

.Citation.textContent {
  text-align: center;
  vertical-align: top;
  font-size: 7px;
  fill: #999;
  fill-opacity: 1;
  stroke: none;
}</style><g id="WP4971" class="Pathway http___identifiers_org_pw_PW_0002417 Viewport"  name="Name: Phosphoinositides metabolism Organism: Homo sapiens" ><g class="Pathway http___identifiers_org_pw_PW_0002417 Viewport"><rect   width="1963.9" height="740.74" style="stroke:none"/><g id="id16059930" class="Rhea_25529"  ><path    d="m1444.7 288.42-371.63 325.54" style="marker-end:url(#memconversion000)"/><g id="eb48d" class="AB" transform="translate(1296 418.64)"  ><g class="AB"/></g></g><g id="id2ddcb487" class="Edge"  ><path    d="m992.44 306.15 3.67 13.63" style="marker-end:none"/></g><g id="id258f298a" class="Rhea_21294"  ><path    d="m1390.2 270.31-390.1-144.64" style="marker-end:url(#memconversion000)"/><g id="c2cd0" class="AB" transform="translate(1166.6 187.39)"  ><g class="AB"/></g></g><g id="id53836e2e" class="Edge"  ><path    d="m465.4 87.79 8.36 9.77" style="marker-end:none"/></g><g id="id25f4d717" class="Rhea_14427"  ><path    d="m1018.6 329.78-72.92-186.01" style="marker-end:url(#memconversion000)"/><g id="a6804" class="AB" transform="translate(982.01 236.49)"  ><g class="AB"/></g></g><g id="id8ea18bf6" class="Edge"  ><path    d="m1423.3 227.02-1.15 15.18" style="marker-end:none"/></g><g id="id27fd394c" class="Rhea_18375"  ><path    d="m1045.8 366.01v220.79" style="marker-end:url(#memconversion000)"/><g id="deff4" class="AB" transform="translate(1045.8 454.32)"  ><g class="AB"/></g></g><g id="idb0670b43" class="Edge"  ><path    d="m477.3 306.15-3.54 13.63" style="marker-end:none"/></g><g id="idf0f9ba93" class="Edge"  ><path    d="m968.01 570.36 28.10 6.44" style="marker-end:none"/></g><g id="idfe391501" class="Edge"  ><path    d="m480.02 567.38-6.26 9.42" style="marker-end:none"/></g><g id="id3934985d" class="Edge"  ><path    d="m1090.3 187.16 76.30 0.24" style="marker-end:url(#memcatalysis000)"/></g><g id="id44a279d0" class="Rhea_12281"  ><path    d="m550.68 116.61 340.53-3e-14" style="marker-end:url(#memconversion000)"/><g id="f26b1" class="AB" transform="translate(721.17 116.61)"  ><g class="AB"/></g></g><g id="id503e90bf" class="Rhea_25530"  ><path    d="m1073 595.85 344.41-307.43" style="marker-end:url(#memconversion000)"/><g id="fc9c9" class="AB" transform="translate(1215.4 468.76)"  ><g class="AB"/></g></g><g id="id5f48fbe" class="Rhea_17194"  ><path    d="m964.13 604.91h-413.45" style="marker-end:url(#memconversion000)"/><g id="ea7d8" class="AB" transform="translate(773.25 604.91)"  ><g class="AB"/></g></g><g id="id7170c556" class="Rhea_55653"  ><path    d="m964.13 356.95-413.45 1e-13" style="marker-end:url(#memconversion000)"/><g id="aa2e3" class="AB" transform="translate(837.21 356.95)"  ><g class="AB"/></g></g><g id="id741db54d" class="Edge"  ><path    d="m168.58 235.6 273.2-100.88" style="marker-end:url(#memconversion000)"/><g id="a19f6" class="AB" transform="translate(342.87 171.24)"  ><g class="AB"/></g></g><g id="id88e07046" class="Edge"  ><path    d="m523.45 143.78v186.01" stroke-dasharray="5,3"/></g><g id="id8a3aba31" class="Rhea_21293"  ><path    d="m1000.1 116.61 390.1 144.64" style="marker-end:url(#memconversion000)"/><g id="a2fc1" class="AB" transform="translate(1126.8 163.59)"  ><g class="AB"/></g></g><g id="id8c9035b0" class="Rhea_55654"  ><path    d="m550.68 338.84h413.45" style="marker-end:url(#memconversion000)"/><g id="e0980" class="AB" transform="translate(711.93 338.84)"  ><g class="AB"/></g></g><g id="id97188e21" class="Rhea_12710"  ><path    d="m523.45 366.01v220.79" style="marker-end:url(#memconversion000)"/><g id="d59c9" class="AB" transform="translate(523.45 528.74)"  ><g class="AB"/></g></g><g id="id9bdbb488" class="Rhea_12318"  ><path    d="m496.23 366.01v220.79" style="marker-end:url(#memconversion000)"/><g id="b6429" class="AB" transform="translate(496.23 478.51)"  ><g class="AB"/></g></g><g id="id54810803" class="Edge"  ><path    d="m435.18 377.04 61.05 101.47" style="marker-end:url(#memconversion000)"/></g><g id="idb76ba86a" class="Rhea_33180"  ><path    d="m972.88 107.56v-25.98h217.78" style="marker-end:url(#memconversion000)"/><g id="dde6b" class="AB" transform="translate(1044.4 81.57)"  ><g class="AB"/></g></g><g id="idc6bff518" class="Rhea_17195"  ><path    d="m550.68 595.85h413.45" style="marker-end:url(#memconversion000)"/><g id="c3a63" class="AB" transform="translate(836.36 595.85)"  ><g class="AB"/></g></g><g id="idce77ef5b" class="Edge"  ><path    d="m650.66 529.45-127.21-0.71" style="marker-end:url(#memcatalysis000)"/></g><g id="idda7a54c1" class="Rhea_33180"  ><path    d="m1044.4 81.57 115.57 47.14" style="marker-end:url(#memconversion000)"/></g><g id="iddfa2f862" class="Rhea_12317"  ><path    d="m469 586.8v-220.79" style="marker-end:url(#memconversion000)"/><g id="a54c9" class="AB" transform="translate(469 449.56)"  ><g class="AB"/></g><g id="b7a3d" class="AB" transform="translate(469 498.48)"  ><g class="AB"/></g></g><g id="ida71271cc" class="Edge"  ><path    d="m469 449.56-33.82-66.27" style="marker-end:url(#memconversion000)"/></g><g id="idbb285b02" class="Edge"  ><path    d="m442.05 449.69 26.96-0.13" style="marker-end:url(#memcatalysis000)"/></g><g id="idbd109e69" class="Edge"  ><path    d="m441.18 498 27.82 0.48" style="marker-end:url(#memcatalysis000)"/></g><g id="ideba742b7" class="Edge"  ><path    d="m560.28 500.18-36.83 28.56" style="marker-end:url(#memconversion000)"/></g><g id="ided0890cb" class="Edge"  ><path    d="m1357.1 392.46-61.14 26.18" style="marker-end:url(#memcatalysis000)"/></g><g id="idf46796ac" class="Rhea_18374"  ><path    d="m1018.6 586.8v-220.79" style="marker-end:url(#memconversion000)"/><g id="c39c6" class="AB" transform="translate(1018.6 477.23)"  ><g class="AB"/></g></g><g id="id47e580a6" class="Edge"  ><path    d="m993.66 437.81 24.93 39.42" style="marker-end:url(#memcatalysis000)"/></g><g id="idf5b5da68" class="Edge"  ><path    d="m445.47 532.82 23.54-83.26" style="marker-end:url(#memconversion000)"/></g><g id="idfb679763" class="Rhea_14426"  ><path    d="m972.88 143.78 72.92 186.01" style="marker-end:url(#memconversion000)"/><g id="c65de" class="AB" transform="translate(1007 230.85)"  ><g class="AB"/></g></g><g id="cbab2" class="Edge"  ><path    d="m1007 230.85 72.80 47.79"/></g><g id="idf1ccf22b" class="Edge"  ><path    d="m1063.7 230.52-56.65 0.33" style="marker-end:url(#memcatalysis000)"/></g><g id="idfb8ce1eb" class="Rhea_13610"  ><path    d="m441.78 595.85-327.65-342.15" style="marker-end:url(#memconversion000)"/><g id="a7540" class="AB" transform="translate(310.72 459)"  ><g class="AB"/></g></g><g id="id579a5cd1" class="Edge"  ><path    d="m326.74 425-16.02 34.00" style="marker-end:url(#memcatalysis000)"/></g><g id="id9da4df60" class="Edge"  ><path    d="m1254.5 357.03-39.10 111.73" style="marker-end:url(#memcatalysis000)"/></g><g id="idcd7f92b3" class="Edge"  ><path    d="m950.06 232.82 31.94 3.67" style="marker-end:url(#memcatalysis000)"/></g><g id="iddb6948f0" class="Edge"  ><path    d="m776.87 627.32-3.62-22.41" style="marker-end:url(#memcatalysis000)"/></g><g id="id798f0010" class="Edge"  ><path    d="m688.19 451.88h-124.66v26.62h-67.29" style="marker-end:url(#memcatalysis000)"/></g><g id="id35bfcae2" class="Edge"  ><path    d="m1461.4 57.66h-6.93v-28.22h-410.05v52.13" style="marker-end:url(#memcatalysis000)"/></g><g id="id8e1e9e6b" class="Edge"  ><path    d="m334.7 212.47 8.18-41.23" style="marker-end:url(#memcatalysis000)"/></g><g id="ide21e0126" class="Edge"  ><path    d="m467.18 281.97 1.82 167.59" style="marker-end:url(#memcatalysis000)"/></g><g id="id5eb0532e" class="Edge"  ><path    d="m534.16 405.77-37.93 72.74" style="marker-end:url(#memcatalysis000)"/></g><g id="id1329b9e0" class="Edge"  ><path    d="m714.35 188.96 1.69-63.29" style="marker-end:url(#memcatalysis000)"/></g><g id="id949592bc" class="Edge"  ><path    d="m714.35 280.38-2.42 58.46" style="marker-end:url(#memcatalysis000)"/></g><g id="id6c3340b" class="Edge"  ><path    d="m1078.3 383.96-32.47 70.36" style="marker-end:url(#memcatalysis000)"/></g><g id="id36ffbc3f" class="Edge"  ><path    d="m717.42 90.59 3.74 26.02" style="marker-end:url(#memcatalysis000)"/></g><g id="idb4f9a2fd" class="Edge"  ><path    d="m1271.6 163.24-144.76 0.35" style="marker-end:url(#memcatalysis000)"/></g><g id="id563f655a" class="Edge"  ><path    d="m837.32 377.47-0.11-20.52" style="marker-end:url(#memcatalysis000)"/></g><g id="id7ccaa0ad" class="Edge"  ><path    d="m837.32 496.5-0.96 99.36" style="marker-end:url(#memcatalysis000)"/></g><g id="cb0cf" class="Label" transform="translate(441.6 70.10)"  name="DAG" ><g class="Label"/><text   transform="translate(23.80 8.84)"     style="fill:#ff6666">DAG</text></g><g id="fffc2" class="Label" transform="translate(1047.8 278.64)"  name="Oculocerebrorenal  syndrome of Lowe" ><rect   width="127.98" height="29.38" rx="15" ry="15" style="fill:#fcc;stroke:#00f"/><text   transform="translate(63.99 14.69)"     style="fill:#00f"><tspan   x="0" y="-6.60">Oculocerebrorenal </tspan><tspan   x="0" y="6.60">syndrome of Lowe</tspan></text></g><g id="d01f4" class="GroupComplex" transform="translate(625.46 479.22)"  ><g class="GroupComplex"><use class="Icon" width="114" height="101.91" fill="#b4b464" fill-opacity=".1" stroke="grey" href="#Octagon"/><g id="c377a" class="Protein" transform="translate(12,12)"  name="PI-3 kinase III" ><rect   width="90" height="25" style="stroke:#404040"/><text   transform="translate(45,12.5)"     style="fill:#404040">PI-3 kinase III</text></g><g id="c79cb" class="Protein" transform="translate(25.20 37)"  name="PIK3C3" ><rect   width="63.60" height="26.45"/><text   transform="translate(31.80 13.23)"    >PIK3C3</text></g><g id="e1e70" class="Protein" transform="translate(25.20 63.45)"  name="PIK3R4" ><rect   width="63.60" height="26.45"/><text   transform="translate(31.80 13.23)"    >PIK3R4</text></g></g></g><g id="d1094" class="GroupGroup" transform="translate(1461.4 15.16)"  ><g class="GroupGroup"><g id="f7d4d" class="Label" transform="translate(8 36.98)"  name="Beta isotypes:" ><g class="Label"/><text   transform="translate(58.07 12.5)"    >Beta isotypes:</text></g><g id="cea18" class="Protein" transform="translate(8 86.98)"  name="PLCB2" ><rect   width="116.14" height="25"/><text   transform="translate(58.07 12.5)"    >PLCB2</text></g><g id="de989" class="Protein" transform="translate(356.42 61.98)"  name="PLCH1" ><rect   width="116.14" height="25"/><text   transform="translate(58.07 12.5)"    >PLCH1</text></g><g id="e95dc" class="Protein" transform="translate(124.14 61.98)"  name="PLCG1" ><rect   width="116.14" height="25"/><text   transform="translate(58.07 12.5)"    >PLCG1</text></g><g id="f677d" class="Protein" transform="translate(8 61.98)"  name="PLCB1" ><rect   width="116.14" height="25"/><text   transform="translate(58.07 12.5)"    >PLCB1</text></g><g id="a104e" class="Protein" transform="translate(142.33 8)"  name="Phospholipase C" ><rect   width="116.14" height="25"/><text   transform="translate(58.07 12.5)"    >Phospholipase C</text></g><g id="f3dce" class="Protein" transform="translate(8 111.98)"  name="PLCB3" ><rect   width="116.14" height="25"/><text   transform="translate(58.07 12.5)"    >PLCB3</text></g><g id="f81cf" class="Protein" transform="translate(8 136.98)"  name="PLCB4" ><rect   width="116.14" height="25"/><text   transform="translate(58.07 12.5)"    >PLCB4</text></g><g id="b263e" class="Label" transform="translate(124.14 36.98)"  name="Gamma isotypes:" ><g class="Label"/><text   transform="translate(58.07 12.5)"    >Gamma isotypes:</text></g><g id="ca6d3" class="Protein" transform="translate(124.14 86.98)"  name="PLCG2" ><rect   width="116.14" height="25"/><text   transform="translate(58.07 12.5)"    >PLCG2</text></g><g id="d2b18" class="Label" transform="translate(124.14 111.98)"  name="Epsilon isotype:" ><g class="Label"/><text   transform="translate(58.07 12.5)"    >Epsilon isotype:</text></g><g id="be0a1" class="Protein" transform="translate(124.14 136.98)"  name="PLCE1" ><rect   width="116.14" height="25"/><text   transform="translate(58.07 12.5)"    >PLCE1</text></g><g id="d96c7" class="Label" transform="translate(240.28 36.98)"  name="Delta isotypes:" ><g class="Label"/><text   transform="translate(58.07 12.5)"    >Delta isotypes:</text></g><g id="eccb2" class="Protein" transform="translate(240.28 61.98)"  name="PLCD1" ><rect   width="116.14" height="25"/><text   transform="translate(58.07 12.5)"    >PLCD1</text></g><g id="c83ca" class="Protein" transform="translate(240.28 86.98)"  name="PLCD3" ><rect   width="116.14" height="25"/><text   transform="translate(58.07 12.5)"    >PLCD3</text></g><g id="f9b36" class="Protein" transform="translate(240.28 111.98)"  name="PLCD4" ><rect   width="116.14" height="25"/><text   transform="translate(58.07 12.5)"    >PLCD4</text></g><g id="bf80b" class="Label" transform="translate(356.42 36.98)"  name="Eta isotypes:" ><g class="Label"/><text   transform="translate(58.07 12.5)"    >Eta isotypes:</text></g><g id="b4512" class="Label" transform="translate(356.42 111.98)"  name="Zeta isotype:" ><g class="Label"/><text   transform="translate(58.07 12.5)"    >Zeta isotype:</text></g><g id="a446a" class="Protein" transform="translate(356.42 86.98)"  name="PLCH2" ><rect   width="116.14" height="25"/><text   transform="translate(58.07 12.5)"    >PLCH2</text></g><g id="fcea9" class="Protein" transform="translate(356.42 136.98)"  name="PLCZ1" ><rect   width="116.14" height="25"/><text   transform="translate(58.07 12.5)"    >PLCZ1</text></g></g></g><g id="d51c9" class="GroupGroup" transform="translate(202.21 212.47)"  ><g class="GroupGroup"><g id="ad35e" class="Label" transform="translate(87.12 8)"  name="MTMRs" ><g class="Label"/><text   transform="translate(45,12.5)"     style="fill:#404040">MTMRs</text></g><g id="d2648" class="Protein" transform="translate(8,31)"  name="MTMR1" ><rect   width="62.24" height="25" style="stroke:#990"/><text   transform="translate(31.12 12.5)"     style="fill:#999900">MTMR1</text></g><g id="a71bd" class="Protein" transform="translate(132.48 81)"  name="MTMR10" ><rect   width="62.24" height="25" style="stroke:#f90"/><text   transform="translate(31.12 12.5)"     style="fill:#ff9900">MTMR10</text></g><g id="bf78e" class="Protein" transform="translate(70.24 56)"  name="MTMR11" ><rect   width="62.24" height="25" style="stroke:#f90"/><text   transform="translate(31.12 12.5)"     style="fill:#ff9900">MTMR11</text></g><g id="f2dbf" class="Protein" transform="translate(70.24 81)"  name="MTMR12" ><rect   width="62.24" height="25" style="stroke:#f90"/><text   transform="translate(31.12 12.5)"     style="fill:#ff9900">MTMR12</text></g><g id="b9b0f" class="Protein" transform="translate(8,56)"  name="MTMR2" ><rect   width="62.24" height="25" style="stroke:#990"/><text   transform="translate(31.12 12.5)"     style="fill:#999900">MTMR2</text></g><g id="e0f6d" class="Protein" transform="translate(132.48 31)"  name="MTMR3" ><rect   width="62.24" height="25" style="stroke:#990"/><text   transform="translate(31.12 12.5)"     style="fill:#999900">MTMR3</text></g><g id="c6bab" class="Protein" transform="translate(194.72 56)"  name="MTMR4" ><rect   width="62.24" height="25" style="stroke:#f90"/><text   transform="translate(31.12 12.5)"     style="fill:#ff9900">MTMR4</text></g><g id="ac829" class="Protein" transform="translate(194.72 31)"  name="MTMR6" ><rect   width="62.24" height="25" style="stroke:#990"/><text   transform="translate(31.12 12.5)"     style="fill:#999900">MTMR6</text></g><g id="cff95" class="Protein" transform="translate(8,81)"  name="MTMR7" ><rect   width="62.24" height="25" style="stroke:#990"/><text   transform="translate(31.12 12.5)"     style="fill:#999900">MTMR7</text></g><g id="a4e60" class="Protein" transform="translate(132.48 56)"  name="MTMR8" ><rect   width="62.24" height="25" style="stroke:#990"/><text   transform="translate(31.12 12.5)"     style="fill:#999900">MTMR8</text></g><g id="df6b2" class="Protein" transform="translate(70.24 31)"  name="MTMR9" ><rect   width="62.24" height="25" style="stroke:#f90"/><text   transform="translate(31.12 12.5)"     style="fill:#ff9900">MTMR9</text></g><g id="cdcd2" class="Protein" transform="translate(132.48 106)"  name="SBF2" ><rect   width="62.24" height="25" style="stroke:#f90"/><text   transform="translate(31.12 12.5)"     style="fill:#ff9900">SBF2</text></g><g id="c83a8" class="Protein" transform="translate(70.24 106)"  name="SBF1" ><rect   width="62.24" height="25" style="stroke:#f90"/><text   transform="translate(31.12 12.5)"     style="fill:#ff9900">SBF1</text></g></g></g><g id="a87e2" class="Metabolite " transform="translate(441.78 107.56)"  name="PtdIns(5)P" ><rect   width="108.9" height="36.22" style="stroke:#03c"/><g id="c7d9b" class="State Burr" transform="translate(98.90 26.22)"  name="P5" ><g class="State Burr"><use class="State Burr Node Icon" width="20" height="20" fill="#fff" stroke="#000" href="#Ellipse"/></g><g ><defs><clipPath ><rect x="-10" y="-10" width="20" height="20" style="stroke:none"/></clipPath></defs><text   transform="translate(10,10)"  font-family="arial" overflow="visible" style="font-size:10px">P5</text></g></g><g id="deede" class="State Burr" transform="translate(21.98 -10)"  name="P1" ><g class="State Burr"><use class="State Burr Node Icon" width="20" height="20" fill="#fff" stroke="#000" href="#Ellipse"/></g><g ><defs><clipPath ><rect x="-10" y="-10" width="20" height="20" style="stroke:none"/></clipPath></defs><text   transform="translate(10,10)"  font-family="arial" overflow="visible" style="font-size:10px">P1</text></g></g><text   transform="translate(54.45 18.11)"     style="fill:#0033cc">PtdIns(5)P</text></g><g id="aacdc" class="Metabolite " transform="translate(1115 128.71)"  name="DAG" ><rect   width="90" height="25" style="stroke:#03c"/><text   transform="translate(45,12.5)"     style="fill:#0033cc">DAG</text></g><g id="af3a9" class="Protein" transform="translate(903.66 423.07)"  name="PTEN" ><rect   width="90" height="29.47"/><text   transform="translate(45 14.74)"    >PTEN</text></g><g id="b30e5" class="Protein" transform="translate(382.89 485.5)"  name="SACM1L" ><rect   width="58.30" height="25"/><text   transform="translate(29.15 12.5)"    >SACM1L</text></g><g id="cdf54" class="Metabolite " transform="translate(560.28 489.87)"  name="ATP" ><rect   width="45.68" height="20.62" rx="15" ry="15" style="stroke:#00f"/><text   transform="translate(22.84 10.31)"     style="fill:#00f">ATP</text></g><g id="d4216" class="Metabolite " transform="translate(398.9 526.57)"  name="H2O" ><rect   width="46.57" height="25" rx="15" ry="15" style="stroke:#00f"/><text   transform="translate(23.28 12.5)"     style="fill:#00f">H2O</text></g><g id="d4d9b" class="Protein" transform="translate(293.49 398.67)"  name="PIKfyve" ><rect   width="66.51" height="26.33"/><text   transform="translate(33.26 13.17)"    >PIKfyve</text></g><g id="dfdac" class="Metabolite " transform="translate(345.18 370.79)"  name="Phosphate" ><rect   width="90" height="25" rx="15" ry="15" style="stroke:#00f"/><text   transform="translate(45,12.5)"     style="fill:#00f">Phosphate</text></g><g id="e7975" class="Protein" transform="translate(1017.4 173.66)"  name="PTEN" ><rect   width="72.94" height="26.99"/><text   transform="translate(36.47 13.49)"    >PTEN</text></g><g id="ec36c" class="Protein" transform="translate(383.75 437.19)"  name="MTM1" ><rect   width="58.30" height="25" style="stroke:#990"/><text   transform="translate(29.15 12.5)"     style="fill:#999900">MTM1</text></g><g id="f5232" class="Protein" transform="translate(1063.7 215.78)"  name="OCRL" ><rect   width="90" height="29.47"/><text   transform="translate(45 14.74)"    >OCRL</text></g><g id="f6b50" class="Metabolite " transform="translate(891.21 107.56)"  name="PtdIns(4,5)P2" ><rect   width="108.9" height="36.22" style="stroke:#03c"/><g id="ba89c" class="State Burr" transform="translate(20.02 -10)"  name="P1" ><g class="State Burr"><use class="State Burr Node Icon" width="20" height="20" fill="#fff" stroke="#000" href="#Ellipse"/></g><g ><defs><clipPath ><rect x="-10" y="-10" width="20" height="20" style="stroke:none"/></clipPath></defs><text   transform="translate(10,10)"  font-family="arial" overflow="visible" style="font-size:10px">P1</text></g></g><g id="e3424" class="State Burr" transform="translate(58.12 26.22)"  name="P4" ><g class="State Burr"><use class="State Burr Node Icon" width="20" height="20" fill="#fff" stroke="#000" href="#Ellipse"/></g><g ><defs><clipPath ><rect x="-10" y="-10" width="20" height="20" style="stroke:none"/></clipPath></defs><text   transform="translate(10,10)"  font-family="arial" overflow="visible" style="font-size:10px">P4</text></g></g><g id="f63db" class="State Burr" transform="translate(98.90 26.22)"  name="P5" ><g class="State Burr"><use class="State Burr Node Icon" width="20" height="20" fill="#fff" stroke="#000" href="#Ellipse"/></g><g ><defs><clipPath ><rect x="-10" y="-10" width="20" height="20" style="stroke:none"/></clipPath></defs><text   transform="translate(10,10)"  font-family="arial" overflow="visible" style="font-size:10px">P5</text></g></g><text   transform="translate(54.45 18.11)"     style="fill:#0033cc">PtdIns(4,5)P2</text></g><g id="ff2c6" class="Protein" transform="translate(1357.1 377.73)"  name="SHIP (1)" ><rect   width="90" height="29.47"/><text   transform="translate(45 14.74)"    >SHIP (1)</text></g><g id="b8d3e" class="GroupGroup" transform="translate(810.8 181.08)"  ><g class="GroupGroup"><g id="a33c5" class="Protein" transform="translate(8,8)"  name="PIP-5 kinase alpha" ><rect   width="123.26" height="29.16"/><text   transform="translate(61.63 14.58)"    >PIP-5 kinase alpha</text></g><g id="d670c" class="Protein" transform="translate(8 66.32)"  name="PIP-5 kinase gamma" ><rect   width="123.26" height="29.16"/><text   transform="translate(61.63 14.58)"    >PIP-5 kinase gamma</text></g><g id="cd2c1" class="Protein" transform="translate(8 37.16)"  name="PIP-5 kinase beta" ><rect   width="123.26" height="29.16"/><text   transform="translate(61.63 14.58)"    >PIP-5 kinase beta</text></g></g></g><g id="cf038" class="GroupGroup" transform="translate(688.19 364.88)"  ><g class="GroupGroup"><g id="e7002" class="Protein" transform="translate(16.84 33)"  name="PI3K-C2&#945;" ><rect   width="72.31" height="25"/><text   transform="translate(36.16 12.5)"    >PI3K-C2&#945;</text></g><g id="a0d34" class="Protein" transform="translate(8,8)"  name="PI-3 kinase II" ><rect   width="90" height="25"/><text   transform="translate(45,12.5)"    >PI-3 kinase II</text></g><g id="ad0ce" class="Protein" transform="translate(16.84 58)"  name="PI3K-C2&#946;" ><rect   width="72.31" height="25"/><text   transform="translate(36.16 12.5)"    >PI3K-C2&#946;</text></g><g id="f3cad" class="Protein" transform="translate(16.84 83)"  name="PI3K-C2&#947;" ><rect   width="72.31" height="25"/><text   transform="translate(36.16 12.5)"    >PI3K-C2&#947;</text></g></g></g><g id="da968" class="GroupGroup" transform="translate(655.8 188.96)"  ><g class="GroupGroup"><g id="ad866" class="Protein" transform="translate(8,8)"  name="4-phosphatase" ><rect   width="101.09" height="25.14"/><text   transform="translate(50.54 12.57)"    >4-phosphatase</text></g><g id="fefff" class="Protein" transform="translate(8 33.14)"  name="PIP4P1" ><rect   width="101.09" height="25.14"/><text   transform="translate(50.54 12.57)"    >PIP4P1</text></g><g id="d8f04" class="Protein" transform="translate(8 58.28)"  name="PIP4P2" ><rect   width="101.09" height="25.14"/><text   transform="translate(50.54 12.57)"    >PIP4P2</text></g></g></g><g id="f4855" class="GroupGroup" transform="translate(623.13 23.07)"  ><g class="GroupGroup"><g id="bbb05" class="Protein" transform="translate(8,8)"  name="PIP-4 kinase" ><rect   width="86.29" height="25.76"/><text   transform="translate(43.14 12.88)"    >PIP-4 kinase</text></g><g id="d2ce4" class="Protein" transform="translate(94.29 8)"  name="PIP4K2A" ><rect   width="86.29" height="25.76"/><text   transform="translate(43.14 12.88)"    >PIP4K2A</text></g><g id="c0fb3" class="Protein" transform="translate(8 33.76)"  name="PIP4K2C" ><rect   width="86.29" height="25.76"/><text   transform="translate(43.14 12.88)"    >PIP4K2C</text></g><g id="bc33d" class="Protein" transform="translate(94.29 33.76)"  name="PIP4K2B" ><rect   width="86.29" height="25.76"/><text   transform="translate(43.14 12.88)"    >PIP4K2B</text></g></g></g><g id="f7393" class="GroupGroup" transform="translate(1271.6 119.21)"  ><g class="GroupGroup"><g id="f6874" class="Protein" transform="translate(8 32.36)"  name="PIK3CG" ><rect   width="72.31" height="23.86"/><text   transform="translate(36.16 11.93)"    >PIK3CG</text></g><g id="feee2" class="Protein" transform="translate(35.31 8)"  name="PI-3 kinase I" ><rect   width="90" height="25"/><text   transform="translate(45,12.5)"    >PI-3 kinase I</text></g><g id="c5ebd" class="Protein" transform="translate(80.31 32.36)"  name="PIK3CB" ><rect   width="72.31" height="23.86"/><text   transform="translate(36.16 11.93)"    >PIK3CB</text></g><g id="d75a3" class="Protein" transform="translate(8 56.21)"  name="PIK3CA" ><rect   width="72.31" height="23.86"/><text   transform="translate(36.16 11.93)"    >PIK3CA</text></g><g id="d5b68" class="Protein" transform="translate(80.31 56.21)"  name="PIK3CD" ><rect   width="72.31" height="23.86"/><text   transform="translate(36.16 11.93)"    >PIK3CD</text></g></g></g><g id="bc391" class="Rhea_12282"  ><path    d="m891.21 125.67-340.53 3e-14" style="marker-end:url(#memconversion000)"/><g id="bdbe8" class="AB" transform="translate(716.03 125.67)"  ><g class="AB"/></g></g><g id="db56d" class="Label" transform="translate(898.45 70.10)"  name="DAG" ><g class="Label"/><text   transform="translate(23.80 8.84)"     style="fill:#ff6666">DAG</text></g><g id="adf33" class="Edge"  ><path    d="m922.25 87.79-1.02 9.77" style="marker-end:none"/></g><g id="b20cc" class="Metabolite " transform="translate(59.68 217.49)"  name="PtdIns(3,5)P2" ><rect   width="108.9" height="36.22" style="stroke:#00f"/><g id="af720" class="State Burr" transform="translate(21.98 -10)"  name="P1" ><g class="State Burr"><use class="State Burr Node Icon" width="20" height="20" fill="#fff" stroke="#000" href="#Ellipse"/></g><g ><defs><clipPath ><rect x="-10" y="-10" width="20" height="20" style="stroke:none"/></clipPath></defs><text   transform="translate(10,10)"  font-family="arial" overflow="visible" style="font-size:10px">P1</text></g></g><g id="dcefc" class="State Burr" transform="translate(98.90 26.22)"  name="P5" ><g class="State Burr"><use class="State Burr Node Icon" width="20" height="20" fill="#fff" stroke="#000" href="#Ellipse"/></g><g ><defs><clipPath ><rect x="-10" y="-10" width="20" height="20" style="stroke:none"/></clipPath></defs><text   transform="translate(10,10)"  font-family="arial" overflow="visible" style="font-size:10px">P5</text></g></g><g id="e4ec2" class="State Burr" transform="translate(-8.19 24.88)"  name="P3" ><g class="State Burr"><use class="State Burr Node Icon" width="20" height="20" fill="#fff" stroke="#000" href="#Ellipse"/></g><g ><defs><clipPath ><rect x="-10" y="-10" width="20" height="20" style="stroke:none"/></clipPath></defs><text   transform="translate(10,10)"  font-family="arial" overflow="visible" style="font-size:10px">P3</text></g></g><text   transform="translate(54.45 18.11)"     style="fill:#00f">PtdIns(3,5)P2</text></g><g id="ca657" class="Label" transform="translate(67.54 177.58)"  name="DAG" ><g class="Label"/><text   transform="translate(23.80 8.84)"     style="fill:#ff6666">DAG</text></g><g id="d2037" class="Edge"  ><path    d="m91.34 195.26 0.32 12.22" style="marker-end:none"/></g><g id="e1f13" class="Metabolite " transform="translate(441.78 329.78)"  name="PtdIns" ><rect   width="108.9" height="36.22" style="stroke:#00f"/><g id="b2fee" class="State Burr" transform="translate(21.98 -10)"  name="P1" ><g class="State Burr"><use class="State Burr Node Icon" width="20" height="20" fill="#fff" stroke="#000" href="#Ellipse"/></g><g ><defs><clipPath ><rect x="-10" y="-10" width="20" height="20" style="stroke:none"/></clipPath></defs><text   transform="translate(10,10)"  font-family="arial" overflow="visible" style="font-size:10px">P1</text></g></g><text   transform="translate(54.45 18.11)"     style="fill:#00f">PtdIns</text></g><g id="aaacf" class="Label" transform="translate(453.5 288.47)"  name="DAG" ><g class="Label"/><text   transform="translate(23.80 8.84)"     style="fill:#ff6666">DAG</text></g><g id="adfe2" class="Metabolite " transform="translate(441.78 586.8)"  name="PtdIns(3)P" ><rect   width="108.9" height="36.22" style="stroke:#00f"/><g id="e0f87" class="State Burr" transform="translate(-8.19 24.88)"  name="P3" ><g class="State Burr"><use class="State Burr Node Icon" width="20" height="20" fill="#fff" stroke="#000" href="#Ellipse"/></g><g ><defs><clipPath ><rect x="-10" y="-10" width="20" height="20" style="stroke:none"/></clipPath></defs><text   transform="translate(10,10)"  font-family="arial" overflow="visible" style="font-size:10px">P3</text></g></g><g id="f2ae8" class="State Burr" transform="translate(21.98 -10)"  name="P1" ><g class="State Burr"><use class="State Burr Node Icon" width="20" height="20" fill="#fff" stroke="#000" href="#Ellipse"/></g><g ><defs><clipPath ><rect x="-10" y="-10" width="20" height="20" style="stroke:none"/></clipPath></defs><text   transform="translate(10,10)"  font-family="arial" overflow="visible" style="font-size:10px">P1</text></g></g><text   transform="translate(54.45 18.11)"     style="fill:#00f">PtdIns(3)P</text></g><g id="ceff6" class="Label" transform="translate(456.22 549.69)"  name="DAG" ><g class="Label"/><text   transform="translate(23.80 8.84)"     style="fill:#ff6666">DAG</text></g><g id="a6246" class="Metabolite " transform="translate(964.13 586.8)"  name="PtdIns(3,4)P2" ><rect   width="108.9" height="36.22" style="stroke:#03c"/><g id="c0be4" class="State Burr" transform="translate(56.21 26.22)"  name="P4" ><g class="State Burr"><use class="State Burr Node Icon" width="20" height="20" fill="#fff" stroke="#000" href="#Ellipse"/></g><g ><defs><clipPath ><rect x="-10" y="-10" width="20" height="20" style="stroke:none"/></clipPath></defs><text   transform="translate(10,10)"  font-family="arial" overflow="visible" style="font-size:10px">P4</text></g></g><g id="f1309" class="State Burr" transform="translate(21.98 -10)"  name="P1" ><g class="State Burr"><use class="State Burr Node Icon" width="20" height="20" fill="#fff" stroke="#000" href="#Ellipse"/></g><g ><defs><clipPath ><rect x="-10" y="-10" width="20" height="20" style="stroke:none"/></clipPath></defs><text   transform="translate(10,10)"  font-family="arial" overflow="visible" style="font-size:10px">P1</text></g></g><g id="fe393" class="State Burr" transform="translate(-8.19 24.88)"  name="P3" ><g class="State Burr"><use class="State Burr Node Icon" width="20" height="20" fill="#fff" stroke="#000" href="#Ellipse"/></g><g ><defs><clipPath ><rect x="-10" y="-10" width="20" height="20" style="stroke:none"/></clipPath></defs><text   transform="translate(10,10)"  font-family="arial" overflow="visible" style="font-size:10px">P3</text></g></g><text   transform="translate(54.45 18.11)"     style="fill:#0033cc">PtdIns(3,4)P2</text></g><g id="a3211" class="Label" transform="translate(944.21 552.68)"  name="DAG" ><g class="Label"/><text   transform="translate(23.80 8.84)"     style="fill:#ff6666">DAG</text></g><g id="d61d9" class="Metabolite " transform="translate(964.13 329.78)"  name="PtdIns(4)P" ><rect   width="108.9" height="36.22" style="stroke:#03c"/><g id="a1b92" class="State Burr" transform="translate(56.34 26.22)"  name="P4" ><g class="State Burr"><use class="State Burr Node Icon" width="20" height="20" fill="#fff" stroke="#000" href="#Ellipse"/></g><g ><defs><clipPath ><rect x="-10" y="-10" width="20" height="20" style="stroke:none"/></clipPath></defs><text   transform="translate(10,10)"  font-family="arial" overflow="visible" style="font-size:10px">P4</text></g></g><g id="cce7e" class="State Burr" transform="translate(21.98 -10)"  name="P1" ><g class="State Burr"><use class="State Burr Node Icon" width="20" height="20" fill="#fff" stroke="#000" href="#Ellipse"/></g><g ><defs><clipPath ><rect x="-10" y="-10" width="20" height="20" style="stroke:none"/></clipPath></defs><text   transform="translate(10,10)"  font-family="arial" overflow="visible" style="font-size:10px">P1</text></g></g><text   transform="translate(54.45 18.11)"     style="fill:#0033cc">PtdIns(4)P</text></g><g id="fea7e" class="Label" transform="translate(968.64 288.47)"  name="DAG" ><g class="Label"/><text   transform="translate(23.80 8.84)"     style="fill:#ff6666">DAG</text></g><g id="a6b7e" class="Metabolite " transform="translate(1390.2 252.2)"  name="PtdIns(3,4,5)P3" ><rect   width="108.9" height="36.22" style="stroke:#03c"/><g id="b56f0" class="State Burr" transform="translate(-8.19 24.88)"  name="P3" ><g class="State Burr"><use class="State Burr Node Icon" width="20" height="20" fill="#fff" stroke="#000" href="#Ellipse"/></g><g ><defs><clipPath ><rect x="-10" y="-10" width="20" height="20" style="stroke:none"/></clipPath></defs><text   transform="translate(10,10)"  font-family="arial" overflow="visible" style="font-size:10px">P3</text></g></g><g id="d8748" class="State Burr" transform="translate(59.36 26.22)"  name="P4" ><g class="State Burr"><use class="State Burr Node Icon" width="20" height="20" fill="#fff" stroke="#000" href="#Ellipse"/></g><g ><defs><clipPath ><rect x="-10" y="-10" width="20" height="20" style="stroke:none"/></clipPath></defs><text   transform="translate(10,10)"  font-family="arial" overflow="visible" style="font-size:10px">P4</text></g></g><g id="e096e" class="State Burr" transform="translate(98.90 26.22)"  name="P5" ><g class="State Burr"><use class="State Burr Node Icon" width="20" height="20" fill="#fff" stroke="#000" href="#Ellipse"/></g><g ><defs><clipPath ><rect x="-10" y="-10" width="20" height="20" style="stroke:none"/></clipPath></defs><text   transform="translate(10,10)"  font-family="arial" overflow="visible" style="font-size:10px">P5</text></g></g><g id="e9231" class="State Burr" transform="translate(21.98 -10)"  name="P1" ><g class="State Burr"><use class="State Burr Node Icon" width="20" height="20" fill="#fff" stroke="#000" href="#Ellipse"/></g><g ><defs><clipPath ><rect x="-10" y="-10" width="20" height="20" style="stroke:none"/></clipPath></defs><text   transform="translate(10,10)"  font-family="arial" overflow="visible" style="font-size:10px">P1</text></g></g><text   transform="translate(54.45 18.11)"     style="fill:#0033cc">PtdIns(3,4,5)P3</text></g><g id="b5566" class="Label" transform="translate(1399.5 209.34)"  name="DAG" ><g class="Label"/><text   transform="translate(23.80 8.84)"     style="fill:#ff6666">DAG</text></g><g id="ffdf6" class="Metabolite " transform="translate(1190.7 63.46)"  name="Ins(1,4,5)P3" ><rect   width="108.9" height="36.22" style="stroke:#03c"/><g id="d2d3a" class="State Burr" transform="translate(21.98 -10)"  name="P1" ><g class="State Burr"><use class="State Burr Node Icon" width="20" height="20" fill="#fff" stroke="#000" href="#Ellipse"/></g><g ><defs><clipPath ><rect x="-10" y="-10" width="20" height="20" style="stroke:none"/></clipPath></defs><text   transform="translate(10,10)"  font-family="arial" overflow="visible" style="font-size:10px">P1</text></g></g><g id="d9a41" class="State Burr" transform="translate(98.90 26.22)"  name="P5" ><g class="State Burr"><use class="State Burr Node Icon" width="20" height="20" fill="#fff" stroke="#000" href="#Ellipse"/></g><g ><defs><clipPath ><rect x="-10" y="-10" width="20" height="20" style="stroke:none"/></clipPath></defs><text   transform="translate(10,10)"  font-family="arial" overflow="visible" style="font-size:10px">P5</text></g></g><g id="df8c9" class="State Burr" transform="translate(52.71 26.22)"  name="P4" ><g class="State Burr"><use class="State Burr Node Icon" width="20" height="20" fill="#fff" stroke="#000" href="#Ellipse"/></g><g ><defs><clipPath ><rect x="-10" y="-10" width="20" height="20" style="stroke:none"/></clipPath></defs><text   transform="translate(10,10)"  font-family="arial" overflow="visible" style="font-size:10px">P4</text></g></g><text   transform="translate(54.45 18.11)"     style="fill:#0033cc">Ins(1,4,5)P3</text></g><g id="dea4a" class="GroupGroup" transform="translate(1078.3 315.75)"  ><g class="GroupGroup"><g id="afb36" class="Protein" transform="translate(16.84 33)"  name="PIK3CG" ><rect   width="72.31" height="23.86"/><text   transform="translate(36.16 11.93)"    >PIK3CG</text></g><g id="df0be" class="Protein" transform="translate(8,8)"  name="PI-3 kinase I" ><rect   width="90" height="25"/><text   transform="translate(45,12.5)"    >PI-3 kinase I</text></g><g id="acf95" class="Protein" transform="translate(16.84 56.86)"  name="PIK3CB" ><rect   width="72.31" height="23.86"/><text   transform="translate(36.16 11.93)"    >PIK3CB</text></g><g id="f59ab" class="Protein" transform="translate(16.84 80.71)"  name="PIK3CA" ><rect   width="72.31" height="23.86"/><text   transform="translate(36.16 11.93)"    >PIK3CA</text></g><g id="e8925" class="Protein" transform="translate(16.84 104.57)"  name="PIK3CD" ><rect   width="72.31" height="23.86"/><text   transform="translate(36.16 11.93)"    >PIK3CD</text></g></g></g><g id="a6f36" class="GroupGroup" transform="translate(1184.9 253.55)"  ><g class="GroupGroup"><g id="b94a6" class="Protein" transform="translate(8,8)"  name="PIP-5 kinase alpha" ><rect   width="123.26" height="29.16"/><text   transform="translate(61.63 14.58)"    >PIP-5 kinase alpha</text></g><g id="dafb8" class="Protein" transform="translate(8 66.32)"  name="PIP-5 kinase gamma" ><rect   width="123.26" height="29.16"/><text   transform="translate(61.63 14.58)"    >PIP-5 kinase gamma</text></g><g id="d699a" class="Protein" transform="translate(8 37.16)"  name="PIP-5 kinase beta" ><rect   width="123.26" height="29.16"/><text   transform="translate(61.63 14.58)"    >PIP-5 kinase beta</text></g></g></g><g id="c6a79" class="GroupGroup" transform="translate(718.32 627.32)"  ><g class="GroupGroup"><g id="a39d8" class="Protein" transform="translate(8,8)"  name="4-phosphatase" ><rect   width="101.09" height="25.14"/><text   transform="translate(50.54 12.57)"    >4-phosphatase</text></g><g id="d0a81" class="Protein" transform="translate(8 33.14)"  name="PIP4P1" ><rect   width="101.09" height="25.14"/><text   transform="translate(50.54 12.57)"    >PIP4P1</text></g><g id="d2933" class="Protein" transform="translate(8 58.28)"  name="PIP4P2" ><rect   width="101.09" height="25.14"/><text   transform="translate(50.54 12.57)"    >PIP4P2</text></g></g></g><g id="f9450" class="GroupGroup" transform="translate(786.18 377.47)"  ><g class="GroupGroup"><g id="e958d" class="Protein" transform="translate(8,8)"  name="PIP-4 kinase" ><rect   width="86.29" height="25.76"/><text   transform="translate(43.14 12.88)"    >PIP-4 kinase</text></g><g id="a8754" class="Protein" transform="translate(8 33.76)"  name="PIP4K2A" ><rect   width="86.29" height="25.76"/><text   transform="translate(43.14 12.88)"    >PIP4K2A</text></g><g id="a1ff2" class="Protein" transform="translate(8 59.52)"  name="PIP4K2C" ><rect   width="86.29" height="25.76"/><text   transform="translate(43.14 12.88)"    >PIP4K2C</text></g><g id="e4e59" class="Protein" transform="translate(8 85.28)"  name="PIP4K2B" ><rect   width="86.29" height="25.76"/><text   transform="translate(43.14 12.88)"    >PIP4K2B</text></g></g></g><g id="c8434" class="Edge"  ><path    d="m496.23 478.51-50.76 66.82" style="marker-end:url(#memconversion000)"/></g><g id="d9ede" class="GroupGroup" transform="translate(534.16 361.13)"  ><g class="GroupGroup"><g id="f36df" class="Protein" transform="translate(8 32.43)"  name="PIK3CG" ><rect   width="72.31" height="25"/><text   transform="translate(36.16 12.5)"    >PIK3CG</text></g><g id="b1586" class="Protein" transform="translate(35.72 8)"  name="PI-3 kinase I" ><rect   width="90" height="25"/><text   transform="translate(45,12.5)"    >PI-3 kinase I</text></g><g id="bfd86" class="Protein" transform="translate(8 57.43)"  name="PIK3CB" ><rect   width="72.31" height="23.86"/><text   transform="translate(36.16 11.93)"    >PIK3CB</text></g><g id="a7b48" class="Protein" transform="translate(80.31 32.43)"  name="PIK3CA" ><rect   width="72.31" height="25"/><text   transform="translate(36.16 12.5)"    >PIK3CA</text></g><g id="fd920" class="Protein" transform="translate(80.31 57.43)"  name="PIK3CD" ><rect   width="72.31" height="23.86"/><text   transform="translate(36.16 11.93)"    >PIK3CD</text></g></g></g><g id="f3636" class="GroupGroup" transform="translate(552.28 534.52)"  ><g class="GroupGroup"><g id="d67e4" class="Metabolite " transform="translate(8,8)"  name="ADP" ><rect   width="45.68" height="20.62" rx="15" ry="15" style="stroke:#00f"/><text   transform="translate(22.84 10.31)"     style="fill:#00f">ADP</text></g><g id="fb3ed" class="Metabolite " transform="translate(8 28.62)"  name="H+" ><rect   width="45.68" height="20.62" rx="15" ry="15" style="stroke:#00f"/><text   transform="translate(22.84 10.31)"     style="fill:#00f">H+</text></g></g></g><g id="a591b" class="Edge"  ><path    d="m523.45 528.74 28.83 34.41" style="marker-end:url(#memconversion000)"/></g><g id="ffbc0" class="Edge"  ><path    d="m496.23 329.78v-186.01" stroke-dasharray="5,3"/></g><g id="e2161" class="Edge"  ><path    d="m441.78 125.67-273.2 100.88" stroke-dasharray="5,3"/></g><g id="bc89b" class="Edge"  ><path    d="m384.18 198.69-41.31-27.45" style="marker-end:url(#memcatalysis000)"/></g><g id="e0fdb" class="Edge"  ><path    d="m86.91 253.71 354.87 360.26" stroke-dasharray="5,3"/></g><g id="fcc50" class="Protein" transform="translate(384.18 186.19)"  name="MTM1" ><rect   width="90" height="25" style="stroke:#990"/><text   transform="translate(45,12.5)"     style="fill:#999900">MTM1</text></g><g id="a7eae" class="Label" transform="translate(199.03 553.69)"  name="myotubular  myopathy" ><rect   width="127.98" height="29.38" rx="15" ry="15" style="fill:#fcc;stroke:#00f"/><text   transform="translate(63.99 14.69)"     style="fill:#00f"><tspan   x="0" y="-6.60">myotubular </tspan><tspan   x="0" y="6.60">myopathy</tspan></text></g><g id="b9a53" class="Edge"  ><path    d="m469 449.56-205.98 104.13"/></g><g id="a6058" class="Label" transform="translate(33.56 395.15)"  name="Charcot-Marie-Tooth  type 4B syndrome" ><rect   width="142.59" height="34.25" rx="15" ry="15" style="fill:#fcc;stroke:#00f"/><text   transform="translate(71.30 17.12)"     style="fill:#00f"><tspan   x="0" y="-6.60">Charcot-Marie-Tooth </tspan><tspan   x="0" y="6.60">type 4B syndrome</tspan></text></g><g id="ea4b8" class="Edge"  ><path    d="m210.21 280.97-105.35 114.18"/></g><g id="baa62" class="Label" transform="translate(105.32 481.51)"  name="Francois-Neetens fleck  corneal dystrophy" ><rect   width="156.46" height="29.38" rx="15" ry="15" style="fill:#fcc;stroke:#00f"/><text   transform="translate(78.23 14.69)"     style="fill:#00f"><tspan   x="0" y="-6.60">Francois-Neetens fleck </tspan><tspan   x="0" y="6.60">corneal dystrophy</tspan></text></g><g id="aa25f" class="Edge"  ><path    d="m310.72 459-127.17 22.51"/></g></g></g></g></svg>