<?xml version="1.0" encoding="UTF-8"?>
<svg xmlns="http://www.w3.org/2000/svg" id="-svg" class="Diagram"  baseProfile="full" prefix="schema:http://schema.org/" preserveAspectRatio="xMidYMid"  version="1.1"><defs><g id="filter-defs"><filter id="doublefalse3filter" x="-50%" y="-50%" width="200%" height="200%"><feComposite in="SourceGraphic" in2="SourceGraphic" result="doubleDark"/><feMorphology in="doubleDark" operator="dilate" radius="0.17" result="in2Double"/><feMorphology in="SourceGraphic" operator="dilate" radius="3" result="inDouble"/><feComposite in="inDouble" in2="in2Double" operator="out" result="doubleResult"/></filter><filter id="doublefalse2filter" x="-50%" y="-50%" width="200%" height="200%"><feComposite in="SourceGraphic" in2="SourceGraphic" result="doubleDark"/><feMorphology in="doubleDark" operator="dilate" radius="0.25" result="in2Double"/><feMorphology in="SourceGraphic" operator="dilate" radius="2" result="inDouble"/><feComposite in="inDouble" in2="in2Double" operator="out" result="doubleResult"/></filter></g><g id="icon-defs"><symbol id="Ellipse" class=" Icon Ellipse" x="0" y="0" overflow="visible" preserveAspectRatio="none" viewBox="0 0 50 50"><desc>Ellipse</desc><ellipse cx="25" cy="25" rx="25" ry="25" vector-effect="non-scaling-stroke"/></symbol><symbol id="Octagon" class=" Icon Octagon" x="0" y="0" overflow="visible" preserveAspectRatio="none" viewBox="0 0 100 100"><desc>Octagon</desc><path d="m0 25 25-25h50l25 25v50l-25 25h-50l-25-25z" vector-effect="non-scaling-stroke"/></symbol></g><g id="marker-defs"><marker id="markerendtbar000" markerHeight="20" markerWidth="10" orient="auto" preserveAspectRatio="none" refX="10" refY="10" viewBox="0 0 10 20"><g id="g-markerendtbar000" transform=""><g transform="rotate(180 5 10)"><rect y="9" width="8" height="2" style="stroke:none"/><line x="0" y="0" width="12" height="12" x1="7" x2="7" y2="20" stroke="#000" stroke-width="1.8"/></g></g></marker><marker id="mea" markerHeight="12" markerWidth="12" orient="auto" preserveAspectRatio="none" refX="12" refY="6" viewBox="0 0 12 12"><g id="g-mea" transform=""><g transform="rotate(180 6 6)"><rect y="5.4" width="2" height="1.2" style="stroke:#fff"/><polygon points="12 11 0 6 12 1" stroke-width="0"/></g></g></marker><marker id="memstimulation000" markerHeight="12" markerWidth="12" orient="auto" preserveAspectRatio="none" refX="12" refY="6" viewBox="0 0 12 12"><g id="g-memstimulation000" transform=""><g transform="rotate(180 6 6)"><rect y="5.4" width="2" height="1.2" style="stroke:none"/><line x1="12" x2="12" y1="6" y2="6" fill="none"/><polygon points="0 6 11 11 11 1" fill="#fff" stroke="#000"/></g></g></marker><marker id="membinding000" markerHeight="12" markerWidth="12" orient="auto" preserveAspectRatio="none" refX="12" refY="6" viewBox="0 0 12 12"><g id="g-membinding000" transform=""><g transform="rotate(180 6 6)"><rect y="5.4" width="2" height="1.2" style="stroke:#fff"/><polygon points="12 12 0 6 12 0 5 6" stroke-width="0"/></g></g></marker><marker id="meminhibition000" markerHeight="20" markerWidth="10" orient="auto" preserveAspectRatio="none" refX="10" refY="10" viewBox="0 0 10 20"><g id="g-meminhibition000" transform=""><g transform="rotate(180 5 10)"><rect y="9" width="8" height="2" style="stroke:none"/><line x="0" y="0" width="12" height="12" x1="7" x2="7" y2="20" stroke="#000" stroke-width="1.8"/></g></g></marker><marker id="memcleavage000" markerHeight="30" markerWidth="20" orient="auto" preserveAspectRatio="none" refX="20" refY="15" viewBox="0 0 20 30"><g id="g-memcleavage000" transform=""><g transform="rotate(180 10 15)"><rect y="14.3" width="18.4" height="1.4" style="stroke:#fff"/><line x1="18" x2="18" y1="14.5" y2="30" stroke="#000"/><line x1="18" y1="30" stroke="#000"/></g></g></marker><marker id="memconversion000" markerHeight="12" markerWidth="12" orient="auto" preserveAspectRatio="none" refX="12" refY="6" viewBox="0 0 12 12"><g id="g-memconversion000" transform=""><g transform="rotate(180 6 6)"><rect y="5.4" width="2" height="1.2" style="stroke:#fff"/><polygon points="12 11 0 6 12 1" stroke-width="0"/></g></g></marker></g></defs><g id="viewport-20220102145115893" class="svg-pan-zoom_viewport" transform="matrix(1.18 0 0 1.18 40.85 0)" style="transform:matrix(1.18, 0, 0, 1.18, 40.85, 0)"><style>svg.Diagram {font-family: 'Liberation Sans', Arial, sans-serif; }.Diagram path {fill: transparent;stroke: #000;marker-end: url(#mea);}.Diagram symbol path {fill: inherit;stroke: inherit;stroke-width: inherit;marker-end: inherit;}.Diagram rect {fill: #fff;stroke: #000;}.Diagram text {dominant-baseline: central;overflow: hidden;text-anchor: middle;fill: #000;font-size: 12px;}</style><style type="text/css">.Viewport .textContent {
  pointer-events: none;
  stroke-width: 0px;
}

					.Viewport.Icon {
  fill: white;
}

/* Hide the InfoBox */
.Viewport.textContent {
  font-size: 0;
}

.textContent {
  stroke: none;
}

.DataNode {
  stroke-miterlimit: 1;
  pointer-events: auto;
}

.DataNode:hover {
  cursor: pointer;
}

/* TODO should this apply to things other than DataNodes? */
.DataNode.textContent {
  pointer-events: none;
}

.DataNode.Highlighted {
  opacity: 0.6;
  stroke-width: 0px;
}

marker {
  /* this is what should work per the spec
  stroke-dasharray: none; */
  /* but I need to add this to make it work in Safari */
  stroke-dasharray: 9999999999999999999999999;
}

.Citation.Icon {
  fill: none;
  stroke-width: 0px;
}

.Citation.textContent {
  text-align: center;
  vertical-align: top;
  font-size: 7px;
  fill: #999;
  fill-opacity: 1;
  stroke: none;
}</style><g id="WP5065" class="Pathway http___identifiers_org_pw_PW_0000013 Viewport"  name="Name: SARS-CoV-2 altering angiogenesis via NRP1 Organism: Homo sapiens" ><g class="Pathway http___identifiers_org_pw_PW_0000013 Viewport"><rect   width="949.53" height="606.25" style="stroke:none"/><g id="id30105322" class="Edge"  ><path    d="m441 149.75 47.02-1.10"/></g><g id="id34540c1c" class="Edge"  ><path    d="m527.72 316.87 110.89-1.38" style="marker-end:url(#memstimulation000)"/></g><g id="id43cd660f" class="Edge"  ><path    d="m404.57 477.06 107.05-90.11" style="marker-end:url(#membinding000)"/><g id="b7f6f" class="AB" transform="translate(468.53 423.23)"  ><g class="AB"/></g></g><g id="id9a9099b7" class="Edge"  ><path    d="m400.56 389.46 67.98 33.77" style="marker-end:url(#meminhibition000)"/></g><g id="ida9ef11ca" class="Edge"  ><path    d="m420.56 374.46 68.57-5e-14" style="marker-end:url(#membinding000)"/></g><g id="idc047fb67" class="Edge"  ><path    d="m403.79 167.58 43.93 141.79" style="marker-end:url(#memconversion000)"/><g id="a898d" class="AB" transform="translate(421.36 224.3)"  ><g class="AB"/></g></g><g id="idcb5a79c6" class="Edge"  ><path    d="m366.58 167.58 13.98 191.88" style="marker-end:url(#memconversion000)"/><g id="c4f7c" class="AB" transform="translate(376.06 297.73)"  ><g class="AB"/></g></g><g id="idb065e73b" class="Edge"  ><path    d="m563.48 220.67-187.42 77.06" style="marker-end:url(#memcleavage000)"/></g><g id="idf5f63b5b" class="Edge"  ><path    d="m563.48 220.67-142.12 3.62" style="marker-end:url(#memcleavage000)"/></g><g id="id3790eadf" class="Edge"  ><path    d="m534.12 386.96v74.5" style="marker-end:url(#membinding000)"/><g id="c2f06" class="AB" transform="translate(534.12 416.76)"  ><g class="AB"/></g></g><g id="id4e2d6c6e" class="Edge"  ><path    d="m591.12 498.46 48.61 0.24" style="marker-end:url(#memstimulation000)"/></g><g id="id19622e55" class="Edge"  ><path    d="m420.56 381.96 113.57 34.8" style="marker-end:url(#markerendtbar000)"/></g><g id="f49b9" class=" PhysicalEntity CellularComponent Cell" transform="translate(545.03 92.21)"  name="Host cell" ><g class=" PhysicalEntity CellularComponent Cell" filter="url(#doublefalse3filter)"><g class=" PhysicalEntity CellularComponent Cell"><rect   transform="matrix(0.95 0 0 0.98 5.72 5.86)" width="247.65" height="485.54" rx="15" ry="15" stroke-width="3" style="fill:transparent;stroke:#999"/></g></g><g ><defs><clipPath ><rect x="-123.82" y="-16.25" width="247.65" height="485.54" style="stroke:none"/></clipPath></defs><text   transform="translate(123.82 16.25)"    font-weight="bold"  style="fill:#999;font-size:15px">Host cell</text></g></g><g id="fb84f" class="" transform="translate(175.33 58.73)"  name="SARS-CoV-2" ><g class="" filter="url(#doublefalse2filter)"><g class=""><use class=" Node Icon" transform="matrix(0.94 0 0 0.94 3.78 3.74)" width="135.28" height="116.28" fill="transparent" stroke="#ff9933" stroke-width="2" href="#Ellipse"/></g></g><g ><defs><clipPath ><rect x="-67.64" y="-58.14" width="135.28" height="116.28" style="stroke:none"/></clipPath></defs><text   transform="translate(67.64 58.14)"    font-weight="bold"  style="fill:#ff9933;font-size:15px">SARS-CoV-2</text></g></g><g id="a43e4" class="Protein " transform="translate(447.72 301.87)"  name="S2" ><use class="Protein Node Icon" width="80" height="30" fill="#ff9999" stroke="#000" href="#Ellipse"/><text   transform="translate(40,15)"    >S2</text></g><g id="ab236" class="GeneProduct " transform="translate(563.48 208.17)"  name="FURIN" ><rect   width="90" height="25"/><text   transform="translate(45,12.5)"    >FURIN</text></g><g id="b32ee" class="Protein" transform="translate(292.16 131.93)"  name="Surface glycoprotein S" ><use class="Protein Node Icon" width="148.84" height="35.65" fill="#ff9999" stroke="#000" href="#Ellipse"/><text   transform="translate(74.42 17.83)"    >Surface glycoprotein S</text></g><g id="b9e81" class="GeneProduct " transform="translate(489.12 361.96)"  name="NRP1" ><rect   width="90" height="25"/><text   transform="translate(45,12.5)"    >NRP1</text></g><g id="c363c" class="Protein " transform="translate(340.56 359.46)"  name="S1" ><use class="Protein Node Icon" width="80" height="30" fill="#ff9999" stroke="#000" href="#Ellipse"/><text   transform="translate(40,15)"    >S1</text></g><g id="d17ac" class="GeneProduct " transform="translate(488.02 136.15)"  name="ACE2" ><rect   width="90" height="25"/><text   transform="translate(45,12.5)"    >ACE2</text></g><g id="ecd5d" class="GeneProduct " transform="translate(314.57 470.81)"  name="VEGFA" ><rect   width="90" height="25"/><text   transform="translate(45,12.5)"    >VEGFA</text></g><g id="f5b86" class="Pathway" transform="translate(639.74 487.2)"  name="Angiogenesis" ><g class="Pathway"><use class="Pathway Node Icon" width="130.89" height="23" fill="#fff" stroke="#14961e" href="#Ellipse"/></g><g ><defs><clipPath ><rect x="-65.44" y="-11.5" width="130.89" height="23" style="stroke:none"/></clipPath></defs><text   transform="translate(65.44 11.5)"    font-weight="bold"  style="fill:#14961e">Angiogenesis</text></g></g><g id="f84bf" class="Pathway " transform="translate(638.61 303)"  name="Membrane fusion" ><g class="Pathway "><use class="Pathway Node Icon" width="133.14" height="25" fill="#fff" stroke="#14961e" href="#Ellipse"/></g><g ><defs><clipPath ><rect x="-66.57" y="-12.5" width="133.14" height="25" style="stroke:none"/></clipPath></defs><text   transform="translate(66.57 12.5)"    font-weight="bold"  style="fill:#14961e">Membrane fusion</text></g></g><g id="e0e95" class="GroupComplex" transform="translate(477.12 461.46)"  ><g class="GroupComplex"><use class="Icon" width="114" height="74.00" fill="#b4b464" fill-opacity=".1" stroke="grey" href="#Octagon"/><g id="be74d" class="GeneProduct " transform="translate(12 37)"  name="KDR" ><rect   width="90" height="25"/><text   transform="translate(45,12.5)"    >KDR</text></g><g id="c92a9" class="GeneProduct " transform="translate(12,12)"  name="NRP1" ><rect   width="90" height="25"/><text   transform="translate(45,12.5)"    >NRP1</text></g></g></g></g></g></g></svg>