<?xml version="1.0" encoding="UTF-8"?>
<svg xmlns="http://www.w3.org/2000/svg" id="-svg" class="Diagram"  baseProfile="full" prefix="schema:http://schema.org/" preserveAspectRatio="xMidYMid"  version="1.1"><defs><g id="filter-defs"><filter id="doublefalse3filter" x="-50%" y="-50%" width="200%" height="200%"><feComposite in="SourceGraphic" in2="SourceGraphic" result="doubleDark"/><feMorphology in="doubleDark" operator="dilate" radius="0.17" result="in2Double"/><feMorphology in="SourceGraphic" operator="dilate" radius="3" result="inDouble"/><feComposite in="inDouble" in2="in2Double" operator="out" result="doubleResult"/></filter></g><g id="icon-defs"><symbol id="Ellipse" class=" Icon Ellipse" x="0" y="0" overflow="visible" preserveAspectRatio="none" viewBox="0 0 50 50"><desc>Ellipse</desc><ellipse cx="25" cy="25" rx="25" ry="25" vector-effect="non-scaling-stroke"/></symbol></g><g id="marker-defs"><marker id="mea" markerHeight="12" markerWidth="12" orient="auto" preserveAspectRatio="none" refX="12" refY="6" viewBox="0 0 12 12"><g id="g-mea" transform=""><g transform="rotate(180 6 6)"><rect y="5.4" width="2" height="1.2" style="stroke:#fff"/><polygon points="12 11 0 6 12 1" stroke-width="0"/></g></g></marker><marker id="memcatalysis000" markerHeight="12" markerWidth="12" orient="auto" preserveAspectRatio="none" refX="12" refY="6" viewBox="0 0 12 12"><g id="g-memcatalysis000" transform=""><g transform="rotate(180 6 6)"><circle cx="6" cy="6" r="5.3px" fill="#fff" stroke="#000"/></g></g></marker></g></defs><g id="viewport-20220102145130573" class="svg-pan-zoom_viewport" transform="matrix(1.03 0 0 1.03 12.58 5.68e-14)" style="transform:matrix(1.03, 0, 0, 1.03, 12.58, 5.68e-14)"><style>svg.Diagram {font-family: 'Liberation Sans', Arial, sans-serif; }.Diagram path {fill: transparent;stroke: #000;marker-end: url(#mea);}.Diagram symbol path {fill: inherit;stroke: inherit;stroke-width: inherit;marker-end: inherit;}.Diagram rect {fill: #fff;stroke: #000;}.Diagram text {dominant-baseline: central;overflow: hidden;text-anchor: middle;fill: #000;font-size: 12px;}</style><style type="text/css">.Viewport .textContent {
  pointer-events: none;
  stroke-width: 0px;
}

					.Viewport.Icon {
  fill: white;
}

/* Hide the InfoBox */
.Viewport.textContent {
  font-size: 0;
}

.textContent {
  stroke: none;
}

.DataNode {
  stroke-miterlimit: 1;
  pointer-events: auto;
}

.DataNode:hover {
  cursor: pointer;
}

/* TODO should this apply to things other than DataNodes? */
.DataNode.textContent {
  pointer-events: none;
}

.DataNode.Highlighted {
  opacity: 0.6;
  stroke-width: 0px;
}

marker {
  /* this is what should work per the spec
  stroke-dasharray: none; */
  /* but I need to add this to make it work in Safari */
  stroke-dasharray: 9999999999999999999999999;
}

.Citation.Icon {
  fill: none;
  stroke-width: 0px;
}

.Citation.textContent {
  text-align: center;
  vertical-align: top;
  font-size: 7px;
  fill: #999;
  fill-opacity: 1;
  stroke: none;
}</style><g id="WP5076" class="Pathway http___identifiers_org_pw_PW_0000281 Viewport"  name="Name: Soluble ACE2-mediated cell entry of SARS-CoV-2 Organism: Homo sapiens" ><g class="Pathway http___identifiers_org_pw_PW_0000281 Viewport"><rect   width="1137" height="691" style="stroke:none"/><g id="id7040e5c9" class="Edge"  ><path    d="m566 340.5v-242"/><g id="d686a" class="AB" transform="translate(566,299)"  ><g class="AB"/></g></g><g id="idadc90074" class="Edge"  ><path    d="m741.4 72.4-0.82 8.17" style="marker-end:none"/></g><g id="idbda85ec8" class="Edge"  ><path    d="m346.58 69.4v8.17" style="marker-end:none"/></g><g id="idea3369fd" class="Edge"  ><path    d="m476.5 340.5v-41.5h89.5" style="marker-end:url(#memcatalysis000)"/></g><g id="bb08d" class="GroupGroup" transform="translate(636,414.5)"  ><g class="GroupGroup"><g id="id5f19df3b" class="Edge"  ><path    d="m85.4 82.9v13.18" style="marker-end:none"/></g><g id="cfe9a" class=" PhysicalEntity CellularComponent Vesicle" transform="translate(8,8)"  ><g class=" PhysicalEntity CellularComponent Vesicle" filter="url(#doublefalse3filter)"><g class=" PhysicalEntity CellularComponent Vesicle"><use class=" PhysicalEntity CellularComponent Vesicle Node Icon" transform="matrix(0.94 0 0 0.93 5.64 5.60)" width="190.5" height="170" fill="transparent" stroke="#c0c0c0" stroke-width="3" href="#Ellipse"/></g></g></g><g id="c696f" class="Metabolite " transform="translate(106,86)"  name="Vasopressin" ><rect   width="81" height="25" style="stroke:#00f"/><text   transform="translate(40.5,12.5)"     style="fill:#00f">Vasopressin</text></g><g id="a86a2" class="GeneProduct " transform="translate(55.4 123)"  name="sACE2" ><rect   width="60" height="25"/><text   transform="translate(30,12.5)"    >sACE2</text></g><g id="af1c2" class=" PhysicalEntity CellularComponent Nucleus" transform="translate(34.5 32)"  name="SARS-CoV-2" ><g class=" PhysicalEntity CellularComponent Nucleus" filter="url(#doublefalse3filter)"><g class=" PhysicalEntity CellularComponent Nucleus"><use class=" PhysicalEntity CellularComponent Nucleus Node Icon" transform="matrix(0.89 0 0 0.81 5.37 4.88)" width="101.80" height="52.40" fill="transparent" stroke="#c0c0c0" stroke-width="3" href="#Ellipse"/></g></g><g ><defs><clipPath ><rect x="-50.9" y="-26.2" width="101.8" height="52.4" style="stroke:none"/></clipPath></defs><text   transform="translate(50.9 26.2)"     style="fill:#c0c0c0">SARS-CoV-2</text></g></g><g id="adc3a" class="Protein " transform="translate(63.01 96.08)"  name="S1" ><use class="Protein Node Icon" width="44.78" height="25" fill="#ffcccc" stroke="#000" href="#Ellipse"/><text   transform="translate(22.39 12.5)"    >S1</text></g></g></g><g id="ideab72c9e" class="Edge"  ><path    d="m739 368.5 0.25 47.5"/></g><g id="c1962" class="GroupGroup" transform="translate(654.5 162.5)"  ><g class="GroupGroup"><g id="idc8983763" class="Edge"  ><path    d="m58.9 58.9v13.18" style="marker-end:none"/></g><g id="d63a3" class="Metabolite " transform="translate(79.5 62)"  name="Vasopressin" ><rect   width="81" height="25" style="stroke:#00f"/><text   transform="translate(40.5,12.5)"     style="fill:#00f">Vasopressin</text></g><g id="b70c4" class="GeneProduct " transform="translate(28.9 99)"  name="sACE2" ><rect   width="60" height="25"/><text   transform="translate(30,12.5)"    >sACE2</text></g><g id="b5377" class=" PhysicalEntity CellularComponent Nucleus" transform="translate(8,8)"  name="SARS-CoV-2" ><g class=" PhysicalEntity CellularComponent Nucleus" filter="url(#doublefalse3filter)"><g class=" PhysicalEntity CellularComponent Nucleus"><use class=" PhysicalEntity CellularComponent Nucleus Node Icon" transform="matrix(0.89 0 0 0.81 5.37 4.88)" width="101.80" height="52.40" fill="transparent" stroke="#c0c0c0" stroke-width="3" href="#Ellipse"/></g></g><g ><defs><clipPath ><rect x="-50.9" y="-26.2" width="101.8" height="52.4" style="stroke:none"/></clipPath></defs><text   transform="translate(50.9 26.2)"     style="fill:#c0c0c0">SARS-CoV-2</text></g></g><g id="e3b14" class="Protein " transform="translate(36.51 72.08)"  name="S1" ><use class="Protein Node Icon" width="44.78" height="25" fill="#ffcccc" stroke="#000" href="#Ellipse"/><text   transform="translate(22.39 12.5)"    >S1</text></g></g></g><g id="ida9d4e59b" class="Edge"  ><path    d="m739.5 294.5-0.5 49"/></g><g id="iddf79e4e8" class="Edge"  ><path    d="m740.58 105.57-1.08 58.42"/><g id="f2bfe" class="AB" transform="translate(739.9 142.39)"  ><g class="AB"/></g></g><g id="c7481" class="GroupGroup" transform="translate(287.68 167.5)"  ><g class="GroupGroup"><g id="idf2233645" class="Edge"  ><path    d="m58.9 58.9v8.17" style="marker-end:none"/></g><g id="d6ca7" class="Protein " transform="translate(36.51 67.08)"  name="S1" ><use class="Protein Node Icon" width="44.78" height="25" fill="#ffcccc" stroke="#000" href="#Ellipse"/><text   transform="translate(22.39 12.5)"    >S1</text></g><g id="b12bd" class=" PhysicalEntity CellularComponent Nucleus" transform="translate(8,8)"  name="SARS-CoV-2" ><g class=" PhysicalEntity CellularComponent Nucleus" filter="url(#doublefalse3filter)"><g class=" PhysicalEntity CellularComponent Nucleus"><use class=" PhysicalEntity CellularComponent Nucleus Node Icon" transform="matrix(0.89 0 0 0.81 5.37 4.88)" width="101.80" height="52.40" fill="transparent" stroke="#c0c0c0" stroke-width="3" href="#Ellipse"/></g></g><g ><defs><clipPath ><rect x="-50.9" y="-26.2" width="101.8" height="52.4" style="stroke:none"/></clipPath></defs><text   transform="translate(50.9 26.2)"     style="fill:#c0c0c0">SARS-CoV-2</text></g></g><g id="d5a00" class="GeneProduct " transform="translate(25.32 93)"  name="sACE2" ><rect   width="64" height="25"/><text   transform="translate(32,12.5)"    >sACE2</text></g></g></g><g id="id6f724aae" class="Edge"  ><path    d="m346.58 110.57v58.42"/><g id="f69fe" class="AB" transform="translate(346.58 141.28)"  ><g class="AB"/></g></g><g id="id9a5d06ea" class="Edge"  ><path    d="m346.58 293.5-0.58 48"/></g><g id="d878a" class="GroupGroup" transform="translate(258.5,415.5)"  ><g class="GroupGroup"><g id="id5e025fa9" class="Edge"  ><path    d="m86.08 76.9v8.17" style="marker-end:none"/></g><g id="ef043" class=" PhysicalEntity CellularComponent Vesicle" transform="translate(8,8)"  ><g class=" PhysicalEntity CellularComponent Vesicle" filter="url(#doublefalse3filter)"><g class=" PhysicalEntity CellularComponent Vesicle"><use class=" PhysicalEntity CellularComponent Vesicle Node Icon" transform="matrix(0.93 0 0 0.93 5.58 5.58)" width="160" height="158" fill="transparent" stroke="#c0c0c0" stroke-width="3" href="#Ellipse"/></g></g></g><g id="f39b1" class="Protein " transform="translate(63.69 85.08)"  name="S1" ><use class="Protein Node Icon" width="44.78" height="25" fill="#ffcccc" stroke="#000" href="#Ellipse"/><text   transform="translate(22.39 12.5)"    >S1</text></g><g id="f3ca4" class=" PhysicalEntity CellularComponent Nucleus" transform="translate(35.18 26)"  name="SARS-CoV-2" ><g class=" PhysicalEntity CellularComponent Nucleus" filter="url(#doublefalse3filter)"><g class=" PhysicalEntity CellularComponent Nucleus"><use class=" PhysicalEntity CellularComponent Nucleus Node Icon" transform="matrix(0.89 0 0 0.81 5.37 4.88)" width="101.80" height="52.40" fill="transparent" stroke="#c0c0c0" stroke-width="3" href="#Ellipse"/></g></g><g ><defs><clipPath ><rect x="-50.9" y="-26.2" width="101.8" height="52.4" style="stroke:none"/></clipPath></defs><text   transform="translate(50.9 26.2)"     style="fill:#c0c0c0">SARS-CoV-2</text></g></g><g id="e16f6" class="GeneProduct " transform="translate(52.5,111)"  name="sACE2" ><rect   width="64" height="25"/><text   transform="translate(32,12.5)"    >sACE2</text></g></g></g><g id="idab71275d" class="Edge"  ><path    d="m780 125-6.67-1e-14c-6.67 1e-14 -20 1e-14 -26.67 2.90-6.67 2.90-6.67 8.70-6.68 11.59-0.02 2.90-0.05 2.90-0.07 2.90h-0.02"/></g><g id="ide4497430" class="Edge"  ><path    d="m598 86 23.67-1e-14c23.67 1e-14 71 1e-14 94.67 9.40 23.67 9.40 23.67 28.20 23.65 37.59-0.02 9.40-0.05 9.40-0.07 9.40h-0.02"/></g><g id="ide74f1465" class="Edge"  ><path    d="m346 366.5 0.5 50.5"/></g><g id="id80abc9b3" class="Edge"  ><path    d="m534 86-31.33-1e-14c-31.33 1e-14 -94 1e-14 -125.33 9.21-31.33 9.21-31.33 27.64-31.24 36.86 0.10 9.21 0.29 9.21 0.39 9.21h0.10"/></g><g id="b6c92" class=" PhysicalEntity CellularComponent Cell" transform="translate(246.5,351.5)"  ><g class=" PhysicalEntity CellularComponent Cell" filter="url(#doublefalse3filter)"><g class=" PhysicalEntity CellularComponent Cell"><rect   transform="matrix(0.98 0 0 0.96 5.89 5.78)" width="628" height="311" rx="15" ry="15" stroke-width="3" style="fill:transparent;stroke:#c0c0c0"/></g></g></g><g id="pvjsgeneratedidfec49" class="GroupGroup" transform="translate(682.5 13.5)"  ><g class="GroupGroup"><g id="efa1d" class=" PhysicalEntity CellularComponent Nucleus" transform="translate(8,8)"  name="SARS-CoV-2" ><g class=" PhysicalEntity CellularComponent Nucleus" filter="url(#doublefalse3filter)"><g class=" PhysicalEntity CellularComponent Nucleus"><use class=" PhysicalEntity CellularComponent Nucleus Node Icon" transform="matrix(0.89 0 0 0.81 5.37 4.88)" width="101.80" height="52.40" fill="transparent" stroke="#c0c0c0" stroke-width="3" href="#Ellipse"/></g></g><g ><defs><clipPath ><rect x="-50.9" y="-26.2" width="101.8" height="52.4" style="stroke:none"/></clipPath></defs><text   transform="translate(50.9 26.2)"     style="fill:#c0c0c0">SARS-CoV-2</text></g></g><g id="e3dda" class="Protein " transform="translate(35.69 67.08)"  name="S1" ><use class="Protein Node Icon" width="44.78" height="25" fill="#ffcccc" stroke="#000" href="#Ellipse"/><text   transform="translate(22.39 12.5)"    >S1</text></g></g></g><g id="bdbe9" class="Label" transform="translate(611,379.5)"  name="Receptor-mediated  endocytosis" ><g class="Label"/><text   transform="translate(63.5,16.25)"    font-weight="bold" ><tspan   x="0" y="-6.60">Receptor-mediated </tspan><tspan   x="0" y="6.60">endocytosis</tspan></text></g><g id="faf44" class="GeneProduct " transform="translate(534,73.5)"  name="sACE2" ><rect   width="64" height="25"/><text   transform="translate(32,12.5)"    >sACE2</text></g><g id="fc900" class="GeneProduct " transform="translate(439,340.5)"  name="ADAM17" ><rect   width="75" height="25"/><text   transform="translate(37.5,12.5)"    >ADAM17</text></g><g id="fcbf8" class="GeneProduct " transform="translate(301,341.5)"  name="AGTR1" ><rect   width="90" height="25"/><text   transform="translate(45,12.5)"    >AGTR1</text></g><g id="b6ae4" class="GeneProduct " transform="translate(694,343.5)"  name="AVPR1B" ><rect   width="90" height="25"/><text   transform="translate(45,12.5)"    >AVPR1B</text></g><g id="e6ff7" class="GeneProduct " transform="translate(532,340.5)"  name="ACE2" ><rect   width="68" height="25"/><text   transform="translate(34,12.5)"    >ACE2</text></g><g id="a97b4" class="GroupGroup" transform="translate(287.68 10.5)"  ><g class="GroupGroup"><g id="e6625" class="Protein " transform="translate(36.51 67.08)"  name="S1" ><use class="Protein Node Icon" width="44.78" height="25" fill="#ffcccc" stroke="#000" href="#Ellipse"/><text   transform="translate(22.39 12.5)"    >S1</text></g><g id="f9994" class=" PhysicalEntity CellularComponent Nucleus" transform="translate(8,8)"  name="SARS-CoV-2" ><g class=" PhysicalEntity CellularComponent Nucleus" filter="url(#doublefalse3filter)"><g class=" PhysicalEntity CellularComponent Nucleus"><use class=" PhysicalEntity CellularComponent Nucleus Node Icon" transform="matrix(0.89 0 0 0.81 5.37 4.88)" width="101.80" height="52.40" fill="transparent" stroke="#c0c0c0" stroke-width="3" href="#Ellipse"/></g></g><g ><defs><clipPath ><rect x="-50.9" y="-26.2" width="101.8" height="52.4" style="stroke:none"/></clipPath></defs><text   transform="translate(50.9 26.2)"     style="fill:#c0c0c0">SARS-CoV-2</text></g></g></g></g><g id="fec48" class="Metabolite " transform="translate(780,112.5)"  name="Vasopressin" ><rect   width="81" height="25" style="stroke:#00f"/><text   transform="translate(40.5,12.5)"     style="fill:#00f">Vasopressin</text></g><g id="bdf21" class="Label" transform="translate(353,380.5)"  name="Receptor-mediated  endocytosis" ><g class="Label"/><text   transform="translate(63.5,16.25)"    font-weight="bold" ><tspan   x="0" y="-6.60">Receptor-mediated </tspan><tspan   x="0" y="6.60">endocytosis</tspan></text></g></g></g></g></svg>