<?xml version="1.0" encoding="UTF-8"?>
<svg xmlns="http://www.w3.org/2000/svg" id="-svg" class="Diagram"  baseProfile="full" prefix="schema:http://schema.org/" preserveAspectRatio="xMidYMid"  version="1.1"><defs><g id="filter-defs"><filter id="doublefalse3filter" x="-50%" y="-50%" width="200%" height="200%"><feComposite in="SourceGraphic" in2="SourceGraphic" result="doubleDark"/><feMorphology in="doubleDark" operator="dilate" radius="0.17" result="in2Double"/><feMorphology in="SourceGraphic" operator="dilate" radius="3" result="inDouble"/><feComposite in="inDouble" in2="in2Double" operator="out" result="doubleResult"/></filter></g><g id="icon-defs"><symbol id="Ellipse" class=" Icon Ellipse" x="0" y="0" overflow="visible" preserveAspectRatio="none" viewBox="0 0 50 50"><desc>Ellipse</desc><ellipse cx="25" cy="25" rx="25" ry="25" vector-effect="non-scaling-stroke"/></symbol><symbol id="Octagon" class=" Icon Octagon" x="0" y="0" overflow="visible" preserveAspectRatio="none" viewBox="0 0 100 100"><desc>Octagon</desc><path d="m0 25 25-25h50l25 25v50l-25 25h-50l-25-25z" vector-effect="non-scaling-stroke"/></symbol></g><g id="marker-defs"><marker id="memnecessarystimulationff0033white" markerHeight="12" markerWidth="16" orient="auto" preserveAspectRatio="none" refX="16" refY="6" viewBox="0 0 16 12"><g id="g-memnecessarystimulationff0033white" transform=""><g transform="rotate(180 8 6)"><rect y="5.4" width="2" height="1.2" style="stroke:none"/><line x1="14" x2="14" y2="12" fill="none" stroke="#f03"/><line x1="16" x2="16" y1="6" y2="6" fill="none"/><polygon points="0 6 9 11 9 1" fill="#fff" stroke="#f03"/></g></g></marker><marker id="meminhibitioncc0000white" markerHeight="20" markerWidth="10" orient="auto" preserveAspectRatio="none" refX="10" refY="10" viewBox="0 0 10 20"><g id="g-meminhibitioncc0000white" transform=""><g transform="rotate(180 5 10)"><rect y="9" width="8" height="2" style="stroke:none"/><line x="0" y="0" width="12" height="12" x1="7" x2="7" y2="20" stroke="#c00" stroke-width="1.8"/></g></g></marker><marker id="mea33cc00" markerHeight="12" markerWidth="12" orient="auto" preserveAspectRatio="none" refX="12" refY="6" viewBox="0 0 12 12"><g id="g-mea33cc00" transform=""><g transform="rotate(180 6 6)"><rect y="5.4" width="2" height="1.2" style="stroke:#fff"/><polygon points="12 11 0 6 12 1" fill="#3c0" stroke-width="0"/></g></g></marker><marker id="memconversion33cc00white" markerHeight="12" markerWidth="12" orient="auto" preserveAspectRatio="none" refX="12" refY="6" viewBox="0 0 12 12"><g id="g-memconversion33cc00white" transform=""><g transform="rotate(180 6 6)"><rect y="5.4" width="2" height="1.2" style="stroke:#fff"/><polygon points="12 11 0 6 12 1" fill="#3c0" stroke-width="0"/></g></g></marker><marker id="membinding660099white" markerHeight="12" markerWidth="12" orient="auto" preserveAspectRatio="none" refX="12" refY="6" viewBox="0 0 12 12"><g id="g-membinding660099white" transform=""><g transform="rotate(180 6 6)"><rect y="5.4" width="2" height="1.2" style="stroke:#fff"/><polygon points="12 12 0 6 12 0 5 6" fill="#609" stroke-width="0"/></g></g></marker><marker id="mea999900" markerHeight="12" markerWidth="12" orient="auto" preserveAspectRatio="none" refX="12" refY="6" viewBox="0 0 12 12"><g id="g-mea999900" transform=""><g transform="rotate(180 6 6)"><rect y="5.4" width="2" height="1.2" style="stroke:#fff"/><polygon points="12 11 0 6 12 1" fill="#990" stroke-width="0"/></g></g></marker><marker id="mea0c0" markerHeight="12" markerWidth="12" orient="auto" preserveAspectRatio="none" refX="12" refY="6" viewBox="0 0 12 12"><g id="g-mea0c0" transform=""><g transform="rotate(180 6 6)"><rect y="5.4" width="2" height="1.2" style="stroke:#fff"/><polygon points="12 11 0 6 12 1" fill="#0c0" stroke-width="0"/></g></g></marker><marker id="memconversion00cc00white" markerHeight="12" markerWidth="12" orient="auto" preserveAspectRatio="none" refX="12" refY="6" viewBox="0 0 12 12"><g id="g-memconversion00cc00white" transform=""><g transform="rotate(180 6 6)"><rect y="5.4" width="2" height="1.2" style="stroke:#fff"/><polygon points="12 11 0 6 12 1" fill="#0c0" stroke-width="0"/></g></g></marker><marker id="mea" markerHeight="12" markerWidth="12" orient="auto" preserveAspectRatio="none" refX="12" refY="6" viewBox="0 0 12 12"><g id="g-mea" transform=""><g transform="rotate(180 6 6)"><rect y="5.4" width="2" height="1.2" style="stroke:#fff"/><polygon points="12 11 0 6 12 1" stroke-width="0"/></g></g></marker><marker id="memstimulation000" markerHeight="12" markerWidth="12" orient="auto" preserveAspectRatio="none" refX="12" refY="6" viewBox="0 0 12 12"><g id="g-memstimulation000" transform=""><g transform="rotate(180 6 6)"><rect y="5.4" width="2" height="1.2" style="stroke:none"/><line x1="12" x2="12" y1="6" y2="6" fill="none"/><polygon points="0 6 11 11 11 1" fill="#fff" stroke="#000"/></g></g></marker><marker id="memcatalysis3366ffwhite" markerHeight="12" markerWidth="12" orient="auto" preserveAspectRatio="none" refX="12" refY="6" viewBox="0 0 12 12"><g id="g-memcatalysis3366ffwhite" transform=""><g transform="rotate(180 6 6)"><circle cx="6" cy="6" r="5.3px" fill="#fff" stroke="#36f"/></g></g></marker><marker id="meminhibitionff3333white" markerHeight="20" markerWidth="10" orient="auto" preserveAspectRatio="none" refX="10" refY="10" viewBox="0 0 10 20"><g id="g-meminhibitionff3333white" transform=""><g transform="rotate(180 5 10)"><rect y="9" width="8" height="2" style="stroke:none"/><line x="0" y="0" width="12" height="12" x1="7" x2="7" y2="20" stroke="#f33" stroke-width="1.8"/></g></g></marker></g></defs><g id="viewport-20220102145031429" class="svg-pan-zoom_viewport" transform="matrix(0.49 0 0 0.49 0 88.19)" style="transform:matrix(0.49, 0, 0, 0.49, 0, 88.19)"><style>svg.Diagram {font-family: 'Liberation Sans', Arial, sans-serif; }.Diagram path {fill: transparent;stroke: #000;marker-end: url(#mea);}.Diagram symbol path {fill: inherit;stroke: inherit;stroke-width: inherit;marker-end: inherit;}.Diagram rect {fill: #fff;stroke: #000;}.Diagram text {dominant-baseline: central;overflow: hidden;text-anchor: middle;fill: #000;font-size: 12px;}</style><style type="text/css">.Viewport .textContent {
  pointer-events: none;
  stroke-width: 0px;
}

					.Viewport.Icon {
  fill: white;
}

/* Hide the InfoBox */
.Viewport.textContent {
  font-size: 0;
}

.textContent {
  stroke: none;
}

.DataNode {
  stroke-miterlimit: 1;
  pointer-events: auto;
}

.DataNode:hover {
  cursor: pointer;
}

/* TODO should this apply to things other than DataNodes? */
.DataNode.textContent {
  pointer-events: none;
}

.DataNode.Highlighted {
  opacity: 0.6;
  stroke-width: 0px;
}

marker {
  /* this is what should work per the spec
  stroke-dasharray: none; */
  /* but I need to add this to make it work in Safari */
  stroke-dasharray: 9999999999999999999999999;
}

.Citation.Icon {
  fill: none;
  stroke-width: 0px;
}

.Citation.textContent {
  text-align: center;
  vertical-align: top;
  font-size: 7px;
  fill: #999;
  fill-opacity: 1;
  stroke: none;
}</style><g id="WP5036" class="Pathway http___identifiers_org_pw_PW_0000003 http___identifiers_org_pw_PW_0000244 Viewport"  name="Name: Angiotensin II receptor type 1 pathway Organism: Homo sapiens" ><g class="Pathway http___identifiers_org_pw_PW_0000003 http___identifiers_org_pw_PW_0000244 Viewport"><rect   width="2454.7" height="1007.7" style="stroke:none"/><g id="de3c5" class="Edge"  ><path    d="m2150.5 336.07 0.96-42.37" style="stroke:#f03;marker-end:url(#memnecessarystimulationff0033white)"/></g><g id="ecdd6" class="Edge"  ><path    d="m1039.9 396.51-166.33 28.61" style="stroke:#3c0;marker-end:url(#mea33cc00)"/></g><g id="a0e60" class="Edge"  ><path    d="m815.78 479.09 36.91 129.89" stroke-dasharray="5,3" style="stroke:#990;marker-end:url(#mea999900)"/></g><g id="d3f47" class="Edge"  ><path    d="m2277 87.07v60.63"/></g><g id="d6b4a" class="Edge"  ><path    d="m560.29 300.72-0.79 37.74" style="stroke:#36f;marker-end:url(#memcatalysis3366ffwhite)"/></g><g id="fe499" class="Edge"  ><path    d="m1547.5 767.18v117.81" stroke-dasharray="5,3" style="marker-end:none"/></g><g id="beaaa" class="Edge"  ><path    d="m1711.4 398.6-30.38 164.76" style="stroke:#0c0;marker-end:url(#mea0c0)"/></g><g id="a44f4" class="Edge"  ><path    d="m1251.7 513.93-3e-13 -420.25" style="stroke:#3c0;marker-end:url(#mea33cc00)"/></g><g id="c08c7" class="Edge"  ><path    d="m844.68 479.09 37.91 47.51" style="stroke:#3c0;marker-end:url(#mea33cc00)"/></g><g id="b3c4b" class="Edge"  ><path    d="m527.25 338.84 80.64-0.95" style="stroke:#3c0;marker-end:url(#mea33cc00)"/><g id="a2029" class="AB" transform="translate(559.5 338.46)"  ><g class="AB"/></g></g><g id="c403b" class="Edge"  ><path    d="m1521 485.37-70.66 41.57" stroke-dasharray="5,3" style="stroke:#990;marker-end:url(#mea999900)"/></g><g id="f5869" class="Edge"  ><path    d="m988.59 526.6 33.63-0.17" style="stroke:#0c0;marker-end:url(#mea0c0)"/></g><g id="df943" class="Edge"  ><path    d="m690.96 337.89 78.82-59.82" style="stroke:#0c0;marker-end:url(#mea0c0)"/></g><g id="f8d39" class="Edge"  ><path    d="m1431.2 278.07h-68.87" stroke-dasharray="5,3" style="marker-end:none"/></g><g id="bdaf0" class="Edge"  ><path    d="m2277 172.7-136.65 43.29" style="stroke:#f33;marker-end:url(#meminhibitionff3333white)"/></g><g id="ef8d9" class="Edge"  ><path    d="m1600.5 435.87 65.83-49.77" style="stroke:#0c0;marker-end:url(#mea0c0)"/></g><g id="f8cad" class="Edge"  ><path    d="m1317.4 290.57 7.83 50.35" style="stroke:#609;marker-end:url(#membinding660099white)"/></g><g id="c2f95" class="Edge"  ><path    d="m1691 291.17-0.94 36.54" style="stroke:#36f;marker-end:url(#memcatalysis3366ffwhite)"/></g><g id="ac101" class="Edge"  ><path    d="m786.87 479.09-98.87 78.35" style="stroke:#3c0;marker-end:url(#mea33cc00)"/></g><g id="fd279" class="Edge"  ><path    d="m1112.2 526.43h94.49" stroke-dasharray="5,3" style="marker-end:none"/></g><g id="c273f" class="Edge"  ><path    d="m2138.7 145.22 93.37-64.40" style="stroke:#0c0;marker-end:url(#mea0c0)"/></g><g id="c9c87" class="Edge"  ><path    d="m2109.3 430.65 0.64 44.23" style="stroke:#0c0;marker-end:url(#mea0c0)"/></g><g id="ea1d5" class="Edge"  ><path    d="m1296.7 81.18-805.33 2.75" style="stroke:#3c0;marker-end:url(#mea33cc00)"/></g><g id="f4986" class="Edge"  ><path    d="m1726.4 327.71h-91.01" style="stroke:#0c0;marker-end:url(#memconversion00cc00white)"/><g id="e2594" class="AB" transform="translate(1690 327.71)"  ><g class="AB"/></g></g><g id="a3d8c" class="Edge"  ><path    d="m2039.5 87.07 99.21 58.15" style="stroke:#0c0;marker-end:url(#mea0c0)"/></g><g id="a3fe0" class="Edge"  ><path    d="m394.37 157.39-187.26 28.05" style="stroke:#3c0;marker-end:url(#mea33cc00)"/></g><g id="d6c13" class="Edge"  ><path    d="m1547.5 485.37 3e-13 248.81" style="stroke:#0c0;marker-end:url(#mea0c0)"/></g><g id="aa2f0" class="Edge"  ><path    d="m757.96 425.13-172.35 46.71" stroke-dasharray="5,3" style="stroke:#990;marker-end:url(#mea999900)"/></g><g id="b29fe" class="Edge"  ><path    d="m1691 196.13v23.09" style="stroke:#0c0;marker-end:url(#memconversion00cc00white)"/></g><g id="ab412" class="Edge"  ><path    d="m560.29 247.16v29.18" style="stroke:#3c0;marker-end:url(#mea33cc00)"/></g><g id="bcb67" class="Edge"  ><path    d="m461.87 163.64 53.41 13.95" style="stroke:#3c0;marker-end:url(#mea33cc00)"/></g><g id="ecaff" class="Edge"  ><path    d="m2062 293.7h223.8" style="stroke:#0c0;marker-end:url(#mea0c0)"/><g id="a12f1" class="AB" transform="translate(2151.5 293.7)"  ><g class="AB"/></g></g><g id="c0eba" class="Edge"  ><path    d="m1474.1 404.57 46.96 14.80" style="stroke:#0c0;marker-end:url(#mea0c0)"/></g><g id="e9522" class="Edge"  ><path    d="m1552.4 327.71-53.63-37.14" style="stroke:#0c0;marker-end:url(#mea0c0)"/></g><g id="be191" class="Edge"  ><path    d="m560.29 190.09v32.08" style="stroke:#3c0;marker-end:url(#mea33cc00)"/></g><g id="f226f" class="Edge"  ><path    d="m1691 244.22 2e-13 22.58" style="stroke:#0c0;marker-end:url(#memconversion00cc00white)"/></g><g id="f7980" class="Edge"  ><path    d="m2013.5 172.53 317.32 108.67" style="stroke:#0c0;marker-end:url(#mea0c0)"/><g id="a00ca" class="AB" transform="translate(2140.4 216)"  ><g class="AB"/></g></g><g id="b62fd" class="Edge"  ><path    d="m1187.4 290.57-7.47 44.94" style="stroke:#609;marker-end:url(#membinding660099white)"/></g><g id="cb363" class="Edge"  ><path    d="m162.12 197.93 62.85 243.56" style="stroke:#3c0;marker-end:url(#memconversion33cc00white)"/></g><g id="de449" class="Edge"  ><path    d="m1018.7 740.22-591.32 52.66" style="stroke:#3c0;marker-end:url(#mea33cc00)"/></g><g id="fa18a" class="Edge"  ><path    d="m2013.5 172.53-4.27 105.11" style="stroke:#0c0;marker-end:url(#mea0c0)"/></g><g id="f18d8" class="Edge"  ><path    d="m1556.6 158.92 89.39 18.46" style="stroke:#0c0;marker-end:url(#mea0c0)"/></g><g id="aacb9" class="Edge"  ><path    d="m2330.8 306.2-198.99 99.45" style="stroke:#0c0;marker-end:url(#mea0c0)"/></g><g id="c0ac6" class="Edge"  ><path    d="m540.62 490.59-158.21 281.79" stroke-dasharray="5,3" style="stroke:#990;marker-end:url(#mea999900)"/></g><g id="c0c8b" class="Edge"  ><path    d="m1262.6 627.73-66.08 60.70" style="stroke:#609;marker-end:url(#membinding660099white)"/></g><g id="cb960" class="Edge"  ><path    d="m439.37 163.64-83.47 608.74" style="stroke:#3c0;marker-end:url(#mea33cc00)"/></g><g id="b1ff2" class="Edge"  ><path    d="m435 936.16 63.45 0.08" style="marker-end:url(#memstimulation000)"/></g><g id="b2de4" class="Edge"  ><path    d="m382.41 838.38-0.40 64.78" stroke-dasharray="5,3" style="marker-end:none"/></g><g id="befac" class="Edge"  ><path    d="m643 576.19-234.09 196.19" style="stroke:#3c0;marker-end:url(#mea33cc00)"/></g><g id="e8866" class="Edge"  ><path    d="m1556.6 92.6-3e-13 41.32" style="stroke:#609;marker-end:url(#membinding660099white)"/></g><g id="a6f4d" class="Edge"  ><path    d="m942.68 615.23 274.88-1e-13" stroke-dasharray="5,3" style="marker-end:none"/></g><g id="b11cf" class="Edge"  ><path    d="m2009.2 309.76 77.6 95.89" style="stroke:#0c0;marker-end:url(#mea0c0)"/></g><g id="f1798" class="Edge"  ><path    d="m2013.5 87.07v60.46" style="stroke:#609;marker-end:url(#membinding660099white)"/></g><g id="f99d1" class="Edge"  ><path    d="m439.37 96.43-5e-14 42.20" style="stroke:#609;marker-end:url(#membinding660099white)"/></g><g id="fbd72" class="Edge"  ><path    d="m859.78 278.07h282.58" stroke-dasharray="5,3" style="marker-end:none"/></g><g id="ef18c" class="Edge"  ><path    d="m439.37 163.64-150.46 172.51" style="stroke:#3c0;marker-end:url(#mea33cc00)"/></g><g id="b6718" class=" PhysicalEntity CellularComponent Cell" transform="translate(1377.2 144.72)"  ><g class=" PhysicalEntity CellularComponent Cell" filter="url(#doublefalse3filter)"><g class=" PhysicalEntity CellularComponent Cell"><rect   transform="matrix(0.97 0 0 0.98 5.84 5.90)" width="439.4" height="705.7" rx="15" ry="15" stroke-width="3" style="fill:transparent;stroke:#c0c0c0"/></g></g></g><g id="d0518" class=" PhysicalEntity CellularComponent Cell" transform="translate(58.45 149.2)"  ><g class=" PhysicalEntity CellularComponent Cell" filter="url(#doublefalse3filter)"><g class=" PhysicalEntity CellularComponent Cell"><rect   transform="matrix(0.99 0 0 0.98 5.93 5.90)" width="1070.3" height="699.84" rx="15" ry="15" stroke-width="3" style="fill:transparent;stroke:#c0c0c0"/></g></g></g><g id="e9a60" class=" PhysicalEntity CellularComponent Cell" transform="translate(1933.5 155.69)"  ><g class=" PhysicalEntity CellularComponent Cell" filter="url(#doublefalse3filter)"><g class=" PhysicalEntity CellularComponent Cell"><rect   transform="matrix(0.98 0 0 0.97 5.86 5.81)" width="492.7" height="375.53" rx="15" ry="15" stroke-width="3" style="fill:transparent;stroke:#c0c0c0"/></g></g></g><g id="b439d" class="Label" transform="translate(940.91 200.17)"  name="myofibroblast transition" ><g class="Label"/><text   transform="translate(82.5,12.5)"    >myofibroblast transition</text></g><g id="fda90" class="Label" transform="translate(2064.9 474.87)"  name="Fibrosis" ><g class="Label"/><text   transform="translate(45,12.5)"    >Fibrosis</text></g><g id="b0bd2" class="Label" transform="translate(264.87 178.65)"  name="pro-oxidant" ><g class="Label"/><text   transform="translate(45,12.5)"    >pro-oxidant</text></g><g id="bb860" class="Label" transform="translate(1377.7 802.79)"  name="lung vascular  smooth muscle cell" ><g class="Label"/><text   transform="translate(61.87 23.09)"    ><tspan   x="0" y="-6.60">lung vascular </tspan><tspan   x="0" y="6.60">smooth muscle cell</tspan></text></g><g id="b0594" class="Label" transform="translate(504.24 886.71)"  name="Intrinsic coagulation pathway" ><g class="Label"/><text   transform="translate(107.57 12.5)"    >Intrinsic coagulation pathway</text></g><g id="eb171" class="GroupGroup" transform="translate(1366.9 526.94)"  ><g class="GroupGroup"><g id="a8b04" class="Label" transform="translate(38.5,8)"  name="Contraction" ><g class="Label"/><text   transform="translate(45,12.5)"    >Contraction</text></g><g id="c5af0" class="Label" transform="translate(18.5 57)"  name="basic-FGF, PDGF-s" ><g class="Label"/><text   transform="translate(65,12.5)"    >basic-FGF, PDGF-s</text></g><g id="ce97b" class="Label" transform="translate(8 33)"  name="prostaglandins, VEGF" ><g class="Label"/><text   transform="translate(75.5,12.5)"    >prostaglandins, VEGF</text></g></g></g><g id="ae6dd" class="Label" transform="translate(2285.8 281.2)"  name="JNK" ><g class="Label"/><text   transform="translate(45,12.5)"    >JNK</text></g><g id="b82d7" class="Label" transform="translate(65.14 816.55)"  name="lung fibroblast" ><g class="Label"/><text   transform="translate(45,12.5)"    >lung fibroblast</text></g><g id="a6d84" class="Label" transform="translate(1927.6 503.89)"  name="Alveolar Epithelial Cell" ><g class="Label"/><text   transform="translate(75.5,12.5)"    >Alveolar Epithelial Cell</text></g><g id="bb827" class="GroupComplex" transform="translate(1065.9 317.01)"  ><g class="GroupComplex"><use class="Icon" width="114.00" height="74" fill="#b4b464" fill-opacity=".1" stroke="grey" href="#Octagon"/><g id="ed53c" class="GeneProduct " transform="translate(12,37)"  name="TGFBR1" ><rect   width="90" height="25"/><text   transform="translate(45 12.5)"    >TGFBR1</text></g><g id="dad69" class="GeneProduct " transform="translate(12 12)"  name="TGFBR2" ><rect   width="90" height="25"/><text   transform="translate(45 12.5)"    >TGFBR2</text></g></g></g><g id="ff771" class="Metabolite " transform="translate(2232 62.07)"  name="ANG 1-7" ><rect   width="90" height="25" style="stroke:#00f"/><text   transform="translate(45 12.5)"     style="fill:#00f">ANG 1-7</text></g><g id="df890" class="GeneProduct " transform="translate(117.12 172.93)"  name="NOX4" ><rect   width="90" height="25"/><text   transform="translate(45 12.5)"    >NOX4</text></g><g id="dad2e" class="GeneProduct " transform="translate(518.75 276.35)"  name="MKK" ><rect   width="83.08" height="24.37"/><text   transform="translate(41.54 12.19)"    >MKK</text></g><g id="d24b1" class="GeneProduct " transform="translate(444.17 326.66)"  name="MAPK1" ><rect   width="83.08" height="24.37"/><text   transform="translate(41.54 12.19)"    >MAPK1</text></g><g id="dd410" class="GeneProduct " transform="translate(2232 147.7)"  name="MAS1" ><rect   width="90" height="25"/><text   transform="translate(45 12.5)"    >MAS1</text></g><g id="e6d9d" class="GeneProduct " transform="translate(2105.5 336.07)"  name="RACK1" ><rect   width="90" height="25"/><text   transform="translate(45 12.5)"    >RACK1</text></g><g id="d813c" class="Protein" transform="translate(2093.7 145.22)"  name="ACE2" ><rect   width="90" height="25"/><text   transform="translate(45 12.5)"    >ACE2</text></g><g id="daf0d" class="GeneProduct " transform="translate(515.29 165.09)"  name="Ras" ><rect   width="90" height="25"/><text   transform="translate(45 12.5)"    >Ras</text></g><g id="df283" class="GeneProduct " transform="translate(515.29 222.16)"  name="RAF" ><rect   width="90" height="25"/><text   transform="translate(45 12.5)"    >RAF</text></g><g id="dc71a" class="Protein" transform="translate(1022.2 513.93)"  name="Angiotensinogen" ><rect   width="90" height="25" style="stroke:#00f"/><text   transform="translate(45 12.5)"     style="fill:#00f">Angiotensinogen</text></g><g id="c366e" class="GroupGroup" transform="translate(757.96 407.14)"  ><g class="GroupGroup"><g id="c35f5" class="GeneProduct " transform="translate(8 8)"  name="SMAD4" ><rect   width="90" height="25"/><text   transform="translate(45 12.5)"    >SMAD4</text></g><g id="b9f88" class="GeneProduct " transform="translate(8 33)"  name="SMAD3" ><rect   width="90" height="25"/><g id="a9480" class="State Burr" transform="translate(79.73 15.31)"  ><g class="State Burr"><use class="State Burr Node Icon" width="20.55" height="19.39" fill="#fff" stroke="#000" href="#Ellipse"/></g></g><text   transform="translate(45 12.5)"    >SMAD3</text></g><g id="e0665" class="Label" transform="translate(89.52 52.03)"  name="P" ><g class="Label"/><text   transform="translate(9.05 5.95)"    >P</text></g></g></g><g id="cec82" class="GeneProduct " transform="translate(243.91 336.15)"  name="PDGFD" ><rect   width="90" height="25"/><text   transform="translate(45,12.5)"    >PDGFD</text></g><g id="d13c6" class="GroupGroup" transform="translate(1010.7 667.93)"  ><g class="GroupGroup"><g id="d1dca" class="GeneProduct " transform="translate(95.75 8)"  name="IL11RA" ><rect   width="90" height="25"/><text   transform="translate(45,12.5)"    >IL11RA</text></g><g id="e0e98" class="GeneProduct " transform="translate(49.27 34.04)"  name="IL6ST" ><rect   width="90" height="25"/><text   transform="translate(45,12.5)"    >IL6ST</text></g><g id="d0d33" class="GeneProduct " transform="translate(8 59.79)"  name="PTPN11" ><rect   width="90" height="25"/><text   transform="translate(45,12.5)"    >PTPN11</text></g></g></g><g id="f37f0" class="GeneProduct " transform="translate(629.79 707.56)"  name="ACTA2" ><rect   width="90" height="25"/><text   transform="translate(45,12.5)"    >ACTA2</text></g><g id="c24f3" class="GeneProduct " transform="translate(598 551.19)"  name="SP1" ><rect   width="90" height="25"/><text   transform="translate(45 12.5)"    >SP1</text></g><g id="fbeee" class="GeneProduct " transform="translate(394.37 138.64)"  name="AGTR1" ><rect   width="90" height="25"/><text   transform="translate(45,12.5)"    >AGTR1</text></g><g id="e3c7b" class="GeneProduct " transform="translate(1039.9 377.76)"  name="SMAD3" ><rect   width="90" height="25"/><text   transform="translate(45 12.5)"    >SMAD3</text></g><g id="d4e0c" class="GroupGroup" transform="translate(882.59 493.6)"  ><g class="GroupGroup"><g id="b4ae4" class="GeneProduct " transform="translate(8,8)"  name="JUND" ><rect   width="90" height="25"/><text   transform="translate(45,12.5)"    >JUND</text></g><g id="e6d8d" class="GeneProduct " transform="translate(8 33)"  name="HIF1A" ><rect   width="90" height="25"/><text   transform="translate(45 12.5)"    >HIF1A</text></g></g></g><g id="be306" class="Pathway" transform="translate(1016.9 763.48)"  name="Interleukin-11 Signaling Pathway" ><g class="Pathway"><rect   width="237" height="25" rx="15" ry="15" style="stroke:#14961e"/></g><g ><defs><clipPath ><rect x="-118.5" y="-12.5" width="237" height="25" style="stroke:none"/></clipPath></defs><text   transform="translate(118.5,12.5)"    font-weight="bold"  style="fill:#14961e">Interleukin-11 Signaling Pathway</text></g></g><g id="c0f20" class="GeneProduct " transform="translate(852.68 602.73)"  name="IL11" ><rect   width="90" height="25"/><text   transform="translate(45,12.5)"    >IL11</text></g><g id="cc7c2" class="Metabolite " transform="translate(387.37 71.43)"  name="angiotensin II" ><rect   width="104" height="25" style="stroke:#00f"/><text   transform="translate(52,12.5)"     style="fill:#00f">angiotensin II</text></g><g id="ca432" class="GeneProduct " transform="translate(495.62 465.59)"  name="CTGF" ><rect   width="90" height="25"/><text   transform="translate(45,12.5)"    >CTGF</text></g><g id="c0fa3" class="GeneProduct " transform="translate(498.45 923.74)"  name="F12" ><rect   width="90" height="25"/><text   transform="translate(45,12.5)"    >F12</text></g><g id="ba4c4" class="Pathway" transform="translate(2064.3 405.65)"  name="Apoptosis" ><g class="Pathway"><rect   width="90" height="25" rx="15" ry="15" style="stroke:#14961e"/></g><g ><defs><clipPath ><rect x="-45" y="-12.5" width="90" height="25" style="stroke:none"/></clipPath></defs><text   transform="translate(45,12.5)"    font-weight="bold"  style="fill:#14961e">Apoptosis</text></g></g><g id="ec0eb" class="GeneProduct " transform="translate(769.78 265.57)"  name="TGFB1" ><rect   width="90" height="25"/><text   transform="translate(45,12.5)"    >TGFB1</text></g><g id="d8d8c" class="Pathway" transform="translate(948.13 172.83)"  name="Cell Cycle" ><g class="Pathway"><rect   width="90" height="25" rx="15" ry="15" style="stroke:#14961e"/></g><g ><defs><clipPath ><rect x="-45" y="-12.5" width="90" height="25" style="stroke:none"/></clipPath></defs><text   transform="translate(45,12.5)"    font-weight="bold"  style="fill:#14961e">Cell Cycle</text></g></g><g id="f6e15" class="GroupGroup" transform="translate(329.41 772.38)"  ><g class="GroupGroup"><g id="d00e9" class="GeneProduct " transform="translate(8,8)"  name="COL1A1" ><rect   width="90" height="25"/><text   transform="translate(45,12.5)"    >COL1A1</text></g><g id="cb643" class="GeneProduct " transform="translate(8 33)"  name="COL1A2" ><rect   width="90" height="25"/><text   transform="translate(45,12.5)"    >COL1A2</text></g></g></g><g id="e733a" class="Pathway" transform="translate(491.51 952.68)"  name="Complement and Coagulation Cascades" ><g class="Pathway"><rect   width="293.84" height="25" rx="15" ry="15" style="stroke:#14961e"/></g><g ><defs><clipPath ><rect x="-146.92" y="-12.5" width="293.84" height="25" style="stroke:none"/></clipPath></defs><text   transform="translate(146.92 12.5)"    font-weight="bold"  style="fill:#14961e">Complement and Coagulation Cascades</text></g></g><g id="ac84d" class="GeneProduct " transform="translate(1511.6 133.92)"  name="AGTR1" ><rect   width="90" height="25"/><text   transform="translate(45,12.5)"    >AGTR1</text></g><g id="f77c2" class="GeneProduct " transform="translate(1968.5 147.53)"  name="AGTR1" ><rect   width="90" height="25"/><text   transform="translate(45,12.5)"    >AGTR1</text></g><g id="bdb9f" class="GeneProduct " transform="translate(1431.2 265.57)"  name="TGFB1" ><rect   width="90" height="25"/><text   transform="translate(45,12.5)"    >TGFB1</text></g><g id="f35d9" class="GeneProduct " transform="translate(1217.6 602.73)"  name="IL11" ><rect   width="90" height="25"/><text   transform="translate(45,12.5)"    >IL11</text></g><g id="b013a" class="Edge"  ><path    d="m1018.7 740.22-298.94-20.16" style="stroke:#3c0;marker-end:url(#mea33cc00)"/></g><g id="c06c5" class="GroupGroup" transform="translate(329 903.16)"  ><g class="GroupGroup"><g id="bc58d" class="GeneProduct " transform="translate(8,8)"  name="COL1A1" ><rect   width="90" height="25"/><text   transform="translate(45,12.5)"    >COL1A1</text></g><g id="df16f" class="GeneProduct " transform="translate(8,33)"  name="COL1A2" ><rect   width="90" height="25"/><text   transform="translate(45,12.5)"    >COL1A2</text></g></g></g><g id="b178b" class="Metabolite " transform="translate(1504.6 67.6)"  name="angiotensin II" ><rect   width="104" height="25" style="stroke:#00f"/><text   transform="translate(52,12.5)"     style="fill:#00f">angiotensin II</text></g><g id="cbd98" class="Metabolite " transform="translate(1961.5 62.07)"  name="angiotensin II" ><rect   width="104" height="25" style="stroke:#00f"/><text   transform="translate(52,12.5)"     style="fill:#00f">angiotensin II</text></g><g id="c230d" class="GeneProduct " transform="translate(1142.4 265.57)"  name="TGFB1" ><rect   width="90" height="25"/><text   transform="translate(45,12.5)"    >TGFB1</text></g><g id="a98f8" class="Pathway" transform="translate(1206.7 68.68)"  name="RAS / NRAS" ><g class="Pathway"><rect   width="90" height="25" rx="15" ry="15" style="stroke:#14961e"/></g><g ><defs><clipPath ><rect x="-45" y="-12.5" width="90" height="25" style="stroke:none"/></clipPath></defs><text   transform="translate(45,12.5)"    font-weight="bold"  style="fill:#14961e">RAS / NRAS</text></g></g><g id="f2f2c" class="Protein" transform="translate(1206.7 513.93)"  name="Angiotensinogen" ><rect   width="90" height="25" style="stroke:#00f"/><text   transform="translate(45 12.5)"     style="fill:#00f">Angiotensinogen</text></g><g id="b1441" class="GeneProduct " transform="translate(607.88 325.71)"  name="MAPK1" ><rect   width="83.08" height="24.37"/><g id="cbdb2" class="State Burr" transform="translate(75.58 16.87)"  ><g class="State Burr"><use class="State Burr Node Icon" width="15" height="15" fill="#fff" stroke="#000" href="#Ellipse"/></g></g><text   transform="translate(41.54 12.19)"    >MAPK1</text></g><g id="df5ab" class="Label" transform="translate(683.7 345.76)"  name="P" ><g class="Label"/><text   transform="translate(9.05 5.95)"    >P</text></g><g id="b3672" class="GeneProduct " transform="translate(1666.4 373.6)"  name="NOX4" ><rect   width="90" height="25"/><text   transform="translate(45 12.5)"    >NOX4</text></g><g id="d2ba2" class="GroupGroup" transform="translate(1494.5 734.18)"  ><g class="GroupGroup"><g id="ea34b" class="GeneProduct " transform="translate(8,8)"  name="COL1A1" ><rect   width="90" height="25"/><text   transform="translate(45,12.5)"    >COL1A1</text></g></g></g><g id="cd7a6" class="GroupGroup" transform="translate(1494.5 876.99)"  ><g class="GroupGroup"><g id="ba4b8" class="GeneProduct " transform="translate(8,8)"  name="COL1A1" ><rect   width="90" height="25"/><text   transform="translate(45,12.5)"    >COL1A1</text></g></g></g><g id="f35b4" class="Label" transform="translate(223.78 879.03)"  name="Fibrosis" ><g class="Label"/><text   transform="translate(45,12.5)"    >Fibrosis</text></g><g id="de4b6" class="GeneProduct " transform="translate(1646 171.13)"  name="Ras" ><rect   width="90" height="25"/><text   transform="translate(45 12.5)"    >Ras</text></g><g id="c7493" class="GeneProduct " transform="translate(1646 219.22)"  name="RAF" ><rect   width="90" height="25"/><text   transform="translate(45 12.5)"    >RAF</text></g><g id="ecc80" class="GeneProduct " transform="translate(1649.4 266.8)"  name="MKK" ><rect   width="83.08" height="24.37"/><text   transform="translate(41.54 12.19)"    >MKK</text></g><g id="eb35a" class="GeneProduct " transform="translate(1726.4 315.53)"  name="MAPK1" ><rect   width="83.08" height="24.37"/><text   transform="translate(41.54 12.19)"    >MAPK1</text></g><g id="ff7f6" class="GroupGroup" transform="translate(1544.4 307.53)"  ><g class="GroupGroup"><g id="da0b8" class="GeneProduct " transform="translate(8,8)"  name="MAPK1" ><rect   width="83.08" height="24.37"/><g id="cbbc6" class="State Burr" transform="translate(75.58 16.87)"  ><g class="State Burr"><use class="State Burr Node Icon" width="15" height="15" fill="#fff" stroke="#000" href="#Ellipse"/></g></g><text   transform="translate(41.54 12.19)"    >MAPK1</text></g><g id="fbc7f" class="Label" transform="translate(82.81 27.94)"  name="P" ><g class="Label"/><text   transform="translate(9.05 5.95)"    >P</text></g></g></g><g id="f76a3" class="GeneProduct " transform="translate(1272.4 265.57)"  name="TGFB1" ><rect   width="90" height="25"/><text   transform="translate(45,12.5)"    >TGFB1</text></g><g id="aad36" class="GroupComplex" transform="translate(1325.2 322.42)"  ><g class="GroupComplex"><use class="Icon" width="114.00" height="74" fill="#b4b464" fill-opacity=".1" stroke="grey" href="#Octagon"/><g id="bbf8c" class="GeneProduct " transform="translate(12,37)"  name="TGFBR1" ><rect   width="90" height="25"/><text   transform="translate(45 12.5)"    >TGFBR1</text></g><g id="d3c58" class="GeneProduct " transform="translate(12 12)"  name="TGFBR2" ><rect   width="90" height="25"/><text   transform="translate(45 12.5)"    >TGFBR2</text></g></g></g><g id="d6f81" class="GeneProduct " transform="translate(1384.1 385.82)"  name="SMAD3" ><rect   width="90" height="25"/><text   transform="translate(45 12.5)"    >SMAD3</text></g><g id="d20fd" class="GroupGroup" transform="translate(1494.5 419.37)"  ><g class="GroupGroup"><g id="eaeb7" class="GeneProduct " transform="translate(8,8)"  name="SMAD4" ><rect   width="90" height="25"/><text   transform="translate(45 12.5)"    >SMAD4</text></g><g id="a8bf8" class="GeneProduct " transform="translate(8 33)"  name="SMAD3" ><rect   width="90" height="25"/><g id="e896d" class="State Burr" transform="translate(82.5 17.5)"  ><g class="State Burr"><use class="State Burr Node Icon" width="15" height="15" fill="#fff" stroke="#000" href="#Ellipse"/></g></g><text   transform="translate(45 12.5)"    >SMAD3</text></g></g></g><g id="ffc6d" class="Label" transform="translate(1582.6 472.77)"  name="P" ><g class="Label"/><text   transform="translate(9.05 5.95)"    >P</text></g><g id="bce59" class="Pathway" transform="translate(1555.3 563.36)"  name="ROS, NF-Kappa-B and Inflammatory Mediators  leading to Cytokine Storm" ><g class="Pathway"><rect   width="251.32" height="40.11" rx="15" ry="15" style="stroke:#14961e"/></g><g ><defs><clipPath ><rect x="-125.66" y="-20.06" width="251.32" height="40.11" style="stroke:none"/></clipPath></defs><text   transform="translate(125.66 20.06)"    font-weight="bold"  style="fill:#14961e;font-size:11px"><tspan   x="0" y="-6.05">ROS, NF-Kappa-B and Inflammatory Mediators</tspan><tspan   x="0" y="6.05">leading to Cytokine Storm</tspan></text></g></g><g id="f1a6e" class="Pathway" transform="translate(99.31 441.5)"  name="ROS, NF-Kappa-B and Inflammatory Mediators  leading to Cytokine Storm" ><g class="Pathway"><rect   width="251.32" height="40.11" rx="15" ry="15" style="stroke:#14961e"/></g><g ><defs><clipPath ><rect x="-125.66" y="-20.06" width="251.32" height="40.11" style="stroke:none"/></clipPath></defs><text   transform="translate(125.66 20.06)"    font-weight="bold"  style="fill:#14961e;font-size:11px"><tspan   x="0" y="-6.05">ROS, NF-Kappa-B and Inflammatory Mediators</tspan><tspan   x="0" y="6.05">leading to Cytokine Storm</tspan></text></g></g><g id="d98ab" class="Edge"  ><path    d="m2142 809.91h46.05" style="stroke:#c00;marker-end:url(#meminhibitioncc0000white)"/></g><g id="cea92" class="Edge"  ><path    d="m2139.8 764.72h44.04" style="stroke:#609;marker-end:url(#membinding660099white)"/></g><g id="af627" class="" transform="translate(1938.3 541.1)"  ><g class=""><rect   width="404.27" height="321.67" style="fill:transparent;stroke:#666"/></g></g><g id="c7fe7" class="Label" transform="translate(2016 567.44)"  name="Gene" ><g class="Label"/><text   transform="translate(8,10)"     style="fill:#666666;text-anchor:start;font-size:16px">Gene</text></g><g id="b3533" class="Label" transform="translate(1931.2 542.48)"  name="Legend" ><g class="Label"/><text   transform="translate(40,10)"    font-weight="bold"  style="fill:#666666;font-size:14px">Legend</text></g><g id="fb89d" class="Label" transform="translate(1948.7 566.85)"  ><rect   width="51.94" height="22.38"/></g><g id="b9e04" class="Label" transform="translate(2014.7 760.82)"  name="Complex" ><g class="Label"/><text   transform="translate(8,10)"     style="fill:#666666;text-anchor:start;font-size:16px">Complex</text></g><g id="fd8fa" class="Label" transform="translate(2191.2 754.71)"  name="Activates" ><g class="Label"/><text   transform="translate(8,10)"     style="fill:#666666;text-anchor:start;font-size:16px">Activates</text></g><g id="b42b5" class="Label" transform="translate(2191.2 800.56)"  name="Inhibits" ><g class="Label"/><text   transform="translate(8,10)"     style="fill:#666666;text-anchor:start;font-size:16px">Inhibits</text></g><g id="fe6f5" class="GroupComplex" transform="translate(1945.7 742.36)"  ><g class="GroupComplex"><use class="Icon" width="63.00" height="56.01" fill="#b4b464" fill-opacity=".1" stroke="grey" href="#Octagon"/><g id="b90a9" class="Label" transform="translate(12,12)"  ><rect   width="39.00" height="16.01"/></g><g id="a24a2" class="Label" transform="translate(12 28.01)"  ><rect   width="39.00" height="16.01"/></g></g></g><g id="b2588" class="Label" transform="translate(1949.4 622.82)"  ><rect   width="55.16" height="23.97" style="stroke:#33f"/></g><g id="a8ecc" class="Label" transform="translate(2016 624.69)"  name="Metabolite" ><g class="Label"/><text   transform="translate(8,10)"     style="fill:#666666;text-anchor:start;font-size:16px">Metabolite</text></g><g id="d2d22" class="Label" transform="translate(1951.9 688.7)"  ><rect   width="53.23" height="23.55" rx="15" ry="15" style="stroke:#0c0"/></g><g id="f4f14" class="Label" transform="translate(2014.7 690.58)"  name="Pathway" ><g class="Label"/><text   transform="translate(8,10)"     style="fill:#666666;text-anchor:start;font-size:16px">Pathway</text></g><g id="c9b67" class="Edge"  ><path    d="m2139.8 721.78h44.04" style="stroke:#0c0;marker-end:url(#mea0c0)"/></g><g id="b3754" class="Label" transform="translate(2191.2 701.31)"  name="Direct  Interaction" ><g class="Label"/><text   transform="translate(8 20.47)"     style="fill:#666666;text-anchor:start;font-size:16px"><tspan   x="0" y="-8.8">Direct </tspan><tspan   x="0" y="8.8">Interaction</tspan></text></g><g id="f5f08" class="Edge"  ><path    d="m2139.8 669.11h44.04" stroke-dasharray="5,3" style="stroke:#990;marker-end:url(#mea999900)"/></g><g id="b2e8b" class="Label" transform="translate(2191.2 646.42)"  name="Indirect  Interaction" ><g class="Label"/><text   transform="translate(8 22.69)"     style="fill:#666666;text-anchor:start;font-size:16px"><tspan   x="0" y="-8.8">Indirect </tspan><tspan   x="0" y="8.8">Interaction</tspan></text></g><g id="aaf90" class="Edge"  ><path    d="m2138.5 622.83h44.04" stroke-dasharray="5,3" style="stroke:#36f;marker-end:url(#memcatalysis3366ffwhite)"/></g><g id="f97bb" class="Label" transform="translate(2191.2 612.83)"  name="Catalysis" ><g class="Label"/><text   transform="translate(8,10)"     style="fill:#666666;text-anchor:start;font-size:16px">Catalysis</text></g><g id="a47f3" class="Edge"  ><path    d="m2138.5 575.56h44.04" stroke-dasharray="5,3" style="stroke:#f03;marker-end:url(#memnecessarystimulationff0033white)"/></g><g id="d5196" class="Label" transform="translate(2191.2 560.25)"  name="Necessary  Stimulation" ><g class="Label"/><text   transform="translate(8 15.31)"     style="fill:#666666;text-anchor:start;font-size:16px"><tspan   x="0" y="-8.8">Necessary </tspan><tspan   x="0" y="8.8">Stimulation</tspan></text></g><g id="a32b7" class="Edge"  ><path    d="m2142.2 840.8h46.05" stroke-dasharray="5,3" style="stroke:#333;marker-end:none"/></g><g id="f319a" class="Label" transform="translate(2191.4 831.45)"  name="Transportation" ><g class="Label"/><text   transform="translate(8,10)"     style="fill:#666666;text-anchor:start;font-size:16px">Transportation</text></g><g id="cde6d" class="Label" transform="translate(2014.8 822.43)"  name="Phosphorylated" ><g class="Label"/><text   transform="translate(8,10)"     style="fill:#666666;text-anchor:start;font-size:14px">Phosphorylated</text></g><g id="da0a6" class="Label" transform="translate(1947.5 821.85)"  ><rect   width="51.94" height="22.38"/></g><g id="cb565" class="" transform="translate(1993.4 837.43)"  ><g class=""><use class=" Node Icon" width="17.96" height="17.46" fill="#fff" stroke="#000" href="#Ellipse"/></g></g><g id="c2b6d" class="Label" transform="translate(1958.3 834.35)"  name="P" ><g class="Label"/><text   transform="translate(45,12.5)"     style="font-size:14px">P</text></g><g id="b6672" class="Label" transform="translate(1956.4 277.64)"  name="Protein Kinase C Family" ><g class="Label"/><text   transform="translate(52.78 16.06)"    ><tspan   x="0" y="-6.60">Protein Kinase C</tspan><tspan   x="0" y="6.60">Family</tspan></text></g></g></g></g></svg>