<?xml version="1.0" encoding="UTF-8"?>
<!--
  WikiPathways page: https://www.wikipathways.org/index.php/Pathway:WP5033
  URL for this compressed file: https://github.com/eweitz/cachome/tree/main/data/WP5033.svg
  Source code for compression: https://github.com/eweitz/cachome/tree/main/src/wikipathways.py
-->
<svg id="wp5033-svg" class="Diagram" width="800" height="600" color="black" baseProfile="full" prefix="schema:http://schema.org/" preserveAspectRatio="xMidYMid" version="1.1" viewBox="0 0 577.15 636.38" vocab="http://vocabularies.wikipathways.org/wp#" xmlns="http://www.w3.org/2000/svg" xmlns:xlink="http://www.w3.org/1999/xlink"><style>svg {font-family: 'Liberation Sans', Arial, sans-serif; }</style><defs><g id="jic-defs"><symbol id="Ellipse" overflow="visible" preserveAspectRatio="none" viewBox="0 0 50 50"><ellipse cx="25" cy="25" rx="25" ry="25" stroke="currentColor" vector-effect="non-scaling-stroke"/></symbol><symbol id="none" preserveAspectRatio="none" viewBox="0 0 100 100"/></g></defs><g id="WP5033" class="Viewport" color="black"  name="Name: Genes associated with the development of rheumatoid arthritis Organism: Homo sapiens"><rect id="WP5033-icon" class="Icon" width="577.15" height="636.38" fill="#fff" stroke="#000" stroke-width="0"/><g id="c68f0" class="Label" transform="translate(457.15 111.68)" color="#000"  name="Cytokines"><use id="c68f0-icon" class="Icon" width="90" height="25" fill="transparent"  stroke="#000" stroke-width="0" xlink:href="#none"/><text id="c68f0-text" class="Text" transform="translate(45,16.5)" fill="#000"  font-size="12px" stroke="white" stroke-width="0" text-anchor="middle"><tspan x="0" y="0">Cytokines</tspan></text></g><a  id="adeae" class="GeneProduct FCRL3 " transform="translate(41.459 309.9)"   name="FCRL3"  ><rect id="adeae-icon" class="Icon" transform="matrix(.9902 0 0 .96154 .4951 .48077)" width="101" height="25" fill="#fff" stroke="#000"/><text id="adeae-text" class="Text" transform="translate(50.5,16.5)" fill="#000"  font-size="12px" stroke="white" stroke-width="0" text-anchor="middle"><tspan x="0" y="0">FCRL3</tspan></text></a><a  id="b0000" class="GeneProduct PHF19 " transform="translate(41.459 499.44)"   name="PHF19"  ><rect id="b0000-icon" class="Icon" transform="matrix(.9902 0 0 .96154 .4951 .48077)" width="101" height="25" fill="#fff" stroke="#000"/><text id="b0000-text" class="Text" transform="translate(50.5,16.5)" fill="#000"  font-size="12px" stroke="white" stroke-width="0" text-anchor="middle"><tspan x="0" y="0">PHF19</tspan></text></a><a  id="b4b09" class="GeneProduct PTPN22 " transform="translate(181.39 152.26)"   name="PTPN22"  ><rect id="b4b09-icon" class="Icon" transform="matrix(.9902 0 0 .98773 .4951 .49387)" width="101" height="80.5" fill="#fff" stroke="#000"/><g id="da828" class="Burr State dbSNP_rs2476601" transform="translate(69.378 67.973)" color="#000"  name="R620W"><use id="da828-icon" class="Icon" transform="matrix(.98387 0 0 .96154 .49194 .48077)" width="61" height="25" fill="#fff" stroke="#000" xlink:href="#Ellipse"/><text id="da828-text" class="Text" transform="translate(30.5,15.5)" fill="#000"  font-size="10px" stroke="white" stroke-width="0" text-anchor="middle"><tspan x="0" y="0">R620W</tspan></text></g><g id="edd5b" class="Burr State dbSNP_rs2488457" transform="translate(66.75 4.254)" color="#000"  name="-1123G&gt;C"><use id="edd5b-icon" class="Icon" transform="matrix(.98561 0 0 .96226 .49281 .48113)" width="68.5" height="25.5" fill="#fff" stroke="#000" xlink:href="#Ellipse"/><text id="edd5b-text" class="Text" transform="translate(34.25,15.75)" fill="#000"  font-size="10px" stroke="white" stroke-width="0" text-anchor="middle"><tspan x="0" y="0">-1123G&gt;C</tspan></text></g><text id="b4b09-text" class="Text" transform="translate(50.5,44.25)" fill="#000"  font-size="12px" stroke="white" stroke-width="0" text-anchor="middle"><tspan x="0" y="0">PTPN22</tspan></text></a><g id="cfafa" class="Pathway" transform="translate(168.76 59.134)" color="#14961e"  name="chronic inflammation"><use id="cfafa-icon" class="Icon" width="103" height="25" fill="transparent"  stroke="#14961e" stroke-width="0" xlink:href="#none"/><text id="cfafa-text" class="Text" transform="translate(51.5,16.5)" fill="#14961e"  font-size="12px" font-weight="bold" stroke="black" stroke-width="0" text-anchor="middle"><tspan x="0" y="-6.6000000000000005">chronic</tspan> <tspan x="0" y="6.6000000000000005">inflammation</tspan></text></g><a  id="d27f6" class="GeneProduct CIITA " transform="translate(41.459 197.9)"   name="CIITA"  ><rect id="d27f6-icon" class="Icon" transform="matrix(.9902 0 0 .96154 .4951 .48077)" width="101" height="25" fill="#fff" stroke="#000"/><text id="d27f6-text" class="Text" transform="translate(50.5,16.5)" fill="#000"  font-size="12px" stroke="white" stroke-width="0" text-anchor="middle"><tspan x="0" y="0">CIITA</tspan></text></a><a  id="d5e18" class="GeneProduct TRAF1 " transform="translate(457.15 146.49)"   name="TRAF1"  ><rect id="d5e18-icon" class="Icon" transform="matrix(.98901 0 0 .96154 .49451 .48077)" width="90" height="25" fill="#fff" stroke="#000"/><text id="d5e18-text" class="Text" transform="translate(45,16.5)" fill="#000"  font-size="12px" stroke="white" stroke-width="0" text-anchor="middle"><tspan x="0" y="0">TRAF1</tspan></text></a><a  id="dde08" class="GeneProduct SLC22A4 " transform="translate(41.459 362.9)"   name="SLC22A4"  ><rect id="dde08-icon" class="Icon" transform="matrix(.9902 0 0 .96154 .4951 .48077)" width="101" height="25" fill="#fff" stroke="#000"/><text id="dde08-text" class="Text" transform="translate(50.5 16.5)" fill="#000"  font-size="12px" stroke="white" stroke-width="0" text-anchor="middle"><tspan x="0" y="0">SLC22A4</tspan></text></a><g id="ee0da" class="Pathway" transform="translate(315.34 59.937)" color="#14961e"  name="citrullination"><use id="ee0da-icon" class="Icon" width="90" height="25" fill="transparent"  stroke="#14961e" stroke-width="0" xlink:href="#none"/><text id="ee0da-text" class="Text" transform="translate(45,16.5)" fill="#14961e"  font-size="12px" font-weight="bold" stroke="black" stroke-width="0" text-anchor="middle"><tspan x="0" y="0">citrullination</tspan></text></g><a  id="f49c4" class="GeneProduct -DRB1 HLA-DRB1 -DRB1 " transform="translate(41.459 148.76)"   name="HLA-DRB1"  ><rect id="f49c4-icon" class="Icon" transform="matrix(.9902 0 0 .96154 .4951 .48077)" width="101" height="25" fill="#fff" stroke="#000"/><text id="f49c4-text" class="Text" transform="translate(50.5,16.5)" fill="#000"  font-size="12px" stroke="white" stroke-width="0" text-anchor="middle"><tspan x="0" y="0">HLA-DRB1</tspan></text></a><a  id="c000b" class="GeneProduct PADI4 " transform="translate(41.459 243.4)"   name="PADI4"  ><rect id="c000b-icon" class="Icon" transform="matrix(.9902 0 0 .96721 .4951 .48361)" width="101" height="29.5" fill="#fff" stroke="#000"/><g id="d18e6" class="Burr State dbSNP_rs2240340" transform="translate(-50.5 16.5)" color="#000"  name="C17336144T"><use id="d18e6-icon" class="Icon" transform="matrix(.9902 0 0 .96296 .4951 .48148)" width="101" height="25.99999999999999" fill="#fff" stroke="#000" xlink:href="#Ellipse"/><text id="d18e6-text" class="Text" transform="translate(50.5 16)" fill="#000"  font-size="10px" stroke="white" stroke-width="0" text-anchor="middle"><tspan x="0" y="0">C17336144T</tspan></text></g><text id="c000b-text" class="Text" transform="translate(50.5 18.75)" fill="#000"  font-size="12px" stroke="white" stroke-width="0" text-anchor="middle"><tspan x="0" y="0">PADI4</tspan></text></a><a  id="ffeed" class="GeneProduct IL6ST " transform="translate(457.15 188.41)"   name="IL6ST"  ><rect id="ffeed-icon" class="Icon" transform="matrix(.98901 0 0 .96154 .49451 .48077)" width="90" height="25" fill="#fff" stroke="#000"/><text id="ffeed-text" class="Text" transform="translate(45,16.5)" fill="#000"  font-size="12px" stroke="white" stroke-width="0" text-anchor="middle"><tspan x="0" y="0">IL6ST</tspan></text></a><a  id="f4dc3" class="GeneProduct STAT4 " transform="translate(457.15 228.49)"   name="STAT4"  ><rect id="f4dc3-icon" class="Icon" transform="matrix(.98901 0 0 .96154 .49451 .48077)" width="90" height="25" fill="#fff" stroke="#000"/><text id="f4dc3-text" class="Text" transform="translate(45,16.5)" fill="#000"  font-size="12px" stroke="white" stroke-width="0" text-anchor="middle"><tspan x="0" y="0">STAT4</tspan></text></a><g id="ff028" class="Label" transform="translate(186.89 111.68)" color="#000"  name="T cells"><use id="ff028-icon" class="Icon" width="90" height="25" fill="transparent"  stroke="#000" stroke-width="0" xlink:href="#none"/><text id="ff028-text" class="Text" transform="translate(45,16.5)" fill="#000"  font-size="12px" stroke="white" stroke-width="0" text-anchor="middle"><tspan x="0" y="0">T cells</tspan></text></g><g id="b135a" class="Label" transform="translate(46.959 111.68)" color="#000"  name="Other"><use id="b135a-icon" class="Icon" width="90" height="25" fill="transparent"  stroke="#000" stroke-width="0" xlink:href="#none"/><text id="b135a-text" class="Text" transform="translate(45,16.5)" fill="#000"  font-size="12px" stroke="white" stroke-width="0" text-anchor="middle"><tspan x="0" y="0">Other</tspan></text></g><g id="a7d30" class="Label" transform="translate(342.71 111.07)" color="#000"  name="B cells"><use id="a7d30-icon" class="Icon" width="90" height="25" fill="transparent"  stroke="#000" stroke-width="0" xlink:href="#none"/><text id="a7d30-text" class="Text" transform="translate(45,16.5)" fill="#000"  font-size="12px" stroke="white" stroke-width="0" text-anchor="middle"><tspan x="0" y="0">B cells</tspan></text></g><a  id="a5fa7" class="GeneProduct BLK " transform="translate(344.99 147.29)"   name="BLK"  ><rect id="a5fa7-icon" class="Icon" transform="matrix(.98901 0 0 .96154 .49451 .48077)" width="90" height="25" fill="#fff" stroke="#000"/><text id="a5fa7-text" class="Text" transform="translate(45,16.5)" fill="#000"  font-size="12px" stroke="white" stroke-width="0" text-anchor="middle"><tspan x="0" y="0">BLK</tspan></text></a><a  id="fed69" class="GeneProduct CD40 " transform="translate(345.78 189.82)"   name="CD40"  ><rect id="fed69-icon" class="Icon" transform="matrix(.98901 0 0 .96154 .49451 .48077)" width="90" height="25" fill="#fff" stroke="#000"/><text id="fed69-text" class="Text" transform="translate(45,16.5)" fill="#000"  font-size="12px" stroke="white" stroke-width="0" text-anchor="middle"><tspan x="0" y="0">CD40</tspan></text></a><a  id="ced68" class="GeneProduct CD244 " transform="translate(41.459 409.77)"   name="CD244"  ><rect id="ced68-icon" class="Icon" transform="matrix(.9902 0 0 .96154 .4951 .48077)" width="101" height="25" fill="#fff" stroke="#000"/><text id="ced68-text" class="Text" transform="translate(50.5 16.5)" fill="#000"  font-size="12px" stroke="white" stroke-width="0" text-anchor="middle"><tspan x="0" y="0">CD244</tspan></text></a><a  id="ed5a9" class="GeneProduct IRF5 " transform="translate(41.459 454.14)"   name="IRF5"  ><rect id="ed5a9-icon" class="Icon" transform="matrix(.9902 0 0 .96154 .4951 .48077)" width="101" height="25" fill="#fff" stroke="#000"/><text id="ed5a9-text" class="Text" transform="translate(50.5,16.5)" fill="#000"  font-size="12px" stroke="white" stroke-width="0" text-anchor="middle"><tspan x="0" y="0">IRF5</tspan></text></a><a  id="a31a0" class="GeneProduct CTLA4 " transform="translate(181.14 278.14)"   name="CTLA4"  ><rect id="a31a0-icon" class="Icon" transform="matrix(.9902 0 0 .96154 .4951 .48077)" width="101" height="25" fill="#fff" stroke="#000"/><text id="a31a0-text" class="Text" transform="translate(50.5 16.5)" fill="#000"  font-size="12px" stroke="white" stroke-width="0" text-anchor="middle"><tspan x="0" y="0">CTLA4</tspan></text></a><a  id="b595c" class="GeneProduct CCR6 " transform="translate(181.31 323.74)"   name="CCR6"  ><rect id="b595c-icon" class="Icon" transform="matrix(.9902 0 0 .96154 .4951 .48077)" width="101" height="25" fill="#fff" stroke="#000"/><text id="b595c-text" class="Text" transform="translate(50.5 16.5)" fill="#000"  font-size="12px" stroke="white" stroke-width="0" text-anchor="middle"><tspan x="0" y="0">CCR6</tspan></text></a><a  id="c04ff" class="GeneProduct IL2RA " transform="translate(41.459 541.53)"   name="IL2RA"  ><rect id="c04ff-icon" class="Icon" transform="matrix(.9902 0 0 .96154 .4951 .48077)" width="101" height="25" fill="#fff" stroke="#000"/><text id="c04ff-text" class="Text" transform="translate(50.5,16.5)" fill="#000"  font-size="12px" stroke="white" stroke-width="0" text-anchor="middle"><tspan x="0" y="0">IL2RA</tspan></text></a><a  id="eb5d3" class="GeneProduct ITGAV " transform="translate(41.459 581.38)"   name="ITGAV"  ><rect id="eb5d3-icon" class="Icon" transform="matrix(.9902 0 0 .96154 .4951 .48077)" width="101" height="25" fill="#fff" stroke="#000"/><text id="eb5d3-text" class="Text" transform="translate(50.5,16.5)" fill="#000"  font-size="12px" stroke="white" stroke-width="0" text-anchor="middle"><tspan x="0" y="0">ITGAV</tspan></text></a><text id="WP5033-text" class="Text" transform="translate(5,27)" dominant-baseline="central" fill="black"  font-size="12px" font-weight="bold" overflow="visible" stroke="white" stroke-width="0"><tspan x="0" y="-9">Name: Genes associated with the development of rheumatoid arthritis</tspan> <tspan x="0" y="9">Organism: Homo sapiens</tspan></text></g></svg>
