<?xml version="1.0" encoding="UTF-8"?>
<svg xmlns="http://www.w3.org/2000/svg" id="-svg" class="Diagram"  baseProfile="full" prefix="schema:http://schema.org/" preserveAspectRatio="xMidYMid"  version="1.1"><defs><g id="icon-defs"><symbol id="Ellipse" class=" Icon Ellipse" x="0" y="0" overflow="visible" preserveAspectRatio="none" viewBox="0 0 50 50"><desc>Ellipse</desc><ellipse cx="25" cy="25" rx="25" ry="25" vector-effect="non-scaling-stroke"/></symbol><symbol id="Octagon" class=" Icon Octagon" x="0" y="0" overflow="visible" preserveAspectRatio="none" viewBox="0 0 100 100"><desc>Octagon</desc><path d="m0 25 25-25h50l25 25v50l-25 25h-50l-25-25z" vector-effect="non-scaling-stroke"/></symbol></g><g id="marker-defs"><marker id="mea" markerHeight="12" markerWidth="12" orient="auto" preserveAspectRatio="none" refX="12" refY="6" viewBox="0 0 12 12"><g id="g-mea" transform=""><g transform="rotate(180 6 6)"><rect y="5.4" width="2" height="1.2" style="stroke:#fff"/><polygon points="12 11 0 6 12 1" stroke-width="0"/></g></g></marker><marker id="memconversion000" markerHeight="12" markerWidth="12" orient="auto" preserveAspectRatio="none" refX="12" refY="6" viewBox="0 0 12 12"><g id="g-memconversion000" transform=""><g transform="rotate(180 6 6)"><rect y="5.4" width="2" height="1.2" style="stroke:#fff"/><polygon points="12 11 0 6 12 1" stroke-width="0"/></g></g></marker><marker id="meminhibition000" markerHeight="20" markerWidth="10" orient="auto" preserveAspectRatio="none" refX="10" refY="10" viewBox="0 0 10 20"><g id="g-meminhibition000" transform=""><g transform="rotate(180 5 10)"><rect y="9" width="8" height="2" style="stroke:none"/><line x="0" y="0" width="12" height="12" x1="7" x2="7" y2="20" stroke="#000" stroke-width="1.8"/></g></g></marker><marker id="memtranscriptiontranslation000" markerHeight="24" markerWidth="20" orient="auto" preserveAspectRatio="none" refX="20" refY="12" viewBox="0 0 20 24"><g id="g-memtranscriptiontranslation000" transform=""><g transform="rotate(180 10 12)"><rect y="11" width="12" height="2" style="stroke:#fff"/><line x1="15" x2="15" y1="12" y2="5" fill="none" stroke="#000"/><line x1="15.5" x2="8" y1="5" y2="5" fill="none" stroke="#000"/><polygon points="0 5 8 1 8 9" fill="#fff" stroke="#000"/></g></g></marker><marker id="memstimulation000" markerHeight="12" markerWidth="12" orient="auto" preserveAspectRatio="none" refX="12" refY="6" viewBox="0 0 12 12"><g id="g-memstimulation000" transform=""><g transform="rotate(180 6 6)"><rect y="5.4" width="2" height="1.2" style="stroke:none"/><line x1="12" x2="12" y1="6" y2="6" fill="none"/><polygon points="0 6 11 11 11 1" fill="#fff" stroke="#000"/></g></g></marker><marker id="membinding000" markerHeight="12" markerWidth="12" orient="auto" preserveAspectRatio="none" refX="12" refY="6" viewBox="0 0 12 12"><g id="g-membinding000" transform=""><g transform="rotate(180 6 6)"><rect y="5.4" width="2" height="1.2" style="stroke:#fff"/><polygon points="12 12 0 6 12 0 5 6" stroke-width="0"/></g></g></marker><marker id="markerendtbar000" markerHeight="20" markerWidth="10" orient="auto" preserveAspectRatio="none" refX="10" refY="10" viewBox="0 0 10 20"><g id="g-markerendtbar000" transform=""><g transform="rotate(180 5 10)"><rect y="9" width="8" height="2" style="stroke:none"/><line x="0" y="0" width="12" height="12" x1="7" x2="7" y2="20" stroke="#000" stroke-width="1.8"/></g></g></marker><marker id="memcatalysis000" markerHeight="12" markerWidth="12" orient="auto" preserveAspectRatio="none" refX="12" refY="6" viewBox="0 0 12 12"><g id="g-memcatalysis000" transform=""><g transform="rotate(180 6 6)"><circle cx="6" cy="6" r="5.3px" fill="#fff" stroke="#000"/></g></g></marker><marker id="memcleavage000" markerHeight="30" markerWidth="20" orient="auto" preserveAspectRatio="none" refX="20" refY="15" viewBox="0 0 20 30"><g id="g-memcleavage000" transform=""><g transform="rotate(180 10 15)"><rect y="14.3" width="18.4" height="1.4" style="stroke:#fff"/><line x1="18" x2="18" y1="14.5" y2="30" stroke="#000"/><line x1="18" y1="30" stroke="#000"/></g></g></marker><marker id="meaf00" markerHeight="12" markerWidth="12" orient="auto" preserveAspectRatio="none" refX="12" refY="6" viewBox="0 0 12 12"><g id="g-meaf00" transform=""><g transform="rotate(180 6 6)"><rect y="5.4" width="2" height="1.2" style="stroke:#fff"/><polygon points="12 11 0 6 12 1" fill="#f00" stroke-width="0"/></g></g></marker></g></defs><g id="viewport-20220102145239423" class="svg-pan-zoom_viewport" transform="matrix(0.60 0 0 0.60 151.6 0)" style="transform:matrix(0.60, 0, 0, 0.60, 151.60, 0)"><style>svg.Diagram {font-family: 'Liberation Sans', Arial, sans-serif; }.Diagram path {fill: transparent;stroke: #000;marker-end: url(#mea);}.Diagram symbol path {fill: inherit;stroke: inherit;stroke-width: inherit;marker-end: inherit;}.Diagram rect {fill: #fff;stroke: #000;}.Diagram text {dominant-baseline: central;overflow: hidden;text-anchor: middle;fill: #000;font-size: 12px;}</style><style type="text/css">.Viewport .textContent {
  pointer-events: none;
  stroke-width: 0px;
}

					.Viewport.Icon {
  fill: white;
}

/* Hide the InfoBox */
.Viewport.textContent {
  font-size: 0;
}

.textContent {
  stroke: none;
}

.DataNode {
  stroke-miterlimit: 1;
  pointer-events: auto;
}

.DataNode:hover {
  cursor: pointer;
}

/* TODO should this apply to things other than DataNodes? */
.DataNode.textContent {
  pointer-events: none;
}

.DataNode.Highlighted {
  opacity: 0.6;
  stroke-width: 0px;
}

marker {
  /* this is what should work per the spec
  stroke-dasharray: none; */
  /* but I need to add this to make it work in Safari */
  stroke-dasharray: 9999999999999999999999999;
}

.Citation.Icon {
  fill: none;
  stroke-width: 0px;
}

.Citation.textContent {
  text-align: center;
  vertical-align: top;
  font-size: 7px;
  fill: #999;
  fill-opacity: 1;
  stroke: none;
}</style><g id="WP5103" class="Pathway http___identifiers_org_pw_PW_0000013 Viewport"  name="Name: Progeria-associated lipodystrophy Organism: Homo sapiens" ><g class="Pathway http___identifiers_org_pw_PW_0000013 Viewport"><rect   width="1493.9" height="1114.5" style="stroke:none"/><g id="id1eace11e" class="Edge"  ><path    d="m475.02 225.75v-20h365.12v-24.72"/></g><g id="a8443" class="Edge"  ><path    d="m215.8 209.71 64.34 3.60e-4" style="marker-end:url(#meminhibition000)"/></g><g id="id2699c0dc" class="Edge"  ><path    d="m633.26 577.2h56.60" style="marker-end:url(#memtranscriptiontranslation000)"/></g><g id="id2b53a9ce" class="Edge"  ><path    d="m588.26 381.94v-34.81" style="marker-end:url(#membinding000)"/></g><g id="bf07c" class="Edge"  ><path    d="m221.22 81.96 58.92 3.88e-4" style="marker-end:url(#memconversion000)"/></g><g id="id2c06b01e" class="Edge"  ><path    d="m915.25 576.82h20v45.86h29.57"/></g><g id="bf102" class="Edge"  ><path    d="m561.34 765.37v-59.62h52.97v-74.61" style="marker-end:url(#markerendtbar000)"/></g><g id="d812e" class="Edge"  ><path    d="m218.58 142.49 61.55-2.30e-4" style="marker-end:url(#memcatalysis000)"/></g><g id="id61369ff8" class="Edge"  ><path    d="m915.25 576.82h20v-44.10h29.57"/></g><g id="e2019" class="Edge"  ><path    d="m220.5 114.32 59.63 4.27e-4" style="marker-end:url(#memstimulation000)"/></g><g id="e3c84" class="Edge"  ><path    d="m1385.2 325.63 2e-13 57.26"/></g><g id="id750caaa3" class="Edge"  ><path    d="m588.26 467v37.94"/></g><g id="e654c" class="Edge"  ><path    d="m217.86 175.15 62.27 3.90e-4" style="marker-end:url(#membinding000)"/></g><g id="ida223d25e" class="Edge"  ><path    d="m1009.8 635.18v50.77" style="marker-end:url(#membinding000)"/></g><g id="eca08" class="Edge"  ><path    d="m219.59 241.49 60.54 2.48e-4" style="marker-end:url(#memtranscriptiontranslation000)"/></g><g id="ida340ce1" class="Edge"  ><path    d="m734.86 589.7v72.83" style="marker-end:url(#membinding000)"/><g id="a28e8" class="AB" transform="translate(734.86 618.83)"  ><g class="AB"/></g></g><g id="b2689" class="Edge"  ><path    d="m662.78 618.64 72.08 0.19" style="marker-end:url(#memstimulation000)"/></g><g id="id17b91f80" class="Edge"  ><path    d="m1190.3 225.75v-20h-350.21v-24.72"/></g><g id="idab17cda9" class="Edge"  ><path    d="m1154.5 456.89h56.93" style="marker-end:url(#meminhibition000)"/></g><g id="id42186e6" class="Edge"  ><path    d="m801.07 225.75v-20h39.06v-24.72"/></g><g id="iddfb5e58b" class="Edge"  ><path    d="m1016.1 456.89h48.37" style="marker-end:url(#meminhibition000)"/></g><g id="idaef5ff69" class="Edge"  ><path    d="m692.57 225.75v-20h147.56v-24.72"/></g><g id="ide242ce3a" class="Edge"  ><path    d="m588.26 406.94v35.06"/></g><g id="idc66823a3" class="Edge"  ><path    d="m1262.7 225.75v-20h-422.59v-24.72"/></g><g id="iddaec0a84" class="Edge"  ><path    d="m900.02 225.75v-20h-59.88v-24.72"/></g><g id="ide614247e" class="Edge"  ><path    d="m1050 225.75v-20h-209.82v-24.72"/></g><g id="id364035b0" class="Edge"  ><path    d="m1132.6 804.26-65.75 0.14" style="marker-end:url(#membinding000)"/></g><g id="id44122d0" class="Edge"  ><path    d="m1009.8 710.95v56.45" style="marker-end:url(#memconversion000)"/></g><g id="a3f39" class="Edge"  ><path    d="m677.86 777.82-56.58 0.05"/></g><g id="id622c631d" class="Edge"  ><path    d="m734.86 687.53v53.30" style="marker-end:url(#memconversion000)"/></g><g id="id2311ce5b" class="Edge"  ><path    d="m1009.8 841.4v53.49" style="marker-end:url(#memconversion000)"/></g><g id="c363f" class="Edge"  ><path    d="m1066.8 944.39 81.35-0.11"/></g><g id="a9919" class="" transform="translate(27.64 228.59)"  name="x" ><g class=""><rect   width="80.32" height="21.77" style="fill:transparent;stroke:#c03"/></g><g ><defs><clipPath ><rect x="-40.16" y="-10.88" width="80.32" height="21.77" style="stroke:none"/></clipPath></defs><text   transform="translate(40.16 10.88)"     style="fill:#cc0033">x</text></g></g><g id="a1d7d" class="Label" transform="translate(280.14 162.65)"  name="Binding" ><g class="Label"/><text   transform="translate(45,12.5)"    >Binding</text></g><g id="bd0be" class="Label" transform="translate(114.23 227.38)"  name="Progeria disease" ><g class="Label"/><text   transform="translate(45.06 12.5)"    >Progeria disease</text></g><g id="bddc5" class="Label" transform="translate(501.4 765.37)"  name="DNA damage repair" ><g class="Label"/><text   transform="translate(59.94 12.5)"    >DNA damage repair</text></g><g id="c4890" class="Label" transform="translate(280.14 197.21)"  name="Inhibition" ><g class="Label"/><text   transform="translate(45,12.5)"    >Inhibition</text></g><g id="cb80e" class="Label" transform="translate(280.14 69.46)"  name="Conversion" ><g class="Label"/><text   transform="translate(45,12.5)"    >Conversion</text></g><g id="d71b4" class="Label" transform="translate(115.02 193.73)"  name="Gene/protein" ><g class="Label"/><text   transform="translate(35.36 12.5)"    >Gene/protein</text></g><g id="d746d" class="Label" transform="translate(1148.2 909.52)"  name="Growth arrest Apoptosis Cell migration etc." ><g class="Label"/><text   transform="translate(45 34.76)"    ><tspan   x="0" y="-19.8">Growth arrest</tspan><tspan   x="0" y="-6.60">Apoptosis</tspan><tspan   x="0" y="6.60">Cell migration</tspan><tspan   x="0" y="19.8">etc.</tspan></text></g><g id="da3a4" class="Label" transform="translate(113.83 154.96)"  name="Metabolite" ><g class="Label"/><text   transform="translate(30.41 12.5)"    >Metabolite</text></g><g id="e228e" class="Label" transform="translate(280.14 228.99)"  name="Transcription" ><g class="Label"/><text   transform="translate(45,12.5)"    >Transcription</text></g><g id="e8159" class="Label" transform="translate(565.84 606.14)"  name="Oxidative lesions" ><g class="Label"/><text   transform="translate(48.47 12.5)"    >Oxidative lesions</text></g><g id="ea7c9" class="Label" transform="translate(280.14 129.99)"  name="Catalysis" ><g class="Label"/><text   transform="translate(45,12.5)"    >Catalysis</text></g><g id="f20f8" class="Label" transform="translate(280.14 101.82)"  name="Stimulation" ><g class="Label"/><text   transform="translate(45,12.5)"    >Stimulation</text></g><g id="a3ce7" class="Protein " transform="translate(964.82 685.95)"  name="TGFB1" ><rect   width="90" height="25"/><text   transform="translate(45,12.5)"    >TGFB1</text></g><g id="a51ed" class="GeneProduct " transform="translate(543.26 564.7)"  name="PPARG" ><rect   width="90" height="25"/><text   transform="translate(45,12.5)"    >PPARG</text></g><g id="b8ed0" class="GeneProduct " transform="translate(1340.2 300.63)"  name="RECQL" ><rect   width="90" height="25"/><text   transform="translate(45,12.5)"    >RECQL</text></g><g id="c5a96" class="GeneProduct " transform="translate(1132.6 791.76)"  name="SMAD4" ><rect   width="90" height="25"/><text   transform="translate(45,12.5)"    >SMAD4</text></g><g id="d6538" class="Unknown " transform="translate(520.02 225.75)"  name="Hutchinson-Gilford  Progeria Syndrome" ><rect   width="118" height="28.5" style="stroke:#c30"/><text   transform="translate(59,14.25)"     style="fill:#cc3300"><tspan   x="0" y="-6.60">Hutchinson-Gilford </tspan><tspan   x="0" y="6.60">Progeria Syndrome</tspan></text></g><g id="d7ddc" class="Unknown " transform="translate(945.02 225.75)"  name="Progeroid features-hepatocellular  carcinoma predisposition syndrome" ><rect   width="209.88" height="28.5" style="stroke:#c30"/><text   transform="translate(104.94 14.25)"     style="fill:#cc3300"><tspan   x="0" y="-6.60">Progeroid features-hepatocellular </tspan><tspan   x="0" y="6.60">carcinoma predisposition syndrome</tspan></text></g><g id="e0bcb" class="GeneProduct " transform="translate(689.86 662.53)"  name="PARP1" ><rect   width="90" height="25"/><text   transform="translate(45,12.5)"    >PARP1</text></g><g id="e12e0" class="Unknown " transform="translate(747.13 225.75)"  name="Nestor-Guillermo  progeria syndrome" ><rect   width="107.88" height="28.5" style="stroke:#c30"/><text   transform="translate(53.94 14.25)"     style="fill:#cc3300"><tspan   x="0" y="-6.60">Nestor-Guillermo </tspan><tspan   x="0" y="6.60">progeria syndrome</tspan></text></g><g id="e440d" class="Unknown " transform="translate(638.02 225.75)"  name="Keppen-Lubinsky syndrome" ><rect   width="109.12" height="28.5" style="stroke:#c30"/><text   transform="translate(54.56 14.25)"     style="fill:#cc3300"><tspan   x="0" y="-6.60">Keppen-Lubinsky</tspan><tspan   x="0" y="6.60">syndrome</tspan></text></g><g id="eb3f8" class="Unknown " transform="translate(1225.8 225.75)"  name="Werner  syndrome" ><rect   width="73.88" height="28.5" style="stroke:#c30"/><text   transform="translate(36.94 14.25)"     style="fill:#cc3300"><tspan   x="0" y="-6.60">Werner </tspan><tspan   x="0" y="6.60">syndrome</tspan></text></g><g id="ec7b0" class="Protein " transform="translate(256.64 861.38)"  name="Lamin A" ><rect   width="90" height="25"/><text   transform="translate(45,12.5)"    >Lamin A</text></g><g id="efb22" class="Unknown " transform="translate(1154.9 225.75)"  name="MDP  syndrome" ><rect   width="70.88" height="28.5" style="stroke:#c30"/><text   transform="translate(35.44 14.25)"     style="fill:#cc3300"><tspan   x="0" y="-6.60">MDP </tspan><tspan   x="0" y="6.60">syndrome</tspan></text></g><g id="f4495" class="Unknown " transform="translate(430.02 225.75)"  name="Mandibuloacral dysplasia" ><rect   width="90" height="28.5" style="stroke:#c30"/><text   transform="translate(45,14.25)"     style="fill:#cc3300"><tspan   x="0" y="-6.60">Mandibuloacral</tspan><tspan   x="0" y="6.60">dysplasia</tspan></text></g><g id="f626b" class="Unknown " transform="translate(855.02 225.75)"  name="Marfan  syndrome" ><rect   width="90" height="28.5" style="stroke:#c30"/><text   transform="translate(45,14.25)"     style="fill:#cc3300"><tspan   x="0" y="-6.60">Marfan </tspan><tspan   x="0" y="6.60">syndrome</tspan></text></g><g id="a5956" class="GroupComplex" transform="translate(952.82 767.4)"  ><g class="GroupComplex"><use class="Icon" width="114.00" height="74" fill="#b4b464" fill-opacity=".1" stroke="grey" href="#Octagon"/><g id="c9144" class="GeneProduct " transform="translate(12,37)"  name="SMAD3" ><rect   width="90" height="25"/><text   transform="translate(45,12.5)"    >SMAD3</text></g><g id="d0ebe" class="GeneProduct " transform="translate(12,12)"  name="SMAD2" ><rect   width="90" height="25"/><text   transform="translate(45,12.5)"    >SMAD2</text></g></g></g><g id="f5767" class="Edge"  ><path    d="m458.01 308.27v-20h121v-34.02" style="stroke:#f00;marker-end:url(#meaf00)"/></g><g id="b5342" class="Edge"  ><path    d="m1054.8 622.68 66.76-2.9e-12"/></g><g id="a507b" class="Edge"  ><path    d="m971.13 444.39v-71.97h78.82v-118.18" style="stroke:#f00;marker-end:url(#meaf00)"/></g><g id="ecbee" class="Edge"  ><path    d="m1256.4 444.39v-75.52h-66.09v-114.62" style="stroke:#f00;marker-end:url(#meaf00)"/></g><g id="e6b93" class="Edge"  ><path    d="m1301.4 456.89h83.79v-49"/></g><g id="ba127" class="Edge"  ><path    d="m633.26 394.44h59.31v-140.2" style="stroke:#f00;marker-end:url(#meaf00)"/></g><g id="ad194" class="Edge"  ><path    d="m1054.8 532.73h66.76"/></g><g id="a1db9" class="Edge"  ><path    d="m734.86 564.7h-20v-151.05h86.21v-159.4" style="stroke:#f00;marker-end:url(#meaf00)"/></g><g id="dd30c" class="Edge"  ><path    d="m1262.7 300.63v-46.39" style="stroke:#f00;marker-end:url(#meaf00)"/></g><g id="bcab1" class="Edge"  ><path    d="m1307.7 313.13h20 12.50"/></g><g id="dea16" class="Edge"  ><path    d="m870.25 564.32v-86.00h29.76v-224.08" style="stroke:#f00;marker-end:url(#meaf00)"/></g><g id="f0473" class="Label" transform="translate(1121.6 602.27)"  name="Structural support in conncective tissue" ><g class="Label"/><text   transform="translate(66.39 20.41)"    ><tspan   x="0" y="-6.60">Structural support in</tspan><tspan   x="0" y="6.60">conncective tissue</tspan></text></g><g id="ac0c0" class="Label" transform="translate(550.08 442)"  name="K+ influx" ><g class="Label"/><text   transform="translate(38.18 12.5)"    >K+ influx</text></g><g id="c5878" class="Label" transform="translate(1306.5 382.89)"  name="DNA replication and repair" ><g class="Label"/><text   transform="translate(78.72 12.5)"    >DNA replication and repair</text></g><g id="e8fb3" class="Label" transform="translate(733 139.03)"  name="Progeria Associated Lipodystrophy" ><g class="Label"/><text   transform="translate(107.13 21.00)"    >Progeria Associated Lipodystrophy</text></g><g id="d1c01" class="Label" transform="translate(1121.6 520.23)"  name="Glucose homeostasis" ><g class="Label"/><text   transform="translate(66.39 12.5)"    >Glucose homeostasis</text></g><g id="df33d" class="GeneProduct " transform="translate(825.25 564.32)"  name="FBN1" ><rect   width="90" height="25"/><text   transform="translate(45,12.5)"    >FBN1</text></g><g id="e8a6f" class="GeneProduct " transform="translate(1064.5 444.39)"  name="DPC" ><rect   width="90" height="25"/><text   transform="translate(45,12.5)"    >DPC</text></g><g id="e7757" class="GeneProduct " transform="translate(689.86 564.7)"  name="BANF1" ><rect   width="90" height="25"/><text   transform="translate(45,12.5)"    >BANF1</text></g><g id="d0d0b" class="GeneProduct " transform="translate(926.13 444.39)"  name="SPRTN" ><rect   width="90" height="25"/><text   transform="translate(45,12.5)"    >SPRTN</text></g><g id="ce6fc" class="Protein" transform="translate(964.82 520.23)"  name="Asprosin" ><rect   width="90" height="25"/><text   transform="translate(45,12.5)"    >Asprosin</text></g><g id="a1689" class="GeneProduct " transform="translate(1211.4 444.39)"  name="POLD1" ><rect   width="90" height="25"/><text   transform="translate(45,12.5)"    >POLD1</text></g><g id="a84d6" class="Protein" transform="translate(964.82 610.18)"  name="Fibrillin-1" ><rect   width="90" height="25"/><text   transform="translate(45,12.5)"    >Fibrillin-1</text></g><g id="aaaed" class="GeneProduct " transform="translate(543.26 381.94)"  name="KCNJ6" ><rect   width="90" height="25"/><text   transform="translate(45,12.5)"    >KCNJ6</text></g><g id="a7d5e" class="Protein" transform="translate(543.26 322.13)"  name="GPCR" ><rect   width="90" height="25"/><text   transform="translate(45,12.5)"    >GPCR</text></g><g id="d9f15" class="GeneProduct " transform="translate(1217.7 300.63)"  name="WRN" ><rect   width="90" height="25"/><text   transform="translate(45,12.5)"    >WRN</text></g><g id="ebb99" class="Protein" transform="translate(543.26 504.94)"  name="Insulin" ><rect   width="90" height="25"/><text   transform="translate(45 12.5)"    >Insulin</text></g><g id="e88d6" class="Edge"  ><path    d="m595.04 932.34 1.5e-12 68.86"/></g><g id="f3f7f" class="Label" transform="translate(531.44 1001.2)"  name="DNA replication RNA transcription Cell cycle regulation Mehcanical support etc." ><g class="Label"/><text   transform="translate(63.60 41.63)"    ><tspan   x="0" y="-26.40">DNA replication</tspan><tspan   x="0" y="-13.20">RNA transcription</tspan><tspan   x="0" y="0">Cell cycle regulation</tspan><tspan   x="0" y="13.20">Mehcanical support</tspan><tspan   x="0" y="26.40">etc.</tspan></text></g><g id="a5ff1" class="Edge"  ><path    d="m318.63 455.9-98.50-0.44" style="marker-end:url(#memcatalysis000)"/></g><g id="a7c8e" class="Edge"  ><path    d="m220.13 333.27v31.27" style="marker-end:url(#memconversion000)"/></g><g id="addfd" class="Edge"  ><path    d="m220.13 438.53v42.33" style="marker-end:url(#memconversion000)"/><g id="eee16" class="AB" transform="translate(220.13 455.46)"  ><g class="AB"/></g></g><g id="b3ecb" class="Edge"  ><path    d="m220.13 692.66 1.31e-12 35.48" style="marker-end:url(#memconversion000)"/><g id="b6c5f" class="AB" transform="translate(220.13 706.85)"  ><g class="AB"/></g></g><g id="cb43d" class="Edge"  ><path    d="m408.63 595.29h49.38v-262.02" style="stroke:#f00;marker-end:url(#meaf00)"/></g><g id="e6447" class="Edge"  ><path    d="m318.63 595.29-98.50 0.09" style="marker-end:url(#memcleavage000)"/></g><g id="c4c53" class="Edge"  ><path    d="m220.13 579.86 6e-14 38.80" style="marker-end:url(#memconversion000)"/><g id="c6b9d" class="AB" transform="translate(220.13 595.38)"  ><g class="AB"/></g></g><g id="e5979" class="Edge"  ><path    d="m318.63 815.51-98.50-0.24" style="marker-end:url(#memcleavage000)"/></g><g id="de018" class="Edge"  ><path    d="m475.39 919.84 69.77-2e-13"/></g><g id="ae707" class="Edge"  ><path    d="m318.63 706.86-98.50-0.01" style="marker-end:url(#memcatalysis000)"/></g><g id="ef73a" class="GroupComplex" transform="translate(244.64 964.89)"  ><g class="GroupComplex"><use class="Icon" width="114" height="74.00" fill="#b4b464" fill-opacity=".1" stroke="grey" href="#Octagon"/><g id="ec575" class="GeneProduct " transform="translate(12,12)"  name="LMNB1" ><rect   width="90" height="25"/><text   transform="translate(45,12.5)"    >LMNB1</text></g><g id="a83ee" class="GeneProduct " transform="translate(12 37)"  name="LMNB2" ><rect   width="90" height="25"/><text   transform="translate(45,12.5)"    >LMNB2</text></g></g></g><g id="c1c6f" class="GroupComplex" transform="translate(163.13 480.86)"  ><g class="GroupComplex"><use class="Icon" width="114" height="99" fill="#b4b464" fill-opacity=".1" stroke="grey" href="#Octagon"/><g id="e7926" class="Metabolite " transform="translate(12,62)"  name="Farnesyl" ><rect   width="90" height="25" style="stroke:#00f"/><text   transform="translate(45,12.5)"     style="fill:#00f">Farnesyl</text></g><g id="d1975" class="Protein" transform="translate(12,12)"  name="Prelamin-A/C" ><rect   width="90" height="25"/><text   transform="translate(45,12.5)"    >Prelamin-A/C</text></g><g id="b72f3" class="Metabolite " transform="translate(12,37)"  name="CAAX" ><rect   width="90" height="25" style="stroke:#00f"/><text   transform="translate(45,12.5)"     style="fill:#00f">CAAX</text></g></g></g><g id="deba7" class="Edge"  ><path    d="m301.64 886.38v33.47h59.75" style="marker-end:url(#membinding000)"/></g><g id="b8dbb" class="Edge"  ><path    d="m408.63 815.51h49.38v-482.24" style="stroke:#f00;marker-end:url(#meaf00)"/></g><g id="cb3ec" class="Edge"  ><path    d="m265.13 320.77 115.77 6e-14" style="stroke:#f00;marker-end:url(#meaf00)"/></g><g id="a5a0b" class="Edge"  ><path    d="m301.64 964.89v-45.05h59.75" style="marker-end:url(#membinding000)"/></g><g id="fcbf9" class="Label" transform="translate(545.16 907.34)"  name="Nuclear Lamina" ><g class="Label"/><text   transform="translate(49.88 12.5)"    >Nuclear Lamina</text></g><g id="ffc08" class="Label" transform="translate(380.9 308.27)"  name="non-matured Lamin A" ><g class="Label"/><text   transform="translate(77.11 12.5)"    >non-matured Lamin A</text></g><g id="db307" class="GroupComplex" transform="translate(163.13 364.53)"  ><g class="GroupComplex"><use class="Icon" width="114" height="74.00" fill="#b4b464" fill-opacity=".1" stroke="grey" href="#Octagon"/><g id="c7166" class="Protein" transform="translate(12,12)"  name="Prelamin-A/C" ><rect   width="90" height="25"/><text   transform="translate(45,12.5)"    >Prelamin-A/C</text></g><g id="f0234" class="Metabolite " transform="translate(12 37)"  name="CAAX" ><rect   width="90" height="25" style="stroke:#00f"/><text   transform="translate(45,12.5)"     style="fill:#00f">CAAX</text></g></g></g><g id="fcb0b" class="GroupComplex" transform="translate(146.48 728.14)"  ><g class="GroupComplex"><use class="Icon" width="147.30" height="73.28" fill="#b4b464" fill-opacity=".1" stroke="grey" href="#Octagon"/><g id="bf030" class="Protein" transform="translate(28.98 12)"  name="Prelamin-A/C" ><rect   width="89.33" height="25"/><text   transform="translate(44.67 12.5)"    >Prelamin-A/C</text></g><g id="b5858" class="Metabolite " transform="translate(12 36.28)"  name="Farnesyl-L-cysteine" ><rect   width="123.3" height="25" style="stroke:#00f"/><g id="bacda" class="State Burr" transform="translate(114.93 15.77)"  ><g class="State Burr"><use class="State Burr Node Icon" width="15" height="15" fill="#fff" stroke="#000" href="#Ellipse"/></g></g><text   transform="translate(61.65 12.5)"     style="fill:#00f">Farnesyl-L-cysteine</text></g></g></g><g id="fab90" class="GeneProduct " transform="translate(318.63 582.79)"  name="ZMPSTE24" ><rect   width="90" height="25"/><text   transform="translate(45,12.5)"    >ZMPSTE24</text></g><g id="aec98" class="GeneProduct " transform="translate(318.63 443.4)"  name="FNTA" ><rect   width="90" height="25"/><text   transform="translate(45,12.5)"    >FNTA</text></g><g id="bd4e6" class="GeneProduct " transform="translate(318.63 694.36)"  name="ICMT" ><rect   width="90" height="25"/><text   transform="translate(45,12.5)"    >ICMT</text></g><g id="fc6f0" class="GeneProduct " transform="translate(175.13 308.27)"  name="LMNA" ><rect   width="90" height="25"/><text   transform="translate(45,12.5)"    >LMNA</text></g><g id="c7667" class="GroupComplex" transform="translate(146.48 618.66)"  ><g class="GroupComplex"><use class="Icon" width="147.30" height="74.00" fill="#b4b464" fill-opacity=".1" stroke="grey" href="#Octagon"/><g id="fdf9f" class="Protein" transform="translate(28.23 12)"  name="Prelamin-A/C" ><rect   width="90.84" height="25"/><text   transform="translate(45.42 12.5)"    >Prelamin-A/C</text></g><g id="fc0e0" class="Metabolite " transform="translate(12 37)"  name="Farnesyl-L-cysteine" ><rect   width="123.3" height="25" style="stroke:#00f"/><text   transform="translate(61.65 12.5)"     style="fill:#00f">Farnesyl-L-cysteine</text></g></g></g><g id="e2665" class="GeneProduct " transform="translate(318.63 803.01)"  name="ZMPSTE24" ><rect   width="90" height="25"/><text   transform="translate(45,12.5)"    >ZMPSTE24</text></g><g id="ee52a" class="Label" transform="translate(258.68 776.69)"  name="M" ><g class="Label"/><text   transform="translate(22.16 10.88)"    >M</text></g><g id="ff0fb" class="Metabolite " transform="translate(96.74 861.38)"  name="Farnesyl-L-cysteine" ><rect   width="123.3" height="25" style="stroke:#00f"/><g id="e38e4" class="State Burr" transform="translate(115.8 17.5)"  ><g class="State Burr"><use class="State Burr Node Icon" width="15" height="15" fill="#fff" stroke="#000" href="#Ellipse"/></g></g><text   transform="translate(61.65 12.5)"     style="fill:#00f">Farnesyl-L-cysteine</text></g><g id="b5337" class="Label" transform="translate(175.12 874.1)"  name="M" ><g class="Label"/><text   transform="translate(45,12.5)"    >M</text></g><g id="e5223" class="Edge"  ><path    d="m220.13 801.42v32.26h-61.74v27.70" style="marker-end:url(#memconversion000)"/></g><g id="abc5a" class="Edge"  ><path    d="m220.13 801.42v32.17h81.51v27.78" style="marker-end:url(#memconversion000)"/><g id="d0a52" class="AB" transform="translate(220.13 815.27)"  ><g class="AB"/></g></g><g id="dee22" class="GroupComplex" transform="translate(952.82 894.89)"  ><g class="GroupComplex"><use class="Icon" width="114.00" height="99" fill="#b4b464" fill-opacity=".1" stroke="grey" href="#Octagon"/><g id="e8061" class="GeneProduct " transform="translate(12,37)"  name="SMAD3" ><rect   width="90" height="25"/><text   transform="translate(45,12.5)"    >SMAD3</text></g><g id="d2328" class="GeneProduct " transform="translate(12,12)"  name="SMAD2" ><rect   width="90" height="25"/><text   transform="translate(45,12.5)"    >SMAD2</text></g><g id="f6307" class="GeneProduct " transform="translate(12,62)"  name="SMAD4" ><rect   width="90" height="25"/><text   transform="translate(45,12.5)"    >SMAD4</text></g></g></g><g id="d405d" class="GroupComplex" transform="translate(677.86 740.82)"  ><g class="GroupComplex"><use class="Icon" width="114" height="74.00" fill="#b4b464" fill-opacity=".1" stroke="grey" href="#Octagon"/><g id="db1fb" class="GeneProduct " transform="translate(12,12)"  name="BANF1" ><rect   width="90" height="25"/><text   transform="translate(45,12.5)"    >BANF1</text></g><g id="c6fc0" class="GeneProduct " transform="translate(12 37)"  name="PARP1" ><rect   width="90" height="25"/><text   transform="translate(45,12.5)"    >PARP1</text></g></g></g><g id="c1ad4" class="" transform="translate(49.06 120.13)"  ><g class=""><use class=" Node Icon" width="30" height="30" fill="transparent" stroke="#000" href="#Ellipse"/></g></g><g id="cf329" class="Label" transform="translate(114.12 123.78)"  name="Methylatioin" ><g class="Label"/><text   transform="translate(34.92 12.5)"    >Methylatioin</text></g><g id="d8c2b" class="Label" transform="translate(55.27 128.37)"  name="M" ><g class="Label"/><text   transform="translate(8.79 7.55)"    >M</text></g><g id="a14a3" class="Edge"  ><path    d="m44.27 109.02h47.77" style="stroke:#f00;marker-end:url(#meaf00)"/></g><g id="e6682" class="" transform="translate(16.23 58.93)"  ><g class=""><rect   width="368.77" height="211.18" style="fill:transparent"/></g></g><g id="bf9db" class="Label" transform="translate(115.7 96.96)"  name="Mutations" ><g class="Label"/><text   transform="translate(27.85 12.5)"    >Mutations</text></g><g id="fdeb1" class="Label" transform="translate(24.62 64.81)"  name="Legend" ><g class="Label"/><text   transform="translate(25.03 12.5)"    >Legend</text></g><g id="f0463" class="GroupComplex" transform="translate(361.39 870.34)"  ><g class="GroupComplex"><use class="Icon" width="114" height="99.00" fill="#b4b464" fill-opacity=".1" stroke="grey" href="#Octagon"/><g id="f50aa" class="GeneProduct " transform="translate(12,12)"  name="Lamin A" ><rect   width="90" height="25"/><text   transform="translate(45,12.5)"    >Lamin A</text></g><g id="c5353" class="GeneProduct " transform="translate(12 62)"  name="Lamin B2" ><rect   width="90" height="25"/><text   transform="translate(45,12.5)"    >Lamin B2</text></g><g id="e6172" class="GeneProduct " transform="translate(12 37)"  name="Lamin B1" ><rect   width="90" height="25"/><text   transform="translate(45,12.5)"    >Lamin B1</text></g></g></g><g id="e87cd" class="Edge"  ><path    d="m458.01 308.27v-20h17.00v-34.02" style="stroke:#f00;marker-end:url(#meaf00)"/></g><g id="a99e0" class="Edge"  ><path    d="m579.02 225.75v-20h261.12v-24.72"/></g><g id="c3413" class="" transform="translate(27.64 191.42)"  name="x" ><g class=""><rect   width="80.32" height="21.77" style="fill:transparent"/></g><g ><defs><clipPath ><rect x="-40.16" y="-10.88" width="80.32" height="21.77" style="stroke:none"/></clipPath></defs><text   transform="translate(40.16 10.88)"    >x</text></g></g><g id="f8329" class="" transform="translate(27.64 156.97)"  name="x" ><g class=""><rect   width="80.32" height="21.77" style="fill:transparent;stroke:#00f"/></g><g ><defs><clipPath ><rect x="-40.16" y="-10.88" width="80.32" height="21.77" style="stroke:none"/></clipPath></defs><text   transform="translate(40.16 10.88)"     style="fill:#00f">x</text></g></g></g></g></g></svg>