<?xml version="1.0" encoding="UTF-8"?>
<!--
  WikiPathways page: https://www.wikipathways.org/index.php/Pathway:WP57
  URL for this compressed file: https://github.com/eweitz/cachome/tree/main/data/WP57.svg
  Source code for compression: https://github.com/eweitz/cachome/tree/main/src/wikipathways.py
-->
<svg id="wp57-svg" class="Diagram" width="800" height="600" color="black" baseProfile="full" prefix="schema:http://schema.org/" preserveAspectRatio="xMidYMid" version="1.1" viewBox="0 0 619 548" vocab="http://vocabularies.wikipathways.org/wp#" xmlns="http://www.w3.org/2000/svg" xmlns:xlink="http://www.w3.org/1999/xlink"><style>svg {font-family: 'Liberation Sans', Arial, sans-serif; }</style><defs><g id="jit-defs"><filter id="kaaviodoublefalse3filter" x="-50%" y="-50%" width="200%" height="200%"><feComposite in="SourceGraphic" in2="SourceGraphic" result="doubleDark"/><feMorphology in="doubleDark" operator="dilate" radius="0.16666666666666666" result="in2Double"/><feMorphology in="SourceGraphic" operator="dilate" radius="3" result="inDouble"/><feComposite in="inDouble" in2="in2Double" operator="out" result="doubleResult"/></filter><filter id="kaavioblackto000000filter" x="0" y="0" width="619" height="548" filterUnits="userSpaceOnUse"><feColorMatrix in="SourceGraphic" values="-1   0   0 0 0                   0  -1   0 0 0                   0   0  -1 0 0                   0   0   0 1 0"/></filter></g><g id="jic-defs"><marker id="markerEndArrow" stroke-dasharray="99999" markerHeight="12" markerUnits="userSpaceOnUse" markerWidth="12" orient="auto" preserveAspectRatio="none" refX="12" refY="6" viewBox="0 0 12 12"><path transform="rotate(180 6 6)" d="M12 11L0 6l12-5z" fill="currentColor" stroke-width="0"/></marker><marker id="markerEndMimBinding" stroke-dasharray="99999" markerHeight="12" markerUnits="userSpaceOnUse" markerWidth="12" orient="auto" preserveAspectRatio="none" refX="12" refY="6" viewBox="0 0 12 12"><path transform="rotate(180 6 6)" d="M12 12L0 6l12-6-7 6z" fill="currentColor" stroke-width="0"/></marker><symbol id="Octagon" overflow="visible" preserveAspectRatio="none" viewBox="0 0 100 100"><path d="M0 25L25 0h50l25 25v50l-25 25H25L0 75z" stroke="currentColor" vector-effect="non-scaling-stroke"/></symbol><symbol id="none" preserveAspectRatio="none" viewBox="0 0 100 100"/></g></defs><g id="WP57" class="Viewport" color="black"  name="Name: Signal transduction of S1P receptor Organism: Mus musculus"><rect id="WP57-icon" class="Icon" width="619" height="548" fill="#fff" stroke="#000" stroke-width="0"/><g id="ae786" class="DirectedInteraction" color="#000" ><g color="#000" fill="transparent"  filter="url(#kaavioblackto000000filter)" stroke="#000" stroke-dasharray="5.11, 3.06, 5.11, 3.06, 5.11, 3.06, 5.11, 3.06, 5.11, 3.06, 5.11, 3.06, 5.11, 3.06, 5.11, 3.06, 5.11, 3.06, 5.11, 3.06, 5.11, 3.06, 5.11, 3.06, 5.11, 3.06, 5.11, 3.06, 5.11, 3.06, 5.11, 3.06, 5.11, 3.06, 5.11, 3.06, 5.11, 3.06, 5.11, 3.06, 5.11, 3.06, 0, 5.8"><path id="ae786" class="EdgeBody" d="m319.67 210.67v134h40.333"   marker-end="url(#markerEndArrow)" /></g></g><g id="b44a0" class="DirectedInteraction" color="#000" ><g color="#000" fill="transparent"  filter="url(#kaavioblackto000000filter)" stroke="#000" stroke-dasharray="148.93090137493866, 5.8"><path id="b44a0" class="EdgeBody" d="m263.01 412.33-105.34-113.33"   marker-end="url(#markerEndArrow)" /></g></g><g id="c4230" class="DirectedInteraction" color="#000" ><g color="#000" fill="transparent"  filter="url(#kaavioblackto000000filter)" stroke="#000" stroke-dasharray="153.86703569635836, 5.8"><path id="c4230" class="EdgeBody" d="m304.67 210.67 0.34328 159.67"   marker-end="url(#markerEndArrow)" /></g></g><g id="fffc8" class="DirectedInteraction" color="#000" ><g color="#000" fill="transparent"  filter="url(#kaavioblackto000000filter)" stroke="#000" stroke-dasharray="298.85671641791043, 5.8"><path id="fffc8" class="EdgeBody" d="m347.01 412.33h174.99v-129.67"   marker-end="url(#markerEndArrow)" /></g></g><g id="e8888" class="DirectedInteraction" color="#000" ><g color="#000" fill="transparent"  filter="url(#kaavioblackto000000filter)" stroke="#000" stroke-dasharray="94.54826635291538, 5.8"><path id="e8888" class="EdgeBody" d="m263.01 412.33-100.34 1"   marker-end="url(#markerEndArrow)" /></g></g><g id="e64ae" class="Interaction" color="#000" ><g color="#000" fill="transparent"  filter="url(#kaavioblackto000000filter)" stroke="#000" stroke-dasharray="56.66763004975632, 1"><path id="e64ae" class="EdgeBody" d="m304.33 133 0.33333 57.667"   marker-end="url(#markerEndMimBinding)" /></g></g><g id="cea79" class="DirectedInteraction" color="#000" ><g color="#000" fill="transparent"  filter="url(#kaavioblackto000000filter)" stroke="#000" stroke-dasharray="52.913049846028414, 5.8"><path id="cea79" class="EdgeBody" d="m362.33 251-42.667-40.333"   marker-end="url(#markerEndArrow)" /></g></g><g id="f7a1e" class="DirectedInteraction" color="#000" ><g color="#000" fill="transparent"  filter="url(#kaavioblackto000000filter)" stroke="#000" stroke-dasharray="39.871532587476096, 5.8"><path id="f7a1e" class="EdgeBody" d="m492 272.67-45.667-0.66667"   marker-end="url(#markerEndArrow)" /></g></g><g id="c1bf2" class="SingleFreeNode Shape PhysicalEntity CellularComponent Cell" transform="translate(37.5,198.5)" color="#c0c0c0" ><g fill="transparent"  filter="url(#kaaviodoublefalse3filter)" stroke="#c0c0c0" stroke-width="3"><rect id="c1bf2-icon" class="Icon" transform="matrix(.97876 0 0 .96396 5.8726 5.7838)" width="553" height="321" rx="15" ry="15"   /></g></g><g id="f0991" class="GroupComplex" transform="translate(396 27.833)" color="grey" ><use id="f0991-icon" class="Icon" transform="matrix(.99367 0 0 .99073 .49684 .49536)" width="157" height="106.83333333333334" fill="#b4b464" fill-opacity=".1" stroke="grey" xlink:href="#Octagon"/><g id="ddd" class="Label" transform="translate(12,12)" color="#000"  name="GPCRs similar to S1P"><use id="ddd-icon" class="Icon" width="133" height="19" fill="transparent"  stroke="#000" stroke-width="0" xlink:href="#none"/><text id="ddd-text" class="Text" transform="translate(66.5,13.5)" fill="#000"  font-size="12px" font-weight="bold" stroke="white" stroke-width="0" text-anchor="middle"><tspan x="0" y="0">GPCRs similar to S1P</tspan></text></g><a  id="a7d" class="GeneProduct P594_ENSMUSG00000067586 " transform="translate(42 54.833)"   name="Edg3"  ><rect id="a7d-icon" class="Icon" transform="matrix(.98361 0 0 .95238 .4918 .47619)" width="60" height="20" fill="#fff" stroke="#000"/><text id="a7d-text" class="Text" transform="translate(30,13)" fill="#000"  font-size="10px" stroke="white" stroke-width="0" text-anchor="middle"><tspan x="0" y="0">Edg3</tspan></text></a><a  id="e1a" class="GeneProduct P594_ENSMUSG00000045087 " transform="translate(42 74.833)"   name="Edg8"  ><rect id="e1a-icon" class="Icon" transform="matrix(.98361 0 0 .95238 .4918 .47619)" width="60" height="20" fill="#fff" stroke="#000"/><text id="e1a-text" class="Text" transform="translate(30,13)" fill="#000"  font-size="10px" stroke="white" stroke-width="0" text-anchor="middle"><tspan x="0" y="0">Edg8</tspan></text></a><a  id="f8d" class="GeneProduct P594_ENSMUSG00000043895 " transform="translate(42 34.833)"   name="Edg5"  ><rect id="f8d-icon" class="Icon" transform="matrix(.98361 0 0 .95238 .4918 .47619)" width="60" height="20" fill="#fff" stroke="#000"/><text id="f8d-text" class="Text" transform="translate(30,13)" fill="#000"  font-size="10px" stroke="white" stroke-width="0" text-anchor="middle"><tspan x="0" y="0">Edg5</tspan></text></a></g><a  id="a47" class="GeneProduct P594_ENSMUSG00000030228 " transform="translate(492 262.67)"   name="Pik3c2g"  ><rect id="a47-icon" class="Icon" transform="matrix(.98361 0 0 .95238 .4918 .47619)" width="60" height="20" fill="#fff" stroke="#000"/><text id="a47-text" class="Text" transform="translate(30,13)" fill="#000"  font-size="10px" stroke="white" stroke-width="0" text-anchor="middle"><tspan x="0" y="0">Pik3c2g</tspan></text></a><a  id="af1" class="GeneProduct P594_ENSMUSG00000023015 " transform="translate(360 334.67)"   name="Racgap1"  ><rect id="af1-icon" class="Icon" transform="matrix(.98361 0 0 .95238 .4918 .47619)" width="60" height="20" fill="#fff" stroke="#000"/><text id="af1-text" class="Text" transform="translate(30,13)" fill="#000"  font-size="10px" stroke="white" stroke-width="0" text-anchor="middle"><tspan x="0" y="0">Racgap1</tspan></text></a><a  id="b21" class="GeneProduct P594_ENSMUSG00000045092 " transform="translate(274.67 190.67)"   name="Edg1"  ><rect id="b21-icon" class="Icon" transform="matrix(.98361 0 0 .95238 .4918 .47619)" width="60" height="20" fill="#fff" stroke="#000"/><text id="b21-text" class="Text" transform="translate(30,13)" fill="#000"  font-size="10px" stroke="white" stroke-width="0" text-anchor="middle"><tspan x="0" y="0">Edg1</tspan></text></a><a  id="cac" class="GeneProduct P594_ENSMUSG00000024960 " transform="translate(97.667 289)"   name="Plcb3"  ><rect id="cac-icon" class="Icon" transform="matrix(.98361 0 0 .95238 .4918 .47619)" width="60" height="20" fill="#fff" stroke="#000"/><text id="cac-text" class="Text" transform="translate(30,13)" fill="#000"  font-size="10px" stroke="white" stroke-width="0" text-anchor="middle"><tspan x="0" y="0">Plcb3</tspan></text></a><g id="a863d" class="GroupComplex" transform="translate(263.01 370.33)" color="grey" ><use id="a863d-icon" class="Icon" transform="matrix(.98824 0 0 .98824 .49412 .49412)" width="84" height="84.00000000000006" fill="#b4b464" fill-opacity=".1" stroke="grey" xlink:href="#Octagon"/><a  id="b94" class="GeneProduct P594_ENSMUSG00000057614 " transform="translate(12,12)"   name="Gnai1"  ><rect id="b94-icon" class="Icon" transform="matrix(.98361 0 0 .95238 .4918 .47619)" width="60" height="20" fill="#fff" stroke="#000"/><text id="b94-text" class="Text" transform="translate(30,13)" fill="#000"  font-size="10px" stroke="white" stroke-width="0" text-anchor="middle"><tspan x="0" y="0">Gnai1</tspan></text></a><a  id="e0e" class="GeneProduct P594_ENSMUSG00000032562 " transform="translate(12 32)"   name="Gnai2"  ><rect id="e0e-icon" class="Icon" transform="matrix(.98361 0 0 .95238 .4918 .47619)" width="60" height="20" fill="#fff" stroke="#000"/><text id="e0e-text" class="Text" transform="translate(30,13)" fill="#000"  font-size="10px" stroke="white" stroke-width="0" text-anchor="middle"><tspan x="0" y="0">Gnai2</tspan></text></a><a  id="f49" class="GeneProduct P594_ENSMUSG00000000001 " transform="translate(12 52)"   name="Gnai3"  ><rect id="f49-icon" class="Icon" transform="matrix(.98361 0 0 .95238 .4918 .47619)" width="60" height="20" fill="#fff" stroke="#000"/><text id="f49-text" class="Text" transform="translate(30,13)" fill="#000"  font-size="10px" stroke="white" stroke-width="0" text-anchor="middle"><tspan x="0" y="0">Gnai3</tspan></text></a></g><g id="ab97d" class="GroupComplex" transform="translate(78.667 351.33)" color="grey" ><use id="ab97d-icon" class="Icon" transform="matrix(.98824 0 0 .992 .49412 .496)" width="84" height="124" fill="#b4b464" fill-opacity=".1" stroke="grey" xlink:href="#Octagon"/><a  id="a21" class="GeneProduct P594_ENSMUSG00000063065 " transform="translate(12,12)"   name="Mapk3"  ><rect id="a21-icon" class="Icon" transform="matrix(.98361 0 0 .95238 .4918 .47619)" width="60" height="20" fill="#fff" stroke="#000"/><text id="a21-text" class="Text" transform="translate(30,13)" fill="#000"  font-size="10px" stroke="white" stroke-width="0" text-anchor="middle"><tspan x="0" y="0">Mapk3</tspan></text></a><a  id="ac1" class="GeneProduct P594_ENSMUSG00000063358 " transform="translate(12,32)"   name="Mapk1"  ><rect id="ac1-icon" class="Icon" transform="matrix(.98361 0 0 .95238 .4918 .47619)" width="60" height="20" fill="#fff" stroke="#000"/><text id="ac1-text" class="Text" transform="translate(30,13)" fill="#000"  font-size="10px" stroke="white" stroke-width="0" text-anchor="middle"><tspan x="0" y="0">Mapk1</tspan></text></a><a  id="c16" class="GeneProduct P594_ENSMUSG00000001034 " transform="translate(12,72)"   name="Mapk7"  ><rect id="c16-icon" class="Icon" transform="matrix(.98361 0 0 .95238 .4918 .47619)" width="60" height="20" fill="#fff" stroke="#000"/><text id="c16-text" class="Text" transform="translate(30,13)" fill="#000"  font-size="10px" stroke="white" stroke-width="0" text-anchor="middle"><tspan x="0" y="0">Mapk7</tspan></text></a><a  id="e27" class="GeneProduct P594_ENSMUSG00000022610 " transform="translate(12,92)"   name="Mapk12"  ><rect id="e27-icon" class="Icon" transform="matrix(.98361 0 0 .95238 .4918 .47619)" width="60" height="20" fill="#fff" stroke="#000"/><text id="e27-text" class="Text" transform="translate(30,13)" fill="#000"  font-size="10px" stroke="white" stroke-width="0" text-anchor="middle"><tspan x="0" y="0">Mapk12</tspan></text></a><a  id="f46" class="GeneProduct P594_ENSMUSG00000042688 " transform="translate(12,52)"   name="Mapk6"  ><rect id="f46-icon" class="Icon" transform="matrix(.98361 0 0 .95238 .4918 .47619)" width="60" height="20" fill="#fff" stroke="#000"/><text id="f46-text" class="Text" transform="translate(30,13)" fill="#000"  font-size="10px" stroke="white" stroke-width="0" text-anchor="middle"><tspan x="0" y="0">Mapk6</tspan></text></a></g><g id="d1d82" class="GroupComplex" transform="translate(262.33 29)" color="grey" ><use id="d1d82-icon" class="Icon" transform="matrix(.98824 0 0 .99048 .49412 .49524)" width="84" height="104" fill="#b4b464" fill-opacity=".1" stroke="grey" xlink:href="#Octagon"/><a  id="b69" class="GeneProduct P594_ENSMUSG00000061878 " transform="translate(12,12)"   name="Sphk1"  ><rect id="b69-icon" class="Icon" transform="matrix(.98361 0 0 .95238 .4918 .47619)" width="60" height="20" fill="#fff" stroke="#000"/><text id="b69-text" class="Text" transform="translate(30,13)" fill="#000"  font-size="10px" stroke="white" stroke-width="0" text-anchor="middle"><tspan x="0" y="0">Sphk1</tspan></text></a><a  id="d07" class="GeneProduct P594_ENSMUSG00000024887 " transform="translate(12,52)"   name="Asah2"  ><rect id="d07-icon" class="Icon" transform="matrix(.98361 0 0 .95238 .4918 .47619)" width="60" height="20" fill="#fff" stroke="#000"/><text id="d07-text" class="Text" transform="translate(30,13)" fill="#000"  font-size="10px" stroke="white" stroke-width="0" text-anchor="middle"><tspan x="0" y="0">Asah2</tspan></text></a><a  id="d9c" class="GeneProduct P594_ENSMUSG00000019822 " transform="translate(12,72)"   name="Smpd2"  ><rect id="d9c-icon" class="Icon" transform="matrix(.98361 0 0 .95238 .4918 .47619)" width="60" height="20" fill="#fff" stroke="#000"/><text id="d9c-text" class="Text" transform="translate(30,13)" fill="#000"  font-size="10px" stroke="white" stroke-width="0" text-anchor="middle"><tspan x="0" y="0">Smpd2</tspan></text></a><a  id="f47" class="GeneProduct P594_ENSMUSG00000057342 " transform="translate(12,32)"   name="Sphk2"  ><rect id="f47-icon" class="Icon" transform="matrix(.98361 0 0 .95238 .4918 .47619)" width="60" height="20" fill="#fff" stroke="#000"/><text id="f47-text" class="Text" transform="translate(30,13)" fill="#000"  font-size="10px" stroke="white" stroke-width="0" text-anchor="middle"><tspan x="0" y="0">Sphk2</tspan></text></a></g><g id="ebc98" class="GroupComplex" transform="translate(362.33 230)" color="grey" ><use id="ebc98-icon" class="Icon" transform="matrix(.98824 0 0 .98824 .49412 .49412)" width="84" height="84" fill="#b4b464" fill-opacity=".1" stroke="grey" xlink:href="#Octagon"/><a  id="cd1" class="GeneProduct P594_ENSMUSG00000004056 " transform="translate(12,32)"   name="Akt2"  ><rect id="cd1-icon" class="Icon" transform="matrix(.98361 0 0 .95238 .4918 .47619)" width="60" height="20" fill="#fff" stroke="#000"/><text id="cd1-text" class="Text" transform="translate(30,13)" fill="#000"  font-size="10px" stroke="white" stroke-width="0" text-anchor="middle"><tspan x="0" y="0">Akt2</tspan></text></a><a  id="e90" class="GeneProduct P594_ENSMUSG00000019699 " transform="translate(12,52)"   name="Akt3"  ><rect id="e90-icon" class="Icon" transform="matrix(.98361 0 0 .95238 .4918 .47619)" width="60" height="20" fill="#fff" stroke="#000"/><text id="e90-text" class="Text" transform="translate(30,13)" fill="#000"  font-size="10px" stroke="white" stroke-width="0" text-anchor="middle"><tspan x="0" y="0">Akt3</tspan></text></a><a  id="e9f" class="GeneProduct P594_ENSMUSG00000001729 " transform="translate(12,12)"   name="Akt1"  ><rect id="e9f-icon" class="Icon" transform="matrix(.98361 0 0 .95238 .4918 .47619)" width="60" height="20" fill="#fff" stroke="#000"/><text id="e9f-text" class="Text" transform="translate(30,13)" fill="#000"  font-size="10px" stroke="white" stroke-width="0" text-anchor="middle"><tspan x="0" y="0">Akt1</tspan></text></a></g><text id="WP57-text" class="Text" transform="translate(5,27)" dominant-baseline="central" fill="black"  font-size="12px" font-weight="bold" overflow="visible" stroke="white" stroke-width="0"><tspan x="0" y="-9">Name: Signal transduction of S1P receptor</tspan> <tspan x="0" y="9">Organism: Mus musculus</tspan></text></g></svg>
