<?xml version="1.0" encoding="UTF-8"?>
<!--
  WikiPathways page: https://www.wikipathways.org/index.php/Pathway:WP58
  URL for this compressed file: https://github.com/eweitz/cachome/tree/main/data/WP58.svg
  Source code for compression: https://github.com/eweitz/cachome/tree/main/src/wikipathways.py
-->
<svg id="wp58-svg" class="Diagram" width="800" height="600" color="black" baseProfile="full" prefix="schema:http://schema.org/" preserveAspectRatio="xMidYMid" version="1.1" viewBox="0 0 823 568" vocab="http://vocabularies.wikipathways.org/wp#" xmlns="http://www.w3.org/2000/svg" xmlns:xlink="http://www.w3.org/1999/xlink"><style>svg {font-family: 'Liberation Sans', Arial, sans-serif; }</style><defs><g id="jit-defs"><filter id="kaavioblackto000000filter" x="0" y="0" width="823" height="568" filterUnits="userSpaceOnUse"><feColorMatrix in="SourceGraphic" values="-1   0   0 0 0                   0  -1   0 0 0                   0   0  -1 0 0                   0   0   0 1 0"/></filter><filter id="kaavioblackto0000fffilter" x="0" y="0" width="823" height="568" filterUnits="userSpaceOnUse"><feColorMatrix in="SourceGraphic" values="-1   0   0 0 0                   0  -1   0 0 0                   0   0  -1 0 1                   0   0   0 1 0"/></filter><filter id="kaavioblacktoff8040filter" x="0" y="0" width="823" height="568" filterUnits="userSpaceOnUse"><feColorMatrix in="SourceGraphic" values="-1   0   0 0 1                   0  -1   0 0 0.5019607843137255                   0   0  -1 0 0.25098039215686274                   0   0   0 1 0"/></filter><filter id="kaavioblackto00ff00filter" x="0" y="0" width="823" height="568" filterUnits="userSpaceOnUse"><feColorMatrix in="SourceGraphic" values="-1   0   0 0 0                   0  -1   0 0 1                   0   0  -1 0 0                   0   0   0 1 0"/></filter><filter id="kaavioblacktoff8000filter" x="0" y="0" width="823" height="568" filterUnits="userSpaceOnUse"><feColorMatrix in="SourceGraphic" values="-1   0   0 0 1                   0  -1   0 0 0.5019607843137255                   0   0  -1 0 0                   0   0   0 1 0"/></filter></g><g id="jic-defs"><marker id="markerEndArrow" stroke-dasharray="99999" markerHeight="12" markerUnits="userSpaceOnUse" markerWidth="12" orient="auto" preserveAspectRatio="none" refX="12" refY="6" viewBox="0 0 12 12"><path transform="rotate(180 6 6)" d="M12 11L0 6l12-5z" fill="currentColor" stroke-width="0"/></marker><marker id="markerEndMimBinding" stroke-dasharray="99999" markerHeight="12" markerUnits="userSpaceOnUse" markerWidth="12" orient="auto" preserveAspectRatio="none" refX="12" refY="6" viewBox="0 0 12 12"><path transform="rotate(180 6 6)" d="M12 12L0 6l12-6-7 6z" fill="currentColor" stroke-width="0"/></marker><symbol id="none" preserveAspectRatio="none" viewBox="0 0 100 100"/></g></defs><g id="WP58" class="Viewport" color="black"  name="Name: Monoamine GPCRs License: CC BY 2.0 Last Modified: 5/16/2012 Organism: Homo sapiens"><rect id="WP58-icon" class="Icon" width="823" height="568" fill="#fff" stroke="#000" stroke-width="0"/><g id="a3370" class="DirectedInteraction" color="#ff8040" ><g color="#ff8040" fill="transparent"  filter="url(#kaavioblacktoff8040filter)" stroke="#000" stroke-dasharray="291.7833333333333, 5.8"><path id="a3370" class="EdgeBody" d="m160 258.67h40.25v257.33"   marker-end="url(#markerEndArrow)" /></g></g><g id="a76a2" class="DirectedInteraction" color="#ff8040" ><g color="#ff8040" fill="transparent"  filter="url(#kaavioblacktoff8040filter)" stroke="#000" stroke-dasharray="311.78333333333336, 5.8"><path id="a76a2" class="EdgeBody" d="m160 238.67h40.25v277.33"   marker-end="url(#markerEndArrow)" /></g></g><g id="abeaa" class="DirectedInteraction" color="#ff8040" ><g color="#ff8040" fill="transparent"  filter="url(#kaavioblacktoff8040filter)" stroke="#000" stroke-dasharray="331.78333333333336, 5.8"><path id="abeaa" class="EdgeBody" d="m160 218.67h40.25v297.33"   marker-end="url(#markerEndArrow)" /></g></g><g id="ac250" class="DirectedInteraction" color="#ff8040" ><g color="#ff8040" fill="transparent"  filter="url(#kaavioblacktoff8040filter)" stroke="#000" stroke-dasharray="347.03333333333336, 5.8"><path id="ac250" class="EdgeBody" d="m260 198.67h-35.5v317.33"   marker-end="url(#markerEndArrow)" /></g></g><g id="b1bcb" class="DirectedInteraction" color="#0f0" ><g color="#0f0" fill="transparent"  filter="url(#kaavioblackto00ff00filter)" stroke="#000" stroke-dasharray="318.3666666666667, 5.8"><path id="b1bcb" class="EdgeBody" d="m423.33 238.67h-44.833v279.33"   marker-end="url(#markerEndArrow)" /></g></g><g id="b46ee" class="DirectedInteraction" color="#ff8000" ><g color="#ff8000" fill="transparent"  filter="url(#kaavioblacktoff8000filter)" stroke="#000" stroke-dasharray="486.1166666666666, 5.8"><path id="b46ee" class="EdgeBody" d="m483.33 298.67h20v189.33h-254.58v28"   marker-end="url(#markerEndArrow)" /></g></g><g id="b65f7" class="DirectedInteraction" color="#00f" ><g color="#00f" fill="transparent"  filter="url(#kaavioblackto0000fffilter)" stroke="#000" stroke-dasharray="213.7, 5.8"><path id="b65f7" class="EdgeBody" d="m483.33 358.67h60.167v159.33"   marker-end="url(#markerEndArrow)" /></g></g><g id="bdcaf" class="DirectedInteraction" color="#0f0" ><g color="#0f0" fill="transparent"  filter="url(#kaavioblackto00ff00filter)" stroke="#000" stroke-dasharray="298.3666666666666, 5.8"><path id="bdcaf" class="EdgeBody" d="m423.33 258.67h-44.833v259.33"   marker-end="url(#markerEndArrow)" /></g></g><g id="bdf63" class="DirectedInteraction" color="#ff8040" ><g color="#ff8040" fill="transparent"  filter="url(#kaavioblacktoff8040filter)" stroke="#000" stroke-dasharray="287.0333333333333, 5.8"><path id="bdf63" class="EdgeBody" d="m260 258.67h-35.5v257.33"   marker-end="url(#markerEndArrow)" /></g></g><g id="be987" class="DirectedInteraction" color="#00f" ><g color="#00f" fill="transparent"  filter="url(#kaavioblackto0000fffilter)" stroke="#000" stroke-dasharray="328.28333333333336, 5.8"><path id="be987" class="EdgeBody" d="m100 198.67h-14.75v319.33"   marker-end="url(#markerEndArrow)" /></g></g><g id="bf812" class="DirectedInteraction" color="#ff8040" ><g color="#ff8040" fill="transparent"  filter="url(#kaavioblacktoff8040filter)" stroke="#000" stroke-dasharray="267.0333333333333, 5.8"><path id="bf812" class="EdgeBody" d="m260 278.67h-35.5v237.33"   marker-end="url(#markerEndArrow)" /></g></g><g id="c1801" class="DirectedInteraction" color="#ff8040" ><g color="#ff8040" fill="transparent"  filter="url(#kaavioblacktoff8040filter)" stroke="#000" stroke-dasharray="307.03333333333336, 5.8"><path id="c1801" class="EdgeBody" d="m260 238.67h-35.5v277.33"   marker-end="url(#markerEndArrow)" /></g></g><g id="c1e6d" class="DirectedInteraction" color="#0f0" ><g color="#0f0" fill="transparent"  filter="url(#kaavioblackto00ff00filter)" stroke="#000" stroke-dasharray="605.0333333333334, 5.8"><path id="c1e6d" class="EdgeBody" d="m630 198.67h20v275.33h-271.5v44"   marker-end="url(#markerEndArrow)" /></g></g><g id="c9b56" class="DirectedInteraction" color="#00f" ><g color="#00f" fill="transparent"  filter="url(#kaavioblackto0000fffilter)" stroke="#000" stroke-dasharray="253.7, 5.8"><path id="c9b56" class="EdgeBody" d="m483.33 318.67h60.167v199.33"   marker-end="url(#markerEndArrow)" /></g></g><g id="cd152" class="DirectedInteraction" color="#0f0" ><g color="#0f0" fill="transparent"  filter="url(#kaavioblackto00ff00filter)" stroke="#000" stroke-dasharray="338.3666666666667, 5.8"><path id="cd152" class="EdgeBody" d="m423.33 218.67h-44.833v299.33"   marker-end="url(#markerEndArrow)" /></g></g><g id="d4277" class="DirectedInteraction" color="#0f0" ><g color="#0f0" fill="transparent"  filter="url(#kaavioblackto00ff00filter)" stroke="#000" stroke-dasharray="638.3666666666668, 5.8"><path id="d4277" class="EdgeBody" d="m783.33 278.67h-87.333v202.33h-317.5v37"   marker-end="url(#markerEndArrow)" /></g></g><g id="d5fb5" class="DirectedInteraction" color="#00f" ><g color="#00f" fill="transparent"  filter="url(#kaavioblackto0000fffilter)" stroke="#000" stroke-dasharray="224.0333333333333, 5.8"><path id="d5fb5" class="EdgeBody" d="m260 438.67h-150.5v79.333"   marker-end="url(#markerEndArrow)" /></g></g><g id="db959" class="DirectedInteraction" color="#ff8040" ><g color="#ff8040" fill="transparent"  filter="url(#kaavioblacktoff8040filter)" stroke="#000" stroke-dasharray="327.03333333333336, 5.8"><path id="db959" class="EdgeBody" d="m260 218.67h-35.5v297.33"   marker-end="url(#markerEndArrow)" /></g></g><g id="dbfcb" class="DirectedInteraction" color="#00f" ><g color="#00f" fill="transparent"  filter="url(#kaavioblackto0000fffilter)" stroke="#000" stroke-dasharray="381.78333333333336, 5.8"><path id="dbfcb" class="EdgeBody" d="m630 218.67h13v144.33h-75.25v155"   marker-end="url(#markerEndArrow)" /></g></g><g id="df4ca" class="DirectedInteraction" color="#ff8040" ><g color="#ff8040" fill="transparent"  filter="url(#kaavioblacktoff8040filter)" stroke="#000" stroke-dasharray="271.7833333333333, 5.8"><path id="df4ca" class="EdgeBody" d="m160 278.67h40.25v237.33"   marker-end="url(#markerEndArrow)" /></g></g><g id="e09ce" class="DirectedInteraction" color="#ff8000" ><g color="#ff8000" fill="transparent"  filter="url(#kaavioblacktoff8000filter)" stroke="#000" stroke-dasharray="506.1166666666666, 5.8"><path id="e09ce" class="EdgeBody" d="m483.33 278.67h20v209.33h-254.58v28"   marker-end="url(#markerEndArrow)" /></g></g><g id="e14d7" class="DirectedInteraction" color="#0f0" ><g color="#0f0" fill="transparent"  filter="url(#kaavioblackto00ff00filter)" stroke="#000" stroke-dasharray="252.0333333333333, 5.8"><path id="e14d7" class="EdgeBody" d="m320 318.67h58.5v199.33"   marker-end="url(#markerEndArrow)" /></g></g><g id="e762b" class="DirectedInteraction" color="#0f0" ><g color="#0f0" fill="transparent"  filter="url(#kaavioblackto00ff00filter)" stroke="#000" stroke-dasharray="358.3666666666667, 5.8"><path id="e762b" class="EdgeBody" d="m423.33 198.67h-44.833v319.33"   marker-end="url(#markerEndArrow)" /></g></g><g id="eb1ad" class="DirectedInteraction" color="#0f0" ><g color="#0f0" fill="transparent"  filter="url(#kaavioblackto00ff00filter)" stroke="#000" stroke-dasharray="718.3666666666668, 5.8"><path id="eb1ad" class="EdgeBody" d="m783.33 198.67h-87.333v282.33h-317.5v37"   marker-end="url(#markerEndArrow)" /></g></g><g id="ed6f0" class="DirectedInteraction" color="#0f0" ><g color="#0f0" fill="transparent"  filter="url(#kaavioblackto00ff00filter)" stroke="#000" stroke-dasharray="232.0333333333333, 5.8"><path id="ed6f0" class="EdgeBody" d="m320 338.67h58.5v179.33"   marker-end="url(#markerEndArrow)" /></g></g><g id="ef458" class="DirectedInteraction" color="#00f" ><g color="#00f" fill="transparent"  filter="url(#kaavioblackto0000fffilter)" stroke="#000" stroke-dasharray="284.0333333333333, 5.8"><path id="ef458" class="EdgeBody" d="m260 378.67h-150.5v139.33"   marker-end="url(#markerEndArrow)" /></g></g><g id="ef85f" class="DirectedInteraction" color="#ff8000" ><g color="#ff8000" fill="transparent"  filter="url(#kaavioblacktoff8000filter)" stroke="#000" stroke-dasharray="526.1166666666667, 5.8"><path id="ef85f" class="EdgeBody" d="m483.33 258.67h20v229.33h-254.58v28"   marker-end="url(#markerEndArrow)" /></g></g><g id="f4b15" class="DirectedInteraction" color="#ff8000" ><g color="#ff8000" fill="transparent"  filter="url(#kaavioblacktoff8000filter)" stroke="#000" stroke-dasharray="866.1166666666668, 5.8"><path id="f4b15" class="EdgeBody" d="m783.33 218.67h20v277.33h-554.58v20"   marker-end="url(#markerEndArrow)" /></g></g><g id="f6d2f" class="DirectedInteraction" color="#ff8000" ><g color="#ff8000" fill="transparent"  filter="url(#kaavioblacktoff8000filter)" stroke="#000" stroke-dasharray="826.1166666666668, 5.8"><path id="f6d2f" class="EdgeBody" d="m783.33 258.67h20v237.33h-554.58v20"   marker-end="url(#markerEndArrow)" /></g></g><g id="f84b2" class="DirectedInteraction" color="#0f0" ><g color="#0f0" fill="transparent"  filter="url(#kaavioblackto00ff00filter)" stroke="#000" stroke-dasharray="678.3666666666668, 5.8"><path id="f84b2" class="EdgeBody" d="m783.33 238.67h-87.333v242.33h-317.5v37"   marker-end="url(#markerEndArrow)" /></g></g><g id="fd044" class="DirectedInteraction" color="#00f" ><g color="#00f" fill="transparent"  filter="url(#kaavioblackto0000fffilter)" stroke="#000" stroke-dasharray="233.7, 5.8"><path id="fd044" class="EdgeBody" d="m483.33 338.67h60.167v179.33"   marker-end="url(#markerEndArrow)" /></g></g><g id="ff51c" class="DirectedInteraction" color="#0f0" ><g color="#0f0" fill="transparent"  filter="url(#kaavioblackto00ff00filter)" stroke="#000" stroke-dasharray="272.0333333333333, 5.8"><path id="ff51c" class="EdgeBody" d="m320 298.67h58.5v219.33"   marker-end="url(#markerEndArrow)" /></g></g><g id="c2090" class="Interaction" color="#000" ><g color="#000" fill="transparent"  filter="url(#kaavioblackto000000filter)" stroke="#000" stroke-dasharray="35.168202732357194, 1"><path id="c2090" class="EdgeBody" d="m130.33 144.5-0.33333 36.167"   marker-end="url(#markerEndMimBinding)" /></g></g><g id="dfb04" class="Interaction" color="#000" ><g color="#000" fill="transparent"  filter="url(#kaavioblackto000000filter)" stroke="#000" stroke-dasharray="41.66796873013241, 1"><path id="dfb04" class="EdgeBody" d="m753 138 0.33333 42.667"   marker-end="url(#markerEndMimBinding)" /></g></g><g id="b6394" class="Interaction" color="#000" ><g color="#000" fill="transparent"  filter="url(#kaavioblackto000000filter)" stroke="#000" stroke-dasharray="47.16666666666666, 1"><path id="b6394" class="EdgeBody" d="m600 132.5v48.167"   marker-end="url(#markerEndMimBinding)" /></g></g><g id="eab11" class="Interaction" color="#000" ><g color="#000" fill="transparent"  filter="url(#kaavioblackto000000filter)" stroke="#000" stroke-dasharray="32.66831679124391, 1"><path id="eab11" class="EdgeBody" d="m453 147 0.33333 33.667"   marker-end="url(#markerEndMimBinding)" /></g></g><g id="edd0f" class="Interaction" color="#000" ><g color="#000" fill="transparent"  filter="url(#kaavioblackto000000filter)" stroke="#000" stroke-dasharray="35.16820273235714, 1"><path id="edd0f" class="EdgeBody" d="m290.33 144.5-0.33333 36.167"   marker-end="url(#markerEndMimBinding)" /></g></g><g id="b11" class="Label" transform="translate(518.83 149)" color="#000"  name="Histamine Receptors"><use id="b11-icon" class="Icon" width="78.33333333333333" height="27" fill="transparent"  stroke="#000" stroke-width="0" xlink:href="#none"/><text id="b11-text" class="Text" transform="translate(39.167 16.5)" fill="#000"  font-size="11px" font-weight="bold" stroke="white" stroke-width="0" text-anchor="middle"><tspan x="0" y="-6.050000000000001">Histamine</tspan> <tspan x="0" y="6.050000000000001">Receptors</tspan></text></g><g id="cf7" class="Label" transform="translate(367.5,150)" color="#000"  name="Adrenergic Receptors"><use id="cf7-icon" class="Icon" width="78.33333333333333" height="28" fill="transparent"  stroke="#000" stroke-width="0" xlink:href="#none"/><text id="cf7-text" class="Text" transform="translate(39.167 17)" fill="#000"  font-size="11px" font-weight="bold" stroke="white" stroke-width="0" text-anchor="middle"><tspan x="0" y="-6.050000000000001">Adrenergic</tspan> <tspan x="0" y="6.050000000000001">Receptors</tspan></text></g><g id="da0" class="Label" transform="translate(658.83 138.5)" color="#000"  name="Muscarinic Acetylcholine  Receptors"><use id="da0-icon" class="Icon" width="90.16666666666667" height="42.5" fill="transparent"  stroke="#000" stroke-width="0" xlink:href="#none"/><text id="da0-text" class="Text" transform="translate(45.083 24.25)" fill="#000"  font-size="11px" font-weight="bold" stroke="white" stroke-width="0" text-anchor="middle"><tspan x="0" y="-12.100000000000001">Muscarinic</tspan> <tspan x="0" y="0">Acetylcholine </tspan> <tspan x="0" y="12.100000000000001">Receptors</tspan></text></g><g id="e99" class="Label" transform="translate(48.167 149)" color="#000"  name="Dopamine Receptors"><use id="e99-icon" class="Icon" width="78.33333333333333" height="26" fill="transparent"  stroke="#000" stroke-width="0" xlink:href="#none"/><text id="e99-text" class="Text" transform="translate(39.167 16)" fill="#000"  font-size="11px" font-weight="bold" stroke="white" stroke-width="0" text-anchor="middle"><tspan x="0" y="-6.050000000000001">Dopamine</tspan> <tspan x="0" y="6.050000000000001">Receptors</tspan></text></g><g id="fed" class="Label" transform="translate(206.17 150)" color="#000"  name="Serotonin Receptors"><use id="fed-icon" class="Icon" width="78.33333333333333" height="26" fill="transparent"  stroke="#000" stroke-width="0" xlink:href="#none"/><text id="fed-text" class="Text" transform="translate(39.167 16)" fill="#000"  font-size="11px" font-weight="bold" stroke="white" stroke-width="0" text-anchor="middle"><tspan x="0" y="-6.050000000000001">Serotonin</tspan> <tspan x="0" y="6.050000000000001">Receptors</tspan></text></g><a id="a5f" class="CAS_50-67-9 Metabolite ChEBI_CHEBI_28790  " transform="translate(250.17 125.5)" color="#00f"  name="Serotonin"  ><rect id="a5f-icon" class="Icon" transform="matrix(.9877 0 0 .95 .49385 .475)" width="80.333" height="19" fill="#fff" stroke="#00f"/><text id="a5f-text" class="Text" transform="translate(40.167 12.5)" fill="#00f"  font-size="10px" stroke="white" stroke-width="0" text-anchor="middle"><tspan x="0" y="0">Serotonin</tspan></text></a><a id="e3977" class="WikiPathways_WP35 Pathway " transform="translate(176,516)" color="#14961e"  name="Gi/Go Pathway"  ><rect id="e3977-icon" class="Icon" transform="matrix(.9898 0 0 .95238 .4949 .47619)" width="97" height="20" rx="15" ry="15" fill="#fff" stroke="#14961e"/><text id="e3977-text" class="Text" transform="translate(48.5,14)" fill="#14961e"  font-size="12px" font-weight="bold" stroke="black" stroke-width="0" text-anchor="middle"><tspan x="0" y="0">Gi/Go Pathway</tspan></text></a><a id="eaa" class="CAS_51-45-6 Metabolite ChEBI_CHEBI_18295  " transform="translate(559.33 113.5)" color="#00f"  name="Histamine"  ><rect id="eaa-icon" class="Icon" transform="matrix(.98785 0 0 .95 .49393 .475)" width="81.333" height="19" fill="#fff" stroke="#00f"/><text id="eaa-text" class="Text" transform="translate(40.667 12.5)" fill="#00f"  font-size="10px" stroke="white" stroke-width="0" text-anchor="middle"><tspan x="0" y="0">Histamine</tspan></text></a><a id="f08" class="CAS_62-31-7 Metabolite ChEBI_CHEBI_18243 ChEBI_CHEBI_4698   " transform="translate(88.667 125.5)" color="#00f"  name="Dopamine"  ><rect id="f08-icon" class="Icon" transform="matrix(.98814 0 0 .95 .49407 .475)" width="83.333" height="19" fill="#fff" stroke="#00f"/><text id="f08-text" class="Text" transform="translate(41.667 12.5)" fill="#00f"  font-size="10px" stroke="white" stroke-width="0" text-anchor="middle"><tspan x="0" y="0">Dopamine</tspan></text></a><a id="f3014" class="WikiPathways_WP35 Pathway " transform="translate(61,518)" color="#14961e"  name="Gs Pathway"  ><rect id="f3014-icon" class="Icon" transform="matrix(.9898 0 0 .95238 .4949 .47619)" width="97" height="20" rx="15" ry="15" fill="#fff" stroke="#14961e"/><text id="f3014-text" class="Text" transform="translate(48.5,14)" fill="#14961e"  font-size="12px" font-weight="bold" stroke="black" stroke-width="0" text-anchor="middle"><tspan x="0" y="0">Gs Pathway</tspan></text></a><a id="f49c5" class="WikiPathways_WP35 Pathway " transform="translate(330,518)" color="#14961e"  name="Gq/G11 Pathway"  ><rect id="f49c5-icon" class="Icon" transform="matrix(.9898 0 0 .95238 .4949 .47619)" width="97" height="20" rx="15" ry="15" fill="#fff" stroke="#14961e"/><text id="f49c5-text" class="Text" transform="translate(48.5,14)" fill="#14961e"  font-size="12px" font-weight="bold" stroke="black" stroke-width="0" text-anchor="middle"><tspan x="0" y="0">Gq/G11 Pathway</tspan></text></a><a id="f8021" class="WikiPathways_WP35 Pathway " transform="translate(495,518)" color="#14961e"  name="Gs Pathway"  ><rect id="f8021-icon" class="Icon" transform="matrix(.9898 0 0 .95238 .4949 .47619)" width="97" height="20" rx="15" ry="15" fill="#fff" stroke="#14961e"/><text id="f8021-text" class="Text" transform="translate(48.5,14)" fill="#14961e"  font-size="12px" font-weight="bold" stroke="black" stroke-width="0" text-anchor="middle"><tspan x="0" y="0">Gs Pathway</tspan></text></a><g id="ba715" class="GroupNone" transform="translate(91 179.67)" color="grey" ><rect id="ba715-icon" class="Icon" transform="matrix(.98734 0 0 .9916 .49367 .4958)" width="78" height="118" fill="#b4b464" fill-opacity=".1" stroke="grey" stroke-dasharray="5,3"/><a  id="ac6" class="GeneProduct DRD3 " transform="translate(9,49)"   name="DRD3"  ><rect id="ac6-icon" class="Icon" transform="matrix(.98361 0 0 .95238 .4918 .47619)" width="60" height="20" fill="#fff" stroke="#000"/><text id="ac6-text" class="Text" transform="translate(30,13)" fill="#000"  font-size="10px" stroke="white" stroke-width="0" text-anchor="middle"><tspan x="0" y="0">DRD3</tspan></text></a><a  id="b5b" class="GeneProduct DRD5 " transform="translate(9 89)"   name="DRD5"  ><rect id="b5b-icon" class="Icon" transform="matrix(.98361 0 0 .95238 .4918 .47619)" width="60" height="20" fill="#fff" stroke="#000"/><text id="b5b-text" class="Text" transform="translate(30,13)" fill="#000"  font-size="10px" stroke="white" stroke-width="0" text-anchor="middle"><tspan x="0" y="0">DRD5</tspan></text></a><a  id="bd8" class="GeneProduct DRD4 " transform="translate(9 69)"   name="DRD4"  ><rect id="bd8-icon" class="Icon" transform="matrix(.98361 0 0 .95238 .4918 .47619)" width="60" height="20" fill="#fff" stroke="#000"/><text id="bd8-text" class="Text" transform="translate(30,13)" fill="#000"  font-size="10px" stroke="white" stroke-width="0" text-anchor="middle"><tspan x="0" y="0">DRD4</tspan></text></a><a  id="d94" class="GeneProduct DRD2 " transform="translate(9,29)"   name="DRD2"  ><rect id="d94-icon" class="Icon" transform="matrix(.98361 0 0 .95238 .4918 .47619)" width="60" height="20" fill="#fff" stroke="#000"/><text id="d94-text" class="Text" transform="translate(30,13)" fill="#000"  font-size="10px" stroke="white" stroke-width="0" text-anchor="middle"><tspan x="0" y="0">DRD2</tspan></text></a><a  id="e6a" class="GeneProduct DRD1 " transform="translate(9,9)"   name="DRD1"  ><rect id="e6a-icon" class="Icon" transform="matrix(.98361 0 0 .95238 .4918 .47619)" width="60" height="20" fill="#fff" stroke="#000"/><text id="e6a-text" class="Text" transform="translate(30,13)" fill="#000"  font-size="10px" stroke="white" stroke-width="0" text-anchor="middle"><tspan x="0" y="0">DRD1</tspan></text></a></g><g id="c59b6" class="GroupNone" transform="translate(704,81)" color="grey" ><rect id="c59b6-icon" class="Icon" transform="matrix(.9899 0 0 .98305 .49495 .49153)" width="98" height="58" fill="#b4b464" fill-opacity=".1" stroke="grey" stroke-dasharray="5,3"/><a id="df6e2" class="Metabolite ChEBI_CHEBI_15355  " transform="translate(9,9)" color="#00f"  name="Acetylcholine"  ><rect id="df6e2-icon" class="Icon" transform="matrix(.98765 0 0 .95238 .49383 .47619)" width="80" height="20" fill="#fff" stroke="#00f"/><text id="df6e2-text" class="Text" transform="translate(40,13)" fill="#00f"  font-size="10px" stroke="white" stroke-width="0" text-anchor="middle"><tspan x="0" y="0">Acetylcholine</tspan></text></a><a id="e90b0" class="ChEBI_CHEBI_7034 Metabolite  " transform="translate(9,29)" color="#00f"  name="Muscarine"  ><rect id="e90b0-icon" class="Icon" transform="matrix(.98765 0 0 .95238 .49383 .47619)" width="80" height="20" fill="#fff" stroke="#00f"/><text id="e90b0-text" class="Text" transform="translate(40,13)" fill="#00f"  font-size="10px" stroke="white" stroke-width="0" text-anchor="middle"><tspan x="0" y="0">Muscarine</tspan></text></a></g><g id="c679c" class="GroupNone" transform="translate(714.33 179.67)" color="grey" ><rect id="c679c-icon" class="Icon" transform="matrix(.98734 0 0 .9916 .49367 .4958)" width="78" height="118" fill="#b4b464" fill-opacity=".1" stroke="grey" stroke-dasharray="5,3"/><a  id="b3c" class="GeneProduct CHRM3 " transform="translate(9,49)"   name="CHRM3"  ><rect id="b3c-icon" class="Icon" transform="matrix(.98361 0 0 .95238 .4918 .47619)" width="60" height="20" fill="#fff" stroke="#000"/><text id="b3c-text" class="Text" transform="translate(30,13)" fill="#000"  font-size="10px" stroke="white" stroke-width="0" text-anchor="middle"><tspan x="0" y="0">CHRM3</tspan></text></a><a  id="c4d" class="GeneProduct CHRM2 " transform="translate(9,29)"   name="CHRM2"  ><rect id="c4d-icon" class="Icon" transform="matrix(.98361 0 0 .95238 .4918 .47619)" width="60" height="20" fill="#fff" stroke="#000"/><text id="c4d-text" class="Text" transform="translate(30,13)" fill="#000"  font-size="10px" stroke="white" stroke-width="0" text-anchor="middle"><tspan x="0" y="0">CHRM2</tspan></text></a><a  id="c94" class="GeneProduct CHRM1 " transform="translate(9,9)"   name="CHRM1"  ><rect id="c94-icon" class="Icon" transform="matrix(.98361 0 0 .95238 .4918 .47619)" width="60" height="20" fill="#fff" stroke="#000"/><text id="c94-text" class="Text" transform="translate(30,13)" fill="#000"  font-size="10px" stroke="white" stroke-width="0" text-anchor="middle"><tspan x="0" y="0">CHRM1</tspan></text></a><a  id="d90" class="GeneProduct CHRM4 " transform="translate(9 69)"   name="CHRM4"  ><rect id="d90-icon" class="Icon" transform="matrix(.98361 0 0 .95238 .4918 .47619)" width="60" height="20" fill="#fff" stroke="#000"/><text id="d90-text" class="Text" transform="translate(30,13)" fill="#000"  font-size="10px" stroke="white" stroke-width="0" text-anchor="middle"><tspan x="0" y="0">CHRM4</tspan></text></a><a  id="db2" class="GeneProduct CHRM5 " transform="translate(9 89)"   name="CHRM5"  ><rect id="db2-icon" class="Icon" transform="matrix(.98361 0 0 .95238 .4918 .47619)" width="60" height="20" fill="#fff" stroke="#000"/><text id="db2-text" class="Text" transform="translate(30,13)" fill="#000"  font-size="10px" stroke="white" stroke-width="0" text-anchor="middle"><tspan x="0" y="0">CHRM5</tspan></text></a></g><g id="e1f05" class="GroupNone" transform="translate(404,90)" color="grey" ><rect id="e1f05-icon" class="Icon" transform="matrix(.9899 0 0 .98305 .49495 .49153)" width="98" height="58" fill="#b4b464" fill-opacity=".1" stroke="grey" stroke-dasharray="5,3"/><a id="bad38" class="Metabolite ChEBI_CHEBI_28918  " transform="translate(9,29)" color="#00f"  name="Epinephrine"  ><rect id="bad38-icon" class="Icon" transform="matrix(.98765 0 0 .95238 .49383 .47619)" width="80" height="20" fill="#fff" stroke="#00f"/><text id="bad38-text" class="Text" transform="translate(40,13)" fill="#00f"  font-size="10px" stroke="white" stroke-width="0" text-anchor="middle"><tspan x="0" y="0">Epinephrine</tspan></text></a><a id="c4654" class="Metabolite ChEBI_CHEBI_18357  " transform="translate(9,9)" color="#00f"  name="Norepinephrine"  ><rect id="c4654-icon" class="Icon" transform="matrix(.98765 0 0 .95238 .49383 .47619)" width="80" height="20" fill="#fff" stroke="#00f"/><text id="c4654-text" class="Text" transform="translate(40,13)" fill="#00f"  font-size="10px" stroke="white" stroke-width="0" text-anchor="middle"><tspan x="0" y="0">Norepinephrine</tspan></text></a></g><g id="e3822" class="GroupNone" transform="translate(561 179.67)" color="grey" ><rect id="e3822-icon" class="Icon" transform="matrix(.98734 0 0 .98305 .49367 .49153)" width="78" height="58" fill="#b4b464" fill-opacity=".1" stroke="grey" stroke-dasharray="5,3"/><a  id="a16" class="GeneProduct HRH1 " transform="translate(9,9)"   name="HRH1"  ><rect id="a16-icon" class="Icon" transform="matrix(.98361 0 0 .95238 .4918 .47619)" width="60" height="20" fill="#fff" stroke="#000"/><text id="a16-text" class="Text" transform="translate(30,13)" fill="#000"  font-size="10px" stroke="white" stroke-width="0" text-anchor="middle"><tspan x="0" y="0">HRH1</tspan></text></a><a  id="b21" class="GeneProduct HRH2 " transform="translate(9,29)"   name="HRH2"  ><rect id="b21-icon" class="Icon" transform="matrix(.98361 0 0 .95238 .4918 .47619)" width="60" height="20" fill="#fff" stroke="#000"/><text id="b21-text" class="Text" transform="translate(30,13)" fill="#000"  font-size="10px" stroke="white" stroke-width="0" text-anchor="middle"><tspan x="0" y="0">HRH2</tspan></text></a></g><g id="e76e9" class="GroupNone" transform="translate(414.33 179.67)" color="grey" ><rect id="e76e9-icon" class="Icon" transform="matrix(.98734 0 0 .99497 .49367 .49749)" width="78" height="198" fill="#b4b464" fill-opacity=".1" stroke="grey" stroke-dasharray="5,3"/><a  id="a49" class="GeneProduct ADRA2C " transform="translate(9 109)"   name="ADRA2C"  ><rect id="a49-icon" class="Icon" transform="matrix(.98361 0 0 .95238 .4918 .47619)" width="60" height="20" fill="#fff" stroke="#000"/><text id="a49-text" class="Text" transform="translate(30,13)" fill="#000"  font-size="10px" stroke="white" stroke-width="0" text-anchor="middle"><tspan x="0" y="0">ADRA2C</tspan></text></a><a  id="b51" class="GeneProduct ADRA1A " transform="translate(9,9)"   name="ADRA1A"  ><rect id="b51-icon" class="Icon" transform="matrix(.98361 0 0 .95238 .4918 .47619)" width="60" height="20" fill="#fff" stroke="#000"/><text id="b51-text" class="Text" transform="translate(30,13)" fill="#000"  font-size="10px" stroke="white" stroke-width="0" text-anchor="middle"><tspan x="0" y="0">ADRA1A</tspan></text></a><a  id="c17" class="GeneProduct ADRB3 " transform="translate(9 169)"   name="ADRB3"  ><rect id="c17-icon" class="Icon" transform="matrix(.98361 0 0 .95238 .4918 .47619)" width="60" height="20" fill="#fff" stroke="#000"/><text id="c17-text" class="Text" transform="translate(30,13)" fill="#000"  font-size="10px" stroke="white" stroke-width="0" text-anchor="middle"><tspan x="0" y="0">ADRB3</tspan></text></a><a  id="c19" class="GeneProduct ADRA1B " transform="translate(9,29)"   name="ADRA1B"  ><rect id="c19-icon" class="Icon" transform="matrix(.98361 0 0 .95238 .4918 .47619)" width="60" height="20" fill="#fff" stroke="#000"/><text id="c19-text" class="Text" transform="translate(30,13)" fill="#000"  font-size="10px" stroke="white" stroke-width="0" text-anchor="middle"><tspan x="0" y="0">ADRA1B</tspan></text></a><a  id="dbd" class="GeneProduct ADRA2A " transform="translate(9 69)"   name="ADRA2A"  ><rect id="dbd-icon" class="Icon" transform="matrix(.98361 0 0 .95238 .4918 .47619)" width="60" height="20" fill="#fff" stroke="#000"/><text id="dbd-text" class="Text" transform="translate(30,13)" fill="#000"  font-size="10px" stroke="white" stroke-width="0" text-anchor="middle"><tspan x="0" y="0">ADRA2A</tspan></text></a><a  id="ebd" class="GeneProduct ADRB1 " transform="translate(9 129)"   name="ADRB1"  ><rect id="ebd-icon" class="Icon" transform="matrix(.98361 0 0 .95238 .4918 .47619)" width="60" height="20" fill="#fff" stroke="#000"/><text id="ebd-text" class="Text" transform="translate(30,13)" fill="#000"  font-size="10px" stroke="white" stroke-width="0" text-anchor="middle"><tspan x="0" y="0">ADRB1</tspan></text></a><a  id="ed0" class="GeneProduct ADRA2B " transform="translate(9 89)"   name="ADRA2B"  ><rect id="ed0-icon" class="Icon" transform="matrix(.98361 0 0 .95238 .4918 .47619)" width="60" height="20" fill="#fff" stroke="#000"/><text id="ed0-text" class="Text" transform="translate(30,13)" fill="#000"  font-size="10px" stroke="white" stroke-width="0" text-anchor="middle"><tspan x="0" y="0">ADRA2B</tspan></text></a><a  id="f4b" class="GeneProduct ADRA1D " transform="translate(9,49)"   name="ADRA1D"  ><rect id="f4b-icon" class="Icon" transform="matrix(.98361 0 0 .95238 .4918 .47619)" width="60" height="20" fill="#fff" stroke="#000"/><text id="f4b-text" class="Text" transform="translate(30,13)" fill="#000"  font-size="10px" stroke="white" stroke-width="0" text-anchor="middle"><tspan x="0" y="0">ADRA1D</tspan></text></a><a  id="fd1" class="GeneProduct ADRB2 " transform="translate(9 149)"   name="ADRB2"  ><rect id="fd1-icon" class="Icon" transform="matrix(.98361 0 0 .95238 .4918 .47619)" width="60" height="20" fill="#fff" stroke="#000"/><text id="fd1-text" class="Text" transform="translate(30,13)" fill="#000"  font-size="10px" stroke="white" stroke-width="0" text-anchor="middle"><tspan x="0" y="0">ADRB2</tspan></text></a></g><g id="eb605" class="GroupNone" transform="translate(251 179.67)" color="grey" ><rect id="eb605-icon" class="Icon" transform="matrix(.98734 0 0 .99642 .49367 .49821)" width="78" height="278" fill="#b4b464" fill-opacity=".1" stroke="grey" stroke-dasharray="5,3"/><a  id="ac3" class="GeneProduct HTR4 " transform="translate(9 169)"   name="HTR4"  ><rect id="ac3-icon" class="Icon" transform="matrix(.98361 0 0 .95238 .4918 .47619)" width="60" height="20" fill="#fff" stroke="#000"/><text id="ac3-text" class="Text" transform="translate(30,13)" fill="#000"  font-size="10px" stroke="white" stroke-width="0" text-anchor="middle"><tspan x="0" y="0">HTR4</tspan></text></a><a  id="bbd" class="GeneProduct " transform="translate(9 209)"   name="HTR5B"  ><rect id="bbd-icon" class="Icon" transform="matrix(.98361 0 0 .95238 .4918 .47619)" width="60" height="20" fill="#fff" stroke="#000"/><text id="bbd-text" class="Text" transform="translate(30,13)" fill="#000"  font-size="10px" stroke="white" stroke-width="0" text-anchor="middle"><tspan x="0" y="0">HTR5B</tspan></text></a><a  id="c78" class="GeneProduct HTR6 " transform="translate(9 229)"   name="HTR6"  ><rect id="c78-icon" class="Icon" transform="matrix(.98361 0 0 .95238 .4918 .47619)" width="60" height="20" fill="#fff" stroke="#000"/><text id="c78-text" class="Text" transform="translate(30,13)" fill="#000"  font-size="10px" stroke="white" stroke-width="0" text-anchor="middle"><tspan x="0" y="0">HTR6</tspan></text></a><a  id="c8e" class="GeneProduct HTR1D " transform="translate(9,49)"   name="HTR1D"  ><rect id="c8e-icon" class="Icon" transform="matrix(.98361 0 0 .95238 .4918 .47619)" width="60" height="20" fill="#fff" stroke="#000"/><text id="c8e-text" class="Text" transform="translate(30,13)" fill="#000"  font-size="10px" stroke="white" stroke-width="0" text-anchor="middle"><tspan x="0" y="0">HTR1D</tspan></text></a><a  id="d13" class="GeneProduct HTR1E " transform="translate(9 69)"   name="HTR1E"  ><rect id="d13-icon" class="Icon" transform="matrix(.98361 0 0 .95238 .4918 .47619)" width="60" height="20" fill="#fff" stroke="#000"/><text id="d13-text" class="Text" transform="translate(30,13)" fill="#000"  font-size="10px" stroke="white" stroke-width="0" text-anchor="middle"><tspan x="0" y="0">HTR1E</tspan></text></a><a  id="d3e" class="GeneProduct HTR7 " transform="translate(9 249)"   name="HTR7"  ><rect id="d3e-icon" class="Icon" transform="matrix(.98361 0 0 .95238 .4918 .47619)" width="60" height="20" fill="#fff" stroke="#000"/><text id="d3e-text" class="Text" transform="translate(30,13)" fill="#000"  font-size="10px" stroke="white" stroke-width="0" text-anchor="middle"><tspan x="0" y="0">HTR7</tspan></text></a><a  id="e04" class="GeneProduct HTR2A " transform="translate(9 109)"   name="HTR2A"  ><rect id="e04-icon" class="Icon" transform="matrix(.98361 0 0 .95238 .4918 .47619)" width="60" height="20" fill="#fff" stroke="#000"/><text id="e04-text" class="Text" transform="translate(30,13)" fill="#000"  font-size="10px" stroke="white" stroke-width="0" text-anchor="middle"><tspan x="0" y="0">HTR2A</tspan></text></a><a  id="e0d" class="GeneProduct HTR1F " transform="translate(9 89)"   name="HTR1F"  ><rect id="e0d-icon" class="Icon" transform="matrix(.98361 0 0 .95238 .4918 .47619)" width="60" height="20" fill="#fff" stroke="#000"/><text id="e0d-text" class="Text" transform="translate(30,13)" fill="#000"  font-size="10px" stroke="white" stroke-width="0" text-anchor="middle"><tspan x="0" y="0">HTR1F</tspan></text></a><a  id="e8b" class="GeneProduct HTR5A " transform="translate(9 189)"   name="HTR5A"  ><rect id="e8b-icon" class="Icon" transform="matrix(.98361 0 0 .95238 .4918 .47619)" width="60" height="20" fill="#fff" stroke="#000"/><text id="e8b-text" class="Text" transform="translate(30,13)" fill="#000"  font-size="10px" stroke="white" stroke-width="0" text-anchor="middle"><tspan x="0" y="0">HTR5A</tspan></text></a><a  id="ed9" class="GeneProduct HTR2C " transform="translate(9 149)"   name="HTR2C"  ><rect id="ed9-icon" class="Icon" transform="matrix(.98361 0 0 .95238 .4918 .47619)" width="60" height="20" fill="#fff" stroke="#000"/><text id="ed9-text" class="Text" transform="translate(30,13)" fill="#000"  font-size="10px" stroke="white" stroke-width="0" text-anchor="middle"><tspan x="0" y="0">HTR2C</tspan></text></a><a  id="f01" class="GeneProduct HTR2B " transform="translate(9 129)"   name="HTR2B"  ><rect id="f01-icon" class="Icon" transform="matrix(.98361 0 0 .95238 .4918 .47619)" width="60" height="20" fill="#fff" stroke="#000"/><text id="f01-text" class="Text" transform="translate(30,13)" fill="#000"  font-size="10px" stroke="white" stroke-width="0" text-anchor="middle"><tspan x="0" y="0">HTR2B</tspan></text></a><a  id="f24" class="GeneProduct HTR1A " transform="translate(9,9)"   name="HTR1A"  ><rect id="f24-icon" class="Icon" transform="matrix(.98361 0 0 .95238 .4918 .47619)" width="60" height="20" fill="#fff" stroke="#000"/><text id="f24-text" class="Text" transform="translate(30,13)" fill="#000"  font-size="10px" stroke="white" stroke-width="0" text-anchor="middle"><tspan x="0" y="0">HTR1A</tspan></text></a><a  id="fc4" class="GeneProduct HTR1B " transform="translate(9,29)"   name="HTR1B"  ><rect id="fc4-icon" class="Icon" transform="matrix(.98361 0 0 .95238 .4918 .47619)" width="60" height="20" fill="#fff" stroke="#000"/><text id="fc4-text" class="Text" transform="translate(30,13)" fill="#000"  font-size="10px" stroke="white" stroke-width="0" text-anchor="middle"><tspan x="0" y="0">HTR1B</tspan></text></a></g><text id="WP58-text" class="Text" transform="translate(5,45)" dominant-baseline="central" fill="black"  font-size="12px" font-weight="bold" overflow="visible" stroke="white" stroke-width="0"><tspan x="0" y="-27">Name: Monoamine GPCRs</tspan> <tspan x="0" y="-9">License: CC BY 2.0</tspan> <tspan x="0" y="9">Last Modified: 5/16/2012</tspan> <tspan x="0" y="27">Organism: Homo sapiens</tspan></text></g></svg>
