<?xml version="1.0" encoding="UTF-8"?>
<svg xmlns="http://www.w3.org/2000/svg" id="-svg" class="Diagram"  baseProfile="full" prefix="schema:http://schema.org/" preserveAspectRatio="xMidYMid"  version="1.1"><defs><g id="icon-defs"><symbol id="Octagon" class=" Icon Octagon" x="0" y="0" overflow="visible" preserveAspectRatio="none" viewBox="0 0 100 100"><desc>Octagon</desc><path d="m0 25 25-25h50l25 25v50l-25 25h-50l-25-25z" vector-effect="non-scaling-stroke"/></symbol></g><g id="marker-defs"><marker id="mea" markerHeight="12" markerWidth="12" orient="auto" preserveAspectRatio="none" refX="12" refY="6" viewBox="0 0 12 12"><g id="g-mea" transform=""><g transform="rotate(180 6 6)"><rect y="5.4" width="2" height="1.2" style="stroke:#fff"/><polygon points="12 11 0 6 12 1" stroke-width="0"/></g></g></marker><marker id="memconversion000" markerHeight="12" markerWidth="12" orient="auto" preserveAspectRatio="none" refX="12" refY="6" viewBox="0 0 12 12"><g id="g-memconversion000" transform=""><g transform="rotate(180 6 6)"><rect y="5.4" width="2" height="1.2" style="stroke:#fff"/><polygon points="12 11 0 6 12 1" stroke-width="0"/></g></g></marker><marker id="memcatalysis000" markerHeight="12" markerWidth="12" orient="auto" preserveAspectRatio="none" refX="12" refY="6" viewBox="0 0 12 12"><g id="g-memcatalysis000" transform=""><g transform="rotate(180 6 6)"><circle cx="6" cy="6" r="5.3px" fill="#fff" stroke="#000"/></g></g></marker></g></defs><g id="viewport-20220102145545176" class="svg-pan-zoom_viewport" transform="matrix(1.07 0 0 1.07 247.76 0)" style="transform:matrix(1.07, 0, 0, 1.07, 247.76, 0)"><style>svg.Diagram {font-family: 'Liberation Sans', Arial, sans-serif; }.Diagram path {fill: transparent;stroke: #000;marker-end: url(#mea);}.Diagram symbol path {fill: inherit;stroke: inherit;stroke-width: inherit;marker-end: inherit;}.Diagram rect {fill: #fff;stroke: #000;}.Diagram text {dominant-baseline: central;overflow: hidden;text-anchor: middle;fill: #000;font-size: 10px;}</style><style type="text/css">.Viewport .textContent {
  pointer-events: none;
  stroke-width: 0px;
}

					.Viewport.Icon {
  fill: white;
}

/* Hide the InfoBox */
.Viewport.textContent {
  font-size: 0;
}

.textContent {
  stroke: none;
}

.DataNode {
  stroke-miterlimit: 1;
  pointer-events: auto;
}

.DataNode:hover {
  cursor: pointer;
}

/* TODO should this apply to things other than DataNodes? */
.DataNode.textContent {
  pointer-events: none;
}

.DataNode.Highlighted {
  opacity: 0.6;
  stroke-width: 0px;
}

marker {
  /* this is what should work per the spec
  stroke-dasharray: none; */
  /* but I need to add this to make it work in Safari */
  stroke-dasharray: 9999999999999999999999999;
}

.Citation.Icon {
  fill: none;
  stroke-width: 0px;
}

.Citation.textContent {
  text-align: center;
  vertical-align: top;
  font-size: 7px;
  fill: #999;
  fill-opacity: 1;
  stroke: none;
}</style><g id="WP694" class="Pathway http___identifiers_org_pw_PW_0000147 http___identifiers_org_pw_PW_0001232 Viewport"  name="Name: Arylamine metabolism Organism: Homo sapiens" ><g class="Pathway http___identifiers_org_pw_PW_0000147 http___identifiers_org_pw_PW_0001232 Viewport"><rect   width="659.21" height="626" style="stroke:none"/><g id="a5212" class="Edge"  ><path    d="m493.75 216v20h-234.75v-25"/><g id="bb468" class="AB" transform="translate(371.75 236)"  ><g class="AB"/></g></g><g id="aa81f" class="Edge"  ><path    d="m239 211v206" style="marker-end:url(#memconversion000)"/><g id="a4319" class="AB" transform="translate(239,323)"  ><g class="AB"/></g></g><g id="c4a29" class="Edge"  ><path    d="m219 211v43h-88" style="marker-end:url(#memconversion000)"/></g><g id="c7852" class="Edge"  ><path    d="m199 201h-63" style="marker-end:url(#memconversion000)"/><g id="a0afc" class="AB" transform="translate(170,201)"  ><g class="AB"/></g></g><g id="c9255" class="Edge"  ><path    d="m259 191v-20h234.75v25"/><g id="e2eb9" class="AB" transform="translate(371.85 171)"  ><g class="AB"/></g><g id="a36a4" class="AB" transform="translate(372.35 171)"  ><g class="AB"/></g></g><g id="cc844" class="Edge"  ><path    d="m329.5 323h-90.5" style="marker-end:url(#memcatalysis000)"/></g><g id="d2c5c" class="Edge"  ><path    d="m239 437v91h81" style="marker-end:url(#memconversion000)"/><g id="f7c55" class="AB" transform="translate(239 479.32)"  ><g class="AB"/></g></g><g id="d6849" class="Edge"  ><path    d="m187 427h-70" style="marker-end:url(#memconversion000)"/><g id="d8c0f" class="AB" transform="translate(153.67 427)"  ><g class="AB"/></g></g><g id="d9c79" class="Edge"  ><path    d="m521.5 216-0.5 201" style="marker-end:url(#memconversion000)"/><g id="c77fd" class="AB" transform="translate(521.23 323)"  ><g class="AB"/></g></g><g id="be768" class="Edge"  ><path    d="m409.5 323 111.73 0.00" style="marker-end:url(#memcatalysis000)"/></g><g id="e2ba7" class="Edge"  ><path    d="m369.5 538v38" stroke-dasharray="5,3"/></g><g id="efcb8" class="Edge"  ><path    d="m371.96 267.65-0.21-31.64" style="marker-end:url(#memcatalysis000)"/></g><g id="f2392" class="Edge"  ><path    d="m521 437v91h-102" style="marker-end:url(#memconversion000)"/><g id="aad4e" class="AB" transform="translate(521 479.32)"  ><g class="AB"/></g></g><g id="fdeab" class="Edge"  ><path    d="m454 427h-163" style="marker-end:url(#memconversion000)"/><g id="c0470" class="AB" transform="translate(371.47 427)"  ><g class="AB"/></g></g><g id="d9f02" class="Edge"  ><path    d="m371.32 400.82 0.15 26.18" style="marker-end:url(#memcatalysis000)"/></g><g id="id49484ed3" class="Edge"  ><path    d="m299 136 72.85 35" style="marker-end:none"/></g><g id="idb81bc2b4" class="Edge"  ><path    d="m371.85 171 70.15-32" style="marker-end:url(#memconversion000)"/></g><g id="e2b93" class="Edge"  ><path    d="m154.05 392.2-0.38 34.80" style="marker-end:url(#memcatalysis000)"/></g><g id="ac2d4" class="Edge"  ><path    d="m421.5 480 99.5-0.68" style="marker-end:url(#memcatalysis000)"/></g><g id="eb018" class="Edge"  ><path    d="m317.5 480-78.5-0.68" style="marker-end:url(#memcatalysis000)"/></g><g id="d9890" class="Edge"  ><path    d="m371.96 126.65-0.11 44.35" style="marker-end:url(#memcatalysis000)"/></g><g id="fcec7" class="Edge"  ><path    d="m170 176v25" style="marker-end:url(#memcatalysis000)"/></g><g id="aaf1e" class="Label" transform="translate(522.21 497.14)"  name="N,O-Transacetylation" ><g class="Label"/><text   transform="translate(53.5,10)"    >N,O-Transacetylation</text></g><g id="d9a78" class="Label" transform="translate(156.15 494.06)"  name="O-acetylation" ><g class="Label"/><text   transform="translate(40,10)"    >O-acetylation</text></g><g id="f5dde" class="Label" transform="translate(329.5 576)"  name="DNA adducts" ><g class="Label"/><text   transform="translate(40,10)"    >DNA adducts</text></g><g id="bb0f4" class="GeneProduct " transform="translate(329.5 313)"  name="CYP1A2" ><rect   width="80" height="20"/><text   transform="translate(40,10)"    >CYP1A2</text></g><g id="cbb69" class="Metabolite " transform="translate(466,196)"  name="N-Acetylarylamine" ><rect   width="111" height="20" style="stroke:#00f"/><text   transform="translate(55.5,10)"     style="fill:#00f">N-Acetylarylamine</text></g><g id="d06f5" class="Metabolite" transform="translate(320 518)"  name="O-acetylarylamine" ><rect   width="99" height="20" style="stroke:#00f"/><text   transform="translate(49.5,10)"     style="fill:#00f">O-acetylarylamine</text></g><g id="d0f9e" class="Metabolite" transform="translate(20,244)"  name="N-aryl sulfamic acid" ><rect   width="111" height="20" style="stroke:#00f"/><text   transform="translate(55.5,10)"     style="fill:#00f">N-aryl sulfamic acid</text></g><g id="d1bbc" class="GeneProduct" transform="translate(331.96 267.65)"  name="Deacetylase" ><rect   width="80" height="20"/><text   transform="translate(40,10)"    >Deacetylase</text></g><g id="d5a3e" class="Metabolite " transform="translate(239,116)"  name="Acetyl-CoA" ><rect   width="80" height="20" style="stroke:#00f"/><text   transform="translate(40,10)"     style="fill:#00f">Acetyl-CoA</text></g><g id="e147e" class="Metabolite " transform="translate(199,191)"  name="Arylamine" ><rect   width="80" height="20" style="stroke:#00f"/><text   transform="translate(40,10)"     style="fill:#00f">Arylamine</text></g><g id="e55d1" class="Metabolite " transform="translate(187,417)"  name="an N-hydroxyarylamine" ><rect   width="104" height="20" style="stroke:#00f"/><text   transform="translate(52,10)"     style="fill:#00f">an N-hydroxyarylamine</text></g><g id="ebb60" class="Metabolite" transform="translate(11,191)"  name="Arylamine N-glucuronide" ><rect   width="125" height="20" style="stroke:#00f"/><text   transform="translate(62.5,10)"     style="fill:#00f">Arylamine N-glucuronide</text></g><g id="f2ba4" class="Metabolite" transform="translate(454,417)"  name="N-hydroxy-N-acetylamine" ><rect   width="134" height="20" style="stroke:#00f"/><text   transform="translate(67,10)"     style="fill:#00f">N-hydroxy-N-acetylamine</text></g><g id="f2bcc" class="Metabolite " transform="translate(422,119)"  name="Coenzyme A" ><rect   width="80" height="20" style="stroke:#00f"/><text   transform="translate(40,10)"     style="fill:#00f">Coenzyme A</text></g><g id="f7f51" class="Metabolite" transform="translate(7,417)"  name="Arylamine N,O-sulfate" ><rect   width="110" height="20" style="stroke:#00f"/><text   transform="translate(55,10)"     style="fill:#00f">Arylamine N,O-sulfate</text></g><g id="f9488" class="GeneProduct" transform="translate(331.32 380.82)"  name="Deacetylase" ><rect   width="80" height="20"/><text   transform="translate(40,10)"    >Deacetylase</text></g><g id="b6ddb" class="GroupComplex" transform="translate(102.05 328.2)"  ><g class="GroupComplex"><use class="Icon" width="104" height="64" fill="#b4b464" fill-opacity=".1" stroke="grey" href="#Octagon"/><g id="c3d82" class="GeneProduct " transform="translate(12,32)"  name="SULT1A2" ><rect   width="80" height="20"/><text   transform="translate(40,10)"    >SULT1A2</text></g><g id="d94ce" class="GeneProduct " transform="translate(12,12)"  name="SULT1A1" ><rect   width="80" height="20"/><text   transform="translate(40,10)"    >SULT1A1</text></g></g></g><g id="b7000" class="GroupComplex" transform="translate(317.5 448)"  ><g class="GroupComplex"><use class="Icon" width="104" height="64" fill="#b4b464" fill-opacity=".1" stroke="grey" href="#Octagon"/><g id="c541c" class="GeneProduct " transform="translate(12,12)"  name="NAT1" ><rect   width="80" height="20"/><text   transform="translate(40,10)"    >NAT1</text></g><g id="d55e5" class="GeneProduct " transform="translate(12,32)"  name="NAT2" ><rect   width="80" height="20"/><text   transform="translate(40,10)"    >NAT2</text></g></g></g><g id="c6a15" class="GroupComplex" transform="translate(319.96 62.65)"  ><g class="GroupComplex"><use class="Icon" width="104" height="64" fill="#b4b464" fill-opacity=".1" stroke="grey" href="#Octagon"/><g id="c0e47" class="GeneProduct " transform="translate(12,12)"  name="NAT1" ><rect   width="80" height="20"/><text   transform="translate(40,10)"    >NAT1</text></g><g id="fc98b" class="GeneProduct " transform="translate(12,32)"  name="NAT2" ><rect   width="80" height="20"/><text   transform="translate(40,10)"    >NAT2</text></g></g></g><g id="f035a" class="GroupComplex" transform="translate(118,112)"  ><g class="GroupComplex"><use class="Icon" width="104" height="64" fill="#b4b464" fill-opacity=".1" stroke="grey" href="#Octagon"/><g id="a042b" class="GeneProduct " transform="translate(12,32)"  name="UGT1A9" ><rect   width="80" height="20"/><text   transform="translate(40,10)"    >UGT1A9</text></g><g id="a1f59" class="GeneProduct " transform="translate(12,12)"  name="UGT1A4" ><rect   width="80" height="20"/><text   transform="translate(40,10)"    >UGT1A4</text></g></g></g></g></g></g></svg>