<?xml version="1.0" encoding="UTF-8"?>
<svg xmlns="http://www.w3.org/2000/svg" id="-svg" class="Diagram"  baseProfile="full" prefix="schema:http://schema.org/" preserveAspectRatio="xMidYMid"  version="1.1"><defs><g id="icon-defs"><symbol id="Octagon" class=" Icon Octagon" x="0" y="0" overflow="visible" preserveAspectRatio="none" viewBox="0 0 100 100"><desc>Octagon</desc><path d="m0 25 25-25h50l25 25v50l-25 25h-50l-25-25z" vector-effect="non-scaling-stroke"/></symbol></g><g id="marker-defs"><marker id="markerstartarrow000" markerHeight="12" markerWidth="12" orient="auto" preserveAspectRatio="none" refY="6" viewBox="0 0 12 12"><g id="g-markerstartarrow000" transform="rotate(180 6 6)"><g transform="rotate(180 6 6)"><rect y="5.4" width="2" height="1.2" style="stroke:#fff"/><polygon points="12 11 0 6 12 1" stroke-width="0"/></g></g></marker><marker id="memconversion000" markerHeight="12" markerWidth="12" orient="auto" preserveAspectRatio="none" refX="12" refY="6" viewBox="0 0 12 12"><g id="g-memconversion000" transform=""><g transform="rotate(180 6 6)"><rect y="5.4" width="2" height="1.2" style="stroke:#fff"/><polygon points="12 11 0 6 12 1" stroke-width="0"/></g></g></marker><marker id="mea" markerHeight="12" markerWidth="12" orient="auto" preserveAspectRatio="none" refX="12" refY="6" viewBox="0 0 12 12"><g id="g-mea" transform=""><g transform="rotate(180 6 6)"><rect y="5.4" width="2" height="1.2" style="stroke:#fff"/><polygon points="12 11 0 6 12 1" stroke-width="0"/></g></g></marker><marker id="markerendtbar000" markerHeight="20" markerWidth="10" orient="auto" preserveAspectRatio="none" refX="10" refY="10" viewBox="0 0 10 20"><g id="g-markerendtbar000" transform=""><g transform="rotate(180 5 10)"><rect y="9" width="8" height="2" style="stroke:none"/><line x="0" y="0" width="12" height="12" x1="7" x2="7" y2="20" stroke="#000" stroke-width="1.8"/></g></g></marker><marker id="memcatalysis000" markerHeight="12" markerWidth="12" orient="auto" preserveAspectRatio="none" refX="12" refY="6" viewBox="0 0 12 12"><g id="g-memcatalysis000" transform=""><g transform="rotate(180 6 6)"><circle cx="6" cy="6" r="5.3px" fill="#fff" stroke="#000"/></g></g></marker></g></defs><g id="viewport-20220102145550190" class="svg-pan-zoom_viewport" transform="matrix(0.75 0 0 0.75 104.47 0)" style="transform:matrix(0.75, 0, 0, 0.75, 104.47, 0)"><style>svg.Diagram {font-family: 'Liberation Sans', Arial, sans-serif; }.Diagram path {fill: transparent;stroke: #000;marker-end: url(#mea);}.Diagram symbol path {fill: inherit;stroke: inherit;stroke-width: inherit;marker-end: inherit;}.Diagram rect {fill: #fff;stroke: #000;}.Diagram text {dominant-baseline: central;overflow: hidden;text-anchor: middle;fill: #000;font-size: 10px;}</style><style type="text/css">.Viewport .textContent {
  pointer-events: none;
  stroke-width: 0px;
}

					.Viewport.Icon {
  fill: white;
}

/* Hide the InfoBox */
.Viewport.textContent {
  font-size: 0;
}

.textContent {
  stroke: none;
}

.DataNode {
  stroke-miterlimit: 1;
  pointer-events: auto;
}

.DataNode:hover {
  cursor: pointer;
}

/* TODO should this apply to things other than DataNodes? */
.DataNode.textContent {
  pointer-events: none;
}

.DataNode.Highlighted {
  opacity: 0.6;
  stroke-width: 0px;
}

marker {
  /* this is what should work per the spec
  stroke-dasharray: none; */
  /* but I need to add this to make it work in Safari */
  stroke-dasharray: 9999999999999999999999999;
}

.Citation.Icon {
  fill: none;
  stroke-width: 0px;
}

.Citation.textContent {
  text-align: center;
  vertical-align: top;
  font-size: 7px;
  fill: #999;
  fill-opacity: 1;
  stroke: none;
}</style><g id="WP697" class="Pathway http___identifiers_org_pw_PW_0000780 Viewport"  name="Name: Estrogen metabolism Last Modified: 2/22/2013 Organism: Homo sapiens" ><g class="Pathway http___identifiers_org_pw_PW_0000780 Viewport"><rect   width="1328.4" height="957.06" style="stroke:none"/><g id="a13a5" class="Edge"  ><path    d="m906.43 144.68h96" style="marker-end:url(#memconversion000)"/></g><g id="a192f" class="Edge"  ><path    d="m566.18 576.68 143.25-95"/><g id="b4387" class="AB" transform="translate(634.04 531.68)"  ><g class="AB"/></g></g><g id="a6789" class="Edge"  ><path    d="m578.43 78.68 0.5-39" style="marker-end:url(#memconversion000)"/><g id="e4f33" class="AB" transform="translate(578.63 63.08)"  ><g class="AB"/></g></g><g id="aa0f6" class="Edge"  ><path    d="m364.43 266.68v88h168" style="marker-end:url(#memconversion000)"/><g id="f6284" class="AB" transform="translate(437.69 354.68)"  ><g class="AB"/></g></g><g id="ac27c" class="Edge"  ><path    d="m578.93 134.68-0.5-36" style="marker-end:url(#memconversion000)"/><g id="a446c" class="AB" transform="translate(578.73 120.28)"  ><g class="AB"/></g></g><g id="af9a7" class="Edge"  ><path    d="m535.93 832.68-0.70 74.39" style="marker-end:url(#memconversion000)"/><g id="cad77" class="AB" transform="translate(535.58 869.74)"  ><g class="AB"/></g></g><g id="b458d" class="Edge"  ><path    d="m578.93 154.68v48" style="marker-end:url(#memconversion000)"/><g id="ed2cd" class="AB" transform="translate(578.93 180.68)"  ><g class="AB"/></g></g><g id="b6ea6" class="Edge"  ><path    d="m1035.2 344.68-2e-13 -3.33c2e-13 -3.33 2e-13 -10-71.92-13.33-71.92-3.33-215.75-3.33-287.67 0-71.92 3.33-71.92 10-71.92 13.33v3.33"/><g id="e92cd" class="AB" transform="translate(849.36 325.6)"  ><g class="AB"/></g></g><g id="b740d" class="Edge"  ><path    d="m625.43 144.68h150" style="marker-end:url(#memconversion000)"/></g><g id="b75f6" class="Edge"  ><path    d="m325.43 576.68v-69h-83.75v-30" style="marker-end:url(#memconversion000)"/><g id="c5917" class="AB" transform="translate(241.68 495.58)"  ><g class="AB"/></g></g><g id="b835b" class="Edge"  ><path    d="m579.43 279.68v-30" style="marker-end:url(#memconversion000)"/><g id="a959a" class="AB" transform="translate(579.43 267.68)"  ><g class="AB"/></g></g><g id="b87f2" class="Edge"  ><path    d="m895.43 108.68-1e-13 6c0 6 0 18 18.67 24s56 6 74.67 0c18.67-6 18.67-18 18.67-24l2e-13 -6"/></g><g id="b88f5" class="Edge"  ><path    d="m385.43 586.68h102" style="marker-end:url(#memconversion000)"/><g id="b1115" class="AB" transform="translate(397.43 586.68)"  ><g class="AB"/></g></g><g id="b964e" class="Edge"  ><path    d="m344.43 246.68v-122" style="marker-end:url(#memconversion000)"/><g id="ad5f8" class="AB" transform="translate(344.43 172.37)"  ><g class="AB"/></g></g><g id="addff" class="Edge"  ><path    d="m309.43 171.68 35 0.69" style="marker-end:url(#memcatalysis000)"/></g><g id="bbb74" class="Edge"  ><path    d="m918.43 822.68h86" style="marker-end:url(#memconversion000)"/></g><g id="bd867" class="Edge"  ><path    d="m324.43 246.68v-17h-84" style="marker-end:url(#memconversion000)"/><g id="a31c2" class="AB" transform="translate(289.3 229.68)"  ><g class="AB"/></g></g><g id="bf0c0" class="Edge"  ><path    d="m665.43 62.68-86.8 0.4" style="marker-end:url(#memcatalysis000)"/></g><g id="c0c85" class="Edge"  ><path    d="m579.93 364.68-0.5 35" style="marker-end:url(#memconversion000)"/><g id="fd06d" class="AB" transform="translate(579.73 378.68)"  ><g class="AB"/></g></g><g id="c0f9d" class="Edge"  ><path    d="m1133.4 354.68h75" stroke-dasharray="5,3"/></g><g id="c26cf" class="Edge"  ><path    d="m528.43 119.68 50.3 0.6" style="marker-end:url(#memcatalysis000)"/></g><g id="c2de4" class="Edge"  ><path    d="m539.93 576.68-0.5-32"/><g id="d4019" class="AB" transform="translate(539.68 560.66)"  ><g class="AB"/></g></g><g id="c1387" class="Edge"  ><path    d="m509.43 559.68 30.25 0.98" style="marker-end:url(#memcatalysis000)"/></g><g id="c4984" class="Edge"  ><path    d="m720.43 233.68v20h-141v14" style="marker-end:url(#memcatalysis000)"/></g><g id="c58bf" class="Edge"  ><path    d="m903.43 865.68v-7.33c-1e-13 -7.33-1e-13 -22 18.67-29.33 18.67-7.33 56-7.33 74.67-1e-13 18.67 7.33 18.67 22 18.67 29.33l1e-13 7.33"/></g><g id="c9718" class="Edge"  ><path    d="m916.43 586.68h84" style="marker-end:url(#memconversion000)"/></g><g id="c9c94" class="Edge"  ><path    d="m566.18 596.68 150.75 84" style="marker-end:url(#memconversion000)"/><g id="e2b2e" class="AB" transform="translate(661.62 649.86)"  ><g class="AB"/></g></g><g id="cae6b" class="Edge"  ><path    d="m561.18 812.68 140.25-87" style="marker-end:url(#memconversion000)"/><g id="a763f" class="AB" transform="translate(627.62 771.47)"  ><g class="AB"/></g></g><g id="c6cac" class="Edge"  ><path    d="m674.43 770.68-46.82 0.79" style="marker-end:url(#memcatalysis000)"/></g><g id="ccc8e" class="Edge"  ><path    d="m344.43 266.68 1 310" marker-start="url(#markerstartarrow000)" style="marker-end:url(#memconversion000)"/></g><g id="cd1af" class="Edge"  ><path    d="m592.43 586.68h189" style="marker-end:url(#memconversion000)"/></g><g id="ce904" class="Edge"  ><path    d="m539.43 524.68 0.5-82" style="marker-end:url(#memconversion000)"/><g id="e8be5" class="AB" transform="translate(539.68 484.68)"  ><g class="AB"/></g></g><g id="d0591" class="Edge"  ><path    d="m539.93 596.68v84" style="marker-end:url(#memconversion000)"/><g id="e319d" class="AB" transform="translate(539.93 652.68)"  ><g class="AB"/></g></g><g id="d14a3" class="Edge"  ><path    d="m1135.4 586.68h74" stroke-dasharray="5,3"/></g><g id="d2f1e" class="Edge"  ><path    d="m535.93 812.68-0.5-26" style="marker-end:url(#memconversion000)"/><g id="d831d" class="AB" transform="translate(535.81 805.99)"  ><g class="AB"/></g></g><g id="c62ef" class="Edge"  ><path    d="m475.43 805.68 60.37 0.31" style="marker-end:url(#memcatalysis000)"/></g><g id="d39ad" class="Edge"  ><path    d="m579.93 344.68-0.5-45" style="marker-end:url(#memconversion000)"/><g id="f075b" class="AB" transform="translate(579.69 322.8)"  ><g class="AB"/></g></g><g id="d5536" class="Edge"  ><path    d="m675.43 531.68-41.40 0.00" style="marker-end:url(#memcatalysis000)"/></g><g id="d7454" class="Edge"  ><path    d="m913.43 354.68h89" style="marker-end:url(#memconversion000)"/></g><g id="d763e" class="Edge"  ><path    d="m180.43 239.68v17h124"/><g id="e0e15" class="AB" transform="translate(187.3 256.68)"  ><g class="AB"/></g></g><g id="d9db0" class="Edge"  ><path    d="m305.43 586.68h-30.5v54" style="marker-end:url(#memconversion000)"/><g id="f9f8a" class="AB" transform="translate(274.93 605.42)"  ><g class="AB"/></g></g><g id="da314" class="Edge"  ><path    d="m264.43 467.68h61v109" style="marker-end:url(#memconversion000)"/><g id="c8dc6" class="AB" transform="translate(295.86 467.68)"  ><g class="AB"/></g></g><g id="c89c3" class="Edge"  ><path    d="m295.43 446.68 0.42 21" style="marker-end:url(#memcatalysis000)"/></g><g id="dbcde" class="Edge"  ><path    d="m1034.2 596.68v3.33c0 3.33 0 10-78 13.33-78 3.33-234 3.33-312 0s-78-10-78-13.33v-3.33"/><g id="a4852" class="AB" transform="translate(848.34 615.65)"  ><g class="AB"/></g></g><g id="d0ce0" class="Edge"  ><path    d="m847.43 688.68 0.08-72.34" style="marker-end:url(#memcatalysis000)"/></g><g id="df757" class="Edge"  ><path    d="m1133.4 144.68h76" stroke-dasharray="5,3"/></g><g id="e02d8" class="Edge"  ><path    d="m219.43 494.68 22.25 0.90" style="marker-end:url(#memcatalysis000)"/></g><g id="e0405" class="Edge"  ><path    d="m537.43 322.68 42.26 0.12" style="marker-end:url(#memcatalysis000)"/></g><g id="e134f" class="Edge"  ><path    d="m900.43 395.68v-7c-1e-13 -7-1e-13 -21 18.67-28 18.67-7 56-7 74.67 0 18.67 7 18.67 21 18.67 28l1e-13 7"/></g><g id="e1681" class="Edge"  ><path    d="m324.43 266.68-176 104" style="marker-end:url(#memconversion000)"/><g id="fab0c" class="AB" transform="translate(240.24 316.43)"  ><g class="AB"/></g></g><g id="ba1be" class="Edge"  ><path    d="m269.43 340.68v-20h-29.19v-4.25" style="marker-end:url(#memcatalysis000)"/></g><g id="e1883" class="Edge"  ><path    d="m586.43 822.68h197" style="marker-end:url(#memconversion000)"/></g><g id="e77c5" class="Edge"  ><path    d="m324.43 266.68-14 131" style="marker-end:url(#memconversion000)"/><g id="b4b28" class="AB" transform="translate(319.1 316.55)"  ><g class="AB"/></g></g><g id="c6f4c" class="Edge"  ><path    d="m269.43 340.68v-24.13h49.67" style="marker-end:url(#memcatalysis000)"/></g><g id="e813d" class="Edge"  ><path    d="m1139.4 822.68h79" stroke-dasharray="5,3"/></g><g id="e99b7" class="Edge"  ><path    d="m288.43 209.68 0.86 20" style="marker-end:url(#memcatalysis000)"/></g><g id="ebcfb" class="Edge"  ><path    d="m1035.2 154.68-2e-13 3.33c2e-13 3.33 2e-13 10-72.17 13.33-72.17 3.33-216.5 3.33-288.67 0-72.17-3.33-72.17-10-72.17-13.33v-3.33"/><g id="b80eb" class="AB" transform="translate(849.38 173.75)"  ><g class="AB"/></g></g><g id="bc4ab" class="Edge"  ><path    d="m848.43 233.68 0.39-59.14" style="marker-end:url(#memcatalysis000)"/></g><g id="edcfe" class="Edge"  ><path    d="m305.43 586.68h-30.5v-50" style="marker-end:url(#memconversion000)"/><g id="b3feb" class="AB" transform="translate(274.93 559.79)"  ><g class="AB"/></g></g><g id="d12ac" class="Edge"  ><path    d="m236.43 559.68 38.5 0.11" style="marker-end:url(#memcatalysis000)"/></g><g id="ee72b" class="Edge"  ><path    d="m535.43 766.68 0.5-41" style="marker-end:url(#memconversion000)"/><g id="f76e9" class="AB" transform="translate(535.7 744.68)"  ><g class="AB"/></g></g><g id="f3347" class="Edge"  ><path    d="m902.43 544.68-1e-13 7c1e-13 7 1e-13 21 18.67 28 18.67 7 56 7 74.67 0 18.67-7 18.67-21 18.67-28v-7"/></g><g id="f48c0" class="Edge"  ><path    d="m848.43 253.68 0.38 71.14" style="marker-end:url(#memcatalysis000)"/></g><g id="f4b42" class="Edge"  ><path    d="m345.43 596.68v226h140" style="marker-end:url(#memconversion000)"/><g id="eb841" class="AB" transform="translate(345.43 739.9)"  ><g class="AB"/></g></g><g id="d8875" class="Edge"  ><path    d="m304.43 739.68 41 0.22" style="marker-end:url(#memcatalysis000)"/></g><g id="f7947" class="Edge"  ><path    d="m627.43 354.68h155" style="marker-end:url(#memconversion000)"/></g><g id="f8c7d" class="Edge"  ><path    d="m1038.2 812.68-2e-13 -3.33c2e-13 -3.33 2e-13 -10-79.5-13.33-79.5-3.33-238.5-3.33-318 0-79.5 3.33-79.5 10-79.5 13.33l1e-13 3.33"/><g id="bbb96" class="AB" transform="translate(848.73 793.7)"  ><g class="AB"/></g></g><g id="f7fb4" class="Edge"  ><path    d="m847.43 708.68 0.48 84.34" style="marker-end:url(#memcatalysis000)"/></g><g id="fcb40" class="Edge"  ><path    d="m364.43 246.68v-102h168" style="marker-end:url(#memconversion000)"/><g id="a8fde" class="AB" transform="translate(437.57 144.68)"  ><g class="AB"/></g></g><g id="fd816" class="Edge"  ><path    d="m665.43 378.68h-85.7" style="marker-end:url(#memcatalysis000)"/></g><g id="fda28" class="Edge"  ><path    d="m720.43 213.68v-33h-141.5" style="marker-end:url(#memcatalysis000)"/></g><g id="e3b76" class="Edge"  ><path    d="m450.43 745.18 85.27-0.50" style="marker-end:url(#memcatalysis000)"/></g><g id="c9119" class="Edge"  ><path    d="m242.43 604.68 32.5 0.74" style="marker-end:url(#memcatalysis000)"/></g><g id="a482f" class="Edge"  ><path    d="m1067.9 596.68v20h148.5v117" style="marker-end:url(#markerendtbar000)"/></g><g id="b25cf" class="Edge"  ><path    d="m188.43 270.68-1.13-14" style="marker-end:url(#memcatalysis000)"/></g><g id="fea57" class="Edge"  ><path    d="m736.43 649.68-74.81 0.18" style="marker-end:url(#memcatalysis000)"/></g><g id="e917a" class="Edge"  ><path    d="m500.43 484.68 39.24 0.00" style="marker-end:url(#memcatalysis000)"/></g><g id="aa545" class="Edge"  ><path    d="m397.43 446.68 6e-14 140" style="marker-end:url(#memcatalysis000)"/></g><g id="d07a2" class="Edge"  ><path    d="m437.43 225.68 0.14-81" style="marker-end:url(#memcatalysis000)"/></g><g id="f3d18" class="Edge"  ><path    d="m437.43 288.68 0.25 66" style="marker-end:url(#memcatalysis000)"/></g><g id="c5f71" class="Edge"  ><path    d="m457.43 652.68h82.5" style="marker-end:url(#memcatalysis000)"/></g><g id="c8eca" class="Edge"  ><path    d="m705.43 872.68-169.85-2.93" style="marker-end:url(#memcatalysis000)"/></g><g id="b4bb4" class="Label" transform="translate(1209.4 576.68)"  name="DNA adducts" ><g class="Label"/><text   transform="translate(40,10)"    >DNA adducts</text></g><g id="b66c6" class="Label" transform="translate(1209.4 134.68)"  name="DNA adducts" ><g class="Label"/><text   transform="translate(40,10)"    >DNA adducts</text></g><g id="c1376" class="Label" transform="translate(1208.4 344.68)"  name="DNA adducts" ><g class="Label"/><text   transform="translate(40,10)"    >DNA adducts</text></g><g id="c2bf5" class="Label" transform="translate(1218.4 812.68)"  name="DNA adducts" ><g class="Label"/><text   transform="translate(40,10)"    >DNA adducts</text></g><g id="a02aa" class="Metabolite " transform="translate(532.43 344.68)"  name="2-Hydroxyestrone" ><rect   width="95" height="20" style="stroke:#00f"/><text   transform="translate(47.5,10)"     style="fill:#00f">2-Hydroxyestrone</text></g><g id="a08d8" class="GeneProduct " transform="translate(429.43 549.68)"  name="COMT" ><rect   width="80" height="20"/><text   transform="translate(40,10)"    >COMT</text></g><g id="a1c3d" class="Metabolite " transform="translate(304.43 246.68)"  name="Estrone" ><rect   width="80" height="20" style="stroke:#00f"/><text   transform="translate(40,10)"     style="fill:#00f">Estrone</text></g><g id="a5224" class="Metabolite" transform="translate(485.43 812.68)"  name="4-hydroxyestradiol" ><rect   width="101" height="20" style="stroke:#00f"/><text   transform="translate(50.5,10)"     style="fill:#00f">4-hydroxyestradiol</text></g><g id="a52bd" class="GeneProduct " transform="translate(248.43 189.68)"  name="SULT1E1" ><rect   width="80" height="20"/><text   transform="translate(40,10)"    >SULT1E1</text></g><g id="a66b3" class="GeneProduct " transform="translate(448.43 109.68)"  name="COMT" ><rect   width="80" height="20"/><text   transform="translate(40,10)"    >COMT</text></g><g id="a8c52" class="Metabolite" transform="translate(449.43 705.68)"  name="4-Methoxyestradiol-3-glucuronide" ><rect   width="173" height="20" style="stroke:#00f"/><text   transform="translate(86.5,10)"     style="fill:#00f">4-Methoxyestradiol-3-glucuronide</text></g><g id="a9b82" class="GeneProduct " transform="translate(675.43 521.68)"  name="SULT1A1" ><rect   width="80" height="20"/><text   transform="translate(40,10)"    >SULT1A1</text></g><g id="accb8" class="Metabolite " transform="translate(453.43 422.68)"  name="2-Methoxyestradiol-3-glucuronide" ><rect   width="173" height="20" style="stroke:#00f"/><text   transform="translate(86.5,10)"     style="fill:#00f">2-Methoxyestradiol-3-glucuronide</text></g><g id="b1f8b" class="Metabolite " transform="translate(487.43 576.68)"  name="2-Hydroxyestradiol" ><rect   width="105" height="20" style="stroke:#00f"/><text   transform="translate(52.5,10)"     style="fill:#00f">2-Hydroxyestradiol</text></g><g id="b4a78" class="Metabolite" transform="translate(173.43 457.68)"  name="Estradiol sulfate" ><rect   width="91" height="20" style="stroke:#00f"/><text   transform="translate(45.5,10)"     style="fill:#00f">Estradiol sulfate</text></g><g id="b4ce2" class="Metabolite " transform="translate(160.43 219.68)"  name="Estrone sulfate" ><rect   width="80" height="20" style="stroke:#00f"/><text   transform="translate(40,10)"     style="fill:#00f">Estrone sulfate</text></g><g id="b4e39" class="Metabolite" transform="translate(457.43 680.68)"  name="2-hydroxyestradiol-3-glucuronide" ><rect   width="165" height="20" style="stroke:#00f"/><text   transform="translate(82.5,10)"     style="fill:#00f">2-hydroxyestradiol-3-glucuronide</text></g><g id="b5b9e" class="GeneProduct " transform="translate(808.43 233.68)"  name="NQO1" ><rect   width="80" height="20"/><text   transform="translate(40,10)"    >NQO1</text></g><g id="b67d1" class="Metabolite " transform="translate(862.43 524.68)"  name="Oxygen" ><rect   width="80" height="20" style="stroke:#00f"/><text   transform="translate(40,10)"     style="fill:#00f">Oxygen</text></g><g id="b8a91" class="Metabolite " transform="translate(863.43 865.68)"  name="Oxygen" ><rect   width="80" height="20" style="stroke:#00f"/><text   transform="translate(40,10)"     style="fill:#00f">Oxygen</text></g><g id="b9e27" class="GeneProduct " transform="translate(665.43 368.68)"  name="UGT1A1" ><rect   width="80" height="20"/><text   transform="translate(40,10)"    >UGT1A1</text></g><g id="ba9ff" class="Metabolite " transform="translate(305.43 576.68)"  name="ESTRADIOL" ><rect   width="80" height="20" style="stroke:#00f"/><text   transform="translate(40,10)"     style="fill:#00f">ESTRADIOL</text></g><g id="bb324" class="GeneProduct " transform="translate(139.43 484.68)"  name="SULT1A1" ><rect   width="80" height="20"/><text   transform="translate(40,10)"    >SULT1A1</text></g><g id="bbc30" class="Metabolite " transform="translate(860.43 395.68)"  name="Oxygen" ><rect   width="80" height="20" style="stroke:#00f"/><text   transform="translate(40,10)"     style="fill:#00f">Oxygen</text></g><g id="bcfb5" class="Metabolite " transform="translate(855.43 88.68)"  name="Oxygen" ><rect   width="80" height="20" style="stroke:#00f"/><text   transform="translate(40,10)"     style="fill:#00f">Oxygen</text></g><g id="bff50" class="Metabolite" transform="translate(633.43 680.68)"  name="2-hydroxy-estradiol-2-glucuronide" ><rect   width="167" height="20" style="stroke:#00f"/><text   transform="translate(83.5,10)"     style="fill:#00f">2-hydroxy-estradiol-2-glucuronide</text></g><g id="c4edd" class="Metabolite" transform="translate(532.43 134.68)"  name="4-hydroxyestrone" ><rect   width="93" height="20" style="stroke:#00f"/><text   transform="translate(46.5,10)"     style="fill:#00f">4-hydroxyestrone</text></g><g id="c6219" class="Metabolite" transform="translate(1002.4 344.68)"  name="Estrone-2,3-quinone" ><rect   width="131" height="20" style="stroke:#00f"/><text   transform="translate(65.5,10)"     style="fill:#00f">Estrone-2,3-quinone</text></g><g id="c6cde" class="Metabolite " transform="translate(293.43 104.68)"  name="16a-Hydroxyestrone" ><rect   width="102" height="20" style="stroke:#00f"/><text   transform="translate(51,10)"     style="fill:#00f">16a-Hydroxyestrone</text></g><g id="c6de6" class="GeneProduct " transform="translate(395.43 795.68)"  name="COMT" ><rect   width="80" height="20"/><text   transform="translate(40,10)"    >COMT</text></g><g id="c711c" class="Metabolite " transform="translate(497.43 229.68)"  name="2-Methoxyestrone 3-glucuronide" ><rect   width="164" height="20" style="stroke:#00f"/><text   transform="translate(82,10)"     style="fill:#00f">2-Methoxyestrone 3-glucuronide</text></g><g id="c8dd7" class="Metabolite" transform="translate(783.43 812.68)"  name="Estradiol-3,4-semiquinone" ><rect   width="135" height="20" style="stroke:#00f"/><text   transform="translate(67.5,10)"     style="fill:#00f">Estradiol-3,4-semiquinone</text></g><g id="c8f50" class="Metabolite" transform="translate(499.43 399.68)"  name="2-Hydroxyestrone-3-glucuronide" ><rect   width="160" height="20" style="stroke:#00f"/><text   transform="translate(80,10)"     style="fill:#00f">2-Hydroxyestrone-3-glucuronide</text></g><g id="c952c" class="Metabolite " transform="translate(498.43 202.68)"  name="4-hydroxyestrone-3-glucuronide" ><rect   width="161" height="20" style="stroke:#00f"/><text   transform="translate(80.5,10)"     style="fill:#00f">4-hydroxyestrone-3-glucuronide</text></g><g id="ca198" class="Metabolite" transform="translate(782.43 344.68)"  name="Estrone-2,3-semiquinone" ><rect   width="131" height="20" style="stroke:#00f"/><text   transform="translate(65.5,10)"     style="fill:#00f">Estrone-2,3-semiquinone</text></g><g id="cb978" class="Metabolite " transform="translate(183.43 640.68)"  name="Estradiol-3-glucuronide" ><rect   width="122" height="20" style="stroke:#00f"/><text   transform="translate(61,10)"     style="fill:#00f">Estradiol-3-glucuronide</text></g><g id="ccb38" class="Metabolite " transform="translate(967.43 88.68)"  name="Superoxide" ><rect   width="80" height="20" style="stroke:#00f"/><text   transform="translate(40,10)"     style="fill:#00f">Superoxide</text></g><g id="d1985" class="GeneProduct " transform="translate(665.43 52.68)"  name="UGT1A8" ><rect   width="80" height="20"/><text   transform="translate(40,10)"    >UGT1A8</text></g><g id="d1c07" class="GeneProduct " transform="translate(457.43 312.68)"  name="COMT" ><rect   width="80" height="20"/><text   transform="translate(40,10)"    >COMT</text></g><g id="d2893" class="GeneProduct " transform="translate(229.43 340.68)"  name="UGT1A8" ><rect   width="80" height="20"/><text   transform="translate(40,10)"    >UGT1A8</text></g><g id="d314c" class="Metabolite " transform="translate(496.43 19.68)"  name="4-Methoxyestrone-3-glucuronide" ><rect   width="165" height="20" style="stroke:#00f"/><text   transform="translate(82.5,10)"     style="fill:#00f">4-Methoxyestrone-3-glucuronide</text></g><g id="d5d62" class="Metabolite " transform="translate(975.43 865.68)"  name="Superoxide" ><rect   width="80" height="20" style="stroke:#00f"/><text   transform="translate(40,10)"     style="fill:#00f">Superoxide</text></g><g id="dceef" class="GeneProduct " transform="translate(229.43 161.68)"  name="CYP3A4" ><rect   width="80" height="20"/><text   transform="translate(40,10)"    >CYP3A4</text></g><g id="dcf13" class="Metabolite " transform="translate(489.43 524.68)"  name="2-Methoxyestradiol" ><rect   width="100" height="20" style="stroke:#00f"/><text   transform="translate(50,10)"     style="fill:#00f">2-Methoxyestradiol</text></g><g id="ddd79" class="Metabolite" transform="translate(641.43 461.68)"  name="2-hydroxy-estradiol-sulfate" ><rect   width="136" height="20" style="stroke:#00f"/><text   transform="translate(68,10)"     style="fill:#00f">2-hydroxy-estradiol-sulfate</text></g><g id="e0929" class="Metabolite " transform="translate(1004.4 812.68)"  name="Estradiol-3,4-quinone" ><rect   width="135" height="20" style="stroke:#00f"/><text   transform="translate(67.5,10)"     style="fill:#00f">Estradiol-3,4-quinone</text></g><g id="e16e9" class="Metabolite " transform="translate(974.43 524.68)"  name="Superoxide" ><rect   width="80" height="20" style="stroke:#00f"/><text   transform="translate(40,10)"     style="fill:#00f">Superoxide</text></g><g id="e31ce" class="Metabolite" transform="translate(781.43 576.68)"  name="Estradiol-2,3-semiquinone" ><rect   width="135" height="20" style="stroke:#00f"/><text   transform="translate(67.5,10)"     style="fill:#00f">Estradiol-2,3-semiquinone</text></g><g id="e3953" class="Metabolite" transform="translate(183.43 516.68)"  name="Estradiol-17-glucuronide" ><rect   width="122" height="20" style="stroke:#00f"/><text   transform="translate(61,10)"     style="fill:#00f">Estradiol-17-glucuronide</text></g><g id="e3dfa" class="GeneProduct " transform="translate(680.43 213.68)"  name="UGT1A8" ><rect   width="80" height="20"/><text   transform="translate(40,10)"    >UGT1A8</text></g><g id="e8b90" class="Metabolite " transform="translate(220.43 397.68)"  name="Estrone-17-glucuronide" ><rect   width="120" height="20" style="stroke:#00f"/><text   transform="translate(60,10)"     style="fill:#00f">Estrone-17-glucuronide</text></g><g id="ead6b" class="GeneProduct " transform="translate(255.43 426.68)"  name="ARSC" ><rect   width="80" height="20"/><text   transform="translate(40,10)"    >ARSC</text></g><g id="eb843" class="Metabolite" transform="translate(775.43 134.68)"  name="Estrone-3,4-semiquinone" ><rect   width="131" height="20" style="stroke:#00f"/><text   transform="translate(65.5,10)"     style="fill:#00f">Estrone-3,4-semiquinone</text></g><g id="ec8e7" class="Metabolite" transform="translate(453.23 907.06)"  name="4-hydroxy-estradiol-4-glucuronide" ><rect   width="164" height="20" style="stroke:#00f"/><text   transform="translate(82,10)"     style="fill:#00f">4-hydroxy-estradiol-4-glucuronide</text></g><g id="eeee5" class="Metabolite " transform="translate(1000.4 576.68)"  name="Estradiol-2,3-quinone" ><rect   width="135" height="20" style="stroke:#00f"/><text   transform="translate(67.5,10)"     style="fill:#00f">Estradiol-2,3-quinone</text></g><g id="f0843" class="Metabolite" transform="translate(633.43 705.68)"  name="4-hydroxy-estradiol-sulfate" ><rect   width="136" height="20" style="stroke:#00f"/><text   transform="translate(68,10)"     style="fill:#00f">4-hydroxy-estradiol-sulfate</text></g><g id="f152e" class="Metabolite " transform="translate(485.43 766.68)"  name="4-Methoxyestradiol" ><rect   width="100" height="20" style="stroke:#00f"/><text   transform="translate(50,10)"     style="fill:#00f">4-Methoxyestradiol</text></g><g id="f1c4c" class="GeneProduct " transform="translate(807.43 688.68)"  name="NQO1" ><rect   width="80" height="20"/><text   transform="translate(40,10)"    >NQO1</text></g><g id="f1ddd" class="Metabolite " transform="translate(118.43 370.68)"  name="Estrone-3-glucuronide" ><rect   width="120" height="20" style="stroke:#00f"/><text   transform="translate(60,10)"     style="fill:#00f">Estrone-3-glucuronide</text></g><g id="f9647" class="GeneProduct " transform="translate(156.43 549.68)"  name="UGT2B7" ><rect   width="80" height="20"/><text   transform="translate(40,10)"    >UGT2B7</text></g><g id="fa8d0" class="GeneProduct " transform="translate(674.43 760.68)"  name="SULT1A1" ><rect   width="80" height="20"/><text   transform="translate(40,10)"    >SULT1A1</text></g><g id="fac11" class="Metabolite " transform="translate(972.43 395.68)"  name="Superoxide" ><rect   width="80" height="20" style="stroke:#00f"/><text   transform="translate(40,10)"     style="fill:#00f">Superoxide</text></g><g id="fbd2c" class="Metabolite " transform="translate(530.43 279.68)"  name="2-Methoxyestrone" ><rect   width="98" height="20" style="stroke:#00f"/><text   transform="translate(49,10)"     style="fill:#00f">2-Methoxyestrone</text></g><g id="fcdea" class="Metabolite" transform="translate(530.43 78.68)"  name="4-Methoxyestrone" ><rect   width="96" height="20" style="stroke:#00f"/><text   transform="translate(48,10)"     style="fill:#00f">4-Methoxyestrone</text></g><g id="ff145" class="Metabolite" transform="translate(1002.4 134.68)"  name="Estrone-3,4-quinone" ><rect   width="131" height="20" style="stroke:#00f"/><text   transform="translate(65.5,10)"     style="fill:#00f">Estrone-3,4-quinone</text></g><g id="ffa4f" class="GeneProduct " transform="translate(224.43 729.68)"  name="CYP1B1" ><rect   width="80" height="20"/><text   transform="translate(40,10)"    >CYP1B1</text></g><g id="a61f9" class="GroupComplex" transform="translate(346.43 713.68)"  ><g class="GroupComplex"><use class="Icon" width="104" height="63" fill="#b4b464" fill-opacity=".1" stroke="grey" href="#Octagon"/><g id="ddc29" class="GeneProduct " transform="translate(12,12)"  name="UGT1A1" ><rect   width="80" height="20"/><text   transform="translate(40,10)"    >UGT1A1</text></g><g id="e3a57" class="GeneProduct " transform="translate(12,31)"  name="UGT1A8" ><rect   width="80" height="20"/><text   transform="translate(40,10)"    >UGT1A8</text></g></g></g><g id="abaee" class="GroupComplex" transform="translate(138.43 572.68)"  ><g class="GroupComplex"><use class="Icon" width="104" height="64" fill="#b4b464" fill-opacity=".1" stroke="grey" href="#Octagon"/><g id="a71a8" class="GeneProduct " transform="translate(12,32)"  name="UGT1A8" ><rect   width="80" height="20"/><text   transform="translate(40,10)"    >UGT1A8</text></g><g id="cff4d" class="GeneProduct " transform="translate(12,12)"  name="UGT1A1" ><rect   width="80" height="20"/><text   transform="translate(40,10)"    >UGT1A1</text></g></g></g><g id="b828c" class="GroupComplex" transform="translate(1164.4 733.68)"  ><g class="GroupComplex"><use class="Icon" width="104" height="64" fill="#b4b464" fill-opacity=".1" stroke="grey" href="#Octagon"/><g id="da5b9" class="GeneProduct " transform="translate(12,12)"  name="GSTA1" ><rect   width="80" height="20"/><text   transform="translate(40,10)"    >GSTA1</text></g><g id="e8fd9" class="GeneProduct " transform="translate(12,32)"  name="GSTM1" ><rect   width="80" height="20"/><text   transform="translate(40,10)"    >GSTM1</text></g></g></g><g id="ba831" class="GroupComplex" transform="translate(110.43 270.68)"  ><g class="GroupComplex"><use class="Icon" width="104" height="64" fill="#b4b464" fill-opacity=".1" stroke="grey" href="#Octagon"/><g id="acfb8" class="GeneProduct " transform="translate(12,32)"  name="ARSE" ><rect   width="80" height="20"/><text   transform="translate(40,10)"    >ARSE</text></g><g id="f6c06" class="GeneProduct " transform="translate(12,12)"  name="ARSD" ><rect   width="80" height="20"/><text   transform="translate(40,10)"    >ARSD</text></g></g></g><g id="c460e" class="GroupComplex" transform="translate(736.43 617.68)"  ><g class="GroupComplex"><use class="Icon" width="104" height="64" fill="#b4b464" fill-opacity=".1" stroke="grey" href="#Octagon"/><g id="a0acf" class="GeneProduct " transform="translate(12,32)"  name="UGT1A8" ><rect   width="80" height="20"/><text   transform="translate(40,10)"    >UGT1A8</text></g><g id="a3c7e" class="GeneProduct " transform="translate(12,12)"  name="UGT1A1" ><rect   width="80" height="20"/><text   transform="translate(40,10)"    >UGT1A1</text></g></g></g><g id="e606f" class="GroupComplex" transform="translate(396.43 442.68)"  ><g class="GroupComplex"><use class="Icon" width="104" height="84" fill="#b4b464" fill-opacity=".1" stroke="grey" href="#Octagon"/><g id="a3ced" class="GeneProduct " transform="translate(12,12)"  name="UGT1A1" ><rect   width="80" height="20"/><text   transform="translate(40,10)"    >UGT1A1</text></g><g id="ce733" class="GeneProduct " transform="translate(12,52)"  name="UGT1A8" ><rect   width="80" height="20"/><text   transform="translate(40,10)"    >UGT1A8</text></g><g id="e8421" class="GeneProduct " transform="translate(12,32)"  name="UGT1A3" ><rect   width="80" height="20"/><text   transform="translate(40,10)"    >UGT1A3</text></g></g></g><g id="eca69" class="GroupComplex" transform="translate(345.43 362.68)"  ><g class="GroupComplex"><use class="Icon" width="104" height="84" fill="#b4b464" fill-opacity=".1" stroke="grey" href="#Octagon"/><g id="a1522" class="GeneProduct " transform="translate(12,32)"  name="CYP1A2" ><rect   width="80" height="20"/><text   transform="translate(40,10)"    >CYP1A2</text></g><g id="b6fe2" class="GeneProduct " transform="translate(12,52)"  name="CYP3A4" ><rect   width="80" height="20"/><text   transform="translate(40,10)"    >CYP3A4</text></g><g id="bab8d" class="GeneProduct " transform="translate(12,12)"  name="CYP1A1" ><rect   width="80" height="20"/><text   transform="translate(40,10)"    >CYP1A1</text></g></g></g><g id="f3564" class="GroupComplex" transform="translate(385.43 225.68)"  ><g class="GroupComplex"><use class="Icon" width="104" height="63" fill="#b4b464" fill-opacity=".1" stroke="grey" href="#Octagon"/><g id="d5254" class="GeneProduct " transform="translate(12,31)"  name="CYP1A2" ><rect   width="80" height="20"/><text   transform="translate(40,10)"    >CYP1A2</text></g><g id="ec856" class="GeneProduct " transform="translate(12,12)"  name="CYP1A1" ><rect   width="80" height="20"/><text   transform="translate(40,10)"    >CYP1A1</text></g></g></g><g id="fb236" class="GroupComplex" transform="translate(353.43 600.68)"  ><g class="GroupComplex"><use class="Icon" width="104" height="104" fill="#b4b464" fill-opacity=".1" stroke="grey" href="#Octagon"/><g id="c0644" class="GeneProduct " transform="translate(12,72)"  name="UGT2B7" ><rect   width="80" height="20"/><text   transform="translate(40,10)"    >UGT2B7</text></g><g id="c13d1" class="GeneProduct " transform="translate(12,32)"  name="UGT1A8" ><rect   width="80" height="20"/><text   transform="translate(40,10)"    >UGT1A8</text></g><g id="d2274" class="GeneProduct " transform="translate(12,52)"  name="UGT1A9" ><rect   width="80" height="20"/><text   transform="translate(40,10)"    >UGT1A9</text></g><g id="f783c" class="GeneProduct " transform="translate(12,12)"  name="UGT1A1" ><rect   width="80" height="20"/><text   transform="translate(40,10)"    >UGT1A1</text></g></g></g><g id="fb6fe" class="GroupComplex" transform="translate(705.43 830.68)"  ><g class="GroupComplex"><use class="Icon" width="104" height="84" fill="#b4b464" fill-opacity=".1" stroke="grey" href="#Octagon"/><g id="b58ec" class="GeneProduct " transform="translate(12,12)"  name="UGT1A8" ><rect   width="80" height="20"/><text   transform="translate(40,10)"    >UGT1A8</text></g><g id="ca584" class="GeneProduct " transform="translate(12,32)"  name="UGT1A9" ><rect   width="80" height="20"/><text   transform="translate(40,10)"    >UGT1A9</text></g><g id="db398" class="GeneProduct " transform="translate(12,52)"  name="UGT2B7" ><rect   width="80" height="20"/><text   transform="translate(40,10)"    >UGT2B7</text></g></g></g></g></g></g></svg>