<?xml version="1.0" encoding="UTF-8"?>
<!--
  WikiPathways page: https://www.wikipathways.org/index.php/Pathway:WP698
  URL for this compressed file: https://github.com/eweitz/cachome/tree/main/data/WP698.svg
  Source code for compression: https://github.com/eweitz/cachome/tree/main/src/wikipathways.py
-->
<svg id="wp698-svg" class="Diagram" width="800" height="600" color="black" baseProfile="full" prefix="schema:http://schema.org/" preserveAspectRatio="xMidYMid" version="1.1" viewBox="0 0 1352 444" vocab="http://vocabularies.wikipathways.org/wp#" xmlns="http://www.w3.org/2000/svg" xmlns:xlink="http://www.w3.org/1999/xlink"><style>svg {font-family: 'Liberation Sans', Arial, sans-serif; }</style><defs><g id="jit-defs"><filter id="kaavioblackto000000filter" x="0" y="0" width="1352" height="444" filterUnits="userSpaceOnUse"><feColorMatrix in="SourceGraphic" values="-1   0   0 0 0                   0  -1   0 0 0                   0   0  -1 0 0                   0   0   0 1 0"/></filter></g><g id="jic-defs"><marker id="markerStartArrow" stroke-dasharray="99999" markerHeight="12" markerUnits="userSpaceOnUse" markerWidth="12" orient="auto" preserveAspectRatio="none" refY="6" viewBox="0 0 12 12"><path d="M12 11L0 6l12-5z" fill="currentColor" stroke-width="0"/></marker><marker id="markerEndArrow" stroke-dasharray="99999" markerHeight="12" markerUnits="userSpaceOnUse" markerWidth="12" orient="auto" preserveAspectRatio="none" refX="12" refY="6" viewBox="0 0 12 12"><path transform="rotate(180 6 6)" d="M12 11L0 6l12-5z" fill="currentColor" stroke-width="0"/></marker><marker id="markerEndMimCatalysis" stroke-dasharray="99999" markerHeight="12" markerUnits="userSpaceOnUse" markerWidth="12" orient="auto" preserveAspectRatio="none" refX="12" refY="6" viewBox="0 0 12 12"><circle transform="rotate(180 6 6)" cx="6" cy="6" r="5.3" fill="none" stroke="#000"/></marker><symbol id="none" preserveAspectRatio="none" viewBox="0 0 100 100"/></g></defs><g id="WP698" class="Viewport" color="black"  name="Name: Glucuronidation License: CC BY 2.0 Last Modified: 2/21/2013 Organism: Homo sapiens"><rect id="WP698-icon" class="Icon" width="1352" height="444" fill="#fff" stroke="#000" stroke-width="0"/><g id="b809f" class="DirectedInteraction" color="#000" ><g color="#000" fill="transparent"  filter="url(#kaavioblackto000000filter)" stroke="#000" stroke-dasharray="132.63256379100739, 5.8"><path id="b809f" class="EdgeBody" d="m1040.1 230.86 138.43-2e-14"   marker-end="url(#markerEndArrow)" /></g><g id="fff52" class="Burr Anchor" transform="translate(1095.5 230.86)" ><use id="fff52-icon" class="Icon" width="0" height="0" fill="#141414" stroke-width="0" xlink:href="#none"/></g></g><g id="cb1e6" class="DirectedInteraction" color="#000" ><g color="#000" fill="transparent"  filter="url(#kaavioblackto000000filter)" stroke="#000" stroke-dasharray="80.2, 5.8"><path id="cb1e6" class="EdgeBody" d="m828 313h86"   marker-end="url(#markerEndArrow)" /></g><g id="dd5ef" class="Burr Anchor" transform="translate(866,313)" ><use id="dd5ef-icon" class="Icon" width="0" height="0" fill="#141414" stroke-width="0" xlink:href="#none"/></g></g><g id="b6462" class="Interaction" color="#000" ><g color="#000" fill="transparent"  filter="url(#kaavioblackto000000filter)" stroke="#000" stroke-dasharray="42, 11"><path id="b6462" class="EdgeBody" d="m866 260v53"   marker-end="url(#markerEndMimCatalysis)" /></g></g><g id="d0041" class="DirectedInteraction" color="#000" ><g color="#000" fill="transparent"  filter="url(#kaavioblackto000000filter)" stroke="#000" stroke-dasharray="255.95823756276576, 5.8"><path id="d0041" class="EdgeBody" d="m1008 303v-12c0-12 0-36 28.667-48 28.667-12 86-12 114.67 0.16667 28.667 12.167 28.667 36.5 28.667 48.667v12.167"   marker-end="url(#markerEndArrow)" /></g></g><g id="e4100" class="DirectedInteraction" color="#000" ><g color="#000" fill="transparent"  filter="url(#kaavioblackto000000filter)" stroke="#000" stroke-dasharray="0, 5.8, 61.400000000000006, 5.8"><path id="e4100" class="EdgeBody" d="m328 313h73"   marker-end="url(#markerEndArrow)" marker-start="url(#markerStartArrow)" /></g><g id="dcece" class="Burr Anchor" transform="translate(361,313)" ><use id="dcece-icon" class="Icon" width="0" height="0" fill="#141414" stroke-width="0" xlink:href="#none"/></g></g><g id="e80c3" class="DirectedInteraction" color="#000" ><g color="#000" fill="transparent"  filter="url(#kaavioblackto000000filter)" stroke="#000" stroke-dasharray="149.2, 5.8"><path id="e80c3" class="EdgeBody" d="m518 313h155"   marker-end="url(#markerEndArrow)" /></g><g id="e3f2c" class="Burr Anchor" transform="translate(609,313)" ><use id="e3f2c-icon" class="Icon" width="0" height="0" fill="#141414" stroke-width="0" xlink:href="#none"/></g></g><g id="e8383" class="Interaction" color="#000" ><g color="#000" fill="transparent"  filter="url(#kaavioblackto000000filter)" stroke="#000" stroke-dasharray="45, 11"><path id="e8383" class="EdgeBody" d="m609 257v56"   marker-end="url(#markerEndMimCatalysis)" /></g></g><g id="fdfa1" class="DirectedInteraction" color="#000" ><g color="#000" fill="transparent"  filter="url(#kaavioblackto000000filter)" stroke="#000" stroke-dasharray="135.35881474806948, 5.8"><path id="fdfa1" class="EdgeBody" d="m120.75 349v-6c0-6 0-18 16.333-24 16.333-6 49-6 65.333 0 16.333 6 16.333 18 16.333 24l6e-14 6"   marker-end="url(#markerEndArrow)" /></g><g id="bdc58" class="Burr Anchor" transform="translate(170.11 314.5)" ><use id="bdc58-icon" class="Icon" width="0" height="0" fill="#141414" stroke-width="0" xlink:href="#none"/></g></g><g id="fdb12" class="Interaction" color="#000" ><g color="#000" fill="transparent"  filter="url(#kaavioblackto000000filter)" stroke="#000" stroke-dasharray="39.012976274197435, 11"><path id="fdb12" class="EdgeBody" d="m170 263 0.095039 50.013"   marker-end="url(#markerEndMimCatalysis)" /></g></g><g id="fe12b" class="DirectedInteraction" color="#000" ><g color="#000" fill="transparent"  filter="url(#kaavioblackto000000filter)" stroke="#000" stroke-dasharray="84.2, 5.8"><path id="fe12b" class="EdgeBody" d="m129 313h90"   marker-end="url(#markerEndArrow)" /></g></g><g id="d2dc1" class="DirectedInteraction" color="#000" ><g color="#000" fill="transparent"  filter="url(#kaavioblackto000000filter)" stroke="#000" stroke-dasharray="204.95535242455557, 5.8"><path id="d2dc1" class="EdgeBody" d="m536.5 374-1e-13 -10c1e-13 -10 1e-13 -30 23.75-40 23.75-10 71.25-10 95-1.3333 23.75 8.6667 23.75 26 23.75 34.667l1e-13 8.6667"   marker-end="url(#markerEndArrow)" /></g></g><g id="c878d" class="Interaction" color="#000" ><g color="#000" fill="transparent"  filter="url(#kaavioblackto000000filter)" stroke="#000" stroke-dasharray="33, 11"><path id="c878d" class="EdgeBody" d="m361 269v44"   marker-end="url(#markerEndMimCatalysis)" /></g></g><g id="a2286" class="DirectedInteraction" color="#000" ><g color="#000" fill="transparent"  filter="url(#kaavioblackto000000filter)" stroke="#000" stroke-dasharray="122.3699686560076, 5.8"><path id="a2286" class="EdgeBody" d="m817 339-1e-13 -4.1667c1e-13 -4.1667 1e-13 -12.5 16.833-16.667 16.833-4.1667 50.5-4.1667 67.333 0 16.833 4.1667 16.833 12.5 16.833 16.667v4.1667"   marker-end="url(#markerEndArrow)" /></g></g><g id="c2722" class="Interaction" color="#000" ><g color="#000" fill="transparent"  filter="url(#kaavioblackto000000filter)" stroke="#000" stroke-dasharray="41.86518421882429, 11"><path id="c2722" class="EdgeBody" d="m1095 178 0.51276 52.863"   marker-end="url(#markerEndMimCatalysis)" /></g></g><g id="cfd83" class="Label" transform="translate(1178.6 218.36)" color="#00ff33"  name="substrate-glucoronide"><use id="cfd83-icon" class="Icon" width="143.42041312272147" height="25" fill="transparent"  stroke="#00ff33" stroke-width="0" xlink:href="#none"/><text id="cfd83-text" class="Text" transform="translate(71.71 16.5)" fill="#00ff33"  font-size="12px" stroke="black" stroke-width="0" text-anchor="middle"><tspan x="0" y="0">substrate-glucoronide</tspan></text></g><g id="ec183" class="Label" transform="translate(950.14 218.36)" color="#00ff33"  name="substrate"><use id="ec183-icon" class="Icon" width="90" height="25" fill="transparent"  stroke="#00ff33" stroke-width="0" xlink:href="#none"/><text id="ec183-text" class="Text" transform="translate(45,16.5)" fill="#00ff33"  font-size="12px" stroke="black" stroke-width="0" text-anchor="middle"><tspan x="0" y="0">substrate</tspan></text></g><a id="a1606" class="Metabolite ChEBI_CHEBI_17985  " transform="translate(182,349)" color="#00f"  name="Adenosine 3',5'-diphosphate"  ><rect id="a1606-icon" class="Icon" transform="matrix(.99324 0 0 .95238 .49662 .47619)" width="147" height="20" fill="#fff" stroke="#00f"/><text id="a1606-text" class="Text" transform="translate(73.5,13)" fill="#00f"  font-size="10px" stroke="white" stroke-width="0" text-anchor="middle"><tspan x="0" y="0">Adenosine 3',5'-diphosphate</tspan></text></a><a  id="a3bc0" class="GeneProduct UGP2 " transform="translate(569,237)"   name="UGP2"  ><rect id="a3bc0-icon" class="Icon" transform="matrix(.98765 0 0 .95238 .49383 .47619)" width="80" height="20" fill="#fff" stroke="#000"/><text id="a3bc0-text" class="Text" transform="translate(40,13)" fill="#000"  font-size="10px" stroke="white" stroke-width="0" text-anchor="middle"><tspan x="0" y="0">UGP2</tspan></text></a><a id="a447b" class="Metabolite ChEBI_CHEBI_4170  " transform="translate(219,303)" color="#00f"  name="Glucose 6-phosphate"  ><rect id="a447b-icon" class="Icon" transform="matrix(.99091 0 0 .95238 .49545 .47619)" width="109" height="20" fill="#fff" stroke="#00f"/><text id="a447b-text" class="Text" transform="translate(54.5,13)" fill="#00f"  font-size="10px" stroke="white" stroke-width="0" text-anchor="middle"><tspan x="0" y="0">Glucose 6-phosphate</tspan></text></a><a id="b59d0" class="Metabolite ChEBI_CHEBI_17659  " transform="translate(1125,304)" color="#00f"  name="Uridine 5'-diphosphate"  ><rect id="b59d0-icon" class="Icon" transform="matrix(.99099 0 0 .95238 .4955 .47619)" width="110" height="20" fill="#fff" stroke="#00f"/><text id="b59d0-text" class="Text" transform="translate(55,13)" fill="#00f"  font-size="10px" stroke="white" stroke-width="0" text-anchor="middle"><tspan x="0" y="0">Uridine 5'-diphosphate</tspan></text></a><a id="d080f" class="Metabolite ChEBI_CHEBI_15422  " transform="translate(27,349)" color="#00f"  name="Adenosine triphosphate"  ><rect id="d080f-icon" class="Icon" transform="matrix(.99206 0 0 .95238 .49603 .47619)" width="125" height="20" fill="#fff" stroke="#00f"/><text id="d080f-text" class="Text" transform="translate(62.5,13)" fill="#00f"  font-size="10px" stroke="white" stroke-width="0" text-anchor="middle"><tspan x="0" y="0">Adenosine triphosphate</tspan></text></a><a  id="d8b8b" class="GeneProduct HK1 " transform="translate(130,243)"   name="HK1"  ><rect id="d8b8b-icon" class="Icon" transform="matrix(.98765 0 0 .95238 .49383 .47619)" width="80" height="20" fill="#fff" stroke="#000"/><text id="d8b8b-text" class="Text" transform="translate(40,13)" fill="#000"  font-size="10px" stroke="white" stroke-width="0" text-anchor="middle"><tspan x="0" y="0">HK1</tspan></text></a><a id="de94b" class="Metabolite ChEBI_CHEBI_46229  " transform="translate(673,303)" color="#00f"  name="Uridine diphosphate glucose"  ><rect id="de94b-icon" class="Icon" transform="matrix(.99359 0 0 .95238 .49679 .47619)" width="155" height="20" fill="#fff" stroke="#00f"/><text id="de94b-text" class="Text" transform="translate(77.5,13)" fill="#00f"  font-size="10px" stroke="white" stroke-width="0" text-anchor="middle"><tspan x="0" y="0">Uridine diphosphate glucose</tspan></text></a><a  id="df17e" class="GeneProduct UGDH " transform="translate(826,240)"   name="UGDH"  ><rect id="df17e-icon" class="Icon" transform="matrix(.98765 0 0 .95238 .49383 .47619)" width="80" height="20" fill="#fff" stroke="#000"/><text id="df17e-text" class="Text" transform="translate(40,13)" fill="#000"  font-size="10px" stroke="white" stroke-width="0" text-anchor="middle"><tspan x="0" y="0">UGDH</tspan></text></a><a id="e163e" class="Metabolite ChEBI_CHEBI_29042  " transform="translate(401,303)" color="#00f"  name="Glucose 1-phosphate"  ><rect id="e163e-icon" class="Icon" transform="matrix(.99153 0 0 .95238 .49576 .47619)" width="117" height="20" fill="#fff" stroke="#00f"/><text id="e163e-text" class="Text" transform="translate(58.5,13)" fill="#00f"  font-size="10px" stroke="white" stroke-width="0" text-anchor="middle"><tspan x="0" y="0">Glucose 1-phosphate</tspan></text></a><a id="e3ca0" class="Metabolite ChEBI_CHEBI_17200  " transform="translate(914,303)" color="#00f"  name="Uridine diphosphate glucuronic acid"  ><rect id="e3ca0-icon" class="Icon" transform="matrix(.99471 0 0 .95238 .49735 .47619)" width="188" height="20" fill="#fff" stroke="#00f"/><text id="e3ca0-text" class="Text" transform="translate(94,13)" fill="#00f"  font-size="10px" stroke="white" stroke-width="0" text-anchor="middle"><tspan x="0" y="0">Uridine diphosphate glucuronic acid</tspan></text></a><a id="e6ea3" class="Metabolite ChEBI_CHEBI_15713  " transform="translate(479,374)" color="#00f"  name="Uridine triphosphate"  ><rect id="e6ea3-icon" class="Icon" transform="matrix(.99138 0 0 .95238 .49569 .47619)" width="115" height="20" fill="#fff" stroke="#00f"/><text id="e6ea3-text" class="Text" transform="translate(57.5,13)" fill="#00f"  font-size="10px" stroke="white" stroke-width="0" text-anchor="middle"><tspan x="0" y="0">Uridine triphosphate</tspan></text></a><a id="ea706" class="Metabolite ChEBI_CHEBI_15903  " transform="translate(49,303)" color="#00f"  name="D-Glucose"  ><rect id="ea706-icon" class="Icon" transform="matrix(.98765 0 0 .95238 .49383 .47619)" width="80" height="20" fill="#fff" stroke="#00f"/><text id="ea706-text" class="Text" transform="translate(40,13)" fill="#00f"  font-size="10px" stroke="white" stroke-width="0" text-anchor="middle"><tspan x="0" y="0">D-Glucose</tspan></text></a><g id="b5420" class="GroupGroup" transform="translate(631,366)" color="grey" ><use id="b5420-icon" class="Icon" width="96" height="56" fill="transparent"  stroke="grey" stroke-dasharray="5,3" stroke-width="0" xlink:href="#none"/><a id="ded2e" class="Metabolite ChEBI_CHEBI_26078  " transform="translate(8,8)" color="#00f"  name="Phosphate"  ><rect id="ded2e-icon" class="Icon" transform="matrix(.98765 0 0 .95238 .49383 .47619)" width="80" height="20" fill="#fff" stroke="#00f"/><text id="ded2e-text" class="Text" transform="translate(40,13)" fill="#00f"  font-size="10px" stroke="white" stroke-width="0" text-anchor="middle"><tspan x="0" y="0">Phosphate</tspan></text></a><a id="e6301" class="Metabolite ChEBI_CHEBI_26078  " transform="translate(8,28)" color="#00f"  name="Phosphate"  ><rect id="e6301-icon" class="Icon" transform="matrix(.98765 0 0 .95238 .49383 .47619)" width="80" height="20" fill="#fff" stroke="#00f"/><text id="e6301-text" class="Text" transform="translate(40,13)" fill="#00f"  font-size="10px" stroke="white" stroke-width="0" text-anchor="middle"><tspan x="0" y="0">Phosphate</tspan></text></a></g><g id="b7eb7" class="GroupGroup" transform="translate(870,339)" color="grey" ><use id="b7eb7-icon" class="Icon" width="96" height="56" fill="transparent"  stroke="grey" stroke-dasharray="5,3" stroke-width="0" xlink:href="#none"/><a id="a2da4" class="ChEBI_CHEBI_15378 Metabolite  " transform="translate(8,28)" color="#00f"  name="2H+"  ><rect id="a2da4-icon" class="Icon" transform="matrix(.98765 0 0 .95238 .49383 .47619)" width="80" height="20" fill="#fff" stroke="#00f"/><text id="a2da4-text" class="Text" transform="translate(40,13)" fill="#00f"  font-size="10px" stroke="white" stroke-width="0" text-anchor="middle"><tspan x="0" y="0">2H+</tspan></text></a><a id="d3ce9" class="Metabolite ChEBI_CHEBI_16908  " transform="translate(8,8)" color="#00f"  name="NADH"  ><rect id="d3ce9-icon" class="Icon" transform="matrix(.98765 0 0 .95238 .49383 .47619)" width="80" height="20" fill="#fff" stroke="#00f"/><text id="d3ce9-text" class="Text" transform="translate(40,13)" fill="#00f"  font-size="10px" stroke="white" stroke-width="0" text-anchor="middle"><tspan x="0" y="0">NADH</tspan></text></a></g><g id="bb315" class="GroupNone" transform="translate(272,212)" color="grey" ><rect id="bb315-icon" class="Icon" transform="matrix(.99441 0 0 .98305 .49721 .49153)" width="178" height="58" fill="#b4b464" fill-opacity=".1" stroke="grey" stroke-dasharray="5,3"/><a  id="b0426" class="GeneProduct PGM3 " transform="translate(9,29)"   name="PGM3"  ><rect id="b0426-icon" class="Icon" transform="matrix(.98765 0 0 .95238 .49383 .47619)" width="80" height="20" fill="#fff" stroke="#000"/><text id="b0426-text" class="Text" transform="translate(40,13)" fill="#000"  font-size="10px" stroke="white" stroke-width="0" text-anchor="middle"><tspan x="0" y="0">PGM3</tspan></text></a><a  id="b2ab0" class="GeneProduct PGM5 " transform="translate(89,29)"   name="PGM5"  ><rect id="b2ab0-icon" class="Icon" transform="matrix(.98765 0 0 .95238 .49383 .47619)" width="80" height="20" fill="#fff" stroke="#000"/><text id="b2ab0-text" class="Text" transform="translate(40,13)" fill="#000"  font-size="10px" stroke="white" stroke-width="0" text-anchor="middle"><tspan x="0" y="0">PGM5</tspan></text></a><a  id="b2d4e" class="GeneProduct PGM2 " transform="translate(89,9)"   name="PGM2"  ><rect id="b2d4e-icon" class="Icon" transform="matrix(.98765 0 0 .95238 .49383 .47619)" width="80" height="20" fill="#fff" stroke="#000"/><text id="b2d4e-text" class="Text" transform="translate(40,13)" fill="#000"  font-size="10px" stroke="white" stroke-width="0" text-anchor="middle"><tspan x="0" y="0">PGM2</tspan></text></a><a  id="fcaec" class="GeneProduct PGM1 " transform="translate(9,9)"   name="PGM1"  ><rect id="fcaec-icon" class="Icon" transform="matrix(.98765 0 0 .95238 .49383 .47619)" width="80" height="20" fill="#fff" stroke="#000"/><text id="fcaec-text" class="Text" transform="translate(40,13)" fill="#000"  font-size="10px" stroke="white" stroke-width="0" text-anchor="middle"><tspan x="0" y="0">PGM1</tspan></text></a></g><g id="d3a66" class="GroupGroup" transform="translate(769,339)" color="grey" ><use id="d3a66-icon" class="Icon" width="96" height="56" fill="transparent"  stroke="grey" stroke-dasharray="5,3" stroke-width="0" xlink:href="#none"/><a id="c9360" class="Metabolite ChEBI_CHEBI_44215  " transform="translate(8,8)" color="#00f"  name="NAD"  ><rect id="c9360-icon" class="Icon" transform="matrix(.98765 0 0 .95238 .49383 .47619)" width="80" height="20" fill="#fff" stroke="#00f"/><text id="c9360-text" class="Text" transform="translate(40,13)" fill="#00f"  font-size="10px" stroke="white" stroke-width="0" text-anchor="middle"><tspan x="0" y="0">NAD</tspan></text></a><a id="ce760" class="Metabolite ChEBI_CHEBI_15377  " transform="translate(8,28)" color="#00f"  name="Water"  ><rect id="ce760-icon" class="Icon" transform="matrix(.98765 0 0 .95238 .49383 .47619)" width="80" height="20" fill="#fff" stroke="#00f"/><text id="ce760-text" class="Text" transform="translate(40,13)" fill="#00f"  font-size="10px" stroke="white" stroke-width="0" text-anchor="middle"><tspan x="0" y="0">Water</tspan></text></a></g><g id="f7880" class="GroupNone" transform="translate(966,21)" color="grey" ><rect id="f7880-icon" class="Icon" transform="matrix(.99614 0 0 .99371 .49807 .49686)" width="258" height="158" fill="#b4b464" fill-opacity=".1" stroke="grey" stroke-dasharray="5,3"/><a  id="d5e95" class="GeneProduct UGT2B17 " transform="translate(169,109)"   name="UGT2B17"  ><rect id="d5e95-icon" class="Icon" transform="matrix(.98765 0 0 .95238 .49383 .47619)" width="80" height="20" fill="#fff" stroke="#000"/><text id="d5e95-text" class="Text" transform="translate(40,13)" fill="#000"  font-size="10px" stroke="white" stroke-width="0" text-anchor="middle"><tspan x="0" y="0">UGT2B17</tspan></text></a><a  id="ef639" class="GeneProduct UGT1A4 " transform="translate(169,9)"   name="UGT1A4"  ><rect id="ef639-icon" class="Icon" transform="matrix(.98765 0 0 .95238 .49383 .47619)" width="80" height="20" fill="#fff" stroke="#000"/><text id="ef639-text" class="Text" transform="translate(40,13)" fill="#000"  font-size="10px" stroke="white" stroke-width="0" text-anchor="middle"><tspan x="0" y="0">UGT1A4</tspan></text></a><a  id="ec7ad" class="GeneProduct UGT1A8 " transform="translate(9,49)"   name="UGT1A8"  ><rect id="ec7ad-icon" class="Icon" transform="matrix(.98765 0 0 .95238 .49383 .47619)" width="80" height="20" fill="#fff" stroke="#000"/><text id="ec7ad-text" class="Text" transform="translate(40,13)" fill="#000"  font-size="10px" stroke="white" stroke-width="0" text-anchor="middle"><tspan x="0" y="0">UGT1A8</tspan></text></a><a  id="d9490" class="GeneProduct UGT2A3 " transform="translate(169,69)"   name="UGT2A3"  ><rect id="d9490-icon" class="Icon" transform="matrix(.98765 0 0 .95238 .49383 .47619)" width="80" height="20" fill="#fff" stroke="#000"/><text id="d9490-text" class="Text" transform="translate(40,13)" fill="#000"  font-size="10px" stroke="white" stroke-width="0" text-anchor="middle"><tspan x="0" y="0">UGT2A3</tspan></text></a><a  id="f7048" class="GeneProduct UGT1A6 " transform="translate(89,29)"   name="UGT1A6"  ><rect id="f7048-icon" class="Icon" transform="matrix(.98765 0 0 .95238 .49383 .47619)" width="80" height="20" fill="#fff" stroke="#000"/><text id="f7048-text" class="Text" transform="translate(40,13)" fill="#000"  font-size="10px" stroke="white" stroke-width="0" text-anchor="middle"><tspan x="0" y="0">UGT1A6</tspan></text></a><a  id="a64db" class="GeneProduct UGT2B15 " transform="translate(89,109)"   name="UGT2B15"  ><rect id="a64db-icon" class="Icon" transform="matrix(.98765 0 0 .95238 .49383 .47619)" width="80" height="20" fill="#fff" stroke="#000"/><text id="a64db-text" class="Text" transform="translate(40,13)" fill="#000"  font-size="10px" stroke="white" stroke-width="0" text-anchor="middle"><tspan x="0" y="0">UGT2B15</tspan></text></a><a  id="c17ed" class="GeneProduct UGT2B4 " transform="translate(9,89)"   name="UGT2B4"  ><rect id="c17ed-icon" class="Icon" transform="matrix(.98765 0 0 .95238 .49383 .47619)" width="80" height="20" fill="#fff" stroke="#000"/><text id="c17ed-text" class="Text" transform="translate(40,13)" fill="#000"  font-size="10px" stroke="white" stroke-width="0" text-anchor="middle"><tspan x="0" y="0">UGT2B4</tspan></text></a><a  id="ce709" class="GeneProduct UGT2B10 " transform="translate(169,89)"   name="UGT2B10"  ><rect id="ce709-icon" class="Icon" transform="matrix(.98765 0 0 .95238 .49383 .47619)" width="80" height="20" fill="#fff" stroke="#000"/><text id="ce709-text" class="Text" transform="translate(40,13)" fill="#000"  font-size="10px" stroke="white" stroke-width="0" text-anchor="middle"><tspan x="0" y="0">UGT2B10</tspan></text></a><a  id="c6e77" class="GeneProduct UGT1A10 " transform="translate(169,49)"   name="UGT1A10"  ><rect id="c6e77-icon" class="Icon" transform="matrix(.98765 0 0 .95238 .49383 .47619)" width="80" height="20" fill="#fff" stroke="#000"/><text id="c6e77-text" class="Text" transform="translate(40,13)" fill="#000"  font-size="10px" stroke="white" stroke-width="0" text-anchor="middle"><tspan x="0" y="0">UGT1A10</tspan></text></a><a  id="d8b16" class="GeneProduct UGT1A5 " transform="translate(9,29)"   name="UGT1A5"  ><rect id="d8b16-icon" class="Icon" transform="matrix(.98765 0 0 .95238 .49383 .47619)" width="80" height="20" fill="#fff" stroke="#000"/><text id="d8b16-text" class="Text" transform="translate(40,13)" fill="#000"  font-size="10px" stroke="white" stroke-width="0" text-anchor="middle"><tspan x="0" y="0">UGT1A5</tspan></text></a><a  id="b8b3c" class="GeneProduct UGT2A1 " transform="translate(9,69)"   name="UGT2A1"  ><rect id="b8b3c-icon" class="Icon" transform="matrix(.98765 0 0 .95238 .49383 .47619)" width="80" height="20" fill="#fff" stroke="#000"/><text id="b8b3c-text" class="Text" transform="translate(40,13)" fill="#000"  font-size="10px" stroke="white" stroke-width="0" text-anchor="middle"><tspan x="0" y="0">UGT2A1</tspan></text></a><a  id="c16b8" class="GeneProduct UGT1A1 " transform="translate(9,9)"   name="UGT1A1"  ><rect id="c16b8-icon" class="Icon" transform="matrix(.98765 0 0 .95238 .49383 .47619)" width="80" height="20" fill="#fff" stroke="#000"/><text id="c16b8-text" class="Text" transform="translate(40,13)" fill="#000"  font-size="10px" stroke="white" stroke-width="0" text-anchor="middle"><tspan x="0" y="0">UGT1A1</tspan></text></a><a  id="ba9f5" class="GeneProduct UGT1A9 " transform="translate(89,49)"   name="UGT1A9"  ><rect id="ba9f5-icon" class="Icon" transform="matrix(.98765 0 0 .95238 .49383 .47619)" width="80" height="20" fill="#fff" stroke="#000"/><text id="ba9f5-text" class="Text" transform="translate(40,13)" fill="#000"  font-size="10px" stroke="white" stroke-width="0" text-anchor="middle"><tspan x="0" y="0">UGT1A9</tspan></text></a><a  id="fc5ba" class="GeneProduct UGT2B28 " transform="translate(9,129)"   name="UGT2B28"  ><rect id="fc5ba-icon" class="Icon" transform="matrix(.98765 0 0 .95238 .49383 .47619)" width="80" height="20" fill="#fff" stroke="#000"/><text id="fc5ba-text" class="Text" transform="translate(40,13)" fill="#000"  font-size="10px" stroke="white" stroke-width="0" text-anchor="middle"><tspan x="0" y="0">UGT2B28</tspan></text></a><a  id="acf7d" class="GeneProduct UGT2A2 " transform="translate(89,69)"   name="UGT2A2"  ><rect id="acf7d-icon" class="Icon" transform="matrix(.98765 0 0 .95238 .49383 .47619)" width="80" height="20" fill="#fff" stroke="#000"/><text id="acf7d-text" class="Text" transform="translate(40,13)" fill="#000"  font-size="10px" stroke="white" stroke-width="0" text-anchor="middle"><tspan x="0" y="0">UGT2A2</tspan></text></a><a  id="b97e1" class="GeneProduct UGT2B7 " transform="translate(89,89)"   name="UGT2B7"  ><rect id="b97e1-icon" class="Icon" transform="matrix(.98765 0 0 .95238 .49383 .47619)" width="80" height="20" fill="#fff" stroke="#000"/><text id="b97e1-text" class="Text" transform="translate(40,13)" fill="#000"  font-size="10px" stroke="white" stroke-width="0" text-anchor="middle"><tspan x="0" y="0">UGT2B7</tspan></text></a><a  id="e0f0c" class="GeneProduct UGT2B11 " transform="translate(9,109)"   name="UGT2B11"  ><rect id="e0f0c-icon" class="Icon" transform="matrix(.98765 0 0 .95238 .49383 .47619)" width="80" height="20" fill="#fff" stroke="#000"/><text id="e0f0c-text" class="Text" transform="translate(40,13)" fill="#000"  font-size="10px" stroke="white" stroke-width="0" text-anchor="middle"><tspan x="0" y="0">UGT2B11</tspan></text></a><a  id="e5009" class="GeneProduct UGT1A3 " transform="translate(89,9)"   name="UGT1A3"  ><rect id="e5009-icon" class="Icon" transform="matrix(.98765 0 0 .95238 .49383 .47619)" width="80" height="20" fill="#fff" stroke="#000"/><text id="e5009-text" class="Text" transform="translate(40,13)" fill="#000"  font-size="10px" stroke="white" stroke-width="0" text-anchor="middle"><tspan x="0" y="0">UGT1A3</tspan></text></a><a  id="f4d99" class="GeneProduct UGT1A7 " transform="translate(169,29)"   name="UGT1A7"  ><rect id="f4d99-icon" class="Icon" transform="matrix(.98765 0 0 .95238 .49383 .47619)" width="80" height="20" fill="#fff" stroke="#000"/><text id="f4d99-text" class="Text" transform="translate(40,13)" fill="#000"  font-size="10px" stroke="white" stroke-width="0" text-anchor="middle"><tspan x="0" y="0">UGT1A7</tspan></text></a></g><text id="WP698-text" class="Text" transform="translate(5,45)" dominant-baseline="central" fill="black"  font-size="12px" font-weight="bold" overflow="visible" stroke="white" stroke-width="0"><tspan x="0" y="-27">Name: Glucuronidation</tspan> <tspan x="0" y="-9">License: CC BY 2.0</tspan> <tspan x="0" y="9">Last Modified: 2/21/2013</tspan> <tspan x="0" y="27">Organism: Homo sapiens</tspan></text></g></svg>
