<?xml version="1.0" encoding="UTF-8"?>
<!--
  WikiPathways page: https://www.wikipathways.org/index.php/Pathway:WP696
  URL for this compressed file: https://github.com/eweitz/cachome/tree/main/data/WP696.svg
  Source code for compression: https://github.com/eweitz/cachome/tree/main/src/wikipathways.py
-->
<svg id="wp696-svg" class="Diagram" width="800" height="600" color="black" baseProfile="full" prefix="schema:http://schema.org/" preserveAspectRatio="xMidYMid" version="1.1" viewBox="0 0 1254 714" vocab="http://vocabularies.wikipathways.org/wp#" xmlns="http://www.w3.org/2000/svg" xmlns:xlink="http://www.w3.org/1999/xlink"><style>svg {font-family: 'Liberation Sans', Arial, sans-serif; }</style><defs><g id="jit-defs"><filter id="kaavioblackto000000filter" x="0" y="0" width="1254" height="714" filterUnits="userSpaceOnUse"><feColorMatrix in="SourceGraphic" values="-1   0   0 0 0                   0  -1   0 0 0                   0   0  -1 0 0                   0   0   0 1 0"/></filter></g><g id="jic-defs"><marker id="markerEndArrow" stroke-dasharray="99999" markerHeight="12" markerUnits="userSpaceOnUse" markerWidth="12" orient="auto" preserveAspectRatio="none" refX="12" refY="6" viewBox="0 0 12 12"><path transform="rotate(180 6 6)" d="M12 11L0 6l12-5z" fill="currentColor" stroke-width="0"/></marker><marker id="markerEndMimCatalysis" stroke-dasharray="99999" markerHeight="12" markerUnits="userSpaceOnUse" markerWidth="12" orient="auto" preserveAspectRatio="none" refX="12" refY="6" viewBox="0 0 12 12"><circle transform="rotate(180 6 6)" cx="6" cy="6" r="5.3" fill="none" stroke="#000"/></marker><symbol id="Octagon" overflow="visible" preserveAspectRatio="none" viewBox="0 0 100 100"><path d="M0 25L25 0h50l25 25v50l-25 25H25L0 75z" stroke="currentColor" vector-effect="non-scaling-stroke"/></symbol><symbol id="none" preserveAspectRatio="none" viewBox="0 0 100 100"/></g></defs><g id="WP696" class="Viewport" color="black"  name="Name: Benzo(a)pyrene metabolism Last Modified: 2/22/2013 Organism: Homo sapiens"><rect id="WP696-icon" class="Icon" width="1254" height="714" fill="#fff" stroke="#000" stroke-width="0"/><g id="a23db" class="DirectedInteraction" color="#000" ><g color="#000" fill="transparent"  filter="url(#kaavioblackto000000filter)" stroke="#000" stroke-dasharray="279.7, 5.8"><path id="a23db" class="EdgeBody" d="m857.5 188v74h211.5"   marker-end="url(#markerEndArrow)" /></g><g id="bb0ed" class="Burr Anchor" transform="translate(974.71 262)" ><use id="bb0ed-icon" class="Icon" width="0" height="0" fill="#141414" stroke-width="0" xlink:href="#none"/></g></g><g id="ec580" class="Edge GraphicalLine DirectedInteraction" color="#000" ><g color="#000" fill="transparent"  filter="url(#kaavioblackto000000filter)" stroke="#000" stroke-dasharray="5.7, 3.42, 5.7, 3.42, 5.7, 3.42, 5.7, 3.42, 5.7, 5.8"><path id="ec580" class="EdgeBody" d="m613 631 33.772 34.043"   marker-end="url(#markerEndArrow)" /></g></g><g id="f402f" class="Edge GraphicalLine DirectedInteraction" color="#000" ><g color="#000" fill="transparent"  filter="url(#kaavioblackto000000filter)" stroke="#000" stroke-dasharray="6, 3.6, 6, 3.6, 6, 3.6, 6, 3.6, 0, 5.8"><path id="f402f" class="EdgeBody" d="m324 632-30.456 28.171"   marker-end="url(#markerEndArrow)" /></g></g><g id="aa851" class="DirectedInteraction" color="#000" ><g color="#000" fill="transparent"  filter="url(#kaavioblackto000000filter)" stroke="#000" stroke-dasharray="302.60602095573546, 5.8"><path id="aa851" class="EdgeBody" d="m492 81v3.3333c0 3.3333 0 10 40.5 13.333 40.5 3.3333 121.5 3.3333 162 19 40.5 15.667 40.5 47 40.5 62.667v15.667"   marker-end="url(#markerEndArrow)" /></g></g><g id="aae88" class="DirectedInteraction" color="#000" ><g color="#000" fill="transparent"  filter="url(#kaavioblackto000000filter)" stroke="#000" stroke-dasharray="193.58723603292572, 5.8"><path id="aae88" class="EdgeBody" d="m469 519-1e-13 3.3333c4e-14 3.3333 4e-14 10-23.75 13.333-23.75 3.3333-71.25 3.3333-95 15.5-23.75 12.167-23.75 36.5-23.75 48.667v12.167"   marker-end="url(#markerEndArrow)" /></g><g id="d421a" class="Burr Anchor" transform="translate(389.16 541.13)" ><use id="d421a-icon" class="Icon" width="0" height="0" fill="#141414" stroke-width="0" xlink:href="#none"/></g></g><g id="b08b9" class="DirectedInteraction" color="#000" ><g color="#000" fill="transparent"  filter="url(#kaavioblackto000000filter)" stroke="#000" stroke-dasharray="62.2, 5.8"><path id="b08b9" class="EdgeBody" d="m209.5 250v68"   marker-end="url(#markerEndArrow)" /></g></g><g id="b09a9" class="Interaction" color="#000" ><g color="#000" fill="transparent"  filter="url(#kaavioblackto000000filter)" stroke="#000" stroke-dasharray="9.012681796284383, 11"><path id="b09a9" class="EdgeBody" d="m974 282 0.71234-20"   marker-end="url(#markerEndMimCatalysis)" /></g></g><g id="b1425" class="Interaction" color="#000" ><g color="#000" fill="transparent"  filter="url(#kaavioblackto000000filter)" stroke="#000" stroke-dasharray="90.29921093585138, 11"><path id="b1425" class="EdgeBody" d="m288 539 101.3 0.44018"   marker-end="url(#markerEndMimCatalysis)" /></g></g><g id="b680d" class="DirectedInteraction" color="#000" ><g color="#000" fill="transparent"  filter="url(#kaavioblackto000000filter)" stroke="#000" stroke-dasharray="193.83585039811445, 5.8"><path id="b680d" class="EdgeBody" d="m492 81v2.8333c0 2.8333 0 8.5 24.833 11.333 24.833 2.8333 74.5 2.8333 99.333 14.167 24.833 11.333 24.833 34 24.833 45.333v11.333"   marker-end="url(#markerEndArrow)" /></g><g id="a8457" class="Burr Anchor" transform="translate(559.38 98.433)" ><use id="a8457-icon" class="Icon" width="0" height="0" fill="#141414" stroke-width="0" xlink:href="#none"/></g></g><g id="bf0bc" class="DirectedInteraction" color="#000" ><g color="#000" fill="transparent"  filter="url(#kaavioblackto000000filter)" stroke="#000" stroke-dasharray="217.1704697265586, 5.8"><path id="bf0bc" class="EdgeBody" d="m538 338 17.167-6e-14c17.167 6e-14 51.5 6e-14 68.667-25.333 17.167-25.333 17.167-76 17.167-101.33v-25.333"   marker-end="url(#markerEndArrow)" /></g></g><g id="c3980" class="DirectedInteraction" color="#000" ><g color="#000" fill="transparent"  filter="url(#kaavioblackto000000filter)" stroke="#000" stroke-dasharray="30.203472054789383, 5.8"><path id="c3980" class="EdgeBody" d="m209 194 0.5 36"   marker-end="url(#markerEndArrow)" /></g></g><g id="d3137" class="DirectedInteraction" color="#000" ><g color="#000" fill="transparent"  filter="url(#kaavioblackto000000filter)" stroke="#000" stroke-dasharray="241.20050607235603, 5.8"><path id="d3137" class="EdgeBody" d="m469 81 0.5 247"   marker-end="url(#markerEndArrow)" /></g><g id="fe091" class="Burr Anchor" transform="translate(469.37 264.1)" ><use id="fe091-icon" class="Icon" width="0" height="0" fill="#141414" stroke-width="0" xlink:href="#none"/></g></g><g id="d3bbf" class="DirectedInteraction" color="#000" ><g color="#000" fill="transparent"  filter="url(#kaavioblackto000000filter)" stroke="#000" stroke-dasharray="194.27375025629266, 5.8"><path id="d3bbf" class="EdgeBody" d="m469 519-1e-13 3.3333c4e-14 3.3333 4e-14 10 23.583 13.333 23.583 3.3333 70.75 3.3333 94.333 15.833 23.583 12.5 23.583 37.5 23.583 50v12.5"   marker-end="url(#markerEndArrow)" /></g><g id="f2bdd" class="Burr Anchor" transform="translate(539.56 540.12)" ><use id="f2bdd-icon" class="Icon" width="0" height="0" fill="#141414" stroke-width="0" xlink:href="#none"/></g></g><g id="d4d95" class="DirectedInteraction" color="#000" ><g color="#000" fill="transparent"  filter="url(#kaavioblackto000000filter)" stroke="#000" stroke-dasharray="366.132072743368, 5.8"><path id="d4d95" class="EdgeBody" d="m492 81v3.5c0 3.5 0 10.5 55 14s165 3.5 220 14.5 55 33 55 44v11"   marker-end="url(#markerEndArrow)" /></g></g><g id="dcac1" class="DirectedInteraction" color="#000" ><g color="#000" fill="transparent"  filter="url(#kaavioblackto000000filter)" stroke="#000" stroke-dasharray="278.9571365186401, 5.8"><path id="dcac1" class="EdgeBody" d="m446 81-6e-14 7.6667c6e-14 7.6667 6e-14 23-39.5 30.667-39.5 7.6667-118.5 7.6667-158 15.5-39.5 7.8333-39.5 23.5-39.5 31.333l6e-14 7.8333"   marker-end="url(#markerEndArrow)" /></g><g id="ac21a" class="Burr Anchor" transform="translate(333.9 126.6)" ><use id="ac21a-icon" class="Icon" width="0" height="0" fill="#141414" stroke-width="0" xlink:href="#none"/></g></g><g id="a667f" class="Interaction" color="#000" ><g color="#000" fill="transparent"  filter="url(#kaavioblackto000000filter)" stroke="#000" stroke-dasharray="41.17092068662122, 11"><path id="a667f" class="EdgeBody" d="m287.34 102.86 46.312 24.021"   marker-end="url(#markerEndMimCatalysis)" /></g></g><g id="de12e" class="DirectedInteraction" color="#000" ><g color="#000" fill="transparent"  filter="url(#kaavioblackto000000filter)" stroke="#000" stroke-dasharray="274.54496170556666, 5.8"><path id="de12e" class="EdgeBody" d="m538 338 32.833-6e-14c32.833 6e-14 98.5 6e-14 131.33-20.5 32.833-20.5 32.833-61.5 32.833-82v-20.5"   marker-end="url(#markerEndArrow)" /></g></g><g id="e0d06" class="DirectedInteraction" color="#000" ><g color="#000" fill="transparent"  filter="url(#kaavioblackto000000filter)" stroke="#000" stroke-dasharray="405.7, 5.8"><path id="e0d06" class="EdgeBody" d="m770.5 215v111h300.5"   marker-end="url(#markerEndArrow)" /></g><g id="c27da" class="Burr Anchor" transform="translate(974.16 326)" ><use id="c27da-icon" class="Icon" width="0" height="0" fill="#141414" stroke-width="0" xlink:href="#none"/></g></g><g id="cf18b" class="Interaction" color="#000" ><g color="#000" fill="transparent"  filter="url(#kaavioblackto000000filter)" stroke="#000" stroke-dasharray="13.000514357987154, 11"><path id="cf18b" class="EdgeBody" d="m974 302 0.15713 24"   marker-end="url(#markerEndMimCatalysis)" /></g></g><g id="eb567" class="DirectedInteraction" color="#000" ><g color="#000" fill="transparent"  filter="url(#kaavioblackto000000filter)" stroke="#000" stroke-dasharray="56.43544006432348, 5.8"><path id="eb567" class="EdgeBody" d="m174.75 250-48.5 39"   marker-end="url(#markerEndArrow)" /></g></g><g id="f2245" class="DirectedInteraction" color="#000" ><g color="#000" fill="transparent"  filter="url(#kaavioblackto000000filter)" stroke="#000" stroke-dasharray="249.2019607767752, 5.8"><path id="f2245" class="EdgeBody" d="m806 205 255-1"   marker-end="url(#markerEndArrow)" /></g><g id="b1393" class="Burr Anchor" transform="translate(966.01 204.37)" ><use id="b1393-icon" class="Icon" width="0" height="0" fill="#141414" stroke-width="0" xlink:href="#none"/></g></g><g id="aef67" class="Interaction" color="#000" ><g color="#000" fill="transparent"  filter="url(#kaavioblackto000000filter)" stroke="#000" stroke-dasharray="7.372514889246418, 11"><path id="aef67" class="EdgeBody" d="m966 186 0.009304 18.373"   marker-end="url(#markerEndMimCatalysis)" /></g></g><g id="f25b0" class="DirectedInteraction" color="#000" ><g color="#000" fill="transparent"  filter="url(#kaavioblackto000000filter)" stroke="#000" stroke-dasharray="376.2852183902312, 5.8"><path id="f25b0" class="EdgeBody" d="m538 338 47.333-6e-14c47.333 6e-14 142 6e-14 189.33-25 47.333-25 47.333-75 47.333-100v-25"   marker-end="url(#markerEndArrow)" /></g></g><g id="f2eac" class="DirectedInteraction" color="#000" ><g color="#000" fill="transparent"  filter="url(#kaavioblackto000000filter)" stroke="#000" stroke-dasharray="48.47764272700133, 5.8"><path id="f2eac" class="EdgeBody" d="M244.25,250L282,289"   marker-end="url(#markerEndArrow)" /></g></g><g id="f3e0d" class="DirectedInteraction" color="#000" ><g color="#000" fill="transparent"  filter="url(#kaavioblackto000000filter)" stroke="#000" stroke-dasharray="145.20082781230042, 5.8"><path id="f3e0d" class="EdgeBody" d="m469.5 348-0.5 151"   marker-end="url(#markerEndArrow)" /></g><g id="fe359" class="Burr Anchor" transform="translate(469.28 415.16)" ><use id="fe359-icon" class="Icon" width="0" height="0" fill="#141414" stroke-width="0" xlink:href="#none"/></g></g><g id="e568d" class="Interaction" color="#000" ><g color="#000" fill="transparent"  filter="url(#kaavioblackto000000filter)" stroke="#000" stroke-dasharray="44.722606696023206, 11"><path id="e568d" class="EdgeBody" d="m525 415-55.722 0.15885"   marker-end="url(#markerEndMimCatalysis)" /></g></g><g id="f54ba" class="DirectedInteraction" color="#000" ><g color="#000" fill="transparent"  filter="url(#kaavioblackto000000filter)" stroke="#000" stroke-dasharray="216.7, 5.8"><path id="f54ba" class="EdgeBody" d="m857.5 168v-20h202.5"   marker-end="url(#markerEndArrow)" /></g><g id="fe508" class="Burr Anchor" transform="translate(966.25 148)" ><use id="fe508-icon" class="Icon" width="0" height="0" fill="#141414" stroke-width="0" xlink:href="#none"/></g></g><g id="cad21" class="Interaction" color="#000" ><g color="#000" fill="transparent"  filter="url(#kaavioblackto000000filter)" stroke="#000" stroke-dasharray="7.001798656924855, 11"><path id="cad21" class="EdgeBody" d="m966 166 0.25447-18"   marker-end="url(#markerEndMimCatalysis)" /></g></g><g id="a76ac" class="Interaction" color="#000" ><g color="#000" fill="transparent"  filter="url(#kaavioblackto000000filter)" stroke="#000" stroke-dasharray="67.24632025356243, 11"><path id="a76ac" class="EdgeBody" d="m618 539-78.246 1.9829e-4"   marker-end="url(#markerEndMimCatalysis)" /></g></g><g id="bedfb" class="Interaction" color="#000" ><g color="#000" fill="transparent"  filter="url(#kaavioblackto000000filter)" stroke="#000" stroke-dasharray="123.0825454059484, 11"><path id="bedfb" class="EdgeBody" d="m559 232 0.44823-134.08"   marker-end="url(#markerEndMimCatalysis)" /></g></g><g id="f1d60" class="Interaction" color="#000" ><g color="#000" fill="transparent"  filter="url(#kaavioblackto000000filter)" stroke="#000" stroke-dasharray="26.629484146010675, 11"><path id="f1d60" class="EdgeBody" d="m507 264-37.629 0.09844"   marker-end="url(#markerEndMimCatalysis)" /></g></g><g id="b0787" class="Label" transform="translate(171,272)" color="#000"  name="Autoxidation"><use id="b0787-icon" class="Icon" width="80" height="20" fill="transparent"  stroke="#000" stroke-width="0" xlink:href="#none"/><text id="b0787-text" class="Text" transform="translate(40,13)" fill="#000"  font-size="10px" stroke="white" stroke-width="0" text-anchor="middle"><tspan x="0" y="0">Autoxidation</tspan></text></g><g id="b5196" class="Label" transform="translate(638,664)" color="#000"  name="DNA adducts"><use id="b5196-icon" class="Icon" width="80" height="20" fill="transparent"  stroke="#000" stroke-width="0" xlink:href="#none"/><text id="b5196-text" class="Text" transform="translate(40,13)" fill="#000"  font-size="10px" stroke="white" stroke-width="0" text-anchor="middle"><tspan x="0" y="0">DNA adducts</tspan></text></g><g id="bde53" class="Label" transform="translate(219,662)" color="#000"  name="DNA adducts"><use id="bde53-icon" class="Icon" width="80" height="20" fill="transparent"  stroke="#000" stroke-width="0" xlink:href="#none"/><text id="bde53-text" class="Text" transform="translate(40,13)" fill="#000"  font-size="10px" stroke="white" stroke-width="0" text-anchor="middle"><tspan x="0" y="0">DNA adducts</tspan></text></g><g id="d12b9" class="Label" transform="translate(680,613)" color="#000"  name="+ Reactive oxygen species"><use id="d12b9-icon" class="Icon" width="144" height="20" fill="transparent"  stroke="#000" stroke-width="0" xlink:href="#none"/><text id="d12b9-text" class="Text" transform="translate(72,13)" fill="#000"  font-size="10px" stroke="white" stroke-width="0" text-anchor="middle"><tspan x="0" y="0">+ Reactive oxygen species</tspan></text></g><g id="f15dd" class="Label" transform="translate(622,278)" color="#000"  name="Isomerisation"><use id="f15dd-icon" class="Icon" width="80" height="20" fill="transparent"  stroke="#000" stroke-width="0" xlink:href="#none"/><text id="f15dd-text" class="Text" transform="translate(40,13)" fill="#000"  font-size="10px" stroke="white" stroke-width="0" text-anchor="middle"><tspan x="0" y="0">Isomerisation</tspan></text></g><g id="a04fa" class="Metabolite" transform="translate(751,168)" color="#00f"  name="9-hydroxy-benzo[a]pyrene"><rect id="a04fa-icon" class="Icon" transform="matrix(.99301 0 0 .95238 .4965 .47619)" width="142" height="20" fill="#fff" stroke="#00f"/><text id="a04fa-text" class="Text" transform="translate(71,13)" fill="#00f"  font-size="10px" stroke="white" stroke-width="0" text-anchor="middle"><tspan x="0" y="0">9-hydroxy-benzo[a]pyrene</tspan></text></g><a id="a17f9" class="PubChem-compound_149850 Metabolite " transform="translate(1060,138)" color="#00f"  name="Benzo[a]pyrene-9-sulfate"  ><rect id="a17f9-icon" class="Icon" transform="matrix(.99213 0 0 .95238 .49606 .47619)" width="126" height="20" fill="#fff" stroke="#00f"/><text id="a17f9-text" class="Text" transform="translate(63,13)" fill="#00f"  font-size="10px" stroke="white" stroke-width="0" text-anchor="middle"><tspan x="0" y="0">Benzo[a]pyrene-9-sulfate</tspan></text></a><a id="a9aec" class="Chemspider_24123 Metabolite ChEBI_CHEBI_34562  " transform="translate(365,499)" color="#00f"  name="7,8-dihydroxy-7,8-dihydro-benzo[a]pyrene"  ><rect id="a9aec-icon" class="Icon" transform="matrix(.99522 0 0 .95238 .49761 .47619)" width="208" height="20" fill="#fff" stroke="#00f"/><text id="a9aec-text" class="Text" transform="translate(104,13)" fill="#00f"  font-size="10px" stroke="white" stroke-width="0" text-anchor="middle"><tspan x="0" y="0">7,8-dihydroxy-7,8-dihydro-benzo[a]pyrene</tspan></text></a><a id="ac807" class="PubChem-compound_105020 Metabolite ChEBI_CHEBI_87752  " transform="translate(542,614)" color="#00f"  name="Benzo[a]pyrene-7,8-dione"  ><rect id="ac807-icon" class="Icon" transform="matrix(.99275 0 0 .95238 .49638 .47619)" width="137" height="20" fill="#fff" stroke="#00f"/><text id="ac807-text" class="Text" transform="translate(68.5,13)" fill="#00f"  font-size="10px" stroke="white" stroke-width="0" text-anchor="middle"><tspan x="0" y="0">Benzo[a]pyrene-7,8-dione</tspan></text></a><g id="b44a4" class="GeneProduct" transform="translate(926,166)" color="#000"  name="SULT"><rect id="b44a4-icon" class="Icon" transform="matrix(.98765 0 0 .95238 .49383 .47619)" width="80" height="20" fill="#fff" stroke="#000"/><text id="b44a4-text" class="Text" transform="translate(40,13)" fill="#000"  font-size="10px" stroke="white" stroke-width="0" text-anchor="middle"><tspan x="0" y="0">SULT</tspan></text></g><a id="b6d0b" class="PubChem-compound_2336 Metabolite ChEBI_CHEBI_29865  " transform="translate(423,61)" color="#00f"  name="Benzo[a]pyrene"  ><rect id="b6d0b-icon" class="Icon" transform="matrix(.98925 0 0 .95238 .49462 .47619)" width="92" height="20" fill="#fff" stroke="#00f"/><text id="b6d0b-text" class="Text" transform="translate(46,13)" fill="#00f"  font-size="10px" stroke="white" stroke-width="0" text-anchor="middle"><tspan x="0" y="0">Benzo[a]pyrene</tspan></text></a><g id="c18cd" class="Metabolite" transform="translate(245,289)" color="#00f"  name="Benzo[a]pyrene-6,12-dione"><rect id="c18cd-icon" class="Icon" transform="matrix(.99329 0 0 .95238 .49664 .47619)" width="148" height="20" fill="#fff" stroke="#00f"/><text id="c18cd-text" class="Text" transform="translate(74,13)" fill="#00f"  font-size="10px" stroke="white" stroke-width="0" text-anchor="middle"><tspan x="0" y="0">Benzo[a]pyrene-6,12-dione</tspan></text></g><a  id="c1f99" class="GeneProduct EPHX1 " transform="translate(525,405)"   name="EPHX1"  ><rect id="c1f99-icon" class="Icon" transform="matrix(.98765 0 0 .95238 .49383 .47619)" width="80" height="20" fill="#fff" stroke="#000"/><text id="c1f99-text" class="Text" transform="translate(40,13)" fill="#000"  font-size="10px" stroke="white" stroke-width="0" text-anchor="middle"><tspan x="0" y="0">EPHX1</tspan></text></a><g id="cfaea" class="Metabolite" transform="translate(127,174)" color="#00f"  name="Benzo[a]pyrene radical cation"><rect id="cfaea-icon" class="Icon" transform="matrix(.99394 0 0 .95238 .49697 .47619)" width="164" height="20" fill="#fff" stroke="#00f"/><text id="cfaea-text" class="Text" transform="translate(82,13)" fill="#00f"  font-size="10px" stroke="white" stroke-width="0" text-anchor="middle"><tspan x="0" y="0">Benzo[a]pyrene radical cation</tspan></text></g><g id="cfcfd" class="Metabolite" transform="translate(570,166)" color="#00f"  name="3-hydroxy-benzo[a]pyrene"><rect id="cfcfd-icon" class="Icon" transform="matrix(.99301 0 0 .95238 .4965 .47619)" width="142" height="20" fill="#fff" stroke="#00f"/><text id="cfcfd-text" class="Text" transform="translate(71,13)" fill="#00f"  font-size="10px" stroke="white" stroke-width="0" text-anchor="middle"><tspan x="0" y="0">3-hydroxy-benzo[a]pyrene</tspan></text></g><g id="d7f0b" class="Metabolite" transform="translate(664,195)" color="#00f"  name="7-hydroxy-benzo[a]pyrene"><rect id="d7f0b-icon" class="Icon" transform="matrix(.99301 0 0 .95238 .4965 .47619)" width="142" height="20" fill="#fff" stroke="#00f"/><text id="d7f0b-text" class="Text" transform="translate(71,13)" fill="#00f"  font-size="10px" stroke="white" stroke-width="0" text-anchor="middle"><tspan x="0" y="0">7-hydroxy-benzo[a]pyrene</tspan></text></g><g id="d8002" class="Metabolite" transform="translate(142,318)" color="#00f"  name="Benzo[a]pyrene-3,6-dione"><rect id="d8002-icon" class="Icon" transform="matrix(.99265 0 0 .95238 .49632 .47619)" width="135" height="20" fill="#fff" stroke="#00f"/><text id="d8002-text" class="Text" transform="translate(67.5,13)" fill="#00f"  font-size="10px" stroke="white" stroke-width="0" text-anchor="middle"><tspan x="0" y="0">Benzo[a]pyrene-3,6-dione</tspan></text></g><g id="db97f" class="Metabolite" transform="translate(1071,316)" color="#00f"  name="Benzo[a]pyrene-7-glucuronide"><rect id="db97f-icon" class="Icon" transform="matrix(.99351 0 0 .95238 .49675 .47619)" width="153" height="20" fill="#fff" stroke="#00f"/><text id="db97f-text" class="Text" transform="translate(76.5,13)" fill="#00f"  font-size="10px" stroke="white" stroke-width="0" text-anchor="middle"><tspan x="0" y="0">Benzo[a]pyrene-7-glucuronide</tspan></text></g><a id="de944" class="PubChem-compound_23703977 Metabolite " transform="translate(1061,194)" color="#00f"  name="Benzo[a]pyrene-7-sulfate"  ><rect id="de944-icon" class="Icon" transform="matrix(.99237 0 0 .95238 .49618 .47619)" width="130" height="20" fill="#fff" stroke="#00f"/><text id="de944-text" class="Text" transform="translate(65,13)" fill="#00f"  font-size="10px" stroke="white" stroke-width="0" text-anchor="middle"><tspan x="0" y="0">Benzo[a]pyrene-7-sulfate</tspan></text></a><g id="ed917" class="Metabolite" transform="translate(1069,252)" color="#00f"  name="Benzo[a]pyrene-9-glucuronide"><rect id="ed917-icon" class="Icon" transform="matrix(.99351 0 0 .95238 .49675 .47619)" width="153" height="20" fill="#fff" stroke="#00f"/><text id="ed917-text" class="Text" transform="translate(76.5,13)" fill="#00f"  font-size="10px" stroke="white" stroke-width="0" text-anchor="middle"><tspan x="0" y="0">Benzo[a]pyrene-9-glucuronide</tspan></text></g><a id="f0c0d" class="Chemspider_46738 Metabolite " transform="translate(191,612)" color="#00f"  name="9,10-epoxy-7,8-dihydroxy-7,8-dihydro-benzo[a]pyrene"  ><rect id="f0c0d-icon" class="Icon" transform="matrix(.99632 0 0 .95238 .49816 .47619)" width="271" height="20" fill="#fff" stroke="#00f"/><text id="f0c0d-text" class="Text" transform="translate(135.5,13)" fill="#00f"  font-size="10px" stroke="white" stroke-width="0" text-anchor="middle"><tspan x="0" y="0">9,10-epoxy-7,8-dihydroxy-7,8-dihydro-benzo[a]pyrene</tspan></text></a><g id="f6289" class="Metabolite" transform="translate(140,230)" color="#00f"  name="6-hydroxy-benzo[a]pyrene"><rect id="f6289-icon" class="Icon" transform="matrix(.99286 0 0 .95238 .49643 .47619)" width="139" height="20" fill="#fff" stroke="#00f"/><text id="f6289-text" class="Text" transform="translate(69.5,13)" fill="#00f"  font-size="10px" stroke="white" stroke-width="0" text-anchor="middle"><tspan x="0" y="0">6-hydroxy-benzo[a]pyrene</tspan></text></g><g id="f724f" class="GeneProduct" transform="translate(136.34 92.857)" color="#000"  name="Cytochrome P450 peroxidase"><rect id="f724f-icon" class="Icon" transform="matrix(.99342 0 0 .95238 .49671 .47619)" width="151" height="20" fill="#fff" stroke="#000"/><text id="f724f-text" class="Text" transform="translate(75.5,13)" fill="#000"  font-size="10px" stroke="white" stroke-width="0" text-anchor="middle"><tspan x="0" y="0">Cytochrome P450 peroxidase</tspan></text></g><g id="f7e88" class="GeneProduct" transform="translate(912,282)" color="#000"  name="Glucuronosyltransferase"><rect id="f7e88-icon" class="Icon" transform="matrix(.992 0 0 .95238 .496 .47619)" width="124" height="20" fill="#fff" stroke="#000"/><text id="f7e88-text" class="Text" transform="translate(62,13)" fill="#000"  font-size="10px" stroke="white" stroke-width="0" text-anchor="middle"><tspan x="0" y="0">Glucuronosyltransferase</tspan></text></g><g id="fb222" class="Metabolite" transform="translate(401,328)" color="#00f"  name="7,8-epoxy-benzo[a]pyrene"><rect id="fb222-icon" class="Icon" transform="matrix(.99275 0 0 .95238 .49638 .47619)" width="137" height="20" fill="#fff" stroke="#00f"/><text id="fb222-text" class="Text" transform="translate(68.5,13)" fill="#00f"  font-size="10px" stroke="white" stroke-width="0" text-anchor="middle"><tspan x="0" y="0">7,8-epoxy-benzo[a]pyrene</tspan></text></g><a id="fda0c" class="PubChem-compound_18300 Metabolite " transform="translate(25,289)" color="#00f"  name="Benzo[a]pyrene-1,6-dione"  ><rect id="fda0c-icon" class="Icon" transform="matrix(.99265 0 0 .95238 .49632 .47619)" width="135" height="20" fill="#fff" stroke="#00f"/><text id="fda0c-text" class="Text" transform="translate(67.5,13)" fill="#00f"  font-size="10px" stroke="white" stroke-width="0" text-anchor="middle"><tspan x="0" y="0">Benzo[a]pyrene-1,6-dione</tspan></text></a><g id="acbf0" class="GroupComplex" transform="translate(618,497)" color="grey" ><use id="acbf0-icon" class="Icon" transform="matrix(.99459 0 0 .98824 .4973 .49412)" width="184" height="84" fill="#b4b464" fill-opacity=".1" stroke="grey" xlink:href="#Octagon"/><a  id="a64b3" class="GeneProduct AKR1C2 " transform="translate(12,32)"   name="AKR1C2"  ><rect id="a64b3-icon" class="Icon" transform="matrix(.98765 0 0 .95238 .49383 .47619)" width="80" height="20" fill="#fff" stroke="#000"/><text id="a64b3-text" class="Text" transform="translate(40,13)" fill="#000"  font-size="10px" stroke="white" stroke-width="0" text-anchor="middle"><tspan x="0" y="0">AKR1C2</tspan></text></a><a  id="a7b1a" class="GeneProduct AKR1C3 " transform="translate(92,32)"   name="AKR1C3"  ><rect id="a7b1a-icon" class="Icon" transform="matrix(.98765 0 0 .95238 .49383 .47619)" width="80" height="20" fill="#fff" stroke="#000"/><text id="a7b1a-text" class="Text" transform="translate(40,13)" fill="#000"  font-size="10px" stroke="white" stroke-width="0" text-anchor="middle"><tspan x="0" y="0">AKR1C3</tspan></text></a><a  id="bd135" class="GeneProduct AKR1A1 " transform="translate(12,12)"   name="AKR1A1"  ><rect id="bd135-icon" class="Icon" transform="matrix(.98765 0 0 .95238 .49383 .47619)" width="80" height="20" fill="#fff" stroke="#000"/><text id="bd135-text" class="Text" transform="translate(40,13)" fill="#000"  font-size="10px" stroke="white" stroke-width="0" text-anchor="middle"><tspan x="0" y="0">AKR1A1</tspan></text></a><a  id="c46cf" class="GeneProduct AKR1C4 " transform="translate(12,52)"   name="AKR1C4"  ><rect id="c46cf-icon" class="Icon" transform="matrix(.98765 0 0 .95238 .49383 .47619)" width="80" height="20" fill="#fff" stroke="#000"/><text id="c46cf-text" class="Text" transform="translate(40,13)" fill="#000"  font-size="10px" stroke="white" stroke-width="0" text-anchor="middle"><tspan x="0" y="0">AKR1C4</tspan></text></a><a  id="e3ea7" class="GeneProduct AKR1C1 " transform="translate(92,12)"   name="AKR1C1"  ><rect id="e3ea7-icon" class="Icon" transform="matrix(.98765 0 0 .95238 .49383 .47619)" width="80" height="20" fill="#fff" stroke="#000"/><text id="e3ea7-text" class="Text" transform="translate(40,13)" fill="#000"  font-size="10px" stroke="white" stroke-width="0" text-anchor="middle"><tspan x="0" y="0">AKR1C1</tspan></text></a></g><g id="e1dcd" class="GroupComplex" transform="translate(196,497)" color="grey" ><use id="e1dcd-icon" class="Icon" transform="matrix(.99048 0 0 .98824 .49524 .49412)" width="104" height="84" fill="#b4b464" fill-opacity=".1" stroke="grey" xlink:href="#Octagon"/><a  id="a43a3" class="GeneProduct CYP3A4 " transform="translate(12,52)"   name="CYP3A4"  ><rect id="a43a3-icon" class="Icon" transform="matrix(.98765 0 0 .95238 .49383 .47619)" width="80" height="20" fill="#fff" stroke="#000"/><text id="a43a3-text" class="Text" transform="translate(40,13)" fill="#000"  font-size="10px" stroke="white" stroke-width="0" text-anchor="middle"><tspan x="0" y="0">CYP3A4</tspan></text></a><a  id="aaad3" class="GeneProduct CYP1A1 " transform="translate(12,12)"   name="CYP1A1"  ><rect id="aaad3-icon" class="Icon" transform="matrix(.98765 0 0 .95238 .49383 .47619)" width="80" height="20" fill="#fff" stroke="#000"/><text id="aaad3-text" class="Text" transform="translate(40,13)" fill="#000"  font-size="10px" stroke="white" stroke-width="0" text-anchor="middle"><tspan x="0" y="0">CYP1A1</tspan></text></a><a  id="ef8ff" class="GeneProduct CYP1B1 " transform="translate(12,32)"   name="CYP1B1"  ><rect id="ef8ff-icon" class="Icon" transform="matrix(.98765 0 0 .95238 .49383 .47619)" width="80" height="20" fill="#fff" stroke="#000"/><text id="ef8ff-text" class="Text" transform="translate(40,13)" fill="#000"  font-size="10px" stroke="white" stroke-width="0" text-anchor="middle"><tspan x="0" y="0">CYP1B1</tspan></text></a></g><g id="edffa" class="GroupComplex" transform="translate(507,232)" color="grey" ><use id="edffa-icon" class="Icon" transform="matrix(.99048 0 0 .98462 .49524 .49231)" width="104" height="64" fill="#b4b464" fill-opacity=".1" stroke="grey" xlink:href="#Octagon"/><a  id="dc6a2" class="GeneProduct CYP1A1 " transform="translate(12,12)"   name="CYP1A1"  ><rect id="dc6a2-icon" class="Icon" transform="matrix(.98765 0 0 .95238 .49383 .47619)" width="80" height="20" fill="#fff" stroke="#000"/><text id="dc6a2-text" class="Text" transform="translate(40,13)" fill="#000"  font-size="10px" stroke="white" stroke-width="0" text-anchor="middle"><tspan x="0" y="0">CYP1A1</tspan></text></a><a  id="e62e7" class="GeneProduct CYP1B1 " transform="translate(12,32)"   name="CYP1B1"  ><rect id="e62e7-icon" class="Icon" transform="matrix(.98765 0 0 .95238 .49383 .47619)" width="80" height="20" fill="#fff" stroke="#000"/><text id="e62e7-text" class="Text" transform="translate(40,13)" fill="#000"  font-size="10px" stroke="white" stroke-width="0" text-anchor="middle"><tspan x="0" y="0">CYP1B1</tspan></text></a></g><text id="WP696-text" class="Text" transform="translate(5,36)" dominant-baseline="central" fill="black"  font-size="12px" font-weight="bold" overflow="visible" stroke="white" stroke-width="0"><tspan x="0" y="-18">Name: Benzo(a)pyrene metabolism</tspan> <tspan x="0" y="0">Last Modified: 2/22/2013</tspan> <tspan x="0" y="18">Organism: Homo sapiens</tspan></text></g></svg>
