<?xml version="1.0" encoding="UTF-8"?>
<svg xmlns="http://www.w3.org/2000/svg" id="-svg" class="Diagram"  baseProfile="full" prefix="schema:http://schema.org/" preserveAspectRatio="xMidYMid"  version="1.1"><defs><g id="filter-defs"><filter id="doublefalse2filter" x="-50%" y="-50%" width="200%" height="200%"><feComposite in="SourceGraphic" in2="SourceGraphic" result="doubleDark"/><feMorphology in="doubleDark" operator="dilate" radius="0.25" result="in2Double"/><feMorphology in="SourceGraphic" operator="dilate" radius="2" result="inDouble"/><feComposite in="inDouble" in2="in2Double" operator="out" result="doubleResult"/></filter></g><g id="icon-defs"><symbol id="Mitochondria" class=" Icon Mitochondria" x="0" y="0" overflow="visible" preserveAspectRatio="none" viewBox="0 0 100 100"><desc>Mitochondria</desc><ellipse cx="50" cy="50" rx="50" ry="50"/><path d="m14.89 26.35c4.36-0.74 3.83 17.04 8.18 16.18 8.27 0.03 2.98-28.15 9.90-28.34 6.97-0.19 2.25 29.95 9.21 29.44 7.63-0.56 0.51-32.94 8.14-33.62 7.70-0.69 2.92 32.04 10.63 32.23 6.55 0.16 3.03-27.64 9.56-26.92 7.19 0.79 0.66 29.84 7.78 31.67 4.75 1.22 4.42-18.26 9.20-17.44 11.13 7.58 8.63 37.70-2.18 44.65-3.14 0.70-3.97-10.50-7.11-9.91-5.59 1.06-3.98 22.28-9.60 21.80-5.24-0.46-2.23-21.64-7.47-21.73-6.96-0.12-3.36 28.92-10.32 28.50-6.14-0.38-1.73-24.95-7.83-26.19-5.68-1.16-5.38 22.17-11.03 20.68-6.25-1.64-0.47-26.67-6.76-27.87-3.73-0.71-2.65 14.40-6.40 14.54-14.02-5.94-15.75-39.71-3.9-47.67z" vector-effect="non-scaling-stroke"/></symbol><symbol id="Octagon" class=" Icon Octagon" x="0" y="0" overflow="visible" preserveAspectRatio="none" viewBox="0 0 100 100"><desc>Octagon</desc><path d="m0 25 25-25h50l25 25v50l-25 25h-50l-25-25z" vector-effect="non-scaling-stroke"/></symbol></g><g id="marker-defs"><marker id="markerstartarrow000" markerHeight="12" markerWidth="12" orient="auto" preserveAspectRatio="none" refY="6" viewBox="0 0 12 12"><g id="g-markerstartarrow000" transform="rotate(180 6 6)"><g transform="rotate(180 6 6)"><rect y="5.4" width="2" height="1.2" style="stroke:#fff"/><polygon points="12 11 0 6 12 1" stroke-width="0"/></g></g></marker><marker id="mea" markerHeight="12" markerWidth="12" orient="auto" preserveAspectRatio="none" refX="12" refY="6" viewBox="0 0 12 12"><g id="g-mea" transform=""><g transform="rotate(180 6 6)"><rect y="5.4" width="2" height="1.2" style="stroke:#fff"/><polygon points="12 11 0 6 12 1" stroke-width="0"/></g></g></marker><marker id="markerendtbar000" markerHeight="20" markerWidth="10" orient="auto" preserveAspectRatio="none" refX="10" refY="10" viewBox="0 0 10 20"><g id="g-markerendtbar000" transform=""><g transform="rotate(180 5 10)"><rect y="9" width="8" height="2" style="stroke:none"/><line x="0" y="0" width="12" height="12" x1="7" x2="7" y2="20" stroke="#000" stroke-width="1.8"/></g></g></marker><marker id="mea000e6e6e6" markerHeight="12" markerWidth="12" orient="auto" preserveAspectRatio="none" refX="12" refY="6" viewBox="0 0 12 12"><g id="g-mea000e6e6e6" transform=""><g transform="rotate(180 6 6)"><rect y="5.4" width="2" height="1.2" style="fill:#e6e6e6;stroke:#e6e6e6"/><polygon points="12 11 0 6 12 1" stroke-width="0"/></g></g></marker><marker id="markerendtbar000000e6e6e6" markerHeight="20" markerWidth="10" orient="auto" preserveAspectRatio="none" refX="10" refY="10" viewBox="0 0 10 20"><g id="g-markerendtbar000000e6e6e6" transform=""><g transform="rotate(180 5 10)"><rect y="9" width="8" height="2" style="fill:#e6e6e6;stroke:none"/><line x="0" y="0" width="12" height="12" x1="7" x2="7" y2="20" stroke="#000" stroke-width="1.8"/></g></g></marker><marker id="markerendtbarff0033white" markerHeight="20" markerWidth="10" orient="auto" preserveAspectRatio="none" refX="10" refY="10" viewBox="0 0 10 20"><g id="g-markerendtbarff0033white" transform=""><g transform="rotate(180 5 10)"><rect y="9" width="8" height="2" style="stroke:none"/><line x="0" y="0" width="12" height="12" x1="7" x2="7" y2="20" stroke="#f03" stroke-width="1.8"/></g></g></marker></g></defs><g id="viewport-20220102145607516" class="svg-pan-zoom_viewport" transform="matrix(0.62 0 0 0.62 0 43.83)" style="transform:matrix(0.62, 0, 0, 0.62, 0, 43.83)"><style>svg.Diagram {font-family: 'Liberation Sans', Arial, sans-serif; }.Diagram path {fill: transparent;stroke: #000;marker-end: url(#mea);}.Diagram symbol path {fill: inherit;stroke: inherit;stroke-width: inherit;marker-end: inherit;}.Diagram rect {fill: #fff;stroke: #000;}.Diagram text {dominant-baseline: central;overflow: hidden;text-anchor: middle;fill: #000;font-size: 10px;}</style><style type="text/css">.Viewport .textContent {
  pointer-events: none;
  stroke-width: 0px;
}

					.Viewport.Icon {
  fill: white;
}

/* Hide the InfoBox */
.Viewport.textContent {
  font-size: 0;
}

.textContent {
  stroke: none;
}

.DataNode {
  stroke-miterlimit: 1;
  pointer-events: auto;
}

.DataNode:hover {
  cursor: pointer;
}

/* TODO should this apply to things other than DataNodes? */
.DataNode.textContent {
  pointer-events: none;
}

.DataNode.Highlighted {
  opacity: 0.6;
  stroke-width: 0px;
}

marker {
  /* this is what should work per the spec
  stroke-dasharray: none; */
  /* but I need to add this to make it work in Safari */
  stroke-dasharray: 9999999999999999999999999;
}

.Citation.Icon {
  fill: none;
  stroke-width: 0px;
}

.Citation.textContent {
  text-align: center;
  vertical-align: top;
  font-size: 7px;
  fill: #999;
  fill-opacity: 1;
  stroke: none;
}</style><g id="WP707" class="Pathway http___identifiers_org_pw_PW_0000718 http___identifiers_org_pw_PW_0001360 http___identifiers_org_pw_PW_0000237 Viewport"  name="Name: DNA damage response License: CC BY 2.0 Organism: Homo sapiens" ><g class="Pathway http___identifiers_org_pw_PW_0000718 http___identifiers_org_pw_PW_0001360 http___identifiers_org_pw_PW_0000237 Viewport"><rect   width="1950" height="944.67" style="stroke:none"/><g id="a4345" class="Edge"  ><path    d="m666 224h-58.5"/></g><g id="c21f5" class="Edge"  ><path    d="m1207 390-23.43 60.43"/></g><g id="b05ad" class="Edge"  ><path    d="m922.4 360.72h-278.55v393.43" style="marker-end:url(#markerendtbar000)"/></g><g id="fc5e8" class="Edge"  ><path    d="m1247 390 123.23 120.57"/></g><g id="ae3d8" class="Edge"  ><path    d="m890.5 161v-12.25h-305.5v54.25h-157.33"/></g><g id="baae1" class="Edge"  ><path    d="m643.75 866.25 0.09-36.10" stroke-dasharray="5,3"/></g><g id="a9f8e" class="Edge"  ><path    d="m947 821.5h-91" stroke-dasharray="5,3"/></g><g id="cf346" class="Edge"  ><path    d="m1426.9 97.5-170.84 164.7"/></g><g id="f1f10" class="Edge"  ><path    d="m1593 513.5 33.5-1e-13" stroke-dasharray="5,3"/></g><g id="d5b3d" class="Edge"  ><path    d="m889.99 731-1e-13 7.12c1e-13 7.12 1e-13 21.38 39.97 28.5 39.97 7.12 119.91 7.12 159.88 8.72 39.97 1.59 39.97 4.78 39.97 6.38v1.59"/></g><g id="d0de3" class="Edge"  ><path    d="m1398 380h-131" style="marker-end:url(#markerendtbar000)"/></g><g id="fcab6" class="Edge"  ><path    d="m1779 564.5h-64.5v-96.5"/></g><g id="be85d" class="Edge"  ><path    d="m285.17 214.43v8.57h70.5v89"/></g><g id="f5ad4" class="Edge"  ><path    d="m1579.5 232v27.75"/></g><g id="abd75" class="Edge"  ><path    d="m898.99 456.5-100.99-151"/></g><g id="b08c3" class="Edge"  ><path    d="m1198.7 470.43v177.07h372.31" style="marker-end:url(#markerendtbar000)"/></g><g id="aa065" class="Edge"  ><path    d="m1771 458.36-39-0.36"/></g><g id="d0fdc" class="Edge"  ><path    d="m1098.7 114 98.79 148.2"/></g><g id="e435b" class="Edge"  ><path    d="m978 485h-18v74h49.94v78.71"/></g><g id="df150" class="Edge"  ><path    d="m1226.8 282.2-2e-13 39.01"/></g><g id="a5c34" class="Edge"  ><path    d="m898.99 456.5 15.01-189.5"/></g><g id="ad702" class="Edge"  ><path    d="m1677 390v11c0 11 0 33-22.5 44s-67.5 11-90 11l-22.5 4e-14"/></g><g id="c2c95" class="Edge"  ><path    d="m852.14 583.37-50.44 0.31" style="marker-end:url(#markerendtbar000)"/></g><g id="e9309" class="Edge"  ><path    d="m623 327.25-63 85.25" stroke-dasharray="5,3"/></g><g id="pvjsgeneratedidff5a9" class="GroupGroup" transform="translate(14.09 100)"  ><g class="GroupGroup"><g id="id8998b6e1" class="Edge"  ><path    d="m17.35 117.56h70.15" style="marker-end:url(#markerendtbar000000e6e6e6)"/></g><g id="id4ff1b311" class="Edge"  ><path    d="m15.58 51 52.33-3.1e-13" stroke-width="2" style="stroke:#f33;marker-end:none"/></g><g id="id47158851" class="Edge"  ><path    d="m18.78 83.12h68.88" style="marker-end:url(#mea000e6e6e6)"/></g><g id="b08be" class="" transform="translate(8,8)"  name="Caption" ><g class=""><rect   width="192.91" height="172" style="fill:transparent"/></g><g ><defs><clipPath ><rect x="-8" y="-14.6" width="192.91" height="172" style="stroke:none"/></clipPath></defs><text   transform="translate(8 14.6)"    font-weight="bold"  style="text-anchor:start;font-size:12px">Caption</text></g></g><g id="f3308" class="Label" transform="translate(18.37 144.27)"  ><rect   width="64.04" height="20" style="stroke:#0cc"/></g><g id="a40c3" class="Label" transform="translate(88.37 76.94)"  name="Activation" ><g class="Label"/><text   transform="translate(40,10)"    font-weight="bold" >Activation</text></g><g id="d0756" class="Label" transform="translate(87.39 110.61)"  name="Inhibition" ><g class="Label"/><text   transform="translate(40,10)"    font-weight="bold" >Inhibition</text></g><g id="b692a" class="Label" transform="translate(80.91 34.27)"  name="Change in cell condition" ><g class="Label"/><text   transform="translate(60.5,16.5)"    font-weight="bold" >Change in cell condition</text></g><g id="a7595" class="Label" transform="translate(78.20 131.94)"  name="DNA damage source" ><g class="Label"/><text   transform="translate(62.5,22)"    font-weight="bold" >DNA damage source</text></g></g></g><g id="fa083" class="Edge"  ><path    d="m1213.6 774.13h20v104.62h-544.82"/></g><g id="f3904" class="Edge"  ><path    d="m1512.9 466-54.88 59" stroke-dasharray="5,3"/></g><g id="a0e53" class="Edge"  ><path    d="m1478 380h179" style="marker-end:url(#markerendtbar000)"/></g><g id="fbad0" class="Edge"  ><path    d="m938.52 420.92 0.47 35.58"/></g><g id="de8ad" class="Edge"  ><path    d="m1037.1 515 116.26-54.57" style="marker-end:url(#markerendtbar000)"/></g><g id="db89c" class="Edge"  ><path    d="m898.99 456.5-105.99-76.5" stroke-dasharray="5,3"/></g><g id="e070b" class="Edge"  ><path    d="m1009.9 722.71v31.77h-166.94v-23.48" style="marker-end:url(#markerendtbar000)"/></g><g id="d13e0" class="Edge"  ><path    d="m1081 446.5-43 28.5" style="marker-end:url(#markerendtbar000)"/></g><g id="b1fad" class="Edge"  ><path    d="m761 224h-34.75"/></g><g id="dbea2" class="Edge"  ><path    d="m1697 468v120.5h-54"/></g><g id="ba0af" class="Edge"  ><path    d="m1183.6 470.43-60.88 45.82"/></g><g id="b270f" class="Edge"  ><path    d="m1226.8 341.22 0.22 28.79"/></g><g id="cf248" class="Edge"  ><path    d="m1247 390 265.88 56"/></g><g id="ef3fd" class="Edge"  ><path    d="m718.75 431.5h-52.58v277.75h153.33" style="marker-end:url(#markerendtbar000)"/></g><g id="e9d9f" class="Edge"  ><path    d="m1573 588.5-27.64-0.28"/></g><g id="bdf6b" class="Edge"  ><path    d="m769.6 593.68-0.90 32.49" stroke-dasharray="5,3" style="marker-end:url(#markerendtbar000)"/></g><g id="c49e5" class="Edge"  ><path    d="m978 485-2.17 6e-14c-2.17-6e-14 -6.5-6e-14 -8.67 12.54-2.17 12.54-2.17 37.61 11.38 50.14 13.54 12.54 40.62 12.54 54.17 12.54h13.54"/></g><g id="deb55" class="Edge"  ><path    d="m1273.5 477.93v20h12.5v91.07" stroke-dasharray="5,3" style="marker-end:url(#markerendtbar000)"/></g><g id="cfa35" class="Edge"  ><path    d="m1098.7 114-34.74 147.78"/></g><g id="c5561" class="Edge"  ><path    d="m1662 458h-90v23" style="marker-end:url(#markerendtbar000)"/></g><g id="a757e" class="Edge"  ><path    d="m1104 271.78 64.28 0.42"/></g><g id="a62b6" class="Edge"  ><path    d="m1579.5 279.75 97.5 90.25"/></g><g id="id24ee58be" class="Edge"  ><path    d="m787 406.5 91.99 60" style="stroke:#f03;marker-end:url(#markerendtbarff0033white)"/></g><g id="fdb77" class="Edge"  ><path    d="m1500.9 298.75 176.06 71.25"/></g><g id="dbe74" class="Edge"  ><path    d="m1624 222h97"/></g><g id="dbd7c" class="Edge"  ><path    d="m1611 657.5v92.5" stroke-dasharray="5,3"/></g><g id="a8322" class="Edge"  ><path    d="m1031 821.5 122.57 0.76"/></g><g id="a0457" class="Edge"  ><path    d="m1479 619.5h-41v-74.5"/></g><g id="e7023" class="Edge"  ><path    d="m1227 390 46.5 67.93"/></g><g id="c9103" class="Edge"  ><path    d="m1246.8 540.43-0.81 48.57" stroke-dasharray="5,3" style="marker-end:url(#markerendtbar000)"/></g><g id="eaa05" class="Edge"  ><path    d="m1031 821.5 122.57-47.37"/><g id="de5f4" class="AB" transform="translate(1129.8 783.32)"  ><g class="AB"/></g></g><g id="a24b5" class="Edge"  ><path    d="m1018 475-0.25-47"/></g><g id="fc3b6" class="Edge"  ><path    d="m1792 374-77.5 74" style="marker-end:url(#markerendtbar000)"/></g><g id="aedc4" class="Edge"  ><path    d="m581.75 214v-11h-154.08"/></g><g id="a9a20" class="Edge"  ><path    d="m1677 390-259.5 67.25"/></g><g id="d3036" class="Edge"  ><path    d="m753.84 541.87-0.29 31.81"/></g><g id="e4ebe" class="Edge"  ><path    d="m1141.3 608.43-44.63 29.28"/></g><g id="f540a" class="Edge"  ><path    d="m1285.3 272.2 249.72-50.20"/></g><g id="d9681" class="Edge"  ><path    d="m1775 232-58 138"/></g><g id="a538b" class="Edge"  ><path    d="m1000.2 408v-15.5h-25.36v-21.79"/></g><g id="fb065" class="Edge"  ><path    d="m1475.4 588.22h-17.36v-43.22"/></g><g id="a73fb" class="Edge"  ><path    d="m1370.2 530.57-0.23 34.93" stroke-dasharray="5,3"/></g><g id="cd87a" class="Edge"  ><path    d="m1108 560.22 43.24 0.51" style="marker-end:url(#markerendtbar000)"/></g><g id="ee12a" class="Edge"  ><path    d="m1183.6 470.43-42.25 118"/><g id="ecfb3" class="AB" transform="translate(1151.2 560.72)"  ><g class="AB"/></g></g><g id="dd381" class="Edge"  ><path    d="m878.99 466.5-73.15 31.37" style="marker-end:url(#markerendtbar000)"/></g><g id="fe721" class="Edge"  ><path    d="m1608 598.5v21h-59"/></g><g id="c0ef3" class="Edge"  ><path    d="m1697 284v86"/><g id="bf0ba" class="AB" transform="translate(1697 327)"  ><g class="AB"/></g></g><g id="fafc7" class="Edge"  ><path    d="m1791 273.27-94 53.73"/></g><g id="abf9b" class="Edge"  ><path    d="m1786.1 327.67-89.14-0.67"/></g><g id="ea297" class="Edge"  ><path    d="m1697 468v179.5h-46" style="marker-end:url(#markerendtbar000)"/></g><g id="a4921" class="Edge"  ><path    d="m643.84 774.15-4e-13 36" stroke-dasharray="5,3"/></g><g id="aaefc" class="Edge"  ><path    d="m898.99 476.5 0.15 63.61"/></g><g id="e7406" class="Edge"  ><path    d="m1226.5 82.5 0.30 179.7"/></g><g id="a7821" class="Edge"  ><path    d="m1227 390v97h19.81v33.43"/></g><g id="ff100" class="Edge"  ><path    d="m1455.3 298.75-208.31 71.25"/></g><g id="fd685" class="Edge"  ><path    d="m1187 380-75-46" marker-start="url(#markerstartarrow000)"/></g><g id="bfa41" class="Edge"  ><path    d="m1697 468v223h-540.02v-82.57" style="marker-end:url(#markerendtbar000)"/></g><g id="c4791" class="Edge"  ><path    d="m1183.6 470.43v293.7"/></g><g id="ff46e" class="Edge"  ><path    d="m918.99 456.5 20.91-105.78"/></g><g id="a764e" class="Edge"  ><path    d="m718.75 431.5h-35.57v152.18h54.32" style="marker-end:url(#markerendtbar000)"/></g><g id="bb589" class="Edge"  ><path    d="m355.67 376-1 33" stroke-dasharray="5,3"/></g><g id="e0fad" class="Edge"  ><path    d="m1697 390v58"/></g><g id="f1189" class="Edge"  ><path    d="m1207 390-248.01 76.5"/></g><g id="ae848" class="Edge"  ><path    d="m878.99 466.5-98.99-35"/></g><g id="e1f54" class="Edge"  ><path    d="m1256 282.2 420.97 87.80"/></g><g id="a2011" class="Edge"  ><path    d="m666 224-14.33-2e-14c-14.33 0-43 0-57.33 23.67-14.33 23.67-14.33 71-45.89 94.67-31.56 23.67-94.67 23.67-126.22 23.67h-31.56"/></g><g id="ab07e" class="Edge"  ><path    d="m1247 390 106.75 67.25"/></g><g id="d2c14" class="Edge"  ><path    d="m878.99 466.5-109.39 107.18" style="marker-end:url(#markerendtbar000)"/></g><g id="c5dc6" class="Edge"  ><path    d="m898.99 456.5-85.99-189.5"/></g><g id="efaaf" class="Edge"  ><path    d="m355.67 332v24"/></g><g id="d95b2" class="Edge"  ><path    d="m1385.6 467.25 72.38 57.75" stroke-dasharray="5,3"/></g><g id="c1ac3" class="Edge"  ><path    d="m392.67 213v10h-37v89"/></g><g id="d5c86" class=" PhysicalEntity CellularComponent Mitochondria" transform="translate(433.05 156.39) rotate(90.00 70.66 47.72)"  name="Mitochondrion" ><g class=" PhysicalEntity CellularComponent Mitochondria"><use class=" PhysicalEntity CellularComponent Mitochondria Node Icon" width="141.32" height="95.43" fill="transparent" stroke="#ccc" stroke-width="2" href="#Mitochondria"/></g><g ><defs><clipPath ><rect x="-70.66" y="-14.6" width="141.32" height="95.43" style="stroke:none"/></clipPath></defs><text   transform="translate(70.66 14.6) rotate(-90.00 0 33.12)"     style="fill:#ccc;font-size:12px">Mitochondrion</text></g></g><g id="ea7a6" class=" PhysicalEntity CellularComponent Cell" transform="translate(244.33 126.5)"  ><g class=" PhysicalEntity CellularComponent Cell" filter="url(#doublefalse2filter)"><g class=" PhysicalEntity CellularComponent Cell"><rect   transform="matrix(1.00 0 0 0.99 3.98 3.96)" width="1676.7" height="789.17" rx="15" ry="15" stroke-width="2" style="fill:transparent;stroke:#ccc"/></g></g></g><g id="b2d5e" class="Label" transform="translate(1418 525)"  name="DNA repair" ><g class="Label"/><text   transform="translate(40,10)"     style="fill:#f00">DNA repair</text></g><g id="edf4a" class="GroupComplex" transform="translate(1771,403.5)"  ><g class="GroupComplex"><use class="Icon" width="114" height="109.72" fill="#b4b464" fill-opacity=".1" stroke="grey" href="#Octagon"/><g id="f53b1" class="Label" transform="translate(12,12)"  name="9-1-1 complex" ><g class="Label"/><text   transform="translate(45,12.5)"    font-weight="bold"  style="font-size:12px">9-1-1 complex</text></g><g id="e4be3" class="GeneProduct " transform="translate(23 37.72)"  name="HUS1" ><rect   width="70" height="20"/><text   transform="translate(35,10)"    >HUS1</text></g><g id="d4e5e" class="GeneProduct " transform="translate(23 57.72)"  name="RAD1" ><rect   width="70" height="20"/><text   transform="translate(35,10)"    >RAD1</text></g><g id="f67a0" class="GeneProduct " transform="translate(23 77.72)"  name="RAD9A" ><rect   width="70" height="20"/><text   transform="translate(35,10)"    >RAD9A</text></g></g></g><g id="ada6b" class="Label" transform="translate(1024 261.78)"  name="DNA adduct" ><g class="Label"/><text   transform="translate(40,10)"    font-weight="bold" >DNA adduct</text></g><g id="ac23e" class="Label" transform="translate(603.84 754.15)"  name="G2/M transition" ><g class="Label"/><text   transform="translate(40,10)"    >G2/M transition</text></g><g id="a3121" class="Label" transform="translate(1167.3 321.22)"  name="Chromatin alteration" ><g class="Label"/><text   transform="translate(59.5,10)"    font-weight="bold" >Chromatin alteration</text></g><g id="be5fc" class="Label" transform="translate(1721 212)"  name="Blocked replication" ><g class="Label"/><text   transform="translate(54,10)"    font-weight="bold" >Blocked replication</text></g><g id="df6d7" class="Label" transform="translate(705.2 626.17)"  name="G2/M checkpoint" ><g class="Label"/><text   transform="translate(63.5,10)"     style="fill:#ff3333">G2/M checkpoint</text></g><g id="f1e53" class="Label" transform="translate(1626.5 499)"  name="Chromatin remodelling" ><g class="Label"/><text   transform="translate(34.25,14.5)"     style="fill:#ff0033"><tspan   x="0" y="-5.5">Chromatin</tspan><tspan   x="0" y="5.5">remodelling</tspan></text></g><g id="e8894" class="Label" transform="translate(1571,750)"  name="G2/M Checkpoint" ><g class="Label"/><text   transform="translate(40 16.12)"     style="fill:#f00">G2/M Checkpoint</text></g><g id="c39ef" class="Label" transform="translate(916 400.92)"  name="ROS" ><g class="Label"/><text   transform="translate(22.52 10)"    font-weight="bold"  style="fill:#0cc">ROS</text></g><g id="cc475" class="Label" transform="translate(574.34 810.15)"  name="Cell-cycle progression" ><g class="Label"/><text   transform="translate(69.5,10)"     style="fill:#ff3333">Cell-cycle progression</text></g><g id="b5760" class="Label" transform="translate(1328.8 23.33)"  name="Endogenous:  Collapsed replication forks Single stranded DNA replication breaks Free radicals (ROS)" ><rect   width="196.25" height="74.17" style="stroke:#0cc"/><text   transform="translate(98.12 37.08)"    font-weight="bold"  style="fill:#0cc"><tspan   x="0" y="-22">Endogenous:</tspan><tspan   x="0" y="-11"/><tspan   x="0" y="0">Collapsed replication forks</tspan><tspan   x="0" y="11">Single stranded DNA replication breaks</tspan><tspan   x="0" y="22">Free radicals (ROS)</tspan></text></g><g id="e487c" class="Label" transform="translate(1168.3 262.2)"  name="Double-strand breaks" ><g class="Label"/><text   transform="translate(58.5,10)"    font-weight="bold" >Double-strand breaks</text></g><g id="def5e" class="Label" transform="translate(1165.5 10.10)"  name="Specialized:  Somatic hypermutaion V(D)J recombination Class switching" ><rect   width="122" height="72.40" style="stroke:#0cc"/><text   transform="translate(61 36.20)"    font-weight="bold"  style="fill:#0cc"><tspan   x="0" y="-22">Specialized:</tspan><tspan   x="0" y="-11"/><tspan   x="0" y="0">Somatic hypermutaion</tspan><tspan   x="0" y="11">V(D)J recombination</tspan><tspan   x="0" y="22">Class switching</tspan></text></g><g id="f09b8" class="Label" transform="translate(1647 264)"  name="Replication stress" ><g class="Label"/><text   transform="translate(50,10)"    font-weight="bold" >Replication stress</text></g><g id="ac2a8" class="Label" transform="translate(1521.5 259.75)"  name="Blocked transcription" ><g class="Label"/><text   transform="translate(58,10)"    font-weight="bold" >Blocked transcription</text></g><g id="ac2ae" class="Label" transform="translate(1535 212)"  name="Bulky DNA lesion" ><g class="Label"/><text   transform="translate(44.5,10)"    font-weight="bold" >Bulky DNA lesion</text></g><g id="cff96" class="Label" transform="translate(1081 437)"  name="ROS" ><g class="Label"/><text   transform="translate(18,9.5)"    font-weight="bold"  style="fill:#0cc">ROS</text></g><g id="c66cb" class="Label" transform="translate(1048.2 9)"  name="Exogenous:  Cigarette Smoke Caffeine Radiation (UV) Clastogenes Hypoxia Genotoxic drugs" ><rect   width="100.99" height="105" style="stroke:#0cc"/><text   transform="translate(50.49 52.5)"    font-weight="bold"  style="fill:#0cc"><tspan   x="0" y="-38.5">Exogenous:</tspan><tspan   x="0" y="-27.5"/><tspan   x="0" y="-16.5">Cigarette Smoke</tspan><tspan   x="0" y="-5.5">Caffeine</tspan><tspan   x="0" y="5.5">Radiation (UV)</tspan><tspan   x="0" y="16.5">Clastogenes</tspan><tspan   x="0" y="27.5">Hypoxia</tspan><tspan   x="0" y="38.5">Genotoxic drugs</tspan></text></g><g id="a7344" class="Pathway" transform="translate(1325,565.5)"  name="Cell survival" ><g class="Pathway"/><g ><defs><clipPath ><rect x="-45" y="-12.5" width="90" height="25" style="stroke:none"/></clipPath></defs><text   transform="translate(45,12.5)"    font-weight="bold"  style="fill:#14961e;font-size:12px">Cell survival</text></g></g><g id="aaf72" class="Pathway" transform="translate(495,412.5)"  name="DNA repair and damage prevention" ><g class="Pathway"><rect   width="130" height="25" rx="15" ry="15" style="stroke:#14961e"/></g><g ><defs><clipPath ><rect x="-65" y="-12.5" width="130" height="25" style="stroke:none"/></clipPath></defs><text   transform="translate(65,12.5)"    font-weight="bold"  style="fill:#14961e;font-size:12px"><tspan   x="0" y="-6.60">DNA repair and</tspan><tspan   x="0" y="6.60">damage prevention</tspan></text></g></g><g id="eb900" class="Pathway" transform="translate(703,367.5)"  name="DNA damage  ATM dependent" ><g class="Pathway"><rect   width="90" height="25" rx="15" ry="15" style="stroke:#14961e"/></g><g ><defs><clipPath ><rect x="-45" y="-12.5" width="90" height="25" style="stroke:none"/></clipPath></defs><text   transform="translate(45,12.5)"    font-weight="bold"  style="fill:#14961e;font-size:12px"><tspan   x="0" y="-6.60">DNA damage </tspan><tspan   x="0" y="6.60">ATM dependent</tspan></text></g></g><g id="d2f96" class="GroupComplex" transform="translate(947 788.5)"  ><g class="GroupComplex"><use class="Icon" width="84" height="66" fill="#b4b464" fill-opacity=".1" stroke="grey" href="#Octagon"/><g id="a35cb" class="GeneProduct " transform="translate(12,12)"  name="RB1" ><rect   width="60" height="20"/><text   transform="translate(30,10)"    >RB1</text></g><g id="def85" class="GeneProduct " transform="translate(12,34)"  name="E2F1" ><rect   width="60" height="20"/><text   transform="translate(30,10)"    >E2F1</text></g></g></g><g id="f456b" class="GeneProduct " transform="translate(1571 637.5)"  name="CDC25C" ><rect   width="80" height="20"/><text   transform="translate(40,10)"    >CDC25C</text></g><g id="d81c9" class="GeneProduct " transform="translate(666 214)"  name="CASP8" ><rect   width="60.25" height="20"/><text   transform="translate(30.12,10)"    >CASP8</text></g><g id="c2038" class="GroupComplex" transform="translate(701.84 453.87)"  ><g class="GroupComplex"><use class="Icon" width="104" height="88" fill="#b4b464" fill-opacity=".1" stroke="grey" href="#Octagon"/><g id="fcb39" class="GeneProduct " transform="translate(12,12)"  name="CCNB1" ><rect   width="80" height="20"/><text   transform="translate(40,10)"    >CCNB1</text></g><g id="e5cf1" class="GeneProduct " transform="translate(12,56)"  name="CCNB3" ><rect   width="80" height="20"/><text   transform="translate(40,10)"    >CCNB3</text></g><g id="a1ae8" class="GeneProduct " transform="translate(12,34)"  name="CCNB2" ><rect   width="80" height="20"/><text   transform="translate(40,10)"    >CCNB2</text></g></g></g><g id="c870e" class="GroupComplex" transform="translate(1018 291)"  ><g class="GroupComplex"><use class="Icon" width="94" height="86.00" fill="#b4b464" fill-opacity=".1" stroke="grey" href="#Octagon"/><g id="f2df4" class="GeneProduct " transform="translate(12 54)"  name="MRE11" ><rect   width="70" height="20"/><text   transform="translate(35,10)"    >MRE11</text></g><g id="e84b2" class="GeneProduct " transform="translate(12,12)"  name="RAD50" ><rect   width="70" height="20"/><text   transform="translate(35,10)"    >RAD50</text></g><g id="b7bdf" class="GeneProduct " transform="translate(12 33)"  name="NBN" ><rect   width="70" height="20"/><text   transform="translate(35,10)"    >NBN</text></g></g></g><g id="ac4da" class="GeneProduct " transform="translate(1662 448)"  name="CHEK1" ><rect   width="70" height="20"/><text   transform="translate(35,10)"    >CHEK1</text></g><g id="a7c42" class="GeneProduct " transform="translate(1657 370)"  name="ATR" ><rect   width="80" height="20"/><text   transform="translate(40,10)"    >ATR</text></g><g id="d4c23" class="Metabolite" transform="translate(1398 370)"  name="Caffeine" ><rect   width="80" height="20" style="stroke:#00f"/><text   transform="translate(40,10)"     style="fill:#00f">Caffeine</text></g><g id="f6017" class="Pathway" transform="translate(598.75,866.25)"  name="G1/S transition" ><g class="Pathway"><rect   width="90" height="25" rx="15" ry="15" style="stroke:#14961e"/></g><g ><defs><clipPath ><rect x="-45" y="-12.5" width="90" height="25" style="stroke:none"/></clipPath></defs><text   transform="translate(45,12.5)"    font-weight="bold"  style="fill:#14961e;font-size:12px">G1/S transition</text></g></g><g id="a6028" class="GeneProduct " transform="translate(718.75 421.5)"  name="CDKN1A" ><rect   width="61.25" height="20"/><text   transform="translate(30.62,10)"    >CDKN1A</text></g><g id="a2664" class="GeneProduct " transform="translate(1475.4 578.22)"  name="RAD52" ><rect   width="70" height="20"/><text   transform="translate(35,10)"    >RAD52</text></g><g id="e86b6" class="GeneProduct " transform="translate(1046.2 550.22)"  name="c-Myc" ><rect   width="61.75" height="20"/><text   transform="translate(30.88,10)"    >c-Myc</text></g><g id="d9b7f" class="GeneProduct " transform="translate(320.67 356)"  name="CASP3" ><rect   width="70" height="20"/><text   transform="translate(35,10)"    >CASP3</text></g><g id="d838c" class="GeneProduct " transform="translate(729.75 396.5)"  name="MDM2" ><rect   width="57.25" height="20"/><text   transform="translate(28.62,10)"    >MDM2</text></g><g id="c6210" class="GroupComplex" transform="translate(966.56 637.71)"  ><g class="GroupComplex"><use class="Icon" width="173.50" height="85" fill="#b4b464" fill-opacity=".1" stroke="grey" href="#Octagon"/><g id="da396" class="GeneProduct " transform="translate(91.5 53)"  name="CDK6" ><rect   width="70" height="20"/><text   transform="translate(35,10)"    >CDK6</text></g><g id="a947d" class="GeneProduct " transform="translate(12,53)"  name="CCND3" ><rect   width="70" height="20"/><text   transform="translate(35,10)"    >CCND3</text></g><g id="ace9b" class="GeneProduct " transform="translate(12,12)"  name="CCND1" ><rect   width="70" height="20"/><text   transform="translate(35,10)"    >CCND1</text></g><g id="baf31" class="GeneProduct " transform="translate(91.5 33)"  name="CDK5" ><rect   width="70" height="20"/><text   transform="translate(35,10)"    >CDK5</text></g><g id="df337" class="GeneProduct " transform="translate(91.5 12)"  name="CDK4" ><rect   width="70" height="20"/><text   transform="translate(35,10)"    >CDK4</text></g><g id="b2eb2" class="GeneProduct " transform="translate(12,32)"  name="CCND2" ><rect   width="70" height="20"/><text   transform="translate(35,10)"    >CCND2</text></g></g></g><g id="cf93b" class="GroupComplex" transform="translate(623 262)"  ><g class="GroupComplex"><use class="Icon" width="175" height="87.00" fill="#b4b464" fill-opacity=".1" stroke="grey" href="#Octagon"/><g id="c7f52" class="GeneProduct " transform="translate(93 33)"  name="DDB2" ><rect   width="70" height="20"/><text   transform="translate(35,10)"    >DDB2</text></g><g id="de74b" class="GeneProduct " transform="translate(93 55)"  name="SESN1" ><rect   width="70" height="20"/><text   transform="translate(35,10)"    >SESN1</text></g><g id="ece52" class="GeneProduct " transform="translate(93,12)"  name="RRM2B" ><rect   width="70" height="20"/><text   transform="translate(35,10)"    >RRM2B</text></g><g id="af54e" class="GeneProduct " transform="translate(12 55)"  name="GADD45G" ><rect   width="70" height="20"/><text   transform="translate(35,10)"    >GADD45G</text></g><g id="a3789" class="GeneProduct " transform="translate(12 33)"  name="GADD45B" ><rect   width="70" height="20"/><text   transform="translate(35,10)"    >GADD45B</text></g><g id="aa8a3" class="GeneProduct " transform="translate(12,12)"  name="GADD45A" ><rect   width="70" height="20"/><text   transform="translate(35,10)"    >GADD45A</text></g></g></g><g id="b4c86" class="GeneProduct " transform="translate(1082 516.25)"  name="PML" ><rect   width="54.25" height="20"/><text   transform="translate(27.12,10)"    >PML</text></g><g id="adae8" class="GeneProduct " transform="translate(556 214)"  name="BID" ><rect   width="51.5" height="20"/><text   transform="translate(25.75,10)"    >BID</text></g><g id="c79c1" class="GroupComplex" transform="translate(867 161)"  ><g class="GroupComplex"><use class="Icon" width="94" height="106.00" fill="#b4b464" fill-opacity=".1" stroke="grey" href="#Octagon"/><g id="acb7b" class="GeneProduct " transform="translate(12,12)"  name="TP53AIP1" ><rect   width="70" height="20"/><text   transform="translate(35,10)"    >TP53AIP1</text></g><g id="c90dc" class="GeneProduct " transform="translate(12 53)"  name="PMAIP1" ><rect   width="70" height="20"/><text   transform="translate(35,10)"    >PMAIP1</text></g><g id="e6f34" class="GeneProduct " transform="translate(12 33)"  name="BBC3" ><rect   width="70" height="20"/><text   transform="translate(35,10)"    >BBC3</text></g><g id="d99a6" class="GeneProduct " transform="translate(12 74)"  name="BAX" ><rect   width="70" height="20"/><text   transform="translate(35,10)"    >BAX</text></g></g></g><g id="fa915" class="GeneProduct " transform="translate(1483.8 446)"  name="H2AFX" ><rect   width="58.25" height="20"/><text   transform="translate(29.12,10)"    >H2AFX</text></g><g id="b969a" class="GeneProduct " transform="translate(1244.5 457.93)"  name="FANCD2" ><rect   width="58" height="20"/><text   transform="translate(29,10)"    >FANCD2</text></g><g id="e4792" class="GroupComplex" transform="translate(852.14 540.11)"  ><g class="GroupComplex"><use class="Icon" width="94" height="86.52" fill="#b4b464" fill-opacity=".1" stroke="grey" href="#Octagon"/><g id="cda63" class="GeneProduct " transform="translate(12,12)"  name="GADD45A" ><rect   width="70" height="20"/><text   transform="translate(35,10)"    >GADD45A</text></g><g id="c6556" class="GeneProduct " transform="translate(12 32.52)"  name="GADD45B" ><rect   width="70" height="20"/><text   transform="translate(35,10)"    >GADD45B</text></g><g id="bea00" class="GeneProduct " transform="translate(12 54.52)"  name="GADD45G" ><rect   width="70" height="20"/><text   transform="translate(35,10)"    >GADD45G</text></g></g></g><g id="df4de" class="GroupComplex" transform="translate(761 181)"  ><g class="GroupComplex"><use class="Icon" width="104" height="86.00" fill="#b4b464" fill-opacity=".1" stroke="grey" href="#Octagon"/><g id="cf525" class="GeneProduct " transform="translate(12,12)"  name="FAS" ><rect   width="80" height="20"/><text   transform="translate(40,10)"    >FAS</text></g><g id="aca86" class="GeneProduct " transform="translate(12 33)"  name="PIDD" ><rect   width="80" height="20"/><text   transform="translate(40,10)"    >PIDD</text></g><g id="f6a85" class="GeneProduct " transform="translate(12 54)"  name="TNFRSF10B" ><rect   width="80" height="20"/><text   transform="translate(40,10)"    >TNFRSF10B</text></g></g></g><g id="b65ce" class="Pathway" transform="translate(1226 589)"  name="Cell Cycle" ><g class="Pathway"><rect   width="80" height="20" rx="15" ry="15" style="stroke:#14961e"/></g><g ><defs><clipPath ><rect x="-40" y="-10" width="80" height="20" style="stroke:none"/></clipPath></defs><text   transform="translate(40,10)"    font-weight="bold"  style="fill:#14961e;font-size:12px">Cell Cycle</text></g></g><g id="df713" class="GeneProduct " transform="translate(357.67 193)"  name="CYCS" ><rect   width="70" height="20"/><text   transform="translate(35,10)"    >CYCS</text></g><g id="f107a" class="GeneProduct " transform="translate(737.5 573.68)"  name="CDC2" ><rect   width="64.20" height="20"/><text   transform="translate(32.10 10)"    >CDC2</text></g><g id="c9e7c" class="GeneProduct " transform="translate(1153.6 812.26)"  name="RB1" ><rect   width="60" height="20"/><text   transform="translate(30,10)"    >RB1</text></g><g id="ebffe" class="Metabolite" transform="translate(1758 354)"  name="7-hydroxystaurosporine" ><rect   width="136" height="20" style="stroke:#00f"/><text   transform="translate(68,10)"     style="fill:#00f">7-hydroxystaurosporine</text></g><g id="a0645" class="GeneProduct " transform="translate(1479 609.5)"  name="RAD51" ><rect   width="70" height="20"/><text   transform="translate(35,10)"    >RAD51</text></g><g id="ab4a3" class="GeneProduct " transform="translate(982.75 408)"  name="CDKN1B" ><rect   width="70" height="20"/><text   transform="translate(35,10)"    >CDKN1B</text></g><g id="edd98" class="GroupComplex" transform="translate(819.49 644)"  ><g class="GroupComplex"><use class="Icon" width="94" height="87" fill="#b4b464" fill-opacity=".1" stroke="grey" href="#Octagon"/><g id="a848a" class="GeneProduct " transform="translate(12,12)"  name="CDK2" ><rect   width="70" height="20"/><text   transform="translate(35,10)"    >CDK2</text></g><g id="e598e" class="GeneProduct " transform="translate(12,34)"  name="CCNE1" ><rect   width="70" height="20"/><text   transform="translate(35,10)"    >CCNE1</text></g><g id="d4237" class="GeneProduct " transform="translate(12,55)"  name="CCNE2" ><rect   width="70" height="20"/><text   transform="translate(35,10)"    >CCNE2</text></g></g></g><g id="c1266" class="GeneProduct " transform="translate(922.4 350.72)"  name="SFN" ><rect   width="70" height="20"/><text   transform="translate(35,10)"    >SFN</text></g><g id="f488e" class="GeneProduct " transform="translate(1786.1 317.67)"  name="ATRIP" ><rect   width="70" height="20"/><text   transform="translate(35,10)"    >ATRIP</text></g><g id="ccdd5" class="GeneProduct " transform="translate(1791 263.27)"  name="RPA2" ><rect   width="70" height="20"/><text   transform="translate(35,10)"    >RPA2</text></g><g id="e15c3" class="GeneProduct " transform="translate(878.99 456.5)"  name="TP53" ><rect   width="80" height="20"/><text   transform="translate(40,10)"    >TP53</text></g><g id="a24bf" class="GroupComplex" transform="translate(1509 481)"  ><g class="GroupComplex"><use class="Icon" width="84" height="65.00" fill="#b4b464" fill-opacity=".1" stroke="grey" href="#Octagon"/><g id="bdb9e" class="GeneProduct " transform="translate(12,12)"  name="TLK1" ><rect   width="60" height="20"/><text   transform="translate(30,10)"    >TLK1</text></g><g id="bd01f" class="GeneProduct " transform="translate(12 33)"  name="TLK2" ><rect   width="60" height="20"/><text   transform="translate(30,10)"    >TLK2</text></g></g></g><g id="c44fe" class="GroupComplex" transform="translate(1779 532)"  ><g class="GroupComplex"><use class="Icon" width="94" height="65.00" fill="#b4b464" fill-opacity=".1" stroke="grey" href="#Octagon"/><g id="abca1" class="GeneProduct " transform="translate(12 33)"  name="RAD17" ><rect   width="70" height="20"/><text   transform="translate(35,10)"    >RAD17</text></g><g id="abe1f" class="GeneProduct " transform="translate(12,12)"  name="RFC" ><rect   width="70" height="20"/><text   transform="translate(35,10)"    >RFC</text></g></g></g><g id="c2a35" class="GeneProduct " transform="translate(1353.8 447.25)"  name="BRCA1" ><rect   width="63.75" height="20"/><text   transform="translate(31.88,10)"    >BRCA1</text></g><g id="b87d6" class="GeneProduct " transform="translate(1153.3 450.43)"  name="CHEK2" ><rect   width="60.5" height="20"/><text   transform="translate(30.25,10)"    >CHEK2</text></g><g id="df6f2" class="GeneProduct " transform="translate(1212.6 520.43)"  name="SMC1A" ><rect   width="68.36" height="20"/><text   transform="translate(34.18 10)"    >SMC1A</text></g><g id="a606d" class="Metabolite " transform="translate(978 475)"  name="Estradiol" ><rect   width="80" height="20" style="stroke:#00f"/><text   transform="translate(40,10)"     style="fill:#00f">Estradiol</text></g><g id="f2bf5" class="GeneProduct " transform="translate(1336.2 510.57)"  name="CREB" ><rect   width="67.96" height="20"/><text   transform="translate(33.98 10)"    >CREB</text></g><g id="a6f6b" class="GeneProduct " transform="translate(1573 578.5)"  name="ABL1" ><rect   width="70" height="20"/><text   transform="translate(35,10)"    >ABL1</text></g><g id="d7209" class="GeneProduct " transform="translate(993.75 515)"  name="PRKDC" ><rect   width="57.75" height="20"/><text   transform="translate(28.88,10)"    >PRKDC</text></g><g id="a1a1f" class="GeneProduct " transform="translate(267.67 194.43)"  name="APAF1" ><rect   width="70" height="20"/><text   transform="translate(35,10)"    >APAF1</text></g><g id="af3c9" class="GeneProduct " transform="translate(320.67 312)"  name="CASP9" ><rect   width="70" height="20"/><text   transform="translate(35,10)"    >CASP9</text></g><g id="ea834" class="GeneProduct " transform="translate(1153.6 764.13)"  name="E2F1" ><rect   width="60" height="20"/><text   transform="translate(30,10)"    >E2F1</text></g><g id="ff5a8" class="GeneProduct " transform="translate(1110 588.43)"  name="CDC25A" ><rect   width="62.64" height="20"/><text   transform="translate(31.32 10)"    >CDC25A</text></g><g id="f5b8a" class="Pathway" transform="translate(776 811.5)"  name="Senescence" ><g class="Pathway"><rect   width="80" height="20" rx="15" ry="15" style="stroke:#14961e"/></g><g ><defs><clipPath ><rect x="-40" y="-10" width="80" height="20" style="stroke:none"/></clipPath></defs><text   transform="translate(40,10)"    font-weight="bold"  style="fill:#14961e;font-size:12px">Senescence</text></g></g><g id="b7d6e" class="Pathway" transform="translate(314.67 409)"  name="Apoptosis" ><g class="Pathway"><rect   width="80" height="20" rx="15" ry="15" style="stroke:#14961e"/></g><g ><defs><clipPath ><rect x="-40" y="-10" width="80" height="20" style="stroke:none"/></clipPath></defs><text   transform="translate(40,10)"    font-weight="bold"  style="fill:#14961e;font-size:12px">Apoptosis</text></g></g><g id="c62cb" class="Metabolite " transform="translate(1432.5,273.75)"  name="alkylating agents" ><rect   width="91.25" height="25" style="stroke:#00f"/><text   transform="translate(45.62,12.5)"     style="fill:#00f">alkylating agents</text></g><g id="dde4a" class="GeneProduct " transform="translate(1187 370)"  name="ATM" ><rect   width="80" height="20"/><text   transform="translate(40,10)"    >ATM</text></g></g></g></g></svg>